solid OpenSCAD_Model
  facet normal -1 2.22029e-16 -1.55761e-19
    outer loop
      vertex 1.17431e-14 52.8864 0.170489
      vertex 1.19904e-14 54.0001 0
      vertex 1.17481e-14 52.9088 0
    endloop
  endfacet
  facet normal -1 2.22053e-16 1.55e-21
    outer loop
      vertex 1.19904e-14 54.0001 0
      vertex 1.17431e-14 52.8864 0.170489
      vertex 1.19223e-14 53.6934 2.32937
    endloop
  endfacet
  facet normal -1 2.22007e-16 1.85483e-20
    outer loop
      vertex 1.16877e-14 52.6367 2.07055
      vertex 1.19223e-14 53.6934 2.32937
      vertex 1.17431e-14 52.8864 0.170489
    endloop
  endfacet
  facet normal -1 2.21985e-16 1.09806e-19
    outer loop
      vertex 1.1673e-14 52.5704 2.2309
      vertex 1.19223e-14 53.6934 2.32937
      vertex 1.16877e-14 52.6367 2.07055
    endloop
  endfacet
  facet normal -1 2.21995e-16 -2.04659e-21
    outer loop
      vertex 1.19223e-14 53.6934 2.32937
      vertex 1.1673e-14 52.5704 2.2309
      vertex 1.17227e-14 52.7943 4.5
    endloop
  endfacet
  facet normal -1 2.22113e-16 -1.37163e-20
    outer loop
      vertex 1.15105e-14 51.8389 4
      vertex 1.17227e-14 52.7943 4.5
      vertex 1.1673e-14 52.5704 2.2309
    endloop
  endfacet
  facet normal -1 2.2202e-16 1.64815e-19
    outer loop
      vertex 1.14869e-14 51.7325 4.1389
      vertex 1.17227e-14 52.7943 4.5
      vertex 1.15105e-14 51.8389 4
    endloop
  endfacet
  facet normal -1 2.22071e-16 1.48499e-20
    outer loop
      vertex 1.14869e-14 51.7325 4.1389
      vertex 1.14051e-14 51.364 6.36396
      vertex 1.17227e-14 52.7943 4.5
    endloop
  endfacet
  facet normal -1 2.22069e-16 1.46257e-20
    outer loop
      vertex 1.12287e-14 50.5697 5.65685
      vertex 1.14051e-14 51.364 6.36396
      vertex 1.14869e-14 51.7325 4.1389
    endloop
  endfacet
  facet normal -1 2.21987e-16 1.07438e-19
    outer loop
      vertex 1.11977e-14 50.43 5.76427
      vertex 1.14051e-14 51.364 6.36396
      vertex 1.12287e-14 50.5697 5.65685
    endloop
  endfacet
  facet normal -1 2.22058e-16 -3.96962e-21
    outer loop
      vertex 1.11977e-14 50.43 5.76427
      vertex 1.09912e-14 49.5001 7.79423
      vertex 1.14051e-14 51.364 6.36396
    endloop
  endfacet
  facet normal -1 2.2199e-16 -3.54333e-20
    outer loop
      vertex 1.08615e-14 48.9157 6.9282
      vertex 1.09912e-14 49.5001 7.79423
      vertex 1.11977e-14 50.43 5.76427
    endloop
  endfacet
  facet normal -1 2.2216e-16 -1.50359e-19
    outer loop
      vertex 1.08251e-14 48.7519 6.99615
      vertex 1.09912e-14 49.5001 7.79423
      vertex 1.08615e-14 48.9157 6.9282
    endloop
  endfacet
  facet normal -1 2.22035e-16 -3.29009e-20
    outer loop
      vertex 1.08251e-14 48.7519 6.99615
      vertex 1.05092e-14 47.3294 8.69333
      vertex 1.09912e-14 49.5001 7.79423
    endloop
  endfacet
  facet normal -1 2.22021e-16 -4.42503e-20
    outer loop
      vertex 1.04338e-14 46.9896 7.72741
      vertex 1.05092e-14 47.3294 8.69333
      vertex 1.08251e-14 48.7519 6.99615
    endloop
  endfacet
  facet normal -1 2.22087e-16 -6.76026e-20
    outer loop
      vertex 1.03946e-14 46.8131 7.75069
      vertex 1.05092e-14 47.3294 8.69333
      vertex 1.04338e-14 46.9896 7.72741
    endloop
  endfacet
  facet normal -1 2.22028e-16 -3.49419e-20
    outer loop
      vertex 1.03946e-14 46.8131 7.75069
      vertex 9.99202e-15 45.0001 9
      vertex 1.05092e-14 47.3294 8.69333
    endloop
  endfacet
  facet normal -1 2.22046e-16 -8.56101e-21
    outer loop
      vertex 9.97482e-15 44.9226 8
      vertex 9.99202e-15 45.0001 9
      vertex 1.03946e-14 46.8131 7.75069
    endloop
  endfacet
  facet normal -1 2.2199e-16 -4.25489e-21
    outer loop
      vertex 9.93555e-15 44.7457 7.97668
      vertex 9.99202e-15 45.0001 9
      vertex 9.97482e-15 44.9226 8
    endloop
  endfacet
  facet normal -1 2.22047e-16 -3.64627e-21
    outer loop
      vertex 9.4748e-15 42.6707 8.69333
      vertex 9.93555e-15 44.7457 7.97668
      vertex 9.51586e-15 42.8556 7.72741
    endloop
  endfacet
  facet normal -1 2.22111e-16 8.55364e-21
    outer loop
      vertex 9.4748e-15 42.6707 8.69333
      vertex 9.51586e-15 42.8556 7.72741
      vertex 9.4793e-15 42.691 7.65909
    endloop
  endfacet
  facet normal -1 2.22042e-16 -1.71531e-20
    outer loop
      vertex 9.93555e-15 44.7457 7.97668
      vertex 9.4748e-15 42.6707 8.69333
      vertex 9.99202e-15 45.0001 9
    endloop
  endfacet
  facet normal -1 2.22045e-16 -4.24225e-21
    outer loop
      vertex 8.99282e-15 40.5001 7.79423
      vertex 9.4793e-15 42.691 7.65909
      vertex 9.08817e-15 40.9295 6.9282
    endloop
  endfacet
  facet normal -1 2.21976e-16 -3.87772e-20
    outer loop
      vertex 8.99282e-15 40.5001 7.79423
      vertex 9.08817e-15 40.9295 6.9282
      vertex 9.05692e-15 40.7887 6.82
    endloop
  endfacet
  facet normal -1 2.22046e-16 7.288e-21
    outer loop
      vertex 9.4793e-15 42.691 7.65909
      vertex 8.99282e-15 40.5001 7.79423
      vertex 9.4748e-15 42.6707 8.69333
    endloop
  endfacet
  facet normal -1 2.22046e-16 8.70588e-21
    outer loop
      vertex 8.57894e-15 38.6361 6.36396
      vertex 9.05692e-15 40.7887 6.82
      vertex 8.72091e-15 39.2755 5.65685
    endloop
  endfacet
  facet normal -1 2.22026e-16 -8.85805e-21
    outer loop
      vertex 8.57894e-15 38.6361 6.36396
      vertex 8.72091e-15 39.2755 5.65685
      vertex 8.69711e-15 39.1683 5.51692
    endloop
  endfacet
  facet normal -1 2.22051e-16 -1.64362e-20
    outer loop
      vertex 9.05692e-15 40.7887 6.82
      vertex 8.57894e-15 38.6361 6.36396
      vertex 8.99282e-15 40.5001 7.79423
    endloop
  endfacet
  facet normal -1 2.22046e-16 -4.73181e-21
    outer loop
      vertex 8.26135e-15 37.2058 4.5
      vertex 8.69711e-15 39.1683 5.51692
      vertex 8.4391e-15 38.0063 4
    endloop
  endfacet
  facet normal -1 2.22084e-16 5.69705e-20
    outer loop
      vertex 8.26135e-15 37.2058 4.5
      vertex 8.4391e-15 38.0063 4
      vertex 8.4243e-15 37.9397 3.83877
    endloop
  endfacet
  facet normal -1 2.22043e-16 -4.62936e-21
    outer loop
      vertex 8.06171e-15 36.3067 2.32937
      vertex 8.4243e-15 37.9397 3.83877
      vertex 8.26195e-15 37.2085 2.07055
    endloop
  endfacet
  facet normal -1 2.22043e-16 1.29202e-21
    outer loop
      vertex 8.69711e-15 39.1683 5.51692
      vertex 8.26135e-15 37.2058 4.5
      vertex 8.57894e-15 38.6361 6.36396
    endloop
  endfacet
  facet normal -1 2.22035e-16 -3.38884e-20
    outer loop
      vertex 8.06171e-15 36.3067 2.32937
      vertex 8.26195e-15 37.2085 2.07055
      vertex 8.25696e-15 37.186 1.89972
    endloop
  endfacet
  facet normal -1 2.22044e-16 9.35061e-21
    outer loop
      vertex 7.99362e-15 36.0001 0
      vertex 8.25696e-15 37.186 1.89972
      vertex 8.20152e-15 36.9364 0
    endloop
  endfacet
  facet normal -1 2.22036e-16 3.40611e-21
    outer loop
      vertex 8.4243e-15 37.9397 3.83877
      vertex 8.06171e-15 36.3067 2.32937
      vertex 8.26135e-15 37.2058 4.5
    endloop
  endfacet
  facet normal -1 2.22053e-16 3.61798e-21
    outer loop
      vertex 8.25696e-15 37.186 1.89972
      vertex 7.99362e-15 36.0001 0
      vertex 8.06171e-15 36.3067 2.32937
    endloop
  endfacet
  facet normal 0.509308 -0.860584 -4.41771e-05
    outer loop
      vertex 46.4669 27.5107 0
      vertex 46.203 27.3544 2.32937
      vertex 45.4293 26.8964 4.5
    endloop
  endfacet
  facet normal 0.50944 -0.860506 -2.21698e-05
    outer loop
      vertex 32.0155 18.9547 4.5
      vertex 32.073 18.9888 2.22562
      vertex 32.3563 19.1565 3.02191
    endloop
  endfacet
  facet normal 0.509702 -0.860351 -1.32448e-05
    outer loop
      vertex 32.0155 18.9547 4.5
      vertex 32.0178 18.9561 2.07055
      vertex 32.073 18.9888 2.22562
    endloop
  endfacet
  facet normal 0.519947 -0.854199 0
    outer loop
      vertex 32.0178 18.9561 2.07055
      vertex 32.0155 18.9547 4.5
      vertex 32.0155 18.9547 2.05028
    endloop
  endfacet
  facet normal 0.509363 -0.860552 -0.000113438
    outer loop
      vertex 45.4293 26.8964 4.5
      vertex 44.1986 26.1677 6.36396
      vertex 42.5946 25.2181 7.79423
    endloop
  endfacet
  facet normal 0.509459 -0.860495 3.69156e-05
    outer loop
      vertex 42.5946 25.2181 7.79423
      vertex 40.7268 24.1123 8.69333
      vertex 38.7224 22.9256 9
    endloop
  endfacet
  facet normal 0.509506 -0.860467 -0.000167648
    outer loop
      vertex 38.7224 22.9256 9
      vertex 36.718 21.7388 8.69333
      vertex 34.8502 20.633 7.79423
    endloop
  endfacet
  facet normal 0.50947 -0.860488 -1.28785e-05
    outer loop
      vertex 34.8502 20.633 7.79423
      vertex 36.6944 21.7249 7.63929
      vertex 38.7224 22.9256 9
    endloop
  endfacet
  facet normal 0.509468 -0.860489 -4.67967e-05
    outer loop
      vertex 34.8502 20.633 7.79423
      vertex 35.3499 20.9289 6.99099
      vertex 36.6944 21.7249 7.63929
    endloop
  endfacet
  facet normal 0.509529 -0.860453 4.36688e-06
    outer loop
      vertex 34.8502 20.633 7.79423
      vertex 35.2197 20.8518 6.9282
      vertex 35.3499 20.9289 6.99099
    endloop
  endfacet
  facet normal 0.509473 -0.860487 -2.82287e-05
    outer loop
      vertex 34.8502 20.633 7.79423
      vertex 33.9676 20.1105 5.80978
      vertex 35.2197 20.8518 6.9282
    endloop
  endfacet
  facet normal 0.509498 -0.860472 -4.33207e-05
    outer loop
      vertex 33.9676 20.1105 5.80978
      vertex 34.8502 20.633 7.79423
      vertex 32.0155 18.9547 4.5
    endloop
  endfacet
  facet normal 0.508611 -0.860995 0.0017396
    outer loop
      vertex 32.0155 18.9547 4.5
      vertex 33.9087 20.0756 5.75716
      vertex 33.9676 20.1105 5.80978
    endloop
  endfacet
  facet normal 0.509496 -0.860473 -6.76413e-05
    outer loop
      vertex 33.7964 20.0091 5.65685
      vertex 32.0155 18.9547 4.5
      vertex 33.2969 19.7134 4.89901
    endloop
  endfacet
  facet normal 0.509287 -0.860597 0.000366119
    outer loop
      vertex 33.9087 20.0756 5.75716
      vertex 32.0155 18.9547 4.5
      vertex 33.7964 20.0091 5.65685
    endloop
  endfacet
  facet normal 0.509438 -0.860507 6.14258e-05
    outer loop
      vertex 38.7224 22.9256 9
      vertex 37.0167 21.9157 7.7488
      vertex 38.6558 22.8861 8
    endloop
  endfacet
  facet normal 0.50974 -0.860328 -0.000494035
    outer loop
      vertex 38.7224 22.9256 9
      vertex 36.8771 21.833 7.72741
      vertex 37.0167 21.9157 7.7488
    endloop
  endfacet
  facet normal 0.508599 -0.861002 0.00173803
    outer loop
      vertex 36.8771 21.833 7.72741
      vertex 38.7224 22.9256 9
      vertex 36.6944 21.7249 7.63929
    endloop
  endfacet
  facet normal 0.509605 -0.860408 4.64238e-05
    outer loop
      vertex 38.7956 22.9689 7.97857
      vertex 38.7224 22.9256 9
      vertex 38.6558 22.8861 8
    endloop
  endfacet
  facet normal 0.50944 -0.860506 3.04588e-05
    outer loop
      vertex 40.4344 23.9391 7.72741
      vertex 38.7224 22.9256 9
      vertex 38.7956 22.9689 7.97857
    endloop
  endfacet
  facet normal 0.509471 -0.860488 8.57349e-05
    outer loop
      vertex 38.7224 22.9256 9
      vertex 40.4344 23.9391 7.72741
      vertex 42.5946 25.2181 7.79423
    endloop
  endfacet
  facet normal 0.509472 -0.860487 3.321e-05
    outer loop
      vertex 40.5653 24.0166 7.66429
      vertex 42.5946 25.2181 7.79423
      vertex 40.4344 23.9391 7.72741
    endloop
  endfacet
  facet normal 0.509475 -0.860486 -2.9577e-05
    outer loop
      vertex 42.5946 25.2181 7.79423
      vertex 40.5653 24.0166 7.66429
      vertex 41.1978 24.3911 7.35928
    endloop
  endfacet
  facet normal 0.509363 -0.860552 0.000113438
    outer loop
      vertex 34.8502 20.633 7.79423
      vertex 33.2462 19.6834 6.36396
      vertex 32.0155 18.9547 4.5
    endloop
  endfacet
  facet normal 0.50945 -0.8605 0
    outer loop
      vertex 30.9779 18.3404 0
      vertex 32.0155 18.9547 2.05028
      vertex 32.0155 18.9547 4.5
    endloop
  endfacet
  facet normal 0.509438 -0.860507 8.26347e-06
    outer loop
      vertex 32.0155 18.9547 2.05028
      vertex 30.9779 18.3404 0
      vertex 31.8027 18.8287 0.168544
    endloop
  endfacet
  facet normal 0.509524 -0.860456 -0.000562482
    outer loop
      vertex 31.8027 18.8287 0.168544
      vertex 30.9779 18.3404 0
      vertex 31.7836 18.8175 0
    endloop
  endfacet
  facet normal 0.509308 -0.860584 4.41771e-05
    outer loop
      vertex 32.0155 18.9547 4.5
      vertex 31.2418 18.4967 2.32937
      vertex 30.9779 18.3404 0
    endloop
  endfacet
  facet normal 0.50948 -0.860482 -9.71152e-06
    outer loop
      vertex 32.3563 19.1565 3.02191
      vertex 32.6735 19.3443 3.91328
      vertex 32.0155 18.9547 4.5
    endloop
  endfacet
  facet normal 0.509486 -0.860479 -2.58011e-05
    outer loop
      vertex 32.0155 18.9547 4.5
      vertex 32.7912 19.414 4.13174
      vertex 33.2969 19.7134 4.89901
    endloop
  endfacet
  facet normal 0.509575 -0.860426 0.000226852
    outer loop
      vertex 32.0155 18.9547 4.5
      vertex 32.7043 19.3625 4
      vertex 32.7912 19.414 4.13174
    endloop
  endfacet
  facet normal 0.509305 -0.860586 -0.000275817
    outer loop
      vertex 32.7043 19.3625 4
      vertex 32.0155 18.9547 4.5
      vertex 32.6735 19.3443 3.91328
    endloop
  endfacet
  facet normal 0.509466 -0.860491 1.02115e-05
    outer loop
      vertex 42.0918 24.9204 6.9282
      vertex 42.5946 25.2181 7.79423
      vertex 41.1978 24.3911 7.35928
    endloop
  endfacet
  facet normal 0.509609 -0.860406 -0.000102551
    outer loop
      vertex 42.2049 24.9874 6.82715
      vertex 42.5946 25.2181 7.79423
      vertex 42.0918 24.9204 6.9282
    endloop
  endfacet
  facet normal 0.509377 -0.860544 2.41352e-05
    outer loop
      vertex 42.5946 25.2181 7.79423
      vertex 42.2049 24.9874 6.82715
      vertex 42.7604 25.3162 6.33097
    endloop
  endfacet
  facet normal 0.509465 -0.860492 3.75995e-05
    outer loop
      vertex 43.5151 25.763 5.65685
      vertex 42.5946 25.2181 7.79423
      vertex 42.7604 25.3162 6.33097
    endloop
  endfacet
  facet normal 0.509532 -0.860452 9.53754e-05
    outer loop
      vertex 45.4293 26.8964 4.5
      vertex 43.5151 25.763 5.65685
      vertex 43.6026 25.8148 5.52413
    endloop
  endfacet
  facet normal 0.509521 -0.860458 7.02584e-05
    outer loop
      vertex 43.5151 25.763 5.65685
      vertex 45.4293 26.8964 4.5
      vertex 42.5946 25.2181 7.79423
    endloop
  endfacet
  facet normal 0.509503 -0.860469 2.65697e-05
    outer loop
      vertex 44.6072 26.4096 4
      vertex 45.4293 26.8964 4.5
      vertex 43.6026 25.8148 5.52413
    endloop
  endfacet
  facet normal 0.509589 -0.860418 -0.000163827
    outer loop
      vertex 44.6627 26.4425 3.84408
      vertex 45.4293 26.8964 4.5
      vertex 44.6072 26.4096 4
    endloop
  endfacet
  facet normal 0.509483 -0.860481 4.05216e-06
    outer loop
      vertex 45.4293 26.8964 4.5
      vertex 44.6627 26.4425 3.84408
      vertex 45.1878 26.7534 2.36819
    endloop
  endfacet
  facet normal 0.509478 -0.860484 4.77021e-06
    outer loop
      vertex 45.2937 26.8161 2.07055
      vertex 45.4293 26.8964 4.5
      vertex 45.1878 26.7534 2.36819
    endloop
  endfacet
  facet normal 0.509529 -0.860453 5.26313e-05
    outer loop
      vertex 46.4669 27.5107 0
      vertex 45.2937 26.8161 2.07055
      vertex 45.3128 26.8274 1.90167
    endloop
  endfacet
  facet normal 0.509501 -0.86047 2.93462e-05
    outer loop
      vertex 46.4669 27.5107 0
      vertex 45.3128 26.8274 1.90167
      vertex 45.5279 26.9547 0
    endloop
  endfacet
  facet normal 0.509468 -0.86049 5.55155e-06
    outer loop
      vertex 45.2937 26.8161 2.07055
      vertex 46.4669 27.5107 0
      vertex 45.4293 26.8964 4.5
    endloop
  endfacet
  facet normal 0.102563 0.986215 0.129851
    outer loop
      vertex 11.0484 52.5444 2.32937
      vertex 1.19904e-14 54.0001 0
      vertex 1.19223e-14 53.6934 2.32937
    endloop
  endfacet
  facet normal 0.102567 0.986216 0.129836
    outer loop
      vertex 11.0484 52.5444 2.32937
      vertex 11.1115 52.8445 0
      vertex 1.19904e-14 54.0001 0
    endloop
  endfacet
  facet normal 0.0956436 0.919645 0.380927
    outer loop
      vertex 10.8634 51.6645 4.5
      vertex 1.19223e-14 53.6934 2.32937
      vertex 1.17227e-14 52.7943 4.5
    endloop
  endfacet
  facet normal 0.0956397 0.919639 0.380942
    outer loop
      vertex 10.8634 51.6645 4.5
      vertex 11.0484 52.5444 2.32937
      vertex 1.19223e-14 53.6934 2.32937
    endloop
  endfacet
  facet normal 0.0822222 0.79066 0.606709
    outer loop
      vertex 10.5691 50.2649 6.36396
      vertex 1.17227e-14 52.7943 4.5
      vertex 1.14051e-14 51.364 6.36396
    endloop
  endfacet
  facet normal 0.082231 0.790679 0.606684
    outer loop
      vertex 10.5691 50.2649 6.36396
      vertex 10.8634 51.6645 4.5
      vertex 1.17227e-14 52.7943 4.5
    endloop
  endfacet
  facet normal 0.0631865 0.607558 0.791758
    outer loop
      vertex 10.1855 48.4408 7.79423
      vertex 1.14051e-14 51.364 6.36396
      vertex 1.09912e-14 49.5001 7.79423
    endloop
  endfacet
  facet normal 0.0631792 0.60754 0.791773
    outer loop
      vertex 10.1855 48.4408 7.79423
      vertex 10.5691 50.2649 6.36396
      vertex 1.14051e-14 51.364 6.36396
    endloop
  endfacet
  facet normal 0.0397645 0.382369 0.923154
    outer loop
      vertex 9.7389 46.3166 8.69333
      vertex 1.09912e-14 49.5001 7.79423
      vertex 1.05092e-14 47.3294 8.69333
    endloop
  endfacet
  facet normal 0.0397675 0.382377 0.92315
    outer loop
      vertex 9.7389 46.3166 8.69333
      vertex 10.1855 48.4408 7.79423
      vertex 1.09912e-14 49.5001 7.79423
    endloop
  endfacet
  facet normal 0.013574 0.130519 0.991353
    outer loop
      vertex 9.25959 44.0371 9
      vertex 1.05092e-14 47.3294 8.69333
      vertex 9.99202e-15 45.0001 9
    endloop
  endfacet
  facet normal 0.0135731 0.130517 0.991353
    outer loop
      vertex 9.25959 44.0371 9
      vertex 9.7389 46.3166 8.69333
      vertex 1.05092e-14 47.3294 8.69333
    endloop
  endfacet
  facet normal -0.0135727 -0.130514 0.991354
    outer loop
      vertex 8.78028 41.7576 8.69333
      vertex 9.99202e-15 45.0001 9
      vertex 9.4748e-15 42.6707 8.69333
    endloop
  endfacet
  facet normal -0.0135737 -0.130516 0.991353
    outer loop
      vertex 8.78028 41.7576 8.69333
      vertex 9.25959 44.0371 9
      vertex 9.99202e-15 45.0001 9
    endloop
  endfacet
  facet normal -0.039768 -0.382384 0.923147
    outer loop
      vertex 8.33363 39.6334 7.79423
      vertex 9.4748e-15 42.6707 8.69333
      vertex 8.99282e-15 40.5001 7.79423
    endloop
  endfacet
  facet normal -0.039765 -0.382376 0.923151
    outer loop
      vertex 8.33363 39.6334 7.79423
      vertex 8.78028 41.7576 8.69333
      vertex 9.4748e-15 42.6707 8.69333
    endloop
  endfacet
  facet normal -0.0631832 -0.607538 0.791774
    outer loop
      vertex 7.95009 37.8093 6.36396
      vertex 8.99282e-15 40.5001 7.79423
      vertex 8.57894e-15 38.6361 6.36396
    endloop
  endfacet
  facet normal -0.0631844 -0.60754 0.791772
    outer loop
      vertex 7.95009 37.8093 6.36396
      vertex 8.33363 39.6334 7.79423
      vertex 8.99282e-15 40.5001 7.79423
    endloop
  endfacet
  facet normal -0.0822183 -0.790661 0.606709
    outer loop
      vertex 7.65578 36.4097 4.5
      vertex 8.57894e-15 38.6361 6.36396
      vertex 8.26135e-15 37.2058 4.5
    endloop
  endfacet
  facet normal -0.0822296 -0.790679 0.606684
    outer loop
      vertex 7.65578 36.4097 4.5
      vertex 7.95009 37.8093 6.36396
      vertex 8.57894e-15 38.6361 6.36396
    endloop
  endfacet
  facet normal -0.0956357 -0.919645 0.380928
    outer loop
      vertex 7.47077 35.5298 2.32937
      vertex 8.26135e-15 37.2058 4.5
      vertex 8.06171e-15 36.3067 2.32937
    endloop
  endfacet
  facet normal -0.0956304 -0.91964 0.380942
    outer loop
      vertex 7.47077 35.5298 2.32937
      vertex 7.65578 36.4097 4.5
      vertex 8.26135e-15 37.2058 4.5
    endloop
  endfacet
  facet normal -0.102567 -0.98622 0.12981
    outer loop
      vertex 7.40767 35.2297 0
      vertex 8.06171e-15 36.3067 2.32937
      vertex 7.99362e-15 36.0001 0
    endloop
  endfacet
  facet normal -0.102559 -0.986217 0.129836
    outer loop
      vertex 7.40767 35.2297 0
      vertex 7.47077 35.5298 2.32937
      vertex 8.06171e-15 36.3067 2.32937
    endloop
  endfacet
  facet normal 0.3033 0.944008 0.129836
    outer loop
      vertex 21.6239 49.1466 2.32937
      vertex 11.1115 52.8445 0
      vertex 11.0484 52.5444 2.32937
    endloop
  endfacet
  facet normal 0.3033 0.944008 0.129838
    outer loop
      vertex 21.6239 49.1466 2.32937
      vertex 21.7474 49.4273 0
      vertex 11.1115 52.8445 0
    endloop
  endfacet
  facet normal 0.282825 0.880281 0.380941
    outer loop
      vertex 21.2618 48.3236 4.5
      vertex 11.0484 52.5444 2.32937
      vertex 10.8634 51.6645 4.5
    endloop
  endfacet
  facet normal 0.282825 0.880281 0.380941
    outer loop
      vertex 21.2618 48.3236 4.5
      vertex 21.6239 49.1466 2.32937
      vertex 11.0484 52.5444 2.32937
    endloop
  endfacet
  facet normal 0.243165 0.756839 0.606684
    outer loop
      vertex 20.6858 47.0145 6.36396
      vertex 10.8634 51.6645 4.5
      vertex 10.5691 50.2649 6.36396
    endloop
  endfacet
  facet normal 0.243164 0.756838 0.606686
    outer loop
      vertex 20.6858 47.0145 6.36396
      vertex 21.2618 48.3236 4.5
      vertex 10.8634 51.6645 4.5
    endloop
  endfacet
  facet normal 0.186843 0.581535 0.791774
    outer loop
      vertex 19.9352 45.3083 7.79423
      vertex 10.5691 50.2649 6.36396
      vertex 10.1855 48.4408 7.79423
    endloop
  endfacet
  facet normal 0.186841 0.581533 0.791776
    outer loop
      vertex 19.9352 45.3083 7.79423
      vertex 20.6858 47.0145 6.36396
      vertex 10.5691 50.2649 6.36396
    endloop
  endfacet
  facet normal 0.117596 0.366013 0.92315
    outer loop
      vertex 19.061 43.3215 8.69333
      vertex 10.1855 48.4408 7.79423
      vertex 9.7389 46.3166 8.69333
    endloop
  endfacet
  facet normal 0.117598 0.366015 0.923149
    outer loop
      vertex 19.061 43.3215 8.69333
      vertex 19.9352 45.3083 7.79423
      vertex 10.1855 48.4408 7.79423
    endloop
  endfacet
  facet normal 0.040139 0.124931 0.991353
    outer loop
      vertex 18.1229 41.1894 9
      vertex 9.7389 46.3166 8.69333
      vertex 9.25959 44.0371 9
    endloop
  endfacet
  facet normal 0.0401389 0.12493 0.991353
    outer loop
      vertex 18.1229 41.1894 9
      vertex 19.061 43.3215 8.69333
      vertex 9.7389 46.3166 8.69333
    endloop
  endfacet
  facet normal -0.0401391 -0.124931 0.991353
    outer loop
      vertex 17.1848 39.0573 8.69333
      vertex 9.25959 44.0371 9
      vertex 8.78028 41.7576 8.69333
    endloop
  endfacet
  facet normal -0.040139 -0.12493 0.991353
    outer loop
      vertex 17.1848 39.0573 8.69333
      vertex 18.1229 41.1894 9
      vertex 9.25959 44.0371 9
    endloop
  endfacet
  facet normal -0.117595 -0.366011 0.923151
    outer loop
      vertex 16.3106 37.0705 7.79423
      vertex 8.78028 41.7576 8.69333
      vertex 8.33363 39.6334 7.79423
    endloop
  endfacet
  facet normal -0.117598 -0.366015 0.923149
    outer loop
      vertex 16.3106 37.0705 7.79423
      vertex 17.1848 39.0573 8.69333
      vertex 8.78028 41.7576 8.69333
    endloop
  endfacet
  facet normal -0.186846 -0.581538 0.791771
    outer loop
      vertex 15.5599 35.3643 6.36396
      vertex 8.33363 39.6334 7.79423
      vertex 7.95009 37.8093 6.36396
    endloop
  endfacet
  facet normal -0.186837 -0.581527 0.791781
    outer loop
      vertex 15.5599 35.3643 6.36396
      vertex 16.3106 37.0705 7.79423
      vertex 8.33363 39.6334 7.79423
    endloop
  endfacet
  facet normal -0.243169 -0.756837 0.606685
    outer loop
      vertex 14.9839 34.0552 4.5
      vertex 7.95009 37.8093 6.36396
      vertex 7.65578 36.4097 4.5
    endloop
  endfacet
  facet normal -0.243168 -0.756836 0.606686
    outer loop
      vertex 14.9839 34.0552 4.5
      vertex 15.5599 35.3643 6.36396
      vertex 7.95009 37.8093 6.36396
    endloop
  endfacet
  facet normal -0.28283 -0.880279 0.380942
    outer loop
      vertex 14.6218 33.2322 2.32937
      vertex 7.65578 36.4097 4.5
      vertex 7.47077 35.5298 2.32937
    endloop
  endfacet
  facet normal -0.282831 -0.880279 0.380941
    outer loop
      vertex 14.6218 33.2322 2.32937
      vertex 14.9839 34.0552 4.5
      vertex 7.65578 36.4097 4.5
    endloop
  endfacet
  facet normal -0.303307 -0.944006 0.129836
    outer loop
      vertex 14.4983 32.9515 0
      vertex 7.47077 35.5298 2.32937
      vertex 7.40767 35.2297 0
    endloop
  endfacet
  facet normal -0.303306 -0.944006 0.129838
    outer loop
      vertex 14.4983 32.9515 0
      vertex 14.6218 33.2322 2.32937
      vertex 7.47077 35.5298 2.32937
    endloop
  endfacet
  facet normal 0.491061 0.861395 0.129838
    outer loop
      vertex 31.274 43.6453 2.32937
      vertex 21.7474 49.4273 0
      vertex 21.6239 49.1466 2.32937
    endloop
  endfacet
  facet normal 0.49106 0.861395 0.129842
    outer loop
      vertex 31.274 43.6453 2.32937
      vertex 31.4526 43.8946 0
      vertex 21.7474 49.4273 0
    endloop
  endfacet
  facet normal 0.457906 0.803247 0.38094
    outer loop
      vertex 30.7503 42.9145 4.5
      vertex 21.6239 49.1466 2.32937
      vertex 21.2618 48.3236 4.5
    endloop
  endfacet
  facet normal 0.457916 0.803253 0.380916
    outer loop
      vertex 30.7503 42.9145 4.5
      vertex 31.274 43.6453 2.32937
      vertex 21.6239 49.1466 2.32937
    endloop
  endfacet
  facet normal 0.393694 0.690606 0.606687
    outer loop
      vertex 29.9173 41.7519 6.36396
      vertex 21.2618 48.3236 4.5
      vertex 20.6858 47.0145 6.36396
    endloop
  endfacet
  facet normal 0.393693 0.690605 0.606689
    outer loop
      vertex 29.9173 41.7519 6.36396
      vertex 30.7503 42.9145 4.5
      vertex 21.2618 48.3236 4.5
    endloop
  endfacet
  facet normal 0.302507 0.530646 0.791773
    outer loop
      vertex 28.8316 40.2367 7.79423
      vertex 20.6858 47.0145 6.36396
      vertex 19.9352 45.3083 7.79423
    endloop
  endfacet
  facet normal 0.302503 0.530642 0.791777
    outer loop
      vertex 28.8316 40.2367 7.79423
      vertex 29.9173 41.7519 6.36396
      vertex 20.6858 47.0145 6.36396
    endloop
  endfacet
  facet normal 0.190395 0.333984 0.923149
    outer loop
      vertex 27.5673 38.4723 8.69333
      vertex 19.9352 45.3083 7.79423
      vertex 19.061 43.3215 8.69333
    endloop
  endfacet
  facet normal 0.190396 0.333986 0.923148
    outer loop
      vertex 27.5673 38.4723 8.69333
      vertex 28.8316 40.2367 7.79423
      vertex 19.9352 45.3083 7.79423
    endloop
  endfacet
  facet normal 0.0649866 0.113998 0.991353
    outer loop
      vertex 26.2105 36.5789 9
      vertex 19.061 43.3215 8.69333
      vertex 18.1229 41.1894 9
    endloop
  endfacet
  facet normal 0.064987 0.113998 0.991353
    outer loop
      vertex 26.2105 36.5789 9
      vertex 27.5673 38.4723 8.69333
      vertex 19.061 43.3215 8.69333
    endloop
  endfacet
  facet normal -0.064987 -0.113997 0.991353
    outer loop
      vertex 24.8538 34.6854 8.69333
      vertex 18.1229 41.1894 9
      vertex 17.1848 39.0573 8.69333
    endloop
  endfacet
  facet normal -0.0649859 -0.113996 0.991353
    outer loop
      vertex 24.8538 34.6854 8.69333
      vertex 26.2105 36.5789 9
      vertex 18.1229 41.1894 9
    endloop
  endfacet
  facet normal -0.190395 -0.333984 0.923149
    outer loop
      vertex 23.5895 32.921 7.79423
      vertex 17.1848 39.0573 8.69333
      vertex 16.3106 37.0705 7.79423
    endloop
  endfacet
  facet normal -0.190397 -0.333986 0.923148
    outer loop
      vertex 23.5895 32.921 7.79423
      vertex 24.8538 34.6854 8.69333
      vertex 17.1848 39.0573 8.69333
    endloop
  endfacet
  facet normal -0.3025 -0.530638 0.791781
    outer loop
      vertex 22.5038 31.4058 6.36396
      vertex 16.3106 37.0705 7.79423
      vertex 15.5599 35.3643 6.36396
    endloop
  endfacet
  facet normal -0.302504 -0.530641 0.791777
    outer loop
      vertex 22.5038 31.4058 6.36396
      vertex 23.5895 32.921 7.79423
      vertex 16.3106 37.0705 7.79423
    endloop
  endfacet
  facet normal -0.393698 -0.690604 0.606686
    outer loop
      vertex 21.6707 30.2432 4.5
      vertex 15.5599 35.3643 6.36396
      vertex 14.9839 34.0552 4.5
    endloop
  endfacet
  facet normal -0.393687 -0.690596 0.606702
    outer loop
      vertex 21.6707 30.2432 4.5
      vertex 22.5038 31.4058 6.36396
      vertex 15.5599 35.3643 6.36396
    endloop
  endfacet
  facet normal -0.4579 -0.803251 0.380941
    outer loop
      vertex 21.1471 29.5124 2.32937
      vertex 14.9839 34.0552 4.5
      vertex 14.6218 33.2322 2.32937
    endloop
  endfacet
  facet normal -0.457921 -0.803259 0.380898
    outer loop
      vertex 21.1471 29.5124 2.32937
      vertex 21.6707 30.2432 4.5
      vertex 14.9839 34.0552 4.5
    endloop
  endfacet
  facet normal -0.491056 -0.861398 0.129838
    outer loop
      vertex 20.9684 29.2631 0
      vertex 14.6218 33.2322 2.32937
      vertex 14.4983 32.9515 0
    endloop
  endfacet
  facet normal -0.491047 -0.861399 0.129862
    outer loop
      vertex 20.9684 29.2631 0
      vertex 21.1471 29.5124 2.32937
      vertex 14.6218 33.2322 2.32937
    endloop
  endfacet
  facet normal 0.657793 0.741924 0.129839
    outer loop
      vertex 39.5856 36.2762 2.32937
      vertex 31.4526 43.8946 0
      vertex 31.274 43.6453 2.32937
    endloop
  endfacet
  facet normal 0.657792 0.741924 0.129843
    outer loop
      vertex 39.5856 36.2762 2.32937
      vertex 39.8117 36.4834 0
      vertex 31.4526 43.8946 0
    endloop
  endfacet
  facet normal 0.613398 0.69184 0.380919
    outer loop
      vertex 38.9227 35.6687 4.5
      vertex 31.274 43.6453 2.32937
      vertex 30.7503 42.9145 4.5
    endloop
  endfacet
  facet normal 0.613384 0.691836 0.38095
    outer loop
      vertex 38.9227 35.6687 4.5
      vertex 39.5856 36.2762 2.32937
      vertex 31.274 43.6453 2.32937
    endloop
  endfacet
  facet normal 0.527376 0.594817 0.606686
    outer loop
      vertex 37.8683 34.7024 6.36396
      vertex 30.7503 42.9145 4.5
      vertex 29.9173 41.7519 6.36396
    endloop
  endfacet
  facet normal 0.527376 0.594817 0.606685
    outer loop
      vertex 37.8683 34.7024 6.36396
      vertex 38.9227 35.6687 4.5
      vertex 30.7503 42.9145 4.5
    endloop
  endfacet
  facet normal 0.405216 0.457043 0.791777
    outer loop
      vertex 36.4941 33.4431 7.79423
      vertex 29.9173 41.7519 6.36396
      vertex 28.8316 40.2367 7.79423
    endloop
  endfacet
  facet normal 0.405231 0.457053 0.791764
    outer loop
      vertex 36.4941 33.4431 7.79423
      vertex 37.8683 34.7024 6.36396
      vertex 29.9173 41.7519 6.36396
    endloop
  endfacet
  facet normal 0.255043 0.287663 0.923149
    outer loop
      vertex 34.8938 31.9766 8.69333
      vertex 28.8316 40.2367 7.79423
      vertex 27.5673 38.4723 8.69333
    endloop
  endfacet
  facet normal 0.255043 0.287663 0.923149
    outer loop
      vertex 34.8938 31.9766 8.69333
      vertex 36.4941 33.4431 7.79423
      vertex 28.8316 40.2367 7.79423
    endloop
  endfacet
  facet normal 0.0870532 0.0981856 0.991353
    outer loop
      vertex 33.1764 30.4028 9
      vertex 27.5673 38.4723 8.69333
      vertex 26.2105 36.5789 9
    endloop
  endfacet
  facet normal 0.0870492 0.0981828 0.991354
    outer loop
      vertex 33.1764 30.4028 9
      vertex 34.8938 31.9766 8.69333
      vertex 27.5673 38.4723 8.69333
    endloop
  endfacet
  facet normal -0.087053 -0.0981851 0.991353
    outer loop
      vertex 31.4591 28.829 8.69333
      vertex 26.2105 36.5789 9
      vertex 24.8538 34.6854 8.69333
    endloop
  endfacet
  facet normal -0.0870525 -0.0981847 0.991353
    outer loop
      vertex 31.4591 28.829 8.69333
      vertex 33.1764 30.4028 9
      vertex 26.2105 36.5789 9
    endloop
  endfacet
  facet normal -0.255046 -0.28766 0.923148
    outer loop
      vertex 29.8588 27.3625 7.79423
      vertex 24.8538 34.6854 8.69333
      vertex 23.5895 32.921 7.79423
    endloop
  endfacet
  facet normal -0.255046 -0.28766 0.923149
    outer loop
      vertex 29.8588 27.3625 7.79423
      vertex 31.4591 28.829 8.69333
      vertex 24.8538 34.6854 8.69333
    endloop
  endfacet
  facet normal -0.405216 -0.457043 0.791777
    outer loop
      vertex 28.4846 26.1032 6.36396
      vertex 23.5895 32.921 7.79423
      vertex 22.5038 31.4058 6.36396
    endloop
  endfacet
  facet normal -0.405232 -0.457052 0.791764
    outer loop
      vertex 28.4846 26.1032 6.36396
      vertex 29.8588 27.3625 7.79423
      vertex 23.5895 32.921 7.79423
    endloop
  endfacet
  facet normal -0.527361 -0.594811 0.606704
    outer loop
      vertex 27.4301 25.1369 4.5
      vertex 22.5038 31.4058 6.36396
      vertex 21.6707 30.2432 4.5
    endloop
  endfacet
  facet normal -0.527362 -0.594812 0.606703
    outer loop
      vertex 27.4301 25.1369 4.5
      vertex 28.4846 26.1032 6.36396
      vertex 22.5038 31.4058 6.36396
    endloop
  endfacet
  facet normal -0.613413 -0.691841 0.380894
    outer loop
      vertex 26.7672 24.5294 2.32937
      vertex 21.6707 30.2432 4.5
      vertex 21.1471 29.5124 2.32937
    endloop
  endfacet
  facet normal -0.613384 -0.691836 0.38095
    outer loop
      vertex 26.7672 24.5294 2.32937
      vertex 27.4301 25.1369 4.5
      vertex 21.6707 30.2432 4.5
    endloop
  endfacet
  facet normal -0.657792 -0.74192 0.129867
    outer loop
      vertex 26.5411 24.3223 0
      vertex 21.1471 29.5124 2.32937
      vertex 20.9684 29.2631 0
    endloop
  endfacet
  facet normal -0.657809 -0.741913 0.129812
    outer loop
      vertex 26.5411 24.3223 0
      vertex 26.7672 24.5294 2.32937
      vertex 21.1471 29.5124 2.32937
    endloop
  endfacet
  facet normal 0.796385 0.590688 0.129843
    outer loop
      vertex 46.203 27.3544 2.32937
      vertex 39.8117 36.4834 0
      vertex 39.5856 36.2762 2.32937
    endloop
  endfacet
  facet normal 0.796381 0.590689 0.129859
    outer loop
      vertex 46.203 27.3544 2.32937
      vertex 46.4669 27.5107 0
      vertex 39.8117 36.4834 0
    endloop
  endfacet
  facet normal 0.742617 0.550815 0.38095
    outer loop
      vertex 45.4293 26.8964 4.5
      vertex 39.5856 36.2762 2.32937
      vertex 38.9227 35.6687 4.5
    endloop
  endfacet
  facet normal 0.742629 0.550816 0.380924
    outer loop
      vertex 45.4293 26.8964 4.5
      vertex 46.203 27.3544 2.32937
      vertex 39.5856 36.2762 2.32937
    endloop
  endfacet
  facet normal 0.638486 0.473573 0.606683
    outer loop
      vertex 44.1986 26.1677 6.36396
      vertex 38.9227 35.6687 4.5
      vertex 37.8683 34.7024 6.36396
    endloop
  endfacet
  facet normal 0.638474 0.47357 0.606698
    outer loop
      vertex 44.1986 26.1677 6.36396
      vertex 45.4293 26.8964 4.5
      vertex 38.9227 35.6687 4.5
    endloop
  endfacet
  facet normal 0.490609 0.363886 0.791764
    outer loop
      vertex 42.5946 25.2181 7.79423
      vertex 37.8683 34.7024 6.36396
      vertex 36.4941 33.4431 7.79423
    endloop
  endfacet
  facet normal 0.490594 0.36388 0.791776
    outer loop
      vertex 42.5946 25.2181 7.79423
      vertex 44.1986 26.1677 6.36396
      vertex 37.8683 34.7024 6.36396
    endloop
  endfacet
  facet normal 0.308779 0.229024 0.923149
    outer loop
      vertex 40.7268 24.1123 8.69333
      vertex 36.4941 33.4431 7.79423
      vertex 34.8938 31.9766 8.69333
    endloop
  endfacet
  facet normal 0.308783 0.229025 0.923147
    outer loop
      vertex 40.7268 24.1123 8.69333
      vertex 42.5946 25.2181 7.79423
      vertex 36.4941 33.4431 7.79423
    endloop
  endfacet
  facet normal 0.105389 0.0781694 0.991354
    outer loop
      vertex 38.7224 22.9256 9
      vertex 34.8938 31.9766 8.69333
      vertex 33.1764 30.4028 9
    endloop
  endfacet
  facet normal 0.105394 0.0781715 0.991353
    outer loop
      vertex 38.7224 22.9256 9
      vertex 40.7268 24.1123 8.69333
      vertex 34.8938 31.9766 8.69333
    endloop
  endfacet
  facet normal -0.105393 -0.0781716 0.991353
    outer loop
      vertex 36.718 21.7388 8.69333
      vertex 33.1764 30.4028 9
      vertex 31.4591 28.829 8.69333
    endloop
  endfacet
  facet normal -0.105391 -0.0781707 0.991354
    outer loop
      vertex 36.718 21.7388 8.69333
      vertex 38.7224 22.9256 9
      vertex 33.1764 30.4028 9
    endloop
  endfacet
  facet normal -0.308777 -0.229026 0.923149
    outer loop
      vertex 34.8502 20.633 7.79423
      vertex 31.4591 28.829 8.69333
      vertex 29.8588 27.3625 7.79423
    endloop
  endfacet
  facet normal -0.308782 -0.229028 0.923147
    outer loop
      vertex 34.8502 20.633 7.79423
      vertex 36.718 21.7388 8.69333
      vertex 31.4591 28.829 8.69333
    endloop
  endfacet
  facet normal -0.490608 -0.363887 0.791764
    outer loop
      vertex 33.2462 19.6834 6.36396
      vertex 29.8588 27.3625 7.79423
      vertex 28.4846 26.1032 6.36396
    endloop
  endfacet
  facet normal -0.490593 -0.363882 0.791776
    outer loop
      vertex 33.2462 19.6834 6.36396
      vertex 34.8502 20.633 7.79423
      vertex 29.8588 27.3625 7.79423
    endloop
  endfacet
  facet normal -0.638473 -0.473562 0.606705
    outer loop
      vertex 32.0155 18.9547 4.5
      vertex 28.4846 26.1032 6.36396
      vertex 27.4301 25.1369 4.5
    endloop
  endfacet
  facet normal -0.638479 -0.473563 0.606698
    outer loop
      vertex 32.0155 18.9547 4.5
      vertex 33.2462 19.6834 6.36396
      vertex 28.4846 26.1032 6.36396
    endloop
  endfacet
  facet normal -0.742616 -0.550816 0.38095
    outer loop
      vertex 31.2418 18.4967 2.32937
      vertex 27.4301 25.1369 4.5
      vertex 26.7672 24.5294 2.32937
    endloop
  endfacet
  facet normal -0.742629 -0.550816 0.380924
    outer loop
      vertex 31.2418 18.4967 2.32937
      vertex 32.0155 18.9547 4.5
      vertex 27.4301 25.1369 4.5
    endloop
  endfacet
  facet normal -0.79639 -0.590686 0.129818
    outer loop
      vertex 30.9779 18.3404 0
      vertex 26.7672 24.5294 2.32937
      vertex 26.5411 24.3223 0
    endloop
  endfacet
  facet normal -0.796378 -0.590693 0.129859
    outer loop
      vertex 30.9779 18.3404 0
      vertex 31.2418 18.4967 2.32937
      vertex 26.7672 24.5294 2.32937
    endloop
  endfacet
  facet normal -0.0887862 -0.987559 -0.129782
    outer loop
      vertex 10.3087 51.7099 2.07055
      vertex 1.16877e-14 52.6367 2.07055
      vertex 1.17431e-14 52.8864 0.170489
    endloop
  endfacet
  facet normal -0.0887778 -0.987564 -0.129753
    outer loop
      vertex 10.362 51.9773 0
      vertex 1.17431e-14 52.8864 0.170489
      vertex 1.17481e-14 52.9088 0
    endloop
  endfacet
  facet normal -0.0887782 -0.987555 -0.129823
    outer loop
      vertex 1.17431e-14 52.8864 0.170489
      vertex 10.362 51.9773 0
      vertex 10.3087 51.7099 2.07055
    endloop
  endfacet
  facet normal -0.082801 -0.920943 -0.380798
    outer loop
      vertex 10.1525 50.9261 4
      vertex 1.15105e-14 51.8389 4
      vertex 1.1673e-14 52.5704 2.2309
    endloop
  endfacet
  facet normal -0.0827976 -0.920949 -0.380785
    outer loop
      vertex 10.3087 51.7099 2.07055
      vertex 1.1673e-14 52.5704 2.2309
      vertex 1.16877e-14 52.6367 2.07055
    endloop
  endfacet
  facet normal -0.082797 -0.920937 -0.380815
    outer loop
      vertex 1.1673e-14 52.5704 2.2309
      vertex 10.3087 51.7099 2.07055
      vertex 10.1525 50.9261 4
    endloop
  endfacet
  facet normal -0.0711891 -0.791835 -0.606572
    outer loop
      vertex 9.9039 49.6793 5.65685
      vertex 1.12287e-14 50.5697 5.65685
      vertex 1.14869e-14 51.7325 4.1389
    endloop
  endfacet
  facet normal -0.0711914 -0.79184 -0.606565
    outer loop
      vertex 1.15105e-14 51.8389 4
      vertex 9.9039 49.6793 5.65685
      vertex 1.14869e-14 51.7325 4.1389
    endloop
  endfacet
  facet normal -0.071194 -0.791846 -0.606556
    outer loop
      vertex 9.9039 49.6793 5.65685
      vertex 1.15105e-14 51.8389 4
      vertex 10.1525 50.9261 4
    endloop
  endfacet
  facet normal -0.0547014 -0.608497 -0.791669
    outer loop
      vertex 9.57997 48.0545 6.9282
      vertex 1.08615e-14 48.9157 6.9282
      vertex 1.11977e-14 50.43 5.76427
    endloop
  endfacet
  facet normal -0.0547118 -0.608527 -0.791645
    outer loop
      vertex 1.11977e-14 50.43 5.76427
      vertex 9.9039 49.6793 5.65685
      vertex 9.57997 48.0545 6.9282
    endloop
  endfacet
  facet normal -0.05472 -0.608649 -0.79155
    outer loop
      vertex 9.9039 49.6793 5.65685
      vertex 1.11977e-14 50.43 5.76427
      vertex 1.12287e-14 50.5697 5.65685
    endloop
  endfacet
  facet normal -0.0344378 -0.383034 -0.923092
    outer loop
      vertex 9.20274 46.1622 7.72741
      vertex 1.04338e-14 46.9896 7.72741
      vertex 1.08251e-14 48.7519 6.99615
    endloop
  endfacet
  facet normal -0.0344296 -0.383008 -0.923103
    outer loop
      vertex 1.08251e-14 48.7519 6.99615
      vertex 9.57997 48.0545 6.9282
      vertex 9.20274 46.1622 7.72741
    endloop
  endfacet
  facet normal -0.0344253 -0.382946 -0.923129
    outer loop
      vertex 9.57997 48.0545 6.9282
      vertex 1.08251e-14 48.7519 6.99615
      vertex 1.08615e-14 48.9157 6.9282
    endloop
  endfacet
  facet normal -0.011754 -0.130734 -0.991348
    outer loop
      vertex 8.79793 44.1316 8
      vertex 9.97482e-15 44.9226 8
      vertex 1.03946e-14 46.8131 7.75069
    endloop
  endfacet
  facet normal -0.0117546 -0.130736 -0.991347
    outer loop
      vertex 1.03946e-14 46.8131 7.75069
      vertex 9.20274 46.1622 7.72741
      vertex 8.79793 44.1316 8
    endloop
  endfacet
  facet normal -0.011756 -0.130756 -0.991345
    outer loop
      vertex 9.20274 46.1622 7.72741
      vertex 1.03946e-14 46.8131 7.75069
      vertex 1.04338e-14 46.9896 7.72741
    endloop
  endfacet
  facet normal 0.0117545 0.130741 -0.991347
    outer loop
      vertex 8.39312 42.101 7.72741
      vertex 9.51586e-15 42.8556 7.72741
      vertex 9.93555e-15 44.7457 7.97668
    endloop
  endfacet
  facet normal 0.0117532 0.130737 -0.991347
    outer loop
      vertex 9.93555e-15 44.7457 7.97668
      vertex 8.79793 44.1316 8
      vertex 8.39312 42.101 7.72741
    endloop
  endfacet
  facet normal 0.0117497 0.130686 -0.991354
    outer loop
      vertex 8.79793 44.1316 8
      vertex 9.93555e-15 44.7457 7.97668
      vertex 9.97482e-15 44.9226 8
    endloop
  endfacet
  facet normal 0.0344366 0.383017 -0.923099
    outer loop
      vertex 8.01589 40.2088 6.9282
      vertex 9.08817e-15 40.9295 6.9282
      vertex 9.4793e-15 42.691 7.65909
    endloop
  endfacet
  facet normal 0.0344389 0.383023 -0.923097
    outer loop
      vertex 9.4793e-15 42.691 7.65909
      vertex 8.39312 42.101 7.72741
      vertex 8.01589 40.2088 6.9282
    endloop
  endfacet
  facet normal 0.0344459 0.383128 -0.923053
    outer loop
      vertex 8.39312 42.101 7.72741
      vertex 9.4793e-15 42.691 7.65909
      vertex 9.51586e-15 42.8556 7.72741
    endloop
  endfacet
  facet normal 0.0547052 0.608518 -0.791652
    outer loop
      vertex 7.69196 38.584 5.65685
      vertex 8.72091e-15 39.2755 5.65685
      vertex 9.05692e-15 40.7887 6.82
    endloop
  endfacet
  facet normal 0.054709 0.608528 -0.791645
    outer loop
      vertex 9.05692e-15 40.7887 6.82
      vertex 8.01589 40.2088 6.9282
      vertex 7.69196 38.584 5.65685
    endloop
  endfacet
  facet normal 0.0547021 0.608417 -0.79173
    outer loop
      vertex 8.01589 40.2088 6.9282
      vertex 9.05692e-15 40.7887 6.82
      vertex 9.08817e-15 40.9295 6.9282
    endloop
  endfacet
  facet normal 0.0711903 0.791838 -0.606568
    outer loop
      vertex 7.4434 37.3371 4
      vertex 8.4391e-15 38.0063 4
      vertex 8.69711e-15 39.1683 5.51692
    endloop
  endfacet
  facet normal 0.0711831 0.791811 -0.606604
    outer loop
      vertex 7.69196 38.584 5.65685
      vertex 8.69711e-15 39.1683 5.51692
      vertex 8.72091e-15 39.2755 5.65685
    endloop
  endfacet
  facet normal 0.0711838 0.791825 -0.606585
    outer loop
      vertex 8.69711e-15 39.1683 5.51692
      vertex 7.69196 38.584 5.65685
      vertex 7.4434 37.3371 4
    endloop
  endfacet
  facet normal 0.08279 0.920932 -0.380827
    outer loop
      vertex 7.28715 36.5534 2.07055
      vertex 8.26195e-15 37.2085 2.07055
      vertex 8.4243e-15 37.9397 3.83877
    endloop
  endfacet
  facet normal 0.0828096 0.921077 -0.380473
    outer loop
      vertex 7.4434 37.3371 4
      vertex 8.4243e-15 37.9397 3.83877
      vertex 8.4391e-15 38.0063 4
    endloop
  endfacet
  facet normal 0.082806 0.920952 -0.380776
    outer loop
      vertex 8.4243e-15 37.9397 3.83877
      vertex 7.4434 37.3371 4
      vertex 7.28715 36.5534 2.07055
    endloop
  endfacet
  facet normal 0.0887923 0.987563 -0.129754
    outer loop
      vertex 7.23386 36.286 0
      vertex 8.20152e-15 36.9364 0
      vertex 8.25696e-15 37.186 1.89972
    endloop
  endfacet
  facet normal 0.0887763 0.987523 -0.130067
    outer loop
      vertex 7.28715 36.5534 2.07055
      vertex 8.25696e-15 37.186 1.89972
      vertex 8.26195e-15 37.2085 2.07055
    endloop
  endfacet
  facet normal 0.0887734 0.987555 -0.129822
    outer loop
      vertex 8.25696e-15 37.186 1.89972
      vertex 7.28715 36.5534 2.07055
      vertex 7.23386 36.286 0
    endloop
  endfacet
  facet normal -0.2967 -0.946105 -0.129822
    outer loop
      vertex 21.0663 48.3363 2.07055
      vertex 10.3087 51.7099 2.07055
      vertex 10.362 51.9773 0
    endloop
  endfacet
  facet normal -0.296703 -0.946106 -0.129807
    outer loop
      vertex 21.0663 48.3363 2.07055
      vertex 10.362 51.9773 0
      vertex 21.1753 48.5862 0
    endloop
  endfacet
  facet normal -0.27669 -0.882285 -0.38081
    outer loop
      vertex 20.747 47.6036 4
      vertex 10.1525 50.9261 4
      vertex 10.3087 51.7099 2.07055
    endloop
  endfacet
  facet normal -0.276684 -0.882278 -0.380829
    outer loop
      vertex 20.747 47.6036 4
      vertex 10.3087 51.7099 2.07055
      vertex 21.0663 48.3363 2.07055
    endloop
  endfacet
  facet normal -0.237899 -0.758611 -0.606559
    outer loop
      vertex 20.2391 46.4382 5.65685
      vertex 9.9039 49.6793 5.65685
      vertex 10.1525 50.9261 4
    endloop
  endfacet
  facet normal -0.23791 -0.758626 -0.606535
    outer loop
      vertex 20.2391 46.4382 5.65685
      vertex 10.1525 50.9261 4
      vertex 20.747 47.6036 4
    endloop
  endfacet
  facet normal -0.18283 -0.582985 -0.791645
    outer loop
      vertex 19.5771 44.9193 6.9282
      vertex 9.57997 48.0545 6.9282
      vertex 9.9039 49.6793 5.65685
    endloop
  endfacet
  facet normal -0.182816 -0.582961 -0.791666
    outer loop
      vertex 19.5771 44.9193 6.9282
      vertex 9.9039 49.6793 5.65685
      vertex 20.2391 46.4382 5.65685
    endloop
  endfacet
  facet normal -0.115072 -0.366932 -0.923103
    outer loop
      vertex 18.8062 43.1505 7.72741
      vertex 9.20274 46.1622 7.72741
      vertex 9.57997 48.0545 6.9282
    endloop
  endfacet
  facet normal -0.115075 -0.366938 -0.9231
    outer loop
      vertex 18.8062 43.1505 7.72741
      vertex 9.57997 48.0545 6.9282
      vertex 19.5771 44.9193 6.9282
    endloop
  endfacet
  facet normal -0.0392784 -0.125249 -0.991347
    outer loop
      vertex 17.979 41.2524 8
      vertex 8.79793 44.1316 8
      vertex 9.20274 46.1622 7.72741
    endloop
  endfacet
  facet normal -0.0392795 -0.125251 -0.991347
    outer loop
      vertex 17.979 41.2524 8
      vertex 9.20274 46.1622 7.72741
      vertex 18.8062 43.1505 7.72741
    endloop
  endfacet
  facet normal 0.0392783 0.125249 -0.991347
    outer loop
      vertex 17.1517 39.3543 7.72741
      vertex 8.39312 42.101 7.72741
      vertex 8.79793 44.1316 8
    endloop
  endfacet
  facet normal 0.0392785 0.12525 -0.991347
    outer loop
      vertex 17.1517 39.3543 7.72741
      vertex 8.79793 44.1316 8
      vertex 17.979 41.2524 8
    endloop
  endfacet
  facet normal 0.115076 0.366947 -0.923096
    outer loop
      vertex 16.3809 37.5855 6.9282
      vertex 8.01589 40.2088 6.9282
      vertex 8.39312 42.101 7.72741
    endloop
  endfacet
  facet normal 0.115074 0.366944 -0.923098
    outer loop
      vertex 16.3809 37.5855 6.9282
      vertex 8.39312 42.101 7.72741
      vertex 17.1517 39.3543 7.72741
    endloop
  endfacet
  facet normal 0.182828 0.582985 -0.791645
    outer loop
      vertex 15.7189 36.0667 5.65685
      vertex 7.69196 38.584 5.65685
      vertex 8.01589 40.2088 6.9282
    endloop
  endfacet
  facet normal 0.182825 0.582981 -0.791649
    outer loop
      vertex 15.7189 36.0667 5.65685
      vertex 8.01589 40.2088 6.9282
      vertex 16.3809 37.5855 6.9282
    endloop
  endfacet
  facet normal 0.237896 0.758592 -0.606584
    outer loop
      vertex 15.2109 34.9012 4
      vertex 7.4434 37.3371 4
      vertex 7.69196 38.584 5.65685
    endloop
  endfacet
  facet normal 0.237901 0.758599 -0.606573
    outer loop
      vertex 15.2109 34.9012 4
      vertex 7.69196 38.584 5.65685
      vertex 15.7189 36.0667 5.65685
    endloop
  endfacet
  facet normal 0.276694 0.882298 -0.380777
    outer loop
      vertex 14.8916 34.1686 2.07055
      vertex 7.28715 36.5534 2.07055
      vertex 7.4434 37.3371 4
    endloop
  endfacet
  facet normal 0.276689 0.882294 -0.38079
    outer loop
      vertex 14.8916 34.1686 2.07055
      vertex 7.4434 37.3371 4
      vertex 15.2109 34.9012 4
    endloop
  endfacet
  facet normal 0.296697 0.946107 -0.129821
    outer loop
      vertex 14.7827 33.9187 0
      vertex 7.23386 36.286 0
      vertex 7.28715 36.5534 2.07055
    endloop
  endfacet
  facet normal 0.296705 0.946108 -0.129793
    outer loop
      vertex 14.7827 33.9187 0
      vertex 7.28715 36.5534 2.07055
      vertex 14.8916 34.1686 2.07055
    endloop
  endfacet
  facet normal -0.491062 -0.861398 -0.129815
    outer loop
      vertex 30.8608 42.7527 2.07055
      vertex 21.0663 48.3363 2.07055
      vertex 21.1753 48.5862 0
    endloop
  endfacet
  facet normal -0.491067 -0.861399 -0.129793
    outer loop
      vertex 30.8608 42.7527 2.07055
      vertex 21.1753 48.5862 0
      vertex 31.0204 42.9737 0
    endloop
  endfacet
  facet normal -0.457927 -0.803289 -0.380827
    outer loop
      vertex 30.3931 42.1047 4
      vertex 20.747 47.6036 4
      vertex 21.0663 48.3363 2.07055
    endloop
  endfacet
  facet normal -0.457941 -0.803299 -0.380791
    outer loop
      vertex 30.3931 42.1047 4
      vertex 21.0663 48.3363 2.07055
      vertex 30.8608 42.7527 2.07055
    endloop
  endfacet
  facet normal -0.393751 -0.690707 -0.606534
    outer loop
      vertex 29.649 41.0739 5.65685
      vertex 20.2391 46.4382 5.65685
      vertex 20.747 47.6036 4
    endloop
  endfacet
  facet normal -0.393744 -0.6907 -0.606547
    outer loop
      vertex 29.649 41.0739 5.65685
      vertex 20.747 47.6036 4
      vertex 30.3931 42.1047 4
    endloop
  endfacet
  facet normal -0.302577 -0.530765 -0.791666
    outer loop
      vertex 28.6792 39.7304 6.9282
      vertex 19.5771 44.9193 6.9282
      vertex 20.2391 46.4382 5.65685
    endloop
  endfacet
  facet normal -0.302567 -0.530755 -0.791677
    outer loop
      vertex 28.6792 39.7304 6.9282
      vertex 20.2391 46.4382 5.65685
      vertex 29.649 41.0739 5.65685
    endloop
  endfacet
  facet normal -0.190452 -0.334086 -0.9231
    outer loop
      vertex 27.5499 38.166 7.72741
      vertex 18.8062 43.1505 7.72741
      vertex 19.5771 44.9193 6.9282
    endloop
  endfacet
  facet normal -0.190461 -0.334096 -0.923095
    outer loop
      vertex 27.5499 38.166 7.72741
      vertex 19.5771 44.9193 6.9282
      vertex 28.6792 39.7304 6.9282
    endloop
  endfacet
  facet normal -0.0650099 -0.114038 -0.991347
    outer loop
      vertex 26.3381 36.4871 8
      vertex 17.979 41.2524 8
      vertex 18.8062 43.1505 7.72741
    endloop
  endfacet
  facet normal -0.0650081 -0.114036 -0.991347
    outer loop
      vertex 26.3381 36.4871 8
      vertex 18.8062 43.1505 7.72741
      vertex 27.5499 38.166 7.72741
    endloop
  endfacet
  facet normal 0.0650078 0.114035 -0.991348
    outer loop
      vertex 25.1262 34.8083 7.72741
      vertex 17.1517 39.3543 7.72741
      vertex 17.979 41.2524 8
    endloop
  endfacet
  facet normal 0.0650097 0.114037 -0.991347
    outer loop
      vertex 25.1262 34.8083 7.72741
      vertex 17.979 41.2524 8
      vertex 26.3381 36.4871 8
    endloop
  endfacet
  facet normal 0.190455 0.334094 -0.923097
    outer loop
      vertex 23.9969 33.2439 6.9282
      vertex 16.3809 37.5855 6.9282
      vertex 17.1517 39.3543 7.72741
    endloop
  endfacet
  facet normal 0.190458 0.334098 -0.923095
    outer loop
      vertex 23.9969 33.2439 6.9282
      vertex 17.1517 39.3543 7.72741
      vertex 25.1262 34.8083 7.72741
    endloop
  endfacet
  facet normal 0.302587 0.530782 -0.791651
    outer loop
      vertex 23.0272 31.9004 5.65685
      vertex 15.7189 36.0667 5.65685
      vertex 16.3809 37.5855 6.9282
    endloop
  endfacet
  facet normal 0.30257 0.530766 -0.791668
    outer loop
      vertex 23.0272 31.9004 5.65685
      vertex 16.3809 37.5855 6.9282
      vertex 23.9969 33.2439 6.9282
    endloop
  endfacet
  facet normal 0.393732 0.690681 -0.606576
    outer loop
      vertex 22.2831 30.8696 4
      vertex 15.2109 34.9012 4
      vertex 15.7189 36.0667 5.65685
    endloop
  endfacet
  facet normal 0.39375 0.690696 -0.606548
    outer loop
      vertex 22.2831 30.8696 4
      vertex 15.7189 36.0667 5.65685
      vertex 23.0272 31.9004 5.65685
    endloop
  endfacet
  facet normal 0.457938 0.8033 -0.380791
    outer loop
      vertex 21.8153 30.2216 2.07055
      vertex 14.8916 34.1686 2.07055
      vertex 15.2109 34.9012 4
    endloop
  endfacet
  facet normal 0.457929 0.803296 -0.380811
    outer loop
      vertex 21.8153 30.2216 2.07055
      vertex 15.2109 34.9012 4
      vertex 22.2831 30.8696 4
    endloop
  endfacet
  facet normal 0.491061 0.861402 -0.129792
    outer loop
      vertex 21.6557 30.0006 0
      vertex 14.7827 33.9187 0
      vertex 14.8916 34.1686 2.07055
    endloop
  endfacet
  facet normal 0.49106 0.861402 -0.129793
    outer loop
      vertex 21.6557 30.0006 0
      vertex 14.8916 34.1686 2.07055
      vertex 21.8153 30.2216 2.07055
    endloop
  endfacet
  facet normal -0.662963 -0.737314 -0.129799
    outer loop
      vertex 39.2444 35.2145 2.07055
      vertex 30.8608 42.7527 2.07055
      vertex 31.0204 42.9737 0
    endloop
  endfacet
  facet normal -0.662961 -0.737314 -0.129811
    outer loop
      vertex 39.2444 35.2145 2.07055
      vertex 31.0204 42.9737 0
      vertex 39.4473 35.3966 0
    endloop
  endfacet
  facet normal -0.618251 -0.687581 -0.380786
    outer loop
      vertex 38.6495 34.6808 4
      vertex 30.3931 42.1047 4
      vertex 30.8608 42.7527 2.07055
    endloop
  endfacet
  facet normal -0.618242 -0.687577 -0.380809
    outer loop
      vertex 38.6495 34.6808 4
      vertex 30.8608 42.7527 2.07055
      vertex 39.2444 35.2145 2.07055
    endloop
  endfacet
  facet normal -0.531588 -0.591197 -0.606549
    outer loop
      vertex 37.7033 33.8317 5.65685
      vertex 29.649 41.0739 5.65685
      vertex 30.3931 42.1047 4
    endloop
  endfacet
  facet normal -0.531584 -0.591195 -0.606554
    outer loop
      vertex 37.7033 33.8317 5.65685
      vertex 30.3931 42.1047 4
      vertex 38.6495 34.6808 4
    endloop
  endfacet
  facet normal -0.408484 -0.454299 -0.791677
    outer loop
      vertex 36.4701 32.7252 6.9282
      vertex 28.6792 39.7304 6.9282
      vertex 29.649 41.0739 5.65685
    endloop
  endfacet
  facet normal -0.408508 -0.454315 -0.791656
    outer loop
      vertex 36.4701 32.7252 6.9282
      vertex 29.649 41.0739 5.65685
      vertex 37.7033 33.8317 5.65685
    endloop
  endfacet
  facet normal -0.257129 -0.28597 -0.923096
    outer loop
      vertex 35.0341 31.4366 7.72741
      vertex 27.5499 38.166 7.72741
      vertex 28.6792 39.7304 6.9282
    endloop
  endfacet
  facet normal -0.257132 -0.285972 -0.923094
    outer loop
      vertex 35.0341 31.4366 7.72741
      vertex 28.6792 39.7304 6.9282
      vertex 36.4701 32.7252 6.9282
    endloop
  endfacet
  facet normal -0.0877663 -0.0976092 -0.991347
    outer loop
      vertex 33.493 30.0537 8
      vertex 26.3381 36.4871 8
      vertex 27.5499 38.166 7.72741
    endloop
  endfacet
  facet normal -0.0877628 -0.0976067 -0.991348
    outer loop
      vertex 33.493 30.0537 8
      vertex 27.5499 38.166 7.72741
      vertex 35.0341 31.4366 7.72741
    endloop
  endfacet
  facet normal 0.0877667 0.0976096 -0.991347
    outer loop
      vertex 31.9519 28.6709 7.72741
      vertex 25.1262 34.8083 7.72741
      vertex 26.3381 36.4871 8
    endloop
  endfacet
  facet normal 0.0877665 0.0976095 -0.991347
    outer loop
      vertex 31.9519 28.6709 7.72741
      vertex 26.3381 36.4871 8
      vertex 33.493 30.0537 8
    endloop
  endfacet
  facet normal 0.257133 0.285967 -0.923096
    outer loop
      vertex 30.5158 27.3823 6.9282
      vertex 23.9969 33.2439 6.9282
      vertex 25.1262 34.8083 7.72741
    endloop
  endfacet
  facet normal 0.257126 0.285962 -0.923099
    outer loop
      vertex 30.5158 27.3823 6.9282
      vertex 25.1262 34.8083 7.72741
      vertex 31.9519 28.6709 7.72741
    endloop
  endfacet
  facet normal 0.408501 0.454306 -0.791665
    outer loop
      vertex 29.2826 26.2757 5.65685
      vertex 23.0272 31.9004 5.65685
      vertex 23.9969 33.2439 6.9282
    endloop
  endfacet
  facet normal 0.408496 0.454303 -0.791669
    outer loop
      vertex 29.2826 26.2757 5.65685
      vertex 23.9969 33.2439 6.9282
      vertex 30.5158 27.3823 6.9282
    endloop
  endfacet
  facet normal 0.531584 0.591199 -0.606549
    outer loop
      vertex 28.3364 25.4267 4
      vertex 22.2831 30.8696 4
      vertex 23.0272 31.9004 5.65685
    endloop
  endfacet
  facet normal 0.531597 0.591206 -0.606531
    outer loop
      vertex 28.3364 25.4267 4
      vertex 23.0272 31.9004 5.65685
      vertex 29.2826 26.2757 5.65685
    endloop
  endfacet
  facet normal 0.618241 0.687575 -0.380814
    outer loop
      vertex 27.7416 24.8929 2.07055
      vertex 21.8153 30.2216 2.07055
      vertex 22.2831 30.8696 4
    endloop
  endfacet
  facet normal 0.618242 0.687575 -0.380812
    outer loop
      vertex 27.7416 24.8929 2.07055
      vertex 22.2831 30.8696 4
      vertex 28.3364 25.4267 4
    endloop
  endfacet
  facet normal 0.662966 0.737311 -0.129799
    outer loop
      vertex 27.5387 24.7108 0
      vertex 21.6557 30.0006 0
      vertex 21.8153 30.2216 2.07055
    endloop
  endfacet
  facet normal 0.662963 0.737312 -0.129811
    outer loop
      vertex 27.5387 24.7108 0
      vertex 21.8153 30.2216 2.07055
      vertex 27.7416 24.8929 2.07055
    endloop
  endfacet
  facet normal -0.804557 -0.579515 -0.129808
    outer loop
      vertex 45.3128 26.8274 1.90167
      vertex 39.2444 35.2145 2.07055
      vertex 39.4473 35.3966 0
    endloop
  endfacet
  facet normal -0.804561 -0.579519 -0.129771
    outer loop
      vertex 39.2444 35.2145 2.07055
      vertex 45.3128 26.8274 1.90167
      vertex 45.2937 26.8161 2.07055
    endloop
  endfacet
  facet normal -0.804559 -0.579514 -0.129798
    outer loop
      vertex 45.3128 26.8274 1.90167
      vertex 39.4473 35.3966 0
      vertex 45.5279 26.9547 0
    endloop
  endfacet
  facet normal -0.750278 -0.540427 -0.380816
    outer loop
      vertex 44.6627 26.4425 3.84408
      vertex 38.6495 34.6808 4
      vertex 39.2444 35.2145 2.07055
    endloop
  endfacet
  facet normal -0.750201 -0.540366 -0.381056
    outer loop
      vertex 38.6495 34.6808 4
      vertex 44.6627 26.4425 3.84408
      vertex 44.6072 26.4096 4
    endloop
  endfacet
  facet normal -0.750288 -0.540427 -0.380797
    outer loop
      vertex 45.1878 26.7534 2.36819
      vertex 39.2444 35.2145 2.07055
      vertex 45.2937 26.8161 2.07055
    endloop
  endfacet
  facet normal -0.750292 -0.540429 -0.380786
    outer loop
      vertex 39.2444 35.2145 2.07055
      vertex 45.1878 26.7534 2.36819
      vertex 44.6627 26.4425 3.84408
    endloop
  endfacet
  facet normal -0.645117 -0.464673 -0.606551
    outer loop
      vertex 43.6026 25.8148 5.52413
      vertex 37.7033 33.8317 5.65685
      vertex 38.6495 34.6808 4
    endloop
  endfacet
  facet normal -0.645069 -0.464637 -0.606629
    outer loop
      vertex 37.7033 33.8317 5.65685
      vertex 43.6026 25.8148 5.52413
      vertex 43.5151 25.763 5.65685
    endloop
  endfacet
  facet normal -0.645114 -0.464672 -0.606555
    outer loop
      vertex 43.6026 25.8148 5.52413
      vertex 38.6495 34.6808 4
      vertex 44.6072 26.4096 4
    endloop
  endfacet
  facet normal -0.495763 -0.357092 -0.791647
    outer loop
      vertex 36.4701 32.7252 6.9282
      vertex 42.2049 24.9874 6.82715
      vertex 42.0918 24.9204 6.9282
    endloop
  endfacet
  facet normal -0.495752 -0.357083 -0.791658
    outer loop
      vertex 42.2049 24.9874 6.82715
      vertex 36.4701 32.7252 6.9282
      vertex 37.7033 33.8317 5.65685
    endloop
  endfacet
  facet normal -0.495757 -0.357085 -0.791653
    outer loop
      vertex 37.7033 33.8317 5.65685
      vertex 42.7604 25.3162 6.33097
      vertex 42.2049 24.9874 6.82715
    endloop
  endfacet
  facet normal -0.495742 -0.357077 -0.791667
    outer loop
      vertex 42.7604 25.3162 6.33097
      vertex 37.7033 33.8317 5.65685
      vertex 43.5151 25.763 5.65685
    endloop
  endfacet
  facet normal -0.312047 -0.224761 -0.923098
    outer loop
      vertex 35.0341 31.4366 7.72741
      vertex 40.5653 24.0166 7.66429
      vertex 40.4344 23.9391 7.72741
    endloop
  endfacet
  facet normal -0.312055 -0.224767 -0.923093
    outer loop
      vertex 40.5653 24.0166 7.66429
      vertex 35.0341 31.4366 7.72741
      vertex 36.4701 32.7252 6.9282
    endloop
  endfacet
  facet normal -0.312058 -0.224768 -0.923092
    outer loop
      vertex 36.4701 32.7252 6.9282
      vertex 41.1978 24.3911 7.35928
      vertex 40.5653 24.0166 7.66429
    endloop
  endfacet
  facet normal -0.312041 -0.224759 -0.9231
    outer loop
      vertex 41.1978 24.3911 7.35928
      vertex 36.4701 32.7252 6.9282
      vertex 42.0918 24.9204 6.9282
    endloop
  endfacet
  facet normal -0.106521 -0.0767265 -0.991346
    outer loop
      vertex 33.493 30.0537 8
      vertex 38.7956 22.9689 7.97857
      vertex 38.6558 22.8861 8
    endloop
  endfacet
  facet normal -0.106508 -0.076717 -0.991348
    outer loop
      vertex 38.7956 22.9689 7.97857
      vertex 33.493 30.0537 8
      vertex 35.0341 31.4366 7.72741
    endloop
  endfacet
  facet normal -0.106513 -0.0767193 -0.991347
    outer loop
      vertex 38.7956 22.9689 7.97857
      vertex 35.0341 31.4366 7.72741
      vertex 40.4344 23.9391 7.72741
    endloop
  endfacet
  facet normal 0.106469 0.0766873 -0.991354
    outer loop
      vertex 31.9519 28.6709 7.72741
      vertex 37.0167 21.9157 7.7488
      vertex 36.8771 21.833 7.72741
    endloop
  endfacet
  facet normal 0.106511 0.0767191 -0.991347
    outer loop
      vertex 37.0167 21.9157 7.7488
      vertex 31.9519 28.6709 7.72741
      vertex 33.493 30.0537 8
    endloop
  endfacet
  facet normal 0.106509 0.0767182 -0.991348
    outer loop
      vertex 37.0167 21.9157 7.7488
      vertex 33.493 30.0537 8
      vertex 38.6558 22.8861 8
    endloop
  endfacet
  facet normal 0.312062 0.224777 -0.923089
    outer loop
      vertex 30.5158 27.3823 6.9282
      vertex 35.3499 20.9289 6.99099
      vertex 35.2197 20.8518 6.9282
    endloop
  endfacet
  facet normal 0.312041 0.224762 -0.923099
    outer loop
      vertex 35.3499 20.9289 6.99099
      vertex 30.5158 27.3823 6.9282
      vertex 31.9519 28.6709 7.72741
    endloop
  endfacet
  facet normal 0.312039 0.224761 -0.9231
    outer loop
      vertex 31.9519 28.6709 7.72741
      vertex 36.6944 21.7249 7.63929
      vertex 35.3499 20.9289 6.99099
    endloop
  endfacet
  facet normal 0.312164 0.224845 -0.923038
    outer loop
      vertex 36.6944 21.7249 7.63929
      vertex 31.9519 28.6709 7.72741
      vertex 36.8771 21.833 7.72741
    endloop
  endfacet
  facet normal 0.495719 0.357064 -0.791686
    outer loop
      vertex 29.2826 26.2757 5.65685
      vertex 33.9087 20.0756 5.75716
      vertex 33.7964 20.0091 5.65685
    endloop
  endfacet
  facet normal 0.495738 0.357078 -0.791668
    outer loop
      vertex 33.9087 20.0756 5.75716
      vertex 29.2826 26.2757 5.65685
      vertex 30.5158 27.3823 6.9282
    endloop
  endfacet
  facet normal 0.495739 0.357079 -0.791668
    outer loop
      vertex 33.9676 20.1105 5.80978
      vertex 30.5158 27.3823 6.9282
      vertex 35.2197 20.8518 6.9282
    endloop
  endfacet
  facet normal 0.495707 0.357068 -0.791692
    outer loop
      vertex 30.5158 27.3823 6.9282
      vertex 33.9676 20.1105 5.80978
      vertex 33.9087 20.0756 5.75716
    endloop
  endfacet
  facet normal 0.645126 0.464683 -0.606533
    outer loop
      vertex 32.7912 19.414 4.13174
      vertex 28.3364 25.4267 4
      vertex 29.2826 26.2757 5.65685
    endloop
  endfacet
  facet normal 0.644871 0.464485 -0.606955
    outer loop
      vertex 28.3364 25.4267 4
      vertex 32.7912 19.414 4.13174
      vertex 32.7043 19.3625 4
    endloop
  endfacet
  facet normal 0.645131 0.464684 -0.606527
    outer loop
      vertex 33.2969 19.7134 4.89901
      vertex 29.2826 26.2757 5.65685
      vertex 33.7964 20.0091 5.65685
    endloop
  endfacet
  facet normal 0.645131 0.464685 -0.606526
    outer loop
      vertex 29.2826 26.2757 5.65685
      vertex 33.2969 19.7134 4.89901
      vertex 32.7912 19.414 4.13174
    endloop
  endfacet
  facet normal 0.750284 0.540426 -0.380807
    outer loop
      vertex 32.073 18.9888 2.22562
      vertex 27.7416 24.8929 2.07055
      vertex 28.3364 25.4267 4
    endloop
  endfacet
  facet normal 0.750221 0.540374 -0.381005
    outer loop
      vertex 27.7416 24.8929 2.07055
      vertex 32.073 18.9888 2.22562
      vertex 32.0178 18.9561 2.07055
    endloop
  endfacet
  facet normal 0.750551 0.540604 -0.380027
    outer loop
      vertex 32.6735 19.3443 3.91328
      vertex 28.3364 25.4267 4
      vertex 32.7043 19.3625 4
    endloop
  endfacet
  facet normal 0.750271 0.540416 -0.380847
    outer loop
      vertex 32.3563 19.1565 3.02191
      vertex 28.3364 25.4267 4
      vertex 32.6735 19.3443 3.91328
    endloop
  endfacet
  facet normal 0.750309 0.540426 -0.380756
    outer loop
      vertex 28.3364 25.4267 4
      vertex 32.3563 19.1565 3.02191
      vertex 32.073 18.9888 2.22562
    endloop
  endfacet
  facet normal 0.804558 0.579514 -0.129808
    outer loop
      vertex 31.8027 18.8287 0.168544
      vertex 27.5387 24.7108 0
      vertex 27.7416 24.8929 2.07055
    endloop
  endfacet
  facet normal 0.804569 0.579525 -0.129687
    outer loop
      vertex 27.5387 24.7108 0
      vertex 31.8027 18.8287 0.168544
      vertex 31.7836 18.8175 0
    endloop
  endfacet
  facet normal 0.8044 0.579399 -0.131291
    outer loop
      vertex 32.0155 18.9547 2.05028
      vertex 27.7416 24.8929 2.07055
      vertex 32.0178 18.9561 2.07055
    endloop
  endfacet
  facet normal 0.804563 0.579511 -0.129789
    outer loop
      vertex 27.7416 24.8929 2.07055
      vertex 32.0155 18.9547 2.05028
      vertex 31.8027 18.8287 0.168544
    endloop
  endfacet
  facet normal 0 0 -1
    outer loop
      vertex 39.4473 35.3966 0
      vertex 46.4669 27.5107 0
      vertex 45.5279 26.9547 0
    endloop
  endfacet
  facet normal 0 0 -1
    outer loop
      vertex 46.4669 27.5107 0
      vertex 39.4473 35.3966 0
      vertex 39.8117 36.4834 0
    endloop
  endfacet
  facet normal 0 0 -1
    outer loop
      vertex 31.0204 42.9737 0
      vertex 39.8117 36.4834 0
      vertex 39.4473 35.3966 0
    endloop
  endfacet
  facet normal 0 0 -1
    outer loop
      vertex 39.8117 36.4834 0
      vertex 31.0204 42.9737 0
      vertex 31.4526 43.8946 0
    endloop
  endfacet
  facet normal 0 0 -1
    outer loop
      vertex 31.0204 42.9737 0
      vertex 21.7474 49.4273 0
      vertex 31.4526 43.8946 0
    endloop
  endfacet
  facet normal 0 0 -1
    outer loop
      vertex 21.1753 48.5862 0
      vertex 21.7474 49.4273 0
      vertex 31.0204 42.9737 0
    endloop
  endfacet
  facet normal 0 0 -1
    outer loop
      vertex 21.1753 48.5862 0
      vertex 11.1115 52.8445 0
      vertex 21.7474 49.4273 0
    endloop
  endfacet
  facet normal 0 0 -1
    outer loop
      vertex 10.362 51.9773 0
      vertex 11.1115 52.8445 0
      vertex 21.1753 48.5862 0
    endloop
  endfacet
  facet normal 0 0 -1
    outer loop
      vertex 10.362 51.9773 0
      vertex 1.19904e-14 54.0001 0
      vertex 11.1115 52.8445 0
    endloop
  endfacet
  facet normal 0 -0 -1
    outer loop
      vertex 1.19904e-14 54.0001 0
      vertex 10.362 51.9773 0
      vertex 1.17481e-14 52.9088 0
    endloop
  endfacet
  facet normal 0 0 -1
    outer loop
      vertex 30.9779 18.3404 0
      vertex 27.5387 24.7108 0
      vertex 31.7836 18.8175 0
    endloop
  endfacet
  facet normal 0 0 -1
    outer loop
      vertex 26.5411 24.3223 0
      vertex 27.5387 24.7108 0
      vertex 30.9779 18.3404 0
    endloop
  endfacet
  facet normal 0 0 -1
    outer loop
      vertex 26.5411 24.3223 0
      vertex 21.6557 30.0006 0
      vertex 27.5387 24.7108 0
    endloop
  endfacet
  facet normal 0 0 -1
    outer loop
      vertex 20.9684 29.2631 0
      vertex 21.6557 30.0006 0
      vertex 26.5411 24.3223 0
    endloop
  endfacet
  facet normal 0 0 -1
    outer loop
      vertex 20.9684 29.2631 0
      vertex 14.7827 33.9187 0
      vertex 21.6557 30.0006 0
    endloop
  endfacet
  facet normal 0 0 -1
    outer loop
      vertex 14.4983 32.9515 0
      vertex 14.7827 33.9187 0
      vertex 20.9684 29.2631 0
    endloop
  endfacet
  facet normal 0 0 -1
    outer loop
      vertex 7.40767 35.2297 0
      vertex 14.7827 33.9187 0
      vertex 14.4983 32.9515 0
    endloop
  endfacet
  facet normal 0 0 -1
    outer loop
      vertex 7.40767 35.2297 0
      vertex 7.23386 36.286 0
      vertex 14.7827 33.9187 0
    endloop
  endfacet
  facet normal 0 0 -1
    outer loop
      vertex 7.99362e-15 36.0001 0
      vertex 7.23386 36.286 0
      vertex 7.40767 35.2297 0
    endloop
  endfacet
  facet normal -0 0 -1
    outer loop
      vertex 7.23386 36.286 0
      vertex 7.99362e-15 36.0001 0
      vertex 8.20152e-15 36.9364 0
    endloop
  endfacet
endsolid OpenSCAD_Model
