solid OpenSCAD_Model
  facet normal -1 2.22059e-16 -1.50751e-20
    outer loop
      vertex 5.09685e-15 22.9542 0.0680499
      vertex 5.29882e-15 23.8638 1.03528
      vertex 5.32908e-15 24 0
    endloop
  endfacet
  facet normal -1 2.22046e-16 -2.02591e-19
    outer loop
      vertex 5.09685e-15 22.9542 0.0680499
      vertex 5.32908e-15 24 0
      vertex 5.09884e-15 22.9631 0
    endloop
  endfacet
  facet normal -1 2.2204e-16 2.68921e-21
    outer loop
      vertex 5.29882e-15 23.8638 1.03528
      vertex 5.09685e-15 22.9542 0.0680499
      vertex 5.07618e-15 22.8611 0.776457
    endloop
  endfacet
  facet normal -1 2.21989e-16 1.98885e-19
    outer loop
      vertex 5.07031e-15 22.8346 0.840376
      vertex 5.29882e-15 23.8638 1.03528
      vertex 5.07618e-15 22.8611 0.776457
    endloop
  endfacet
  facet normal -1 2.22024e-16 1.35703e-20
    outer loop
      vertex 5.29882e-15 23.8638 1.03528
      vertex 5.07031e-15 22.8346 0.840376
      vertex 5.21009e-15 23.4641 2
    endloop
  endfacet
  facet normal -1 2.22076e-16 -1.47772e-20
    outer loop
      vertex 5.00974e-15 22.5619 1.5
      vertex 5.21009e-15 23.4641 2
      vertex 5.07031e-15 22.8346 0.840376
    endloop
  endfacet
  facet normal -1 2.22028e-16 7.22729e-20
    outer loop
      vertex 5.00033e-15 22.5195 1.5553
      vertex 5.21009e-15 23.4641 2
      vertex 5.00974e-15 22.5619 1.5
    endloop
  endfacet
  facet normal -1 2.22065e-16 -6.41578e-21
    outer loop
      vertex 5.21009e-15 23.4641 2
      vertex 5.00033e-15 22.5195 1.5553
      vertex 5.06894e-15 22.8285 2.82843
    endloop
  endfacet
  facet normal -1 2.22046e-16 -1.68379e-21
    outer loop
      vertex 4.90405e-15 22.0859 2.12132
      vertex 5.06894e-15 22.8285 2.82843
      vertex 5.00033e-15 22.5195 1.5553
    endloop
  endfacet
  facet normal -1 2.21988e-16 5.91285e-20
    outer loop
      vertex 4.89171e-15 22.0303 2.16403
      vertex 5.06894e-15 22.8285 2.82843
      vertex 4.90405e-15 22.0859 2.12132
    endloop
  endfacet
  facet normal -1 2.22032e-16 5.82787e-21
    outer loop
      vertex 4.89171e-15 22.0303 2.16403
      vertex 4.88499e-15 22 3.4641
      vertex 5.06894e-15 22.8285 2.82843
    endloop
  endfacet
  facet normal -1 2.2203e-16 5.77429e-21
    outer loop
      vertex 4.76631e-15 21.4655 2.59808
      vertex 4.88499e-15 22 3.4641
      vertex 4.89171e-15 22.0303 2.16403
    endloop
  endfacet
  facet normal -1 2.22253e-16 -1.31873e-19
    outer loop
      vertex 4.75186e-15 21.4005 2.62506
      vertex 4.88499e-15 22 3.4641
      vertex 4.76631e-15 21.4655 2.59808
    endloop
  endfacet
  facet normal -1 2.22053e-16 1.10736e-20
    outer loop
      vertex 4.75186e-15 21.4005 2.62506
      vertex 4.67078e-15 21.0353 3.8637
      vertex 4.88499e-15 22 3.4641
    endloop
  endfacet
  facet normal -1 2.22049e-16 9.8746e-21
    outer loop
      vertex 4.60591e-15 20.7432 2.89778
      vertex 4.67078e-15 21.0353 3.8637
      vertex 4.75186e-15 21.4005 2.62506
    endloop
  endfacet
  facet normal -1 2.21973e-16 3.28234e-20
    outer loop
      vertex 4.59035e-15 20.6731 2.90701
      vertex 4.67078e-15 21.0353 3.8637
      vertex 4.60591e-15 20.7432 2.89778
    endloop
  endfacet
  facet normal -1 2.22043e-16 6.38855e-21
    outer loop
      vertex 4.59035e-15 20.6731 2.90701
      vertex 4.4409e-15 20 4
      vertex 4.67078e-15 21.0353 3.8637
    endloop
  endfacet
  facet normal -1 2.22055e-16 1.42245e-20
    outer loop
      vertex 4.43378e-15 19.968 3
      vertex 4.4409e-15 20 4
      vertex 4.59035e-15 20.6731 2.90701
    endloop
  endfacet
  facet normal -1 2.21935e-16 1.80819e-20
    outer loop
      vertex 4.4182e-15 19.8978 2.99075
      vertex 4.4409e-15 20 4
      vertex 4.43378e-15 19.968 3
    endloop
  endfacet
  facet normal -1 2.2204e-16 -7.24378e-21
    outer loop
      vertex 4.21103e-15 18.9648 3.8637
      vertex 4.4182e-15 19.8978 2.99075
      vertex 4.26164e-15 19.1927 2.89778
    endloop
  endfacet
  facet normal -1 2.21914e-16 -3.69973e-20
    outer loop
      vertex 4.21103e-15 18.9648 3.8637
      vertex 4.26164e-15 19.1927 2.89778
      vertex 4.24715e-15 19.1274 2.87069
    endloop
  endfacet
  facet normal -1 2.22053e-16 6.13671e-21
    outer loop
      vertex 4.4182e-15 19.8978 2.99075
      vertex 4.21103e-15 18.9648 3.8637
      vertex 4.4409e-15 20 4
    endloop
  endfacet
  facet normal -1 2.2207e-16 3.66518e-20
    outer loop
      vertex 3.99681e-15 18 3.4641
      vertex 4.24715e-15 19.1274 2.87069
      vertex 4.10124e-15 18.4704 2.59808
    endloop
  endfacet
  facet normal -1 2.21877e-16 -6.81731e-20
    outer loop
      vertex 3.99681e-15 18 3.4641
      vertex 4.10124e-15 18.4704 2.59808
      vertex 4.08884e-15 18.4145 2.55515
    endloop
  endfacet
  facet normal -1 2.22042e-16 -1.60347e-20
    outer loop
      vertex 4.24715e-15 19.1274 2.87069
      vertex 3.99681e-15 18 3.4641
      vertex 4.21103e-15 18.9648 3.8637
    endloop
  endfacet
  facet normal -1 2.22037e-16 3.02823e-23
    outer loop
      vertex 3.81287e-15 17.1716 2.82843
      vertex 4.08884e-15 18.4145 2.55515
      vertex 3.9635e-15 17.85 2.12132
    endloop
  endfacet
  facet normal -1 2.22177e-16 1.34363e-19
    outer loop
      vertex 3.81287e-15 17.1716 2.82843
      vertex 3.9635e-15 17.85 2.12132
      vertex 3.95405e-15 17.8075 2.06573
    endloop
  endfacet
  facet normal -1 2.22028e-16 -1.63138e-20
    outer loop
      vertex 3.67172e-15 16.5359 2
      vertex 3.95405e-15 17.8075 2.06573
      vertex 3.85781e-15 17.374 1.5
    endloop
  endfacet
  facet normal -1 2.22083e-16 7.49599e-20
    outer loop
      vertex 3.67172e-15 16.5359 2
      vertex 3.85781e-15 17.374 1.5
      vertex 3.85192e-15 17.3475 1.43584
    endloop
  endfacet
  facet normal -1 2.22038e-16 5.3893e-21
    outer loop
      vertex 4.08884e-15 18.4145 2.55515
      vertex 3.81287e-15 17.1716 2.82843
      vertex 3.99681e-15 18 3.4641
    endloop
  endfacet
  facet normal -1 2.22036e-16 1.37654e-21
    outer loop
      vertex 3.58299e-15 16.1363 1.03528
      vertex 3.85192e-15 17.3475 1.43584
      vertex 3.79137e-15 17.0748 0.776457
    endloop
  endfacet
  facet normal -1 2.22089e-16 1.96699e-19
    outer loop
      vertex 3.58299e-15 16.1363 1.03528
      vertex 3.79137e-15 17.0748 0.776457
      vertex 3.78938e-15 17.0659 0.708311
    endloop
  endfacet
  facet normal -1 2.22029e-16 -1.296e-21
    outer loop
      vertex 3.55272e-15 16 0
      vertex 3.78938e-15 17.0659 0.708311
      vertex 3.76871e-15 16.9728 0
    endloop
  endfacet
  facet normal -1 2.22027e-16 9.05355e-21
    outer loop
      vertex 3.95405e-15 17.8075 2.06573
      vertex 3.67172e-15 16.5359 2
      vertex 3.81287e-15 17.1716 2.82843
    endloop
  endfacet
  facet normal -1 2.22034e-16 5.30342e-21
    outer loop
      vertex 3.85192e-15 17.3475 1.43584
      vertex 3.58299e-15 16.1363 1.03528
      vertex 3.67172e-15 16.5359 2
    endloop
  endfacet
  facet normal -1 2.22023e-16 7.97945e-21
    outer loop
      vertex 3.78938e-15 17.0659 0.708311
      vertex 3.55272e-15 16 0
      vertex 3.58299e-15 16.1363 1.03528
    endloop
  endfacet
  facet normal 0.389202 -0.921153 -3.04885e-05
    outer loop
      vertex 22.1068 9.34297 0
      vertex 21.9813 9.28991 1.03528
      vertex 21.6132 9.13435 2
    endloop
  endfacet
  facet normal 0.389249 -0.921133 -4.59733e-05
    outer loop
      vertex 21.6132 9.13435 2
      vertex 21.0277 8.88689 2.82843
      vertex 20.2646 8.56439 3.4641
    endloop
  endfacet
  facet normal 0.389283 -0.921118 -6.69471e-06
    outer loop
      vertex 21.8557 9.23685 0
      vertex 22.1068 9.34297 0
      vertex 21.6132 9.13435 2
    endloop
  endfacet
  facet normal 0.389286 -0.921117 -3.70088e-05
    outer loop
      vertex 20.2646 8.56439 3.4641
      vertex 19.376 8.18883 3.8637
      vertex 18.4224 7.78581 4
    endloop
  endfacet
  facet normal 0.389297 -0.921112 5.91355e-06
    outer loop
      vertex 21.6132 9.13435 2
      vertex 20.2646 8.56439 3.4641
      vertex 18.4224 7.78581 4
    endloop
  endfacet
  facet normal 0.389248 -0.921133 6.636e-05
    outer loop
      vertex 18.4224 7.78581 4
      vertex 17.4687 7.38279 3.8637
      vertex 15.2315 6.43727 2
    endloop
  endfacet
  facet normal 0.389307 -0.921108 -1.6631e-05
    outer loop
      vertex 17.4687 7.38279 3.8637
      vertex 16.5801 7.00723 3.4641
      vertex 15.2315 6.43727 2
    endloop
  endfacet
  facet normal 0.389288 -0.921116 -8.32578e-06
    outer loop
      vertex 18.4224 7.78581 4
      vertex 15.2315 6.43727 2
      vertex 14.8634 6.28171 1.03528
    endloop
  endfacet
  facet normal 0.389249 -0.921133 4.59733e-05
    outer loop
      vertex 16.5801 7.00723 3.4641
      vertex 15.817 6.68473 2.82843
      vertex 15.2315 6.43727 2
    endloop
  endfacet
  facet normal 0.389256 -0.92113 -7.85302e-06
    outer loop
      vertex 18.4224 7.78581 4
      vertex 17.7388 7.49694 2.90638
      vertex 18.3928 7.77331 3
    endloop
  endfacet
  facet normal 0.389437 -0.921053 -0.000141418
    outer loop
      vertex 18.4224 7.78581 4
      vertex 17.6787 7.47153 2.89778
      vertex 17.7388 7.49694 2.90638
    endloop
  endfacet
  facet normal 0.389307 -0.921108 -3.81921e-05
    outer loop
      vertex 18.4224 7.78581 4
      vertex 17.0694 7.21402 2.62333
      vertex 17.6787 7.47153 2.89778
    endloop
  endfacet
  facet normal 0.389065 -0.92121 0.00024211
    outer loop
      vertex 18.4224 7.78581 4
      vertex 17.0133 7.19032 2.59808
      vertex 17.0694 7.21402 2.62333
    endloop
  endfacet
  facet normal 0.389627 -0.920973 -0.000423569
    outer loop
      vertex 18.4224 7.78581 4
      vertex 16.4903 6.96926 2.16165
      vertex 17.0133 7.19032 2.59808
    endloop
  endfacet
  facet normal 0.389258 -0.921129 3.37443e-05
    outer loop
      vertex 14.8634 6.28171 1.03528
      vertex 16.4903 6.96926 2.16165
      vertex 18.4224 7.78581 4
    endloop
  endfacet
  facet normal 0.389288 -0.921116 -3.28883e-05
    outer loop
      vertex 16.0035 6.76353 1.5
      vertex 14.8634 6.28171 1.03528
      vertex 15.8819 6.71215 1.18085
    endloop
  endfacet
  facet normal 0.389137 -0.92118 0.000404826
    outer loop
      vertex 16.0408 6.77931 1.55291
      vertex 14.8634 6.28171 1.03528
      vertex 16.0035 6.76353 1.5
    endloop
  endfacet
  facet normal 0.389284 -0.921118 1.09507e-05
    outer loop
      vertex 16.4419 6.94883 2.12132
      vertex 14.8634 6.28171 1.03528
      vertex 16.0408 6.77931 1.55291
    endloop
  endfacet
  facet normal 0.391217 -0.920293 -0.0033052
    outer loop
      vertex 16.4903 6.96926 2.16165
      vertex 14.8634 6.28171 1.03528
      vertex 16.4419 6.94883 2.12132
    endloop
  endfacet
  facet normal 0.38926 -0.921128 -7.98395e-06
    outer loop
      vertex 18.453 7.79875 2.99138
      vertex 18.4224 7.78581 4
      vertex 18.3928 7.77331 3
    endloop
  endfacet
  facet normal 0.389331 -0.921098 -5.41796e-06
    outer loop
      vertex 19.1068 8.0751 2.89778
      vertex 18.4224 7.78581 4
      vertex 18.453 7.79875 2.99138
    endloop
  endfacet
  facet normal 0.389194 -0.921156 -0.000106153
    outer loop
      vertex 19.1631 8.09889 2.87242
      vertex 18.4224 7.78581 4
      vertex 19.1068 8.0751 2.89778
    endloop
  endfacet
  facet normal 0.389267 -0.921125 -4.95871e-05
    outer loop
      vertex 19.7722 8.35631 2.59808
      vertex 18.4224 7.78581 4
      vertex 19.1631 8.09889 2.87242
    endloop
  endfacet
  facet normal 0.389274 -0.921122 -2.8208e-05
    outer loop
      vertex 21.6132 9.13435 2
      vertex 19.7722 8.35631 2.59808
      vertex 19.8208 8.37685 2.55753
    endloop
  endfacet
  facet normal 0.389276 -0.921121 -1.83703e-05
    outer loop
      vertex 21.6132 9.13435 2
      vertex 19.8208 8.37685 2.55753
      vertex 20.3436 8.5978 2.12132
    endloop
  endfacet
  facet normal 0.389268 -0.921124 -4.78353e-05
    outer loop
      vertex 19.7722 8.35631 2.59808
      vertex 21.6132 9.13435 2
      vertex 18.4224 7.78581 4
    endloop
  endfacet
  facet normal 0.389323 -0.921101 0.000562066
    outer loop
      vertex 20.3812 8.61366 2.06813
      vertex 21.6132 9.13435 2
      vertex 20.3436 8.5978 2.12132
    endloop
  endfacet
  facet normal 0.389294 -0.921114 -7.41185e-05
    outer loop
      vertex 21.6132 9.13435 2
      vertex 20.3812 8.61366 2.06813
      vertex 20.5377 8.67982 1.84628
    endloop
  endfacet
  facet normal 0.389282 -0.921119 2.13254e-05
    outer loop
      vertex 20.7821 8.7831 1.5
      vertex 21.6132 9.13435 2
      vertex 20.5377 8.67982 1.84628
    endloop
  endfacet
  facet normal 0.389438 -0.921053 -0.000283628
    outer loop
      vertex 20.8058 8.79314 1.4376
      vertex 21.6132 9.13435 2
      vertex 20.7821 8.7831 1.5
    endloop
  endfacet
  facet normal 0.389261 -0.921127 1.51954e-05
    outer loop
      vertex 21.0577 8.89958 0.776457
      vertex 21.6132 9.13435 2
      vertex 20.8058 8.79314 1.4376
    endloop
  endfacet
  facet normal 0.389502 -0.921026 0.000242661
    outer loop
      vertex 21.8557 9.23685 0
      vertex 21.0577 8.89958 0.776457
      vertex 21.0659 8.90303 0.708958
    endloop
  endfacet
  facet normal 0.3893 -0.921111 -2.24932e-05
    outer loop
      vertex 21.8557 9.23685 0
      vertex 21.0659 8.90303 0.708958
      vertex 21.1517 8.93931 0
    endloop
  endfacet
  facet normal 0.389298 -0.921112 -4.5967e-06
    outer loop
      vertex 21.0577 8.89958 0.776457
      vertex 21.8557 9.23685 0
      vertex 21.6132 9.13435 2
    endloop
  endfacet
  facet normal 0.389276 -0.921121 6.38114e-05
    outer loop
      vertex 14.8634 6.28171 1.03528
      vertex 15.7516 6.65706 0.838618
      vertex 15.8819 6.71215 1.18085
    endloop
  endfacet
  facet normal 0.38921 -0.921149 -0.000291182
    outer loop
      vertex 15.7516 6.65706 0.838618
      vertex 14.8634 6.28171 1.03528
      vertex 15.7304 6.64812 0.783077
    endloop
  endfacet
  facet normal 0.389261 -0.921127 2.19248e-05
    outer loop
      vertex 15.119 6.3897 0
      vertex 14.8634 6.28171 1.03528
      vertex 14.7379 6.22865 0
    endloop
  endfacet
  facet normal 0.389489 -0.921031 8.81603e-05
    outer loop
      vertex 15.119 6.3897 0
      vertex 15.2584 6.44865 0
      vertex 14.8634 6.28171 1.03528
    endloop
  endfacet
  facet normal 0.389288 -0.921116 -2.30899e-06
    outer loop
      vertex 15.2584 6.44865 0
      vertex 15.696 6.63359 0.513406
      vertex 14.8634 6.28171 1.03528
    endloop
  endfacet
  facet normal 0.38929 -0.921115 -4.00469e-06
    outer loop
      vertex 15.696 6.63359 0.513406
      vertex 15.2584 6.44865 0
      vertex 15.642 6.61077 0.067404
    endloop
  endfacet
  facet normal 0.389233 -0.921139 0.000372966
    outer loop
      vertex 15.642 6.61077 0.067404
      vertex 15.2584 6.44865 0
      vertex 15.6339 6.60732 0
    endloop
  endfacet
  facet normal 0.389697 -0.920941 0.00168645
    outer loop
      vertex 14.8634 6.28171 1.03528
      vertex 15.7279 6.64705 0.776457
      vertex 15.7304 6.64812 0.783077
    endloop
  endfacet
  facet normal 0.389251 -0.921132 -7.10439e-05
    outer loop
      vertex 15.7279 6.64705 0.776457
      vertex 14.8634 6.28171 1.03528
      vertex 15.696 6.63359 0.513406
    endloop
  endfacet
  facet normal 0.115859 0.98478 0.129556
    outer loop
      vertex 5.53764 23.2123 1.03528
      vertex 5.32908e-15 24 0
      vertex 5.29882e-15 23.8638 1.03528
    endloop
  endfacet
  facet normal 0.115836 0.984768 0.129669
    outer loop
      vertex 5.53764 23.2123 1.03528
      vertex 5.56927 23.3449 0
      vertex 5.32908e-15 24 0
    endloop
  endfacet
  facet normal 0.108022 0.91844 0.380525
    outer loop
      vertex 5.44491 22.8237 2
      vertex 5.29882e-15 23.8638 1.03528
      vertex 5.21009e-15 23.4641 2
    endloop
  endfacet
  facet normal 0.108061 0.9185 0.380369
    outer loop
      vertex 5.44491 22.8237 2
      vertex 5.53764 23.2123 1.03528
      vertex 5.29882e-15 23.8638 1.03528
    endloop
  endfacet
  facet normal 0.0929324 0.789955 0.606081
    outer loop
      vertex 5.2974 22.2053 2.82843
      vertex 5.21009e-15 23.4641 2
      vertex 5.06894e-15 22.8285 2.82843
    endloop
  endfacet
  facet normal 0.0929023 0.789889 0.606172
    outer loop
      vertex 5.2974 22.2053 2.82843
      vertex 5.44491 22.8237 2
      vertex 5.21009e-15 23.4641 2
    endloop
  endfacet
  facet normal 0.071419 0.607171 0.791355
    outer loop
      vertex 5.10517 21.3995 3.4641
      vertex 5.06894e-15 22.8285 2.82843
      vertex 4.88499e-15 22 3.4641
    endloop
  endfacet
  facet normal 0.0714337 0.607209 0.791324
    outer loop
      vertex 5.10517 21.3995 3.4641
      vertex 5.2974 22.2053 2.82843
      vertex 5.06894e-15 22.8285 2.82843
    endloop
  endfacet
  facet normal 0.0449713 0.382303 0.922942
    outer loop
      vertex 4.8813 20.4611 3.8637
      vertex 4.88499e-15 22 3.4641
      vertex 4.67078e-15 21.0353 3.8637
    endloop
  endfacet
  facet normal 0.0449674 0.382292 0.922947
    outer loop
      vertex 4.8813 20.4611 3.8637
      vertex 5.10517 21.3995 3.4641
      vertex 4.88499e-15 22 3.4641
    endloop
  endfacet
  facet normal 0.0153512 0.130511 0.991328
    outer loop
      vertex 4.64106 19.4541 4
      vertex 4.67078e-15 21.0353 3.8637
      vertex 4.4409e-15 20 4
    endloop
  endfacet
  facet normal 0.0153529 0.130516 0.991327
    outer loop
      vertex 4.64106 19.4541 4
      vertex 4.8813 20.4611 3.8637
      vertex 4.67078e-15 21.0353 3.8637
    endloop
  endfacet
  facet normal -0.0153544 -0.130523 0.991326
    outer loop
      vertex 4.40082 18.4471 3.8637
      vertex 4.4409e-15 20 4
      vertex 4.21103e-15 18.9648 3.8637
    endloop
  endfacet
  facet normal -0.0153518 -0.130516 0.991327
    outer loop
      vertex 4.40082 18.4471 3.8637
      vertex 4.64106 19.4541 4
      vertex 4.4409e-15 20 4
    endloop
  endfacet
  facet normal -0.0449631 -0.382269 0.922956
    outer loop
      vertex 4.17696 17.5087 3.4641
      vertex 4.21103e-15 18.9648 3.8637
      vertex 3.99681e-15 18 3.4641
    endloop
  endfacet
  facet normal -0.0449717 -0.382291 0.922947
    outer loop
      vertex 4.17696 17.5087 3.4641
      vertex 4.40082 18.4471 3.8637
      vertex 4.21103e-15 18.9648 3.8637
    endloop
  endfacet
  facet normal -0.0714234 -0.607217 0.79132
    outer loop
      vertex 3.98472 16.7029 2.82843
      vertex 3.99681e-15 18 3.4641
      vertex 3.81287e-15 17.1716 2.82843
    endloop
  endfacet
  facet normal -0.0714211 -0.607211 0.791324
    outer loop
      vertex 3.98472 16.7029 2.82843
      vertex 4.17696 17.5087 3.4641
      vertex 3.99681e-15 18 3.4641
    endloop
  endfacet
  facet normal -0.0929027 -0.789912 0.606143
    outer loop
      vertex 3.83721 16.0846 2
      vertex 3.81287e-15 17.1716 2.82843
      vertex 3.67172e-15 16.5359 2
    endloop
  endfacet
  facet normal -0.0929154 -0.789933 0.606112
    outer loop
      vertex 3.83721 16.0846 2
      vertex 3.98472 16.7029 2.82843
      vertex 3.81287e-15 17.1716 2.82843
    endloop
  endfacet
  facet normal -0.108025 -0.918473 0.380444
    outer loop
      vertex 3.74448 15.6959 1.03528
      vertex 3.67172e-15 16.5359 2
      vertex 3.58299e-15 16.1363 1.03528
    endloop
  endfacet
  facet normal -0.108023 -0.918471 0.380449
    outer loop
      vertex 3.74448 15.6959 1.03528
      vertex 3.83721 16.0846 2
      vertex 3.67172e-15 16.5359 2
    endloop
  endfacet
  facet normal -0.115827 -0.984771 0.12965
    outer loop
      vertex 3.71285 15.5633 0
      vertex 3.58299e-15 16.1363 1.03528
      vertex 3.55272e-15 16 0
    endloop
  endfacet
  facet normal -0.115822 -0.98477 0.129669
    outer loop
      vertex 3.71285 15.5633 0
      vertex 3.74448 15.6959 1.03528
      vertex 3.58299e-15 16.1363 1.03528
    endloop
  endfacet
  facet normal 0.341186 0.931009 0.129669
    outer loop
      vertex 10.773 21.2937 1.03528
      vertex 5.56927 23.3449 0
      vertex 5.53764 23.2123 1.03528
    endloop
  endfacet
  facet normal 0.341197 0.931012 0.129622
    outer loop
      vertex 10.773 21.2937 1.03528
      vertex 10.8345 21.4153 0
      vertex 5.56927 23.3449 0
    endloop
  endfacet
  facet normal 0.318246 0.868353 0.380372
    outer loop
      vertex 10.5926 20.9371 2
      vertex 5.53764 23.2123 1.03528
      vertex 5.44491 22.8237 2
    endloop
  endfacet
  facet normal 0.318213 0.868321 0.380472
    outer loop
      vertex 10.5926 20.9371 2
      vertex 10.773 21.2937 1.03528
      vertex 5.53764 23.2123 1.03528
    endloop
  endfacet
  facet normal 0.273674 0.746766 0.606171
    outer loop
      vertex 10.3056 20.3699 2.82843
      vertex 5.44491 22.8237 2
      vertex 5.2974 22.2053 2.82843
    endloop
  endfacet
  facet normal 0.273696 0.746795 0.606126
    outer loop
      vertex 10.3056 20.3699 2.82843
      vertex 10.5926 20.9371 2
      vertex 5.44491 22.8237 2
    endloop
  endfacet
  facet normal 0.210382 0.574061 0.791323
    outer loop
      vertex 9.93162 19.6307 3.4641
      vertex 5.2974 22.2053 2.82843
      vertex 5.10517 21.3995 3.4641
    endloop
  endfacet
  facet normal 0.21038 0.574059 0.791326
    outer loop
      vertex 9.93162 19.6307 3.4641
      vertex 10.3056 20.3699 2.82843
      vertex 5.2974 22.2053 2.82843
    endloop
  endfacet
  facet normal 0.132451 0.361421 0.922947
    outer loop
      vertex 9.49611 18.7699 3.8637
      vertex 5.10517 21.3995 3.4641
      vertex 4.8813 20.4611 3.8637
    endloop
  endfacet
  facet normal 0.132458 0.361432 0.922942
    outer loop
      vertex 9.49611 18.7699 3.8637
      vertex 9.93162 19.6307 3.4641
      vertex 5.10517 21.3995 3.4641
    endloop
  endfacet
  facet normal 0.0452201 0.123391 0.991327
    outer loop
      vertex 9.02875 17.8461 4
      vertex 4.8813 20.4611 3.8637
      vertex 4.64106 19.4541 4
    endloop
  endfacet
  facet normal 0.0452179 0.123387 0.991328
    outer loop
      vertex 9.02875 17.8461 4
      vertex 9.49611 18.7699 3.8637
      vertex 4.8813 20.4611 3.8637
    endloop
  endfacet
  facet normal -0.0452211 -0.12339 0.991327
    outer loop
      vertex 8.56139 16.9223 3.8637
      vertex 4.64106 19.4541 4
      vertex 4.40082 18.4471 3.8637
    endloop
  endfacet
  facet normal -0.0452187 -0.123387 0.991328
    outer loop
      vertex 8.56139 16.9223 3.8637
      vertex 9.02875 17.8461 4
      vertex 4.64106 19.4541 4
    endloop
  endfacet
  facet normal -0.132454 -0.361422 0.922946
    outer loop
      vertex 8.12588 16.0615 3.4641
      vertex 4.40082 18.4471 3.8637
      vertex 4.17696 17.5087 3.4641
    endloop
  endfacet
  facet normal -0.13246 -0.361431 0.922942
    outer loop
      vertex 8.12588 16.0615 3.4641
      vertex 8.56139 16.9223 3.8637
      vertex 4.40082 18.4471 3.8637
    endloop
  endfacet
  facet normal -0.210383 -0.57406 0.791325
    outer loop
      vertex 7.75189 15.3223 2.82843
      vertex 4.17696 17.5087 3.4641
      vertex 3.98472 16.7029 2.82843
    endloop
  endfacet
  facet normal -0.21038 -0.574057 0.791327
    outer loop
      vertex 7.75189 15.3223 2.82843
      vertex 8.12588 16.0615 3.4641
      vertex 4.17696 17.5087 3.4641
    endloop
  endfacet
  facet normal -0.273692 -0.746806 0.606113
    outer loop
      vertex 7.46493 14.7551 2
      vertex 3.98472 16.7029 2.82843
      vertex 3.83721 16.0846 2
    endloop
  endfacet
  facet normal -0.27369 -0.746804 0.606117
    outer loop
      vertex 7.46493 14.7551 2
      vertex 7.75189 15.3223 2.82843
      vertex 3.98472 16.7029 2.82843
    endloop
  endfacet
  facet normal -0.318234 -0.868323 0.380449
    outer loop
      vertex 7.28453 14.3985 1.03528
      vertex 3.83721 16.0846 2
      vertex 3.74448 15.6959 1.03528
    endloop
  endfacet
  facet normal -0.318224 -0.868317 0.380472
    outer loop
      vertex 7.28453 14.3985 1.03528
      vertex 7.46493 14.7551 2
      vertex 3.83721 16.0846 2
    endloop
  endfacet
  facet normal -0.341195 -0.931006 0.129669
    outer loop
      vertex 7.223 14.2769 0
      vertex 3.74448 15.6959 1.03528
      vertex 3.71285 15.5633 0
    endloop
  endfacet
  facet normal -0.341207 -0.931007 0.129631
    outer loop
      vertex 7.223 14.2769 0
      vertex 7.28453 14.3985 1.03528
      vertex 3.74448 15.6959 1.03528
    endloop
  endfacet
  facet normal 0.547922 0.826427 0.129618
    outer loop
      vertex 15.4202 18.2126 1.03528
      vertex 10.8345 21.4153 0
      vertex 10.773 21.2937 1.03528
    endloop
  endfacet
  facet normal 0.547927 0.826427 0.129594
    outer loop
      vertex 15.4202 18.2126 1.03528
      vertex 15.5082 18.3166 0
      vertex 10.8345 21.4153 0
    endloop
  endfacet
  facet normal 0.511031 0.770772 0.38047
    outer loop
      vertex 15.1619 17.9076 2
      vertex 10.773 21.2937 1.03528
      vertex 10.5926 20.9371 2
    endloop
  endfacet
  facet normal 0.511018 0.770765 0.380503
    outer loop
      vertex 15.1619 17.9076 2
      vertex 15.4202 18.2126 1.03528
      vertex 10.773 21.2937 1.03528
    endloop
  endfacet
  facet normal 0.439512 0.662899 0.60613
    outer loop
      vertex 14.7512 17.4224 2.82843
      vertex 10.5926 20.9371 2
      vertex 10.3056 20.3699 2.82843
    endloop
  endfacet
  facet normal 0.439508 0.662895 0.606138
    outer loop
      vertex 14.7512 17.4224 2.82843
      vertex 15.1619 17.9076 2
      vertex 10.5926 20.9371 2
    endloop
  endfacet
  facet normal 0.337848 0.50957 0.791326
    outer loop
      vertex 14.2159 16.7902 3.4641
      vertex 10.3056 20.3699 2.82843
      vertex 9.93162 19.6307 3.4641
    endloop
  endfacet
  facet normal 0.33786 0.509582 0.791313
    outer loop
      vertex 14.2159 16.7902 3.4641
      vertex 14.7512 17.4224 2.82843
      vertex 10.3056 20.3699 2.82843
    endloop
  endfacet
  facet normal 0.212716 0.320827 0.922942
    outer loop
      vertex 13.5925 16.0539 3.8637
      vertex 9.93162 19.6307 3.4641
      vertex 9.49611 18.7699 3.8637
    endloop
  endfacet
  facet normal 0.2127 0.320812 0.922951
    outer loop
      vertex 13.5925 16.0539 3.8637
      vertex 14.2159 16.7902 3.4641
      vertex 9.93162 19.6307 3.4641
    endloop
  endfacet
  facet normal 0.0726175 0.109525 0.991328
    outer loop
      vertex 12.9235 15.2638 4
      vertex 9.49611 18.7699 3.8637
      vertex 9.02875 17.8461 4
    endloop
  endfacet
  facet normal 0.0726182 0.109526 0.991328
    outer loop
      vertex 12.9235 15.2638 4
      vertex 13.5925 16.0539 3.8637
      vertex 9.49611 18.7699 3.8637
    endloop
  endfacet
  facet normal -0.0726159 -0.109526 0.991328
    outer loop
      vertex 12.2546 14.4737 3.8637
      vertex 9.02875 17.8461 4
      vertex 8.56139 16.9223 3.8637
    endloop
  endfacet
  facet normal -0.0726219 -0.109532 0.991327
    outer loop
      vertex 12.2546 14.4737 3.8637
      vertex 12.9235 15.2638 4
      vertex 9.02875 17.8461 4
    endloop
  endfacet
  facet normal -0.212715 -0.320827 0.922942
    outer loop
      vertex 11.6312 13.7374 3.4641
      vertex 8.56139 16.9223 3.8637
      vertex 8.12588 16.0615 3.4641
    endloop
  endfacet
  facet normal -0.212699 -0.320813 0.922951
    outer loop
      vertex 11.6312 13.7374 3.4641
      vertex 12.2546 14.4737 3.8637
      vertex 8.56139 16.9223 3.8637
    endloop
  endfacet
  facet normal -0.337847 -0.509568 0.791328
    outer loop
      vertex 11.0959 13.1052 2.82843
      vertex 8.12588 16.0615 3.4641
      vertex 7.75189 15.3223 2.82843
    endloop
  endfacet
  facet normal -0.337862 -0.50958 0.791314
    outer loop
      vertex 11.0959 13.1052 2.82843
      vertex 11.6312 13.7374 3.4641
      vertex 8.12588 16.0615 3.4641
    endloop
  endfacet
  facet normal -0.439515 -0.66291 0.606117
    outer loop
      vertex 10.6851 12.6201 2
      vertex 7.75189 15.3223 2.82843
      vertex 7.46493 14.7551 2
    endloop
  endfacet
  facet normal -0.439512 -0.662908 0.60612
    outer loop
      vertex 10.6851 12.6201 2
      vertex 11.0959 13.1052 2.82843
      vertex 7.75189 15.3223 2.82843
    endloop
  endfacet
  facet normal -0.511026 -0.770775 0.380471
    outer loop
      vertex 10.4269 12.3151 1.03528
      vertex 7.46493 14.7551 2
      vertex 7.28453 14.3985 1.03528
    endloop
  endfacet
  facet normal -0.511032 -0.770777 0.380458
    outer loop
      vertex 10.4269 12.3151 1.03528
      vertex 10.6851 12.6201 2
      vertex 7.46493 14.7551 2
    endloop
  endfacet
  facet normal -0.547925 -0.826422 0.129633
    outer loop
      vertex 10.3388 12.2111 0
      vertex 7.28453 14.3985 1.03528
      vertex 7.223 14.2769 0
    endloop
  endfacet
  facet normal -0.547921 -0.826423 0.129646
    outer loop
      vertex 10.3388 12.2111 0
      vertex 10.4269 12.3151 1.03528
      vertex 7.28453 14.3985 1.03528
    endloop
  endfacet
  facet normal 0.724758 0.676708 0.129585
    outer loop
      vertex 19.2255 14.1371 1.03528
      vertex 15.5082 18.3166 0
      vertex 15.4202 18.2126 1.03528
    endloop
  endfacet
  facet normal 0.724737 0.676712 0.129679
    outer loop
      vertex 19.2255 14.1371 1.03528
      vertex 19.3353 14.2179 0
      vertex 15.5082 18.3166 0
    endloop
  endfacet
  facet normal 0.675923 0.63114 0.380513
    outer loop
      vertex 18.9036 13.9004 2
      vertex 15.4202 18.2126 1.03528
      vertex 15.1619 17.9076 2
    endloop
  endfacet
  facet normal 0.675969 0.631153 0.380409
    outer loop
      vertex 18.9036 13.9004 2
      vertex 19.2255 14.1371 1.03528
      vertex 15.4202 18.2126 1.03528
    endloop
  endfacet
  facet normal 0.581347 0.542815 0.606126
    outer loop
      vertex 18.3914 13.5238 2.82843
      vertex 15.1619 17.9076 2
      vertex 14.7512 17.4224 2.82843
    endloop
  endfacet
  facet normal 0.581316 0.5428 0.606169
    outer loop
      vertex 18.3914 13.5238 2.82843
      vertex 18.9036 13.9004 2
      vertex 15.1619 17.9076 2
    endloop
  endfacet
  facet normal 0.446886 0.417269 0.791315
    outer loop
      vertex 17.724 13.0331 3.4641
      vertex 14.7512 17.4224 2.82843
      vertex 14.2159 16.7902 3.4641
    endloop
  endfacet
  facet normal 0.446893 0.417272 0.791309
    outer loop
      vertex 17.724 13.0331 3.4641
      vertex 18.3914 13.5238 2.82843
      vertex 14.7512 17.4224 2.82843
    endloop
  endfacet
  facet normal 0.281342 0.262695 0.922951
    outer loop
      vertex 16.9468 12.4615 3.8637
      vertex 14.2159 16.7902 3.4641
      vertex 13.5925 16.0539 3.8637
    endloop
  endfacet
  facet normal 0.281339 0.262693 0.922952
    outer loop
      vertex 16.9468 12.4615 3.8637
      vertex 17.724 13.0331 3.4641
      vertex 14.2159 16.7902 3.4641
    endloop
  endfacet
  facet normal 0.0960496 0.0896859 0.991328
    outer loop
      vertex 16.1128 11.8482 4
      vertex 13.5925 16.0539 3.8637
      vertex 12.9235 15.2638 4
    endloop
  endfacet
  facet normal 0.0960564 0.0896899 0.991327
    outer loop
      vertex 16.1128 11.8482 4
      vertex 16.9468 12.4615 3.8637
      vertex 13.5925 16.0539 3.8637
    endloop
  endfacet
  facet normal -0.0960582 -0.0896905 0.991327
    outer loop
      vertex 15.2787 11.2349 3.8637
      vertex 12.9235 15.2638 4
      vertex 12.2546 14.4737 3.8637
    endloop
  endfacet
  facet normal -0.0960487 -0.089685 0.991328
    outer loop
      vertex 15.2787 11.2349 3.8637
      vertex 16.1128 11.8482 4
      vertex 12.9235 15.2638 4
    endloop
  endfacet
  facet normal -0.28134 -0.262697 0.922951
    outer loop
      vertex 14.5015 10.6634 3.4641
      vertex 12.2546 14.4737 3.8637
      vertex 11.6312 13.7374 3.4641
    endloop
  endfacet
  facet normal -0.281358 -0.262706 0.922943
    outer loop
      vertex 14.5015 10.6634 3.4641
      vertex 15.2787 11.2349 3.8637
      vertex 12.2546 14.4737 3.8637
    endloop
  endfacet
  facet normal -0.446889 -0.417265 0.791315
    outer loop
      vertex 13.8341 10.1726 2.82843
      vertex 11.6312 13.7374 3.4641
      vertex 11.0959 13.1052 2.82843
    endloop
  endfacet
  facet normal -0.446866 -0.417255 0.791334
    outer loop
      vertex 13.8341 10.1726 2.82843
      vertex 14.5015 10.6634 3.4641
      vertex 11.6312 13.7374 3.4641
    endloop
  endfacet
  facet normal -0.58134 -0.542818 0.606129
    outer loop
      vertex 13.322 9.79607 2
      vertex 11.0959 13.1052 2.82843
      vertex 10.6851 12.6201 2
    endloop
  endfacet
  facet normal -0.581366 -0.542827 0.606096
    outer loop
      vertex 13.322 9.79607 2
      vertex 13.8341 10.1726 2.82843
      vertex 11.0959 13.1052 2.82843
    endloop
  endfacet
  facet normal -0.675951 -0.631147 0.380453
    outer loop
      vertex 13 9.55934 1.03528
      vertex 10.6851 12.6201 2
      vertex 10.4269 12.3151 1.03528
    endloop
  endfacet
  facet normal -0.675934 -0.631145 0.380485
    outer loop
      vertex 13 9.55934 1.03528
      vertex 13.322 9.79607 2
      vertex 10.6851 12.6201 2
    endloop
  endfacet
  facet normal -0.724745 -0.676709 0.129654
    outer loop
      vertex 12.8902 9.47859 0
      vertex 10.4269 12.3151 1.03528
      vertex 10.3388 12.2111 0
    endloop
  endfacet
  facet normal -0.724747 -0.676708 0.129647
    outer loop
      vertex 12.8902 9.47859 0
      vertex 13 9.55934 1.03528
      vertex 10.4269 12.3151 1.03528
    endloop
  endfacet
  facet normal 0.861985 0.490069 0.129669
    outer loop
      vertex 21.9813 9.28991 1.03528
      vertex 19.3353 14.2179 0
      vertex 19.2255 14.1371 1.03528
    endloop
  endfacet
  facet normal 0.861997 0.490063 0.129611
    outer loop
      vertex 21.9813 9.28991 1.03528
      vertex 22.1068 9.34297 0
      vertex 19.3353 14.2179 0
    endloop
  endfacet
  facet normal 0.803972 0.457075 0.380409
    outer loop
      vertex 21.6132 9.13435 2
      vertex 19.2255 14.1371 1.03528
      vertex 18.9036 13.9004 2
    endloop
  endfacet
  facet normal 0.803949 0.457074 0.380459
    outer loop
      vertex 21.6132 9.13435 2
      vertex 21.9813 9.28991 1.03528
      vertex 19.2255 14.1371 1.03528
    endloop
  endfacet
  facet normal 0.691398 0.393092 0.606174
    outer loop
      vertex 21.0277 8.88689 2.82843
      vertex 18.9036 13.9004 2
      vertex 18.3914 13.5238 2.82843
    endloop
  endfacet
  facet normal 0.691448 0.393103 0.60611
    outer loop
      vertex 21.0277 8.88689 2.82843
      vertex 21.6132 9.13435 2
      vertex 18.9036 13.9004 2
    endloop
  endfacet
  facet normal 0.531515 0.302183 0.791314
    outer loop
      vertex 20.2646 8.56439 3.4641
      vertex 18.3914 13.5238 2.82843
      vertex 17.724 13.0331 3.4641
    endloop
  endfacet
  facet normal 0.531486 0.302175 0.791336
    outer loop
      vertex 20.2646 8.56439 3.4641
      vertex 21.0277 8.88689 2.82843
      vertex 18.3914 13.5238 2.82843
    endloop
  endfacet
  facet normal 0.334619 0.190246 0.92295
    outer loop
      vertex 19.376 8.18883 3.8637
      vertex 17.724 13.0331 3.4641
      vertex 16.9468 12.4615 3.8637
    endloop
  endfacet
  facet normal 0.334636 0.190251 0.922943
    outer loop
      vertex 19.376 8.18883 3.8637
      vertex 20.2646 8.56439 3.4641
      vertex 17.724 13.0331 3.4641
    endloop
  endfacet
  facet normal 0.114247 0.0649532 0.991327
    outer loop
      vertex 18.4224 7.78581 4
      vertex 16.9468 12.4615 3.8637
      vertex 16.1128 11.8482 4
    endloop
  endfacet
  facet normal 0.114242 0.0649516 0.991327
    outer loop
      vertex 18.4224 7.78581 4
      vertex 19.376 8.18883 3.8637
      vertex 16.9468 12.4615 3.8637
    endloop
  endfacet
  facet normal -0.114238 -0.0649467 0.991328
    outer loop
      vertex 17.4687 7.38279 3.8637
      vertex 16.1128 11.8482 4
      vertex 15.2787 11.2349 3.8637
    endloop
  endfacet
  facet normal -0.114233 -0.0649451 0.991329
    outer loop
      vertex 17.4687 7.38279 3.8637
      vertex 18.4224 7.78581 4
      vertex 16.1128 11.8482 4
    endloop
  endfacet
  facet normal -0.334638 -0.190248 0.922942
    outer loop
      vertex 16.5801 7.00723 3.4641
      vertex 15.2787 11.2349 3.8637
      vertex 14.5015 10.6634 3.4641
    endloop
  endfacet
  facet normal -0.334637 -0.190248 0.922943
    outer loop
      vertex 16.5801 7.00723 3.4641
      vertex 17.4687 7.38279 3.8637
      vertex 15.2787 11.2349 3.8637
    endloop
  endfacet
  facet normal -0.5315 -0.302165 0.791331
    outer loop
      vertex 15.817 6.68473 2.82843
      vertex 14.5015 10.6634 3.4641
      vertex 13.8341 10.1726 2.82843
    endloop
  endfacet
  facet normal -0.531492 -0.302163 0.791337
    outer loop
      vertex 15.817 6.68473 2.82843
      vertex 16.5801 7.00723 3.4641
      vertex 14.5015 10.6634 3.4641
    endloop
  endfacet
  facet normal -0.69146 -0.3931 0.606099
    outer loop
      vertex 15.2315 6.43727 2
      vertex 13.8341 10.1726 2.82843
      vertex 13.322 9.79607 2
    endloop
  endfacet
  facet normal -0.69145 -0.393099 0.606111
    outer loop
      vertex 15.2315 6.43727 2
      vertex 15.817 6.68473 2.82843
      vertex 13.8341 10.1726 2.82843
    endloop
  endfacet
  facet normal -0.803943 -0.457058 0.380493
    outer loop
      vertex 14.8634 6.28171 1.03528
      vertex 13.322 9.79607 2
      vertex 13 9.55934 1.03528
    endloop
  endfacet
  facet normal -0.803959 -0.457056 0.38046
    outer loop
      vertex 14.8634 6.28171 1.03528
      vertex 15.2315 6.43727 2
      vertex 13.322 9.79607 2
    endloop
  endfacet
  facet normal -0.861988 -0.490069 0.129646
    outer loop
      vertex 14.7379 6.22865 0
      vertex 13 9.55934 1.03528
      vertex 12.8902 9.47859 0
    endloop
  endfacet
  facet normal -0.861997 -0.490063 0.129611
    outer loop
      vertex 14.7379 6.22865 0
      vertex 14.8634 6.28171 1.03528
      vertex 13 9.55934 1.03528
    endloop
  endfacet
  facet normal -0.0822431 -0.988116 -0.12986
    outer loop
      vertex 4.17867 22.5133 0.776457
      vertex 5.07618e-15 22.8611 0.776457
      vertex 5.09685e-15 22.9542 0.0680499
    endloop
  endfacet
  facet normal -0.0822373 -0.988197 -0.129243
    outer loop
      vertex 4.19733 22.6138 0
      vertex 5.09685e-15 22.9542 0.0680499
      vertex 5.09884e-15 22.9631 0
    endloop
  endfacet
  facet normal -0.0822408 -0.988114 -0.129872
    outer loop
      vertex 5.09685e-15 22.9542 0.0680499
      vertex 4.19733 22.6138 0
      vertex 4.17867 22.5133 0.776457
    endloop
  endfacet
  facet normal -0.0767032 -0.921417 -0.38093
    outer loop
      vertex 4.12398 22.2186 1.5
      vertex 5.00974e-15 22.5619 1.5
      vertex 5.07031e-15 22.8346 0.840376
    endloop
  endfacet
  facet normal -0.0766601 -0.921039 -0.381851
    outer loop
      vertex 4.17867 22.5133 0.776457
      vertex 5.07031e-15 22.8346 0.840376
      vertex 5.07618e-15 22.8611 0.776457
    endloop
  endfacet
  facet normal -0.076673 -0.921362 -0.381068
    outer loop
      vertex 5.07031e-15 22.8346 0.840376
      vertex 4.17867 22.5133 0.776457
      vertex 4.12398 22.2186 1.5
    endloop
  endfacet
  facet normal -0.0659283 -0.792115 -0.6068
    outer loop
      vertex 4.03697 21.7499 2.12132
      vertex 4.90405e-15 22.0859 2.12132
      vertex 5.00033e-15 22.5195 1.5553
    endloop
  endfacet
  facet normal -0.0658322 -0.791862 -0.607142
    outer loop
      vertex 5.00974e-15 22.5619 1.5
      vertex 4.03697 21.7499 2.12132
      vertex 5.00033e-15 22.5195 1.5553
    endloop
  endfacet
  facet normal -0.0659404 -0.792127 -0.606784
    outer loop
      vertex 4.03697 21.7499 2.12132
      vertex 5.00974e-15 22.5619 1.5
      vertex 4.12398 22.2186 1.5
    endloop
  endfacet
  facet normal -0.0506416 -0.608566 -0.791886
    outer loop
      vertex 3.92359 21.139 2.59808
      vertex 4.76631e-15 21.4655 2.59808
      vertex 4.89171e-15 22.0303 2.16403
    endloop
  endfacet
  facet normal -0.0506492 -0.60859 -0.791867
    outer loop
      vertex 4.89171e-15 22.0303 2.16403
      vertex 4.03697 21.7499 2.12132
      vertex 3.92359 21.139 2.59808
    endloop
  endfacet
  facet normal -0.0506374 -0.608398 -0.792015
    outer loop
      vertex 4.03697 21.7499 2.12132
      vertex 4.89171e-15 22.0303 2.16403
      vertex 4.90405e-15 22.0859 2.12132
    endloop
  endfacet
  facet normal -0.0318831 -0.383037 -0.923183
    outer loop
      vertex 3.79155 20.4276 2.89778
      vertex 4.60591e-15 20.7432 2.89778
      vertex 4.75186e-15 21.4005 2.62506
    endloop
  endfacet
  facet normal -0.0318751 -0.383009 -0.923194
    outer loop
      vertex 4.75186e-15 21.4005 2.62506
      vertex 3.92359 21.139 2.59808
      vertex 3.79155 20.4276 2.89778
    endloop
  endfacet
  facet normal -0.0318853 -0.383169 -0.923128
    outer loop
      vertex 3.92359 21.139 2.59808
      vertex 4.75186e-15 21.4005 2.62506
      vertex 4.76631e-15 21.4655 2.59808
    endloop
  endfacet
  facet normal -0.0108825 -0.130742 -0.991357
    outer loop
      vertex 3.64985 19.6642 3
      vertex 4.43378e-15 19.968 3
      vertex 4.59035e-15 20.6731 2.90701
    endloop
  endfacet
  facet normal -0.0108777 -0.130725 -0.991359
    outer loop
      vertex 4.59035e-15 20.6731 2.90701
      vertex 3.79155 20.4276 2.89778
      vertex 3.64985 19.6642 3
    endloop
  endfacet
  facet normal -0.0108654 -0.130535 -0.991384
    outer loop
      vertex 3.79155 20.4276 2.89778
      vertex 4.59035e-15 20.6731 2.90701
      vertex 4.60591e-15 20.7432 2.89778
    endloop
  endfacet
  facet normal 0.0108763 0.130714 -0.99136
    outer loop
      vertex 3.50815 18.9008 2.89778
      vertex 4.26164e-15 19.1927 2.89778
      vertex 4.4182e-15 19.8978 2.99075
    endloop
  endfacet
  facet normal 0.0108792 0.130725 -0.991359
    outer loop
      vertex 4.4182e-15 19.8978 2.99075
      vertex 3.64985 19.6642 3
      vertex 3.50815 18.9008 2.89778
    endloop
  endfacet
  facet normal 0.0108731 0.130629 -0.991372
    outer loop
      vertex 3.64985 19.6642 3
      vertex 4.4182e-15 19.8978 2.99075
      vertex 4.43378e-15 19.968 3
    endloop
  endfacet
  facet normal 0.0318824 0.383055 -0.923175
    outer loop
      vertex 3.37611 18.1894 2.59808
      vertex 4.10124e-15 18.4704 2.59808
      vertex 4.24715e-15 19.1274 2.87069
    endloop
  endfacet
  facet normal 0.0318685 0.38301 -0.923194
    outer loop
      vertex 4.24715e-15 19.1274 2.87069
      vertex 3.50815 18.9008 2.89778
      vertex 3.37611 18.1894 2.59808
    endloop
  endfacet
  facet normal 0.0318675 0.382994 -0.923201
    outer loop
      vertex 3.50815 18.9008 2.89778
      vertex 4.24715e-15 19.1274 2.87069
      vertex 4.26164e-15 19.1927 2.89778
    endloop
  endfacet
  facet normal 0.0506411 0.608575 -0.791879
    outer loop
      vertex 3.26273 17.5785 2.12132
      vertex 3.9635e-15 17.85 2.12132
      vertex 4.08884e-15 18.4145 2.55515
    endloop
  endfacet
  facet normal 0.0506466 0.608591 -0.791866
    outer loop
      vertex 4.08884e-15 18.4145 2.55515
      vertex 3.37611 18.1894 2.59808
      vertex 3.26273 17.5785 2.12132
    endloop
  endfacet
  facet normal 0.0506304 0.608305 -0.792087
    outer loop
      vertex 3.37611 18.1894 2.59808
      vertex 4.08884e-15 18.4145 2.55515
      vertex 4.10124e-15 18.4704 2.59808
    endloop
  endfacet
  facet normal 0.0659171 0.792033 -0.606909
    outer loop
      vertex 3.17572 17.1097 1.5
      vertex 3.85781e-15 17.374 1.5
      vertex 3.95405e-15 17.8075 2.06573
    endloop
  endfacet
  facet normal 0.0659623 0.792697 -0.606037
    outer loop
      vertex 3.26273 17.5785 2.12132
      vertex 3.95405e-15 17.8075 2.06573
      vertex 3.9635e-15 17.85 2.12132
    endloop
  endfacet
  facet normal 0.0659321 0.792066 -0.606865
    outer loop
      vertex 3.95405e-15 17.8075 2.06573
      vertex 3.26273 17.5785 2.12132
      vertex 3.17572 17.1097 1.5
    endloop
  endfacet
  facet normal 0.076667 0.92137 -0.38105
    outer loop
      vertex 3.12103 16.8151 0.776457
      vertex 3.79137e-15 17.0748 0.776457
      vertex 3.85192e-15 17.3475 1.43584
    endloop
  endfacet
  facet normal 0.0766957 0.921543 -0.380625
    outer loop
      vertex 3.17572 17.1097 1.5
      vertex 3.85192e-15 17.3475 1.43584
      vertex 3.85781e-15 17.374 1.5
    endloop
  endfacet
  facet normal 0.0766921 0.921406 -0.380959
    outer loop
      vertex 3.85192e-15 17.3475 1.43584
      vertex 3.17572 17.1097 1.5
      vertex 3.12103 16.8151 0.776457
    endloop
  endfacet
  facet normal 0.0822374 0.988114 -0.129877
    outer loop
      vertex 3.10237 16.7146 0
      vertex 3.76871e-15 16.9728 0
      vertex 3.78938e-15 17.0659 0.708311
    endloop
  endfacet
  facet normal 0.0822296 0.988221 -0.129064
    outer loop
      vertex 3.12103 16.8151 0.776457
      vertex 3.78938e-15 17.0659 0.708311
      vertex 3.79137e-15 17.0748 0.776457
    endloop
  endfacet
  facet normal 0.0822387 0.988114 -0.129872
    outer loop
      vertex 3.78938e-15 17.0659 0.708311
      vertex 3.12103 16.8151 0.776457
      vertex 3.10237 16.7146 0
    endloop
  endfacet
  facet normal -0.277833 -0.95181 -0.129874
    outer loop
      vertex 8.58875 21.226 0.776457
      vertex 4.17867 22.5133 0.776457
      vertex 4.19733 22.6138 0
    endloop
  endfacet
  facet normal -0.277821 -0.951805 -0.129931
    outer loop
      vertex 8.58875 21.226 0.776457
      vertex 4.19733 22.6138 0
      vertex 8.6271 21.3208 0
    endloop
  endfacet
  facet normal -0.259054 -0.887513 -0.381066
    outer loop
      vertex 8.47634 20.9482 1.5
      vertex 4.12398 22.2186 1.5
      vertex 4.17867 22.5133 0.776457
    endloop
  endfacet
  facet normal -0.25907 -0.887532 -0.381012
    outer loop
      vertex 8.47634 20.9482 1.5
      vertex 4.17867 22.5133 0.776457
      vertex 8.58875 21.226 0.776457
    endloop
  endfacet
  facet normal -0.222734 -0.763021 -0.606786
    outer loop
      vertex 8.29751 20.5062 2.12132
      vertex 4.03697 21.7499 2.12132
      vertex 4.12398 22.2186 1.5
    endloop
  endfacet
  facet normal -0.222701 -0.762968 -0.606865
    outer loop
      vertex 8.29751 20.5062 2.12132
      vertex 4.12398 22.2186 1.5
      vertex 8.47634 20.9482 1.5
    endloop
  endfacet
  facet normal -0.171118 -0.586231 -0.791866
    outer loop
      vertex 8.06446 19.9303 2.59808
      vertex 3.92359 21.139 2.59808
      vertex 4.03697 21.7499 2.12132
    endloop
  endfacet
  facet normal -0.171138 -0.586267 -0.791835
    outer loop
      vertex 8.06446 19.9303 2.59808
      vertex 4.03697 21.7499 2.12132
      vertex 8.29751 20.5062 2.12132
    endloop
  endfacet
  facet normal -0.107689 -0.368938 -0.923195
    outer loop
      vertex 7.79307 19.2596 2.89778
      vertex 3.79155 20.4276 2.89778
      vertex 3.92359 21.139 2.59808
    endloop
  endfacet
  facet normal -0.107694 -0.368947 -0.92319
    outer loop
      vertex 7.79307 19.2596 2.89778
      vertex 3.92359 21.139 2.59808
      vertex 8.06446 19.9303 2.59808
    endloop
  endfacet
  facet normal -0.0367567 -0.125921 -0.991359
    outer loop
      vertex 7.50183 18.5398 3
      vertex 3.64985 19.6642 3
      vertex 3.79155 20.4276 2.89778
    endloop
  endfacet
  facet normal -0.0367529 -0.125914 -0.99136
    outer loop
      vertex 7.50183 18.5398 3
      vertex 3.79155 20.4276 2.89778
      vertex 7.79307 19.2596 2.89778
    endloop
  endfacet
  facet normal 0.0367584 0.125921 -0.991359
    outer loop
      vertex 7.21058 17.82 2.89778
      vertex 3.50815 18.9008 2.89778
      vertex 3.64985 19.6642 3
    endloop
  endfacet
  facet normal 0.0367542 0.125913 -0.99136
    outer loop
      vertex 7.21058 17.82 2.89778
      vertex 3.64985 19.6642 3
      vertex 7.50183 18.5398 3
    endloop
  endfacet
  facet normal 0.107696 0.368936 -0.923194
    outer loop
      vertex 6.93919 17.1493 2.59808
      vertex 3.37611 18.1894 2.59808
      vertex 3.50815 18.9008 2.89778
    endloop
  endfacet
  facet normal 0.107701 0.368945 -0.92319
    outer loop
      vertex 6.93919 17.1493 2.59808
      vertex 3.50815 18.9008 2.89778
      vertex 7.21058 17.82 2.89778
    endloop
  endfacet
  facet normal 0.171116 0.586232 -0.791866
    outer loop
      vertex 6.70614 16.5734 2.12132
      vertex 3.26273 17.5785 2.12132
      vertex 3.37611 18.1894 2.59808
    endloop
  endfacet
  facet normal 0.171138 0.586268 -0.791835
    outer loop
      vertex 6.70614 16.5734 2.12132
      vertex 3.37611 18.1894 2.59808
      vertex 6.93919 17.1493 2.59808
    endloop
  endfacet
  facet normal 0.222704 0.762968 -0.606864
    outer loop
      vertex 6.52731 16.1314 1.5
      vertex 3.17572 17.1097 1.5
      vertex 3.26273 17.5785 2.12132
    endloop
  endfacet
  facet normal 0.222703 0.762967 -0.606865
    outer loop
      vertex 6.52731 16.1314 1.5
      vertex 3.26273 17.5785 2.12132
      vertex 6.70614 16.5734 2.12132
    endloop
  endfacet
  facet normal 0.259081 0.88755 -0.380961
    outer loop
      vertex 6.4149 15.8536 0.776457
      vertex 3.12103 16.8151 0.776457
      vertex 3.17572 17.1097 1.5
    endloop
  endfacet
  facet normal 0.259063 0.887534 -0.381012
    outer loop
      vertex 6.4149 15.8536 0.776457
      vertex 3.17572 17.1097 1.5
      vertex 6.52731 16.1314 1.5
    endloop
  endfacet
  facet normal 0.277851 0.951804 -0.129873
    outer loop
      vertex 6.37655 15.7588 0
      vertex 3.10237 16.7146 0
      vertex 3.12103 16.8151 0.776457
    endloop
  endfacet
  facet normal 0.277836 0.951801 -0.129931
    outer loop
      vertex 6.37655 15.7588 0
      vertex 3.12103 16.8151 0.776457
      vertex 6.4149 15.8536 0.776457
    endloop
  endfacet
  facet normal -0.462232 -0.877188 -0.129929
    outer loop
      vertex 12.6531 19.0843 0.776457
      vertex 8.58875 21.226 0.776457
      vertex 8.6271 21.3208 0
    endloop
  endfacet
  facet normal -0.462241 -0.87719 -0.129889
    outer loop
      vertex 12.6531 19.0843 0.776457
      vertex 8.6271 21.3208 0
      vertex 12.7096 19.1695 0
    endloop
  endfacet
  facet normal -0.431024 -0.817953 -0.381012
    outer loop
      vertex 12.4875 18.8345 1.5
      vertex 8.47634 20.9482 1.5
      vertex 8.58875 21.226 0.776457
    endloop
  endfacet
  facet normal -0.431015 -0.817946 -0.38104
    outer loop
      vertex 12.4875 18.8345 1.5
      vertex 8.58875 21.226 0.776457
      vertex 12.6531 19.0843 0.776457
    endloop
  endfacet
  facet normal -0.370533 -0.703153 -0.606862
    outer loop
      vertex 12.224 18.4371 2.12132
      vertex 8.29751 20.5062 2.12132
      vertex 8.47634 20.9482 1.5
    endloop
  endfacet
  facet normal -0.370526 -0.703145 -0.606875
    outer loop
      vertex 12.224 18.4371 2.12132
      vertex 8.47634 20.9482 1.5
      vertex 12.4875 18.8345 1.5
    endloop
  endfacet
  facet normal -0.284719 -0.540306 -0.791836
    outer loop
      vertex 11.8807 17.9193 2.59808
      vertex 8.06446 19.9303 2.59808
      vertex 8.29751 20.5062 2.12132
    endloop
  endfacet
  facet normal -0.28472 -0.540307 -0.791835
    outer loop
      vertex 11.8807 17.9193 2.59808
      vertex 8.29751 20.5062 2.12132
      vertex 12.224 18.4371 2.12132
    endloop
  endfacet
  facet normal -0.179175 -0.340024 -0.92319
    outer loop
      vertex 11.4809 17.3163 2.89778
      vertex 7.79307 19.2596 2.89778
      vertex 8.06446 19.9303 2.59808
    endloop
  endfacet
  facet normal -0.179184 -0.340034 -0.923185
    outer loop
      vertex 11.4809 17.3163 2.89778
      vertex 8.06446 19.9303 2.59808
      vertex 11.8807 17.9193 2.59808
    endloop
  endfacet
  facet normal -0.0611501 -0.116043 -0.99136
    outer loop
      vertex 11.0518 16.6691 3
      vertex 7.50183 18.5398 3
      vertex 7.79307 19.2596 2.89778
    endloop
  endfacet
  facet normal -0.0611457 -0.116037 -0.991361
    outer loop
      vertex 11.0518 16.6691 3
      vertex 7.79307 19.2596 2.89778
      vertex 11.4809 17.3163 2.89778
    endloop
  endfacet
  facet normal 0.0611466 0.116043 -0.99136
    outer loop
      vertex 10.6228 16.022 2.89778
      vertex 7.21058 17.82 2.89778
      vertex 7.50183 18.5398 3
    endloop
  endfacet
  facet normal 0.0611573 0.116056 -0.991358
    outer loop
      vertex 10.6228 16.022 2.89778
      vertex 7.50183 18.5398 3
      vertex 11.0518 16.6691 3
    endloop
  endfacet
  facet normal 0.17918 0.340022 -0.92319
    outer loop
      vertex 10.2229 15.4189 2.59808
      vertex 6.93919 17.1493 2.59808
      vertex 7.21058 17.82 2.89778
    endloop
  endfacet
  facet normal 0.179148 0.339985 -0.92321
    outer loop
      vertex 10.2229 15.4189 2.59808
      vertex 7.21058 17.82 2.89778
      vertex 10.6228 16.022 2.89778
    endloop
  endfacet
  facet normal 0.284721 0.540305 -0.791836
    outer loop
      vertex 9.8796 14.9011 2.12132
      vertex 6.70614 16.5734 2.12132
      vertex 6.93919 17.1493 2.59808
    endloop
  endfacet
  facet normal 0.284722 0.540306 -0.791835
    outer loop
      vertex 9.8796 14.9011 2.12132
      vertex 6.93919 17.1493 2.59808
      vertex 10.2229 15.4189 2.59808
    endloop
  endfacet
  facet normal 0.370534 0.703152 -0.606862
    outer loop
      vertex 9.61615 14.5037 1.5
      vertex 6.52731 16.1314 1.5
      vertex 6.70614 16.5734 2.12132
    endloop
  endfacet
  facet normal 0.370538 0.703155 -0.606856
    outer loop
      vertex 9.61615 14.5037 1.5
      vertex 6.70614 16.5734 2.12132
      vertex 9.8796 14.9011 2.12132
    endloop
  endfacet
  facet normal 0.431036 0.817947 -0.381012
    outer loop
      vertex 9.45054 14.2539 0.776457
      vertex 6.4149 15.8536 0.776457
      vertex 6.52731 16.1314 1.5
    endloop
  endfacet
  facet normal 0.431022 0.817939 -0.381045
    outer loop
      vertex 9.45054 14.2539 0.776457
      vertex 6.52731 16.1314 1.5
      vertex 9.61615 14.5037 1.5
    endloop
  endfacet
  facet normal 0.462241 0.877184 -0.129929
    outer loop
      vertex 9.39405 14.1687 0
      vertex 6.37655 15.7588 0
      vertex 6.4149 15.8536 0.776457
    endloop
  endfacet
  facet normal 0.462253 0.877185 -0.129883
    outer loop
      vertex 9.39405 14.1687 0
      vertex 6.4149 15.8536 0.776457
      vertex 9.45054 14.2539 0.776457
    endloop
  endfacet
  facet normal -0.628049 -0.767256 -0.129891
    outer loop
      vertex 16.2081 16.1743 0.776457
      vertex 12.6531 19.0843 0.776457
      vertex 12.7096 19.1695 0
    endloop
  endfacet
  facet normal -0.628046 -0.767256 -0.129906
    outer loop
      vertex 16.2081 16.1743 0.776457
      vertex 12.7096 19.1695 0
      vertex 16.2805 16.2465 0
    endloop
  endfacet
  facet normal -0.585626 -0.715439 -0.381037
    outer loop
      vertex 15.996 15.9626 1.5
      vertex 12.4875 18.8345 1.5
      vertex 12.6531 19.0843 0.776457
    endloop
  endfacet
  facet normal -0.585639 -0.715445 -0.381005
    outer loop
      vertex 15.996 15.9626 1.5
      vertex 12.6531 19.0843 0.776457
      vertex 16.2081 16.1743 0.776457
    endloop
  endfacet
  facet normal -0.503429 -0.615027 -0.606878
    outer loop
      vertex 15.6585 15.6258 2.12132
      vertex 12.224 18.4371 2.12132
      vertex 12.4875 18.8345 1.5
    endloop
  endfacet
  facet normal -0.50344 -0.615035 -0.606861
    outer loop
      vertex 15.6585 15.6258 2.12132
      vertex 12.4875 18.8345 1.5
      vertex 15.996 15.9626 1.5
    endloop
  endfacet
  facet normal -0.386843 -0.472599 -0.791835
    outer loop
      vertex 15.2187 15.187 2.59808
      vertex 11.8807 17.9193 2.59808
      vertex 12.224 18.4371 2.12132
    endloop
  endfacet
  facet normal -0.386847 -0.472602 -0.791831
    outer loop
      vertex 15.2187 15.187 2.59808
      vertex 12.224 18.4371 2.12132
      vertex 15.6585 15.6258 2.12132
    endloop
  endfacet
  facet normal -0.24346 -0.297418 -0.923185
    outer loop
      vertex 14.7065 14.6759 2.89778
      vertex 11.4809 17.3163 2.89778
      vertex 11.8807 17.9193 2.59808
    endloop
  endfacet
  facet normal -0.24343 -0.297394 -0.9232
    outer loop
      vertex 14.7065 14.6759 2.89778
      vertex 11.8807 17.9193 2.59808
      vertex 15.2187 15.187 2.59808
    endloop
  endfacet
  facet normal -0.0830794 -0.101495 -0.991361
    outer loop
      vertex 14.1569 14.1274 3
      vertex 11.0518 16.6691 3
      vertex 11.4809 17.3163 2.89778
    endloop
  endfacet
  facet normal -0.0830857 -0.1015 -0.99136
    outer loop
      vertex 14.1569 14.1274 3
      vertex 11.4809 17.3163 2.89778
      vertex 14.7065 14.6759 2.89778
    endloop
  endfacet
  facet normal 0.0830969 0.101511 -0.991358
    outer loop
      vertex 13.6073 13.5789 2.89778
      vertex 10.6228 16.022 2.89778
      vertex 11.0518 16.6691 3
    endloop
  endfacet
  facet normal 0.0830846 0.101501 -0.99136
    outer loop
      vertex 13.6073 13.5789 2.89778
      vertex 11.0518 16.6691 3
      vertex 14.1569 14.1274 3
    endloop
  endfacet
  facet normal 0.243413 0.297373 -0.923211
    outer loop
      vertex 13.0952 13.0678 2.59808
      vertex 10.2229 15.4189 2.59808
      vertex 10.6228 16.022 2.89778
    endloop
  endfacet
  facet normal 0.243457 0.297408 -0.923189
    outer loop
      vertex 13.0952 13.0678 2.59808
      vertex 10.6228 16.022 2.89778
      vertex 13.6073 13.5789 2.89778
    endloop
  endfacet
  facet normal 0.386842 0.4726 -0.791835
    outer loop
      vertex 12.6554 12.629 2.12132
      vertex 9.8796 14.9011 2.12132
      vertex 10.2229 15.4189 2.59808
    endloop
  endfacet
  facet normal 0.386846 0.472603 -0.791831
    outer loop
      vertex 12.6554 12.629 2.12132
      vertex 10.2229 15.4189 2.59808
      vertex 13.0952 13.0678 2.59808
    endloop
  endfacet
  facet normal 0.50344 0.615043 -0.606852
    outer loop
      vertex 12.3179 12.2922 1.5
      vertex 9.61615 14.5037 1.5
      vertex 9.8796 14.9011 2.12132
    endloop
  endfacet
  facet normal 0.503434 0.61504 -0.60686
    outer loop
      vertex 12.3179 12.2922 1.5
      vertex 9.8796 14.9011 2.12132
      vertex 12.6554 12.629 2.12132
    endloop
  endfacet
  facet normal 0.585625 0.715436 -0.381043
    outer loop
      vertex 12.1057 12.0805 0.776457
      vertex 9.45054 14.2539 0.776457
      vertex 9.61615 14.5037 1.5
    endloop
  endfacet
  facet normal 0.585612 0.715431 -0.381074
    outer loop
      vertex 12.1057 12.0805 0.776457
      vertex 9.61615 14.5037 1.5
      vertex 12.3179 12.2922 1.5
    endloop
  endfacet
  facet normal 0.628036 0.767269 -0.129884
    outer loop
      vertex 12.0334 12.0083 0
      vertex 9.39405 14.1687 0
      vertex 9.45054 14.2539 0.776457
    endloop
  endfacet
  facet normal 0.628051 0.767266 -0.129826
    outer loop
      vertex 12.0334 12.0083 0
      vertex 9.45054 14.2539 0.776457
      vertex 12.1057 12.0805 0.776457
    endloop
  endfacet
  facet normal -0.768574 -0.626432 -0.129915
    outer loop
      vertex 19.1106 12.6132 0.776457
      vertex 16.2081 16.1743 0.776457
      vertex 16.2805 16.2465 0
    endloop
  endfacet
  facet normal -0.768566 -0.626434 -0.129954
    outer loop
      vertex 19.1106 12.6132 0.776457
      vertex 16.2805 16.2465 0
      vertex 19.196 12.6695 0
    endloop
  endfacet
  facet normal -0.71668 -0.584132 -0.380998
    outer loop
      vertex 18.8605 12.4481 1.5
      vertex 15.996 15.9626 1.5
      vertex 16.2081 16.1743 0.776457
    endloop
  endfacet
  facet normal -0.716673 -0.58413 -0.381014
    outer loop
      vertex 18.8605 12.4481 1.5
      vertex 16.2081 16.1743 0.776457
      vertex 19.1106 12.6132 0.776457
    endloop
  endfacet
  facet normal -0.616085 -0.502155 -0.60686
    outer loop
      vertex 18.4626 12.1855 2.12132
      vertex 15.6585 15.6258 2.12132
      vertex 15.996 15.9626 1.5
    endloop
  endfacet
  facet normal -0.616121 -0.50217 -0.606812
    outer loop
      vertex 18.4626 12.1855 2.12132
      vertex 15.996 15.9626 1.5
      vertex 18.8605 12.4481 1.5
    endloop
  endfacet
  facet normal -0.473399 -0.38586 -0.791837
    outer loop
      vertex 17.9441 11.8433 2.59808
      vertex 15.2187 15.187 2.59808
      vertex 15.6585 15.6258 2.12132
    endloop
  endfacet
  facet normal -0.473415 -0.385868 -0.791823
    outer loop
      vertex 17.9441 11.8433 2.59808
      vertex 15.6585 15.6258 2.12132
      vertex 18.4626 12.1855 2.12132
    endloop
  endfacet
  facet normal -0.297897 -0.242811 -0.923201
    outer loop
      vertex 17.3402 11.4447 2.89778
      vertex 14.7065 14.6759 2.89778
      vertex 15.2187 15.187 2.59808
    endloop
  endfacet
  facet normal -0.297896 -0.24281 -0.923202
    outer loop
      vertex 17.3402 11.4447 2.89778
      vertex 15.2187 15.187 2.59808
      vertex 17.9441 11.8433 2.59808
    endloop
  endfacet
  facet normal -0.101676 -0.082873 -0.99136
    outer loop
      vertex 16.6921 11.017 3
      vertex 14.1569 14.1274 3
      vertex 14.7065 14.6759 2.89778
    endloop
  endfacet
  facet normal -0.101671 -0.0828706 -0.99136
    outer loop
      vertex 16.6921 11.017 3
      vertex 14.7065 14.6759 2.89778
      vertex 17.3402 11.4447 2.89778
    endloop
  endfacet
  facet normal 0.101675 0.0828741 -0.99136
    outer loop
      vertex 16.0441 10.5893 2.89778
      vertex 13.6073 13.5789 2.89778
      vertex 14.1569 14.1274 3
    endloop
  endfacet
  facet normal 0.101682 0.082878 -0.991359
    outer loop
      vertex 16.0441 10.5893 2.89778
      vertex 14.1569 14.1274 3
      vertex 16.6921 11.017 3
    endloop
  endfacet
  facet normal 0.297929 0.242829 -0.923186
    outer loop
      vertex 15.4402 10.1907 2.59808
      vertex 13.0952 13.0678 2.59808
      vertex 13.6073 13.5789 2.89778
    endloop
  endfacet
  facet normal 0.297895 0.242812 -0.923202
    outer loop
      vertex 15.4402 10.1907 2.59808
      vertex 13.6073 13.5789 2.89778
      vertex 16.0441 10.5893 2.89778
    endloop
  endfacet
  facet normal 0.473405 0.385854 -0.791836
    outer loop
      vertex 14.9217 9.84847 2.12132
      vertex 12.6554 12.629 2.12132
      vertex 13.0952 13.0678 2.59808
    endloop
  endfacet
  facet normal 0.473409 0.385856 -0.791833
    outer loop
      vertex 14.9217 9.84847 2.12132
      vertex 13.0952 13.0678 2.59808
      vertex 15.4402 10.1907 2.59808
    endloop
  endfacet
  facet normal 0.616082 0.502158 -0.606861
    outer loop
      vertex 14.5238 9.58585 1.5
      vertex 12.3179 12.2922 1.5
      vertex 12.6554 12.629 2.12132
    endloop
  endfacet
  facet normal 0.616112 0.502169 -0.606822
    outer loop
      vertex 14.5238 9.58585 1.5
      vertex 12.6554 12.629 2.12132
      vertex 14.9217 9.84847 2.12132
    endloop
  endfacet
  facet normal 0.716643 0.584121 -0.381083
    outer loop
      vertex 14.2736 9.42076 0.776457
      vertex 12.1057 12.0805 0.776457
      vertex 12.3179 12.2922 1.5
    endloop
  endfacet
  facet normal 0.71664 0.584121 -0.381091
    outer loop
      vertex 14.2736 9.42076 0.776457
      vertex 12.3179 12.2922 1.5
      vertex 14.5238 9.58585 1.5
    endloop
  endfacet
  facet normal 0.768582 0.626442 -0.129817
    outer loop
      vertex 14.1883 9.36445 0
      vertex 12.0334 12.0083 0
      vertex 12.1057 12.0805 0.776457
    endloop
  endfacet
  facet normal 0.76857 0.626446 -0.129865
    outer loop
      vertex 14.1883 9.36445 0
      vertex 12.1057 12.0805 0.776457
      vertex 14.2736 9.42076 0.776457
    endloop
  endfacet
  facet normal -0.878134 -0.460422 -0.129968
    outer loop
      vertex 21.0659 8.90303 0.708958
      vertex 19.1106 12.6132 0.776457
      vertex 19.196 12.6695 0
    endloop
  endfacet
  facet normal -0.878108 -0.460404 -0.130208
    outer loop
      vertex 19.1106 12.6132 0.776457
      vertex 21.0659 8.90303 0.708958
      vertex 21.0577 8.89958 0.776457
    endloop
  endfacet
  facet normal -0.87816 -0.46041 -0.129838
    outer loop
      vertex 21.0659 8.90303 0.708958
      vertex 19.196 12.6695 0
      vertex 21.1517 8.93931 0
    endloop
  endfacet
  facet normal -0.818853 -0.429318 -0.381008
    outer loop
      vertex 20.8058 8.79314 1.4376
      vertex 18.8605 12.4481 1.5
      vertex 19.1106 12.6132 0.776457
    endloop
  endfacet
  facet normal -0.819135 -0.429481 -0.380216
    outer loop
      vertex 18.8605 12.4481 1.5
      vertex 20.8058 8.79314 1.4376
      vertex 20.7821 8.7831 1.5
    endloop
  endfacet
  facet normal -0.818815 -0.429315 -0.381091
    outer loop
      vertex 20.8058 8.79314 1.4376
      vertex 19.1106 12.6132 0.776457
      vertex 21.0577 8.89958 0.776457
    endloop
  endfacet
  facet normal -0.703953 -0.369089 -0.606814
    outer loop
      vertex 20.3812 8.61366 2.06813
      vertex 18.4626 12.1855 2.12132
      vertex 18.8605 12.4481 1.5
    endloop
  endfacet
  facet normal -0.703589 -0.368886 -0.60736
    outer loop
      vertex 18.4626 12.1855 2.12132
      vertex 20.3812 8.61366 2.06813
      vertex 20.3436 8.5978 2.12132
    endloop
  endfacet
  facet normal -0.703906 -0.369065 -0.606883
    outer loop
      vertex 20.5377 8.67982 1.84628
      vertex 18.8605 12.4481 1.5
      vertex 20.7821 8.7831 1.5
    endloop
  endfacet
  facet normal -0.704028 -0.369105 -0.606718
    outer loop
      vertex 18.8605 12.4481 1.5
      vertex 20.5377 8.67982 1.84628
      vertex 20.3812 8.61366 2.06813
    endloop
  endfacet
  facet normal -0.540866 -0.283556 -0.791871
    outer loop
      vertex 17.9441 11.8433 2.59808
      vertex 19.8208 8.37685 2.55753
      vertex 19.7722 8.35631 2.59808
    endloop
  endfacet
  facet normal -0.54092 -0.283586 -0.791824
    outer loop
      vertex 19.8208 8.37685 2.55753
      vertex 17.9441 11.8433 2.59808
      vertex 18.4626 12.1855 2.12132
    endloop
  endfacet
  facet normal -0.540866 -0.283571 -0.791866
    outer loop
      vertex 19.8208 8.37685 2.55753
      vertex 18.4626 12.1855 2.12132
      vertex 20.3436 8.5978 2.12132
    endloop
  endfacet
  facet normal -0.340424 -0.178476 -0.923178
    outer loop
      vertex 17.3402 11.4447 2.89778
      vertex 19.1631 8.09889 2.87242
      vertex 19.1068 8.0751 2.89778
    endloop
  endfacet
  facet normal -0.340376 -0.17845 -0.923201
    outer loop
      vertex 19.1631 8.09889 2.87242
      vertex 17.3402 11.4447 2.89778
      vertex 17.9441 11.8433 2.59808
    endloop
  endfacet
  facet normal -0.34039 -0.178454 -0.923195
    outer loop
      vertex 19.1631 8.09889 2.87242
      vertex 17.9441 11.8433 2.59808
      vertex 19.7722 8.35631 2.59808
    endloop
  endfacet
  facet normal -0.116204 -0.0609271 -0.991355
    outer loop
      vertex 16.6921 11.017 3
      vertex 18.453 7.79875 2.99138
      vertex 18.3928 7.77331 3
    endloop
  endfacet
  facet normal -0.116166 -0.0609062 -0.991361
    outer loop
      vertex 18.453 7.79875 2.99138
      vertex 16.6921 11.017 3
      vertex 17.3402 11.4447 2.89778
    endloop
  endfacet
  facet normal -0.11618 -0.0609104 -0.991359
    outer loop
      vertex 18.453 7.79875 2.99138
      vertex 17.3402 11.4447 2.89778
      vertex 19.1068 8.0751 2.89778
    endloop
  endfacet
  facet normal 0.11612 0.0608799 -0.991368
    outer loop
      vertex 16.0441 10.5893 2.89778
      vertex 17.7388 7.49694 2.90638
      vertex 17.6787 7.47153 2.89778
    endloop
  endfacet
  facet normal 0.11618 0.0609126 -0.991359
    outer loop
      vertex 17.7388 7.49694 2.90638
      vertex 16.0441 10.5893 2.89778
      vertex 16.6921 11.017 3
    endloop
  endfacet
  facet normal 0.116173 0.0609107 -0.99136
    outer loop
      vertex 17.7388 7.49694 2.90638
      vertex 16.6921 11.017 3
      vertex 18.3928 7.77331 3
    endloop
  endfacet
  facet normal 0.340204 0.178369 -0.92328
    outer loop
      vertex 15.4402 10.1907 2.59808
      vertex 17.0694 7.21402 2.62333
      vertex 17.0133 7.19032 2.59808
    endloop
  endfacet
  facet normal 0.34037 0.17846 -0.923201
    outer loop
      vertex 17.0694 7.21402 2.62333
      vertex 15.4402 10.1907 2.59808
      vertex 16.0441 10.5893 2.89778
    endloop
  endfacet
  facet normal 0.340407 0.178471 -0.923185
    outer loop
      vertex 17.0694 7.21402 2.62333
      vertex 16.0441 10.5893 2.89778
      vertex 17.6787 7.47153 2.89778
    endloop
  endfacet
  facet normal 0.540495 0.283366 -0.792192
    outer loop
      vertex 14.9217 9.84847 2.12132
      vertex 16.4903 6.96926 2.16165
      vertex 16.4419 6.94883 2.12132
    endloop
  endfacet
  facet normal 0.540904 0.283594 -0.791831
    outer loop
      vertex 16.4903 6.96926 2.16165
      vertex 14.9217 9.84847 2.12132
      vertex 15.4402 10.1907 2.59808
    endloop
  endfacet
  facet normal 0.540898 0.283593 -0.791836
    outer loop
      vertex 16.4903 6.96926 2.16165
      vertex 15.4402 10.1907 2.59808
      vertex 17.0133 7.19032 2.59808
    endloop
  endfacet
  facet normal 0.703959 0.369066 -0.60682
    outer loop
      vertex 16.0408 6.77931 1.55291
      vertex 14.5238 9.58585 1.5
      vertex 14.9217 9.84847 2.12132
    endloop
  endfacet
  facet normal 0.70416 0.369181 -0.606518
    outer loop
      vertex 14.5238 9.58585 1.5
      vertex 16.0408 6.77931 1.55291
      vertex 16.0035 6.76353 1.5
    endloop
  endfacet
  facet normal 0.70396 0.369066 -0.60682
    outer loop
      vertex 16.0408 6.77931 1.55291
      vertex 14.9217 9.84847 2.12132
      vertex 16.4419 6.94883 2.12132
    endloop
  endfacet
  facet normal 0.818809 0.429319 -0.3811
    outer loop
      vertex 15.7516 6.65706 0.838618
      vertex 14.2736 9.42076 0.776457
      vertex 14.5238 9.58585 1.5
    endloop
  endfacet
  facet normal 0.818644 0.429221 -0.381565
    outer loop
      vertex 15.7304 6.64812 0.783077
      vertex 14.2736 9.42076 0.776457
      vertex 15.7516 6.65706 0.838618
    endloop
  endfacet
  facet normal 0.819586 0.429722 -0.378968
    outer loop
      vertex 14.2736 9.42076 0.776457
      vertex 15.7304 6.64812 0.783077
      vertex 15.7279 6.64705 0.776457
    endloop
  endfacet
  facet normal 0.818823 0.429297 -0.381094
    outer loop
      vertex 15.8819 6.71215 1.18085
      vertex 14.5238 9.58585 1.5
      vertex 16.0035 6.76353 1.5
    endloop
  endfacet
  facet normal 0.818907 0.429314 -0.380895
    outer loop
      vertex 14.5238 9.58585 1.5
      vertex 15.8819 6.71215 1.18085
      vertex 15.7516 6.65706 0.838618
    endloop
  endfacet
  facet normal 0.878156 0.46041 -0.129862
    outer loop
      vertex 15.642 6.61077 0.067404
      vertex 14.1883 9.36445 0
      vertex 14.2736 9.42076 0.776457
    endloop
  endfacet
  facet normal 0.878236 0.460471 -0.129107
    outer loop
      vertex 14.1883 9.36445 0
      vertex 15.642 6.61077 0.067404
      vertex 15.6339 6.60732 0
    endloop
  endfacet
  facet normal 0.878126 0.460415 -0.130049
    outer loop
      vertex 15.696 6.63359 0.513406
      vertex 14.2736 9.42076 0.776457
      vertex 15.7279 6.64705 0.776457
    endloop
  endfacet
  facet normal 0.878152 0.460413 -0.12988
    outer loop
      vertex 14.2736 9.42076 0.776457
      vertex 15.696 6.63359 0.513406
      vertex 15.642 6.61077 0.067404
    endloop
  endfacet
  facet normal 0 0 -1
    outer loop
      vertex 19.196 12.6695 0
      vertex 22.1068 9.34297 0
      vertex 21.8557 9.23685 0
    endloop
  endfacet
  facet normal 0 0 -1
    outer loop
      vertex 19.196 12.6695 0
      vertex 21.8557 9.23685 0
      vertex 21.1517 8.93931 0
    endloop
  endfacet
  facet normal 0 0 -1
    outer loop
      vertex 22.1068 9.34297 0
      vertex 19.196 12.6695 0
      vertex 19.3353 14.2179 0
    endloop
  endfacet
  facet normal 0 0 -1
    outer loop
      vertex 16.2805 16.2465 0
      vertex 19.3353 14.2179 0
      vertex 19.196 12.6695 0
    endloop
  endfacet
  facet normal 0 0 -1
    outer loop
      vertex 16.2805 16.2465 0
      vertex 15.5082 18.3166 0
      vertex 19.3353 14.2179 0
    endloop
  endfacet
  facet normal 0 0 -1
    outer loop
      vertex 12.7096 19.1695 0
      vertex 15.5082 18.3166 0
      vertex 16.2805 16.2465 0
    endloop
  endfacet
  facet normal 0 0 -1
    outer loop
      vertex 12.7096 19.1695 0
      vertex 10.8345 21.4153 0
      vertex 15.5082 18.3166 0
    endloop
  endfacet
  facet normal 0 0 -1
    outer loop
      vertex 8.6271 21.3208 0
      vertex 10.8345 21.4153 0
      vertex 12.7096 19.1695 0
    endloop
  endfacet
  facet normal 0 0 -1
    outer loop
      vertex 8.6271 21.3208 0
      vertex 5.56927 23.3449 0
      vertex 10.8345 21.4153 0
    endloop
  endfacet
  facet normal 0 0 -1
    outer loop
      vertex 4.19733 22.6138 0
      vertex 5.56927 23.3449 0
      vertex 8.6271 21.3208 0
    endloop
  endfacet
  facet normal 0 0 -1
    outer loop
      vertex 4.19733 22.6138 0
      vertex 5.32908e-15 24 0
      vertex 5.56927 23.3449 0
    endloop
  endfacet
  facet normal 0 -0 -1
    outer loop
      vertex 5.32908e-15 24 0
      vertex 4.19733 22.6138 0
      vertex 5.09884e-15 22.9631 0
    endloop
  endfacet
  facet normal 0 0 -1
    outer loop
      vertex 14.1883 9.36445 0
      vertex 15.2584 6.44865 0
      vertex 15.119 6.3897 0
    endloop
  endfacet
  facet normal 0 0 -1
    outer loop
      vertex 14.1883 9.36445 0
      vertex 15.119 6.3897 0
      vertex 14.7379 6.22865 0
    endloop
  endfacet
  facet normal 0 0 -1
    outer loop
      vertex 15.2584 6.44865 0
      vertex 14.1883 9.36445 0
      vertex 15.6339 6.60732 0
    endloop
  endfacet
  facet normal 0 0 -1
    outer loop
      vertex 12.8902 9.47859 0
      vertex 14.1883 9.36445 0
      vertex 14.7379 6.22865 0
    endloop
  endfacet
  facet normal 0 0 -1
    outer loop
      vertex 12.8902 9.47859 0
      vertex 12.0334 12.0083 0
      vertex 14.1883 9.36445 0
    endloop
  endfacet
  facet normal 0 0 -1
    outer loop
      vertex 10.3388 12.2111 0
      vertex 12.0334 12.0083 0
      vertex 12.8902 9.47859 0
    endloop
  endfacet
  facet normal 0 0 -1
    outer loop
      vertex 10.3388 12.2111 0
      vertex 9.39405 14.1687 0
      vertex 12.0334 12.0083 0
    endloop
  endfacet
  facet normal 0 0 -1
    outer loop
      vertex 7.223 14.2769 0
      vertex 9.39405 14.1687 0
      vertex 10.3388 12.2111 0
    endloop
  endfacet
  facet normal 0 0 -1
    outer loop
      vertex 7.223 14.2769 0
      vertex 6.37655 15.7588 0
      vertex 9.39405 14.1687 0
    endloop
  endfacet
  facet normal 0 0 -1
    outer loop
      vertex 3.71285 15.5633 0
      vertex 6.37655 15.7588 0
      vertex 7.223 14.2769 0
    endloop
  endfacet
  facet normal 0 0 -1
    outer loop
      vertex 3.71285 15.5633 0
      vertex 3.10237 16.7146 0
      vertex 6.37655 15.7588 0
    endloop
  endfacet
  facet normal 0 0 -1
    outer loop
      vertex 3.55272e-15 16 0
      vertex 3.10237 16.7146 0
      vertex 3.71285 15.5633 0
    endloop
  endfacet
  facet normal -0 0 -1
    outer loop
      vertex 3.10237 16.7146 0
      vertex 3.55272e-15 16 0
      vertex 3.76871e-15 16.9728 0
    endloop
  endfacet
endsolid OpenSCAD_Model
