solid OpenSCAD_Model
  facet normal -1 -2.2205e-16 6.54822e-21
    outer loop
      vertex 1.55369e-15 -6.99718 0.065653
      vertex 1.36254e-15 -6.13631 1.03528
      vertex 1.33227e-15 -6.00002 0
    endloop
  endfacet
  facet normal -1 -2.22047e-16 5.68968e-20
    outer loop
      vertex 1.55369e-15 -6.99718 0.065653
      vertex 1.33227e-15 -6.00002 0
      vertex 1.55177e-15 -6.98855 0
    endloop
  endfacet
  facet normal -1 -2.22038e-16 -3.97043e-21
    outer loop
      vertex 1.36254e-15 -6.13631 1.03528
      vertex 1.55369e-15 -6.99718 0.065653
      vertex 1.57443e-15 -7.0906 0.776457
    endloop
  endfacet
  facet normal -1 -2.22031e-16 -3.24348e-20
    outer loop
      vertex 1.57991e-15 -7.11529 0.83615
      vertex 1.36254e-15 -6.13631 1.03528
      vertex 1.57443e-15 -7.0906 0.776457
    endloop
  endfacet
  facet normal -1 -2.22036e-16 -5.80695e-21
    outer loop
      vertex 1.36254e-15 -6.13631 1.03528
      vertex 1.57991e-15 -7.11529 0.83615
      vertex 1.45126e-15 -6.53591 2
    endloop
  endfacet
  facet normal -1 -2.22053e-16 2.85008e-21
    outer loop
      vertex 1.64087e-15 -7.38981 1.5
      vertex 1.45126e-15 -6.53591 2
      vertex 1.57991e-15 -7.11529 0.83615
    endloop
  endfacet
  facet normal -1 -2.22024e-16 -4.7146e-20
    outer loop
      vertex 1.64942e-15 -7.42833 1.55028
      vertex 1.45126e-15 -6.53591 2
      vertex 1.64087e-15 -7.38981 1.5
    endloop
  endfacet
  facet normal -1 -2.22047e-16 -1.2347e-21
    outer loop
      vertex 1.45126e-15 -6.53591 2
      vertex 1.64942e-15 -7.42833 1.55028
      vertex 1.59241e-15 -7.17159 2.82843
    endloop
  endfacet
  facet normal -1 -2.22054e-16 1.82785e-22
    outer loop
      vertex 1.74656e-15 -7.86579 2.12132
      vertex 1.59241e-15 -7.17159 2.82843
      vertex 1.64942e-15 -7.42833 1.55028
    endloop
  endfacet
  facet normal -1 -2.21971e-16 -8.15522e-20
    outer loop
      vertex 1.75756e-15 -7.91536 2.15942
      vertex 1.59241e-15 -7.17159 2.82843
      vertex 1.74656e-15 -7.86579 2.12132
    endloop
  endfacet
  facet normal -1 -2.22046e-16 1.2434e-21
    outer loop
      vertex 1.75756e-15 -7.91536 2.15942
      vertex 1.77636e-15 -8.00002 3.4641
      vertex 1.59241e-15 -7.17159 2.82843
    endloop
  endfacet
  facet normal -1 -2.22048e-16 1.07734e-21
    outer loop
      vertex 1.88429e-15 -8.48609 2.59808
      vertex 1.77636e-15 -8.00002 3.4641
      vertex 1.75756e-15 -7.91536 2.15942
    endloop
  endfacet
  facet normal -1 -2.22016e-16 -1.67564e-20
    outer loop
      vertex 1.89704e-15 -8.54352 2.6219
      vertex 1.77636e-15 -8.00002 3.4641
      vertex 1.88429e-15 -8.48609 2.59808
    endloop
  endfacet
  facet normal -1 -2.22043e-16 7.04498e-22
    outer loop
      vertex 1.89704e-15 -8.54352 2.6219
      vertex 1.99057e-15 -8.96474 3.8637
      vertex 1.77636e-15 -8.00002 3.4641
    endloop
  endfacet
  facet normal -1 -2.22055e-16 -3.14318e-21
    outer loop
      vertex 2.04469e-15 -9.20845 2.89778
      vertex 1.99057e-15 -8.96474 3.8637
      vertex 1.89704e-15 -8.54352 2.6219
    endloop
  endfacet
  facet normal -1 -2.21991e-16 -1.93421e-20
    outer loop
      vertex 2.05838e-15 -9.27012 2.90591
      vertex 1.99057e-15 -8.96474 3.8637
      vertex 2.04469e-15 -9.20845 2.89778
    endloop
  endfacet
  facet normal -1 -2.22042e-16 5.16497e-21
    outer loop
      vertex 2.22045e-15 -10 4
      vertex 2.05838e-15 -9.27012 2.90591
      vertex 2.21681e-15 -9.98363 3
    endloop
  endfacet
  facet normal -1 -2.22051e-16 -2.18935e-22
    outer loop
      vertex 2.05838e-15 -9.27012 2.90591
      vertex 2.22045e-15 -10 4
      vertex 1.99057e-15 -8.96474 3.8637
    endloop
  endfacet
  facet normal -1 -2.21847e-16 8.358e-21
    outer loop
      vertex 2.23058e-15 -10.0457 2.99182
      vertex 2.22045e-15 -10 4
      vertex 2.21681e-15 -9.98363 3
    endloop
  endfacet
  facet normal -1 -2.22071e-16 -1.3054e-20
    outer loop
      vertex 2.45033e-15 -11.0353 3.8637
      vertex 2.23058e-15 -10.0457 2.99182
      vertex 2.38894e-15 -10.7588 2.89778
    endloop
  endfacet
  facet normal -1 -2.22116e-16 -2.59982e-20
    outer loop
      vertex 2.45033e-15 -11.0353 3.8637
      vertex 2.38894e-15 -10.7588 2.89778
      vertex 2.40189e-15 -10.8171 2.87358
    endloop
  endfacet
  facet normal -1 -2.22044e-16 1.72784e-20
    outer loop
      vertex 2.23058e-15 -10.0457 2.99182
      vertex 2.45033e-15 -11.0353 3.8637
      vertex 2.22045e-15 -10 4
    endloop
  endfacet
  facet normal -1 -2.22026e-16 2.65844e-20
    outer loop
      vertex 2.66454e-15 -12 3.4641
      vertex 2.40189e-15 -10.8171 2.87358
      vertex 2.54933e-15 -11.4812 2.59808
    endloop
  endfacet
  facet normal -1 -2.22249e-16 -1.07377e-19
    outer loop
      vertex 2.66454e-15 -12 3.4641
      vertex 2.54933e-15 -11.4812 2.59808
      vertex 2.56058e-15 -11.5318 2.55915
    endloop
  endfacet
  facet normal -1 -2.22044e-16 -1.01251e-20
    outer loop
      vertex 2.40189e-15 -10.8171 2.87358
      vertex 2.66454e-15 -12 3.4641
      vertex 2.45033e-15 -11.0353 3.8637
    endloop
  endfacet
  facet normal -1 -2.22046e-16 2.13466e-20
    outer loop
      vertex 2.84849e-15 -12.8284 2.82843
      vertex 2.56058e-15 -11.5318 2.55915
      vertex 2.68707e-15 -12.1015 2.12132
    endloop
  endfacet
  facet normal -1 -2.22205e-16 -1.42759e-19
    outer loop
      vertex 2.84849e-15 -12.8284 2.82843
      vertex 2.68707e-15 -12.1015 2.12132
      vertex 2.69581e-15 -12.1408 2.06993
    endloop
  endfacet
  facet normal -1 -2.22037e-16 2.38499e-20
    outer loop
      vertex 2.98963e-15 -13.4641 2
      vertex 2.69581e-15 -12.1408 2.06993
      vertex 2.79276e-15 -12.5775 1.5
    endloop
  endfacet
  facet normal -1 -2.22192e-16 -2.50562e-19
    outer loop
      vertex 2.98963e-15 -13.4641 2
      vertex 2.79276e-15 -12.5775 1.5
      vertex 2.79833e-15 -12.6025 1.43932
    endloop
  endfacet
  facet normal -1 -2.22051e-16 -4.70361e-21
    outer loop
      vertex 2.56058e-15 -11.5318 2.55915
      vertex 2.84849e-15 -12.8284 2.82843
      vertex 2.66454e-15 -12 3.4641
    endloop
  endfacet
  facet normal -1 -2.22047e-16 3.80494e-20
    outer loop
      vertex 3.07836e-15 -13.8637 1.03528
      vertex 2.79833e-15 -12.6025 1.43932
      vertex 2.85919e-15 -12.8767 0.776457
    endloop
  endfacet
  facet normal -1 -2.22135e-16 -2.97368e-19
    outer loop
      vertex 3.07836e-15 -13.8637 1.03528
      vertex 2.85919e-15 -12.8767 0.776457
      vertex 2.86112e-15 -12.8853 0.710406
    endloop
  endfacet
  facet normal -1 -2.2205e-16 1.33735e-20
    outer loop
      vertex 3.10863e-15 -14 0
      vertex 2.86112e-15 -12.8853 0.710406
      vertex 2.88185e-15 -12.9787 0
    endloop
  endfacet
  facet normal -1 -2.22036e-16 1.02795e-20
    outer loop
      vertex 2.69581e-15 -12.1408 2.06993
      vertex 2.98963e-15 -13.4641 2
      vertex 2.84849e-15 -12.8284 2.82843
    endloop
  endfacet
  facet normal -1 -2.22033e-16 -5.95877e-21
    outer loop
      vertex 2.79833e-15 -12.6025 1.43932
      vertex 3.07836e-15 -13.8637 1.03528
      vertex 2.98963e-15 -13.4641 2
    endloop
  endfacet
  facet normal -1 -2.22038e-16 -6.01212e-21
    outer loop
      vertex 2.86112e-15 -12.8853 0.710406
      vertex 3.10863e-15 -14 0
      vertex 3.07836e-15 -13.8637 1.03528
    endloop
  endfacet
  facet normal -0.0325174 0.999471 5.57469e-07
    outer loop
      vertex 7.99579 0.260134 3.4641
      vertex 8.96 0.291504 3.8637
      vertex 7.1678 0.233196 2.82843
    endloop
  endfacet
  facet normal -0.0325133 0.999471 1.01703e-05
    outer loop
      vertex 11.0295 0.358831 3.8637
      vertex 11.9937 0.390201 3.4641
      vertex 9.99473 0.325168 4
    endloop
  endfacet
  facet normal -0.032521 0.999471 -1.80677e-06
    outer loop
      vertex 13.457 0.437809 2
      vertex 13.8564 0.450803 1.03528
      vertex 12.8217 0.417139 2.82843
    endloop
  endfacet
  facet normal -0.0325158 0.999471 1.12384e-06
    outer loop
      vertex 11.9937 0.390201 3.4641
      vertex 12.8217 0.417139 2.82843
      vertex 9.99473 0.325168 4
    endloop
  endfacet
  facet normal -0.0325168 0.999471 -5.02837e-07
    outer loop
      vertex 8.96 0.291504 3.8637
      vertex 9.99473 0.325168 4
      vertex 7.1678 0.233196 2.82843
    endloop
  endfacet
  facet normal -0.0325143 0.999471 -1.34671e-07
    outer loop
      vertex 9.99473 0.325168 4
      vertex 10.6821 0.347529 2.90715
      vertex 9.97835 0.324635 3
    endloop
  endfacet
  facet normal -0.0325644 0.99947 -3.16874e-05
    outer loop
      vertex 9.99473 0.325168 4
      vertex 10.7531 0.349842 2.89778
      vertex 10.6821 0.347529 2.90715
    endloop
  endfacet
  facet normal -0.0325161 0.999471 3.76129e-07
    outer loop
      vertex 10.9202 0.355277 2.82843
      vertex 9.99473 0.325168 4
      vertex 12.8217 0.417139 2.82843
    endloop
  endfacet
  facet normal -0.0325042 0.999472 9.75599e-06
    outer loop
      vertex 9.99473 0.325168 4
      vertex 10.9202 0.355277 2.82843
      vertex 10.7531 0.349842 2.89778
    endloop
  endfacet
  facet normal -0.032523 0.999471 9.11216e-09
    outer loop
      vertex 9.9069 0.32231 2.99057
      vertex 9.99473 0.325168 4
      vertex 9.97835 0.324635 3
    endloop
  endfacet
  facet normal -0.032517 0.999471 -5.16254e-07
    outer loop
      vertex 9.20358 0.299428 2.89778
      vertex 9.99473 0.325168 4
      vertex 9.9069 0.32231 2.99057
    endloop
  endfacet
  facet normal -0.032515 0.999471 -1.94619e-06
    outer loop
      vertex 9.13694 0.29726 2.87011
      vertex 9.99473 0.325168 4
      vertex 9.20358 0.299428 2.89778
    endloop
  endfacet
  facet normal -0.0325155 0.999471 -1.56176e-06
    outer loop
      vertex 9.03652 0.293993 2.82843
      vertex 9.99473 0.325168 4
      vertex 9.13694 0.29726 2.87011
    endloop
  endfacet
  facet normal -0.0325168 0.999471 -4.80544e-07
    outer loop
      vertex 9.99473 0.325168 4
      vertex 9.03652 0.293993 2.82843
      vertex 7.1678 0.233196 2.82843
    endloop
  endfacet
  facet normal -0.0325161 0.999471 1.26082e-07
    outer loop
      vertex 6.41032 0.208553 0
      vertex 6.13307 0.199533 1.03528
      vertex 7.1678 0.233196 2.82843
    endloop
  endfacet
  facet normal -0.0325166 0.999471 0
    outer loop
      vertex 6.13307 0.199533 1.03528
      vertex 6.41032 0.208553 0
      vertex 6.13307 0.199533 0
    endloop
  endfacet
  facet normal -0.0325168 0.999471 3.41101e-06
    outer loop
      vertex 8.4816 0.27594 2.59808
      vertex 7.1678 0.233196 2.82843
      vertex 9.03652 0.293993 2.82843
    endloop
  endfacet
  facet normal -0.0325178 0.999471 -2.39319e-06
    outer loop
      vertex 8.42468 0.274088 2.5543
      vertex 7.1678 0.233196 2.82843
      vertex 8.4816 0.27594 2.59808
    endloop
  endfacet
  facet normal -0.0325175 0.999471 -7.78513e-07
    outer loop
      vertex 7.86163 0.255769 2.12132
      vertex 7.1678 0.233196 2.82843
      vertex 8.42468 0.274088 2.5543
    endloop
  endfacet
  facet normal -0.0325082 0.999471 8.34797e-06
    outer loop
      vertex 7.81848 0.254366 2.06496
      vertex 7.1678 0.233196 2.82843
      vertex 7.86163 0.255769 2.12132
    endloop
  endfacet
  facet normal -0.0325183 0.999471 -2.34048e-07
    outer loop
      vertex 7.38591 0.240292 1.5
      vertex 7.1678 0.233196 2.82843
      vertex 7.81848 0.254366 2.06496
    endloop
  endfacet
  facet normal -0.0324972 0.999472 3.22578e-06
    outer loop
      vertex 7.3593 0.239427 1.43562
      vertex 7.1678 0.233196 2.82843
      vertex 7.38591 0.240292 1.5
    endloop
  endfacet
  facet normal -0.0325181 0.999471 3.55655e-07
    outer loop
      vertex 7.08685 0.230563 0.776457
      vertex 7.1678 0.233196 2.82843
      vertex 7.3593 0.239427 1.43562
    endloop
  endfacet
  facet normal -0.0325149 0.999471 -1.34525e-06
    outer loop
      vertex 6.41032 0.208553 0
      vertex 7.08685 0.230563 0.776457
      vertex 7.078 0.230275 0.70904
    endloop
  endfacet
  facet normal -0.0325155 0.999471 -8.18931e-07
    outer loop
      vertex 6.41032 0.208553 0
      vertex 7.078 0.230275 0.70904
      vertex 6.98485 0.227244 0
    endloop
  endfacet
  facet normal -0.0325168 0.999471 3.06176e-07
    outer loop
      vertex 7.08685 0.230563 0.776457
      vertex 6.41032 0.208553 0
      vertex 7.1678 0.233196 2.82843
    endloop
  endfacet
  facet normal -0.0325161 0.999471 -2.58684e-06
    outer loop
      vertex 12.8217 0.417139 2.82843
      vertex 11.4095 0.371195 2.62532
      vertex 10.9202 0.355277 2.82843
    endloop
  endfacet
  facet normal -0.0325195 0.999471 2.1625e-05
    outer loop
      vertex 12.8217 0.417139 2.82843
      vertex 11.4751 0.37333 2.59808
      vertex 11.4095 0.371195 2.62532
    endloop
  endfacet
  facet normal -0.0325154 0.999471 -2.44918e-06
    outer loop
      vertex 11.4751 0.37333 2.59808
      vertex 12.8217 0.417139 2.82843
      vertex 11.8817 0.386557 2.28543
    endloop
  endfacet
  facet normal -0.032516 0.999471 0
    outer loop
      vertex 6.13307 0.199533 1.03528
      vertex 6.13307 0.199533 0
      vertex 5.99684 0.195101 0
    endloop
  endfacet
  facet normal -0.0325185 0.999471 1.48359e-06
    outer loop
      vertex 6.53246 0.212526 2
      vertex 7.1678 0.233196 2.82843
      vertex 6.13307 0.199533 1.03528
    endloop
  endfacet
  facet normal -0.032524 0.999471 1.24052e-05
    outer loop
      vertex 12.8217 0.417139 2.82843
      vertex 12.0393 0.391687 2.16418
      vertex 11.8817 0.386557 2.28543
    endloop
  endfacet
  facet normal -0.0325021 0.999472 -1.34209e-05
    outer loop
      vertex 12.8217 0.417139 2.82843
      vertex 12.0951 0.393501 2.12132
      vertex 12.0393 0.391687 2.16418
    endloop
  endfacet
  facet normal -0.0325154 0.999471 2.32218e-07
    outer loop
      vertex 12.8217 0.417139 2.82843
      vertex 12.5286 0.407604 1.55515
      vertex 12.0951 0.393501 2.12132
    endloop
  endfacet
  facet normal -0.0325356 0.999471 4.89605e-06
    outer loop
      vertex 12.8217 0.417139 2.82843
      vertex 12.5708 0.408978 1.5
      vertex 12.5286 0.407604 1.55515
    endloop
  endfacet
  facet normal -0.0325158 0.999471 1.15641e-06
    outer loop
      vertex 13.8564 0.450803 1.03528
      vertex 12.5708 0.408978 1.5
      vertex 12.8217 0.417139 2.82843
    endloop
  endfacet
  facet normal -0.0325171 0.999471 -2.45225e-06
    outer loop
      vertex 13.8564 0.450803 1.03528
      vertex 12.8437 0.417855 0.839798
      vertex 12.5708 0.408978 1.5
    endloop
  endfacet
  facet normal -0.0325164 0.999471 -6.01988e-06
    outer loop
      vertex 13.8564 0.450803 1.03528
      vertex 12.8699 0.418707 0.776457
      vertex 12.8437 0.417855 0.839798
    endloop
  endfacet
  facet normal -0.0325285 0.999471 3.98437e-05
    outer loop
      vertex 12.8699 0.418707 0.776457
      vertex 13.8564 0.450803 1.03528
      vertex 12.8706 0.41873 0.770988
    endloop
  endfacet
  facet normal -0.0325179 0.999471 5.4264e-07
    outer loop
      vertex 13.4278 0.436859 0
      vertex 12.8706 0.41873 0.770988
      vertex 13.8564 0.450803 1.03528
    endloop
  endfacet
  facet normal -0.0325201 0.999471 -9.89383e-07
    outer loop
      vertex 12.8706 0.41873 0.770988
      vertex 13.4278 0.436859 0
      vertex 12.9631 0.421739 0.0670116
    endloop
  endfacet
  facet normal -0.0325206 0.999471 -4.96618e-06
    outer loop
      vertex 12.9631 0.421739 0.0670116
      vertex 13.4278 0.436859 0
      vertex 12.9719 0.422025 0
    endloop
  endfacet
  facet normal -0.0325136 0.999471 -1.26256e-06
    outer loop
      vertex 13.8564 0.450803 1.03528
      vertex 13.7202 0.446371 0
      vertex 13.4278 0.436859 0
    endloop
  endfacet
  facet normal -0.0325232 0.999471 2.76661e-17
    outer loop
      vertex 13.8564 0.450803 1.03528
      vertex 13.9926 0.455235 0
      vertex 13.7202 0.446371 0
    endloop
  endfacet
  facet normal -0.0991895 0.986557 0.129876
    outer loop
      vertex 1.36254e-15 -6.13631 1.03528
      vertex 1.22159 -6.01349 1.03528
      vertex 1.33227e-15 -6.00002 0
    endloop
  endfacet
  facet normal -0.0991957 0.986555 0.129883
    outer loop
      vertex 1.22159 -6.01349 1.03528
      vertex 1.19446 -5.87992 0
      vertex 1.33227e-15 -6.00002 0
    endloop
  endfacet
  facet normal -0.0924911 0.919919 0.381043
    outer loop
      vertex 1.45126e-15 -6.53591 2
      vertex 1.30114 -6.40509 2
      vertex 1.36254e-15 -6.13631 1.03528
    endloop
  endfacet
  facet normal -0.0924898 0.91992 0.381041
    outer loop
      vertex 1.30114 -6.40509 2
      vertex 1.22159 -6.01349 1.03528
      vertex 1.36254e-15 -6.13631 1.03528
    endloop
  endfacet
  facet normal -0.0795166 0.79084 0.606836
    outer loop
      vertex 1.59241e-15 -7.17159 2.82843
      vertex 1.42769 -7.02804 2.82843
      vertex 1.45126e-15 -6.53591 2
    endloop
  endfacet
  facet normal -0.0795134 0.790843 0.606832
    outer loop
      vertex 1.42769 -7.02804 2.82843
      vertex 1.30114 -6.40509 2
      vertex 1.45126e-15 -6.53591 2
    endloop
  endfacet
  facet normal -0.0610936 0.60762 0.791874
    outer loop
      vertex 1.77636e-15 -8.00002 3.4641
      vertex 1.59261 -7.83989 3.4641
      vertex 1.59241e-15 -7.17159 2.82843
    endloop
  endfacet
  facet normal -0.0610943 0.607619 0.791875
    outer loop
      vertex 1.59261 -7.83989 3.4641
      vertex 1.42769 -7.02804 2.82843
      vertex 1.59241e-15 -7.17159 2.82843
    endloop
  endfacet
  facet normal -0.0384487 0.3824 0.923196
    outer loop
      vertex 1.99057e-15 -8.96474 3.8637
      vertex 1.78466 -8.7853 3.8637
      vertex 1.77636e-15 -8.00002 3.4641
    endloop
  endfacet
  facet normal -0.0384487 0.3824 0.923196
    outer loop
      vertex 1.78466 -8.7853 3.8637
      vertex 1.59261 -7.83989 3.4641
      vertex 1.77636e-15 -8.00002 3.4641
    endloop
  endfacet
  facet normal -0.0131218 0.13052 0.991359
    outer loop
      vertex 2.22045e-15 -10 4
      vertex 1.99076 -9.79986 4
      vertex 1.99057e-15 -8.96474 3.8637
    endloop
  endfacet
  facet normal -0.013123 0.130517 0.991359
    outer loop
      vertex 1.99076 -9.79986 4
      vertex 1.78466 -8.7853 3.8637
      vertex 1.99057e-15 -8.96474 3.8637
    endloop
  endfacet
  facet normal 0.0131236 -0.130515 0.991359
    outer loop
      vertex 2.45033e-15 -11.0353 3.8637
      vertex 2.19686 -10.8144 3.8637
      vertex 2.22045e-15 -10 4
    endloop
  endfacet
  facet normal 0.0131218 -0.13052 0.991359
    outer loop
      vertex 2.19686 -10.8144 3.8637
      vertex 1.99076 -9.79986 4
      vertex 2.22045e-15 -10 4
    endloop
  endfacet
  facet normal 0.0384503 -0.382407 0.923194
    outer loop
      vertex 2.66454e-15 -12 3.4641
      vertex 2.38891 -11.7598 3.4641
      vertex 2.45033e-15 -11.0353 3.8637
    endloop
  endfacet
  facet normal 0.0384517 -0.382403 0.923195
    outer loop
      vertex 2.38891 -11.7598 3.4641
      vertex 2.19686 -10.8144 3.8637
      vertex 2.45033e-15 -11.0353 3.8637
    endloop
  endfacet
  facet normal 0.0610768 -0.607635 0.791865
    outer loop
      vertex 2.84849e-15 -12.8284 2.82843
      vertex 2.55383 -12.5717 2.82843
      vertex 2.66454e-15 -12 3.4641
    endloop
  endfacet
  facet normal 0.0610925 -0.607596 0.791893
    outer loop
      vertex 2.55383 -12.5717 2.82843
      vertex 2.38891 -11.7598 3.4641
      vertex 2.66454e-15 -12 3.4641
    endloop
  endfacet
  facet normal 0.0795144 -0.790831 0.606848
    outer loop
      vertex 2.98963e-15 -13.4641 2
      vertex 2.68038 -13.1946 2
      vertex 2.84849e-15 -12.8284 2.82843
    endloop
  endfacet
  facet normal 0.0794947 -0.790869 0.606801
    outer loop
      vertex 2.68038 -13.1946 2
      vertex 2.55383 -12.5717 2.82843
      vertex 2.84849e-15 -12.8284 2.82843
    endloop
  endfacet
  facet normal 0.0924942 -0.919919 0.381043
    outer loop
      vertex 3.07836e-15 -13.8637 1.03528
      vertex 2.75993 -13.5862 1.03528
      vertex 2.98963e-15 -13.4641 2
    endloop
  endfacet
  facet normal 0.0924937 -0.91992 0.381042
    outer loop
      vertex 2.75993 -13.5862 1.03528
      vertex 2.68038 -13.1946 2
      vertex 2.98963e-15 -13.4641 2
    endloop
  endfacet
  facet normal 0.0991841 -0.986556 0.129885
    outer loop
      vertex 3.10863e-15 -14 0
      vertex 2.78707 -13.7198 0
      vertex 3.07836e-15 -13.8637 1.03528
    endloop
  endfacet
  facet normal 0.0991938 -0.986551 0.129912
    outer loop
      vertex 2.78707 -13.7198 0
      vertex 2.75993 -13.5862 1.03528
      vertex 3.07836e-15 -13.8637 1.03528
    endloop
  endfacet
  facet normal -0.29361 0.947061 0.129882
    outer loop
      vertex 1.22159 -6.01349 1.03528
      vertex 2.39428 -5.64993 1.03528
      vertex 1.19446 -5.87992 0
    endloop
  endfacet
  facet normal -0.293607 0.947062 0.129879
    outer loop
      vertex 2.39428 -5.64993 1.03528
      vertex 2.3411 -5.52444 0
      vertex 1.19446 -5.87992 0
    endloop
  endfacet
  facet normal -0.273774 0.883094 0.381042
    outer loop
      vertex 1.30114 -6.40509 2
      vertex 2.5502 -6.01786 2
      vertex 1.22159 -6.01349 1.03528
    endloop
  endfacet
  facet normal -0.273778 0.883091 0.381046
    outer loop
      vertex 2.5502 -6.01786 2
      vertex 2.39428 -5.64993 1.03528
      vertex 1.22159 -6.01349 1.03528
    endloop
  endfacet
  facet normal -0.23536 0.759184 0.606833
    outer loop
      vertex 1.42769 -7.02804 2.82843
      vertex 2.79823 -6.60315 2.82843
      vertex 1.30114 -6.40509 2
    endloop
  endfacet
  facet normal -0.23536 0.759183 0.606833
    outer loop
      vertex 2.79823 -6.60315 2.82843
      vertex 2.5502 -6.01786 2
      vertex 1.30114 -6.40509 2
    endloop
  endfacet
  facet normal -0.180831 0.583296 0.791875
    outer loop
      vertex 1.59261 -7.83989 3.4641
      vertex 3.12147 -7.36592 3.4641
      vertex 1.42769 -7.02804 2.82843
    endloop
  endfacet
  facet normal -0.180831 0.583295 0.791876
    outer loop
      vertex 3.12147 -7.36592 3.4641
      vertex 2.79823 -6.60315 2.82843
      vertex 1.42769 -7.02804 2.82843
    endloop
  endfacet
  facet normal -0.113805 0.367092 0.923196
    outer loop
      vertex 1.78466 -8.7853 3.8637
      vertex 3.49788 -8.25417 3.8637
      vertex 1.59261 -7.83989 3.4641
    endloop
  endfacet
  facet normal -0.113805 0.367094 0.923196
    outer loop
      vertex 3.49788 -8.25417 3.8637
      vertex 3.12147 -7.36592 3.4641
      vertex 1.59261 -7.83989 3.4641
    endloop
  endfacet
  facet normal -0.0388432 0.125292 0.991359
    outer loop
      vertex 1.99076 -9.79986 4
      vertex 3.90183 -9.20739 4
      vertex 1.78466 -8.7853 3.8637
    endloop
  endfacet
  facet normal -0.0388431 0.125293 0.991359
    outer loop
      vertex 3.90183 -9.20739 4
      vertex 3.49788 -8.25417 3.8637
      vertex 1.78466 -8.7853 3.8637
    endloop
  endfacet
  facet normal 0.0388435 -0.125295 0.991359
    outer loop
      vertex 2.19686 -10.8144 3.8637
      vertex 4.30578 -10.1606 3.8637
      vertex 1.99076 -9.79986 4
    endloop
  endfacet
  facet normal 0.0388436 -0.125294 0.991359
    outer loop
      vertex 4.30578 -10.1606 3.8637
      vertex 3.90183 -9.20739 4
      vertex 1.99076 -9.79986 4
    endloop
  endfacet
  facet normal 0.113798 -0.367098 0.923195
    outer loop
      vertex 2.38891 -11.7598 3.4641
      vertex 4.68219 -11.0489 3.4641
      vertex 2.19686 -10.8144 3.8637
    endloop
  endfacet
  facet normal 0.1138 -0.367079 0.923202
    outer loop
      vertex 4.68219 -11.0489 3.4641
      vertex 4.30578 -10.1606 3.8637
      vertex 2.19686 -10.8144 3.8637
    endloop
  endfacet
  facet normal 0.180839 -0.583271 0.791892
    outer loop
      vertex 2.55383 -12.5717 2.82843
      vertex 5.00543 -11.8116 2.82843
      vertex 2.38891 -11.7598 3.4641
    endloop
  endfacet
  facet normal 0.180828 -0.583329 0.791851
    outer loop
      vertex 5.00543 -11.8116 2.82843
      vertex 4.68219 -11.0489 3.4641
      vertex 2.38891 -11.7598 3.4641
    endloop
  endfacet
  facet normal 0.235367 -0.759205 0.606804
    outer loop
      vertex 2.68038 -13.1946 2
      vertex 5.25346 -12.3969 2
      vertex 2.55383 -12.5717 2.82843
    endloop
  endfacet
  facet normal 0.235376 -0.759173 0.60684
    outer loop
      vertex 5.25346 -12.3969 2
      vertex 5.00543 -11.8116 2.82843
      vertex 2.55383 -12.5717 2.82843
    endloop
  endfacet
  facet normal 0.273782 -0.883092 0.381041
    outer loop
      vertex 2.75993 -13.5862 1.03528
      vertex 5.40938 -12.7648 1.03528
      vertex 2.68038 -13.1946 2
    endloop
  endfacet
  facet normal 0.273777 -0.883101 0.381023
    outer loop
      vertex 5.40938 -12.7648 1.03528
      vertex 5.25346 -12.3969 2
      vertex 2.68038 -13.1946 2
    endloop
  endfacet
  facet normal 0.293621 -0.947053 0.129912
    outer loop
      vertex 2.78707 -13.7198 0
      vertex 5.46256 -12.8903 0
      vertex 2.75993 -13.5862 1.03528
    endloop
  endfacet
  facet normal 0.293613 -0.947059 0.129888
    outer loop
      vertex 5.46256 -12.8903 0
      vertex 5.40938 -12.7648 1.03528
      vertex 2.75993 -13.5862 1.03528
    endloop
  endfacet
  facet normal -0.476266 0.869656 0.129879
    outer loop
      vertex 2.39428 -5.64993 1.03528
      vertex 3.47112 -5.0602 1.03528
      vertex 2.3411 -5.52444 0
    endloop
  endfacet
  facet normal -0.476266 0.869656 0.129879
    outer loop
      vertex 3.47112 -5.0602 1.03528
      vertex 3.39402 -4.94781 0
      vertex 2.3411 -5.52444 0
    endloop
  endfacet
  facet normal -0.444093 0.810916 0.381047
    outer loop
      vertex 2.5502 -6.01786 2
      vertex 3.69717 -5.38973 2
      vertex 2.39428 -5.64993 1.03528
    endloop
  endfacet
  facet normal -0.444095 0.810913 0.381051
    outer loop
      vertex 3.69717 -5.38973 2
      vertex 3.47112 -5.0602 1.03528
      vertex 2.39428 -5.64993 1.03528
    endloop
  endfacet
  facet normal -0.381785 0.697132 0.606833
    outer loop
      vertex 2.79823 -6.60315 2.82843
      vertex 4.05675 -5.91392 2.82843
      vertex 2.5502 -6.01786 2
    endloop
  endfacet
  facet normal -0.381783 0.697138 0.606828
    outer loop
      vertex 4.05675 -5.91392 2.82843
      vertex 3.69717 -5.38973 2
      vertex 2.5502 -6.01786 2
    endloop
  endfacet
  facet normal -0.293335 0.535619 0.791876
    outer loop
      vertex 3.12147 -7.36592 3.4641
      vertex 4.52536 -6.59707 3.4641
      vertex 2.79823 -6.60315 2.82843
    endloop
  endfacet
  facet normal -0.293334 0.535623 0.791873
    outer loop
      vertex 4.52536 -6.59707 3.4641
      vertex 4.05675 -5.91392 2.82843
      vertex 2.79823 -6.60315 2.82843
    endloop
  endfacet
  facet normal -0.184607 0.337091 0.923196
    outer loop
      vertex 3.49788 -8.25417 3.8637
      vertex 5.07108 -7.39261 3.8637
      vertex 3.12147 -7.36592 3.4641
    endloop
  endfacet
  facet normal -0.184608 0.337086 0.923197
    outer loop
      vertex 5.07108 -7.39261 3.8637
      vertex 4.52536 -6.59707 3.4641
      vertex 3.12147 -7.36592 3.4641
    endloop
  endfacet
  facet normal -0.0630081 0.115052 0.991359
    outer loop
      vertex 3.90183 -9.20739 4
      vertex 5.6567 -8.24634 4
      vertex 3.49788 -8.25417 3.8637
    endloop
  endfacet
  facet normal -0.0630081 0.115052 0.991359
    outer loop
      vertex 5.6567 -8.24634 4
      vertex 5.07108 -7.39261 3.8637
      vertex 3.49788 -8.25417 3.8637
    endloop
  endfacet
  facet normal 0.0630086 -0.115053 0.991359
    outer loop
      vertex 4.30578 -10.1606 3.8637
      vertex 6.24232 -9.10006 3.8637
      vertex 3.90183 -9.20739 4
    endloop
  endfacet
  facet normal 0.0630086 -0.115053 0.991359
    outer loop
      vertex 6.24232 -9.10006 3.8637
      vertex 5.6567 -8.24634 4
      vertex 3.90183 -9.20739 4
    endloop
  endfacet
  facet normal 0.184605 -0.337076 0.923202
    outer loop
      vertex 4.68219 -11.0489 3.4641
      vertex 6.78804 -9.8956 3.4641
      vertex 4.30578 -10.1606 3.8637
    endloop
  endfacet
  facet normal 0.184605 -0.337088 0.923197
    outer loop
      vertex 6.78804 -9.8956 3.4641
      vertex 6.24232 -9.10006 3.8637
      vertex 4.30578 -10.1606 3.8637
    endloop
  endfacet
  facet normal 0.29335 -0.535643 0.791854
    outer loop
      vertex 5.00543 -11.8116 2.82843
      vertex 7.25665 -10.5787 2.82843
      vertex 4.68219 -11.0489 3.4641
    endloop
  endfacet
  facet normal 0.29335 -0.535637 0.791858
    outer loop
      vertex 7.25665 -10.5787 2.82843
      vertex 6.78804 -9.8956 3.4641
      vertex 4.68219 -11.0489 3.4641
    endloop
  endfacet
  facet normal 0.381788 -0.697126 0.606838
    outer loop
      vertex 5.25346 -12.3969 2
      vertex 7.61624 -11.1029 2
      vertex 5.00543 -11.8116 2.82843
    endloop
  endfacet
  facet normal 0.381788 -0.697128 0.606837
    outer loop
      vertex 7.61624 -11.1029 2
      vertex 7.25665 -10.5787 2.82843
      vertex 5.00543 -11.8116 2.82843
    endloop
  endfacet
  facet normal 0.444081 -0.810932 0.381026
    outer loop
      vertex 5.40938 -12.7648 1.03528
      vertex 7.84228 -11.4325 1.03528
      vertex 5.25346 -12.3969 2
    endloop
  endfacet
  facet normal 0.444093 -0.810892 0.381098
    outer loop
      vertex 7.84228 -11.4325 1.03528
      vertex 7.61624 -11.1029 2
      vertex 5.25346 -12.3969 2
    endloop
  endfacet
  facet normal 0.476245 -0.869666 0.129887
    outer loop
      vertex 5.46256 -12.8903 0
      vertex 7.91938 -11.5449 0
      vertex 5.40938 -12.7648 1.03528
    endloop
  endfacet
  facet normal 0.476245 -0.869667 0.129887
    outer loop
      vertex 7.91938 -11.5449 0
      vertex 7.84228 -11.4325 1.03528
      vertex 5.40938 -12.7648 1.03528
    endloop
  endfacet
  facet normal -0.639859 0.757437 0.129879
    outer loop
      vertex 3.47112 -5.0602 1.03528
      vertex 4.40901 -4.2679 1.03528
      vertex 3.39402 -4.94781 0
    endloop
  endfacet
  facet normal -0.639862 0.757434 0.129884
    outer loop
      vertex 4.40901 -4.2679 1.03528
      vertex 4.31108 -4.1731 0
      vertex 3.39402 -4.94781 0
    endloop
  endfacet
  facet normal -0.596642 0.70627 0.381052
    outer loop
      vertex 3.69717 -5.38973 2
      vertex 4.69613 -4.54583 2
      vertex 3.47112 -5.0602 1.03528
    endloop
  endfacet
  facet normal -0.59664 0.706276 0.381046
    outer loop
      vertex 4.69613 -4.54583 2
      vertex 4.40901 -4.2679 1.03528
      vertex 3.47112 -5.0602 1.03528
    endloop
  endfacet
  facet normal -0.512926 0.607178 0.606829
    outer loop
      vertex 4.05675 -5.91392 2.82843
      vertex 5.15287 -4.98795 2.82843
      vertex 3.69717 -5.38973 2
    endloop
  endfacet
  facet normal -0.512927 0.607174 0.606832
    outer loop
      vertex 5.15287 -4.98795 2.82843
      vertex 4.69613 -4.54583 2
      vertex 3.69717 -5.38973 2
    endloop
  endfacet
  facet normal -0.394093 0.466506 0.791873
    outer loop
      vertex 4.52536 -6.59707 3.4641
      vertex 5.7481 -5.56413 3.4641
      vertex 4.05675 -5.91392 2.82843
    endloop
  endfacet
  facet normal -0.394093 0.466509 0.791871
    outer loop
      vertex 5.7481 -5.56413 3.4641
      vertex 5.15287 -4.98795 2.82843
      vertex 4.05675 -5.91392 2.82843
    endloop
  endfacet
  facet normal -0.248016 0.293589 0.923197
    outer loop
      vertex 5.07108 -7.39261 3.8637
      vertex 6.44127 -6.23511 3.8637
      vertex 4.52536 -6.59707 3.4641
    endloop
  endfacet
  facet normal -0.248016 0.293589 0.923197
    outer loop
      vertex 6.44127 -6.23511 3.8637
      vertex 5.7481 -5.56413 3.4641
      vertex 4.52536 -6.59707 3.4641
    endloop
  endfacet
  facet normal -0.0846517 0.100206 0.991359
    outer loop
      vertex 5.6567 -8.24634 4
      vertex 7.18512 -6.95516 4
      vertex 5.07108 -7.39261 3.8637
    endloop
  endfacet
  facet normal -0.084652 0.100207 0.991359
    outer loop
      vertex 7.18512 -6.95516 4
      vertex 6.44127 -6.23511 3.8637
      vertex 5.07108 -7.39261 3.8637
    endloop
  endfacet
  facet normal 0.0846517 -0.100207 0.991359
    outer loop
      vertex 6.24232 -9.10006 3.8637
      vertex 7.92898 -7.67522 3.8637
      vertex 5.6567 -8.24634 4
    endloop
  endfacet
  facet normal 0.0846512 -0.100205 0.991359
    outer loop
      vertex 7.92898 -7.67522 3.8637
      vertex 7.18512 -6.95516 4
      vertex 5.6567 -8.24634 4
    endloop
  endfacet
  facet normal 0.248016 -0.29359 0.923197
    outer loop
      vertex 6.78804 -9.8956 3.4641
      vertex 8.62215 -8.3462 3.4641
      vertex 6.24232 -9.10006 3.8637
    endloop
  endfacet
  facet normal 0.248016 -0.293589 0.923197
    outer loop
      vertex 8.62215 -8.3462 3.4641
      vertex 7.92898 -7.67522 3.8637
      vertex 6.24232 -9.10006 3.8637
    endloop
  endfacet
  facet normal 0.394096 -0.466526 0.79186
    outer loop
      vertex 7.25665 -10.5787 2.82843
      vertex 9.21738 -8.92238 2.82843
      vertex 6.78804 -9.8956 3.4641
    endloop
  endfacet
  facet normal 0.394093 -0.466509 0.791871
    outer loop
      vertex 9.21738 -8.92238 2.82843
      vertex 8.62215 -8.3462 3.4641
      vertex 6.78804 -9.8956 3.4641
    endloop
  endfacet
  facet normal 0.512916 -0.607178 0.606837
    outer loop
      vertex 7.61624 -11.1029 2
      vertex 9.67412 -9.3645 2
      vertex 7.25665 -10.5787 2.82843
    endloop
  endfacet
  facet normal 0.512916 -0.607184 0.606832
    outer loop
      vertex 9.67412 -9.3645 2
      vertex 9.21738 -8.92238 2.82843
      vertex 7.25665 -10.5787 2.82843
    endloop
  endfacet
  facet normal 0.596635 -0.706255 0.38109
    outer loop
      vertex 7.84228 -11.4325 1.03528
      vertex 9.96124 -9.64243 1.03528
      vertex 7.61624 -11.1029 2
    endloop
  endfacet
  facet normal 0.596633 -0.706281 0.381045
    outer loop
      vertex 9.96124 -9.64243 1.03528
      vertex 9.67412 -9.3645 2
      vertex 7.61624 -11.1029 2
    endloop
  endfacet
  facet normal 0.639862 -0.757434 0.129887
    outer loop
      vertex 7.91938 -11.5449 0
      vertex 10.0592 -9.73723 0
      vertex 7.84228 -11.4325 1.03528
    endloop
  endfacet
  facet normal 0.639866 -0.757428 0.129902
    outer loop
      vertex 10.0592 -9.73723 0
      vertex 9.96124 -9.64243 1.03528
      vertex 7.84228 -11.4325 1.03528
    endloop
  endfacet
  facet normal -0.777842 0.614892 0.129884
    outer loop
      vertex 4.40901 -4.2679 1.03528
      vertex 5.17039 -3.30475 1.03528
      vertex 4.31108 -4.1731 0
    endloop
  endfacet
  facet normal -0.777842 0.614891 0.129884
    outer loop
      vertex 5.17039 -3.30475 1.03528
      vertex 5.05555 -3.23134 0
      vertex 4.31108 -4.1731 0
    endloop
  endfacet
  facet normal -0.725302 0.57336 0.381046
    outer loop
      vertex 4.69613 -4.54583 2
      vertex 5.5071 -3.51995 2
      vertex 4.40901 -4.2679 1.03528
    endloop
  endfacet
  facet normal -0.725302 0.573359 0.381047
    outer loop
      vertex 5.5071 -3.51995 2
      vertex 5.17039 -3.30475 1.03528
      vertex 4.40901 -4.2679 1.03528
    endloop
  endfacet
  facet normal -0.623533 0.492911 0.606832
    outer loop
      vertex 5.15287 -4.98795 2.82843
      vertex 6.04271 -3.8623 2.82843
      vertex 4.69613 -4.54583 2
    endloop
  endfacet
  facet normal -0.623533 0.49291 0.606833
    outer loop
      vertex 6.04271 -3.8623 2.82843
      vertex 5.5071 -3.51995 2
      vertex 4.69613 -4.54583 2
    endloop
  endfacet
  facet normal -0.479076 0.378716 0.791871
    outer loop
      vertex 5.7481 -5.56413 3.4641
      vertex 6.74073 -4.30845 3.4641
      vertex 5.15287 -4.98795 2.82843
    endloop
  endfacet
  facet normal -0.479076 0.378716 0.791871
    outer loop
      vertex 6.74073 -4.30845 3.4641
      vertex 6.04271 -3.8623 2.82843
      vertex 5.15287 -4.98795 2.82843
    endloop
  endfacet
  facet normal -0.301498 0.238338 0.923198
    outer loop
      vertex 6.44127 -6.23511 3.8637
      vertex 7.5536 -4.82801 3.8637
      vertex 5.7481 -5.56413 3.4641
    endloop
  endfacet
  facet normal -0.301498 0.238338 0.923198
    outer loop
      vertex 7.5536 -4.82801 3.8637
      vertex 6.74073 -4.30845 3.4641
      vertex 5.7481 -5.56413 3.4641
    endloop
  endfacet
  facet normal -0.102906 0.0813492 0.991359
    outer loop
      vertex 7.18512 -6.95516 4
      vertex 8.42591 -5.38557 4
      vertex 6.44127 -6.23511 3.8637
    endloop
  endfacet
  facet normal -0.102906 0.0813483 0.991359
    outer loop
      vertex 8.42591 -5.38557 4
      vertex 7.5536 -4.82801 3.8637
      vertex 6.44127 -6.23511 3.8637
    endloop
  endfacet
  facet normal 0.102905 -0.0813479 0.991359
    outer loop
      vertex 7.92898 -7.67522 3.8637
      vertex 9.29823 -5.94312 3.8637
      vertex 7.18512 -6.95516 4
    endloop
  endfacet
  facet normal 0.102905 -0.0813486 0.991359
    outer loop
      vertex 9.29823 -5.94312 3.8637
      vertex 8.42591 -5.38557 4
      vertex 7.18512 -6.95516 4
    endloop
  endfacet
  facet normal 0.301498 -0.238339 0.923198
    outer loop
      vertex 8.62215 -8.3462 3.4641
      vertex 10.1111 -6.46268 3.4641
      vertex 7.92898 -7.67522 3.8637
    endloop
  endfacet
  facet normal 0.301498 -0.238338 0.923198
    outer loop
      vertex 10.1111 -6.46268 3.4641
      vertex 9.29823 -5.94312 3.8637
      vertex 7.92898 -7.67522 3.8637
    endloop
  endfacet
  facet normal 0.479078 -0.378713 0.791871
    outer loop
      vertex 9.21738 -8.92238 2.82843
      vertex 10.8091 -6.90883 2.82843
      vertex 8.62215 -8.3462 3.4641
    endloop
  endfacet
  facet normal 0.479082 -0.378721 0.791866
    outer loop
      vertex 10.8091 -6.90883 2.82843
      vertex 10.1111 -6.46268 3.4641
      vertex 8.62215 -8.3462 3.4641
    endloop
  endfacet
  facet normal 0.623537 -0.492906 0.606832
    outer loop
      vertex 9.67412 -9.3645 2
      vertex 11.3447 -7.25118 2
      vertex 9.21738 -8.92238 2.82843
    endloop
  endfacet
  facet normal 0.623538 -0.49291 0.606828
    outer loop
      vertex 11.3447 -7.25118 2
      vertex 10.8091 -6.90883 2.82843
      vertex 9.21738 -8.92238 2.82843
    endloop
  endfacet
  facet normal 0.725307 -0.573353 0.381046
    outer loop
      vertex 9.96124 -9.64243 1.03528
      vertex 11.6814 -7.46638 1.03528
      vertex 9.67412 -9.3645 2
    endloop
  endfacet
  facet normal 0.725308 -0.573356 0.38104
    outer loop
      vertex 11.6814 -7.46638 1.03528
      vertex 11.3447 -7.25118 2
      vertex 9.67412 -9.3645 2
    endloop
  endfacet
  facet normal 0.777839 -0.61489 0.129906
    outer loop
      vertex 10.0592 -9.73723 0
      vertex 11.7963 -7.53979 0
      vertex 9.96124 -9.64243 1.03528
    endloop
  endfacet
  facet normal 0.777842 -0.614882 0.129929
    outer loop
      vertex 11.7963 -7.53979 0
      vertex 11.6814 -7.46638 1.03528
      vertex 9.96124 -9.64243 1.03528
    endloop
  endfacet
  facet normal -0.884681 0.447739 0.129883
    outer loop
      vertex 5.17039 -3.30475 1.03528
      vertex 5.7248 -2.2093 1.03528
      vertex 5.05555 -3.23134 0
    endloop
  endfacet
  facet normal -0.884681 0.447738 0.129884
    outer loop
      vertex 5.7248 -2.2093 1.03528
      vertex 5.59764 -2.16023 0
      vertex 5.05555 -3.23134 0
    endloop
  endfacet
  facet normal -0.824927 0.41749 0.381048
    outer loop
      vertex 5.5071 -3.51995 2
      vertex 6.0976 -2.35317 2
      vertex 5.17039 -3.30475 1.03528
    endloop
  endfacet
  facet normal -0.824926 0.417497 0.381041
    outer loop
      vertex 6.0976 -2.35317 2
      vertex 5.7248 -2.2093 1.03528
      vertex 5.17039 -3.30475 1.03528
    endloop
  endfacet
  facet normal -0.709179 0.358916 0.606832
    outer loop
      vertex 6.04271 -3.8623 2.82843
      vertex 6.69065 -2.58204 2.82843
      vertex 5.5071 -3.51995 2
    endloop
  endfacet
  facet normal -0.709178 0.35891 0.606837
    outer loop
      vertex 6.69065 -2.58204 2.82843
      vertex 6.0976 -2.35317 2
      vertex 5.5071 -3.51995 2
    endloop
  endfacet
  facet normal -0.544879 0.275765 0.791872
    outer loop
      vertex 6.74073 -4.30845 3.4641
      vertex 7.46352 -2.8803 3.4641
      vertex 6.04271 -3.8623 2.82843
    endloop
  endfacet
  facet normal -0.544879 0.275763 0.791872
    outer loop
      vertex 7.46352 -2.8803 3.4641
      vertex 6.69065 -2.58204 2.82843
      vertex 6.04271 -3.8623 2.82843
    endloop
  endfacet
  facet normal -0.34291 0.173547 0.923198
    outer loop
      vertex 7.5536 -4.82801 3.8637
      vertex 8.36355 -3.22764 3.8637
      vertex 6.74073 -4.30845 3.4641
    endloop
  endfacet
  facet normal -0.34291 0.173548 0.923198
    outer loop
      vertex 8.36355 -3.22764 3.8637
      vertex 7.46352 -2.8803 3.4641
      vertex 6.74073 -4.30845 3.4641
    endloop
  endfacet
  facet normal -0.117041 0.0592342 0.991359
    outer loop
      vertex 8.42591 -5.38557 4
      vertex 9.3294 -3.60037 4
      vertex 7.5536 -4.82801 3.8637
    endloop
  endfacet
  facet normal -0.117041 0.0592345 0.991359
    outer loop
      vertex 9.3294 -3.60037 4
      vertex 8.36355 -3.22764 3.8637
      vertex 7.5536 -4.82801 3.8637
    endloop
  endfacet
  facet normal 0.117042 -0.0592316 0.991359
    outer loop
      vertex 9.29823 -5.94312 3.8637
      vertex 10.2952 -3.97311 3.8637
      vertex 8.42591 -5.38557 4
    endloop
  endfacet
  facet normal 0.117045 -0.0592366 0.991358
    outer loop
      vertex 10.2952 -3.97311 3.8637
      vertex 9.3294 -3.60037 4
      vertex 8.42591 -5.38557 4
    endloop
  endfacet
  facet normal 0.342909 -0.173549 0.923198
    outer loop
      vertex 10.1111 -6.46268 3.4641
      vertex 11.1953 -4.32045 3.4641
      vertex 9.29823 -5.94312 3.8637
    endloop
  endfacet
  facet normal 0.342895 -0.17353 0.923207
    outer loop
      vertex 11.1953 -4.32045 3.4641
      vertex 10.2952 -3.97311 3.8637
      vertex 9.29823 -5.94312 3.8637
    endloop
  endfacet
  facet normal 0.54489 -0.275762 0.791865
    outer loop
      vertex 10.8091 -6.90883 2.82843
      vertex 11.9681 -4.61871 2.82843
      vertex 10.1111 -6.46268 3.4641
    endloop
  endfacet
  facet normal 0.544903 -0.27578 0.79185
    outer loop
      vertex 11.9681 -4.61871 2.82843
      vertex 11.1953 -4.32045 3.4641
      vertex 10.1111 -6.46268 3.4641
    endloop
  endfacet
  facet normal 0.709178 -0.358926 0.606827
    outer loop
      vertex 11.3447 -7.25118 2
      vertex 12.5612 -4.84758 2
      vertex 10.8091 -6.90883 2.82843
    endloop
  endfacet
  facet normal 0.709161 -0.358897 0.606864
    outer loop
      vertex 12.5612 -4.84758 2
      vertex 11.9681 -4.61871 2.82843
      vertex 10.8091 -6.90883 2.82843
    endloop
  endfacet
  facet normal 0.824922 -0.417506 0.381042
    outer loop
      vertex 11.6814 -7.46638 1.03528
      vertex 12.934 -4.99145 1.03528
      vertex 11.3447 -7.25118 2
    endloop
  endfacet
  facet normal 0.824922 -0.417506 0.381041
    outer loop
      vertex 12.934 -4.99145 1.03528
      vertex 12.5612 -4.84758 2
      vertex 11.3447 -7.25118 2
    endloop
  endfacet
  facet normal 0.884687 -0.447712 0.129933
    outer loop
      vertex 11.7963 -7.53979 0
      vertex 13.0611 -5.04052 0
      vertex 11.6814 -7.46638 1.03528
    endloop
  endfacet
  facet normal 0.884682 -0.447751 0.129834
    outer loop
      vertex 13.0611 -5.04052 0
      vertex 12.934 -4.99145 1.03528
      vertex 11.6814 -7.46638 1.03528
    endloop
  endfacet
  facet normal -0.956108 0.262655 0.129885
    outer loop
      vertex 5.7248 -2.2093 1.03528
      vertex 6.05003 -1.02541 1.03528
      vertex 5.59764 -2.16023 0
    endloop
  endfacet
  facet normal -0.956108 0.262657 0.129883
    outer loop
      vertex 6.05003 -1.02541 1.03528
      vertex 5.91565 -1.00263 0
      vertex 5.59764 -2.16023 0
    endloop
  endfacet
  facet normal -0.891529 0.244914 0.381041
    outer loop
      vertex 6.0976 -2.35317 2
      vertex 6.44401 -1.09218 2
      vertex 5.7248 -2.2093 1.03528
    endloop
  endfacet
  facet normal -0.891529 0.244915 0.381041
    outer loop
      vertex 6.44401 -1.09218 2
      vertex 6.05003 -1.02541 1.03528
      vertex 5.7248 -2.2093 1.03528
    endloop
  endfacet
  facet normal -0.766433 0.210548 0.606836
    outer loop
      vertex 6.69065 -2.58204 2.82843
      vertex 7.07075 -1.19841 2.82843
      vertex 6.0976 -2.35317 2
    endloop
  endfacet
  facet normal -0.766433 0.210549 0.606836
    outer loop
      vertex 7.07075 -1.19841 2.82843
      vertex 6.44401 -1.09218 2
      vertex 6.0976 -2.35317 2
    endloop
  endfacet
  facet normal -0.58887 0.161771 0.791873
    outer loop
      vertex 7.46352 -2.8803 3.4641
      vertex 7.88753 -1.33684 3.4641
      vertex 6.69065 -2.58204 2.82843
    endloop
  endfacet
  facet normal -0.588869 0.16177 0.791874
    outer loop
      vertex 7.88753 -1.33684 3.4641
      vertex 7.07075 -1.19841 2.82843
      vertex 6.69065 -2.58204 2.82843
    endloop
  endfacet
  facet normal -0.370596 0.101807 0.923197
    outer loop
      vertex 8.36355 -3.22764 3.8637
      vertex 8.83869 -1.49805 3.8637
      vertex 7.46352 -2.8803 3.4641
    endloop
  endfacet
  facet normal -0.370597 0.101808 0.923197
    outer loop
      vertex 8.83869 -1.49805 3.8637
      vertex 7.88753 -1.33684 3.4641
      vertex 7.46352 -2.8803 3.4641
    endloop
  endfacet
  facet normal -0.12649 0.0347485 0.991359
    outer loop
      vertex 9.3294 -3.60037 4
      vertex 9.85941 -1.67105 4
      vertex 8.36355 -3.22764 3.8637
    endloop
  endfacet
  facet normal -0.12649 0.0347484 0.991359
    outer loop
      vertex 9.85941 -1.67105 4
      vertex 8.83869 -1.49805 3.8637
      vertex 8.36355 -3.22764 3.8637
    endloop
  endfacet
  facet normal 0.126495 -0.034751 0.991358
    outer loop
      vertex 10.2952 -3.97311 3.8637
      vertex 10.8801 -1.84405 3.8637
      vertex 9.3294 -3.60037 4
    endloop
  endfacet
  facet normal 0.126493 -0.0347494 0.991359
    outer loop
      vertex 10.8801 -1.84405 3.8637
      vertex 9.85941 -1.67105 4
      vertex 9.3294 -3.60037 4
    endloop
  endfacet
  facet normal 0.370575 -0.1018 0.923207
    outer loop
      vertex 11.1953 -4.32045 3.4641
      vertex 11.8313 -2.00526 3.4641
      vertex 10.2952 -3.97311 3.8637
    endloop
  endfacet
  facet normal 0.370584 -0.101808 0.923203
    outer loop
      vertex 11.8313 -2.00526 3.4641
      vertex 10.8801 -1.84405 3.8637
      vertex 10.2952 -3.97311 3.8637
    endloop
  endfacet
  facet normal 0.588894 -0.161796 0.791849
    outer loop
      vertex 11.9681 -4.61871 2.82843
      vertex 12.6481 -2.14369 2.82843
      vertex 11.1953 -4.32045 3.4641
    endloop
  endfacet
  facet normal 0.588861 -0.161765 0.791881
    outer loop
      vertex 12.6481 -2.14369 2.82843
      vertex 11.8313 -2.00526 3.4641
      vertex 11.1953 -4.32045 3.4641
    endloop
  endfacet
  facet normal 0.766412 -0.21054 0.606865
    outer loop
      vertex 12.5612 -4.84758 2
      vertex 13.2748 -2.24992 2
      vertex 11.9681 -4.61871 2.82843
    endloop
  endfacet
  facet normal 0.766445 -0.210577 0.606811
    outer loop
      vertex 13.2748 -2.24992 2
      vertex 12.6481 -2.14369 2.82843
      vertex 11.9681 -4.61871 2.82843
    endloop
  endfacet
  facet normal 0.891529 -0.244917 0.381041
    outer loop
      vertex 12.934 -4.99145 1.03528
      vertex 13.6688 -2.31669 1.03528
      vertex 12.5612 -4.84758 2
    endloop
  endfacet
  facet normal 0.891524 -0.244909 0.381057
    outer loop
      vertex 13.6688 -2.31669 1.03528
      vertex 13.2748 -2.24992 2
      vertex 12.5612 -4.84758 2
    endloop
  endfacet
  facet normal 0.956107 -0.262686 0.129831
    outer loop
      vertex 13.0611 -5.04052 0
      vertex 13.8032 -2.33947 0
      vertex 12.934 -4.99145 1.03528
    endloop
  endfacet
  facet normal 0.956105 -0.262658 0.129901
    outer loop
      vertex 13.8032 -2.33947 0
      vertex 13.6688 -2.31669 1.03528
      vertex 12.934 -4.99145 1.03528
    endloop
  endfacet
  facet normal -0.989259 0.0670628 0.129882
    outer loop
      vertex 6.05003 -1.02541 1.03528
      vertex 6.13307 0.199533 1.03528
      vertex 5.91565 -1.00263 0
    endloop
  endfacet
  facet normal -0.989259 0.0670584 0.129887
    outer loop
      vertex 6.13307 0.199533 1.03528
      vertex 5.99684 0.195101 0
      vertex 5.91565 -1.00263 0
    endloop
  endfacet
  facet normal -0.922441 0.0625351 0.381042
    outer loop
      vertex 6.44401 -1.09218 2
      vertex 6.53246 0.212526 2
      vertex 6.05003 -1.02541 1.03528
    endloop
  endfacet
  facet normal -0.92244 0.062533 0.381044
    outer loop
      vertex 6.53246 0.212526 2
      vertex 6.13307 0.199533 1.03528
      vertex 6.05003 -1.02541 1.03528
    endloop
  endfacet
  facet normal -0.793008 0.0537588 0.606835
    outer loop
      vertex 7.07075 -1.19841 2.82843
      vertex 7.1678 0.233196 2.82843
      vertex 6.44401 -1.09218 2
    endloop
  endfacet
  facet normal -0.793009 0.0537605 0.606833
    outer loop
      vertex 7.1678 0.233196 2.82843
      vertex 6.53246 0.212526 2
      vertex 6.44401 -1.09218 2
    endloop
  endfacet
  facet normal -0.609286 0.0413039 0.791874
    outer loop
      vertex 7.88753 -1.33684 3.4641
      vertex 7.99579 0.260134 3.4641
      vertex 7.07075 -1.19841 2.82843
    endloop
  endfacet
  facet normal -0.609286 0.0413041 0.791874
    outer loop
      vertex 7.99579 0.260134 3.4641
      vertex 7.1678 0.233196 2.82843
      vertex 7.07075 -1.19841 2.82843
    endloop
  endfacet
  facet normal -0.383447 0.025993 0.923197
    outer loop
      vertex 8.83869 -1.49805 3.8637
      vertex 8.96 0.291504 3.8637
      vertex 7.88753 -1.33684 3.4641
    endloop
  endfacet
  facet normal -0.383448 0.0259942 0.923196
    outer loop
      vertex 8.96 0.291504 3.8637
      vertex 7.99579 0.260134 3.4641
      vertex 7.88753 -1.33684 3.4641
    endloop
  endfacet
  facet normal -0.130876 0.00887182 0.991359
    outer loop
      vertex 9.85941 -1.67105 4
      vertex 9.99473 0.325168 4
      vertex 8.83869 -1.49805 3.8637
    endloop
  endfacet
  facet normal -0.130876 0.00887177 0.991359
    outer loop
      vertex 9.99473 0.325168 4
      vertex 8.96 0.291504 3.8637
      vertex 8.83869 -1.49805 3.8637
    endloop
  endfacet
  facet normal 0.130879 -0.00887623 0.991359
    outer loop
      vertex 10.8801 -1.84405 3.8637
      vertex 11.0295 0.358831 3.8637
      vertex 9.85941 -1.67105 4
    endloop
  endfacet
  facet normal 0.130871 -0.00887148 0.99136
    outer loop
      vertex 11.0295 0.358831 3.8637
      vertex 9.99473 0.325168 4
      vertex 9.85941 -1.67105 4
    endloop
  endfacet
  facet normal 0.383433 -0.0259948 0.923203
    outer loop
      vertex 11.8313 -2.00526 3.4641
      vertex 11.9937 0.390201 3.4641
      vertex 10.8801 -1.84405 3.8637
    endloop
  endfacet
  facet normal 0.383452 -0.0260058 0.923195
    outer loop
      vertex 11.9937 0.390201 3.4641
      vertex 11.0295 0.358831 3.8637
      vertex 10.8801 -1.84405 3.8637
    endloop
  endfacet
  facet normal 0.609277 -0.0413032 0.791881
    outer loop
      vertex 12.6481 -2.14369 2.82843
      vertex 12.8217 0.417139 2.82843
      vertex 11.8313 -2.00526 3.4641
    endloop
  endfacet
  facet normal 0.609282 -0.0413062 0.791877
    outer loop
      vertex 12.8217 0.417139 2.82843
      vertex 11.9937 0.390201 3.4641
      vertex 11.8313 -2.00526 3.4641
    endloop
  endfacet
  facet normal 0.793026 -0.0537589 0.606811
    outer loop
      vertex 13.2748 -2.24992 2
      vertex 13.457 0.437809 2
      vertex 12.6481 -2.14369 2.82843
    endloop
  endfacet
  facet normal 0.793027 -0.0537598 0.606809
    outer loop
      vertex 13.457 0.437809 2
      vertex 12.8217 0.417139 2.82843
      vertex 12.6481 -2.14369 2.82843
    endloop
  endfacet
  facet normal 0.922434 -0.062529 0.381058
    outer loop
      vertex 13.6688 -2.31669 1.03528
      vertex 13.8564 0.450803 1.03528
      vertex 13.2748 -2.24992 2
    endloop
  endfacet
  facet normal 0.922436 -0.0625316 0.381052
    outer loop
      vertex 13.8564 0.450803 1.03528
      vertex 13.457 0.437809 2
      vertex 13.2748 -2.24992 2
    endloop
  endfacet
  facet normal 0.989258 -0.067043 0.129901
    outer loop
      vertex 13.8032 -2.33947 0
      vertex 13.9926 0.455235 0
      vertex 13.6688 -2.31669 1.03528
    endloop
  endfacet
  facet normal 0.989262 -0.0670591 0.129859
    outer loop
      vertex 13.9926 0.455235 0
      vertex 13.8564 0.450803 1.03528
      vertex 13.6688 -2.31669 1.03528
    endloop
  endfacet
  facet normal 0.084114 -0.98796 -0.129846
    outer loop
      vertex 1.57443e-15 -7.0906 0.776457
      vertex 1.55369e-15 -6.99718 0.065653
      vertex 1.32266 -6.97799 0.776457
    endloop
  endfacet
  facet normal 0.0841145 -0.987957 -0.129866
    outer loop
      vertex 1.30362 -6.87756 0
      vertex 1.55369e-15 -6.99718 0.065653
      vertex 1.55177e-15 -6.98855 0
    endloop
  endfacet
  facet normal 0.0841155 -0.987959 -0.129849
    outer loop
      vertex 1.55369e-15 -6.99718 0.065653
      vertex 1.30362 -6.87756 0
      vertex 1.32266 -6.97799 0.776457
    endloop
  endfacet
  facet normal 0.0784338 -0.921257 -0.380965
    outer loop
      vertex 1.64087e-15 -7.38981 1.5
      vertex 1.57991e-15 -7.11529 0.83615
      vertex 1.37847 -7.27245 1.5
    endloop
  endfacet
  facet normal 0.0784325 -0.921228 -0.381035
    outer loop
      vertex 1.32266 -6.97799 0.776457
      vertex 1.57991e-15 -7.11529 0.83615
      vertex 1.57443e-15 -7.0906 0.776457
    endloop
  endfacet
  facet normal 0.0784379 -0.921253 -0.380972
    outer loop
      vertex 1.57991e-15 -7.11529 0.83615
      vertex 1.32266 -6.97799 0.776457
      vertex 1.37847 -7.27245 1.5
    endloop
  endfacet
  facet normal 0.0674317 -0.792026 -0.606752
    outer loop
      vertex 1.74656e-15 -7.86579 2.12132
      vertex 1.64942e-15 -7.42833 1.55028
      vertex 1.46726 -7.74087 2.12132
    endloop
  endfacet
  facet normal 0.0674303 -0.792013 -0.606769
    outer loop
      vertex 1.37847 -7.27245 1.5
      vertex 1.64942e-15 -7.42833 1.55028
      vertex 1.64087e-15 -7.38981 1.5
    endloop
  endfacet
  facet normal 0.0674323 -0.792025 -0.606753
    outer loop
      vertex 1.64942e-15 -7.42833 1.55028
      vertex 1.37847 -7.27245 1.5
      vertex 1.46726 -7.74087 2.12132
    endloop
  endfacet
  facet normal 0.0518125 -0.608575 -0.791803
    outer loop
      vertex 1.88429e-15 -8.48609 2.59808
      vertex 1.75756e-15 -7.91536 2.15942
      vertex 1.58297 -8.35132 2.59808
    endloop
  endfacet
  facet normal 0.0518126 -0.608575 -0.791803
    outer loop
      vertex 1.75756e-15 -7.91536 2.15942
      vertex 1.46726 -7.74087 2.12132
      vertex 1.58297 -8.35132 2.59808
    endloop
  endfacet
  facet normal 0.0518137 -0.608583 -0.791797
    outer loop
      vertex 1.46726 -7.74087 2.12132
      vertex 1.75756e-15 -7.91536 2.15942
      vertex 1.74656e-15 -7.86579 2.12132
    endloop
  endfacet
  facet normal 0.0326114 -0.383021 -0.923164
    outer loop
      vertex 2.04469e-15 -9.20845 2.89778
      vertex 1.89704e-15 -8.54352 2.6219
      vertex 1.71771 -9.0622 2.89778
    endloop
  endfacet
  facet normal 0.0326133 -0.383016 -0.923166
    outer loop
      vertex 1.89704e-15 -8.54352 2.6219
      vertex 1.58297 -8.35132 2.59808
      vertex 1.71771 -9.0622 2.89778
    endloop
  endfacet
  facet normal 0.0326004 -0.382915 -0.923208
    outer loop
      vertex 1.58297 -8.35132 2.59808
      vertex 1.89704e-15 -8.54352 2.6219
      vertex 1.88429e-15 -8.48609 2.59808
    endloop
  endfacet
  facet normal 0.0111297 -0.130729 -0.991356
    outer loop
      vertex 2.21681e-15 -9.98363 3
      vertex 2.05838e-15 -9.27012 2.90591
      vertex 1.86232 -9.82508 3
    endloop
  endfacet
  facet normal 0.0111313 -0.130724 -0.991356
    outer loop
      vertex 2.05838e-15 -9.27012 2.90591
      vertex 1.71771 -9.0622 2.89778
      vertex 1.86232 -9.82508 3
    endloop
  endfacet
  facet normal 0.0111274 -0.130692 -0.991361
    outer loop
      vertex 1.71771 -9.0622 2.89778
      vertex 2.05838e-15 -9.27012 2.90591
      vertex 2.04469e-15 -9.20845 2.89778
    endloop
  endfacet
  facet normal -0.0111328 0.130735 -0.991355
    outer loop
      vertex 2.38894e-15 -10.7588 2.89778
      vertex 2.23058e-15 -10.0457 2.99182
      vertex 2.00692 -10.5879 2.89778
    endloop
  endfacet
  facet normal -0.011133 0.130734 -0.991355
    outer loop
      vertex 2.23058e-15 -10.0457 2.99182
      vertex 1.86232 -9.82508 3
      vertex 2.00692 -10.5879 2.89778
    endloop
  endfacet
  facet normal -0.0111229 0.130649 -0.991366
    outer loop
      vertex 1.86232 -9.82508 3
      vertex 2.23058e-15 -10.0457 2.99182
      vertex 2.21681e-15 -9.98363 3
    endloop
  endfacet
  facet normal -0.0326174 0.382979 -0.923181
    outer loop
      vertex 2.54933e-15 -11.4812 2.59808
      vertex 2.40189e-15 -10.8171 2.87358
      vertex 2.14166 -11.2988 2.59808
    endloop
  endfacet
  facet normal -0.0326095 0.383008 -0.923169
    outer loop
      vertex 2.40189e-15 -10.8171 2.87358
      vertex 2.00692 -10.5879 2.89778
      vertex 2.14166 -11.2988 2.59808
    endloop
  endfacet
  facet normal -0.0326293 0.383174 -0.9231
    outer loop
      vertex 2.00692 -10.5879 2.89778
      vertex 2.40189e-15 -10.8171 2.87358
      vertex 2.38894e-15 -10.7588 2.89778
    endloop
  endfacet
  facet normal -0.0518133 0.608542 -0.791828
    outer loop
      vertex 2.68707e-15 -12.1015 2.12132
      vertex 2.56058e-15 -11.5318 2.55915
      vertex 2.25737 -11.9093 2.12132
    endloop
  endfacet
  facet normal -0.0518126 0.608544 -0.791827
    outer loop
      vertex 2.56058e-15 -11.5318 2.55915
      vertex 2.14166 -11.2988 2.59808
      vertex 2.25737 -11.9093 2.12132
    endloop
  endfacet
  facet normal -0.0518635 0.608958 -0.791505
    outer loop
      vertex 2.14166 -11.2988 2.59808
      vertex 2.56058e-15 -11.5318 2.55915
      vertex 2.54933e-15 -11.4812 2.59808
    endloop
  endfacet
  facet normal -0.067444 0.791965 -0.606831
    outer loop
      vertex 2.79276e-15 -12.5775 1.5
      vertex 2.69581e-15 -12.1408 2.06993
      vertex 2.34616 -12.3777 1.5
    endloop
  endfacet
  facet normal -0.067479 0.792534 -0.606083
    outer loop
      vertex 2.25737 -11.9093 2.12132
      vertex 2.69581e-15 -12.1408 2.06993
      vertex 2.68707e-15 -12.1015 2.12132
    endloop
  endfacet
  facet normal -0.0674134 0.79204 -0.606736
    outer loop
      vertex 2.69581e-15 -12.1408 2.06993
      vertex 2.25737 -11.9093 2.12132
      vertex 2.34616 -12.3777 1.5
    endloop
  endfacet
  facet normal -0.0784307 0.921214 -0.381069
    outer loop
      vertex 2.85919e-15 -12.8767 0.776457
      vertex 2.79833e-15 -12.6025 1.43932
      vertex 2.40197 -12.6722 0.776457
    endloop
  endfacet
  facet normal -0.0784966 0.921749 -0.379758
    outer loop
      vertex 2.34616 -12.3777 1.5
      vertex 2.79833e-15 -12.6025 1.43932
      vertex 2.79276e-15 -12.5775 1.5
    endloop
  endfacet
  facet normal -0.078415 0.921238 -0.381015
    outer loop
      vertex 2.79833e-15 -12.6025 1.43932
      vertex 2.34616 -12.3777 1.5
      vertex 2.40197 -12.6722 0.776457
    endloop
  endfacet
  facet normal -0.0841044 0.987955 -0.12989
    outer loop
      vertex 2.88185e-15 -12.9787 0
      vertex 2.86112e-15 -12.8853 0.710406
      vertex 2.42101 -12.7726 0
    endloop
  endfacet
  facet normal -0.0841266 0.988115 -0.128655
    outer loop
      vertex 2.40197 -12.6722 0.776457
      vertex 2.86112e-15 -12.8853 0.710406
      vertex 2.85919e-15 -12.8767 0.776457
    endloop
  endfacet
  facet normal -0.0840817 0.987967 -0.129811
    outer loop
      vertex 2.86112e-15 -12.8853 0.710406
      vertex 2.40197 -12.6722 0.776457
      vertex 2.42101 -12.7726 0
    endloop
  endfacet
  facet normal 0.283259 -0.950212 -0.12985
    outer loop
      vertex 1.32266 -6.97799 0.776457
      vertex 1.30362 -6.87756 0
      vertex 2.714 -6.56323 0.776457
    endloop
  endfacet
  facet normal 0.28326 -0.950212 -0.129851
    outer loop
      vertex 2.714 -6.56323 0.776457
      vertex 1.30362 -6.87756 0
      vertex 2.67493 -6.46877 0
    endloop
  endfacet
  facet normal 0.264133 -0.886056 -0.380971
    outer loop
      vertex 1.37847 -7.27245 1.5
      vertex 1.32266 -6.97799 0.776457
      vertex 2.82852 -6.84019 1.5
    endloop
  endfacet
  facet normal 0.264134 -0.886055 -0.380973
    outer loop
      vertex 2.82852 -6.84019 1.5
      vertex 1.32266 -6.97799 0.776457
      vertex 2.714 -6.56323 0.776457
    endloop
  endfacet
  facet normal 0.227085 -0.761763 -0.606753
    outer loop
      vertex 1.46726 -7.74087 2.12132
      vertex 1.37847 -7.27245 1.5
      vertex 3.01071 -7.28076 2.12132
    endloop
  endfacet
  facet normal 0.227083 -0.761768 -0.606748
    outer loop
      vertex 3.01071 -7.28076 2.12132
      vertex 1.37847 -7.27245 1.5
      vertex 2.82852 -6.84019 1.5
    endloop
  endfacet
  facet normal 0.174487 -0.585323 -0.791803
    outer loop
      vertex 1.58297 -8.35132 2.59808
      vertex 1.46726 -7.74087 2.12132
      vertex 3.24813 -7.85493 2.59808
    endloop
  endfacet
  facet normal 0.174487 -0.585321 -0.791804
    outer loop
      vertex 3.24813 -7.85493 2.59808
      vertex 1.46726 -7.74087 2.12132
      vertex 3.01071 -7.28076 2.12132
    endloop
  endfacet
  facet normal 0.109815 -0.368383 -0.923165
    outer loop
      vertex 1.71771 -9.0622 2.89778
      vertex 1.58297 -8.35132 2.59808
      vertex 3.52462 -8.52356 2.89778
    endloop
  endfacet
  facet normal 0.109815 -0.36838 -0.923167
    outer loop
      vertex 3.52462 -8.52356 2.89778
      vertex 1.58297 -8.35132 2.59808
      vertex 3.24813 -7.85493 2.59808
    endloop
  endfacet
  facet normal 0.0374805 -0.125729 -0.991356
    outer loop
      vertex 1.86232 -9.82508 3
      vertex 1.71771 -9.0622 2.89778
      vertex 3.82133 -9.24109 3
    endloop
  endfacet
  facet normal 0.0374804 -0.125731 -0.991356
    outer loop
      vertex 3.82133 -9.24109 3
      vertex 1.71771 -9.0622 2.89778
      vertex 3.52462 -8.52356 2.89778
    endloop
  endfacet
  facet normal -0.0374803 0.12574 -0.991355
    outer loop
      vertex 2.00692 -10.5879 2.89778
      vertex 1.86232 -9.82508 3
      vertex 4.11804 -9.95862 2.89778
    endloop
  endfacet
  facet normal -0.0374809 0.125731 -0.991356
    outer loop
      vertex 4.11804 -9.95862 2.89778
      vertex 1.86232 -9.82508 3
      vertex 3.82133 -9.24109 3
    endloop
  endfacet
  facet normal -0.1098 0.368377 -0.92317
    outer loop
      vertex 2.14166 -11.2988 2.59808
      vertex 2.00692 -10.5879 2.89778
      vertex 4.39453 -10.6273 2.59808
    endloop
  endfacet
  facet normal -0.109801 0.368363 -0.923175
    outer loop
      vertex 4.39453 -10.6273 2.59808
      vertex 2.00692 -10.5879 2.89778
      vertex 4.11804 -9.95862 2.89778
    endloop
  endfacet
  facet normal -0.174484 0.585293 -0.791826
    outer loop
      vertex 2.25737 -11.9093 2.12132
      vertex 2.14166 -11.2988 2.59808
      vertex 4.63196 -11.2014 2.12132
    endloop
  endfacet
  facet normal -0.174477 0.585367 -0.791772
    outer loop
      vertex 4.63196 -11.2014 2.12132
      vertex 2.14166 -11.2988 2.59808
      vertex 4.39453 -10.6273 2.59808
    endloop
  endfacet
  facet normal -0.227084 0.761776 -0.606738
    outer loop
      vertex 2.34616 -12.3777 1.5
      vertex 2.25737 -11.9093 2.12132
      vertex 4.81414 -11.642 1.5
    endloop
  endfacet
  facet normal -0.227089 0.761749 -0.606769
    outer loop
      vertex 4.81414 -11.642 1.5
      vertex 2.25737 -11.9093 2.12132
      vertex 4.63196 -11.2014 2.12132
    endloop
  endfacet
  facet normal -0.264158 0.886031 -0.381012
    outer loop
      vertex 2.40197 -12.6722 0.776457
      vertex 2.34616 -12.3777 1.5
      vertex 4.92867 -11.9189 0.776457
    endloop
  endfacet
  facet normal -0.264138 0.886079 -0.380913
    outer loop
      vertex 4.92867 -11.9189 0.776457
      vertex 2.34616 -12.3777 1.5
      vertex 4.81414 -11.642 1.5
    endloop
  endfacet
  facet normal -0.283267 0.950215 -0.129814
    outer loop
      vertex 2.42101 -12.7726 0
      vertex 2.40197 -12.6722 0.776457
      vertex 4.96773 -12.0134 0
    endloop
  endfacet
  facet normal -0.283288 0.950197 -0.129896
    outer loop
      vertex 4.96773 -12.0134 0
      vertex 2.40197 -12.6722 0.776457
      vertex 4.92867 -11.9189 0.776457
    endloop
  endfacet
  facet normal 0.470567 -0.872757 -0.129854
    outer loop
      vertex 2.714 -6.56323 0.776457
      vertex 2.67493 -6.46877 0
      vertex 3.99192 -5.87421 0.776457
    endloop
  endfacet
  facet normal 0.470567 -0.872757 -0.129854
    outer loop
      vertex 3.99192 -5.87421 0.776457
      vertex 2.67493 -6.46877 0
      vertex 3.93447 -5.78966 0
    endloop
  endfacet
  facet normal 0.438794 -0.813831 -0.380972
    outer loop
      vertex 2.82852 -6.84019 1.5
      vertex 2.714 -6.56323 0.776457
      vertex 4.16038 -6.12209 1.5
    endloop
  endfacet
  facet normal 0.438795 -0.813829 -0.380974
    outer loop
      vertex 4.16038 -6.12209 1.5
      vertex 2.714 -6.56323 0.776457
      vertex 3.99192 -5.87421 0.776457
    endloop
  endfacet
  facet normal 0.377246 -0.699673 -0.606749
    outer loop
      vertex 3.01071 -7.28076 2.12132
      vertex 2.82852 -6.84019 1.5
      vertex 4.42834 -6.51641 2.12132
    endloop
  endfacet
  facet normal 0.377245 -0.699676 -0.606745
    outer loop
      vertex 4.42834 -6.51641 2.12132
      vertex 2.82852 -6.84019 1.5
      vertex 4.16038 -6.12209 1.5
    endloop
  endfacet
  facet normal 0.289865 -0.537612 -0.791803
    outer loop
      vertex 3.24813 -7.85493 2.59808
      vertex 3.01071 -7.28076 2.12132
      vertex 4.77757 -7.0303 2.59808
    endloop
  endfacet
  facet normal 0.289865 -0.537608 -0.791805
    outer loop
      vertex 4.77757 -7.0303 2.59808
      vertex 3.01071 -7.28076 2.12132
      vertex 4.42834 -6.51641 2.12132
    endloop
  endfacet
  facet normal 0.182429 -0.338353 -0.923167
    outer loop
      vertex 3.52462 -8.52356 2.89778
      vertex 3.24813 -7.85493 2.59808
      vertex 5.18425 -7.62874 2.89778
    endloop
  endfacet
  facet normal 0.182429 -0.338351 -0.923167
    outer loop
      vertex 5.18425 -7.62874 2.89778
      vertex 3.24813 -7.85493 2.59808
      vertex 4.77757 -7.0303 2.59808
    endloop
  endfacet
  facet normal 0.0622645 -0.115482 -0.991356
    outer loop
      vertex 3.82133 -9.24109 3
      vertex 3.52462 -8.52356 2.89778
      vertex 5.62067 -8.27094 3
    endloop
  endfacet
  facet normal 0.0622646 -0.115483 -0.991356
    outer loop
      vertex 5.62067 -8.27094 3
      vertex 3.52462 -8.52356 2.89778
      vertex 5.18425 -7.62874 2.89778
    endloop
  endfacet
  facet normal -0.0622646 0.115482 -0.991356
    outer loop
      vertex 4.11804 -9.95862 2.89778
      vertex 3.82133 -9.24109 3
      vertex 6.05709 -8.91314 2.89778
    endloop
  endfacet
  facet normal -0.0622647 0.115483 -0.991356
    outer loop
      vertex 6.05709 -8.91314 2.89778
      vertex 3.82133 -9.24109 3
      vertex 5.62067 -8.27094 3
    endloop
  endfacet
  facet normal -0.182427 0.338332 -0.923175
    outer loop
      vertex 4.39453 -10.6273 2.59808
      vertex 4.11804 -9.95862 2.89778
      vertex 6.46376 -9.51158 2.59808
    endloop
  endfacet
  facet normal -0.18243 0.338353 -0.923166
    outer loop
      vertex 6.46376 -9.51158 2.59808
      vertex 4.11804 -9.95862 2.89778
      vertex 6.05709 -8.91314 2.89778
    endloop
  endfacet
  facet normal -0.289872 0.537647 -0.791777
    outer loop
      vertex 4.63196 -11.2014 2.12132
      vertex 4.39453 -10.6273 2.59808
      vertex 6.81299 -10.0255 2.12132
    endloop
  endfacet
  facet normal -0.289866 0.537589 -0.791818
    outer loop
      vertex 6.81299 -10.0255 2.12132
      vertex 4.39453 -10.6273 2.59808
      vertex 6.46376 -9.51158 2.59808
    endloop
  endfacet
  facet normal -0.377236 0.699662 -0.606766
    outer loop
      vertex 4.81414 -11.642 1.5
      vertex 4.63196 -11.2014 2.12132
      vertex 7.08096 -10.4198 1.5
    endloop
  endfacet
  facet normal -0.377237 0.69969 -0.606734
    outer loop
      vertex 7.08096 -10.4198 1.5
      vertex 4.63196 -11.2014 2.12132
      vertex 6.81299 -10.0255 2.12132
    endloop
  endfacet
  facet normal -0.438783 0.813861 -0.38092
    outer loop
      vertex 4.92867 -11.9189 0.776457
      vertex 4.81414 -11.642 1.5
      vertex 7.24941 -10.6677 0.776457
    endloop
  endfacet
  facet normal -0.43879 0.813825 -0.380988
    outer loop
      vertex 7.24941 -10.6677 0.776457
      vertex 4.81414 -11.642 1.5
      vertex 7.08096 -10.4198 1.5
    endloop
  endfacet
  facet normal -0.470566 0.872752 -0.129892
    outer loop
      vertex 4.96773 -12.0134 0
      vertex 4.92867 -11.9189 0.776457
      vertex 7.30686 -10.7522 0
    endloop
  endfacet
  facet normal -0.470547 0.872776 -0.129798
    outer loop
      vertex 7.30686 -10.7522 0
      vertex 4.92867 -11.9189 0.776457
      vertex 7.24941 -10.6677 0.776457
    endloop
  endfacet
  facet normal 0.638206 -0.758835 -0.129852
    outer loop
      vertex 3.99192 -5.87421 0.776457
      vertex 3.93447 -5.78966 0
      vertex 5.10304 -4.93972 0.776457
    endloop
  endfacet
  facet normal 0.638209 -0.758832 -0.129858
    outer loop
      vertex 5.10304 -4.93972 0.776457
      vertex 3.93447 -5.78966 0
      vertex 5.02959 -4.86862 0
    endloop
  endfacet
  facet normal 0.595119 -0.707595 -0.380976
    outer loop
      vertex 4.16038 -6.12209 1.5
      vertex 3.99192 -5.87421 0.776457
      vertex 5.31838 -5.14816 1.5
    endloop
  endfacet
  facet normal 0.595117 -0.707602 -0.380966
    outer loop
      vertex 5.31838 -5.14816 1.5
      vertex 3.99192 -5.87421 0.776457
      vertex 5.10304 -4.93972 0.776457
    endloop
  endfacet
  facet normal 0.511643 -0.608344 -0.606744
    outer loop
      vertex 4.42834 -6.51641 2.12132
      vertex 4.16038 -6.12209 1.5
      vertex 5.66093 -5.47975 2.12132
    endloop
  endfacet
  facet normal 0.511643 -0.608342 -0.606746
    outer loop
      vertex 5.66093 -5.47975 2.12132
      vertex 4.16038 -6.12209 1.5
      vertex 5.31838 -5.14816 1.5
    endloop
  endfacet
  facet normal 0.39313 -0.467432 -0.791806
    outer loop
      vertex 4.77757 -7.0303 2.59808
      vertex 4.42834 -6.51641 2.12132
      vertex 6.10736 -5.91189 2.59808
    endloop
  endfacet
  facet normal 0.39313 -0.467432 -0.791805
    outer loop
      vertex 6.10736 -5.91189 2.59808
      vertex 4.42834 -6.51641 2.12132
      vertex 5.66093 -5.47975 2.12132
    endloop
  endfacet
  facet normal 0.247422 -0.294184 -0.923167
    outer loop
      vertex 5.18425 -7.62874 2.89778
      vertex 4.77757 -7.0303 2.59808
      vertex 6.62723 -6.41513 2.89778
    endloop
  endfacet
  facet normal 0.247422 -0.294185 -0.923167
    outer loop
      vertex 6.62723 -6.41513 2.89778
      vertex 4.77757 -7.0303 2.59808
      vertex 6.10736 -5.91189 2.59808
    endloop
  endfacet
  facet normal 0.0844477 -0.100408 -0.991356
    outer loop
      vertex 5.62067 -8.27094 3
      vertex 5.18425 -7.62874 2.89778
      vertex 7.18512 -6.95516 3
    endloop
  endfacet
  facet normal 0.0844481 -0.100409 -0.991356
    outer loop
      vertex 7.18512 -6.95516 3
      vertex 5.18425 -7.62874 2.89778
      vertex 6.62723 -6.41513 2.89778
    endloop
  endfacet
  facet normal -0.0844473 0.100408 -0.991356
    outer loop
      vertex 6.05709 -8.91314 2.89778
      vertex 5.62067 -8.27094 3
      vertex 7.74302 -7.4952 2.89778
    endloop
  endfacet
  facet normal -0.0844469 0.100407 -0.991356
    outer loop
      vertex 7.74302 -7.4952 2.89778
      vertex 5.62067 -8.27094 3
      vertex 7.18512 -6.95516 3
    endloop
  endfacet
  facet normal -0.247423 0.294187 -0.923166
    outer loop
      vertex 6.46376 -9.51158 2.59808
      vertex 6.05709 -8.91314 2.89778
      vertex 8.26289 -7.99844 2.59808
    endloop
  endfacet
  facet normal -0.247422 0.294185 -0.923167
    outer loop
      vertex 8.26289 -7.99844 2.59808
      vertex 6.05709 -8.91314 2.89778
      vertex 7.74302 -7.4952 2.89778
    endloop
  endfacet
  facet normal -0.393125 0.467418 -0.791816
    outer loop
      vertex 6.81299 -10.0255 2.12132
      vertex 6.46376 -9.51158 2.59808
      vertex 8.70932 -8.43058 2.12132
    endloop
  endfacet
  facet normal -0.39313 0.467433 -0.791805
    outer loop
      vertex 8.70932 -8.43058 2.12132
      vertex 6.46376 -9.51158 2.59808
      vertex 8.26289 -7.99844 2.59808
    endloop
  endfacet
  facet normal -0.511649 0.608347 -0.606737
    outer loop
      vertex 7.08096 -10.4198 1.5
      vertex 6.81299 -10.0255 2.12132
      vertex 9.05187 -8.76217 1.5
    endloop
  endfacet
  facet normal -0.511647 0.608339 -0.606746
    outer loop
      vertex 9.05187 -8.76217 1.5
      vertex 6.81299 -10.0255 2.12132
      vertex 8.70932 -8.43058 2.12132
    endloop
  endfacet
  facet normal -0.595123 0.707587 -0.380985
    outer loop
      vertex 7.24941 -10.6677 0.776457
      vertex 7.08096 -10.4198 1.5
      vertex 9.26721 -8.97061 0.776457
    endloop
  endfacet
  facet normal -0.595123 0.707597 -0.380966
    outer loop
      vertex 9.26721 -8.97061 0.776457
      vertex 7.08096 -10.4198 1.5
      vertex 9.05187 -8.76217 1.5
    endloop
  endfacet
  facet normal -0.638209 0.758841 -0.129804
    outer loop
      vertex 7.30686 -10.7522 0
      vertex 7.24941 -10.6677 0.776457
      vertex 9.34066 -9.04171 0
    endloop
  endfacet
  facet normal -0.638217 0.758825 -0.129858
    outer loop
      vertex 9.34066 -9.04171 0
      vertex 7.24941 -10.6677 0.776457
      vertex 9.26721 -8.97061 0.776457
    endloop
  endfacet
  facet normal 0.779185 -0.613195 -0.129858
    outer loop
      vertex 5.10304 -4.93972 0.776457
      vertex 5.02959 -4.86862 0
      vertex 6.00091 -3.7988 0.776457
    endloop
  endfacet
  facet normal 0.779182 -0.6132 -0.129848
    outer loop
      vertex 6.00091 -3.7988 0.776457
      vertex 5.02959 -4.86862 0
      vertex 5.91454 -3.74413 0
    endloop
  endfacet
  facet normal 0.726577 -0.571796 -0.380967
    outer loop
      vertex 5.31838 -5.14816 1.5
      vertex 5.10304 -4.93972 0.776457
      vertex 6.25413 -3.95911 1.5
    endloop
  endfacet
  facet normal 0.726577 -0.571794 -0.38097
    outer loop
      vertex 6.25413 -3.95911 1.5
      vertex 5.10304 -4.93972 0.776457
      vertex 6.00091 -3.7988 0.776457
    endloop
  endfacet
  facet normal 0.624658 -0.491591 -0.606746
    outer loop
      vertex 5.66093 -5.47975 2.12132
      vertex 5.31838 -5.14816 1.5
      vertex 6.65696 -4.21411 2.12132
    endloop
  endfacet
  facet normal 0.624657 -0.491588 -0.606749
    outer loop
      vertex 6.65696 -4.21411 2.12132
      vertex 5.31838 -5.14816 1.5
      vertex 6.25413 -3.95911 1.5
    endloop
  endfacet
  facet normal 0.479969 -0.377722 -0.791806
    outer loop
      vertex 6.10736 -5.91189 2.59808
      vertex 5.66093 -5.47975 2.12132
      vertex 7.18193 -4.54644 2.59808
    endloop
  endfacet
  facet normal 0.479971 -0.377726 -0.791803
    outer loop
      vertex 7.18193 -4.54644 2.59808
      vertex 5.66093 -5.47975 2.12132
      vertex 6.65696 -4.21411 2.12132
    endloop
  endfacet
  facet normal 0.302076 -0.237725 -0.923167
    outer loop
      vertex 6.62723 -6.41513 2.89778
      vertex 6.10736 -5.91189 2.59808
      vertex 7.79328 -4.93344 2.89778
    endloop
  endfacet
  facet normal 0.302075 -0.237725 -0.923167
    outer loop
      vertex 7.79328 -4.93344 2.89778
      vertex 6.10736 -5.91189 2.59808
      vertex 7.18193 -4.54644 2.59808
    endloop
  endfacet
  facet normal 0.103101 -0.0811385 -0.991356
    outer loop
      vertex 7.18512 -6.95516 3
      vertex 6.62723 -6.41513 2.89778
      vertex 8.44933 -5.34875 3
    endloop
  endfacet
  facet normal 0.103101 -0.0811375 -0.991356
    outer loop
      vertex 8.44933 -5.34875 3
      vertex 6.62723 -6.41513 2.89778
      vertex 7.79328 -4.93344 2.89778
    endloop
  endfacet
  facet normal -0.1031 0.0811367 -0.991356
    outer loop
      vertex 7.74302 -7.4952 2.89778
      vertex 7.18512 -6.95516 3
      vertex 9.10538 -5.76406 2.89778
    endloop
  endfacet
  facet normal -0.1031 0.0811378 -0.991356
    outer loop
      vertex 9.10538 -5.76406 2.89778
      vertex 7.18512 -6.95516 3
      vertex 8.44933 -5.34875 3
    endloop
  endfacet
  facet normal -0.302076 0.237726 -0.923167
    outer loop
      vertex 8.26289 -7.99844 2.59808
      vertex 7.74302 -7.4952 2.89778
      vertex 9.71673 -6.15106 2.59808
    endloop
  endfacet
  facet normal -0.302075 0.237725 -0.923167
    outer loop
      vertex 9.71673 -6.15106 2.59808
      vertex 7.74302 -7.4952 2.89778
      vertex 9.10538 -5.76406 2.89778
    endloop
  endfacet
  facet normal -0.479969 0.377721 -0.791806
    outer loop
      vertex 8.70932 -8.43058 2.12132
      vertex 8.26289 -7.99844 2.59808
      vertex 10.2417 -6.48339 2.12132
    endloop
  endfacet
  facet normal -0.479971 0.377725 -0.791803
    outer loop
      vertex 10.2417 -6.48339 2.12132
      vertex 8.26289 -7.99844 2.59808
      vertex 9.71673 -6.15106 2.59808
    endloop
  endfacet
  facet normal -0.624664 0.491584 -0.606745
    outer loop
      vertex 9.05187 -8.76217 1.5
      vertex 8.70932 -8.43058 2.12132
      vertex 10.6445 -6.73839 1.5
    endloop
  endfacet
  facet normal -0.624669 0.491596 -0.60673
    outer loop
      vertex 10.6445 -6.73839 1.5
      vertex 8.70932 -8.43058 2.12132
      vertex 10.2417 -6.48339 2.12132
    endloop
  endfacet
  facet normal -0.726567 0.571807 -0.380968
    outer loop
      vertex 9.26721 -8.97061 0.776457
      vertex 9.05187 -8.76217 1.5
      vertex 10.8978 -6.8987 0.776457
    endloop
  endfacet
  facet normal -0.726559 0.571771 -0.381039
    outer loop
      vertex 10.8978 -6.8987 0.776457
      vertex 9.05187 -8.76217 1.5
      vertex 10.6445 -6.73839 1.5
    endloop
  endfacet
  facet normal -0.779188 0.61319 -0.129858
    outer loop
      vertex 9.34066 -9.04171 0
      vertex 9.26721 -8.97061 0.776457
      vertex 10.9841 -6.95337 0
    endloop
  endfacet
  facet normal -0.779182 0.613215 -0.129779
    outer loop
      vertex 10.9841 -6.95337 0
      vertex 9.26721 -8.97061 0.776457
      vertex 10.8978 -6.8987 0.776457
    endloop
  endfacet
  facet normal 0.887598 -0.441938 -0.12985
    outer loop
      vertex 6.00091 -3.7988 0.776457
      vertex 5.91454 -3.74413 0
      vertex 6.64801 -2.49915 0.776457
    endloop
  endfacet
  facet normal 0.887598 -0.441938 -0.129849
    outer loop
      vertex 6.64801 -2.49915 0.776457
      vertex 5.91454 -3.74413 0
      vertex 6.55233 -2.46318 0
    endloop
  endfacet
  facet normal 0.82767 -0.4121 -0.380967
    outer loop
      vertex 6.25413 -3.95911 1.5
      vertex 6.00091 -3.7988 0.776457
      vertex 6.92854 -2.60461 1.5
    endloop
  endfacet
  facet normal 0.82767 -0.4121 -0.380967
    outer loop
      vertex 6.92854 -2.60461 1.5
      vertex 6.00091 -3.7988 0.776457
      vertex 6.64801 -2.49915 0.776457
    endloop
  endfacet
  facet normal 0.711569 -0.354294 -0.60675
    outer loop
      vertex 6.65696 -4.21411 2.12132
      vertex 6.25413 -3.95911 1.5
      vertex 7.37481 -2.77237 2.12132
    endloop
  endfacet
  facet normal 0.711568 -0.354292 -0.606752
    outer loop
      vertex 7.37481 -2.77237 2.12132
      vertex 6.25413 -3.95911 1.5
      vertex 6.92854 -2.60461 1.5
    endloop
  endfacet
  facet normal 0.546754 -0.272231 -0.791802
    outer loop
      vertex 7.18193 -4.54644 2.59808
      vertex 6.65696 -4.21411 2.12132
      vertex 7.95639 -2.991 2.59808
    endloop
  endfacet
  facet normal 0.546754 -0.272232 -0.791802
    outer loop
      vertex 7.95639 -2.991 2.59808
      vertex 6.65696 -4.21411 2.12132
      vertex 7.37481 -2.77237 2.12132
    endloop
  endfacet
  facet normal 0.344105 -0.171331 -0.923167
    outer loop
      vertex 7.79328 -4.93344 2.89778
      vertex 7.18193 -4.54644 2.59808
      vertex 8.63366 -3.2456 2.89778
    endloop
  endfacet
  facet normal 0.344105 -0.171331 -0.923167
    outer loop
      vertex 8.63366 -3.2456 2.89778
      vertex 7.18193 -4.54644 2.59808
      vertex 7.95639 -2.991 2.59808
    endloop
  endfacet
  facet normal 0.117446 -0.0584768 -0.991356
    outer loop
      vertex 8.44933 -5.34875 3
      vertex 7.79328 -4.93344 2.89778
      vertex 9.36046 -3.51882 3
    endloop
  endfacet
  facet normal 0.117446 -0.0584765 -0.991356
    outer loop
      vertex 9.36046 -3.51882 3
      vertex 7.79328 -4.93344 2.89778
      vertex 8.63366 -3.2456 2.89778
    endloop
  endfacet
  facet normal -0.117445 0.0584788 -0.991356
    outer loop
      vertex 9.10538 -5.76406 2.89778
      vertex 8.44933 -5.34875 3
      vertex 10.0873 -3.79204 2.89778
    endloop
  endfacet
  facet normal -0.11744 0.058474 -0.991357
    outer loop
      vertex 10.0873 -3.79204 2.89778
      vertex 8.44933 -5.34875 3
      vertex 9.36046 -3.51882 3
    endloop
  endfacet
  facet normal -0.344107 0.171327 -0.923167
    outer loop
      vertex 9.71673 -6.15106 2.59808
      vertex 9.10538 -5.76406 2.89778
      vertex 10.7645 -4.04664 2.59808
    endloop
  endfacet
  facet normal -0.344128 0.17135 -0.923155
    outer loop
      vertex 10.7645 -4.04664 2.59808
      vertex 9.10538 -5.76406 2.89778
      vertex 10.0873 -3.79204 2.89778
    endloop
  endfacet
  facet normal -0.546754 0.27223 -0.791802
    outer loop
      vertex 10.2417 -6.48339 2.12132
      vertex 9.71673 -6.15106 2.59808
      vertex 11.3461 -4.26528 2.12132
    endloop
  endfacet
  facet normal -0.546745 0.272219 -0.791813
    outer loop
      vertex 11.3461 -4.26528 2.12132
      vertex 9.71673 -6.15106 2.59808
      vertex 10.7645 -4.04664 2.59808
    endloop
  endfacet
  facet normal -0.711576 0.354314 -0.606729
    outer loop
      vertex 10.6445 -6.73839 1.5
      vertex 10.2417 -6.48339 2.12132
      vertex 11.7924 -4.43304 1.5
    endloop
  endfacet
  facet normal -0.711553 0.354283 -0.606774
    outer loop
      vertex 11.7924 -4.43304 1.5
      vertex 10.2417 -6.48339 2.12132
      vertex 11.3461 -4.26528 2.12132
    endloop
  endfacet
  facet normal -0.827649 0.412071 -0.381045
    outer loop
      vertex 10.8978 -6.8987 0.776457
      vertex 10.6445 -6.73839 1.5
      vertex 12.0729 -4.5385 0.776457
    endloop
  endfacet
  facet normal -0.827673 0.412122 -0.380937
    outer loop
      vertex 12.0729 -4.5385 0.776457
      vertex 10.6445 -6.73839 1.5
      vertex 11.7924 -4.43304 1.5
    endloop
  endfacet
  facet normal -0.887601 0.441954 -0.129771
    outer loop
      vertex 10.9841 -6.95337 0
      vertex 10.8978 -6.8987 0.776457
      vertex 12.1686 -4.57447 0
    endloop
  endfacet
  facet normal -0.887603 0.441921 -0.129871
    outer loop
      vertex 12.1686 -4.57447 0
      vertex 10.8978 -6.8987 0.776457
      vertex 12.0729 -4.5385 0.776457
    endloop
  endfacet
  facet normal 0.95892 -0.252213 -0.129848
    outer loop
      vertex 6.64801 -2.49915 0.776457
      vertex 6.55233 -2.46318 0
      vertex 7.01731 -1.09506 0.776457
    endloop
  endfacet
  facet normal 0.95892 -0.25221 -0.129854
    outer loop
      vertex 7.01731 -1.09506 0.776457
      vertex 6.55233 -2.46318 0
      vertex 6.91631 -1.0793 0
    endloop
  endfacet
  facet normal 0.894176 -0.235188 -0.380967
    outer loop
      vertex 6.92854 -2.60461 1.5
      vertex 6.64801 -2.49915 0.776457
      vertex 7.31343 -1.14127 1.5
    endloop
  endfacet
  facet normal 0.894174 -0.235183 -0.380974
    outer loop
      vertex 7.31343 -1.14127 1.5
      vertex 6.64801 -2.49915 0.776457
      vertex 7.01731 -1.09506 0.776457
    endloop
  endfacet
  facet normal 0.768745 -0.202192 -0.606753
    outer loop
      vertex 7.37481 -2.77237 2.12132
      vertex 6.92854 -2.60461 1.5
      vertex 7.78448 -1.21478 2.12132
    endloop
  endfacet
  facet normal 0.76875 -0.202198 -0.606745
    outer loop
      vertex 7.78448 -1.21478 2.12132
      vertex 6.92854 -2.60461 1.5
      vertex 7.31343 -1.14127 1.5
    endloop
  endfacet
  facet normal 0.590689 -0.155361 -0.791802
    outer loop
      vertex 7.95639 -2.991 2.59808
      vertex 7.37481 -2.77237 2.12132
      vertex 8.39837 -1.31057 2.59808
    endloop
  endfacet
  facet normal 0.590688 -0.15536 -0.791802
    outer loop
      vertex 8.39837 -1.31057 2.59808
      vertex 7.37481 -2.77237 2.12132
      vertex 7.78448 -1.21478 2.12132
    endloop
  endfacet
  facet normal 0.371756 -0.0977773 -0.923167
    outer loop
      vertex 8.63366 -3.2456 2.89778
      vertex 7.95639 -2.991 2.59808
      vertex 9.11326 -1.42213 2.89778
    endloop
  endfacet
  facet normal 0.371756 -0.0977779 -0.923167
    outer loop
      vertex 9.11326 -1.42213 2.89778
      vertex 7.95639 -2.991 2.59808
      vertex 8.39837 -1.31057 2.59808
    endloop
  endfacet
  facet normal 0.126883 -0.0333725 -0.991356
    outer loop
      vertex 9.36046 -3.51882 3
      vertex 8.63366 -3.2456 2.89778
      vertex 9.88044 -1.54185 3
    endloop
  endfacet
  facet normal 0.126882 -0.0333718 -0.991356
    outer loop
      vertex 9.88044 -1.54185 3
      vertex 8.63366 -3.2456 2.89778
      vertex 9.11326 -1.42213 2.89778
    endloop
  endfacet
  facet normal -0.126878 0.033368 -0.991357
    outer loop
      vertex 10.0873 -3.79204 2.89778
      vertex 9.36046 -3.51882 3
      vertex 10.6476 -1.66157 2.89778
    endloop
  endfacet
  facet normal -0.126885 0.0333731 -0.991356
    outer loop
      vertex 10.6476 -1.66157 2.89778
      vertex 9.36046 -3.51882 3
      vertex 9.88044 -1.54185 3
    endloop
  endfacet
  facet normal -0.371784 0.0977901 -0.923154
    outer loop
      vertex 10.7645 -4.04664 2.59808
      vertex 10.0873 -3.79204 2.89778
      vertex 11.3625 -1.77313 2.59808
    endloop
  endfacet
  facet normal -0.371754 0.0977688 -0.923169
    outer loop
      vertex 11.3625 -1.77313 2.59808
      vertex 10.0873 -3.79204 2.89778
      vertex 10.6476 -1.66157 2.89778
    endloop
  endfacet
  facet normal -0.590674 0.155362 -0.791812
    outer loop
      vertex 11.3461 -4.26528 2.12132
      vertex 10.7645 -4.04664 2.59808
      vertex 11.9764 -1.86893 2.12132
    endloop
  endfacet
  facet normal -0.590679 0.155366 -0.791808
    outer loop
      vertex 11.9764 -1.86893 2.12132
      vertex 10.7645 -4.04664 2.59808
      vertex 11.3625 -1.77313 2.59808
    endloop
  endfacet
  facet normal -0.768734 0.202168 -0.606775
    outer loop
      vertex 11.7924 -4.43304 1.5
      vertex 11.3461 -4.26528 2.12132
      vertex 12.4474 -1.94244 1.5
    endloop
  endfacet
  facet normal -0.768778 0.202208 -0.606706
    outer loop
      vertex 12.4474 -1.94244 1.5
      vertex 11.3461 -4.26528 2.12132
      vertex 11.9764 -1.86893 2.12132
    endloop
  endfacet
  facet normal -0.894186 0.235201 -0.380936
    outer loop
      vertex 12.0729 -4.5385 0.776457
      vertex 11.7924 -4.43304 1.5
      vertex 12.7436 -1.98864 0.776457
    endloop
  endfacet
  facet normal -0.894148 0.235151 -0.381056
    outer loop
      vertex 12.7436 -1.98864 0.776457
      vertex 11.7924 -4.43304 1.5
      vertex 12.4474 -1.94244 1.5
    endloop
  endfacet
  facet normal -0.958915 0.252222 -0.129873
    outer loop
      vertex 12.1686 -4.57447 0
      vertex 12.0729 -4.5385 0.776457
      vertex 12.8446 -2.00441 0
    endloop
  endfacet
  facet normal -0.958915 0.252227 -0.129857
    outer loop
      vertex 12.8446 -2.00441 0
      vertex 12.0729 -4.5385 0.776457
      vertex 12.7436 -1.98864 0.776457
    endloop
  endfacet
  facet normal 0.990184 -0.0519434 -0.129762
    outer loop
      vertex 7.01731 -1.09506 0.776457
      vertex 7.078 0.230275 0.70904
      vertex 7.08685 0.230563 0.776457
    endloop
  endfacet
  facet normal 0.990171 -0.0519475 -0.129854
    outer loop
      vertex 7.078 0.230275 0.70904
      vertex 7.01731 -1.09506 0.776457
      vertex 6.91631 -1.0793 0
    endloop
  endfacet
  facet normal 0.990171 -0.0519434 -0.129861
    outer loop
      vertex 7.078 0.230275 0.70904
      vertex 6.91631 -1.0793 0
      vertex 6.98485 0.227244 0
    endloop
  endfacet
  facet normal 0.923314 -0.0484392 -0.38098
    outer loop
      vertex 7.31343 -1.14127 1.5
      vertex 7.3593 0.239427 1.43562
      vertex 7.38591 0.240292 1.5
    endloop
  endfacet
  facet normal 0.923316 -0.048439 -0.380974
    outer loop
      vertex 7.3593 0.239427 1.43562
      vertex 7.31343 -1.14127 1.5
      vertex 7.01731 -1.09506 0.776457
    endloop
  endfacet
  facet normal 0.923314 -0.0484355 -0.380979
    outer loop
      vertex 7.3593 0.239427 1.43562
      vertex 7.01731 -1.09506 0.776457
      vertex 7.08685 0.230563 0.776457
    endloop
  endfacet
  facet normal 0.793821 -0.0416466 -0.606724
    outer loop
      vertex 7.78448 -1.21478 2.12132
      vertex 7.81848 0.254366 2.06496
      vertex 7.86163 0.255769 2.12132
    endloop
  endfacet
  facet normal 0.793804 -0.041647 -0.606745
    outer loop
      vertex 7.81848 0.254366 2.06496
      vertex 7.78448 -1.21478 2.12132
      vertex 7.31343 -1.14127 1.5
    endloop
  endfacet
  facet normal 0.793802 -0.0416447 -0.606749
    outer loop
      vertex 7.81848 0.254366 2.06496
      vertex 7.31343 -1.14127 1.5
      vertex 7.38591 0.240292 1.5
    endloop
  endfacet
  facet normal 0.610012 -0.0320019 -0.791746
    outer loop
      vertex 8.39837 -1.31057 2.59808
      vertex 8.42468 0.274088 2.5543
      vertex 8.4816 0.27594 2.59808
    endloop
  endfacet
  facet normal 0.609938 -0.0320022 -0.791803
    outer loop
      vertex 8.42468 0.274088 2.5543
      vertex 8.39837 -1.31057 2.59808
      vertex 7.78448 -1.21478 2.12132
    endloop
  endfacet
  facet normal 0.609933 -0.0319992 -0.791807
    outer loop
      vertex 8.42468 0.274088 2.5543
      vertex 7.78448 -1.21478 2.12132
      vertex 7.86163 0.255769 2.12132
    endloop
  endfacet
  facet normal 0.383955 -0.0201438 -0.923132
    outer loop
      vertex 9.11326 -1.42213 2.89778
      vertex 9.13694 0.29726 2.87011
      vertex 9.20358 0.299428 2.89778
    endloop
  endfacet
  facet normal 0.383872 -0.0201432 -0.923167
    outer loop
      vertex 9.13694 0.29726 2.87011
      vertex 9.11326 -1.42213 2.89778
      vertex 8.39837 -1.31057 2.59808
    endloop
  endfacet
  facet normal 0.383829 -0.0201205 -0.923185
    outer loop
      vertex 8.39837 -1.31057 2.59808
      vertex 9.03652 0.293993 2.82843
      vertex 9.13694 0.29726 2.87011
    endloop
  endfacet
  facet normal 0.383867 -0.0201381 -0.923169
    outer loop
      vertex 9.03652 0.293993 2.82843
      vertex 8.39837 -1.31057 2.59808
      vertex 8.4816 0.27594 2.59808
    endloop
  endfacet
  facet normal 0.131063 -0.00687513 -0.99135
    outer loop
      vertex 9.88044 -1.54185 3
      vertex 9.9069 0.32231 2.99057
      vertex 9.97835 0.324635 3
    endloop
  endfacet
  facet normal 0.131017 -0.00687451 -0.991356
    outer loop
      vertex 9.9069 0.32231 2.99057
      vertex 9.88044 -1.54185 3
      vertex 9.11326 -1.42213 2.89778
    endloop
  endfacet
  facet normal 0.131015 -0.00687357 -0.991357
    outer loop
      vertex 9.9069 0.32231 2.99057
      vertex 9.11326 -1.42213 2.89778
      vertex 9.20358 0.299428 2.89778
    endloop
  endfacet
  facet normal -0.131054 0.0068739 -0.991351
    outer loop
      vertex 10.6476 -1.66157 2.89778
      vertex 10.6821 0.347529 2.90715
      vertex 10.7531 0.349842 2.89778
    endloop
  endfacet
  facet normal -0.13102 0.00687333 -0.991356
    outer loop
      vertex 10.6821 0.347529 2.90715
      vertex 10.6476 -1.66157 2.89778
      vertex 9.88044 -1.54185 3
    endloop
  endfacet
  facet normal -0.131019 0.00687286 -0.991356
    outer loop
      vertex 10.6821 0.347529 2.90715
      vertex 9.88044 -1.54185 3
      vertex 9.97835 0.324635 3
    endloop
  endfacet
  facet normal -0.383977 0.0201428 -0.923123
    outer loop
      vertex 11.3625 -1.77313 2.59808
      vertex 11.4095 0.371195 2.62532
      vertex 11.4751 0.37333 2.59808
    endloop
  endfacet
  facet normal -0.383867 0.020141 -0.923169
    outer loop
      vertex 11.4095 0.371195 2.62532
      vertex 11.3625 -1.77313 2.59808
      vertex 10.6476 -1.66157 2.89778
    endloop
  endfacet
  facet normal -0.383866 0.0201404 -0.923169
    outer loop
      vertex 10.6476 -1.66157 2.89778
      vertex 10.9202 0.355277 2.82843
      vertex 11.4095 0.371195 2.62532
    endloop
  endfacet
  facet normal -0.383801 0.0201306 -0.923197
    outer loop
      vertex 10.9202 0.355277 2.82843
      vertex 10.6476 -1.66157 2.89778
      vertex 10.7531 0.349842 2.89778
    endloop
  endfacet
  facet normal -0.609489 0.0319773 -0.792149
    outer loop
      vertex 11.9764 -1.86893 2.12132
      vertex 12.0393 0.391687 2.16418
      vertex 12.0951 0.393501 2.12132
    endloop
  endfacet
  facet normal -0.609933 0.0319832 -0.791807
    outer loop
      vertex 12.0393 0.391687 2.16418
      vertex 11.9764 -1.86893 2.12132
      vertex 11.3625 -1.77313 2.59808
    endloop
  endfacet
  facet normal -0.610113 0.032068 -0.791665
    outer loop
      vertex 11.3625 -1.77313 2.59808
      vertex 11.8817 0.386557 2.28543
      vertex 12.0393 0.391687 2.16418
    endloop
  endfacet
  facet normal -0.609907 0.0319948 -0.791827
    outer loop
      vertex 11.8817 0.386557 2.28543
      vertex 11.3625 -1.77313 2.59808
      vertex 11.4751 0.37333 2.59808
    endloop
  endfacet
  facet normal -0.793985 0.0416675 -0.606508
    outer loop
      vertex 12.4474 -1.94244 1.5
      vertex 12.5286 0.407604 1.55515
      vertex 12.5708 0.408978 1.5
    endloop
  endfacet
  facet normal -0.793834 0.0416669 -0.606706
    outer loop
      vertex 12.5286 0.407604 1.55515
      vertex 12.4474 -1.94244 1.5
      vertex 11.9764 -1.86893 2.12132
    endloop
  endfacet
  facet normal -0.793799 0.0416472 -0.606752
    outer loop
      vertex 12.5286 0.407604 1.55515
      vertex 11.9764 -1.86893 2.12132
      vertex 12.0951 0.393501 2.12132
    endloop
  endfacet
  facet normal -0.923214 0.0484359 -0.381221
    outer loop
      vertex 12.7436 -1.98864 0.776457
      vertex 12.8437 0.417855 0.839798
      vertex 12.8699 0.418707 0.776457
    endloop
  endfacet
  facet normal -0.923281 0.0484344 -0.38106
    outer loop
      vertex 12.8437 0.417855 0.839798
      vertex 12.7436 -1.98864 0.776457
      vertex 12.4474 -1.94244 1.5
    endloop
  endfacet
  facet normal -0.923303 0.048454 -0.381004
    outer loop
      vertex 12.8437 0.417855 0.839798
      vertex 12.4474 -1.94244 1.5
      vertex 12.5708 0.408978 1.5
    endloop
  endfacet
  facet normal -0.990177 0.0519485 -0.129809
    outer loop
      vertex 12.8446 -2.00441 0
      vertex 12.9631 0.421739 0.0670116
      vertex 12.9719 0.422025 0
    endloop
  endfacet
  facet normal -0.990171 0.0519494 -0.129855
    outer loop
      vertex 12.9631 0.421739 0.0670116
      vertex 12.8446 -2.00441 0
      vertex 12.7436 -1.98864 0.776457
    endloop
  endfacet
  facet normal -0.990595 0.051971 -0.126572
    outer loop
      vertex 12.8706 0.41873 0.770988
      vertex 12.7436 -1.98864 0.776457
      vertex 12.8699 0.418707 0.776457
    endloop
  endfacet
  facet normal -0.990168 0.0519409 -0.129883
    outer loop
      vertex 12.7436 -1.98864 0.776457
      vertex 12.8706 0.41873 0.770988
      vertex 12.9631 0.421739 0.0670116
    endloop
  endfacet
  facet normal 0 0 -1
    outer loop
      vertex 5.91565 -1.00263 0
      vertex 6.91631 -1.0793 0
      vertex 6.55233 -2.46318 0
    endloop
  endfacet
  facet normal 0 -0 -1
    outer loop
      vertex 6.41032 0.208553 0
      vertex 6.91631 -1.0793 0
      vertex 5.91565 -1.00263 0
    endloop
  endfacet
  facet normal 0 0 -1
    outer loop
      vertex 6.91631 -1.0793 0
      vertex 6.41032 0.208553 0
      vertex 6.98485 0.227244 0
    endloop
  endfacet
  facet normal 0 0 -1
    outer loop
      vertex 6.41032 0.208553 0
      vertex 5.91565 -1.00263 0
      vertex 6.13307 0.199533 0
    endloop
  endfacet
  facet normal 0 0 -1
    outer loop
      vertex 6.13307 0.199533 0
      vertex 5.91565 -1.00263 0
      vertex 5.99684 0.195101 0
    endloop
  endfacet
  facet normal 0 0 -1
    outer loop
      vertex 5.59764 -2.16023 0
      vertex 6.55233 -2.46318 0
      vertex 5.91454 -3.74413 0
    endloop
  endfacet
  facet normal 0 0 -1
    outer loop
      vertex 6.55233 -2.46318 0
      vertex 5.59764 -2.16023 0
      vertex 5.91565 -1.00263 0
    endloop
  endfacet
  facet normal 0 0 -1
    outer loop
      vertex 5.91454 -3.74413 0
      vertex 5.05555 -3.23134 0
      vertex 5.59764 -2.16023 0
    endloop
  endfacet
  facet normal 0 0 -1
    outer loop
      vertex 5.02959 -4.86862 0
      vertex 5.05555 -3.23134 0
      vertex 5.91454 -3.74413 0
    endloop
  endfacet
  facet normal 0 0 -1
    outer loop
      vertex 5.02959 -4.86862 0
      vertex 4.31108 -4.1731 0
      vertex 5.05555 -3.23134 0
    endloop
  endfacet
  facet normal 0 0 -1
    outer loop
      vertex 3.39402 -4.94781 0
      vertex 5.02959 -4.86862 0
      vertex 3.93447 -5.78966 0
    endloop
  endfacet
  facet normal -0 0 -1
    outer loop
      vertex 5.02959 -4.86862 0
      vertex 3.39402 -4.94781 0
      vertex 4.31108 -4.1731 0
    endloop
  endfacet
  facet normal 0 0 -1
    outer loop
      vertex 2.3411 -5.52444 0
      vertex 3.93447 -5.78966 0
      vertex 2.67493 -6.46877 0
    endloop
  endfacet
  facet normal 0 0 -1
    outer loop
      vertex 3.93447 -5.78966 0
      vertex 2.3411 -5.52444 0
      vertex 3.39402 -4.94781 0
    endloop
  endfacet
  facet normal 0 0 -1
    outer loop
      vertex 1.19446 -5.87992 0
      vertex 2.67493 -6.46877 0
      vertex 1.30362 -6.87756 0
    endloop
  endfacet
  facet normal 0 0 -1
    outer loop
      vertex 2.67493 -6.46877 0
      vertex 1.19446 -5.87992 0
      vertex 2.3411 -5.52444 0
    endloop
  endfacet
  facet normal 0 0 -1
    outer loop
      vertex 1.33227e-15 -6.00002 0
      vertex 1.30362 -6.87756 0
      vertex 1.55177e-15 -6.98855 0
    endloop
  endfacet
  facet normal 0 0 -1
    outer loop
      vertex 1.30362 -6.87756 0
      vertex 1.33227e-15 -6.00002 0
      vertex 1.19446 -5.87992 0
    endloop
  endfacet
  facet normal 0 0 -1
    outer loop
      vertex 13.8032 -2.33947 0
      vertex 13.7202 0.446371 0
      vertex 13.9926 0.455235 0
    endloop
  endfacet
  facet normal 0 0 -1
    outer loop
      vertex 12.8446 -2.00441 0
      vertex 13.7202 0.446371 0
      vertex 13.8032 -2.33947 0
    endloop
  endfacet
  facet normal 0 0 -1
    outer loop
      vertex 12.1686 -4.57447 0
      vertex 13.8032 -2.33947 0
      vertex 13.0611 -5.04052 0
    endloop
  endfacet
  facet normal 0 0 -1
    outer loop
      vertex 13.7202 0.446371 0
      vertex 12.8446 -2.00441 0
      vertex 13.4278 0.436859 0
    endloop
  endfacet
  facet normal 0 0 -1
    outer loop
      vertex 13.4278 0.436859 0
      vertex 12.8446 -2.00441 0
      vertex 12.9719 0.422025 0
    endloop
  endfacet
  facet normal -0 0 -1
    outer loop
      vertex 13.8032 -2.33947 0
      vertex 12.1686 -4.57447 0
      vertex 12.8446 -2.00441 0
    endloop
  endfacet
  facet normal 0 0 -1
    outer loop
      vertex 10.9841 -6.95337 0
      vertex 13.0611 -5.04052 0
      vertex 11.7963 -7.53979 0
    endloop
  endfacet
  facet normal -0 0 -1
    outer loop
      vertex 13.0611 -5.04052 0
      vertex 10.9841 -6.95337 0
      vertex 12.1686 -4.57447 0
    endloop
  endfacet
  facet normal 0 0 -1
    outer loop
      vertex 9.34066 -9.04171 0
      vertex 11.7963 -7.53979 0
      vertex 10.0592 -9.73723 0
    endloop
  endfacet
  facet normal -0 0 -1
    outer loop
      vertex 11.7963 -7.53979 0
      vertex 9.34066 -9.04171 0
      vertex 10.9841 -6.95337 0
    endloop
  endfacet
  facet normal 0 0 -1
    outer loop
      vertex 7.91938 -11.5449 0
      vertex 9.34066 -9.04171 0
      vertex 10.0592 -9.73723 0
    endloop
  endfacet
  facet normal 0 0 -1
    outer loop
      vertex 7.91938 -11.5449 0
      vertex 7.30686 -10.7522 0
      vertex 9.34066 -9.04171 0
    endloop
  endfacet
  facet normal 0 0 -1
    outer loop
      vertex 5.46256 -12.8903 0
      vertex 7.30686 -10.7522 0
      vertex 7.91938 -11.5449 0
    endloop
  endfacet
  facet normal 0 0 -1
    outer loop
      vertex 5.46256 -12.8903 0
      vertex 4.96773 -12.0134 0
      vertex 7.30686 -10.7522 0
    endloop
  endfacet
  facet normal 0 0 -1
    outer loop
      vertex 2.78707 -13.7198 0
      vertex 4.96773 -12.0134 0
      vertex 5.46256 -12.8903 0
    endloop
  endfacet
  facet normal 0 0 -1
    outer loop
      vertex 2.78707 -13.7198 0
      vertex 2.42101 -12.7726 0
      vertex 4.96773 -12.0134 0
    endloop
  endfacet
  facet normal 0 0 -1
    outer loop
      vertex 3.10863e-15 -14 0
      vertex 2.42101 -12.7726 0
      vertex 2.78707 -13.7198 0
    endloop
  endfacet
  facet normal 0 0 -1
    outer loop
      vertex 2.42101 -12.7726 0
      vertex 3.10863e-15 -14 0
      vertex 2.88185e-15 -12.9787 0
    endloop
  endfacet
endsolid OpenSCAD_Model
