solid OpenSCAD_Model
  facet normal -1 2.22116e-16 4.9646e-19
    outer loop
      vertex 1.95021e-14 87.8295 0.174133
      vertex 1.9762e-14 89 0
      vertex 1.95071e-14 87.8524 0
    endloop
  endfacet
  facet normal -1 2.2204e-16 -9.61791e-21
    outer loop
      vertex 1.9762e-14 89 0
      vertex 1.95021e-14 87.8295 0.174133
      vertex 1.96939e-14 88.6934 2.32937
    endloop
  endfacet
  facet normal -1 2.22089e-16 -2.919e-20
    outer loop
      vertex 1.94467e-14 87.5803 2.07055
      vertex 1.96939e-14 88.6934 2.32937
      vertex 1.95021e-14 87.8295 0.174133
    endloop
  endfacet
  facet normal -1 2.22095e-16 -5.27387e-20
    outer loop
      vertex 1.94317e-14 87.5128 2.23372
      vertex 1.96939e-14 88.6934 2.32937
      vertex 1.94467e-14 87.5803 2.07055
    endloop
  endfacet
  facet normal -1 2.22091e-16 -8.23062e-21
    outer loop
      vertex 1.96939e-14 88.6934 2.32937
      vertex 1.94317e-14 87.5128 2.23372
      vertex 1.94942e-14 87.7943 4.5
    endloop
  endfacet
  facet normal -1 2.21954e-16 8.75726e-21
    outer loop
      vertex 1.92696e-14 86.7824 4
      vertex 1.94942e-14 87.7943 4.5
      vertex 1.94317e-14 87.5128 2.23372
    endloop
  endfacet
  facet normal -1 2.22088e-16 -2.60924e-19
    outer loop
      vertex 1.92456e-14 86.6745 4.14083
      vertex 1.94942e-14 87.7943 4.5
      vertex 1.92696e-14 86.7824 4
    endloop
  endfacet
  facet normal -1 2.21999e-16 1.38717e-20
    outer loop
      vertex 1.92456e-14 86.6745 4.14083
      vertex 1.91767e-14 86.364 6.36396
      vertex 1.94942e-14 87.7943 4.5
    endloop
  endfacet
  facet normal -1 2.22119e-16 3.04974e-20
    outer loop
      vertex 1.89877e-14 85.5132 5.65685
      vertex 1.91767e-14 86.364 6.36396
      vertex 1.92456e-14 86.6745 4.14083
    endloop
  endfacet
  facet normal -1 2.21898e-16 2.95333e-19
    outer loop
      vertex 1.89564e-14 85.372 5.76539
      vertex 1.91767e-14 86.364 6.36396
      vertex 1.89877e-14 85.5132 5.65685
    endloop
  endfacet
  facet normal -1 2.22065e-16 1.98851e-20
    outer loop
      vertex 1.89564e-14 85.372 5.76539
      vertex 1.87628e-14 84.5 7.79423
      vertex 1.91767e-14 86.364 6.36396
    endloop
  endfacet
  facet normal -1 2.22027e-16 3.5807e-21
    outer loop
      vertex 1.86205e-14 83.8591 6.9282
      vertex 1.87628e-14 84.5 7.79423
      vertex 1.89564e-14 85.372 5.76539
    endloop
  endfacet
  facet normal -1 2.22332e-16 -2.2235e-19
    outer loop
      vertex 1.85838e-14 83.6941 6.99667
      vertex 1.87628e-14 84.5 7.79423
      vertex 1.86205e-14 83.8591 6.9282
    endloop
  endfacet
  facet normal -1 2.22074e-16 3.81143e-20
    outer loop
      vertex 1.85838e-14 83.6941 6.99667
      vertex 1.82808e-14 82.3294 8.69333
      vertex 1.87628e-14 84.5 7.79423
    endloop
  endfacet
  facet normal -1 2.21998e-16 -2.30547e-20
    outer loop
      vertex 1.81928e-14 81.9329 7.72741
      vertex 1.82808e-14 82.3294 8.69333
      vertex 1.85838e-14 83.6941 6.99667
    endloop
  endfacet
  facet normal -1 2.2197e-16 -1.16196e-20
    outer loop
      vertex 1.81534e-14 81.7554 7.75081
      vertex 1.82808e-14 82.3294 8.69333
      vertex 1.81928e-14 81.9329 7.72741
    endloop
  endfacet
  facet normal -1 2.22025e-16 -4.52197e-20
    outer loop
      vertex 1.81534e-14 81.7554 7.75081
      vertex 1.77636e-14 80 9
      vertex 1.82808e-14 82.3294 8.69333
    endloop
  endfacet
  facet normal -1 2.22058e-16 -1.24802e-22
    outer loop
      vertex 1.77338e-14 79.8658 8
      vertex 1.77636e-14 80 9
      vertex 1.81534e-14 81.7554 7.75081
    endloop
  endfacet
  facet normal -1 2.22416e-16 -4.8264e-20
    outer loop
      vertex 1.76943e-14 79.6882 7.97658
      vertex 1.77636e-14 80 9
      vertex 1.77338e-14 79.8658 8
    endloop
  endfacet
  facet normal -1 2.22014e-16 1.84168e-20
    outer loop
      vertex 1.72464e-14 77.6707 8.69333
      vertex 1.76943e-14 79.6882 7.97658
      vertex 1.72748e-14 77.7987 7.72741
    endloop
  endfacet
  facet normal -1 2.22032e-16 6.88435e-20
    outer loop
      vertex 1.76943e-14 79.6882 7.97658
      vertex 1.72464e-14 77.6707 8.69333
      vertex 1.77636e-14 80 9
    endloop
  endfacet
  facet normal -1 2.22013e-16 1.82849e-20
    outer loop
      vertex 1.72381e-14 77.6334 7.65883
      vertex 1.72464e-14 77.6707 8.69333
      vertex 1.72748e-14 77.7987 7.72741
    endloop
  endfacet
  facet normal -1 2.22041e-16 1.17241e-20
    outer loop
      vertex 1.67644e-14 75.5 7.79423
      vertex 1.72381e-14 77.6334 7.65883
      vertex 1.68471e-14 75.8725 6.9282
    endloop
  endfacet
  facet normal -1 2.21934e-16 -3.4035e-20
    outer loop
      vertex 1.67644e-14 75.5 7.79423
      vertex 1.68471e-14 75.8725 6.9282
      vertex 1.68157e-14 75.731 6.81941
    endloop
  endfacet
  facet normal -1 2.22041e-16 1.72735e-20
    outer loop
      vertex 1.72381e-14 77.6334 7.65883
      vertex 1.67644e-14 75.5 7.79423
      vertex 1.72464e-14 77.6707 8.69333
    endloop
  endfacet
  facet normal -1 2.22061e-16 8.81174e-21
    outer loop
      vertex 1.63505e-14 73.6361 6.36396
      vertex 1.68157e-14 75.731 6.81941
      vertex 1.64798e-14 74.2184 5.65685
    endloop
  endfacet
  facet normal -1 2.22034e-16 -1.34275e-20
    outer loop
      vertex 1.63505e-14 73.6361 6.36396
      vertex 1.64798e-14 74.2184 5.65685
      vertex 1.64558e-14 74.1103 5.5157
    endloop
  endfacet
  facet normal -1 2.22064e-16 -3.33898e-21
    outer loop
      vertex 1.68157e-14 75.731 6.81941
      vertex 1.63505e-14 73.6361 6.36396
      vertex 1.67644e-14 75.5 7.79423
    endloop
  endfacet
  facet normal -1 2.22068e-16 -2.87526e-20
    outer loop
      vertex 1.60329e-14 72.2058 4.5
      vertex 1.64558e-14 74.1103 5.5157
      vertex 1.6198e-14 72.9492 4
    endloop
  endfacet
  facet normal -1 2.22045e-16 -6.28456e-20
    outer loop
      vertex 1.60329e-14 72.2058 4.5
      vertex 1.6198e-14 72.9492 4
      vertex 1.6183e-14 72.8816 3.83656
    endloop
  endfacet
  facet normal -1 2.22054e-16 -2.22683e-21
    outer loop
      vertex 1.64558e-14 74.1103 5.5157
      vertex 1.60329e-14 72.2058 4.5
      vertex 1.63505e-14 73.6361 6.36396
    endloop
  endfacet
  facet normal -1 2.2199e-16 5.82125e-20
    outer loop
      vertex 1.58333e-14 71.3067 2.32937
      vertex 1.6183e-14 72.8816 3.83656
      vertex 1.60208e-14 72.1514 2.07055
    endloop
  endfacet
  facet normal -1 2.22001e-16 9.28759e-20
    outer loop
      vertex 1.58333e-14 71.3067 2.32937
      vertex 1.60208e-14 72.1514 2.07055
      vertex 1.60157e-14 72.1285 1.89631
    endloop
  endfacet
  facet normal -1 2.2202e-16 -2.61511e-20
    outer loop
      vertex 1.57652e-14 71 0
      vertex 1.60157e-14 72.1285 1.89631
      vertex 1.59604e-14 71.8792 0
    endloop
  endfacet
  facet normal -1 2.22076e-16 -3.16127e-20
    outer loop
      vertex 1.6183e-14 72.8816 3.83656
      vertex 1.58333e-14 71.3067 2.32937
      vertex 1.60329e-14 72.2058 4.5
    endloop
  endfacet
  facet normal -1 2.21958e-16 1.09912e-20
    outer loop
      vertex 1.60157e-14 72.1285 1.89631
      vertex 1.57652e-14 71 0
      vertex 1.58333e-14 71.3067 2.32937
    endloop
  endfacet
  facet normal 0.695106 -0.718907 1.3999e-08
    outer loop
      vertex 63.9832 61.8641 0
      vertex 63.7627 61.6509 2.32937
      vertex 63.1163 61.0259 4.5
    endloop
  endfacet
  facet normal 0.695103 -0.71891 -1.91649e-05
    outer loop
      vertex 62.828 60.7472 2.52283
      vertex 63.1163 61.0259 4.5
      vertex 62.0881 60.0317 6.36396
    endloop
  endfacet
  facet normal 0.694995 -0.719014 1.11574e-05
    outer loop
      vertex 62.9625 60.8772 2.07055
      vertex 63.1163 61.0259 4.5
      vertex 62.828 60.7472 2.52283
    endloop
  endfacet
  facet normal 0.69464 -0.719357 -0.000249542
    outer loop
      vertex 63.5422 61.4377 0
      vertex 62.9625 60.8772 2.07055
      vertex 62.9788 60.893 1.89741
    endloop
  endfacet
  facet normal 0.695258 -0.718761 0.000105072
    outer loop
      vertex 63.5422 61.4377 0
      vertex 62.9788 60.893 1.89741
      vertex 63.008 60.9212 1.58829
    endloop
  endfacet
  facet normal 0.695196 -0.71882 6.47329e-05
    outer loop
      vertex 63.5422 61.4377 0
      vertex 63.008 60.9212 1.58829
      vertex 63.314 61.217 0
    endloop
  endfacet
  facet normal 0.695098 -0.718915 -1.46131e-06
    outer loop
      vertex 62.9625 60.8772 2.07055
      vertex 63.5422 61.4377 0
      vertex 63.1163 61.0259 4.5
    endloop
  endfacet
  facet normal 0.695106 -0.718907 -1.44904e-08
    outer loop
      vertex 63.5422 61.4377 0
      vertex 63.9832 61.8641 0
      vertex 63.1163 61.0259 4.5
    endloop
  endfacet
  facet normal 0.695099 -0.718914 5.73931e-06
    outer loop
      vertex 62.0881 60.0317 6.36396
      vertex 60.7481 58.7361 7.79423
      vertex 59.1876 57.2273 8.69333
    endloop
  endfacet
  facet normal 0.695121 -0.718893 5.76209e-05
    outer loop
      vertex 62.0881 60.0317 6.36396
      vertex 59.1876 57.2273 8.69333
      vertex 57.513 55.6081 9
    endloop
  endfacet
  facet normal 0.69506 -0.718951 0.000118556
    outer loop
      vertex 57.513 55.6081 9
      vertex 55.8383 53.989 8.69333
      vertex 52.9378 51.1845 6.36396
    endloop
  endfacet
  facet normal 0.695148 -0.718866 -9.28239e-05
    outer loop
      vertex 55.8383 53.989 8.69333
      vertex 54.2779 52.4802 7.79423
      vertex 52.9378 51.1845 6.36396
    endloop
  endfacet
  facet normal 0.695099 -0.718914 -2.29581e-06
    outer loop
      vertex 57.513 55.6081 9
      vertex 56.0521 54.1956 7.74972
      vertex 57.4165 55.5148 8
    endloop
  endfacet
  facet normal 0.694833 -0.719171 0.000597934
    outer loop
      vertex 57.513 55.6081 9
      vertex 55.9304 54.078 7.72741
      vertex 56.0521 54.1956 7.74972
    endloop
  endfacet
  facet normal 0.695132 -0.718883 -0.000120139
    outer loop
      vertex 52.9378 51.1845 6.36396
      vertex 55.9304 54.078 7.72741
      vertex 57.513 55.6081 9
    endloop
  endfacet
  facet normal 0.695104 -0.718909 -4.08942e-06
    outer loop
      vertex 55.9304 54.078 7.72741
      vertex 52.9378 51.1845 6.36396
      vertex 54.6591 52.8488 6.9937
    endloop
  endfacet
  facet normal 0.695338 -0.718682 -0.00124408
    outer loop
      vertex 54.6591 52.8488 6.9937
      vertex 52.9378 51.1845 6.36396
      vertex 54.5456 52.7391 6.9282
    endloop
  endfacet
  facet normal 0.695092 -0.718921 0.000115511
    outer loop
      vertex 54.5456 52.7391 6.9282
      vertex 52.9378 51.1845 6.36396
      vertex 54.0179 52.2288 6.36396
    endloop
  endfacet
  facet normal 0.695193 -0.718823 -1.99649e-05
    outer loop
      vertex 57.5382 55.6325 7.97767
      vertex 57.513 55.6081 9
      vertex 57.4165 55.5148 8
    endloop
  endfacet
  facet normal 0.695122 -0.718891 -2.33407e-05
    outer loop
      vertex 58.9025 56.9517 7.72741
      vertex 57.513 55.6081 9
      vertex 57.5382 55.6325 7.97767
    endloop
  endfacet
  facet normal 0.694744 -0.719257 -0.000823281
    outer loop
      vertex 59.0162 57.0616 7.6618
      vertex 57.513 55.6081 9
      vertex 58.9025 56.9517 7.72741
    endloop
  endfacet
  facet normal 0.695076 -0.718936 -8.45182e-05
    outer loop
      vertex 62.0881 60.0317 6.36396
      vertex 59.0162 57.0616 7.6618
      vertex 60.2873 58.2906 6.9282
    endloop
  endfacet
  facet normal 0.695069 -0.718943 -0.000117276
    outer loop
      vertex 59.0162 57.0616 7.6618
      vertex 62.0881 60.0317 6.36396
      vertex 57.513 55.6081 9
    endloop
  endfacet
  facet normal 0.695018 -0.718992 -0.000442533
    outer loop
      vertex 60.3852 58.3853 6.82348
      vertex 62.0881 60.0317 6.36396
      vertex 60.2873 58.2906 6.9282
    endloop
  endfacet
  facet normal 0.695062 -0.71895 -0.000125991
    outer loop
      vertex 62.0881 60.0317 6.36396
      vertex 60.3852 58.3853 6.82348
      vertex 60.815 58.8009 6.36396
    endloop
  endfacet
  facet normal 0.695062 -0.71895 0.000133497
    outer loop
      vertex 61.1441 59.119 6.01213
      vertex 62.0881 60.0317 6.36396
      vertex 60.815 58.8009 6.36396
    endloop
  endfacet
  facet normal 0.695092 -0.718921 -1.92297e-05
    outer loop
      vertex 52.9378 51.1845 6.36396
      vertex 53.4542 51.6838 5.76134
      vertex 54.0179 52.2288 6.36396
    endloop
  endfacet
  facet normal 0.695174 -0.718842 0.000115884
    outer loop
      vertex 52.9378 51.1845 6.36396
      vertex 53.3565 51.5893 5.65685
      vertex 53.4542 51.6838 5.76134
    endloop
  endfacet
  facet normal 0.695092 -0.718921 2.20643e-05
    outer loop
      vertex 52.9378 51.1845 6.36396
      vertex 52.5194 50.7799 4.13677
      vertex 53.3565 51.5893 5.65685
    endloop
  endfacet
  facet normal 0.69503 -0.718981 4.46423e-05
    outer loop
      vertex 52.9378 51.1845 6.36396
      vertex 52.4441 50.7071 4
      vertex 52.5194 50.7799 4.13677
    endloop
  endfacet
  facet normal 0.695046 -0.718966 3.81524e-05
    outer loop
      vertex 51.2632 49.5654 2.32937
      vertex 52.4441 50.7071 4
      vertex 52.9378 51.1845 6.36396
    endloop
  endfacet
  facet normal 0.695036 -0.718974 5.05997e-05
    outer loop
      vertex 52.4441 50.7071 4
      vertex 51.2632 49.5654 2.32937
      vertex 52.0327 50.3093 2.61615
    endloop
  endfacet
  facet normal 0.695059 -0.718952 2.71346e-05
    outer loop
      vertex 52.9378 51.1845 6.36396
      vertex 51.9096 50.1904 4.5
      vertex 51.2632 49.5654 2.32937
    endloop
  endfacet
  facet normal 0.695014 -0.718996 -2.96177e-06
    outer loop
      vertex 63.1581 61.0663 0
      vertex 63.314 61.217 0
      vertex 63.008 60.9212 1.58829
    endloop
  endfacet
  facet normal 0.695093 -0.71892 -2.70053e-05
    outer loop
      vertex 61.4764 59.4403 5.65685
      vertex 62.0881 60.0317 6.36396
      vertex 61.1441 59.119 6.01213
    endloop
  endfacet
  facet normal 0.695087 -0.718925 -1.78109e-05
    outer loop
      vertex 61.5519 59.5133 5.51977
      vertex 62.0881 60.0317 6.36396
      vertex 61.4764 59.4403 5.65685
    endloop
  endfacet
  facet normal 0.695091 -0.718922 -2.16694e-05
    outer loop
      vertex 62.3889 60.3226 4
      vertex 62.0881 60.0317 6.36396
      vertex 61.5519 59.5133 5.51977
    endloop
  endfacet
  facet normal 0.694769 -0.719233 -0.000100924
    outer loop
      vertex 62.4366 60.3687 3.83954
      vertex 62.0881 60.0317 6.36396
      vertex 62.3889 60.3226 4
    endloop
  endfacet
  facet normal 0.695174 -0.718841 7.40325e-06
    outer loop
      vertex 62.0881 60.0317 6.36396
      vertex 62.4366 60.3687 3.83954
      vertex 62.828 60.7472 2.52283
    endloop
  endfacet
  facet normal 0.695082 -0.718931 -0.000183449
    outer loop
      vertex 51.2632 49.5654 2.32937
      vertex 51.9181 50.1986 2.23074
      vertex 52.0327 50.3093 2.61615
    endloop
  endfacet
  facet normal 0.695132 -0.718882 0.000467409
    outer loop
      vertex 51.9181 50.1986 2.23074
      vertex 51.2632 49.5654 2.32937
      vertex 51.8792 50.1609 2.0998
    endloop
  endfacet
  facet normal 0.695188 -0.718828 1.49222e-05
    outer loop
      vertex 51.4837 49.7786 0
      vertex 51.2632 49.5654 2.32937
      vertex 51.0428 49.3522 0
    endloop
  endfacet
  facet normal 0.694968 -0.719041 -2.53996e-05
    outer loop
      vertex 51.4837 49.7786 0
      vertex 51.7428 50.029 0.719018
      vertex 51.2632 49.5654 2.32937
    endloop
  endfacet
  facet normal 0.695104 -0.718909 -0.000120275
    outer loop
      vertex 51.7428 50.029 0.719018
      vertex 51.4837 49.7786 0
      vertex 51.6912 49.9792 0.173039
    endloop
  endfacet
  facet normal 0.695158 -0.718857 -0.000246519
    outer loop
      vertex 51.6912 49.9792 0.173039
      vertex 51.4837 49.7786 0
      vertex 51.6748 49.9634 0
    endloop
  endfacet
  facet normal 0.694998 -0.719012 -0.000231705
    outer loop
      vertex 51.2632 49.5654 2.32937
      vertex 51.8705 50.1525 2.07055
      vertex 51.8792 50.1609 2.0998
    endloop
  endfacet
  facet normal 0.695054 -0.718958 2.43179e-05
    outer loop
      vertex 51.8705 50.1525 2.07055
      vertex 51.2632 49.5654 2.32937
      vertex 51.7428 50.029 0.719018
    endloop
  endfacet
  facet normal 0.0992682 0.986552 0.129853
    outer loop
      vertex 17.6692 86.9155 2.32937
      vertex 1.9762e-14 89 0
      vertex 1.96939e-14 88.6934 2.32937
    endloop
  endfacet
  facet normal 0.0992593 0.986544 0.129915
    outer loop
      vertex 17.6692 86.9155 2.32937
      vertex 17.7303 87.2161 0
      vertex 1.9762e-14 89 0
    endloop
  endfacet
  facet normal 0.0925589 0.919914 0.381039
    outer loop
      vertex 17.4901 86.0345 4.5
      vertex 1.96939e-14 88.6934 2.32937
      vertex 1.94942e-14 87.7943 4.5
    endloop
  endfacet
  facet normal 0.0925642 0.919926 0.38101
    outer loop
      vertex 17.4901 86.0345 4.5
      vertex 17.6692 86.9155 2.32937
      vertex 1.96939e-14 88.6934 2.32937
    endloop
  endfacet
  facet normal 0.0795694 0.790831 0.60684
    outer loop
      vertex 17.2052 84.6329 6.36396
      vertex 1.94942e-14 87.7943 4.5
      vertex 1.91767e-14 86.364 6.36396
    endloop
  endfacet
  facet normal 0.0795717 0.790838 0.606831
    outer loop
      vertex 17.2052 84.6329 6.36396
      vertex 17.4901 86.0345 4.5
      vertex 1.94942e-14 87.7943 4.5
    endloop
  endfacet
  facet normal 0.061134 0.607615 0.791875
    outer loop
      vertex 16.8338 82.8063 7.79423
      vertex 1.91767e-14 86.364 6.36396
      vertex 1.87628e-14 84.5 7.79423
    endloop
  endfacet
  facet normal 0.0611358 0.607622 0.79187
    outer loop
      vertex 16.8338 82.8063 7.79423
      vertex 17.2052 84.6329 6.36396
      vertex 1.91767e-14 86.364 6.36396
    endloop
  endfacet
  facet normal 0.0384772 0.382403 0.923194
    outer loop
      vertex 16.4014 80.6791 8.69333
      vertex 1.87628e-14 84.5 7.79423
      vertex 1.82808e-14 82.3294 8.69333
    endloop
  endfacet
  facet normal 0.0384731 0.382387 0.923201
    outer loop
      vertex 16.4014 80.6791 8.69333
      vertex 16.8338 82.8063 7.79423
      vertex 1.87628e-14 84.5 7.79423
    endloop
  endfacet
  facet normal 0.0131314 0.130514 0.991359
    outer loop
      vertex 15.9374 78.3965 9
      vertex 1.82808e-14 82.3294 8.69333
      vertex 1.77636e-14 80 9
    endloop
  endfacet
  facet normal 0.0131329 0.130521 0.991359
    outer loop
      vertex 15.9374 78.3965 9
      vertex 16.4014 80.6791 8.69333
      vertex 1.82808e-14 82.3294 8.69333
    endloop
  endfacet
  facet normal -0.0131327 -0.13052 0.991359
    outer loop
      vertex 15.4733 76.1138 8.69333
      vertex 1.77636e-14 80 9
      vertex 1.72464e-14 77.6707 8.69333
    endloop
  endfacet
  facet normal -0.0131314 -0.130515 0.991359
    outer loop
      vertex 15.4733 76.1138 8.69333
      vertex 15.9374 78.3965 9
      vertex 1.77636e-14 80 9
    endloop
  endfacet
  facet normal -0.0384729 -0.382388 0.923201
    outer loop
      vertex 15.0409 73.9867 7.79423
      vertex 1.72464e-14 77.6707 8.69333
      vertex 1.67644e-14 75.5 7.79423
    endloop
  endfacet
  facet normal -0.0384767 -0.382402 0.923195
    outer loop
      vertex 15.0409 73.9867 7.79423
      vertex 15.4733 76.1138 8.69333
      vertex 1.72464e-14 77.6707 8.69333
    endloop
  endfacet
  facet normal -0.061138 -0.607636 0.791859
    outer loop
      vertex 14.6696 72.1601 6.36396
      vertex 1.67644e-14 75.5 7.79423
      vertex 1.63505e-14 73.6361 6.36396
    endloop
  endfacet
  facet normal -0.0611345 -0.607624 0.791868
    outer loop
      vertex 14.6696 72.1601 6.36396
      vertex 15.0409 73.9867 7.79423
      vertex 1.67644e-14 75.5 7.79423
    endloop
  endfacet
  facet normal -0.0795691 -0.790831 0.60684
    outer loop
      vertex 14.3846 70.7585 4.5
      vertex 1.63505e-14 73.6361 6.36396
      vertex 1.60329e-14 72.2058 4.5
    endloop
  endfacet
  facet normal -0.0795709 -0.790836 0.606834
    outer loop
      vertex 14.3846 70.7585 4.5
      vertex 14.6696 72.1601 6.36396
      vertex 1.63505e-14 73.6361 6.36396
    endloop
  endfacet
  facet normal -0.0925581 -0.919914 0.381039
    outer loop
      vertex 14.2055 69.8774 2.32937
      vertex 1.60329e-14 72.2058 4.5
      vertex 1.58333e-14 71.3067 2.32937
    endloop
  endfacet
  facet normal -0.0925565 -0.919911 0.381046
    outer loop
      vertex 14.2055 69.8774 2.32937
      vertex 14.3846 70.7585 4.5
      vertex 1.60329e-14 72.2058 4.5
    endloop
  endfacet
  facet normal -0.0992587 -0.986547 0.129895
    outer loop
      vertex 14.1444 69.5769 0
      vertex 1.58333e-14 71.3067 2.32937
      vertex 1.57652e-14 71 0
    endloop
  endfacet
  facet normal -0.0992626 -0.986549 0.129873
    outer loop
      vertex 14.1444 69.5769 0
      vertex 14.2055 69.8774 2.32937
      vertex 1.58333e-14 71.3067 2.32937
    endloop
  endfacet
  facet normal 0.293804 0.946996 0.129914
    outer loop
      vertex 34.6301 81.6534 2.32937
      vertex 17.7303 87.2161 0
      vertex 17.6692 86.9155 2.32937
    endloop
  endfacet
  facet normal 0.293812 0.947 0.129867
    outer loop
      vertex 34.6301 81.6534 2.32937
      vertex 34.7498 81.9357 0
      vertex 17.7303 87.2161 0
    endloop
  endfacet
  facet normal 0.273971 0.883046 0.38101
    outer loop
      vertex 34.2791 80.8256 4.5
      vertex 17.6692 86.9155 2.32937
      vertex 17.4901 86.0345 4.5
    endloop
  endfacet
  facet normal 0.273959 0.88303 0.381056
    outer loop
      vertex 34.2791 80.8256 4.5
      vertex 34.6301 81.6534 2.32937
      vertex 17.6692 86.9155 2.32937
    endloop
  endfacet
  facet normal 0.235526 0.759135 0.606829
    outer loop
      vertex 33.7206 79.5089 6.36396
      vertex 17.4901 86.0345 4.5
      vertex 17.2052 84.6329 6.36396
    endloop
  endfacet
  facet normal 0.235527 0.759137 0.606825
    outer loop
      vertex 33.7206 79.5089 6.36396
      vertex 34.2791 80.8256 4.5
      vertex 17.4901 86.0345 4.5
    endloop
  endfacet
  facet normal 0.180959 0.58326 0.791872
    outer loop
      vertex 32.9928 77.7929 7.79423
      vertex 17.2052 84.6329 6.36396
      vertex 16.8338 82.8063 7.79423
    endloop
  endfacet
  facet normal 0.180961 0.583265 0.791868
    outer loop
      vertex 32.9928 77.7929 7.79423
      vertex 33.7206 79.5089 6.36396
      vertex 17.2052 84.6329 6.36396
    endloop
  endfacet
  facet normal 0.113881 0.367059 0.9232
    outer loop
      vertex 32.1453 75.7945 8.69333
      vertex 16.8338 82.8063 7.79423
      vertex 16.4014 80.6791 8.69333
    endloop
  endfacet
  facet normal 0.113882 0.36706 0.9232
    outer loop
      vertex 32.1453 75.7945 8.69333
      vertex 32.9928 77.7929 7.79423
      vertex 16.8338 82.8063 7.79423
    endloop
  endfacet
  facet normal 0.0388721 0.125288 0.991359
    outer loop
      vertex 31.2358 73.65 9
      vertex 16.4014 80.6791 8.69333
      vertex 15.9374 78.3965 9
    endloop
  endfacet
  facet normal 0.0388694 0.125283 0.991359
    outer loop
      vertex 31.2358 73.65 9
      vertex 32.1453 75.7945 8.69333
      vertex 16.4014 80.6791 8.69333
    endloop
  endfacet
  facet normal -0.0388692 -0.125282 0.991359
    outer loop
      vertex 30.3263 71.5056 8.69333
      vertex 15.9374 78.3965 9
      vertex 15.4733 76.1138 8.69333
    endloop
  endfacet
  facet normal -0.0388718 -0.125287 0.991359
    outer loop
      vertex 30.3263 71.5056 8.69333
      vertex 31.2358 73.65 9
      vertex 15.9374 78.3965 9
    endloop
  endfacet
  facet normal -0.113888 -0.367072 0.923194
    outer loop
      vertex 29.4788 69.5072 7.79423
      vertex 15.4733 76.1138 8.69333
      vertex 15.0409 73.9867 7.79423
    endloop
  endfacet
  facet normal -0.113882 -0.367061 0.9232
    outer loop
      vertex 29.4788 69.5072 7.79423
      vertex 30.3263 71.5056 8.69333
      vertex 15.4733 76.1138 8.69333
    endloop
  endfacet
  facet normal -0.180964 -0.583265 0.791867
    outer loop
      vertex 28.751 67.7912 6.36396
      vertex 15.0409 73.9867 7.79423
      vertex 14.6696 72.1601 6.36396
    endloop
  endfacet
  facet normal -0.180963 -0.583264 0.791868
    outer loop
      vertex 28.751 67.7912 6.36396
      vertex 29.4788 69.5072 7.79423
      vertex 15.0409 73.9867 7.79423
    endloop
  endfacet
  facet normal -0.235524 -0.759129 0.606837
    outer loop
      vertex 28.1926 66.4745 4.5
      vertex 14.6696 72.1601 6.36396
      vertex 14.3846 70.7585 4.5
    endloop
  endfacet
  facet normal -0.235532 -0.759142 0.606818
    outer loop
      vertex 28.1926 66.4745 4.5
      vertex 28.751 67.7912 6.36396
      vertex 14.6696 72.1601 6.36396
    endloop
  endfacet
  facet normal -0.273969 -0.883032 0.381045
    outer loop
      vertex 27.8415 65.6467 2.32937
      vertex 14.3846 70.7585 4.5
      vertex 14.2055 69.8774 2.32937
    endloop
  endfacet
  facet normal -0.273963 -0.883024 0.381067
    outer loop
      vertex 27.8415 65.6467 2.32937
      vertex 28.1926 66.4745 4.5
      vertex 14.3846 70.7585 4.5
    endloop
  endfacet
  facet normal -0.293814 -0.946998 0.129874
    outer loop
      vertex 27.7218 65.3644 0
      vertex 14.2055 69.8774 2.32937
      vertex 14.1444 69.5769 0
    endloop
  endfacet
  facet normal -0.293816 -0.946999 0.129867
    outer loop
      vertex 27.7218 65.3644 0
      vertex 27.8415 65.6467 2.32937
      vertex 14.2055 69.8774 2.32937
    endloop
  endfacet
  facet normal 0.476584 0.869484 0.129865
    outer loop
      vertex 50.2027 73.1177 2.32937
      vertex 34.7498 81.9357 0
      vertex 34.6301 81.6534 2.32937
    endloop
  endfacet
  facet normal 0.476581 0.869483 0.129881
    outer loop
      vertex 50.2027 73.1177 2.32937
      vertex 50.3763 73.3705 0
      vertex 34.7498 81.9357 0
    endloop
  endfacet
  facet normal 0.444389 0.810752 0.381051
    outer loop
      vertex 49.6938 72.3765 4.5
      vertex 34.6301 81.6534 2.32937
      vertex 34.2791 80.8256 4.5
    endloop
  endfacet
  facet normal 0.444394 0.810757 0.381035
    outer loop
      vertex 49.6938 72.3765 4.5
      vertex 50.2027 73.1177 2.32937
      vertex 34.6301 81.6534 2.32937
    endloop
  endfacet
  facet normal 0.382039 0.696997 0.606829
    outer loop
      vertex 48.8842 71.1974 6.36396
      vertex 34.2791 80.8256 4.5
      vertex 33.7206 79.5089 6.36396
    endloop
  endfacet
  facet normal 0.382035 0.696992 0.606837
    outer loop
      vertex 48.8842 71.1974 6.36396
      vertex 49.6938 72.3765 4.5
      vertex 34.2791 80.8256 4.5
    endloop
  endfacet
  facet normal 0.293529 0.535522 0.791869
    outer loop
      vertex 47.8292 69.6608 7.79423
      vertex 33.7206 79.5089 6.36396
      vertex 32.9928 77.7929 7.79423
    endloop
  endfacet
  facet normal 0.293536 0.53553 0.791861
    outer loop
      vertex 47.8292 69.6608 7.79423
      vertex 48.8842 71.1974 6.36396
      vertex 33.7206 79.5089 6.36396
    endloop
  endfacet
  facet normal 0.184724 0.337017 0.923199
    outer loop
      vertex 46.6005 67.8714 8.69333
      vertex 32.9928 77.7929 7.79423
      vertex 32.1453 75.7945 8.69333
    endloop
  endfacet
  facet normal 0.184729 0.337023 0.923196
    outer loop
      vertex 46.6005 67.8714 8.69333
      vertex 47.8292 69.6608 7.79423
      vertex 32.9928 77.7929 7.79423
    endloop
  endfacet
  facet normal 0.063048 0.115028 0.991359
    outer loop
      vertex 45.2821 65.9511 9
      vertex 32.1453 75.7945 8.69333
      vertex 31.2358 73.65 9
    endloop
  endfacet
  facet normal 0.0630503 0.115031 0.991359
    outer loop
      vertex 45.2821 65.9511 9
      vertex 46.6005 67.8714 8.69333
      vertex 32.1453 75.7945 8.69333
    endloop
  endfacet
  facet normal -0.0630515 -0.115032 0.991359
    outer loop
      vertex 43.9636 64.0307 8.69333
      vertex 31.2358 73.65 9
      vertex 30.3263 71.5056 8.69333
    endloop
  endfacet
  facet normal -0.0630462 -0.115025 0.99136
    outer loop
      vertex 43.9636 64.0307 8.69333
      vertex 45.2821 65.9511 9
      vertex 31.2358 73.65 9
    endloop
  endfacet
  facet normal -0.184725 -0.337017 0.923199
    outer loop
      vertex 42.7349 62.2413 7.79423
      vertex 30.3263 71.5056 8.69333
      vertex 29.4788 69.5072 7.79423
    endloop
  endfacet
  facet normal -0.184729 -0.337023 0.923196
    outer loop
      vertex 42.7349 62.2413 7.79423
      vertex 43.9636 64.0307 8.69333
      vertex 30.3263 71.5056 8.69333
    endloop
  endfacet
  facet normal -0.293527 -0.535523 0.791869
    outer loop
      vertex 41.6799 60.7047 6.36396
      vertex 29.4788 69.5072 7.79423
      vertex 28.751 67.7912 6.36396
    endloop
  endfacet
  facet normal -0.293534 -0.535531 0.791861
    outer loop
      vertex 41.6799 60.7047 6.36396
      vertex 42.7349 62.2413 7.79423
      vertex 29.4788 69.5072 7.79423
    endloop
  endfacet
  facet normal -0.382043 -0.697006 0.606816
    outer loop
      vertex 40.8703 59.5256 4.5
      vertex 28.751 67.7912 6.36396
      vertex 28.1926 66.4745 4.5
    endloop
  endfacet
  facet normal -0.382032 -0.696994 0.606837
    outer loop
      vertex 40.8703 59.5256 4.5
      vertex 41.6799 60.7047 6.36396
      vertex 28.751 67.7912 6.36396
    endloop
  endfacet
  facet normal -0.44438 -0.810748 0.381069
    outer loop
      vertex 40.3614 58.7844 2.32937
      vertex 28.1926 66.4745 4.5
      vertex 27.8415 65.6467 2.32937
    endloop
  endfacet
  facet normal -0.444392 -0.810758 0.381035
    outer loop
      vertex 40.3614 58.7844 2.32937
      vertex 40.8703 59.5256 4.5
      vertex 28.1926 66.4745 4.5
    endloop
  endfacet
  facet normal -0.476579 -0.869487 0.129865
    outer loop
      vertex 40.1878 58.5316 0
      vertex 27.8415 65.6467 2.32937
      vertex 27.7218 65.3644 0
    endloop
  endfacet
  facet normal -0.476575 -0.869487 0.12988
    outer loop
      vertex 40.1878 58.5316 0
      vertex 40.3614 58.7844 2.32937
      vertex 27.8415 65.6467 2.32937
    endloop
  endfacet
  facet normal 0.640241 0.757114 0.129882
    outer loop
      vertex 63.7627 61.6509 2.32937
      vertex 50.3763 73.3705 0
      vertex 50.2027 73.1177 2.32937
    endloop
  endfacet
  facet normal 0.640238 0.757114 0.129902
    outer loop
      vertex 63.7627 61.6509 2.32937
      vertex 63.9832 61.8641 0
      vertex 50.3763 73.3705 0
    endloop
  endfacet
  facet normal 0.597002 0.705976 0.381034
    outer loop
      vertex 63.1163 61.0259 4.5
      vertex 50.2027 73.1177 2.32937
      vertex 49.6938 72.3765 4.5
    endloop
  endfacet
  facet normal 0.596994 0.705972 0.381055
    outer loop
      vertex 63.1163 61.0259 4.5
      vertex 63.7627 61.6509 2.32937
      vertex 50.2027 73.1177 2.32937
    endloop
  endfacet
  facet normal 0.513228 0.606914 0.606838
    outer loop
      vertex 62.0881 60.0317 6.36396
      vertex 49.6938 72.3765 4.5
      vertex 48.8842 71.1974 6.36396
    endloop
  endfacet
  facet normal 0.513234 0.606918 0.606829
    outer loop
      vertex 62.0881 60.0317 6.36396
      vertex 63.1163 61.0259 4.5
      vertex 49.6938 72.3765 4.5
    endloop
  endfacet
  facet normal 0.394338 0.46632 0.79186
    outer loop
      vertex 60.7481 58.7361 7.79423
      vertex 48.8842 71.1974 6.36396
      vertex 47.8292 69.6608 7.79423
    endloop
  endfacet
  facet normal 0.394337 0.46632 0.791861
    outer loop
      vertex 60.7481 58.7361 7.79423
      vertex 62.0881 60.0317 6.36396
      vertex 48.8842 71.1974 6.36396
    endloop
  endfacet
  facet normal 0.248165 0.293465 0.923197
    outer loop
      vertex 59.1876 57.2273 8.69333
      vertex 47.8292 69.6608 7.79423
      vertex 46.6005 67.8714 8.69333
    endloop
  endfacet
  facet normal 0.248166 0.293467 0.923196
    outer loop
      vertex 59.1876 57.2273 8.69333
      vertex 60.7481 58.7361 7.79423
      vertex 47.8292 69.6608 7.79423
    endloop
  endfacet
  facet normal 0.0847039 0.100165 0.991359
    outer loop
      vertex 57.513 55.6081 9
      vertex 46.6005 67.8714 8.69333
      vertex 45.2821 65.9511 9
    endloop
  endfacet
  facet normal 0.0847001 0.100161 0.991359
    outer loop
      vertex 57.513 55.6081 9
      vertex 59.1876 57.2273 8.69333
      vertex 46.6005 67.8714 8.69333
    endloop
  endfacet
  facet normal -0.0846984 -0.100159 0.99136
    outer loop
      vertex 55.8383 53.989 8.69333
      vertex 45.2821 65.9511 9
      vertex 43.9636 64.0307 8.69333
    endloop
  endfacet
  facet normal -0.084701 -0.100161 0.991359
    outer loop
      vertex 55.8383 53.989 8.69333
      vertex 57.513 55.6081 9
      vertex 45.2821 65.9511 9
    endloop
  endfacet
  facet normal -0.248163 -0.293466 0.923197
    outer loop
      vertex 54.2779 52.4802 7.79423
      vertex 43.9636 64.0307 8.69333
      vertex 42.7349 62.2413 7.79423
    endloop
  endfacet
  facet normal -0.248173 -0.293474 0.923192
    outer loop
      vertex 54.2779 52.4802 7.79423
      vertex 55.8383 53.989 8.69333
      vertex 43.9636 64.0307 8.69333
    endloop
  endfacet
  facet normal -0.39434 -0.466318 0.79186
    outer loop
      vertex 52.9378 51.1845 6.36396
      vertex 42.7349 62.2413 7.79423
      vertex 41.6799 60.7047 6.36396
    endloop
  endfacet
  facet normal -0.394316 -0.466299 0.791884
    outer loop
      vertex 52.9378 51.1845 6.36396
      vertex 54.2779 52.4802 7.79423
      vertex 42.7349 62.2413 7.79423
    endloop
  endfacet
  facet normal -0.513227 -0.606915 0.606838
    outer loop
      vertex 51.9096 50.1904 4.5
      vertex 41.6799 60.7047 6.36396
      vertex 40.8703 59.5256 4.5
    endloop
  endfacet
  facet normal -0.513246 -0.606928 0.606809
    outer loop
      vertex 51.9096 50.1904 4.5
      vertex 52.9378 51.1845 6.36396
      vertex 41.6799 60.7047 6.36396
    endloop
  endfacet
  facet normal -0.597002 -0.705976 0.381034
    outer loop
      vertex 51.2632 49.5654 2.32937
      vertex 40.8703 59.5256 4.5
      vertex 40.3614 58.7844 2.32937
    endloop
  endfacet
  facet normal -0.596993 -0.705972 0.381055
    outer loop
      vertex 51.2632 49.5654 2.32937
      vertex 51.9096 50.1904 4.5
      vertex 40.8703 59.5256 4.5
    endloop
  endfacet
  facet normal -0.640243 -0.757113 0.129882
    outer loop
      vertex 51.0428 49.3522 0
      vertex 40.3614 58.7844 2.32937
      vertex 40.1878 58.5316 0
    endloop
  endfacet
  facet normal -0.640245 -0.757112 0.129875
    outer loop
      vertex 51.0428 49.3522 0
      vertex 51.2632 49.5654 2.32937
      vertex 40.3614 58.7844 2.32937
    endloop
  endfacet
  facet normal -0.0863465 -0.987773 -0.129799
    outer loop
      vertex 16.7259 86.1182 2.07055
      vertex 1.94467e-14 87.5803 2.07055
      vertex 1.95021e-14 87.8295 0.174133
    endloop
  endfacet
  facet normal -0.0863427 -0.987761 -0.129899
    outer loop
      vertex 16.7779 86.3858 0
      vertex 1.95021e-14 87.8295 0.174133
      vertex 1.95071e-14 87.8524 0
    endloop
  endfacet
  facet normal -0.0863428 -0.98777 -0.129829
    outer loop
      vertex 1.95021e-14 87.8295 0.174133
      vertex 16.7779 86.3858 0
      vertex 16.7259 86.1182 2.07055
    endloop
  endfacet
  facet normal -0.0805143 -0.921104 -0.380899
    outer loop
      vertex 16.5735 85.3337 4
      vertex 1.92696e-14 86.7824 4
      vertex 1.94317e-14 87.5128 2.23372
    endloop
  endfacet
  facet normal -0.0805142 -0.921054 -0.381021
    outer loop
      vertex 16.7259 86.1182 2.07055
      vertex 1.94317e-14 87.5128 2.23372
      vertex 1.94467e-14 87.5803 2.07055
    endloop
  endfacet
  facet normal -0.0805178 -0.921113 -0.380877
    outer loop
      vertex 1.94317e-14 87.5128 2.23372
      vertex 16.7259 86.1182 2.07055
      vertex 16.5735 85.3337 4
    endloop
  endfacet
  facet normal -0.0692287 -0.79195 -0.606649
    outer loop
      vertex 16.3312 84.0856 5.65685
      vertex 1.89877e-14 85.5132 5.65685
      vertex 1.92456e-14 86.6745 4.14083
    endloop
  endfacet
  facet normal -0.0692124 -0.791892 -0.606726
    outer loop
      vertex 1.92696e-14 86.7824 4
      vertex 16.3312 84.0856 5.65685
      vertex 1.92456e-14 86.6745 4.14083
    endloop
  endfacet
  facet normal -0.0692228 -0.791927 -0.606679
    outer loop
      vertex 16.3312 84.0856 5.65685
      vertex 1.92696e-14 86.7824 4
      vertex 16.5735 85.3337 4
    endloop
  endfacet
  facet normal -0.0531919 -0.608532 -0.791744
    outer loop
      vertex 16.0153 82.4592 6.9282
      vertex 1.86205e-14 83.8591 6.9282
      vertex 1.89564e-14 85.372 5.76539
    endloop
  endfacet
  facet normal -0.0531976 -0.608556 -0.791726
    outer loop
      vertex 1.89564e-14 85.372 5.76539
      vertex 16.3312 84.0856 5.65685
      vertex 16.0153 82.4592 6.9282
    endloop
  endfacet
  facet normal -0.0531995 -0.608582 -0.791706
    outer loop
      vertex 16.3312 84.0856 5.65685
      vertex 1.89564e-14 85.372 5.76539
      vertex 1.89877e-14 85.5132 5.65685
    endloop
  endfacet
  facet normal -0.0334811 -0.383018 -0.923134
    outer loop
      vertex 15.6474 80.5651 7.72741
      vertex 1.81928e-14 81.9329 7.72741
      vertex 1.85838e-14 83.6941 6.99667
    endloop
  endfacet
  facet normal -0.0334798 -0.383012 -0.923137
    outer loop
      vertex 1.85838e-14 83.6941 6.99667
      vertex 16.0153 82.4592 6.9282
      vertex 15.6474 80.5651 7.72741
    endloop
  endfacet
  facet normal -0.0334837 -0.383065 -0.923115
    outer loop
      vertex 16.0153 82.4592 6.9282
      vertex 1.85838e-14 83.6941 6.99667
      vertex 1.86205e-14 83.8591 6.9282
    endloop
  endfacet
  facet normal -0.0114272 -0.130734 -0.991352
    outer loop
      vertex 15.2526 78.5326 8
      vertex 1.77338e-14 79.8658 8
      vertex 1.81534e-14 81.7554 7.75081
    endloop
  endfacet
  facet normal -0.0114276 -0.130736 -0.991351
    outer loop
      vertex 1.81534e-14 81.7554 7.75081
      vertex 15.6474 80.5651 7.72741
      vertex 15.2526 78.5326 8
    endloop
  endfacet
  facet normal -0.0114243 -0.130692 -0.991357
    outer loop
      vertex 15.6474 80.5651 7.72741
      vertex 1.81534e-14 81.7554 7.75081
      vertex 1.81928e-14 81.9329 7.72741
    endloop
  endfacet
  facet normal 0.0114269 0.13073 -0.991352
    outer loop
      vertex 14.8579 76.5 7.72741
      vertex 1.72748e-14 77.7987 7.72741
      vertex 1.76943e-14 79.6882 7.97658
    endloop
  endfacet
  facet normal 0.0114269 0.13073 -0.991352
    outer loop
      vertex 1.76943e-14 79.6882 7.97658
      vertex 15.2526 78.5326 8
      vertex 14.8579 76.5 7.72741
    endloop
  endfacet
  facet normal 0.0114268 0.130729 -0.991352
    outer loop
      vertex 15.2526 78.5326 8
      vertex 1.76943e-14 79.6882 7.97658
      vertex 1.77338e-14 79.8658 8
    endloop
  endfacet
  facet normal 0.0334809 0.383024 -0.923131
    outer loop
      vertex 14.49 74.6059 6.9282
      vertex 1.68471e-14 75.8725 6.9282
      vertex 1.72381e-14 77.6334 7.65883
    endloop
  endfacet
  facet normal 0.0334781 0.383012 -0.923136
    outer loop
      vertex 1.72381e-14 77.6334 7.65883
      vertex 14.8579 76.5 7.72741
      vertex 14.49 74.6059 6.9282
    endloop
  endfacet
  facet normal 0.0334769 0.382996 -0.923143
    outer loop
      vertex 14.8579 76.5 7.72741
      vertex 1.72381e-14 77.6334 7.65883
      vertex 1.72748e-14 77.7987 7.72741
    endloop
  endfacet
  facet normal 0.0531888 0.608526 -0.791749
    outer loop
      vertex 14.1741 72.9795 5.65685
      vertex 1.64798e-14 74.2184 5.65685
      vertex 1.68157e-14 75.731 6.81941
    endloop
  endfacet
  facet normal 0.0531966 0.608556 -0.791726
    outer loop
      vertex 1.68157e-14 75.731 6.81941
      vertex 14.49 74.6059 6.9282
      vertex 14.1741 72.9795 5.65685
    endloop
  endfacet
  facet normal 0.0532033 0.60865 -0.791653
    outer loop
      vertex 14.49 74.6059 6.9282
      vertex 1.68157e-14 75.731 6.81941
      vertex 1.68471e-14 75.8725 6.9282
    endloop
  endfacet
  facet normal 0.0692251 0.791939 -0.606664
    outer loop
      vertex 13.9317 71.7314 4
      vertex 1.6198e-14 72.9492 4
      vertex 1.64558e-14 74.1103 5.5157
    endloop
  endfacet
  facet normal 0.069219 0.791925 -0.606682
    outer loop
      vertex 13.9317 71.7314 4
      vertex 1.64798e-14 74.2184 5.65685
      vertex 14.1741 72.9795 5.65685
    endloop
  endfacet
  facet normal 0.0692485 0.792013 -0.606564
    outer loop
      vertex 1.64798e-14 74.2184 5.65685
      vertex 13.9317 71.7314 4
      vertex 1.64558e-14 74.1103 5.5157
    endloop
  endfacet
  facet normal 0.0805186 0.92112 -0.38086
    outer loop
      vertex 13.7793 70.9469 2.07055
      vertex 1.60208e-14 72.1514 2.07055
      vertex 1.6183e-14 72.8816 3.83656
    endloop
  endfacet
  facet normal 0.0805134 0.921077 -0.380964
    outer loop
      vertex 13.9317 71.7314 4
      vertex 1.6183e-14 72.8816 3.83656
      vertex 1.6198e-14 72.9492 4
    endloop
  endfacet
  facet normal 0.0805153 0.921113 -0.380877
    outer loop
      vertex 1.6183e-14 72.8816 3.83656
      vertex 13.9317 71.7314 4
      vertex 13.7793 70.9469 2.07055
    endloop
  endfacet
  facet normal 0.0863398 0.987766 -0.129858
    outer loop
      vertex 13.7274 70.6793 0
      vertex 1.59604e-14 71.8792 0
      vertex 1.60157e-14 72.1285 1.89631
    endloop
  endfacet
  facet normal 0.0863447 0.987771 -0.129821
    outer loop
      vertex 13.7793 70.9469 2.07055
      vertex 1.60157e-14 72.1285 1.89631
      vertex 1.60208e-14 72.1514 2.07055
    endloop
  endfacet
  facet normal 0.0863447 0.98777 -0.129825
    outer loop
      vertex 1.60157e-14 72.1285 1.89631
      vertex 13.7793 70.9469 2.07055
      vertex 13.7274 70.6793 0
    endloop
  endfacet
  facet normal -0.289676 -0.948278 -0.129831
    outer loop
      vertex 34.253 80.7641 2.07055
      vertex 16.7259 86.1182 2.07055
      vertex 16.7779 86.3858 0
    endloop
  endfacet
  facet normal -0.289681 -0.948282 -0.129794
    outer loop
      vertex 34.253 80.7641 2.07055
      vertex 16.7779 86.3858 0
      vertex 34.3594 81.015 0
    endloop
  endfacet
  facet normal -0.270132 -0.884285 -0.38088
    outer loop
      vertex 33.9409 80.0283 4
      vertex 16.5735 85.3337 4
      vertex 16.7259 86.1182 2.07055
    endloop
  endfacet
  facet normal -0.270124 -0.884273 -0.380913
    outer loop
      vertex 33.9409 80.0283 4
      vertex 16.7259 86.1182 2.07055
      vertex 34.253 80.7641 2.07055
    endloop
  endfacet
  facet normal -0.232244 -0.76027 -0.606673
    outer loop
      vertex 33.4445 78.8579 5.65685
      vertex 16.3312 84.0856 5.65685
      vertex 16.5735 85.3337 4
    endloop
  endfacet
  facet normal -0.232252 -0.760286 -0.60665
    outer loop
      vertex 33.4445 78.8579 5.65685
      vertex 16.5735 85.3337 4
      vertex 33.9409 80.0283 4
    endloop
  endfacet
  facet normal -0.178467 -0.584225 -0.791726
    outer loop
      vertex 32.7976 77.3326 6.9282
      vertex 16.0153 82.4592 6.9282
      vertex 16.3312 84.0856 5.65685
    endloop
  endfacet
  facet normal -0.178466 -0.584222 -0.791729
    outer loop
      vertex 32.7976 77.3326 6.9282
      vertex 16.3312 84.0856 5.65685
      vertex 33.4445 78.8579 5.65685
    endloop
  endfacet
  facet normal -0.112322 -0.367698 -0.923137
    outer loop
      vertex 32.0443 75.5563 7.72741
      vertex 15.6474 80.5651 7.72741
      vertex 16.0153 82.4592 6.9282
    endloop
  endfacet
  facet normal -0.112326 -0.367709 -0.923132
    outer loop
      vertex 32.0443 75.5563 7.72741
      vertex 16.0153 82.4592 6.9282
      vertex 32.7976 77.3326 6.9282
    endloop
  endfacet
  facet normal -0.0383407 -0.125508 -0.991351
    outer loop
      vertex 31.2358 73.65 8
      vertex 15.2526 78.5326 8
      vertex 15.6474 80.5651 7.72741
    endloop
  endfacet
  facet normal -0.0383363 -0.125499 -0.991353
    outer loop
      vertex 31.2358 73.65 8
      vertex 15.6474 80.5651 7.72741
      vertex 32.0443 75.5563 7.72741
    endloop
  endfacet
  facet normal 0.0383393 0.125504 -0.991352
    outer loop
      vertex 30.4274 71.7438 7.72741
      vertex 14.8579 76.5 7.72741
      vertex 15.2526 78.5326 8
    endloop
  endfacet
  facet normal 0.0383398 0.125506 -0.991352
    outer loop
      vertex 30.4274 71.7438 7.72741
      vertex 15.2526 78.5326 8
      vertex 31.2358 73.65 8
    endloop
  endfacet
  facet normal 0.112324 0.367698 -0.923137
    outer loop
      vertex 29.674 69.9675 6.9282
      vertex 14.49 74.6059 6.9282
      vertex 14.8579 76.5 7.72741
    endloop
  endfacet
  facet normal 0.112327 0.367703 -0.923134
    outer loop
      vertex 29.674 69.9675 6.9282
      vertex 14.8579 76.5 7.72741
      vertex 30.4274 71.7438 7.72741
    endloop
  endfacet
  facet normal 0.178469 0.584225 -0.791726
    outer loop
      vertex 29.0271 68.4422 5.65685
      vertex 14.1741 72.9795 5.65685
      vertex 14.49 74.6059 6.9282
    endloop
  endfacet
  facet normal 0.178468 0.584222 -0.791729
    outer loop
      vertex 29.0271 68.4422 5.65685
      vertex 14.49 74.6059 6.9282
      vertex 29.674 69.9675 6.9282
    endloop
  endfacet
  facet normal 0.23224 0.760264 -0.606682
    outer loop
      vertex 28.5307 67.2718 4
      vertex 13.9317 71.7314 4
      vertex 14.1741 72.9795 5.65685
    endloop
  endfacet
  facet normal 0.232252 0.760286 -0.60665
    outer loop
      vertex 28.5307 67.2718 4
      vertex 14.1741 72.9795 5.65685
      vertex 29.0271 68.4422 5.65685
    endloop
  endfacet
  facet normal 0.270129 0.884285 -0.38088
    outer loop
      vertex 28.2187 66.536 2.07055
      vertex 13.7793 70.9469 2.07055
      vertex 13.9317 71.7314 4
    endloop
  endfacet
  facet normal 0.270123 0.884278 -0.380901
    outer loop
      vertex 28.2187 66.536 2.07055
      vertex 13.9317 71.7314 4
      vertex 28.5307 67.2718 4
    endloop
  endfacet
  facet normal 0.289682 0.948278 -0.129818
    outer loop
      vertex 28.1122 66.285 0
      vertex 13.7274 70.6793 0
      vertex 13.7793 70.9469 2.07055
    endloop
  endfacet
  facet normal 0.289676 0.948275 -0.129853
    outer loop
      vertex 28.1122 66.285 0
      vertex 13.7793 70.9469 2.07055
      vertex 28.2187 66.536 2.07055
    endloop
  endfacet
  facet normal -0.480374 -0.867407 -0.129794
    outer loop
      vertex 50.2852 71.8854 2.07055
      vertex 34.253 80.7641 2.07055
      vertex 34.3594 81.015 0
    endloop
  endfacet
  facet normal -0.480375 -0.867407 -0.129785
    outer loop
      vertex 50.2852 71.8854 2.07055
      vertex 34.3594 81.015 0
      vertex 50.4414 72.1087 0
    endloop
  endfacet
  facet normal -0.447945 -0.808856 -0.380917
    outer loop
      vertex 49.8271 71.2305 4
      vertex 33.9409 80.0283 4
      vertex 34.253 80.7641 2.07055
    endloop
  endfacet
  facet normal -0.44795 -0.80886 -0.380901
    outer loop
      vertex 49.8271 71.2305 4
      vertex 34.253 80.7641 2.07055
      vertex 50.2852 71.8854 2.07055
    endloop
  endfacet
  facet normal -0.385142 -0.695442 -0.606651
    outer loop
      vertex 49.0983 70.1887 5.65685
      vertex 33.4445 78.8579 5.65685
      vertex 33.9409 80.0283 4
    endloop
  endfacet
  facet normal -0.385128 -0.695426 -0.606679
    outer loop
      vertex 49.0983 70.1887 5.65685
      vertex 33.9409 80.0283 4
      vertex 49.8271 71.2305 4
    endloop
  endfacet
  facet normal -0.295952 -0.534395 -0.791729
    outer loop
      vertex 48.1486 68.8311 6.9282
      vertex 32.7976 77.3326 6.9282
      vertex 33.4445 78.8579 5.65685
    endloop
  endfacet
  facet normal -0.295953 -0.534396 -0.791728
    outer loop
      vertex 48.1486 68.8311 6.9282
      vertex 33.4445 78.8579 5.65685
      vertex 49.0983 70.1887 5.65685
    endloop
  endfacet
  facet normal -0.186274 -0.336348 -0.923131
    outer loop
      vertex 47.0427 67.25 7.72741
      vertex 32.0443 75.5563 7.72741
      vertex 32.7976 77.3326 6.9282
    endloop
  endfacet
  facet normal -0.186267 -0.33634 -0.923136
    outer loop
      vertex 47.0427 67.25 7.72741
      vertex 32.7976 77.3326 6.9282
      vertex 48.1486 68.8311 6.9282
    endloop
  endfacet
  facet normal -0.0635734 -0.114795 -0.991353
    outer loop
      vertex 45.8559 65.5534 8
      vertex 31.2358 73.65 8
      vertex 32.0443 75.5563 7.72741
    endloop
  endfacet
  facet normal -0.0635797 -0.114804 -0.991351
    outer loop
      vertex 45.8559 65.5534 8
      vertex 32.0443 75.5563 7.72741
      vertex 47.0427 67.25 7.72741
    endloop
  endfacet
  facet normal 0.0635783 0.114802 -0.991352
    outer loop
      vertex 44.669 63.8567 7.72741
      vertex 30.4274 71.7438 7.72741
      vertex 31.2358 73.65 8
    endloop
  endfacet
  facet normal 0.0635745 0.114797 -0.991353
    outer loop
      vertex 44.669 63.8567 7.72741
      vertex 31.2358 73.65 8
      vertex 45.8559 65.5534 8
    endloop
  endfacet
  facet normal 0.186267 0.336343 -0.923135
    outer loop
      vertex 43.5631 62.2757 6.9282
      vertex 29.674 69.9675 6.9282
      vertex 30.4274 71.7438 7.72741
    endloop
  endfacet
  facet normal 0.186275 0.336353 -0.92313
    outer loop
      vertex 43.5631 62.2757 6.9282
      vertex 30.4274 71.7438 7.72741
      vertex 44.669 63.8567 7.72741
    endloop
  endfacet
  facet normal 0.295949 0.534397 -0.791729
    outer loop
      vertex 42.6134 60.9181 5.65685
      vertex 29.0271 68.4422 5.65685
      vertex 29.674 69.9675 6.9282
    endloop
  endfacet
  facet normal 0.29595 0.534398 -0.791727
    outer loop
      vertex 42.6134 60.9181 5.65685
      vertex 29.674 69.9675 6.9282
      vertex 43.5631 62.2757 6.9282
    endloop
  endfacet
  facet normal 0.385142 0.695442 -0.606651
    outer loop
      vertex 41.8846 59.8763 4
      vertex 28.5307 67.2718 4
      vertex 29.0271 68.4422 5.65685
    endloop
  endfacet
  facet normal 0.385127 0.695426 -0.606679
    outer loop
      vertex 41.8846 59.8763 4
      vertex 29.0271 68.4422 5.65685
      vertex 42.6134 60.9181 5.65685
    endloop
  endfacet
  facet normal 0.447954 0.80886 -0.380897
    outer loop
      vertex 41.4265 59.2214 2.07055
      vertex 28.2187 66.536 2.07055
      vertex 28.5307 67.2718 4
    endloop
  endfacet
  facet normal 0.447953 0.808859 -0.380901
    outer loop
      vertex 41.4265 59.2214 2.07055
      vertex 28.5307 67.2718 4
      vertex 41.8846 59.8763 4
    endloop
  endfacet
  facet normal 0.480364 0.867403 -0.129858
    outer loop
      vertex 41.2703 58.9981 0
      vertex 28.1122 66.285 0
      vertex 28.2187 66.536 2.07055
    endloop
  endfacet
  facet normal 0.480377 0.867406 -0.129785
    outer loop
      vertex 41.2703 58.9981 0
      vertex 28.2187 66.536 2.07055
      vertex 41.4265 59.2214 2.07055
    endloop
  endfacet
  facet normal -0.650106 -0.748677 -0.129785
    outer loop
      vertex 50.4414 72.1087 0
      vertex 62.9625 60.8772 2.07055
      vertex 50.2852 71.8854 2.07055
    endloop
  endfacet
  facet normal -0.650152 -0.748682 -0.129529
    outer loop
      vertex 62.9625 60.8772 2.07055
      vertex 50.4414 72.1087 0
      vertex 62.9788 60.893 1.89741
    endloop
  endfacet
  facet normal -0.650121 -0.748677 -0.129711
    outer loop
      vertex 50.4414 72.1087 0
      vertex 63.008 60.9212 1.58829
      vertex 62.9788 60.893 1.89741
    endloop
  endfacet
  facet normal -0.650102 -0.748673 -0.129833
    outer loop
      vertex 63.008 60.9212 1.58829
      vertex 50.4414 72.1087 0
      vertex 63.1581 61.0663 0
    endloop
  endfacet
  facet normal -0.606226 -0.698144 -0.3809
    outer loop
      vertex 50.2852 71.8854 2.07055
      vertex 62.3889 60.3226 4
      vertex 49.8271 71.2305 4
    endloop
  endfacet
  facet normal -0.606261 -0.698165 -0.380806
    outer loop
      vertex 62.3889 60.3226 4
      vertex 50.2852 71.8854 2.07055
      vertex 62.4366 60.3687 3.83954
    endloop
  endfacet
  facet normal -0.606229 -0.698145 -0.380893
    outer loop
      vertex 50.2852 71.8854 2.07055
      vertex 62.828 60.7472 2.52283
      vertex 62.4366 60.3687 3.83954
    endloop
  endfacet
  facet normal -0.606214 -0.698131 -0.380943
    outer loop
      vertex 62.828 60.7472 2.52283
      vertex 50.2852 71.8854 2.07055
      vertex 62.9625 60.8772 2.07055
    endloop
  endfacet
  facet normal -0.521197 -0.600222 -0.606701
    outer loop
      vertex 49.0983 70.1887 5.65685
      vertex 61.5519 59.5133 5.51977
      vertex 61.4764 59.4403 5.65685
    endloop
  endfacet
  facet normal -0.521207 -0.600234 -0.606681
    outer loop
      vertex 61.5519 59.5133 5.51977
      vertex 49.0983 70.1887 5.65685
      vertex 49.8271 71.2305 4
    endloop
  endfacet
  facet normal -0.521206 -0.600233 -0.606683
    outer loop
      vertex 61.5519 59.5133 5.51977
      vertex 49.8271 71.2305 4
      vertex 62.3889 60.3226 4
    endloop
  endfacet
  facet normal -0.400576 -0.461314 -0.791662
    outer loop
      vertex 48.1486 68.8311 6.9282
      vertex 60.3852 58.3853 6.82348
      vertex 60.2873 58.2906 6.9282
    endloop
  endfacet
  facet normal -0.400521 -0.461248 -0.791728
    outer loop
      vertex 60.3852 58.3853 6.82348
      vertex 48.1486 68.8311 6.9282
      vertex 49.0983 70.1887 5.65685
    endloop
  endfacet
  facet normal -0.400502 -0.461232 -0.791747
    outer loop
      vertex 49.0983 70.1887 5.65685
      vertex 60.815 58.8009 6.36396
      vertex 60.3852 58.3853 6.82348
    endloop
  endfacet
  facet normal -0.400539 -0.461267 -0.791708
    outer loop
      vertex 60.815 58.8009 6.36396
      vertex 49.0983 70.1887 5.65685
      vertex 61.1441 59.119 6.01213
    endloop
  endfacet
  facet normal -0.400514 -0.461241 -0.791735
    outer loop
      vertex 61.1441 59.119 6.01213
      vertex 49.0983 70.1887 5.65685
      vertex 61.4764 59.4403 5.65685
    endloop
  endfacet
  facet normal -0.252084 -0.290307 -0.923133
    outer loop
      vertex 47.0427 67.25 7.72741
      vertex 59.0162 57.0616 7.6618
      vertex 58.9025 56.9517 7.72741
    endloop
  endfacet
  facet normal -0.252082 -0.290305 -0.923135
    outer loop
      vertex 59.0162 57.0616 7.6618
      vertex 47.0427 67.25 7.72741
      vertex 48.1486 68.8311 6.9282
    endloop
  endfacet
  facet normal -0.252084 -0.290306 -0.923134
    outer loop
      vertex 59.0162 57.0616 7.6618
      vertex 48.1486 68.8311 6.9282
      vertex 60.2873 58.2906 6.9282
    endloop
  endfacet
  facet normal -0.0860535 -0.0991005 -0.99135
    outer loop
      vertex 45.8559 65.5534 8
      vertex 57.5382 55.6325 7.97767
      vertex 57.4165 55.5148 8
    endloop
  endfacet
  facet normal -0.0860442 -0.0990895 -0.991351
    outer loop
      vertex 57.5382 55.6325 7.97767
      vertex 45.8559 65.5534 8
      vertex 47.0427 67.25 7.72741
    endloop
  endfacet
  facet normal -0.086039 -0.0990849 -0.991352
    outer loop
      vertex 57.5382 55.6325 7.97767
      vertex 47.0427 67.25 7.72741
      vertex 58.9025 56.9517 7.72741
    endloop
  endfacet
  facet normal 0.0860152 0.0990573 -0.991357
    outer loop
      vertex 44.669 63.8567 7.72741
      vertex 56.0521 54.1956 7.74972
      vertex 55.9304 54.078 7.72741
    endloop
  endfacet
  facet normal 0.0860374 0.0990835 -0.991353
    outer loop
      vertex 56.0521 54.1956 7.74972
      vertex 44.669 63.8567 7.72741
      vertex 45.8559 65.5534 8
    endloop
  endfacet
  facet normal 0.0860433 0.0990888 -0.991352
    outer loop
      vertex 56.0521 54.1956 7.74972
      vertex 45.8559 65.5534 8
      vertex 57.4165 55.5148 8
    endloop
  endfacet
  facet normal 0.25211 0.290334 -0.923118
    outer loop
      vertex 43.5631 62.2757 6.9282
      vertex 54.6591 52.8488 6.9937
      vertex 54.5456 52.7391 6.9282
    endloop
  endfacet
  facet normal 0.252092 0.290313 -0.923129
    outer loop
      vertex 54.6591 52.8488 6.9937
      vertex 43.5631 62.2757 6.9282
      vertex 44.669 63.8567 7.72741
    endloop
  endfacet
  facet normal 0.252082 0.290304 -0.923135
    outer loop
      vertex 54.6591 52.8488 6.9937
      vertex 44.669 63.8567 7.72741
      vertex 55.9304 54.078 7.72741
    endloop
  endfacet
  facet normal 0.40055 0.461276 -0.791697
    outer loop
      vertex 42.6134 60.9181 5.65685
      vertex 53.4542 51.6838 5.76134
      vertex 53.3565 51.5893 5.65685
    endloop
  endfacet
  facet normal 0.400524 0.461245 -0.791728
    outer loop
      vertex 53.4542 51.6838 5.76134
      vertex 42.6134 60.9181 5.65685
      vertex 43.5631 62.2757 6.9282
    endloop
  endfacet
  facet normal 0.400498 0.461223 -0.791754
    outer loop
      vertex 43.5631 62.2757 6.9282
      vertex 54.0179 52.2288 6.36396
      vertex 53.4542 51.6838 5.76134
    endloop
  endfacet
  facet normal 0.400519 0.461244 -0.791731
    outer loop
      vertex 54.0179 52.2288 6.36396
      vertex 43.5631 62.2757 6.9282
      vertex 54.5456 52.7391 6.9282
    endloop
  endfacet
  facet normal 0.52128 0.60032 -0.606534
    outer loop
      vertex 41.8846 59.8763 4
      vertex 52.5194 50.7799 4.13677
      vertex 52.4441 50.7071 4
    endloop
  endfacet
  facet normal 0.521208 0.600234 -0.606681
    outer loop
      vertex 52.5194 50.7799 4.13677
      vertex 41.8846 59.8763 4
      vertex 42.6134 60.9181 5.65685
    endloop
  endfacet
  facet normal 0.521226 0.600247 -0.606652
    outer loop
      vertex 52.5194 50.7799 4.13677
      vertex 42.6134 60.9181 5.65685
      vertex 53.3565 51.5893 5.65685
    endloop
  endfacet
  facet normal 0.606156 0.698109 -0.381077
    outer loop
      vertex 51.8792 50.1609 2.0998
      vertex 41.8846 59.8763 4
      vertex 51.9181 50.1986 2.23074
    endloop
  endfacet
  facet normal 0.606256 0.698162 -0.38082
    outer loop
      vertex 51.8705 50.1525 2.07055
      vertex 41.8846 59.8763 4
      vertex 51.8792 50.1609 2.0998
    endloop
  endfacet
  facet normal 0.606225 0.698145 -0.3809
    outer loop
      vertex 41.8846 59.8763 4
      vertex 51.8705 50.1525 2.07055
      vertex 41.4265 59.2214 2.07055
    endloop
  endfacet
  facet normal 0.606222 0.698142 -0.380909
    outer loop
      vertex 52.0327 50.3093 2.61615
      vertex 41.8846 59.8763 4
      vertex 52.4441 50.7071 4
    endloop
  endfacet
  facet normal 0.606261 0.698168 -0.380801
    outer loop
      vertex 41.8846 59.8763 4
      vertex 52.0327 50.3093 2.61615
      vertex 51.9181 50.1986 2.23074
    endloop
  endfacet
  facet normal 0.650093 0.748657 -0.129972
    outer loop
      vertex 41.2703 58.9981 0
      vertex 51.6912 49.9792 0.173039
      vertex 51.6748 49.9634 0
    endloop
  endfacet
  facet normal 0.650107 0.748677 -0.129785
    outer loop
      vertex 51.6912 49.9792 0.173039
      vertex 41.2703 58.9981 0
      vertex 41.4265 59.2214 2.07055
    endloop
  endfacet
  facet normal 0.6501 0.748674 -0.129837
    outer loop
      vertex 51.7428 50.029 0.719018
      vertex 41.4265 59.2214 2.07055
      vertex 51.8705 50.1525 2.07055
    endloop
  endfacet
  facet normal 0.650117 0.748677 -0.129731
    outer loop
      vertex 41.4265 59.2214 2.07055
      vertex 51.7428 50.029 0.719018
      vertex 51.6912 49.9792 0.173039
    endloop
  endfacet
  facet normal 0 0 -1
    outer loop
      vertex 50.4414 72.1087 0
      vertex 63.5422 61.4377 0
      vertex 63.314 61.217 0
    endloop
  endfacet
  facet normal 0 0 -1
    outer loop
      vertex 50.4414 72.1087 0
      vertex 63.314 61.217 0
      vertex 63.1581 61.0663 0
    endloop
  endfacet
  facet normal 0 0 -1
    outer loop
      vertex 63.5422 61.4377 0
      vertex 50.4414 72.1087 0
      vertex 63.9832 61.8641 0
    endloop
  endfacet
  facet normal 0 0 -1
    outer loop
      vertex 50.4414 72.1087 0
      vertex 50.3763 73.3705 0
      vertex 63.9832 61.8641 0
    endloop
  endfacet
  facet normal 0 0 -1
    outer loop
      vertex 34.3594 81.015 0
      vertex 50.3763 73.3705 0
      vertex 50.4414 72.1087 0
    endloop
  endfacet
  facet normal 0 0 -1
    outer loop
      vertex 50.3763 73.3705 0
      vertex 34.3594 81.015 0
      vertex 34.7498 81.9357 0
    endloop
  endfacet
  facet normal 0 0 -1
    outer loop
      vertex 34.3594 81.015 0
      vertex 17.7303 87.2161 0
      vertex 34.7498 81.9357 0
    endloop
  endfacet
  facet normal 0 0 -1
    outer loop
      vertex 16.7779 86.3858 0
      vertex 17.7303 87.2161 0
      vertex 34.3594 81.015 0
    endloop
  endfacet
  facet normal 0 0 -1
    outer loop
      vertex 16.7779 86.3858 0
      vertex 1.9762e-14 89 0
      vertex 17.7303 87.2161 0
    endloop
  endfacet
  facet normal 0 -0 -1
    outer loop
      vertex 1.9762e-14 89 0
      vertex 16.7779 86.3858 0
      vertex 1.95071e-14 87.8524 0
    endloop
  endfacet
  facet normal 0 0 -1
    outer loop
      vertex 51.4837 49.7786 0
      vertex 41.2703 58.9981 0
      vertex 51.6748 49.9634 0
    endloop
  endfacet
  facet normal 0 0 -1
    outer loop
      vertex 51.0428 49.3522 0
      vertex 41.2703 58.9981 0
      vertex 51.4837 49.7786 0
    endloop
  endfacet
  facet normal 0 0 -1
    outer loop
      vertex 40.1878 58.5316 0
      vertex 41.2703 58.9981 0
      vertex 51.0428 49.3522 0
    endloop
  endfacet
  facet normal 0 0 -1
    outer loop
      vertex 40.1878 58.5316 0
      vertex 28.1122 66.285 0
      vertex 41.2703 58.9981 0
    endloop
  endfacet
  facet normal 0 0 -1
    outer loop
      vertex 27.7218 65.3644 0
      vertex 28.1122 66.285 0
      vertex 40.1878 58.5316 0
    endloop
  endfacet
  facet normal 0 0 -1
    outer loop
      vertex 14.1444 69.5769 0
      vertex 28.1122 66.285 0
      vertex 27.7218 65.3644 0
    endloop
  endfacet
  facet normal 0 0 -1
    outer loop
      vertex 14.1444 69.5769 0
      vertex 13.7274 70.6793 0
      vertex 28.1122 66.285 0
    endloop
  endfacet
  facet normal 0 0 -1
    outer loop
      vertex 1.57652e-14 71 0
      vertex 13.7274 70.6793 0
      vertex 14.1444 69.5769 0
    endloop
  endfacet
  facet normal 0 0 -1
    outer loop
      vertex 13.7274 70.6793 0
      vertex 1.57652e-14 71 0
      vertex 1.59604e-14 71.8792 0
    endloop
  endfacet
endsolid OpenSCAD_Model
