solid OpenSCAD_Model
  facet normal -1 2.22048e-16 1.41276e-20
    outer loop
      vertex 7.31031e-15 32.9227 0.179982
      vertex 7.54952e-15 34 0
      vertex 7.31557e-15 32.9464 0
    endloop
  endfacet
  facet normal -1 2.22045e-16 -4.71468e-21
    outer loop
      vertex 7.54952e-15 34 0
      vertex 7.31031e-15 32.9227 0.179982
      vertex 7.48143e-15 33.6934 2.32937
    endloop
  endfacet
  facet normal -1 2.22027e-16 1.90891e-21
    outer loop
      vertex 7.25514e-15 32.6742 2.07055
      vertex 7.48143e-15 33.6934 2.32937
      vertex 7.31031e-15 32.9227 0.179982
    endloop
  endfacet
  facet normal -1 2.2204e-16 -4.94003e-20
    outer loop
      vertex 7.2395e-15 32.6038 2.2408
      vertex 7.48143e-15 33.6934 2.32937
      vertex 7.25514e-15 32.6742 2.07055
    endloop
  endfacet
  facet normal -1 2.22036e-16 -3.46906e-21
    outer loop
      vertex 7.48143e-15 33.6934 2.32937
      vertex 7.2395e-15 32.6038 2.2408
      vertex 7.28179e-15 32.7943 4.5
    endloop
  endfacet
  facet normal -1 2.22028e-16 -2.77456e-21
    outer loop
      vertex 7.07797e-15 31.8763 4
      vertex 7.28179e-15 32.7943 4.5
      vertex 7.2395e-15 32.6038 2.2408
    endloop
  endfacet
  facet normal -1 2.22072e-16 -8.48228e-20
    outer loop
      vertex 7.05273e-15 31.7627 4.14833
      vertex 7.28179e-15 32.7943 4.5
      vertex 7.07797e-15 31.8763 4
    endloop
  endfacet
  facet normal -1 2.22042e-16 3.70591e-21
    outer loop
      vertex 7.05273e-15 31.7627 4.14833
      vertex 6.96421e-15 31.364 6.36396
      vertex 7.28179e-15 32.7943 4.5
    endloop
  endfacet
  facet normal -1 2.22033e-16 1.96819e-21
    outer loop
      vertex 6.79613e-15 30.607 5.65685
      vertex 6.96421e-15 31.364 6.36396
      vertex 7.05273e-15 31.7627 4.14833
    endloop
  endfacet
  facet normal -1 2.22044e-16 -1.03473e-20
    outer loop
      vertex 6.7628e-15 30.4569 5.77223
      vertex 6.96421e-15 31.364 6.36396
      vertex 6.79613e-15 30.607 5.65685
    endloop
  endfacet
  facet normal -1 2.2204e-16 -4.74049e-21
    outer loop
      vertex 6.7628e-15 30.4569 5.77223
      vertex 6.55032e-15 29.5 7.79423
      vertex 6.96421e-15 31.364 6.36396
    endloop
  endfacet
  facet normal -1 2.22057e-16 3.08692e-21
    outer loop
      vertex 6.42883e-15 28.9529 6.9282
      vertex 6.55032e-15 29.5 7.79423
      vertex 6.7628e-15 30.4569 5.77223
    endloop
  endfacet
  facet normal -1 2.21995e-16 4.22383e-20
    outer loop
      vertex 6.38954e-15 28.7759 7.00161
      vertex 6.55032e-15 29.5 7.79423
      vertex 6.42883e-15 28.9529 6.9282
    endloop
  endfacet
  facet normal -1 2.22044e-16 -2.28084e-21
    outer loop
      vertex 6.38954e-15 28.7759 7.00161
      vertex 6.06835e-15 27.3294 8.69333
      vertex 6.55032e-15 29.5 7.79423
    endloop
  endfacet
  facet normal -1 2.22059e-16 1.08895e-20
    outer loop
      vertex 6.0011e-15 27.0266 7.72741
      vertex 6.06835e-15 27.3294 8.69333
      vertex 6.38954e-15 28.7759 7.00161
    endloop
  endfacet
  facet normal -1 2.21956e-16 4.33033e-20
    outer loop
      vertex 5.95853e-15 26.8348 7.75269
      vertex 6.06835e-15 27.3294 8.69333
      vertex 6.0011e-15 27.0266 7.72741
    endloop
  endfacet
  facet normal -1 2.22044e-16 -3.09458e-21
    outer loop
      vertex 5.95853e-15 26.8348 7.75269
      vertex 5.55112e-15 25 9
      vertex 6.06835e-15 27.3294 8.69333
    endloop
  endfacet
  facet normal -1 2.22049e-16 4.79994e-21
    outer loop
      vertex 5.5421e-15 24.9594 8
      vertex 5.55112e-15 25 9
      vertex 5.95853e-15 26.8348 7.75269
    endloop
  endfacet
  facet normal -1 2.22084e-16 3.40861e-21
    outer loop
      vertex 5.49926e-15 24.7665 7.97456
      vertex 5.55112e-15 25 9
      vertex 5.5421e-15 24.9594 8
    endloop
  endfacet
  facet normal -1 2.22041e-16 -8.12903e-21
    outer loop
      vertex 5.0339e-15 22.6707 8.69333
      vertex 5.49926e-15 24.7665 7.97456
      vertex 5.08309e-15 22.8922 7.72741
    endloop
  endfacet
  facet normal -1 2.22057e-16 -4.43781e-21
    outer loop
      vertex 5.0339e-15 22.6707 8.69333
      vertex 5.08309e-15 22.8922 7.72741
      vertex 5.04312e-15 22.7122 7.65272
    endloop
  endfacet
  facet normal -1 2.22048e-16 1.14927e-20
    outer loop
      vertex 5.49926e-15 24.7665 7.97456
      vertex 5.0339e-15 22.6707 8.69333
      vertex 5.55112e-15 25 9
    endloop
  endfacet
  facet normal -1 2.22042e-16 1.08719e-20
    outer loop
      vertex 4.55192e-15 20.5 7.79423
      vertex 5.04312e-15 22.7122 7.65272
      vertex 4.65536e-15 20.9659 6.9282
    endloop
  endfacet
  facet normal -1 2.22036e-16 7.50539e-21
    outer loop
      vertex 4.55192e-15 20.5 7.79423
      vertex 4.65536e-15 20.9659 6.9282
      vertex 4.62121e-15 20.8121 6.81
    endloop
  endfacet
  facet normal -1 2.22041e-16 -5.08848e-21
    outer loop
      vertex 5.04312e-15 22.7122 7.65272
      vertex 4.55192e-15 20.5 7.79423
      vertex 5.0339e-15 22.6707 8.69333
    endloop
  endfacet
  facet normal -1 2.22047e-16 -7.53689e-21
    outer loop
      vertex 4.13804e-15 18.6361 6.36396
      vertex 4.62121e-15 20.8121 6.81
      vertex 4.28806e-15 19.3117 5.65685
    endloop
  endfacet
  facet normal -1 2.22019e-16 -3.41094e-20
    outer loop
      vertex 4.13804e-15 18.6361 6.36396
      vertex 4.28806e-15 19.3117 5.65685
      vertex 4.2622e-15 19.1952 5.50479
    endloop
  endfacet
  facet normal -1 2.22043e-16 9.78432e-21
    outer loop
      vertex 4.62121e-15 20.8121 6.81
      vertex 4.13804e-15 18.6361 6.36396
      vertex 4.55192e-15 20.5 7.79423
    endloop
  endfacet
  facet normal -1 2.2205e-16 -6.07746e-21
    outer loop
      vertex 3.82046e-15 17.2058 4.5
      vertex 4.2622e-15 19.1952 5.50479
      vertex 4.00623e-15 18.0424 4
    endloop
  endfacet
  facet normal -1 2.22078e-16 4.04992e-20
    outer loop
      vertex 3.82046e-15 17.2058 4.5
      vertex 4.00623e-15 18.0424 4
      vertex 3.9903e-15 17.9707 3.82654
    endloop
  endfacet
  facet normal -1 2.22059e-16 -1.10524e-20
    outer loop
      vertex 3.62081e-15 16.3067 2.32937
      vertex 3.9903e-15 17.9707 3.82654
      vertex 3.82906e-15 17.2445 2.07055
    endloop
  endfacet
  facet normal -1 2.22053e-16 -1.19198e-20
    outer loop
      vertex 4.2622e-15 19.1952 5.50479
      vertex 3.82046e-15 17.2058 4.5
      vertex 4.13804e-15 18.6361 6.36396
    endloop
  endfacet
  facet normal -1 2.2207e-16 2.61857e-20
    outer loop
      vertex 3.62081e-15 16.3067 2.32937
      vertex 3.82906e-15 17.2445 2.07055
      vertex 3.82377e-15 17.2207 1.88931
    endloop
  endfacet
  facet normal -1 2.22038e-16 4.18199e-21
    outer loop
      vertex 3.55272e-15 16 0
      vertex 3.82377e-15 17.2207 1.88931
      vertex 3.76863e-15 16.9724 0
    endloop
  endfacet
  facet normal -1 2.22046e-16 4.0343e-21
    outer loop
      vertex 3.9903e-15 17.9707 3.82654
      vertex 3.62081e-15 16.3067 2.32937
      vertex 3.82046e-15 17.2058 4.5
    endloop
  endfacet
  facet normal -1 2.22054e-16 -5.99467e-21
    outer loop
      vertex 3.82377e-15 17.2207 1.88931
      vertex 3.55272e-15 16 0
      vertex 3.62081e-15 16.3067 2.32937
    endloop
  endfacet
  facet normal 0.711666 -0.702518 -8.93143e-05
    outer loop
      vertex 23.8773 24.2049 0
      vertex 23.662 23.9865 2.32937
      vertex 23.0305 23.3465 4.5
    endloop
  endfacet
  facet normal 0.711921 -0.70226 -2.43096e-05
    outer loop
      vertex 12.6707 12.8445 4
      vertex 12.0832 12.2489 4.5
      vertex 12.2601 12.4283 2.58616
    endloop
  endfacet
  facet normal 0.711936 -0.702244 1.1414e-05
    outer loop
      vertex 12.743 12.9178 4.1343
      vertex 12.0832 12.2489 4.5
      vertex 12.6707 12.8445 4
    endloop
  endfacet
  facet normal 0.711921 -0.70226 -4.53136e-05
    outer loop
      vertex 12.0832 12.2489 4.5
      vertex 12.743 12.9178 4.1343
      vertex 13.161 13.3415 4.91122
    endloop
  endfacet
  facet normal 0.711905 -0.702276 -2.19098e-05
    outer loop
      vertex 20.2703 20.5484 6.96514
      vertex 20.7171 21.0013 7.79423
      vertex 19.5929 19.8617 7.36532
    endloop
  endfacet
  facet normal 0.711924 -0.702256 1.04986e-05
    outer loop
      vertex 23.0305 23.3465 4.5
      vertex 22.0261 22.3283 6.36396
      vertex 20.7171 21.0013 7.79423
    endloop
  endfacet
  facet normal 0.711927 -0.702253 7.75428e-05
    outer loop
      vertex 20.7171 21.0013 7.79423
      vertex 19.1927 19.456 8.69333
      vertex 17.5569 17.7977 9
    endloop
  endfacet
  facet normal 0.711896 -0.702285 3.06224e-05
    outer loop
      vertex 17.5569 17.7977 9
      vertex 15.921 16.1394 8.69333
      vertex 14.3966 14.5941 7.79423
    endloop
  endfacet
  facet normal 0.711897 -0.702283 2.12336e-05
    outer loop
      vertex 14.3966 14.5941 7.79423
      vertex 15.8361 16.0533 7.58533
      vertex 17.5569 17.7977 9
    endloop
  endfacet
  facet normal 0.711899 -0.702281 4.91489e-05
    outer loop
      vertex 15.8361 16.0533 7.58533
      vertex 14.3966 14.5941 7.79423
      vertex 14.8315 15.0349 6.99181
    endloop
  endfacet
  facet normal 0.711706 -0.702478 -0.000163605
    outer loop
      vertex 14.8315 15.0349 6.99181
      vertex 14.3966 14.5941 7.79423
      vertex 14.7238 14.9258 6.9282
    endloop
  endfacet
  facet normal 0.71192 -0.70226 6.67783e-07
    outer loop
      vertex 14.3966 14.5941 7.79423
      vertex 13.7788 13.9678 5.89399
      vertex 14.7238 14.9258 6.9282
    endloop
  endfacet
  facet normal 0.711913 -0.702267 5.31273e-06
    outer loop
      vertex 13.7788 13.9678 5.89399
      vertex 14.3966 14.5941 7.79423
      vertex 12.0832 12.2489 4.5
    endloop
  endfacet
  facet normal 0.711914 -0.702267 3.80722e-06
    outer loop
      vertex 12.0832 12.2489 4.5
      vertex 13.6551 13.8424 5.75857
      vertex 13.7788 13.9678 5.89399
    endloop
  endfacet
  facet normal 0.711891 -0.70229 0.000109296
    outer loop
      vertex 13.5621 13.7482 5.65685
      vertex 12.0832 12.2489 4.5
      vertex 13.161 13.3415 4.91122
    endloop
  endfacet
  facet normal 0.712706 -0.701461 -0.00200583
    outer loop
      vertex 13.6551 13.8424 5.75857
      vertex 12.0832 12.2489 4.5
      vertex 13.5621 13.7482 5.65685
    endloop
  endfacet
  facet normal 0.711902 -0.702279 -7.8632e-06
    outer loop
      vertex 20.7171 21.0013 7.79423
      vertex 19.0896 19.3515 7.66268
      vertex 19.5929 19.8617 7.36532
    endloop
  endfacet
  facet normal 0.711901 -0.70228 1.65945e-05
    outer loop
      vertex 20.7171 21.0013 7.79423
      vertex 18.98 19.2404 7.72741
      vertex 19.0896 19.3515 7.66268
    endloop
  endfacet
  facet normal 0.711902 -0.702278 -5.40269e-05
    outer loop
      vertex 17.5569 17.7977 9
      vertex 18.98 19.2404 7.72741
      vertex 20.7171 21.0013 7.79423
    endloop
  endfacet
  facet normal 0.711896 -0.702284 -6.75618e-05
    outer loop
      vertex 18.98 19.2404 7.72741
      vertex 17.5569 17.7977 9
      vertex 17.6447 17.8868 7.97814
    endloop
  endfacet
  facet normal 0.711911 -0.70227 -6.5051e-05
    outer loop
      vertex 17.5569 17.7977 9
      vertex 17.5283 17.7688 8
      vertex 17.6447 17.8868 7.97814
    endloop
  endfacet
  facet normal 0.711932 -0.702248 -6.62916e-05
    outer loop
      vertex 17.5569 17.7977 9
      vertex 16.1923 16.4144 7.74913
      vertex 17.5283 17.7688 8
    endloop
  endfacet
  facet normal 0.711957 -0.702223 -0.000120631
    outer loop
      vertex 17.5569 17.7977 9
      vertex 16.0766 16.2971 7.72741
      vertex 16.1923 16.4144 7.74913
    endloop
  endfacet
  facet normal 0.711915 -0.702266 -2.08325e-05
    outer loop
      vertex 16.0766 16.2971 7.72741
      vertex 17.5569 17.7977 9
      vertex 15.8361 16.0533 7.58533
    endloop
  endfacet
  facet normal 0.711811 -0.702371 0.000151442
    outer loop
      vertex 14.3966 14.5941 7.79423
      vertex 13.0876 13.2672 6.36396
      vertex 12.0832 12.2489 4.5
    endloop
  endfacet
  facet normal 0.711901 -0.70228 0
    outer loop
      vertex 11.2364 11.3905 0
      vertex 12.0832 12.2489 1.77582
      vertex 12.0832 12.2489 4.5
    endloop
  endfacet
  facet normal 0.711914 -0.702267 -1.26773e-05
    outer loop
      vertex 12.0832 12.2489 1.77582
      vertex 11.2364 11.3905 0
      vertex 11.9355 12.0992 0.176044
    endloop
  endfacet
  facet normal 0.711923 -0.702257 -9.17102e-05
    outer loop
      vertex 11.9355 12.0992 0.176044
      vertex 11.2364 11.3905 0
      vertex 11.9193 12.0828 0
    endloop
  endfacet
  facet normal 0.711824 -0.702358 2.92366e-05
    outer loop
      vertex 12.0832 12.2489 4.5
      vertex 11.4518 11.6089 2.32937
      vertex 11.2364 11.3905 0
    endloop
  endfacet
  facet normal 0.712153 -0.702025 1.91221e-05
    outer loop
      vertex 12.0832 12.2489 4.5
      vertex 12.1568 12.3235 2.23025
      vertex 12.2601 12.4283 2.58616
    endloop
  endfacet
  facet normal 0.711657 -0.702527 -1.3442e-05
    outer loop
      vertex 12.1568 12.3235 2.23025
      vertex 12.0832 12.2489 4.5
      vertex 12.1104 12.2765 2.07055
    endloop
  endfacet
  facet normal 0.712249 -0.701927 0
    outer loop
      vertex 12.1104 12.2765 2.07055
      vertex 12.0832 12.2489 4.5
      vertex 12.0832 12.2489 1.77582
    endloop
  endfacet
  facet normal 0.71195 -0.70223 0
    outer loop
      vertex 20.7171 21.0013 7.79423
      vertex 20.4281 20.7083 6.82397
      vertex 20.7171 21.0013 6.50768
    endloop
  endfacet
  facet normal 0.711623 -0.702561 0.000197149
    outer loop
      vertex 20.7171 21.0013 7.79423
      vertex 20.3328 20.6118 6.9282
      vertex 20.4281 20.7083 6.82397
    endloop
  endfacet
  facet normal 0.712081 -0.702097 -0.000214464
    outer loop
      vertex 20.3328 20.6118 6.9282
      vertex 20.7171 21.0013 7.79423
      vertex 20.2703 20.5484 6.96514
    endloop
  endfacet
  facet normal 0.711973 -0.702207 -7.88644e-06
    outer loop
      vertex 23.0305 23.3465 4.5
      vertex 22.4332 22.7409 3.83727
      vertex 22.72 23.0317 2.84963
    endloop
  endfacet
  facet normal 0.711867 -0.702315 0.000186908
    outer loop
      vertex 23.0305 23.3465 4.5
      vertex 22.3859 22.693 4
      vertex 22.4332 22.7409 3.83727
    endloop
  endfacet
  facet normal 0.711928 -0.702253 2.7551e-05
    outer loop
      vertex 23.0305 23.3465 4.5
      vertex 21.5686 21.8645 5.51914
      vertex 22.3859 22.693 4
    endloop
  endfacet
  facet normal 0.711971 -0.702209 0.000153559
    outer loop
      vertex 23.0305 23.3465 4.5
      vertex 21.4945 21.7894 5.65685
      vertex 21.5686 21.8645 5.51914
    endloop
  endfacet
  facet normal 0.71191 -0.70227 -9.44539e-06
    outer loop
      vertex 20.7171 21.0013 7.79423
      vertex 21.4945 21.7894 5.65685
      vertex 23.0305 23.3465 4.5
    endloop
  endfacet
  facet normal 0.711923 -0.702257 0
    outer loop
      vertex 21.4945 21.7894 5.65685
      vertex 20.7171 21.0013 7.79423
      vertex 20.7171 21.0013 6.50768
    endloop
  endfacet
  facet normal 0.711929 -0.702251 1.10326e-05
    outer loop
      vertex 22.9462 23.261 2.07055
      vertex 23.8773 24.2049 0
      vertex 23.0305 23.3465 4.5
    endloop
  endfacet
  facet normal 0.711931 -0.70225 3.60941e-06
    outer loop
      vertex 23.8773 24.2049 0
      vertex 22.9626 23.2776 1.89328
      vertex 23.1374 23.4548 0
    endloop
  endfacet
  facet normal 0.712057 -0.702122 0.000126929
    outer loop
      vertex 23.8773 24.2049 0
      vertex 22.9462 23.261 2.07055
      vertex 22.9626 23.2776 1.89328
    endloop
  endfacet
  facet normal 0.711922 -0.702258 1.15403e-05
    outer loop
      vertex 22.9462 23.261 2.07055
      vertex 23.0305 23.3465 4.5
      vertex 22.72 23.0317 2.84963
    endloop
  endfacet
  facet normal 0.128317 0.983252 0.129419
    outer loop
      vertex 8.64656 32.565 2.32937
      vertex 7.54952e-15 34 0
      vertex 7.48143e-15 33.6934 2.32937
    endloop
  endfacet
  facet normal 0.128309 0.98325 0.129448
    outer loop
      vertex 8.64656 32.565 2.32937
      vertex 8.72526 32.8614 0
      vertex 7.54952e-15 34 0
    endloop
  endfacet
  facet normal 0.119703 0.917237 0.37993
    outer loop
      vertex 8.41583 31.696 4.5
      vertex 7.48143e-15 33.6934 2.32937
      vertex 7.28179e-15 32.7943 4.5
    endloop
  endfacet
  facet normal 0.119702 0.917236 0.379934
    outer loop
      vertex 8.41583 31.696 4.5
      vertex 8.64656 32.565 2.32937
      vertex 7.48143e-15 33.6934 2.32937
    endloop
  endfacet
  facet normal 0.102984 0.789128 0.605533
    outer loop
      vertex 8.04879 30.3136 6.36396
      vertex 7.28179e-15 32.7943 4.5
      vertex 6.96421e-15 31.364 6.36396
    endloop
  endfacet
  facet normal 0.102984 0.789128 0.605534
    outer loop
      vertex 8.04879 30.3136 6.36396
      vertex 8.41583 31.696 4.5
      vertex 7.28179e-15 32.7943 4.5
    endloop
  endfacet
  facet normal 0.0791894 0.606842 0.790868
    outer loop
      vertex 7.57045 28.5121 7.79423
      vertex 6.96421e-15 31.364 6.36396
      vertex 6.55032e-15 29.5 7.79423
    endloop
  endfacet
  facet normal 0.0791974 0.606857 0.790855
    outer loop
      vertex 7.57045 28.5121 7.79423
      vertex 8.04879 30.3136 6.36396
      vertex 6.96421e-15 31.364 6.36396
    endloop
  endfacet
  facet normal 0.0498757 0.38221 0.922728
    outer loop
      vertex 7.01341 26.4142 8.69333
      vertex 6.55032e-15 29.5 7.79423
      vertex 6.06835e-15 27.3294 8.69333
    endloop
  endfacet
  facet normal 0.0498764 0.382211 0.922728
    outer loop
      vertex 7.01341 26.4142 8.69333
      vertex 7.57045 28.5121 7.79423
      vertex 6.55032e-15 29.5 7.79423
    endloop
  endfacet
  facet normal 0.0170303 0.130507 0.991301
    outer loop
      vertex 6.41564 24.1628 9
      vertex 6.06835e-15 27.3294 8.69333
      vertex 5.55112e-15 25 9
    endloop
  endfacet
  facet normal 0.0170302 0.130506 0.991301
    outer loop
      vertex 6.41564 24.1628 9
      vertex 7.01341 26.4142 8.69333
      vertex 6.06835e-15 27.3294 8.69333
    endloop
  endfacet
  facet normal -0.0170334 -0.130512 0.9913
    outer loop
      vertex 5.81786 21.9114 8.69333
      vertex 5.55112e-15 25 9
      vertex 5.0339e-15 22.6707 8.69333
    endloop
  endfacet
  facet normal -0.0170302 -0.130506 0.991301
    outer loop
      vertex 5.81786 21.9114 8.69333
      vertex 6.41564 24.1628 9
      vertex 5.55112e-15 25 9
    endloop
  endfacet
  facet normal -0.0498738 -0.382195 0.922735
    outer loop
      vertex 5.26082 19.8135 7.79423
      vertex 5.0339e-15 22.6707 8.69333
      vertex 4.55192e-15 20.5 7.79423
    endloop
  endfacet
  facet normal -0.0498829 -0.38221 0.922728
    outer loop
      vertex 5.26082 19.8135 7.79423
      vertex 5.81786 21.9114 8.69333
      vertex 5.0339e-15 22.6707 8.69333
    endloop
  endfacet
  facet normal -0.0791938 -0.606863 0.790852
    outer loop
      vertex 4.78248 18.012 6.36396
      vertex 4.55192e-15 20.5 7.79423
      vertex 4.13804e-15 18.6361 6.36396
    endloop
  endfacet
  facet normal -0.0791908 -0.606859 0.790855
    outer loop
      vertex 4.78248 18.012 6.36396
      vertex 5.26082 19.8135 7.79423
      vertex 4.55192e-15 20.5 7.79423
    endloop
  endfacet
  facet normal -0.102979 -0.789129 0.605534
    outer loop
      vertex 4.41544 16.6296 4.5
      vertex 4.13804e-15 18.6361 6.36396
      vertex 3.82046e-15 17.2058 4.5
    endloop
  endfacet
  facet normal -0.102979 -0.789129 0.605533
    outer loop
      vertex 4.41544 16.6296 4.5
      vertex 4.78248 18.012 6.36396
      vertex 4.13804e-15 18.6361 6.36396
    endloop
  endfacet
  facet normal -0.119699 -0.917238 0.37993
    outer loop
      vertex 4.18471 15.7606 2.32937
      vertex 3.82046e-15 17.2058 4.5
      vertex 3.62081e-15 16.3067 2.32937
    endloop
  endfacet
  facet normal -0.119696 -0.917237 0.379934
    outer loop
      vertex 4.18471 15.7606 2.32937
      vertex 4.41544 16.6296 4.5
      vertex 3.82046e-15 17.2058 4.5
    endloop
  endfacet
  facet normal -0.128306 -0.983248 0.129461
    outer loop
      vertex 4.10601 15.4642 0
      vertex 3.62081e-15 16.3067 2.32937
      vertex 3.55272e-15 16 0
    endloop
  endfacet
  facet normal -0.128313 -0.983249 0.129448
    outer loop
      vertex 4.10601 15.4642 0
      vertex 4.18471 15.7606 2.32937
      vertex 3.62081e-15 16.3067 2.32937
    endloop
  endfacet
  facet normal 0.376342 0.917393 0.129448
    outer loop
      vertex 16.714 29.2555 2.32937
      vertex 8.72526 32.8614 0
      vertex 8.64656 32.565 2.32937
    endloop
  endfacet
  facet normal 0.37634 0.917393 0.129453
    outer loop
      vertex 16.714 29.2555 2.32937
      vertex 16.8661 29.5218 0
      vertex 8.72526 32.8614 0
    endloop
  endfacet
  facet normal 0.351076 0.855801 0.379934
    outer loop
      vertex 16.268 28.4748 4.5
      vertex 8.64656 32.565 2.32937
      vertex 8.41583 31.696 4.5
    endloop
  endfacet
  facet normal 0.351074 0.855801 0.379937
    outer loop
      vertex 16.268 28.4748 4.5
      vertex 16.714 29.2555 2.32937
      vertex 8.64656 32.565 2.32937
    endloop
  endfacet
  facet normal 0.302033 0.736278 0.605533
    outer loop
      vertex 15.5585 27.233 6.36396
      vertex 8.41583 31.696 4.5
      vertex 8.04879 30.3136 6.36396
    endloop
  endfacet
  facet normal 0.302051 0.736295 0.605504
    outer loop
      vertex 15.5585 27.233 6.36396
      vertex 16.268 28.4748 4.5
      vertex 8.41583 31.696 4.5
    endloop
  endfacet
  facet normal 0.232277 0.566211 0.790855
    outer loop
      vertex 14.6338 25.6145 7.79423
      vertex 8.04879 30.3136 6.36396
      vertex 7.57045 28.5121 7.79423
    endloop
  endfacet
  facet normal 0.232262 0.566195 0.790871
    outer loop
      vertex 14.6338 25.6145 7.79423
      vertex 15.5585 27.233 6.36396
      vertex 8.04879 30.3136 6.36396
    endloop
  endfacet
  facet normal 0.146292 0.356611 0.922728
    outer loop
      vertex 13.5571 23.7298 8.69333
      vertex 7.57045 28.5121 7.79423
      vertex 7.01341 26.4142 8.69333
    endloop
  endfacet
  facet normal 0.146294 0.356613 0.922727
    outer loop
      vertex 13.5571 23.7298 8.69333
      vertex 14.6338 25.6145 7.79423
      vertex 7.57045 28.5121 7.79423
    endloop
  endfacet
  facet normal 0.0499514 0.121766 0.991301
    outer loop
      vertex 12.4016 21.7072 9
      vertex 7.01341 26.4142 8.69333
      vertex 6.41564 24.1628 9
    endloop
  endfacet
  facet normal 0.0499516 0.121766 0.991301
    outer loop
      vertex 12.4016 21.7072 9
      vertex 13.5571 23.7298 8.69333
      vertex 7.01341 26.4142 8.69333
    endloop
  endfacet
  facet normal -0.0499512 -0.121765 0.991301
    outer loop
      vertex 11.2461 19.6846 8.69333
      vertex 6.41564 24.1628 9
      vertex 5.81786 21.9114 8.69333
    endloop
  endfacet
  facet normal -0.0499515 -0.121766 0.991301
    outer loop
      vertex 11.2461 19.6846 8.69333
      vertex 12.4016 21.7072 9
      vertex 6.41564 24.1628 9
    endloop
  endfacet
  facet normal -0.146292 -0.356611 0.922728
    outer loop
      vertex 10.1693 17.7999 7.79423
      vertex 5.81786 21.9114 8.69333
      vertex 5.26082 19.8135 7.79423
    endloop
  endfacet
  facet normal -0.14629 -0.356609 0.922729
    outer loop
      vertex 10.1693 17.7999 7.79423
      vertex 11.2461 19.6846 8.69333
      vertex 5.81786 21.9114 8.69333
    endloop
  endfacet
  facet normal -0.232275 -0.566212 0.790856
    outer loop
      vertex 9.24465 16.1815 6.36396
      vertex 5.26082 19.8135 7.79423
      vertex 4.78248 18.012 6.36396
    endloop
  endfacet
  facet normal -0.232277 -0.566213 0.790854
    outer loop
      vertex 9.24465 16.1815 6.36396
      vertex 10.1693 17.7999 7.79423
      vertex 5.26082 19.8135 7.79423
    endloop
  endfacet
  facet normal -0.302038 -0.736276 0.605533
    outer loop
      vertex 8.53514 14.9396 4.5
      vertex 4.78248 18.012 6.36396
      vertex 4.41544 16.6296 4.5
    endloop
  endfacet
  facet normal -0.302041 -0.736278 0.60553
    outer loop
      vertex 8.53514 14.9396 4.5
      vertex 9.24465 16.1815 6.36396
      vertex 4.78248 18.012 6.36396
    endloop
  endfacet
  facet normal -0.351074 -0.855802 0.379934
    outer loop
      vertex 8.08913 14.1589 2.32937
      vertex 4.41544 16.6296 4.5
      vertex 4.18471 15.7606 2.32937
    endloop
  endfacet
  facet normal -0.35107 -0.855802 0.379938
    outer loop
      vertex 8.08913 14.1589 2.32937
      vertex 8.53514 14.9396 4.5
      vertex 4.41544 16.6296 4.5
    endloop
  endfacet
  facet normal -0.376344 -0.917392 0.129448
    outer loop
      vertex 7.93701 13.8926 0
      vertex 4.18471 15.7606 2.32937
      vertex 4.10601 15.4642 0
    endloop
  endfacet
  facet normal -0.37634 -0.917393 0.129456
    outer loop
      vertex 7.93701 13.8926 0
      vertex 8.08913 14.1589 2.32937
      vertex 4.18471 15.7606 2.32937
    endloop
  endfacet
  facet normal 0.599164 0.790092 0.129449
    outer loop
      vertex 23.662 23.9865 2.32937
      vertex 16.8661 29.5218 0
      vertex 16.714 29.2555 2.32937
    endloop
  endfacet
  facet normal 0.599162 0.790092 0.129458
    outer loop
      vertex 23.662 23.9865 2.32937
      vertex 23.8773 24.2049 0
      vertex 16.8661 29.5218 0
    endloop
  endfacet
  facet normal 0.558936 0.737048 0.379935
    outer loop
      vertex 23.0305 23.3465 4.5
      vertex 16.714 29.2555 2.32937
      vertex 16.268 28.4748 4.5
    endloop
  endfacet
  facet normal 0.55894 0.737049 0.379927
    outer loop
      vertex 23.0305 23.3465 4.5
      vertex 23.662 23.9865 2.32937
      vertex 16.714 29.2555 2.32937
    endloop
  endfacet
  facet normal 0.480886 0.634122 0.605507
    outer loop
      vertex 22.0261 22.3283 6.36396
      vertex 16.268 28.4748 4.5
      vertex 15.5585 27.233 6.36396
    endloop
  endfacet
  facet normal 0.48088 0.634119 0.605515
    outer loop
      vertex 22.0261 22.3283 6.36396
      vertex 23.0305 23.3465 4.5
      vertex 16.268 28.4748 4.5
    endloop
  endfacet
  facet normal 0.369785 0.487625 0.790873
    outer loop
      vertex 20.7171 21.0013 7.79423
      vertex 15.5585 27.233 6.36396
      vertex 14.6338 25.6145 7.79423
    endloop
  endfacet
  facet normal 0.369795 0.487632 0.790864
    outer loop
      vertex 20.7171 21.0013 7.79423
      vertex 22.0261 22.3283 6.36396
      vertex 15.5585 27.233 6.36396
    endloop
  endfacet
  facet normal 0.232913 0.307129 0.922726
    outer loop
      vertex 19.1927 19.456 8.69333
      vertex 14.6338 25.6145 7.79423
      vertex 13.5571 23.7298 8.69333
    endloop
  endfacet
  facet normal 0.232901 0.307121 0.922732
    outer loop
      vertex 19.1927 19.456 8.69333
      vertex 20.7171 21.0013 7.79423
      vertex 14.6338 25.6145 7.79423
    endloop
  endfacet
  facet normal 0.0795272 0.104869 0.991301
    outer loop
      vertex 17.5569 17.7977 9
      vertex 13.5571 23.7298 8.69333
      vertex 12.4016 21.7072 9
    endloop
  endfacet
  facet normal 0.0795297 0.104871 0.991301
    outer loop
      vertex 17.5569 17.7977 9
      vertex 19.1927 19.456 8.69333
      vertex 13.5571 23.7298 8.69333
    endloop
  endfacet
  facet normal -0.0795273 -0.104869 0.991301
    outer loop
      vertex 15.921 16.1394 8.69333
      vertex 12.4016 21.7072 9
      vertex 11.2461 19.6846 8.69333
    endloop
  endfacet
  facet normal -0.0795269 -0.104869 0.991301
    outer loop
      vertex 15.921 16.1394 8.69333
      vertex 17.5569 17.7977 9
      vertex 12.4016 21.7072 9
    endloop
  endfacet
  facet normal -0.232907 -0.307121 0.92273
    outer loop
      vertex 14.3966 14.5941 7.79423
      vertex 11.2461 19.6846 8.69333
      vertex 10.1693 17.7999 7.79423
    endloop
  endfacet
  facet normal -0.232903 -0.307119 0.922732
    outer loop
      vertex 14.3966 14.5941 7.79423
      vertex 15.921 16.1394 8.69333
      vertex 11.2461 19.6846 8.69333
    endloop
  endfacet
  facet normal -0.369803 -0.487641 0.790855
    outer loop
      vertex 13.0876 13.2672 6.36396
      vertex 10.1693 17.7999 7.79423
      vertex 9.24465 16.1815 6.36396
    endloop
  endfacet
  facet normal -0.369807 -0.487643 0.790852
    outer loop
      vertex 13.0876 13.2672 6.36396
      vertex 14.3966 14.5941 7.79423
      vertex 10.1693 17.7999 7.79423
    endloop
  endfacet
  facet normal -0.480879 -0.634105 0.60553
    outer loop
      vertex 12.0832 12.2489 4.5
      vertex 9.24465 16.1815 6.36396
      vertex 8.53514 14.9396 4.5
    endloop
  endfacet
  facet normal -0.480872 -0.634104 0.605537
    outer loop
      vertex 12.0832 12.2489 4.5
      vertex 13.0876 13.2672 6.36396
      vertex 9.24465 16.1815 6.36396
    endloop
  endfacet
  facet normal -0.558927 -0.737054 0.379938
    outer loop
      vertex 11.4518 11.6089 2.32937
      vertex 8.53514 14.9396 4.5
      vertex 8.08913 14.1589 2.32937
    endloop
  endfacet
  facet normal -0.55895 -0.737053 0.379906
    outer loop
      vertex 11.4518 11.6089 2.32937
      vertex 12.0832 12.2489 4.5
      vertex 8.53514 14.9396 4.5
    endloop
  endfacet
  facet normal -0.599166 -0.79009 0.129454
    outer loop
      vertex 11.2364 11.3905 0
      vertex 8.08913 14.1589 2.32937
      vertex 7.93701 13.8926 0
    endloop
  endfacet
  facet normal -0.599151 -0.790097 0.129483
    outer loop
      vertex 11.2364 11.3905 0
      vertex 11.4518 11.6089 2.32937
      vertex 8.08913 14.1589 2.32937
    endloop
  endfacet
  facet normal -0.0834222 -0.988016 -0.129867
    outer loop
      vertex 6.04969 32.1634 2.07055
      vertex 7.25514e-15 32.6742 2.07055
      vertex 7.31031e-15 32.9227 0.179982
    endloop
  endfacet
  facet normal -0.083427 -0.987985 -0.130098
    outer loop
      vertex 6.10008 32.4313 0
      vertex 7.31031e-15 32.9227 0.179982
      vertex 7.31557e-15 32.9464 0
    endloop
  endfacet
  facet normal -0.0834226 -0.988016 -0.129866
    outer loop
      vertex 7.31031e-15 32.9227 0.179982
      vertex 6.10008 32.4313 0
      vertex 6.04969 32.1634 2.07055
    endloop
  endfacet
  facet normal -0.0777851 -0.921299 -0.380994
    outer loop
      vertex 5.90195 31.378 4
      vertex 7.07797e-15 31.8763 4
      vertex 7.2395e-15 32.6038 2.2408
    endloop
  endfacet
  facet normal -0.0777899 -0.921309 -0.38097
    outer loop
      vertex 6.04969 32.1634 2.07055
      vertex 7.2395e-15 32.6038 2.2408
      vertex 7.25514e-15 32.6742 2.07055
    endloop
  endfacet
  facet normal -0.0777899 -0.921304 -0.380982
    outer loop
      vertex 7.2395e-15 32.6038 2.2408
      vertex 6.04969 32.1634 2.07055
      vertex 5.90195 31.378 4
    endloop
  endfacet
  facet normal -0.0668637 -0.792041 -0.606795
    outer loop
      vertex 5.66694 30.1286 5.65685
      vertex 6.79613e-15 30.607 5.65685
      vertex 7.05273e-15 31.7627 4.14833
    endloop
  endfacet
  facet normal -0.06688 -0.792138 -0.606667
    outer loop
      vertex 5.90195 31.378 4
      vertex 7.05273e-15 31.7627 4.14833
      vertex 7.07797e-15 31.8763 4
    endloop
  endfacet
  facet normal -0.0668775 -0.792062 -0.606766
    outer loop
      vertex 7.05273e-15 31.7627 4.14833
      vertex 5.90195 31.378 4
      vertex 5.66694 30.1286 5.65685
    endloop
  endfacet
  facet normal -0.0513831 -0.60859 -0.791819
    outer loop
      vertex 5.36067 28.5003 6.9282
      vertex 6.42883e-15 28.9529 6.9282
      vertex 6.7628e-15 30.4569 5.77223
    endloop
  endfacet
  facet normal -0.0513784 -0.608581 -0.791826
    outer loop
      vertex 6.7628e-15 30.4569 5.77223
      vertex 5.66694 30.1286 5.65685
      vertex 5.36067 28.5003 6.9282
    endloop
  endfacet
  facet normal -0.0513807 -0.608635 -0.791785
    outer loop
      vertex 5.66694 30.1286 5.65685
      vertex 6.7628e-15 30.4569 5.77223
      vertex 6.79613e-15 30.607 5.65685
    endloop
  endfacet
  facet normal -0.0323402 -0.383031 -0.923169
    outer loop
      vertex 5.00401 26.6041 7.72741
      vertex 6.0011e-15 27.0266 7.72741
      vertex 6.38954e-15 28.7759 7.00161
    endloop
  endfacet
  facet normal -0.0323336 -0.383018 -0.923175
    outer loop
      vertex 6.38954e-15 28.7759 7.00161
      vertex 5.36067 28.5003 6.9282
      vertex 5.00401 26.6041 7.72741
    endloop
  endfacet
  facet normal -0.0323284 -0.382903 -0.923223
    outer loop
      vertex 5.36067 28.5003 6.9282
      vertex 6.38954e-15 28.7759 7.00161
      vertex 6.42883e-15 28.9529 6.9282
    endloop
  endfacet
  facet normal -0.0110383 -0.130731 -0.991356
    outer loop
      vertex 4.62127 24.5692 8
      vertex 5.5421e-15 24.9594 8
      vertex 5.95853e-15 26.8348 7.75269
    endloop
  endfacet
  facet normal -0.0110351 -0.130724 -0.991357
    outer loop
      vertex 5.95853e-15 26.8348 7.75269
      vertex 5.00401 26.6041 7.72741
      vertex 4.62127 24.5692 8
    endloop
  endfacet
  facet normal -0.0110324 -0.130666 -0.991365
    outer loop
      vertex 5.00401 26.6041 7.72741
      vertex 5.95853e-15 26.8348 7.75269
      vertex 6.0011e-15 27.0266 7.72741
    endloop
  endfacet
  facet normal 0.0110382 0.130723 -0.991357
    outer loop
      vertex 4.23853 22.5343 7.72741
      vertex 5.08309e-15 22.8922 7.72741
      vertex 5.49926e-15 24.7665 7.97456
    endloop
  endfacet
  facet normal 0.0110385 0.130723 -0.991357
    outer loop
      vertex 5.49926e-15 24.7665 7.97456
      vertex 4.62127 24.5692 8
      vertex 4.23853 22.5343 7.72741
    endloop
  endfacet
  facet normal 0.0110393 0.130742 -0.991355
    outer loop
      vertex 4.62127 24.5692 8
      vertex 5.49926e-15 24.7665 7.97456
      vertex 5.5421e-15 24.9594 8
    endloop
  endfacet
  facet normal 0.0323433 0.383015 -0.923176
    outer loop
      vertex 3.88187 20.6381 6.9282
      vertex 4.65536e-15 20.9659 6.9282
      vertex 5.04312e-15 22.7122 7.65272
    endloop
  endfacet
  facet normal 0.0323439 0.383016 -0.923175
    outer loop
      vertex 5.04312e-15 22.7122 7.65272
      vertex 4.23853 22.5343 7.72741
      vertex 3.88187 20.6381 6.9282
    endloop
  endfacet
  facet normal 0.0323454 0.383059 -0.923157
    outer loop
      vertex 4.23853 22.5343 7.72741
      vertex 5.04312e-15 22.7122 7.65272
      vertex 5.08309e-15 22.8922 7.72741
    endloop
  endfacet
  facet normal 0.0513838 0.608572 -0.791833
    outer loop
      vertex 3.5756 19.0098 5.65685
      vertex 4.28806e-15 19.3117 5.65685
      vertex 4.62121e-15 20.8121 6.81
    endloop
  endfacet
  facet normal 0.0513894 0.60858 -0.791827
    outer loop
      vertex 4.62121e-15 20.8121 6.81
      vertex 3.88187 20.6381 6.9282
      vertex 3.5756 19.0098 5.65685
    endloop
  endfacet
  facet normal 0.0513889 0.608557 -0.791845
    outer loop
      vertex 3.88187 20.6381 6.9282
      vertex 4.62121e-15 20.8121 6.81
      vertex 4.65536e-15 20.9659 6.9282
    endloop
  endfacet
  facet normal 0.066862 0.792052 -0.606781
    outer loop
      vertex 3.34059 17.7604 4
      vertex 4.00623e-15 18.0424 4
      vertex 4.2622e-15 19.1952 5.50479
    endloop
  endfacet
  facet normal 0.0668737 0.792029 -0.606809
    outer loop
      vertex 3.5756 19.0098 5.65685
      vertex 4.2622e-15 19.1952 5.50479
      vertex 4.28806e-15 19.3117 5.65685
    endloop
  endfacet
  facet normal 0.0668736 0.792063 -0.606765
    outer loop
      vertex 4.2622e-15 19.1952 5.50479
      vertex 3.5756 19.0098 5.65685
      vertex 3.34059 17.7604 4
    endloop
  endfacet
  facet normal 0.0777639 0.921296 -0.381007
    outer loop
      vertex 3.19286 16.975 2.07055
      vertex 3.82906e-15 17.2445 2.07055
      vertex 3.9903e-15 17.9707 3.82654
    endloop
  endfacet
  facet normal 0.0777778 0.921361 -0.380846
    outer loop
      vertex 3.34059 17.7604 4
      vertex 3.9903e-15 17.9707 3.82654
      vertex 4.00623e-15 18.0424 4
    endloop
  endfacet
  facet normal 0.0777813 0.921305 -0.380981
    outer loop
      vertex 3.9903e-15 17.9707 3.82654
      vertex 3.34059 17.7604 4
      vertex 3.19286 16.975 2.07055
    endloop
  endfacet
  facet normal 0.0834126 0.988019 -0.129849
    outer loop
      vertex 3.14247 16.7071 0
      vertex 3.76863e-15 16.9724 0
      vertex 3.82377e-15 17.2207 1.88931
    endloop
  endfacet
  facet normal 0.0833971 0.988034 -0.129746
    outer loop
      vertex 3.19286 16.975 2.07055
      vertex 3.82377e-15 17.2207 1.88931
      vertex 3.82906e-15 17.2445 2.07055
    endloop
  endfacet
  facet normal 0.0834026 0.988018 -0.129865
    outer loop
      vertex 3.82377e-15 17.2207 1.88931
      vertex 3.19286 16.975 2.07055
      vertex 3.14247 16.7071 0
    endloop
  endfacet
  facet normal -0.28125 -0.950807 -0.129866
    outer loop
      vertex 12.4212 30.2787 2.07055
      vertex 6.04969 32.1634 2.07055
      vertex 6.10008 32.4313 0
    endloop
  endfacet
  facet normal -0.281253 -0.950807 -0.129857
    outer loop
      vertex 12.4212 30.2787 2.07055
      vertex 6.10008 32.4313 0
      vertex 12.5246 30.5309 0
    endloop
  endfacet
  facet normal -0.262261 -0.886607 -0.380983
    outer loop
      vertex 12.1179 29.5393 4
      vertex 5.90195 31.378 4
      vertex 6.04969 32.1634 2.07055
    endloop
  endfacet
  facet normal -0.262259 -0.886605 -0.380989
    outer loop
      vertex 12.1179 29.5393 4
      vertex 6.04969 32.1634 2.07055
      vertex 12.4212 30.2787 2.07055
    endloop
  endfacet
  facet normal -0.225475 -0.762231 -0.606766
    outer loop
      vertex 11.6353 28.3631 5.65685
      vertex 5.66694 30.1286 5.65685
      vertex 5.90195 31.378 4
    endloop
  endfacet
  facet normal -0.225469 -0.762224 -0.606777
    outer loop
      vertex 11.6353 28.3631 5.65685
      vertex 5.90195 31.378 4
      vertex 12.1179 29.5393 4
    endloop
  endfacet
  facet normal -0.173245 -0.585659 -0.791827
    outer loop
      vertex 11.0065 26.8302 6.9282
      vertex 5.36067 28.5003 6.9282
      vertex 5.66694 30.1286 5.65685
    endloop
  endfacet
  facet normal -0.173243 -0.585658 -0.791828
    outer loop
      vertex 11.0065 26.8302 6.9282
      vertex 5.66694 30.1286 5.65685
      vertex 11.6353 28.3631 5.65685
    endloop
  endfacet
  facet normal -0.109035 -0.368591 -0.923175
    outer loop
      vertex 10.2742 25.0451 7.72741
      vertex 5.00401 26.6041 7.72741
      vertex 5.36067 28.5003 6.9282
    endloop
  endfacet
  facet normal -0.109033 -0.368588 -0.923176
    outer loop
      vertex 10.2742 25.0451 7.72741
      vertex 5.36067 28.5003 6.9282
      vertex 11.0065 26.8302 6.9282
    endloop
  endfacet
  facet normal -0.0372121 -0.125801 -0.991357
    outer loop
      vertex 9.48837 23.1295 8
      vertex 4.62127 24.5692 8
      vertex 5.00401 26.6041 7.72741
    endloop
  endfacet
  facet normal -0.0372146 -0.125804 -0.991357
    outer loop
      vertex 9.48837 23.1295 8
      vertex 5.00401 26.6041 7.72741
      vertex 10.2742 25.0451 7.72741
    endloop
  endfacet
  facet normal 0.0372131 0.1258 -0.991357
    outer loop
      vertex 8.70253 21.2138 7.72741
      vertex 4.23853 22.5343 7.72741
      vertex 4.62127 24.5692 8
    endloop
  endfacet
  facet normal 0.0372115 0.125798 -0.991358
    outer loop
      vertex 8.70253 21.2138 7.72741
      vertex 4.62127 24.5692 8
      vertex 9.48837 23.1295 8
    endloop
  endfacet
  facet normal 0.109026 0.368593 -0.923175
    outer loop
      vertex 7.97024 19.4288 6.9282
      vertex 3.88187 20.6381 6.9282
      vertex 4.23853 22.5343 7.72741
    endloop
  endfacet
  facet normal 0.109037 0.368605 -0.923169
    outer loop
      vertex 7.97024 19.4288 6.9282
      vertex 4.23853 22.5343 7.72741
      vertex 8.70253 21.2138 7.72741
    endloop
  endfacet
  facet normal 0.173235 0.585662 -0.791827
    outer loop
      vertex 7.3414 17.8959 5.65685
      vertex 3.5756 19.0098 5.65685
      vertex 3.88187 20.6381 6.9282
    endloop
  endfacet
  facet normal 0.173232 0.585659 -0.791829
    outer loop
      vertex 7.3414 17.8959 5.65685
      vertex 3.88187 20.6381 6.9282
      vertex 7.97024 19.4288 6.9282
    endloop
  endfacet
  facet normal 0.225466 0.762233 -0.606766
    outer loop
      vertex 6.85888 16.7197 4
      vertex 3.34059 17.7604 4
      vertex 3.5756 19.0098 5.65685
    endloop
  endfacet
  facet normal 0.225463 0.762231 -0.60677
    outer loop
      vertex 6.85888 16.7197 4
      vertex 3.5756 19.0098 5.65685
      vertex 7.3414 17.8959 5.65685
    endloop
  endfacet
  facet normal 0.262286 0.8866 -0.380981
    outer loop
      vertex 6.55556 15.9802 2.07055
      vertex 3.19286 16.975 2.07055
      vertex 3.34059 17.7604 4
    endloop
  endfacet
  facet normal 0.262251 0.886589 -0.38103
    outer loop
      vertex 6.55556 15.9802 2.07055
      vertex 3.34059 17.7604 4
      vertex 6.85888 16.7197 4
    endloop
  endfacet
  facet normal 0.281278 0.950798 -0.129865
    outer loop
      vertex 6.4521 15.728 0
      vertex 3.14247 16.7071 0
      vertex 3.19286 16.975 2.07055
    endloop
  endfacet
  facet normal 0.281278 0.950798 -0.129865
    outer loop
      vertex 6.4521 15.728 0
      vertex 3.19286 16.975 2.07055
      vertex 6.55556 15.9802 2.07055
    endloop
  endfacet
  facet normal -0.467502 -0.874403 -0.129852
    outer loop
      vertex 18.2807 27.1459 2.07055
      vertex 12.4212 30.2787 2.07055
      vertex 12.5246 30.5309 0
    endloop
  endfacet
  facet normal -0.467496 -0.874403 -0.12987
    outer loop
      vertex 18.2807 27.1459 2.07055
      vertex 12.5246 30.5309 0
      vertex 18.433 27.372 0
    endloop
  endfacet
  facet normal -0.435935 -0.815358 -0.380987
    outer loop
      vertex 17.8343 26.483 4
      vertex 12.1179 29.5393 4
      vertex 12.4212 30.2787 2.07055
    endloop
  endfacet
  facet normal -0.435934 -0.815358 -0.38099
    outer loop
      vertex 17.8343 26.483 4
      vertex 12.4212 30.2787 2.07055
      vertex 18.2807 27.1459 2.07055
    endloop
  endfacet
  facet normal -0.37477 -0.700973 -0.606783
    outer loop
      vertex 17.1242 25.4285 5.65685
      vertex 11.6353 28.3631 5.65685
      vertex 12.1179 29.5393 4
    endloop
  endfacet
  facet normal -0.374783 -0.700981 -0.606765
    outer loop
      vertex 17.1242 25.4285 5.65685
      vertex 12.1179 29.5393 4
      vertex 17.8343 26.483 4
    endloop
  endfacet
  facet normal -0.287961 -0.538599 -0.791827
    outer loop
      vertex 16.1987 24.0542 6.9282
      vertex 11.0065 26.8302 6.9282
      vertex 11.6353 28.3631 5.65685
    endloop
  endfacet
  facet normal -0.287956 -0.538595 -0.791831
    outer loop
      vertex 16.1987 24.0542 6.9282
      vertex 11.6353 28.3631 5.65685
      vertex 17.1242 25.4285 5.65685
    endloop
  endfacet
  facet normal -0.181231 -0.33897 -0.923176
    outer loop
      vertex 15.1209 22.4538 7.72741
      vertex 10.2742 25.0451 7.72741
      vertex 11.0065 26.8302 6.9282
    endloop
  endfacet
  facet normal -0.181229 -0.338968 -0.923178
    outer loop
      vertex 15.1209 22.4538 7.72741
      vertex 11.0065 26.8302 6.9282
      vertex 16.1987 24.0542 6.9282
    endloop
  endfacet
  facet normal -0.0618561 -0.115695 -0.991357
    outer loop
      vertex 13.9644 20.7364 8
      vertex 9.48837 23.1295 8
      vertex 10.2742 25.0451 7.72741
    endloop
  endfacet
  facet normal -0.0618571 -0.115696 -0.991357
    outer loop
      vertex 13.9644 20.7364 8
      vertex 10.2742 25.0451 7.72741
      vertex 15.1209 22.4538 7.72741
    endloop
  endfacet
  facet normal 0.0618517 0.115691 -0.991358
    outer loop
      vertex 12.8078 19.019 7.72741
      vertex 8.70253 21.2138 7.72741
      vertex 9.48837 23.1295 8
    endloop
  endfacet
  facet normal 0.0618553 0.115694 -0.991357
    outer loop
      vertex 12.8078 19.019 7.72741
      vertex 9.48837 23.1295 8
      vertex 13.9644 20.7364 8
    endloop
  endfacet
  facet normal 0.181237 0.338985 -0.92317
    outer loop
      vertex 11.7301 17.4186 6.9282
      vertex 7.97024 19.4288 6.9282
      vertex 8.70253 21.2138 7.72741
    endloop
  endfacet
  facet normal 0.181228 0.338978 -0.923174
    outer loop
      vertex 11.7301 17.4186 6.9282
      vertex 8.70253 21.2138 7.72741
      vertex 12.8078 19.019 7.72741
    endloop
  endfacet
  facet normal 0.28796 0.538595 -0.79183
    outer loop
      vertex 10.8046 16.0443 5.65685
      vertex 7.3414 17.8959 5.65685
      vertex 7.97024 19.4288 6.9282
    endloop
  endfacet
  facet normal 0.287958 0.538594 -0.791831
    outer loop
      vertex 10.8046 16.0443 5.65685
      vertex 7.97024 19.4288 6.9282
      vertex 11.7301 17.4186 6.9282
    endloop
  endfacet
  facet normal 0.374774 0.70098 -0.606771
    outer loop
      vertex 10.0945 14.9898 4
      vertex 6.85888 16.7197 4
      vertex 7.3414 17.8959 5.65685
    endloop
  endfacet
  facet normal 0.37478 0.700983 -0.606764
    outer loop
      vertex 10.0945 14.9898 4
      vertex 7.3414 17.8959 5.65685
      vertex 10.8046 16.0443 5.65685
    endloop
  endfacet
  facet normal 0.435904 0.815356 -0.381028
    outer loop
      vertex 9.64805 14.3269 2.07055
      vertex 6.55556 15.9802 2.07055
      vertex 6.85888 16.7197 4
    endloop
  endfacet
  facet normal 0.435925 0.815358 -0.381
    outer loop
      vertex 9.64805 14.3269 2.07055
      vertex 6.85888 16.7197 4
      vertex 10.0945 14.9898 4
    endloop
  endfacet
  facet normal 0.467498 0.874403 -0.129865
    outer loop
      vertex 9.49578 14.1007 0
      vertex 6.4521 15.728 0
      vertex 6.55556 15.9802 2.07055
    endloop
  endfacet
  facet normal 0.467475 0.87441 -0.129905
    outer loop
      vertex 9.49578 14.1007 0
      vertex 6.55556 15.9802 2.07055
      vertex 9.64805 14.3269 2.07055
    endloop
  endfacet
  facet normal -0.634457 -0.76194 -0.130046
    outer loop
      vertex 18.2807 27.1459 2.07055
      vertex 22.9626 23.2776 1.89328
      vertex 22.9462 23.261 2.07055
    endloop
  endfacet
  facet normal -0.634468 -0.76196 -0.129873
    outer loop
      vertex 22.9626 23.2776 1.89328
      vertex 18.2807 27.1459 2.07055
      vertex 18.433 27.372 0
    endloop
  endfacet
  facet normal -0.634461 -0.761962 -0.129893
    outer loop
      vertex 22.9626 23.2776 1.89328
      vertex 18.433 27.372 0
      vertex 23.1374 23.4548 0
    endloop
  endfacet
  facet normal -0.591625 -0.710512 -0.380989
    outer loop
      vertex 18.2807 27.1459 2.07055
      vertex 22.3859 22.693 4
      vertex 17.8343 26.483 4
    endloop
  endfacet
  facet normal -0.59157 -0.710504 -0.381088
    outer loop
      vertex 22.3859 22.693 4
      vertex 18.2807 27.1459 2.07055
      vertex 22.4332 22.7409 3.83727
    endloop
  endfacet
  facet normal -0.591616 -0.710513 -0.381002
    outer loop
      vertex 18.2807 27.1459 2.07055
      vertex 22.72 23.0317 2.84963
      vertex 22.4332 22.7409 3.83727
    endloop
  endfacet
  facet normal -0.591652 -0.710534 -0.380907
    outer loop
      vertex 22.72 23.0317 2.84963
      vertex 18.2807 27.1459 2.07055
      vertex 22.9462 23.261 2.07055
    endloop
  endfacet
  facet normal -0.508639 -0.61084 -0.606763
    outer loop
      vertex 17.8343 26.483 4
      vertex 21.4945 21.7894 5.65685
      vertex 17.1242 25.4285 5.65685
    endloop
  endfacet
  facet normal -0.508613 -0.61083 -0.606794
    outer loop
      vertex 21.4945 21.7894 5.65685
      vertex 17.8343 26.483 4
      vertex 21.5686 21.8645 5.51914
    endloop
  endfacet
  facet normal -0.508627 -0.610836 -0.606777
    outer loop
      vertex 21.5686 21.8645 5.51914
      vertex 17.8343 26.483 4
      vertex 22.3859 22.693 4
    endloop
  endfacet
  facet normal -0.390801 -0.469326 -0.791838
    outer loop
      vertex 16.1987 24.0542 6.9282
      vertex 20.4281 20.7083 6.82397
      vertex 20.3328 20.6118 6.9282
    endloop
  endfacet
  facet normal -0.390806 -0.469333 -0.791832
    outer loop
      vertex 20.4281 20.7083 6.82397
      vertex 16.1987 24.0542 6.9282
      vertex 17.1242 25.4285 5.65685
    endloop
  endfacet
  facet normal -0.390815 -0.469341 -0.791823
    outer loop
      vertex 20.7171 21.0013 6.50768
      vertex 17.1242 25.4285 5.65685
      vertex 21.4945 21.7894 5.65685
    endloop
  endfacet
  facet normal -0.390793 -0.469326 -0.791842
    outer loop
      vertex 17.1242 25.4285 5.65685
      vertex 20.7171 21.0013 6.50768
      vertex 20.4281 20.7083 6.82397
    endloop
  endfacet
  facet normal -0.2459 -0.295311 -0.923214
    outer loop
      vertex 15.1209 22.4538 7.72741
      vertex 19.0896 19.3515 7.66268
      vertex 18.98 19.2404 7.72741
    endloop
  endfacet
  facet normal -0.245953 -0.295379 -0.923178
    outer loop
      vertex 19.0896 19.3515 7.66268
      vertex 15.1209 22.4538 7.72741
      vertex 16.1987 24.0542 6.9282
    endloop
  endfacet
  facet normal -0.245981 -0.295395 -0.923166
    outer loop
      vertex 16.1987 24.0542 6.9282
      vertex 19.5929 19.8617 7.36532
      vertex 19.0896 19.3515 7.66268
    endloop
  endfacet
  facet normal -0.245975 -0.2954 -0.923166
    outer loop
      vertex 20.2703 20.5484 6.96514
      vertex 16.1987 24.0542 6.9282
      vertex 20.3328 20.6118 6.9282
    endloop
  endfacet
  facet normal -0.245951 -0.295372 -0.923181
    outer loop
      vertex 19.5929 19.8617 7.36532
      vertex 16.1987 24.0542 6.9282
      vertex 20.2703 20.5484 6.96514
    endloop
  endfacet
  facet normal -0.0839602 -0.100831 -0.991355
    outer loop
      vertex 13.9644 20.7364 8
      vertex 17.6447 17.8868 7.97814
      vertex 17.5283 17.7688 8
    endloop
  endfacet
  facet normal -0.0839504 -0.100818 -0.991357
    outer loop
      vertex 17.6447 17.8868 7.97814
      vertex 13.9644 20.7364 8
      vertex 15.1209 22.4538 7.72741
    endloop
  endfacet
  facet normal -0.0839487 -0.100817 -0.991357
    outer loop
      vertex 17.6447 17.8868 7.97814
      vertex 15.1209 22.4538 7.72741
      vertex 18.98 19.2404 7.72741
    endloop
  endfacet
  facet normal 0.0839245 0.100787 -0.991362
    outer loop
      vertex 12.8078 19.019 7.72741
      vertex 16.1923 16.4144 7.74913
      vertex 16.0766 16.2971 7.72741
    endloop
  endfacet
  facet normal 0.0839467 0.100816 -0.991357
    outer loop
      vertex 16.1923 16.4144 7.74913
      vertex 12.8078 19.019 7.72741
      vertex 13.9644 20.7364 8
    endloop
  endfacet
  facet normal 0.0839486 0.100817 -0.991357
    outer loop
      vertex 16.1923 16.4144 7.74913
      vertex 13.9644 20.7364 8
      vertex 17.5283 17.7688 8
    endloop
  endfacet
  facet normal 0.245985 0.295413 -0.923159
    outer loop
      vertex 11.7301 17.4186 6.9282
      vertex 14.8315 15.0349 6.99181
      vertex 14.7238 14.9258 6.9282
    endloop
  endfacet
  facet normal 0.245964 0.295385 -0.923174
    outer loop
      vertex 14.8315 15.0349 6.99181
      vertex 11.7301 17.4186 6.9282
      vertex 12.8078 19.019 7.72741
    endloop
  endfacet
  facet normal 0.245957 0.295376 -0.923178
    outer loop
      vertex 15.8361 16.0533 7.58533
      vertex 12.8078 19.019 7.72741
      vertex 16.0766 16.2971 7.72741
    endloop
  endfacet
  facet normal 0.245968 0.295387 -0.923172
    outer loop
      vertex 12.8078 19.019 7.72741
      vertex 15.8361 16.0533 7.58533
      vertex 14.8315 15.0349 6.99181
    endloop
  endfacet
  facet normal 0.39077 0.469295 -0.791872
    outer loop
      vertex 10.8046 16.0443 5.65685
      vertex 13.6551 13.8424 5.75857
      vertex 13.5621 13.7482 5.65685
    endloop
  endfacet
  facet normal 0.390801 0.469337 -0.791832
    outer loop
      vertex 13.6551 13.8424 5.75857
      vertex 10.8046 16.0443 5.65685
      vertex 11.7301 17.4186 6.9282
    endloop
  endfacet
  facet normal 0.390802 0.469329 -0.791836
    outer loop
      vertex 13.7788 13.9678 5.89399
      vertex 11.7301 17.4186 6.9282
      vertex 14.7238 14.9258 6.9282
    endloop
  endfacet
  facet normal 0.39093 0.469377 -0.791744
    outer loop
      vertex 11.7301 17.4186 6.9282
      vertex 13.7788 13.9678 5.89399
      vertex 13.6551 13.8424 5.75857
    endloop
  endfacet
  facet normal 0.508359 0.610796 -0.607042
    outer loop
      vertex 12.6707 12.8445 4
      vertex 10.8046 16.0443 5.65685
      vertex 12.743 12.9178 4.1343
    endloop
  endfacet
  facet normal 0.508658 0.610825 -0.606762
    outer loop
      vertex 10.8046 16.0443 5.65685
      vertex 12.6707 12.8445 4
      vertex 10.0945 14.9898 4
    endloop
  endfacet
  facet normal 0.508625 0.610833 -0.606782
    outer loop
      vertex 13.161 13.3415 4.91122
      vertex 10.8046 16.0443 5.65685
      vertex 13.5621 13.7482 5.65685
    endloop
  endfacet
  facet normal 0.508628 0.610834 -0.606777
    outer loop
      vertex 10.8046 16.0443 5.65685
      vertex 13.161 13.3415 4.91122
      vertex 12.743 12.9178 4.1343
    endloop
  endfacet
  facet normal 0.591634 0.7105 -0.380998
    outer loop
      vertex 9.64805 14.3269 2.07055
      vertex 12.1568 12.3235 2.23025
      vertex 12.1104 12.2765 2.07055
    endloop
  endfacet
  facet normal 0.591633 0.710499 -0.381002
    outer loop
      vertex 12.1568 12.3235 2.23025
      vertex 9.64805 14.3269 2.07055
      vertex 10.0945 14.9898 4
    endloop
  endfacet
  facet normal 0.591655 0.710493 -0.380977
    outer loop
      vertex 12.2601 12.4283 2.58616
      vertex 10.0945 14.9898 4
      vertex 12.6707 12.8445 4
    endloop
  endfacet
  facet normal 0.591679 0.710493 -0.380939
    outer loop
      vertex 10.0945 14.9898 4
      vertex 12.2601 12.4283 2.58616
      vertex 12.1568 12.3235 2.23025
    endloop
  endfacet
  facet normal 0.634488 0.762028 -0.129377
    outer loop
      vertex 9.49578 14.1007 0
      vertex 11.9355 12.0992 0.176044
      vertex 11.9193 12.0828 0
    endloop
  endfacet
  facet normal 0.634468 0.761956 -0.1299
    outer loop
      vertex 11.9355 12.0992 0.176044
      vertex 9.49578 14.1007 0
      vertex 9.64805 14.3269 2.07055
    endloop
  endfacet
  facet normal 0.634475 0.761949 -0.129907
    outer loop
      vertex 12.0832 12.2489 1.77582
      vertex 9.64805 14.3269 2.07055
      vertex 12.1104 12.2765 2.07055
    endloop
  endfacet
  facet normal 0.634479 0.76195 -0.129878
    outer loop
      vertex 9.64805 14.3269 2.07055
      vertex 12.0832 12.2489 1.77582
      vertex 11.9355 12.0992 0.176044
    endloop
  endfacet
  facet normal 0 0 -1
    outer loop
      vertex 18.433 27.372 0
      vertex 23.8773 24.2049 0
      vertex 23.1374 23.4548 0
    endloop
  endfacet
  facet normal 0 0 -1
    outer loop
      vertex 18.433 27.372 0
      vertex 16.8661 29.5218 0
      vertex 23.8773 24.2049 0
    endloop
  endfacet
  facet normal 0 0 -1
    outer loop
      vertex 12.5246 30.5309 0
      vertex 16.8661 29.5218 0
      vertex 18.433 27.372 0
    endloop
  endfacet
  facet normal 0 0 -1
    outer loop
      vertex 12.5246 30.5309 0
      vertex 8.72526 32.8614 0
      vertex 16.8661 29.5218 0
    endloop
  endfacet
  facet normal 0 0 -1
    outer loop
      vertex 6.10008 32.4313 0
      vertex 8.72526 32.8614 0
      vertex 12.5246 30.5309 0
    endloop
  endfacet
  facet normal 0 0 -1
    outer loop
      vertex 6.10008 32.4313 0
      vertex 7.54952e-15 34 0
      vertex 8.72526 32.8614 0
    endloop
  endfacet
  facet normal 0 -0 -1
    outer loop
      vertex 7.54952e-15 34 0
      vertex 6.10008 32.4313 0
      vertex 7.31557e-15 32.9464 0
    endloop
  endfacet
  facet normal 0 0 -1
    outer loop
      vertex 11.2364 11.3905 0
      vertex 9.49578 14.1007 0
      vertex 11.9193 12.0828 0
    endloop
  endfacet
  facet normal 0 0 -1
    outer loop
      vertex 7.93701 13.8926 0
      vertex 9.49578 14.1007 0
      vertex 11.2364 11.3905 0
    endloop
  endfacet
  facet normal 0 0 -1
    outer loop
      vertex 7.93701 13.8926 0
      vertex 6.4521 15.728 0
      vertex 9.49578 14.1007 0
    endloop
  endfacet
  facet normal 0 0 -1
    outer loop
      vertex 4.10601 15.4642 0
      vertex 6.4521 15.728 0
      vertex 7.93701 13.8926 0
    endloop
  endfacet
  facet normal 0 0 -1
    outer loop
      vertex 4.10601 15.4642 0
      vertex 3.14247 16.7071 0
      vertex 6.4521 15.728 0
    endloop
  endfacet
  facet normal 0 0 -1
    outer loop
      vertex 3.55272e-15 16 0
      vertex 3.14247 16.7071 0
      vertex 4.10601 15.4642 0
    endloop
  endfacet
  facet normal -0 0 -1
    outer loop
      vertex 3.14247 16.7071 0
      vertex 3.55272e-15 16 0
      vertex 3.76863e-15 16.9724 0
    endloop
  endfacet
endsolid OpenSCAD_Model
