solid OpenSCAD_Model
  facet normal -1 2.22094e-16 1.88384e-19
    outer loop
      vertex 1.50669e-14 67.8553 0.162406
      vertex 1.53211e-14 69 0
      vertex 1.50716e-14 67.8766 0
    endloop
  endfacet
  facet normal -1 2.22067e-16 3.4663e-21
    outer loop
      vertex 1.53211e-14 69 0
      vertex 1.50669e-14 67.8553 0.162406
      vertex 1.5253e-14 68.6933 2.32937
    endloop
  endfacet
  facet normal -1 2.2208e-16 -1.26955e-21
    outer loop
      vertex 1.50112e-14 67.6045 2.07055
      vertex 1.5253e-14 68.6933 2.32937
      vertex 1.50669e-14 67.8553 0.162406
    endloop
  endfacet
  facet normal -1 2.22092e-16 -5.37628e-20
    outer loop
      vertex 1.49972e-14 67.5415 2.22299
      vertex 1.5253e-14 68.6933 2.32937
      vertex 1.50112e-14 67.6045 2.07055
    endloop
  endfacet
  facet normal -1 2.22088e-16 -9.50775e-21
    outer loop
      vertex 1.5253e-14 68.6933 2.32937
      vertex 1.49972e-14 67.5415 2.22299
      vertex 1.50533e-14 67.7942 4.5
    endloop
  endfacet
  facet normal -1 2.21997e-16 6.12638e-22
    outer loop
      vertex 1.48341e-14 66.8068 4
      vertex 1.50533e-14 67.7942 4.5
      vertex 1.49972e-14 67.5415 2.22299
    endloop
  endfacet
  facet normal -1 2.21937e-16 1.18703e-19
    outer loop
      vertex 1.48117e-14 66.7058 4.13178
      vertex 1.50533e-14 67.7942 4.5
      vertex 1.48341e-14 66.8068 4
    endloop
  endfacet
  facet normal -1 2.21981e-16 -1.20061e-20
    outer loop
      vertex 1.48117e-14 66.7058 4.13178
      vertex 1.47358e-14 66.364 6.36396
      vertex 1.50533e-14 67.7942 4.5
    endloop
  endfacet
  facet normal -1 2.22073e-16 1.97973e-21
    outer loop
      vertex 1.45523e-14 65.5377 5.65685
      vertex 1.47358e-14 66.364 6.36396
      vertex 1.48117e-14 66.7058 4.13178
    endloop
  endfacet
  facet normal -1 2.22152e-16 -9.10463e-20
    outer loop
      vertex 1.45229e-14 65.4054 5.75857
      vertex 1.47358e-14 66.364 6.36396
      vertex 1.45523e-14 65.5377 5.65685
    endloop
  endfacet
  facet normal -1 2.22074e-16 3.24304e-20
    outer loop
      vertex 1.45229e-14 65.4054 5.75857
      vertex 1.43219e-14 64.5 7.79423
      vertex 1.47358e-14 66.364 6.36396
    endloop
  endfacet
  facet normal -1 2.22026e-16 1.10976e-20
    outer loop
      vertex 1.41851e-14 63.8839 6.9282
      vertex 1.43219e-14 64.5 7.79423
      vertex 1.45229e-14 65.4054 5.75857
    endloop
  endfacet
  facet normal -1 2.22181e-16 -9.90557e-20
    outer loop
      vertex 1.41507e-14 63.7291 6.99244
      vertex 1.43219e-14 64.5 7.79423
      vertex 1.41851e-14 63.8839 6.9282
    endloop
  endfacet
  facet normal -1 2.22064e-16 1.35279e-20
    outer loop
      vertex 1.41507e-14 63.7291 6.99244
      vertex 1.38399e-14 62.3294 8.69333
      vertex 1.43219e-14 64.5 7.79423
    endloop
  endfacet
  facet normal -1 2.22056e-16 6.57802e-21
    outer loop
      vertex 1.37574e-14 61.9579 7.72741
      vertex 1.38399e-14 62.3294 8.69333
      vertex 1.41507e-14 63.7291 6.99244
    endloop
  endfacet
  facet normal -1 2.22088e-16 -5.91422e-21
    outer loop
      vertex 1.37204e-14 61.7913 7.74938
      vertex 1.38399e-14 62.3294 8.69333
      vertex 1.37574e-14 61.9579 7.72741
    endloop
  endfacet
  facet normal -1 2.22035e-16 2.45277e-20
    outer loop
      vertex 1.37204e-14 61.7913 7.74938
      vertex 1.33227e-14 60 9
      vertex 1.38399e-14 62.3294 8.69333
    endloop
  endfacet
  facet normal -1 2.22032e-16 2.0716e-20
    outer loop
      vertex 1.32985e-14 59.8911 8
      vertex 1.33227e-14 60 9
      vertex 1.37204e-14 61.7913 7.74938
    endloop
  endfacet
  facet normal -1 2.21817e-16 4.41595e-20
    outer loop
      vertex 1.32615e-14 59.7243 7.978
      vertex 1.33227e-14 60 9
      vertex 1.32985e-14 59.8911 8
    endloop
  endfacet
  facet normal -1 2.22049e-16 2.99024e-20
    outer loop
      vertex 1.28055e-14 57.6706 8.69333
      vertex 1.32615e-14 59.7243 7.978
      vertex 1.28396e-14 57.8243 7.72741
    endloop
  endfacet
  facet normal -1 2.22033e-16 -1.42677e-20
    outer loop
      vertex 1.32615e-14 59.7243 7.978
      vertex 1.28055e-14 57.6706 8.69333
      vertex 1.33227e-14 60 9
    endloop
  endfacet
  facet normal -1 2.22267e-16 6.46372e-20
    outer loop
      vertex 1.28051e-14 57.6691 7.66297
      vertex 1.28055e-14 57.6706 8.69333
      vertex 1.28396e-14 57.8243 7.72741
    endloop
  endfacet
  facet normal -1 2.22032e-16 6.62574e-20
    outer loop
      vertex 1.23235e-14 55.5 7.79423
      vertex 1.28051e-14 57.6691 7.66297
      vertex 1.24119e-14 55.8984 6.9282
    endloop
  endfacet
  facet normal -1 2.2195e-16 2.8501e-20
    outer loop
      vertex 1.23235e-14 55.5 7.79423
      vertex 1.24119e-14 55.8984 6.9282
      vertex 1.23824e-14 55.7655 6.82607
    endloop
  endfacet
  facet normal -1 2.22032e-16 6.498e-20
    outer loop
      vertex 1.28051e-14 57.6691 7.66297
      vertex 1.23235e-14 55.5 7.79423
      vertex 1.28055e-14 57.6706 8.69333
    endloop
  endfacet
  facet normal -1 2.22024e-16 1.87467e-21
    outer loop
      vertex 1.19096e-14 53.636 6.36396
      vertex 1.23824e-14 55.7655 6.82607
      vertex 1.20447e-14 54.2445 5.65685
    endloop
  endfacet
  facet normal -1 2.22064e-16 3.69365e-20
    outer loop
      vertex 1.19096e-14 53.636 6.36396
      vertex 1.20447e-14 54.2445 5.65685
      vertex 1.20222e-14 54.1432 5.52452
    endloop
  endfacet
  facet normal -1 2.22014e-16 4.61686e-20
    outer loop
      vertex 1.23824e-14 55.7655 6.82607
      vertex 1.19096e-14 53.636 6.36396
      vertex 1.23235e-14 55.5 7.79423
    endloop
  endfacet
  facet normal -1 2.22043e-16 1.32478e-20
    outer loop
      vertex 1.1592e-14 52.2058 4.5
      vertex 1.20222e-14 54.1432 5.52452
      vertex 1.17629e-14 52.9755 4
    endloop
  endfacet
  facet normal -1 2.21925e-16 -1.67998e-19
    outer loop
      vertex 1.1592e-14 52.2058 4.5
      vertex 1.17629e-14 52.9755 4
      vertex 1.17489e-14 52.9123 3.8471
    endloop
  endfacet
  facet normal -1 2.22039e-16 2.15288e-20
    outer loop
      vertex 1.20222e-14 54.1432 5.52452
      vertex 1.1592e-14 52.2058 4.5
      vertex 1.19096e-14 53.636 6.36396
    endloop
  endfacet
  facet normal -1 2.22042e-16 -6.64171e-21
    outer loop
      vertex 1.13924e-14 51.3067 2.32937
      vertex 1.17489e-14 52.9123 3.8471
      vertex 1.15858e-14 52.1777 2.07055
    endloop
  endfacet
  facet normal -1 2.22168e-16 4.17186e-19
    outer loop
      vertex 1.13924e-14 51.3067 2.32937
      vertex 1.15858e-14 52.1777 2.07055
      vertex 1.1581e-14 52.1564 1.90796
    endloop
  endfacet
  facet normal -1 2.22063e-16 -4.89163e-20
    outer loop
      vertex 1.13243e-14 51 0
      vertex 1.1581e-14 52.1564 1.90796
      vertex 1.15254e-14 51.9056 0
    endloop
  endfacet
  facet normal -1 2.22058e-16 -2.4234e-20
    outer loop
      vertex 1.17489e-14 52.9123 3.8471
      vertex 1.13924e-14 51.3067 2.32937
      vertex 1.1592e-14 52.2058 4.5
    endloop
  endfacet
  facet normal -1 2.21966e-16 9.93592e-21
    outer loop
      vertex 1.1581e-14 52.1564 1.90796
      vertex 1.13243e-14 51 0
      vertex 1.13924e-14 51.3067 2.32937
    endloop
  endfacet
  facet normal 0.253883 -0.967235 -1.96413e-05
    outer loop
      vertex 66.7369 17.5265 0
      vertex 66.4403 17.4486 2.32937
      vertex 65.5707 17.2203 4.5
    endloop
  endfacet
  facet normal 0.25404 -0.967194 2.21458e-05
    outer loop
      vertex 65.5707 17.2203 4.5
      vertex 62.3845 16.3835 7.79423
      vertex 60.2851 15.8321 8.69333
    endloop
  endfacet
  facet normal 0.254017 -0.9672 -7.13831e-07
    outer loop
      vertex 65.5707 17.2203 4.5
      vertex 64.1874 16.857 6.36396
      vertex 62.3845 16.3835 7.79423
    endloop
  endfacet
  facet normal 0.253967 -0.967213 -4.93377e-05
    outer loop
      vertex 60.7727 15.9602 7.36406
      vertex 60.2851 15.8321 8.69333
      vertex 58.0321 15.2405 9
    endloop
  endfacet
  facet normal 0.253995 -0.967205 -3.83438e-05
    outer loop
      vertex 61.7886 16.227 6.9282
      vertex 60.2851 15.8321 8.69333
      vertex 60.7727 15.9602 7.36406
    endloop
  endfacet
  facet normal 0.254724 -0.967013 0.000625718
    outer loop
      vertex 61.9107 16.2591 6.83117
      vertex 60.2851 15.8321 8.69333
      vertex 61.7886 16.227 6.9282
    endloop
  endfacet
  facet normal 0.253849 -0.967244 -0.000190829
    outer loop
      vertex 62.6506 16.4534 6.24308
      vertex 60.2851 15.8321 8.69333
      vertex 61.9107 16.2591 6.83117
    endloop
  endfacet
  facet normal 0.253986 -0.967208 -4.9826e-05
    outer loop
      vertex 60.2851 15.8321 8.69333
      vertex 62.6506 16.4534 6.24308
      vertex 65.5707 17.2203 4.5
    endloop
  endfacet
  facet normal 0.253905 -0.967229 -0.000311845
    outer loop
      vertex 65.5707 17.2203 4.5
      vertex 63.4825 16.6718 5.52965
      vertex 63.6293 16.7104 5.33143
    endloop
  endfacet
  facet normal 0.254067 -0.967187 9.54807e-05
    outer loop
      vertex 63.3882 16.6471 5.65685
      vertex 65.5707 17.2203 4.5
      vertex 62.6506 16.4534 6.24308
    endloop
  endfacet
  facet normal 0.254432 -0.96709 0.000832158
    outer loop
      vertex 63.4825 16.6718 5.52965
      vertex 65.5707 17.2203 4.5
      vertex 63.3882 16.6471 5.65685
    endloop
  endfacet
  facet normal 0.253977 -0.96721 4.79884e-05
    outer loop
      vertex 58.0321 15.2405 9
      vertex 57.5258 15.1075 7.94531
      vertex 57.9268 15.2128 8
    endloop
  endfacet
  facet normal 0.254021 -0.967199 2.52552e-05
    outer loop
      vertex 57.5258 15.1075 7.94531
      vertex 58.0321 15.2405 9
      vertex 55.7792 14.6488 8.69333
    endloop
  endfacet
  facet normal 0.254244 -0.96714 1.7885e-05
    outer loop
      vertex 58.0782 15.2526 7.97935
      vertex 58.0321 15.2405 9
      vertex 57.9268 15.2128 8
    endloop
  endfacet
  facet normal 0.253999 -0.967204 6.06909e-06
    outer loop
      vertex 59.9258 15.7378 7.72741
      vertex 58.0321 15.2405 9
      vertex 58.0782 15.2526 7.97935
    endloop
  endfacet
  facet normal 0.254256 -0.967137 0.000414657
    outer loop
      vertex 60.0674 15.775 7.66669
      vertex 58.0321 15.2405 9
      vertex 59.9258 15.7378 7.72741
    endloop
  endfacet
  facet normal 0.253919 -0.967225 -0.000135019
    outer loop
      vertex 58.0321 15.2405 9
      vertex 60.0674 15.775 7.66669
      vertex 60.7727 15.9602 7.36406
    endloop
  endfacet
  facet normal 0.254008 -0.967202 -5.33986e-05
    outer loop
      vertex 63.903 16.7823 4.96203
      vertex 65.5707 17.2203 4.5
      vertex 63.6293 16.7104 5.33143
    endloop
  endfacet
  facet normal 0.254008 -0.967202 2.76267e-05
    outer loop
      vertex 55.1404 14.481 7.38957
      vertex 55.7792 14.6488 8.69333
      vertex 53.6797 14.0974 7.79423
    endloop
  endfacet
  facet normal 0.25404 -0.967194 7.23397e-05
    outer loop
      vertex 55.7792 14.6488 8.69333
      vertex 56.0791 14.7275 7.74803
      vertex 57.5258 15.1075 7.94531
    endloop
  endfacet
  facet normal 0.253802 -0.967256 -8.29774e-06
    outer loop
      vertex 55.7792 14.6488 8.69333
      vertex 55.9278 14.6878 7.72741
      vertex 56.0791 14.7275 7.74803
    endloop
  endfacet
  facet normal 0.254011 -0.967201 2.61016e-05
    outer loop
      vertex 55.7792 14.6488 8.69333
      vertex 55.1404 14.481 7.38957
      vertex 55.9278 14.6878 7.72741
    endloop
  endfacet
  facet normal 0.254005 -0.967203 -6.7326e-05
    outer loop
      vertex 64.2452 16.8722 4.5
      vertex 65.5707 17.2203 4.5
      vertex 63.903 16.7823 4.96203
    endloop
  endfacet
  facet normal 0.253978 -0.96721 -8.81006e-05
    outer loop
      vertex 53.6797 14.0974 7.79423
      vertex 54.2061 14.2357 6.98873
      vertex 55.1404 14.481 7.38957
    endloop
  endfacet
  facet normal 0.25425 -0.967139 0.000101752
    outer loop
      vertex 53.6797 14.0974 7.79423
      vertex 54.065 14.1986 6.9282
      vertex 54.2061 14.2357 6.98873
    endloop
  endfacet
  facet normal 0.253991 -0.967207 -2.1587e-05
    outer loop
      vertex 53.6797 14.0974 7.79423
      vertex 52.587 13.8105 5.75349
      vertex 54.065 14.1986 6.9282
    endloop
  endfacet
  facet normal 0.254893 -0.966969 -0.000538307
    outer loop
      vertex 53.6797 14.0974 7.79423
      vertex 52.4654 13.7785 5.65685
      vertex 52.587 13.8105 5.75349
    endloop
  endfacet
  facet normal 0.253965 -0.967213 2.5599e-05
    outer loop
      vertex 50.4935 13.2607 4.5
      vertex 52.4654 13.7785 5.65685
      vertex 53.6797 14.0974 7.79423
    endloop
  endfacet
  facet normal 0.254011 -0.967201 -5.78174e-05
    outer loop
      vertex 52.4654 13.7785 5.65685
      vertex 50.4935 13.2607 4.5
      vertex 51.6084 13.5535 4.5
    endloop
  endfacet
  facet normal 0.253952 -0.967217 3.89768e-05
    outer loop
      vertex 53.6797 14.0974 7.79423
      vertex 51.8769 13.624 6.36396
      vertex 50.4935 13.2607 4.5
    endloop
  endfacet
  facet normal 0.254005 -0.967203 0.000142494
    outer loop
      vertex 64.6156 16.9694 4
      vertex 65.5707 17.2203 4.5
      vertex 64.2452 16.8722 4.5
    endloop
  endfacet
  facet normal 0.254329 -0.967118 -0.000520016
    outer loop
      vertex 65.5707 17.2203 4.5
      vertex 64.6156 16.9694 4
      vertex 64.6383 16.9754 3.9434
    endloop
  endfacet
  facet normal 0.254011 -0.967201 0.000218507
    outer loop
      vertex 50.4935 13.2607 4.5
      vertex 51.3319 13.4808 4.12668
      vertex 51.6084 13.5535 4.5
    endloop
  endfacet
  facet normal 0.253798 -0.967257 -0.000292718
    outer loop
      vertex 50.4935 13.2607 4.5
      vertex 51.238 13.4562 4
      vertex 51.3319 13.4808 4.12668
    endloop
  endfacet
  facet normal 0.253984 -0.967208 3.42181e-06
    outer loop
      vertex 50.4935 13.2607 4.5
      vertex 50.5259 13.2692 2.21924
      vertex 51.238 13.4562 4
    endloop
  endfacet
  facet normal 0.253758 -0.967268 0
    outer loop
      vertex 50.5259 13.2692 2.21924
      vertex 50.4935 13.2607 4.5
      vertex 50.4935 13.2607 2.13833
    endloop
  endfacet
  facet normal 0.254036 -0.967195 -1.11992e-06
    outer loop
      vertex 50.4935 13.2607 4.5
      vertex 49.6239 13.0323 2.32937
      vertex 49.3273 12.9544 0
    endloop
  endfacet
  facet normal 0.253439 -0.967351 0
    outer loop
      vertex 50.4935 13.2607 4.5
      vertex 50.4664 13.2536 2.07055
      vertex 50.4935 13.2607 2.13833
    endloop
  endfacet
  facet normal 0.254059 -0.967189 -7.38785e-06
    outer loop
      vertex 49.3273 12.9544 0
      vertex 50.4664 13.2536 2.07055
      vertex 50.4935 13.2607 4.5
    endloop
  endfacet
  facet normal 0.253988 -0.967207 3.3967e-05
    outer loop
      vertex 50.4664 13.2536 2.07055
      vertex 49.3273 12.9544 0
      vertex 50.2237 13.1898 0.161028
    endloop
  endfacet
  facet normal 0.25395 -0.967217 0.000263299
    outer loop
      vertex 50.2237 13.1898 0.161028
      vertex 49.3273 12.9544 0
      vertex 50.2033 13.1844 0
    endloop
  endfacet
  facet normal 0.253953 -0.967217 0.000154026
    outer loop
      vertex 64.6753 16.9851 3.85086
      vertex 65.5707 17.2203 4.5
      vertex 64.6383 16.9754 3.9434
    endloop
  endfacet
  facet normal 0.254058 -0.967189 -4.32744e-07
    outer loop
      vertex 65.3872 17.1721 2.07055
      vertex 65.5707 17.2203 4.5
      vertex 64.6753 16.9851 3.85086
    endloop
  endfacet
  facet normal 0.253784 -0.967261 -0.000128019
    outer loop
      vertex 66.7369 17.5265 0
      vertex 65.3872 17.1721 2.07055
      vertex 65.4077 17.1775 1.90934
    endloop
  endfacet
  facet normal 0.253976 -0.96721 1.50408e-05
    outer loop
      vertex 66.7369 17.5265 0
      vertex 65.4077 17.1775 1.90934
      vertex 65.6504 17.2412 0
    endloop
  endfacet
  facet normal 0.253976 -0.96721 6.11681e-06
    outer loop
      vertex 65.3872 17.1721 2.07055
      vertex 66.7369 17.5265 0
      vertex 65.5707 17.2203 4.5
    endloop
  endfacet
  facet normal 0.108351 0.985606 0.129771
    outer loop
      vertex 14.9236 67.0527 2.32937
      vertex 1.53211e-14 69 0
      vertex 1.5253e-14 68.6933 2.32937
    endloop
  endfacet
  facet normal 0.108356 0.98561 0.129739
    outer loop
      vertex 14.9236 67.0527 2.32937
      vertex 14.9902 67.352 0
      vertex 1.53211e-14 69 0
    endloop
  endfacet
  facet normal 0.10105 0.919151 0.380723
    outer loop
      vertex 14.7283 66.175 4.5
      vertex 1.5253e-14 68.6933 2.32937
      vertex 1.50533e-14 67.7942 4.5
    endloop
  endfacet
  facet normal 0.101044 0.919141 0.380749
    outer loop
      vertex 14.7283 66.175 4.5
      vertex 14.9236 67.0527 2.32937
      vertex 1.5253e-14 68.6933 2.32937
    endloop
  endfacet
  facet normal 0.086895 0.790366 0.606441
    outer loop
      vertex 14.4175 64.7789 6.36396
      vertex 1.50533e-14 67.7942 4.5
      vertex 1.47358e-14 66.364 6.36396
    endloop
  endfacet
  facet normal 0.0868898 0.790352 0.60646
    outer loop
      vertex 14.4175 64.7789 6.36396
      vertex 14.7283 66.175 4.5
      vertex 1.50533e-14 67.7942 4.5
    endloop
  endfacet
  facet normal 0.0667751 0.607395 0.791588
    outer loop
      vertex 14.0126 62.9595 7.79423
      vertex 1.47358e-14 66.364 6.36396
      vertex 1.43219e-14 64.5 7.79423
    endloop
  endfacet
  facet normal 0.0667806 0.607412 0.791575
    outer loop
      vertex 14.0126 62.9595 7.79423
      vertex 14.4175 64.7789 6.36396
      vertex 1.47358e-14 66.364 6.36396
    endloop
  endfacet
  facet normal 0.0420354 0.382348 0.923062
    outer loop
      vertex 13.541 60.8407 8.69333
      vertex 1.43219e-14 64.5 7.79423
      vertex 1.38399e-14 62.3294 8.69333
    endloop
  endfacet
  facet normal 0.0420334 0.382341 0.923065
    outer loop
      vertex 13.541 60.8407 8.69333
      vertex 14.0126 62.9595 7.79423
      vertex 1.43219e-14 64.5 7.79423
    endloop
  endfacet
  facet normal 0.0143478 0.130512 0.991343
    outer loop
      vertex 13.035 58.567 9
      vertex 1.38399e-14 62.3294 8.69333
      vertex 1.33227e-14 60 9
    endloop
  endfacet
  facet normal 0.014349 0.130516 0.991342
    outer loop
      vertex 13.035 58.567 9
      vertex 13.541 60.8407 8.69333
      vertex 1.38399e-14 62.3294 8.69333
    endloop
  endfacet
  facet normal -0.0143482 -0.130512 0.991343
    outer loop
      vertex 12.5289 56.2932 8.69333
      vertex 1.33227e-14 60 9
      vertex 1.28055e-14 57.6706 8.69333
    endloop
  endfacet
  facet normal -0.0143476 -0.13051 0.991343
    outer loop
      vertex 12.5289 56.2932 8.69333
      vertex 13.035 58.567 9
      vertex 1.33227e-14 60 9
    endloop
  endfacet
  facet normal -0.042036 -0.382348 0.923062
    outer loop
      vertex 12.0573 54.1744 7.79423
      vertex 1.28055e-14 57.6706 8.69333
      vertex 1.23235e-14 55.5 7.79423
    endloop
  endfacet
  facet normal -0.0420338 -0.382341 0.923065
    outer loop
      vertex 12.0573 54.1744 7.79423
      vertex 12.5289 56.2932 8.69333
      vertex 1.28055e-14 57.6706 8.69333
    endloop
  endfacet
  facet normal -0.0667737 -0.607395 0.791588
    outer loop
      vertex 11.6524 52.355 6.36396
      vertex 1.23235e-14 55.5 7.79423
      vertex 1.19096e-14 53.636 6.36396
    endloop
  endfacet
  facet normal -0.06678 -0.607413 0.791575
    outer loop
      vertex 11.6524 52.355 6.36396
      vertex 12.0573 54.1744 7.79423
      vertex 1.23235e-14 55.5 7.79423
    endloop
  endfacet
  facet normal -0.0868924 -0.790366 0.606441
    outer loop
      vertex 11.3417 50.9589 4.5
      vertex 1.19096e-14 53.636 6.36396
      vertex 1.1592e-14 52.2058 4.5
    endloop
  endfacet
  facet normal -0.0868872 -0.790355 0.606456
    outer loop
      vertex 11.3417 50.9589 4.5
      vertex 11.6524 52.355 6.36396
      vertex 1.19096e-14 53.636 6.36396
    endloop
  endfacet
  facet normal -0.101049 -0.919151 0.380723
    outer loop
      vertex 11.1463 50.0813 2.32937
      vertex 1.1592e-14 52.2058 4.5
      vertex 1.13924e-14 51.3067 2.32937
    endloop
  endfacet
  facet normal -0.101051 -0.919154 0.380717
    outer loop
      vertex 11.1463 50.0813 2.32937
      vertex 11.3417 50.9589 4.5
      vertex 1.1592e-14 52.2058 4.5
    endloop
  endfacet
  facet normal -0.108357 -0.985605 0.129771
    outer loop
      vertex 11.0797 49.7819 0
      vertex 1.13924e-14 51.3067 2.32937
      vertex 1.13243e-14 51 0
    endloop
  endfacet
  facet normal -0.108355 -0.985604 0.12978
    outer loop
      vertex 11.0797 49.7819 0
      vertex 11.1463 50.0813 2.32937
      vertex 1.13924e-14 51.3067 2.32937
    endloop
  endfacet
  facet normal 0.319896 0.938528 0.129737
    outer loop
      vertex 29.1343 62.209 2.32937
      vertex 14.9902 67.352 0
      vertex 14.9236 67.0527 2.32937
    endloop
  endfacet
  facet normal 0.319885 0.938524 0.129794
    outer loop
      vertex 29.1343 62.209 2.32937
      vertex 29.2644 62.4868 0
      vertex 14.9902 67.352 0
    endloop
  endfacet
  facet normal 0.298317 0.875237 0.380745
    outer loop
      vertex 28.753 61.3948 4.5
      vertex 14.9236 67.0527 2.32937
      vertex 14.7283 66.175 4.5
    endloop
  endfacet
  facet normal 0.298328 0.875249 0.38071
    outer loop
      vertex 28.753 61.3948 4.5
      vertex 29.1343 62.209 2.32937
      vertex 14.9236 67.0527 2.32937
    endloop
  endfacet
  facet normal 0.256512 0.752597 0.606464
    outer loop
      vertex 28.1464 60.0996 6.36396
      vertex 14.7283 66.175 4.5
      vertex 14.4175 64.7789 6.36396
    endloop
  endfacet
  facet normal 0.256521 0.752611 0.606444
    outer loop
      vertex 28.1464 60.0996 6.36396
      vertex 28.753 61.3948 4.5
      vertex 14.7283 66.175 4.5
    endloop
  endfacet
  facet normal 0.197146 0.578399 0.791573
    outer loop
      vertex 27.3558 58.4115 7.79423
      vertex 14.4175 64.7789 6.36396
      vertex 14.0126 62.9595 7.79423
    endloop
  endfacet
  facet normal 0.197129 0.578371 0.791598
    outer loop
      vertex 27.3558 58.4115 7.79423
      vertex 28.1464 60.0996 6.36396
      vertex 14.4175 64.7789 6.36396
    endloop
  endfacet
  facet normal 0.124093 0.364077 0.923065
    outer loop
      vertex 26.4352 56.4458 8.69333
      vertex 14.0126 62.9595 7.79423
      vertex 13.541 60.8407 8.69333
    endloop
  endfacet
  facet normal 0.124097 0.364084 0.923061
    outer loop
      vertex 26.4352 56.4458 8.69333
      vertex 27.3558 58.4115 7.79423
      vertex 14.0126 62.9595 7.79423
    endloop
  endfacet
  facet normal 0.0423612 0.124282 0.991342
    outer loop
      vertex 25.4473 54.3363 9
      vertex 13.541 60.8407 8.69333
      vertex 13.035 58.567 9
    endloop
  endfacet
  facet normal 0.0423598 0.12428 0.991343
    outer loop
      vertex 25.4473 54.3363 9
      vertex 26.4352 56.4458 8.69333
      vertex 13.541 60.8407 8.69333
    endloop
  endfacet
  facet normal -0.0423582 -0.124276 0.991343
    outer loop
      vertex 24.4594 52.2268 8.69333
      vertex 13.035 58.567 9
      vertex 12.5289 56.2932 8.69333
    endloop
  endfacet
  facet normal -0.0423603 -0.124279 0.991343
    outer loop
      vertex 24.4594 52.2268 8.69333
      vertex 25.4473 54.3363 9
      vertex 13.035 58.567 9
    endloop
  endfacet
  facet normal -0.124091 -0.364077 0.923065
    outer loop
      vertex 23.5387 50.2611 7.79423
      vertex 12.5289 56.2932 8.69333
      vertex 12.0573 54.1744 7.79423
    endloop
  endfacet
  facet normal -0.124094 -0.364081 0.923063
    outer loop
      vertex 23.5387 50.2611 7.79423
      vertex 24.4594 52.2268 8.69333
      vertex 12.5289 56.2932 8.69333
    endloop
  endfacet
  facet normal -0.197142 -0.5784 0.791573
    outer loop
      vertex 22.7482 48.5731 6.36396
      vertex 12.0573 54.1744 7.79423
      vertex 11.6524 52.355 6.36396
    endloop
  endfacet
  facet normal -0.197139 -0.578395 0.791578
    outer loop
      vertex 22.7482 48.5731 6.36396
      vertex 23.5387 50.2611 7.79423
      vertex 12.0573 54.1744 7.79423
    endloop
  endfacet
  facet normal -0.256521 -0.752602 0.606455
    outer loop
      vertex 22.1416 47.2778 4.5
      vertex 11.6524 52.355 6.36396
      vertex 11.3417 50.9589 4.5
    endloop
  endfacet
  facet normal -0.256514 -0.752592 0.606469
    outer loop
      vertex 22.1416 47.2778 4.5
      vertex 22.7482 48.5731 6.36396
      vertex 11.6524 52.355 6.36396
    endloop
  endfacet
  facet normal -0.298321 -0.875246 0.380722
    outer loop
      vertex 21.7603 46.4636 2.32937
      vertex 11.3417 50.9589 4.5
      vertex 11.1463 50.0813 2.32937
    endloop
  endfacet
  facet normal -0.298325 -0.87525 0.38071
    outer loop
      vertex 21.7603 46.4636 2.32937
      vertex 22.1416 47.2778 4.5
      vertex 11.3417 50.9589 4.5
    endloop
  endfacet
  facet normal -0.319884 -0.938526 0.129777
    outer loop
      vertex 21.6302 46.1859 0
      vertex 11.1463 50.0813 2.32937
      vertex 11.0797 49.7819 0
    endloop
  endfacet
  facet normal -0.31989 -0.938528 0.129755
    outer loop
      vertex 21.6302 46.1859 0
      vertex 21.7603 46.4636 2.32937
      vertex 11.1463 50.0813 2.32937
    endloop
  endfacet
  facet normal 0.51614 0.846613 0.129794
    outer loop
      vertex 41.9534 54.3938 2.32937
      vertex 29.2644 62.4868 0
      vertex 29.1343 62.209 2.32937
    endloop
  endfacet
  facet normal 0.516142 0.846613 0.129784
    outer loop
      vertex 41.9534 54.3938 2.32937
      vertex 42.1407 54.6367 0
      vertex 29.2644 62.4868 0
    endloop
  endfacet
  facet normal 0.481346 0.789536 0.380709
    outer loop
      vertex 41.4042 53.6819 4.5
      vertex 29.1343 62.209 2.32937
      vertex 28.753 61.3948 4.5
    endloop
  endfacet
  facet normal 0.48134 0.789531 0.380728
    outer loop
      vertex 41.4042 53.6819 4.5
      vertex 41.9534 54.3938 2.32937
      vertex 29.1343 62.209 2.32937
    endloop
  endfacet
  facet normal 0.4139 0.678904 0.606445
    outer loop
      vertex 40.5307 52.5494 6.36396
      vertex 28.753 61.3948 4.5
      vertex 28.1464 60.0996 6.36396
    endloop
  endfacet
  facet normal 0.413898 0.678902 0.606449
    outer loop
      vertex 40.5307 52.5494 6.36396
      vertex 41.4042 53.6819 4.5
      vertex 28.753 61.3948 4.5
    endloop
  endfacet
  facet normal 0.318074 0.521729 0.791598
    outer loop
      vertex 39.3923 51.0734 7.79423
      vertex 28.1464 60.0996 6.36396
      vertex 27.3558 58.4115 7.79423
    endloop
  endfacet
  facet normal 0.318082 0.521737 0.79159
    outer loop
      vertex 39.3923 51.0734 7.79423
      vertex 40.5307 52.5494 6.36396
      vertex 28.1464 60.0996 6.36396
    endloop
  endfacet
  facet normal 0.200229 0.32843 0.923061
    outer loop
      vertex 38.0667 49.3546 8.69333
      vertex 27.3558 58.4115 7.79423
      vertex 26.4352 56.4458 8.69333
    endloop
  endfacet
  facet normal 0.200228 0.328429 0.923062
    outer loop
      vertex 38.0667 49.3546 8.69333
      vertex 39.3923 51.0734 7.79423
      vertex 27.3558 58.4115 7.79423
    endloop
  endfacet
  facet normal 0.0683485 0.112109 0.991343
    outer loop
      vertex 36.644 47.5101 9
      vertex 26.4352 56.4458 8.69333
      vertex 25.4473 54.3363 9
    endloop
  endfacet
  facet normal 0.0683459 0.112106 0.991343
    outer loop
      vertex 36.644 47.5101 9
      vertex 38.0667 49.3546 8.69333
      vertex 26.4352 56.4458 8.69333
    endloop
  endfacet
  facet normal -0.0683478 -0.112109 0.991343
    outer loop
      vertex 35.2214 45.6657 8.69333
      vertex 25.4473 54.3363 9
      vertex 24.4594 52.2268 8.69333
    endloop
  endfacet
  facet normal -0.0683505 -0.112112 0.991342
    outer loop
      vertex 35.2214 45.6657 8.69333
      vertex 36.644 47.5101 9
      vertex 25.4473 54.3363 9
    endloop
  endfacet
  facet normal -0.200225 -0.328423 0.923065
    outer loop
      vertex 33.8957 43.9469 7.79423
      vertex 24.4594 52.2268 8.69333
      vertex 23.5387 50.2611 7.79423
    endloop
  endfacet
  facet normal -0.200224 -0.328422 0.923065
    outer loop
      vertex 33.8957 43.9469 7.79423
      vertex 35.2214 45.6657 8.69333
      vertex 24.4594 52.2268 8.69333
    endloop
  endfacet
  facet normal -0.318091 -0.521752 0.791576
    outer loop
      vertex 32.7574 42.4709 6.36396
      vertex 23.5387 50.2611 7.79423
      vertex 22.7482 48.5731 6.36396
    endloop
  endfacet
  facet normal -0.318086 -0.521747 0.791582
    outer loop
      vertex 32.7574 42.4709 6.36396
      vertex 33.8957 43.9469 7.79423
      vertex 23.5387 50.2611 7.79423
    endloop
  endfacet
  facet normal -0.41389 -0.67889 0.606468
    outer loop
      vertex 31.8838 41.3384 4.5
      vertex 22.7482 48.5731 6.36396
      vertex 22.1416 47.2778 4.5
    endloop
  endfacet
  facet normal -0.413893 -0.678893 0.606463
    outer loop
      vertex 31.8838 41.3384 4.5
      vertex 32.7574 42.4709 6.36396
      vertex 22.7482 48.5731 6.36396
    endloop
  endfacet
  facet normal -0.481346 -0.789536 0.380709
    outer loop
      vertex 31.3347 40.6265 2.32937
      vertex 22.1416 47.2778 4.5
      vertex 21.7603 46.4636 2.32937
    endloop
  endfacet
  facet normal -0.481346 -0.789536 0.380709
    outer loop
      vertex 31.3347 40.6265 2.32937
      vertex 31.8838 41.3384 4.5
      vertex 22.1416 47.2778 4.5
    endloop
  endfacet
  facet normal -0.51615 -0.846612 0.129758
    outer loop
      vertex 31.1474 40.3836 0
      vertex 21.7603 46.4636 2.32937
      vertex 21.6302 46.1859 0
    endloop
  endfacet
  facet normal -0.516143 -0.846612 0.129784
    outer loop
      vertex 31.1474 40.3836 0
      vertex 31.3347 40.6265 2.32937
      vertex 21.7603 46.4636 2.32937
    endloop
  endfacet
  facet normal 0.68774 0.714263 0.129781
    outer loop
      vertex 52.7684 43.9804 2.32937
      vertex 42.1407 54.6367 0
      vertex 41.9534 54.3938 2.32937
    endloop
  endfacet
  facet normal 0.687745 0.714262 0.129753
    outer loop
      vertex 52.7684 43.9804 2.32937
      vertex 53.004 44.1767 0
      vertex 42.1407 54.6367 0
    endloop
  endfacet
  facet normal 0.641368 0.666099 0.380735
    outer loop
      vertex 52.0777 43.4047 4.5
      vertex 41.9534 54.3938 2.32937
      vertex 41.4042 53.6819 4.5
    endloop
  endfacet
  facet normal 0.641363 0.666097 0.380747
    outer loop
      vertex 52.0777 43.4047 4.5
      vertex 52.7684 43.9804 2.32937
      vertex 41.9534 54.3938 2.32937
    endloop
  endfacet
  facet normal 0.551503 0.572768 0.60645
    outer loop
      vertex 50.979 42.489 6.36396
      vertex 41.4042 53.6819 4.5
      vertex 40.5307 52.5494 6.36396
    endloop
  endfacet
  facet normal 0.551498 0.572765 0.606457
    outer loop
      vertex 50.979 42.489 6.36396
      vertex 52.0777 43.4047 4.5
      vertex 41.4042 53.6819 4.5
    endloop
  endfacet
  facet normal 0.42383 0.440175 0.79159
    outer loop
      vertex 49.5472 41.2956 7.79423
      vertex 40.5307 52.5494 6.36396
      vertex 39.3923 51.0734 7.79423
    endloop
  endfacet
  facet normal 0.423841 0.440184 0.791579
    outer loop
      vertex 49.5472 41.2956 7.79423
      vertex 50.979 42.489 6.36396
      vertex 40.5307 52.5494 6.36396
    endloop
  endfacet
  facet normal 0.266798 0.277087 0.923061
    outer loop
      vertex 47.8798 39.9059 8.69333
      vertex 39.3923 51.0734 7.79423
      vertex 38.0667 49.3546 8.69333
    endloop
  endfacet
  facet normal 0.266797 0.277087 0.923061
    outer loop
      vertex 47.8798 39.9059 8.69333
      vertex 49.5472 41.2956 7.79423
      vertex 39.3923 51.0734 7.79423
    endloop
  endfacet
  facet normal 0.0910678 0.0945801 0.991343
    outer loop
      vertex 46.0904 38.4145 9
      vertex 38.0667 49.3546 8.69333
      vertex 36.644 47.5101 9
    endloop
  endfacet
  facet normal 0.0910684 0.0945805 0.991343
    outer loop
      vertex 46.0904 38.4145 9
      vertex 47.8798 39.9059 8.69333
      vertex 38.0667 49.3546 8.69333
    endloop
  endfacet
  facet normal -0.0910737 -0.0945854 0.991342
    outer loop
      vertex 44.301 36.9232 8.69333
      vertex 36.644 47.5101 9
      vertex 35.2214 45.6657 8.69333
    endloop
  endfacet
  facet normal -0.0910711 -0.0945835 0.991343
    outer loop
      vertex 44.301 36.9232 8.69333
      vertex 46.0904 38.4145 9
      vertex 36.644 47.5101 9
    endloop
  endfacet
  facet normal -0.266792 -0.277078 0.923065
    outer loop
      vertex 42.6336 35.5334 7.79423
      vertex 35.2214 45.6657 8.69333
      vertex 33.8957 43.9469 7.79423
    endloop
  endfacet
  facet normal -0.26679 -0.277078 0.923066
    outer loop
      vertex 42.6336 35.5334 7.79423
      vertex 44.301 36.9232 8.69333
      vertex 35.2214 45.6657 8.69333
    endloop
  endfacet
  facet normal -0.423842 -0.440184 0.791578
    outer loop
      vertex 41.2018 34.34 6.36396
      vertex 33.8957 43.9469 7.79423
      vertex 32.7574 42.4709 6.36396
    endloop
  endfacet
  facet normal -0.423841 -0.440184 0.791579
    outer loop
      vertex 41.2018 34.34 6.36396
      vertex 42.6336 35.5334 7.79423
      vertex 33.8957 43.9469 7.79423
    endloop
  endfacet
  facet normal -0.551492 -0.572759 0.606468
    outer loop
      vertex 40.1031 33.4243 4.5
      vertex 32.7574 42.4709 6.36396
      vertex 31.8838 41.3384 4.5
    endloop
  endfacet
  facet normal -0.551499 -0.572763 0.606457
    outer loop
      vertex 40.1031 33.4243 4.5
      vertex 41.2018 34.34 6.36396
      vertex 32.7574 42.4709 6.36396
    endloop
  endfacet
  facet normal -0.641376 -0.666106 0.38071
    outer loop
      vertex 39.4124 32.8487 2.32937
      vertex 31.8838 41.3384 4.5
      vertex 31.3347 40.6265 2.32937
    endloop
  endfacet
  facet normal -0.641371 -0.666105 0.380721
    outer loop
      vertex 39.4124 32.8487 2.32937
      vertex 40.1031 33.4243 4.5
      vertex 31.8838 41.3384 4.5
    endloop
  endfacet
  facet normal -0.687742 -0.71426 0.129781
    outer loop
      vertex 39.1768 32.6523 0
      vertex 31.3347 40.6265 2.32937
      vertex 31.1474 40.3836 0
    endloop
  endfacet
  facet normal -0.687742 -0.71426 0.129783
    outer loop
      vertex 39.1768 32.6523 0
      vertex 39.4124 32.8487 2.32937
      vertex 31.3347 40.6265 2.32937
    endloop
  endfacet
  facet normal 0.826492 0.54779 0.129757
    outer loop
      vertex 61.0628 31.466 2.32937
      vertex 53.004 44.1767 0
      vertex 52.7684 43.9804 2.32937
    endloop
  endfacet
  facet normal 0.826491 0.54779 0.129763
    outer loop
      vertex 61.0628 31.466 2.32937
      vertex 61.3354 31.6065 0
      vertex 53.004 44.1767 0
    endloop
  endfacet
  facet normal 0.770756 0.51085 0.380746
    outer loop
      vertex 60.2635 31.0542 4.5
      vertex 52.7684 43.9804 2.32937
      vertex 52.0777 43.4047 4.5
    endloop
  endfacet
  facet normal 0.77076 0.510851 0.380736
    outer loop
      vertex 60.2635 31.0542 4.5
      vertex 61.0628 31.466 2.32937
      vertex 52.7684 43.9804 2.32937
    endloop
  endfacet
  facet normal 0.662758 0.439273 0.606458
    outer loop
      vertex 58.9922 30.399 6.36396
      vertex 52.0777 43.4047 4.5
      vertex 50.979 42.489 6.36396
    endloop
  endfacet
  facet normal 0.662767 0.439276 0.606445
    outer loop
      vertex 58.9922 30.399 6.36396
      vertex 60.2635 31.0542 4.5
      vertex 52.0777 43.4047 4.5
    endloop
  endfacet
  facet normal 0.509351 0.337591 0.791577
    outer loop
      vertex 57.3352 29.5452 7.79423
      vertex 50.979 42.489 6.36396
      vertex 49.5472 41.2956 7.79423
    endloop
  endfacet
  facet normal 0.509332 0.337583 0.791593
    outer loop
      vertex 57.3352 29.5452 7.79423
      vertex 58.9922 30.399 6.36396
      vertex 50.979 42.489 6.36396
    endloop
  endfacet
  facet normal 0.320624 0.212504 0.923062
    outer loop
      vertex 55.4057 28.5509 8.69333
      vertex 49.5472 41.2956 7.79423
      vertex 47.8798 39.9059 8.69333
    endloop
  endfacet
  facet normal 0.32062 0.212502 0.923063
    outer loop
      vertex 55.4057 28.5509 8.69333
      vertex 57.3352 29.5452 7.79423
      vertex 49.5472 41.2956 7.79423
    endloop
  endfacet
  facet normal 0.109441 0.0725366 0.991343
    outer loop
      vertex 53.3351 27.4839 9
      vertex 47.8798 39.9059 8.69333
      vertex 46.0904 38.4145 9
    endloop
  endfacet
  facet normal 0.109445 0.0725382 0.991343
    outer loop
      vertex 53.3351 27.4839 9
      vertex 55.4057 28.5509 8.69333
      vertex 47.8798 39.9059 8.69333
    endloop
  endfacet
  facet normal -0.109444 -0.0725385 0.991343
    outer loop
      vertex 51.2645 26.4169 8.69333
      vertex 46.0904 38.4145 9
      vertex 44.301 36.9232 8.69333
    endloop
  endfacet
  facet normal -0.109445 -0.0725389 0.991343
    outer loop
      vertex 51.2645 26.4169 8.69333
      vertex 53.3351 27.4839 9
      vertex 46.0904 38.4145 9
    endloop
  endfacet
  facet normal -0.320614 -0.212502 0.923065
    outer loop
      vertex 49.335 25.4226 7.79423
      vertex 44.301 36.9232 8.69333
      vertex 42.6336 35.5334 7.79423
    endloop
  endfacet
  facet normal -0.320619 -0.212504 0.923063
    outer loop
      vertex 49.335 25.4226 7.79423
      vertex 51.2645 26.4169 8.69333
      vertex 44.301 36.9232 8.69333
    endloop
  endfacet
  facet normal -0.509349 -0.337594 0.791577
    outer loop
      vertex 47.6781 24.5688 6.36396
      vertex 42.6336 35.5334 7.79423
      vertex 41.2018 34.34 6.36396
    endloop
  endfacet
  facet normal -0.509346 -0.337593 0.791579
    outer loop
      vertex 47.6781 24.5688 6.36396
      vertex 49.335 25.4226 7.79423
      vertex 42.6336 35.5334 7.79423
    endloop
  endfacet
  facet normal -0.662759 -0.43927 0.606458
    outer loop
      vertex 46.4067 23.9136 4.5
      vertex 41.2018 34.34 6.36396
      vertex 40.1031 33.4243 4.5
    endloop
  endfacet
  facet normal -0.662752 -0.439268 0.606468
    outer loop
      vertex 46.4067 23.9136 4.5
      vertex 47.6781 24.5688 6.36396
      vertex 41.2018 34.34 6.36396
    endloop
  endfacet
  facet normal -0.770765 -0.510852 0.380725
    outer loop
      vertex 45.6074 23.5018 2.32937
      vertex 40.1031 33.4243 4.5
      vertex 39.4124 32.8487 2.32937
    endloop
  endfacet
  facet normal -0.77076 -0.510852 0.380736
    outer loop
      vertex 45.6074 23.5018 2.32937
      vertex 46.4067 23.9136 4.5
      vertex 40.1031 33.4243 4.5
    endloop
  endfacet
  facet normal -0.826488 -0.54779 0.12978
    outer loop
      vertex 45.3348 23.3613 0
      vertex 39.4124 32.8487 2.32937
      vertex 39.1768 32.6523 0
    endloop
  endfacet
  facet normal -0.826492 -0.547788 0.129763
    outer loop
      vertex 45.3348 23.3613 0
      vertex 45.6074 23.5018 2.32937
      vertex 39.4124 32.8487 2.32937
    endloop
  endfacet
  facet normal 0.92576 0.35515 0.129761
    outer loop
      vertex 66.4403 17.4486 2.32937
      vertex 61.3354 31.6065 0
      vertex 61.0628 31.466 2.32937
    endloop
  endfacet
  facet normal 0.925761 0.355149 0.129755
    outer loop
      vertex 66.4403 17.4486 2.32937
      vertex 66.7369 17.5265 0
      vertex 61.3354 31.6065 0
    endloop
  endfacet
  facet normal 0.86333 0.331206 0.380742
    outer loop
      vertex 65.5707 17.2203 4.5
      vertex 61.0628 31.466 2.32937
      vertex 60.2635 31.0542 4.5
    endloop
  endfacet
  facet normal 0.863345 0.331205 0.380709
    outer loop
      vertex 65.5707 17.2203 4.5
      vertex 66.4403 17.4486 2.32937
      vertex 61.0628 31.466 2.32937
    endloop
  endfacet
  facet normal 0.742373 0.284801 0.606441
    outer loop
      vertex 64.1874 16.857 6.36396
      vertex 60.2635 31.0542 4.5
      vertex 58.9922 30.399 6.36396
    endloop
  endfacet
  facet normal 0.74237 0.284801 0.606445
    outer loop
      vertex 64.1874 16.857 6.36396
      vertex 65.5707 17.2203 4.5
      vertex 60.2635 31.0542 4.5
    endloop
  endfacet
  facet normal 0.570505 0.218866 0.791595
    outer loop
      vertex 62.3845 16.3835 7.79423
      vertex 58.9922 30.399 6.36396
      vertex 57.3352 29.5452 7.79423
    endloop
  endfacet
  facet normal 0.570504 0.218866 0.791595
    outer loop
      vertex 62.3845 16.3835 7.79423
      vertex 64.1874 16.857 6.36396
      vertex 58.9922 30.399 6.36396
    endloop
  endfacet
  facet normal 0.359128 0.137775 0.923063
    outer loop
      vertex 60.2851 15.8321 8.69333
      vertex 57.3352 29.5452 7.79423
      vertex 55.4057 28.5509 8.69333
    endloop
  endfacet
  facet normal 0.359129 0.137775 0.923062
    outer loop
      vertex 60.2851 15.8321 8.69333
      vertex 62.3845 16.3835 7.79423
      vertex 57.3352 29.5452 7.79423
    endloop
  endfacet
  facet normal 0.12259 0.0470297 0.991343
    outer loop
      vertex 58.0321 15.2405 9
      vertex 55.4057 28.5509 8.69333
      vertex 53.3351 27.4839 9
    endloop
  endfacet
  facet normal 0.122589 0.0470295 0.991343
    outer loop
      vertex 58.0321 15.2405 9
      vertex 60.2851 15.8321 8.69333
      vertex 55.4057 28.5509 8.69333
    endloop
  endfacet
  facet normal -0.12259 -0.0470301 0.991343
    outer loop
      vertex 55.7792 14.6488 8.69333
      vertex 53.3351 27.4839 9
      vertex 51.2645 26.4169 8.69333
    endloop
  endfacet
  facet normal -0.122592 -0.0470305 0.991342
    outer loop
      vertex 55.7792 14.6488 8.69333
      vertex 58.0321 15.2405 9
      vertex 53.3351 27.4839 9
    endloop
  endfacet
  facet normal -0.359128 -0.137773 0.923063
    outer loop
      vertex 53.6797 14.0974 7.79423
      vertex 51.2645 26.4169 8.69333
      vertex 49.335 25.4226 7.79423
    endloop
  endfacet
  facet normal -0.359116 -0.137771 0.923068
    outer loop
      vertex 53.6797 14.0974 7.79423
      vertex 55.7792 14.6488 8.69333
      vertex 51.2645 26.4169 8.69333
    endloop
  endfacet
  facet normal -0.570523 -0.218872 0.79158
    outer loop
      vertex 51.8769 13.624 6.36396
      vertex 49.335 25.4226 7.79423
      vertex 47.6781 24.5688 6.36396
    endloop
  endfacet
  facet normal -0.57053 -0.218873 0.791575
    outer loop
      vertex 51.8769 13.624 6.36396
      vertex 53.6797 14.0974 7.79423
      vertex 49.335 25.4226 7.79423
    endloop
  endfacet
  facet normal -0.742356 -0.284792 0.606466
    outer loop
      vertex 50.4935 13.2607 4.5
      vertex 47.6781 24.5688 6.36396
      vertex 46.4067 23.9136 4.5
    endloop
  endfacet
  facet normal -0.742353 -0.284792 0.60647
    outer loop
      vertex 50.4935 13.2607 4.5
      vertex 51.8769 13.624 6.36396
      vertex 47.6781 24.5688 6.36396
    endloop
  endfacet
  facet normal -0.86333 -0.331206 0.380742
    outer loop
      vertex 49.6239 13.0323 2.32937
      vertex 46.4067 23.9136 4.5
      vertex 45.6074 23.5018 2.32937
    endloop
  endfacet
  facet normal -0.863339 -0.331205 0.380722
    outer loop
      vertex 49.6239 13.0323 2.32937
      vertex 50.4935 13.2607 4.5
      vertex 46.4067 23.9136 4.5
    endloop
  endfacet
  facet normal -0.925757 -0.355157 0.129761
    outer loop
      vertex 49.3273 12.9544 0
      vertex 45.6074 23.5018 2.32937
      vertex 45.3348 23.3613 0
    endloop
  endfacet
  facet normal -0.925758 -0.355156 0.129755
    outer loop
      vertex 49.3273 12.9544 0
      vertex 49.6239 13.0323 2.32937
      vertex 45.6074 23.5018 2.32937
    endloop
  endfacet
  facet normal -0.0940111 -0.987081 -0.129739
    outer loop
      vertex 13.9435 66.2765 2.07055
      vertex 1.50112e-14 67.6045 2.07055
      vertex 1.50669e-14 67.8553 0.162406
    endloop
  endfacet
  facet normal -0.0940109 -0.987118 -0.129463
    outer loop
      vertex 13.9997 66.5433 0
      vertex 1.50669e-14 67.8553 0.162406
      vertex 1.50716e-14 67.8766 0
    endloop
  endfacet
  facet normal -0.0940107 -0.987081 -0.129742
    outer loop
      vertex 1.50669e-14 67.8553 0.162406
      vertex 13.9997 66.5433 0
      vertex 13.9435 66.2765 2.07055
    endloop
  endfacet
  facet normal -0.0876744 -0.920571 -0.380608
    outer loop
      vertex 13.779 65.4945 4
      vertex 1.48341e-14 66.8068 4
      vertex 1.49972e-14 67.5415 2.22299
    endloop
  endfacet
  facet normal -0.0876818 -0.920626 -0.380474
    outer loop
      vertex 13.9435 66.2765 2.07055
      vertex 1.49972e-14 67.5415 2.22299
      vertex 1.50112e-14 67.6045 2.07055
    endloop
  endfacet
  facet normal -0.0876789 -0.920581 -0.380584
    outer loop
      vertex 1.49972e-14 67.5415 2.22299
      vertex 13.9435 66.2765 2.07055
      vertex 13.779 65.4945 4
    endloop
  endfacet
  facet normal -0.0753954 -0.791628 -0.606333
    outer loop
      vertex 13.5173 64.2503 5.65685
      vertex 1.45523e-14 65.5377 5.65685
      vertex 1.48117e-14 66.7058 4.13178
    endloop
  endfacet
  facet normal -0.0753333 -0.791442 -0.606584
    outer loop
      vertex 1.48341e-14 66.8068 4
      vertex 13.5173 64.2503 5.65685
      vertex 1.48117e-14 66.7058 4.13178
    endloop
  endfacet
  facet normal -0.075392 -0.791608 -0.606361
    outer loop
      vertex 13.5173 64.2503 5.65685
      vertex 1.48341e-14 66.8068 4
      vertex 13.779 65.4945 4
    endloop
  endfacet
  facet normal -0.0579477 -0.60844 -0.791482
    outer loop
      vertex 13.1762 62.629 6.9282
      vertex 1.41851e-14 63.8839 6.9282
      vertex 1.45229e-14 65.4054 5.75857
    endloop
  endfacet
  facet normal -0.0579499 -0.608447 -0.791476
    outer loop
      vertex 1.45229e-14 65.4054 5.75857
      vertex 13.5173 64.2503 5.65685
      vertex 13.1762 62.629 6.9282
    endloop
  endfacet
  facet normal -0.0579542 -0.608501 -0.791434
    outer loop
      vertex 13.5173 64.2503 5.65685
      vertex 1.45229e-14 65.4054 5.75857
      vertex 1.45523e-14 65.5377 5.65685
    endloop
  endfacet
  facet normal -0.0364763 -0.383014 -0.923022
    outer loop
      vertex 12.7789 60.7409 7.72741
      vertex 1.37574e-14 61.9579 7.72741
      vertex 1.41507e-14 63.7291 6.99244
    endloop
  endfacet
  facet normal -0.0364795 -0.383026 -0.923017
    outer loop
      vertex 1.41507e-14 63.7291 6.99244
      vertex 13.1762 62.629 6.9282
      vertex 12.7789 60.7409 7.72741
    endloop
  endfacet
  facet normal -0.0364805 -0.383038 -0.923012
    outer loop
      vertex 13.1762 62.629 6.9282
      vertex 1.41507e-14 63.7291 6.99244
      vertex 1.41851e-14 63.8839 6.9282
    endloop
  endfacet
  facet normal -0.0124519 -0.130749 -0.991337
    outer loop
      vertex 12.3526 58.7147 8
      vertex 1.32985e-14 59.8911 8
      vertex 1.37204e-14 61.7913 7.74938
    endloop
  endfacet
  facet normal -0.0124515 -0.130748 -0.991338
    outer loop
      vertex 1.37204e-14 61.7913 7.74938
      vertex 12.7789 60.7409 7.72741
      vertex 12.3526 58.7147 8
    endloop
  endfacet
  facet normal -0.0124502 -0.130731 -0.99134
    outer loop
      vertex 12.7789 60.7409 7.72741
      vertex 1.37204e-14 61.7913 7.74938
      vertex 1.37574e-14 61.9579 7.72741
    endloop
  endfacet
  facet normal 0.0124516 0.130747 -0.991338
    outer loop
      vertex 11.9264 56.6885 7.72741
      vertex 1.28396e-14 57.8243 7.72741
      vertex 1.32615e-14 59.7243 7.978
    endloop
  endfacet
  facet normal 0.0124518 0.130748 -0.991337
    outer loop
      vertex 1.32615e-14 59.7243 7.978
      vertex 12.3526 58.7147 8
      vertex 11.9264 56.6885 7.72741
    endloop
  endfacet
  facet normal 0.0124522 0.130752 -0.991337
    outer loop
      vertex 12.3526 58.7147 8
      vertex 1.32615e-14 59.7243 7.978
      vertex 1.32985e-14 59.8911 8
    endloop
  endfacet
  facet normal 0.0364775 0.383017 -0.923021
    outer loop
      vertex 11.5291 54.8004 6.9282
      vertex 1.24119e-14 55.8984 6.9282
      vertex 1.28051e-14 57.6691 7.66297
    endloop
  endfacet
  facet normal 0.0364799 0.383026 -0.923017
    outer loop
      vertex 1.28051e-14 57.6691 7.66297
      vertex 11.9264 56.6885 7.72741
      vertex 11.5291 54.8004 6.9282
    endloop
  endfacet
  facet normal 0.0364947 0.38321 -0.92294
    outer loop
      vertex 11.9264 56.6885 7.72741
      vertex 1.28051e-14 57.6691 7.66297
      vertex 1.28396e-14 57.8243 7.72741
    endloop
  endfacet
  facet normal 0.0579445 0.608431 -0.791488
    outer loop
      vertex 11.188 53.179 5.65685
      vertex 1.20447e-14 54.2445 5.65685
      vertex 1.23824e-14 55.7655 6.82607
    endloop
  endfacet
  facet normal 0.0579426 0.608425 -0.791493
    outer loop
      vertex 1.23824e-14 55.7655 6.82607
      vertex 11.5291 54.8004 6.9282
      vertex 11.188 53.179 5.65685
    endloop
  endfacet
  facet normal 0.0579337 0.60831 -0.791583
    outer loop
      vertex 11.5291 54.8004 6.9282
      vertex 1.23824e-14 55.7655 6.82607
      vertex 1.24119e-14 55.8984 6.9282
    endloop
  endfacet
  facet normal 0.0753927 0.791623 -0.606341
    outer loop
      vertex 10.9263 51.9349 4
      vertex 1.17629e-14 52.9755 4
      vertex 1.20222e-14 54.1432 5.52452
    endloop
  endfacet
  facet normal 0.0753918 0.791631 -0.60633
    outer loop
      vertex 10.9263 51.9349 4
      vertex 1.20447e-14 54.2445 5.65685
      vertex 11.188 53.179 5.65685
    endloop
  endfacet
  facet normal 0.0754563 0.791786 -0.60612
    outer loop
      vertex 1.20447e-14 54.2445 5.65685
      vertex 10.9263 51.9349 4
      vertex 1.20222e-14 54.1432 5.52452
    endloop
  endfacet
  facet normal 0.0876699 0.920555 -0.380648
    outer loop
      vertex 10.7617 51.1528 2.07055
      vertex 1.15858e-14 52.1777 2.07055
      vertex 1.17489e-14 52.9123 3.8471
    endloop
  endfacet
  facet normal 0.0876767 0.920605 -0.380525
    outer loop
      vertex 10.9263 51.9349 4
      vertex 1.17489e-14 52.9123 3.8471
      vertex 1.17629e-14 52.9755 4
    endloop
  endfacet
  facet normal 0.0876743 0.920563 -0.380628
    outer loop
      vertex 1.17489e-14 52.9123 3.8471
      vertex 10.9263 51.9349 4
      vertex 10.7617 51.1528 2.07055
    endloop
  endfacet
  facet normal 0.0940094 0.98708 -0.129751
    outer loop
      vertex 10.7056 50.886 0
      vertex 1.15254e-14 51.9056 0
      vertex 1.1581e-14 52.1564 1.90796
    endloop
  endfacet
  facet normal 0.0940108 0.987137 -0.129319
    outer loop
      vertex 10.7617 51.1528 2.07055
      vertex 1.1581e-14 52.1564 1.90796
      vertex 1.15858e-14 52.1777 2.07055
    endloop
  endfacet
  facet normal 0.094012 0.987082 -0.129737
    outer loop
      vertex 1.1581e-14 52.1564 1.90796
      vertex 10.7617 51.1528 2.07055
      vertex 10.7056 50.886 0
    endloop
  endfacet
  facet normal -0.311684 -0.941285 -0.129749
    outer loop
      vertex 28.3673 61.5004 2.07055
      vertex 13.9435 66.2765 2.07055
      vertex 13.9997 66.5433 0
    endloop
  endfacet
  facet normal -0.311692 -0.941289 -0.129707
    outer loop
      vertex 28.3673 61.5004 2.07055
      vertex 13.9997 66.5433 0
      vertex 28.4815 61.7479 0
    endloop
  endfacet
  facet normal -0.29069 -0.877871 -0.380582
    outer loop
      vertex 28.0326 60.7747 4
      vertex 13.779 65.4945 4
      vertex 13.9435 66.2765 2.07055
    endloop
  endfacet
  facet normal -0.290684 -0.877863 -0.380604
    outer loop
      vertex 28.0326 60.7747 4
      vertex 13.9435 66.2765 2.07055
      vertex 28.3673 61.5004 2.07055
    endloop
  endfacet
  facet normal -0.249963 -0.754884 -0.606357
    outer loop
      vertex 27.5001 59.6202 5.65685
      vertex 13.5173 64.2503 5.65685
      vertex 13.779 65.4945 4
    endloop
  endfacet
  facet normal -0.249967 -0.75489 -0.606348
    outer loop
      vertex 27.5001 59.6202 5.65685
      vertex 13.779 65.4945 4
      vertex 28.0326 60.7747 4
    endloop
  endfacet
  facet normal -0.192129 -0.580218 -0.791476
    outer loop
      vertex 26.8061 58.1157 6.9282
      vertex 13.1762 62.629 6.9282
      vertex 13.5173 64.2503 5.65685
    endloop
  endfacet
  facet normal -0.192123 -0.580207 -0.791485
    outer loop
      vertex 26.8061 58.1157 6.9282
      vertex 13.5173 64.2503 5.65685
      vertex 27.5001 59.6202 5.65685
    endloop
  endfacet
  facet normal -0.120948 -0.365252 -0.923018
    outer loop
      vertex 25.998 56.3636 7.72741
      vertex 12.7789 60.7409 7.72741
      vertex 13.1762 62.629 6.9282
    endloop
  endfacet
  facet normal -0.120945 -0.365248 -0.92302
    outer loop
      vertex 25.998 56.3636 7.72741
      vertex 13.1762 62.629 6.9282
      vertex 26.8061 58.1157 6.9282
    endloop
  endfacet
  facet normal -0.0412864 -0.124681 -0.991338
    outer loop
      vertex 25.1307 54.4834 8
      vertex 12.3526 58.7147 8
      vertex 12.7789 60.7409 7.72741
    endloop
  endfacet
  facet normal -0.0412856 -0.124679 -0.991338
    outer loop
      vertex 25.1307 54.4834 8
      vertex 12.7789 60.7409 7.72741
      vertex 25.998 56.3636 7.72741
    endloop
  endfacet
  facet normal 0.0412864 0.124683 -0.991337
    outer loop
      vertex 24.2635 52.6033 7.72741
      vertex 11.9264 56.6885 7.72741
      vertex 12.3526 58.7147 8
    endloop
  endfacet
  facet normal 0.0412883 0.124687 -0.991337
    outer loop
      vertex 24.2635 52.6033 7.72741
      vertex 12.3526 58.7147 8
      vertex 25.1307 54.4834 8
    endloop
  endfacet
  facet normal 0.120947 0.365252 -0.923018
    outer loop
      vertex 23.4554 50.8512 6.9282
      vertex 11.5291 54.8004 6.9282
      vertex 11.9264 56.6885 7.72741
    endloop
  endfacet
  facet normal 0.120945 0.365248 -0.92302
    outer loop
      vertex 23.4554 50.8512 6.9282
      vertex 11.9264 56.6885 7.72741
      vertex 24.2635 52.6033 7.72741
    endloop
  endfacet
  facet normal 0.192121 0.580197 -0.791493
    outer loop
      vertex 22.7614 49.3467 5.65685
      vertex 11.188 53.179 5.65685
      vertex 11.5291 54.8004 6.9282
    endloop
  endfacet
  facet normal 0.192126 0.580206 -0.791485
    outer loop
      vertex 22.7614 49.3467 5.65685
      vertex 11.5291 54.8004 6.9282
      vertex 23.4554 50.8512 6.9282
    endloop
  endfacet
  facet normal 0.249976 0.754903 -0.606328
    outer loop
      vertex 22.2289 48.1922 4
      vertex 10.9263 51.9349 4
      vertex 11.188 53.179 5.65685
    endloop
  endfacet
  facet normal 0.249967 0.75489 -0.606348
    outer loop
      vertex 22.2289 48.1922 4
      vertex 11.188 53.179 5.65685
      vertex 22.7614 49.3467 5.65685
    endloop
  endfacet
  facet normal 0.290685 0.87785 -0.380633
    outer loop
      vertex 21.8941 47.4665 2.07055
      vertex 10.7617 51.1528 2.07055
      vertex 10.9263 51.9349 4
    endloop
  endfacet
  facet normal 0.29069 0.877855 -0.380618
    outer loop
      vertex 21.8941 47.4665 2.07055
      vertex 10.9263 51.9349 4
      vertex 22.2289 48.1922 4
    endloop
  endfacet
  facet normal 0.311683 0.941288 -0.129734
    outer loop
      vertex 21.78 47.219 0
      vertex 10.7056 50.886 0
      vertex 10.7617 51.1528 2.07055
    endloop
  endfacet
  facet normal 0.311692 0.941291 -0.129692
    outer loop
      vertex 21.78 47.219 0
      vertex 10.7617 51.1528 2.07055
      vertex 21.8941 47.4665 2.07055
    endloop
  endfacet
  facet normal -0.513683 -0.848118 -0.12971
    outer loop
      vertex 41.3634 53.629 2.07055
      vertex 28.3673 61.5004 2.07055
      vertex 28.4815 61.7479 0
    endloop
  endfacet
  facet normal -0.513685 -0.848119 -0.129701
    outer loop
      vertex 41.3634 53.629 2.07055
      vertex 28.4815 61.7479 0
      vertex 41.5299 53.8448 0
    endloop
  endfacet
  facet normal -0.479075 -0.790967 -0.380601
    outer loop
      vertex 40.8753 52.9961 4
      vertex 28.0326 60.7747 4
      vertex 28.3673 61.5004 2.07055
    endloop
  endfacet
  facet normal -0.479062 -0.790957 -0.38064
    outer loop
      vertex 40.8753 52.9961 4
      vertex 28.3673 61.5004 2.07055
      vertex 41.3634 53.629 2.07055
    endloop
  endfacet
  facet normal -0.411963 -0.680169 -0.606347
    outer loop
      vertex 40.0989 51.9894 5.65685
      vertex 27.5001 59.6202 5.65685
      vertex 28.0326 60.7747 4
    endloop
  endfacet
  facet normal -0.411973 -0.68018 -0.606327
    outer loop
      vertex 40.0989 51.9894 5.65685
      vertex 28.0326 60.7747 4
      vertex 40.8753 52.9961 4
    endloop
  endfacet
  facet normal -0.31663 -0.522775 -0.791487
    outer loop
      vertex 39.087 50.6775 6.9282
      vertex 26.8061 58.1157 6.9282
      vertex 27.5001 59.6202 5.65685
    endloop
  endfacet
  facet normal -0.316638 -0.522784 -0.791478
    outer loop
      vertex 39.087 50.6775 6.9282
      vertex 27.5001 59.6202 5.65685
      vertex 40.0989 51.9894 5.65685
    endloop
  endfacet
  facet normal -0.199325 -0.329098 -0.923019
    outer loop
      vertex 37.9086 49.1497 7.72741
      vertex 25.998 56.3636 7.72741
      vertex 26.8061 58.1157 6.9282
    endloop
  endfacet
  facet normal -0.199327 -0.3291 -0.923018
    outer loop
      vertex 37.9086 49.1497 7.72741
      vertex 26.8061 58.1157 6.9282
      vertex 39.087 50.6775 6.9282
    endloop
  endfacet
  facet normal -0.0680401 -0.112338 -0.991338
    outer loop
      vertex 36.644 47.5101 8
      vertex 25.1307 54.4834 8
      vertex 25.998 56.3636 7.72741
    endloop
  endfacet
  facet normal -0.0680389 -0.112336 -0.991338
    outer loop
      vertex 36.644 47.5101 8
      vertex 25.998 56.3636 7.72741
      vertex 37.9086 49.1497 7.72741
    endloop
  endfacet
  facet normal 0.0680448 0.112345 -0.991337
    outer loop
      vertex 35.3795 45.8706 7.72741
      vertex 24.2635 52.6033 7.72741
      vertex 25.1307 54.4834 8
    endloop
  endfacet
  facet normal 0.0680436 0.112344 -0.991337
    outer loop
      vertex 35.3795 45.8706 7.72741
      vertex 25.1307 54.4834 8
      vertex 36.644 47.5101 8
    endloop
  endfacet
  facet normal 0.199326 0.329097 -0.923019
    outer loop
      vertex 34.2011 44.3428 6.9282
      vertex 23.4554 50.8512 6.9282
      vertex 24.2635 52.6033 7.72741
    endloop
  endfacet
  facet normal 0.199328 0.329099 -0.923018
    outer loop
      vertex 34.2011 44.3428 6.9282
      vertex 24.2635 52.6033 7.72741
      vertex 35.3795 45.8706 7.72741
    endloop
  endfacet
  facet normal 0.316633 0.522774 -0.791487
    outer loop
      vertex 33.1892 43.0308 5.65685
      vertex 22.7614 49.3467 5.65685
      vertex 23.4554 50.8512 6.9282
    endloop
  endfacet
  facet normal 0.316627 0.522767 -0.791493
    outer loop
      vertex 33.1892 43.0308 5.65685
      vertex 23.4554 50.8512 6.9282
      vertex 34.2011 44.3428 6.9282
    endloop
  endfacet
  facet normal 0.41196 0.680171 -0.606347
    outer loop
      vertex 32.4128 42.0241 4
      vertex 22.2289 48.1922 4
      vertex 22.7614 49.3467 5.65685
    endloop
  endfacet
  facet normal 0.411972 0.680181 -0.606327
    outer loop
      vertex 32.4128 42.0241 4
      vertex 22.7614 49.3467 5.65685
      vertex 33.1892 43.0308 5.65685
    endloop
  endfacet
  facet normal 0.479061 0.790965 -0.380623
    outer loop
      vertex 31.9247 41.3913 2.07055
      vertex 21.8941 47.4665 2.07055
      vertex 22.2289 48.1922 4
    endloop
  endfacet
  facet normal 0.479068 0.79097 -0.380605
    outer loop
      vertex 31.9247 41.3913 2.07055
      vertex 22.2289 48.1922 4
      vertex 32.4128 42.0241 4
    endloop
  endfacet
  facet normal 0.513683 0.848122 -0.129686
    outer loop
      vertex 31.7582 41.1755 0
      vertex 21.78 47.219 0
      vertex 21.8941 47.4665 2.07055
    endloop
  endfacet
  facet normal 0.513679 0.848122 -0.129701
    outer loop
      vertex 31.7582 41.1755 0
      vertex 21.8941 47.4665 2.07055
      vertex 31.9247 41.3913 2.07055
    endloop
  endfacet
  facet normal -0.689822 -0.712265 -0.129706
    outer loop
      vertex 52.2778 43.0585 2.07055
      vertex 41.3634 53.629 2.07055
      vertex 41.5299 53.8448 0
    endloop
  endfacet
  facet normal -0.689821 -0.712265 -0.129711
    outer loop
      vertex 52.2778 43.0585 2.07055
      vertex 41.5299 53.8448 0
      vertex 52.4882 43.2318 0
    endloop
  endfacet
  facet normal -0.643328 -0.664262 -0.380637
    outer loop
      vertex 51.6609 42.5504 4
      vertex 40.8753 52.9961 4
      vertex 41.3634 53.629 2.07055
    endloop
  endfacet
  facet normal -0.643335 -0.664265 -0.38062
    outer loop
      vertex 51.6609 42.5504 4
      vertex 41.3634 53.629 2.07055
      vertex 52.2778 43.0585 2.07055
    endloop
  endfacet
  facet normal -0.553235 -0.571229 -0.606324
    outer loop
      vertex 50.6795 41.7421 5.65685
      vertex 40.0989 51.9894 5.65685
      vertex 40.8753 52.9961 4
    endloop
  endfacet
  facet normal -0.553215 -0.571216 -0.606355
    outer loop
      vertex 50.6795 41.7421 5.65685
      vertex 40.8753 52.9961 4
      vertex 51.6609 42.5504 4
    endloop
  endfacet
  facet normal -0.42521 -0.439041 -0.791479
    outer loop
      vertex 49.4006 40.6888 6.9282
      vertex 39.087 50.6775 6.9282
      vertex 40.0989 51.9894 5.65685
    endloop
  endfacet
  facet normal -0.425211 -0.439042 -0.791478
    outer loop
      vertex 49.4006 40.6888 6.9282
      vertex 40.0989 51.9894 5.65685
      vertex 50.6795 41.7421 5.65685
    endloop
  endfacet
  facet normal -0.267676 -0.276382 -0.923018
    outer loop
      vertex 47.9113 39.4621 7.72741
      vertex 37.9086 49.1497 7.72741
      vertex 39.087 50.6775 6.9282
    endloop
  endfacet
  facet normal -0.267675 -0.276382 -0.923019
    outer loop
      vertex 47.9113 39.4621 7.72741
      vertex 39.087 50.6775 6.9282
      vertex 49.4006 40.6888 6.9282
    endloop
  endfacet
  facet normal -0.0913692 -0.0943422 -0.991338
    outer loop
      vertex 46.3131 38.1457 8
      vertex 36.644 47.5101 8
      vertex 37.9086 49.1497 7.72741
    endloop
  endfacet
  facet normal -0.0913732 -0.0943452 -0.991337
    outer loop
      vertex 46.3131 38.1457 8
      vertex 37.9086 49.1497 7.72741
      vertex 47.9113 39.4621 7.72741
    endloop
  endfacet
  facet normal 0.0913758 0.0943482 -0.991337
    outer loop
      vertex 44.7149 36.8293 7.72741
      vertex 35.3795 45.8706 7.72741
      vertex 36.644 47.5101 8
    endloop
  endfacet
  facet normal 0.0913727 0.0943458 -0.991337
    outer loop
      vertex 44.7149 36.8293 7.72741
      vertex 36.644 47.5101 8
      vertex 46.3131 38.1457 8
    endloop
  endfacet
  facet normal 0.267674 0.276384 -0.923018
    outer loop
      vertex 43.2256 35.6027 6.9282
      vertex 34.2011 44.3428 6.9282
      vertex 35.3795 45.8706 7.72741
    endloop
  endfacet
  facet normal 0.267683 0.276391 -0.923013
    outer loop
      vertex 43.2256 35.6027 6.9282
      vertex 35.3795 45.8706 7.72741
      vertex 44.7149 36.8293 7.72741
    endloop
  endfacet
  facet normal 0.425195 0.439031 -0.791493
    outer loop
      vertex 41.9467 34.5493 5.65685
      vertex 33.1892 43.0308 5.65685
      vertex 34.2011 44.3428 6.9282
    endloop
  endfacet
  facet normal 0.425197 0.439033 -0.791491
    outer loop
      vertex 41.9467 34.5493 5.65685
      vertex 34.2011 44.3428 6.9282
      vertex 43.2256 35.6027 6.9282
    endloop
  endfacet
  facet normal 0.553235 0.571229 -0.606324
    outer loop
      vertex 40.9653 33.741 4
      vertex 32.4128 42.0241 4
      vertex 33.1892 43.0308 5.65685
    endloop
  endfacet
  facet normal 0.553214 0.571216 -0.606355
    outer loop
      vertex 40.9653 33.741 4
      vertex 33.1892 43.0308 5.65685
      vertex 41.9467 34.5493 5.65685
    endloop
  endfacet
  facet normal 0.643344 0.664264 -0.380607
    outer loop
      vertex 40.3484 33.2329 2.07055
      vertex 31.9247 41.3913 2.07055
      vertex 32.4128 42.0241 4
    endloop
  endfacet
  facet normal 0.643338 0.664262 -0.38062
    outer loop
      vertex 40.3484 33.2329 2.07055
      vertex 32.4128 42.0241 4
      vertex 40.9653 33.741 4
    endloop
  endfacet
  facet normal 0.689828 0.712259 -0.129706
    outer loop
      vertex 40.138 33.0596 0
      vertex 31.7582 41.1755 0
      vertex 31.9247 41.3913 2.07055
    endloop
  endfacet
  facet normal 0.689827 0.712259 -0.129712
    outer loop
      vertex 40.138 33.0596 0
      vertex 31.9247 41.3913 2.07055
      vertex 40.3484 33.2329 2.07055
    endloop
  endfacet
  facet normal -0.831246 -0.54056 -0.129711
    outer loop
      vertex 60.561 30.321 2.07055
      vertex 52.2778 43.0585 2.07055
      vertex 52.4882 43.2318 0
    endloop
  endfacet
  facet normal -0.831243 -0.54056 -0.129727
    outer loop
      vertex 60.561 30.321 2.07055
      vertex 52.4882 43.2318 0
      vertex 60.8048 30.443 0
    endloop
  endfacet
  facet normal -0.775228 -0.504133 -0.38062
    outer loop
      vertex 59.8464 29.9632 4
      vertex 51.6609 42.5504 4
      vertex 52.2778 43.0585 2.07055
    endloop
  endfacet
  facet normal -0.775234 -0.504135 -0.380607
    outer loop
      vertex 59.8464 29.9632 4
      vertex 52.2778 43.0585 2.07055
      vertex 60.561 30.321 2.07055
    endloop
  endfacet
  facet normal -0.66663 -0.433516 -0.606357
    outer loop
      vertex 58.7096 29.394 5.65685
      vertex 50.6795 41.7421 5.65685
      vertex 51.6609 42.5504 4
    endloop
  endfacet
  facet normal -0.666646 -0.433522 -0.606334
    outer loop
      vertex 58.7096 29.394 5.65685
      vertex 51.6609 42.5504 4
      vertex 59.8464 29.9632 4
    endloop
  endfacet
  facet normal -0.512381 -0.333204 -0.79148
    outer loop
      vertex 57.228 28.6523 6.9282
      vertex 49.4006 40.6888 6.9282
      vertex 50.6795 41.7421 5.65685
    endloop
  endfacet
  facet normal -0.512369 -0.333199 -0.79149
    outer loop
      vertex 57.228 28.6523 6.9282
      vertex 50.6795 41.7421 5.65685
      vertex 58.7096 29.394 5.65685
    endloop
  endfacet
  facet normal -0.322552 -0.209757 -0.923018
    outer loop
      vertex 55.5027 27.7885 7.72741
      vertex 47.9113 39.4621 7.72741
      vertex 49.4006 40.6888 6.9282
    endloop
  endfacet
  facet normal -0.322551 -0.209757 -0.923018
    outer loop
      vertex 55.5027 27.7885 7.72741
      vertex 49.4006 40.6888 6.9282
      vertex 57.228 28.6523 6.9282
    endloop
  endfacet
  facet normal -0.110106 -0.0716026 -0.991337
    outer loop
      vertex 53.6513 26.8615 8
      vertex 46.3131 38.1457 8
      vertex 47.9113 39.4621 7.72741
    endloop
  endfacet
  facet normal -0.110107 -0.0716032 -0.991337
    outer loop
      vertex 53.6513 26.8615 8
      vertex 47.9113 39.4621 7.72741
      vertex 55.5027 27.7885 7.72741
    endloop
  endfacet
  facet normal 0.110106 0.0716021 -0.991337
    outer loop
      vertex 51.7998 25.9345 7.72741
      vertex 44.7149 36.8293 7.72741
      vertex 46.3131 38.1457 8
    endloop
  endfacet
  facet normal 0.110103 0.0716006 -0.991338
    outer loop
      vertex 51.7998 25.9345 7.72741
      vertex 46.3131 38.1457 8
      vertex 53.6513 26.8615 8
    endloop
  endfacet
  facet normal 0.322561 0.20976 -0.923014
    outer loop
      vertex 50.0745 25.0707 6.9282
      vertex 43.2256 35.6027 6.9282
      vertex 44.7149 36.8293 7.72741
    endloop
  endfacet
  facet normal 0.322552 0.209756 -0.923018
    outer loop
      vertex 50.0745 25.0707 6.9282
      vertex 44.7149 36.8293 7.72741
      vertex 51.7998 25.9345 7.72741
    endloop
  endfacet
  facet normal 0.512371 0.333197 -0.79149
    outer loop
      vertex 48.593 24.329 5.65685
      vertex 41.9467 34.5493 5.65685
      vertex 43.2256 35.6027 6.9282
    endloop
  endfacet
  facet normal 0.512389 0.333204 -0.791475
    outer loop
      vertex 48.593 24.329 5.65685
      vertex 43.2256 35.6027 6.9282
      vertex 50.0745 25.0707 6.9282
    endloop
  endfacet
  facet normal 0.666629 0.433517 -0.606357
    outer loop
      vertex 47.4562 23.7598 4
      vertex 40.9653 33.741 4
      vertex 41.9467 34.5493 5.65685
    endloop
  endfacet
  facet normal 0.666646 0.433523 -0.606334
    outer loop
      vertex 47.4562 23.7598 4
      vertex 41.9467 34.5493 5.65685
      vertex 48.593 24.329 5.65685
    endloop
  endfacet
  facet normal 0.775226 0.504135 -0.38062
    outer loop
      vertex 46.7415 23.402 2.07055
      vertex 40.3484 33.2329 2.07055
      vertex 40.9653 33.741 4
    endloop
  endfacet
  facet normal 0.775217 0.504134 -0.380641
    outer loop
      vertex 46.7415 23.402 2.07055
      vertex 40.9653 33.741 4
      vertex 47.4562 23.7598 4
    endloop
  endfacet
  facet normal 0.831241 0.540567 -0.129711
    outer loop
      vertex 46.4978 23.28 0
      vertex 40.138 33.0596 0
      vertex 40.3484 33.2329 2.07055
    endloop
  endfacet
  facet normal 0.831246 0.540565 -0.129687
    outer loop
      vertex 46.4978 23.28 0
      vertex 40.3484 33.2329 2.07055
      vertex 46.7415 23.402 2.07055
    endloop
  endfacet
  facet normal -0.930829 -0.341654 -0.129733
    outer loop
      vertex 65.4077 17.1775 1.90934
      vertex 60.561 30.321 2.07055
      vertex 60.8048 30.443 0
    endloop
  endfacet
  facet normal -0.930819 -0.34165 -0.12981
    outer loop
      vertex 60.561 30.321 2.07055
      vertex 65.4077 17.1775 1.90934
      vertex 65.3872 17.1721 2.07055
    endloop
  endfacet
  facet normal -0.930831 -0.341653 -0.129718
    outer loop
      vertex 65.4077 17.1775 1.90934
      vertex 60.8048 30.443 0
      vertex 65.6504 17.2412 0
    endloop
  endfacet
  facet normal -0.868109 -0.318633 -0.380605
    outer loop
      vertex 64.6753 16.9851 3.85086
      vertex 59.8464 29.9632 4
      vertex 60.561 30.321 2.07055
    endloop
  endfacet
  facet normal -0.868146 -0.318648 -0.380509
    outer loop
      vertex 64.6383 16.9754 3.9434
      vertex 59.8464 29.9632 4
      vertex 64.6753 16.9851 3.85086
    endloop
  endfacet
  facet normal -0.867669 -0.318466 -0.381747
    outer loop
      vertex 59.8464 29.9632 4
      vertex 64.6383 16.9754 3.9434
      vertex 64.6156 16.9694 4
    endloop
  endfacet
  facet normal -0.86811 -0.318633 -0.380603
    outer loop
      vertex 64.6753 16.9851 3.85086
      vertex 60.561 30.321 2.07055
      vertex 65.3872 17.1721 2.07055
    endloop
  endfacet
  facet normal -0.746515 -0.274003 -0.606332
    outer loop
      vertex 63.4825 16.6718 5.52965
      vertex 58.7096 29.394 5.65685
      vertex 59.8464 29.9632 4
    endloop
  endfacet
  facet normal -0.746378 -0.273949 -0.606525
    outer loop
      vertex 58.7096 29.394 5.65685
      vertex 63.4825 16.6718 5.52965
      vertex 63.3882 16.6471 5.65685
    endloop
  endfacet
  facet normal -0.746538 -0.274007 -0.606302
    outer loop
      vertex 64.2452 16.8722 4.5
      vertex 59.8464 29.9632 4
      vertex 64.6156 16.9694 4
    endloop
  endfacet
  facet normal -0.746569 -0.274016 -0.606259
    outer loop
      vertex 63.903 16.7823 4.96203
      vertex 59.8464 29.9632 4
      vertex 64.2452 16.8722 4.5
    endloop
  endfacet
  facet normal -0.746459 -0.273992 -0.606405
    outer loop
      vertex 63.6293 16.7104 5.33143
      vertex 59.8464 29.9632 4
      vertex 63.903 16.7823 4.96203
    endloop
  endfacet
  facet normal -0.746569 -0.274009 -0.606261
    outer loop
      vertex 59.8464 29.9632 4
      vertex 63.6293 16.7104 5.33143
      vertex 63.4825 16.6718 5.52965
    endloop
  endfacet
  facet normal -0.573674 -0.210562 -0.791556
    outer loop
      vertex 57.228 28.6523 6.9282
      vertex 61.9107 16.2591 6.83117
      vertex 61.7886 16.227 6.9282
    endloop
  endfacet
  facet normal -0.573751 -0.210592 -0.791493
    outer loop
      vertex 61.9107 16.2591 6.83117
      vertex 57.228 28.6523 6.9282
      vertex 58.7096 29.394 5.65685
    endloop
  endfacet
  facet normal -0.573757 -0.210591 -0.791489
    outer loop
      vertex 62.6506 16.4534 6.24308
      vertex 58.7096 29.394 5.65685
      vertex 63.3882 16.6471 5.65685
    endloop
  endfacet
  facet normal -0.573778 -0.210596 -0.791472
    outer loop
      vertex 58.7096 29.394 5.65685
      vertex 62.6506 16.4534 6.24308
      vertex 61.9107 16.2591 6.83117
    endloop
  endfacet
  facet normal -0.361023 -0.13251 -0.923094
    outer loop
      vertex 55.5027 27.7885 7.72741
      vertex 60.0674 15.775 7.66669
      vertex 59.9258 15.7378 7.72741
    endloop
  endfacet
  facet normal -0.361193 -0.132575 -0.923018
    outer loop
      vertex 60.0674 15.775 7.66669
      vertex 55.5027 27.7885 7.72741
      vertex 57.228 28.6523 6.9282
    endloop
  endfacet
  facet normal -0.361228 -0.132582 -0.923004
    outer loop
      vertex 57.228 28.6523 6.9282
      vertex 60.7727 15.9602 7.36406
      vertex 60.0674 15.775 7.66669
    endloop
  endfacet
  facet normal -0.361194 -0.132573 -0.923019
    outer loop
      vertex 60.7727 15.9602 7.36406
      vertex 57.228 28.6523 6.9282
      vertex 61.7886 16.227 6.9282
    endloop
  endfacet
  facet normal -0.123314 -0.0452607 -0.991335
    outer loop
      vertex 53.6513 26.8615 8
      vertex 58.0782 15.2526 7.97935
      vertex 57.9268 15.2128 8
    endloop
  endfacet
  facet normal -0.1233 -0.0452553 -0.991337
    outer loop
      vertex 58.0782 15.2526 7.97935
      vertex 53.6513 26.8615 8
      vertex 55.5027 27.7885 7.72741
    endloop
  endfacet
  facet normal -0.123295 -0.0452544 -0.991338
    outer loop
      vertex 58.0782 15.2526 7.97935
      vertex 55.5027 27.7885 7.72741
      vertex 59.9258 15.7378 7.72741
    endloop
  endfacet
  facet normal 0.123237 0.0452331 -0.991346
    outer loop
      vertex 51.7998 25.9345 7.72741
      vertex 56.0791 14.7275 7.74803
      vertex 55.9278 14.6878 7.72741
    endloop
  endfacet
  facet normal 0.123293 0.0452546 -0.991338
    outer loop
      vertex 56.0791 14.7275 7.74803
      vertex 51.7998 25.9345 7.72741
      vertex 53.6513 26.8615 8
    endloop
  endfacet
  facet normal 0.123317 0.0452618 -0.991335
    outer loop
      vertex 57.5258 15.1075 7.94531
      vertex 53.6513 26.8615 8
      vertex 57.9268 15.2128 8
    endloop
  endfacet
  facet normal 0.123297 0.0452553 -0.991337
    outer loop
      vertex 53.6513 26.8615 8
      vertex 57.5258 15.1075 7.94531
      vertex 56.0791 14.7275 7.74803
    endloop
  endfacet
  facet normal 0.361125 0.132547 -0.923049
    outer loop
      vertex 50.0745 25.0707 6.9282
      vertex 54.2061 14.2357 6.98873
      vertex 54.065 14.1986 6.9282
    endloop
  endfacet
  facet normal 0.361194 0.132574 -0.923018
    outer loop
      vertex 54.2061 14.2357 6.98873
      vertex 50.0745 25.0707 6.9282
      vertex 51.7998 25.9345 7.72741
    endloop
  endfacet
  facet normal 0.361206 0.132577 -0.923013
    outer loop
      vertex 55.1404 14.481 7.38957
      vertex 51.7998 25.9345 7.72741
      vertex 55.9278 14.6878 7.72741
    endloop
  endfacet
  facet normal 0.361193 0.132574 -0.923019
    outer loop
      vertex 51.7998 25.9345 7.72741
      vertex 55.1404 14.481 7.38957
      vertex 54.2061 14.2357 6.98873
    endloop
  endfacet
  facet normal 0.573672 0.210557 -0.791559
    outer loop
      vertex 48.593 24.329 5.65685
      vertex 52.587 13.8105 5.75349
      vertex 52.4654 13.7785 5.65685
    endloop
  endfacet
  facet normal 0.573772 0.210596 -0.791476
    outer loop
      vertex 52.587 13.8105 5.75349
      vertex 48.593 24.329 5.65685
      vertex 50.0745 25.0707 6.9282
    endloop
  endfacet
  facet normal 0.573767 0.210596 -0.79148
    outer loop
      vertex 52.587 13.8105 5.75349
      vertex 50.0745 25.0707 6.9282
      vertex 54.065 14.1986 6.9282
    endloop
  endfacet
  facet normal 0.746515 0.274001 -0.606332
    outer loop
      vertex 51.3319 13.4808 4.12668
      vertex 47.4562 23.7598 4
      vertex 48.593 24.329 5.65685
    endloop
  endfacet
  facet normal 0.746416 0.273962 -0.606472
    outer loop
      vertex 47.4562 23.7598 4
      vertex 51.3319 13.4808 4.12668
      vertex 51.238 13.4562 4
    endloop
  endfacet
  facet normal 0.746525 0.274001 -0.60632
    outer loop
      vertex 51.6084 13.5535 4.5
      vertex 48.593 24.329 5.65685
      vertex 52.4654 13.7785 5.65685
    endloop
  endfacet
  facet normal 0.746548 0.274004 -0.606291
    outer loop
      vertex 48.593 24.329 5.65685
      vertex 51.6084 13.5535 4.5
      vertex 51.3319 13.4808 4.12668
    endloop
  endfacet
  facet normal 0.868093 0.31863 -0.380643
    outer loop
      vertex 50.5259 13.2692 2.21924
      vertex 46.7415 23.402 2.07055
      vertex 47.4562 23.7598 4
    endloop
  endfacet
  facet normal 0.867945 0.318569 -0.381032
    outer loop
      vertex 50.4935 13.2607 2.13833
      vertex 46.7415 23.402 2.07055
      vertex 50.5259 13.2692 2.21924
    endloop
  endfacet
  facet normal 0.868154 0.31865 -0.380487
    outer loop
      vertex 46.7415 23.402 2.07055
      vertex 50.4935 13.2607 2.13833
      vertex 50.4664 13.2536 2.07055
    endloop
  endfacet
  facet normal 0.868111 0.318629 -0.380604
    outer loop
      vertex 50.5259 13.2692 2.21924
      vertex 47.4562 23.7598 4
      vertex 51.238 13.4562 4
    endloop
  endfacet
  facet normal 0.930836 0.34165 -0.129688
    outer loop
      vertex 50.2237 13.1898 0.161028
      vertex 46.4978 23.28 0
      vertex 46.7415 23.402 2.07055
    endloop
  endfacet
  facet normal 0.930872 0.341668 -0.129386
    outer loop
      vertex 46.4978 23.28 0
      vertex 50.2237 13.1898 0.161028
      vertex 50.2033 13.1844 0
    endloop
  endfacet
  facet normal 0.93083 0.341655 -0.129724
    outer loop
      vertex 50.2237 13.1898 0.161028
      vertex 46.7415 23.402 2.07055
      vertex 50.4664 13.2536 2.07055
    endloop
  endfacet
  facet normal 0 0 -1
    outer loop
      vertex 60.8048 30.443 0
      vertex 66.7369 17.5265 0
      vertex 65.6504 17.2412 0
    endloop
  endfacet
  facet normal 0 0 -1
    outer loop
      vertex 66.7369 17.5265 0
      vertex 60.8048 30.443 0
      vertex 61.3354 31.6065 0
    endloop
  endfacet
  facet normal 0 0 -1
    outer loop
      vertex 52.4882 43.2318 0
      vertex 61.3354 31.6065 0
      vertex 60.8048 30.443 0
    endloop
  endfacet
  facet normal 0 0 -1
    outer loop
      vertex 61.3354 31.6065 0
      vertex 52.4882 43.2318 0
      vertex 53.004 44.1767 0
    endloop
  endfacet
  facet normal 0 0 -1
    outer loop
      vertex 41.5299 53.8448 0
      vertex 53.004 44.1767 0
      vertex 52.4882 43.2318 0
    endloop
  endfacet
  facet normal 0 0 -1
    outer loop
      vertex 53.004 44.1767 0
      vertex 41.5299 53.8448 0
      vertex 42.1407 54.6367 0
    endloop
  endfacet
  facet normal 0 0 -1
    outer loop
      vertex 41.5299 53.8448 0
      vertex 29.2644 62.4868 0
      vertex 42.1407 54.6367 0
    endloop
  endfacet
  facet normal 0 0 -1
    outer loop
      vertex 28.4815 61.7479 0
      vertex 29.2644 62.4868 0
      vertex 41.5299 53.8448 0
    endloop
  endfacet
  facet normal 0 0 -1
    outer loop
      vertex 28.4815 61.7479 0
      vertex 14.9902 67.352 0
      vertex 29.2644 62.4868 0
    endloop
  endfacet
  facet normal 0 0 -1
    outer loop
      vertex 13.9997 66.5433 0
      vertex 14.9902 67.352 0
      vertex 28.4815 61.7479 0
    endloop
  endfacet
  facet normal 0 0 -1
    outer loop
      vertex 13.9997 66.5433 0
      vertex 1.53211e-14 69 0
      vertex 14.9902 67.352 0
    endloop
  endfacet
  facet normal 0 -0 -1
    outer loop
      vertex 1.53211e-14 69 0
      vertex 13.9997 66.5433 0
      vertex 1.50716e-14 67.8766 0
    endloop
  endfacet
  facet normal 0 0 -1
    outer loop
      vertex 49.3273 12.9544 0
      vertex 46.4978 23.28 0
      vertex 50.2033 13.1844 0
    endloop
  endfacet
  facet normal 0 0 -1
    outer loop
      vertex 45.3348 23.3613 0
      vertex 46.4978 23.28 0
      vertex 49.3273 12.9544 0
    endloop
  endfacet
  facet normal 0 0 -1
    outer loop
      vertex 45.3348 23.3613 0
      vertex 40.138 33.0596 0
      vertex 46.4978 23.28 0
    endloop
  endfacet
  facet normal 0 0 -1
    outer loop
      vertex 39.1768 32.6523 0
      vertex 40.138 33.0596 0
      vertex 45.3348 23.3613 0
    endloop
  endfacet
  facet normal 0 0 -1
    outer loop
      vertex 39.1768 32.6523 0
      vertex 31.7582 41.1755 0
      vertex 40.138 33.0596 0
    endloop
  endfacet
  facet normal 0 0 -1
    outer loop
      vertex 31.1474 40.3836 0
      vertex 31.7582 41.1755 0
      vertex 39.1768 32.6523 0
    endloop
  endfacet
  facet normal 0 0 -1
    outer loop
      vertex 21.6302 46.1859 0
      vertex 31.7582 41.1755 0
      vertex 31.1474 40.3836 0
    endloop
  endfacet
  facet normal 0 0 -1
    outer loop
      vertex 31.7582 41.1755 0
      vertex 21.6302 46.1859 0
      vertex 21.78 47.219 0
    endloop
  endfacet
  facet normal 0 0 -1
    outer loop
      vertex 11.0797 49.7819 0
      vertex 21.78 47.219 0
      vertex 21.6302 46.1859 0
    endloop
  endfacet
  facet normal 0 0 -1
    outer loop
      vertex 11.0797 49.7819 0
      vertex 10.7056 50.886 0
      vertex 21.78 47.219 0
    endloop
  endfacet
  facet normal 0 0 -1
    outer loop
      vertex 1.13243e-14 51 0
      vertex 10.7056 50.886 0
      vertex 11.0797 49.7819 0
    endloop
  endfacet
  facet normal 0 0 -1
    outer loop
      vertex 10.7056 50.886 0
      vertex 1.13243e-14 51 0
      vertex 1.15254e-14 51.9056 0
    endloop
  endfacet
endsolid OpenSCAD_Model
