solid OpenSCAD_Model
  facet normal 0.100774 -0.986395 0.12988
    outer loop
      vertex 2.19729 -10.6392 1.03528
      vertex 2.4425e-15 -11 0
      vertex 2.22486 -10.7727 0
    endloop
  endfacet
  facet normal 0.0939762 -0.919791 0.38099
    outer loop
      vertex 2.19729 -10.6392 1.03528
      vertex 2.32351e-15 -10.4641 2
      vertex 2.41224e-15 -10.8637 1.03528
    endloop
  endfacet
  facet normal 0.100781 -0.986397 0.129864
    outer loop
      vertex 2.19729 -10.6392 1.03528
      vertex 2.41224e-15 -10.8637 1.03528
      vertex 2.4425e-15 -11 0
    endloop
  endfacet
  facet normal 0.0939594 -0.919807 0.380954
    outer loop
      vertex 2.11647 -10.2479 2
      vertex 2.32351e-15 -10.4641 2
      vertex 2.19729 -10.6392 1.03528
    endloop
  endfacet
  facet normal -0.0133371 0.130518 0.991356
    outer loop
      vertex 1.20643 -5.84149 3.8637
      vertex 1.32444e-15 -5.96477 3.8637
      vertex 1.55432e-15 -7.00004 4
    endloop
  endfacet
  facet normal 0.97933 0.202268 -3.07095e-05
    outer loop
      vertex 1.82034 -8.81403 3.4641
      vertex 1.41582 -6.85537 4
      vertex 1.62522 -7.86925 3.8637
    endloop
  endfacet
  facet normal 0.979332 0.20226 -2.28408e-07
    outer loop
      vertex 2.19729 -10.6392 1.03528
      vertex 1.41582 -6.85537 4
      vertex 1.82034 -8.81403 3.4641
    endloop
  endfacet
  facet normal 0.979332 0.202258 0
    outer loop
      vertex 0.826558 -4.00217 0.717873
      vertex 0.634354 -3.07152 0
      vertex 0.634354 -3.07152 1.03528
    endloop
  endfacet
  facet normal 0.979332 0.202258 -1.07133e-07
    outer loop
      vertex 0.634354 -3.07152 0
      vertex 0.826558 -4.00217 0.717873
      vertex 0.807479 -3.90979 0
    endloop
  endfacet
  facet normal 0.97933 0.202268 -2.96998e-05
    outer loop
      vertex 0.634354 -3.07152 1.03528
      vertex 0.828115 -4.0097 0.776457
      vertex 0.826558 -4.00217 0.717873
    endloop
  endfacet
  facet normal 0.979333 0.202255 1.89323e-05
    outer loop
      vertex 0.634354 -3.07152 1.03528
      vertex 0.832292 -4.02993 0.826408
      vertex 0.828115 -4.0097 0.776457
    endloop
  endfacet
  facet normal 0.979332 0.202259 -1.19109e-06
    outer loop
      vertex 0.634354 -3.07152 1.03528
      vertex 0.888615 -4.30264 1.5
      vertex 0.832292 -4.02993 0.826408
    endloop
  endfacet
  facet normal 0.97933 0.202269 2.66033e-05
    outer loop
      vertex 0.634354 -3.07152 1.03528
      vertex 0.895062 -4.33386 1.54162
      vertex 0.888615 -4.30264 1.5
    endloop
  endfacet
  facet normal 0.979332 0.202259 1.26869e-07
    outer loop
      vertex 0.634354 -3.07152 1.03528
      vertex 0.984856 -4.76864 2.12132
      vertex 0.895062 -4.33386 1.54162
    endloop
  endfacet
  facet normal 0.979338 0.202228 -5.01697e-05
    outer loop
      vertex 0.634354 -3.07152 1.03528
      vertex 1.09996 -5.32595 2.55883
      vertex 0.984856 -4.76864 2.12132
    endloop
  endfacet
  facet normal 0.979328 0.202277 2.43734e-05
    outer loop
      vertex 1.41582 -6.85537 4
      vertex 1.09996 -5.32595 2.55883
      vertex 0.634354 -3.07152 1.03528
    endloop
  endfacet
  facet normal 0.979312 0.202358 0.00011105
    outer loop
      vertex 1.41582 -6.85537 4
      vertex 1.11988 -5.42241 2.61777
      vertex 1.11028 -5.37594 2.59808
    endloop
  endfacet
  facet normal 0.979428 0.201796 -0.000507634
    outer loop
      vertex 1.09996 -5.32595 2.55883
      vertex 1.41582 -6.85537 4
      vertex 1.11028 -5.37594 2.59808
    endloop
  endfacet
  facet normal 0.979333 0.202254 -1.21139e-06
    outer loop
      vertex 1.11988 -5.42241 2.61777
      vertex 1.41582 -6.85537 4
      vertex 1.25634 -6.08316 2.89778
    endloop
  endfacet
  facet normal 0.97933 0.202267 7.99904e-06
    outer loop
      vertex 1.41582 -6.85537 4
      vertex 1.40021 -6.77975 2.9916
      vertex 1.25634 -6.08316 2.89778
    endloop
  endfacet
  facet normal 0.979354 0.202154 -8.5129e-07
    outer loop
      vertex 1.41582 -6.85537 4
      vertex 1.41308 -6.8421 3
      vertex 1.40021 -6.77975 2.9916
    endloop
  endfacet
  facet normal 0.979341 0.202215 0
    outer loop
      vertex 1.41308 -6.8421 3
      vertex 1.41582 -6.85537 4
      vertex 1.41582 -6.85537 2.99821
    endloop
  endfacet
  facet normal 0.979314 0.202346 0
    outer loop
      vertex 1.41582 -6.85537 4
      vertex 1.42356 -6.89283 2.99317
      vertex 1.41582 -6.85537 2.99821
    endloop
  endfacet
  facet normal 0.979333 0.202255 3.54538e-06
    outer loop
      vertex 1.41582 -6.85537 4
      vertex 1.56982 -7.60103 2.89778
      vertex 1.42356 -6.89283 2.99317
    endloop
  endfacet
  facet normal 0.979329 0.202273 -9.13349e-06
    outer loop
      vertex 1.41582 -6.85537 4
      vertex 1.7042 -8.25166 2.62206
      vertex 1.56982 -7.60103 2.89778
    endloop
  endfacet
  facet normal 0.979377 0.20204 0.000236774
    outer loop
      vertex 1.41582 -6.85537 4
      vertex 1.71588 -8.30825 2.59808
      vertex 1.7042 -8.25166 2.62206
    endloop
  endfacet
  facet normal 0.979325 0.202294 -3.79975e-05
    outer loop
      vertex 1.41582 -6.85537 4
      vertex 1.72454 -8.35018 2.56516
      vertex 1.71588 -8.30825 2.59808
    endloop
  endfacet
  facet normal 0.979322 0.202308 -5.26071e-05
    outer loop
      vertex 1.41582 -6.85537 4
      vertex 1.84131 -8.91555 2.12132
      vertex 1.72454 -8.35018 2.56516
    endloop
  endfacet
  facet normal 0.979324 0.202299 -0.000111628
    outer loop
      vertex 2.19729 -10.6392 1.03528
      vertex 1.94188 -9.40254 1.44817
      vertex 1.93755 -9.38155 1.5
    endloop
  endfacet
  facet normal 0.979328 0.202279 7.36103e-05
    outer loop
      vertex 2.19729 -10.6392 1.03528
      vertex 1.99956 -9.68178 0.719767
      vertex 1.99805 -9.67449 0.776457
    endloop
  endfacet
  facet normal 0.979334 0.202251 1.26847e-05
    outer loop
      vertex 2.19729 -10.6392 1.03528
      vertex 1.84131 -8.91555 2.12132
      vertex 1.41582 -6.85537 4
    endloop
  endfacet
  facet normal 0.97933 0.202271 -2.11948e-05
    outer loop
      vertex 2.19729 -10.6392 1.03528
      vertex 1.93011 -9.34555 1.548
      vertex 1.84131 -8.91555 2.12132
    endloop
  endfacet
  facet normal 0.979342 0.20221 0.000140851
    outer loop
      vertex 2.19729 -10.6392 1.03528
      vertex 1.93755 -9.38155 1.5
      vertex 1.93011 -9.34555 1.548
    endloop
  endfacet
  facet normal 0.979332 0.202261 6.05638e-06
    outer loop
      vertex 1.94188 -9.40254 1.44817
      vertex 2.19729 -10.6392 1.03528
      vertex 1.99805 -9.67449 0.776457
    endloop
  endfacet
  facet normal 0.979333 0.202256 0
    outer loop
      vertex 1.99956 -9.68178 0.719767
      vertex 2.19729 -10.6392 1.03528
      vertex 2.19729 -10.6392 0
    endloop
  endfacet
  facet normal 0.979333 0.202256 -4.48879e-07
    outer loop
      vertex 1.99956 -9.68178 0.719767
      vertex 2.19729 -10.6392 0
      vertex 2.01869 -9.77441 0
    endloop
  endfacet
  facet normal 0.979331 0.202264 -2.63554e-06
    outer loop
      vertex 2.19729 -10.6392 1.03528
      vertex 1.82034 -8.81403 3.4641
      vertex 1.9879 -9.62534 2.82843
    endloop
  endfacet
  facet normal 0.0808045 -0.790781 0.606743
    outer loop
      vertex 1.9879 -9.62534 2.82843
      vertex 2.18236e-15 -9.82847 2.82843
      vertex 2.32351e-15 -10.4641 2
    endloop
  endfacet
  facet normal 0.979329 0.202273 2.32808e-05
    outer loop
      vertex 1.20643 -5.84149 3.8637
      vertex 0.843747 -4.0854 2.82843
      vertex 1.0113 -4.8967 3.4641
    endloop
  endfacet
  facet normal -0.0133364 0.130518 0.991356
    outer loop
      vertex 1.20643 -5.84149 3.8637
      vertex 1.55432e-15 -7.00004 4
      vertex 1.41582 -6.85537 4
    endloop
  endfacet
  facet normal 0.979331 0.202263 5.05621e-06
    outer loop
      vertex 1.20643 -5.84149 3.8637
      vertex 0.715177 -3.46286 2
      vertex 0.843747 -4.0854 2.82843
    endloop
  endfacet
  facet normal -0.0808052 0.790758 0.606772
    outer loop
      vertex 0.715177 -3.46286 2
      vertex 9.26285e-16 -4.17162 2.82843
      vertex 0.843747 -4.0854 2.82843
    endloop
  endfacet
  facet normal -0.0939883 0.91979 0.380989
    outer loop
      vertex 0.715177 -3.46286 2
      vertex 6.96407e-16 -3.13634 1.03528
      vertex 7.85137e-16 -3.53594 2
    endloop
  endfacet
  facet normal -1 -2.22043e-16 -1.36808e-21
    outer loop
      vertex 8.881e-16 -3.99965 0.0559086
      vertex 6.96407e-16 -3.13634 1.03528
      vertex 6.66144e-16 -3.00004 0
    endloop
  endfacet
  facet normal -1 -2.22044e-16 -1.82546e-20
    outer loop
      vertex 8.881e-16 -3.99965 0.0559086
      vertex 6.66144e-16 -3.00004 0
      vertex 8.86469e-16 -3.9923 0
    endloop
  endfacet
  facet normal -1 -2.22044e-16 -1.7783e-22
    outer loop
      vertex 6.96407e-16 -3.13634 1.03528
      vertex 8.881e-16 -3.99965 0.0559086
      vertex 9.09123e-16 -4.09433 0.776457
    endloop
  endfacet
  facet normal -1 -2.22045e-16 2.82669e-21
    outer loop
      vertex 9.70316e-16 -4.36991 1.44308
      vertex 6.96407e-16 -3.13634 1.03528
      vertex 9.09123e-16 -4.09433 0.776457
    endloop
  endfacet
  facet normal -1 -2.22046e-16 6.1309e-22
    outer loop
      vertex 6.96407e-16 -3.13634 1.03528
      vertex 9.70316e-16 -4.36991 1.44308
      vertex 7.85137e-16 -3.53594 2
    endloop
  endfacet
  facet normal -1 -2.22027e-16 -2.67485e-20
    outer loop
      vertex 9.75541e-16 -4.39345 1.5
      vertex 7.85137e-16 -3.53594 2
      vertex 9.70316e-16 -4.36991 1.44308
    endloop
  endfacet
  facet normal -1 -2.2204e-16 -4.47404e-21
    outer loop
      vertex 1.07263e-15 -4.83072 2.07096
      vertex 7.85137e-16 -3.53594 2
      vertex 9.75541e-16 -4.39345 1.5
    endloop
  endfacet
  facet normal -1 -2.2204e-16 2.00209e-21
    outer loop
      vertex 7.85137e-16 -3.53594 2
      vertex 1.07263e-15 -4.83072 2.07096
      vertex 9.26285e-16 -4.17162 2.82843
    endloop
  endfacet
  facet normal -1 -2.22138e-16 8.69194e-20
    outer loop
      vertex 1.0812e-15 -4.86928 2.12132
      vertex 9.26285e-16 -4.17162 2.82843
      vertex 1.07263e-15 -4.83072 2.07096
    endloop
  endfacet
  facet normal -1 -2.22086e-16 3.59522e-20
    outer loop
      vertex 1.09028e-15 -4.91016 2.15275
      vertex 9.26285e-16 -4.17162 2.82843
      vertex 1.0812e-15 -4.86928 2.12132
    endloop
  endfacet
  facet normal -1 -2.22048e-16 -5.82736e-21
    outer loop
      vertex 1.09028e-15 -4.91016 2.15275
      vertex 1.11023e-15 -5.00004 3.4641
      vertex 9.26285e-16 -4.17162 2.82843
    endloop
  endfacet
  facet normal -1 -2.22036e-16 -5.04308e-21
    outer loop
      vertex 1.21889e-15 -5.4894 2.59808
      vertex 1.11023e-15 -5.00004 3.4641
      vertex 1.09028e-15 -4.91016 2.15275
    endloop
  endfacet
  facet normal -1 -2.22042e-16 -1.8459e-21
    outer loop
      vertex 1.36599e-15 -6.15189 2.87302
      vertex 1.11023e-15 -5.00004 3.4641
      vertex 1.21889e-15 -5.4894 2.59808
    endloop
  endfacet
  facet normal -1 -2.22042e-16 -1.51022e-21
    outer loop
      vertex 1.11023e-15 -5.00004 3.4641
      vertex 1.36599e-15 -6.15189 2.87302
      vertex 1.32444e-15 -5.96477 3.8637
    endloop
  endfacet
  facet normal -1 -2.22123e-16 1.38481e-20
    outer loop
      vertex 1.37924e-15 -6.21154 2.89778
      vertex 1.32444e-15 -5.96477 3.8637
      vertex 1.36599e-15 -6.15189 2.87302
    endloop
  endfacet
  facet normal -1 -2.2207e-16 2.91466e-22
    outer loop
      vertex 1.39061e-15 -6.26274 2.90453
      vertex 1.32444e-15 -5.96477 3.8637
      vertex 1.37924e-15 -6.21154 2.89778
    endloop
  endfacet
  facet normal -1 -2.22038e-16 1.38763e-21
    outer loop
      vertex 1.55432e-15 -7.00004 4
      vertex 1.39061e-15 -6.26274 2.90453
      vertex 1.55131e-15 -6.98649 3
    endloop
  endfacet
  facet normal -1 -2.22049e-16 -6.26182e-21
    outer loop
      vertex 1.39061e-15 -6.26274 2.90453
      vertex 1.55432e-15 -7.00004 4
      vertex 1.32444e-15 -5.96477 3.8637
    endloop
  endfacet
  facet normal -1 -2.22048e-16 1.2549e-21
    outer loop
      vertex 1.70941e-15 -7.6985 2.90608
      vertex 1.55432e-15 -7.00004 4
      vertex 1.55131e-15 -6.98649 3
    endloop
  endfacet
  facet normal -1 -2.2208e-16 -1.13051e-20
    outer loop
      vertex 1.7842e-15 -8.03532 3.8637
      vertex 1.70941e-15 -7.6985 2.90608
      vertex 1.72339e-15 -7.76145 2.89778
    endloop
  endfacet
  facet normal -1 -2.22041e-16 -2.94893e-22
    outer loop
      vertex 1.7842e-15 -8.03532 3.8637
      vertex 1.72339e-15 -7.76145 2.89778
      vertex 1.73427e-15 -7.81045 2.87744
    endloop
  endfacet
  facet normal -1 -2.22046e-16 3.94866e-22
    outer loop
      vertex 1.70941e-15 -7.6985 2.90608
      vertex 1.7842e-15 -8.03532 3.8637
      vertex 1.55432e-15 -7.00004 4
    endloop
  endfacet
  facet normal -1 -2.22046e-16 -6.62474e-21
    outer loop
      vertex 1.99841e-15 -9.00004 3.4641
      vertex 1.73427e-15 -7.81045 2.87744
      vertex 1.88374e-15 -8.48359 2.59808
    endloop
  endfacet
  facet normal -1 -2.22043e-16 -8.96072e-22
    outer loop
      vertex 1.73427e-15 -7.81045 2.87744
      vertex 1.99841e-15 -9.00004 3.4641
      vertex 1.7842e-15 -8.03532 3.8637
    endloop
  endfacet
  facet normal -1 -2.22041e-16 -3.37553e-21
    outer loop
      vertex 2.0106e-15 -9.05492 2.15883
      vertex 1.99841e-15 -9.00004 3.4641
      vertex 1.88374e-15 -8.48359 2.59808
    endloop
  endfacet
  facet normal -1 -2.22004e-16 4.25366e-20
    outer loop
      vertex 2.18236e-15 -9.82847 2.82843
      vertex 2.0106e-15 -9.05492 2.15883
      vertex 2.02143e-15 -9.10371 2.12132
    endloop
  endfacet
  facet normal -1 -2.22079e-16 -3.35977e-20
    outer loop
      vertex 2.18236e-15 -9.82847 2.82843
      vertex 2.02143e-15 -9.10371 2.12132
      vertex 2.02886e-15 -9.13716 2.07764
    endloop
  endfacet
  facet normal -1 -2.22052e-16 2.66449e-21
    outer loop
      vertex 2.32351e-15 -10.4641 2
      vertex 2.02886e-15 -9.13716 2.07764
      vertex 2.12709e-15 -9.57954 1.5
    endloop
  endfacet
  facet normal -1 -2.22044e-16 -3.23545e-21
    outer loop
      vertex 2.0106e-15 -9.05492 2.15883
      vertex 2.18236e-15 -9.82847 2.82843
      vertex 1.99841e-15 -9.00004 3.4641
    endloop
  endfacet
  facet normal -1 -2.22051e-16 5.55296e-21
    outer loop
      vertex 2.32351e-15 -10.4641 2
      vertex 2.12709e-15 -9.57954 1.5
      vertex 2.18847e-15 -9.85598 0.831328
    endloop
  endfacet
  facet normal -1 -2.22035e-16 1.04672e-19
    outer loop
      vertex 2.41224e-15 -10.8637 1.03528
      vertex 2.18847e-15 -9.85598 0.831328
      vertex 2.1935e-15 -9.87866 0.776457
    endloop
  endfacet
  facet normal -1 -2.22062e-16 -9.15661e-22
    outer loop
      vertex 2.41224e-15 -10.8637 1.03528
      vertex 2.1935e-15 -9.87866 0.776457
      vertex 2.21447e-15 -9.97309 0.0577793
    endloop
  endfacet
  facet normal -1 -2.22052e-16 -4.15977e-20
    outer loop
      vertex 2.4425e-15 -11 0
      vertex 2.21447e-15 -9.97309 0.0577793
      vertex 2.21616e-15 -9.98069 0
    endloop
  endfacet
  facet normal -1 -2.22052e-16 -8.76395e-21
    outer loop
      vertex 2.02886e-15 -9.13716 2.07764
      vertex 2.32351e-15 -10.4641 2
      vertex 2.18236e-15 -9.82847 2.82843
    endloop
  endfacet
  facet normal -1 -2.22055e-16 3.31832e-21
    outer loop
      vertex 2.18847e-15 -9.85598 0.831328
      vertex 2.41224e-15 -10.8637 1.03528
      vertex 2.32351e-15 -10.4641 2
    endloop
  endfacet
  facet normal -1 -2.22055e-16 5.8681e-21
    outer loop
      vertex 2.21447e-15 -9.97309 0.0577793
      vertex 2.4425e-15 -11 0
      vertex 2.41224e-15 -10.8637 1.03528
    endloop
  endfacet
  facet normal 0.979334 0.202249 0
    outer loop
      vertex 2.22486 -10.7727 0
      vertex 2.19729 -10.6392 0
      vertex 2.19729 -10.6392 1.03528
    endloop
  endfacet
  facet normal 0.979339 0.202224 2.07544e-05
    outer loop
      vertex 2.19729 -10.6392 1.03528
      vertex 1.9879 -9.62534 2.82843
      vertex 2.11647 -10.2479 2
    endloop
  endfacet
  facet normal 0.0807764 -0.790753 0.606782
    outer loop
      vertex 1.9879 -9.62534 2.82843
      vertex 2.32351e-15 -10.4641 2
      vertex 2.11647 -10.2479 2
    endloop
  endfacet
  facet normal -0.0620875 0.607587 0.791823
    outer loop
      vertex 0.843747 -4.0854 2.82843
      vertex 9.26285e-16 -4.17162 2.82843
      vertex 1.0113 -4.8967 3.4641
    endloop
  endfacet
  facet normal -0.0808032 0.790758 0.606773
    outer loop
      vertex 0.715177 -3.46286 2
      vertex 7.85137e-16 -3.53594 2
      vertex 9.26285e-16 -4.17162 2.82843
    endloop
  endfacet
  facet normal -0.0390744 0.382388 0.923175
    outer loop
      vertex 1.0113 -4.8967 3.4641
      vertex 1.11023e-15 -5.00004 3.4641
      vertex 1.32444e-15 -5.96477 3.8637
    endloop
  endfacet
  facet normal -0.0390746 0.382388 0.923175
    outer loop
      vertex 1.0113 -4.8967 3.4641
      vertex 1.32444e-15 -5.96477 3.8637
      vertex 1.20643 -5.84149 3.8637
    endloop
  endfacet
  facet normal 0.979333 0.202254 -6.4164e-06
    outer loop
      vertex 1.41582 -6.85537 4
      vertex 0.715177 -3.46286 2
      vertex 1.20643 -5.84149 3.8637
    endloop
  endfacet
  facet normal -0.0939867 0.91979 0.380988
    outer loop
      vertex 0.634354 -3.07152 1.03528
      vertex 6.96407e-16 -3.13634 1.03528
      vertex 0.715177 -3.46286 2
    endloop
  endfacet
  facet normal -0.100788 0.986396 0.129864
    outer loop
      vertex 0.606786 -2.93804 0
      vertex 6.66144e-16 -3.00004 0
      vertex 6.96407e-16 -3.13634 1.03528
    endloop
  endfacet
  facet normal -0.100793 0.986396 0.129861
    outer loop
      vertex 0.606786 -2.93804 0
      vertex 6.96407e-16 -3.13634 1.03528
      vertex 0.634354 -3.07152 1.03528
    endloop
  endfacet
  facet normal 0.0620848 -0.607583 0.791826
    outer loop
      vertex 1.9879 -9.62534 2.82843
      vertex 1.99841e-15 -9.00004 3.4641
      vertex 2.18236e-15 -9.82847 2.82843
    endloop
  endfacet
  facet normal 0.0620853 -0.607582 0.791827
    outer loop
      vertex 1.82034 -8.81403 3.4641
      vertex 1.99841e-15 -9.00004 3.4641
      vertex 1.9879 -9.62534 2.82843
    endloop
  endfacet
  facet normal -0.0620865 0.607588 0.791822
    outer loop
      vertex 1.0113 -4.8967 3.4641
      vertex 9.26285e-16 -4.17162 2.82843
      vertex 1.11023e-15 -5.00004 3.4641
    endloop
  endfacet
  facet normal 0.979332 0.202257 -1.26012e-06
    outer loop
      vertex 1.41582 -6.85537 4
      vertex 0.634354 -3.07152 1.03528
      vertex 0.715177 -3.46286 2
    endloop
  endfacet
  facet normal 0.0133364 -0.130518 0.991356
    outer loop
      vertex 1.41582 -6.85537 4
      vertex 1.55432e-15 -7.00004 4
      vertex 1.62522 -7.86925 3.8637
    endloop
  endfacet
  facet normal 0.0390744 -0.382392 0.923174
    outer loop
      vertex 1.62522 -7.86925 3.8637
      vertex 1.99841e-15 -9.00004 3.4641
      vertex 1.82034 -8.81403 3.4641
    endloop
  endfacet
  facet normal 0.979331 0.202264 -0
    outer loop
      vertex 0.634354 -3.07152 0
      vertex 0.606786 -2.93804 0
      vertex 0.634354 -3.07152 1.03528
    endloop
  endfacet
  facet normal 0.0390739 -0.382391 0.923174
    outer loop
      vertex 1.62522 -7.86925 3.8637
      vertex 1.7842e-15 -8.03532 3.8637
      vertex 1.99841e-15 -9.00004 3.4641
    endloop
  endfacet
  facet normal 0.0133367 -0.130517 0.991356
    outer loop
      vertex 1.62522 -7.86925 3.8637
      vertex 1.55432e-15 -7.00004 4
      vertex 1.7842e-15 -8.03532 3.8637
    endloop
  endfacet
  facet normal -0.100795 0.986427 -0.129627
    outer loop
      vertex 2.01869 -9.77441 0
      vertex 2.21447e-15 -9.97309 0.0577793
      vertex 1.99956 -9.68178 0.719767
    endloop
  endfacet
  facet normal -0.100796 0.98641 -0.129748
    outer loop
      vertex 2.21447e-15 -9.97309 0.0577793
      vertex 2.01869 -9.77441 0
      vertex 2.21616e-15 -9.98069 0
    endloop
  endfacet
  facet normal -0.0940124 0.920015 -0.38044
    outer loop
      vertex 1.94188 -9.40254 1.44817
      vertex 2.12709e-15 -9.57954 1.5
      vertex 1.93755 -9.38155 1.5
    endloop
  endfacet
  facet normal -0.0940133 0.920047 -0.380362
    outer loop
      vertex 2.12709e-15 -9.57954 1.5
      vertex 1.94188 -9.40254 1.44817
      vertex 2.18847e-15 -9.85598 0.831328
    endloop
  endfacet
  facet normal -0.100799 0.986438 -0.129535
    outer loop
      vertex 1.99956 -9.68178 0.719767
      vertex 2.1935e-15 -9.87866 0.776457
      vertex 1.99805 -9.67449 0.776457
    endloop
  endfacet
  facet normal -0.1008 0.986428 -0.129611
    outer loop
      vertex 2.1935e-15 -9.87866 0.776457
      vertex 1.99956 -9.68178 0.719767
      vertex 2.21447e-15 -9.97309 0.0577793
    endloop
  endfacet
  facet normal -0.0940168 0.92005 -0.380354
    outer loop
      vertex 1.99805 -9.67449 0.776457
      vertex 2.18847e-15 -9.85598 0.831328
      vertex 1.94188 -9.40254 1.44817
    endloop
  endfacet
  facet normal -0.0940174 0.920073 -0.380297
    outer loop
      vertex 2.18847e-15 -9.85598 0.831328
      vertex 1.99805 -9.67449 0.776457
      vertex 2.1935e-15 -9.87866 0.776457
    endloop
  endfacet
  facet normal -0.080862 0.791324 -0.606026
    outer loop
      vertex 2.12709e-15 -9.57954 1.5
      vertex 1.93011 -9.34555 1.548
      vertex 1.93755 -9.38155 1.5
    endloop
  endfacet
  facet normal -0.0808619 0.791323 -0.606027
    outer loop
      vertex 1.93011 -9.34555 1.548
      vertex 2.12709e-15 -9.57954 1.5
      vertex 2.02886e-15 -9.13716 2.07764
    endloop
  endfacet
  facet normal 0.0391385 -0.383018 -0.922912
    outer loop
      vertex 1.21889e-15 -5.4894 2.59808
      vertex 1.11988 -5.42241 2.61777
      vertex 1.36599e-15 -6.15189 2.87302
    endloop
  endfacet
  facet normal 0.0391362 -0.382974 -0.92293
    outer loop
      vertex 1.11988 -5.42241 2.61777
      vertex 1.21889e-15 -5.4894 2.59808
      vertex 1.11028 -5.37594 2.59808
    endloop
  endfacet
  facet normal -0.0621643 0.608327 -0.791248
    outer loop
      vertex 1.88374e-15 -8.48359 2.59808
      vertex 1.72454 -8.35018 2.56516
      vertex 2.0106e-15 -9.05492 2.15883
    endloop
  endfacet
  facet normal -0.0621665 0.608362 -0.791221
    outer loop
      vertex 1.72454 -8.35018 2.56516
      vertex 1.88374e-15 -8.48359 2.59808
      vertex 1.71588 -8.30825 2.59808
    endloop
  endfacet
  facet normal 0.0940172 -0.919999 -0.380477
    outer loop
      vertex 9.70316e-16 -4.36991 1.44308
      vertex 0.888615 -4.30264 1.5
      vertex 9.75541e-16 -4.39345 1.5
    endloop
  endfacet
  facet normal 0.0940131 -0.920051 -0.380352
    outer loop
      vertex 0.888615 -4.30264 1.5
      vertex 9.70316e-16 -4.36991 1.44308
      vertex 0.832292 -4.02993 0.826408
    endloop
  endfacet
  facet normal 0.0621624 -0.608324 -0.791251
    outer loop
      vertex 1.09028e-15 -4.91016 2.15275
      vertex 0.984856 -4.76864 2.12132
      vertex 1.09996 -5.32595 2.55883
    endloop
  endfacet
  facet normal 0.0621643 -0.608335 -0.791242
    outer loop
      vertex 0.984856 -4.76864 2.12132
      vertex 1.09028e-15 -4.91016 2.15275
      vertex 1.0812e-15 -4.86928 2.12132
    endloop
  endfacet
  facet normal -0.0133595 0.130764 -0.991324
    outer loop
      vertex 1.55131e-15 -6.98649 3
      vertex 1.42356 -6.89283 2.99317
      vertex 1.70941e-15 -7.6985 2.90608
    endloop
  endfacet
  facet normal -0.0133502 0.13062 -0.991343
    outer loop
      vertex 1.42356 -6.89283 2.99317
      vertex 1.55131e-15 -6.98649 3
      vertex 1.41582 -6.85537 2.99821
    endloop
  endfacet
  facet normal -0.013381 0.130954 -0.991298
    outer loop
      vertex 1.41582 -6.85537 2.99821
      vertex 1.55131e-15 -6.98649 3
      vertex 1.41308 -6.8421 3
    endloop
  endfacet
  facet normal 0.013364 -0.130756 -0.991324
    outer loop
      vertex 1.39061e-15 -6.26274 2.90453
      vertex 1.25634 -6.08316 2.89778
      vertex 1.40021 -6.77975 2.9916
    endloop
  endfacet
  facet normal 0.013355 -0.130693 -0.991333
    outer loop
      vertex 1.25634 -6.08316 2.89778
      vertex 1.39061e-15 -6.26274 2.90453
      vertex 1.37924e-15 -6.21154 2.89778
    endloop
  endfacet
  facet normal 0.0940176 -0.920053 -0.380347
    outer loop
      vertex 9.09123e-16 -4.09433 0.776457
      vertex 0.832292 -4.02993 0.826408
      vertex 9.70316e-16 -4.36991 1.44308
    endloop
  endfacet
  facet normal 0.0940208 -0.920005 -0.380461
    outer loop
      vertex 0.832292 -4.02993 0.826408
      vertex 9.09123e-16 -4.09433 0.776457
      vertex 0.828115 -4.0097 0.776457
    endloop
  endfacet
  facet normal 0.100811 -0.986445 -0.12947
    outer loop
      vertex 9.09123e-16 -4.09433 0.776457
      vertex 0.826558 -4.00217 0.717873
      vertex 0.828115 -4.0097 0.776457
    endloop
  endfacet
  facet normal 0.100798 -0.986428 -0.129616
    outer loop
      vertex 0.826558 -4.00217 0.717873
      vertex 9.09123e-16 -4.09433 0.776457
      vertex 8.881e-16 -3.99965 0.0559086
    endloop
  endfacet
  facet normal -0.0621631 0.60832 -0.791254
    outer loop
      vertex 2.0106e-15 -9.05492 2.15883
      vertex 1.84131 -8.91555 2.12132
      vertex 2.02143e-15 -9.10371 2.12132
    endloop
  endfacet
  facet normal -0.0621634 0.608326 -0.791249
    outer loop
      vertex 1.84131 -8.91555 2.12132
      vertex 2.0106e-15 -9.05492 2.15883
      vertex 1.72454 -8.35018 2.56516
    endloop
  endfacet
  facet normal 0.0808693 -0.791381 -0.60595
    outer loop
      vertex 1.07263e-15 -4.83072 2.07096
      vertex 0.984856 -4.76864 2.12132
      vertex 1.0812e-15 -4.86928 2.12132
    endloop
  endfacet
  facet normal 0.0808695 -0.791323 -0.606026
    outer loop
      vertex 0.984856 -4.76864 2.12132
      vertex 1.07263e-15 -4.83072 2.07096
      vertex 0.895062 -4.33386 1.54162
    endloop
  endfacet
  facet normal 0.100795 -0.98642 -0.129679
    outer loop
      vertex 0.807479 -3.90979 0
      vertex 8.881e-16 -3.99965 0.0559086
      vertex 8.86469e-16 -3.9923 0
    endloop
  endfacet
  facet normal 0.1008 -0.986427 -0.129618
    outer loop
      vertex 8.881e-16 -3.99965 0.0559086
      vertex 0.807479 -3.90979 0
      vertex 0.826558 -4.00217 0.717873
    endloop
  endfacet
  facet normal -0.0391382 0.383007 -0.922916
    outer loop
      vertex 1.88374e-15 -8.48359 2.59808
      vertex 1.7042 -8.25166 2.62206
      vertex 1.71588 -8.30825 2.59808
    endloop
  endfacet
  facet normal -0.0391397 0.383018 -0.922911
    outer loop
      vertex 1.7042 -8.25166 2.62206
      vertex 1.88374e-15 -8.48359 2.59808
      vertex 1.73427e-15 -7.81045 2.87744
    endloop
  endfacet
  facet normal -0.0808655 0.79134 -0.606005
    outer loop
      vertex 1.84131 -8.91555 2.12132
      vertex 2.02886e-15 -9.13716 2.07764
      vertex 2.02143e-15 -9.10371 2.12132
    endloop
  endfacet
  facet normal -0.0808627 0.791321 -0.606029
    outer loop
      vertex 2.02886e-15 -9.13716 2.07764
      vertex 1.84131 -8.91555 2.12132
      vertex 1.93011 -9.34555 1.548
    endloop
  endfacet
  facet normal 0.0808634 -0.791319 -0.606032
    outer loop
      vertex 9.75541e-16 -4.39345 1.5
      vertex 0.895062 -4.33386 1.54162
      vertex 1.07263e-15 -4.83072 2.07096
    endloop
  endfacet
  facet normal 0.0808632 -0.791281 -0.606082
    outer loop
      vertex 0.895062 -4.33386 1.54162
      vertex 9.75541e-16 -4.39345 1.5
      vertex 0.888615 -4.30264 1.5
    endloop
  endfacet
  facet normal -0.0391385 0.383022 -0.92291
    outer loop
      vertex 1.73427e-15 -7.81045 2.87744
      vertex 1.56982 -7.60103 2.89778
      vertex 1.7042 -8.25166 2.62206
    endloop
  endfacet
  facet normal -0.039148 0.38309 -0.922881
    outer loop
      vertex 1.56982 -7.60103 2.89778
      vertex 1.73427e-15 -7.81045 2.87744
      vertex 1.72339e-15 -7.76145 2.89778
    endloop
  endfacet
  facet normal -0.013357 0.130708 -0.991331
    outer loop
      vertex 1.70941e-15 -7.6985 2.90608
      vertex 1.56982 -7.60103 2.89778
      vertex 1.72339e-15 -7.76145 2.89778
    endloop
  endfacet
  facet normal -0.0133606 0.130766 -0.991323
    outer loop
      vertex 1.56982 -7.60103 2.89778
      vertex 1.70941e-15 -7.6985 2.90608
      vertex 1.42356 -6.89283 2.99317
    endloop
  endfacet
  facet normal 0.0391452 -0.383079 -0.922886
    outer loop
      vertex 1.36599e-15 -6.15189 2.87302
      vertex 1.25634 -6.08316 2.89778
      vertex 1.37924e-15 -6.21154 2.89778
    endloop
  endfacet
  facet normal 0.0391426 -0.383023 -0.922909
    outer loop
      vertex 1.25634 -6.08316 2.89778
      vertex 1.36599e-15 -6.15189 2.87302
      vertex 1.11988 -5.42241 2.61777
    endloop
  endfacet
  facet normal 0.0621711 -0.608384 -0.791204
    outer loop
      vertex 1.21889e-15 -5.4894 2.59808
      vertex 1.09996 -5.32595 2.55883
      vertex 1.11028 -5.37594 2.59808
    endloop
  endfacet
  facet normal 0.0621608 -0.608326 -0.791249
    outer loop
      vertex 1.09996 -5.32595 2.55883
      vertex 1.21889e-15 -5.4894 2.59808
      vertex 1.09028e-15 -4.91016 2.15275
    endloop
  endfacet
  facet normal 0.0133648 -0.130795 -0.991319
    outer loop
      vertex 1.55131e-15 -6.98649 3
      vertex 1.40021 -6.77975 2.9916
      vertex 1.41308 -6.8421 3
    endloop
  endfacet
  facet normal 0.0133604 -0.130766 -0.991323
    outer loop
      vertex 1.40021 -6.77975 2.9916
      vertex 1.55131e-15 -6.98649 3
      vertex 1.39061e-15 -6.26274 2.90453
    endloop
  endfacet
  facet normal 0 0 -1
    outer loop
      vertex 2.4425e-15 -11 0
      vertex 2.19729 -10.6392 0
      vertex 2.22486 -10.7727 0
    endloop
  endfacet
  facet normal 0 0 -1
    outer loop
      vertex 2.21616e-15 -9.98069 0
      vertex 2.19729 -10.6392 0
      vertex 2.4425e-15 -11 0
    endloop
  endfacet
  facet normal 0 0 -1
    outer loop
      vertex 2.19729 -10.6392 0
      vertex 2.21616e-15 -9.98069 0
      vertex 2.01869 -9.77441 0
    endloop
  endfacet
  facet normal 0 0 -1
    outer loop
      vertex 8.86469e-16 -3.9923 0
      vertex 0.634354 -3.07152 0
      vertex 0.807479 -3.90979 0
    endloop
  endfacet
  facet normal 0 0 -1
    outer loop
      vertex 6.66144e-16 -3.00004 0
      vertex 0.634354 -3.07152 0
      vertex 8.86469e-16 -3.9923 0
    endloop
  endfacet
  facet normal 0 0 -1
    outer loop
      vertex 0.634354 -3.07152 0
      vertex 6.66144e-16 -3.00004 0
      vertex 0.606786 -2.93804 0
    endloop
  endfacet
endsolid OpenSCAD_Model
