solid OpenSCAD_Model
  facet normal -0.0684832 0.130213 0.989118
    outer loop
      vertex 1 1.03528 3.93294
      vertex 27.8865 0 5.93076
      vertex 27.8865 1.03528 5.79447
    endloop
  endfacet
  facet normal -0.0684827 0.130222 0.989117
    outer loop
      vertex 27.8865 0 5.93076
      vertex 1 1.03528 3.93294
      vertex 1 0 4.06924
    endloop
  endfacet
  facet normal -0.009037 -0.991404 0.130524
    outer loop
      vertex 1 -3.8637 1.10451
      vertex 27.8865 -4 1.93076
      vertex 27.8865 -3.8637 2.96604
    endloop
  endfacet
  facet normal -0.00903703 -0.991404 0.130524
    outer loop
      vertex 27.8865 -4 1.93076
      vertex 1 -3.8637 1.10451
      vertex 1 -4 0.0692365
    endloop
  endfacet
  facet normal -0.0421109 0.792653 0.608217
    outer loop
      vertex 27.8865 3.4641 3.93076
      vertex 1 2.82843 2.89766
      vertex 27.8865 2.82843 4.75919
    endloop
  endfacet
  facet normal -0.042111 0.792649 0.608222
    outer loop
      vertex 1 2.82843 2.89766
      vertex 27.8865 3.4641 3.93076
      vertex 1 3.4641 2.06924
    endloop
  endfacet
  facet normal -0.0548466 0.607841 0.792162
    outer loop
      vertex 1 2.82843 2.89766
      vertex 27.8865 2 5.39486
      vertex 27.8865 2.82843 4.75919
    endloop
  endfacet
  facet normal -0.054846 0.607847 0.792158
    outer loop
      vertex 27.8865 2 5.39486
      vertex 1 2.82843 2.89766
      vertex 1 2 3.53334
    endloop
  endfacet
  facet normal -0.0264863 0.923555 0.382549
    outer loop
      vertex 27.8865 3.8637 2.96604
      vertex 1 3.4641 2.06924
      vertex 27.8865 3.4641 3.93076
    endloop
  endfacet
  facet normal -0.0264862 0.923557 0.382546
    outer loop
      vertex 1 3.4641 2.06924
      vertex 27.8865 3.8637 2.96604
      vertex 1 3.8637 1.10451
    endloop
  endfacet
  facet normal -0.0421109 -0.792653 0.608217
    outer loop
      vertex 1 -2.82843 2.89766
      vertex 27.8865 -3.4641 3.93076
      vertex 27.8865 -2.82843 4.75919
    endloop
  endfacet
  facet normal -0.042111 -0.792649 0.608222
    outer loop
      vertex 27.8865 -3.4641 3.93076
      vertex 1 -2.82843 2.89766
      vertex 1 -3.4641 2.06924
    endloop
  endfacet
  facet normal -1 2.33066e-22 -2.22044e-16
    outer loop
      vertex -1.72408e-16 2.89778 0.776457
      vertex -2.87347e-16 4.82963 1.2941
      vertex 0 5 0
    endloop
  endfacet
  facet normal -1 4.71432e-22 -2.22045e-16
    outer loop
      vertex -2.87347e-16 4.82963 1.2941
      vertex -1.72408e-16 2.89778 0.776457
      vertex -5.55111e-16 4.33013 2.5
    endloop
  endfacet
  facet normal -1 0 -2.22044e-16
    outer loop
      vertex -1.72408e-16 2.89778 0.776457
      vertex 0 5 0
      vertex 0 3 0
    endloop
  endfacet
  facet normal -1 3.98031e-22 -2.22045e-16
    outer loop
      vertex -3.33067e-16 2.59808 1.5
      vertex -5.55111e-16 4.33013 2.5
      vertex -1.72408e-16 2.89778 0.776457
    endloop
  endfacet
  facet normal -1 6.86457e-22 -2.22045e-16
    outer loop
      vertex -5.55111e-16 4.33013 2.5
      vertex -3.33067e-16 2.59808 1.5
      vertex -7.85046e-16 3.53553 3.53553
    endloop
  endfacet
  facet normal -1 1.04352e-22 -2.22045e-16
    outer loop
      vertex -4.71028e-16 2.12132 2.12132
      vertex -7.85046e-16 3.53553 3.53553
      vertex -3.33067e-16 2.59808 1.5
    endloop
  endfacet
  facet normal -1 -9.89669e-22 -2.22044e-16
    outer loop
      vertex -7.85046e-16 3.53553 3.53553
      vertex -4.71028e-16 2.12132 2.12132
      vertex -9.61481e-16 2.5 4.33013
    endloop
  endfacet
  facet normal -1 -9.89666e-22 -2.22044e-16
    outer loop
      vertex -5.76889e-16 1.5 2.59808
      vertex -9.61481e-16 2.5 4.33013
      vertex -4.71028e-16 2.12132 2.12132
    endloop
  endfacet
  facet normal -1 -1.45684e-21 -2.22044e-16
    outer loop
      vertex -5.76889e-16 1.5 2.59808
      vertex -1.07239e-15 1.2941 4.82963
      vertex -9.61481e-16 2.5 4.33013
    endloop
  endfacet
  facet normal -1 8.42384e-22 -2.22043e-16
    outer loop
      vertex -6.43436e-16 0.776457 2.89778
      vertex -1.07239e-15 1.2941 4.82963
      vertex -5.76889e-16 1.5 2.59808
    endloop
  endfacet
  facet normal -1 9.35932e-22 -2.22043e-16
    outer loop
      vertex -6.66134e-16 0 3
      vertex -1.07239e-15 1.2941 4.82963
      vertex -6.43436e-16 0.776457 2.89778
    endloop
  endfacet
  facet normal -1 4.12712e-22 -2.22043e-16
    outer loop
      vertex -6.66134e-16 0 3
      vertex -1.11022e-15 0 5
      vertex -1.07239e-15 1.2941 4.82963
    endloop
  endfacet
  facet normal -1 -9.84652e-22 -2.22043e-16
    outer loop
      vertex -6.43436e-16 -0.776457 2.89778
      vertex -1.11022e-15 0 5
      vertex -6.66134e-16 0 3
    endloop
  endfacet
  facet normal -1 -3.83479e-22 -2.22043e-16
    outer loop
      vertex -6.43436e-16 -0.776457 2.89778
      vertex -1.07239e-15 -1.2941 4.82963
      vertex -1.11022e-15 0 5
    endloop
  endfacet
  facet normal -1 -8.42384e-22 -2.22043e-16
    outer loop
      vertex -5.76889e-16 -1.5 2.59808
      vertex -1.07239e-15 -1.2941 4.82963
      vertex -6.43436e-16 -0.776457 2.89778
    endloop
  endfacet
  facet normal -1 9.89666e-22 -2.22044e-16
    outer loop
      vertex -9.61481e-16 -2.5 4.33013
      vertex -5.76889e-16 -1.5 2.59808
      vertex -4.71028e-16 -2.12132 2.12132
    endloop
  endfacet
  facet normal -1 1.45684e-21 -2.22044e-16
    outer loop
      vertex -5.76889e-16 -1.5 2.59808
      vertex -9.61481e-16 -2.5 4.33013
      vertex -1.07239e-15 -1.2941 4.82963
    endloop
  endfacet
  facet normal -1 -1.04352e-22 -2.22045e-16
    outer loop
      vertex -7.85046e-16 -3.53553 3.53553
      vertex -4.71028e-16 -2.12132 2.12132
      vertex -3.33067e-16 -2.59808 1.5
    endloop
  endfacet
  facet normal -1 6.7895e-23 -2.22045e-16
    outer loop
      vertex -5.55112e-16 -4.33013 2.5
      vertex -3.33067e-16 -2.59808 1.5
      vertex -1.72408e-16 -2.89778 0.776457
    endloop
  endfacet
  facet normal -1 -3.88445e-22 -2.22044e-16
    outer loop
      vertex -2.87347e-16 -4.82963 1.2941
      vertex -1.72408e-16 -2.89778 0.776457
      vertex 0 -3 0
    endloop
  endfacet
  facet normal -1 9.89669e-22 -2.22044e-16
    outer loop
      vertex -4.71028e-16 -2.12132 2.12132
      vertex -7.85046e-16 -3.53553 3.53553
      vertex -9.61481e-16 -2.5 4.33013
    endloop
  endfacet
  facet normal -1 1.00012e-22 -2.22045e-16
    outer loop
      vertex -3.33067e-16 -2.59808 1.5
      vertex -5.55112e-16 -4.33013 2.5
      vertex -7.85046e-16 -3.53553 3.53553
    endloop
  endfacet
  facet normal -1 -6.71435e-22 -2.22045e-16
    outer loop
      vertex -1.72408e-16 -2.89778 0.776457
      vertex -2.87347e-16 -4.82963 1.2941
      vertex -5.55112e-16 -4.33013 2.5
    endloop
  endfacet
  facet normal -1 0 -2.22044e-16
    outer loop
      vertex -2.87347e-16 -4.82963 1.2941
      vertex 0 -3 0
      vertex 0 -5 0
    endloop
  endfacet
  facet normal -0.0638352 0.381911 0.921992
    outer loop
      vertex 1 2 3.53334
      vertex 27.8865 1.03528 5.79447
      vertex 27.8865 2 5.39486
    endloop
  endfacet
  facet normal -0.0638358 0.381903 0.921995
    outer loop
      vertex 27.8865 1.03528 5.79447
      vertex 1 2 3.53334
      vertex 1 1.03528 3.93294
    endloop
  endfacet
  facet normal -0.009037 0.991404 0.130524
    outer loop
      vertex 27.8865 4 1.93076
      vertex 1 3.8637 1.10451
      vertex 27.8865 3.8637 2.96604
    endloop
  endfacet
  facet normal -0.00903703 0.991404 0.130524
    outer loop
      vertex 1 3.8637 1.10451
      vertex 27.8865 4 1.93076
      vertex 1 4 0.0692365
    endloop
  endfacet
  facet normal -0.0264863 -0.923555 0.382549
    outer loop
      vertex 1 -3.4641 2.06924
      vertex 27.8865 -3.8637 2.96604
      vertex 27.8865 -3.4641 3.93076
    endloop
  endfacet
  facet normal -0.0264862 -0.923557 0.382546
    outer loop
      vertex 27.8865 -3.8637 2.96604
      vertex 1 -3.4641 2.06924
      vertex 1 -3.8637 1.10451
    endloop
  endfacet
  facet normal -0.0548463 -0.607841 0.792162
    outer loop
      vertex 1 -2 3.53334
      vertex 27.8865 -2.82843 4.75919
      vertex 27.8865 -2 5.39486
    endloop
  endfacet
  facet normal -0.0548463 -0.607847 0.792158
    outer loop
      vertex 27.8865 -2.82843 4.75919
      vertex 1 -2 3.53334
      vertex 1 -2.82843 2.89766
    endloop
  endfacet
  facet normal -0.0684828 -0.130213 0.989118
    outer loop
      vertex 1 0 4.06924
      vertex 27.8865 -1.03528 5.79447
      vertex 27.8865 0 5.93076
    endloop
  endfacet
  facet normal -0.0684831 -0.130222 0.989117
    outer loop
      vertex 27.8865 -1.03528 5.79447
      vertex 1 0 4.06924
      vertex 1 -1.03528 3.93294
    endloop
  endfacet
  facet normal -0.0638356 -0.381911 0.921992
    outer loop
      vertex 1 -1.03528 3.93294
      vertex 27.8865 -2 5.39486
      vertex 27.8865 -1.03528 5.79447
    endloop
  endfacet
  facet normal -0.0638355 -0.381903 0.921995
    outer loop
      vertex 27.8865 -2 5.39486
      vertex 1 -1.03528 3.93294
      vertex 1 -2 3.53334
    endloop
  endfacet
  facet normal 0.068483 -0.130217 -0.989118
    outer loop
      vertex 28.8865 0 5
      vertex -6.43436e-16 0.776457 2.89778
      vertex 28.8865 0.776457 4.89778
    endloop
  endfacet
  facet normal 0.068483 -0.130217 -0.989118
    outer loop
      vertex -6.43436e-16 0.776457 2.89778
      vertex 28.8865 0 5
      vertex -6.66134e-16 0 3
    endloop
  endfacet
  facet normal 0.0421114 -0.792647 -0.608225
    outer loop
      vertex -4.71028e-16 2.12132 2.12132
      vertex 28.8865 2.59808 3.5
      vertex 28.8865 2.12132 4.12132
    endloop
  endfacet
  facet normal 0.0421114 -0.792647 -0.608225
    outer loop
      vertex 28.8865 2.59808 3.5
      vertex -4.71028e-16 2.12132 2.12132
      vertex -3.33067e-16 2.59808 1.5
    endloop
  endfacet
  facet normal 0.0548461 -0.607849 -0.792156
    outer loop
      vertex 28.8865 1.5 4.59808
      vertex -4.71028e-16 2.12132 2.12132
      vertex 28.8865 2.12132 4.12132
    endloop
  endfacet
  facet normal 0.0548461 -0.607849 -0.792156
    outer loop
      vertex -4.71028e-16 2.12132 2.12132
      vertex 28.8865 1.5 4.59808
      vertex -5.76889e-16 1.5 2.59808
    endloop
  endfacet
  facet normal 0.0264864 -0.923555 -0.382549
    outer loop
      vertex -3.33067e-16 2.59808 1.5
      vertex 28.8865 2.89778 2.77646
      vertex 28.8865 2.59808 3.5
    endloop
  endfacet
  facet normal 0.0264863 -0.923556 -0.382548
    outer loop
      vertex 28.8865 2.89778 2.77646
      vertex -3.33067e-16 2.59808 1.5
      vertex -1.72408e-16 2.89778 0.776457
    endloop
  endfacet
  facet normal 0.0421114 0.792647 -0.608225
    outer loop
      vertex 28.8865 -2.59808 3.5
      vertex -4.71028e-16 -2.12132 2.12132
      vertex 28.8865 -2.12132 4.12132
    endloop
  endfacet
  facet normal 0.0421114 0.792647 -0.608225
    outer loop
      vertex -4.71028e-16 -2.12132 2.12132
      vertex 28.8865 -2.59808 3.5
      vertex -3.33067e-16 -2.59808 1.5
    endloop
  endfacet
  facet normal 0.0638358 -0.381901 -0.921996
    outer loop
      vertex 28.8865 0.776457 4.89778
      vertex -5.76889e-16 1.5 2.59808
      vertex 28.8865 1.5 4.59808
    endloop
  endfacet
  facet normal 0.0638358 -0.381901 -0.921996
    outer loop
      vertex -5.76889e-16 1.5 2.59808
      vertex 28.8865 0.776457 4.89778
      vertex -6.43436e-16 0.776457 2.89778
    endloop
  endfacet
  facet normal 0.00903657 -0.991405 -0.130517
    outer loop
      vertex -1.72408e-16 2.89778 0.776457
      vertex 28.8865 3 2
      vertex 28.8865 2.89778 2.77646
    endloop
  endfacet
  facet normal 0.00903659 -0.991405 -0.130518
    outer loop
      vertex 28.8865 3 2
      vertex -1.72408e-16 2.89778 0.776457
      vertex 0 3 0
    endloop
  endfacet
  facet normal 0.0264864 0.923555 -0.382549
    outer loop
      vertex 28.8865 -2.89778 2.77646
      vertex -3.33067e-16 -2.59808 1.5
      vertex 28.8865 -2.59808 3.5
    endloop
  endfacet
  facet normal 0.0264863 0.923556 -0.382548
    outer loop
      vertex -3.33067e-16 -2.59808 1.5
      vertex 28.8865 -2.89778 2.77646
      vertex -1.72408e-16 -2.89778 0.776457
    endloop
  endfacet
  facet normal 0.0548461 0.607849 -0.792156
    outer loop
      vertex -4.71028e-16 -2.12132 2.12132
      vertex 28.8865 -1.5 4.59808
      vertex 28.8865 -2.12132 4.12132
    endloop
  endfacet
  facet normal 0.0548461 0.607849 -0.792156
    outer loop
      vertex 28.8865 -1.5 4.59808
      vertex -4.71028e-16 -2.12132 2.12132
      vertex -5.76889e-16 -1.5 2.59808
    endloop
  endfacet
  facet normal 0.068483 0.130217 -0.989118
    outer loop
      vertex -6.43436e-16 -0.776457 2.89778
      vertex 28.8865 0 5
      vertex 28.8865 -0.776457 4.89778
    endloop
  endfacet
  facet normal 0.068483 0.130217 -0.989118
    outer loop
      vertex 28.8865 0 5
      vertex -6.43436e-16 -0.776457 2.89778
      vertex -6.66134e-16 0 3
    endloop
  endfacet
  facet normal 0.00903657 0.991405 -0.130517
    outer loop
      vertex 28.8865 -3 2
      vertex -1.72408e-16 -2.89778 0.776457
      vertex 28.8865 -2.89778 2.77646
    endloop
  endfacet
  facet normal 0.00903659 0.991405 -0.130518
    outer loop
      vertex -1.72408e-16 -2.89778 0.776457
      vertex 28.8865 -3 2
      vertex 0 -3 0
    endloop
  endfacet
  facet normal 0.0638358 0.381901 -0.921996
    outer loop
      vertex -5.76889e-16 -1.5 2.59808
      vertex 28.8865 -0.776457 4.89778
      vertex 28.8865 -1.5 4.59808
    endloop
  endfacet
  facet normal 0.0638358 0.381901 -0.921996
    outer loop
      vertex 28.8865 -0.776457 4.89778
      vertex -5.76889e-16 -1.5 2.59808
      vertex -6.43436e-16 -0.776457 2.89778
    endloop
  endfacet
  facet normal -0.0684865 0.130219 0.989117
    outer loop
      vertex -1.07239e-15 1.2941 4.82963
      vertex 1 0 5.06924
      vertex 1 1.2941 4.89887
    endloop
  endfacet
  facet normal -0.0684865 0.130219 0.989117
    outer loop
      vertex 1 0 5.06924
      vertex -1.07239e-15 1.2941 4.82963
      vertex -1.11022e-15 0 5
    endloop
  endfacet
  facet normal -0.0264875 -0.923557 0.382546
    outer loop
      vertex -5.55112e-16 -4.33013 2.5
      vertex 1 -4.82963 1.36333
      vertex 1 -4.33013 2.56924
    endloop
  endfacet
  facet normal -0.0264839 -0.923556 0.382549
    outer loop
      vertex 1 -4.82963 1.36333
      vertex -5.55112e-16 -4.33013 2.5
      vertex -2.87347e-16 -4.82963 1.2941
    endloop
  endfacet
  facet normal -0.00903593 0.991404 0.13052
    outer loop
      vertex 1 5 0.0692365
      vertex -2.87347e-16 4.82963 1.2941
      vertex 1 4.82963 1.36333
    endloop
  endfacet
  facet normal -0.00903673 0.991405 0.13052
    outer loop
      vertex -2.87347e-16 4.82963 1.2941
      vertex 1 5 0.0692365
      vertex 0 5 0
    endloop
  endfacet
  facet normal -0.0638296 0.38191 0.921993
    outer loop
      vertex -9.61481e-16 2.5 4.33013
      vertex 1 1.2941 4.89887
      vertex 1 2.5 4.39936
    endloop
  endfacet
  facet normal -0.0638389 0.381903 0.921995
    outer loop
      vertex 1 1.2941 4.89887
      vertex -9.61481e-16 2.5 4.33013
      vertex -1.07239e-15 1.2941 4.82963
    endloop
  endfacet
  facet normal -0.0684865 -0.130219 0.989117
    outer loop
      vertex 1 0 5.06924
      vertex -1.07239e-15 -1.2941 4.82963
      vertex 1 -1.2941 4.89887
    endloop
  endfacet
  facet normal -0.0684865 -0.130219 0.989117
    outer loop
      vertex -1.07239e-15 -1.2941 4.82963
      vertex 1 0 5.06924
      vertex -1.11022e-15 0 5
    endloop
  endfacet
  facet normal -0.0421136 -0.792646 0.608226
    outer loop
      vertex -7.85046e-16 -3.53553 3.53553
      vertex 1 -4.33013 2.56924
      vertex 1 -3.53553 3.60477
    endloop
  endfacet
  facet normal -0.0421136 -0.792646 0.608226
    outer loop
      vertex 1 -4.33013 2.56924
      vertex -7.85046e-16 -3.53553 3.53553
      vertex -5.55112e-16 -4.33013 2.5
    endloop
  endfacet
  facet normal 1 0 0
    outer loop
      vertex 1 3.8637 1.10451
      vertex 1 4.82963 1.36333
      vertex 1 4.33013 2.56924
    endloop
  endfacet
  facet normal 1 0 0
    outer loop
      vertex 1 4.82963 1.36333
      vertex 1 3.8637 1.10451
      vertex 1 5 0.0692365
    endloop
  endfacet
  facet normal 1 0 0
    outer loop
      vertex 1 5 0.0692365
      vertex 1 3.8637 1.10451
      vertex 1 4 0.0692365
    endloop
  endfacet
  facet normal 1 0 0
    outer loop
      vertex 1 3.4641 2.06924
      vertex 1 4.33013 2.56924
      vertex 1 3.53553 3.60477
    endloop
  endfacet
  facet normal 1 0 0
    outer loop
      vertex 1 4.33013 2.56924
      vertex 1 3.4641 2.06924
      vertex 1 3.8637 1.10451
    endloop
  endfacet
  facet normal 1 0 0
    outer loop
      vertex 1 3.53553 3.60477
      vertex 1 2.82843 2.89766
      vertex 1 3.4641 2.06924
    endloop
  endfacet
  facet normal 1 0 0
    outer loop
      vertex 1 2.5 4.39936
      vertex 1 2.82843 2.89766
      vertex 1 3.53553 3.60477
    endloop
  endfacet
  facet normal 1 0 0
    outer loop
      vertex 1 2.5 4.39936
      vertex 1 2 3.53334
      vertex 1 2.82843 2.89766
    endloop
  endfacet
  facet normal 1 0 0
    outer loop
      vertex 1 1.2941 4.89887
      vertex 1 2 3.53334
      vertex 1 2.5 4.39936
    endloop
  endfacet
  facet normal 1 0 0
    outer loop
      vertex 1 1.2941 4.89887
      vertex 1 1.03528 3.93294
      vertex 1 2 3.53334
    endloop
  endfacet
  facet normal 1 0 0
    outer loop
      vertex 1 0 5.06924
      vertex 1 1.03528 3.93294
      vertex 1 1.2941 4.89887
    endloop
  endfacet
  facet normal 1 0 0
    outer loop
      vertex 1 0 5.06924
      vertex 1 0 4.06924
      vertex 1 1.03528 3.93294
    endloop
  endfacet
  facet normal 1 0 0
    outer loop
      vertex 1 0 5.06924
      vertex 1 -1.03528 3.93294
      vertex 1 0 4.06924
    endloop
  endfacet
  facet normal 1 -0 0
    outer loop
      vertex 1 -1.2941 4.89887
      vertex 1 -1.03528 3.93294
      vertex 1 0 5.06924
    endloop
  endfacet
  facet normal 1 0 0
    outer loop
      vertex 1 -1.2941 4.89887
      vertex 1 -2 3.53334
      vertex 1 -1.03528 3.93294
    endloop
  endfacet
  facet normal 1 -0 0
    outer loop
      vertex 1 -2.5 4.39936
      vertex 1 -2 3.53334
      vertex 1 -1.2941 4.89887
    endloop
  endfacet
  facet normal 1 0 0
    outer loop
      vertex 1 -2.5 4.39936
      vertex 1 -2.82843 2.89766
      vertex 1 -2 3.53334
    endloop
  endfacet
  facet normal 1 -0 0
    outer loop
      vertex 1 -3.53553 3.60477
      vertex 1 -2.82843 2.89766
      vertex 1 -2.5 4.39936
    endloop
  endfacet
  facet normal 1 0 0
    outer loop
      vertex 1 -2.82843 2.89766
      vertex 1 -3.53553 3.60477
      vertex 1 -3.4641 2.06924
    endloop
  endfacet
  facet normal 1 -0 0
    outer loop
      vertex 1 -4.33013 2.56924
      vertex 1 -3.4641 2.06924
      vertex 1 -3.53553 3.60477
    endloop
  endfacet
  facet normal 1 0 0
    outer loop
      vertex 1 -3.4641 2.06924
      vertex 1 -4.33013 2.56924
      vertex 1 -3.8637 1.10451
    endloop
  endfacet
  facet normal 1 -0 0
    outer loop
      vertex 1 -4.82963 1.36333
      vertex 1 -3.8637 1.10451
      vertex 1 -4.33013 2.56924
    endloop
  endfacet
  facet normal 1 0 0
    outer loop
      vertex 1 -3.8637 1.10451
      vertex 1 -4.82963 1.36333
      vertex 1 -4 0.0692365
    endloop
  endfacet
  facet normal 1 0 0
    outer loop
      vertex 1 -4 0.0692365
      vertex 1 -4.82963 1.36333
      vertex 1 -5 0.0692365
    endloop
  endfacet
  facet normal -0.0548491 0.607845 0.792159
    outer loop
      vertex -7.85046e-16 3.53553 3.53553
      vertex 1 2.5 4.39936
      vertex 1 3.53553 3.60477
    endloop
  endfacet
  facet normal -0.0548409 0.60785 0.792156
    outer loop
      vertex 1 2.5 4.39936
      vertex -7.85046e-16 3.53553 3.53553
      vertex -9.61481e-16 2.5 4.33013
    endloop
  endfacet
  facet normal -0.0264875 0.923557 0.382546
    outer loop
      vertex 1 4.82963 1.36333
      vertex -5.55111e-16 4.33013 2.5
      vertex 1 4.33013 2.56924
    endloop
  endfacet
  facet normal -0.0264839 0.923556 0.382549
    outer loop
      vertex -5.55111e-16 4.33013 2.5
      vertex 1 4.82963 1.36333
      vertex -2.87347e-16 4.82963 1.2941
    endloop
  endfacet
  facet normal -0.0421136 0.792646 0.608226
    outer loop
      vertex 1 4.33013 2.56924
      vertex -7.85046e-16 3.53553 3.53553
      vertex 1 3.53553 3.60477
    endloop
  endfacet
  facet normal -0.0421136 0.792646 0.608226
    outer loop
      vertex -7.85046e-16 3.53553 3.53553
      vertex 1 4.33013 2.56924
      vertex -5.55111e-16 4.33013 2.5
    endloop
  endfacet
  facet normal -0.00903593 -0.991404 0.13052
    outer loop
      vertex -2.87347e-16 -4.82963 1.2941
      vertex 1 -5 0.0692365
      vertex 1 -4.82963 1.36333
    endloop
  endfacet
  facet normal -0.00903673 -0.991405 0.13052
    outer loop
      vertex 1 -5 0.0692365
      vertex -2.87347e-16 -4.82963 1.2941
      vertex 0 -5 0
    endloop
  endfacet
  facet normal -0.0638296 -0.38191 0.921993
    outer loop
      vertex 1 -1.2941 4.89887
      vertex -9.61481e-16 -2.5 4.33013
      vertex 1 -2.5 4.39936
    endloop
  endfacet
  facet normal -0.0638389 -0.381903 0.921995
    outer loop
      vertex -9.61481e-16 -2.5 4.33013
      vertex 1 -1.2941 4.89887
      vertex -1.07239e-15 -1.2941 4.82963
    endloop
  endfacet
  facet normal -0.0548491 -0.607845 0.792159
    outer loop
      vertex 1 -2.5 4.39936
      vertex -7.85046e-16 -3.53553 3.53553
      vertex 1 -3.53553 3.60477
    endloop
  endfacet
  facet normal -0.0548409 -0.60785 0.792156
    outer loop
      vertex -7.85046e-16 -3.53553 3.53553
      vertex 1 -2.5 4.39936
      vertex -9.61481e-16 -2.5 4.33013
    endloop
  endfacet
  facet normal -0.0684865 0.130219 0.989117
    outer loop
      vertex 27.8865 1.2941 6.76039
      vertex 28.8865 0 7
      vertex 28.8865 1.2941 6.82963
    endloop
  endfacet
  facet normal -0.0684865 0.130219 0.989117
    outer loop
      vertex 28.8865 0 7
      vertex 27.8865 1.2941 6.76039
      vertex 27.8865 0 6.93076
    endloop
  endfacet
  facet normal -0.0264877 -0.923555 0.382549
    outer loop
      vertex 27.8865 -4.33013 4.43076
      vertex 28.8865 -4.82963 3.2941
      vertex 28.8865 -4.33013 4.5
    endloop
  endfacet
  facet normal -0.0264877 -0.923555 0.382549
    outer loop
      vertex 28.8865 -4.82963 3.2941
      vertex 27.8865 -4.33013 4.43076
      vertex 27.8865 -4.82963 3.22486
    endloop
  endfacet
  facet normal -0.00903719 0.991405 0.13052
    outer loop
      vertex 28.8865 5 2
      vertex 27.8865 4.82963 3.22486
      vertex 28.8865 4.82963 3.2941
    endloop
  endfacet
  facet normal -0.00903719 0.991405 0.13052
    outer loop
      vertex 27.8865 4.82963 3.22486
      vertex 28.8865 5 2
      vertex 27.8865 5 1.93076
    endloop
  endfacet
  facet normal -0.0638389 0.381903 0.921995
    outer loop
      vertex 27.8865 2.5 6.26089
      vertex 28.8865 1.2941 6.82963
      vertex 28.8865 2.5 6.33013
    endloop
  endfacet
  facet normal -0.0638389 0.381903 0.921995
    outer loop
      vertex 28.8865 1.2941 6.82963
      vertex 27.8865 2.5 6.26089
      vertex 27.8865 1.2941 6.76039
    endloop
  endfacet
  facet normal -0.0684865 -0.130219 0.989117
    outer loop
      vertex 27.8865 0 6.93076
      vertex 28.8865 -1.2941 6.82963
      vertex 28.8865 0 7
    endloop
  endfacet
  facet normal -0.0684865 -0.130219 0.989117
    outer loop
      vertex 28.8865 -1.2941 6.82963
      vertex 27.8865 0 6.93076
      vertex 27.8865 -1.2941 6.76039
    endloop
  endfacet
  facet normal -0.0421075 -0.792646 0.608226
    outer loop
      vertex 27.8865 -3.53553 5.4663
      vertex 28.8865 -4.33013 4.5
      vertex 28.8865 -3.53553 5.53553
    endloop
  endfacet
  facet normal -0.0421133 -0.792649 0.608222
    outer loop
      vertex 28.8865 -4.33013 4.5
      vertex 27.8865 -3.53553 5.4663
      vertex 27.8865 -4.33013 4.43076
    endloop
  endfacet
  facet normal -1 0 0
    outer loop
      vertex 27.8865 3.8637 2.96604
      vertex 27.8865 4.82963 3.22486
      vertex 27.8865 5 1.93076
    endloop
  endfacet
  facet normal -1 0 0
    outer loop
      vertex 27.8865 3.8637 2.96604
      vertex 27.8865 5 1.93076
      vertex 27.8865 4 1.93076
    endloop
  endfacet
  facet normal -1 -0 0
    outer loop
      vertex 27.8865 4.82963 3.22486
      vertex 27.8865 3.8637 2.96604
      vertex 27.8865 4.33013 4.43076
    endloop
  endfacet
  facet normal -1 0 0
    outer loop
      vertex 27.8865 3.4641 3.93076
      vertex 27.8865 4.33013 4.43076
      vertex 27.8865 3.8637 2.96604
    endloop
  endfacet
  facet normal -1 -0 0
    outer loop
      vertex 27.8865 4.33013 4.43076
      vertex 27.8865 3.4641 3.93076
      vertex 27.8865 3.53553 5.4663
    endloop
  endfacet
  facet normal -1 0 0
    outer loop
      vertex 27.8865 2.82843 4.75919
      vertex 27.8865 3.53553 5.4663
      vertex 27.8865 3.4641 3.93076
    endloop
  endfacet
  facet normal -1 0 0
    outer loop
      vertex 27.8865 2.82843 4.75919
      vertex 27.8865 2.5 6.26089
      vertex 27.8865 3.53553 5.4663
    endloop
  endfacet
  facet normal -1 0 0
    outer loop
      vertex 27.8865 2 5.39486
      vertex 27.8865 2.5 6.26089
      vertex 27.8865 2.82843 4.75919
    endloop
  endfacet
  facet normal -1 0 0
    outer loop
      vertex 27.8865 2 5.39486
      vertex 27.8865 1.2941 6.76039
      vertex 27.8865 2.5 6.26089
    endloop
  endfacet
  facet normal -1 0 0
    outer loop
      vertex 27.8865 1.03528 5.79447
      vertex 27.8865 1.2941 6.76039
      vertex 27.8865 2 5.39486
    endloop
  endfacet
  facet normal -1 0 0
    outer loop
      vertex 27.8865 0 5.93076
      vertex 27.8865 1.2941 6.76039
      vertex 27.8865 1.03528 5.79447
    endloop
  endfacet
  facet normal -1 0 0
    outer loop
      vertex 27.8865 0 5.93076
      vertex 27.8865 0 6.93076
      vertex 27.8865 1.2941 6.76039
    endloop
  endfacet
  facet normal -1 0 0
    outer loop
      vertex 27.8865 -1.03528 5.79447
      vertex 27.8865 0 6.93076
      vertex 27.8865 0 5.93076
    endloop
  endfacet
  facet normal -1 0 0
    outer loop
      vertex 27.8865 -1.03528 5.79447
      vertex 27.8865 -1.2941 6.76039
      vertex 27.8865 0 6.93076
    endloop
  endfacet
  facet normal -1 0 0
    outer loop
      vertex 27.8865 -2 5.39486
      vertex 27.8865 -1.2941 6.76039
      vertex 27.8865 -1.03528 5.79447
    endloop
  endfacet
  facet normal -1 0 0
    outer loop
      vertex 27.8865 -2 5.39486
      vertex 27.8865 -2.5 6.26089
      vertex 27.8865 -1.2941 6.76039
    endloop
  endfacet
  facet normal -1 0 0
    outer loop
      vertex 27.8865 -2.82843 4.75919
      vertex 27.8865 -2.5 6.26089
      vertex 27.8865 -2 5.39486
    endloop
  endfacet
  facet normal -1 0 0
    outer loop
      vertex 27.8865 -3.53553 5.4663
      vertex 27.8865 -2.82843 4.75919
      vertex 27.8865 -3.4641 3.93076
    endloop
  endfacet
  facet normal -1 0 0
    outer loop
      vertex 27.8865 -2.82843 4.75919
      vertex 27.8865 -3.53553 5.4663
      vertex 27.8865 -2.5 6.26089
    endloop
  endfacet
  facet normal -1 0 0
    outer loop
      vertex 27.8865 -4.33013 4.43076
      vertex 27.8865 -3.4641 3.93076
      vertex 27.8865 -3.8637 2.96604
    endloop
  endfacet
  facet normal -1 0 0
    outer loop
      vertex 27.8865 -4.82963 3.22486
      vertex 27.8865 -3.8637 2.96604
      vertex 27.8865 -4 1.93076
    endloop
  endfacet
  facet normal -1 0 0
    outer loop
      vertex 27.8865 -3.4641 3.93076
      vertex 27.8865 -4.33013 4.43076
      vertex 27.8865 -3.53553 5.4663
    endloop
  endfacet
  facet normal -1 0 0
    outer loop
      vertex 27.8865 -3.8637 2.96604
      vertex 27.8865 -4.82963 3.22486
      vertex 27.8865 -4.33013 4.43076
    endloop
  endfacet
  facet normal -1 0 -0
    outer loop
      vertex 27.8865 -4.82963 3.22486
      vertex 27.8865 -4 1.93076
      vertex 27.8865 -5 1.93076
    endloop
  endfacet
  facet normal 1 0 0
    outer loop
      vertex 28.8865 2.89778 2.77646
      vertex 28.8865 4.82963 3.2941
      vertex 28.8865 4.33013 4.5
    endloop
  endfacet
  facet normal 1 0 0
    outer loop
      vertex 28.8865 2.59808 3.5
      vertex 28.8865 4.33013 4.5
      vertex 28.8865 3.53553 5.53553
    endloop
  endfacet
  facet normal 1 0 0
    outer loop
      vertex 28.8865 4.82963 3.2941
      vertex 28.8865 2.89778 2.77646
      vertex 28.8865 5 2
    endloop
  endfacet
  facet normal 1 0 0
    outer loop
      vertex 28.8865 5 2
      vertex 28.8865 2.89778 2.77646
      vertex 28.8865 3 2
    endloop
  endfacet
  facet normal 1 0 0
    outer loop
      vertex 28.8865 4.33013 4.5
      vertex 28.8865 2.59808 3.5
      vertex 28.8865 2.89778 2.77646
    endloop
  endfacet
  facet normal 1 0 0
    outer loop
      vertex 28.8865 2.12132 4.12132
      vertex 28.8865 3.53553 5.53553
      vertex 28.8865 2.5 6.33013
    endloop
  endfacet
  facet normal 1 0 0
    outer loop
      vertex 28.8865 3.53553 5.53553
      vertex 28.8865 2.12132 4.12132
      vertex 28.8865 2.59808 3.5
    endloop
  endfacet
  facet normal 1 0 0
    outer loop
      vertex 28.8865 2.5 6.33013
      vertex 28.8865 1.5 4.59808
      vertex 28.8865 2.12132 4.12132
    endloop
  endfacet
  facet normal 1 0 0
    outer loop
      vertex 28.8865 1.2941 6.82963
      vertex 28.8865 1.5 4.59808
      vertex 28.8865 2.5 6.33013
    endloop
  endfacet
  facet normal 1 0 0
    outer loop
      vertex 28.8865 1.2941 6.82963
      vertex 28.8865 0.776457 4.89778
      vertex 28.8865 1.5 4.59808
    endloop
  endfacet
  facet normal 1 0 0
    outer loop
      vertex 28.8865 0 7
      vertex 28.8865 0.776457 4.89778
      vertex 28.8865 1.2941 6.82963
    endloop
  endfacet
  facet normal 1 0 0
    outer loop
      vertex 28.8865 0 7
      vertex 28.8865 0 5
      vertex 28.8865 0.776457 4.89778
    endloop
  endfacet
  facet normal 1 0 0
    outer loop
      vertex 28.8865 0 7
      vertex 28.8865 -0.776457 4.89778
      vertex 28.8865 0 5
    endloop
  endfacet
  facet normal 1 -0 0
    outer loop
      vertex 28.8865 -1.2941 6.82963
      vertex 28.8865 -0.776457 4.89778
      vertex 28.8865 0 7
    endloop
  endfacet
  facet normal 1 0 0
    outer loop
      vertex 28.8865 -1.2941 6.82963
      vertex 28.8865 -1.5 4.59808
      vertex 28.8865 -0.776457 4.89778
    endloop
  endfacet
  facet normal 1 -0 0
    outer loop
      vertex 28.8865 -2.5 6.33013
      vertex 28.8865 -1.5 4.59808
      vertex 28.8865 -1.2941 6.82963
    endloop
  endfacet
  facet normal 1 0 0
    outer loop
      vertex 28.8865 -1.5 4.59808
      vertex 28.8865 -2.5 6.33013
      vertex 28.8865 -2.12132 4.12132
    endloop
  endfacet
  facet normal 1 -0 0
    outer loop
      vertex 28.8865 -3.53553 5.53553
      vertex 28.8865 -2.12132 4.12132
      vertex 28.8865 -2.5 6.33013
    endloop
  endfacet
  facet normal 1 0 0
    outer loop
      vertex 28.8865 -2.12132 4.12132
      vertex 28.8865 -3.53553 5.53553
      vertex 28.8865 -2.59808 3.5
    endloop
  endfacet
  facet normal 1 -0 0
    outer loop
      vertex 28.8865 -4.33013 4.5
      vertex 28.8865 -2.59808 3.5
      vertex 28.8865 -3.53553 5.53553
    endloop
  endfacet
  facet normal 1 0 0
    outer loop
      vertex 28.8865 -2.59808 3.5
      vertex 28.8865 -4.33013 4.5
      vertex 28.8865 -2.89778 2.77646
    endloop
  endfacet
  facet normal 1 -0 0
    outer loop
      vertex 28.8865 -4.82963 3.2941
      vertex 28.8865 -2.89778 2.77646
      vertex 28.8865 -4.33013 4.5
    endloop
  endfacet
  facet normal 1 0 0
    outer loop
      vertex 28.8865 -2.89778 2.77646
      vertex 28.8865 -4.82963 3.2941
      vertex 28.8865 -3 2
    endloop
  endfacet
  facet normal 1 0 0
    outer loop
      vertex 28.8865 -3 2
      vertex 28.8865 -4.82963 3.2941
      vertex 28.8865 -5 2
    endloop
  endfacet
  facet normal -0.0548409 0.60785 0.792156
    outer loop
      vertex 27.8865 3.53553 5.4663
      vertex 28.8865 2.5 6.33013
      vertex 28.8865 3.53553 5.53553
    endloop
  endfacet
  facet normal -0.0548491 0.607845 0.792159
    outer loop
      vertex 28.8865 2.5 6.33013
      vertex 27.8865 3.53553 5.4663
      vertex 27.8865 2.5 6.26089
    endloop
  endfacet
  facet normal -0.0264877 0.923555 0.382549
    outer loop
      vertex 28.8865 4.82963 3.2941
      vertex 27.8865 4.33013 4.43076
      vertex 28.8865 4.33013 4.5
    endloop
  endfacet
  facet normal -0.0264877 0.923555 0.382549
    outer loop
      vertex 27.8865 4.33013 4.43076
      vertex 28.8865 4.82963 3.2941
      vertex 27.8865 4.82963 3.22486
    endloop
  endfacet
  facet normal -0.0421075 0.792646 0.608226
    outer loop
      vertex 28.8865 4.33013 4.5
      vertex 27.8865 3.53553 5.4663
      vertex 28.8865 3.53553 5.53553
    endloop
  endfacet
  facet normal -0.0421133 0.792649 0.608222
    outer loop
      vertex 27.8865 3.53553 5.4663
      vertex 28.8865 4.33013 4.5
      vertex 27.8865 4.33013 4.43076
    endloop
  endfacet
  facet normal -0.00903719 -0.991405 0.13052
    outer loop
      vertex 27.8865 -4.82963 3.22486
      vertex 28.8865 -5 2
      vertex 28.8865 -4.82963 3.2941
    endloop
  endfacet
  facet normal -0.00903719 -0.991405 0.13052
    outer loop
      vertex 28.8865 -5 2
      vertex 27.8865 -4.82963 3.22486
      vertex 27.8865 -5 1.93076
    endloop
  endfacet
  facet normal -0.0638389 -0.381903 0.921995
    outer loop
      vertex 27.8865 -1.2941 6.76039
      vertex 28.8865 -2.5 6.33013
      vertex 28.8865 -1.2941 6.82963
    endloop
  endfacet
  facet normal -0.0638389 -0.381903 0.921995
    outer loop
      vertex 28.8865 -2.5 6.33013
      vertex 27.8865 -1.2941 6.76039
      vertex 27.8865 -2.5 6.26089
    endloop
  endfacet
  facet normal -0.0548488 -0.60785 0.792155
    outer loop
      vertex 27.8865 -2.5 6.26089
      vertex 28.8865 -3.53553 5.53553
      vertex 28.8865 -2.5 6.33013
    endloop
  endfacet
  facet normal -0.0548412 -0.607845 0.792159
    outer loop
      vertex 28.8865 -3.53553 5.53553
      vertex 27.8865 -2.5 6.26089
      vertex 27.8865 -3.53553 5.4663
    endloop
  endfacet
  facet normal 0.0690746 0 -0.997611
    outer loop
      vertex 28.8865 3 2
      vertex 27.8865 4 1.93076
      vertex 28.8865 5 2
    endloop
  endfacet
  facet normal 0.069071 -3.62734e-06 -0.997612
    outer loop
      vertex 28.8865 3 2
      vertex 1 4 0.0692365
      vertex 27.8865 4 1.93076
    endloop
  endfacet
  facet normal 0.0690711 5.43072e-09 -0.997612
    outer loop
      vertex 0 3 0
      vertex 1 4 0.0692365
      vertex 28.8865 3 2
    endloop
  endfacet
  facet normal 0.0690711 0 -0.997612
    outer loop
      vertex 0 5 0
      vertex 1 4 0.0692365
      vertex 0 3 0
    endloop
  endfacet
  facet normal 0.0690711 0 -0.997612
    outer loop
      vertex 1 4 0.0692365
      vertex 0 5 0
      vertex 1 5 0.0692365
    endloop
  endfacet
  facet normal 0.0690746 0 -0.997611
    outer loop
      vertex 28.8865 5 2
      vertex 27.8865 4 1.93076
      vertex 27.8865 5 1.93076
    endloop
  endfacet
  facet normal 0.0690711 0 -0.997612
    outer loop
      vertex 1 -5 0.0692365
      vertex 0 -5 0
      vertex 1 -4 0.0692365
    endloop
  endfacet
  facet normal 0.0690746 0 -0.997611
    outer loop
      vertex 27.8865 -4 1.93076
      vertex 28.8865 -5 2
      vertex 27.8865 -5 1.93076
    endloop
  endfacet
  facet normal 0.0690746 0 -0.997611
    outer loop
      vertex 28.8865 -5 2
      vertex 27.8865 -4 1.93076
      vertex 28.8865 -3 2
    endloop
  endfacet
  facet normal 0.069071 3.62734e-06 -0.997612
    outer loop
      vertex 1 -4 0.0692365
      vertex 28.8865 -3 2
      vertex 27.8865 -4 1.93076
    endloop
  endfacet
  facet normal 0.0690711 -5.43072e-09 -0.997612
    outer loop
      vertex 1 -4 0.0692365
      vertex 0 -3 0
      vertex 28.8865 -3 2
    endloop
  endfacet
  facet normal 0.0690711 0 -0.997612
    outer loop
      vertex 0 -3 0
      vertex 1 -4 0.0692365
      vertex 0 -5 0
    endloop
  endfacet
endsolid OpenSCAD_Model
