solid OpenSCAD_Model
  facet normal -0 0.130529 0.991445
    outer loop
      vertex 6.1962 1.03528 3.8637
      vertex 21.5852 0 4
      vertex 21.5852 1.03528 3.8637
    endloop
  endfacet
  facet normal 0 0.130529 0.991445
    outer loop
      vertex 21.5852 0 4
      vertex 6.1962 1.03528 3.8637
      vertex 6.1962 0 4
    endloop
  endfacet
  facet normal 0 1 -0
    outer loop
      vertex 21.5852 4 0
      vertex 6.1962 4 2.22045e-16
      vertex 21.5852 4 3.63909e-15
    endloop
  endfacet
  facet normal 0 1 0
    outer loop
      vertex 6.1962 4 2.22045e-16
      vertex 21.5852 4 0
      vertex 6.1962 4 0
    endloop
  endfacet
  facet normal 0 -0.991445 0.130529
    outer loop
      vertex 6.1962 -3.8637 1.03528
      vertex 21.5852 -4 3.63909e-15
      vertex 21.5852 -3.8637 1.03528
    endloop
  endfacet
  facet normal -2.89832e-17 -0.991445 0.130529
    outer loop
      vertex 21.5852 -4 3.63909e-15
      vertex 6.1962 -3.8637 1.03528
      vertex 6.1962 -4 2.22045e-16
    endloop
  endfacet
  facet normal 0 0.793356 0.608757
    outer loop
      vertex 21.5852 3.4641 2
      vertex 6.1962 2.82843 2.82843
      vertex 21.5852 2.82843 2.82843
    endloop
  endfacet
  facet normal 0 0.793356 0.608757
    outer loop
      vertex 6.1962 2.82843 2.82843
      vertex 21.5852 3.4641 2
      vertex 6.1962 3.4641 2
    endloop
  endfacet
  facet normal -0 0.608757 0.793356
    outer loop
      vertex 6.1962 2.82843 2.82843
      vertex 21.5852 2 3.4641
      vertex 21.5852 2.82843 2.82843
    endloop
  endfacet
  facet normal 0 0.608757 0.793356
    outer loop
      vertex 21.5852 2 3.4641
      vertex 6.1962 2.82843 2.82843
      vertex 6.1962 2 3.4641
    endloop
  endfacet
  facet normal 0 0.92388 0.382683
    outer loop
      vertex 21.5852 3.8637 1.03528
      vertex 6.1962 3.4641 2
      vertex 21.5852 3.4641 2
    endloop
  endfacet
  facet normal 0 0.92388 0.382683
    outer loop
      vertex 6.1962 3.4641 2
      vertex 21.5852 3.8637 1.03528
      vertex 6.1962 3.8637 1.03528
    endloop
  endfacet
  facet normal 0 -0.793356 0.608757
    outer loop
      vertex 6.1962 -3.4641 2
      vertex 21.5852 -2.82843 2.82843
      vertex 6.1962 -2.82843 2.82843
    endloop
  endfacet
  facet normal 0 -0.793356 0.608757
    outer loop
      vertex 21.5852 -2.82843 2.82843
      vertex 6.1962 -3.4641 2
      vertex 21.5852 -3.4641 2
    endloop
  endfacet
  facet normal -1 0 0
    outer loop
      vertex 5.1962 2.89778 0.776457
      vertex 5.1962 4.82963 1.2941
      vertex 5.1962 5 0
    endloop
  endfacet
  facet normal -1 -0 0
    outer loop
      vertex 5.1962 4.82963 1.2941
      vertex 5.1962 2.89778 0.776457
      vertex 5.1962 4.33013 2.5
    endloop
  endfacet
  facet normal -1 0 0
    outer loop
      vertex 5.1962 2.89778 0.776457
      vertex 5.1962 5 0
      vertex 5.1962 3 0
    endloop
  endfacet
  facet normal -1 0 0
    outer loop
      vertex 5.1962 2.59808 1.5
      vertex 5.1962 4.33013 2.5
      vertex 5.1962 2.89778 0.776457
    endloop
  endfacet
  facet normal -1 -0 0
    outer loop
      vertex 5.1962 4.33013 2.5
      vertex 5.1962 2.59808 1.5
      vertex 5.1962 3.53553 3.53553
    endloop
  endfacet
  facet normal -1 0 0
    outer loop
      vertex 5.1962 2.12132 2.12132
      vertex 5.1962 3.53553 3.53553
      vertex 5.1962 2.59808 1.5
    endloop
  endfacet
  facet normal -1 -0 0
    outer loop
      vertex 5.1962 3.53553 3.53553
      vertex 5.1962 2.12132 2.12132
      vertex 5.1962 2.5 4.33013
    endloop
  endfacet
  facet normal -1 0 0
    outer loop
      vertex 5.1962 1.5 2.59808
      vertex 5.1962 2.5 4.33013
      vertex 5.1962 2.12132 2.12132
    endloop
  endfacet
  facet normal -1 0 0
    outer loop
      vertex 5.1962 1.5 2.59808
      vertex 5.1962 1.2941 4.82963
      vertex 5.1962 2.5 4.33013
    endloop
  endfacet
  facet normal -1 0 0
    outer loop
      vertex 5.1962 0.776457 2.89778
      vertex 5.1962 1.2941 4.82963
      vertex 5.1962 1.5 2.59808
    endloop
  endfacet
  facet normal -1 0 0
    outer loop
      vertex 5.1962 0 3
      vertex 5.1962 1.2941 4.82963
      vertex 5.1962 0.776457 2.89778
    endloop
  endfacet
  facet normal -1 0 0
    outer loop
      vertex 5.1962 0 3
      vertex 5.1962 0 5
      vertex 5.1962 1.2941 4.82963
    endloop
  endfacet
  facet normal -1 0 0
    outer loop
      vertex 5.1962 -0.776457 2.89778
      vertex 5.1962 0 5
      vertex 5.1962 0 3
    endloop
  endfacet
  facet normal -1 0 0
    outer loop
      vertex 5.1962 -0.776457 2.89778
      vertex 5.1962 -1.2941 4.82963
      vertex 5.1962 0 5
    endloop
  endfacet
  facet normal -1 0 0
    outer loop
      vertex 5.1962 -1.5 2.59808
      vertex 5.1962 -1.2941 4.82963
      vertex 5.1962 -0.776457 2.89778
    endloop
  endfacet
  facet normal -1 0 0
    outer loop
      vertex 5.1962 -2.5 4.33013
      vertex 5.1962 -1.5 2.59808
      vertex 5.1962 -2.12132 2.12132
    endloop
  endfacet
  facet normal -1 0 0
    outer loop
      vertex 5.1962 -1.5 2.59808
      vertex 5.1962 -2.5 4.33013
      vertex 5.1962 -1.2941 4.82963
    endloop
  endfacet
  facet normal -1 0 0
    outer loop
      vertex 5.1962 -3.53553 3.53553
      vertex 5.1962 -2.12132 2.12132
      vertex 5.1962 -2.59808 1.5
    endloop
  endfacet
  facet normal -1 0 0
    outer loop
      vertex 5.1962 -4.33013 2.5
      vertex 5.1962 -2.59808 1.5
      vertex 5.1962 -2.89778 0.776457
    endloop
  endfacet
  facet normal -1 0 0
    outer loop
      vertex 5.1962 -4.82963 1.2941
      vertex 5.1962 -2.89778 0.776457
      vertex 5.1962 -3 0
    endloop
  endfacet
  facet normal -1 0 0
    outer loop
      vertex 5.1962 -2.12132 2.12132
      vertex 5.1962 -3.53553 3.53553
      vertex 5.1962 -2.5 4.33013
    endloop
  endfacet
  facet normal -1 0 0
    outer loop
      vertex 5.1962 -2.59808 1.5
      vertex 5.1962 -4.33013 2.5
      vertex 5.1962 -3.53553 3.53553
    endloop
  endfacet
  facet normal -1 0 0
    outer loop
      vertex 5.1962 -2.89778 0.776457
      vertex 5.1962 -4.82963 1.2941
      vertex 5.1962 -4.33013 2.5
    endloop
  endfacet
  facet normal -1 0 -0
    outer loop
      vertex 5.1962 -4.82963 1.2941
      vertex 5.1962 -3 0
      vertex 5.1962 -5 0
    endloop
  endfacet
  facet normal -0 0.382683 0.92388
    outer loop
      vertex 6.1962 2 3.4641
      vertex 21.5852 1.03528 3.8637
      vertex 21.5852 2 3.4641
    endloop
  endfacet
  facet normal 0 0.382683 0.92388
    outer loop
      vertex 21.5852 1.03528 3.8637
      vertex 6.1962 2 3.4641
      vertex 6.1962 1.03528 3.8637
    endloop
  endfacet
  facet normal 0 0.991445 0.130529
    outer loop
      vertex 21.5852 4 3.63909e-15
      vertex 6.1962 3.8637 1.03528
      vertex 21.5852 3.8637 1.03528
    endloop
  endfacet
  facet normal -2.76357e-17 0.991445 0.130529
    outer loop
      vertex 6.1962 3.8637 1.03528
      vertex 21.5852 4 3.63909e-15
      vertex 6.1962 4 2.22045e-16
    endloop
  endfacet
  facet normal 0 -1 0
    outer loop
      vertex 6.1962 -4 0
      vertex 21.5852 -4 3.63909e-15
      vertex 6.1962 -4 2.22045e-16
    endloop
  endfacet
  facet normal 0 -1 -0
    outer loop
      vertex 21.5852 -4 3.63909e-15
      vertex 6.1962 -4 0
      vertex 21.5852 -4 0
    endloop
  endfacet
  facet normal 0 -0.92388 0.382683
    outer loop
      vertex 6.1962 -3.8637 1.03528
      vertex 21.5852 -3.4641 2
      vertex 6.1962 -3.4641 2
    endloop
  endfacet
  facet normal 0 -0.92388 0.382683
    outer loop
      vertex 21.5852 -3.4641 2
      vertex 6.1962 -3.8637 1.03528
      vertex 21.5852 -3.8637 1.03528
    endloop
  endfacet
  facet normal 0 -0.608757 0.793356
    outer loop
      vertex 6.1962 -2 3.4641
      vertex 21.5852 -2.82843 2.82843
      vertex 21.5852 -2 3.4641
    endloop
  endfacet
  facet normal 0 -0.608757 0.793356
    outer loop
      vertex 21.5852 -2.82843 2.82843
      vertex 6.1962 -2 3.4641
      vertex 6.1962 -2.82843 2.82843
    endloop
  endfacet
  facet normal 0 -0.130529 0.991445
    outer loop
      vertex 6.1962 0 4
      vertex 21.5852 -1.03528 3.8637
      vertex 21.5852 0 4
    endloop
  endfacet
  facet normal 0 -0.130529 0.991445
    outer loop
      vertex 21.5852 -1.03528 3.8637
      vertex 6.1962 0 4
      vertex 6.1962 -1.03528 3.8637
    endloop
  endfacet
  facet normal 0 -0.382683 0.92388
    outer loop
      vertex 6.1962 -1.03528 3.8637
      vertex 21.5852 -2 3.4641
      vertex 21.5852 -1.03528 3.8637
    endloop
  endfacet
  facet normal 0 -0.382683 0.92388
    outer loop
      vertex 21.5852 -2 3.4641
      vertex 6.1962 -1.03528 3.8637
      vertex 6.1962 -2 3.4641
    endloop
  endfacet
  facet normal 0 -0.130523 -0.991445
    outer loop
      vertex 5.1962 0 3
      vertex 22.5852 0.776457 2.89778
      vertex 22.5852 0 3
    endloop
  endfacet
  facet normal -0 -0.130523 -0.991445
    outer loop
      vertex 22.5852 0.776457 2.89778
      vertex 5.1962 0 3
      vertex 5.1962 0.776457 2.89778
    endloop
  endfacet
  facet normal 0 -1 0
    outer loop
      vertex 22.5852 3 0
      vertex 22.5852 3 3.86113e-15
      vertex 5.1962 3 0
    endloop
  endfacet
  facet normal 0 -0.793351 -0.608765
    outer loop
      vertex 5.1962 2.59808 1.5
      vertex 22.5852 2.12132 2.12132
      vertex 5.1962 2.12132 2.12132
    endloop
  endfacet
  facet normal 0 -0.793351 -0.608765
    outer loop
      vertex 22.5852 2.12132 2.12132
      vertex 5.1962 2.59808 1.5
      vertex 22.5852 2.59808 1.5
    endloop
  endfacet
  facet normal 0 -0.608765 -0.793351
    outer loop
      vertex 5.1962 1.5 2.59808
      vertex 22.5852 2.12132 2.12132
      vertex 22.5852 1.5 2.59808
    endloop
  endfacet
  facet normal -0 -0.608765 -0.793351
    outer loop
      vertex 22.5852 2.12132 2.12132
      vertex 5.1962 1.5 2.59808
      vertex 5.1962 2.12132 2.12132
    endloop
  endfacet
  facet normal 0 -0.92388 -0.382682
    outer loop
      vertex 5.1962 2.89778 0.776457
      vertex 22.5852 2.59808 1.5
      vertex 5.1962 2.59808 1.5
    endloop
  endfacet
  facet normal 0 -0.92388 -0.382682
    outer loop
      vertex 22.5852 2.59808 1.5
      vertex 5.1962 2.89778 0.776457
      vertex 22.5852 2.89778 0.776457
    endloop
  endfacet
  facet normal 0 0.793351 -0.608765
    outer loop
      vertex 22.5852 -2.59808 1.5
      vertex 5.1962 -2.12132 2.12132
      vertex 22.5852 -2.12132 2.12132
    endloop
  endfacet
  facet normal 0 0.793351 -0.608765
    outer loop
      vertex 5.1962 -2.12132 2.12132
      vertex 22.5852 -2.59808 1.5
      vertex 5.1962 -2.59808 1.5
    endloop
  endfacet
  facet normal 0 -0.382682 -0.92388
    outer loop
      vertex 5.1962 0.776457 2.89778
      vertex 22.5852 1.5 2.59808
      vertex 22.5852 0.776457 2.89778
    endloop
  endfacet
  facet normal -0 -0.382682 -0.92388
    outer loop
      vertex 22.5852 1.5 2.59808
      vertex 5.1962 0.776457 2.89778
      vertex 5.1962 1.5 2.59808
    endloop
  endfacet
  facet normal 0 -0.991445 -0.130523
    outer loop
      vertex 5.1962 2.89778 0.776457
      vertex 22.5852 3 3.86113e-15
      vertex 22.5852 2.89778 0.776457
    endloop
  endfacet
  facet normal 2.89819e-17 -0.991445 -0.130523
    outer loop
      vertex 22.5852 3 3.86113e-15
      vertex 5.1962 2.89778 0.776457
      vertex 5.1962 3 0
    endloop
  endfacet
  facet normal 0 1 0
    outer loop
      vertex 22.5852 -3 3.86113e-15
      vertex 22.5852 -3 0
      vertex 5.1962 -3 0
    endloop
  endfacet
  facet normal 0 0.92388 -0.382682
    outer loop
      vertex 22.5852 -2.89778 0.776457
      vertex 5.1962 -2.59808 1.5
      vertex 22.5852 -2.59808 1.5
    endloop
  endfacet
  facet normal 0 0.92388 -0.382682
    outer loop
      vertex 5.1962 -2.59808 1.5
      vertex 22.5852 -2.89778 0.776457
      vertex 5.1962 -2.89778 0.776457
    endloop
  endfacet
  facet normal 0 0.608765 -0.793351
    outer loop
      vertex 5.1962 -2.12132 2.12132
      vertex 22.5852 -1.5 2.59808
      vertex 22.5852 -2.12132 2.12132
    endloop
  endfacet
  facet normal 0 0.608765 -0.793351
    outer loop
      vertex 22.5852 -1.5 2.59808
      vertex 5.1962 -2.12132 2.12132
      vertex 5.1962 -1.5 2.59808
    endloop
  endfacet
  facet normal 0 0.130523 -0.991445
    outer loop
      vertex 5.1962 -0.776457 2.89778
      vertex 22.5852 0 3
      vertex 22.5852 -0.776457 2.89778
    endloop
  endfacet
  facet normal 0 0.130523 -0.991445
    outer loop
      vertex 22.5852 0 3
      vertex 5.1962 -0.776457 2.89778
      vertex 5.1962 0 3
    endloop
  endfacet
  facet normal 0 0.991445 -0.130523
    outer loop
      vertex 22.5852 -3 3.86113e-15
      vertex 5.1962 -2.89778 0.776457
      vertex 22.5852 -2.89778 0.776457
    endloop
  endfacet
  facet normal 2.95526e-17 0.991445 -0.130523
    outer loop
      vertex 5.1962 -2.89778 0.776457
      vertex 22.5852 -3 3.86113e-15
      vertex 5.1962 -3 0
    endloop
  endfacet
  facet normal 0 0.382682 -0.92388
    outer loop
      vertex 5.1962 -1.5 2.59808
      vertex 22.5852 -0.776457 2.89778
      vertex 22.5852 -1.5 2.59808
    endloop
  endfacet
  facet normal 0 0.382682 -0.92388
    outer loop
      vertex 22.5852 -0.776457 2.89778
      vertex 5.1962 -1.5 2.59808
      vertex 5.1962 -0.776457 2.89778
    endloop
  endfacet
  facet normal -0 0.130525 0.991445
    outer loop
      vertex 5.1962 1.2941 4.82963
      vertex 6.1962 0 5
      vertex 6.1962 1.2941 4.82963
    endloop
  endfacet
  facet normal 0 0.130525 0.991445
    outer loop
      vertex 6.1962 0 5
      vertex 5.1962 1.2941 4.82963
      vertex 5.1962 0 5
    endloop
  endfacet
  facet normal 0 -0.92388 0.382683
    outer loop
      vertex 5.1962 -4.82963 1.2941
      vertex 6.1962 -4.33013 2.5
      vertex 5.1962 -4.33013 2.5
    endloop
  endfacet
  facet normal 0 -0.92388 0.382683
    outer loop
      vertex 6.1962 -4.33013 2.5
      vertex 5.1962 -4.82963 1.2941
      vertex 6.1962 -4.82963 1.2941
    endloop
  endfacet
  facet normal 0 0.991445 0.130525
    outer loop
      vertex 6.1962 5 2.22045e-16
      vertex 5.1962 4.82963 1.2941
      vertex 6.1962 4.82963 1.2941
    endloop
  endfacet
  facet normal -4.25286e-17 0.991445 0.130525
    outer loop
      vertex 5.1962 4.82963 1.2941
      vertex 6.1962 5 2.22045e-16
      vertex 5.1962 5 0
    endloop
  endfacet
  facet normal -0 0.382683 0.92388
    outer loop
      vertex 5.1962 2.5 4.33013
      vertex 6.1962 1.2941 4.82963
      vertex 6.1962 2.5 4.33013
    endloop
  endfacet
  facet normal 0 0.382683 0.92388
    outer loop
      vertex 6.1962 1.2941 4.82963
      vertex 5.1962 2.5 4.33013
      vertex 5.1962 1.2941 4.82963
    endloop
  endfacet
  facet normal 0 -0.130525 0.991445
    outer loop
      vertex 5.1962 0 5
      vertex 6.1962 -1.2941 4.82963
      vertex 6.1962 0 5
    endloop
  endfacet
  facet normal 0 -0.130525 0.991445
    outer loop
      vertex 6.1962 -1.2941 4.82963
      vertex 5.1962 0 5
      vertex 5.1962 -1.2941 4.82963
    endloop
  endfacet
  facet normal 0 -0.79335 0.608766
    outer loop
      vertex 5.1962 -4.33013 2.5
      vertex 6.1962 -3.53553 3.53553
      vertex 5.1962 -3.53553 3.53553
    endloop
  endfacet
  facet normal 0 -0.79335 0.608766
    outer loop
      vertex 6.1962 -3.53553 3.53553
      vertex 5.1962 -4.33013 2.5
      vertex 6.1962 -4.33013 2.5
    endloop
  endfacet
  facet normal 0 1 -0
    outer loop
      vertex 6.1962 5 0
      vertex 5.1962 5 0
      vertex 6.1962 5 2.22045e-16
    endloop
  endfacet
  facet normal 1 0 0
    outer loop
      vertex 6.1962 4.82963 1.2941
      vertex 6.1962 3.8637 1.03528
      vertex 6.1962 4 2.22045e-16
    endloop
  endfacet
  facet normal 1 0 0
    outer loop
      vertex 6.1962 3.4641 2
      vertex 6.1962 4.33013 2.5
      vertex 6.1962 3.53553 3.53553
    endloop
  endfacet
  facet normal 1 0 0
    outer loop
      vertex 6.1962 4.33013 2.5
      vertex 6.1962 3.4641 2
      vertex 6.1962 3.8637 1.03528
    endloop
  endfacet
  facet normal 1 0 0
    outer loop
      vertex 6.1962 3.53553 3.53553
      vertex 6.1962 2.82843 2.82843
      vertex 6.1962 3.4641 2
    endloop
  endfacet
  facet normal 1 0 0
    outer loop
      vertex 6.1962 2.5 4.33013
      vertex 6.1962 2.82843 2.82843
      vertex 6.1962 3.53553 3.53553
    endloop
  endfacet
  facet normal 1 0 0
    outer loop
      vertex 6.1962 2.5 4.33013
      vertex 6.1962 2 3.4641
      vertex 6.1962 2.82843 2.82843
    endloop
  endfacet
  facet normal 1 0 0
    outer loop
      vertex 6.1962 1.2941 4.82963
      vertex 6.1962 2 3.4641
      vertex 6.1962 2.5 4.33013
    endloop
  endfacet
  facet normal 1 0 0
    outer loop
      vertex 6.1962 1.2941 4.82963
      vertex 6.1962 1.03528 3.8637
      vertex 6.1962 2 3.4641
    endloop
  endfacet
  facet normal 1 0 0
    outer loop
      vertex 6.1962 0 5
      vertex 6.1962 1.03528 3.8637
      vertex 6.1962 1.2941 4.82963
    endloop
  endfacet
  facet normal 1 0 0
    outer loop
      vertex 6.1962 0 5
      vertex 6.1962 0 4
      vertex 6.1962 1.03528 3.8637
    endloop
  endfacet
  facet normal 1 0 0
    outer loop
      vertex 6.1962 0 5
      vertex 6.1962 -1.03528 3.8637
      vertex 6.1962 0 4
    endloop
  endfacet
  facet normal 1 -0 0
    outer loop
      vertex 6.1962 -1.2941 4.82963
      vertex 6.1962 -1.03528 3.8637
      vertex 6.1962 0 5
    endloop
  endfacet
  facet normal 1 0 0
    outer loop
      vertex 6.1962 -1.2941 4.82963
      vertex 6.1962 -2 3.4641
      vertex 6.1962 -1.03528 3.8637
    endloop
  endfacet
  facet normal 1 -0 0
    outer loop
      vertex 6.1962 -2.5 4.33013
      vertex 6.1962 -2 3.4641
      vertex 6.1962 -1.2941 4.82963
    endloop
  endfacet
  facet normal 1 0 0
    outer loop
      vertex 6.1962 -2.5 4.33013
      vertex 6.1962 -2.82843 2.82843
      vertex 6.1962 -2 3.4641
    endloop
  endfacet
  facet normal 1 -0 0
    outer loop
      vertex 6.1962 -3.53553 3.53553
      vertex 6.1962 -2.82843 2.82843
      vertex 6.1962 -2.5 4.33013
    endloop
  endfacet
  facet normal 1 0 0
    outer loop
      vertex 6.1962 -2.82843 2.82843
      vertex 6.1962 -3.53553 3.53553
      vertex 6.1962 -3.4641 2
    endloop
  endfacet
  facet normal 1 -0 0
    outer loop
      vertex 6.1962 -4.33013 2.5
      vertex 6.1962 -3.4641 2
      vertex 6.1962 -3.53553 3.53553
    endloop
  endfacet
  facet normal 1 0 0
    outer loop
      vertex 6.1962 -3.4641 2
      vertex 6.1962 -4.33013 2.5
      vertex 6.1962 -3.8637 1.03528
    endloop
  endfacet
  facet normal 1 -0 0
    outer loop
      vertex 6.1962 -4.82963 1.2941
      vertex 6.1962 -3.8637 1.03528
      vertex 6.1962 -4.33013 2.5
    endloop
  endfacet
  facet normal 1 0 0
    outer loop
      vertex 6.1962 -3.8637 1.03528
      vertex 6.1962 -4.82963 1.2941
      vertex 6.1962 -4 2.22045e-16
    endloop
  endfacet
  facet normal 1 0 0
    outer loop
      vertex 6.1962 -5 2.22045e-16
      vertex 6.1962 -4 2.22045e-16
      vertex 6.1962 -4.82963 1.2941
    endloop
  endfacet
  facet normal 1 0 0
    outer loop
      vertex 6.1962 -4 2.22045e-16
      vertex 6.1962 -5 2.22045e-16
      vertex 6.1962 -4 0
    endloop
  endfacet
  facet normal 1 0 0
    outer loop
      vertex 6.1962 -4 0
      vertex 6.1962 -5 2.22045e-16
      vertex 6.1962 -5 0
    endloop
  endfacet
  facet normal 1 0 0
    outer loop
      vertex 6.1962 4 2.22045e-16
      vertex 6.1962 5 2.22045e-16
      vertex 6.1962 4.82963 1.2941
    endloop
  endfacet
  facet normal 1 0 0
    outer loop
      vertex 6.1962 3.8637 1.03528
      vertex 6.1962 4.82963 1.2941
      vertex 6.1962 4.33013 2.5
    endloop
  endfacet
  facet normal 1 0 0
    outer loop
      vertex 6.1962 5 2.22045e-16
      vertex 6.1962 4 2.22045e-16
      vertex 6.1962 5 0
    endloop
  endfacet
  facet normal 1 0 0
    outer loop
      vertex 6.1962 5 0
      vertex 6.1962 4 2.22045e-16
      vertex 6.1962 4 0
    endloop
  endfacet
  facet normal -0 0.608766 0.79335
    outer loop
      vertex 5.1962 3.53553 3.53553
      vertex 6.1962 2.5 4.33013
      vertex 6.1962 3.53553 3.53553
    endloop
  endfacet
  facet normal 0 0.608766 0.79335
    outer loop
      vertex 6.1962 2.5 4.33013
      vertex 5.1962 3.53553 3.53553
      vertex 5.1962 2.5 4.33013
    endloop
  endfacet
  facet normal 0 0.92388 0.382683
    outer loop
      vertex 6.1962 4.82963 1.2941
      vertex 5.1962 4.33013 2.5
      vertex 6.1962 4.33013 2.5
    endloop
  endfacet
  facet normal 0 0.92388 0.382683
    outer loop
      vertex 5.1962 4.33013 2.5
      vertex 6.1962 4.82963 1.2941
      vertex 5.1962 4.82963 1.2941
    endloop
  endfacet
  facet normal 0 0.79335 0.608766
    outer loop
      vertex 6.1962 4.33013 2.5
      vertex 5.1962 3.53553 3.53553
      vertex 6.1962 3.53553 3.53553
    endloop
  endfacet
  facet normal 0 0.79335 0.608766
    outer loop
      vertex 5.1962 3.53553 3.53553
      vertex 6.1962 4.33013 2.5
      vertex 5.1962 4.33013 2.5
    endloop
  endfacet
  facet normal 0 -1 -0
    outer loop
      vertex 6.1962 -5 2.22045e-16
      vertex 5.1962 -5 0
      vertex 6.1962 -5 0
    endloop
  endfacet
  facet normal 0 -0.991445 0.130525
    outer loop
      vertex 5.1962 -4.82963 1.2941
      vertex 6.1962 -5 2.22045e-16
      vertex 6.1962 -4.82963 1.2941
    endloop
  endfacet
  facet normal -2.89824e-17 -0.991445 0.130525
    outer loop
      vertex 6.1962 -5 2.22045e-16
      vertex 5.1962 -4.82963 1.2941
      vertex 5.1962 -5 0
    endloop
  endfacet
  facet normal 0 -0.382683 0.92388
    outer loop
      vertex 5.1962 -1.2941 4.82963
      vertex 6.1962 -2.5 4.33013
      vertex 6.1962 -1.2941 4.82963
    endloop
  endfacet
  facet normal 0 -0.382683 0.92388
    outer loop
      vertex 6.1962 -2.5 4.33013
      vertex 5.1962 -1.2941 4.82963
      vertex 5.1962 -2.5 4.33013
    endloop
  endfacet
  facet normal 0 -0.608766 0.79335
    outer loop
      vertex 5.1962 -2.5 4.33013
      vertex 6.1962 -3.53553 3.53553
      vertex 6.1962 -2.5 4.33013
    endloop
  endfacet
  facet normal 0 -0.608766 0.79335
    outer loop
      vertex 6.1962 -3.53553 3.53553
      vertex 5.1962 -2.5 4.33013
      vertex 5.1962 -3.53553 3.53553
    endloop
  endfacet
  facet normal -0 0.130525 0.991445
    outer loop
      vertex 21.5852 1.2941 4.82963
      vertex 22.5852 0 5
      vertex 22.5852 1.2941 4.82963
    endloop
  endfacet
  facet normal 0 0.130525 0.991445
    outer loop
      vertex 22.5852 0 5
      vertex 21.5852 1.2941 4.82963
      vertex 21.5852 0 5
    endloop
  endfacet
  facet normal 0 -0.92388 0.382683
    outer loop
      vertex 21.5852 -4.82963 1.2941
      vertex 22.5852 -4.33013 2.5
      vertex 21.5852 -4.33013 2.5
    endloop
  endfacet
  facet normal 0 -0.92388 0.382683
    outer loop
      vertex 22.5852 -4.33013 2.5
      vertex 21.5852 -4.82963 1.2941
      vertex 22.5852 -4.82963 1.2941
    endloop
  endfacet
  facet normal 0 0.991445 0.130525
    outer loop
      vertex 22.5852 5 3.86113e-15
      vertex 21.5852 4.82963 1.2941
      vertex 22.5852 4.82963 1.2941
    endloop
  endfacet
  facet normal -2.12643e-17 0.991445 0.130525
    outer loop
      vertex 21.5852 4.82963 1.2941
      vertex 22.5852 5 3.86113e-15
      vertex 21.5852 5 3.63909e-15
    endloop
  endfacet
  facet normal -0 0.382683 0.92388
    outer loop
      vertex 21.5852 2.5 4.33013
      vertex 22.5852 1.2941 4.82963
      vertex 22.5852 2.5 4.33013
    endloop
  endfacet
  facet normal 0 0.382683 0.92388
    outer loop
      vertex 22.5852 1.2941 4.82963
      vertex 21.5852 2.5 4.33013
      vertex 21.5852 1.2941 4.82963
    endloop
  endfacet
  facet normal 0 -0.130525 0.991445
    outer loop
      vertex 21.5852 0 5
      vertex 22.5852 -1.2941 4.82963
      vertex 22.5852 0 5
    endloop
  endfacet
  facet normal 0 -0.130525 0.991445
    outer loop
      vertex 22.5852 -1.2941 4.82963
      vertex 21.5852 0 5
      vertex 21.5852 -1.2941 4.82963
    endloop
  endfacet
  facet normal 0 -0.79335 0.608766
    outer loop
      vertex 21.5852 -4.33013 2.5
      vertex 22.5852 -3.53553 3.53553
      vertex 21.5852 -3.53553 3.53553
    endloop
  endfacet
  facet normal 0 -0.79335 0.608766
    outer loop
      vertex 22.5852 -3.53553 3.53553
      vertex 21.5852 -4.33013 2.5
      vertex 22.5852 -4.33013 2.5
    endloop
  endfacet
  facet normal -1 0 0
    outer loop
      vertex 21.5852 -5 3.63909e-15
      vertex 21.5852 -4 3.63909e-15
      vertex 21.5852 -4 0
    endloop
  endfacet
  facet normal -1 0 0
    outer loop
      vertex 21.5852 -4 3.63909e-15
      vertex 21.5852 -4.82963 1.2941
      vertex 21.5852 -4.33013 2.5
    endloop
  endfacet
  facet normal -1 0 0
    outer loop
      vertex 21.5852 -5 3.63909e-15
      vertex 21.5852 -4 0
      vertex 21.5852 -5 0
    endloop
  endfacet
  facet normal -1 0 0
    outer loop
      vertex 21.5852 -4 3.63909e-15
      vertex 21.5852 -5 3.63909e-15
      vertex 21.5852 -4.82963 1.2941
    endloop
  endfacet
  facet normal -1 0 0
    outer loop
      vertex 21.5852 4 3.63909e-15
      vertex 21.5852 5 3.63909e-15
      vertex 21.5852 5 0
    endloop
  endfacet
  facet normal -1 0 0
    outer loop
      vertex 21.5852 5 3.63909e-15
      vertex 21.5852 3.8637 1.03528
      vertex 21.5852 4.82963 1.2941
    endloop
  endfacet
  facet normal -1 0 0
    outer loop
      vertex 21.5852 4 3.63909e-15
      vertex 21.5852 5 0
      vertex 21.5852 4 0
    endloop
  endfacet
  facet normal -1 0 0
    outer loop
      vertex 21.5852 5 3.63909e-15
      vertex 21.5852 4 3.63909e-15
      vertex 21.5852 3.8637 1.03528
    endloop
  endfacet
  facet normal -1 -0 0
    outer loop
      vertex 21.5852 4.82963 1.2941
      vertex 21.5852 3.8637 1.03528
      vertex 21.5852 4.33013 2.5
    endloop
  endfacet
  facet normal -1 0 0
    outer loop
      vertex 21.5852 3.4641 2
      vertex 21.5852 4.33013 2.5
      vertex 21.5852 3.8637 1.03528
    endloop
  endfacet
  facet normal -1 -0 0
    outer loop
      vertex 21.5852 4.33013 2.5
      vertex 21.5852 3.4641 2
      vertex 21.5852 3.53553 3.53553
    endloop
  endfacet
  facet normal -1 0 0
    outer loop
      vertex 21.5852 2.82843 2.82843
      vertex 21.5852 3.53553 3.53553
      vertex 21.5852 3.4641 2
    endloop
  endfacet
  facet normal -1 0 0
    outer loop
      vertex 21.5852 2.82843 2.82843
      vertex 21.5852 2.5 4.33013
      vertex 21.5852 3.53553 3.53553
    endloop
  endfacet
  facet normal -1 0 0
    outer loop
      vertex 21.5852 2 3.4641
      vertex 21.5852 2.5 4.33013
      vertex 21.5852 2.82843 2.82843
    endloop
  endfacet
  facet normal -1 0 0
    outer loop
      vertex 21.5852 2 3.4641
      vertex 21.5852 1.2941 4.82963
      vertex 21.5852 2.5 4.33013
    endloop
  endfacet
  facet normal -1 0 0
    outer loop
      vertex 21.5852 1.03528 3.8637
      vertex 21.5852 1.2941 4.82963
      vertex 21.5852 2 3.4641
    endloop
  endfacet
  facet normal -1 0 0
    outer loop
      vertex 21.5852 0 4
      vertex 21.5852 1.2941 4.82963
      vertex 21.5852 1.03528 3.8637
    endloop
  endfacet
  facet normal -1 0 0
    outer loop
      vertex 21.5852 0 4
      vertex 21.5852 0 5
      vertex 21.5852 1.2941 4.82963
    endloop
  endfacet
  facet normal -1 0 0
    outer loop
      vertex 21.5852 -1.03528 3.8637
      vertex 21.5852 0 5
      vertex 21.5852 0 4
    endloop
  endfacet
  facet normal -1 0 0
    outer loop
      vertex 21.5852 -1.03528 3.8637
      vertex 21.5852 -1.2941 4.82963
      vertex 21.5852 0 5
    endloop
  endfacet
  facet normal -1 0 0
    outer loop
      vertex 21.5852 -2 3.4641
      vertex 21.5852 -1.2941 4.82963
      vertex 21.5852 -1.03528 3.8637
    endloop
  endfacet
  facet normal -1 0 0
    outer loop
      vertex 21.5852 -2 3.4641
      vertex 21.5852 -2.5 4.33013
      vertex 21.5852 -1.2941 4.82963
    endloop
  endfacet
  facet normal -1 0 0
    outer loop
      vertex 21.5852 -2.82843 2.82843
      vertex 21.5852 -2.5 4.33013
      vertex 21.5852 -2 3.4641
    endloop
  endfacet
  facet normal -1 0 0
    outer loop
      vertex 21.5852 -3.53553 3.53553
      vertex 21.5852 -2.82843 2.82843
      vertex 21.5852 -3.4641 2
    endloop
  endfacet
  facet normal -1 0 0
    outer loop
      vertex 21.5852 -2.82843 2.82843
      vertex 21.5852 -3.53553 3.53553
      vertex 21.5852 -2.5 4.33013
    endloop
  endfacet
  facet normal -1 0 0
    outer loop
      vertex 21.5852 -4.33013 2.5
      vertex 21.5852 -3.4641 2
      vertex 21.5852 -3.8637 1.03528
    endloop
  endfacet
  facet normal -1 0 0
    outer loop
      vertex 21.5852 -4.33013 2.5
      vertex 21.5852 -3.8637 1.03528
      vertex 21.5852 -4 3.63909e-15
    endloop
  endfacet
  facet normal -1 0 0
    outer loop
      vertex 21.5852 -3.4641 2
      vertex 21.5852 -4.33013 2.5
      vertex 21.5852 -3.53553 3.53553
    endloop
  endfacet
  facet normal 0 1 -0
    outer loop
      vertex 22.5852 5 0
      vertex 21.5852 5 3.63909e-15
      vertex 22.5852 5 3.86113e-15
    endloop
  endfacet
  facet normal 0 1 0
    outer loop
      vertex 21.5852 5 3.63909e-15
      vertex 22.5852 5 0
      vertex 21.5852 5 0
    endloop
  endfacet
  facet normal 1 0 0
    outer loop
      vertex 22.5852 4.82963 1.2941
      vertex 22.5852 2.89778 0.776457
      vertex 22.5852 3 3.86113e-15
    endloop
  endfacet
  facet normal 1 0 0
    outer loop
      vertex 22.5852 4.33013 2.5
      vertex 22.5852 2.59808 1.5
      vertex 22.5852 2.89778 0.776457
    endloop
  endfacet
  facet normal 1 0 0
    outer loop
      vertex 22.5852 2.12132 2.12132
      vertex 22.5852 3.53553 3.53553
      vertex 22.5852 2.5 4.33013
    endloop
  endfacet
  facet normal 1 0 0
    outer loop
      vertex 22.5852 3.53553 3.53553
      vertex 22.5852 2.12132 2.12132
      vertex 22.5852 2.59808 1.5
    endloop
  endfacet
  facet normal 1 0 0
    outer loop
      vertex 22.5852 2.5 4.33013
      vertex 22.5852 1.5 2.59808
      vertex 22.5852 2.12132 2.12132
    endloop
  endfacet
  facet normal 1 0 0
    outer loop
      vertex 22.5852 1.2941 4.82963
      vertex 22.5852 1.5 2.59808
      vertex 22.5852 2.5 4.33013
    endloop
  endfacet
  facet normal 1 0 0
    outer loop
      vertex 22.5852 1.2941 4.82963
      vertex 22.5852 0.776457 2.89778
      vertex 22.5852 1.5 2.59808
    endloop
  endfacet
  facet normal 1 0 0
    outer loop
      vertex 22.5852 0 5
      vertex 22.5852 0.776457 2.89778
      vertex 22.5852 1.2941 4.82963
    endloop
  endfacet
  facet normal 1 0 0
    outer loop
      vertex 22.5852 0 5
      vertex 22.5852 0 3
      vertex 22.5852 0.776457 2.89778
    endloop
  endfacet
  facet normal 1 0 0
    outer loop
      vertex 22.5852 0 5
      vertex 22.5852 -0.776457 2.89778
      vertex 22.5852 0 3
    endloop
  endfacet
  facet normal 1 -0 0
    outer loop
      vertex 22.5852 -1.2941 4.82963
      vertex 22.5852 -0.776457 2.89778
      vertex 22.5852 0 5
    endloop
  endfacet
  facet normal 1 0 0
    outer loop
      vertex 22.5852 -1.2941 4.82963
      vertex 22.5852 -1.5 2.59808
      vertex 22.5852 -0.776457 2.89778
    endloop
  endfacet
  facet normal 1 -0 0
    outer loop
      vertex 22.5852 -2.5 4.33013
      vertex 22.5852 -1.5 2.59808
      vertex 22.5852 -1.2941 4.82963
    endloop
  endfacet
  facet normal 1 0 0
    outer loop
      vertex 22.5852 -1.5 2.59808
      vertex 22.5852 -2.5 4.33013
      vertex 22.5852 -2.12132 2.12132
    endloop
  endfacet
  facet normal 1 -0 0
    outer loop
      vertex 22.5852 -3.53553 3.53553
      vertex 22.5852 -2.12132 2.12132
      vertex 22.5852 -2.5 4.33013
    endloop
  endfacet
  facet normal 1 0 0
    outer loop
      vertex 22.5852 -2.12132 2.12132
      vertex 22.5852 -3.53553 3.53553
      vertex 22.5852 -2.59808 1.5
    endloop
  endfacet
  facet normal 1 -0 0
    outer loop
      vertex 22.5852 -4.33013 2.5
      vertex 22.5852 -2.59808 1.5
      vertex 22.5852 -3.53553 3.53553
    endloop
  endfacet
  facet normal 1 0 0
    outer loop
      vertex 22.5852 -2.59808 1.5
      vertex 22.5852 -4.33013 2.5
      vertex 22.5852 -2.89778 0.776457
    endloop
  endfacet
  facet normal 1 -0 0
    outer loop
      vertex 22.5852 -4.82963 1.2941
      vertex 22.5852 -2.89778 0.776457
      vertex 22.5852 -4.33013 2.5
    endloop
  endfacet
  facet normal 1 0 0
    outer loop
      vertex 22.5852 -2.89778 0.776457
      vertex 22.5852 -4.82963 1.2941
      vertex 22.5852 -3 3.86113e-15
    endloop
  endfacet
  facet normal 1 0 0
    outer loop
      vertex 22.5852 -5 3.86113e-15
      vertex 22.5852 -3 3.86113e-15
      vertex 22.5852 -4.82963 1.2941
    endloop
  endfacet
  facet normal 1 0 0
    outer loop
      vertex 22.5852 -3 3.86113e-15
      vertex 22.5852 -5 3.86113e-15
      vertex 22.5852 -3 0
    endloop
  endfacet
  facet normal 1 0 0
    outer loop
      vertex 22.5852 -3 0
      vertex 22.5852 -5 3.86113e-15
      vertex 22.5852 -5 0
    endloop
  endfacet
  facet normal 1 0 0
    outer loop
      vertex 22.5852 3 3.86113e-15
      vertex 22.5852 5 3.86113e-15
      vertex 22.5852 4.82963 1.2941
    endloop
  endfacet
  facet normal 1 0 0
    outer loop
      vertex 22.5852 2.89778 0.776457
      vertex 22.5852 4.82963 1.2941
      vertex 22.5852 4.33013 2.5
    endloop
  endfacet
  facet normal 1 0 0
    outer loop
      vertex 22.5852 2.59808 1.5
      vertex 22.5852 4.33013 2.5
      vertex 22.5852 3.53553 3.53553
    endloop
  endfacet
  facet normal 1 0 0
    outer loop
      vertex 22.5852 5 3.86113e-15
      vertex 22.5852 3 3.86113e-15
      vertex 22.5852 5 0
    endloop
  endfacet
  facet normal 1 0 0
    outer loop
      vertex 22.5852 5 0
      vertex 22.5852 3 3.86113e-15
      vertex 22.5852 3 0
    endloop
  endfacet
  facet normal -0 0.608766 0.79335
    outer loop
      vertex 21.5852 3.53553 3.53553
      vertex 22.5852 2.5 4.33013
      vertex 22.5852 3.53553 3.53553
    endloop
  endfacet
  facet normal 0 0.608766 0.79335
    outer loop
      vertex 22.5852 2.5 4.33013
      vertex 21.5852 3.53553 3.53553
      vertex 21.5852 2.5 4.33013
    endloop
  endfacet
  facet normal 0 0.92388 0.382683
    outer loop
      vertex 22.5852 4.82963 1.2941
      vertex 21.5852 4.33013 2.5
      vertex 22.5852 4.33013 2.5
    endloop
  endfacet
  facet normal 0 0.92388 0.382683
    outer loop
      vertex 21.5852 4.33013 2.5
      vertex 22.5852 4.82963 1.2941
      vertex 21.5852 4.82963 1.2941
    endloop
  endfacet
  facet normal 0 0.79335 0.608766
    outer loop
      vertex 22.5852 4.33013 2.5
      vertex 21.5852 3.53553 3.53553
      vertex 22.5852 3.53553 3.53553
    endloop
  endfacet
  facet normal 0 0.79335 0.608766
    outer loop
      vertex 21.5852 3.53553 3.53553
      vertex 22.5852 4.33013 2.5
      vertex 21.5852 4.33013 2.5
    endloop
  endfacet
  facet normal 0 -1 0
    outer loop
      vertex 21.5852 -5 0
      vertex 22.5852 -5 3.86113e-15
      vertex 21.5852 -5 3.63909e-15
    endloop
  endfacet
  facet normal 0 -1 -0
    outer loop
      vertex 22.5852 -5 3.86113e-15
      vertex 21.5852 -5 0
      vertex 22.5852 -5 0
    endloop
  endfacet
  facet normal 0 -0.991445 0.130525
    outer loop
      vertex 21.5852 -4.82963 1.2941
      vertex 22.5852 -5 3.86113e-15
      vertex 22.5852 -4.82963 1.2941
    endloop
  endfacet
  facet normal -2.89818e-17 -0.991445 0.130525
    outer loop
      vertex 22.5852 -5 3.86113e-15
      vertex 21.5852 -4.82963 1.2941
      vertex 21.5852 -5 3.63909e-15
    endloop
  endfacet
  facet normal 0 -0.382683 0.92388
    outer loop
      vertex 21.5852 -1.2941 4.82963
      vertex 22.5852 -2.5 4.33013
      vertex 22.5852 -1.2941 4.82963
    endloop
  endfacet
  facet normal 0 -0.382683 0.92388
    outer loop
      vertex 22.5852 -2.5 4.33013
      vertex 21.5852 -1.2941 4.82963
      vertex 21.5852 -2.5 4.33013
    endloop
  endfacet
  facet normal 0 -0.608766 0.79335
    outer loop
      vertex 21.5852 -2.5 4.33013
      vertex 22.5852 -3.53553 3.53553
      vertex 22.5852 -2.5 4.33013
    endloop
  endfacet
  facet normal 0 -0.608766 0.79335
    outer loop
      vertex 22.5852 -3.53553 3.53553
      vertex 21.5852 -2.5 4.33013
      vertex 21.5852 -3.53553 3.53553
    endloop
  endfacet
  facet normal 0 0 -1
    outer loop
      vertex 22.5852 3 0
      vertex 21.5852 4 0
      vertex 22.5852 5 0
    endloop
  endfacet
  facet normal 0 0 -1
    outer loop
      vertex 22.5852 3 0
      vertex 6.1962 4 0
      vertex 21.5852 4 0
    endloop
  endfacet
  facet normal 0 0 -1
    outer loop
      vertex 5.1962 3 0
      vertex 6.1962 4 0
      vertex 22.5852 3 0
    endloop
  endfacet
  facet normal 0 0 -1
    outer loop
      vertex 5.1962 5 0
      vertex 6.1962 4 0
      vertex 5.1962 3 0
    endloop
  endfacet
  facet normal 0 0 -1
    outer loop
      vertex 6.1962 4 0
      vertex 5.1962 5 0
      vertex 6.1962 5 0
    endloop
  endfacet
  facet normal -0 0 -1
    outer loop
      vertex 22.5852 5 0
      vertex 21.5852 4 0
      vertex 21.5852 5 0
    endloop
  endfacet
  facet normal 0 0 -1
    outer loop
      vertex 6.1962 -5 0
      vertex 5.1962 -5 0
      vertex 6.1962 -4 0
    endloop
  endfacet
  facet normal 0 0 -1
    outer loop
      vertex 21.5852 -4 0
      vertex 22.5852 -5 0
      vertex 21.5852 -5 0
    endloop
  endfacet
  facet normal 0 0 -1
    outer loop
      vertex 22.5852 -5 0
      vertex 21.5852 -4 0
      vertex 22.5852 -3 0
    endloop
  endfacet
  facet normal 0 0 -1
    outer loop
      vertex 6.1962 -4 0
      vertex 22.5852 -3 0
      vertex 21.5852 -4 0
    endloop
  endfacet
  facet normal 0 0 -1
    outer loop
      vertex 6.1962 -4 0
      vertex 5.1962 -3 0
      vertex 22.5852 -3 0
    endloop
  endfacet
  facet normal 0 0 -1
    outer loop
      vertex 5.1962 -3 0
      vertex 6.1962 -4 0
      vertex 5.1962 -5 0
    endloop
  endfacet
endsolid OpenSCAD_Model
