solid OpenSCAD_Model
  facet normal -1 2.22036e-16 -1.01877e-20
    outer loop
      vertex 3.76697e-15 16.9649 0.0422098
      vertex 3.9741e-15 17.8978 0.776457
      vertex 3.9968e-15 18 0
    endloop
  endfacet
  facet normal -1 2.22024e-16 2.99448e-20
    outer loop
      vertex 3.74945e-15 16.886 0.557255
      vertex 3.9741e-15 17.8978 0.776457
      vertex 3.75309e-15 16.9024 0.517637
    endloop
  endfacet
  facet normal -1 2.22028e-16 -2.09576e-19
    outer loop
      vertex 3.76697e-15 16.9649 0.0422098
      vertex 3.9968e-15 18 0
      vertex 3.7682e-15 16.9704 0
    endloop
  endfacet
  facet normal -1 2.22033e-16 -6.18492e-21
    outer loop
      vertex 3.9741e-15 17.8978 0.776457
      vertex 3.76697e-15 16.9649 0.0422098
      vertex 3.75309e-15 16.9024 0.517637
    endloop
  endfacet
  facet normal -1 2.22029e-16 3.04973e-21
    outer loop
      vertex 3.9741e-15 17.8978 0.776457
      vertex 3.74945e-15 16.886 0.557255
      vertex 3.90756e-15 17.5981 1.5
    endloop
  endfacet
  facet normal -1 2.22068e-16 -2.6107e-20
    outer loop
      vertex 3.7088e-15 16.703 0.999999
      vertex 3.90756e-15 17.5981 1.5
      vertex 3.74945e-15 16.886 0.557255
    endloop
  endfacet
  facet normal -1 2.21825e-16 4.08737e-19
    outer loop
      vertex 3.70298e-15 16.6767 1.03425
      vertex 3.90756e-15 17.5981 1.5
      vertex 3.7088e-15 16.703 0.999999
    endloop
  endfacet
  facet normal -1 2.22029e-16 5.46218e-21
    outer loop
      vertex 3.90756e-15 17.5981 1.5
      vertex 3.70298e-15 16.6767 1.03425
      vertex 3.8017e-15 17.1213 2.12132
    endloop
  endfacet
  facet normal -1 2.22077e-16 -1.43797e-20
    outer loop
      vertex 3.63835e-15 16.3857 1.41421
      vertex 3.8017e-15 17.1213 2.12132
      vertex 3.70298e-15 16.6767 1.03425
    endloop
  endfacet
  facet normal -1 2.21918e-16 1.51049e-19
    outer loop
      vertex 3.63072e-15 16.3513 1.44065
      vertex 3.8017e-15 17.1213 2.12132
      vertex 3.63835e-15 16.3857 1.41421
    endloop
  endfacet
  facet normal -1 2.22051e-16 8.53159e-22
    outer loop
      vertex 3.8017e-15 17.1213 2.12132
      vertex 3.63072e-15 16.3513 1.44065
      vertex 3.66374e-15 16.5 2.59808
    endloop
  endfacet
  facet normal -1 2.22053e-16 6.55448e-22
    outer loop
      vertex 3.54654e-15 15.9722 1.73205
      vertex 3.66374e-15 16.5 2.59808
      vertex 3.63072e-15 16.3513 1.44065
    endloop
  endfacet
  facet normal -1 2.22321e-16 -1.62573e-19
    outer loop
      vertex 3.5376e-15 15.932 1.74874
      vertex 3.66374e-15 16.5 2.59808
      vertex 3.54654e-15 15.9722 1.73205
    endloop
  endfacet
  facet normal -1 2.22063e-16 9.44277e-21
    outer loop
      vertex 3.5376e-15 15.932 1.74874
      vertex 3.50308e-15 15.7765 2.89778
      vertex 3.66374e-15 16.5 2.59808
    endloop
  endfacet
  facet normal -1 2.22028e-16 4.62601e-21
    outer loop
      vertex 3.43962e-15 15.4907 1.93185
      vertex 3.50308e-15 15.7765 2.89778
      vertex 3.5376e-15 15.932 1.74874
    endloop
  endfacet
  facet normal -1 2.22166e-16 -3.6312e-20
    outer loop
      vertex 3.43e-15 15.4474 1.93756
      vertex 3.50308e-15 15.7765 2.89778
      vertex 3.43962e-15 15.4907 1.93185
    endloop
  endfacet
  facet normal -1 2.22036e-16 8.32722e-21
    outer loop
      vertex 3.43e-15 15.4474 1.93756
      vertex 3.33067e-15 15 3
      vertex 3.50308e-15 15.7765 2.89778
    endloop
  endfacet
  facet normal -1 2.22006e-16 -4.35039e-21
    outer loop
      vertex 3.32488e-15 14.9739 2
      vertex 3.33067e-15 15 3
      vertex 3.43e-15 15.4474 1.93756
    endloop
  endfacet
  facet normal -1 2.22404e-16 -1.4739e-20
    outer loop
      vertex 3.31525e-15 14.9306 1.99428
      vertex 3.33067e-15 15 3
      vertex 3.32488e-15 14.9739 2
    endloop
  endfacet
  facet normal -1 2.22031e-16 8.93271e-21
    outer loop
      vertex 3.15826e-15 14.2235 2.89778
      vertex 3.31525e-15 14.9306 1.99428
      vertex 3.21014e-15 14.4572 1.93185
    endloop
  endfacet
  facet normal -1 2.21801e-16 -4.65813e-20
    outer loop
      vertex 3.15826e-15 14.2235 2.89778
      vertex 3.21014e-15 14.4572 1.93185
      vertex 3.20118e-15 14.4168 1.91511
    endloop
  endfacet
  facet normal -1 2.22033e-16 1.08238e-20
    outer loop
      vertex 3.31525e-15 14.9306 1.99428
      vertex 3.15826e-15 14.2235 2.89778
      vertex 3.33067e-15 15 3
    endloop
  endfacet
  facet normal -1 2.22072e-16 2.25757e-20
    outer loop
      vertex 2.9976e-15 13.5 2.59808
      vertex 3.20118e-15 14.4168 1.91511
      vertex 3.10322e-15 13.9757 1.73205
    endloop
  endfacet
  facet normal -1 2.21781e-16 -1.36958e-19
    outer loop
      vertex 2.9976e-15 13.5 2.59808
      vertex 3.10322e-15 13.9757 1.73205
      vertex 3.09555e-15 13.9411 1.70551
    endloop
  endfacet
  facet normal -1 2.22057e-16 8.64403e-21
    outer loop
      vertex 2.85964e-15 12.8787 2.12132
      vertex 3.09555e-15 13.9411 1.70551
      vertex 3.01141e-15 13.5622 1.41421
    endloop
  endfacet
  facet normal -1 2.21846e-16 -1.95693e-19
    outer loop
      vertex 2.85964e-15 12.8787 2.12132
      vertex 3.01141e-15 13.5622 1.41421
      vertex 3.00556e-15 13.5358 1.37982
    endloop
  endfacet
  facet normal -1 2.22058e-16 3.84709e-21
    outer loop
      vertex 3.20118e-15 14.4168 1.91511
      vertex 2.9976e-15 13.5 2.59808
      vertex 3.15826e-15 14.2235 2.89778
    endloop
  endfacet
  facet normal -1 2.22049e-16 1.53295e-20
    outer loop
      vertex 2.75378e-15 12.4019 1.5
      vertex 3.00556e-15 13.5358 1.37982
      vertex 2.94096e-15 13.2449 0.999999
    endloop
  endfacet
  facet normal -1 2.22143e-16 1.72617e-19
    outer loop
      vertex 2.75378e-15 12.4019 1.5
      vertex 2.94096e-15 13.2449 0.999999
      vertex 2.93731e-15 13.2285 0.960261
    endloop
  endfacet
  facet normal -1 2.22043e-16 -3.61733e-20
    outer loop
      vertex 2.68723e-15 12.1022 0.776457
      vertex 2.93731e-15 13.2285 0.960261
      vertex 2.89667e-15 13.0454 0.517637
    endloop
  endfacet
  facet normal -1 2.22053e-16 -2.84892e-21
    outer loop
      vertex 3.09555e-15 13.9411 1.70551
      vertex 2.85964e-15 12.8787 2.12132
      vertex 2.9976e-15 13.5 2.59808
    endloop
  endfacet
  facet normal -1 2.2217e-16 4.27516e-19
    outer loop
      vertex 2.68723e-15 12.1022 0.776457
      vertex 2.89667e-15 13.0454 0.517637
      vertex 2.89543e-15 13.0399 0.47538
    endloop
  endfacet
  facet normal -1 2.22048e-16 -1.6867e-20
    outer loop
      vertex 2.66453e-15 12 0
      vertex 2.89543e-15 13.0399 0.47538
      vertex 2.88156e-15 12.9774 0
    endloop
  endfacet
  facet normal -1 2.22046e-16 -1.84428e-20
    outer loop
      vertex 3.00556e-15 13.5358 1.37982
      vertex 2.75378e-15 12.4019 1.5
      vertex 2.85964e-15 12.8787 2.12132
    endloop
  endfacet
  facet normal -1 2.22035e-16 8.27674e-21
    outer loop
      vertex 2.93731e-15 13.2285 0.960261
      vertex 2.68723e-15 12.1022 0.776457
      vertex 2.75378e-15 12.4019 1.5
    endloop
  endfacet
  facet normal -1 2.22036e-16 1.02128e-20
    outer loop
      vertex 2.89543e-15 13.0399 0.47538
      vertex 2.66453e-15 12 0
      vertex 2.68723e-15 12.1022 0.776457
    endloop
  endfacet
  facet normal 0.501052 -0.865417 -6.57319e-05
    outer loop
      vertex 15.575 9.02325 0
      vertex 15.4866 8.97201 0.776457
      vertex 15.2272 8.82177 1.5
    endloop
  endfacet
  facet normal 0.501297 -0.865275 -2.12712e-06
    outer loop
      vertex 14.8147 8.58277 2.12132
      vertex 14.2771 8.27131 2.59808
      vertex 12.9792 7.51937 3
    endloop
  endfacet
  facet normal 0.501359 -0.865239 2.94391e-05
    outer loop
      vertex 15.575 9.02325 0
      vertex 15.2272 8.82177 1.5
      vertex 14.8147 8.58277 2.12132
    endloop
  endfacet
  facet normal 0.501358 -0.86524 0.000260217
    outer loop
      vertex 14.2771 8.27131 2.59808
      vertex 13.651 7.90861 2.89778
      vertex 12.9792 7.51937 3
    endloop
  endfacet
  facet normal 0.501272 -0.86529 -7.42883e-05
    outer loop
      vertex 14.8147 8.58277 2.12132
      vertex 12.9792 7.51937 3
      vertex 12.3073 7.13014 2.89778
    endloop
  endfacet
  facet normal 0.501423 -0.865202 -0.000274552
    outer loop
      vertex 12.3073 7.13014 2.89778
      vertex 11.6813 6.76744 2.59808
      vertex 11.1436 6.45597 2.12132
    endloop
  endfacet
  facet normal 0.501288 -0.86528 -3.54343e-06
    outer loop
      vertex 14.8147 8.58277 2.12132
      vertex 12.3073 7.13014 2.89778
      vertex 11.1436 6.45597 2.12132
    endloop
  endfacet
  facet normal 0.501335 -0.865253 -2.19658e-05
    outer loop
      vertex 11.1436 6.45597 2.12132
      vertex 10.7311 6.21698 1.5
      vertex 10.3833 6.0155 0
    endloop
  endfacet
  facet normal 0.501249 -0.865303 1.9226e-05
    outer loop
      vertex 10.902 6.31597 0
      vertex 11.1436 6.45597 2.12132
      vertex 10.3833 6.0155 0
    endloop
  endfacet
  facet normal 0.501461 -0.86518 -6.11731e-05
    outer loop
      vertex 10.7311 6.21698 1.5
      vertex 10.4718 6.06674 0.776457
      vertex 10.3833 6.0155 0
    endloop
  endfacet
  facet normal 0.501288 -0.86528 -2.87029e-05
    outer loop
      vertex 11.1436 6.45597 2.12132
      vertex 12.9566 7.50631 2
      vertex 14.8147 8.58277 2.12132
    endloop
  endfacet
  facet normal 0.501309 -0.865268 0.000389104
    outer loop
      vertex 11.1436 6.45597 2.12132
      vertex 12.5447 7.26764 1.93721
      vertex 12.9566 7.50631 2
    endloop
  endfacet
  facet normal 0.501085 -0.865396 -0.00187899
    outer loop
      vertex 11.1436 6.45597 2.12132
      vertex 12.5095 7.24727 1.93185
      vertex 12.5447 7.26764 1.93721
    endloop
  endfacet
  facet normal 0.501294 -0.865277 0.000127872
    outer loop
      vertex 11.1436 6.45597 2.12132
      vertex 12.1257 7.02489 1.74778
      vertex 12.5095 7.24727 1.93185
    endloop
  endfacet
  facet normal 0.500745 -0.865593 -0.00179648
    outer loop
      vertex 11.1436 6.45597 2.12132
      vertex 12.0928 7.00589 1.73205
      vertex 12.1257 7.02489 1.74778
    endloop
  endfacet
  facet normal 0.501306 -0.86527 2.79791e-05
    outer loop
      vertex 11.1436 6.45597 2.12132
      vertex 11.7633 6.81498 1.43933
      vertex 12.0928 7.00589 1.73205
    endloop
  endfacet
  facet normal 0.501828 -0.864967 0.000661272
    outer loop
      vertex 11.1436 6.45597 2.12132
      vertex 11.7351 6.7986 1.41421
      vertex 11.7633 6.81498 1.43933
    endloop
  endfacet
  facet normal 0.501196 -0.865334 -4.55136e-05
    outer loop
      vertex 11.1436 6.45597 2.12132
      vertex 11.4823 6.6522 1.03293
      vertex 11.7351 6.7986 1.41421
    endloop
  endfacet
  facet normal 0.501707 -0.865037 0.000167176
    outer loop
      vertex 11.1436 6.45597 2.12132
      vertex 11.4605 6.63955 0.999999
      vertex 11.4823 6.6522 1.03293
    endloop
  endfacet
  facet normal 0.501345 -0.865248 3.02759e-05
    outer loop
      vertex 11.1436 6.45597 2.12132
      vertex 11.3018 6.54758 0.556283
      vertex 11.4605 6.63955 0.999999
    endloop
  endfacet
  facet normal 0.501255 -0.865299 1.82152e-05
    outer loop
      vertex 10.902 6.31597 0
      vertex 11.3018 6.54758 0.556283
      vertex 11.1436 6.45597 2.12132
    endloop
  endfacet
  facet normal 0.503253 -0.864137 -0.00190118
    outer loop
      vertex 11.3018 6.54758 0.556283
      vertex 10.902 6.31597 0
      vertex 11.2879 6.53957 0.517637
    endloop
  endfacet
  facet normal 0.501339 -0.865251 6.70065e-06
    outer loop
      vertex 11.2879 6.53957 0.517637
      vertex 10.902 6.31597 0
      vertex 11.2338 6.50822 0.0418529
    endloop
  endfacet
  facet normal 0.501267 -0.865293 0.000770668
    outer loop
      vertex 11.2338 6.50822 0.0418529
      vertex 10.902 6.31597 0
      vertex 11.2291 6.50546 0
    endloop
  endfacet
  facet normal 0.501273 -0.865289 0.000287429
    outer loop
      vertex 12.9918 7.5267 1.99463
      vertex 14.8147 8.58277 2.12132
      vertex 12.9566 7.50631 2
    endloop
  endfacet
  facet normal 0.501293 -0.865277 -0.000112287
    outer loop
      vertex 13.4037 7.76534 1.93185
      vertex 14.8147 8.58277 2.12132
      vertex 12.9918 7.5267 1.99463
    endloop
  endfacet
  facet normal 0.501326 -0.865259 -0.000434859
    outer loop
      vertex 13.4366 7.78441 1.91607
      vertex 14.8147 8.58277 2.12132
      vertex 13.4037 7.76534 1.93185
    endloop
  endfacet
  facet normal 0.501268 -0.865292 8.16836e-05
    outer loop
      vertex 13.8204 8.00673 1.73205
      vertex 14.8147 8.58277 2.12132
      vertex 13.4366 7.78441 1.91607
    endloop
  endfacet
  facet normal 0.501199 -0.865332 0.000317187
    outer loop
      vertex 13.8488 8.02317 1.70683
      vertex 14.8147 8.58277 2.12132
      vertex 13.8204 8.00673 1.73205
    endloop
  endfacet
  facet normal 0.501327 -0.865258 -8.00293e-05
    outer loop
      vertex 14.8147 8.58277 2.12132
      vertex 13.8488 8.02317 1.70683
      vertex 14.0978 8.16746 1.48559
    endloop
  endfacet
  facet normal 0.501166 -0.865351 0.000162681
    outer loop
      vertex 14.1782 8.21401 1.41421
      vertex 14.8147 8.58277 2.12132
      vertex 14.0978 8.16746 1.48559
    endloop
  endfacet
  facet normal 0.501327 -0.865258 -3.17646e-05
    outer loop
      vertex 14.2001 8.2267 1.38115
      vertex 14.8147 8.58277 2.12132
      vertex 14.1782 8.21401 1.41421
    endloop
  endfacet
  facet normal 0.501316 -0.865264 -1.96667e-05
    outer loop
      vertex 14.4527 8.37306 0.999999
      vertex 14.8147 8.58277 2.12132
      vertex 14.2001 8.2267 1.38115
    endloop
  endfacet
  facet normal 0.500721 -0.865609 0.000236987
    outer loop
      vertex 14.4666 8.38109 0.961236
      vertex 14.8147 8.58277 2.12132
      vertex 14.4527 8.37306 0.999999
    endloop
  endfacet
  facet normal 0.50132 -0.865262 -3.01352e-06
    outer loop
      vertex 14.6253 8.47304 0.517637
      vertex 14.8147 8.58277 2.12132
      vertex 14.4666 8.38109 0.961236
    endloop
  endfacet
  facet normal 0.502585 -0.864527 0.000628054
    outer loop
      vertex 14.8147 8.58277 0
      vertex 14.6253 8.47304 0.517637
      vertex 14.6301 8.4758 0.475738
    endloop
  endfacet
  facet normal 0.501371 -0.865233 -1.85356e-06
    outer loop
      vertex 14.8147 8.58277 0
      vertex 14.6301 8.4758 0.475738
      vertex 14.6842 8.50715 0
    endloop
  endfacet
  facet normal 0.501301 -0.865273 0
    outer loop
      vertex 14.6253 8.47304 0.517637
      vertex 14.8147 8.58277 0
      vertex 14.8147 8.58277 2.12132
    endloop
  endfacet
  facet normal 0.501297 -0.865275 0
    outer loop
      vertex 15.575 9.02325 0
      vertex 14.8147 8.58277 2.12132
      vertex 14.8147 8.58277 0
    endloop
  endfacet
  facet normal 0.103497 0.986124 0.129797
    outer loop
      vertex 3.71593 17.5078 0.776457
      vertex 3.9968e-15 18 0
      vertex 3.9741e-15 17.8978 0.776457
    endloop
  endfacet
  facet normal 0.10349 0.986121 0.129831
    outer loop
      vertex 3.71593 17.5078 0.776457
      vertex 3.73715 17.6078 0
      vertex 3.9968e-15 18 0
    endloop
  endfacet
  facet normal 0.0965194 0.919567 0.380895
    outer loop
      vertex 3.65371 17.2146 1.5
      vertex 3.9741e-15 17.8978 0.776457
      vertex 3.90756e-15 17.5981 1.5
    endloop
  endfacet
  facet normal 0.0965104 0.919554 0.380928
    outer loop
      vertex 3.65371 17.2146 1.5
      vertex 3.71593 17.5078 0.776457
      vertex 3.9741e-15 17.8978 0.776457
    endloop
  endfacet
  facet normal 0.0829796 0.79059 0.606698
    outer loop
      vertex 3.55472 16.7482 2.12132
      vertex 3.90756e-15 17.5981 1.5
      vertex 3.8017e-15 17.1213 2.12132
    endloop
  endfacet
  facet normal 0.0829824 0.790596 0.60669
    outer loop
      vertex 3.55472 16.7482 2.12132
      vertex 3.65371 17.2146 1.5
      vertex 3.90756e-15 17.5981 1.5
    endloop
  endfacet
  facet normal 0.063756 0.607539 0.791727
    outer loop
      vertex 3.42572 16.1405 2.59808
      vertex 3.8017e-15 17.1213 2.12132
      vertex 3.66374e-15 16.5 2.59808
    endloop
  endfacet
  facet normal 0.0637705 0.607575 0.791698
    outer loop
      vertex 3.42572 16.1405 2.59808
      vertex 3.55472 16.7482 2.12132
      vertex 3.8017e-15 17.1213 2.12132
    endloop
  endfacet
  facet normal 0.0401364 0.382393 0.923128
    outer loop
      vertex 3.2755 15.4327 2.89778
      vertex 3.66374e-15 16.5 2.59808
      vertex 3.50308e-15 15.7765 2.89778
    endloop
  endfacet
  facet normal 0.0401258 0.382364 0.92314
    outer loop
      vertex 3.2755 15.4327 2.89778
      vertex 3.42572 16.1405 2.59808
      vertex 3.66374e-15 16.5 2.59808
    endloop
  endfacet
  facet normal 0.0136986 0.130504 0.991353
    outer loop
      vertex 3.1143 14.6731 3
      vertex 3.50308e-15 15.7765 2.89778
      vertex 3.33067e-15 15 3
    endloop
  endfacet
  facet normal 0.0136975 0.1305 0.991354
    outer loop
      vertex 3.1143 14.6731 3
      vertex 3.2755 15.4327 2.89778
      vertex 3.50308e-15 15.7765 2.89778
    endloop
  endfacet
  facet normal -0.0136952 -0.130504 0.991353
    outer loop
      vertex 2.95309 13.9136 2.89778
      vertex 3.33067e-15 15 3
      vertex 3.15826e-15 14.2235 2.89778
    endloop
  endfacet
  facet normal -0.0137 -0.130517 0.991351
    outer loop
      vertex 2.95309 13.9136 2.89778
      vertex 3.1143 14.6731 3
      vertex 3.33067e-15 15 3
    endloop
  endfacet
  facet normal -0.0401374 -0.382393 0.923128
    outer loop
      vertex 2.80287 13.2058 2.59808
      vertex 3.15826e-15 14.2235 2.89778
      vertex 2.9976e-15 13.5 2.59808
    endloop
  endfacet
  facet normal -0.0401257 -0.382364 0.92314
    outer loop
      vertex 2.80287 13.2058 2.59808
      vertex 2.95309 13.9136 2.89778
      vertex 3.15826e-15 14.2235 2.89778
    endloop
  endfacet
  facet normal -0.0637787 -0.607538 0.791726
    outer loop
      vertex 2.67387 12.598 2.12132
      vertex 2.9976e-15 13.5 2.59808
      vertex 2.85964e-15 12.8787 2.12132
    endloop
  endfacet
  facet normal -0.063767 -0.607513 0.791746
    outer loop
      vertex 2.67387 12.598 2.12132
      vertex 2.80287 13.2058 2.59808
      vertex 2.9976e-15 13.5 2.59808
    endloop
  endfacet
  facet normal -0.0829622 -0.790591 0.606698
    outer loop
      vertex 2.57488 12.1317 1.5
      vertex 2.85964e-15 12.8787 2.12132
      vertex 2.75378e-15 12.4019 1.5
    endloop
  endfacet
  facet normal -0.0830021 -0.790655 0.60661
    outer loop
      vertex 2.57488 12.1317 1.5
      vertex 2.67387 12.598 2.12132
      vertex 2.85964e-15 12.8787 2.12132
    endloop
  endfacet
  facet normal -0.0965073 -0.919568 0.380896
    outer loop
      vertex 2.51266 11.8385 0.776457
      vertex 2.75378e-15 12.4019 1.5
      vertex 2.68723e-15 12.1022 0.776457
    endloop
  endfacet
  facet normal -0.0964953 -0.919556 0.380928
    outer loop
      vertex 2.51266 11.8385 0.776457
      vertex 2.57488 12.1317 1.5
      vertex 2.75378e-15 12.4019 1.5
    endloop
  endfacet
  facet normal -0.103503 -0.986124 0.129797
    outer loop
      vertex 2.49144 11.7385 0
      vertex 2.68723e-15 12.1022 0.776457
      vertex 2.66453e-15 12 0
    endloop
  endfacet
  facet normal -0.103492 -0.98612 0.129831
    outer loop
      vertex 2.49144 11.7385 0
      vertex 2.51266 11.8385 0.776457
      vertex 2.68723e-15 12.1022 0.776457
    endloop
  endfacet
  facet normal 0.305979 0.943144 0.12983
    outer loop
      vertex 7.26992 16.3548 0.776457
      vertex 3.73715 17.6078 0
      vertex 3.71593 17.5078 0.776457
    endloop
  endfacet
  facet normal 0.305983 0.943145 0.129813
    outer loop
      vertex 7.26992 16.3548 0.776457
      vertex 7.31144 16.4482 0
      vertex 3.73715 17.6078 0
    endloop
  endfacet
  facet normal 0.285327 0.879479 0.380926
    outer loop
      vertex 7.14818 16.0809 1.5
      vertex 3.71593 17.5078 0.776457
      vertex 3.65371 17.2146 1.5
    endloop
  endfacet
  facet normal 0.285323 0.879476 0.380936
    outer loop
      vertex 7.14818 16.0809 1.5
      vertex 7.26992 16.3548 0.776457
      vertex 3.71593 17.5078 0.776457
    endloop
  endfacet
  facet normal 0.245294 0.756147 0.60669
    outer loop
      vertex 6.95453 15.6453 2.12132
      vertex 3.65371 17.2146 1.5
      vertex 3.55472 16.7482 2.12132
    endloop
  endfacet
  facet normal 0.245329 0.756192 0.60662
    outer loop
      vertex 6.95453 15.6453 2.12132
      vertex 7.14818 16.0809 1.5
      vertex 3.65371 17.2146 1.5
    endloop
  endfacet
  facet normal 0.188529 0.581093 0.791699
    outer loop
      vertex 6.70215 15.0775 2.59808
      vertex 3.55472 16.7482 2.12132
      vertex 3.42572 16.1405 2.59808
    endloop
  endfacet
  facet normal 0.188486 0.581028 0.791757
    outer loop
      vertex 6.70215 15.0775 2.59808
      vertex 6.95453 15.6453 2.12132
      vertex 3.55472 16.7482 2.12132
    endloop
  endfacet
  facet normal 0.118648 0.365699 0.92314
    outer loop
      vertex 6.40826 14.4163 2.89778
      vertex 3.42572 16.1405 2.59808
      vertex 3.2755 15.4327 2.89778
    endloop
  endfacet
  facet normal 0.118645 0.365694 0.923142
    outer loop
      vertex 6.40826 14.4163 2.89778
      vertex 6.70215 15.0775 2.59808
      vertex 3.42572 16.1405 2.59808
    endloop
  endfacet
  facet normal 0.0404919 0.124814 0.991354
    outer loop
      vertex 6.09287 13.7068 3
      vertex 3.2755 15.4327 2.89778
      vertex 3.1143 14.6731 3
    endloop
  endfacet
  facet normal 0.0404984 0.124825 0.991352
    outer loop
      vertex 6.09287 13.7068 3
      vertex 6.40826 14.4163 2.89778
      vertex 3.2755 15.4327 2.89778
    endloop
  endfacet
  facet normal -0.0404974 -0.124829 0.991351
    outer loop
      vertex 5.77748 12.9973 2.89778
      vertex 3.1143 14.6731 3
      vertex 2.95309 13.9136 2.89778
    endloop
  endfacet
  facet normal -0.0404957 -0.124826 0.991352
    outer loop
      vertex 5.77748 12.9973 2.89778
      vertex 6.09287 13.7068 3
      vertex 3.1143 14.6731 3
    endloop
  endfacet
  facet normal -0.118644 -0.3657 0.92314
    outer loop
      vertex 5.48358 12.3361 2.59808
      vertex 2.95309 13.9136 2.89778
      vertex 2.80287 13.2058 2.59808
    endloop
  endfacet
  facet normal -0.11864 -0.365695 0.923142
    outer loop
      vertex 5.48358 12.3361 2.59808
      vertex 5.77748 12.9973 2.89778
      vertex 2.95309 13.9136 2.89778
    endloop
  endfacet
  facet normal -0.188491 -0.581042 0.791746
    outer loop
      vertex 5.2312 11.7684 2.12132
      vertex 2.80287 13.2058 2.59808
      vertex 2.67387 12.598 2.12132
    endloop
  endfacet
  facet normal -0.188519 -0.581079 0.791712
    outer loop
      vertex 5.2312 11.7684 2.12132
      vertex 5.48358 12.3361 2.59808
      vertex 2.80287 13.2058 2.59808
    endloop
  endfacet
  facet normal -0.245343 -0.756194 0.606611
    outer loop
      vertex 5.03755 11.3327 1.5
      vertex 2.67387 12.598 2.12132
      vertex 2.57488 12.1317 1.5
    endloop
  endfacet
  facet normal -0.245293 -0.756142 0.606696
    outer loop
      vertex 5.03755 11.3327 1.5
      vertex 5.2312 11.7684 2.12132
      vertex 2.67387 12.598 2.12132
    endloop
  endfacet
  facet normal -0.28531 -0.879484 0.380927
    outer loop
      vertex 4.91582 11.0589 0.776457
      vertex 2.57488 12.1317 1.5
      vertex 2.51266 11.8385 0.776457
    endloop
  endfacet
  facet normal -0.285353 -0.879513 0.38083
    outer loop
      vertex 4.91582 11.0589 0.776457
      vertex 5.03755 11.3327 1.5
      vertex 2.57488 12.1317 1.5
    endloop
  endfacet
  facet normal -0.305959 -0.943151 0.12983
    outer loop
      vertex 4.87429 10.9655 0
      vertex 2.51266 11.8385 0.776457
      vertex 2.49144 11.7385 0
    endloop
  endfacet
  facet normal -0.305964 -0.943151 0.129817
    outer loop
      vertex 4.87429 10.9655 0
      vertex 4.91582 11.0589 0.776457
      vertex 2.51266 11.8385 0.776457
    endloop
  endfacet
  facet normal 0.495135 0.859063 0.129813
    outer loop
      vertex 10.5071 14.489 0.776457
      vertex 7.31144 16.4482 0
      vertex 7.26992 16.3548 0.776457
    endloop
  endfacet
  facet normal 0.495121 0.859063 0.129869
    outer loop
      vertex 10.5071 14.489 0.776457
      vertex 10.5671 14.5718 0
      vertex 7.31144 16.4482 0
    endloop
  endfacet
  facet normal 0.461705 0.801073 0.380934
    outer loop
      vertex 10.3311 14.2464 1.5
      vertex 7.26992 16.3548 0.776457
      vertex 7.14818 16.0809 1.5
    endloop
  endfacet
  facet normal 0.461715 0.801079 0.380908
    outer loop
      vertex 10.3311 14.2464 1.5
      vertex 10.5071 14.489 0.776457
      vertex 7.26992 16.3548 0.776457
    endloop
  endfacet
  facet normal 0.396991 0.688772 0.606622
    outer loop
      vertex 10.0513 13.8604 2.12132
      vertex 7.14818 16.0809 1.5
      vertex 6.95453 15.6453 2.12132
    endloop
  endfacet
  facet normal 0.396968 0.688753 0.60666
    outer loop
      vertex 10.0513 13.8604 2.12132
      vertex 10.3311 14.2464 1.5
      vertex 7.14818 16.0809 1.5
    endloop
  endfacet
  facet normal 0.305017 0.529231 0.791757
    outer loop
      vertex 9.6865 13.3575 2.59808
      vertex 6.95453 15.6453 2.12132
      vertex 6.70215 15.0775 2.59808
    endloop
  endfacet
  facet normal 0.305059 0.529273 0.791713
    outer loop
      vertex 9.6865 13.3575 2.59808
      vertex 10.0513 13.8604 2.12132
      vertex 6.95453 15.6453 2.12132
    endloop
  endfacet
  facet normal 0.191981 0.333097 0.923141
    outer loop
      vertex 9.26173 12.7717 2.89778
      vertex 6.70215 15.0775 2.59808
      vertex 6.40826 14.4163 2.89778
    endloop
  endfacet
  facet normal 0.191972 0.333088 0.923146
    outer loop
      vertex 9.26173 12.7717 2.89778
      vertex 9.6865 13.3575 2.59808
      vertex 6.70215 15.0775 2.59808
    endloop
  endfacet
  facet normal 0.065531 0.113697 0.991352
    outer loop
      vertex 8.80591 12.1431 3
      vertex 6.40826 14.4163 2.89778
      vertex 6.09287 13.7068 3
    endloop
  endfacet
  facet normal 0.0655271 0.113693 0.991353
    outer loop
      vertex 8.80591 12.1431 3
      vertex 9.26173 12.7717 2.89778
      vertex 6.40826 14.4163 2.89778
    endloop
  endfacet
  facet normal -0.0655291 -0.113698 0.991352
    outer loop
      vertex 8.35008 11.5146 2.89778
      vertex 6.09287 13.7068 3
      vertex 5.77748 12.9973 2.89778
    endloop
  endfacet
  facet normal -0.065535 -0.113704 0.991351
    outer loop
      vertex 8.35008 11.5146 2.89778
      vertex 8.80591 12.1431 3
      vertex 6.09287 13.7068 3
    endloop
  endfacet
  facet normal -0.19198 -0.333095 0.923142
    outer loop
      vertex 7.92532 10.9288 2.59808
      vertex 5.77748 12.9973 2.89778
      vertex 5.48358 12.3361 2.59808
    endloop
  endfacet
  facet normal -0.191974 -0.33309 0.923145
    outer loop
      vertex 7.92532 10.9288 2.59808
      vertex 8.35008 11.5146 2.89778
      vertex 5.77748 12.9973 2.89778
    endloop
  endfacet
  facet normal -0.305061 -0.52927 0.791714
    outer loop
      vertex 7.56056 10.4258 2.12132
      vertex 5.48358 12.3361 2.59808
      vertex 5.2312 11.7684 2.12132
    endloop
  endfacet
  facet normal -0.30503 -0.529243 0.791744
    outer loop
      vertex 7.56056 10.4258 2.12132
      vertex 7.92532 10.9288 2.59808
      vertex 5.48358 12.3361 2.59808
    endloop
  endfacet
  facet normal -0.396945 -0.688736 0.606694
    outer loop
      vertex 7.28068 10.0399 1.5
      vertex 5.2312 11.7684 2.12132
      vertex 5.03755 11.3327 1.5
    endloop
  endfacet
  facet normal -0.396994 -0.68877 0.606623
    outer loop
      vertex 7.28068 10.0399 1.5
      vertex 7.56056 10.4258 2.12132
      vertex 5.2312 11.7684 2.12132
    endloop
  endfacet
  facet normal -0.461733 -0.801104 0.380833
    outer loop
      vertex 7.10474 9.79727 0.776457
      vertex 5.03755 11.3327 1.5
      vertex 4.91582 11.0589 0.776457
    endloop
  endfacet
  facet normal -0.461699 -0.801091 0.380903
    outer loop
      vertex 7.10474 9.79727 0.776457
      vertex 7.28068 10.0399 1.5
      vertex 5.03755 11.3327 1.5
    endloop
  endfacet
  facet normal -0.495141 -0.859059 0.12982
    outer loop
      vertex 7.04473 9.71451 0
      vertex 4.91582 11.0589 0.776457
      vertex 4.87429 10.9655 0
    endloop
  endfacet
  facet normal -0.495137 -0.859059 0.129832
    outer loop
      vertex 7.04473 9.71451 0
      vertex 7.10474 9.79727 0.776457
      vertex 4.91582 11.0589 0.776457
    endloop
  endfacet
  facet normal 0.662702 0.737538 0.129859
    outer loop
      vertex 13.2863 11.9918 0.776457
      vertex 10.5671 14.5718 0
      vertex 10.5071 14.489 0.776457
    endloop
  endfacet
  facet normal 0.662705 0.737538 0.129847
    outer loop
      vertex 13.2863 11.9918 0.776457
      vertex 13.3622 12.0603 0
      vertex 10.5671 14.5718 0
    endloop
  endfacet
  facet normal 0.617969 0.687759 0.380921
    outer loop
      vertex 13.0638 11.791 1.5
      vertex 10.5071 14.489 0.776457
      vertex 10.3311 14.2464 1.5
    endloop
  endfacet
  facet normal 0.617976 0.687762 0.380906
    outer loop
      vertex 13.0638 11.791 1.5
      vertex 13.2863 11.9918 0.776457
      vertex 10.5071 14.489 0.776457
    endloop
  endfacet
  facet normal 0.531325 0.591335 0.606644
    outer loop
      vertex 12.7099 11.4716 2.12132
      vertex 10.3311 14.2464 1.5
      vertex 10.0513 13.8604 2.12132
    endloop
  endfacet
  facet normal 0.531333 0.591339 0.606632
    outer loop
      vertex 12.7099 11.4716 2.12132
      vertex 13.0638 11.791 1.5
      vertex 10.3311 14.2464 1.5
    endloop
  endfacet
  facet normal 0.408289 0.454399 0.791721
    outer loop
      vertex 12.2487 11.0553 2.59808
      vertex 10.0513 13.8604 2.12132
      vertex 9.6865 13.3575 2.59808
    endloop
  endfacet
  facet normal 0.408282 0.454394 0.791727
    outer loop
      vertex 12.2487 11.0553 2.59808
      vertex 12.7099 11.4716 2.12132
      vertex 10.0513 13.8604 2.12132
    endloop
  endfacet
  facet normal 0.256947 0.285974 0.923145
    outer loop
      vertex 11.7116 10.5705 2.89778
      vertex 9.6865 13.3575 2.59808
      vertex 9.26173 12.7717 2.89778
    endloop
  endfacet
  facet normal 0.256967 0.285988 0.923135
    outer loop
      vertex 11.7116 10.5705 2.89778
      vertex 12.2487 11.0553 2.59808
      vertex 9.6865 13.3575 2.59808
    endloop
  endfacet
  facet normal 0.0877025 0.097613 0.991353
    outer loop
      vertex 11.1352 10.0503 3
      vertex 9.26173 12.7717 2.89778
      vertex 8.80591 12.1431 3
    endloop
  endfacet
  facet normal 0.0877089 0.0976174 0.991352
    outer loop
      vertex 11.1352 10.0503 3
      vertex 11.7116 10.5705 2.89778
      vertex 9.26173 12.7717 2.89778
    endloop
  endfacet
  facet normal -0.0877129 -0.0976193 0.991351
    outer loop
      vertex 10.5588 9.53002 2.89778
      vertex 8.80591 12.1431 3
      vertex 8.35008 11.5146 2.89778
    endloop
  endfacet
  facet normal -0.087701 -0.0976114 0.991353
    outer loop
      vertex 10.5588 9.53002 2.89778
      vertex 11.1352 10.0503 3
      vertex 8.80591 12.1431 3
    endloop
  endfacet
  facet normal -0.256947 -0.285977 0.923144
    outer loop
      vertex 10.0217 9.04523 2.59808
      vertex 8.35008 11.5146 2.89778
      vertex 7.92532 10.9288 2.59808
    endloop
  endfacet
  facet normal -0.256969 -0.285991 0.923134
    outer loop
      vertex 10.0217 9.04523 2.59808
      vertex 10.5588 9.53002 2.89778
      vertex 8.35008 11.5146 2.89778
    endloop
  endfacet
  facet normal -0.408261 -0.454383 0.791744
    outer loop
      vertex 9.56043 8.62893 2.12132
      vertex 7.92532 10.9288 2.59808
      vertex 7.56056 10.4258 2.12132
    endloop
  endfacet
  facet normal -0.408255 -0.45438 0.791749
    outer loop
      vertex 9.56043 8.62893 2.12132
      vertex 10.0217 9.04523 2.59808
      vertex 7.92532 10.9288 2.59808
    endloop
  endfacet
  facet normal -0.531335 -0.591343 0.606627
    outer loop
      vertex 9.20651 8.3095 1.5
      vertex 7.56056 10.4258 2.12132
      vertex 7.28068 10.0399 1.5
    endloop
  endfacet
  facet normal -0.531309 -0.591333 0.60666
    outer loop
      vertex 9.20651 8.3095 1.5
      vertex 9.56043 8.62893 2.12132
      vertex 7.56056 10.4258 2.12132
    endloop
  endfacet
  facet normal -0.617971 -0.687769 0.380902
    outer loop
      vertex 8.98403 8.1087 0.776457
      vertex 7.28068 10.0399 1.5
      vertex 7.10474 9.79727 0.776457
    endloop
  endfacet
  facet normal -0.617976 -0.68777 0.380892
    outer loop
      vertex 8.98403 8.1087 0.776457
      vertex 9.20651 8.3095 1.5
      vertex 7.28068 10.0399 1.5
    endloop
  endfacet
  facet normal -0.662699 -0.737546 0.129831
    outer loop
      vertex 8.90814 8.0402 0
      vertex 7.10474 9.79727 0.776457
      vertex 7.04473 9.71451 0
    endloop
  endfacet
  facet normal -0.662697 -0.737547 0.129838
    outer loop
      vertex 8.90814 8.0402 0
      vertex 8.98403 8.1087 0.776457
      vertex 7.10474 9.79727 0.776457
    endloop
  endfacet
  facet normal 0.801373 0.583902 0.129848
    outer loop
      vertex 15.4866 8.97201 0.776457
      vertex 13.3622 12.0603 0
      vertex 13.2863 11.9918 0.776457
    endloop
  endfacet
  facet normal 0.80139 0.583895 0.129771
    outer loop
      vertex 15.4866 8.97201 0.776457
      vertex 15.575 9.02325 0
      vertex 13.3622 12.0603 0
    endloop
  endfacet
  facet normal 0.747293 0.544482 0.38091
    outer loop
      vertex 15.2272 8.82177 1.5
      vertex 13.2863 11.9918 0.776457
      vertex 13.0638 11.791 1.5
    endloop
  endfacet
  facet normal 0.747268 0.544479 0.380964
    outer loop
      vertex 15.2272 8.82177 1.5
      vertex 15.4866 8.97201 0.776457
      vertex 13.2863 11.9918 0.776457
    endloop
  endfacet
  facet normal 0.642524 0.468143 0.606634
    outer loop
      vertex 14.8147 8.58277 2.12132
      vertex 13.0638 11.791 1.5
      vertex 12.7099 11.4716 2.12132
    endloop
  endfacet
  facet normal 0.642514 0.46814 0.606648
    outer loop
      vertex 14.8147 8.58277 2.12132
      vertex 15.2272 8.82177 1.5
      vertex 13.0638 11.791 1.5
    endloop
  endfacet
  facet normal 0.493729 0.359728 0.791724
    outer loop
      vertex 14.2771 8.27131 2.59808
      vertex 12.7099 11.4716 2.12132
      vertex 12.2487 11.0553 2.59808
    endloop
  endfacet
  facet normal 0.493722 0.359726 0.79173
    outer loop
      vertex 14.2771 8.27131 2.59808
      vertex 14.8147 8.58277 2.12132
      vertex 12.7099 11.4716 2.12132
    endloop
  endfacet
  facet normal 0.310748 0.226404 0.923134
    outer loop
      vertex 13.651 7.90861 2.89778
      vertex 12.2487 11.0553 2.59808
      vertex 11.7116 10.5705 2.89778
    endloop
  endfacet
  facet normal 0.310734 0.226399 0.92314
    outer loop
      vertex 13.651 7.90861 2.89778
      vertex 14.2771 8.27131 2.59808
      vertex 12.2487 11.0553 2.59808
    endloop
  endfacet
  facet normal 0.106065 0.0772778 0.991352
    outer loop
      vertex 12.9792 7.51937 3
      vertex 11.7116 10.5705 2.89778
      vertex 11.1352 10.0503 3
    endloop
  endfacet
  facet normal 0.106067 0.0772786 0.991351
    outer loop
      vertex 12.9792 7.51937 3
      vertex 13.651 7.90861 2.89778
      vertex 11.7116 10.5705 2.89778
    endloop
  endfacet
  facet normal -0.106059 -0.0772726 0.991353
    outer loop
      vertex 12.3073 7.13014 2.89778
      vertex 11.1352 10.0503 3
      vertex 10.5588 9.53002 2.89778
    endloop
  endfacet
  facet normal -0.106057 -0.0772716 0.991353
    outer loop
      vertex 12.3073 7.13014 2.89778
      vertex 12.9792 7.51937 3
      vertex 11.1352 10.0503 3
    endloop
  endfacet
  facet normal -0.310746 -0.22641 0.923133
    outer loop
      vertex 11.6813 6.76744 2.59808
      vertex 10.5588 9.53002 2.89778
      vertex 10.0217 9.04523 2.59808
    endloop
  endfacet
  facet normal -0.310766 -0.226417 0.923125
    outer loop
      vertex 11.6813 6.76744 2.59808
      vertex 12.3073 7.13014 2.89778
      vertex 10.5588 9.53002 2.89778
    endloop
  endfacet
  facet normal -0.493705 -0.359702 0.791751
    outer loop
      vertex 11.1436 6.45597 2.12132
      vertex 10.0217 9.04523 2.59808
      vertex 9.56043 8.62893 2.12132
    endloop
  endfacet
  facet normal -0.493678 -0.359694 0.791771
    outer loop
      vertex 11.1436 6.45597 2.12132
      vertex 11.6813 6.76744 2.59808
      vertex 10.0217 9.04523 2.59808
    endloop
  endfacet
  facet normal -0.64251 -0.468127 0.606661
    outer loop
      vertex 10.7311 6.21698 1.5
      vertex 9.56043 8.62893 2.12132
      vertex 9.20651 8.3095 1.5
    endloop
  endfacet
  facet normal -0.642525 -0.468129 0.606644
    outer loop
      vertex 10.7311 6.21698 1.5
      vertex 11.1436 6.45597 2.12132
      vertex 9.56043 8.62893 2.12132
    endloop
  endfacet
  facet normal -0.747301 -0.544483 0.380892
    outer loop
      vertex 10.4718 6.06674 0.776457
      vertex 9.20651 8.3095 1.5
      vertex 8.98403 8.1087 0.776457
    endloop
  endfacet
  facet normal -0.74731 -0.544483 0.380876
    outer loop
      vertex 10.4718 6.06674 0.776457
      vertex 10.7311 6.21698 1.5
      vertex 9.20651 8.3095 1.5
    endloop
  endfacet
  facet normal -0.801391 -0.583879 0.129838
    outer loop
      vertex 10.3833 6.0155 0
      vertex 8.98403 8.1087 0.776457
      vertex 8.90814 8.0402 0
    endloop
  endfacet
  facet normal -0.801381 -0.583885 0.129873
    outer loop
      vertex 10.3833 6.0155 0
      vertex 10.4718 6.06674 0.776457
      vertex 8.98403 8.1087 0.776457
    endloop
  endfacet
  facet normal -0.0897124 -0.987472 -0.129814
    outer loop
      vertex 3.34175 16.5988 0.517637
      vertex 3.75309e-15 16.9024 0.517637
      vertex 3.76697e-15 16.9649 0.0422098
    endloop
  endfacet
  facet normal -0.0897193 -0.987618 -0.128688
    outer loop
      vertex 3.3552 16.6656 0
      vertex 3.76697e-15 16.9649 0.0422098
      vertex 3.7682e-15 16.9704 0
    endloop
  endfacet
  facet normal -0.0897202 -0.987477 -0.129763
    outer loop
      vertex 3.76697e-15 16.9649 0.0422098
      vertex 3.3552 16.6656 0
      vertex 3.34175 16.5988 0.517637
    endloop
  endfacet
  facet normal -0.0836896 -0.920925 -0.380647
    outer loop
      vertex 3.30232 16.4029 0.999999
      vertex 3.7088e-15 16.703 0.999999
      vertex 3.74945e-15 16.886 0.557255
    endloop
  endfacet
  facet normal -0.0836485 -0.920726 -0.381138
    outer loop
      vertex 3.34175 16.5988 0.517637
      vertex 3.74945e-15 16.886 0.557255
      vertex 3.75309e-15 16.9024 0.517637
    endloop
  endfacet
  facet normal -0.083656 -0.920856 -0.380822
    outer loop
      vertex 3.74945e-15 16.886 0.557255
      vertex 3.34175 16.5988 0.517637
      vertex 3.30232 16.4029 0.999999
    endloop
  endfacet
  facet normal -0.0719602 -0.791853 -0.606457
    outer loop
      vertex 3.23959 16.0913 1.41421
      vertex 3.63835e-15 16.3857 1.41421
      vertex 3.70298e-15 16.6767 1.03425
    endloop
  endfacet
  facet normal -0.0717077 -0.791107 -0.60746
    outer loop
      vertex 3.7088e-15 16.703 0.999999
      vertex 3.23959 16.0913 1.41421
      vertex 3.70298e-15 16.6767 1.03425
    endloop
  endfacet
  facet normal -0.0719543 -0.79179 -0.60654
    outer loop
      vertex 3.23959 16.0913 1.41421
      vertex 3.7088e-15 16.703 0.999999
      vertex 3.30232 16.4029 0.999999
    endloop
  endfacet
  facet normal -0.0552838 -0.608496 -0.791629
    outer loop
      vertex 3.15784 15.6853 1.73205
      vertex 3.54654e-15 15.9722 1.73205
      vertex 3.63072e-15 16.3513 1.44065
    endloop
  endfacet
  facet normal -0.0553016 -0.608559 -0.79158
    outer loop
      vertex 3.63072e-15 16.3513 1.44065
      vertex 3.23959 16.0913 1.41421
      vertex 3.15784 15.6853 1.73205
    endloop
  endfacet
  facet normal -0.0552948 -0.608466 -0.791651
    outer loop
      vertex 3.23959 16.0913 1.41421
      vertex 3.63072e-15 16.3513 1.44065
      vertex 3.63835e-15 16.3857 1.41421
    endloop
  endfacet
  facet normal -0.0348047 -0.383018 -0.923085
    outer loop
      vertex 3.06263 15.2124 1.93185
      vertex 3.43962e-15 15.4907 1.93185
      vertex 3.5376e-15 15.932 1.74874
    endloop
  endfacet
  facet normal -0.0347999 -0.383 -0.923093
    outer loop
      vertex 3.5376e-15 15.932 1.74874
      vertex 3.15784 15.6853 1.73205
      vertex 3.06263 15.2124 1.93185
    endloop
  endfacet
  facet normal -0.0348157 -0.383208 -0.923006
    outer loop
      vertex 3.15784 15.6853 1.73205
      vertex 3.5376e-15 15.932 1.74874
      vertex 3.54654e-15 15.9722 1.73205
    endloop
  endfacet
  facet normal -0.0118785 -0.130728 -0.991347
    outer loop
      vertex 2.96047 14.7049 2
      vertex 3.32488e-15 14.9739 2
      vertex 3.43e-15 15.4474 1.93756
    endloop
  endfacet
  facet normal -0.0118796 -0.130732 -0.991347
    outer loop
      vertex 3.43e-15 15.4474 1.93756
      vertex 3.06263 15.2124 1.93185
      vertex 2.96047 14.7049 2
    endloop
  endfacet
  facet normal -0.0118793 -0.13073 -0.991347
    outer loop
      vertex 3.06263 15.2124 1.93185
      vertex 3.43e-15 15.4474 1.93756
      vertex 3.43962e-15 15.4907 1.93185
    endloop
  endfacet
  facet normal 0.0118783 0.130735 -0.991346
    outer loop
      vertex 2.85831 14.1975 1.93185
      vertex 3.21014e-15 14.4572 1.93185
      vertex 3.31525e-15 14.9306 1.99428
    endloop
  endfacet
  facet normal 0.011884 0.130757 -0.991343
    outer loop
      vertex 3.31525e-15 14.9306 1.99428
      vertex 2.96047 14.7049 2
      vertex 2.85831 14.1975 1.93185
    endloop
  endfacet
  facet normal 0.011899 0.130955 -0.991317
    outer loop
      vertex 2.96047 14.7049 2
      vertex 3.31525e-15 14.9306 1.99428
      vertex 3.32488e-15 14.9739 2
    endloop
  endfacet
  facet normal 0.0348125 0.383077 -0.92306
    outer loop
      vertex 2.76311 13.7246 1.73205
      vertex 3.10322e-15 13.9757 1.73205
      vertex 3.20118e-15 14.4168 1.91511
    endloop
  endfacet
  facet normal 0.0347915 0.383002 -0.923092
    outer loop
      vertex 3.20118e-15 14.4168 1.91511
      vertex 2.85831 14.1975 1.93185
      vertex 2.76311 13.7246 1.73205
    endloop
  endfacet
  facet normal 0.034759 0.382565 -0.923275
    outer loop
      vertex 2.85831 14.1975 1.93185
      vertex 3.20118e-15 14.4168 1.91511
      vertex 3.21014e-15 14.4572 1.93185
    endloop
  endfacet
  facet normal 0.0552881 0.608566 -0.791575
    outer loop
      vertex 2.68135 13.3186 1.41421
      vertex 3.01141e-15 13.5622 1.41421
      vertex 3.09555e-15 13.9411 1.70551
    endloop
  endfacet
  facet normal 0.0552862 0.60856 -0.791579
    outer loop
      vertex 3.09555e-15 13.9411 1.70551
      vertex 2.76311 13.7246 1.73205
      vertex 2.68135 13.3186 1.41421
    endloop
  endfacet
  facet normal 0.0552248 0.607695 -0.792248
    outer loop
      vertex 2.76311 13.7246 1.73205
      vertex 3.09555e-15 13.9411 1.70551
      vertex 3.10322e-15 13.9757 1.73205
    endloop
  endfacet
  facet normal 0.0719389 0.791848 -0.606466
    outer loop
      vertex 2.61862 13.007 0.999999
      vertex 2.94096e-15 13.2449 0.999999
      vertex 3.00556e-15 13.5358 1.37982
    endloop
  endfacet
  facet normal 0.0718778 0.791172 -0.607355
    outer loop
      vertex 2.68135 13.3186 1.41421
      vertex 3.00556e-15 13.5358 1.37982
      vertex 3.01141e-15 13.5622 1.41421
    endloop
  endfacet
  facet normal 0.0719178 0.791795 -0.606538
    outer loop
      vertex 3.00556e-15 13.5358 1.37982
      vertex 2.68135 13.3186 1.41421
      vertex 2.61862 13.007 0.999999
    endloop
  endfacet
  facet normal 0.0836494 0.920819 -0.380914
    outer loop
      vertex 2.57919 12.8111 0.517637
      vertex 2.89667e-15 13.0454 0.517637
      vertex 2.93731e-15 13.2285 0.960261
    endloop
  endfacet
  facet normal 0.0836841 0.92113 -0.380153
    outer loop
      vertex 2.61862 13.007 0.999999
      vertex 2.93731e-15 13.2285 0.960261
      vertex 2.94096e-15 13.2449 0.999999
    endloop
  endfacet
  facet normal 0.0836709 0.920855 -0.380823
    outer loop
      vertex 2.93731e-15 13.2285 0.960261
      vertex 2.61862 13.007 0.999999
      vertex 2.57919 12.8111 0.517637
    endloop
  endfacet
  facet normal 0.0897126 0.98747 -0.129826
    outer loop
      vertex 2.56574 12.7443 0
      vertex 2.88156e-15 12.9774 0
      vertex 2.89543e-15 13.0399 0.47538
    endloop
  endfacet
  facet normal 0.0897194 0.987637 -0.128547
    outer loop
      vertex 2.57919 12.8111 0.517637
      vertex 2.89543e-15 13.0399 0.47538
      vertex 2.89667e-15 13.0454 0.517637
    endloop
  endfacet
  facet normal 0.0897251 0.987477 -0.129763
    outer loop
      vertex 2.89543e-15 13.0399 0.47538
      vertex 2.57919 12.8111 0.517637
      vertex 2.56574 12.7443 0
    endloop
  endfacet
  facet normal -0.299398 -0.945263 -0.129764
    outer loop
      vertex 6.82352 15.496 0.517637
      vertex 3.34175 16.5988 0.517637
      vertex 3.3552 16.6656 0
    endloop
  endfacet
  facet normal -0.299386 -0.945257 -0.129831
    outer loop
      vertex 6.82352 15.496 0.517637
      vertex 3.3552 16.6656 0
      vertex 6.85098 15.5584 0
    endloop
  endfacet
  facet normal -0.279179 -0.881496 -0.38082
    outer loop
      vertex 6.743 15.3132 0.999999
      vertex 3.30232 16.4029 0.999999
      vertex 3.34175 16.5988 0.517637
    endloop
  endfacet
  facet normal -0.279216 -0.881542 -0.380686
    outer loop
      vertex 6.743 15.3132 0.999999
      vertex 3.34175 16.5988 0.517637
      vertex 6.82352 15.496 0.517637
    endloop
  endfacet
  facet normal -0.24005 -0.757949 -0.606539
    outer loop
      vertex 6.61491 15.0223 1.41421
      vertex 3.23959 16.0913 1.41421
      vertex 3.30232 16.4029 0.999999
    endloop
  endfacet
  facet normal -0.24005 -0.757948 -0.606539
    outer loop
      vertex 6.61491 15.0223 1.41421
      vertex 3.30232 16.4029 0.999999
      vertex 6.743 15.3132 0.999999
    endloop
  endfacet
  facet normal -0.184511 -0.582542 -0.791581
    outer loop
      vertex 6.44798 14.6432 1.73205
      vertex 3.15784 15.6853 1.73205
      vertex 3.23959 16.0913 1.41421
    endloop
  endfacet
  facet normal -0.184478 -0.58248 -0.791634
    outer loop
      vertex 6.44798 14.6432 1.73205
      vertex 3.23959 16.0913 1.41421
      vertex 6.61491 15.0223 1.41421
    endloop
  endfacet
  facet normal -0.116125 -0.366627 -0.923093
    outer loop
      vertex 6.25359 14.2017 1.93185
      vertex 3.06263 15.2124 1.93185
      vertex 3.15784 15.6853 1.73205
    endloop
  endfacet
  facet normal -0.116121 -0.366618 -0.923096
    outer loop
      vertex 6.25359 14.2017 1.93185
      vertex 3.15784 15.6853 1.73205
      vertex 6.44798 14.6432 1.73205
    endloop
  endfacet
  facet normal -0.0396349 -0.125145 -0.991346
    outer loop
      vertex 6.04498 13.728 2
      vertex 2.96047 14.7049 2
      vertex 3.06263 15.2124 1.93185
    endloop
  endfacet
  facet normal -0.0396441 -0.125163 -0.991344
    outer loop
      vertex 6.04498 13.728 2
      vertex 3.06263 15.2124 1.93185
      vertex 6.25359 14.2017 1.93185
    endloop
  endfacet
  facet normal 0.0396426 0.125168 -0.991343
    outer loop
      vertex 5.83638 13.2543 1.93185
      vertex 2.85831 14.1975 1.93185
      vertex 2.96047 14.7049 2
    endloop
  endfacet
  facet normal 0.0396414 0.125165 -0.991344
    outer loop
      vertex 5.83638 13.2543 1.93185
      vertex 2.96047 14.7049 2
      vertex 6.04498 13.728 2
    endloop
  endfacet
  facet normal 0.11612 0.36663 -0.923092
    outer loop
      vertex 5.64198 12.8128 1.73205
      vertex 2.76311 13.7246 1.73205
      vertex 2.85831 14.1975 1.93185
    endloop
  endfacet
  facet normal 0.116114 0.366619 -0.923097
    outer loop
      vertex 5.64198 12.8128 1.73205
      vertex 2.85831 14.1975 1.93185
      vertex 5.83638 13.2543 1.93185
    endloop
  endfacet
  facet normal 0.184517 0.582538 -0.791582
    outer loop
      vertex 5.47506 12.4337 1.41421
      vertex 2.68135 13.3186 1.41421
      vertex 2.76311 13.7246 1.73205
    endloop
  endfacet
  facet normal 0.184484 0.582481 -0.791632
    outer loop
      vertex 5.47506 12.4337 1.41421
      vertex 2.76311 13.7246 1.73205
      vertex 5.64198 12.8128 1.73205
    endloop
  endfacet
  facet normal 0.240077 0.757941 -0.606538
    outer loop
      vertex 5.34697 12.1428 0.999999
      vertex 2.61862 13.007 0.999999
      vertex 2.68135 13.3186 1.41421
    endloop
  endfacet
  facet normal 0.240075 0.757939 -0.606541
    outer loop
      vertex 5.34697 12.1428 0.999999
      vertex 2.68135 13.3186 1.41421
      vertex 5.47506 12.4337 1.41421
    endloop
  endfacet
  facet normal 0.279184 0.881495 -0.38082
    outer loop
      vertex 5.26645 11.96 0.517637
      vertex 2.57919 12.8111 0.517637
      vertex 2.61862 13.007 0.999999
    endloop
  endfacet
  facet normal 0.279226 0.881539 -0.380686
    outer loop
      vertex 5.26645 11.96 0.517637
      vertex 2.61862 13.007 0.999999
      vertex 5.34697 12.1428 0.999999
    endloop
  endfacet
  facet normal 0.299394 0.945264 -0.129764
    outer loop
      vertex 5.23899 11.8976 0
      vertex 2.56574 12.7443 0
      vertex 2.57919 12.8111 0.517637
    endloop
  endfacet
  facet normal 0.299379 0.94526 -0.129831
    outer loop
      vertex 5.23899 11.8976 0
      vertex 2.57919 12.8111 0.517637
      vertex 5.26645 11.96 0.517637
    endloop
  endfacet
  facet normal -0.495116 -0.859073 -0.129825
    outer loop
      vertex 9.98781 13.6723 0.517637
      vertex 6.82352 15.496 0.517637
      vertex 6.85098 15.5584 0
    endloop
  endfacet
  facet normal -0.495136 -0.859077 -0.129722
    outer loop
      vertex 9.98781 13.6723 0.517637
      vertex 6.85098 15.5584 0
      vertex 10.028 13.7273 0
    endloop
  endfacet
  facet normal -0.461765 -0.801152 -0.380693
    outer loop
      vertex 9.86995 13.5109 0.999999
      vertex 6.743 15.3132 0.999999
      vertex 6.82352 15.496 0.517637
    endloop
  endfacet
  facet normal -0.461707 -0.801104 -0.380865
    outer loop
      vertex 9.86995 13.5109 0.999999
      vertex 6.82352 15.496 0.517637
      vertex 9.98781 13.6723 0.517637
    endloop
  endfacet
  facet normal -0.397013 -0.688833 -0.606539
    outer loop
      vertex 9.68246 13.2543 1.41421
      vertex 6.61491 15.0223 1.41421
      vertex 6.743 15.3132 0.999999
    endloop
  endfacet
  facet normal -0.397049 -0.688872 -0.606472
    outer loop
      vertex 9.68246 13.2543 1.41421
      vertex 6.743 15.3132 0.999999
      vertex 9.86995 13.5109 0.999999
    endloop
  endfacet
  facet normal -0.305105 -0.529364 -0.791634
    outer loop
      vertex 9.43812 12.9198 1.73205
      vertex 6.44798 14.6432 1.73205
      vertex 6.61491 15.0223 1.41421
    endloop
  endfacet
  facet normal -0.305096 -0.529354 -0.791644
    outer loop
      vertex 9.43812 12.9198 1.73205
      vertex 6.61491 15.0223 1.41421
      vertex 9.68246 13.2543 1.41421
    endloop
  endfacet
  facet normal -0.192034 -0.333193 -0.923095
    outer loop
      vertex 9.15359 12.5303 1.93185
      vertex 6.25359 14.2017 1.93185
      vertex 6.44798 14.6432 1.73205
    endloop
  endfacet
  facet normal -0.192052 -0.333215 -0.923084
    outer loop
      vertex 9.15359 12.5303 1.93185
      vertex 6.44798 14.6432 1.73205
      vertex 9.43812 12.9198 1.73205
    endloop
  endfacet
  facet normal -0.0655614 -0.11375 -0.991344
    outer loop
      vertex 8.84824 12.1123 2
      vertex 6.04498 13.728 2
      vertex 6.25359 14.2017 1.93185
    endloop
  endfacet
  facet normal -0.0655536 -0.11374 -0.991345
    outer loop
      vertex 8.84824 12.1123 2
      vertex 6.25359 14.2017 1.93185
      vertex 9.15359 12.5303 1.93185
    endloop
  endfacet
  facet normal 0.065564 0.11375 -0.991344
    outer loop
      vertex 8.5429 11.6943 1.93185
      vertex 5.83638 13.2543 1.93185
      vertex 6.04498 13.728 2
    endloop
  endfacet
  facet normal 0.0655558 0.11374 -0.991345
    outer loop
      vertex 8.5429 11.6943 1.93185
      vertex 6.04498 13.728 2
      vertex 8.84824 12.1123 2
    endloop
  endfacet
  facet normal 0.192039 0.333188 -0.923096
    outer loop
      vertex 8.25836 11.3048 1.73205
      vertex 5.64198 12.8128 1.73205
      vertex 5.83638 13.2543 1.93185
    endloop
  endfacet
  facet normal 0.192057 0.333208 -0.923085
    outer loop
      vertex 8.25836 11.3048 1.73205
      vertex 5.83638 13.2543 1.93185
      vertex 8.5429 11.6943 1.93185
    endloop
  endfacet
  facet normal 0.305098 0.529373 -0.791631
    outer loop
      vertex 8.01402 10.9704 1.41421
      vertex 5.47506 12.4337 1.41421
      vertex 5.64198 12.8128 1.73205
    endloop
  endfacet
  facet normal 0.305142 0.529421 -0.791582
    outer loop
      vertex 8.01402 10.9704 1.41421
      vertex 5.64198 12.8128 1.73205
      vertex 8.25836 11.3048 1.73205
    endloop
  endfacet
  facet normal 0.397011 0.688834 -0.606539
    outer loop
      vertex 7.82653 10.7137 0.999999
      vertex 5.34697 12.1428 0.999999
      vertex 5.47506 12.4337 1.41421
    endloop
  endfacet
  facet normal 0.39699 0.688814 -0.606576
    outer loop
      vertex 7.82653 10.7137 0.999999
      vertex 5.47506 12.4337 1.41421
      vertex 8.01402 10.9704 1.41421
    endloop
  endfacet
  facet normal 0.461756 0.801158 -0.380694
    outer loop
      vertex 7.70867 10.5524 0.517637
      vertex 5.26645 11.96 0.517637
      vertex 5.34697 12.1428 0.999999
    endloop
  endfacet
  facet normal 0.461745 0.80115 -0.380724
    outer loop
      vertex 7.70867 10.5524 0.517637
      vertex 5.34697 12.1428 0.999999
      vertex 7.82653 10.7137 0.999999
    endloop
  endfacet
  facet normal 0.495114 0.859074 -0.129825
    outer loop
      vertex 7.66848 10.4974 0
      vertex 5.23899 11.8976 0
      vertex 5.26645 11.96 0.517637
    endloop
  endfacet
  facet normal 0.495138 0.859076 -0.129722
    outer loop
      vertex 7.66848 10.4974 0
      vertex 5.26645 11.96 0.517637
      vertex 7.70867 10.5524 0.517637
    endloop
  endfacet
  facet normal -0.66784 -0.732913 -0.129725
    outer loop
      vertex 12.6874 11.2124 0.517637
      vertex 9.98781 13.6723 0.517637
      vertex 10.028 13.7273 0
    endloop
  endfacet
  facet normal -0.667828 -0.732913 -0.129783
    outer loop
      vertex 12.6874 11.2124 0.517637
      vertex 10.028 13.7273 0
      vertex 12.7385 11.2575 0
    endloop
  endfacet
  facet normal -0.622758 -0.683464 -0.380854
    outer loop
      vertex 12.5377 11.0801 0.999999
      vertex 9.86995 13.5109 0.999999
      vertex 9.98781 13.6723 0.517637
    endloop
  endfacet
  facet normal -0.6228 -0.683485 -0.380748
    outer loop
      vertex 12.5377 11.0801 0.999999
      vertex 9.98781 13.6723 0.517637
      vertex 12.6874 11.2124 0.517637
    endloop
  endfacet
  facet normal -0.535527 -0.587703 -0.606479
    outer loop
      vertex 12.2995 10.8696 1.41421
      vertex 9.68246 13.2543 1.41421
      vertex 9.86995 13.5109 0.999999
    endloop
  endfacet
  facet normal -0.535464 -0.58766 -0.606575
    outer loop
      vertex 12.2995 10.8696 1.41421
      vertex 9.86995 13.5109 0.999999
      vertex 12.5377 11.0801 0.999999
    endloop
  endfacet
  facet normal -0.411519 -0.451614 -0.791642
    outer loop
      vertex 11.9891 10.5953 1.73205
      vertex 9.43812 12.9198 1.73205
      vertex 9.68246 13.2543 1.41421
    endloop
  endfacet
  facet normal -0.411522 -0.451616 -0.791639
    outer loop
      vertex 11.9891 10.5953 1.73205
      vertex 9.68246 13.2543 1.41421
      vertex 12.2995 10.8696 1.41421
    endloop
  endfacet
  facet normal -0.259037 -0.284283 -0.923083
    outer loop
      vertex 11.6277 10.2759 1.93185
      vertex 9.15359 12.5303 1.93185
      vertex 9.43812 12.9198 1.73205
    endloop
  endfacet
  facet normal -0.25906 -0.2843 -0.923072
    outer loop
      vertex 11.6277 10.2759 1.93185
      vertex 9.43812 12.9198 1.73205
      vertex 11.9891 10.5953 1.73205
    endloop
  endfacet
  facet normal -0.0884199 -0.0970363 -0.991345
    outer loop
      vertex 11.2398 9.9331 2
      vertex 8.84824 12.1123 2
      vertex 9.15359 12.5303 1.93185
    endloop
  endfacet
  facet normal -0.088417 -0.097034 -0.991346
    outer loop
      vertex 11.2398 9.9331 2
      vertex 9.15359 12.5303 1.93185
      vertex 11.6277 10.2759 1.93185
    endloop
  endfacet
  facet normal 0.0884213 0.0970374 -0.991345
    outer loop
      vertex 10.8519 9.59032 1.93185
      vertex 8.5429 11.6943 1.93185
      vertex 8.84824 12.1123 2
    endloop
  endfacet
  facet normal 0.0884199 0.0970363 -0.991345
    outer loop
      vertex 10.8519 9.59032 1.93185
      vertex 8.84824 12.1123 2
      vertex 11.2398 9.9331 2
    endloop
  endfacet
  facet normal 0.259034 0.28428 -0.923085
    outer loop
      vertex 10.4905 9.27089 1.73205
      vertex 8.25836 11.3048 1.73205
      vertex 8.5429 11.6943 1.93185
    endloop
  endfacet
  facet normal 0.259048 0.284291 -0.923078
    outer loop
      vertex 10.4905 9.27089 1.73205
      vertex 8.5429 11.6943 1.93185
      vertex 10.8519 9.59032 1.93185
    endloop
  endfacet
  facet normal 0.411569 0.451662 -0.791589
    outer loop
      vertex 10.1801 8.9966 1.41421
      vertex 8.01402 10.9704 1.41421
      vertex 8.25836 11.3048 1.73205
    endloop
  endfacet
  facet normal 0.41152 0.451628 -0.791634
    outer loop
      vertex 10.1801 8.9966 1.41421
      vertex 8.25836 11.3048 1.73205
      vertex 10.4905 9.27089 1.73205
    endloop
  endfacet
  facet normal 0.535475 0.587656 -0.606569
    outer loop
      vertex 9.94195 8.78612 0.999999
      vertex 7.82653 10.7137 0.999999
      vertex 8.01402 10.9704 1.41421
    endloop
  endfacet
  facet normal 0.53551 0.587678 -0.606517
    outer loop
      vertex 9.94195 8.78612 0.999999
      vertex 8.01402 10.9704 1.41421
      vertex 10.1801 8.9966 1.41421
    endloop
  endfacet
  facet normal 0.622807 0.683487 -0.380732
    outer loop
      vertex 9.79224 8.65381 0.517637
      vertex 7.70867 10.5524 0.517637
      vertex 7.82653 10.7137 0.999999
    endloop
  endfacet
  facet normal 0.622791 0.683481 -0.380771
    outer loop
      vertex 9.79224 8.65381 0.517637
      vertex 7.82653 10.7137 0.999999
      vertex 9.94195 8.78612 0.999999
    endloop
  endfacet
  facet normal 0.667849 0.732904 -0.129725
    outer loop
      vertex 9.74117 8.60869 0
      vertex 7.66848 10.4974 0
      vertex 7.70867 10.5524 0.517637
    endloop
  endfacet
  facet normal 0.667838 0.732906 -0.129773
    outer loop
      vertex 9.74117 8.60869 0
      vertex 7.70867 10.5524 0.517637
      vertex 9.79224 8.65381 0.517637
    endloop
  endfacet
  facet normal -0.809462 -0.572646 -0.129801
    outer loop
      vertex 14.6301 8.4758 0.475738
      vertex 12.6874 11.2124 0.517637
      vertex 12.7385 11.2575 0
    endloop
  endfacet
  facet normal -0.809398 -0.572591 -0.130444
    outer loop
      vertex 12.6874 11.2124 0.517637
      vertex 14.6301 8.4758 0.475738
      vertex 14.6253 8.47304 0.517637
    endloop
  endfacet
  facet normal -0.809464 -0.572645 -0.129787
    outer loop
      vertex 14.6301 8.4758 0.475738
      vertex 12.7385 11.2575 0
      vertex 14.6842 8.50715 0
    endloop
  endfacet
  facet normal -0.754884 -0.534024 -0.380746
    outer loop
      vertex 14.4666 8.38109 0.961236
      vertex 12.5377 11.0801 0.999999
      vertex 12.6874 11.2124 0.517637
    endloop
  endfacet
  facet normal -0.754723 -0.533902 -0.381237
    outer loop
      vertex 12.5377 11.0801 0.999999
      vertex 14.4666 8.38109 0.961236
      vertex 14.4527 8.37306 0.999999
    endloop
  endfacet
  facet normal -0.75488 -0.534023 -0.380756
    outer loop
      vertex 14.4666 8.38109 0.961236
      vertex 12.6874 11.2124 0.517637
      vertex 14.6253 8.47304 0.517637
    endloop
  endfacet
  facet normal -0.649032 -0.459153 -0.606578
    outer loop
      vertex 14.2001 8.2267 1.38115
      vertex 12.2995 10.8696 1.41421
      vertex 12.5377 11.0801 0.999999
    endloop
  endfacet
  facet normal -0.649184 -0.459266 -0.606329
    outer loop
      vertex 12.2995 10.8696 1.41421
      vertex 14.2001 8.2267 1.38115
      vertex 14.1782 8.21401 1.41421
    endloop
  endfacet
  facet normal -0.649092 -0.459177 -0.606494
    outer loop
      vertex 14.2001 8.2267 1.38115
      vertex 12.5377 11.0801 0.999999
      vertex 14.4527 8.37306 0.999999
    endloop
  endfacet
  facet normal -0.498762 -0.352853 -0.791663
    outer loop
      vertex 11.9891 10.5953 1.73205
      vertex 13.8488 8.02317 1.70683
      vertex 13.8204 8.00673 1.73205
    endloop
  endfacet
  facet normal -0.498786 -0.35287 -0.791641
    outer loop
      vertex 13.8488 8.02317 1.70683
      vertex 11.9891 10.5953 1.73205
      vertex 12.2995 10.8696 1.41421
    endloop
  endfacet
  facet normal -0.49867 -0.352785 -0.791752
    outer loop
      vertex 14.0978 8.16746 1.48559
      vertex 12.2995 10.8696 1.41421
      vertex 14.1782 8.21401 1.41421
    endloop
  endfacet
  facet normal -0.498845 -0.352897 -0.791592
    outer loop
      vertex 12.2995 10.8696 1.41421
      vertex 14.0978 8.16746 1.48559
      vertex 13.8488 8.02317 1.70683
    endloop
  endfacet
  facet normal -0.313991 -0.222121 -0.923077
    outer loop
      vertex 11.6277 10.2759 1.93185
      vertex 13.4366 7.78441 1.91607
      vertex 13.4037 7.76534 1.93185
    endloop
  endfacet
  facet normal -0.314004 -0.22213 -0.923071
    outer loop
      vertex 13.4366 7.78441 1.91607
      vertex 11.6277 10.2759 1.93185
      vertex 11.9891 10.5953 1.73205
    endloop
  endfacet
  facet normal -0.313943 -0.222101 -0.923099
    outer loop
      vertex 13.4366 7.78441 1.91607
      vertex 11.9891 10.5953 1.73205
      vertex 13.8204 8.00673 1.73205
    endloop
  endfacet
  facet normal -0.107274 -0.0758896 -0.991329
    outer loop
      vertex 11.2398 9.9331 2
      vertex 12.9918 7.5267 1.99463
      vertex 12.9566 7.50631 2
    endloop
  endfacet
  facet normal -0.10717 -0.0758138 -0.991346
    outer loop
      vertex 12.9918 7.5267 1.99463
      vertex 11.2398 9.9331 2
      vertex 11.6277 10.2759 1.93185
    endloop
  endfacet
  facet normal -0.107172 -0.0758149 -0.991346
    outer loop
      vertex 12.9918 7.5267 1.99463
      vertex 11.6277 10.2759 1.93185
      vertex 13.4037 7.76534 1.93185
    endloop
  endfacet
  facet normal 0.107107 0.0757733 -0.991356
    outer loop
      vertex 10.8519 9.59032 1.93185
      vertex 12.5447 7.26764 1.93721
      vertex 12.5095 7.24727 1.93185
    endloop
  endfacet
  facet normal 0.107169 0.0758188 -0.991346
    outer loop
      vertex 12.5447 7.26764 1.93721
      vertex 10.8519 9.59032 1.93185
      vertex 11.2398 9.9331 2
    endloop
  endfacet
  facet normal 0.107184 0.0758259 -0.991344
    outer loop
      vertex 12.5447 7.26764 1.93721
      vertex 11.2398 9.9331 2
      vertex 12.9566 7.50631 2
    endloop
  endfacet
  facet normal 0.313427 0.221724 -0.923364
    outer loop
      vertex 10.4905 9.27089 1.73205
      vertex 12.1257 7.02489 1.74778
      vertex 12.0928 7.00589 1.73205
    endloop
  endfacet
  facet normal 0.313986 0.222133 -0.923076
    outer loop
      vertex 12.1257 7.02489 1.74778
      vertex 10.4905 9.27089 1.73205
      vertex 10.8519 9.59032 1.93185
    endloop
  endfacet
  facet normal 0.313995 0.222137 -0.923072
    outer loop
      vertex 12.1257 7.02489 1.74778
      vertex 10.8519 9.59032 1.93185
      vertex 12.5095 7.24727 1.93185
    endloop
  endfacet
  facet normal 0.499418 0.353319 -0.791042
    outer loop
      vertex 10.1801 8.9966 1.41421
      vertex 11.7633 6.81498 1.43933
      vertex 11.7351 6.7986 1.41421
    endloop
  endfacet
  facet normal 0.498798 0.352862 -0.791636
    outer loop
      vertex 11.7633 6.81498 1.43933
      vertex 10.1801 8.9966 1.41421
      vertex 10.4905 9.27089 1.73205
    endloop
  endfacet
  facet normal 0.498812 0.352868 -0.791625
    outer loop
      vertex 11.7633 6.81498 1.43933
      vertex 10.4905 9.27089 1.73205
      vertex 12.0928 7.00589 1.73205
    endloop
  endfacet
  facet normal 0.649079 0.459171 -0.606513
    outer loop
      vertex 11.4823 6.6522 1.03293
      vertex 9.94195 8.78612 0.999999
      vertex 10.1801 8.9966 1.41421
    endloop
  endfacet
  facet normal 0.649251 0.4593 -0.606232
    outer loop
      vertex 9.94195 8.78612 0.999999
      vertex 11.4823 6.6522 1.03293
      vertex 11.4605 6.63955 0.999999
    endloop
  endfacet
  facet normal 0.649006 0.459147 -0.606609
    outer loop
      vertex 11.4823 6.6522 1.03293
      vertex 10.1801 8.9966 1.41421
      vertex 11.7351 6.7986 1.41421
    endloop
  endfacet
  facet normal 0.754865 0.534034 -0.38077
    outer loop
      vertex 11.3018 6.54758 0.556283
      vertex 9.79224 8.65381 0.517637
      vertex 9.94195 8.78612 0.999999
    endloop
  endfacet
  facet normal 0.754468 0.533727 -0.381987
    outer loop
      vertex 9.79224 8.65381 0.517637
      vertex 11.3018 6.54758 0.556283
      vertex 11.2879 6.53957 0.517637
    endloop
  endfacet
  facet normal 0.754901 0.53404 -0.380691
    outer loop
      vertex 11.3018 6.54758 0.556283
      vertex 9.94195 8.78612 0.999999
      vertex 11.4605 6.63955 0.999999
    endloop
  endfacet
  facet normal 0.809471 0.572638 -0.129777
    outer loop
      vertex 11.2338 6.50822 0.0418529
      vertex 9.74117 8.60869 0
      vertex 9.79224 8.65381 0.517637
    endloop
  endfacet
  facet normal 0.809577 0.572735 -0.128683
    outer loop
      vertex 9.74117 8.60869 0
      vertex 11.2338 6.50822 0.0418529
      vertex 11.2291 6.50546 0
    endloop
  endfacet
  facet normal 0.809472 0.572638 -0.129774
    outer loop
      vertex 11.2338 6.50822 0.0418529
      vertex 9.79224 8.65381 0.517637
      vertex 11.2879 6.53957 0.517637
    endloop
  endfacet
  facet normal 0 0 -1
    outer loop
      vertex 12.7385 11.2575 0
      vertex 14.8147 8.58277 0
      vertex 14.6842 8.50715 0
    endloop
  endfacet
  facet normal 0 0 -1
    outer loop
      vertex 14.8147 8.58277 0
      vertex 12.7385 11.2575 0
      vertex 15.575 9.02325 0
    endloop
  endfacet
  facet normal 0 0 -1
    outer loop
      vertex 15.575 9.02325 0
      vertex 12.7385 11.2575 0
      vertex 13.3622 12.0603 0
    endloop
  endfacet
  facet normal 0 0 -1
    outer loop
      vertex 10.028 13.7273 0
      vertex 13.3622 12.0603 0
      vertex 12.7385 11.2575 0
    endloop
  endfacet
  facet normal 0 0 -1
    outer loop
      vertex 13.3622 12.0603 0
      vertex 10.028 13.7273 0
      vertex 10.5671 14.5718 0
    endloop
  endfacet
  facet normal 0 0 -1
    outer loop
      vertex 10.028 13.7273 0
      vertex 7.31144 16.4482 0
      vertex 10.5671 14.5718 0
    endloop
  endfacet
  facet normal 0 0 -1
    outer loop
      vertex 6.85098 15.5584 0
      vertex 7.31144 16.4482 0
      vertex 10.028 13.7273 0
    endloop
  endfacet
  facet normal 0 0 -1
    outer loop
      vertex 6.85098 15.5584 0
      vertex 3.73715 17.6078 0
      vertex 7.31144 16.4482 0
    endloop
  endfacet
  facet normal 0 0 -1
    outer loop
      vertex 3.3552 16.6656 0
      vertex 3.73715 17.6078 0
      vertex 6.85098 15.5584 0
    endloop
  endfacet
  facet normal 0 0 -1
    outer loop
      vertex 3.3552 16.6656 0
      vertex 3.9968e-15 18 0
      vertex 3.73715 17.6078 0
    endloop
  endfacet
  facet normal 0 -0 -1
    outer loop
      vertex 3.9968e-15 18 0
      vertex 3.3552 16.6656 0
      vertex 3.7682e-15 16.9704 0
    endloop
  endfacet
  facet normal 0 0 -1
    outer loop
      vertex 8.90814 8.0402 0
      vertex 10.902 6.31597 0
      vertex 10.3833 6.0155 0
    endloop
  endfacet
  facet normal 0 0 -1
    outer loop
      vertex 10.902 6.31597 0
      vertex 9.74117 8.60869 0
      vertex 11.2291 6.50546 0
    endloop
  endfacet
  facet normal 0 0 -1
    outer loop
      vertex 10.902 6.31597 0
      vertex 8.90814 8.0402 0
      vertex 9.74117 8.60869 0
    endloop
  endfacet
  facet normal 0 0 -1
    outer loop
      vertex 8.90814 8.0402 0
      vertex 7.66848 10.4974 0
      vertex 9.74117 8.60869 0
    endloop
  endfacet
  facet normal 0 0 -1
    outer loop
      vertex 7.04473 9.71451 0
      vertex 7.66848 10.4974 0
      vertex 8.90814 8.0402 0
    endloop
  endfacet
  facet normal 0 0 -1
    outer loop
      vertex 7.04473 9.71451 0
      vertex 5.23899 11.8976 0
      vertex 7.66848 10.4974 0
    endloop
  endfacet
  facet normal 0 0 -1
    outer loop
      vertex 4.87429 10.9655 0
      vertex 5.23899 11.8976 0
      vertex 7.04473 9.71451 0
    endloop
  endfacet
  facet normal 0 0 -1
    outer loop
      vertex 2.49144 11.7385 0
      vertex 5.23899 11.8976 0
      vertex 4.87429 10.9655 0
    endloop
  endfacet
  facet normal -0 0 -1
    outer loop
      vertex 5.23899 11.8976 0
      vertex 2.49144 11.7385 0
      vertex 2.56574 12.7443 0
    endloop
  endfacet
  facet normal 0 0 -1
    outer loop
      vertex 2.66453e-15 12 0
      vertex 2.56574 12.7443 0
      vertex 2.49144 11.7385 0
    endloop
  endfacet
  facet normal -0 0 -1
    outer loop
      vertex 2.56574 12.7443 0
      vertex 2.66453e-15 12 0
      vertex 2.88156e-15 12.9774 0
    endloop
  endfacet
endsolid OpenSCAD_Model
