solid OpenSCAD_Model
  facet normal -1 2.22042e-16 -9.36119e-21
    outer loop
      vertex 2.2156e-15 9.97817 0.0462347
      vertex 2.41979e-15 10.8978 0.776457
      vertex 2.44249e-15 11 0
    endloop
  endfacet
  facet normal -1 2.22062e-16 -9.17798e-20
    outer loop
      vertex 2.19783e-15 9.89817 0.561253
      vertex 2.41979e-15 10.8978 0.776457
      vertex 2.20184e-15 9.91621 0.517637
    endloop
  endfacet
  facet normal -1 2.22043e-16 4.40773e-22
    outer loop
      vertex 2.2156e-15 9.97817 0.0462347
      vertex 2.44249e-15 11 0
      vertex 2.21695e-15 9.98425 0
    endloop
  endfacet
  facet normal -1 2.22039e-16 -5.2143e-21
    outer loop
      vertex 2.41979e-15 10.8978 0.776457
      vertex 2.2156e-15 9.97817 0.0462347
      vertex 2.20184e-15 9.91621 0.517637
    endloop
  endfacet
  facet normal -1 2.22041e-16 7.65678e-21
    outer loop
      vertex 2.41979e-15 10.8978 0.776457
      vertex 2.19783e-15 9.89817 0.561253
      vertex 2.35325e-15 10.5981 1.5
    endloop
  endfacet
  facet normal -1 2.22029e-16 1.62927e-20
    outer loop
      vertex 2.15755e-15 9.71672 0.999999
      vertex 2.35325e-15 10.5981 1.5
      vertex 2.19783e-15 9.89817 0.561253
    endloop
  endfacet
  facet normal -1 2.22082e-16 -7.7852e-20
    outer loop
      vertex 2.1511e-15 9.68769 1.03789
      vertex 2.35325e-15 10.5981 1.5
      vertex 2.15755e-15 9.71672 0.999999
    endloop
  endfacet
  facet normal -1 2.22043e-16 1.69213e-23
    outer loop
      vertex 2.35325e-15 10.5981 1.5
      vertex 2.1511e-15 9.68769 1.03789
      vertex 2.24738e-15 10.1213 2.12132
    endloop
  endfacet
  facet normal -1 2.22049e-16 -2.57686e-21
    outer loop
      vertex 2.08708e-15 9.39938 1.41421
      vertex 2.24738e-15 10.1213 2.12132
      vertex 2.1511e-15 9.68769 1.03789
    endloop
  endfacet
  facet normal -1 2.22031e-16 1.59811e-20
    outer loop
      vertex 2.07859e-15 9.36114 1.4436
      vertex 2.24738e-15 10.1213 2.12132
      vertex 2.08708e-15 9.39938 1.41421
    endloop
  endfacet
  facet normal -1 2.22048e-16 -3.12273e-21
    outer loop
      vertex 2.24738e-15 10.1213 2.12132
      vertex 2.07859e-15 9.36114 1.4436
      vertex 2.10942e-15 9.5 2.59808
    endloop
  endfacet
  facet normal -1 2.22048e-16 -3.11987e-21
    outer loop
      vertex 1.99525e-15 8.98582 1.73205
      vertex 2.10942e-15 9.5 2.59808
      vertex 2.07859e-15 9.36114 1.4436
    endloop
  endfacet
  facet normal -1 2.22068e-16 -1.47726e-20
    outer loop
      vertex 1.98527e-15 8.94088 1.7507
      vertex 2.10942e-15 9.5 2.59808
      vertex 1.99525e-15 8.98582 1.73205
    endloop
  endfacet
  facet normal -1 2.22044e-16 6.57495e-22
    outer loop
      vertex 1.98527e-15 8.94088 1.7507
      vertex 1.94876e-15 8.77645 2.89778
      vertex 2.10942e-15 9.5 2.59808
    endloop
  endfacet
  facet normal -1 2.22025e-16 -2.05499e-21
    outer loop
      vertex 1.88832e-15 8.50422 1.93185
      vertex 1.94876e-15 8.77645 2.89778
      vertex 1.98527e-15 8.94088 1.7507
    endloop
  endfacet
  facet normal -1 2.22193e-16 -4.92348e-20
    outer loop
      vertex 1.87753e-15 8.45566 1.93826
      vertex 1.94876e-15 8.77645 2.89778
      vertex 1.88832e-15 8.50422 1.93185
    endloop
  endfacet
  facet normal -1 2.22037e-16 3.00523e-21
    outer loop
      vertex 1.87753e-15 8.45566 1.93826
      vertex 1.77636e-15 8 3
      vertex 1.94876e-15 8.77645 2.89778
    endloop
  endfacet
  facet normal -1 2.22035e-16 2.35802e-21
    outer loop
      vertex 1.77356e-15 7.9874 2
      vertex 1.77636e-15 8 3
      vertex 1.87753e-15 8.45566 1.93826
    endloop
  endfacet
  facet normal -1 2.22154e-16 8.62973e-22
    outer loop
      vertex 1.76273e-15 7.93865 1.99357
      vertex 1.77636e-15 8 3
      vertex 1.77356e-15 7.9874 2
    endloop
  endfacet
  facet normal -1 2.22035e-16 -7.70466e-22
    outer loop
      vertex 1.60395e-15 7.22354 2.89778
      vertex 1.76273e-15 7.93865 1.99357
      vertex 1.6588e-15 7.47057 1.93185
    endloop
  endfacet
  facet normal -1 2.21983e-16 -1.39353e-20
    outer loop
      vertex 1.60395e-15 7.22354 2.89778
      vertex 1.6588e-15 7.47057 1.93185
      vertex 1.64872e-15 7.42516 1.91301
    endloop
  endfacet
  facet normal -1 2.22045e-16 7.47735e-21
    outer loop
      vertex 1.76273e-15 7.93865 1.99357
      vertex 1.60395e-15 7.22354 2.89778
      vertex 1.77636e-15 8 3
    endloop
  endfacet
  facet normal -1 2.22055e-16 9.62149e-21
    outer loop
      vertex 1.44329e-15 6.5 2.59808
      vertex 1.64872e-15 7.42516 1.91301
      vertex 1.55186e-15 6.98897 1.73205
    endloop
  endfacet
  facet normal -1 2.21947e-16 -5.15596e-20
    outer loop
      vertex 1.44329e-15 6.5 2.59808
      vertex 1.55186e-15 6.98897 1.73205
      vertex 1.54325e-15 6.95017 1.70223
    endloop
  endfacet
  facet normal -1 2.22051e-16 1.39554e-20
    outer loop
      vertex 1.30533e-15 5.87868 2.12132
      vertex 1.54325e-15 6.95017 1.70223
      vertex 1.46003e-15 6.57541 1.41421
    endloop
  endfacet
  facet normal -1 2.22019e-16 -1.78006e-20
    outer loop
      vertex 1.30533e-15 5.87868 2.12132
      vertex 1.46003e-15 6.57541 1.41421
      vertex 1.45349e-15 6.54595 1.37575
    endloop
  endfacet
  facet normal -1 2.22047e-16 -7.97727e-22
    outer loop
      vertex 1.64872e-15 7.42516 1.91301
      vertex 1.44329e-15 6.5 2.59808
      vertex 1.60395e-15 7.22354 2.89778
    endloop
  endfacet
  facet normal -1 2.22039e-16 -1.88987e-21
    outer loop
      vertex 1.19947e-15 5.40192 1.5
      vertex 1.45349e-15 6.54595 1.37575
      vertex 1.38957e-15 6.25807 0.999999
    endloop
  endfacet
  facet normal -1 2.22064e-16 4.02081e-20
    outer loop
      vertex 1.19947e-15 5.40192 1.5
      vertex 1.38957e-15 6.25807 0.999999
      vertex 1.38552e-15 6.23984 0.955902
    endloop
  endfacet
  facet normal -1 2.22045e-16 -1.27049e-20
    outer loop
      vertex 1.13292e-15 5.10222 0.776457
      vertex 1.38552e-15 6.23984 0.955902
      vertex 1.34528e-15 6.05859 0.517637
    endloop
  endfacet
  facet normal -1 2.22048e-16 -7.79949e-21
    outer loop
      vertex 1.11022e-15 5 0
      vertex 1.34392e-15 6.05249 0.471214
      vertex 1.33017e-15 5.99055 0
    endloop
  endfacet
  facet normal -1 2.22045e-16 -2.19648e-21
    outer loop
      vertex 1.54325e-15 6.95017 1.70223
      vertex 1.30533e-15 5.87868 2.12132
      vertex 1.44329e-15 6.5 2.59808
    endloop
  endfacet
  facet normal -1 2.22079e-16 1.14563e-19
    outer loop
      vertex 1.34392e-15 6.05249 0.471214
      vertex 1.13292e-15 5.10222 0.776457
      vertex 1.34528e-15 6.05859 0.517637
    endloop
  endfacet
  facet normal -1 2.2204e-16 5.72173e-22
    outer loop
      vertex 1.45349e-15 6.54595 1.37575
      vertex 1.19947e-15 5.40192 1.5
      vertex 1.30533e-15 5.87868 2.12132
    endloop
  endfacet
  facet normal -1 2.22042e-16 5.70751e-21
    outer loop
      vertex 1.38552e-15 6.23984 0.955902
      vertex 1.13292e-15 5.10222 0.776457
      vertex 1.19947e-15 5.40192 1.5
    endloop
  endfacet
  facet normal -1 2.22043e-16 3.52255e-21
    outer loop
      vertex 1.34392e-15 6.05249 0.471214
      vertex 1.11022e-15 5 0
      vertex 1.13292e-15 5.10222 0.776457
    endloop
  endfacet
  facet normal 0.0249922 -0.999688 2.04914e-17
    outer loop
      vertex 10.9966 0.274915 0
      vertex 10.8944 0.27236 0.776457
      vertex 10.5948 0.26487 1.5
    endloop
  endfacet
  facet normal 0.0249889 -0.999688 -4.16859e-06
    outer loop
      vertex 10.5948 0.26487 1.5
      vertex 10.1182 0.252954 2.12132
      vertex 8.77371 0.219343 2.89778
    endloop
  endfacet
  facet normal 0.0249945 -0.999688 5.69597e-06
    outer loop
      vertex 10.1182 0.252954 2.12132
      vertex 9.49703 0.237426 2.59808
      vertex 8.77371 0.219343 2.89778
    endloop
  endfacet
  facet normal 0.0249918 -0.999688 -2.90535e-07
    outer loop
      vertex 10.5948 0.26487 1.5
      vertex 8.77371 0.219343 2.89778
      vertex 7.9975 0.199938 3
    endloop
  endfacet
  facet normal 0.024993 -0.999688 -1.05577e-06
    outer loop
      vertex 7.9975 0.199938 3
      vertex 7.22128 0.180532 2.89778
      vertex 6.49797 0.162449 2.59808
    endloop
  endfacet
  facet normal 0.0249925 -0.999688 8.18929e-07
    outer loop
      vertex 10.5948 0.26487 1.5
      vertex 7.9975 0.199938 3
      vertex 6.49797 0.162449 2.59808
    endloop
  endfacet
  facet normal 0.0249923 -0.999688 -9.44034e-07
    outer loop
      vertex 6.49797 0.162449 2.59808
      vertex 7.51138 0.187785 1.93754
      vertex 7.9849 0.199623 2
    endloop
  endfacet
  facet normal 0.0250019 -0.999687 1.38405e-05
    outer loop
      vertex 6.49797 0.162449 2.59808
      vertex 7.46824 0.186706 1.93185
      vertex 7.51138 0.187785 1.93754
    endloop
  endfacet
  facet normal 0.0249923 -0.999688 -2.33816e-07
    outer loop
      vertex 6.49797 0.162449 2.59808
      vertex 7.027 0.175675 1.74874
      vertex 7.46824 0.186706 1.93185
    endloop
  endfacet
  facet normal 0.0249874 -0.999688 -3.30993e-06
    outer loop
      vertex 6.49797 0.162449 2.59808
      vertex 6.98679 0.17467 1.73205
      vertex 7.027 0.175675 1.74874
    endloop
  endfacet
  facet normal 0.0249925 -0.999688 -4.02508e-07
    outer loop
      vertex 6.49797 0.162449 2.59808
      vertex 6.60807 0.165202 1.4409
      vertex 6.98679 0.17467 1.73205
    endloop
  endfacet
  facet normal 0.0249992 -0.999687 2.35866e-07
    outer loop
      vertex 6.49797 0.162449 2.59808
      vertex 6.57336 0.164334 1.41421
      vertex 6.60807 0.165202 1.4409
    endloop
  endfacet
  facet normal 0.0249917 -0.999688 -2.45511e-07
    outer loop
      vertex 6.49797 0.162449 2.59808
      vertex 6.28303 0.157076 1.03514
      vertex 6.57336 0.164334 1.41421
    endloop
  endfacet
  facet normal 0.0249923 -0.999688 -3.29731e-07
    outer loop
      vertex 5.10063 0.127516 0.776457
      vertex 6.28303 0.157076 1.03514
      vertex 6.49797 0.162449 2.59808
    endloop
  endfacet
  facet normal 0.0249903 -0.999688 8.54326e-06
    outer loop
      vertex 6.28303 0.157076 1.03514
      vertex 5.10063 0.127516 0.776457
      vertex 6.25612 0.156403 0.999999
    endloop
  endfacet
  facet normal 0.0249927 -0.999688 -3.50174e-06
    outer loop
      vertex 6.25612 0.156403 0.999999
      vertex 5.10063 0.127516 0.776457
      vertex 6.22491 0.155623 0.924518
    endloop
  endfacet
  facet normal 0.0249662 -0.999688 -6.58908e-05
    outer loop
      vertex 8.02821 0.200705 1.99429
      vertex 6.49797 0.162449 2.59808
      vertex 7.9849 0.199623 2
    endloop
  endfacet
  facet normal 0.024993 -0.999688 2.01014e-06
    outer loop
      vertex 8.50156 0.212539 1.93185
      vertex 6.49797 0.162449 2.59808
      vertex 8.02821 0.200705 1.99429
    endloop
  endfacet
  facet normal 0.024992 -0.999688 -9.8832e-07
    outer loop
      vertex 8.50156 0.212539 1.93185
      vertex 10.5948 0.26487 1.5
      vertex 6.49797 0.162449 2.59808
    endloop
  endfacet
  facet normal 0.0249922 -0.999688 6.35352e-16
    outer loop
      vertex 8.5422 0.213555 1.91499
      vertex 10.5948 0.26487 1.5
      vertex 8.50156 0.212539 1.93185
    endloop
  endfacet
  facet normal 0.0249911 -0.999688 -5.32792e-06
    outer loop
      vertex 8.98302 0.224576 1.73205
      vertex 10.5948 0.26487 1.5
      vertex 8.5422 0.213555 1.91499
    endloop
  endfacet
  facet normal 0.0249951 -0.999688 2.22143e-05
    outer loop
      vertex 9.01824 0.225456 1.70497
      vertex 10.5948 0.26487 1.5
      vertex 8.98302 0.224576 1.73205
    endloop
  endfacet
  facet normal 0.0249918 -0.999688 -3.10348e-06
    outer loop
      vertex 9.39645 0.234912 1.41421
      vertex 10.5948 0.26487 1.5
      vertex 9.01824 0.225456 1.70497
    endloop
  endfacet
  facet normal 0.0249916 -0.999688 -4.54293e-07
    outer loop
      vertex 9.42377 0.235595 1.37854
      vertex 10.5948 0.26487 1.5
      vertex 9.39645 0.234912 1.41421
    endloop
  endfacet
  facet normal 0.0249892 -0.999688 2.28928e-05
    outer loop
      vertex 10.5948 0.26487 1.5
      vertex 9.42377 0.235595 1.37854
      vertex 9.44656 0.236164 1.34879
    endloop
  endfacet
  facet normal 0.024992 -0.999688 -2.27603e-07
    outer loop
      vertex 6.49797 0.162449 2.59808
      vertex 5.87684 0.146921 2.12132
      vertex 5.40023 0.135006 1.5
    endloop
  endfacet
  facet normal 0.0249914 -0.999688 3.21858e-07
    outer loop
      vertex 6.49797 0.162449 2.59808
      vertex 5.40023 0.135006 1.5
      vertex 5.10063 0.127516 0.776457
    endloop
  endfacet
  facet normal 0.0249924 -0.999688 -1.95267e-06
    outer loop
      vertex 9.71369 0.242843 0.999999
      vertex 10.5948 0.26487 1.5
      vertex 9.44656 0.236164 1.34879
    endloop
  endfacet
  facet normal 0.0249888 -0.999688 4.5318e-06
    outer loop
      vertex 9.73106 0.243277 0.957969
      vertex 10.5948 0.26487 1.5
      vertex 9.71369 0.242843 0.999999
    endloop
  endfacet
  facet normal 0.0249914 -0.999688 2.60686e-07
    outer loop
      vertex 9.91311 0.247828 0.517637
      vertex 10.5948 0.26487 1.5
      vertex 9.73106 0.243277 0.957969
    endloop
  endfacet
  facet normal 0.0249952 -0.999688 3.94546e-07
    outer loop
      vertex 10.3973 0.259934 0
      vertex 9.91311 0.247828 0.517637
      vertex 9.91911 0.247978 0.471975
    endloop
  endfacet
  facet normal 0.024994 -0.999688 -8.22309e-07
    outer loop
      vertex 10.3973 0.259934 0
      vertex 9.91911 0.247978 0.471975
      vertex 9.98113 0.249529 0
    endloop
  endfacet
  facet normal 0.0249935 -0.999688 -1.17421e-06
    outer loop
      vertex 9.91311 0.247828 0.517637
      vertex 10.3973 0.259934 0
      vertex 10.5948 0.26487 1.5
    endloop
  endfacet
  facet normal 0.0249921 -0.999688 7.23528e-07
    outer loop
      vertex 5.10063 0.127516 0.776457
      vertex 6.07388 0.151847 0.559207
      vertex 6.22491 0.155623 0.924518
    endloop
  endfacet
  facet normal 0.0249895 -0.999688 -1.09114e-05
    outer loop
      vertex 5.10063 0.127516 0.776457
      vertex 6.0567 0.151418 0.517637
      vertex 6.07388 0.151847 0.559207
    endloop
  endfacet
  facet normal 0.0249927 -0.999688 8.51984e-07
    outer loop
      vertex 6.0567 0.151418 0.517637
      vertex 5.10063 0.127516 0.776457
      vertex 6.02087 0.150522 0.244989
    endloop
  endfacet
  facet normal 0.0249946 -0.999688 0
    outer loop
      vertex 5.10063 0.127516 0
      vertex 5.10063 0.127516 0.776457
      vertex 4.99844 0.124961 0
    endloop
  endfacet
  facet normal 0.0249898 -0.999688 0
    outer loop
      vertex 5.30861 0.132715 0
      vertex 5.10063 0.127516 0.776457
      vertex 5.10063 0.127516 0
    endloop
  endfacet
  facet normal 0.0249988 -0.999687 2.41271e-06
    outer loop
      vertex 5.30861 0.132715 0
      vertex 5.42214 0.135554 0
      vertex 5.10063 0.127516 0.776457
    endloop
  endfacet
  facet normal 0.0249919 -0.999688 -4.23041e-07
    outer loop
      vertex 5.42214 0.135554 0
      vertex 6.02087 0.150522 0.244989
      vertex 5.10063 0.127516 0.776457
    endloop
  endfacet
  facet normal 0.0249907 -0.999688 2.70569e-06
    outer loop
      vertex 6.02087 0.150522 0.244989
      vertex 5.42214 0.135554 0
      vertex 5.99465 0.149866 0.0454773
    endloop
  endfacet
  facet normal 0.0249913 -0.999688 -5.37971e-06
    outer loop
      vertex 5.99465 0.149866 0.0454773
      vertex 5.42214 0.135554 0
      vertex 5.98868 0.149717 0
    endloop
  endfacet
  facet normal 0.0249897 -0.999688 -6.70239e-07
    outer loop
      vertex 10.9966 0.274915 0
      vertex 10.5948 0.26487 1.5
      vertex 10.3973 0.259934 0
    endloop
  endfacet
  facet normal 0.109284 0.98551 0.129716
    outer loop
      vertex 2.38703 10.6331 0.776457
      vertex 2.44249e-15 11 0
      vertex 2.41979e-15 10.8978 0.776457
    endloop
  endfacet
  facet normal 0.109249 0.985501 0.129819
    outer loop
      vertex 2.38703 10.6331 0.776457
      vertex 2.40942 10.7329 0
      vertex 2.44249e-15 11 0
    endloop
  endfacet
  facet normal 0.101909 0.91907 0.38069
    outer loop
      vertex 2.32138 10.3407 1.5
      vertex 2.41979e-15 10.8978 0.776457
      vertex 2.35325e-15 10.5981 1.5
    endloop
  endfacet
  facet normal 0.101917 0.919078 0.380668
    outer loop
      vertex 2.32138 10.3407 1.5
      vertex 2.38703 10.6331 0.776457
      vertex 2.41979e-15 10.8978 0.776457
    endloop
  endfacet
  facet normal 0.0876092 0.790276 0.606456
    outer loop
      vertex 2.21696 9.87553 2.12132
      vertex 2.35325e-15 10.5981 1.5
      vertex 2.24738e-15 10.1213 2.12132
    endloop
  endfacet
  facet normal 0.0876309 0.790306 0.606414
    outer loop
      vertex 2.21696 9.87553 2.12132
      vertex 2.32138 10.3407 1.5
      vertex 2.35325e-15 10.5981 1.5
    endloop
  endfacet
  facet normal 0.0673405 0.607395 0.79154
    outer loop
      vertex 2.08086 9.2693 2.59808
      vertex 2.24738e-15 10.1213 2.12132
      vertex 2.10942e-15 9.5 2.59808
    endloop
  endfacet
  facet normal 0.0673341 0.607385 0.791549
    outer loop
      vertex 2.08086 9.2693 2.59808
      vertex 2.21696 9.87553 2.12132
      vertex 2.24738e-15 10.1213 2.12132
    endloop
  endfacet
  facet normal 0.0423866 0.382335 0.923051
    outer loop
      vertex 1.92238 8.56333 2.89778
      vertex 2.10942e-15 9.5 2.59808
      vertex 1.94876e-15 8.77645 2.89778
    endloop
  endfacet
  facet normal 0.042389 0.382339 0.923049
    outer loop
      vertex 1.92238 8.56333 2.89778
      vertex 2.08086 9.2693 2.59808
      vertex 2.10942e-15 9.5 2.59808
    endloop
  endfacet
  facet normal 0.0144691 0.130511 0.991341
    outer loop
      vertex 1.75231 7.80573 3
      vertex 1.94876e-15 8.77645 2.89778
      vertex 1.77636e-15 8 3
    endloop
  endfacet
  facet normal 0.0144687 0.13051 0.991341
    outer loop
      vertex 1.75231 7.80573 3
      vertex 1.92238 8.56333 2.89778
      vertex 1.94876e-15 8.77645 2.89778
    endloop
  endfacet
  facet normal -0.0144685 -0.130509 0.991342
    outer loop
      vertex 1.58223 7.04813 2.89778
      vertex 1.77636e-15 8 3
      vertex 1.60395e-15 7.22354 2.89778
    endloop
  endfacet
  facet normal -0.014469 -0.13051 0.991341
    outer loop
      vertex 1.58223 7.04813 2.89778
      vertex 1.75231 7.80573 3
      vertex 1.77636e-15 8 3
    endloop
  endfacet
  facet normal -0.0423897 -0.382339 0.923049
    outer loop
      vertex 1.42375 6.34215 2.59808
      vertex 1.60395e-15 7.22354 2.89778
      vertex 1.44329e-15 6.5 2.59808
    endloop
  endfacet
  facet normal -0.0423866 -0.382335 0.923051
    outer loop
      vertex 1.42375 6.34215 2.59808
      vertex 1.58223 7.04813 2.89778
      vertex 1.60395e-15 7.22354 2.89778
    endloop
  endfacet
  facet normal -0.0673392 -0.607383 0.79155
    outer loop
      vertex 1.28766 5.73592 2.12132
      vertex 1.44329e-15 6.5 2.59808
      vertex 1.30533e-15 5.87868 2.12132
    endloop
  endfacet
  facet normal -0.0673402 -0.607384 0.791549
    outer loop
      vertex 1.28766 5.73592 2.12132
      vertex 1.42375 6.34215 2.59808
      vertex 1.44329e-15 6.5 2.59808
    endloop
  endfacet
  facet normal -0.0876174 -0.7903 0.606424
    outer loop
      vertex 1.18323 5.27074 1.5
      vertex 1.30533e-15 5.87868 2.12132
      vertex 1.19947e-15 5.40192 1.5
    endloop
  endfacet
  facet normal -0.0876189 -0.790301 0.606422
    outer loop
      vertex 1.18323 5.27074 1.5
      vertex 1.28766 5.73592 2.12132
      vertex 1.30533e-15 5.87868 2.12132
    endloop
  endfacet
  facet normal -0.101892 -0.919072 0.38069
    outer loop
      vertex 1.11758 4.97832 0.776457
      vertex 1.19947e-15 5.40192 1.5
      vertex 1.13292e-15 5.10222 0.776457
    endloop
  endfacet
  facet normal -0.101894 -0.919072 0.380688
    outer loop
      vertex 1.11758 4.97832 0.776457
      vertex 1.18323 5.27074 1.5
      vertex 1.19947e-15 5.40192 1.5
    endloop
  endfacet
  facet normal -0.10926 -0.98551 0.129742
    outer loop
      vertex 1.09519 4.87858 0
      vertex 1.13292e-15 5.10222 0.776457
      vertex 1.11022e-15 5 0
    endloop
  endfacet
  facet normal -0.109258 -0.98551 0.129744
    outer loop
      vertex 1.09519 4.87858 0
      vertex 1.11758 4.97832 0.776457
      vertex 1.13292e-15 5.10222 0.776457
    endloop
  endfacet
  facet normal 0.322454 0.937641 0.129816
    outer loop
      vertex 4.65813 9.85207 0.776457
      vertex 2.40942 10.7329 0
      vertex 2.38703 10.6331 0.776457
    endloop
  endfacet
  facet normal 0.322477 0.937642 0.129751
    outer loop
      vertex 4.65813 9.85207 0.776457
      vertex 4.70182 9.94449 0
      vertex 2.40942 10.7329 0
    endloop
  endfacet
  facet normal 0.300728 0.874445 0.380669
    outer loop
      vertex 4.53003 9.58113 1.5
      vertex 2.38703 10.6331 0.776457
      vertex 2.32138 10.3407 1.5
    endloop
  endfacet
  facet normal 0.300719 0.87444 0.380686
    outer loop
      vertex 4.53003 9.58113 1.5
      vertex 4.65813 9.85207 0.776457
      vertex 2.38703 10.6331 0.776457
    endloop
  endfacet
  facet normal 0.258597 0.751925 0.606412
    outer loop
      vertex 4.32624 9.15012 2.12132
      vertex 2.32138 10.3407 1.5
      vertex 2.21696 9.87553 2.12132
    endloop
  endfacet
  facet normal 0.25859 0.751919 0.606423
    outer loop
      vertex 4.32624 9.15012 2.12132
      vertex 4.53003 9.58113 1.5
      vertex 2.32138 10.3407 1.5
    endloop
  endfacet
  facet normal 0.198741 0.577884 0.79155
    outer loop
      vertex 4.06067 8.58842 2.59808
      vertex 2.21696 9.87553 2.12132
      vertex 2.08086 9.2693 2.59808
    endloop
  endfacet
  facet normal 0.198743 0.577886 0.791549
    outer loop
      vertex 4.06067 8.58842 2.59808
      vertex 4.32624 9.15012 2.12132
      vertex 2.21696 9.87553 2.12132
    endloop
  endfacet
  facet normal 0.125107 0.36377 0.923049
    outer loop
      vertex 3.7514 7.9343 2.89778
      vertex 2.08086 9.2693 2.59808
      vertex 1.92238 8.56333 2.89778
    endloop
  endfacet
  facet normal 0.125104 0.363767 0.923051
    outer loop
      vertex 3.7514 7.9343 2.89778
      vertex 4.06067 8.58842 2.59808
      vertex 2.08086 9.2693 2.59808
    endloop
  endfacet
  facet normal 0.0427047 0.124171 0.991341
    outer loop
      vertex 3.41951 7.23235 3
      vertex 1.92238 8.56333 2.89778
      vertex 1.75231 7.80573 3
    endloop
  endfacet
  facet normal 0.0427044 0.124171 0.991341
    outer loop
      vertex 3.41951 7.23235 3
      vertex 3.7514 7.9343 2.89778
      vertex 1.92238 8.56333 2.89778
    endloop
  endfacet
  facet normal -0.0427045 -0.124171 0.991341
    outer loop
      vertex 3.08762 6.5304 2.89778
      vertex 1.75231 7.80573 3
      vertex 1.58223 7.04813 2.89778
    endloop
  endfacet
  facet normal -0.0427046 -0.124171 0.991341
    outer loop
      vertex 3.08762 6.5304 2.89778
      vertex 3.41951 7.23235 3
      vertex 1.75231 7.80573 3
    endloop
  endfacet
  facet normal -0.125103 -0.363767 0.923051
    outer loop
      vertex 2.77835 5.87629 2.59808
      vertex 1.58223 7.04813 2.89778
      vertex 1.42375 6.34215 2.59808
    endloop
  endfacet
  facet normal -0.125107 -0.36377 0.923049
    outer loop
      vertex 2.77835 5.87629 2.59808
      vertex 3.08762 6.5304 2.89778
      vertex 1.58223 7.04813 2.89778
    endloop
  endfacet
  facet normal -0.198746 -0.577885 0.791548
    outer loop
      vertex 2.51277 5.31458 2.12132
      vertex 1.42375 6.34215 2.59808
      vertex 1.28766 5.73592 2.12132
    endloop
  endfacet
  facet normal -0.198738 -0.577879 0.791555
    outer loop
      vertex 2.51277 5.31458 2.12132
      vertex 2.77835 5.87629 2.59808
      vertex 1.42375 6.34215 2.59808
    endloop
  endfacet
  facet normal -0.258592 -0.751919 0.606422
    outer loop
      vertex 2.30899 4.88358 1.5
      vertex 1.28766 5.73592 2.12132
      vertex 1.18323 5.27074 1.5
    endloop
  endfacet
  facet normal -0.258601 -0.751923 0.606413
    outer loop
      vertex 2.30899 4.88358 1.5
      vertex 2.51277 5.31458 2.12132
      vertex 1.28766 5.73592 2.12132
    endloop
  endfacet
  facet normal -0.300733 -0.874434 0.380689
    outer loop
      vertex 2.18089 4.61263 0.776457
      vertex 1.18323 5.27074 1.5
      vertex 1.11758 4.97832 0.776457
    endloop
  endfacet
  facet normal -0.300726 -0.874433 0.380697
    outer loop
      vertex 2.18089 4.61263 0.776457
      vertex 2.30899 4.88358 1.5
      vertex 1.18323 5.27074 1.5
    endloop
  endfacet
  facet normal -0.322471 -0.937645 0.129744
    outer loop
      vertex 2.13719 4.52022 0
      vertex 1.11758 4.97832 0.776457
      vertex 1.09519 4.87858 0
    endloop
  endfacet
  facet normal -0.322472 -0.937645 0.129743
    outer loop
      vertex 2.13719 4.52022 0
      vertex 2.18089 4.61263 0.776457
      vertex 1.11758 4.97832 0.776457
    endloop
  endfacet
  facet normal 0.520019 0.844243 0.129749
    outer loop
      vertex 6.70299 8.59252 0.776457
      vertex 4.70182 9.94449 0
      vertex 4.65813 9.85207 0.776457
    endloop
  endfacet
  facet normal 0.520019 0.844243 0.129749
    outer loop
      vertex 6.70299 8.59252 0.776457
      vertex 6.76587 8.67312 0
      vertex 4.70182 9.94449 0
    endloop
  endfacet
  facet normal 0.484966 0.787328 0.380686
    outer loop
      vertex 6.51865 8.35621 1.5
      vertex 4.65813 9.85207 0.776457
      vertex 4.53003 9.58113 1.5
    endloop
  endfacet
  facet normal 0.484961 0.787326 0.380697
    outer loop
      vertex 6.51865 8.35621 1.5
      vertex 6.70299 8.59252 0.776457
      vertex 4.65813 9.85207 0.776457
    endloop
  endfacet
  facet normal 0.417013 0.677015 0.606424
    outer loop
      vertex 6.22541 7.98031 2.12132
      vertex 4.53003 9.58113 1.5
      vertex 4.32624 9.15012 2.12132
    endloop
  endfacet
  facet normal 0.41702 0.677019 0.606416
    outer loop
      vertex 6.22541 7.98031 2.12132
      vertex 6.51865 8.35621 1.5
      vertex 4.53003 9.58113 1.5
    endloop
  endfacet
  facet normal 0.320497 0.52032 0.791548
    outer loop
      vertex 5.84325 7.49042 2.59808
      vertex 4.32624 9.15012 2.12132
      vertex 4.06067 8.58842 2.59808
    endloop
  endfacet
  facet normal 0.320495 0.520319 0.79155
    outer loop
      vertex 5.84325 7.49042 2.59808
      vertex 6.22541 7.98031 2.12132
      vertex 4.32624 9.15012 2.12132
    endloop
  endfacet
  facet normal 0.201746 0.327531 0.923051
    outer loop
      vertex 5.39821 6.91993 2.89778
      vertex 4.06067 8.58842 2.59808
      vertex 3.7514 7.9343 2.89778
    endloop
  endfacet
  facet normal 0.201746 0.327531 0.92305
    outer loop
      vertex 5.39821 6.91993 2.89778
      vertex 5.84325 7.49042 2.59808
      vertex 4.06067 8.58842 2.59808
    endloop
  endfacet
  facet normal 0.0688654 0.111802 0.991341
    outer loop
      vertex 4.92063 6.30772 3
      vertex 3.7514 7.9343 2.89778
      vertex 3.41951 7.23235 3
    endloop
  endfacet
  facet normal 0.0688655 0.111802 0.991341
    outer loop
      vertex 4.92063 6.30772 3
      vertex 5.39821 6.91993 2.89778
      vertex 3.7514 7.9343 2.89778
    endloop
  endfacet
  facet normal -0.0688653 -0.111802 0.991341
    outer loop
      vertex 4.44305 5.69551 2.89778
      vertex 3.41951 7.23235 3
      vertex 3.08762 6.5304 2.89778
    endloop
  endfacet
  facet normal -0.0688654 -0.111802 0.991341
    outer loop
      vertex 4.44305 5.69551 2.89778
      vertex 4.92063 6.30772 3
      vertex 3.41951 7.23235 3
    endloop
  endfacet
  facet normal -0.201749 -0.327533 0.923049
    outer loop
      vertex 3.99801 5.12502 2.59808
      vertex 3.08762 6.5304 2.89778
      vertex 2.77835 5.87629 2.59808
    endloop
  endfacet
  facet normal -0.201746 -0.327531 0.92305
    outer loop
      vertex 3.99801 5.12502 2.59808
      vertex 4.44305 5.69551 2.89778
      vertex 3.08762 6.5304 2.89778
    endloop
  endfacet
  facet normal -0.320491 -0.520314 0.791555
    outer loop
      vertex 3.61585 4.63513 2.12132
      vertex 2.77835 5.87629 2.59808
      vertex 2.51277 5.31458 2.12132
    endloop
  endfacet
  facet normal -0.320498 -0.520317 0.79155
    outer loop
      vertex 3.61585 4.63513 2.12132
      vertex 3.99801 5.12502 2.59808
      vertex 2.77835 5.87629 2.59808
    endloop
  endfacet
  facet normal -0.417019 -0.677022 0.606413
    outer loop
      vertex 3.32261 4.25923 1.5
      vertex 2.51277 5.31458 2.12132
      vertex 2.30899 4.88358 1.5
    endloop
  endfacet
  facet normal -0.417016 -0.677021 0.606416
    outer loop
      vertex 3.32261 4.25923 1.5
      vertex 3.61585 4.63513 2.12132
      vertex 2.51277 5.31458 2.12132
    endloop
  endfacet
  facet normal -0.484963 -0.787326 0.380696
    outer loop
      vertex 3.13827 4.02292 0.776457
      vertex 2.30899 4.88358 1.5
      vertex 2.18089 4.61263 0.776457
    endloop
  endfacet
  facet normal -0.484962 -0.787326 0.380697
    outer loop
      vertex 3.13827 4.02292 0.776457
      vertex 3.32261 4.25923 1.5
      vertex 2.30899 4.88358 1.5
    endloop
  endfacet
  facet normal -0.520024 -0.84424 0.129745
    outer loop
      vertex 3.07539 3.94232 0
      vertex 2.18089 4.61263 0.776457
      vertex 2.13719 4.52022 0
    endloop
  endfacet
  facet normal -0.520021 -0.844241 0.129749
    outer loop
      vertex 3.07539 3.94232 0
      vertex 3.13827 4.02292 0.776457
      vertex 2.18089 4.61263 0.776457
    endloop
  endfacet
  facet normal 0.692312 0.709838 0.12975
    outer loop
      vertex 8.42231 6.91565 0.776457
      vertex 6.76587 8.67312 0
      vertex 6.70299 8.59252 0.776457
    endloop
  endfacet
  facet normal 0.692314 0.709837 0.129743
    outer loop
      vertex 8.42231 6.91565 0.776457
      vertex 8.50131 6.98052 0
      vertex 6.76587 8.67312 0
    endloop
  endfacet
  facet normal 0.645637 0.661984 0.380696
    outer loop
      vertex 8.19069 6.72546 1.5
      vertex 6.70299 8.59252 0.776457
      vertex 6.51865 8.35621 1.5
    endloop
  endfacet
  facet normal 0.64564 0.661985 0.380691
    outer loop
      vertex 8.19069 6.72546 1.5
      vertex 8.42231 6.91565 0.776457
      vertex 6.70299 8.59252 0.776457
    endloop
  endfacet
  facet normal 0.555184 0.569237 0.606416
    outer loop
      vertex 7.82223 6.42291 2.12132
      vertex 6.51865 8.35621 1.5
      vertex 6.22541 7.98031 2.12132
    endloop
  endfacet
  facet normal 0.555178 0.569235 0.606423
    outer loop
      vertex 7.82223 6.42291 2.12132
      vertex 8.19069 6.72546 1.5
      vertex 6.51865 8.35621 1.5
    endloop
  endfacet
  facet normal 0.426683 0.437482 0.79155
    outer loop
      vertex 7.34204 6.02863 2.59808
      vertex 6.22541 7.98031 2.12132
      vertex 5.84325 7.49042 2.59808
    endloop
  endfacet
  facet normal 0.426683 0.437482 0.79155
    outer loop
      vertex 7.34204 6.02863 2.59808
      vertex 7.82223 6.42291 2.12132
      vertex 6.22541 7.98031 2.12132
    endloop
  endfacet
  facet normal 0.268588 0.275388 0.92305
    outer loop
      vertex 6.78286 5.56947 2.89778
      vertex 5.84325 7.49042 2.59808
      vertex 5.39821 6.91993 2.89778
    endloop
  endfacet
  facet normal 0.26859 0.275389 0.923049
    outer loop
      vertex 6.78286 5.56947 2.89778
      vertex 7.34204 6.02863 2.59808
      vertex 5.84325 7.49042 2.59808
    endloop
  endfacet
  facet normal 0.091682 0.0940028 0.991341
    outer loop
      vertex 6.18277 5.07674 3
      vertex 5.39821 6.91993 2.89778
      vertex 4.92063 6.30772 3
    endloop
  endfacet
  facet normal 0.0916814 0.0940025 0.991342
    outer loop
      vertex 6.18277 5.07674 3
      vertex 6.78286 5.56947 2.89778
      vertex 5.39821 6.91993 2.89778
    endloop
  endfacet
  facet normal -0.0916823 -0.0940026 0.991341
    outer loop
      vertex 5.58269 4.584 2.89778
      vertex 4.92063 6.30772 3
      vertex 4.44305 5.69551 2.89778
    endloop
  endfacet
  facet normal -0.0916815 -0.0940023 0.991342
    outer loop
      vertex 5.58269 4.584 2.89778
      vertex 6.18277 5.07674 3
      vertex 4.92063 6.30772 3
    endloop
  endfacet
  facet normal -0.268588 -0.275388 0.92305
    outer loop
      vertex 5.0235 4.12485 2.59808
      vertex 4.44305 5.69551 2.89778
      vertex 3.99801 5.12502 2.59808
    endloop
  endfacet
  facet normal -0.268591 -0.275388 0.923049
    outer loop
      vertex 5.0235 4.12485 2.59808
      vertex 5.58269 4.584 2.89778
      vertex 4.44305 5.69551 2.89778
    endloop
  endfacet
  facet normal -0.426682 -0.437483 0.79155
    outer loop
      vertex 4.54332 3.73056 2.12132
      vertex 3.99801 5.12502 2.59808
      vertex 3.61585 4.63513 2.12132
    endloop
  endfacet
  facet normal -0.426682 -0.437483 0.79155
    outer loop
      vertex 4.54332 3.73056 2.12132
      vertex 5.0235 4.12485 2.59808
      vertex 3.99801 5.12502 2.59808
    endloop
  endfacet
  facet normal -0.555184 -0.569237 0.606416
    outer loop
      vertex 4.17486 3.42802 1.5
      vertex 3.61585 4.63513 2.12132
      vertex 3.32261 4.25923 1.5
    endloop
  endfacet
  facet normal -0.555182 -0.569237 0.606418
    outer loop
      vertex 4.17486 3.42802 1.5
      vertex 4.54332 3.73056 2.12132
      vertex 3.61585 4.63513 2.12132
    endloop
  endfacet
  facet normal -0.64564 -0.661981 0.380696
    outer loop
      vertex 3.94323 3.23783 0.776457
      vertex 3.32261 4.25923 1.5
      vertex 3.13827 4.02292 0.776457
    endloop
  endfacet
  facet normal -0.645639 -0.661981 0.380698
    outer loop
      vertex 3.94323 3.23783 0.776457
      vertex 4.17486 3.42802 1.5
      vertex 3.32261 4.25923 1.5
    endloop
  endfacet
  facet normal -0.69231 -0.709839 0.12975
    outer loop
      vertex 3.86423 3.17296 0
      vertex 3.13827 4.02292 0.776457
      vertex 3.07539 3.94232 0
    endloop
  endfacet
  facet normal -0.692314 -0.709836 0.129743
    outer loop
      vertex 3.86423 3.17296 0
      vertex 3.94323 3.23783 0.776457
      vertex 3.13827 4.02292 0.776457
    endloop
  endfacet
  facet normal 0.830983 0.540957 0.129743
    outer loop
      vertex 9.73258 4.9029 0.776457
      vertex 8.50131 6.98052 0
      vertex 8.42231 6.91565 0.776457
    endloop
  endfacet
  facet normal 0.830983 0.540957 0.129742
    outer loop
      vertex 9.73258 4.9029 0.776457
      vertex 9.82387 4.94889 0
      vertex 8.50131 6.98052 0
    endloop
  endfacet
  facet normal 0.774964 0.504487 0.38069
    outer loop
      vertex 9.46492 4.76806 1.5
      vertex 8.42231 6.91565 0.776457
      vertex 8.19069 6.72546 1.5
    endloop
  endfacet
  facet normal 0.77496 0.504487 0.380697
    outer loop
      vertex 9.46492 4.76806 1.5
      vertex 9.73258 4.9029 0.776457
      vertex 8.42231 6.91565 0.776457
    endloop
  endfacet
  facet normal 0.666382 0.433804 0.606423
    outer loop
      vertex 9.03914 4.55357 2.12132
      vertex 8.19069 6.72546 1.5
      vertex 7.82223 6.42291 2.12132
    endloop
  endfacet
  facet normal 0.666386 0.433804 0.606419
    outer loop
      vertex 9.03914 4.55357 2.12132
      vertex 9.46492 4.76806 1.5
      vertex 8.19069 6.72546 1.5
    endloop
  endfacet
  facet normal 0.512146 0.333399 0.791551
    outer loop
      vertex 8.48425 4.27404 2.59808
      vertex 7.82223 6.42291 2.12132
      vertex 7.34204 6.02863 2.59808
    endloop
  endfacet
  facet normal 0.512146 0.333399 0.79155
    outer loop
      vertex 8.48425 4.27404 2.59808
      vertex 9.03914 4.55357 2.12132
      vertex 7.82223 6.42291 2.12132
    endloop
  endfacet
  facet normal 0.32239 0.20987 0.923049
    outer loop
      vertex 7.83807 3.94852 2.89778
      vertex 7.34204 6.02863 2.59808
      vertex 6.78286 5.56947 2.89778
    endloop
  endfacet
  facet normal 0.322389 0.20987 0.923049
    outer loop
      vertex 7.83807 3.94852 2.89778
      vertex 8.48425 4.27404 2.59808
      vertex 7.34204 6.02863 2.59808
    endloop
  endfacet
  facet normal 0.110045 0.0716375 0.991342
    outer loop
      vertex 7.14463 3.59919 3
      vertex 6.78286 5.56947 2.89778
      vertex 6.18277 5.07674 3
    endloop
  endfacet
  facet normal 0.110045 0.0716375 0.991342
    outer loop
      vertex 7.14463 3.59919 3
      vertex 7.83807 3.94852 2.89778
      vertex 6.78286 5.56947 2.89778
    endloop
  endfacet
  facet normal -0.110046 -0.0716376 0.991342
    outer loop
      vertex 6.45119 3.24986 2.89778
      vertex 6.18277 5.07674 3
      vertex 5.58269 4.584 2.89778
    endloop
  endfacet
  facet normal -0.110045 -0.0716376 0.991342
    outer loop
      vertex 6.45119 3.24986 2.89778
      vertex 7.14463 3.59919 3
      vertex 6.18277 5.07674 3
    endloop
  endfacet
  facet normal -0.322389 -0.209869 0.92305
    outer loop
      vertex 5.80501 2.92434 2.59808
      vertex 5.58269 4.584 2.89778
      vertex 5.0235 4.12485 2.59808
    endloop
  endfacet
  facet normal -0.322389 -0.209869 0.923049
    outer loop
      vertex 5.80501 2.92434 2.59808
      vertex 6.45119 3.24986 2.89778
      vertex 5.58269 4.584 2.89778
    endloop
  endfacet
  facet normal -0.512149 -0.333398 0.791549
    outer loop
      vertex 5.25012 2.64481 2.12132
      vertex 5.0235 4.12485 2.59808
      vertex 4.54332 3.73056 2.12132
    endloop
  endfacet
  facet normal -0.512146 -0.333398 0.79155
    outer loop
      vertex 5.25012 2.64481 2.12132
      vertex 5.80501 2.92434 2.59808
      vertex 5.0235 4.12485 2.59808
    endloop
  endfacet
  facet normal -0.666387 -0.433803 0.606418
    outer loop
      vertex 4.82434 2.43032 1.5
      vertex 4.54332 3.73056 2.12132
      vertex 4.17486 3.42802 1.5
    endloop
  endfacet
  facet normal -0.666386 -0.433803 0.606419
    outer loop
      vertex 4.82434 2.43032 1.5
      vertex 5.25012 2.64481 2.12132
      vertex 4.54332 3.73056 2.12132
    endloop
  endfacet
  facet normal -0.774957 -0.504489 0.380699
    outer loop
      vertex 4.55669 2.29548 0.776457
      vertex 4.17486 3.42802 1.5
      vertex 3.94323 3.23783 0.776457
    endloop
  endfacet
  facet normal -0.774965 -0.504485 0.380688
    outer loop
      vertex 4.55669 2.29548 0.776457
      vertex 4.82434 2.43032 1.5
      vertex 4.17486 3.42802 1.5
    endloop
  endfacet
  facet normal -0.830985 -0.540954 0.129743
    outer loop
      vertex 4.46539 2.24949 0
      vertex 3.94323 3.23783 0.776457
      vertex 3.86423 3.17296 0
    endloop
  endfacet
  facet normal -0.83098 -0.540959 0.129752
    outer loop
      vertex 4.46539 2.24949 0
      vertex 4.55669 2.29548 0.776457
      vertex 3.94323 3.23783 0.776457
    endloop
  endfacet
  facet normal 0.929289 0.345818 0.129742
    outer loop
      vertex 10.5702 2.65203 0.776457
      vertex 9.82387 4.94889 0
      vertex 9.73258 4.9029 0.776457
    endloop
  endfacet
  facet normal 0.929301 0.345804 0.129688
    outer loop
      vertex 10.5702 2.65203 0.776457
      vertex 10.6693 2.67691 0
      vertex 9.82387 4.94889 0
    endloop
  endfacet
  facet normal 0.866638 0.322503 0.380697
    outer loop
      vertex 10.2795 2.5791 1.5
      vertex 9.73258 4.9029 0.776457
      vertex 9.46492 4.76806 1.5
    endloop
  endfacet
  facet normal 0.866637 0.322503 0.380698
    outer loop
      vertex 10.2795 2.5791 1.5
      vertex 10.5702 2.65203 0.776457
      vertex 9.73258 4.9029 0.776457
    endloop
  endfacet
  facet normal 0.745222 0.277307 0.606419
    outer loop
      vertex 9.81704 2.46308 2.12132
      vertex 9.46492 4.76806 1.5
      vertex 9.03914 4.55357 2.12132
    endloop
  endfacet
  facet normal 0.745198 0.277311 0.606447
    outer loop
      vertex 9.81704 2.46308 2.12132
      vertex 10.2795 2.5791 1.5
      vertex 9.46492 4.76806 1.5
    endloop
  endfacet
  facet normal 0.572736 0.213123 0.791551
    outer loop
      vertex 9.2144 2.31187 2.59808
      vertex 9.03914 4.55357 2.12132
      vertex 8.48425 4.27404 2.59808
    endloop
  endfacet
  facet normal 0.572736 0.213123 0.791551
    outer loop
      vertex 9.2144 2.31187 2.59808
      vertex 9.81704 2.46308 2.12132
      vertex 9.03914 4.55357 2.12132
    endloop
  endfacet
  facet normal 0.360529 0.134158 0.923049
    outer loop
      vertex 8.51261 2.1358 2.89778
      vertex 8.48425 4.27404 2.59808
      vertex 7.83807 3.94852 2.89778
    endloop
  endfacet
  facet normal 0.36053 0.134158 0.923049
    outer loop
      vertex 8.51261 2.1358 2.89778
      vertex 9.2144 2.31187 2.59808
      vertex 8.48425 4.27404 2.59808
    endloop
  endfacet
  facet normal 0.123064 0.0457938 0.991342
    outer loop
      vertex 7.75949 1.94684 3
      vertex 7.83807 3.94852 2.89778
      vertex 7.14463 3.59919 3
    endloop
  endfacet
  facet normal 0.123064 0.0457938 0.991342
    outer loop
      vertex 8.51261 2.1358 2.89778
      vertex 7.83807 3.94852 2.89778
      vertex 7.75949 1.94684 3
    endloop
  endfacet
  facet normal -0.123064 -0.0457945 0.991342
    outer loop
      vertex 7.00638 1.75789 2.89778
      vertex 7.14463 3.59919 3
      vertex 6.45119 3.24986 2.89778
    endloop
  endfacet
  facet normal -0.123066 -0.0457943 0.991341
    outer loop
      vertex 7.75949 1.94684 3
      vertex 7.14463 3.59919 3
      vertex 7.00638 1.75789 2.89778
    endloop
  endfacet
  facet normal -0.360529 -0.134159 0.923049
    outer loop
      vertex 6.30459 1.58181 2.59808
      vertex 6.45119 3.24986 2.89778
      vertex 5.80501 2.92434 2.59808
    endloop
  endfacet
  facet normal -0.360528 -0.134159 0.92305
    outer loop
      vertex 7.00638 1.75789 2.89778
      vertex 6.45119 3.24986 2.89778
      vertex 6.30459 1.58181 2.59808
    endloop
  endfacet
  facet normal -0.572734 -0.213127 0.791551
    outer loop
      vertex 5.70195 1.43061 2.12132
      vertex 5.80501 2.92434 2.59808
      vertex 5.25012 2.64481 2.12132
    endloop
  endfacet
  facet normal -0.572737 -0.213126 0.791549
    outer loop
      vertex 6.30459 1.58181 2.59808
      vertex 5.80501 2.92434 2.59808
      vertex 5.70195 1.43061 2.12132
    endloop
  endfacet
  facet normal -0.745222 -0.277308 0.606419
    outer loop
      vertex 5.23952 1.31459 1.5
      vertex 5.25012 2.64481 2.12132
      vertex 4.82434 2.43032 1.5
    endloop
  endfacet
  facet normal -0.745216 -0.277311 0.606425
    outer loop
      vertex 5.70195 1.43061 2.12132
      vertex 5.25012 2.64481 2.12132
      vertex 5.23952 1.31459 1.5
    endloop
  endfacet
  facet normal -0.866648 -0.322488 0.380686
    outer loop
      vertex 4.94883 1.24165 0.776457
      vertex 4.82434 2.43032 1.5
      vertex 4.55669 2.29548 0.776457
    endloop
  endfacet
  facet normal -0.866644 -0.322491 0.380692
    outer loop
      vertex 4.94883 1.24165 0.776457
      vertex 5.23952 1.31459 1.5
      vertex 4.82434 2.43032 1.5
    endloop
  endfacet
  facet normal -0.929291 -0.345806 0.129753
    outer loop
      vertex 4.84968 1.21678 0
      vertex 4.55669 2.29548 0.776457
      vertex 4.46539 2.24949 0
    endloop
  endfacet
  facet normal -0.929295 -0.345799 0.129743
    outer loop
      vertex 4.84968 1.21678 0
      vertex 4.94883 1.24165 0.776457
      vertex 4.55669 2.29548 0.776457
    endloop
  endfacet
  facet normal 0.98248 0.13385 0.129684
    outer loop
      vertex 10.8944 0.27236 0.776457
      vertex 10.6693 2.67691 0
      vertex 10.5702 2.65203 0.776457
    endloop
  endfacet
  facet normal 0.982467 0.133873 0.129756
    outer loop
      vertex 10.8944 0.27236 0.776457
      vertex 10.9966 0.274915 0
      vertex 10.6693 2.67691 0
    endloop
  endfacet
  facet normal 0.916234 0.124831 0.3807
    outer loop
      vertex 10.5948 0.26487 1.5
      vertex 10.5702 2.65203 0.776457
      vertex 10.2795 2.5791 1.5
    endloop
  endfacet
  facet normal 0.916241 0.124826 0.380684
    outer loop
      vertex 10.5948 0.26487 1.5
      vertex 10.8944 0.27236 0.776457
      vertex 10.5702 2.65203 0.776457
    endloop
  endfacet
  facet normal 0.787841 0.107354 0.606451
    outer loop
      vertex 10.1182 0.252954 2.12132
      vertex 10.2795 2.5791 1.5
      vertex 9.81704 2.46308 2.12132
    endloop
  endfacet
  facet normal 0.78787 0.107343 0.606415
    outer loop
      vertex 10.5948 0.26487 1.5
      vertex 10.2795 2.5791 1.5
      vertex 10.1182 0.252954 2.12132
    endloop
  endfacet
  facet normal 0.605511 0.082497 0.79155
    outer loop
      vertex 9.49703 0.237426 2.59808
      vertex 9.81704 2.46308 2.12132
      vertex 9.2144 2.31187 2.59808
    endloop
  endfacet
  facet normal 0.605483 0.0825054 0.79157
    outer loop
      vertex 10.1182 0.252954 2.12132
      vertex 9.81704 2.46308 2.12132
      vertex 9.49703 0.237426 2.59808
    endloop
  endfacet
  facet normal 0.38116 0.0519297 0.923049
    outer loop
      vertex 8.77371 0.219343 2.89778
      vertex 9.2144 2.31187 2.59808
      vertex 8.51261 2.1358 2.89778
    endloop
  endfacet
  facet normal 0.381158 0.0519304 0.92305
    outer loop
      vertex 9.49703 0.237426 2.59808
      vertex 9.2144 2.31187 2.59808
      vertex 8.77371 0.219343 2.89778
    endloop
  endfacet
  facet normal 0.130106 0.0177265 0.991342
    outer loop
      vertex 7.9975 0.199938 3
      vertex 8.51261 2.1358 2.89778
      vertex 7.75949 1.94684 3
    endloop
  endfacet
  facet normal 0.130108 0.017726 0.991341
    outer loop
      vertex 8.77371 0.219343 2.89778
      vertex 8.51261 2.1358 2.89778
      vertex 7.9975 0.199938 3
    endloop
  endfacet
  facet normal -0.130108 -0.017726 0.991341
    outer loop
      vertex 7.22128 0.180532 2.89778
      vertex 7.75949 1.94684 3
      vertex 7.00638 1.75789 2.89778
    endloop
  endfacet
  facet normal -0.130106 -0.0177266 0.991342
    outer loop
      vertex 7.9975 0.199938 3
      vertex 7.75949 1.94684 3
      vertex 7.22128 0.180532 2.89778
    endloop
  endfacet
  facet normal -0.38116 -0.0519309 0.92305
    outer loop
      vertex 6.49797 0.162449 2.59808
      vertex 7.00638 1.75789 2.89778
      vertex 6.30459 1.58181 2.59808
    endloop
  endfacet
  facet normal -0.381162 -0.0519297 0.923048
    outer loop
      vertex 7.22128 0.180532 2.89778
      vertex 7.00638 1.75789 2.89778
      vertex 6.49797 0.162449 2.59808
    endloop
  endfacet
  facet normal -0.605512 -0.082495 0.791549
    outer loop
      vertex 5.87684 0.146921 2.12132
      vertex 6.30459 1.58181 2.59808
      vertex 5.70195 1.43061 2.12132
    endloop
  endfacet
  facet normal -0.605508 -0.0824971 0.791552
    outer loop
      vertex 6.49797 0.162449 2.59808
      vertex 6.30459 1.58181 2.59808
      vertex 5.87684 0.146921 2.12132
    endloop
  endfacet
  facet normal -0.787862 -0.107341 0.606426
    outer loop
      vertex 5.40023 0.135006 1.5
      vertex 5.70195 1.43061 2.12132
      vertex 5.23952 1.31459 1.5
    endloop
  endfacet
  facet normal -0.787864 -0.107339 0.606423
    outer loop
      vertex 5.87684 0.146921 2.12132
      vertex 5.70195 1.43061 2.12132
      vertex 5.40023 0.135006 1.5
    endloop
  endfacet
  facet normal -0.916237 -0.124837 0.380691
    outer loop
      vertex 5.10063 0.127516 0.776457
      vertex 5.23952 1.31459 1.5
      vertex 4.94883 1.24165 0.776457
    endloop
  endfacet
  facet normal -0.916241 -0.124831 0.380683
    outer loop
      vertex 5.40023 0.135006 1.5
      vertex 5.23952 1.31459 1.5
      vertex 5.10063 0.127516 0.776457
    endloop
  endfacet
  facet normal -0.98247 -0.133861 0.129745
    outer loop
      vertex 4.99844 0.124961 0
      vertex 4.94883 1.24165 0.776457
      vertex 4.84968 1.21678 0
    endloop
  endfacet
  facet normal -0.98247 -0.133861 0.129744
    outer loop
      vertex 4.99844 0.124961 0
      vertex 5.10063 0.127516 0.776457
      vertex 4.94883 1.24165 0.776457
    endloop
  endfacet
  facet normal -0.080563 -0.98825 -0.129893
    outer loop
      vertex 1.77942 9.77115 0.517637
      vertex 2.20184e-15 9.91621 0.517637
      vertex 2.2156e-15 9.97817 0.0462347
    endloop
  endfacet
  facet normal -0.0805649 -0.988241 -0.129957
    outer loop
      vertex 1.79163 9.83819 0
      vertex 2.2156e-15 9.97817 0.0462347
      vertex 2.21695e-15 9.98425 0
    endloop
  endfacet
  facet normal -0.0805639 -0.98825 -0.12989
    outer loop
      vertex 2.2156e-15 9.97817 0.0462347
      vertex 1.79163 9.83819 0
      vertex 1.77942 9.77115 0.517637
    endloop
  endfacet
  facet normal -0.0751191 -0.92148 -0.381092
    outer loop
      vertex 1.74362 9.57458 0.999999
      vertex 2.15755e-15 9.71672 0.999999
      vertex 2.19783e-15 9.89817 0.561253
    endloop
  endfacet
  facet normal -0.0751188 -0.921466 -0.381127
    outer loop
      vertex 1.77942 9.77115 0.517637
      vertex 2.19783e-15 9.89817 0.561253
      vertex 2.20184e-15 9.91621 0.517637
    endloop
  endfacet
  facet normal -0.0751189 -0.92148 -0.381093
    outer loop
      vertex 2.19783e-15 9.89817 0.561253
      vertex 1.77942 9.77115 0.517637
      vertex 1.74362 9.57458 0.999999
    endloop
  endfacet
  facet normal -0.0645777 -0.792155 -0.606894
    outer loop
      vertex 1.68667 9.26188 1.41421
      vertex 2.08708e-15 9.39938 1.41421
      vertex 2.1511e-15 9.68769 1.03789
    endloop
  endfacet
  facet normal -0.0645761 -0.792149 -0.606901
    outer loop
      vertex 1.74362 9.57458 0.999999
      vertex 2.1511e-15 9.68769 1.03789
      vertex 2.15755e-15 9.71672 0.999999
    endloop
  endfacet
  facet normal -0.0645762 -0.792152 -0.606898
    outer loop
      vertex 2.1511e-15 9.68769 1.03789
      vertex 1.74362 9.57458 0.999999
      vertex 1.68667 9.26188 1.41421
    endloop
  endfacet
  facet normal -0.0496154 -0.608618 -0.79191
    outer loop
      vertex 1.61246 8.85437 1.73205
      vertex 1.99525e-15 8.98582 1.73205
      vertex 2.07859e-15 9.36114 1.4436
    endloop
  endfacet
  facet normal -0.049616 -0.608619 -0.791909
    outer loop
      vertex 2.07859e-15 9.36114 1.4436
      vertex 1.68667 9.26188 1.41421
      vertex 1.61246 8.85437 1.73205
    endloop
  endfacet
  facet normal -0.0496164 -0.608629 -0.791902
    outer loop
      vertex 1.68667 9.26188 1.41421
      vertex 2.07859e-15 9.36114 1.4436
      vertex 2.08708e-15 9.39938 1.41421
    endloop
  endfacet
  facet normal -0.0312216 -0.383001 -0.92322
    outer loop
      vertex 1.52604 8.37982 1.93185
      vertex 1.88832e-15 8.50422 1.93185
      vertex 1.98527e-15 8.94088 1.7507
    endloop
  endfacet
  facet normal -0.0312272 -0.383015 -0.923214
    outer loop
      vertex 1.98527e-15 8.94088 1.7507
      vertex 1.61246 8.85437 1.73205
      vertex 1.52604 8.37982 1.93185
    endloop
  endfacet
  facet normal -0.031232 -0.383115 -0.923173
    outer loop
      vertex 1.61246 8.85437 1.73205
      vertex 1.98527e-15 8.94088 1.7507
      vertex 1.99525e-15 8.98582 1.73205
    endloop
  endfacet
  facet normal -0.0106562 -0.130711 -0.991363
    outer loop
      vertex 1.4333 7.87055 2
      vertex 1.77356e-15 7.9874 2
      vertex 1.87753e-15 8.45566 1.93826
    endloop
  endfacet
  facet normal -0.0106606 -0.130722 -0.991362
    outer loop
      vertex 1.87753e-15 8.45566 1.93826
      vertex 1.52604 8.37982 1.93185
      vertex 1.4333 7.87055 2
    endloop
  endfacet
  facet normal -0.0106674 -0.130859 -0.991344
    outer loop
      vertex 1.52604 8.37982 1.93185
      vertex 1.87753e-15 8.45566 1.93826
      vertex 1.88832e-15 8.50422 1.93185
    endloop
  endfacet
  facet normal 0.010656 0.130719 -0.991362
    outer loop
      vertex 1.34056 7.36129 1.93185
      vertex 1.6588e-15 7.47057 1.93185
      vertex 1.76273e-15 7.93865 1.99357
    endloop
  endfacet
  facet normal 0.0106585 0.130725 -0.991361
    outer loop
      vertex 1.76273e-15 7.93865 1.99357
      vertex 1.4333 7.87055 2
      vertex 1.34056 7.36129 1.93185
    endloop
  endfacet
  facet normal 0.01066 0.130757 -0.991357
    outer loop
      vertex 1.4333 7.87055 2
      vertex 1.76273e-15 7.93865 1.99357
      vertex 1.77356e-15 7.9874 2
    endloop
  endfacet
  facet normal 0.0312238 0.38301 -0.923216
    outer loop
      vertex 1.25414 6.88673 1.73205
      vertex 1.55186e-15 6.98897 1.73205
      vertex 1.64872e-15 7.42516 1.91301
    endloop
  endfacet
  facet normal 0.0312229 0.383008 -0.923217
    outer loop
      vertex 1.64872e-15 7.42516 1.91301
      vertex 1.34056 7.36129 1.93185
      vertex 1.25414 6.88673 1.73205
    endloop
  endfacet
  facet normal 0.0312237 0.383027 -0.923209
    outer loop
      vertex 1.34056 7.36129 1.93185
      vertex 1.64872e-15 7.42516 1.91301
      vertex 1.6588e-15 7.47057 1.93185
    endloop
  endfacet
  facet normal 0.0496157 0.608619 -0.79191
    outer loop
      vertex 1.17993 6.47922 1.41421
      vertex 1.46003e-15 6.57541 1.41421
      vertex 1.54325e-15 6.95017 1.70223
    endloop
  endfacet
  facet normal 0.0496161 0.608619 -0.791909
    outer loop
      vertex 1.54325e-15 6.95017 1.70223
      vertex 1.25414 6.88673 1.73205
      vertex 1.17993 6.47922 1.41421
    endloop
  endfacet
  facet normal 0.0496163 0.608624 -0.791906
    outer loop
      vertex 1.25414 6.88673 1.73205
      vertex 1.54325e-15 6.95017 1.70223
      vertex 1.55186e-15 6.98897 1.73205
    endloop
  endfacet
  facet normal 0.0645723 0.792149 -0.606902
    outer loop
      vertex 1.12298 6.16653 0.999999
      vertex 1.38957e-15 6.25807 0.999999
      vertex 1.45349e-15 6.54595 1.37575
    endloop
  endfacet
  facet normal 0.0645822 0.792208 -0.606824
    outer loop
      vertex 1.17993 6.47922 1.41421
      vertex 1.45349e-15 6.54595 1.37575
      vertex 1.46003e-15 6.57541 1.41421
    endloop
  endfacet
  facet normal 0.0645816 0.792161 -0.606886
    outer loop
      vertex 1.45349e-15 6.54595 1.37575
      vertex 1.17993 6.47922 1.41421
      vertex 1.12298 6.16653 0.999999
    endloop
  endfacet
  facet normal 0.0751217 0.921481 -0.38109
    outer loop
      vertex 1.08718 5.96996 0.517637
      vertex 1.34528e-15 6.05859 0.517637
      vertex 1.38552e-15 6.23984 0.955902
    endloop
  endfacet
  facet normal 0.0751189 0.921532 -0.380968
    outer loop
      vertex 1.12298 6.16653 0.999999
      vertex 1.38552e-15 6.23984 0.955902
      vertex 1.38957e-15 6.25807 0.999999
    endloop
  endfacet
  facet normal 0.0751204 0.92148 -0.381093
    outer loop
      vertex 1.38552e-15 6.23984 0.955902
      vertex 1.12298 6.16653 0.999999
      vertex 1.08718 5.96996 0.517637
    endloop
  endfacet
  facet normal 0.080569 0.988248 -0.129903
    outer loop
      vertex 1.07498 5.90291 0
      vertex 1.33017e-15 5.99055 0
      vertex 1.34392e-15 6.05249 0.471214
    endloop
  endfacet
  facet normal 0.0805653 0.988254 -0.129857
    outer loop
      vertex 1.08718 5.96996 0.517637
      vertex 1.34392e-15 6.05249 0.471214
      vertex 1.34528e-15 6.05859 0.517637
    endloop
  endfacet
  facet normal 0.0805669 0.988247 -0.129907
    outer loop
      vertex 1.34392e-15 6.05249 0.471214
      vertex 1.08718 5.96996 0.517637
      vertex 1.07498 5.90291 0
    endloop
  endfacet
  facet normal -0.272996 -0.953206 -0.129891
    outer loop
      vertex 3.66292 9.23172 0.517637
      vertex 1.77942 9.77115 0.517637
      vertex 1.79163 9.83819 0
    endloop
  endfacet
  facet normal -0.272994 -0.953206 -0.129896
    outer loop
      vertex 3.66292 9.23172 0.517637
      vertex 1.79163 9.83819 0
      vertex 3.68806 9.29506 0
    endloop
  endfacet
  facet normal -0.254552 -0.888803 -0.381093
    outer loop
      vertex 3.58923 9.046 0.999999
      vertex 1.74362 9.57458 0.999999
      vertex 1.77942 9.77115 0.517637
    endloop
  endfacet
  facet normal -0.254551 -0.888802 -0.381096
    outer loop
      vertex 3.58923 9.046 0.999999
      vertex 1.77942 9.77115 0.517637
      vertex 3.66292 9.23172 0.517637
    endloop
  endfacet
  facet normal -0.218822 -0.764062 -0.606899
    outer loop
      vertex 3.47201 8.75057 1.41421
      vertex 1.68667 9.26188 1.41421
      vertex 1.74362 9.57458 0.999999
    endloop
  endfacet
  facet normal -0.218828 -0.764069 -0.606888
    outer loop
      vertex 3.47201 8.75057 1.41421
      vertex 1.74362 9.57458 0.999999
      vertex 3.58923 9.046 0.999999
    endloop
  endfacet
  facet normal -0.168123 -0.587039 -0.791909
    outer loop
      vertex 3.31925 8.36556 1.73205
      vertex 1.61246 8.85437 1.73205
      vertex 1.68667 9.26188 1.41421
    endloop
  endfacet
  facet normal -0.168125 -0.587042 -0.791907
    outer loop
      vertex 3.31925 8.36556 1.73205
      vertex 1.68667 9.26188 1.41421
      vertex 3.47201 8.75057 1.41421
    endloop
  endfacet
  facet normal -0.105805 -0.369433 -0.923214
    outer loop
      vertex 3.14135 7.9172 1.93185
      vertex 1.52604 8.37982 1.93185
      vertex 1.61246 8.85437 1.73205
    endloop
  endfacet
  facet normal -0.105801 -0.369428 -0.923217
    outer loop
      vertex 3.14135 7.9172 1.93185
      vertex 1.61246 8.85437 1.73205
      vertex 3.31925 8.36556 1.73205
    endloop
  endfacet
  facet normal -0.0361106 -0.126087 -0.991362
    outer loop
      vertex 2.95044 7.43605 2
      vertex 1.4333 7.87055 2
      vertex 1.52604 8.37982 1.93185
    endloop
  endfacet
  facet normal -0.0361113 -0.126088 -0.991362
    outer loop
      vertex 2.95044 7.43605 2
      vertex 1.52604 8.37982 1.93185
      vertex 3.14135 7.9172 1.93185
    endloop
  endfacet
  facet normal 0.0361115 0.126089 -0.991361
    outer loop
      vertex 2.75954 6.9549 1.93185
      vertex 1.34056 7.36129 1.93185
      vertex 1.4333 7.87055 2
    endloop
  endfacet
  facet normal 0.0361111 0.126089 -0.991361
    outer loop
      vertex 2.75954 6.9549 1.93185
      vertex 1.4333 7.87055 2
      vertex 2.95044 7.43605 2
    endloop
  endfacet
  facet normal 0.105802 0.369427 -0.923217
    outer loop
      vertex 2.58164 6.50654 1.73205
      vertex 1.25414 6.88673 1.73205
      vertex 1.34056 7.36129 1.93185
    endloop
  endfacet
  facet normal 0.105802 0.369427 -0.923217
    outer loop
      vertex 2.58164 6.50654 1.73205
      vertex 1.34056 7.36129 1.93185
      vertex 2.75954 6.9549 1.93185
    endloop
  endfacet
  facet normal 0.168125 0.587038 -0.791909
    outer loop
      vertex 2.42887 6.12153 1.41421
      vertex 1.17993 6.47922 1.41421
      vertex 1.25414 6.88673 1.73205
    endloop
  endfacet
  facet normal 0.168125 0.587039 -0.791909
    outer loop
      vertex 2.42887 6.12153 1.41421
      vertex 1.25414 6.88673 1.73205
      vertex 2.58164 6.50654 1.73205
    endloop
  endfacet
  facet normal 0.218826 0.76407 -0.606887
    outer loop
      vertex 2.31165 5.8261 0.999999
      vertex 1.12298 6.16653 0.999999
      vertex 1.17993 6.47922 1.41421
    endloop
  endfacet
  facet normal 0.218826 0.764069 -0.606888
    outer loop
      vertex 2.31165 5.8261 0.999999
      vertex 1.17993 6.47922 1.41421
      vertex 2.42887 6.12153 1.41421
    endloop
  endfacet
  facet normal 0.254549 0.888804 -0.381094
    outer loop
      vertex 2.23797 5.64038 0.517637
      vertex 1.08718 5.96996 0.517637
      vertex 1.12298 6.16653 0.999999
    endloop
  endfacet
  facet normal 0.25455 0.888805 -0.381091
    outer loop
      vertex 2.23797 5.64038 0.517637
      vertex 1.12298 6.16653 0.999999
      vertex 2.31165 5.8261 0.999999
    endloop
  endfacet
  facet normal 0.27299 0.953206 -0.129904
    outer loop
      vertex 2.21283 5.57704 0
      vertex 1.07498 5.90291 0
      vertex 1.08718 5.96996 0.517637
    endloop
  endfacet
  facet normal 0.272993 0.953206 -0.129896
    outer loop
      vertex 2.21283 5.57704 0
      vertex 1.08718 5.96996 0.517637
      vertex 2.23797 5.64038 0.517637
    endloop
  endfacet
  facet normal -0.454803 -0.881068 -0.129899
    outer loop
      vertex 5.40389 8.33304 0.517637
      vertex 3.66292 9.23172 0.517637
      vertex 3.68806 9.29506 0
    endloop
  endfacet
  facet normal -0.454801 -0.881068 -0.129905
    outer loop
      vertex 5.40389 8.33304 0.517637
      vertex 3.68806 9.29506 0
      vertex 5.44097 8.39022 0
    endloop
  endfacet
  facet normal -0.424069 -0.821542 -0.381096
    outer loop
      vertex 5.29518 8.16541 0.999999
      vertex 3.58923 9.046 0.999999
      vertex 3.66292 9.23172 0.517637
    endloop
  endfacet
  facet normal -0.424078 -0.821546 -0.381077
    outer loop
      vertex 5.29518 8.16541 0.999999
      vertex 3.66292 9.23172 0.517637
      vertex 5.40389 8.33304 0.517637
    endloop
  endfacet
  facet normal -0.36456 -0.706245 -0.606888
    outer loop
      vertex 5.12224 7.89873 1.41421
      vertex 3.47201 8.75057 1.41421
      vertex 3.58923 9.046 0.999999
    endloop
  endfacet
  facet normal -0.364551 -0.706239 -0.606901
    outer loop
      vertex 5.12224 7.89873 1.41421
      vertex 3.58923 9.046 0.999999
      vertex 5.29518 8.16541 0.999999
    endloop
  endfacet
  facet normal -0.280095 -0.542615 -0.791906
    outer loop
      vertex 4.89687 7.5512 1.73205
      vertex 3.31925 8.36556 1.73205
      vertex 3.47201 8.75057 1.41421
    endloop
  endfacet
  facet normal -0.280095 -0.542614 -0.791907
    outer loop
      vertex 4.89687 7.5512 1.73205
      vertex 3.47201 8.75057 1.41421
      vertex 5.12224 7.89873 1.41421
    endloop
  endfacet
  facet normal -0.176264 -0.34147 -0.923217
    outer loop
      vertex 4.63442 7.14649 1.93185
      vertex 3.14135 7.9172 1.93185
      vertex 3.31925 8.36556 1.73205
    endloop
  endfacet
  facet normal -0.176266 -0.341472 -0.923215
    outer loop
      vertex 4.63442 7.14649 1.93185
      vertex 3.31925 8.36556 1.73205
      vertex 4.89687 7.5512 1.73205
    endloop
  endfacet
  facet normal -0.06016 -0.116546 -0.991362
    outer loop
      vertex 4.35277 6.71218 2
      vertex 2.95044 7.43605 2
      vertex 3.14135 7.9172 1.93185
    endloop
  endfacet
  facet normal -0.0601602 -0.116546 -0.991362
    outer loop
      vertex 4.35277 6.71218 2
      vertex 3.14135 7.9172 1.93185
      vertex 4.63442 7.14649 1.93185
    endloop
  endfacet
  facet normal 0.0601605 0.116547 -0.991361
    outer loop
      vertex 4.07113 6.27787 1.93185
      vertex 2.75954 6.9549 1.93185
      vertex 2.95044 7.43605 2
    endloop
  endfacet
  facet normal 0.0601606 0.116547 -0.991361
    outer loop
      vertex 4.07113 6.27787 1.93185
      vertex 2.95044 7.43605 2
      vertex 4.35277 6.71218 2
    endloop
  endfacet
  facet normal 0.176264 0.34147 -0.923217
    outer loop
      vertex 3.80868 5.87315 1.73205
      vertex 2.58164 6.50654 1.73205
      vertex 2.75954 6.9549 1.93185
    endloop
  endfacet
  facet normal 0.176262 0.341468 -0.923218
    outer loop
      vertex 3.80868 5.87315 1.73205
      vertex 2.75954 6.9549 1.93185
      vertex 4.07113 6.27787 1.93185
    endloop
  endfacet
  facet normal 0.280093 0.542611 -0.79191
    outer loop
      vertex 3.5833 5.52562 1.41421
      vertex 2.42887 6.12153 1.41421
      vertex 2.58164 6.50654 1.73205
    endloop
  endfacet
  facet normal 0.280092 0.542611 -0.79191
    outer loop
      vertex 3.5833 5.52562 1.41421
      vertex 2.58164 6.50654 1.73205
      vertex 3.80868 5.87315 1.73205
    endloop
  endfacet
  facet normal 0.364558 0.706246 -0.606888
    outer loop
      vertex 3.41037 5.25895 0.999999
      vertex 2.31165 5.8261 0.999999
      vertex 2.42887 6.12153 1.41421
    endloop
  endfacet
  facet normal 0.364561 0.706248 -0.606885
    outer loop
      vertex 3.41037 5.25895 0.999999
      vertex 2.42887 6.12153 1.41421
      vertex 3.5833 5.52562 1.41421
    endloop
  endfacet
  facet normal 0.424075 0.821542 -0.381089
    outer loop
      vertex 3.30166 5.09131 0.517637
      vertex 2.23797 5.64038 0.517637
      vertex 2.31165 5.8261 0.999999
    endloop
  endfacet
  facet normal 0.424073 0.821542 -0.381092
    outer loop
      vertex 3.30166 5.09131 0.517637
      vertex 2.31165 5.8261 0.999999
      vertex 3.41037 5.25895 0.999999
    endloop
  endfacet
  facet normal 0.454804 0.881067 -0.129899
    outer loop
      vertex 3.26458 5.03413 0
      vertex 2.21283 5.57704 0
      vertex 2.23797 5.64038 0.517637
    endloop
  endfacet
  facet normal 0.454802 0.881068 -0.129905
    outer loop
      vertex 3.26458 5.03413 0
      vertex 2.23797 5.64038 0.517637
      vertex 3.30166 5.09131 0.517637
    endloop
  endfacet
  facet normal -0.618909 -0.774646 -0.129905
    outer loop
      vertex 6.93456 7.1101 0.517637
      vertex 5.40389 8.33304 0.517637
      vertex 5.44097 8.39022 0
    endloop
  endfacet
  facet normal -0.61891 -0.774646 -0.1299
    outer loop
      vertex 6.93456 7.1101 0.517637
      vertex 5.44097 8.39022 0
      vertex 6.98215 7.15888 0
    endloop
  endfacet
  facet normal -0.577101 -0.722312 -0.381078
    outer loop
      vertex 6.79506 6.96706 0.999999
      vertex 5.29518 8.16541 0.999999
      vertex 5.40389 8.33304 0.517637
    endloop
  endfacet
  facet normal -0.577095 -0.72231 -0.381091
    outer loop
      vertex 6.79506 6.96706 0.999999
      vertex 5.40389 8.33304 0.517637
      vertex 6.93456 7.1101 0.517637
    endloop
  endfacet
  facet normal -0.496099 -0.620932 -0.606902
    outer loop
      vertex 6.57314 6.73952 1.41421
      vertex 5.12224 7.89873 1.41421
      vertex 5.29518 8.16541 0.999999
    endloop
  endfacet
  facet normal -0.496104 -0.620934 -0.606895
    outer loop
      vertex 6.57314 6.73952 1.41421
      vertex 5.29518 8.16541 0.999999
      vertex 6.79506 6.96706 0.999999
    endloop
  endfacet
  facet normal -0.381163 -0.477072 -0.791907
    outer loop
      vertex 6.28393 6.44299 1.73205
      vertex 4.89687 7.5512 1.73205
      vertex 5.12224 7.89873 1.41421
    endloop
  endfacet
  facet normal -0.38116 -0.47707 -0.79191
    outer loop
      vertex 6.28393 6.44299 1.73205
      vertex 5.12224 7.89873 1.41421
      vertex 6.57314 6.73952 1.41421
    endloop
  endfacet
  facet normal -0.239869 -0.300227 -0.923215
    outer loop
      vertex 5.94714 6.09768 1.93185
      vertex 4.63442 7.14649 1.93185
      vertex 4.89687 7.5512 1.73205
    endloop
  endfacet
  facet normal -0.239872 -0.300228 -0.923214
    outer loop
      vertex 5.94714 6.09768 1.93185
      vertex 4.89687 7.5512 1.73205
      vertex 6.28393 6.44299 1.73205
    endloop
  endfacet
  facet normal -0.0818678 -0.102469 -0.991362
    outer loop
      vertex 5.58572 5.72711 2
      vertex 4.35277 6.71218 2
      vertex 4.63442 7.14649 1.93185
    endloop
  endfacet
  facet normal -0.0818691 -0.10247 -0.991361
    outer loop
      vertex 5.58572 5.72711 2
      vertex 4.63442 7.14649 1.93185
      vertex 5.94714 6.09768 1.93185
    endloop
  endfacet
  facet normal 0.0818699 0.102469 -0.991361
    outer loop
      vertex 5.22429 5.35653 1.93185
      vertex 4.07113 6.27787 1.93185
      vertex 4.35277 6.71218 2
    endloop
  endfacet
  facet normal 0.0818665 0.102467 -0.991362
    outer loop
      vertex 5.22429 5.35653 1.93185
      vertex 4.35277 6.71218 2
      vertex 5.58572 5.72711 2
    endloop
  endfacet
  facet normal 0.239865 0.300223 -0.923218
    outer loop
      vertex 4.8875 5.01122 1.73205
      vertex 3.80868 5.87315 1.73205
      vertex 4.07113 6.27787 1.93185
    endloop
  endfacet
  facet normal 0.239873 0.300227 -0.923214
    outer loop
      vertex 4.8875 5.01122 1.73205
      vertex 4.07113 6.27787 1.93185
      vertex 5.22429 5.35653 1.93185
    endloop
  endfacet
  facet normal 0.381157 0.47707 -0.791912
    outer loop
      vertex 4.59829 4.71469 1.41421
      vertex 3.5833 5.52562 1.41421
      vertex 3.80868 5.87315 1.73205
    endloop
  endfacet
  facet normal 0.381159 0.477071 -0.79191
    outer loop
      vertex 4.59829 4.71469 1.41421
      vertex 3.80868 5.87315 1.73205
      vertex 4.8875 5.01122 1.73205
    endloop
  endfacet
  facet normal 0.496109 0.62094 -0.606885
    outer loop
      vertex 4.37637 4.48715 0.999999
      vertex 3.41037 5.25895 0.999999
      vertex 3.5833 5.52562 1.41421
    endloop
  endfacet
  facet normal 0.4961 0.620937 -0.606895
    outer loop
      vertex 4.37637 4.48715 0.999999
      vertex 3.5833 5.52562 1.41421
      vertex 4.59829 4.71469 1.41421
    endloop
  endfacet
  facet normal 0.577098 0.722307 -0.381091
    outer loop
      vertex 4.23687 4.34411 0.517637
      vertex 3.30166 5.09131 0.517637
      vertex 3.41037 5.25895 0.999999
    endloop
  endfacet
  facet normal 0.577098 0.722307 -0.381091
    outer loop
      vertex 4.23687 4.34411 0.517637
      vertex 3.41037 5.25895 0.999999
      vertex 4.37637 4.48715 0.999999
    endloop
  endfacet
  facet normal 0.618907 0.774648 -0.129905
    outer loop
      vertex 4.18929 4.29533 0
      vertex 3.26458 5.03413 0
      vertex 3.30166 5.09131 0.517637
    endloop
  endfacet
  facet normal 0.618914 0.774645 -0.129889
    outer loop
      vertex 4.18929 4.29533 0
      vertex 3.30166 5.09131 0.517637
      vertex 4.23687 4.34411 0.517637
    endloop
  endfacet
  facet normal -0.758934 -0.638078 -0.129904
    outer loop
      vertex 8.19539 5.61046 0.517637
      vertex 6.93456 7.1101 0.517637
      vertex 6.98215 7.15888 0
    endloop
  endfacet
  facet normal -0.758936 -0.638077 -0.1299
    outer loop
      vertex 8.19539 5.61046 0.517637
      vertex 6.98215 7.15888 0
      vertex 8.25162 5.64896 0
    endloop
  endfacet
  facet normal -0.707661 -0.594968 -0.381089
    outer loop
      vertex 8.03052 5.49759 0.999999
      vertex 6.79506 6.96706 0.999999
      vertex 6.93456 7.1101 0.517637
    endloop
  endfacet
  facet normal -0.707658 -0.594967 -0.381095
    outer loop
      vertex 8.03052 5.49759 0.999999
      vertex 6.93456 7.1101 0.517637
      vertex 8.19539 5.61046 0.517637
    endloop
  endfacet
  facet normal -0.608342 -0.511467 -0.606895
    outer loop
      vertex 7.76825 5.31805 1.41421
      vertex 6.57314 6.73952 1.41421
      vertex 6.79506 6.96706 0.999999
    endloop
  endfacet
  facet normal -0.608347 -0.511469 -0.606889
    outer loop
      vertex 7.76825 5.31805 1.41421
      vertex 6.79506 6.96706 0.999999
      vertex 8.03052 5.49759 0.999999
    endloop
  endfacet
  facet normal -0.467394 -0.392965 -0.79191
    outer loop
      vertex 7.42646 5.08406 1.73205
      vertex 6.28393 6.44299 1.73205
      vertex 6.57314 6.73952 1.41421
    endloop
  endfacet
  facet normal -0.467394 -0.392965 -0.79191
    outer loop
      vertex 7.42646 5.08406 1.73205
      vertex 6.57314 6.73952 1.41421
      vertex 7.76825 5.31805 1.41421
    endloop
  endfacet
  facet normal -0.29414 -0.247299 -0.923214
    outer loop
      vertex 7.02843 4.81158 1.93185
      vertex 5.94714 6.09768 1.93185
      vertex 6.28393 6.44299 1.73205
    endloop
  endfacet
  facet normal -0.294136 -0.247297 -0.923216
    outer loop
      vertex 7.02843 4.81158 1.93185
      vertex 6.28393 6.44299 1.73205
      vertex 7.42646 5.08406 1.73205
    endloop
  endfacet
  facet normal -0.100391 -0.0844045 -0.991361
    outer loop
      vertex 6.6013 4.51917 2
      vertex 5.58572 5.72711 2
      vertex 5.94714 6.09768 1.93185
    endloop
  endfacet
  facet normal -0.100392 -0.0844048 -0.991361
    outer loop
      vertex 6.6013 4.51917 2
      vertex 5.94714 6.09768 1.93185
      vertex 7.02843 4.81158 1.93185
    endloop
  endfacet
  facet normal 0.100389 0.0844024 -0.991362
    outer loop
      vertex 6.17416 4.22675 1.93185
      vertex 5.22429 5.35653 1.93185
      vertex 5.58572 5.72711 2
    endloop
  endfacet
  facet normal 0.100389 0.0844027 -0.991362
    outer loop
      vertex 6.17416 4.22675 1.93185
      vertex 5.58572 5.72711 2
      vertex 6.6013 4.51917 2
    endloop
  endfacet
  facet normal 0.294141 0.247298 -0.923214
    outer loop
      vertex 5.77613 3.95427 1.73205
      vertex 4.8875 5.01122 1.73205
      vertex 5.22429 5.35653 1.93185
    endloop
  endfacet
  facet normal 0.294136 0.247297 -0.923216
    outer loop
      vertex 5.77613 3.95427 1.73205
      vertex 5.22429 5.35653 1.93185
      vertex 6.17416 4.22675 1.93185
    endloop
  endfacet
  facet normal 0.467396 0.392963 -0.79191
    outer loop
      vertex 5.43434 3.72028 1.41421
      vertex 4.59829 4.71469 1.41421
      vertex 4.8875 5.01122 1.73205
    endloop
  endfacet
  facet normal 0.467396 0.392963 -0.79191
    outer loop
      vertex 5.43434 3.72028 1.41421
      vertex 4.8875 5.01122 1.73205
      vertex 5.77613 3.95427 1.73205
    endloop
  endfacet
  facet normal 0.608342 0.511467 -0.606895
    outer loop
      vertex 5.17207 3.54074 0.999999
      vertex 4.37637 4.48715 0.999999
      vertex 4.59829 4.71469 1.41421
    endloop
  endfacet
  facet normal 0.608347 0.511468 -0.606889
    outer loop
      vertex 5.17207 3.54074 0.999999
      vertex 4.59829 4.71469 1.41421
      vertex 5.43434 3.72028 1.41421
    endloop
  endfacet
  facet normal 0.707662 0.594967 -0.381089
    outer loop
      vertex 5.0072 3.42787 0.517637
      vertex 4.23687 4.34411 0.517637
      vertex 4.37637 4.48715 0.999999
    endloop
  endfacet
  facet normal 0.707658 0.594968 -0.381095
    outer loop
      vertex 5.0072 3.42787 0.517637
      vertex 4.37637 4.48715 0.999999
      vertex 5.17207 3.54074 0.999999
    endloop
  endfacet
  facet normal 0.75894 0.638074 -0.12989
    outer loop
      vertex 4.95097 3.38937 0
      vertex 4.18929 4.29533 0
      vertex 4.23687 4.34411 0.517637
    endloop
  endfacet
  facet normal 0.758936 0.638077 -0.1299
    outer loop
      vertex 4.95097 3.38937 0
      vertex 4.23687 4.34411 0.517637
      vertex 5.0072 3.42787 0.517637
    endloop
  endfacet
  facet normal -0.869428 -0.476678 -0.129898
    outer loop
      vertex 9.13729 3.8925 0.517637
      vertex 8.19539 5.61046 0.517637
      vertex 8.25162 5.64896 0
    endloop
  endfacet
  facet normal -0.869425 -0.47668 -0.129908
    outer loop
      vertex 9.13729 3.8925 0.517637
      vertex 8.25162 5.64896 0
      vertex 9.19999 3.91921 0
    endloop
  endfacet
  facet normal -0.810686 -0.444471 -0.381094
    outer loop
      vertex 8.95347 3.81419 0.999999
      vertex 8.03052 5.49759 0.999999
      vertex 8.19539 5.61046 0.517637
    endloop
  endfacet
  facet normal -0.810685 -0.444471 -0.381097
    outer loop
      vertex 8.95347 3.81419 0.999999
      vertex 8.19539 5.61046 0.517637
      vertex 9.13729 3.8925 0.517637
    endloop
  endfacet
  facet normal -0.696913 -0.382095 -0.60689
    outer loop
      vertex 8.66106 3.68963 1.41421
      vertex 7.76825 5.31805 1.41421
      vertex 8.03052 5.49759 0.999999
    endloop
  endfacet
  facet normal -0.696916 -0.382095 -0.606886
    outer loop
      vertex 8.66106 3.68963 1.41421
      vertex 8.03052 5.49759 0.999999
      vertex 8.95347 3.81419 0.999999
    endloop
  endfacet
  facet normal -0.535442 -0.293567 -0.791909
    outer loop
      vertex 8.27999 3.52729 1.73205
      vertex 7.42646 5.08406 1.73205
      vertex 7.76825 5.31805 1.41421
    endloop
  endfacet
  facet normal -0.535445 -0.293567 -0.791907
    outer loop
      vertex 8.27999 3.52729 1.73205
      vertex 7.76825 5.31805 1.41421
      vertex 8.66106 3.68963 1.41421
    endloop
  endfacet
  facet normal -0.336958 -0.184744 -0.923216
    outer loop
      vertex 7.83622 3.33824 1.93185
      vertex 7.02843 4.81158 1.93185
      vertex 7.42646 5.08406 1.73205
    endloop
  endfacet
  facet normal -0.33696 -0.184745 -0.923216
    outer loop
      vertex 7.83622 3.33824 1.93185
      vertex 7.42646 5.08406 1.73205
      vertex 8.27999 3.52729 1.73205
    endloop
  endfacet
  facet normal -0.115008 -0.0630549 -0.991361
    outer loop
      vertex 7.35999 3.13537 2
      vertex 6.6013 4.51917 2
      vertex 7.02843 4.81158 1.93185
    endloop
  endfacet
  facet normal -0.115006 -0.0630546 -0.991362
    outer loop
      vertex 7.35999 3.13537 2
      vertex 7.02843 4.81158 1.93185
      vertex 7.83622 3.33824 1.93185
    endloop
  endfacet
  facet normal 0.115005 0.0630534 -0.991362
    outer loop
      vertex 6.88376 2.93249 1.93185
      vertex 6.17416 4.22675 1.93185
      vertex 6.6013 4.51917 2
    endloop
  endfacet
  facet normal 0.115005 0.0630535 -0.991362
    outer loop
      vertex 6.88376 2.93249 1.93185
      vertex 6.6013 4.51917 2
      vertex 7.35999 3.13537 2
    endloop
  endfacet
  facet normal 0.336959 0.184744 -0.923216
    outer loop
      vertex 6.43999 2.74344 1.73205
      vertex 5.77613 3.95427 1.73205
      vertex 6.17416 4.22675 1.93185
    endloop
  endfacet
  facet normal 0.33696 0.184744 -0.923216
    outer loop
      vertex 6.43999 2.74344 1.73205
      vertex 6.17416 4.22675 1.93185
      vertex 6.88376 2.93249 1.93185
    endloop
  endfacet
  facet normal 0.535443 0.293566 -0.791909
    outer loop
      vertex 6.05891 2.58111 1.41421
      vertex 5.43434 3.72028 1.41421
      vertex 5.77613 3.95427 1.73205
    endloop
  endfacet
  facet normal 0.535442 0.293566 -0.79191
    outer loop
      vertex 6.05891 2.58111 1.41421
      vertex 5.77613 3.95427 1.73205
      vertex 6.43999 2.74344 1.73205
    endloop
  endfacet
  facet normal 0.696913 0.382094 -0.60689
    outer loop
      vertex 5.7665 2.45654 0.999999
      vertex 5.17207 3.54074 0.999999
      vertex 5.43434 3.72028 1.41421
    endloop
  endfacet
  facet normal 0.696912 0.382094 -0.606892
    outer loop
      vertex 5.7665 2.45654 0.999999
      vertex 5.43434 3.72028 1.41421
      vertex 6.05891 2.58111 1.41421
    endloop
  endfacet
  facet normal 0.810684 0.444476 -0.381094
    outer loop
      vertex 5.58269 2.37823 0.517637
      vertex 5.0072 3.42787 0.517637
      vertex 5.17207 3.54074 0.999999
    endloop
  endfacet
  facet normal 0.81069 0.444474 -0.381083
    outer loop
      vertex 5.58269 2.37823 0.517637
      vertex 5.17207 3.54074 0.999999
      vertex 5.7665 2.45654 0.999999
    endloop
  endfacet
  facet normal 0.869427 0.476679 -0.129898
    outer loop
      vertex 5.51999 2.35152 0
      vertex 4.95097 3.38937 0
      vertex 5.0072 3.42787 0.517637
    endloop
  endfacet
  facet normal 0.869424 0.476682 -0.129908
    outer loop
      vertex 5.51999 2.35152 0
      vertex 5.0072 3.42787 0.517637
      vertex 5.58269 2.37823 0.517637
    endloop
  endfacet
  facet normal -0.946084 -0.296729 -0.129908
    outer loop
      vertex 9.72362 2.02306 0.517637
      vertex 9.13729 3.8925 0.517637
      vertex 9.19999 3.91921 0
    endloop
  endfacet
  facet normal -0.946086 -0.296728 -0.129901
    outer loop
      vertex 9.72362 2.02306 0.517637
      vertex 9.19999 3.91921 0
      vertex 9.79034 2.03694 0
    endloop
  endfacet
  facet normal -0.882163 -0.276684 -0.381096
    outer loop
      vertex 9.52801 1.98236 0.999999
      vertex 8.95347 3.81419 0.999999
      vertex 9.13729 3.8925 0.517637
    endloop
  endfacet
  facet normal -0.882168 -0.276682 -0.381087
    outer loop
      vertex 9.52801 1.98236 0.999999
      vertex 9.13729 3.8925 0.517637
      vertex 9.72362 2.02306 0.517637
    endloop
  endfacet
  facet normal -0.758361 -0.237855 -0.606888
    outer loop
      vertex 9.21684 1.91762 1.41421
      vertex 8.66106 3.68963 1.41421
      vertex 8.95347 3.81419 0.999999
    endloop
  endfacet
  facet normal -0.758363 -0.237855 -0.606886
    outer loop
      vertex 9.21684 1.91762 1.41421
      vertex 8.95347 3.81419 0.999999
      vertex 9.52801 1.98236 0.999999
    endloop
  endfacet
  facet normal -0.582656 -0.182745 -0.791907
    outer loop
      vertex 8.81131 1.83325 1.73205
      vertex 8.27999 3.52729 1.73205
      vertex 8.66106 3.68963 1.41421
    endloop
  endfacet
  facet normal -0.582651 -0.182745 -0.79191
    outer loop
      vertex 8.81131 1.83325 1.73205
      vertex 8.66106 3.68963 1.41421
      vertex 9.21684 1.91762 1.41421
    endloop
  endfacet
  facet normal -0.366671 -0.115002 -0.923216
    outer loop
      vertex 8.33906 1.73499 1.93185
      vertex 7.83622 3.33824 1.93185
      vertex 8.27999 3.52729 1.73205
    endloop
  endfacet
  facet normal -0.366667 -0.115002 -0.923217
    outer loop
      vertex 8.33906 1.73499 1.93185
      vertex 8.27999 3.52729 1.73205
      vertex 8.81131 1.83325 1.73205
    endloop
  endfacet
  facet normal -0.125147 -0.0392505 -0.991362
    outer loop
      vertex 7.83227 1.62955 2
      vertex 7.35999 3.13537 2
      vertex 7.83622 3.33824 1.93185
    endloop
  endfacet
  facet normal -0.125146 -0.0392505 -0.991362
    outer loop
      vertex 8.33906 1.73499 1.93185
      vertex 7.83227 1.62955 2
      vertex 7.83622 3.33824 1.93185
    endloop
  endfacet
  facet normal 0.125145 0.0392514 -0.991362
    outer loop
      vertex 7.32549 1.52412 1.93185
      vertex 6.88376 2.93249 1.93185
      vertex 7.35999 3.13537 2
    endloop
  endfacet
  facet normal 0.125149 0.0392513 -0.991361
    outer loop
      vertex 7.83227 1.62955 2
      vertex 7.32549 1.52412 1.93185
      vertex 7.35999 3.13537 2
    endloop
  endfacet
  facet normal 0.36667 0.115004 -0.923216
    outer loop
      vertex 6.85324 1.42586 1.73205
      vertex 6.43999 2.74344 1.73205
      vertex 6.88376 2.93249 1.93185
    endloop
  endfacet
  facet normal 0.366667 0.115004 -0.923217
    outer loop
      vertex 7.32549 1.52412 1.93185
      vertex 6.85324 1.42586 1.73205
      vertex 6.88376 2.93249 1.93185
    endloop
  endfacet
  facet normal 0.58265 0.182745 -0.791911
    outer loop
      vertex 6.44771 1.34149 1.41421
      vertex 6.05891 2.58111 1.41421
      vertex 6.43999 2.74344 1.73205
    endloop
  endfacet
  facet normal 0.582651 0.182745 -0.79191
    outer loop
      vertex 6.44771 1.34149 1.41421
      vertex 6.43999 2.74344 1.73205
      vertex 6.85324 1.42586 1.73205
    endloop
  endfacet
  facet normal 0.758357 0.237858 -0.606892
    outer loop
      vertex 6.13654 1.27675 0.999999
      vertex 5.7665 2.45654 0.999999
      vertex 6.05891 2.58111 1.41421
    endloop
  endfacet
  facet normal 0.758363 0.237856 -0.606885
    outer loop
      vertex 6.13654 1.27675 0.999999
      vertex 6.05891 2.58111 1.41421
      vertex 6.44771 1.34149 1.41421
    endloop
  endfacet
  facet normal 0.882171 0.276681 -0.38108
    outer loop
      vertex 5.94092 1.23605 0.517637
      vertex 5.58269 2.37823 0.517637
      vertex 5.7665 2.45654 0.999999
    endloop
  endfacet
  facet normal 0.882159 0.276688 -0.381102
    outer loop
      vertex 5.94092 1.23605 0.517637
      vertex 5.7665 2.45654 0.999999
      vertex 6.13654 1.27675 0.999999
    endloop
  endfacet
  facet normal 0.946084 0.29673 -0.129908
    outer loop
      vertex 5.8742 1.22217 0
      vertex 5.51999 2.35152 0
      vertex 5.58269 2.37823 0.517637
    endloop
  endfacet
  facet normal 0.946086 0.296728 -0.129901
    outer loop
      vertex 5.8742 1.22217 0
      vertex 5.58269 2.37823 0.517637
      vertex 5.94092 1.23605 0.517637
    endloop
  endfacet
  facet normal -0.985926 -0.105239 -0.129901
    outer loop
      vertex 9.91911 0.247978 0.471975
      vertex 9.72362 2.02306 0.517637
      vertex 9.79034 2.03694 0
    endloop
  endfacet
  facet normal -0.985927 -0.105239 -0.129897
    outer loop
      vertex 9.72362 2.02306 0.517637
      vertex 9.91911 0.247978 0.471975
      vertex 9.91311 0.247828 0.517637
    endloop
  endfacet
  facet normal -0.985926 -0.105239 -0.129902
    outer loop
      vertex 9.91911 0.247978 0.471975
      vertex 9.79034 2.03694 0
      vertex 9.98113 0.249529 0
    endloop
  endfacet
  facet normal -0.919317 -0.0981266 -0.381086
    outer loop
      vertex 9.73106 0.243277 0.957969
      vertex 9.52801 1.98236 0.999999
      vertex 9.72362 2.02306 0.517637
    endloop
  endfacet
  facet normal -0.919366 -0.0981353 -0.380966
    outer loop
      vertex 9.52801 1.98236 0.999999
      vertex 9.73106 0.243277 0.957969
      vertex 9.71369 0.242843 0.999999
    endloop
  endfacet
  facet normal -0.919314 -0.0981285 -0.381094
    outer loop
      vertex 9.73106 0.243277 0.957969
      vertex 9.72362 2.02306 0.517637
      vertex 9.91311 0.247828 0.517637
    endloop
  endfacet
  facet normal -0.7903 -0.0843561 -0.606886
    outer loop
      vertex 9.42377 0.235595 1.37854
      vertex 9.21684 1.91762 1.41421
      vertex 9.52801 1.98236 0.999999
    endloop
  endfacet
  facet normal -0.790287 -0.0843541 -0.606903
    outer loop
      vertex 9.21684 1.91762 1.41421
      vertex 9.42377 0.235595 1.37854
      vertex 9.39645 0.234912 1.41421
    endloop
  endfacet
  facet normal -0.7903 -0.0843584 -0.606885
    outer loop
      vertex 9.44656 0.236164 1.34879
      vertex 9.52801 1.98236 0.999999
      vertex 9.71369 0.242843 0.999999
    endloop
  endfacet
  facet normal -0.790232 -0.0843787 -0.606971
    outer loop
      vertex 9.52801 1.98236 0.999999
      vertex 9.44656 0.236164 1.34879
      vertex 9.42377 0.235595 1.37854
    endloop
  endfacet
  facet normal -0.607237 -0.0648165 -0.791873
    outer loop
      vertex 8.81131 1.83325 1.73205
      vertex 9.01824 0.225456 1.70497
      vertex 8.98302 0.224576 1.73205
    endloop
  endfacet
  facet normal -0.607188 -0.0648096 -0.791911
    outer loop
      vertex 9.01824 0.225456 1.70497
      vertex 8.81131 1.83325 1.73205
      vertex 9.21684 1.91762 1.41421
    endloop
  endfacet
  facet normal -0.607186 -0.0648102 -0.791912
    outer loop
      vertex 9.39645 0.234912 1.41421
      vertex 9.01824 0.225456 1.70497
      vertex 9.21684 1.91762 1.41421
    endloop
  endfacet
  facet normal -0.382006 -0.0407737 -0.92326
    outer loop
      vertex 8.33906 1.73499 1.93185
      vertex 8.5422 0.213555 1.91499
      vertex 8.50156 0.212539 1.93185
    endloop
  endfacet
  facet normal -0.382109 -0.0407879 -0.923217
    outer loop
      vertex 8.5422 0.213555 1.91499
      vertex 8.33906 1.73499 1.93185
      vertex 8.81131 1.83325 1.73205
    endloop
  endfacet
  facet normal -0.382114 -0.0407869 -0.923215
    outer loop
      vertex 8.98302 0.224576 1.73205
      vertex 8.5422 0.213555 1.91499
      vertex 8.81131 1.83325 1.73205
    endloop
  endfacet
  facet normal -0.130355 -0.013914 -0.99137
    outer loop
      vertex 7.83227 1.62955 2
      vertex 8.02821 0.200705 1.99429
      vertex 7.9849 0.199623 2
    endloop
  endfacet
  facet normal -0.130416 -0.0139224 -0.991362
    outer loop
      vertex 8.02821 0.200705 1.99429
      vertex 7.83227 1.62955 2
      vertex 8.33906 1.73499 1.93185
    endloop
  endfacet
  facet normal -0.130423 -0.0139208 -0.991361
    outer loop
      vertex 8.50156 0.212539 1.93185
      vertex 8.02821 0.200705 1.99429
      vertex 8.33906 1.73499 1.93185
    endloop
  endfacet
  facet normal 0.130409 0.0139193 -0.991363
    outer loop
      vertex 7.32549 1.52412 1.93185
      vertex 7.51138 0.187785 1.93754
      vertex 7.46824 0.186706 1.93185
    endloop
  endfacet
  facet normal 0.130419 0.0139207 -0.991361
    outer loop
      vertex 7.51138 0.187785 1.93754
      vertex 7.32549 1.52412 1.93185
      vertex 7.83227 1.62955 2
    endloop
  endfacet
  facet normal 0.130418 0.0139208 -0.991361
    outer loop
      vertex 7.9849 0.199623 2
      vertex 7.51138 0.187785 1.93754
      vertex 7.83227 1.62955 2
    endloop
  endfacet
  facet normal 0.38217 0.0407922 -0.923191
    outer loop
      vertex 6.85324 1.42586 1.73205
      vertex 7.027 0.175675 1.74874
      vertex 6.98679 0.17467 1.73205
    endloop
  endfacet
  facet normal 0.38211 0.0407835 -0.923217
    outer loop
      vertex 7.027 0.175675 1.74874
      vertex 6.85324 1.42586 1.73205
      vertex 7.32549 1.52412 1.93185
    endloop
  endfacet
  facet normal 0.382106 0.0407844 -0.923218
    outer loop
      vertex 7.46824 0.186706 1.93185
      vertex 7.027 0.175675 1.74874
      vertex 7.32549 1.52412 1.93185
    endloop
  endfacet
  facet normal 0.607266 0.0648198 -0.79185
    outer loop
      vertex 6.44771 1.34149 1.41421
      vertex 6.60807 0.165202 1.4409
      vertex 6.57336 0.164334 1.41421
    endloop
  endfacet
  facet normal 0.607188 0.0648078 -0.791911
    outer loop
      vertex 6.60807 0.165202 1.4409
      vertex 6.44771 1.34149 1.41421
      vertex 6.85324 1.42586 1.73205
    endloop
  endfacet
  facet normal 0.607183 0.0648097 -0.791915
    outer loop
      vertex 6.98679 0.17467 1.73205
      vertex 6.60807 0.165202 1.4409
      vertex 6.85324 1.42586 1.73205
    endloop
  endfacet
  facet normal 0.790301 0.0843501 -0.606886
    outer loop
      vertex 6.28303 0.157076 1.03514
      vertex 6.13654 1.27675 0.999999
      vertex 6.44771 1.34149 1.41421
    endloop
  endfacet
  facet normal 0.790339 0.0843566 -0.606835
    outer loop
      vertex 6.13654 1.27675 0.999999
      vertex 6.28303 0.157076 1.03514
      vertex 6.25612 0.156403 0.999999
    endloop
  endfacet
  facet normal 0.79029 0.0843558 -0.606899
    outer loop
      vertex 6.57336 0.164334 1.41421
      vertex 6.28303 0.157076 1.03514
      vertex 6.44771 1.34149 1.41421
    endloop
  endfacet
  facet normal 0.919311 0.0981266 -0.381102
    outer loop
      vertex 6.07388 0.151847 0.559207
      vertex 5.94092 1.23605 0.517637
      vertex 6.13654 1.27675 0.999999
    endloop
  endfacet
  facet normal 0.919366 0.0981385 -0.380967
    outer loop
      vertex 5.94092 1.23605 0.517637
      vertex 6.07388 0.151847 0.559207
      vertex 6.0567 0.151418 0.517637
    endloop
  endfacet
  facet normal 0.919301 0.0981214 -0.381128
    outer loop
      vertex 6.22491 0.155623 0.924518
      vertex 6.13654 1.27675 0.999999
      vertex 6.25612 0.156403 0.999999
    endloop
  endfacet
  facet normal 0.919318 0.0981199 -0.381087
    outer loop
      vertex 6.13654 1.27675 0.999999
      vertex 6.22491 0.155623 0.924518
      vertex 6.07388 0.151847 0.559207
    endloop
  endfacet
  facet normal 0.985926 0.105238 -0.129901
    outer loop
      vertex 5.99465 0.149866 0.0454773
      vertex 5.8742 1.22217 0
      vertex 5.94092 1.23605 0.517637
    endloop
  endfacet
  facet normal 0.985942 0.105245 -0.129774
    outer loop
      vertex 5.8742 1.22217 0
      vertex 5.99465 0.149866 0.0454773
      vertex 5.98868 0.149717 0
    endloop
  endfacet
  facet normal 0.985924 0.105243 -0.129911
    outer loop
      vertex 6.02087 0.150522 0.244989
      vertex 5.94092 1.23605 0.517637
      vertex 6.0567 0.151418 0.517637
    endloop
  endfacet
  facet normal 0.985923 0.105245 -0.129917
    outer loop
      vertex 5.94092 1.23605 0.517637
      vertex 6.02087 0.150522 0.244989
      vertex 5.99465 0.149866 0.0454773
    endloop
  endfacet
  facet normal 0 0 -1
    outer loop
      vertex 9.79034 2.03694 0
      vertex 10.9966 0.274915 0
      vertex 10.3973 0.259934 0
    endloop
  endfacet
  facet normal 0 0 -1
    outer loop
      vertex 9.79034 2.03694 0
      vertex 10.3973 0.259934 0
      vertex 9.98113 0.249529 0
    endloop
  endfacet
  facet normal 0 0 -1
    outer loop
      vertex 10.9966 0.274915 0
      vertex 9.79034 2.03694 0
      vertex 10.6693 2.67691 0
    endloop
  endfacet
  facet normal 0 0 -1
    outer loop
      vertex 9.19999 3.91921 0
      vertex 10.6693 2.67691 0
      vertex 9.79034 2.03694 0
    endloop
  endfacet
  facet normal 0 0 -1
    outer loop
      vertex 10.6693 2.67691 0
      vertex 9.19999 3.91921 0
      vertex 9.82387 4.94889 0
    endloop
  endfacet
  facet normal 0 0 -1
    outer loop
      vertex 8.25162 5.64896 0
      vertex 9.82387 4.94889 0
      vertex 9.19999 3.91921 0
    endloop
  endfacet
  facet normal 0 0 -1
    outer loop
      vertex 9.82387 4.94889 0
      vertex 8.25162 5.64896 0
      vertex 8.50131 6.98052 0
    endloop
  endfacet
  facet normal 0 0 -1
    outer loop
      vertex 6.98215 7.15888 0
      vertex 8.50131 6.98052 0
      vertex 8.25162 5.64896 0
    endloop
  endfacet
  facet normal 0 0 -1
    outer loop
      vertex 6.98215 7.15888 0
      vertex 6.76587 8.67312 0
      vertex 8.50131 6.98052 0
    endloop
  endfacet
  facet normal 0 0 -1
    outer loop
      vertex 5.44097 8.39022 0
      vertex 6.76587 8.67312 0
      vertex 6.98215 7.15888 0
    endloop
  endfacet
  facet normal 0 0 -1
    outer loop
      vertex 5.44097 8.39022 0
      vertex 4.70182 9.94449 0
      vertex 6.76587 8.67312 0
    endloop
  endfacet
  facet normal 0 0 -1
    outer loop
      vertex 3.68806 9.29506 0
      vertex 4.70182 9.94449 0
      vertex 5.44097 8.39022 0
    endloop
  endfacet
  facet normal 0 0 -1
    outer loop
      vertex 3.68806 9.29506 0
      vertex 2.40942 10.7329 0
      vertex 4.70182 9.94449 0
    endloop
  endfacet
  facet normal 0 0 -1
    outer loop
      vertex 1.79163 9.83819 0
      vertex 2.40942 10.7329 0
      vertex 3.68806 9.29506 0
    endloop
  endfacet
  facet normal 0 0 -1
    outer loop
      vertex 1.79163 9.83819 0
      vertex 2.44249e-15 11 0
      vertex 2.40942 10.7329 0
    endloop
  endfacet
  facet normal 0 -0 -1
    outer loop
      vertex 2.44249e-15 11 0
      vertex 1.79163 9.83819 0
      vertex 2.21695e-15 9.98425 0
    endloop
  endfacet
  facet normal 0 0 -1
    outer loop
      vertex 5.42214 0.135554 0
      vertex 5.8742 1.22217 0
      vertex 5.98868 0.149717 0
    endloop
  endfacet
  facet normal 0 0 -1
    outer loop
      vertex 5.8742 1.22217 0
      vertex 5.42214 0.135554 0
      vertex 4.84968 1.21678 0
    endloop
  endfacet
  facet normal 0 0 -1
    outer loop
      vertex 4.84968 1.21678 0
      vertex 5.42214 0.135554 0
      vertex 5.30861 0.132715 0
    endloop
  endfacet
  facet normal 0 0 -1
    outer loop
      vertex 4.84968 1.21678 0
      vertex 5.30861 0.132715 0
      vertex 5.10063 0.127516 0
    endloop
  endfacet
  facet normal 0 0 -1
    outer loop
      vertex 4.84968 1.21678 0
      vertex 5.10063 0.127516 0
      vertex 4.99844 0.124961 0
    endloop
  endfacet
  facet normal -0 0 -1
    outer loop
      vertex 5.8742 1.22217 0
      vertex 4.84968 1.21678 0
      vertex 5.51999 2.35152 0
    endloop
  endfacet
  facet normal 0 0 -1
    outer loop
      vertex 4.46539 2.24949 0
      vertex 5.51999 2.35152 0
      vertex 4.84968 1.21678 0
    endloop
  endfacet
  facet normal -0 0 -1
    outer loop
      vertex 5.51999 2.35152 0
      vertex 4.46539 2.24949 0
      vertex 4.95097 3.38937 0
    endloop
  endfacet
  facet normal 0 0 -1
    outer loop
      vertex 3.86423 3.17296 0
      vertex 4.95097 3.38937 0
      vertex 4.46539 2.24949 0
    endloop
  endfacet
  facet normal -0 0 -1
    outer loop
      vertex 4.95097 3.38937 0
      vertex 3.86423 3.17296 0
      vertex 4.18929 4.29533 0
    endloop
  endfacet
  facet normal 0 0 -1
    outer loop
      vertex 3.07539 3.94232 0
      vertex 4.18929 4.29533 0
      vertex 3.86423 3.17296 0
    endloop
  endfacet
  facet normal -0 0 -1
    outer loop
      vertex 4.18929 4.29533 0
      vertex 3.07539 3.94232 0
      vertex 3.26458 5.03413 0
    endloop
  endfacet
  facet normal 0 0 -1
    outer loop
      vertex 2.13719 4.52022 0
      vertex 3.26458 5.03413 0
      vertex 3.07539 3.94232 0
    endloop
  endfacet
  facet normal -0 0 -1
    outer loop
      vertex 3.26458 5.03413 0
      vertex 2.13719 4.52022 0
      vertex 2.21283 5.57704 0
    endloop
  endfacet
  facet normal 0 0 -1
    outer loop
      vertex 1.09519 4.87858 0
      vertex 2.21283 5.57704 0
      vertex 2.13719 4.52022 0
    endloop
  endfacet
  facet normal 0 0 -1
    outer loop
      vertex 1.09519 4.87858 0
      vertex 1.07498 5.90291 0
      vertex 2.21283 5.57704 0
    endloop
  endfacet
  facet normal 0 0 -1
    outer loop
      vertex 1.11022e-15 5 0
      vertex 1.07498 5.90291 0
      vertex 1.09519 4.87858 0
    endloop
  endfacet
  facet normal -0 0 -1
    outer loop
      vertex 1.07498 5.90291 0
      vertex 1.11022e-15 5 0
      vertex 1.33017e-15 5.99055 0
    endloop
  endfacet
endsolid OpenSCAD_Model
