solid OpenSCAD_Model
  facet normal -1 2.22049e-16 5.75604e-21
    outer loop
      vertex 5.98218e-15 26.9414 0.112491
      vertex 6.17184e-15 27.7955 1.55291
      vertex 6.21724e-15 28 0
    endloop
  endfacet
  facet normal -1 2.22023e-16 -2.33434e-19
    outer loop
      vertex 5.98218e-15 26.9414 0.112491
      vertex 6.21724e-15 28 0
      vertex 5.98547e-15 26.9561 0
    endloop
  endfacet
  facet normal -1 2.22026e-16 1.92984e-20
    outer loop
      vertex 6.17184e-15 27.7955 1.55291
      vertex 5.98218e-15 26.9414 0.112491
      vertex 5.9477e-15 26.786 1.2941
    endloop
  endfacet
  facet normal -1 2.22064e-16 -1.28402e-19
    outer loop
      vertex 5.93796e-15 26.7422 1.40012
      vertex 6.17184e-15 27.7955 1.55291
      vertex 5.9477e-15 26.786 1.2941
    endloop
  endfacet
  facet normal -1 2.22045e-16 2.46008e-21
    outer loop
      vertex 6.17184e-15 27.7955 1.55291
      vertex 5.93796e-15 26.7422 1.40012
      vertex 6.03875e-15 27.1961 3
    endloop
  endfacet
  facet normal -1 2.22054e-16 -5.62411e-23
    outer loop
      vertex 5.83697e-15 26.2874 2.5
      vertex 6.03875e-15 27.1961 3
      vertex 5.93796e-15 26.7422 1.40012
    endloop
  endfacet
  facet normal -1 2.22075e-16 -3.99739e-20
    outer loop
      vertex 5.82131e-15 26.2169 2.59203
      vertex 6.03875e-15 27.1961 3
      vertex 5.83697e-15 26.2874 2.5
    endloop
  endfacet
  facet normal -1 2.22055e-16 7.98111e-21
    outer loop
      vertex 6.03875e-15 27.1961 3
      vertex 5.82131e-15 26.2169 2.59203
      vertex 5.82703e-15 26.2426 4.24264
    endloop
  endfacet
  facet normal -1 2.2205e-16 8.06944e-21
    outer loop
      vertex 5.66082e-15 25.4941 3.53553
      vertex 5.82703e-15 26.2426 4.24264
      vertex 5.82131e-15 26.2169 2.59203
    endloop
  endfacet
  facet normal -1 2.22076e-16 -1.93021e-20
    outer loop
      vertex 5.64021e-15 25.4013 3.60685
      vertex 5.82703e-15 26.2426 4.24264
      vertex 5.66082e-15 25.4941 3.53553
    endloop
  endfacet
  facet normal -1 2.2206e-16 1.64738e-21
    outer loop
      vertex 5.64021e-15 25.4013 3.60685
      vertex 5.5511e-15 25 5.19615
      vertex 5.82703e-15 26.2426 4.24264
    endloop
  endfacet
  facet normal -1 2.22034e-16 -4.78913e-21
    outer loop
      vertex 5.43125e-15 24.4602 4.33013
      vertex 5.5511e-15 25 5.19615
      vertex 5.64021e-15 25.4013 3.60685
    endloop
  endfacet
  facet normal -1 2.21947e-16 4.95643e-20
    outer loop
      vertex 5.40706e-15 24.3512 4.37533
      vertex 5.5511e-15 25 5.19615
      vertex 5.43125e-15 24.4602 4.33013
    endloop
  endfacet
  facet normal -1 2.2203e-16 -1.62644e-20
    outer loop
      vertex 5.40706e-15 24.3512 4.37533
      vertex 5.22979e-15 23.5529 5.79555
      vertex 5.5511e-15 25 5.19615
    endloop
  endfacet
  facet normal -1 2.22041e-16 -1.00531e-20
    outer loop
      vertex 5.16392e-15 23.2562 4.82963
      vertex 5.22979e-15 23.5529 5.79555
      vertex 5.40706e-15 24.3512 4.37533
    endloop
  endfacet
  facet normal -1 2.22105e-16 -2.95446e-20
    outer loop
      vertex 5.1378e-15 23.1386 4.84514
      vertex 5.22979e-15 23.5529 5.79555
      vertex 5.16392e-15 23.2562 4.82963
    endloop
  endfacet
  facet normal -1 2.22048e-16 -4.90518e-21
    outer loop
      vertex 5.1378e-15 23.1386 4.84514
      vertex 4.88497e-15 22 6
      vertex 5.22979e-15 23.5529 5.79555
    endloop
  endfacet
  facet normal -1 2.22056e-16 2.59953e-21
    outer loop
      vertex 4.87704e-15 21.9643 5
      vertex 4.88497e-15 22 6
      vertex 5.1378e-15 23.1386 4.84514
    endloop
  endfacet
  facet normal -1 2.22033e-16 3.40586e-21
    outer loop
      vertex 4.85084e-15 21.8463 4.98444
      vertex 4.88497e-15 22 6
      vertex 4.87704e-15 21.9643 5
    endloop
  endfacet
  facet normal -1 2.22042e-16 1.6652e-20
    outer loop
      vertex 4.54015e-15 20.447 5.79555
      vertex 4.85084e-15 21.8463 4.98444
      vertex 4.59016e-15 20.6723 4.82963
    endloop
  endfacet
  facet normal -1 2.22016e-16 1.04871e-20
    outer loop
      vertex 4.54015e-15 20.447 5.79555
      vertex 4.59016e-15 20.6723 4.82963
      vertex 4.56576e-15 20.5624 4.78403
    endloop
  endfacet
  facet normal -1 2.22034e-16 3.27092e-21
    outer loop
      vertex 4.85084e-15 21.8463 4.98444
      vertex 4.54015e-15 20.447 5.79555
      vertex 4.88497e-15 22 6
    endloop
  endfacet
  facet normal -1 2.2204e-16 -9.77524e-21
    outer loop
      vertex 4.21884e-15 19 5.19615
      vertex 4.56576e-15 20.5624 4.78403
      vertex 4.32283e-15 19.4683 4.33013
    endloop
  endfacet
  facet normal -1 2.22049e-16 -5.26402e-21
    outer loop
      vertex 4.21884e-15 19 5.19615
      vertex 4.32283e-15 19.4683 4.33013
      vertex 4.30198e-15 19.3744 4.25795
    endloop
  endfacet
  facet normal -1 2.22047e-16 1.40289e-20
    outer loop
      vertex 4.56576e-15 20.5624 4.78403
      vertex 4.21884e-15 19 5.19615
      vertex 4.54015e-15 20.447 5.79555
    endloop
  endfacet
  facet normal -1 2.22046e-16 1.30417e-20
    outer loop
      vertex 3.94291e-15 17.7573 4.24264
      vertex 4.30198e-15 19.3744 4.25795
      vertex 4.09327e-15 18.4345 3.53553
    endloop
  endfacet
  facet normal -1 2.22013e-16 -1.8349e-20
    outer loop
      vertex 3.94291e-15 17.7573 4.24264
      vertex 4.09327e-15 18.4345 3.53553
      vertex 4.07742e-15 18.3631 3.44237
    endloop
  endfacet
  facet normal -1 2.22046e-16 -6.49158e-21
    outer loop
      vertex 4.30198e-15 19.3744 4.25795
      vertex 3.94291e-15 17.7573 4.24264
      vertex 4.21884e-15 19 5.19615
    endloop
  endfacet
  facet normal -1 2.22039e-16 1.07409e-20
    outer loop
      vertex 3.73119e-15 16.8038 3
      vertex 4.07742e-15 18.3631 3.44237
      vertex 3.91712e-15 17.6412 2.5
    endloop
  endfacet
  facet normal -1 2.21961e-16 -1.20204e-19
    outer loop
      vertex 3.73119e-15 16.8038 3
      vertex 3.91712e-15 17.6412 2.5
      vertex 3.9073e-15 17.5969 2.39302
    endloop
  endfacet
  facet normal -1 2.22038e-16 1.45364e-20
    outer loop
      vertex 3.5981e-15 16.2044 1.55291
      vertex 3.9073e-15 17.5969 2.39302
      vertex 3.80639e-15 17.1425 1.2941
    endloop
  endfacet
  facet normal -1 2.22041e-16 3.09464e-21
    outer loop
      vertex 4.07742e-15 18.3631 3.44237
      vertex 3.73119e-15 16.8038 3
      vertex 3.94291e-15 17.7573 4.24264
    endloop
  endfacet
  facet normal -1 2.21991e-16 -1.56479e-19
    outer loop
      vertex 3.5981e-15 16.2044 1.55291
      vertex 3.80639e-15 17.1425 1.2941
      vertex 3.8031e-15 17.1276 1.18123
    endloop
  endfacet
  facet normal -1 2.22049e-16 1.52948e-20
    outer loop
      vertex 3.5527e-15 16 0
      vertex 3.8031e-15 17.1276 1.18123
      vertex 3.76862e-15 16.9724 0
    endloop
  endfacet
  facet normal -1 2.22049e-16 -4.40288e-21
    outer loop
      vertex 3.9073e-15 17.5969 2.39302
      vertex 3.5981e-15 16.2044 1.55291
      vertex 3.73119e-15 16.8038 3
    endloop
  endfacet
  facet normal -1 2.22057e-16 7.47209e-21
    outer loop
      vertex 3.8031e-15 17.1276 1.18123
      vertex 3.5527e-15 16 0
      vertex 3.5981e-15 16.2044 1.55291
    endloop
  endfacet
  facet normal -0.0182895 -0.999833 0
    outer loop
      vertex 27.9953 -0.512119 0
      vertex 27.7909 -0.50838 1.55291
      vertex 27.7909 -0.50838 0
    endloop
  endfacet
  facet normal -0.0182938 -0.999833 -4.19225e-06
    outer loop
      vertex 27.1916 -0.497417 3
      vertex 26.2382 -0.479978 4.24264
      vertex 24.9958 -0.45725 5.19615
    endloop
  endfacet
  facet normal -0.0182877 -0.999833 9.38055e-07
    outer loop
      vertex 27.5864 -0.504641 0
      vertex 27.7909 -0.50838 1.55291
      vertex 27.1916 -0.497417 3
    endloop
  endfacet
  facet normal -0.0182806 -0.999833 -0
    outer loop
      vertex 27.7909 -0.50838 1.55291
      vertex 27.5864 -0.504641 0
      vertex 27.7909 -0.50838 0
    endloop
  endfacet
  facet normal -0.01829 -0.999833 -4.30829e-07
    outer loop
      vertex 27.1916 -0.497417 3
      vertex 24.9958 -0.45725 5.19615
      vertex 23.5489 -0.430782 5.79555
    endloop
  endfacet
  facet normal -0.018297 -0.999833 -4.65536e-06
    outer loop
      vertex 24.4561 -0.447377 4.33013
      vertex 23.5489 -0.430782 5.79555
      vertex 24.3756 -0.445904 4.36355
    endloop
  endfacet
  facet normal -0.0183081 -0.999832 -1.15483e-05
    outer loop
      vertex 24.5421 -0.448951 4.26401
      vertex 23.5489 -0.430782 5.79555
      vertex 24.4561 -0.447377 4.33013
    endloop
  endfacet
  facet normal -0.018289 -0.999833 8.87456e-07
    outer loop
      vertex 25.4898 -0.466287 3.53553
      vertex 23.5489 -0.430782 5.79555
      vertex 24.5421 -0.448951 4.26401
    endloop
  endfacet
  facet normal -0.0182891 -0.999833 7.8086e-07
    outer loop
      vertex 25.4898 -0.466287 3.53553
      vertex 27.1916 -0.497417 3
      vertex 23.5489 -0.430782 5.79555
    endloop
  endfacet
  facet normal -0.0182859 -0.999833 1.0994e-05
    outer loop
      vertex 25.5564 -0.467506 3.44851
      vertex 27.1916 -0.497417 3
      vertex 25.4898 -0.466287 3.53553
    endloop
  endfacet
  facet normal -0.0182892 -0.999833 -1.24425e-06
    outer loop
      vertex 26.283 -0.480796 2.5
      vertex 27.1916 -0.497417 3
      vertex 25.5564 -0.467506 3.44851
    endloop
  endfacet
  facet normal -0.0182952 -0.999833 9.59869e-06
    outer loop
      vertex 26.3253 -0.481571 2.39755
      vertex 27.1916 -0.497417 3
      vertex 26.283 -0.480796 2.5
    endloop
  endfacet
  facet normal -0.0182883 -0.999833 -3.1681e-07
    outer loop
      vertex 26.7816 -0.489917 1.2941
      vertex 27.1916 -0.497417 3
      vertex 26.3253 -0.481571 2.39755
    endloop
  endfacet
  facet normal -0.0182942 -0.999833 -1.25758e-06
    outer loop
      vertex 27.5864 -0.504641 0
      vertex 26.7816 -0.489917 1.2941
      vertex 26.7962 -0.490184 1.1829
    endloop
  endfacet
  facet normal -0.0182909 -0.999833 9.46699e-07
    outer loop
      vertex 27.5864 -0.504641 0
      vertex 26.7962 -0.490184 1.1829
      vertex 26.9516 -0.493028 0
    endloop
  endfacet
  facet normal -0.0182915 -0.999833 4.41221e-07
    outer loop
      vertex 26.7816 -0.489917 1.2941
      vertex 27.5864 -0.504641 0
      vertex 27.1916 -0.497417 3
    endloop
  endfacet
  facet normal -0.0182899 -0.999833 6.91812e-06
    outer loop
      vertex 23.5489 -0.430782 5.79555
      vertex 21.9963 -0.402379 6
      vertex 20.4436 -0.373977 5.79555
    endloop
  endfacet
  facet normal -0.0182899 -0.999833 -5.49921e-07
    outer loop
      vertex 23.5489 -0.430782 5.79555
      vertex 20.4436 -0.373977 5.79555
      vertex 17.7543 -0.324781 4.24264
    endloop
  endfacet
  facet normal -0.0182935 -0.999833 5.70114e-06
    outer loop
      vertex 20.4436 -0.373977 5.79555
      vertex 18.9968 -0.347509 5.19615
      vertex 17.7543 -0.324781 4.24264
    endloop
  endfacet
  facet normal -0.0182897 -0.999833 -7.46846e-07
    outer loop
      vertex 23.5489 -0.430782 5.79555
      vertex 20.7744 -0.380028 4.84356
      vertex 21.9606 -0.401727 5
    endloop
  endfacet
  facet normal -0.0182939 -0.999833 1.14975e-05
    outer loop
      vertex 23.5489 -0.430782 5.79555
      vertex 20.6688 -0.378096 4.82963
      vertex 20.7744 -0.380028 4.84356
    endloop
  endfacet
  facet normal -0.0182898 -0.999833 -7.25036e-07
    outer loop
      vertex 17.7543 -0.324781 4.24264
      vertex 20.6688 -0.378096 4.82963
      vertex 23.5489 -0.430782 5.79555
    endloop
  endfacet
  facet normal -0.0182902 -0.999833 1.15403e-06
    outer loop
      vertex 17.7543 -0.324781 4.24264
      vertex 19.5635 -0.357877 4.37099
      vertex 20.6688 -0.378096 4.82963
    endloop
  endfacet
  facet normal -0.0182881 -0.999833 -2.81023e-05
    outer loop
      vertex 17.7543 -0.324781 4.24264
      vertex 19.4651 -0.356076 4.33013
      vertex 19.5635 -0.357877 4.37099
    endloop
  endfacet
  facet normal -0.0182896 -0.999833 1.6875e-06
    outer loop
      vertex 19.4651 -0.356076 4.33013
      vertex 17.7543 -0.324781 4.24264
      vertex 18.6662 -0.341463 3.71607
    endloop
  endfacet
  facet normal -0.0182957 -0.999833 1.12808e-05
    outer loop
      vertex 22.0665 -0.403665 4.98603
      vertex 23.5489 -0.430782 5.79555
      vertex 21.9606 -0.401727 5
    endloop
  endfacet
  facet normal -0.0182887 -0.999833 -1.53474e-06
    outer loop
      vertex 23.2524 -0.425357 4.82963
      vertex 23.5489 -0.430782 5.79555
      vertex 22.0665 -0.403665 4.98603
    endloop
  endfacet
  facet normal -0.0182949 -0.999833 3.51345e-07
    outer loop
      vertex 23.3517 -0.427174 4.78841
      vertex 23.5489 -0.430782 5.79555
      vertex 23.2524 -0.425357 4.82963
    endloop
  endfacet
  facet normal -0.01829 -0.999833 -6.05463e-07
    outer loop
      vertex 23.5489 -0.430782 5.79555
      vertex 23.3517 -0.427174 4.78841
      vertex 24.3756 -0.445904 4.36355
    endloop
  endfacet
  facet normal -0.0182898 -0.999833 -3.46817e-07
    outer loop
      vertex 17.7543 -0.324781 4.24264
      vertex 16.801 -0.307342 3
      vertex 15.9973 -0.292639 0
    endloop
  endfacet
  facet normal -0.0182926 -0.999833 4.07729e-07
    outer loop
      vertex 16.801 -0.307342 3
      vertex 16.2017 -0.296378 1.55291
      vertex 15.9973 -0.292639 0
    endloop
  endfacet
  facet normal -0.0182898 -0.999833 -3.57299e-07
    outer loop
      vertex 15.9973 -0.292639 0
      vertex 17.4721 -0.319618 2.09819
      vertex 17.7543 -0.324781 4.24264
    endloop
  endfacet
  facet normal -0.0182913 -0.999833 7.319e-07
    outer loop
      vertex 17.4721 -0.319618 2.09819
      vertex 15.9973 -0.292639 0
      vertex 17.1816 -0.314304 1.39562
    endloop
  endfacet
  facet normal -0.0182979 -0.999833 6.28972e-06
    outer loop
      vertex 17.1816 -0.314304 1.39562
      vertex 15.9973 -0.292639 0
      vertex 17.1396 -0.313536 1.2941
    endloop
  endfacet
  facet normal -0.0182904 -0.999833 -3.12877e-07
    outer loop
      vertex 15.9973 -0.292639 0
      vertex 16.9841 -0.310691 0.110828
      vertex 17.1396 -0.313536 1.2941
    endloop
  endfacet
  facet normal -0.0182915 -0.999833 9.93272e-06
    outer loop
      vertex 16.9841 -0.310691 0.110828
      vertex 15.9973 -0.292639 0
      vertex 16.9695 -0.310425 0
    endloop
  endfacet
  facet normal -0.0182952 -0.999833 -7.96974e-06
    outer loop
      vertex 17.7543 -0.324781 4.24264
      vertex 18.5164 -0.338721 3.60086
      vertex 18.6662 -0.341463 3.71607
    endloop
  endfacet
  facet normal -0.0182898 -0.999833 -1.58591e-06
    outer loop
      vertex 17.7543 -0.324781 4.24264
      vertex 18.4314 -0.337166 3.53553
      vertex 18.5164 -0.338721 3.60086
    endloop
  endfacet
  facet normal -0.0182882 -0.999833 2.89417e-08
    outer loop
      vertex 17.7543 -0.324781 4.24264
      vertex 17.704 -0.323861 2.58596
      vertex 18.4314 -0.337166 3.53553
    endloop
  endfacet
  facet normal -0.0182951 -0.999833 2.4068e-07
    outer loop
      vertex 17.7543 -0.324781 4.24264
      vertex 17.6382 -0.322657 2.5
      vertex 17.704 -0.323861 2.58596
    endloop
  endfacet
  facet normal -0.0182935 -0.999833 1.29713e-07
    outer loop
      vertex 17.6382 -0.322657 2.5
      vertex 17.7543 -0.324781 4.24264
      vertex 17.4721 -0.319618 2.09819
    endloop
  endfacet
  facet normal 0.0983049 0.986638 0.129929
    outer loop
      vertex 5.48495 27.249 1.55291
      vertex 6.21724e-15 28 0
      vertex 6.17184e-15 27.7955 1.55291
    endloop
  endfacet
  facet normal 0.0983199 0.986643 0.129878
    outer loop
      vertex 5.48495 27.249 1.55291
      vertex 5.52529 27.4494 0
      vertex 6.21724e-15 28 0
    endloop
  endfacet
  facet normal 0.0916789 0.91999 0.381069
    outer loop
      vertex 5.36667 26.6613 3
      vertex 6.17184e-15 27.7955 1.55291
      vertex 6.03875e-15 27.1961 3
    endloop
  endfacet
  facet normal 0.0916626 0.919972 0.381116
    outer loop
      vertex 5.36667 26.6613 3
      vertex 5.48495 27.249 1.55291
      vertex 6.17184e-15 27.7955 1.55291
    endloop
  endfacet
  facet normal 0.0788062 0.790889 0.606864
    outer loop
      vertex 5.17851 25.7266 4.24264
      vertex 6.03875e-15 27.1961 3
      vertex 5.82703e-15 26.2426 4.24264
    endloop
  endfacet
  facet normal 0.0788153 0.790904 0.606843
    outer loop
      vertex 5.17851 25.7266 4.24264
      vertex 5.36667 26.6613 3
      vertex 6.03875e-15 27.1961 3
    endloop
  endfacet
  facet normal 0.0605525 0.607656 0.791888
    outer loop
      vertex 4.9333 24.5084 5.19615
      vertex 5.82703e-15 26.2426 4.24264
      vertex 5.5511e-15 25 5.19615
    endloop
  endfacet
  facet normal 0.0605474 0.607646 0.791897
    outer loop
      vertex 4.9333 24.5084 5.19615
      vertex 5.17851 25.7266 4.24264
      vertex 5.82703e-15 26.2426 4.24264
    endloop
  endfacet
  facet normal 0.0381106 0.382401 0.92321
    outer loop
      vertex 4.64774 23.0897 5.79555
      vertex 5.5511e-15 25 5.19615
      vertex 5.22979e-15 23.5529 5.79555
    endloop
  endfacet
  facet normal 0.0381047 0.382388 0.923216
    outer loop
      vertex 4.64774 23.0897 5.79555
      vertex 4.9333 24.5084 5.19615
      vertex 5.5511e-15 25 5.19615
    endloop
  endfacet
  facet normal 0.0130059 0.130519 0.99136
    outer loop
      vertex 4.3413 21.5674 6
      vertex 5.22979e-15 23.5529 5.79555
      vertex 4.88497e-15 22 6
    endloop
  endfacet
  facet normal 0.0130082 0.130524 0.99136
    outer loop
      vertex 4.3413 21.5674 6
      vertex 4.64774 23.0897 5.79555
      vertex 5.22979e-15 23.5529 5.79555
    endloop
  endfacet
  facet normal -0.0130031 -0.130511 0.991362
    outer loop
      vertex 4.03486 20.045 5.79555
      vertex 4.88497e-15 22 6
      vertex 4.54015e-15 20.447 5.79555
    endloop
  endfacet
  facet normal -0.0130056 -0.130516 0.991361
    outer loop
      vertex 4.03486 20.045 5.79555
      vertex 4.3413 21.5674 6
      vertex 4.88497e-15 22 6
    endloop
  endfacet
  facet normal -0.0381169 -0.382423 0.923201
    outer loop
      vertex 3.7493 18.6263 5.19615
      vertex 4.54015e-15 20.447 5.79555
      vertex 4.21884e-15 19 5.19615
    endloop
  endfacet
  facet normal -0.0380981 -0.38239 0.923215
    outer loop
      vertex 3.7493 18.6263 5.19615
      vertex 4.03486 20.045 5.79555
      vertex 4.54015e-15 20.447 5.79555
    endloop
  endfacet
  facet normal -0.0605529 -0.607625 0.791912
    outer loop
      vertex 3.50409 17.4081 4.24264
      vertex 4.21884e-15 19 5.19615
      vertex 3.94291e-15 17.7573 4.24264
    endloop
  endfacet
  facet normal -0.060565 -0.607643 0.791897
    outer loop
      vertex 3.50409 17.4081 4.24264
      vertex 3.7493 18.6263 5.19615
      vertex 4.21884e-15 19 5.19615
    endloop
  endfacet
  facet normal -0.0788044 -0.79089 0.606864
    outer loop
      vertex 3.31593 16.4734 3
      vertex 3.94291e-15 17.7573 4.24264
      vertex 3.73119e-15 16.8038 3
    endloop
  endfacet
  facet normal -0.0788175 -0.790904 0.606844
    outer loop
      vertex 3.31593 16.4734 3
      vertex 3.50409 17.4081 4.24264
      vertex 3.94291e-15 17.7573 4.24264
    endloop
  endfacet
  facet normal -0.0916639 -0.919991 0.38107
    outer loop
      vertex 3.19765 15.8858 1.55291
      vertex 3.73119e-15 16.8038 3
      vertex 3.5981e-15 16.2044 1.55291
    endloop
  endfacet
  facet normal -0.0916684 -0.919994 0.381062
    outer loop
      vertex 3.19765 15.8858 1.55291
      vertex 3.31593 16.4734 3
      vertex 3.73119e-15 16.8038 3
    endloop
  endfacet
  facet normal -0.0983421 -0.986643 0.129866
    outer loop
      vertex 3.15731 15.6853 0
      vertex 3.5981e-15 16.2044 1.55291
      vertex 3.5527e-15 16 0
    endloop
  endfacet
  facet normal -0.0983042 -0.986637 0.129941
    outer loop
      vertex 3.15731 15.6853 0
      vertex 3.19765 15.8858 1.55291
      vertex 3.5981e-15 16.2044 1.55291
    endloop
  endfacet
  facet normal 0.291084 0.94784 0.129878
    outer loop
      vertex 10.7542 25.6308 1.55291
      vertex 5.52529 27.4494 0
      vertex 5.48495 27.249 1.55291
    endloop
  endfacet
  facet normal 0.291084 0.94784 0.12988
    outer loop
      vertex 10.7542 25.6308 1.55291
      vertex 10.8333 25.8193 0
      vertex 5.52529 27.4494 0
    endloop
  endfacet
  facet normal 0.271398 0.883796 0.381115
    outer loop
      vertex 10.5223 25.0781 3
      vertex 5.48495 27.249 1.55291
      vertex 5.36667 26.6613 3
    endloop
  endfacet
  facet normal 0.271421 0.883813 0.381058
    outer loop
      vertex 10.5223 25.0781 3
      vertex 10.7542 25.6308 1.55291
      vertex 5.48495 27.249 1.55291
    endloop
  endfacet
  facet normal 0.233336 0.759799 0.606844
    outer loop
      vertex 10.1534 24.1988 4.24264
      vertex 5.36667 26.6613 3
      vertex 5.17851 25.7266 4.24264
    endloop
  endfacet
  facet normal 0.233313 0.759774 0.606884
    outer loop
      vertex 10.1534 24.1988 4.24264
      vertex 10.5223 25.0781 3
      vertex 5.36667 26.6613 3
    endloop
  endfacet
  facet normal 0.179265 0.58375 0.791897
    outer loop
      vertex 9.67258 23.053 5.19615
      vertex 5.17851 25.7266 4.24264
      vertex 4.9333 24.5084 5.19615
    endloop
  endfacet
  facet normal 0.179274 0.583761 0.791886
    outer loop
      vertex 9.67258 23.053 5.19615
      vertex 10.1534 24.1988 4.24264
      vertex 5.17851 25.7266 4.24264
    endloop
  endfacet
  facet normal 0.112806 0.367352 0.923216
    outer loop
      vertex 9.1127 21.7186 5.79555
      vertex 4.9333 24.5084 5.19615
      vertex 4.64774 23.0897 5.79555
    endloop
  endfacet
  facet normal 0.112815 0.367363 0.92321
    outer loop
      vertex 9.1127 21.7186 5.79555
      vertex 9.67258 23.053 5.19615
      vertex 4.9333 24.5084 5.19615
    endloop
  endfacet
  facet normal 0.0385082 0.125391 0.99136
    outer loop
      vertex 8.51187 20.2866 6
      vertex 4.64774 23.0897 5.79555
      vertex 4.3413 21.5674 6
    endloop
  endfacet
  facet normal 0.0385029 0.125384 0.991361
    outer loop
      vertex 8.51187 20.2866 6
      vertex 9.1127 21.7186 5.79555
      vertex 4.64774 23.0897 5.79555
    endloop
  endfacet
  facet normal -0.0385061 -0.125384 0.991361
    outer loop
      vertex 7.91104 18.8546 5.79555
      vertex 4.3413 21.5674 6
      vertex 4.03486 20.045 5.79555
    endloop
  endfacet
  facet normal -0.0385056 -0.125383 0.991361
    outer loop
      vertex 7.91104 18.8546 5.79555
      vertex 8.51187 20.2866 6
      vertex 4.3413 21.5674 6
    endloop
  endfacet
  facet normal -0.11281 -0.367351 0.923216
    outer loop
      vertex 7.35116 17.5202 5.19615
      vertex 4.03486 20.045 5.79555
      vertex 3.7493 18.6263 5.19615
    endloop
  endfacet
  facet normal -0.112819 -0.367361 0.92321
    outer loop
      vertex 7.35116 17.5202 5.19615
      vertex 7.91104 18.8546 5.79555
      vertex 4.03486 20.045 5.79555
    endloop
  endfacet
  facet normal -0.179255 -0.583752 0.791897
    outer loop
      vertex 6.87038 16.3744 4.24264
      vertex 3.7493 18.6263 5.19615
      vertex 3.50409 17.4081 4.24264
    endloop
  endfacet
  facet normal -0.17927 -0.583766 0.791883
    outer loop
      vertex 6.87038 16.3744 4.24264
      vertex 7.35116 17.5202 5.19615
      vertex 3.7493 18.6263 5.19615
    endloop
  endfacet
  facet normal -0.23334 -0.759798 0.606844
    outer loop
      vertex 6.50146 15.4951 3
      vertex 3.50409 17.4081 4.24264
      vertex 3.31593 16.4734 3
    endloop
  endfacet
  facet normal -0.233307 -0.759774 0.606886
    outer loop
      vertex 6.50146 15.4951 3
      vertex 6.87038 16.3744 4.24264
      vertex 3.50409 17.4081 4.24264
    endloop
  endfacet
  facet normal -0.271424 -0.88381 0.381062
    outer loop
      vertex 6.26955 14.9424 1.55291
      vertex 3.31593 16.4734 3
      vertex 3.19765 15.8858 1.55291
    endloop
  endfacet
  facet normal -0.271425 -0.883811 0.38106
    outer loop
      vertex 6.26955 14.9424 1.55291
      vertex 6.50146 15.4951 3
      vertex 3.31593 16.4734 3
    endloop
  endfacet
  facet normal -0.291058 -0.94784 0.129939
    outer loop
      vertex 6.19045 14.7539 0
      vertex 3.19765 15.8858 1.55291
      vertex 3.15731 15.6853 0
    endloop
  endfacet
  facet normal -0.291087 -0.947839 0.12988
    outer loop
      vertex 6.19045 14.7539 0
      vertex 6.26955 14.9424 1.55291
      vertex 3.19765 15.8858 1.55291
    endloop
  endfacet
  facet normal 0.472391 0.871767 0.129881
    outer loop
      vertex 15.6005 23.0047 1.55291
      vertex 10.8333 25.8193 0
      vertex 10.7542 25.6308 1.55291
    endloop
  endfacet
  facet normal 0.472383 0.871768 0.129906
    outer loop
      vertex 15.6005 23.0047 1.55291
      vertex 15.7153 23.1739 0
      vertex 10.8333 25.8193 0
    endloop
  endfacet
  facet normal 0.440484 0.812877 0.381058
    outer loop
      vertex 15.2641 22.5086 3
      vertex 10.7542 25.6308 1.55291
      vertex 10.5223 25.0781 3
    endloop
  endfacet
  facet normal 0.440478 0.812874 0.381071
    outer loop
      vertex 15.2641 22.5086 3
      vertex 15.6005 23.0047 1.55291
      vertex 10.7542 25.6308 1.55291
    endloop
  endfacet
  facet normal 0.378665 0.69879 0.606882
    outer loop
      vertex 14.7289 21.7194 4.24264
      vertex 10.5223 25.0781 3
      vertex 10.1534 24.1988 4.24264
    endloop
  endfacet
  facet normal 0.378661 0.698787 0.606887
    outer loop
      vertex 14.7289 21.7194 4.24264
      vertex 15.2641 22.5086 3
      vertex 10.5223 25.0781 3
    endloop
  endfacet
  facet normal 0.290947 0.536901 0.791889
    outer loop
      vertex 14.0315 20.6909 5.19615
      vertex 10.1534 24.1988 4.24264
      vertex 9.67258 23.053 5.19615
    endloop
  endfacet
  facet normal 0.290933 0.536889 0.791902
    outer loop
      vertex 14.0315 20.6909 5.19615
      vertex 14.7289 21.7194 4.24264
      vertex 10.1534 24.1988 4.24264
    endloop
  endfacet
  facet normal 0.18309 0.337877 0.92321
    outer loop
      vertex 13.2193 19.4933 5.79555
      vertex 9.67258 23.053 5.19615
      vertex 9.1127 21.7186 5.79555
    endloop
  endfacet
  facet normal 0.183101 0.337887 0.923204
    outer loop
      vertex 13.2193 19.4933 5.79555
      vertex 14.0315 20.6909 5.19615
      vertex 9.67258 23.053 5.19615
    endloop
  endfacet
  facet normal 0.0624905 0.11532 0.991361
    outer loop
      vertex 12.3477 18.208 6
      vertex 9.1127 21.7186 5.79555
      vertex 8.51187 20.2866 6
    endloop
  endfacet
  facet normal 0.062489 0.115318 0.991361
    outer loop
      vertex 12.3477 18.208 6
      vertex 13.2193 19.4933 5.79555
      vertex 9.1127 21.7186 5.79555
    endloop
  endfacet
  facet normal -0.0624886 -0.11532 0.991361
    outer loop
      vertex 11.4761 16.9228 5.79555
      vertex 8.51187 20.2866 6
      vertex 7.91104 18.8546 5.79555
    endloop
  endfacet
  facet normal -0.0624931 -0.115324 0.99136
    outer loop
      vertex 11.4761 16.9228 5.79555
      vertex 12.3477 18.208 6
      vertex 8.51187 20.2866 6
    endloop
  endfacet
  facet normal -0.183089 -0.337878 0.92321
    outer loop
      vertex 10.6639 15.7251 5.19615
      vertex 7.91104 18.8546 5.79555
      vertex 7.35116 17.5202 5.19615
    endloop
  endfacet
  facet normal -0.183084 -0.337875 0.923212
    outer loop
      vertex 10.6639 15.7251 5.19615
      vertex 11.4761 16.9228 5.79555
      vertex 7.91104 18.8546 5.79555
    endloop
  endfacet
  facet normal -0.290953 -0.536904 0.791884
    outer loop
      vertex 9.96647 14.6966 4.24264
      vertex 7.35116 17.5202 5.19615
      vertex 6.87038 16.3744 4.24264
    endloop
  endfacet
  facet normal -0.290927 -0.536887 0.791905
    outer loop
      vertex 9.96647 14.6966 4.24264
      vertex 10.6639 15.7251 5.19615
      vertex 7.35116 17.5202 5.19615
    endloop
  endfacet
  facet normal -0.378656 -0.698791 0.606886
    outer loop
      vertex 9.4313 13.9075 3
      vertex 6.87038 16.3744 4.24264
      vertex 6.50146 15.4951 3
    endloop
  endfacet
  facet normal -0.37869 -0.698807 0.606847
    outer loop
      vertex 9.4313 13.9075 3
      vertex 9.96647 14.6966 4.24264
      vertex 6.87038 16.3744 4.24264
    endloop
  endfacet
  facet normal -0.440484 -0.812876 0.381061
    outer loop
      vertex 9.09488 13.4114 1.55291
      vertex 6.50146 15.4951 3
      vertex 6.26955 14.9424 1.55291
    endloop
  endfacet
  facet normal -0.440474 -0.812874 0.381076
    outer loop
      vertex 9.09488 13.4114 1.55291
      vertex 9.4313 13.9075 3
      vertex 6.50146 15.4951 3
    endloop
  endfacet
  facet normal -0.472398 -0.871763 0.129881
    outer loop
      vertex 8.98014 13.2422 0
      vertex 6.26955 14.9424 1.55291
      vertex 6.19045 14.7539 0
    endloop
  endfacet
  facet normal -0.472395 -0.871764 0.129888
    outer loop
      vertex 8.98014 13.2422 0
      vertex 9.09488 13.4114 1.55291
      vertex 6.26955 14.9424 1.55291
    endloop
  endfacet
  facet normal 0.635138 0.761395 0.129912
    outer loop
      vertex 19.8333 19.4738 1.55291
      vertex 15.7153 23.1739 0
      vertex 15.6005 23.0047 1.55291
    endloop
  endfacet
  facet normal 0.635131 0.761397 0.129933
    outer loop
      vertex 19.8333 19.4738 1.55291
      vertex 19.9792 19.6171 0
      vertex 15.7153 23.1739 0
    endloop
  endfacet
  facet normal 0.592229 0.709966 0.381068
    outer loop
      vertex 19.4056 19.0539 3
      vertex 15.6005 23.0047 1.55291
      vertex 15.2641 22.5086 3
    endloop
  endfacet
  facet normal 0.592238 0.709968 0.381051
    outer loop
      vertex 19.4056 19.0539 3
      vertex 19.8333 19.4738 1.55291
      vertex 15.6005 23.0047 1.55291
    endloop
  endfacet
  facet normal 0.509113 0.610321 0.606887
    outer loop
      vertex 18.7252 18.3858 4.24264
      vertex 15.2641 22.5086 3
      vertex 14.7289 21.7194 4.24264
    endloop
  endfacet
  facet normal 0.509108 0.610319 0.606894
    outer loop
      vertex 18.7252 18.3858 4.24264
      vertex 19.4056 19.0539 3
      vertex 15.2641 22.5086 3
    endloop
  endfacet
  facet normal 0.391156 0.468927 0.791899
    outer loop
      vertex 17.8386 17.5152 5.19615
      vertex 14.7289 21.7194 4.24264
      vertex 14.0315 20.6909 5.19615
    endloop
  endfacet
  facet normal 0.391173 0.468936 0.791885
    outer loop
      vertex 17.8386 17.5152 5.19615
      vertex 18.7252 18.3858 4.24264
      vertex 14.7289 21.7194 4.24264
    endloop
  endfacet
  facet normal 0.246173 0.295113 0.923205
    outer loop
      vertex 16.806 16.5014 5.79555
      vertex 14.0315 20.6909 5.19615
      vertex 13.2193 19.4933 5.79555
    endloop
  endfacet
  facet normal 0.246165 0.295108 0.923208
    outer loop
      vertex 16.806 16.5014 5.79555
      vertex 17.8386 17.5152 5.19615
      vertex 14.0315 20.6909 5.19615
    endloop
  endfacet
  facet normal 0.0840163 0.10072 0.991361
    outer loop
      vertex 15.6979 15.4134 6
      vertex 13.2193 19.4933 5.79555
      vertex 12.3477 18.208 6
    endloop
  endfacet
  facet normal 0.0840175 0.100721 0.991361
    outer loop
      vertex 15.6979 15.4134 6
      vertex 16.806 16.5014 5.79555
      vertex 13.2193 19.4933 5.79555
    endloop
  endfacet
  facet normal -0.0840203 -0.100725 0.99136
    outer loop
      vertex 14.5899 14.3254 5.79555
      vertex 12.3477 18.208 6
      vertex 11.4761 16.9228 5.79555
    endloop
  endfacet
  facet normal -0.0840206 -0.100725 0.99136
    outer loop
      vertex 14.5899 14.3254 5.79555
      vertex 15.6979 15.4134 6
      vertex 12.3477 18.208 6
    endloop
  endfacet
  facet normal -0.246157 -0.295103 0.923212
    outer loop
      vertex 13.5573 13.3116 5.19615
      vertex 11.4761 16.9228 5.79555
      vertex 10.6639 15.7251 5.19615
    endloop
  endfacet
  facet normal -0.246166 -0.295107 0.923208
    outer loop
      vertex 13.5573 13.3116 5.19615
      vertex 14.5899 14.3254 5.79555
      vertex 11.4761 16.9228 5.79555
    endloop
  endfacet
  facet normal -0.391147 -0.468927 0.791904
    outer loop
      vertex 12.6706 12.441 4.24264
      vertex 10.6639 15.7251 5.19615
      vertex 9.96647 14.6966 4.24264
    endloop
  endfacet
  facet normal -0.391152 -0.468929 0.7919
    outer loop
      vertex 12.6706 12.441 4.24264
      vertex 13.5573 13.3116 5.19615
      vertex 10.6639 15.7251 5.19615
    endloop
  endfacet
  facet normal -0.509137 -0.61034 0.606848
    outer loop
      vertex 11.9902 11.7729 3
      vertex 9.96647 14.6966 4.24264
      vertex 9.4313 13.9075 3
    endloop
  endfacet
  facet normal -0.509095 -0.61033 0.606893
    outer loop
      vertex 11.9902 11.7729 3
      vertex 12.6706 12.441 4.24264
      vertex 9.96647 14.6966 4.24264
    endloop
  endfacet
  facet normal -0.592227 -0.709964 0.381075
    outer loop
      vertex 11.5625 11.353 1.55291
      vertex 9.4313 13.9075 3
      vertex 9.09488 13.4114 1.55291
    endloop
  endfacet
  facet normal -0.592242 -0.709964 0.381052
    outer loop
      vertex 11.5625 11.353 1.55291
      vertex 11.9902 11.7729 3
      vertex 9.4313 13.9075 3
    endloop
  endfacet
  facet normal -0.635136 -0.761401 0.129888
    outer loop
      vertex 11.4167 11.2097 0
      vertex 9.09488 13.4114 1.55291
      vertex 8.98014 13.2422 0
    endloop
  endfacet
  facet normal -0.635134 -0.761402 0.129893
    outer loop
      vertex 11.4167 11.2097 0
      vertex 11.5625 11.353 1.55291
      vertex 9.09488 13.4114 1.55291
    endloop
  endfacet
  facet normal 0.772893 0.621092 0.129929
    outer loop
      vertex 23.2861 15.1771 1.55291
      vertex 19.9792 19.6171 0
      vertex 19.8333 19.4738 1.55291
    endloop
  endfacet
  facet normal 0.772892 0.621092 0.129932
    outer loop
      vertex 23.2861 15.1771 1.55291
      vertex 23.4574 15.2888 0
      vertex 19.9792 19.6171 0
    endloop
  endfacet
  facet normal 0.720681 0.579151 0.381055
    outer loop
      vertex 22.784 14.8499 3
      vertex 19.8333 19.4738 1.55291
      vertex 19.4056 19.0539 3
    endloop
  endfacet
  facet normal 0.720702 0.579151 0.381015
    outer loop
      vertex 22.784 14.8499 3
      vertex 23.2861 15.1771 1.55291
      vertex 19.8333 19.4738 1.55291
    endloop
  endfacet
  facet normal 0.619524 0.497867 0.606893
    outer loop
      vertex 21.9852 14.3292 4.24264
      vertex 19.4056 19.0539 3
      vertex 18.7252 18.3858 4.24264
    endloop
  endfacet
  facet normal 0.619538 0.49787 0.606876
    outer loop
      vertex 21.9852 14.3292 4.24264
      vertex 22.784 14.8499 3
      vertex 19.4056 19.0539 3
    endloop
  endfacet
  facet normal 0.47602 0.382528 0.791882
    outer loop
      vertex 20.9441 13.6507 5.19615
      vertex 18.7252 18.3858 4.24264
      vertex 17.8386 17.5152 5.19615
    endloop
  endfacet
  facet normal 0.475989 0.382518 0.791906
    outer loop
      vertex 20.9441 13.6507 5.19615
      vertex 21.9852 14.3292 4.24264
      vertex 18.7252 18.3858 4.24264
    endloop
  endfacet
  facet normal 0.29956 0.240724 0.923209
    outer loop
      vertex 19.7318 12.8605 5.79555
      vertex 17.8386 17.5152 5.19615
      vertex 16.806 16.5014 5.79555
    endloop
  endfacet
  facet normal 0.299557 0.240723 0.923211
    outer loop
      vertex 19.7318 12.8605 5.79555
      vertex 20.9441 13.6507 5.19615
      vertex 17.8386 17.5152 5.19615
    endloop
  endfacet
  facet normal 0.10224 0.0821609 0.991361
    outer loop
      vertex 18.4308 12.0126 6
      vertex 16.806 16.5014 5.79555
      vertex 15.6979 15.4134 6
    endloop
  endfacet
  facet normal 0.102243 0.082162 0.991361
    outer loop
      vertex 18.4308 12.0126 6
      vertex 19.7318 12.8605 5.79555
      vertex 16.806 16.5014 5.79555
    endloop
  endfacet
  facet normal -0.102246 -0.082164 0.99136
    outer loop
      vertex 17.1298 11.1647 5.79555
      vertex 15.6979 15.4134 6
      vertex 14.5899 14.3254 5.79555
    endloop
  endfacet
  facet normal -0.102243 -0.0821628 0.991361
    outer loop
      vertex 17.1298 11.1647 5.79555
      vertex 18.4308 12.0126 6
      vertex 15.6979 15.4134 6
    endloop
  endfacet
  facet normal -0.299562 -0.240722 0.923209
    outer loop
      vertex 15.9175 10.3745 5.19615
      vertex 14.5899 14.3254 5.79555
      vertex 13.5573 13.3116 5.19615
    endloop
  endfacet
  facet normal -0.299558 -0.240721 0.923211
    outer loop
      vertex 15.9175 10.3745 5.19615
      vertex 17.1298 11.1647 5.79555
      vertex 14.5899 14.3254 5.79555
    endloop
  endfacet
  facet normal -0.475998 -0.382515 0.791901
    outer loop
      vertex 14.8765 9.696 4.24264
      vertex 13.5573 13.3116 5.19615
      vertex 12.6706 12.441 4.24264
    endloop
  endfacet
  facet normal -0.476017 -0.382519 0.791888
    outer loop
      vertex 14.8765 9.696 4.24264
      vertex 15.9175 10.3745 5.19615
      vertex 13.5573 13.3116 5.19615
    endloop
  endfacet
  facet normal -0.619519 -0.497873 0.606893
    outer loop
      vertex 14.0777 9.17536 3
      vertex 12.6706 12.441 4.24264
      vertex 11.9902 11.7729 3
    endloop
  endfacet
  facet normal -0.61955 -0.497874 0.606861
    outer loop
      vertex 14.0777 9.17536 3
      vertex 14.8765 9.696 4.24264
      vertex 12.6706 12.441 4.24264
    endloop
  endfacet
  facet normal -0.720681 -0.579151 0.381055
    outer loop
      vertex 13.5755 8.84807 1.55291
      vertex 11.9902 11.7729 3
      vertex 11.5625 11.353 1.55291
    endloop
  endfacet
  facet normal -0.720661 -0.579155 0.381087
    outer loop
      vertex 13.5755 8.84807 1.55291
      vertex 14.0777 9.17536 3
      vertex 11.9902 11.7729 3
    endloop
  endfacet
  facet normal -0.772899 -0.621095 0.12988
    outer loop
      vertex 13.4042 8.73643 0
      vertex 11.5625 11.353 1.55291
      vertex 11.4167 11.2097 0
    endloop
  endfacet
  facet normal -0.772887 -0.621104 0.129908
    outer loop
      vertex 13.4042 8.73643 0
      vertex 13.5755 8.84807 1.55291
      vertex 11.5625 11.353 1.55291
    endloop
  endfacet
  facet normal 0.880249 0.456377 0.129926
    outer loop
      vertex 25.8232 10.2836 1.55291
      vertex 23.4574 15.2888 0
      vertex 23.2861 15.1771 1.55291
    endloop
  endfacet
  facet normal 0.880266 0.456365 0.129862
    outer loop
      vertex 25.8232 10.2836 1.55291
      vertex 26.0131 10.3592 0
      vertex 23.4574 15.2888 0
    endloop
  endfacet
  facet normal 0.820818 0.425538 0.381019
    outer loop
      vertex 25.2663 10.0618 3
      vertex 23.2861 15.1771 1.55291
      vertex 22.784 14.8499 3
    endloop
  endfacet
  facet normal 0.82078 0.425544 0.381094
    outer loop
      vertex 25.2663 10.0618 3
      vertex 25.8232 10.2836 1.55291
      vertex 23.2861 15.1771 1.55291
    endloop
  endfacet
  facet normal 0.705608 0.365821 0.606871
    outer loop
      vertex 24.3805 9.70907 4.24264
      vertex 22.784 14.8499 3
      vertex 21.9852 14.3292 4.24264
    endloop
  endfacet
  facet normal 0.705633 0.365822 0.606842
    outer loop
      vertex 24.3805 9.70907 4.24264
      vertex 25.2663 10.0618 3
      vertex 22.784 14.8499 3
    endloop
  endfacet
  facet normal 0.542113 0.28106 0.791909
    outer loop
      vertex 23.226 9.24933 5.19615
      vertex 21.9852 14.3292 4.24264
      vertex 20.9441 13.6507 5.19615
    endloop
  endfacet
  facet normal 0.542118 0.28106 0.791905
    outer loop
      vertex 23.226 9.24933 5.19615
      vertex 24.3805 9.70907 4.24264
      vertex 21.9852 14.3292 4.24264
    endloop
  endfacet
  facet normal 0.34117 0.176881 0.92321
    outer loop
      vertex 21.8816 8.71394 5.79555
      vertex 20.9441 13.6507 5.19615
      vertex 19.7318 12.8605 5.79555
    endloop
  endfacet
  facet normal 0.341172 0.176881 0.923209
    outer loop
      vertex 21.8816 8.71394 5.79555
      vertex 23.226 9.24933 5.19615
      vertex 20.9441 13.6507 5.19615
    endloop
  endfacet
  facet normal 0.116445 0.0603719 0.991361
    outer loop
      vertex 20.4389 8.1394 6
      vertex 19.7318 12.8605 5.79555
      vertex 18.4308 12.0126 6
    endloop
  endfacet
  facet normal 0.116447 0.0603722 0.99136
    outer loop
      vertex 20.4389 8.1394 6
      vertex 21.8816 8.71394 5.79555
      vertex 19.7318 12.8605 5.79555
    endloop
  endfacet
  facet normal -0.116444 -0.0603726 0.991361
    outer loop
      vertex 18.9962 7.56487 5.79555
      vertex 18.4308 12.0126 6
      vertex 17.1298 11.1647 5.79555
    endloop
  endfacet
  facet normal -0.116447 -0.0603729 0.99136
    outer loop
      vertex 18.9962 7.56487 5.79555
      vertex 20.4389 8.1394 6
      vertex 18.4308 12.0126 6
    endloop
  endfacet
  facet normal -0.341167 -0.176886 0.92321
    outer loop
      vertex 17.6518 7.02948 5.19615
      vertex 17.1298 11.1647 5.79555
      vertex 15.9175 10.3745 5.19615
    endloop
  endfacet
  facet normal -0.34117 -0.176886 0.923209
    outer loop
      vertex 17.6518 7.02948 5.19615
      vertex 18.9962 7.56487 5.79555
      vertex 17.1298 11.1647 5.79555
    endloop
  endfacet
  facet normal -0.542139 -0.28107 0.791887
    outer loop
      vertex 16.4973 6.56974 4.24264
      vertex 15.9175 10.3745 5.19615
      vertex 14.8765 9.696 4.24264
    endloop
  endfacet
  facet normal -0.542113 -0.281071 0.791905
    outer loop
      vertex 16.4973 6.56974 4.24264
      vertex 17.6518 7.02948 5.19615
      vertex 15.9175 10.3745 5.19615
    endloop
  endfacet
  facet normal -0.705623 -0.365811 0.606859
    outer loop
      vertex 15.6114 6.21696 3
      vertex 14.8765 9.696 4.24264
      vertex 14.0777 9.17536 3
    endloop
  endfacet
  facet normal -0.705598 -0.365815 0.606886
    outer loop
      vertex 15.6114 6.21696 3
      vertex 16.4973 6.56974 4.24264
      vertex 14.8765 9.696 4.24264
    endloop
  endfacet
  facet normal -0.820782 -0.425543 0.381091
    outer loop
      vertex 15.0546 5.9952 1.55291
      vertex 14.0777 9.17536 3
      vertex 13.5755 8.84807 1.55291
    endloop
  endfacet
  facet normal -0.820815 -0.425528 0.381037
    outer loop
      vertex 15.0546 5.9952 1.55291
      vertex 15.6114 6.21696 3
      vertex 14.0777 9.17536 3
    endloop
  endfacet
  facet normal -0.880257 -0.456367 0.129909
    outer loop
      vertex 14.8646 5.91956 0
      vertex 13.5755 8.84807 1.55291
      vertex 13.4042 8.73643 0
    endloop
  endfacet
  facet normal -0.88025 -0.456375 0.129929
    outer loop
      vertex 14.8646 5.91956 0
      vertex 15.0546 5.9952 1.55291
      vertex 13.5755 8.84807 1.55291
    endloop
  endfacet
  facet normal 0.95301 0.273692 0.129864
    outer loop
      vertex 27.3447 4.98565 1.55291
      vertex 26.0131 10.3592 0
      vertex 25.8232 10.2836 1.55291
    endloop
  endfacet
  facet normal 0.953008 0.273695 0.129876
    outer loop
      vertex 27.3447 4.98565 1.55291
      vertex 27.5458 5.02232 0
      vertex 26.0131 10.3592 0
    endloop
  endfacet
  facet normal 0.888617 0.255202 0.381092
    outer loop
      vertex 26.755 4.87813 3
      vertex 25.8232 10.2836 1.55291
      vertex 25.2663 10.0618 3
    endloop
  endfacet
  facet normal 0.888622 0.2552 0.381082
    outer loop
      vertex 26.755 4.87813 3
      vertex 27.3447 4.98565 1.55291
      vertex 25.8232 10.2836 1.55291
    endloop
  endfacet
  facet normal 0.763942 0.219394 0.606843
    outer loop
      vertex 25.817 4.7071 4.24264
      vertex 25.2663 10.0618 3
      vertex 24.3805 9.70907 4.24264
    endloop
  endfacet
  facet normal 0.763937 0.219395 0.60685
    outer loop
      vertex 25.817 4.7071 4.24264
      vertex 26.755 4.87813 3
      vertex 25.2663 10.0618 3
    endloop
  endfacet
  facet normal 0.586919 0.168558 0.791906
    outer loop
      vertex 24.5945 4.48421 5.19615
      vertex 24.3805 9.70907 4.24264
      vertex 23.226 9.24933 5.19615
    endloop
  endfacet
  facet normal 0.586925 0.168557 0.791901
    outer loop
      vertex 24.5945 4.48421 5.19615
      vertex 25.817 4.7071 4.24264
      vertex 24.3805 9.70907 4.24264
    endloop
  endfacet
  facet normal 0.369367 0.10608 0.923209
    outer loop
      vertex 23.1709 4.22465 5.79555
      vertex 23.226 9.24933 5.19615
      vertex 21.8816 8.71394 5.79555
    endloop
  endfacet
  facet normal 0.369371 0.10608 0.923208
    outer loop
      vertex 24.5945 4.48421 5.19615
      vertex 23.226 9.24933 5.19615
      vertex 23.1709 4.22465 5.79555
    endloop
  endfacet
  facet normal 0.12607 0.0362069 0.99136
    outer loop
      vertex 21.6432 3.94611 6
      vertex 21.8816 8.71394 5.79555
      vertex 20.4389 8.1394 6
    endloop
  endfacet
  facet normal 0.126071 0.0362069 0.99136
    outer loop
      vertex 23.1709 4.22465 5.79555
      vertex 21.8816 8.71394 5.79555
      vertex 21.6432 3.94611 6
    endloop
  endfacet
  facet normal -0.126071 -0.0362042 0.99136
    outer loop
      vertex 20.1154 3.66756 5.79555
      vertex 20.4389 8.1394 6
      vertex 18.9962 7.56487 5.79555
    endloop
  endfacet
  facet normal -0.126063 -0.0362049 0.991361
    outer loop
      vertex 21.6432 3.94611 6
      vertex 20.4389 8.1394 6
      vertex 20.1154 3.66756 5.79555
    endloop
  endfacet
  facet normal -0.36937 -0.106074 0.923209
    outer loop
      vertex 18.6918 3.408 5.19615
      vertex 18.9962 7.56487 5.79555
      vertex 17.6518 7.02948 5.19615
    endloop
  endfacet
  facet normal -0.369372 -0.106074 0.923208
    outer loop
      vertex 20.1154 3.66756 5.79555
      vertex 18.9962 7.56487 5.79555
      vertex 18.6918 3.408 5.19615
    endloop
  endfacet
  facet normal -0.586921 -0.168552 0.791906
    outer loop
      vertex 17.4693 3.18511 4.24264
      vertex 17.6518 7.02948 5.19615
      vertex 16.4973 6.56974 4.24264
    endloop
  endfacet
  facet normal -0.586926 -0.168551 0.791901
    outer loop
      vertex 18.6918 3.408 5.19615
      vertex 17.6518 7.02948 5.19615
      vertex 17.4693 3.18511 4.24264
    endloop
  endfacet
  facet normal -0.763904 -0.219401 0.606888
    outer loop
      vertex 16.5313 3.01408 3
      vertex 16.4973 6.56974 4.24264
      vertex 15.6114 6.21696 3
    endloop
  endfacet
  facet normal -0.763938 -0.219388 0.60685
    outer loop
      vertex 16.5313 3.01408 3
      vertex 17.4693 3.18511 4.24264
      vertex 16.4973 6.56974 4.24264
    endloop
  endfacet
  facet normal -0.888643 -0.255202 0.381033
    outer loop
      vertex 15.9416 2.90656 1.55291
      vertex 15.6114 6.21696 3
      vertex 15.0546 5.9952 1.55291
    endloop
  endfacet
  facet normal -0.888617 -0.25522 0.381081
    outer loop
      vertex 15.9416 2.90656 1.55291
      vertex 16.5313 3.01408 3
      vertex 15.6114 6.21696 3
    endloop
  endfacet
  facet normal -0.952995 -0.273711 0.129932
    outer loop
      vertex 15.7405 2.86989 0
      vertex 15.0546 5.9952 1.55291
      vertex 14.8646 5.91956 0
    endloop
  endfacet
  facet normal -0.95301 -0.273687 0.129876
    outer loop
      vertex 15.7405 2.86989 0
      vertex 15.9416 2.90656 1.55291
      vertex 15.0546 5.9952 1.55291
    endloop
  endfacet
  facet normal 0.988276 0.0802633 0.129876
    outer loop
      vertex 27.7909 -0.50838 1.55291
      vertex 27.5458 5.02232 0
      vertex 27.3447 4.98565 1.55291
    endloop
  endfacet
  facet normal 0.988275 0.0802664 0.129887
    outer loop
      vertex 27.7909 -0.50838 1.55291
      vertex 27.9953 -0.512119 0
      vertex 27.5458 5.02232 0
    endloop
  endfacet
  facet normal 0.921507 0.0748445 0.381082
    outer loop
      vertex 27.1916 -0.497417 3
      vertex 27.3447 4.98565 1.55291
      vertex 26.755 4.87813 3
    endloop
  endfacet
  facet normal 0.921512 0.074841 0.381069
    outer loop
      vertex 27.7909 -0.50838 1.55291
      vertex 27.3447 4.98565 1.55291
      vertex 27.1916 -0.497417 3
    endloop
  endfacet
  facet normal 0.79221 0.0643288 0.606849
    outer loop
      vertex 26.2382 -0.479978 4.24264
      vertex 26.755 4.87813 3
      vertex 25.817 4.7071 4.24264
    endloop
  endfacet
  facet normal 0.79218 0.0643405 0.606887
    outer loop
      vertex 27.1916 -0.497417 3
      vertex 26.755 4.87813 3
      vertex 26.2382 -0.479978 4.24264
    endloop
  endfacet
  facet normal 0.608645 0.0494286 0.791901
    outer loop
      vertex 24.9958 -0.45725 5.19615
      vertex 25.817 4.7071 4.24264
      vertex 24.5945 4.48421 5.19615
    endloop
  endfacet
  facet normal 0.60866 0.0494243 0.791891
    outer loop
      vertex 26.2382 -0.479978 4.24264
      vertex 25.817 4.7071 4.24264
      vertex 24.9958 -0.45725 5.19615
    endloop
  endfacet
  facet normal 0.383042 0.0311012 0.923207
    outer loop
      vertex 23.5489 -0.430782 5.79555
      vertex 24.5945 4.48421 5.19615
      vertex 23.1709 4.22465 5.79555
    endloop
  endfacet
  facet normal 0.383024 0.0311057 0.923214
    outer loop
      vertex 24.9958 -0.45725 5.19615
      vertex 24.5945 4.48421 5.19615
      vertex 23.5489 -0.430782 5.79555
    endloop
  endfacet
  facet normal 0.130737 0.0106159 0.99136
    outer loop
      vertex 21.9963 -0.402379 6
      vertex 23.1709 4.22465 5.79555
      vertex 21.6432 3.94611 6
    endloop
  endfacet
  facet normal 0.130739 0.0106154 0.99136
    outer loop
      vertex 23.5489 -0.430782 5.79555
      vertex 23.1709 4.22465 5.79555
      vertex 21.9963 -0.402379 6
    endloop
  endfacet
  facet normal -0.130728 -0.010616 0.991361
    outer loop
      vertex 20.4436 -0.373977 5.79555
      vertex 21.6432 3.94611 6
      vertex 20.1154 3.66756 5.79555
    endloop
  endfacet
  facet normal -0.130731 -0.0106154 0.991361
    outer loop
      vertex 21.9963 -0.402379 6
      vertex 21.6432 3.94611 6
      vertex 20.4436 -0.373977 5.79555
    endloop
  endfacet
  facet normal -0.38304 -0.0311082 0.923208
    outer loop
      vertex 18.9968 -0.347509 5.19615
      vertex 20.1154 3.66756 5.79555
      vertex 18.6918 3.408 5.19615
    endloop
  endfacet
  facet normal -0.383047 -0.031106 0.923205
    outer loop
      vertex 20.4436 -0.373977 5.79555
      vertex 20.1154 3.66756 5.79555
      vertex 18.9968 -0.347509 5.19615
    endloop
  endfacet
  facet normal -0.608646 -0.0494215 0.791901
    outer loop
      vertex 17.7543 -0.324781 4.24264
      vertex 18.6918 3.408 5.19615
      vertex 17.4693 3.18511 4.24264
    endloop
  endfacet
  facet normal -0.608629 -0.0494292 0.791914
    outer loop
      vertex 18.9968 -0.347509 5.19615
      vertex 18.6918 3.408 5.19615
      vertex 17.7543 -0.324781 4.24264
    endloop
  endfacet
  facet normal -0.79221 -0.0643276 0.606849
    outer loop
      vertex 16.801 -0.307342 3
      vertex 17.4693 3.18511 4.24264
      vertex 16.5313 3.01408 3
    endloop
  endfacet
  facet normal -0.792211 -0.0643268 0.606847
    outer loop
      vertex 17.7543 -0.324781 4.24264
      vertex 17.4693 3.18511 4.24264
      vertex 16.801 -0.307342 3
    endloop
  endfacet
  facet normal -0.921508 -0.0748326 0.381082
    outer loop
      vertex 16.2017 -0.296378 1.55291
      vertex 16.5313 3.01408 3
      vertex 15.9416 2.90656 1.55291
    endloop
  endfacet
  facet normal -0.921513 -0.074827 0.38107
    outer loop
      vertex 16.801 -0.307342 3
      vertex 16.5313 3.01408 3
      vertex 16.2017 -0.296378 1.55291
    endloop
  endfacet
  facet normal -0.988277 -0.080249 0.129876
    outer loop
      vertex 15.9973 -0.292639 0
      vertex 15.9416 2.90656 1.55291
      vertex 15.7405 2.86989 0
    endloop
  endfacet
  facet normal -0.988276 -0.0802546 0.129887
    outer loop
      vertex 15.9973 -0.292639 0
      vertex 16.2017 -0.296378 1.55291
      vertex 15.9416 2.90656 1.55291
    endloop
  endfacet
  facet normal -0.0832202 -0.988023 -0.12994
    outer loop
      vertex 4.9496 26.3691 1.2941
      vertex 5.9477e-15 26.786 1.2941
      vertex 5.98218e-15 26.9414 0.112491
    endloop
  endfacet
  facet normal -0.0832394 -0.988128 -0.129126
    outer loop
      vertex 4.98104 26.5365 0
      vertex 5.98218e-15 26.9414 0.112491
      vertex 5.98547e-15 26.9561 0
    endloop
  endfacet
  facet normal -0.0832477 -0.988035 -0.129831
    outer loop
      vertex 5.98218e-15 26.9414 0.112491
      vertex 4.98104 26.5365 0
      vertex 4.9496 26.3691 1.2941
    endloop
  endfacet
  facet normal -0.0776327 -0.921324 -0.380967
    outer loop
      vertex 4.85746 25.8781 2.5
      vertex 5.83697e-15 26.2874 2.5
      vertex 5.93796e-15 26.7422 1.40012
    endloop
  endfacet
  facet normal -0.0776125 -0.921445 -0.380676
    outer loop
      vertex 4.9496 26.3691 1.2941
      vertex 5.93796e-15 26.7422 1.40012
      vertex 5.9477e-15 26.786 1.2941
    endloop
  endfacet
  facet normal -0.0776089 -0.921292 -0.381048
    outer loop
      vertex 5.93796e-15 26.7422 1.40012
      vertex 4.9496 26.3691 1.2941
      vertex 4.85746 25.8781 2.5
    endloop
  endfacet
  facet normal -0.0667326 -0.79206 -0.606784
    outer loop
      vertex 4.71087 25.0972 3.53553
      vertex 5.66082e-15 25.4941 3.53553
      vertex 5.82131e-15 26.2169 2.59203
    endloop
  endfacet
  facet normal -0.0667416 -0.792071 -0.60677
    outer loop
      vertex 4.85746 25.8781 2.5
      vertex 5.82131e-15 26.2169 2.59203
      vertex 5.83697e-15 26.2874 2.5
    endloop
  endfacet
  facet normal -0.0667419 -0.792078 -0.60676
    outer loop
      vertex 5.82131e-15 26.2169 2.59203
      vertex 4.85746 25.8781 2.5
      vertex 4.71087 25.0972 3.53553
    endloop
  endfacet
  facet normal -0.0512725 -0.608569 -0.791843
    outer loop
      vertex 4.51983 24.0794 4.33013
      vertex 5.43125e-15 24.4602 4.33013
      vertex 5.64021e-15 25.4013 3.60685
    endloop
  endfacet
  facet normal -0.051273 -0.60857 -0.791842
    outer loop
      vertex 5.64021e-15 25.4013 3.60685
      vertex 4.71087 25.0972 3.53553
      vertex 4.51983 24.0794 4.33013
    endloop
  endfacet
  facet normal -0.0512726 -0.608562 -0.791848
    outer loop
      vertex 4.71087 25.0972 3.53553
      vertex 5.64021e-15 25.4013 3.60685
      vertex 5.66082e-15 25.4941 3.53553
    endloop
  endfacet
  facet normal -0.0322642 -0.383014 -0.923179
    outer loop
      vertex 4.29736 22.8942 4.82963
      vertex 5.16392e-15 23.2562 4.82963
      vertex 5.40706e-15 24.3512 4.37533
    endloop
  endfacet
  facet normal -0.0322648 -0.383015 -0.923178
    outer loop
      vertex 5.40706e-15 24.3512 4.37533
      vertex 4.51983 24.0794 4.33013
      vertex 4.29736 22.8942 4.82963
    endloop
  endfacet
  facet normal -0.0322556 -0.382851 -0.923247
    outer loop
      vertex 4.51983 24.0794 4.33013
      vertex 5.40706e-15 24.3512 4.37533
      vertex 5.43125e-15 24.4602 4.33013
    endloop
  endfacet
  facet normal -0.0110163 -0.130734 -0.991356
    outer loop
      vertex 4.05862 21.6223 5
      vertex 4.87704e-15 21.9643 5
      vertex 5.1378e-15 23.1386 4.84514
    endloop
  endfacet
  facet normal -0.0110126 -0.130724 -0.991358
    outer loop
      vertex 5.1378e-15 23.1386 4.84514
      vertex 4.29736 22.8942 4.82963
      vertex 4.05862 21.6223 5
    endloop
  endfacet
  facet normal -0.0110139 -0.130748 -0.991355
    outer loop
      vertex 4.29736 22.8942 4.82963
      vertex 5.1378e-15 23.1386 4.84514
      vertex 5.16392e-15 23.2562 4.82963
    endloop
  endfacet
  facet normal 0.0110128 0.130726 -0.991357
    outer loop
      vertex 3.81988 20.3505 4.82963
      vertex 4.59016e-15 20.6723 4.82963
      vertex 4.85084e-15 21.8463 4.98444
    endloop
  endfacet
  facet normal 0.011016 0.130734 -0.991356
    outer loop
      vertex 4.85084e-15 21.8463 4.98444
      vertex 4.05862 21.6223 5
      vertex 3.81988 20.3505 4.82963
    endloop
  endfacet
  facet normal 0.0110155 0.130725 -0.991358
    outer loop
      vertex 4.05862 21.6223 5
      vertex 4.85084e-15 21.8463 4.98444
      vertex 4.87704e-15 21.9643 5
    endloop
  endfacet
  facet normal 0.0322692 0.382995 -0.923187
    outer loop
      vertex 3.59741 19.1652 4.33013
      vertex 4.32283e-15 19.4683 4.33013
      vertex 4.56576e-15 20.5624 4.78403
    endloop
  endfacet
  facet normal 0.0322661 0.382988 -0.92319
    outer loop
      vertex 4.56576e-15 20.5624 4.78403
      vertex 3.81988 20.3505 4.82963
      vertex 3.59741 19.1652 4.33013
    endloop
  endfacet
  facet normal 0.0322689 0.383043 -0.923167
    outer loop
      vertex 3.81988 20.3505 4.82963
      vertex 4.56576e-15 20.5624 4.78403
      vertex 4.59016e-15 20.6723 4.82963
    endloop
  endfacet
  facet normal 0.0512771 0.608602 -0.791817
    outer loop
      vertex 3.40637 18.1475 3.53553
      vertex 4.09327e-15 18.4345 3.53553
      vertex 4.30198e-15 19.3744 4.25795
    endloop
  endfacet
  facet normal 0.0512795 0.608606 -0.791814
    outer loop
      vertex 4.30198e-15 19.3744 4.25795
      vertex 3.59741 19.1652 4.33013
      vertex 3.40637 18.1475 3.53553
    endloop
  endfacet
  facet normal 0.051281 0.60864 -0.791788
    outer loop
      vertex 3.59741 19.1652 4.33013
      vertex 4.30198e-15 19.3744 4.25795
      vertex 4.32283e-15 19.4683 4.33013
    endloop
  endfacet
  facet normal 0.0667476 0.792073 -0.606766
    outer loop
      vertex 3.25978 17.3665 2.5
      vertex 3.91712e-15 17.6412 2.5
      vertex 4.07742e-15 18.3631 3.44237
    endloop
  endfacet
  facet normal 0.0667233 0.791931 -0.606954
    outer loop
      vertex 3.40637 18.1475 3.53553
      vertex 4.07742e-15 18.3631 3.44237
      vertex 4.09327e-15 18.4345 3.53553
    endloop
  endfacet
  facet normal 0.0667264 0.792043 -0.606807
    outer loop
      vertex 4.07742e-15 18.3631 3.44237
      vertex 3.40637 18.1475 3.53553
      vertex 3.25978 17.3665 2.5
    endloop
  endfacet
  facet normal 0.0776295 0.921325 -0.380965
    outer loop
      vertex 3.16763 16.8756 1.2941
      vertex 3.80639e-15 17.1425 1.2941
      vertex 3.9073e-15 17.5969 2.39302
    endloop
  endfacet
  facet normal 0.0776232 0.92113 -0.381436
    outer loop
      vertex 3.25978 17.3665 2.5
      vertex 3.9073e-15 17.5969 2.39302
      vertex 3.91712e-15 17.6412 2.5
    endloop
  endfacet
  facet normal 0.0776216 0.921318 -0.380983
    outer loop
      vertex 3.9073e-15 17.5969 2.39302
      vertex 3.25978 17.3665 2.5
      vertex 3.16763 16.8756 1.2941
    endloop
  endfacet
  facet normal 0.0832344 0.988038 -0.129817
    outer loop
      vertex 3.1362 16.7082 0
      vertex 3.76862e-15 16.9724 0
      vertex 3.8031e-15 17.1276 1.18123
    endloop
  endfacet
  facet normal 0.0832439 0.987958 -0.130421
    outer loop
      vertex 3.16763 16.8756 1.2941
      vertex 3.8031e-15 17.1276 1.18123
      vertex 3.80639e-15 17.1425 1.2941
    endloop
  endfacet
  facet normal 0.0832292 0.988037 -0.12983
    outer loop
      vertex 3.8031e-15 17.1276 1.18123
      vertex 3.16763 16.8756 1.2941
      vertex 3.1362 16.7082 0
    endloop
  endfacet
  facet normal -0.280734 -0.950964 -0.129834
    outer loop
      vertex 10.1642 24.8297 1.2941
      vertex 4.9496 26.3691 1.2941
      vertex 4.98104 26.5365 0
    endloop
  endfacet
  facet normal -0.280722 -0.950961 -0.129876
    outer loop
      vertex 10.1642 24.8297 1.2941
      vertex 4.98104 26.5365 0
      vertex 10.2287 24.9874 0
    endloop
  endfacet
  facet normal -0.261749 -0.886731 -0.381045
    outer loop
      vertex 9.97495 24.3675 2.5
      vertex 4.85746 25.8781 2.5
      vertex 4.9496 26.3691 1.2941
    endloop
  endfacet
  facet normal -0.26178 -0.886758 -0.380961
    outer loop
      vertex 9.97495 24.3675 2.5
      vertex 4.9496 26.3691 1.2941
      vertex 10.1642 24.8297 1.2941
    endloop
  endfacet
  facet normal -0.22505 -0.762361 -0.60676
    outer loop
      vertex 9.67393 23.6321 3.53553
      vertex 4.71087 25.0972 3.53553
      vertex 4.85746 25.8781 2.5
    endloop
  endfacet
  facet normal -0.225029 -0.762336 -0.6068
    outer loop
      vertex 9.67393 23.6321 3.53553
      vertex 4.85746 25.8781 2.5
      vertex 9.97495 24.3675 2.5
    endloop
  endfacet
  facet normal -0.172901 -0.58574 -0.791842
    outer loop
      vertex 9.28162 22.6738 4.33013
      vertex 4.51983 24.0794 4.33013
      vertex 4.71087 25.0972 3.53553
    endloop
  endfacet
  facet normal -0.172919 -0.585767 -0.791818
    outer loop
      vertex 9.28162 22.6738 4.33013
      vertex 4.71087 25.0972 3.53553
      vertex 9.67393 23.6321 3.53553
    endloop
  endfacet
  facet normal -0.108825 -0.368644 -0.923178
    outer loop
      vertex 8.82477 21.5577 4.82963
      vertex 4.29736 22.8942 4.82963
      vertex 4.51983 24.0794 4.33013
    endloop
  endfacet
  facet normal -0.108812 -0.368624 -0.923188
    outer loop
      vertex 8.82477 21.5577 4.82963
      vertex 4.51983 24.0794 4.33013
      vertex 9.28162 22.6738 4.33013
    endloop
  endfacet
  facet normal -0.0371408 -0.12582 -0.991358
    outer loop
      vertex 8.33451 20.3601 5
      vertex 4.05862 21.6223 5
      vertex 4.29736 22.8942 4.82963
    endloop
  endfacet
  facet normal -0.0371436 -0.125825 -0.991357
    outer loop
      vertex 8.33451 20.3601 5
      vertex 4.29736 22.8942 4.82963
      vertex 8.82477 21.5577 4.82963
    endloop
  endfacet
  facet normal 0.0371448 0.125829 -0.991356
    outer loop
      vertex 7.84426 19.1625 4.82963
      vertex 3.81988 20.3505 4.82963
      vertex 4.05862 21.6223 5
    endloop
  endfacet
  facet normal 0.0371424 0.125825 -0.991357
    outer loop
      vertex 7.84426 19.1625 4.82963
      vertex 4.05862 21.6223 5
      vertex 8.33451 20.3601 5
    endloop
  endfacet
  facet normal 0.108816 0.36862 -0.923189
    outer loop
      vertex 7.38741 18.0464 4.33013
      vertex 3.59741 19.1652 4.33013
      vertex 3.81988 20.3505 4.82963
    endloop
  endfacet
  facet normal 0.108818 0.368622 -0.923188
    outer loop
      vertex 7.38741 18.0464 4.33013
      vertex 3.81988 20.3505 4.82963
      vertex 7.84426 19.1625 4.82963
    endloop
  endfacet
  facet normal 0.172921 0.585772 -0.791814
    outer loop
      vertex 6.9951 17.0881 3.53553
      vertex 3.40637 18.1475 3.53553
      vertex 3.59741 19.1652 4.33013
    endloop
  endfacet
  facet normal 0.172917 0.585768 -0.791818
    outer loop
      vertex 6.9951 17.0881 3.53553
      vertex 3.59741 19.1652 4.33013
      vertex 7.38741 18.0464 4.33013
    endloop
  endfacet
  facet normal 0.225038 0.762328 -0.606807
    outer loop
      vertex 6.69408 16.3527 2.5
      vertex 3.25978 17.3665 2.5
      vertex 3.40637 18.1475 3.53553
    endloop
  endfacet
  facet normal 0.225042 0.762331 -0.606801
    outer loop
      vertex 6.69408 16.3527 2.5
      vertex 3.40637 18.1475 3.53553
      vertex 6.9951 17.0881 3.53553
    endloop
  endfacet
  facet normal 0.261757 0.886755 -0.380984
    outer loop
      vertex 6.50485 15.8905 1.2941
      vertex 3.16763 16.8756 1.2941
      vertex 3.25978 17.3665 2.5
    endloop
  endfacet
  facet normal 0.261771 0.886762 -0.380957
    outer loop
      vertex 6.50485 15.8905 1.2941
      vertex 3.25978 17.3665 2.5
      vertex 6.69408 16.3527 2.5
    endloop
  endfacet
  facet normal 0.280733 0.950964 -0.129831
    outer loop
      vertex 6.4403 15.7328 0
      vertex 3.1362 16.7082 0
      vertex 3.16763 16.8756 1.2941
    endloop
  endfacet
  facet normal 0.280711 0.950963 -0.129887
    outer loop
      vertex 6.4403 15.7328 0
      vertex 3.16763 16.8756 1.2941
      vertex 6.50485 15.8905 1.2941
    endloop
  endfacet
  facet normal -0.466681 -0.874839 -0.129869
    outer loop
      vertex 14.9613 22.2707 1.2941
      vertex 10.1642 24.8297 1.2941
      vertex 10.2287 24.9874 0
    endloop
  endfacet
  facet normal -0.466676 -0.874839 -0.129884
    outer loop
      vertex 14.9613 22.2707 1.2941
      vertex 10.2287 24.9874 0
      vertex 15.0564 22.4121 0
    endloop
  endfacet
  facet normal -0.435174 -0.815774 -0.380967
    outer loop
      vertex 14.6828 21.8561 2.5
      vertex 9.97495 24.3675 2.5
      vertex 10.1642 24.8297 1.2941
    endloop
  endfacet
  facet normal -0.435172 -0.815773 -0.380973
    outer loop
      vertex 14.6828 21.8561 2.5
      vertex 10.1642 24.8297 1.2941
      vertex 14.9613 22.2707 1.2941
    endloop
  endfacet
  facet normal -0.374112 -0.70131 -0.606799
    outer loop
      vertex 14.2397 21.1965 3.53553
      vertex 9.67393 23.6321 3.53553
      vertex 9.97495 24.3675 2.5
    endloop
  endfacet
  facet normal -0.374114 -0.701311 -0.606796
    outer loop
      vertex 14.2397 21.1965 3.53553
      vertex 9.97495 24.3675 2.5
      vertex 14.6828 21.8561 2.5
    endloop
  endfacet
  facet normal -0.287471 -0.538872 -0.791819
    outer loop
      vertex 13.6622 20.3369 4.33013
      vertex 9.28162 22.6738 4.33013
      vertex 9.67393 23.6321 3.53553
    endloop
  endfacet
  facet normal -0.287449 -0.538851 -0.791842
    outer loop
      vertex 13.6622 20.3369 4.33013
      vertex 9.67393 23.6321 3.53553
      vertex 14.2397 21.1965 3.53553
    endloop
  endfacet
  facet normal -0.180899 -0.339117 -0.923188
    outer loop
      vertex 12.9898 19.3359 4.82963
      vertex 8.82477 21.5577 4.82963
      vertex 9.28162 22.6738 4.33013
    endloop
  endfacet
  facet normal -0.180919 -0.339137 -0.923176
    outer loop
      vertex 12.9898 19.3359 4.82963
      vertex 9.28162 22.6738 4.33013
      vertex 13.6622 20.3369 4.33013
    endloop
  endfacet
  facet normal -0.0617487 -0.115752 -0.991357
    outer loop
      vertex 12.2681 18.2617 5
      vertex 8.33451 20.3601 5
      vertex 8.82477 21.5577 4.82963
    endloop
  endfacet
  facet normal -0.0617447 -0.115748 -0.991358
    outer loop
      vertex 12.2681 18.2617 5
      vertex 8.82477 21.5577 4.82963
      vertex 12.9898 19.3359 4.82963
    endloop
  endfacet
  facet normal 0.0617493 0.115752 -0.991357
    outer loop
      vertex 11.5465 17.1875 4.82963
      vertex 7.84426 19.1625 4.82963
      vertex 8.33451 20.3601 5
    endloop
  endfacet
  facet normal 0.0617483 0.115751 -0.991357
    outer loop
      vertex 11.5465 17.1875 4.82963
      vertex 8.33451 20.3601 5
      vertex 12.2681 18.2617 5
    endloop
  endfacet
  facet normal 0.1809 0.339117 -0.923188
    outer loop
      vertex 10.874 16.1865 4.33013
      vertex 7.38741 18.0464 4.33013
      vertex 7.84426 19.1625 4.82963
    endloop
  endfacet
  facet normal 0.180911 0.339127 -0.923181
    outer loop
      vertex 10.874 16.1865 4.33013
      vertex 7.84426 19.1625 4.82963
      vertex 11.5465 17.1875 4.82963
    endloop
  endfacet
  facet normal 0.287452 0.538881 -0.79182
    outer loop
      vertex 10.2966 15.327 3.53553
      vertex 6.9951 17.0881 3.53553
      vertex 7.38741 18.0464 4.33013
    endloop
  endfacet
  facet normal 0.287471 0.538896 -0.791803
    outer loop
      vertex 10.2966 15.327 3.53553
      vertex 7.38741 18.0464 4.33013
      vertex 10.874 16.1865 4.33013
    endloop
  endfacet
  facet normal 0.3741 0.701316 -0.606799
    outer loop
      vertex 9.85347 14.6674 2.5
      vertex 6.69408 16.3527 2.5
      vertex 6.9951 17.0881 3.53553
    endloop
  endfacet
  facet normal 0.374098 0.701315 -0.606802
    outer loop
      vertex 9.85347 14.6674 2.5
      vertex 6.9951 17.0881 3.53553
      vertex 10.2966 15.327 3.53553
    endloop
  endfacet
  facet normal 0.435191 0.815769 -0.38096
    outer loop
      vertex 9.57492 14.2527 1.2941
      vertex 6.50485 15.8905 1.2941
      vertex 6.69408 16.3527 2.5
    endloop
  endfacet
  facet normal 0.435144 0.815754 -0.381045
    outer loop
      vertex 9.57492 14.2527 1.2941
      vertex 6.69408 16.3527 2.5
      vertex 9.85347 14.6674 2.5
    endloop
  endfacet
  facet normal 0.466685 0.874834 -0.129886
    outer loop
      vertex 9.47992 14.1113 0
      vertex 6.4403 15.7328 0
      vertex 6.50485 15.8905 1.2941
    endloop
  endfacet
  facet normal 0.466699 0.874832 -0.129849
    outer loop
      vertex 9.47992 14.1113 0
      vertex 6.50485 15.8905 1.2941
      vertex 9.57492 14.2527 1.2941
    endloop
  endfacet
  facet normal -0.633461 -0.762794 -0.129898
    outer loop
      vertex 19.1441 18.7971 1.2941
      vertex 14.9613 22.2707 1.2941
      vertex 15.0564 22.4121 0
    endloop
  endfacet
  facet normal -0.633475 -0.762791 -0.129844
    outer loop
      vertex 19.1441 18.7971 1.2941
      vertex 15.0564 22.4121 0
      vertex 19.2657 18.9164 0
    endloop
  endfacet
  facet normal -0.590704 -0.711288 -0.38097
    outer loop
      vertex 18.7877 18.4471 2.5
      vertex 14.6828 21.8561 2.5
      vertex 14.9613 22.2707 1.2941
    endloop
  endfacet
  facet normal -0.590682 -0.711281 -0.381016
    outer loop
      vertex 18.7877 18.4471 2.5
      vertex 14.9613 22.2707 1.2941
      vertex 19.1441 18.7971 1.2941
    endloop
  endfacet
  facet normal -0.507822 -0.611488 -0.606794
    outer loop
      vertex 18.2207 17.8904 3.53553
      vertex 14.2397 21.1965 3.53553
      vertex 14.6828 21.8561 2.5
    endloop
  endfacet
  facet normal -0.507824 -0.611489 -0.606792
    outer loop
      vertex 18.2207 17.8904 3.53553
      vertex 14.6828 21.8561 2.5
      vertex 18.7877 18.4471 2.5
    endloop
  endfacet
  facet normal -0.390177 -0.469836 -0.791843
    outer loop
      vertex 17.4818 17.1649 4.33013
      vertex 13.6622 20.3369 4.33013
      vertex 14.2397 21.1965 3.53553
    endloop
  endfacet
  facet normal -0.390193 -0.469847 -0.791829
    outer loop
      vertex 17.4818 17.1649 4.33013
      vertex 14.2397 21.1965 3.53553
      vertex 18.2207 17.8904 3.53553
    endloop
  endfacet
  facet normal -0.245572 -0.295707 -0.923175
    outer loop
      vertex 16.6213 16.3201 4.82963
      vertex 12.9898 19.3359 4.82963
      vertex 13.6622 20.3369 4.33013
    endloop
  endfacet
  facet normal -0.24557 -0.295706 -0.923175
    outer loop
      vertex 16.6213 16.3201 4.82963
      vertex 13.6622 20.3369 4.33013
      vertex 17.4818 17.1649 4.33013
    endloop
  endfacet
  facet normal -0.0838116 -0.100922 -0.991358
    outer loop
      vertex 15.6979 15.4134 5
      vertex 12.2681 18.2617 5
      vertex 12.9898 19.3359 4.82963
    endloop
  endfacet
  facet normal -0.0838114 -0.100922 -0.991358
    outer loop
      vertex 15.6979 15.4134 5
      vertex 12.9898 19.3359 4.82963
      vertex 16.6213 16.3201 4.82963
    endloop
  endfacet
  facet normal 0.0838174 0.100926 -0.991357
    outer loop
      vertex 14.7745 14.5067 4.82963
      vertex 11.5465 17.1875 4.82963
      vertex 12.2681 18.2617 5
    endloop
  endfacet
  facet normal 0.0838115 0.100922 -0.991358
    outer loop
      vertex 14.7745 14.5067 4.82963
      vertex 12.2681 18.2617 5
      vertex 15.6979 15.4134 5
    endloop
  endfacet
  facet normal 0.245557 0.295697 -0.923182
    outer loop
      vertex 13.9141 13.6619 4.33013
      vertex 10.874 16.1865 4.33013
      vertex 11.5465 17.1875 4.82963
    endloop
  endfacet
  facet normal 0.245586 0.295715 -0.923168
    outer loop
      vertex 13.9141 13.6619 4.33013
      vertex 11.5465 17.1875 4.82963
      vertex 14.7745 14.5067 4.82963
    endloop
  endfacet
  facet normal 0.390216 0.469872 -0.791802
    outer loop
      vertex 13.1752 12.9364 3.53553
      vertex 10.2966 15.327 3.53553
      vertex 10.874 16.1865 4.33013
    endloop
  endfacet
  facet normal 0.390184 0.469856 -0.791829
    outer loop
      vertex 13.1752 12.9364 3.53553
      vertex 10.874 16.1865 4.33013
      vertex 13.9141 13.6619 4.33013
    endloop
  endfacet
  facet normal 0.507815 0.611485 -0.606804
    outer loop
      vertex 12.6082 12.3797 2.5
      vertex 9.85347 14.6674 2.5
      vertex 10.2966 15.327 3.53553
    endloop
  endfacet
  facet normal 0.507824 0.611488 -0.606792
    outer loop
      vertex 12.6082 12.3797 2.5
      vertex 10.2966 15.327 3.53553
      vertex 13.1752 12.9364 3.53553
    endloop
  endfacet
  facet normal 0.590674 0.711275 -0.381041
    outer loop
      vertex 12.2518 12.0297 1.2941
      vertex 9.57492 14.2527 1.2941
      vertex 9.85347 14.6674 2.5
    endloop
  endfacet
  facet normal 0.590688 0.711276 -0.381017
    outer loop
      vertex 12.2518 12.0297 1.2941
      vertex 9.85347 14.6674 2.5
      vertex 12.6082 12.3797 2.5
    endloop
  endfacet
  facet normal 0.633478 0.762787 -0.12985
    outer loop
      vertex 12.1302 11.9103 0
      vertex 9.47992 14.1113 0
      vertex 9.57492 14.2527 1.2941
    endloop
  endfacet
  facet normal 0.633459 0.762795 -0.129902
    outer loop
      vertex 12.1302 11.9103 0
      vertex 9.57492 14.2527 1.2941
      vertex 12.2518 12.0297 1.2941
    endloop
  endfacet
  facet normal -0.774255 -0.619408 -0.129855
    outer loop
      vertex 22.5406 14.5515 1.2941
      vertex 19.1441 18.7971 1.2941
      vertex 19.2657 18.9164 0
    endloop
  endfacet
  facet normal -0.774244 -0.619413 -0.129901
    outer loop
      vertex 22.5406 14.5515 1.2941
      vertex 19.2657 18.9164 0
      vertex 22.6838 14.6439 0
    endloop
  endfacet
  facet normal -0.72196 -0.577585 -0.381011
    outer loop
      vertex 22.121 14.2806 2.5
      vertex 18.7877 18.4471 2.5
      vertex 19.1441 18.7971 1.2941
    endloop
  endfacet
  facet normal -0.72198 -0.577587 -0.38097
    outer loop
      vertex 22.121 14.2806 2.5
      vertex 19.1441 18.7971 1.2941
      vertex 22.5406 14.5515 1.2941
    endloop
  endfacet
  facet normal -0.620676 -0.49655 -0.606794
    outer loop
      vertex 21.4534 13.8496 3.53553
      vertex 18.2207 17.8904 3.53553
      vertex 18.7877 18.4471 2.5
    endloop
  endfacet
  facet normal -0.620665 -0.496547 -0.606808
    outer loop
      vertex 21.4534 13.8496 3.53553
      vertex 18.7877 18.4471 2.5
      vertex 22.121 14.2806 2.5
    endloop
  endfacet
  facet normal -0.476905 -0.381534 -0.791829
    outer loop
      vertex 20.5834 13.288 4.33013
      vertex 17.4818 17.1649 4.33013
      vertex 18.2207 17.8904 3.53553
    endloop
  endfacet
  facet normal -0.476911 -0.381536 -0.791824
    outer loop
      vertex 20.5834 13.288 4.33013
      vertex 18.2207 17.8904 3.53553
      vertex 21.4534 13.8496 3.53553
    endloop
  endfacet
  facet normal -0.300141 -0.240123 -0.923177
    outer loop
      vertex 19.5703 12.634 4.82963
      vertex 16.6213 16.3201 4.82963
      vertex 17.4818 17.1649 4.33013
    endloop
  endfacet
  facet normal -0.30015 -0.240126 -0.923173
    outer loop
      vertex 19.5703 12.634 4.82963
      vertex 17.4818 17.1649 4.33013
      vertex 20.5834 13.288 4.33013
    endloop
  endfacet
  facet normal -0.102437 -0.081954 -0.991358
    outer loop
      vertex 18.4831 11.9321 5
      vertex 15.6979 15.4134 5
      vertex 16.6213 16.3201 4.82963
    endloop
  endfacet
  facet normal -0.10244 -0.0819555 -0.991357
    outer loop
      vertex 18.4831 11.9321 5
      vertex 16.6213 16.3201 4.82963
      vertex 19.5703 12.634 4.82963
    endloop
  endfacet
  facet normal 0.102437 0.0819531 -0.991358
    outer loop
      vertex 17.3958 11.2302 4.82963
      vertex 14.7745 14.5067 4.82963
      vertex 15.6979 15.4134 5
    endloop
  endfacet
  facet normal 0.102434 0.0819515 -0.991358
    outer loop
      vertex 17.3958 11.2302 4.82963
      vertex 15.6979 15.4134 5
      vertex 18.4831 11.9321 5
    endloop
  endfacet
  facet normal 0.300161 0.240133 -0.923168
    outer loop
      vertex 16.3827 10.5762 4.33013
      vertex 13.9141 13.6619 4.33013
      vertex 14.7745 14.5067 4.82963
    endloop
  endfacet
  facet normal 0.300149 0.240128 -0.923173
    outer loop
      vertex 16.3827 10.5762 4.33013
      vertex 14.7745 14.5067 4.82963
      vertex 17.3958 11.2302 4.82963
    endloop
  endfacet
  facet normal 0.476912 0.381526 -0.791829
    outer loop
      vertex 15.5127 10.0145 3.53553
      vertex 13.1752 12.9364 3.53553
      vertex 13.9141 13.6619 4.33013
    endloop
  endfacet
  facet normal 0.476894 0.381521 -0.791842
    outer loop
      vertex 15.5127 10.0145 3.53553
      vertex 13.9141 13.6619 4.33013
      vertex 16.3827 10.5762 4.33013
    endloop
  endfacet
  facet normal 0.620683 0.496542 -0.606793
    outer loop
      vertex 14.8451 9.58355 2.5
      vertex 12.6082 12.3797 2.5
      vertex 13.1752 12.9364 3.53553
    endloop
  endfacet
  facet normal 0.620683 0.496542 -0.606794
    outer loop
      vertex 14.8451 9.58355 2.5
      vertex 13.1752 12.9364 3.53553
      vertex 15.5127 10.0145 3.53553
    endloop
  endfacet
  facet normal 0.721962 0.577583 -0.381011
    outer loop
      vertex 14.4255 9.31264 1.2941
      vertex 12.2518 12.0297 1.2941
      vertex 12.6082 12.3797 2.5
    endloop
  endfacet
  facet normal 0.721983 0.577581 -0.380974
    outer loop
      vertex 14.4255 9.31264 1.2941
      vertex 12.6082 12.3797 2.5
      vertex 14.8451 9.58355 2.5
    endloop
  endfacet
  facet normal 0.774232 0.619427 -0.129902
    outer loop
      vertex 14.2824 9.22023 0
      vertex 12.1302 11.9103 0
      vertex 12.2518 12.0297 1.2941
    endloop
  endfacet
  facet normal 0.774251 0.619415 -0.129847
    outer loop
      vertex 14.2824 9.22023 0
      vertex 12.2518 12.0297 1.2941
      vertex 14.4255 9.31264 1.2941
    endloop
  endfacet
  facet normal -0.883221 -0.450605 -0.129907
    outer loop
      vertex 25.0115 9.70835 1.2941
      vertex 22.5406 14.5515 1.2941
      vertex 22.6838 14.6439 0
    endloop
  endfacet
  facet normal -0.883234 -0.450596 -0.129848
    outer loop
      vertex 25.0115 9.70835 1.2941
      vertex 22.6838 14.6439 0
      vertex 25.1703 9.77 0
    endloop
  endfacet
  facet normal -0.823602 -0.420171 -0.380967
    outer loop
      vertex 24.5458 9.5276 2.5
      vertex 22.121 14.2806 2.5
      vertex 22.5406 14.5515 1.2941
    endloop
  endfacet
  facet normal -0.823572 -0.420174 -0.38103
    outer loop
      vertex 24.5458 9.5276 2.5
      vertex 22.5406 14.5515 1.2941
      vertex 25.0115 9.70835 1.2941
    endloop
  endfacet
  facet normal -0.708027 -0.361224 -0.606807
    outer loop
      vertex 23.8051 9.24008 3.53553
      vertex 21.4534 13.8496 3.53553
      vertex 22.121 14.2806 2.5
    endloop
  endfacet
  facet normal -0.708063 -0.361227 -0.606764
    outer loop
      vertex 23.8051 9.24008 3.53553
      vertex 22.121 14.2806 2.5
      vertex 24.5458 9.5276 2.5
    endloop
  endfacet
  facet normal -0.544037 -0.277552 -0.791826
    outer loop
      vertex 22.8397 8.86537 4.33013
      vertex 20.5834 13.288 4.33013
      vertex 21.4534 13.8496 3.53553
    endloop
  endfacet
  facet normal -0.544019 -0.277549 -0.79184
    outer loop
      vertex 22.8397 8.86537 4.33013
      vertex 21.4534 13.8496 3.53553
      vertex 23.8051 9.24008 3.53553
    endloop
  endfacet
  facet normal -0.342401 -0.174678 -0.923174
    outer loop
      vertex 21.7155 8.42901 4.82963
      vertex 19.5703 12.634 4.82963
      vertex 20.5834 13.288 4.33013
    endloop
  endfacet
  facet normal -0.342384 -0.174674 -0.923181
    outer loop
      vertex 21.7155 8.42901 4.82963
      vertex 20.5834 13.288 4.33013
      vertex 22.8397 8.86537 4.33013
    endloop
  endfacet
  facet normal -0.116862 -0.0596172 -0.991357
    outer loop
      vertex 20.5091 7.96073 5
      vertex 18.4831 11.9321 5
      vertex 19.5703 12.634 4.82963
    endloop
  endfacet
  facet normal -0.11686 -0.0596169 -0.991357
    outer loop
      vertex 20.5091 7.96073 5
      vertex 19.5703 12.634 4.82963
      vertex 21.7155 8.42901 4.82963
    endloop
  endfacet
  facet normal 0.116853 0.0596152 -0.991358
    outer loop
      vertex 19.3027 7.49246 4.82963
      vertex 17.3958 11.2302 4.82963
      vertex 18.4831 11.9321 5
    endloop
  endfacet
  facet normal 0.116861 0.0596167 -0.991357
    outer loop
      vertex 19.3027 7.49246 4.82963
      vertex 18.4831 11.9321 5
      vertex 20.5091 7.96073 5
    endloop
  endfacet
  facet normal 0.342401 0.174678 -0.923174
    outer loop
      vertex 18.1785 7.0561 4.33013
      vertex 16.3827 10.5762 4.33013
      vertex 17.3958 11.2302 4.82963
    endloop
  endfacet
  facet normal 0.342383 0.174675 -0.92318
    outer loop
      vertex 18.1785 7.0561 4.33013
      vertex 17.3958 11.2302 4.82963
      vertex 19.3027 7.49246 4.82963
    endloop
  endfacet
  facet normal 0.544019 0.27755 -0.79184
    outer loop
      vertex 17.2132 6.68139 3.53553
      vertex 15.5127 10.0145 3.53553
      vertex 16.3827 10.5762 4.33013
    endloop
  endfacet
  facet normal 0.544053 0.277552 -0.791815
    outer loop
      vertex 17.2132 6.68139 3.53553
      vertex 16.3827 10.5762 4.33013
      vertex 18.1785 7.0561 4.33013
    endloop
  endfacet
  facet normal 0.708037 0.361224 -0.606796
    outer loop
      vertex 16.4724 6.39387 2.5
      vertex 14.8451 9.58355 2.5
      vertex 15.5127 10.0145 3.53553
    endloop
  endfacet
  facet normal 0.708028 0.361224 -0.606806
    outer loop
      vertex 16.4724 6.39387 2.5
      vertex 15.5127 10.0145 3.53553
      vertex 17.2132 6.68139 3.53553
    endloop
  endfacet
  facet normal 0.823597 0.420179 -0.38097
    outer loop
      vertex 16.0068 6.21312 1.2941
      vertex 14.4255 9.31264 1.2941
      vertex 14.8451 9.58355 2.5
    endloop
  endfacet
  facet normal 0.823596 0.420179 -0.380972
    outer loop
      vertex 16.0068 6.21312 1.2941
      vertex 14.8451 9.58355 2.5
      vertex 16.4724 6.39387 2.5
    endloop
  endfacet
  facet normal 0.883232 0.450602 -0.129844
    outer loop
      vertex 15.848 6.15147 0
      vertex 14.2824 9.22023 0
      vertex 14.4255 9.31264 1.2941
    endloop
  endfacet
  facet normal 0.883231 0.450603 -0.129848
    outer loop
      vertex 15.848 6.15147 0
      vertex 14.4255 9.31264 1.2941
      vertex 16.0068 6.21312 1.2941
    endloop
  endfacet
  facet normal -0.95594 -0.263283 -0.129847
    outer loop
      vertex 26.4552 4.46649 1.2941
      vertex 25.0115 9.70835 1.2941
      vertex 25.1703 9.77 0
    endloop
  endfacet
  facet normal -0.955936 -0.263287 -0.129869
    outer loop
      vertex 26.4552 4.46649 1.2941
      vertex 25.1703 9.77 0
      vertex 26.6232 4.49485 0
    endloop
  endfacet
  facet normal -0.891369 -0.245512 -0.381032
    outer loop
      vertex 25.9627 4.38333 2.5
      vertex 24.5458 9.5276 2.5
      vertex 25.0115 9.70835 1.2941
    endloop
  endfacet
  facet normal -0.891392 -0.245505 -0.380982
    outer loop
      vertex 25.9627 4.38333 2.5
      vertex 25.0115 9.70835 1.2941
      vertex 26.4552 4.46649 1.2941
    endloop
  endfacet
  facet normal -0.766352 -0.211057 -0.606762
    outer loop
      vertex 25.1791 4.25105 3.53553
      vertex 23.8051 9.24008 3.53553
      vertex 24.5458 9.5276 2.5
    endloop
  endfacet
  facet normal -0.766297 -0.211063 -0.606829
    outer loop
      vertex 25.1791 4.25105 3.53553
      vertex 24.5458 9.5276 2.5
      vertex 25.9627 4.38333 2.5
    endloop
  endfacet
  facet normal -0.588802 -0.162173 -0.791841
    outer loop
      vertex 24.1581 4.07866 4.33013
      vertex 22.8397 8.86537 4.33013
      vertex 23.8051 9.24008 3.53553
    endloop
  endfacet
  facet normal -0.588848 -0.162171 -0.791807
    outer loop
      vertex 24.1581 4.07866 4.33013
      vertex 23.8051 9.24008 3.53553
      vertex 25.1791 4.25105 3.53553
    endloop
  endfacet
  facet normal -0.370567 -0.102064 -0.923181
    outer loop
      vertex 22.969 3.8779 4.82963
      vertex 21.7155 8.42901 4.82963
      vertex 22.8397 8.86537 4.33013
    endloop
  endfacet
  facet normal -0.370565 -0.102064 -0.923182
    outer loop
      vertex 22.969 3.8779 4.82963
      vertex 22.8397 8.86537 4.33013
      vertex 24.1581 4.07866 4.33013
    endloop
  endfacet
  facet normal -0.126479 -0.034837 -0.991357
    outer loop
      vertex 21.693 3.66247 5
      vertex 20.5091 7.96073 5
      vertex 21.7155 8.42901 4.82963
    endloop
  endfacet
  facet normal -0.126483 -0.0348369 -0.991357
    outer loop
      vertex 22.969 3.8779 4.82963
      vertex 21.693 3.66247 5
      vertex 21.7155 8.42901 4.82963
    endloop
  endfacet
  facet normal 0.12648 0.0348353 -0.991357
    outer loop
      vertex 20.4169 3.44703 4.82963
      vertex 19.3027 7.49246 4.82963
      vertex 20.5091 7.96073 5
    endloop
  endfacet
  facet normal 0.126473 0.0348355 -0.991358
    outer loop
      vertex 21.693 3.66247 5
      vertex 20.4169 3.44703 4.82963
      vertex 20.5091 7.96073 5
    endloop
  endfacet
  facet normal 0.370568 0.102062 -0.923181
    outer loop
      vertex 19.2278 3.24628 4.33013
      vertex 18.1785 7.0561 4.33013
      vertex 19.3027 7.49246 4.82963
    endloop
  endfacet
  facet normal 0.370566 0.102062 -0.923181
    outer loop
      vertex 20.4169 3.44703 4.82963
      vertex 19.2278 3.24628 4.33013
      vertex 19.3027 7.49246 4.82963
    endloop
  endfacet
  facet normal 0.588837 0.162181 -0.791813
    outer loop
      vertex 18.2068 3.07388 3.53553
      vertex 17.2132 6.68139 3.53553
      vertex 18.1785 7.0561 4.33013
    endloop
  endfacet
  facet normal 0.588845 0.16218 -0.791808
    outer loop
      vertex 18.2068 3.07388 3.53553
      vertex 18.1785 7.0561 4.33013
      vertex 19.2278 3.24628 4.33013
    endloop
  endfacet
  facet normal 0.766316 0.211053 -0.606809
    outer loop
      vertex 17.4232 2.9416 2.5
      vertex 16.4724 6.39387 2.5
      vertex 17.2132 6.68139 3.53553
    endloop
  endfacet
  facet normal 0.766298 0.211058 -0.606829
    outer loop
      vertex 17.4232 2.9416 2.5
      vertex 17.2132 6.68139 3.53553
      vertex 18.2068 3.07388 3.53553
    endloop
  endfacet
  facet normal 0.8914 0.245498 -0.380968
    outer loop
      vertex 16.9307 2.85845 1.2941
      vertex 16.0068 6.21312 1.2941
      vertex 16.4724 6.39387 2.5
    endloop
  endfacet
  facet normal 0.891394 0.245501 -0.380981
    outer loop
      vertex 16.9307 2.85845 1.2941
      vertex 16.4724 6.39387 2.5
      vertex 17.4232 2.9416 2.5
    endloop
  endfacet
  facet normal 0.955945 0.263265 -0.129847
    outer loop
      vertex 16.7627 2.83009 0
      vertex 15.848 6.15147 0
      vertex 16.0068 6.21312 1.2941
    endloop
  endfacet
  facet normal 0.95594 0.263273 -0.12987
    outer loop
      vertex 16.7627 2.83009 0
      vertex 16.0068 6.21312 1.2941
      vertex 16.9307 2.85845 1.2941
    endloop
  endfacet
  facet normal -0.989388 -0.0651525 -0.12987
    outer loop
      vertex 26.7962 -0.490184 1.1829
      vertex 26.4552 4.46649 1.2941
      vertex 26.6232 4.49485 0
    endloop
  endfacet
  facet normal -0.989404 -0.0651564 -0.129747
    outer loop
      vertex 26.4552 4.46649 1.2941
      vertex 26.7962 -0.490184 1.1829
      vertex 26.7816 -0.489917 1.2941
    endloop
  endfacet
  facet normal -0.989395 -0.0651414 -0.129822
    outer loop
      vertex 26.7962 -0.490184 1.1829
      vertex 26.6232 4.49485 0
      vertex 26.9516 -0.493028 0
    endloop
  endfacet
  facet normal -0.922586 -0.0607408 -0.380981
    outer loop
      vertex 26.3253 -0.481571 2.39755
      vertex 25.9627 4.38333 2.5
      vertex 26.4552 4.46649 1.2941
    endloop
  endfacet
  facet normal -0.922767 -0.0607637 -0.380537
    outer loop
      vertex 25.9627 4.38333 2.5
      vertex 26.3253 -0.481571 2.39755
      vertex 26.283 -0.480796 2.5
    endloop
  endfacet
  facet normal -0.922561 -0.0607545 -0.381039
    outer loop
      vertex 26.7816 -0.489917 1.2941
      vertex 26.3253 -0.481571 2.39755
      vertex 26.4552 4.46649 1.2941
    endloop
  endfacet
  facet normal -0.793113 -0.0522268 -0.606831
    outer loop
      vertex 25.5564 -0.467506 3.44851
      vertex 25.1791 4.25105 3.53553
      vertex 25.9627 4.38333 2.5
    endloop
  endfacet
  facet normal -0.793383 -0.0522549 -0.606476
    outer loop
      vertex 25.1791 4.25105 3.53553
      vertex 25.5564 -0.467506 3.44851
      vertex 25.4898 -0.466287 3.53553
    endloop
  endfacet
  facet normal -0.793115 -0.0522262 -0.606829
    outer loop
      vertex 26.283 -0.480796 2.5
      vertex 25.5564 -0.467506 3.44851
      vertex 25.9627 4.38333 2.5
    endloop
  endfacet
  facet normal -0.609485 -0.0401293 -0.791781
    outer loop
      vertex 24.1581 4.07866 4.33013
      vertex 24.5421 -0.448951 4.26401
      vertex 24.4561 -0.447377 4.33013
    endloop
  endfacet
  facet normal -0.609453 -0.0401262 -0.791806
    outer loop
      vertex 24.5421 -0.448951 4.26401
      vertex 24.1581 4.07866 4.33013
      vertex 25.1791 4.25105 3.53553
    endloop
  endfacet
  facet normal -0.609408 -0.0401377 -0.79184
    outer loop
      vertex 25.4898 -0.466287 3.53553
      vertex 24.5421 -0.448951 4.26401
      vertex 25.1791 4.25105 3.53553
    endloop
  endfacet
  facet normal -0.383659 -0.0252666 -0.923129
    outer loop
      vertex 22.969 3.8779 4.82963
      vertex 23.3517 -0.427174 4.78841
      vertex 23.2524 -0.425357 4.82963
    endloop
  endfacet
  facet normal -0.383533 -0.025255 -0.923182
    outer loop
      vertex 23.3517 -0.427174 4.78841
      vertex 22.969 3.8779 4.82963
      vertex 24.1581 4.07866 4.33013
    endloop
  endfacet
  facet normal -0.383698 -0.0252631 -0.923113
    outer loop
      vertex 24.3756 -0.445904 4.36355
      vertex 24.1581 4.07866 4.33013
      vertex 24.4561 -0.447377 4.33013
    endloop
  endfacet
  facet normal -0.38353 -0.0252556 -0.923183
    outer loop
      vertex 24.1581 4.07866 4.33013
      vertex 24.3756 -0.445904 4.36355
      vertex 23.3517 -0.427174 4.78841
    endloop
  endfacet
  facet normal -0.130934 -0.00862113 -0.991354
    outer loop
      vertex 21.693 3.66247 5
      vertex 22.0665 -0.403665 4.98603
      vertex 21.9606 -0.401727 5
    endloop
  endfacet
  facet normal -0.13091 -0.00861887 -0.991357
    outer loop
      vertex 22.0665 -0.403665 4.98603
      vertex 21.693 3.66247 5
      vertex 22.969 3.8779 4.82963
    endloop
  endfacet
  facet normal -0.130901 -0.00862075 -0.991358
    outer loop
      vertex 23.2524 -0.425357 4.82963
      vertex 22.0665 -0.403665 4.98603
      vertex 22.969 3.8779 4.82963
    endloop
  endfacet
  facet normal 0.13093 0.00862228 -0.991354
    outer loop
      vertex 20.4169 3.44703 4.82963
      vertex 20.7744 -0.380028 4.84356
      vertex 20.6688 -0.378096 4.82963
    endloop
  endfacet
  facet normal 0.130899 0.00861939 -0.991358
    outer loop
      vertex 20.7744 -0.380028 4.84356
      vertex 20.4169 3.44703 4.82963
      vertex 21.693 3.66247 5
    endloop
  endfacet
  facet normal 0.130901 0.00861897 -0.991358
    outer loop
      vertex 21.9606 -0.401727 5
      vertex 20.7744 -0.380028 4.84356
      vertex 21.693 3.66247 5
    endloop
  endfacet
  facet normal 0.383768 0.0252801 -0.923084
    outer loop
      vertex 19.2278 3.24628 4.33013
      vertex 19.5635 -0.357877 4.37099
      vertex 19.4651 -0.356076 4.33013
    endloop
  endfacet
  facet normal 0.383533 0.0252572 -0.923182
    outer loop
      vertex 19.5635 -0.357877 4.37099
      vertex 19.2278 3.24628 4.33013
      vertex 20.4169 3.44703 4.82963
    endloop
  endfacet
  facet normal 0.383533 0.0252572 -0.923182
    outer loop
      vertex 20.6688 -0.378096 4.82963
      vertex 19.5635 -0.357877 4.37099
      vertex 20.4169 3.44703 4.82963
    endloop
  endfacet
  facet normal 0.609361 0.0401233 -0.791877
    outer loop
      vertex 18.2068 3.07388 3.53553
      vertex 18.5164 -0.338721 3.60086
      vertex 18.4314 -0.337166 3.53553
    endloop
  endfacet
  facet normal 0.609452 0.0401329 -0.791807
    outer loop
      vertex 18.5164 -0.338721 3.60086
      vertex 18.2068 3.07388 3.53553
      vertex 19.2278 3.24628 4.33013
    endloop
  endfacet
  facet normal 0.609383 0.0401422 -0.791859
    outer loop
      vertex 18.6662 -0.341463 3.71607
      vertex 19.2278 3.24628 4.33013
      vertex 19.4651 -0.356076 4.33013
    endloop
  endfacet
  facet normal 0.609613 0.0400764 -0.791686
    outer loop
      vertex 19.2278 3.24628 4.33013
      vertex 18.6662 -0.341463 3.71607
      vertex 18.5164 -0.338721 3.60086
    endloop
  endfacet
  facet normal 0.793113 0.0522263 -0.606831
    outer loop
      vertex 17.704 -0.323861 2.58596
      vertex 17.4232 2.9416 2.5
      vertex 18.2068 3.07388 3.53553
    endloop
  endfacet
  facet normal 0.793332 0.0522528 -0.606542
    outer loop
      vertex 17.4232 2.9416 2.5
      vertex 17.704 -0.323861 2.58596
      vertex 17.6382 -0.322657 2.5
    endloop
  endfacet
  facet normal 0.79312 0.0522229 -0.606823
    outer loop
      vertex 18.4314 -0.337166 3.53553
      vertex 17.704 -0.323861 2.58596
      vertex 18.2068 3.07388 3.53553
    endloop
  endfacet
  facet normal 0.922584 0.0607671 -0.380981
    outer loop
      vertex 17.1816 -0.314304 1.39562
      vertex 16.9307 2.85845 1.2941
      vertex 17.4232 2.9416 2.5
    endloop
  endfacet
  facet normal 0.922499 0.0607537 -0.381189
    outer loop
      vertex 16.9307 2.85845 1.2941
      vertex 17.1816 -0.314304 1.39562
      vertex 17.1396 -0.313536 1.2941
    endloop
  endfacet
  facet normal 0.922572 0.0607768 -0.381007
    outer loop
      vertex 17.4232 2.9416 2.5
      vertex 17.4721 -0.319618 2.09819
      vertex 17.1816 -0.314304 1.39562
    endloop
  endfacet
  facet normal 0.922606 0.0607674 -0.380927
    outer loop
      vertex 17.4721 -0.319618 2.09819
      vertex 17.4232 2.9416 2.5
      vertex 17.6382 -0.322657 2.5
    endloop
  endfacet
  facet normal 0.989388 0.0651612 -0.12987
    outer loop
      vertex 16.9841 -0.310691 0.110828
      vertex 16.7627 2.83009 0
      vertex 16.9307 2.85845 1.2941
    endloop
  endfacet
  facet normal 0.989348 0.0651477 -0.130176
    outer loop
      vertex 16.7627 2.83009 0
      vertex 16.9841 -0.310691 0.110828
      vertex 16.9695 -0.310425 0
    endloop
  endfacet
  facet normal 0.989389 0.0651589 -0.129864
    outer loop
      vertex 16.9841 -0.310691 0.110828
      vertex 16.9307 2.85845 1.2941
      vertex 17.1396 -0.313536 1.2941
    endloop
  endfacet
  facet normal 0 0 -1
    outer loop
      vertex 26.6232 4.49485 0
      vertex 27.9953 -0.512119 0
      vertex 27.7909 -0.50838 0
    endloop
  endfacet
  facet normal 0 0 -1
    outer loop
      vertex 26.6232 4.49485 0
      vertex 27.7909 -0.50838 0
      vertex 27.5864 -0.504641 0
    endloop
  endfacet
  facet normal 0 0 -1
    outer loop
      vertex 26.6232 4.49485 0
      vertex 27.5864 -0.504641 0
      vertex 26.9516 -0.493028 0
    endloop
  endfacet
  facet normal 0 0 -1
    outer loop
      vertex 27.9953 -0.512119 0
      vertex 26.6232 4.49485 0
      vertex 27.5458 5.02232 0
    endloop
  endfacet
  facet normal 0 0 -1
    outer loop
      vertex 25.1703 9.77 0
      vertex 27.5458 5.02232 0
      vertex 26.6232 4.49485 0
    endloop
  endfacet
  facet normal 0 0 -1
    outer loop
      vertex 27.5458 5.02232 0
      vertex 25.1703 9.77 0
      vertex 26.0131 10.3592 0
    endloop
  endfacet
  facet normal 0 0 -1
    outer loop
      vertex 22.6838 14.6439 0
      vertex 26.0131 10.3592 0
      vertex 25.1703 9.77 0
    endloop
  endfacet
  facet normal 0 0 -1
    outer loop
      vertex 26.0131 10.3592 0
      vertex 22.6838 14.6439 0
      vertex 23.4574 15.2888 0
    endloop
  endfacet
  facet normal 0 0 -1
    outer loop
      vertex 19.2657 18.9164 0
      vertex 23.4574 15.2888 0
      vertex 22.6838 14.6439 0
    endloop
  endfacet
  facet normal 0 0 -1
    outer loop
      vertex 23.4574 15.2888 0
      vertex 19.2657 18.9164 0
      vertex 19.9792 19.6171 0
    endloop
  endfacet
  facet normal 0 0 -1
    outer loop
      vertex 19.2657 18.9164 0
      vertex 15.7153 23.1739 0
      vertex 19.9792 19.6171 0
    endloop
  endfacet
  facet normal 0 0 -1
    outer loop
      vertex 15.0564 22.4121 0
      vertex 15.7153 23.1739 0
      vertex 19.2657 18.9164 0
    endloop
  endfacet
  facet normal 0 0 -1
    outer loop
      vertex 15.0564 22.4121 0
      vertex 10.8333 25.8193 0
      vertex 15.7153 23.1739 0
    endloop
  endfacet
  facet normal 0 0 -1
    outer loop
      vertex 10.2287 24.9874 0
      vertex 10.8333 25.8193 0
      vertex 15.0564 22.4121 0
    endloop
  endfacet
  facet normal 0 0 -1
    outer loop
      vertex 10.2287 24.9874 0
      vertex 5.52529 27.4494 0
      vertex 10.8333 25.8193 0
    endloop
  endfacet
  facet normal 0 0 -1
    outer loop
      vertex 4.98104 26.5365 0
      vertex 5.52529 27.4494 0
      vertex 10.2287 24.9874 0
    endloop
  endfacet
  facet normal 0 0 -1
    outer loop
      vertex 4.98104 26.5365 0
      vertex 6.21724e-15 28 0
      vertex 5.52529 27.4494 0
    endloop
  endfacet
  facet normal 0 -0 -1
    outer loop
      vertex 6.21724e-15 28 0
      vertex 4.98104 26.5365 0
      vertex 5.98547e-15 26.9561 0
    endloop
  endfacet
  facet normal 0 0 -1
    outer loop
      vertex 15.9973 -0.292639 0
      vertex 16.7627 2.83009 0
      vertex 16.9695 -0.310425 0
    endloop
  endfacet
  facet normal 0 0 -1
    outer loop
      vertex 15.7405 2.86989 0
      vertex 16.7627 2.83009 0
      vertex 15.9973 -0.292639 0
    endloop
  endfacet
  facet normal 0 0 -1
    outer loop
      vertex 16.7627 2.83009 0
      vertex 15.7405 2.86989 0
      vertex 15.848 6.15147 0
    endloop
  endfacet
  facet normal 0 0 -1
    outer loop
      vertex 14.8646 5.91956 0
      vertex 15.848 6.15147 0
      vertex 15.7405 2.86989 0
    endloop
  endfacet
  facet normal 0 0 -1
    outer loop
      vertex 14.8646 5.91956 0
      vertex 14.2824 9.22023 0
      vertex 15.848 6.15147 0
    endloop
  endfacet
  facet normal 0 0 -1
    outer loop
      vertex 13.4042 8.73643 0
      vertex 14.2824 9.22023 0
      vertex 14.8646 5.91956 0
    endloop
  endfacet
  facet normal 0 0 -1
    outer loop
      vertex 13.4042 8.73643 0
      vertex 12.1302 11.9103 0
      vertex 14.2824 9.22023 0
    endloop
  endfacet
  facet normal 0 0 -1
    outer loop
      vertex 11.4167 11.2097 0
      vertex 12.1302 11.9103 0
      vertex 13.4042 8.73643 0
    endloop
  endfacet
  facet normal 0 0 -1
    outer loop
      vertex 8.98014 13.2422 0
      vertex 12.1302 11.9103 0
      vertex 11.4167 11.2097 0
    endloop
  endfacet
  facet normal 0 0 -1
    outer loop
      vertex 12.1302 11.9103 0
      vertex 8.98014 13.2422 0
      vertex 9.47992 14.1113 0
    endloop
  endfacet
  facet normal 0 0 -1
    outer loop
      vertex 6.19045 14.7539 0
      vertex 9.47992 14.1113 0
      vertex 8.98014 13.2422 0
    endloop
  endfacet
  facet normal 0 0 -1
    outer loop
      vertex 9.47992 14.1113 0
      vertex 6.19045 14.7539 0
      vertex 6.4403 15.7328 0
    endloop
  endfacet
  facet normal 0 0 -1
    outer loop
      vertex 3.15731 15.6853 0
      vertex 6.4403 15.7328 0
      vertex 6.19045 14.7539 0
    endloop
  endfacet
  facet normal 0 0 -1
    outer loop
      vertex 3.15731 15.6853 0
      vertex 3.1362 16.7082 0
      vertex 6.4403 15.7328 0
    endloop
  endfacet
  facet normal 0 0 -1
    outer loop
      vertex 3.5527e-15 16 0
      vertex 3.1362 16.7082 0
      vertex 3.15731 15.6853 0
    endloop
  endfacet
  facet normal -0 0 -1
    outer loop
      vertex 3.1362 16.7082 0
      vertex 3.5527e-15 16 0
      vertex 3.76862e-15 16.9724 0
    endloop
  endfacet
endsolid OpenSCAD_Model
