solid OpenSCAD_Model
  facet normal -1 2.22037e-16 8.52023e-21
    outer loop
      vertex 1.55045e-15 6.98259 0.0444431
      vertex 1.75366e-15 7.89777 0.776457
      vertex 1.77635e-15 7.99999 0
    endloop
  endfacet
  facet normal -1 2.22031e-16 5.2648e-20
    outer loop
      vertex 1.53277e-15 6.90296 0.559794
      vertex 1.75366e-15 7.89777 0.776457
      vertex 1.53664e-15 6.9204 0.517637
    endloop
  endfacet
  facet normal -1 2.22043e-16 1.51479e-19
    outer loop
      vertex 1.55045e-15 6.98259 0.0444431
      vertex 1.77635e-15 7.99999 0
      vertex 1.55174e-15 6.98843 0
    endloop
  endfacet
  facet normal -1 2.22045e-16 -2.10184e-21
    outer loop
      vertex 1.75366e-15 7.89777 0.776457
      vertex 1.55045e-15 6.98259 0.0444431
      vertex 1.53664e-15 6.9204 0.517637
    endloop
  endfacet
  facet normal -1 2.22043e-16 -2.11998e-21
    outer loop
      vertex 1.75366e-15 7.89777 0.776457
      vertex 1.53277e-15 6.90296 0.559794
      vertex 1.68711e-15 7.59806 1.5
    endloop
  endfacet
  facet normal -1 2.2204e-16 2.33893e-22
    outer loop
      vertex 1.49235e-15 6.72092 0.999999
      vertex 1.68711e-15 7.59806 1.5
      vertex 1.53277e-15 6.90296 0.559794
    endloop
  endfacet
  facet normal -1 2.22107e-16 -1.1823e-19
    outer loop
      vertex 1.48608e-15 6.69271 1.03684
      vertex 1.68711e-15 7.59806 1.5
      vertex 1.49235e-15 6.72092 0.999999
    endloop
  endfacet
  facet normal -1 2.22046e-16 8.95543e-22
    outer loop
      vertex 1.68711e-15 7.59806 1.5
      vertex 1.48608e-15 6.69271 1.03684
      vertex 1.58125e-15 7.12131 2.12132
    endloop
  endfacet
  facet normal -1 2.22039e-16 3.81472e-21
    outer loop
      vertex 1.42189e-15 6.40361 1.41421
      vertex 1.58125e-15 7.12131 2.12132
      vertex 1.48608e-15 6.69271 1.03684
    endloop
  endfacet
  facet normal -1 2.22127e-16 -8.54507e-20
    outer loop
      vertex 1.41358e-15 6.36621 1.44296
      vertex 1.58125e-15 7.12131 2.12132
      vertex 1.42189e-15 6.40361 1.41421
    endloop
  endfacet
  facet normal -1 2.22046e-16 4.00317e-21
    outer loop
      vertex 1.58125e-15 7.12131 2.12132
      vertex 1.41358e-15 6.36621 1.44296
      vertex 1.44329e-15 6.49999 2.59808
    endloop
  endfacet
  facet normal -1 2.22029e-16 6.03297e-21
    outer loop
      vertex 1.33007e-15 5.99008 1.73205
      vertex 1.44329e-15 6.49999 2.59808
      vertex 1.41358e-15 6.36621 1.44296
    endloop
  endfacet
  facet normal -1 2.22206e-16 -9.85012e-20
    outer loop
      vertex 1.32024e-15 5.94585 1.7504
      vertex 1.44329e-15 6.49999 2.59808
      vertex 1.33007e-15 5.99008 1.73205
    endloop
  endfacet
  facet normal -1 2.22047e-16 6.02388e-21
    outer loop
      vertex 1.32024e-15 5.94585 1.7504
      vertex 1.28263e-15 5.77644 2.89778
      vertex 1.44329e-15 6.49999 2.59808
    endloop
  endfacet
  facet normal -1 2.22031e-16 3.67205e-21
    outer loop
      vertex 1.22314e-15 5.50852 1.93185
      vertex 1.28263e-15 5.77644 2.89778
      vertex 1.32024e-15 5.94585 1.7504
    endloop
  endfacet
  facet normal -1 2.21993e-16 1.40815e-20
    outer loop
      vertex 1.21246e-15 5.46041 1.93819
      vertex 1.28263e-15 5.77644 2.89778
      vertex 1.22314e-15 5.50852 1.93185
    endloop
  endfacet
  facet normal -1 2.22049e-16 -4.16245e-21
    outer loop
      vertex 1.21246e-15 5.46041 1.93819
      vertex 1.11022e-15 4.99999 3
      vertex 1.28263e-15 5.77644 2.89778
    endloop
  endfacet
  facet normal -1 2.22049e-16 -4.12157e-21
    outer loop
      vertex 1.10839e-15 4.99173 2
      vertex 1.11022e-15 4.99999 3
      vertex 1.21246e-15 5.46041 1.93819
    endloop
  endfacet
  facet normal -1 2.22154e-16 -4.99412e-21
    outer loop
      vertex 1.0976e-15 4.94316 1.99359
      vertex 1.11022e-15 4.99999 3
      vertex 1.10839e-15 4.99173 2
    endloop
  endfacet
  facet normal -1 2.22041e-16 -3.53627e-22
    outer loop
      vertex 9.37812e-16 4.22353 2.89778
      vertex 1.0976e-15 4.94316 1.99359
      vertex 9.93638e-16 4.47495 1.93185
    endloop
  endfacet
  facet normal -1 2.22046e-16 8.00521e-22
    outer loop
      vertex 9.37812e-16 4.22353 2.89778
      vertex 9.93638e-16 4.47495 1.93185
      vertex 9.83546e-16 4.4295 1.91299
    endloop
  endfacet
  facet normal -1 2.22043e-16 1.26164e-21
    outer loop
      vertex 1.0976e-15 4.94316 1.99359
      vertex 9.37812e-16 4.22353 2.89778
      vertex 1.11022e-15 4.99999 3
    endloop
  endfacet
  facet normal -1 2.22043e-16 -2.47403e-21
    outer loop
      vertex 7.77153e-16 3.49999 2.59808
      vertex 9.83546e-16 4.4295 1.91299
      vertex 8.86709e-16 3.99338 1.73205
    endloop
  endfacet
  facet normal -1 2.22048e-16 1.52257e-22
    outer loop
      vertex 7.77153e-16 3.49999 2.59808
      vertex 8.86709e-16 3.99338 1.73205
      vertex 8.78078e-16 3.95451 1.70217
    endloop
  endfacet
  facet normal -1 2.22045e-16 -1.76361e-21
    outer loop
      vertex 6.39192e-16 2.87867 2.12132
      vertex 8.78078e-16 3.95451 1.70217
      vertex 7.94887e-16 3.57985 1.41421
    endloop
  endfacet
  facet normal -1 2.22051e-16 3.75998e-21
    outer loop
      vertex 6.39192e-16 2.87867 2.12132
      vertex 7.94887e-16 3.57985 1.41421
      vertex 7.88363e-16 3.55047 1.37586
    endloop
  endfacet
  facet normal -1 2.22045e-16 7.17933e-22
    outer loop
      vertex 9.83546e-16 4.4295 1.91299
      vertex 7.77153e-16 3.49999 2.59808
      vertex 9.37812e-16 4.22353 2.89778
    endloop
  endfacet
  facet normal -1 2.22044e-16 -4.05077e-22
    outer loop
      vertex 5.33332e-16 2.40191 1.5
      vertex 7.88363e-16 3.55047 1.37586
      vertex 7.2443e-16 3.26254 0.999999
    endloop
  endfacet
  facet normal -1 2.2204e-16 -6.61702e-21
    outer loop
      vertex 5.33332e-16 2.40191 1.5
      vertex 7.2443e-16 3.26254 0.999999
      vertex 7.20438e-16 3.24456 0.956522
    endloop
  endfacet
  facet normal -1 2.22045e-16 2.22015e-21
    outer loop
      vertex 4.66784e-16 2.10221 0.776457
      vertex 7.20438e-16 3.24456 0.956522
      vertex 6.80138e-16 3.06307 0.517637
    endloop
  endfacet
  facet normal -1 2.22044e-16 3.42595e-21
    outer loop
      vertex 4.44086e-16 1.99999 0
      vertex 6.78826e-16 3.05716 0.472677
      vertex 6.65031e-16 2.99504 0
    endloop
  endfacet
  facet normal -1 2.22046e-16 -8.88712e-22
    outer loop
      vertex 8.78078e-16 3.95451 1.70217
      vertex 6.39192e-16 2.87867 2.12132
      vertex 7.77153e-16 3.49999 2.59808
    endloop
  endfacet
  facet normal -1 2.22043e-16 -6.12163e-21
    outer loop
      vertex 6.78826e-16 3.05716 0.472677
      vertex 4.66784e-16 2.10221 0.776457
      vertex 6.80138e-16 3.06307 0.517637
    endloop
  endfacet
  facet normal -1 2.22044e-16 -2.6112e-21
    outer loop
      vertex 7.88363e-16 3.55047 1.37586
      vertex 5.33332e-16 2.40191 1.5
      vertex 6.39192e-16 2.87867 2.12132
    endloop
  endfacet
  facet normal -1 2.22046e-16 1.29955e-21
    outer loop
      vertex 7.20438e-16 3.24456 0.956522
      vertex 4.66784e-16 2.10221 0.776457
      vertex 5.33332e-16 2.40191 1.5
    endloop
  endfacet
  facet normal -1 2.22045e-16 6.75521e-22
    outer loop
      vertex 6.78826e-16 3.05716 0.472677
      vertex 4.44086e-16 1.99999 0
      vertex 4.66784e-16 2.10221 0.776457
    endloop
  endfacet
  facet normal 0.161481 -0.986876 8.68184e-06
    outer loop
      vertex 7.89502 1.29171 0
      vertex 7.79414 1.27521 0.776457
      vertex 7.49837 1.22682 1.5
    endloop
  endfacet
  facet normal 0.161456 -0.98688 -7.97899e-06
    outer loop
      vertex 7.49837 1.22682 1.5
      vertex 7.02787 1.14984 2.12132
      vertex 6.4147 1.04952 2.59808
    endloop
  endfacet
  facet normal 0.161456 -0.98688 1.82993e-06
    outer loop
      vertex 7.69325 1.2587 0
      vertex 7.89502 1.29171 0
      vertex 7.49837 1.22682 1.5
    endloop
  endfacet
  facet normal 0.161465 -0.986878 -6.13852e-06
    outer loop
      vertex 6.4147 1.04952 2.59808
      vertex 4.93438 0.807319 3
      vertex 3.45406 0.565123 2.59808
    endloop
  endfacet
  facet normal 0.161463 -0.986879 -1.36166e-05
    outer loop
      vertex 6.4147 1.04952 2.59808
      vertex 5.70065 0.93269 2.89778
      vertex 4.93438 0.807319 3
    endloop
  endfacet
  facet normal 0.161465 -0.986878 1.52538e-06
    outer loop
      vertex 7.49837 1.22682 1.5
      vertex 6.4147 1.04952 2.59808
      vertex 3.45406 0.565123 2.59808
    endloop
  endfacet
  facet normal 0.161464 -0.986879 -1.19362e-06
    outer loop
      vertex 4.93438 0.807319 3
      vertex 4.16811 0.681949 2.89778
      vertex 3.45406 0.565123 2.59808
    endloop
  endfacet
  facet normal 0.161464 -0.986879 7.28397e-07
    outer loop
      vertex 3.45406 0.565123 2.59808
      vertex 4.45548 0.728966 1.9371
      vertex 4.92623 0.805986 2
    endloop
  endfacet
  facet normal 0.16147 -0.986878 8.90346e-06
    outer loop
      vertex 3.45406 0.565123 2.59808
      vertex 4.41623 0.722544 1.93185
      vertex 4.45548 0.728966 1.9371
    endloop
  endfacet
  facet normal 0.161466 -0.986878 3.30173e-06
    outer loop
      vertex 4.41623 0.722544 1.93185
      vertex 3.45406 0.565123 2.59808
      vertex 4.06909 0.665747 1.78591
    endloop
  endfacet
  facet normal 0.161422 -0.986886 -0.000106888
    outer loop
      vertex 4.96588 0.812472 1.9947
      vertex 3.45406 0.565123 2.59808
      vertex 4.92623 0.805986 2
    endloop
  endfacet
  facet normal 0.161467 -0.986878 1.07481e-05
    outer loop
      vertex 5.43624 0.889429 1.93185
      vertex 3.45406 0.565123 2.59808
      vertex 4.96588 0.812472 1.9947
    endloop
  endfacet
  facet normal 0.161467 -0.986878 6.71931e-06
    outer loop
      vertex 7.49837 1.22682 1.5
      vertex 5.47368 0.895555 1.91611
      vertex 5.91148 0.967184 1.73205
    endloop
  endfacet
  facet normal 0.161469 -0.986878 1.63142e-05
    outer loop
      vertex 5.43624 0.889429 1.93185
      vertex 7.49837 1.22682 1.5
      vertex 3.45406 0.565123 2.59808
    endloop
  endfacet
  facet normal 0.161457 -0.98688 -4.17629e-05
    outer loop
      vertex 5.47368 0.895555 1.91611
      vertex 7.49837 1.22682 1.5
      vertex 5.43624 0.889429 1.93185
    endloop
  endfacet
  facet normal 0.161468 -0.986878 1.14692e-05
    outer loop
      vertex 5.94415 0.972529 1.70661
      vertex 7.49837 1.22682 1.5
      vertex 5.91148 0.967184 1.73205
    endloop
  endfacet
  facet normal 0.16147 -0.986878 2.42643e-05
    outer loop
      vertex 6.31959 1.03395 1.41421
      vertex 7.49837 1.22682 1.5
      vertex 5.94415 0.972529 1.70661
    endloop
  endfacet
  facet normal 0.16149 -0.986874 -0.000259977
    outer loop
      vertex 6.34508 1.03813 1.3805
      vertex 7.49837 1.22682 1.5
      vertex 6.31959 1.03395 1.41421
    endloop
  endfacet
  facet normal 0.161462 -0.986879 9.88123e-06
    outer loop
      vertex 6.63274 1.08519 0.999999
      vertex 7.49837 1.22682 1.5
      vertex 6.34508 1.03813 1.3805
    endloop
  endfacet
  facet normal 0.161503 -0.986872 -6.14892e-05
    outer loop
      vertex 6.64904 1.08786 0.960038
      vertex 7.49837 1.22682 1.5
      vertex 6.63274 1.08519 0.999999
    endloop
  endfacet
  facet normal 0.161464 -0.986879 4.12907e-08
    outer loop
      vertex 6.82959 1.1174 0.517637
      vertex 7.49837 1.22682 1.5
      vertex 6.64904 1.08786 0.960038
    endloop
  endfacet
  facet normal 0.161625 -0.986852 0.000157886
    outer loop
      vertex 7.30348 1.19493 0
      vertex 6.82959 1.1174 0.517637
      vertex 6.83525 1.11832 0.473983
    endloop
  endfacet
  facet normal 0.161467 -0.986878 -2.10385e-06
    outer loop
      vertex 7.30348 1.19493 0
      vertex 6.83525 1.11832 0.473983
      vertex 6.89673 1.12838 0
    endloop
  endfacet
  facet normal 0.16146 -0.986879 3.07644e-06
    outer loop
      vertex 6.82959 1.1174 0.517637
      vertex 7.30348 1.19493 0
      vertex 7.49837 1.22682 1.5
    endloop
  endfacet
  facet normal 0.16146 -0.986879 5.01506e-06
    outer loop
      vertex 3.45406 0.565123 2.59808
      vertex 2.84089 0.464802 2.12132
      vertex 2.37039 0.387822 1.5
    endloop
  endfacet
  facet normal 0.161464 -0.986879 5.31863e-07
    outer loop
      vertex 3.45406 0.565123 2.59808
      vertex 2.37039 0.387822 1.5
      vertex 2.07463 0.339432 0.776457
    endloop
  endfacet
  facet normal 0.161465 -0.986878 -2.40162e-07
    outer loop
      vertex 3.45406 0.565123 2.59808
      vertex 2.07463 0.339432 0.776457
      vertex 1.97375 0.322927 0
    endloop
  endfacet
  facet normal 0.161465 -0.986878 -3.4987e-07
    outer loop
      vertex 2.76704 0.452719 0
      vertex 3.45406 0.565123 2.59808
      vertex 1.97375 0.322927 0
    endloop
  endfacet
  facet normal 0.161467 -0.986878 0
    outer loop
      vertex 3.45406 0.565123 2.59808
      vertex 3.2442 0.530787 1.03237
      vertex 3.45406 0.565123 1.30996
    endloop
  endfacet
  facet normal 0.161437 -0.986883 4.14359e-06
    outer loop
      vertex 3.45406 0.565123 2.59808
      vertex 3.21973 0.526784 0.999999
      vertex 3.2442 0.530787 1.03237
    endloop
  endfacet
  facet normal 0.161471 -0.986877 -1.04548e-06
    outer loop
      vertex 3.45406 0.565123 2.59808
      vertex 3.03869 0.497163 0.556374
      vertex 3.21973 0.526784 0.999999
    endloop
  endfacet
  facet normal 0.161457 -0.98688 1.92088e-06
    outer loop
      vertex 2.76704 0.452719 0
      vertex 3.03869 0.497163 0.556374
      vertex 3.45406 0.565123 2.59808
    endloop
  endfacet
  facet normal 0.161348 -0.986898 5.65343e-05
    outer loop
      vertex 3.03869 0.497163 0.556374
      vertex 2.76704 0.452719 0
      vertex 3.02288 0.494576 0.517637
    endloop
  endfacet
  facet normal 0.161459 -0.986879 1.15186e-07
    outer loop
      vertex 2.76704 0.452719 0
      vertex 2.96133 0.484506 0.0431502
      vertex 3.02288 0.494576 0.517637
    endloop
  endfacet
  facet normal 0.161457 -0.98688 1.04258e-05
    outer loop
      vertex 2.96133 0.484506 0.0431502
      vertex 2.76704 0.452719 0
      vertex 2.95574 0.483591 0
    endloop
  endfacet
  facet normal 0.161457 -0.98688 -3.75323e-06
    outer loop
      vertex 3.45406 0.565123 2.59808
      vertex 3.97741 0.650748 1.74736
      vertex 4.06909 0.665747 1.78591
    endloop
  endfacet
  facet normal 0.16147 -0.986878 4.55912e-06
    outer loop
      vertex 3.45406 0.565123 2.59808
      vertex 3.94099 0.644789 1.73205
      vertex 3.97741 0.650748 1.74736
    endloop
  endfacet
  facet normal 0.161463 -0.986879 6.04974e-07
    outer loop
      vertex 3.45406 0.565123 2.59808
      vertex 3.56429 0.583157 1.43867
      vertex 3.94099 0.644789 1.73205
    endloop
  endfacet
  facet normal 0.161463 -0.986879 6.06308e-07
    outer loop
      vertex 3.45406 0.565123 2.59808
      vertex 3.53288 0.578018 1.41421
      vertex 3.56429 0.583157 1.43867
    endloop
  endfacet
  facet normal 0.161454 -0.98688 0
    outer loop
      vertex 3.53288 0.578018 1.41421
      vertex 3.45406 0.565123 2.59808
      vertex 3.45406 0.565123 1.30996
    endloop
  endfacet
  facet normal 0.161463 -0.986879 2.75139e-06
    outer loop
      vertex 7.69325 1.2587 0
      vertex 7.49837 1.22682 1.5
      vertex 7.30348 1.19493 0
    endloop
  endfacet
  facet normal 0.0995965 0.986516 0.129874
    outer loop
      vertex 1.57858 7.7384 0.776457
      vertex 1.77635e-15 7.99999 0
      vertex 1.75366e-15 7.89777 0.776457
    endloop
  endfacet
  facet normal 0.0995949 0.986515 0.129877
    outer loop
      vertex 1.57858 7.7384 0.776457
      vertex 1.59901 7.83856 0
      vertex 1.77635e-15 7.99999 0
    endloop
  endfacet
  facet normal 0.0928684 0.919883 0.381039
    outer loop
      vertex 1.51867 7.44474 1.5
      vertex 1.75366e-15 7.89777 0.776457
      vertex 1.68711e-15 7.59806 1.5
    endloop
  endfacet
  facet normal 0.0928694 0.919884 0.381037
    outer loop
      vertex 1.51867 7.44474 1.5
      vertex 1.57858 7.7384 0.776457
      vertex 1.75366e-15 7.89777 0.776457
    endloop
  endfacet
  facet normal 0.0798391 0.790824 0.606814
    outer loop
      vertex 1.42338 6.97761 2.12132
      vertex 1.68711e-15 7.59806 1.5
      vertex 1.58125e-15 7.12131 2.12132
    endloop
  endfacet
  facet normal 0.079839 0.790824 0.606814
    outer loop
      vertex 1.42338 6.97761 2.12132
      vertex 1.51867 7.44474 1.5
      vertex 1.68711e-15 7.59806 1.5
    endloop
  endfacet
  facet normal 0.0613469 0.607618 0.791856
    outer loop
      vertex 1.29919 6.36882 2.59808
      vertex 1.58125e-15 7.12131 2.12132
      vertex 1.44329e-15 6.49999 2.59808
    endloop
  endfacet
  facet normal 0.0613428 0.607614 0.79186
    outer loop
      vertex 1.29919 6.36882 2.59808
      vertex 1.42338 6.97761 2.12132
      vertex 1.58125e-15 7.12131 2.12132
    endloop
  endfacet
  facet normal 0.0386047 0.382394 0.923193
    outer loop
      vertex 1.15457 5.65988 2.89778
      vertex 1.44329e-15 6.49999 2.59808
      vertex 1.28263e-15 5.77644 2.89778
    endloop
  endfacet
  facet normal 0.038608 0.382397 0.923191
    outer loop
      vertex 1.15457 5.65988 2.89778
      vertex 1.29919 6.36882 2.59808
      vertex 1.44329e-15 6.49999 2.59808
    endloop
  endfacet
  facet normal 0.0131769 0.130513 0.991359
    outer loop
      vertex 0.999379 4.89909 3
      vertex 1.28263e-15 5.77644 2.89778
      vertex 1.11022e-15 4.99999 3
    endloop
  endfacet
  facet normal 0.0131758 0.130512 0.991359
    outer loop
      vertex 0.999379 4.89909 3
      vertex 1.15457 5.65988 2.89778
      vertex 1.28263e-15 5.77644 2.89778
    endloop
  endfacet
  facet normal -0.0131766 -0.130511 0.991359
    outer loop
      vertex 0.844184 4.1383 2.89778
      vertex 1.11022e-15 4.99999 3
      vertex 9.37812e-16 4.22353 2.89778
    endloop
  endfacet
  facet normal -0.0131768 -0.130511 0.991359
    outer loop
      vertex 0.844184 4.1383 2.89778
      vertex 0.999379 4.89909 3
      vertex 1.11022e-15 4.99999 3
    endloop
  endfacet
  facet normal -0.038608 -0.382398 0.923191
    outer loop
      vertex 0.699564 3.42936 2.59808
      vertex 9.37812e-16 4.22353 2.89778
      vertex 7.77153e-16 3.49999 2.59808
    endloop
  endfacet
  facet normal -0.0386074 -0.382398 0.923191
    outer loop
      vertex 0.699564 3.42936 2.59808
      vertex 0.844184 4.1383 2.89778
      vertex 9.37812e-16 4.22353 2.89778
    endloop
  endfacet
  facet normal -0.0613451 -0.607618 0.791856
    outer loop
      vertex 0.575377 2.82058 2.12132
      vertex 7.77153e-16 3.49999 2.59808
      vertex 6.39192e-16 2.87867 2.12132
    endloop
  endfacet
  facet normal -0.061347 -0.607619 0.791856
    outer loop
      vertex 0.575377 2.82058 2.12132
      vertex 0.699564 3.42936 2.59808
      vertex 7.77153e-16 3.49999 2.59808
    endloop
  endfacet
  facet normal -0.079842 -0.790818 0.606821
    outer loop
      vertex 0.480085 2.35344 1.5
      vertex 6.39192e-16 2.87867 2.12132
      vertex 5.33332e-16 2.40191 1.5
    endloop
  endfacet
  facet normal -0.0798409 -0.790818 0.606822
    outer loop
      vertex 0.480085 2.35344 1.5
      vertex 0.575377 2.82058 2.12132
      vertex 6.39192e-16 2.87867 2.12132
    endloop
  endfacet
  facet normal -0.0928686 -0.919887 0.381028
    outer loop
      vertex 0.420181 2.05979 0.776457
      vertex 5.33332e-16 2.40191 1.5
      vertex 4.66784e-16 2.10221 0.776457
    endloop
  endfacet
  facet normal -0.0928731 -0.919888 0.381026
    outer loop
      vertex 0.420181 2.05979 0.776457
      vertex 0.480085 2.35344 1.5
      vertex 5.33332e-16 2.40191 1.5
    endloop
  endfacet
  facet normal -0.0996016 -0.986515 0.129874
    outer loop
      vertex 0.39975 1.95963 0
      vertex 4.66784e-16 2.10221 0.776457
      vertex 4.44086e-16 1.99999 0
    endloop
  endfacet
  facet normal -0.0995951 -0.986515 0.129877
    outer loop
      vertex 0.39975 1.95963 0
      vertex 0.420181 2.05979 0.776457
      vertex 4.66784e-16 2.10221 0.776457
    endloop
  endfacet
  facet normal 0.294773 0.9467 0.129877
    outer loop
      vertex 3.09344 7.26672 0.776457
      vertex 1.59901 7.83856 0
      vertex 1.57858 7.7384 0.776457
    endloop
  endfacet
  facet normal 0.294769 0.9467 0.129884
    outer loop
      vertex 3.09344 7.26672 0.776457
      vertex 3.13348 7.36078 0
      vertex 1.59901 7.83856 0
    endloop
  endfacet
  facet normal 0.274854 0.88276 0.381039
    outer loop
      vertex 2.97606 6.99097 1.5
      vertex 1.57858 7.7384 0.776457
      vertex 1.51867 7.44474 1.5
    endloop
  endfacet
  facet normal 0.274865 0.882764 0.381022
    outer loop
      vertex 2.97606 6.99097 1.5
      vertex 3.09344 7.26672 0.776457
      vertex 1.57858 7.7384 0.776457
    endloop
  endfacet
  facet normal 0.236294 0.758909 0.606814
    outer loop
      vertex 2.78932 6.55231 2.12132
      vertex 1.51867 7.44474 1.5
      vertex 1.42338 6.97761 2.12132
    endloop
  endfacet
  facet normal 0.236292 0.758907 0.606817
    outer loop
      vertex 2.78932 6.55231 2.12132
      vertex 2.97606 6.99097 1.5
      vertex 1.51867 7.44474 1.5
    endloop
  endfacet
  facet normal 0.181551 0.583092 0.79186
    outer loop
      vertex 2.54595 5.98063 2.59808
      vertex 1.42338 6.97761 2.12132
      vertex 1.29919 6.36882 2.59808
    endloop
  endfacet
  facet normal 0.181552 0.583093 0.791859
    outer loop
      vertex 2.54595 5.98063 2.59808
      vertex 2.78932 6.55231 2.12132
      vertex 1.42338 6.97761 2.12132
    endloop
  endfacet
  facet normal 0.114258 0.366965 0.923191
    outer loop
      vertex 2.26255 5.3149 2.89778
      vertex 1.29919 6.36882 2.59808
      vertex 1.15457 5.65988 2.89778
    endloop
  endfacet
  facet normal 0.114258 0.366965 0.923191
    outer loop
      vertex 2.26255 5.3149 2.89778
      vertex 2.54595 5.98063 2.59808
      vertex 1.29919 6.36882 2.59808
    endloop
  endfacet
  facet normal 0.0389962 0.125245 0.991359
    outer loop
      vertex 1.95843 4.60048 3
      vertex 1.15457 5.65988 2.89778
      vertex 0.999379 4.89909 3
    endloop
  endfacet
  facet normal 0.0389961 0.125245 0.991359
    outer loop
      vertex 1.95843 4.60048 3
      vertex 2.26255 5.3149 2.89778
      vertex 1.15457 5.65988 2.89778
    endloop
  endfacet
  facet normal -0.038995 -0.125245 0.991359
    outer loop
      vertex 1.6543 3.88607 2.89778
      vertex 0.999379 4.89909 3
      vertex 0.844184 4.1383 2.89778
    endloop
  endfacet
  facet normal -0.0389965 -0.125246 0.991359
    outer loop
      vertex 1.6543 3.88607 2.89778
      vertex 1.95843 4.60048 3
      vertex 0.999379 4.89909 3
    endloop
  endfacet
  facet normal -0.114255 -0.366966 0.923191
    outer loop
      vertex 1.3709 3.22034 2.59808
      vertex 0.844184 4.1383 2.89778
      vertex 0.699564 3.42936 2.59808
    endloop
  endfacet
  facet normal -0.114255 -0.366966 0.923191
    outer loop
      vertex 1.3709 3.22034 2.59808
      vertex 1.6543 3.88607 2.89778
      vertex 0.844184 4.1383 2.89778
    endloop
  endfacet
  facet normal -0.181555 -0.583098 0.791855
    outer loop
      vertex 1.12753 2.64866 2.12132
      vertex 0.699564 3.42936 2.59808
      vertex 0.575377 2.82058 2.12132
    endloop
  endfacet
  facet normal -0.181546 -0.583095 0.791859
    outer loop
      vertex 1.12753 2.64866 2.12132
      vertex 1.3709 3.22034 2.59808
      vertex 0.699564 3.42936 2.59808
    endloop
  endfacet
  facet normal -0.236282 -0.758905 0.606822
    outer loop
      vertex 0.940795 2.21 1.5
      vertex 0.575377 2.82058 2.12132
      vertex 0.480085 2.35344 1.5
    endloop
  endfacet
  facet normal -0.236295 -0.758907 0.606816
    outer loop
      vertex 0.940795 2.21 1.5
      vertex 1.12753 2.64866 2.12132
      vertex 0.575377 2.82058 2.12132
    endloop
  endfacet
  facet normal -0.274861 -0.882763 0.381026
    outer loop
      vertex 0.823406 1.93424 0.776457
      vertex 0.480085 2.35344 1.5
      vertex 0.420181 2.05979 0.776457
    endloop
  endfacet
  facet normal -0.274845 -0.882764 0.381035
    outer loop
      vertex 0.823406 1.93424 0.776457
      vertex 0.940795 2.21 1.5
      vertex 0.480085 2.35344 1.5
    endloop
  endfacet
  facet normal -0.294759 -0.946704 0.129877
    outer loop
      vertex 0.783367 1.84019 0
      vertex 0.420181 2.05979 0.776457
      vertex 0.39975 1.95963 0
    endloop
  endfacet
  facet normal -0.294769 -0.946702 0.129871
    outer loop
      vertex 0.783367 1.84019 0
      vertex 0.823406 1.93424 0.776457
      vertex 0.420181 2.05979 0.776457
    endloop
  endfacet
  facet normal 0.47804 0.868682 0.129883
    outer loop
      vertex 4.48347 6.50178 0.776457
      vertex 3.13348 7.36078 0
      vertex 3.09344 7.26672 0.776457
    endloop
  endfacet
  facet normal 0.47804 0.868682 0.129883
    outer loop
      vertex 4.48347 6.50178 0.776457
      vertex 4.5415 6.58594 0
      vertex 3.13348 7.36078 0
    endloop
  endfacet
  facet normal 0.445757 0.810015 0.38102
    outer loop
      vertex 4.31333 6.25506 1.5
      vertex 3.09344 7.26672 0.776457
      vertex 2.97606 6.99097 1.5
    endloop
  endfacet
  facet normal 0.445755 0.810014 0.381024
    outer loop
      vertex 4.31333 6.25506 1.5
      vertex 4.48347 6.50178 0.776457
      vertex 3.09344 7.26672 0.776457
    endloop
  endfacet
  facet normal 0.383216 0.696361 0.606817
    outer loop
      vertex 4.04268 5.86257 2.12132
      vertex 2.97606 6.99097 1.5
      vertex 2.78932 6.55231 2.12132
    endloop
  endfacet
  facet normal 0.383212 0.696359 0.606822
    outer loop
      vertex 4.04268 5.86257 2.12132
      vertex 4.31333 6.25506 1.5
      vertex 2.97606 6.99097 1.5
    endloop
  endfacet
  facet normal 0.294434 0.535038 0.79186
    outer loop
      vertex 3.68997 5.35107 2.59808
      vertex 2.78932 6.55231 2.12132
      vertex 2.54595 5.98063 2.59808
    endloop
  endfacet
  facet normal 0.29444 0.535041 0.791856
    outer loop
      vertex 3.68997 5.35107 2.59808
      vertex 4.04268 5.86257 2.12132
      vertex 2.78932 6.55231 2.12132
    endloop
  endfacet
  facet normal 0.1853 0.336722 0.923191
    outer loop
      vertex 3.27922 4.75542 2.89778
      vertex 2.54595 5.98063 2.59808
      vertex 2.26255 5.3149 2.89778
    endloop
  endfacet
  facet normal 0.1853 0.336722 0.923191
    outer loop
      vertex 3.27922 4.75542 2.89778
      vertex 3.68997 5.35107 2.59808
      vertex 2.54595 5.98063 2.59808
    endloop
  endfacet
  facet normal 0.0632429 0.114923 0.991359
    outer loop
      vertex 2.83843 4.11621 3
      vertex 2.26255 5.3149 2.89778
      vertex 1.95843 4.60048 3
    endloop
  endfacet
  facet normal 0.0632429 0.114923 0.991359
    outer loop
      vertex 2.83843 4.11621 3
      vertex 3.27922 4.75542 2.89778
      vertex 2.26255 5.3149 2.89778
    endloop
  endfacet
  facet normal -0.0632444 -0.114923 0.991359
    outer loop
      vertex 2.39765 3.47699 2.89778
      vertex 1.95843 4.60048 3
      vertex 1.6543 3.88607 2.89778
    endloop
  endfacet
  facet normal -0.0632426 -0.114922 0.991359
    outer loop
      vertex 2.39765 3.47699 2.89778
      vertex 2.83843 4.11621 3
      vertex 1.95843 4.60048 3
    endloop
  endfacet
  facet normal -0.185305 -0.33672 0.923191
    outer loop
      vertex 1.9869 2.88134 2.59808
      vertex 1.6543 3.88607 2.89778
      vertex 1.3709 3.22034 2.59808
    endloop
  endfacet
  facet normal -0.185303 -0.33672 0.923191
    outer loop
      vertex 1.9869 2.88134 2.59808
      vertex 2.39765 3.47699 2.89778
      vertex 1.6543 3.88607 2.89778
    endloop
  endfacet
  facet normal -0.294436 -0.535037 0.79186
    outer loop
      vertex 1.63419 2.36984 2.12132
      vertex 1.3709 3.22034 2.59808
      vertex 1.12753 2.64866 2.12132
    endloop
  endfacet
  facet normal -0.294445 -0.535038 0.791856
    outer loop
      vertex 1.63419 2.36984 2.12132
      vertex 1.9869 2.88134 2.59808
      vertex 1.3709 3.22034 2.59808
    endloop
  endfacet
  facet normal -0.383214 -0.696363 0.606815
    outer loop
      vertex 1.36354 1.97736 1.5
      vertex 1.12753 2.64866 2.12132
      vertex 0.940795 2.21 1.5
    endloop
  endfacet
  facet normal -0.383216 -0.696363 0.606815
    outer loop
      vertex 1.36354 1.97736 1.5
      vertex 1.63419 2.36984 2.12132
      vertex 1.12753 2.64866 2.12132
    endloop
  endfacet
  facet normal -0.445754 -0.81001 0.381035
    outer loop
      vertex 1.1934 1.73063 0.776457
      vertex 0.940795 2.21 1.5
      vertex 0.823406 1.93424 0.776457
    endloop
  endfacet
  facet normal -0.445755 -0.81001 0.381034
    outer loop
      vertex 1.1934 1.73063 0.776457
      vertex 1.36354 1.97736 1.5
      vertex 0.940795 2.21 1.5
    endloop
  endfacet
  facet normal -0.478043 -0.868682 0.129872
    outer loop
      vertex 1.13537 1.64648 0
      vertex 0.823406 1.93424 0.776457
      vertex 0.783367 1.84019 0
    endloop
  endfacet
  facet normal -0.478041 -0.868683 0.129872
    outer loop
      vertex 1.13537 1.64648 0
      vertex 1.1934 1.73063 0.776457
      vertex 0.823406 1.93424 0.776457
    endloop
  endfacet
  facet normal 0.642022 0.755605 0.129883
    outer loop
      vertex 5.69255 5.47445 0.776457
      vertex 4.5415 6.58594 0
      vertex 4.48347 6.50178 0.776457
    endloop
  endfacet
  facet normal 0.642027 0.755602 0.129871
    outer loop
      vertex 5.69255 5.47445 0.776457
      vertex 5.76623 5.5453 0
      vertex 4.5415 6.58594 0
    endloop
  endfacet
  facet normal 0.598666 0.70457 0.381026
    outer loop
      vertex 5.47653 5.2667 1.5
      vertex 4.48347 6.50178 0.776457
      vertex 4.31333 6.25506 1.5
    endloop
  endfacet
  facet normal 0.598658 0.70457 0.381037
    outer loop
      vertex 5.47653 5.2667 1.5
      vertex 5.69255 5.47445 0.776457
      vertex 4.48347 6.50178 0.776457
    endloop
  endfacet
  facet normal 0.514664 0.605714 0.606821
    outer loop
      vertex 5.1329 4.93623 2.12132
      vertex 4.31333 6.25506 1.5
      vertex 4.04268 5.86257 2.12132
    endloop
  endfacet
  facet normal 0.51467 0.605715 0.606815
    outer loop
      vertex 5.1329 4.93623 2.12132
      vertex 5.47653 5.2667 1.5
      vertex 4.31333 6.25506 1.5
    endloop
  endfacet
  facet normal 0.395438 0.465396 0.791856
    outer loop
      vertex 4.68506 4.50556 2.59808
      vertex 4.04268 5.86257 2.12132
      vertex 3.68997 5.35107 2.59808
    endloop
  endfacet
  facet normal 0.395438 0.465396 0.791856
    outer loop
      vertex 4.68506 4.50556 2.59808
      vertex 5.1329 4.93623 2.12132
      vertex 4.04268 5.86257 2.12132
    endloop
  endfacet
  facet normal 0.248863 0.29289 0.923191
    outer loop
      vertex 4.16355 4.00402 2.89778
      vertex 3.68997 5.35107 2.59808
      vertex 3.27922 4.75542 2.89778
    endloop
  endfacet
  facet normal 0.248863 0.29289 0.923192
    outer loop
      vertex 4.16355 4.00402 2.89778
      vertex 4.68506 4.50556 2.59808
      vertex 3.68997 5.35107 2.59808
    endloop
  endfacet
  facet normal 0.0849371 0.099963 0.991359
    outer loop
      vertex 3.60389 3.46581 3
      vertex 3.27922 4.75542 2.89778
      vertex 2.83843 4.11621 3
    endloop
  endfacet
  facet normal 0.0849368 0.0999629 0.991359
    outer loop
      vertex 3.60389 3.46581 3
      vertex 4.16355 4.00402 2.89778
      vertex 3.27922 4.75542 2.89778
    endloop
  endfacet
  facet normal -0.0849362 -0.0999634 0.991359
    outer loop
      vertex 3.04424 2.9276 2.89778
      vertex 2.83843 4.11621 3
      vertex 2.39765 3.47699 2.89778
    endloop
  endfacet
  facet normal -0.0849376 -0.0999636 0.991359
    outer loop
      vertex 3.04424 2.9276 2.89778
      vertex 3.60389 3.46581 3
      vertex 2.83843 4.11621 3
    endloop
  endfacet
  facet normal -0.248861 -0.292892 0.923192
    outer loop
      vertex 2.52272 2.42607 2.59808
      vertex 2.39765 3.47699 2.89778
      vertex 1.9869 2.88134 2.59808
    endloop
  endfacet
  facet normal -0.248862 -0.292892 0.923191
    outer loop
      vertex 2.52272 2.42607 2.59808
      vertex 3.04424 2.9276 2.89778
      vertex 2.39765 3.47699 2.89778
    endloop
  endfacet
  facet normal -0.395435 -0.465398 0.791856
    outer loop
      vertex 2.07489 1.99539 2.12132
      vertex 1.9869 2.88134 2.59808
      vertex 1.63419 2.36984 2.12132
    endloop
  endfacet
  facet normal -0.395435 -0.465398 0.791856
    outer loop
      vertex 2.07489 1.99539 2.12132
      vertex 2.52272 2.42607 2.59808
      vertex 1.9869 2.88134 2.59808
    endloop
  endfacet
  facet normal -0.51467 -0.605714 0.606815
    outer loop
      vertex 1.73125 1.66492 1.5
      vertex 1.63419 2.36984 2.12132
      vertex 1.36354 1.97736 1.5
    endloop
  endfacet
  facet normal -0.514661 -0.605718 0.60682
    outer loop
      vertex 1.73125 1.66492 1.5
      vertex 2.07489 1.99539 2.12132
      vertex 1.63419 2.36984 2.12132
    endloop
  endfacet
  facet normal -0.598656 -0.704573 0.381034
    outer loop
      vertex 1.51523 1.45718 0.776457
      vertex 1.36354 1.97736 1.5
      vertex 1.1934 1.73063 0.776457
    endloop
  endfacet
  facet normal -0.598666 -0.704568 0.381029
    outer loop
      vertex 1.51523 1.45718 0.776457
      vertex 1.73125 1.66492 1.5
      vertex 1.36354 1.97736 1.5
    endloop
  endfacet
  facet normal -0.64203 -0.755599 0.129873
    outer loop
      vertex 1.44155 1.38632 0
      vertex 1.1934 1.73063 0.776457
      vertex 1.13537 1.64648 0
    endloop
  endfacet
  facet normal -0.642019 -0.755608 0.12988
    outer loop
      vertex 1.44155 1.38632 0
      vertex 1.51523 1.45718 0.776457
      vertex 1.1934 1.73063 0.776457
    endloop
  endfacet
  facet normal 0.780099 0.612028 0.129872
    outer loop
      vertex 6.67189 4.22617 0.776457
      vertex 5.76623 5.5453 0
      vertex 5.69255 5.47445 0.776457
    endloop
  endfacet
  facet normal 0.780095 0.612031 0.129881
    outer loop
      vertex 6.67189 4.22617 0.776457
      vertex 6.75825 4.28087 0
      vertex 5.76623 5.5453 0
    endloop
  endfacet
  facet normal 0.727406 0.570695 0.381036
    outer loop
      vertex 6.41871 4.0658 1.5
      vertex 5.69255 5.47445 0.776457
      vertex 5.47653 5.2667 1.5
    endloop
  endfacet
  facet normal 0.727413 0.570693 0.381026
    outer loop
      vertex 6.41871 4.0658 1.5
      vertex 6.67189 4.22617 0.776457
      vertex 5.69255 5.47445 0.776457
    endloop
  endfacet
  facet normal 0.625351 0.490624 0.606815
    outer loop
      vertex 6.01596 3.81068 2.12132
      vertex 5.47653 5.2667 1.5
      vertex 5.1329 4.93623 2.12132
    endloop
  endfacet
  facet normal 0.625349 0.490625 0.606817
    outer loop
      vertex 6.01596 3.81068 2.12132
      vertex 6.41871 4.0658 1.5
      vertex 5.47653 5.2667 1.5
    endloop
  endfacet
  facet normal 0.480479 0.376966 0.791857
    outer loop
      vertex 5.49108 3.47821 2.59808
      vertex 5.1329 4.93623 2.12132
      vertex 4.68506 4.50556 2.59808
    endloop
  endfacet
  facet normal 0.480481 0.376966 0.791855
    outer loop
      vertex 5.49108 3.47821 2.59808
      vertex 6.01596 3.81068 2.12132
      vertex 5.1329 4.93623 2.12132
    endloop
  endfacet
  facet normal 0.302385 0.237237 0.923191
    outer loop
      vertex 4.87984 3.09103 2.89778
      vertex 4.68506 4.50556 2.59808
      vertex 4.16355 4.00402 2.89778
    endloop
  endfacet
  facet normal 0.302381 0.237237 0.923192
    outer loop
      vertex 4.87984 3.09103 2.89778
      vertex 5.49108 3.47821 2.59808
      vertex 4.68506 4.50556 2.59808
    endloop
  endfacet
  facet normal 0.103203 0.0809685 0.991359
    outer loop
      vertex 4.2239 2.67554 3
      vertex 4.16355 4.00402 2.89778
      vertex 3.60389 3.46581 3
    endloop
  endfacet
  facet normal 0.103203 0.0809685 0.991359
    outer loop
      vertex 4.2239 2.67554 3
      vertex 4.87984 3.09103 2.89778
      vertex 4.16355 4.00402 2.89778
    endloop
  endfacet
  facet normal -0.103205 -0.0809685 0.991359
    outer loop
      vertex 3.56796 2.26005 2.89778
      vertex 3.60389 3.46581 3
      vertex 3.04424 2.9276 2.89778
    endloop
  endfacet
  facet normal -0.103203 -0.0809686 0.991359
    outer loop
      vertex 4.2239 2.67554 3
      vertex 3.60389 3.46581 3
      vertex 3.56796 2.26005 2.89778
    endloop
  endfacet
  facet normal -0.302383 -0.237237 0.923192
    outer loop
      vertex 2.95673 1.87288 2.59808
      vertex 3.04424 2.9276 2.89778
      vertex 2.52272 2.42607 2.59808
    endloop
  endfacet
  facet normal -0.302389 -0.237236 0.92319
    outer loop
      vertex 3.56796 2.26005 2.89778
      vertex 3.04424 2.9276 2.89778
      vertex 2.95673 1.87288 2.59808
    endloop
  endfacet
  facet normal -0.480484 -0.376961 0.791855
    outer loop
      vertex 2.43185 1.5404 2.12132
      vertex 2.52272 2.42607 2.59808
      vertex 2.07489 1.99539 2.12132
    endloop
  endfacet
  facet normal -0.480478 -0.376963 0.791858
    outer loop
      vertex 2.95673 1.87288 2.59808
      vertex 2.52272 2.42607 2.59808
      vertex 2.43185 1.5404 2.12132
    endloop
  endfacet
  facet normal -0.625349 -0.490619 0.606821
    outer loop
      vertex 2.02909 1.28529 1.5
      vertex 2.07489 1.99539 2.12132
      vertex 1.73125 1.66492 1.5
    endloop
  endfacet
  facet normal -0.625353 -0.490617 0.606818
    outer loop
      vertex 2.43185 1.5404 2.12132
      vertex 2.07489 1.99539 2.12132
      vertex 2.02909 1.28529 1.5
    endloop
  endfacet
  facet normal -0.727415 -0.570688 0.381029
    outer loop
      vertex 1.77591 1.12491 0.776457
      vertex 1.73125 1.66492 1.5
      vertex 1.51523 1.45718 0.776457
    endloop
  endfacet
  facet normal -0.72741 -0.570692 0.381032
    outer loop
      vertex 1.77591 1.12491 0.776457
      vertex 2.02909 1.28529 1.5
      vertex 1.73125 1.66492 1.5
    endloop
  endfacet
  facet normal -0.780104 -0.61202 0.129879
    outer loop
      vertex 1.68955 1.07021 0
      vertex 1.51523 1.45718 0.776457
      vertex 1.44155 1.38632 0
    endloop
  endfacet
  facet normal -0.780102 -0.612023 0.129881
    outer loop
      vertex 1.68955 1.07021 0
      vertex 1.77591 1.12491 0.776457
      vertex 1.51523 1.45718 0.776457
    endloop
  endfacet
  facet normal 0.886685 0.443758 0.129882
    outer loop
      vertex 7.38197 2.80734 0.776457
      vertex 6.75825 4.28087 0
      vertex 6.67189 4.22617 0.776457
    endloop
  endfacet
  facet normal 0.886686 0.443756 0.129878
    outer loop
      vertex 7.38197 2.80734 0.776457
      vertex 7.47752 2.84367 0
      vertex 6.75825 4.28087 0
    endloop
  endfacet
  facet normal 0.826799 0.41379 0.381026
    outer loop
      vertex 7.10185 2.70081 1.5
      vertex 6.67189 4.22617 0.776457
      vertex 6.41871 4.0658 1.5
    endloop
  endfacet
  facet normal 0.826802 0.413789 0.381021
    outer loop
      vertex 7.10185 2.70081 1.5
      vertex 7.38197 2.80734 0.776457
      vertex 6.67189 4.22617 0.776457
    endloop
  endfacet
  facet normal 0.710795 0.355731 0.606816
    outer loop
      vertex 6.65623 2.53134 2.12132
      vertex 6.41871 4.0658 1.5
      vertex 6.01596 3.81068 2.12132
    endloop
  endfacet
  facet normal 0.710792 0.355732 0.606819
    outer loop
      vertex 6.65623 2.53134 2.12132
      vertex 7.10185 2.70081 1.5
      vertex 6.41871 4.0658 1.5
    endloop
  endfacet
  facet normal 0.546134 0.273317 0.791855
    outer loop
      vertex 6.07548 2.31048 2.59808
      vertex 6.01596 3.81068 2.12132
      vertex 5.49108 3.47821 2.59808
    endloop
  endfacet
  facet normal 0.546126 0.273319 0.791861
    outer loop
      vertex 6.07548 2.31048 2.59808
      vertex 6.65623 2.53134 2.12132
      vertex 6.01596 3.81068 2.12132
    endloop
  endfacet
  facet normal 0.343699 0.172008 0.923192
    outer loop
      vertex 5.39919 2.05329 2.89778
      vertex 5.49108 3.47821 2.59808
      vertex 4.87984 3.09103 2.89778
    endloop
  endfacet
  facet normal 0.343701 0.172008 0.923192
    outer loop
      vertex 6.07548 2.31048 2.59808
      vertex 5.49108 3.47821 2.59808
      vertex 5.39919 2.05329 2.89778
    endloop
  endfacet
  facet normal 0.117304 0.0587075 0.991359
    outer loop
      vertex 4.67345 1.77729 3
      vertex 4.87984 3.09103 2.89778
      vertex 4.2239 2.67554 3
    endloop
  endfacet
  facet normal 0.117306 0.0587072 0.991359
    outer loop
      vertex 5.39919 2.05329 2.89778
      vertex 4.87984 3.09103 2.89778
      vertex 4.67345 1.77729 3
    endloop
  endfacet
  facet normal -0.117304 -0.0587082 0.991359
    outer loop
      vertex 3.9477 1.5013 2.89778
      vertex 4.2239 2.67554 3
      vertex 3.56796 2.26005 2.89778
    endloop
  endfacet
  facet normal -0.117305 -0.0587079 0.991359
    outer loop
      vertex 4.67345 1.77729 3
      vertex 4.2239 2.67554 3
      vertex 3.9477 1.5013 2.89778
    endloop
  endfacet
  facet normal -0.343705 -0.172011 0.92319
    outer loop
      vertex 3.27141 1.2441 2.59808
      vertex 3.56796 2.26005 2.89778
      vertex 2.95673 1.87288 2.59808
    endloop
  endfacet
  facet normal -0.343697 -0.172014 0.923192
    outer loop
      vertex 3.9477 1.5013 2.89778
      vertex 3.56796 2.26005 2.89778
      vertex 3.27141 1.2441 2.59808
    endloop
  endfacet
  facet normal -0.546128 -0.273323 0.791858
    outer loop
      vertex 2.69067 1.02325 2.12132
      vertex 2.95673 1.87288 2.59808
      vertex 2.43185 1.5404 2.12132
    endloop
  endfacet
  facet normal -0.546134 -0.273319 0.791855
    outer loop
      vertex 3.27141 1.2441 2.59808
      vertex 2.95673 1.87288 2.59808
      vertex 2.69067 1.02325 2.12132
    endloop
  endfacet
  facet normal -0.71079 -0.355735 0.60682
    outer loop
      vertex 2.24505 0.853783 1.5
      vertex 2.43185 1.5404 2.12132
      vertex 2.02909 1.28529 1.5
    endloop
  endfacet
  facet normal -0.710792 -0.355733 0.606818
    outer loop
      vertex 2.69067 1.02325 2.12132
      vertex 2.43185 1.5404 2.12132
      vertex 2.24505 0.853783 1.5
    endloop
  endfacet
  facet normal -0.826796 -0.413793 0.381031
    outer loop
      vertex 1.96492 0.747251 0.776457
      vertex 2.02909 1.28529 1.5
      vertex 1.77591 1.12491 0.776457
    endloop
  endfacet
  facet normal -0.826795 -0.413793 0.381031
    outer loop
      vertex 2.24505 0.853783 1.5
      vertex 2.02909 1.28529 1.5
      vertex 1.96492 0.747251 0.776457
    endloop
  endfacet
  facet normal -0.886681 -0.443766 0.129882
    outer loop
      vertex 1.86937 0.710915 0
      vertex 1.77591 1.12491 0.776457
      vertex 1.68955 1.07021 0
    endloop
  endfacet
  facet normal -0.886681 -0.443765 0.129881
    outer loop
      vertex 1.86937 0.710915 0
      vertex 1.96492 0.747251 0.776457
      vertex 1.77591 1.12491 0.776457
    endloop
  endfacet
  facet normal 0.957488 0.257581 0.12988
    outer loop
      vertex 7.79414 1.27521 0.776457
      vertex 7.47752 2.84367 0
      vertex 7.38197 2.80734 0.776457
    endloop
  endfacet
  facet normal 0.957489 0.257579 0.129874
    outer loop
      vertex 7.79414 1.27521 0.776457
      vertex 7.89502 1.29171 0
      vertex 7.47752 2.84367 0
    endloop
  endfacet
  facet normal 0.892825 0.24018 0.38102
    outer loop
      vertex 7.49837 1.22682 1.5
      vertex 7.38197 2.80734 0.776457
      vertex 7.10185 2.70081 1.5
    endloop
  endfacet
  facet normal 0.89282 0.240184 0.38103
    outer loop
      vertex 7.49837 1.22682 1.5
      vertex 7.79414 1.27521 0.776457
      vertex 7.38197 2.80734 0.776457
    endloop
  endfacet
  facet normal 0.767552 0.206481 0.606819
    outer loop
      vertex 7.02787 1.14984 2.12132
      vertex 7.10185 2.70081 1.5
      vertex 6.65623 2.53134 2.12132
    endloop
  endfacet
  facet normal 0.767553 0.20648 0.606818
    outer loop
      vertex 7.49837 1.22682 1.5
      vertex 7.10185 2.70081 1.5
      vertex 7.02787 1.14984 2.12132
    endloop
  endfacet
  facet normal 0.589735 0.158649 0.791861
    outer loop
      vertex 6.4147 1.04952 2.59808
      vertex 6.65623 2.53134 2.12132
      vertex 6.07548 2.31048 2.59808
    endloop
  endfacet
  facet normal 0.589739 0.158647 0.791858
    outer loop
      vertex 7.02787 1.14984 2.12132
      vertex 6.65623 2.53134 2.12132
      vertex 6.4147 1.04952 2.59808
    endloop
  endfacet
  facet normal 0.371145 0.0998441 0.923192
    outer loop
      vertex 5.70065 0.93269 2.89778
      vertex 6.07548 2.31048 2.59808
      vertex 5.39919 2.05329 2.89778
    endloop
  endfacet
  facet normal 0.371145 0.0998443 0.923192
    outer loop
      vertex 6.4147 1.04952 2.59808
      vertex 6.07548 2.31048 2.59808
      vertex 5.70065 0.93269 2.89778
    endloop
  endfacet
  facet normal 0.126673 0.0340761 0.991359
    outer loop
      vertex 4.93438 0.807319 3
      vertex 5.39919 2.05329 2.89778
      vertex 4.67345 1.77729 3
    endloop
  endfacet
  facet normal 0.126671 0.0340767 0.991359
    outer loop
      vertex 5.70065 0.93269 2.89778
      vertex 5.39919 2.05329 2.89778
      vertex 4.93438 0.807319 3
    endloop
  endfacet
  facet normal -0.126672 -0.0340755 0.991359
    outer loop
      vertex 4.16811 0.681949 2.89778
      vertex 4.67345 1.77729 3
      vertex 3.9477 1.5013 2.89778
    endloop
  endfacet
  facet normal -0.126672 -0.0340757 0.991359
    outer loop
      vertex 4.93438 0.807319 3
      vertex 4.67345 1.77729 3
      vertex 4.16811 0.681949 2.89778
    endloop
  endfacet
  facet normal -0.371145 -0.0998408 0.923192
    outer loop
      vertex 3.45406 0.565123 2.59808
      vertex 3.9477 1.5013 2.89778
      vertex 3.27141 1.2441 2.59808
    endloop
  endfacet
  facet normal -0.371146 -0.0998403 0.923192
    outer loop
      vertex 4.16811 0.681949 2.89778
      vertex 3.9477 1.5013 2.89778
      vertex 3.45406 0.565123 2.59808
    endloop
  endfacet
  facet normal -0.589746 -0.158639 0.791854
    outer loop
      vertex 2.84089 0.464802 2.12132
      vertex 3.27141 1.2441 2.59808
      vertex 2.69067 1.02325 2.12132
    endloop
  endfacet
  facet normal -0.58974 -0.158645 0.791858
    outer loop
      vertex 3.45406 0.565123 2.59808
      vertex 3.27141 1.2441 2.59808
      vertex 2.84089 0.464802 2.12132
    endloop
  endfacet
  facet normal -0.767557 -0.206467 0.606818
    outer loop
      vertex 2.37039 0.387822 1.5
      vertex 2.69067 1.02325 2.12132
      vertex 2.24505 0.853783 1.5
    endloop
  endfacet
  facet normal -0.767555 -0.206469 0.606819
    outer loop
      vertex 2.84089 0.464802 2.12132
      vertex 2.69067 1.02325 2.12132
      vertex 2.37039 0.387822 1.5
    endloop
  endfacet
  facet normal -0.89282 -0.240183 0.381032
    outer loop
      vertex 2.07463 0.339432 0.776457
      vertex 2.24505 0.853783 1.5
      vertex 1.96492 0.747251 0.776457
    endloop
  endfacet
  facet normal -0.892829 -0.240164 0.381021
    outer loop
      vertex 2.37039 0.387822 1.5
      vertex 2.24505 0.853783 1.5
      vertex 2.07463 0.339432 0.776457
    endloop
  endfacet
  facet normal -0.957485 -0.257591 0.129882
    outer loop
      vertex 1.97375 0.322927 0
      vertex 1.96492 0.747251 0.776457
      vertex 1.86937 0.710915 0
    endloop
  endfacet
  facet normal -0.957489 -0.25758 0.129876
    outer loop
      vertex 1.97375 0.322927 0
      vertex 2.07463 0.339432 0.776457
      vertex 1.96492 0.747251 0.776457
    endloop
  endfacet
  facet normal -0.0848282 -0.9879 -0.129836
    outer loop
      vertex 1.30073 6.80871 0.517637
      vertex 1.53664e-15 6.9204 0.517637
      vertex 1.55045e-15 6.98259 0.0444431
    endloop
  endfacet
  facet normal -0.0848297 -0.987903 -0.129814
    outer loop
      vertex 1.31352 6.87564 0
      vertex 1.55045e-15 6.98259 0.0444431
      vertex 1.55174e-15 6.98843 0
    endloop
  endfacet
  facet normal -0.0848301 -0.987901 -0.129831
    outer loop
      vertex 1.55045e-15 6.98259 0.0444431
      vertex 1.31352 6.87564 0
      vertex 1.30073 6.80871 0.517637
    endloop
  endfacet
  facet normal -0.0790935 -0.921206 -0.380951
    outer loop
      vertex 1.26324 6.61246 0.999999
      vertex 1.49235e-15 6.72092 0.999999
      vertex 1.53277e-15 6.90296 0.559794
    endloop
  endfacet
  facet normal -0.079097 -0.921155 -0.381074
    outer loop
      vertex 1.30073 6.80871 0.517637
      vertex 1.53277e-15 6.90296 0.559794
      vertex 1.53664e-15 6.9204 0.517637
    endloop
  endfacet
  facet normal -0.0790966 -0.921209 -0.380943
    outer loop
      vertex 1.53277e-15 6.90296 0.559794
      vertex 1.30073 6.80871 0.517637
      vertex 1.26324 6.61246 0.999999
    endloop
  endfacet
  facet normal -0.068006 -0.791989 -0.606736
    outer loop
      vertex 1.2036 6.30026 1.41421
      vertex 1.42189e-15 6.40361 1.41421
      vertex 1.48608e-15 6.69271 1.03684
    endloop
  endfacet
  facet normal -0.0680111 -0.79213 -0.606552
    outer loop
      vertex 1.26324 6.61246 0.999999
      vertex 1.48608e-15 6.69271 1.03684
      vertex 1.49235e-15 6.72092 0.999999
    endloop
  endfacet
  facet normal -0.0680076 -0.791991 -0.606733
    outer loop
      vertex 1.48608e-15 6.69271 1.03684
      vertex 1.26324 6.61246 0.999999
      vertex 1.2036 6.30026 1.41421
    endloop
  endfacet
  facet normal -0.0522524 -0.608559 -0.791786
    outer loop
      vertex 1.12587 5.89341 1.73205
      vertex 1.33007e-15 5.99008 1.73205
      vertex 1.41358e-15 6.36621 1.44296
    endloop
  endfacet
  facet normal -0.0522589 -0.60857 -0.791778
    outer loop
      vertex 1.41358e-15 6.36621 1.44296
      vertex 1.2036 6.30026 1.41421
      vertex 1.12587 5.89341 1.73205
    endloop
  endfacet
  facet normal -0.0522608 -0.608622 -0.791738
    outer loop
      vertex 1.2036 6.30026 1.41421
      vertex 1.41358e-15 6.36621 1.44296
      vertex 1.42189e-15 6.40361 1.41421
    endloop
  endfacet
  facet normal -0.0328913 -0.38302 -0.923154
    outer loop
      vertex 1.03536 5.41961 1.93185
      vertex 1.22314e-15 5.50852 1.93185
      vertex 1.32024e-15 5.94585 1.7504
    endloop
  endfacet
  facet normal -0.0328857 -0.383011 -0.923158
    outer loop
      vertex 1.32024e-15 5.94585 1.7504
      vertex 1.12587 5.89341 1.73205
      vertex 1.03536 5.41961 1.93185
    endloop
  endfacet
  facet normal -0.0328852 -0.382999 -0.923163
    outer loop
      vertex 1.12587 5.89341 1.73205
      vertex 1.32024e-15 5.94585 1.7504
      vertex 1.33007e-15 5.99008 1.73205
    endloop
  endfacet
  facet normal -0.0112259 -0.130741 -0.991353
    outer loop
      vertex 0.938228 4.91117 2
      vertex 1.10839e-15 4.99173 2
      vertex 1.21246e-15 5.46041 1.93819
    endloop
  endfacet
  facet normal -0.0112223 -0.130735 -0.991354
    outer loop
      vertex 1.21246e-15 5.46041 1.93819
      vertex 1.03536 5.41961 1.93185
      vertex 0.938228 4.91117 2
    endloop
  endfacet
  facet normal -0.0112188 -0.130644 -0.991366
    outer loop
      vertex 1.03536 5.41961 1.93185
      vertex 1.21246e-15 5.46041 1.93819
      vertex 1.22314e-15 5.50852 1.93185
    endloop
  endfacet
  facet normal 0.0112245 0.130724 -0.991355
    outer loop
      vertex 0.841095 4.40273 1.93185
      vertex 9.93638e-16 4.47495 1.93185
      vertex 1.0976e-15 4.94316 1.99359
    endloop
  endfacet
  facet normal 0.0112305 0.130733 -0.991354
    outer loop
      vertex 1.0976e-15 4.94316 1.99359
      vertex 0.938228 4.91117 2
      vertex 0.841095 4.40273 1.93185
    endloop
  endfacet
  facet normal 0.0112337 0.130832 -0.991341
    outer loop
      vertex 0.938228 4.91117 2
      vertex 1.0976e-15 4.94316 1.99359
      vertex 1.10839e-15 4.99173 2
    endloop
  endfacet
  facet normal 0.0328824 0.383006 -0.92316
    outer loop
      vertex 0.750582 3.92894 1.73205
      vertex 8.86709e-16 3.99338 1.73205
      vertex 9.83546e-16 4.4295 1.91299
    endloop
  endfacet
  facet normal 0.0328905 0.383017 -0.923156
    outer loop
      vertex 9.83546e-16 4.4295 1.91299
      vertex 0.841095 4.40273 1.93185
      vertex 0.750582 3.92894 1.73205
    endloop
  endfacet
  facet normal 0.0328916 0.383066 -0.923135
    outer loop
      vertex 0.841095 4.40273 1.93185
      vertex 9.83546e-16 4.4295 1.91299
      vertex 9.93638e-16 4.47495 1.93185
    endloop
  endfacet
  facet normal 0.0522496 0.608559 -0.791786
    outer loop
      vertex 0.672856 3.52208 1.41421
      vertex 7.94887e-16 3.57985 1.41421
      vertex 8.78078e-16 3.95451 1.70217
    endloop
  endfacet
  facet normal 0.052252 0.608562 -0.791784
    outer loop
      vertex 8.78078e-16 3.95451 1.70217
      vertex 0.750582 3.92894 1.73205
      vertex 0.672856 3.52208 1.41421
    endloop
  endfacet
  facet normal 0.0522522 0.608622 -0.791738
    outer loop
      vertex 0.750582 3.92894 1.73205
      vertex 8.78078e-16 3.95451 1.70217
      vertex 8.86709e-16 3.99338 1.73205
    endloop
  endfacet
  facet normal 0.0680006 0.792003 -0.606718
    outer loop
      vertex 0.613215 3.20989 0.999999
      vertex 7.2443e-16 3.26254 0.999999
      vertex 7.88363e-16 3.55047 1.37586
    endloop
  endfacet
  facet normal 0.0679982 0.791986 -0.606741
    outer loop
      vertex 0.672856 3.52208 1.41421
      vertex 7.88363e-16 3.55047 1.37586
      vertex 7.94887e-16 3.57985 1.41421
    endloop
  endfacet
  facet normal 0.0679977 0.792001 -0.606721
    outer loop
      vertex 7.88363e-16 3.55047 1.37586
      vertex 0.672856 3.52208 1.41421
      vertex 0.613215 3.20989 0.999999
    endloop
  endfacet
  facet normal 0.0790924 0.921209 -0.380943
    outer loop
      vertex 0.575724 3.01364 0.517637
      vertex 6.80138e-16 3.06307 0.517637
      vertex 7.20438e-16 3.24456 0.956522
    endloop
  endfacet
  facet normal 0.0790933 0.921201 -0.380964
    outer loop
      vertex 0.613215 3.20989 0.999999
      vertex 7.20438e-16 3.24456 0.956522
      vertex 7.2443e-16 3.26254 0.999999
    endloop
  endfacet
  facet normal 0.0790923 0.921209 -0.380943
    outer loop
      vertex 7.20438e-16 3.24456 0.956522
      vertex 0.613215 3.20989 0.999999
      vertex 0.575724 3.01364 0.517637
    endloop
  endfacet
  facet normal 0.0848322 0.9879 -0.129832
    outer loop
      vertex 0.562936 2.9467 0
      vertex 6.65031e-16 2.99504 0
      vertex 6.78826e-16 3.05716 0.472677
    endloop
  endfacet
  facet normal 0.0848181 0.987898 -0.129859
    outer loop
      vertex 0.575724 3.01364 0.517637
      vertex 6.78826e-16 3.05716 0.472677
      vertex 6.80138e-16 3.06307 0.517637
    endloop
  endfacet
  facet normal 0.0848174 0.987899 -0.129849
    outer loop
      vertex 6.78826e-16 3.05716 0.472677
      vertex 0.575724 3.01364 0.517637
      vertex 0.562936 2.9467 0
    endloop
  endfacet
  facet normal -0.285313 -0.9496 -0.129832
    outer loop
      vertex 2.66732 6.39811 0.517637
      vertex 1.30073 6.80871 0.517637
      vertex 1.31352 6.87564 0
    endloop
  endfacet
  facet normal -0.285307 -0.9496 -0.129847
    outer loop
      vertex 2.66732 6.39811 0.517637
      vertex 1.31352 6.87564 0
      vertex 2.69355 6.46101 0
    endloop
  endfacet
  facet normal -0.266055 -0.885493 -0.380943
    outer loop
      vertex 2.59044 6.21369 0.999999
      vertex 1.26324 6.61246 0.999999
      vertex 1.30073 6.80871 0.517637
    endloop
  endfacet
  facet normal -0.266051 -0.885491 -0.380951
    outer loop
      vertex 2.59044 6.21369 0.999999
      vertex 1.30073 6.80871 0.517637
      vertex 2.66732 6.39811 0.517637
    endloop
  endfacet
  facet normal -0.228728 -0.761288 -0.606733
    outer loop
      vertex 2.46814 5.92033 1.41421
      vertex 1.2036 6.30026 1.41421
      vertex 1.26324 6.61246 0.999999
    endloop
  endfacet
  facet normal -0.228739 -0.761297 -0.606717
    outer loop
      vertex 2.46814 5.92033 1.41421
      vertex 1.26324 6.61246 0.999999
      vertex 2.59044 6.21369 0.999999
    endloop
  endfacet
  facet normal -0.175758 -0.584975 -0.791778
    outer loop
      vertex 2.30875 5.53801 1.73205
      vertex 1.12587 5.89341 1.73205
      vertex 1.2036 6.30026 1.41421
    endloop
  endfacet
  facet normal -0.175754 -0.584972 -0.791782
    outer loop
      vertex 2.30875 5.53801 1.73205
      vertex 1.2036 6.30026 1.41421
      vertex 2.46814 5.92033 1.41421
    endloop
  endfacet
  facet normal -0.110616 -0.368162 -0.923158
    outer loop
      vertex 2.12314 5.09278 1.93185
      vertex 1.03536 5.41961 1.93185
      vertex 1.12587 5.89341 1.73205
    endloop
  endfacet
  facet normal -0.110615 -0.36816 -0.923159
    outer loop
      vertex 2.12314 5.09278 1.93185
      vertex 1.12587 5.89341 1.73205
      vertex 2.30875 5.53801 1.73205
    endloop
  endfacet
  facet normal -0.0377571 -0.125665 -0.991354
    outer loop
      vertex 1.92396 4.615 2
      vertex 0.938228 4.91117 2
      vertex 1.03536 5.41961 1.93185
    endloop
  endfacet
  facet normal -0.0377569 -0.125665 -0.991354
    outer loop
      vertex 1.92396 4.615 2
      vertex 1.03536 5.41961 1.93185
      vertex 2.12314 5.09278 1.93185
    endloop
  endfacet
  facet normal 0.0377571 0.125665 -0.991354
    outer loop
      vertex 1.72478 4.13722 1.93185
      vertex 0.841095 4.40273 1.93185
      vertex 0.938228 4.91117 2
    endloop
  endfacet
  facet normal 0.037757 0.125665 -0.991354
    outer loop
      vertex 1.72478 4.13722 1.93185
      vertex 0.938228 4.91117 2
      vertex 1.92396 4.615 2
    endloop
  endfacet
  facet normal 0.11062 0.368167 -0.923156
    outer loop
      vertex 1.53917 3.692 1.73205
      vertex 0.750582 3.92894 1.73205
      vertex 0.841095 4.40273 1.93185
    endloop
  endfacet
  facet normal 0.110618 0.368166 -0.923156
    outer loop
      vertex 1.53917 3.692 1.73205
      vertex 0.841095 4.40273 1.93185
      vertex 1.72478 4.13722 1.93185
    endloop
  endfacet
  facet normal 0.175757 0.584967 -0.791784
    outer loop
      vertex 1.37978 3.30968 1.41421
      vertex 0.672856 3.52208 1.41421
      vertex 0.750582 3.92894 1.73205
    endloop
  endfacet
  facet normal 0.175761 0.58497 -0.791782
    outer loop
      vertex 1.37978 3.30968 1.41421
      vertex 0.750582 3.92894 1.73205
      vertex 1.53917 3.692 1.73205
    endloop
  endfacet
  facet normal 0.228732 0.761296 -0.606721
    outer loop
      vertex 1.25748 3.01632 0.999999
      vertex 0.613215 3.20989 0.999999
      vertex 0.672856 3.52208 1.41421
    endloop
  endfacet
  facet normal 0.228737 0.761298 -0.606717
    outer loop
      vertex 1.25748 3.01632 0.999999
      vertex 0.672856 3.52208 1.41421
      vertex 1.37978 3.30968 1.41421
    endloop
  endfacet
  facet normal 0.266054 0.885493 -0.380943
    outer loop
      vertex 1.1806 2.8319 0.517637
      vertex 0.575724 3.01364 0.517637
      vertex 0.613215 3.20989 0.999999
    endloop
  endfacet
  facet normal 0.266047 0.885492 -0.380951
    outer loop
      vertex 1.1806 2.8319 0.517637
      vertex 0.613215 3.20989 0.999999
      vertex 1.25748 3.01632 0.999999
    endloop
  endfacet
  facet normal 0.285313 0.949598 -0.129849
    outer loop
      vertex 1.15437 2.769 0
      vertex 0.562936 2.9467 0
      vertex 0.575724 3.01364 0.517637
    endloop
  endfacet
  facet normal 0.285314 0.949598 -0.129847
    outer loop
      vertex 1.15437 2.769 0
      vertex 0.575724 3.01364 0.517637
      vertex 1.1806 2.8319 0.517637
    endloop
  endfacet
  facet normal -0.473705 -0.871058 -0.129849
    outer loop
      vertex 3.92088 5.71639 0.517637
      vertex 2.66732 6.39811 0.517637
      vertex 2.69355 6.46101 0
    endloop
  endfacet
  facet normal -0.473712 -0.871057 -0.129833
    outer loop
      vertex 3.92088 5.71639 0.517637
      vertex 2.69355 6.46101 0
      vertex 3.95943 5.77258 0
    endloop
  endfacet
  facet normal -0.441725 -0.812254 -0.38095
    outer loop
      vertex 3.80787 5.55162 0.999999
      vertex 2.59044 6.21369 0.999999
      vertex 2.66732 6.39811 0.517637
    endloop
  endfacet
  facet normal -0.441726 -0.812254 -0.380948
    outer loop
      vertex 3.80787 5.55162 0.999999
      vertex 2.66732 6.39811 0.517637
      vertex 3.92088 5.71639 0.517637
    endloop
  endfacet
  facet normal -0.379776 -0.69833 -0.606717
    outer loop
      vertex 3.62809 5.28951 1.41421
      vertex 2.46814 5.92033 1.41421
      vertex 2.59044 6.21369 0.999999
    endloop
  endfacet
  facet normal -0.379768 -0.698326 -0.606727
    outer loop
      vertex 3.62809 5.28951 1.41421
      vertex 2.59044 6.21369 0.999999
      vertex 3.80787 5.55162 0.999999
    endloop
  endfacet
  facet normal -0.291811 -0.536588 -0.791782
    outer loop
      vertex 3.3938 4.94793 1.73205
      vertex 2.30875 5.53801 1.73205
      vertex 2.46814 5.92033 1.41421
    endloop
  endfacet
  facet normal -0.291817 -0.536592 -0.791778
    outer loop
      vertex 3.3938 4.94793 1.73205
      vertex 2.46814 5.92033 1.41421
      vertex 3.62809 5.28951 1.41421
    endloop
  endfacet
  facet normal -0.183653 -0.337712 -0.923159
    outer loop
      vertex 3.12096 4.55015 1.93185
      vertex 2.12314 5.09278 1.93185
      vertex 2.30875 5.53801 1.73205
    endloop
  endfacet
  facet normal -0.18366 -0.337717 -0.923156
    outer loop
      vertex 3.12096 4.55015 1.93185
      vertex 2.30875 5.53801 1.73205
      vertex 3.3938 4.94793 1.73205
    endloop
  endfacet
  facet normal -0.0626881 -0.115272 -0.991354
    outer loop
      vertex 2.82816 4.12327 2
      vertex 1.92396 4.615 2
      vertex 2.12314 5.09278 1.93185
    endloop
  endfacet
  facet normal -0.0626856 -0.11527 -0.991354
    outer loop
      vertex 2.82816 4.12327 2
      vertex 2.12314 5.09278 1.93185
      vertex 3.12096 4.55015 1.93185
    endloop
  endfacet
  facet normal 0.0626879 0.115272 -0.991354
    outer loop
      vertex 2.53537 3.6964 1.93185
      vertex 1.72478 4.13722 1.93185
      vertex 1.92396 4.615 2
    endloop
  endfacet
  facet normal 0.0626883 0.115272 -0.991354
    outer loop
      vertex 2.53537 3.6964 1.93185
      vertex 1.92396 4.615 2
      vertex 2.82816 4.12327 2
    endloop
  endfacet
  facet normal 0.183658 0.337716 -0.923156
    outer loop
      vertex 2.26253 3.29862 1.73205
      vertex 1.53917 3.692 1.73205
      vertex 1.72478 4.13722 1.93185
    endloop
  endfacet
  facet normal 0.183659 0.337717 -0.923156
    outer loop
      vertex 2.26253 3.29862 1.73205
      vertex 1.72478 4.13722 1.93185
      vertex 2.53537 3.6964 1.93185
    endloop
  endfacet
  facet normal 0.291811 0.536588 -0.791782
    outer loop
      vertex 2.02824 2.95703 1.41421
      vertex 1.37978 3.30968 1.41421
      vertex 1.53917 3.692 1.73205
    endloop
  endfacet
  facet normal 0.291809 0.536587 -0.791784
    outer loop
      vertex 2.02824 2.95703 1.41421
      vertex 1.53917 3.692 1.73205
      vertex 2.26253 3.29862 1.73205
    endloop
  endfacet
  facet normal 0.379771 0.698333 -0.606717
    outer loop
      vertex 1.84846 2.69493 0.999999
      vertex 1.25748 3.01632 0.999999
      vertex 1.37978 3.30968 1.41421
    endloop
  endfacet
  facet normal 0.379772 0.698333 -0.606716
    outer loop
      vertex 1.84846 2.69493 0.999999
      vertex 1.37978 3.30968 1.41421
      vertex 2.02824 2.95703 1.41421
    endloop
  endfacet
  facet normal 0.441729 0.812252 -0.38095
    outer loop
      vertex 1.73544 2.53016 0.517637
      vertex 1.1806 2.8319 0.517637
      vertex 1.25748 3.01632 0.999999
    endloop
  endfacet
  facet normal 0.441723 0.812252 -0.380955
    outer loop
      vertex 1.73544 2.53016 0.517637
      vertex 1.25748 3.01632 0.999999
      vertex 1.84846 2.69493 0.999999
    endloop
  endfacet
  facet normal 0.473709 0.871056 -0.129849
    outer loop
      vertex 1.69689 2.47396 0
      vertex 1.15437 2.769 0
      vertex 1.1806 2.8319 0.517637
    endloop
  endfacet
  facet normal 0.473709 0.871056 -0.129849
    outer loop
      vertex 1.69689 2.47396 0
      vertex 1.1806 2.8319 0.517637
      vertex 1.73544 2.53016 0.517637
    endloop
  endfacet
  facet normal -0.642026 -0.755609 -0.129836
    outer loop
      vertex 5.0083 4.79243 0.517637
      vertex 3.92088 5.71639 0.517637
      vertex 3.95943 5.77258 0
    endloop
  endfacet
  facet normal -0.642029 -0.755608 -0.129828
    outer loop
      vertex 5.0083 4.79243 0.517637
      vertex 3.95943 5.77258 0
      vertex 5.05753 4.83954 0
    endloop
  endfacet
  facet normal -0.598686 -0.704596 -0.380946
    outer loop
      vertex 4.86394 4.65429 0.999999
      vertex 3.80787 5.55162 0.999999
      vertex 3.92088 5.71639 0.517637
    endloop
  endfacet
  facet normal -0.598681 -0.704595 -0.380955
    outer loop
      vertex 4.86394 4.65429 0.999999
      vertex 3.92088 5.71639 0.517637
      vertex 5.0083 4.79243 0.517637
    endloop
  endfacet
  facet normal -0.514711 -0.605768 -0.606726
    outer loop
      vertex 4.6343 4.43455 1.41421
      vertex 3.62809 5.28951 1.41421
      vertex 3.80787 5.55162 0.999999
    endloop
  endfacet
  facet normal -0.514715 -0.60577 -0.606722
    outer loop
      vertex 4.6343 4.43455 1.41421
      vertex 3.80787 5.55162 0.999999
      vertex 4.86394 4.65429 0.999999
    endloop
  endfacet
  facet normal -0.395505 -0.465472 -0.791778
    outer loop
      vertex 4.33503 4.14818 1.73205
      vertex 3.3938 4.94793 1.73205
      vertex 3.62809 5.28951 1.41421
    endloop
  endfacet
  facet normal -0.395503 -0.465471 -0.791779
    outer loop
      vertex 4.33503 4.14818 1.73205
      vertex 3.62809 5.28951 1.41421
      vertex 4.6343 4.43455 1.41421
    endloop
  endfacet
  facet normal -0.248921 -0.292954 -0.923156
    outer loop
      vertex 3.98652 3.81469 1.93185
      vertex 3.12096 4.55015 1.93185
      vertex 3.3938 4.94793 1.73205
    endloop
  endfacet
  facet normal -0.248917 -0.292952 -0.923157
    outer loop
      vertex 3.98652 3.81469 1.93185
      vertex 3.3938 4.94793 1.73205
      vertex 4.33503 4.14818 1.73205
    endloop
  endfacet
  facet normal -0.0849611 -0.0999911 -0.991354
    outer loop
      vertex 3.61252 3.45681 2
      vertex 2.82816 4.12327 2
      vertex 3.12096 4.55015 1.93185
    endloop
  endfacet
  facet normal -0.0849621 -0.0999915 -0.991354
    outer loop
      vertex 3.61252 3.45681 2
      vertex 3.12096 4.55015 1.93185
      vertex 3.98652 3.81469 1.93185
    endloop
  endfacet
  facet normal 0.0849636 0.0999936 -0.991354
    outer loop
      vertex 3.23852 3.09894 1.93185
      vertex 2.53537 3.6964 1.93185
      vertex 2.82816 4.12327 2
    endloop
  endfacet
  facet normal 0.084963 0.0999933 -0.991354
    outer loop
      vertex 3.23852 3.09894 1.93185
      vertex 2.82816 4.12327 2
      vertex 3.61252 3.45681 2
    endloop
  endfacet
  facet normal 0.248922 0.292953 -0.923156
    outer loop
      vertex 2.89001 2.76545 1.73205
      vertex 2.26253 3.29862 1.73205
      vertex 2.53537 3.6964 1.93185
    endloop
  endfacet
  facet normal 0.248918 0.292951 -0.923157
    outer loop
      vertex 2.89001 2.76545 1.73205
      vertex 2.53537 3.6964 1.93185
      vertex 3.23852 3.09894 1.93185
    endloop
  endfacet
  facet normal 0.395501 0.465466 -0.791783
    outer loop
      vertex 2.59074 2.47908 1.41421
      vertex 2.02824 2.95703 1.41421
      vertex 2.26253 3.29862 1.73205
    endloop
  endfacet
  facet normal 0.395507 0.465467 -0.791779
    outer loop
      vertex 2.59074 2.47908 1.41421
      vertex 2.26253 3.29862 1.73205
      vertex 2.89001 2.76545 1.73205
    endloop
  endfacet
  facet normal 0.514722 0.605769 -0.606717
    outer loop
      vertex 2.3611 2.25934 0.999999
      vertex 1.84846 2.69493 0.999999
      vertex 2.02824 2.95703 1.41421
    endloop
  endfacet
  facet normal 0.514715 0.605769 -0.606722
    outer loop
      vertex 2.3611 2.25934 0.999999
      vertex 2.02824 2.95703 1.41421
      vertex 2.59074 2.47908 1.41421
    endloop
  endfacet
  facet normal 0.598681 0.704595 -0.380957
    outer loop
      vertex 2.21675 2.1212 0.517637
      vertex 1.73544 2.53016 0.517637
      vertex 1.84846 2.69493 0.999999
    endloop
  endfacet
  facet normal 0.598691 0.704592 -0.380945
    outer loop
      vertex 2.21675 2.1212 0.517637
      vertex 1.84846 2.69493 0.999999
      vertex 2.3611 2.25934 0.999999
    endloop
  endfacet
  facet normal 0.642019 0.755613 -0.12985
    outer loop
      vertex 2.16751 2.07409 0
      vertex 1.69689 2.47396 0
      vertex 1.73544 2.53016 0.517637
    endloop
  endfacet
  facet normal 0.642026 0.755608 -0.12984
    outer loop
      vertex 2.16751 2.07409 0
      vertex 1.73544 2.53016 0.517637
      vertex 2.21675 2.1212 0.517637
    endloop
  endfacet
  facet normal -0.783145 -0.608135 -0.129827
    outer loop
      vertex 5.88348 3.66539 0.517637
      vertex 5.0083 4.79243 0.517637
      vertex 5.05753 4.83954 0
    endloop
  endfacet
  facet normal -0.783142 -0.608137 -0.129836
    outer loop
      vertex 5.88348 3.66539 0.517637
      vertex 5.05753 4.83954 0
      vertex 5.94132 3.70142 0
    endloop
  endfacet
  facet normal -0.730272 -0.567077 -0.380955
    outer loop
      vertex 5.71389 3.55974 0.999999
      vertex 4.86394 4.65429 0.999999
      vertex 5.0083 4.79243 0.517637
    endloop
  endfacet
  facet normal -0.730271 -0.567077 -0.380955
    outer loop
      vertex 5.71389 3.55974 0.999999
      vertex 5.0083 4.79243 0.517637
      vertex 5.88348 3.66539 0.517637
    endloop
  endfacet
  facet normal -0.627846 -0.487542 -0.606722
    outer loop
      vertex 5.44413 3.39167 1.41421
      vertex 4.6343 4.43455 1.41421
      vertex 4.86394 4.65429 0.999999
    endloop
  endfacet
  facet normal -0.627849 -0.487543 -0.606719
    outer loop
      vertex 5.44413 3.39167 1.41421
      vertex 4.86394 4.65429 0.999999
      vertex 5.71389 3.55974 0.999999
    endloop
  endfacet
  facet normal -0.482433 -0.374625 -0.791779
    outer loop
      vertex 5.09256 3.17265 1.73205
      vertex 4.33503 4.14818 1.73205
      vertex 4.6343 4.43455 1.41421
    endloop
  endfacet
  facet normal -0.482433 -0.374625 -0.79178
    outer loop
      vertex 5.09256 3.17265 1.73205
      vertex 4.6343 4.43455 1.41421
      vertex 5.44413 3.39167 1.41421
    endloop
  endfacet
  facet normal -0.303628 -0.235778 -0.923157
    outer loop
      vertex 4.68315 2.91759 1.93185
      vertex 3.98652 3.81469 1.93185
      vertex 4.33503 4.14818 1.73205
    endloop
  endfacet
  facet normal -0.30363 -0.235778 -0.923156
    outer loop
      vertex 4.68315 2.91759 1.93185
      vertex 4.33503 4.14818 1.73205
      vertex 5.09256 3.17265 1.73205
    endloop
  endfacet
  facet normal -0.103635 -0.080477 -0.991354
    outer loop
      vertex 4.2438 2.64387 2
      vertex 3.61252 3.45681 2
      vertex 3.98652 3.81469 1.93185
    endloop
  endfacet
  facet normal -0.103636 -0.0804772 -0.991354
    outer loop
      vertex 4.2438 2.64387 2
      vertex 3.98652 3.81469 1.93185
      vertex 4.68315 2.91759 1.93185
    endloop
  endfacet
  facet normal 0.103636 0.0804783 -0.991354
    outer loop
      vertex 3.80445 2.37016 1.93185
      vertex 3.23852 3.09894 1.93185
      vertex 3.61252 3.45681 2
    endloop
  endfacet
  facet normal 0.103637 0.0804784 -0.991354
    outer loop
      vertex 3.80445 2.37016 1.93185
      vertex 3.61252 3.45681 2
      vertex 4.2438 2.64387 2
    endloop
  endfacet
  facet normal 0.303625 0.23578 -0.923157
    outer loop
      vertex 3.39504 2.1151 1.73205
      vertex 2.89001 2.76545 1.73205
      vertex 3.23852 3.09894 1.93185
    endloop
  endfacet
  facet normal 0.303628 0.235781 -0.923156
    outer loop
      vertex 3.39504 2.1151 1.73205
      vertex 3.23852 3.09894 1.93185
      vertex 3.80445 2.37016 1.93185
    endloop
  endfacet
  facet normal 0.482431 0.374627 -0.791779
    outer loop
      vertex 3.04347 1.89607 1.41421
      vertex 2.59074 2.47908 1.41421
      vertex 2.89001 2.76545 1.73205
    endloop
  endfacet
  facet normal 0.482424 0.374627 -0.791784
    outer loop
      vertex 3.04347 1.89607 1.41421
      vertex 2.89001 2.76545 1.73205
      vertex 3.39504 2.1151 1.73205
    endloop
  endfacet
  facet normal 0.627843 0.487546 -0.606723
    outer loop
      vertex 2.7737 1.72801 0.999999
      vertex 2.3611 2.25934 0.999999
      vertex 2.59074 2.47908 1.41421
    endloop
  endfacet
  facet normal 0.627844 0.487546 -0.606721
    outer loop
      vertex 2.7737 1.72801 0.999999
      vertex 2.59074 2.47908 1.41421
      vertex 3.04347 1.89607 1.41421
    endloop
  endfacet
  facet normal 0.730271 0.567086 -0.380942
    outer loop
      vertex 2.60412 1.62236 0.517637
      vertex 2.21675 2.1212 0.517637
      vertex 2.3611 2.25934 0.999999
    endloop
  endfacet
  facet normal 0.730271 0.567086 -0.380942
    outer loop
      vertex 2.60412 1.62236 0.517637
      vertex 2.3611 2.25934 0.999999
      vertex 2.7737 1.72801 0.999999
    endloop
  endfacet
  facet normal 0.78315 0.608126 -0.129842
    outer loop
      vertex 2.54627 1.58632 0
      vertex 2.16751 2.07409 0
      vertex 2.21675 2.1212 0.517637
    endloop
  endfacet
  facet normal 0.783137 0.608138 -0.129863
    outer loop
      vertex 2.54627 1.58632 0
      vertex 2.21675 2.1212 0.517637
      vertex 2.60412 1.62236 0.517637
    endloop
  endfacet
  facet normal -0.891071 -0.434897 -0.129838
    outer loop
      vertex 6.50935 2.38303 0.517637
      vertex 5.88348 3.66539 0.517637
      vertex 5.94132 3.70142 0
    endloop
  endfacet
  facet normal -0.89107 -0.434897 -0.129839
    outer loop
      vertex 6.50935 2.38303 0.517637
      vertex 5.94132 3.70142 0
      vertex 6.57334 2.40646 0
    endloop
  endfacet
  facet normal -0.830911 -0.405535 -0.380957
    outer loop
      vertex 6.32172 2.31434 0.999999
      vertex 5.71389 3.55974 0.999999
      vertex 5.88348 3.66539 0.517637
    endloop
  endfacet
  facet normal -0.83091 -0.405535 -0.380959
    outer loop
      vertex 6.32172 2.31434 0.999999
      vertex 5.88348 3.66539 0.517637
      vertex 6.50935 2.38303 0.517637
    endloop
  endfacet
  facet normal -0.714376 -0.348657 -0.606717
    outer loop
      vertex 6.02326 2.20507 1.41421
      vertex 5.44413 3.39167 1.41421
      vertex 5.71389 3.55974 0.999999
    endloop
  endfacet
  facet normal -0.714374 -0.348657 -0.606719
    outer loop
      vertex 6.02326 2.20507 1.41421
      vertex 5.71389 3.55974 0.999999
      vertex 6.32172 2.31434 0.999999
    endloop
  endfacet
  facet normal -0.548918 -0.267904 -0.79178
    outer loop
      vertex 5.63429 2.06268 1.73205
      vertex 5.09256 3.17265 1.73205
      vertex 5.44413 3.39167 1.41421
    endloop
  endfacet
  facet normal -0.548918 -0.267904 -0.791781
    outer loop
      vertex 5.63429 2.06268 1.73205
      vertex 5.44413 3.39167 1.41421
      vertex 6.02326 2.20507 1.41421
    endloop
  endfacet
  facet normal -0.345474 -0.168611 -0.923156
    outer loop
      vertex 5.18133 1.89685 1.93185
      vertex 4.68315 2.91759 1.93185
      vertex 5.09256 3.17265 1.73205
    endloop
  endfacet
  facet normal -0.345474 -0.168611 -0.923157
    outer loop
      vertex 5.18133 1.89685 1.93185
      vertex 5.09256 3.17265 1.73205
      vertex 5.63429 2.06268 1.73205
    endloop
  endfacet
  facet normal -0.117919 -0.0575515 -0.991354
    outer loop
      vertex 4.69524 1.7189 2
      vertex 4.2438 2.64387 2
      vertex 4.68315 2.91759 1.93185
    endloop
  endfacet
  facet normal -0.117919 -0.0575515 -0.991354
    outer loop
      vertex 4.69524 1.7189 2
      vertex 4.68315 2.91759 1.93185
      vertex 5.18133 1.89685 1.93185
    endloop
  endfacet
  facet normal 0.117921 0.0575511 -0.991354
    outer loop
      vertex 4.20915 1.54094 1.93185
      vertex 3.80445 2.37016 1.93185
      vertex 4.2438 2.64387 2
    endloop
  endfacet
  facet normal 0.117918 0.0575512 -0.991354
    outer loop
      vertex 4.69524 1.7189 2
      vertex 4.20915 1.54094 1.93185
      vertex 4.2438 2.64387 2
    endloop
  endfacet
  facet normal 0.345475 0.16861 -0.923156
    outer loop
      vertex 3.75619 1.37512 1.73205
      vertex 3.39504 2.1151 1.73205
      vertex 3.80445 2.37016 1.93185
    endloop
  endfacet
  facet normal 0.345478 0.16861 -0.923155
    outer loop
      vertex 4.20915 1.54094 1.93185
      vertex 3.75619 1.37512 1.73205
      vertex 3.80445 2.37016 1.93185
    endloop
  endfacet
  facet normal 0.548916 0.2679 -0.791783
    outer loop
      vertex 3.36722 1.23272 1.41421
      vertex 3.04347 1.89607 1.41421
      vertex 3.39504 2.1151 1.73205
    endloop
  endfacet
  facet normal 0.548915 0.2679 -0.791784
    outer loop
      vertex 3.75619 1.37512 1.73205
      vertex 3.36722 1.23272 1.41421
      vertex 3.39504 2.1151 1.73205
    endloop
  endfacet
  facet normal 0.714372 0.348655 -0.606722
    outer loop
      vertex 3.06876 1.12345 0.999999
      vertex 2.7737 1.72801 0.999999
      vertex 3.04347 1.89607 1.41421
    endloop
  endfacet
  facet normal 0.714376 0.348653 -0.606719
    outer loop
      vertex 3.06876 1.12345 0.999999
      vertex 3.04347 1.89607 1.41421
      vertex 3.36722 1.23272 1.41421
    endloop
  endfacet
  facet normal 0.830924 0.405522 -0.380941
    outer loop
      vertex 2.88113 1.05476 0.517637
      vertex 2.60412 1.62236 0.517637
      vertex 2.7737 1.72801 0.999999
    endloop
  endfacet
  facet normal 0.830911 0.405533 -0.380959
    outer loop
      vertex 2.88113 1.05476 0.517637
      vertex 2.7737 1.72801 0.999999
      vertex 3.06876 1.12345 0.999999
    endloop
  endfacet
  facet normal 0.891064 0.434903 -0.129863
    outer loop
      vertex 2.81714 1.03134 0
      vertex 2.54627 1.58632 0
      vertex 2.60412 1.62236 0.517637
    endloop
  endfacet
  facet normal 0.89108 0.43488 -0.129831
    outer loop
      vertex 2.81714 1.03134 0
      vertex 2.60412 1.62236 0.517637
      vertex 2.88113 1.05476 0.517637
    endloop
  endfacet
  facet normal -0.961242 -0.243219 -0.129837
    outer loop
      vertex 6.83525 1.11832 0.473983
      vertex 6.50935 2.38303 0.517637
      vertex 6.57334 2.40646 0
    endloop
  endfacet
  facet normal -0.961252 -0.243224 -0.129758
    outer loop
      vertex 6.50935 2.38303 0.517637
      vertex 6.83525 1.11832 0.473983
      vertex 6.82959 1.1174 0.517637
    endloop
  endfacet
  facet normal -0.961241 -0.243221 -0.129844
    outer loop
      vertex 6.83525 1.11832 0.473983
      vertex 6.57334 2.40646 0
      vertex 6.89673 1.12838 0
    endloop
  endfacet
  facet normal -0.896343 -0.226802 -0.380959
    outer loop
      vertex 6.64904 1.08786 0.960038
      vertex 6.32172 2.31434 0.999999
      vertex 6.50935 2.38303 0.517637
    endloop
  endfacet
  facet normal -0.896406 -0.226824 -0.380797
    outer loop
      vertex 6.32172 2.31434 0.999999
      vertex 6.64904 1.08786 0.960038
      vertex 6.63274 1.08519 0.999999
    endloop
  endfacet
  facet normal -0.896345 -0.226801 -0.380955
    outer loop
      vertex 6.64904 1.08786 0.960038
      vertex 6.50935 2.38303 0.517637
      vertex 6.82959 1.1174 0.517637
    endloop
  endfacet
  facet normal -0.770629 -0.194998 -0.606718
    outer loop
      vertex 6.34508 1.03813 1.3805
      vertex 6.02326 2.20507 1.41421
      vertex 6.32172 2.31434 0.999999
    endloop
  endfacet
  facet normal -0.770547 -0.194973 -0.60683
    outer loop
      vertex 6.02326 2.20507 1.41421
      vertex 6.34508 1.03813 1.3805
      vertex 6.31959 1.03395 1.41421
    endloop
  endfacet
  facet normal -0.77063 -0.194998 -0.606716
    outer loop
      vertex 6.34508 1.03813 1.3805
      vertex 6.32172 2.31434 0.999999
      vertex 6.63274 1.08519 0.999999
    endloop
  endfacet
  facet normal -0.592084 -0.149813 -0.791829
    outer loop
      vertex 5.63429 2.06268 1.73205
      vertex 5.94415 0.972529 1.70661
      vertex 5.91148 0.967184 1.73205
    endloop
  endfacet
  facet normal -0.592142 -0.149831 -0.791782
    outer loop
      vertex 5.94415 0.972529 1.70661
      vertex 5.63429 2.06268 1.73205
      vertex 6.02326 2.20507 1.41421
    endloop
  endfacet
  facet normal -0.592143 -0.149831 -0.791781
    outer loop
      vertex 6.31959 1.03395 1.41421
      vertex 5.94415 0.972529 1.70661
      vertex 6.02326 2.20507 1.41421
    endloop
  endfacet
  facet normal -0.372672 -0.0942982 -0.923159
    outer loop
      vertex 5.18133 1.89685 1.93185
      vertex 5.47368 0.895555 1.91611
      vertex 5.43624 0.889429 1.93185
    endloop
  endfacet
  facet normal -0.372679 -0.0943002 -0.923156
    outer loop
      vertex 5.47368 0.895555 1.91611
      vertex 5.18133 1.89685 1.93185
      vertex 5.63429 2.06268 1.73205
    endloop
  endfacet
  facet normal -0.372684 -0.0942992 -0.923154
    outer loop
      vertex 5.91148 0.967184 1.73205
      vertex 5.47368 0.895555 1.91611
      vertex 5.63429 2.06268 1.73205
    endloop
  endfacet
  facet normal -0.127246 -0.0321965 -0.991348
    outer loop
      vertex 4.69524 1.7189 2
      vertex 4.96588 0.812472 1.9947
      vertex 4.92623 0.805986 2
    endloop
  endfacet
  facet normal -0.127206 -0.0321844 -0.991354
    outer loop
      vertex 4.96588 0.812472 1.9947
      vertex 4.69524 1.7189 2
      vertex 5.18133 1.89685 1.93185
    endloop
  endfacet
  facet normal -0.1272 -0.0321857 -0.991355
    outer loop
      vertex 5.43624 0.889429 1.93185
      vertex 4.96588 0.812472 1.9947
      vertex 5.18133 1.89685 1.93185
    endloop
  endfacet
  facet normal 0.127328 0.032218 -0.991337
    outer loop
      vertex 4.20915 1.54094 1.93185
      vertex 4.45548 0.728966 1.9371
      vertex 4.41623 0.722544 1.93185
    endloop
  endfacet
  facet normal 0.127207 0.0321811 -0.991354
    outer loop
      vertex 4.45548 0.728966 1.9371
      vertex 4.20915 1.54094 1.93185
      vertex 4.69524 1.7189 2
    endloop
  endfacet
  facet normal 0.127196 0.0321837 -0.991355
    outer loop
      vertex 4.92623 0.805986 2
      vertex 4.45548 0.728966 1.9371
      vertex 4.69524 1.7189 2
    endloop
  endfacet
  facet normal 0.372648 0.0942933 -0.92317
    outer loop
      vertex 3.75619 1.37512 1.73205
      vertex 3.97741 0.650748 1.74736
      vertex 3.94099 0.644789 1.73205
    endloop
  endfacet
  facet normal 0.37268 0.0943034 -0.923156
    outer loop
      vertex 3.97741 0.650748 1.74736
      vertex 3.75619 1.37512 1.73205
      vertex 4.20915 1.54094 1.93185
    endloop
  endfacet
  facet normal 0.372674 0.0942982 -0.923159
    outer loop
      vertex 4.06909 0.665747 1.78591
      vertex 4.20915 1.54094 1.93185
      vertex 4.41623 0.722544 1.93185
    endloop
  endfacet
  facet normal 0.372738 0.0942837 -0.923134
    outer loop
      vertex 4.20915 1.54094 1.93185
      vertex 4.06909 0.665747 1.78591
      vertex 3.97741 0.650748 1.74736
    endloop
  endfacet
  facet normal 0.5921 0.14982 -0.791815
    outer loop
      vertex 3.36722 1.23272 1.41421
      vertex 3.56429 0.583157 1.43867
      vertex 3.53288 0.578018 1.41421
    endloop
  endfacet
  facet normal 0.592139 0.149833 -0.791784
    outer loop
      vertex 3.56429 0.583157 1.43867
      vertex 3.36722 1.23272 1.41421
      vertex 3.75619 1.37512 1.73205
    endloop
  endfacet
  facet normal 0.592139 0.149833 -0.791783
    outer loop
      vertex 3.94099 0.644789 1.73205
      vertex 3.56429 0.583157 1.43867
      vertex 3.75619 1.37512 1.73205
    endloop
  endfacet
  facet normal 0.770633 0.194984 -0.606717
    outer loop
      vertex 3.2442 0.530787 1.03237
      vertex 3.06876 1.12345 0.999999
      vertex 3.36722 1.23272 1.41421
    endloop
  endfacet
  facet normal 0.770663 0.194995 -0.606676
    outer loop
      vertex 3.06876 1.12345 0.999999
      vertex 3.2442 0.530787 1.03237
      vertex 3.21973 0.526784 0.999999
    endloop
  endfacet
  facet normal 0.770607 0.194988 -0.606749
    outer loop
      vertex 3.45406 0.565123 1.30996
      vertex 3.36722 1.23272 1.41421
      vertex 3.53288 0.578018 1.41421
    endloop
  endfacet
  facet normal 0.77063 0.194986 -0.60672
    outer loop
      vertex 3.36722 1.23272 1.41421
      vertex 3.45406 0.565123 1.30996
      vertex 3.2442 0.530787 1.03237
    endloop
  endfacet
  facet normal 0.89634 0.226813 -0.380959
    outer loop
      vertex 3.03869 0.497163 0.556374
      vertex 2.88113 1.05476 0.517637
      vertex 3.06876 1.12345 0.999999
    endloop
  endfacet
  facet normal 0.896335 0.22681 -0.380974
    outer loop
      vertex 2.88113 1.05476 0.517637
      vertex 3.03869 0.497163 0.556374
      vertex 3.02288 0.494576 0.517637
    endloop
  endfacet
  facet normal 0.896353 0.226798 -0.380938
    outer loop
      vertex 3.21973 0.526784 0.999999
      vertex 3.03869 0.497163 0.556374
      vertex 3.06876 1.12345 0.999999
    endloop
  endfacet
  facet normal 0.961243 0.243217 -0.129833
    outer loop
      vertex 2.96133 0.484506 0.0431502
      vertex 2.81714 1.03134 0
      vertex 2.88113 1.05476 0.517637
    endloop
  endfacet
  facet normal 0.961259 0.243233 -0.129686
    outer loop
      vertex 2.81714 1.03134 0
      vertex 2.96133 0.484506 0.0431502
      vertex 2.95574 0.483591 0
    endloop
  endfacet
  facet normal 0.961237 0.243233 -0.129853
    outer loop
      vertex 2.96133 0.484506 0.0431502
      vertex 2.88113 1.05476 0.517637
      vertex 3.02288 0.494576 0.517637
    endloop
  endfacet
  facet normal 0 0 -1
    outer loop
      vertex 7.69325 1.2587 0
      vertex 7.47752 2.84367 0
      vertex 7.89502 1.29171 0
    endloop
  endfacet
  facet normal 0 0 -1
    outer loop
      vertex 7.30348 1.19493 0
      vertex 7.47752 2.84367 0
      vertex 7.69325 1.2587 0
    endloop
  endfacet
  facet normal 0 0 -1
    outer loop
      vertex 6.57334 2.40646 0
      vertex 7.30348 1.19493 0
      vertex 6.89673 1.12838 0
    endloop
  endfacet
  facet normal 0 0 -1
    outer loop
      vertex 7.30348 1.19493 0
      vertex 6.57334 2.40646 0
      vertex 7.47752 2.84367 0
    endloop
  endfacet
  facet normal 0 0 -1
    outer loop
      vertex 5.94132 3.70142 0
      vertex 7.47752 2.84367 0
      vertex 6.57334 2.40646 0
    endloop
  endfacet
  facet normal 0 0 -1
    outer loop
      vertex 7.47752 2.84367 0
      vertex 5.94132 3.70142 0
      vertex 6.75825 4.28087 0
    endloop
  endfacet
  facet normal 0 0 -1
    outer loop
      vertex 5.05753 4.83954 0
      vertex 6.75825 4.28087 0
      vertex 5.94132 3.70142 0
    endloop
  endfacet
  facet normal 0 0 -1
    outer loop
      vertex 6.75825 4.28087 0
      vertex 5.05753 4.83954 0
      vertex 5.76623 5.5453 0
    endloop
  endfacet
  facet normal 0 0 -1
    outer loop
      vertex 5.05753 4.83954 0
      vertex 4.5415 6.58594 0
      vertex 5.76623 5.5453 0
    endloop
  endfacet
  facet normal 0 0 -1
    outer loop
      vertex 3.95943 5.77258 0
      vertex 4.5415 6.58594 0
      vertex 5.05753 4.83954 0
    endloop
  endfacet
  facet normal 0 0 -1
    outer loop
      vertex 3.95943 5.77258 0
      vertex 3.13348 7.36078 0
      vertex 4.5415 6.58594 0
    endloop
  endfacet
  facet normal 0 0 -1
    outer loop
      vertex 2.69355 6.46101 0
      vertex 3.13348 7.36078 0
      vertex 3.95943 5.77258 0
    endloop
  endfacet
  facet normal 0 0 -1
    outer loop
      vertex 2.69355 6.46101 0
      vertex 1.59901 7.83856 0
      vertex 3.13348 7.36078 0
    endloop
  endfacet
  facet normal 0 0 -1
    outer loop
      vertex 1.31352 6.87564 0
      vertex 1.59901 7.83856 0
      vertex 2.69355 6.46101 0
    endloop
  endfacet
  facet normal 0 0 -1
    outer loop
      vertex 1.31352 6.87564 0
      vertex 1.77635e-15 7.99999 0
      vertex 1.59901 7.83856 0
    endloop
  endfacet
  facet normal 0 -0 -1
    outer loop
      vertex 1.77635e-15 7.99999 0
      vertex 1.31352 6.87564 0
      vertex 1.55174e-15 6.98843 0
    endloop
  endfacet
  facet normal 0 0 -1
    outer loop
      vertex 2.76704 0.452719 0
      vertex 2.81714 1.03134 0
      vertex 2.95574 0.483591 0
    endloop
  endfacet
  facet normal 0 0 -1
    outer loop
      vertex 1.86937 0.710915 0
      vertex 2.81714 1.03134 0
      vertex 2.76704 0.452719 0
    endloop
  endfacet
  facet normal -0 0 -1
    outer loop
      vertex 2.81714 1.03134 0
      vertex 1.86937 0.710915 0
      vertex 2.54627 1.58632 0
    endloop
  endfacet
  facet normal 0 0 -1
    outer loop
      vertex 1.86937 0.710915 0
      vertex 2.76704 0.452719 0
      vertex 1.97375 0.322927 0
    endloop
  endfacet
  facet normal 0 0 -1
    outer loop
      vertex 2.54627 1.58632 0
      vertex 1.86937 0.710915 0
      vertex 1.68955 1.07021 0
    endloop
  endfacet
  facet normal -0 0 -1
    outer loop
      vertex 2.54627 1.58632 0
      vertex 1.68955 1.07021 0
      vertex 2.16751 2.07409 0
    endloop
  endfacet
  facet normal 0 0 -1
    outer loop
      vertex 1.44155 1.38632 0
      vertex 2.16751 2.07409 0
      vertex 1.68955 1.07021 0
    endloop
  endfacet
  facet normal -0 0 -1
    outer loop
      vertex 2.16751 2.07409 0
      vertex 1.44155 1.38632 0
      vertex 1.69689 2.47396 0
    endloop
  endfacet
  facet normal 0 0 -1
    outer loop
      vertex 1.13537 1.64648 0
      vertex 1.69689 2.47396 0
      vertex 1.44155 1.38632 0
    endloop
  endfacet
  facet normal 0 0 -1
    outer loop
      vertex 0.783367 1.84019 0
      vertex 1.69689 2.47396 0
      vertex 1.13537 1.64648 0
    endloop
  endfacet
  facet normal -0 0 -1
    outer loop
      vertex 1.69689 2.47396 0
      vertex 0.783367 1.84019 0
      vertex 1.15437 2.769 0
    endloop
  endfacet
  facet normal 0 0 -1
    outer loop
      vertex 0.39975 1.95963 0
      vertex 1.15437 2.769 0
      vertex 0.783367 1.84019 0
    endloop
  endfacet
  facet normal -0 0 -1
    outer loop
      vertex 1.15437 2.769 0
      vertex 0.39975 1.95963 0
      vertex 0.562936 2.9467 0
    endloop
  endfacet
  facet normal 0 0 -1
    outer loop
      vertex 4.44086e-16 1.99999 0
      vertex 0.562936 2.9467 0
      vertex 0.39975 1.95963 0
    endloop
  endfacet
  facet normal -0 0 -1
    outer loop
      vertex 0.562936 2.9467 0
      vertex 4.44086e-16 1.99999 0
      vertex 6.65031e-16 2.99504 0
    endloop
  endfacet
endsolid OpenSCAD_Model
