solid OpenSCAD_Model
  facet normal -1 2.22053e-16 5.61263e-21
    outer loop
      vertex 9.53001e-15 42.9194 0.0653311
      vertex 9.7397e-15 43.8637 1.03528
      vertex 9.76996e-15 44 0
    endloop
  endfacet
  facet normal -1 2.22032e-16 -3.47951e-19
    outer loop
      vertex 9.53001e-15 42.9194 0.0653311
      vertex 9.76996e-15 44 0
      vertex 9.53192e-15 42.9279 0
    endloop
  endfacet
  facet normal -1 2.22043e-16 1.54683e-20
    outer loop
      vertex 9.7397e-15 43.8637 1.03528
      vertex 9.53001e-15 42.9194 0.0653311
      vertex 9.50926e-15 42.8259 0.776457
    endloop
  endfacet
  facet normal -1 2.22018e-16 1.15349e-19
    outer loop
      vertex 9.50365e-15 42.8006 0.837594
      vertex 9.7397e-15 43.8637 1.03528
      vertex 9.50926e-15 42.8259 0.776457
    endloop
  endfacet
  facet normal -1 2.2204e-16 -2.97215e-21
    outer loop
      vertex 9.7397e-15 43.8637 1.03528
      vertex 9.50365e-15 42.8006 0.837594
      vertex 9.65097e-15 43.4641 2
    endloop
  endfacet
  facet normal -1 2.22057e-16 -1.28739e-20
    outer loop
      vertex 9.44282e-15 42.5267 1.5
      vertex 9.65097e-15 43.4641 2
      vertex 9.50365e-15 42.8006 0.837594
    endloop
  endfacet
  facet normal -1 2.21973e-16 1.45917e-19
    outer loop
      vertex 9.43386e-15 42.4863 1.5527
      vertex 9.65097e-15 43.4641 2
      vertex 9.44282e-15 42.5267 1.5
    endloop
  endfacet
  facet normal -1 2.22039e-16 3.2621e-22
    outer loop
      vertex 9.65097e-15 43.4641 2
      vertex 9.43386e-15 42.4863 1.5527
      vertex 9.50982e-15 42.8284 2.82843
    endloop
  endfacet
  facet normal -1 2.22039e-16 3.51891e-22
    outer loop
      vertex 9.33714e-15 42.0507 2.12132
      vertex 9.50982e-15 42.8284 2.82843
      vertex 9.43386e-15 42.4863 1.5527
    endloop
  endfacet
  facet normal -1 2.2223e-16 -2.09346e-19
    outer loop
      vertex 9.32542e-15 41.998 2.1619
      vertex 9.50982e-15 42.8284 2.82843
      vertex 9.33714e-15 42.0507 2.12132
    endloop
  endfacet
  facet normal -1 2.22052e-16 1.22073e-20
    outer loop
      vertex 9.50982e-15 42.8284 2.82843
      vertex 9.32542e-15 41.998 2.1619
      vertex 9.32588e-15 42 3.4641
    endloop
  endfacet
  facet normal -1 2.22053e-16 1.22048e-20
    outer loop
      vertex 9.19941e-15 41.4305 2.59808
      vertex 9.32588e-15 42 3.4641
      vertex 9.32542e-15 41.998 2.1619
    endloop
  endfacet
  facet normal -1 2.21794e-16 1.82938e-19
    outer loop
      vertex 9.18573e-15 41.3688 2.62365
      vertex 9.32588e-15 42 3.4641
      vertex 9.19941e-15 41.4305 2.59808
    endloop
  endfacet
  facet normal -1 2.22054e-16 -1.21909e-20
    outer loop
      vertex 9.18573e-15 41.3688 2.62365
      vertex 9.11166e-15 41.0353 3.8637
      vertex 9.32588e-15 42 3.4641
    endloop
  endfacet
  facet normal -1 2.22047e-16 -1.41013e-20
    outer loop
      vertex 9.03902e-15 40.7081 2.89778
      vertex 9.11166e-15 41.0353 3.8637
      vertex 9.18573e-15 41.3688 2.62365
    endloop
  endfacet
  facet normal -1 2.22197e-16 -6.50296e-20
    outer loop
      vertex 9.02431e-15 40.6419 2.90651
      vertex 9.11166e-15 41.0353 3.8637
      vertex 9.03902e-15 40.7081 2.89778
    endloop
  endfacet
  facet normal -1 2.22033e-16 2.48612e-21
    outer loop
      vertex 9.02431e-15 40.6419 2.90651
      vertex 8.88179e-15 40 4
      vertex 9.11166e-15 41.0353 3.8637
    endloop
  endfacet
  facet normal -1 2.2205e-16 1.26558e-20
    outer loop
      vertex 8.8669e-15 39.933 3
      vertex 8.88179e-15 40 4
      vertex 9.02431e-15 40.6419 2.90651
    endloop
  endfacet
  facet normal -1 2.21867e-16 2.49108e-20
    outer loop
      vertex 8.85219e-15 39.8667 2.99126
      vertex 8.88179e-15 40 4
      vertex 8.8669e-15 39.933 3
    endloop
  endfacet
  facet normal -1 2.22047e-16 7.58119e-21
    outer loop
      vertex 8.65191e-15 38.9647 3.8637
      vertex 8.85219e-15 39.8667 2.99126
      vertex 8.69478e-15 39.1578 2.89778
    endloop
  endfacet
  facet normal -1 2.2189e-16 -2.38609e-20
    outer loop
      vertex 8.65191e-15 38.9647 3.8637
      vertex 8.69478e-15 39.1578 2.89778
      vertex 8.68109e-15 39.0961 2.87218
    endloop
  endfacet
  facet normal -1 2.22042e-16 1.82814e-21
    outer loop
      vertex 8.85219e-15 39.8667 2.99126
      vertex 8.65191e-15 38.9647 3.8637
      vertex 8.88179e-15 40 4
    endloop
  endfacet
  facet normal -1 2.22062e-16 2.08775e-20
    outer loop
      vertex 8.4377e-15 38 3.4641
      vertex 8.68109e-15 39.0961 2.87218
      vertex 8.53439e-15 38.4355 2.59808
    endloop
  endfacet
  facet normal -1 2.21818e-16 -1.02131e-19
    outer loop
      vertex 8.4377e-15 38 3.4641
      vertex 8.53439e-15 38.4355 2.59808
      vertex 8.52266e-15 38.3826 2.55745
    endloop
  endfacet
  facet normal -1 2.22049e-16 -2.72738e-21
    outer loop
      vertex 8.68109e-15 39.0961 2.87218
      vertex 8.4377e-15 38 3.4641
      vertex 8.65191e-15 38.9647 3.8637
    endloop
  endfacet
  facet normal -1 2.22058e-16 9.48222e-21
    outer loop
      vertex 8.25375e-15 37.1716 2.82843
      vertex 8.52266e-15 38.3826 2.55745
      vertex 8.39666e-15 37.8152 2.12132
    endloop
  endfacet
  facet normal -1 2.2204e-16 -7.54837e-21
    outer loop
      vertex 8.25375e-15 37.1716 2.82843
      vertex 8.39666e-15 37.8152 2.12132
      vertex 8.38769e-15 37.7748 2.06855
    endloop
  endfacet
  facet normal -1 2.22043e-16 1.82707e-20
    outer loop
      vertex 8.1126e-15 36.5359 2
      vertex 8.38769e-15 37.7748 2.06855
      vertex 8.29098e-15 37.3393 1.5
    endloop
  endfacet
  facet normal -1 2.21873e-16 -2.54477e-19
    outer loop
      vertex 8.1126e-15 36.5359 2
      vertex 8.29098e-15 37.3393 1.5
      vertex 8.28536e-15 37.3139 1.4388
    endloop
  endfacet
  facet normal -1 2.22056e-16 -1.60318e-21
    outer loop
      vertex 8.52266e-15 38.3826 2.55745
      vertex 8.25375e-15 37.1716 2.82843
      vertex 8.4377e-15 38 3.4641
    endloop
  endfacet
  facet normal -1 2.2204e-16 3.83425e-20
    outer loop
      vertex 8.02387e-15 36.1363 1.03528
      vertex 8.28536e-15 37.3139 1.4388
      vertex 8.22454e-15 37.0401 0.776457
    endloop
  endfacet
  facet normal -1 2.21989e-16 -1.39364e-19
    outer loop
      vertex 8.02387e-15 36.1363 1.03528
      vertex 8.22454e-15 37.0401 0.776457
      vertex 8.22264e-15 37.0315 0.711103
    endloop
  endfacet
  facet normal -1 2.22036e-16 -5.47214e-22
    outer loop
      vertex 7.99361e-15 36 0
      vertex 8.22264e-15 37.0315 0.711103
      vertex 8.20188e-15 36.938 0
    endloop
  endfacet
  facet normal -1 2.22044e-16 -4.04776e-21
    outer loop
      vertex 8.38769e-15 37.7748 2.06855
      vertex 8.1126e-15 36.5359 2
      vertex 8.25375e-15 37.1716 2.82843
    endloop
  endfacet
  facet normal -1 2.22054e-16 -3.03239e-21
    outer loop
      vertex 8.28536e-15 37.3139 1.4388
      vertex 8.02387e-15 36.1363 1.03528
      vertex 8.1126e-15 36.5359 2
    endloop
  endfacet
  facet normal -1 2.22038e-16 -3.70661e-21
    outer loop
      vertex 8.22264e-15 37.0315 0.711103
      vertex 7.99361e-15 36 0
      vertex 8.02387e-15 36.1363 1.03528
    endloop
  endfacet
  facet normal 0.141914 -0.989879 0
    outer loop
      vertex 43.5547 6.24413 0
      vertex 43.4198 6.22479 1.03528
      vertex 43.4198 6.22479 0
    endloop
  endfacet
  facet normal 0.141907 -0.98988 -4.05558e-06
    outer loop
      vertex 43.4198 6.22479 1.03528
      vertex 42.395 6.07787 2.82843
      vertex 41.5749 5.9603 3.4641
    endloop
  endfacet
  facet normal 0.141945 -0.989875 1.82326e-05
    outer loop
      vertex 43.4198 6.22479 1.03528
      vertex 43.0242 6.16808 2
      vertex 42.395 6.07787 2.82843
    endloop
  endfacet
  facet normal 0.141913 -0.989879 -4.29462e-06
    outer loop
      vertex 41.5749 5.9603 3.4641
      vertex 40.62 5.8234 3.8637
      vertex 39.5952 5.67648 4
    endloop
  endfacet
  facet normal 0.141914 -0.989879 -1.46483e-06
    outer loop
      vertex 41.5749 5.9603 3.4641
      vertex 39.5952 5.67648 4
      vertex 38.5704 5.52956 3.8637
    endloop
  endfacet
  facet normal 0.141915 -0.989879 4.54349e-06
    outer loop
      vertex 40.2059 5.76403 2.9098
      vertex 41.5749 5.9603 3.4641
      vertex 38.5704 5.52956 3.8637
    endloop
  endfacet
  facet normal 0.141983 -0.989869 -0.000168411
    outer loop
      vertex 40.2961 5.77697 2.89778
      vertex 41.5749 5.9603 3.4641
      vertex 40.2059 5.76403 2.9098
    endloop
  endfacet
  facet normal 0.141888 -0.989883 5.11715e-05
    outer loop
      vertex 40.3552 5.78544 2.87302
      vertex 41.5749 5.9603 3.4641
      vertex 40.2961 5.77697 2.89778
    endloop
  endfacet
  facet normal 0.141907 -0.98988 1.03657e-05
    outer loop
      vertex 41.0112 5.87948 2.59808
      vertex 41.5749 5.9603 3.4641
      vertex 40.3552 5.78544 2.87302
    endloop
  endfacet
  facet normal 0.142006 -0.989866 -5.55334e-05
    outer loop
      vertex 41.062 5.88677 2.55859
      vertex 41.5749 5.9603 3.4641
      vertex 41.0112 5.87948 2.59808
    endloop
  endfacet
  facet normal 0.141897 -0.989881 7.65607e-06
    outer loop
      vertex 41.6252 5.9675 2.12132
      vertex 41.5749 5.9603 3.4641
      vertex 41.062 5.88677 2.55859
    endloop
  endfacet
  facet normal 0.142302 -0.989823 2.31263e-05
    outer loop
      vertex 41.6643 5.97312 2.06969
      vertex 41.5749 5.9603 3.4641
      vertex 41.6252 5.9675 2.12132
    endloop
  endfacet
  facet normal 0.141902 -0.989881 -3.03708e-06
    outer loop
      vertex 41.6786 5.97517 2.05081
      vertex 41.5749 5.9603 3.4641
      vertex 41.6643 5.97312 2.06969
    endloop
  endfacet
  facet normal 0.141909 -0.98988 -2.54245e-06
    outer loop
      vertex 41.5749 5.9603 3.4641
      vertex 41.6786 5.97517 2.05081
      vertex 43.4198 6.22479 1.03528
    endloop
  endfacet
  facet normal 0.141913 -0.989879 5.95537e-06
    outer loop
      vertex 42.0963 6.03505 1.5
      vertex 43.4198 6.22479 1.03528
      vertex 41.6786 5.97517 2.05081
    endloop
  endfacet
  facet normal 0.141918 -0.989878 2.00847e-05
    outer loop
      vertex 42.121 6.03859 1.43964
      vertex 43.4198 6.22479 1.03528
      vertex 42.0963 6.03505 1.5
    endloop
  endfacet
  facet normal 0.141909 -0.98988 -9.55618e-06
    outer loop
      vertex 43.4198 6.22479 1.03528
      vertex 42.121 6.03859 1.43964
      vertex 42.2865 6.06232 1.03528
    endloop
  endfacet
  facet normal 0.141928 -0.989877 6.03627e-06
    outer loop
      vertex 38.5704 5.52956 3.8637
      vertex 38.8248 5.56603 2.90621
      vertex 39.5288 5.66697 3
    endloop
  endfacet
  facet normal 0.14184 -0.98989 -1.80299e-05
    outer loop
      vertex 38.5704 5.52956 3.8637
      vertex 38.7615 5.55696 2.89778
      vertex 38.8248 5.56603 2.90621
    endloop
  endfacet
  facet normal 0.141905 -0.98988 -4.84128e-06
    outer loop
      vertex 38.5704 5.52956 3.8637
      vertex 38.1055 5.46292 2.62281
      vertex 38.7615 5.55696 2.89778
    endloop
  endfacet
  facet normal 0.141947 -0.989874 -2.07549e-05
    outer loop
      vertex 38.5704 5.52956 3.8637
      vertex 38.0465 5.45446 2.59808
      vertex 38.1055 5.46292 2.62281
    endloop
  endfacet
  facet normal 0.141939 -0.989875 -1.76106e-05
    outer loop
      vertex 38.5704 5.52956 3.8637
      vertex 37.4833 5.37371 2.16075
      vertex 38.0465 5.45446 2.59808
    endloop
  endfacet
  facet normal 0.141804 -0.989895 7.01276e-05
    outer loop
      vertex 38.5704 5.52956 3.8637
      vertex 37.4325 5.36643 2.12132
      vertex 37.4833 5.37371 2.16075
    endloop
  endfacet
  facet normal 0.141919 -0.989878 -6.14672e-06
    outer loop
      vertex 35.7706 5.12817 1.03528
      vertex 37.4325 5.36643 2.12132
      vertex 38.5704 5.52956 3.8637
    endloop
  endfacet
  facet normal 0.141902 -0.989881 2.02363e-05
    outer loop
      vertex 37.4325 5.36643 2.12132
      vertex 35.7706 5.12817 1.03528
      vertex 37.0005 5.30449 1.55156
    endloop
  endfacet
  facet normal 0.141973 -0.98987 -0.000152784
    outer loop
      vertex 37.0005 5.30449 1.55156
      vertex 35.7706 5.12817 1.03528
      vertex 36.9614 5.29889 1.5
    endloop
  endfacet
  facet normal 0.141927 -0.989877 -3.17219e-05
    outer loop
      vertex 36.9614 5.29889 1.5
      vertex 35.7706 5.12817 1.03528
      vertex 36.7711 5.27162 1.03528
    endloop
  endfacet
  facet normal 0.141822 -0.989892 -0.000113982
    outer loop
      vertex 39.5921 5.67604 2.99157
      vertex 38.5704 5.52956 3.8637
      vertex 39.5288 5.66697 3
    endloop
  endfacet
  facet normal 0.141899 -0.989881 -2.20011e-05
    outer loop
      vertex 38.5704 5.52956 3.8637
      vertex 39.5921 5.67604 2.99157
      vertex 40.2059 5.76403 2.9098
    endloop
  endfacet
  facet normal 0.141856 -0.989887 3.38211e-05
    outer loop
      vertex 36.7954 5.27509 2.82843
      vertex 36.1661 5.18488 2
      vertex 35.7706 5.12817 1.03528
    endloop
  endfacet
  facet normal 0.141937 -0.989876 -1.3702e-05
    outer loop
      vertex 37.6154 5.39266 3.4641
      vertex 36.7954 5.27509 2.82843
      vertex 35.7706 5.12817 1.03528
    endloop
  endfacet
  facet normal 0.141891 -0.989882 2.1789e-05
    outer loop
      vertex 38.5704 5.52956 3.8637
      vertex 37.6154 5.39266 3.4641
      vertex 35.7706 5.12817 1.03528
    endloop
  endfacet
  facet normal 0.141909 -0.98988 2.35992e-05
    outer loop
      vertex 42.3925 6.07751 0.776457
      vertex 43.4198 6.22479 1.03528
      vertex 42.2865 6.06232 1.03528
    endloop
  endfacet
  facet normal 0.14199 -0.989868 -0.000305109
    outer loop
      vertex 43.4198 6.22479 1.03528
      vertex 42.3925 6.07751 0.776457
      vertex 42.3949 6.07786 0.757851
    endloop
  endfacet
  facet normal 0.141927 -0.989877 3.82999e-05
    outer loop
      vertex 35.7706 5.12817 1.03528
      vertex 36.6899 5.25997 0.836757
      vertex 36.7711 5.27162 1.03528
    endloop
  endfacet
  facet normal 0.141915 -0.989879 -1.86697e-05
    outer loop
      vertex 35.7706 5.12817 1.03528
      vertex 36.6652 5.25643 0.776457
      vertex 36.6899 5.25997 0.836757
    endloop
  endfacet
  facet normal 0.14192 -0.989878 0
    outer loop
      vertex 35.7706 5.12817 0
      vertex 36.6652 5.25643 0.776457
      vertex 35.7706 5.12817 1.03528
    endloop
  endfacet
  facet normal 0.141928 -0.989877 -9.7033e-06
    outer loop
      vertex 36.6652 5.25643 0.776457
      vertex 35.7706 5.12817 0
      vertex 36.5726 5.24316 0.0650243
    endloop
  endfacet
  facet normal 0.141909 -0.98988 0.000240242
    outer loop
      vertex 36.5726 5.24316 0.0650243
      vertex 35.7706 5.12817 0
      vertex 36.5642 5.24194 0
    endloop
  endfacet
  facet normal 0.141914 -0.989879 0
    outer loop
      vertex 35.7706 5.12817 0
      vertex 35.7706 5.12817 1.03528
      vertex 35.6357 5.10883 0
    endloop
  endfacet
  facet normal 0.141909 -0.98988 3.33564e-06
    outer loop
      vertex 42.4009 6.07872 0.71141
      vertex 43.4198 6.22479 1.03528
      vertex 42.3949 6.07786 0.757851
    endloop
  endfacet
  facet normal 0.141911 -0.989879 -5.28233e-06
    outer loop
      vertex 43.4198 6.22479 1.03528
      vertex 42.4009 6.07872 0.71141
      vertex 42.482 6.09035 0.0879567
    endloop
  endfacet
  facet normal 0.141915 -0.989879 9.80229e-05
    outer loop
      vertex 43.4198 6.22479 0
      vertex 42.482 6.09035 0.0879567
      vertex 42.4935 6.09199 0
    endloop
  endfacet
  facet normal 0.141906 -0.98988 0
    outer loop
      vertex 42.482 6.09035 0.0879567
      vertex 43.4198 6.22479 0
      vertex 43.4198 6.22479 1.03528
    endloop
  endfacet
  facet normal 0.100993 0.986375 0.129861
    outer loop
      vertex 8.88874 42.9536 1.03528
      vertex 9.76996e-15 44 0
      vertex 9.7397e-15 43.8637 1.03528
    endloop
  endfacet
  facet normal 0.10099 0.986372 0.129888
    outer loop
      vertex 8.88874 42.9536 1.03528
      vertex 8.91636 43.0871 0
      vertex 9.76996e-15 44 0
    endloop
  endfacet
  facet normal 0.0941729 0.919774 0.380983
    outer loop
      vertex 8.80776 42.5623 2
      vertex 9.7397e-15 43.8637 1.03528
      vertex 9.65097e-15 43.4641 2
    endloop
  endfacet
  facet normal 0.094174 0.919777 0.380976
    outer loop
      vertex 8.80776 42.5623 2
      vertex 8.88874 42.9536 1.03528
      vertex 9.7397e-15 43.8637 1.03528
    endloop
  endfacet
  facet normal 0.0809604 0.790738 0.606777
    outer loop
      vertex 8.67894 41.9398 2.82843
      vertex 9.65097e-15 43.4641 2
      vertex 9.50982e-15 42.8284 2.82843
    endloop
  endfacet
  facet normal 0.0809618 0.790743 0.606771
    outer loop
      vertex 8.67894 41.9398 2.82843
      vertex 8.80776 42.5623 2
      vertex 9.65097e-15 43.4641 2
    endloop
  endfacet
  facet normal 0.0622079 0.607592 0.791809
    outer loop
      vertex 8.51107 41.1286 3.4641
      vertex 9.50982e-15 42.8284 2.82843
      vertex 9.32588e-15 42 3.4641
    endloop
  endfacet
  facet normal 0.0622094 0.607598 0.791805
    outer loop
      vertex 8.51107 41.1286 3.4641
      vertex 8.67894 41.9398 2.82843
      vertex 9.50982e-15 42.8284 2.82843
    endloop
  endfacet
  facet normal 0.0391522 0.382397 0.923168
    outer loop
      vertex 8.31557 40.1839 3.8637
      vertex 9.32588e-15 42 3.4641
      vertex 9.11166e-15 41.0353 3.8637
    endloop
  endfacet
  facet normal 0.0391509 0.382391 0.923171
    outer loop
      vertex 8.31557 40.1839 3.8637
      vertex 8.51107 41.1286 3.4641
      vertex 9.32588e-15 42 3.4641
    endloop
  endfacet
  facet normal 0.0133626 0.130515 0.991356
    outer loop
      vertex 8.10578 39.1701 4
      vertex 9.11166e-15 41.0353 3.8637
      vertex 8.88179e-15 40 4
    endloop
  endfacet
  facet normal 0.0133632 0.130517 0.991356
    outer loop
      vertex 8.10578 39.1701 4
      vertex 8.31557 40.1839 3.8637
      vertex 9.11166e-15 41.0353 3.8637
    endloop
  endfacet
  facet normal -0.0133622 -0.130515 0.991356
    outer loop
      vertex 7.89599 38.1563 3.8637
      vertex 8.88179e-15 40 4
      vertex 8.65191e-15 38.9647 3.8637
    endloop
  endfacet
  facet normal -0.0133628 -0.130517 0.991356
    outer loop
      vertex 7.89599 38.1563 3.8637
      vertex 8.10578 39.1701 4
      vertex 8.88179e-15 40 4
    endloop
  endfacet
  facet normal -0.039151 -0.382397 0.923168
    outer loop
      vertex 7.70049 37.2116 3.4641
      vertex 8.65191e-15 38.9647 3.8637
      vertex 8.4377e-15 38 3.4641
    endloop
  endfacet
  facet normal -0.0391497 -0.382391 0.923171
    outer loop
      vertex 7.70049 37.2116 3.4641
      vertex 7.89599 38.1563 3.8637
      vertex 8.65191e-15 38.9647 3.8637
    endloop
  endfacet
  facet normal -0.0622062 -0.607592 0.791809
    outer loop
      vertex 7.53261 36.4004 2.82843
      vertex 8.4377e-15 38 3.4641
      vertex 8.25375e-15 37.1716 2.82843
    endloop
  endfacet
  facet normal -0.0622077 -0.607598 0.791805
    outer loop
      vertex 7.53261 36.4004 2.82843
      vertex 7.70049 37.2116 3.4641
      vertex 8.4377e-15 38 3.4641
    endloop
  endfacet
  facet normal -0.0809557 -0.790739 0.606777
    outer loop
      vertex 7.4038 35.7779 2
      vertex 8.25375e-15 37.1716 2.82843
      vertex 8.1126e-15 36.5359 2
    endloop
  endfacet
  facet normal -0.0809576 -0.790744 0.60677
    outer loop
      vertex 7.4038 35.7779 2
      vertex 7.53261 36.4004 2.82843
      vertex 8.25375e-15 37.1716 2.82843
    endloop
  endfacet
  facet normal -0.0941652 -0.919774 0.380983
    outer loop
      vertex 7.32282 35.3866 1.03528
      vertex 8.1126e-15 36.5359 2
      vertex 8.02387e-15 36.1363 1.03528
    endloop
  endfacet
  facet normal -0.0941667 -0.919777 0.380975
    outer loop
      vertex 7.32282 35.3866 1.03528
      vertex 7.4038 35.7779 2
      vertex 8.1126e-15 36.5359 2
    endloop
  endfacet
  facet normal -0.100988 -0.986376 0.129862
    outer loop
      vertex 7.2952 35.2531 0
      vertex 8.02387e-15 36.1363 1.03528
      vertex 7.99361e-15 36 0
    endloop
  endfacet
  facet normal -0.100983 -0.986373 0.129888
    outer loop
      vertex 7.2952 35.2531 0
      vertex 7.32282 35.3866 1.03528
      vertex 8.02387e-15 36.1363 1.03528
    endloop
  endfacet
  facet normal 0.298774 0.945444 0.129886
    outer loop
      vertex 17.4086 40.2612 1.03528
      vertex 8.91636 43.0871 0
      vertex 8.88874 42.9536 1.03528
    endloop
  endfacet
  facet normal 0.298778 0.945446 0.129858
    outer loop
      vertex 17.4086 40.2612 1.03528
      vertex 17.4627 40.3863 0
      vertex 8.91636 43.0871 0
    endloop
  endfacet
  facet normal 0.278605 0.88161 0.380976
    outer loop
      vertex 17.25 39.8944 2
      vertex 8.88874 42.9536 1.03528
      vertex 8.80776 42.5623 2
    endloop
  endfacet
  facet normal 0.278599 0.881602 0.380999
    outer loop
      vertex 17.25 39.8944 2
      vertex 17.4086 40.2612 1.03528
      vertex 8.88874 42.9536 1.03528
    endloop
  endfacet
  facet normal 0.239511 0.757934 0.606771
    outer loop
      vertex 16.9978 39.311 2.82843
      vertex 8.80776 42.5623 2
      vertex 8.67894 41.9398 2.82843
    endloop
  endfacet
  facet normal 0.239534 0.757977 0.606707
    outer loop
      vertex 16.9978 39.311 2.82843
      vertex 17.25 39.8944 2
      vertex 8.80776 42.5623 2
    endloop
  endfacet
  facet normal 0.184041 0.582386 0.791805
    outer loop
      vertex 16.669 38.5506 3.4641
      vertex 8.67894 41.9398 2.82843
      vertex 8.51107 41.1286 3.4641
    endloop
  endfacet
  facet normal 0.18403 0.582364 0.791824
    outer loop
      vertex 16.669 38.5506 3.4641
      vertex 16.9978 39.311 2.82843
      vertex 8.67894 41.9398 2.82843
    endloop
  endfacet
  facet normal 0.115827 0.366524 0.923171
    outer loop
      vertex 16.2861 37.6651 3.8637
      vertex 8.51107 41.1286 3.4641
      vertex 8.31557 40.1839 3.8637
    endloop
  endfacet
  facet normal 0.115824 0.366518 0.923174
    outer loop
      vertex 16.2861 37.6651 3.8637
      vertex 16.669 38.5506 3.4641
      vertex 8.51107 41.1286 3.4641
    endloop
  endfacet
  facet normal 0.0395347 0.125101 0.991356
    outer loop
      vertex 15.8752 36.7148 4
      vertex 8.31557 40.1839 3.8637
      vertex 8.10578 39.1701 4
    endloop
  endfacet
  facet normal 0.0395319 0.125096 0.991357
    outer loop
      vertex 15.8752 36.7148 4
      vertex 16.2861 37.6651 3.8637
      vertex 8.31557 40.1839 3.8637
    endloop
  endfacet
  facet normal -0.039534 -0.125102 0.991356
    outer loop
      vertex 15.4643 35.7646 3.8637
      vertex 8.10578 39.1701 4
      vertex 7.89599 38.1563 3.8637
    endloop
  endfacet
  facet normal -0.0395363 -0.125107 0.991355
    outer loop
      vertex 15.4643 35.7646 3.8637
      vertex 15.8752 36.7148 4
      vertex 8.10578 39.1701 4
    endloop
  endfacet
  facet normal -0.115828 -0.366523 0.923171
    outer loop
      vertex 15.0814 34.8791 3.4641
      vertex 7.89599 38.1563 3.8637
      vertex 7.70049 37.2116 3.4641
    endloop
  endfacet
  facet normal -0.115825 -0.366517 0.923174
    outer loop
      vertex 15.0814 34.8791 3.4641
      vertex 15.4643 35.7646 3.8637
      vertex 7.89599 38.1563 3.8637
    endloop
  endfacet
  facet normal -0.184045 -0.582384 0.791806
    outer loop
      vertex 14.7527 34.1187 2.82843
      vertex 7.70049 37.2116 3.4641
      vertex 7.53261 36.4004 2.82843
    endloop
  endfacet
  facet normal -0.184041 -0.582375 0.791813
    outer loop
      vertex 14.7527 34.1187 2.82843
      vertex 15.0814 34.8791 3.4641
      vertex 7.70049 37.2116 3.4641
    endloop
  endfacet
  facet normal -0.239525 -0.757931 0.606769
    outer loop
      vertex 14.5004 33.5352 2
      vertex 7.53261 36.4004 2.82843
      vertex 7.4038 35.7779 2
    endloop
  endfacet
  facet normal -0.239519 -0.757921 0.606783
    outer loop
      vertex 14.5004 33.5352 2
      vertex 14.7527 34.1187 2.82843
      vertex 7.53261 36.4004 2.82843
    endloop
  endfacet
  facet normal -0.278613 -0.881608 0.380976
    outer loop
      vertex 14.3418 33.1684 1.03528
      vertex 7.4038 35.7779 2
      vertex 7.32282 35.3866 1.03528
    endloop
  endfacet
  facet normal -0.278607 -0.881599 0.380999
    outer loop
      vertex 14.3418 33.1684 1.03528
      vertex 14.5004 33.5352 2
      vertex 7.4038 35.7779 2
    endloop
  endfacet
  facet normal -0.298782 -0.945441 0.129886
    outer loop
      vertex 14.2877 33.0433 0
      vertex 7.32282 35.3866 1.03528
      vertex 7.2952 35.2531 0
    endloop
  endfacet
  facet normal -0.298787 -0.945443 0.129858
    outer loop
      vertex 14.2877 33.0433 0
      vertex 14.3418 33.1684 1.03528
      vertex 7.32282 35.3866 1.03528
    endloop
  endfacet
  facet normal 0.484166 0.865286 0.129859
    outer loop
      vertex 25.2062 35.8981 1.03528
      vertex 17.4627 40.3863 0
      vertex 17.4086 40.2612 1.03528
    endloop
  endfacet
  facet normal 0.48416 0.865284 0.129893
    outer loop
      vertex 25.2062 35.8981 1.03528
      vertex 25.2845 36.0097 0
      vertex 17.4627 40.3863 0
    endloop
  endfacet
  facet normal 0.451469 0.806855 0.380999
    outer loop
      vertex 24.9765 35.5711 2
      vertex 17.4086 40.2612 1.03528
      vertex 17.25 39.8944 2
    endloop
  endfacet
  facet normal 0.451473 0.806859 0.380987
    outer loop
      vertex 24.9765 35.5711 2
      vertex 25.2062 35.8981 1.03528
      vertex 17.4086 40.2612 1.03528
    endloop
  endfacet
  facet normal 0.388177 0.69371 0.6067
    outer loop
      vertex 24.6112 35.0508 2.82843
      vertex 17.25 39.8944 2
      vertex 16.9978 39.311 2.82843
    endloop
  endfacet
  facet normal 0.388127 0.693652 0.606798
    outer loop
      vertex 24.6112 35.0508 2.82843
      vertex 24.9765 35.5711 2
      vertex 17.25 39.8944 2
    endloop
  endfacet
  facet normal 0.29823 0.532984 0.791825
    outer loop
      vertex 24.1352 34.3729 3.4641
      vertex 16.9978 39.311 2.82843
      vertex 16.669 38.5506 3.4641
    endloop
  endfacet
  facet normal 0.298264 0.533027 0.791783
    outer loop
      vertex 24.1352 34.3729 3.4641
      vertex 24.6112 35.0508 2.82843
      vertex 16.9978 39.311 2.82843
    endloop
  endfacet
  facet normal 0.187697 0.335439 0.923174
    outer loop
      vertex 23.5808 33.5833 3.8637
      vertex 16.669 38.5506 3.4641
      vertex 16.2861 37.6651 3.8637
    endloop
  endfacet
  facet normal 0.187686 0.335424 0.923182
    outer loop
      vertex 23.5808 33.5833 3.8637
      vertex 24.1352 34.3729 3.4641
      vertex 16.669 38.5506 3.4641
    endloop
  endfacet
  facet normal 0.064061 0.114489 0.991357
    outer loop
      vertex 22.9859 32.7361 4
      vertex 16.2861 37.6651 3.8637
      vertex 15.8752 36.7148 4
    endloop
  endfacet
  facet normal 0.0640704 0.114502 0.991355
    outer loop
      vertex 22.9859 32.7361 4
      vertex 23.5808 33.5833 3.8637
      vertex 16.2861 37.6651 3.8637
    endloop
  endfacet
  facet normal -0.0640671 -0.114499 0.991355
    outer loop
      vertex 22.391 31.8888 3.8637
      vertex 15.8752 36.7148 4
      vertex 15.4643 35.7646 3.8637
    endloop
  endfacet
  facet normal -0.0640635 -0.114494 0.991356
    outer loop
      vertex 22.391 31.8888 3.8637
      vertex 22.9859 32.7361 4
      vertex 15.8752 36.7148 4
    endloop
  endfacet
  facet normal -0.187692 -0.335441 0.923174
    outer loop
      vertex 21.8366 31.0993 3.4641
      vertex 15.4643 35.7646 3.8637
      vertex 15.0814 34.8791 3.4641
    endloop
  endfacet
  facet normal -0.187699 -0.33545 0.92317
    outer loop
      vertex 21.8366 31.0993 3.4641
      vertex 22.391 31.8888 3.8637
      vertex 15.4643 35.7646 3.8637
    endloop
  endfacet
  facet normal -0.298243 -0.533003 0.791807
    outer loop
      vertex 21.3605 30.4213 2.82843
      vertex 15.0814 34.8791 3.4641
      vertex 14.7527 34.1187 2.82843
    endloop
  endfacet
  facet normal -0.298223 -0.532979 0.791831
    outer loop
      vertex 21.3605 30.4213 2.82843
      vertex 21.8366 31.0993 3.4641
      vertex 15.0814 34.8791 3.4641
    endloop
  endfacet
  facet normal -0.388135 -0.693661 0.606783
    outer loop
      vertex 20.9953 29.901 2
      vertex 14.7527 34.1187 2.82843
      vertex 14.5004 33.5352 2
    endloop
  endfacet
  facet normal -0.388143 -0.693669 0.606769
    outer loop
      vertex 20.9953 29.901 2
      vertex 21.3605 30.4213 2.82843
      vertex 14.7527 34.1187 2.82843
    endloop
  endfacet
  facet normal -0.451471 -0.806854 0.380999
    outer loop
      vertex 20.7656 29.574 1.03528
      vertex 14.5004 33.5352 2
      vertex 14.3418 33.1684 1.03528
    endloop
  endfacet
  facet normal -0.451475 -0.806858 0.380987
    outer loop
      vertex 20.7656 29.574 1.03528
      vertex 20.9953 29.901 2
      vertex 14.5004 33.5352 2
    endloop
  endfacet
  facet normal -0.48417 -0.865284 0.129859
    outer loop
      vertex 20.6873 29.4624 0
      vertex 14.3418 33.1684 1.03528
      vertex 14.2877 33.0433 0
    endloop
  endfacet
  facet normal -0.484164 -0.865282 0.129893
    outer loop
      vertex 20.6873 29.4624 0
      vertex 20.7656 29.574 1.03528
      vertex 14.3418 33.1684 1.03528
    endloop
  endfacet
  facet normal 0.649472 0.749211 0.129883
    outer loop
      vertex 31.9577 30.0454 1.03528
      vertex 25.2845 36.0097 0
      vertex 25.2062 35.8981 1.03528
    endloop
  endfacet
  facet normal 0.649471 0.749211 0.129886
    outer loop
      vertex 31.9577 30.0454 1.03528
      vertex 32.057 30.1388 0
      vertex 25.2845 36.0097 0
    endloop
  endfacet
  facet normal 0.605611 0.698623 0.381
    outer loop
      vertex 31.6666 29.7717 2
      vertex 25.2062 35.8981 1.03528
      vertex 24.9765 35.5711 2
    endloop
  endfacet
  facet normal 0.605627 0.698634 0.380954
    outer loop
      vertex 31.6666 29.7717 2
      vertex 31.9577 30.0454 1.03528
      vertex 25.2062 35.8981 1.03528
    endloop
  endfacet
  facet normal 0.520638 0.600613 0.606796
    outer loop
      vertex 31.2035 29.3363 2.82843
      vertex 24.9765 35.5711 2
      vertex 24.6112 35.0508 2.82843
    endloop
  endfacet
  facet normal 0.520672 0.600639 0.60674
    outer loop
      vertex 31.2035 29.3363 2.82843
      vertex 31.6666 29.7717 2
      vertex 24.9765 35.5711 2
    endloop
  endfacet
  facet normal 0.400089 0.461529 0.791783
    outer loop
      vertex 30.5999 28.7688 3.4641
      vertex 24.6112 35.0508 2.82843
      vertex 24.1352 34.3729 3.4641
    endloop
  endfacet
  facet normal 0.400032 0.46148 0.79184
    outer loop
      vertex 30.5999 28.7688 3.4641
      vertex 31.2035 29.3363 2.82843
      vertex 24.6112 35.0508 2.82843
    endloop
  endfacet
  facet normal 0.251765 0.290431 0.923181
    outer loop
      vertex 29.897 28.108 3.8637
      vertex 24.1352 34.3729 3.4641
      vertex 23.5808 33.5833 3.8637
    endloop
  endfacet
  facet normal 0.251779 0.290443 0.923174
    outer loop
      vertex 29.897 28.108 3.8637
      vertex 30.5999 28.7688 3.4641
      vertex 24.1352 34.3729 3.4641
    endloop
  endfacet
  facet normal 0.0859435 0.0991429 0.991355
    outer loop
      vertex 29.1428 27.3989 4
      vertex 23.5808 33.5833 3.8637
      vertex 22.9859 32.7361 4
    endloop
  endfacet
  facet normal 0.0859441 0.0991434 0.991355
    outer loop
      vertex 29.1428 27.3989 4
      vertex 29.897 28.108 3.8637
      vertex 23.5808 33.5833 3.8637
    endloop
  endfacet
  facet normal -0.0859371 -0.0991359 0.991356
    outer loop
      vertex 28.3885 26.6898 3.8637
      vertex 22.9859 32.7361 4
      vertex 22.391 31.8888 3.8637
    endloop
  endfacet
  facet normal -0.0859387 -0.0991373 0.991356
    outer loop
      vertex 28.3885 26.6898 3.8637
      vertex 29.1428 27.3989 4
      vertex 22.9859 32.7361 4
    endloop
  endfacet
  facet normal -0.251785 -0.290449 0.923171
    outer loop
      vertex 27.6856 26.0289 3.4641
      vertex 22.391 31.8888 3.8637
      vertex 21.8366 31.0993 3.4641
    endloop
  endfacet
  facet normal -0.251759 -0.290426 0.923185
    outer loop
      vertex 27.6856 26.0289 3.4641
      vertex 28.3885 26.6898 3.8637
      vertex 22.391 31.8888 3.8637
    endloop
  endfacet
  facet normal -0.40004 -0.461484 0.791834
    outer loop
      vertex 27.0821 25.4615 2.82843
      vertex 21.8366 31.0993 3.4641
      vertex 21.3605 30.4213 2.82843
    endloop
  endfacet
  facet normal -0.400084 -0.46152 0.79179
    outer loop
      vertex 27.0821 25.4615 2.82843
      vertex 27.6856 26.0289 3.4641
      vertex 21.8366 31.0993 3.4641
    endloop
  endfacet
  facet normal -0.520665 -0.60063 0.606755
    outer loop
      vertex 26.6189 25.0261 2
      vertex 21.3605 30.4213 2.82843
      vertex 20.9953 29.901 2
    endloop
  endfacet
  facet normal -0.52065 -0.600619 0.606779
    outer loop
      vertex 26.6189 25.0261 2
      vertex 27.0821 25.4615 2.82843
      vertex 21.3605 30.4213 2.82843
    endloop
  endfacet
  facet normal -0.605606 -0.698627 0.381001
    outer loop
      vertex 26.3278 24.7524 1.03528
      vertex 20.9953 29.901 2
      vertex 20.7656 29.574 1.03528
    endloop
  endfacet
  facet normal -0.605624 -0.698637 0.380954
    outer loop
      vertex 26.3278 24.7524 1.03528
      vertex 26.6189 25.0261 2
      vertex 20.9953 29.901 2
    endloop
  endfacet
  facet normal -0.649462 -0.749219 0.129883
    outer loop
      vertex 26.2285 24.659 0
      vertex 20.7656 29.574 1.03528
      vertex 20.6873 29.4624 0
    endloop
  endfacet
  facet normal -0.649462 -0.749219 0.129886
    outer loop
      vertex 26.2285 24.659 0
      vertex 26.3278 24.7524 1.03528
      vertex 20.7656 29.574 1.03528
    endloop
  endfacet
  facet normal 0.787814 0.602063 0.12988
    outer loop
      vertex 37.3832 22.946 1.03528
      vertex 32.057 30.1388 0
      vertex 31.9577 30.0454 1.03528
    endloop
  endfacet
  facet normal 0.787813 0.602063 0.129888
    outer loop
      vertex 37.3832 22.946 1.03528
      vertex 37.4994 23.0173 0
      vertex 32.057 30.1388 0
    endloop
  endfacet
  facet normal 0.734629 0.561423 0.380952
    outer loop
      vertex 37.0427 22.737 2
      vertex 31.9577 30.0454 1.03528
      vertex 31.6666 29.7717 2
    endloop
  endfacet
  facet normal 0.734641 0.561427 0.380923
    outer loop
      vertex 37.0427 22.737 2
      vertex 37.3832 22.946 1.03528
      vertex 31.9577 30.0454 1.03528
    endloop
  endfacet
  facet normal 0.631588 0.482664 0.606739
    outer loop
      vertex 36.5009 22.4044 2.82843
      vertex 31.6666 29.7717 2
      vertex 31.2035 29.3363 2.82843
    endloop
  endfacet
  facet normal 0.631542 0.482641 0.606805
    outer loop
      vertex 36.5009 22.4044 2.82843
      vertex 37.0427 22.737 2
      vertex 31.6666 29.7717 2
    endloop
  endfacet
  facet normal 0.485249 0.370841 0.79184
    outer loop
      vertex 35.7949 21.9711 3.4641
      vertex 31.2035 29.3363 2.82843
      vertex 30.5999 28.7688 3.4641
    endloop
  endfacet
  facet normal 0.485301 0.37087 0.791795
    outer loop
      vertex 35.7949 21.9711 3.4641
      vertex 36.5009 22.4044 2.82843
      vertex 31.2035 29.3363 2.82843
    endloop
  endfacet
  facet normal 0.305406 0.2334 0.923175
    outer loop
      vertex 34.9727 21.4664 3.8637
      vertex 30.5999 28.7688 3.4641
      vertex 29.897 28.108 3.8637
    endloop
  endfacet
  facet normal 0.305405 0.233399 0.923175
    outer loop
      vertex 34.9727 21.4664 3.8637
      vertex 35.7949 21.9711 3.4641
      vertex 30.5999 28.7688 3.4641
    endloop
  endfacet
  facet normal 0.104252 0.079671 0.991355
    outer loop
      vertex 34.0904 20.9248 4
      vertex 29.897 28.108 3.8637
      vertex 29.1428 27.3989 4
    endloop
  endfacet
  facet normal 0.104244 0.0796663 0.991356
    outer loop
      vertex 34.0904 20.9248 4
      vertex 34.9727 21.4664 3.8637
      vertex 29.897 28.108 3.8637
    endloop
  endfacet
  facet normal -0.104245 -0.079664 0.991356
    outer loop
      vertex 33.208 20.3832 3.8637
      vertex 29.1428 27.3989 4
      vertex 28.3885 26.6898 3.8637
    endloop
  endfacet
  facet normal -0.104237 -0.0796592 0.991357
    outer loop
      vertex 33.208 20.3832 3.8637
      vertex 34.0904 20.9248 4
      vertex 29.1428 27.3989 4
    endloop
  endfacet
  facet normal -0.30539 -0.233386 0.923183
    outer loop
      vertex 32.3858 19.8786 3.4641
      vertex 28.3885 26.6898 3.8637
      vertex 27.6856 26.0289 3.4641
    endloop
  endfacet
  facet normal -0.305425 -0.233406 0.923167
    outer loop
      vertex 32.3858 19.8786 3.4641
      vertex 33.208 20.3832 3.8637
      vertex 28.3885 26.6898 3.8637
    endloop
  endfacet
  facet normal -0.485306 -0.370875 0.791789
    outer loop
      vertex 31.6798 19.4452 2.82843
      vertex 27.6856 26.0289 3.4641
      vertex 27.0821 25.4615 2.82843
    endloop
  endfacet
  facet normal -0.485275 -0.370858 0.791816
    outer loop
      vertex 31.6798 19.4452 2.82843
      vertex 32.3858 19.8786 3.4641
      vertex 27.6856 26.0289 3.4641
    endloop
  endfacet
  facet normal -0.631557 -0.482644 0.606787
    outer loop
      vertex 31.138 19.1127 2
      vertex 27.0821 25.4615 2.82843
      vertex 26.6189 25.0261 2
    endloop
  endfacet
  facet normal -0.63157 -0.48265 0.606769
    outer loop
      vertex 31.138 19.1127 2
      vertex 31.6798 19.4452 2.82843
      vertex 27.0821 25.4615 2.82843
    endloop
  endfacet
  facet normal -0.734636 -0.561415 0.380952
    outer loop
      vertex 30.7975 18.9036 1.03528
      vertex 26.6189 25.0261 2
      vertex 26.3278 24.7524 1.03528
    endloop
  endfacet
  facet normal -0.734627 -0.561412 0.380972
    outer loop
      vertex 30.7975 18.9036 1.03528
      vertex 31.138 19.1127 2
      vertex 26.6189 25.0261 2
    endloop
  endfacet
  facet normal -0.787819 -0.602056 0.12988
    outer loop
      vertex 30.6813 18.8323 0
      vertex 26.3278 24.7524 1.03528
      vertex 26.2285 24.659 0
    endloop
  endfacet
  facet normal -0.787818 -0.602057 0.129889
    outer loop
      vertex 30.6813 18.8323 0
      vertex 30.7975 18.9036 1.03528
      vertex 26.3278 24.7524 1.03528
    endloop
  endfacet
  facet normal 0.893472 0.429924 0.129892
    outer loop
      vertex 41.2575 14.8944 1.03528
      vertex 37.4994 23.0173 0
      vertex 37.3832 22.946 1.03528
    endloop
  endfacet
  facet normal 0.893477 0.429923 0.129867
    outer loop
      vertex 41.2575 14.8944 1.03528
      vertex 41.3857 14.9407 0
      vertex 37.4994 23.0173 0
    endloop
  endfacet
  facet normal 0.833175 0.400897 0.380922
    outer loop
      vertex 40.8816 14.7587 2
      vertex 37.3832 22.946 1.03528
      vertex 37.0427 22.737 2
    endloop
  endfacet
  facet normal 0.833134 0.400891 0.381018
    outer loop
      vertex 40.8816 14.7587 2
      vertex 41.2575 14.8944 1.03528
      vertex 37.3832 22.946 1.03528
    endloop
  endfacet
  facet normal 0.716249 0.344645 0.606801
    outer loop
      vertex 40.2837 14.5429 2.82843
      vertex 37.0427 22.737 2
      vertex 36.5009 22.4044 2.82843
    endloop
  endfacet
  facet normal 0.71629 0.344656 0.606746
    outer loop
      vertex 40.2837 14.5429 2.82843
      vertex 40.8816 14.7587 2
      vertex 37.0427 22.737 2
    endloop
  endfacet
  facet normal 0.550384 0.26483 0.791797
    outer loop
      vertex 39.5045 14.2616 3.4641
      vertex 36.5009 22.4044 2.82843
      vertex 35.7949 21.9711 3.4641
    endloop
  endfacet
  facet normal 0.550359 0.264822 0.791817
    outer loop
      vertex 39.5045 14.2616 3.4641
      vertex 40.2837 14.5429 2.82843
      vertex 36.5009 22.4044 2.82843
    endloop
  endfacet
  facet normal 0.34637 0.166664 0.923174
    outer loop
      vertex 38.5971 13.934 3.8637
      vertex 35.7949 21.9711 3.4641
      vertex 34.9727 21.4664 3.8637
    endloop
  endfacet
  facet normal 0.346374 0.166666 0.923172
    outer loop
      vertex 38.5971 13.934 3.8637
      vertex 39.5045 14.2616 3.4641
      vertex 35.7949 21.9711 3.4641
    endloop
  endfacet
  facet normal 0.118227 0.056888 0.991356
    outer loop
      vertex 37.6234 13.5824 4
      vertex 34.9727 21.4664 3.8637
      vertex 34.0904 20.9248 4
    endloop
  endfacet
  facet normal 0.118229 0.0568888 0.991355
    outer loop
      vertex 37.6234 13.5824 4
      vertex 38.5971 13.934 3.8637
      vertex 34.9727 21.4664 3.8637
    endloop
  endfacet
  facet normal -0.118216 -0.056884 0.991357
    outer loop
      vertex 36.6496 13.2309 3.8637
      vertex 34.0904 20.9248 4
      vertex 33.208 20.3832 3.8637
    endloop
  endfacet
  facet normal -0.118224 -0.0568866 0.991356
    outer loop
      vertex 36.6496 13.2309 3.8637
      vertex 37.6234 13.5824 4
      vertex 34.0904 20.9248 4
    endloop
  endfacet
  facet normal -0.346381 -0.166673 0.923168
    outer loop
      vertex 35.7422 12.9033 3.4641
      vertex 33.208 20.3832 3.8637
      vertex 32.3858 19.8786 3.4641
    endloop
  endfacet
  facet normal -0.346373 -0.16667 0.923172
    outer loop
      vertex 35.7422 12.9033 3.4641
      vertex 36.6496 13.2309 3.8637
      vertex 33.208 20.3832 3.8637
    endloop
  endfacet
  facet normal -0.550363 -0.264825 0.791813
    outer loop
      vertex 34.963 12.622 2.82843
      vertex 32.3858 19.8786 3.4641
      vertex 31.6798 19.4452 2.82843
    endloop
  endfacet
  facet normal -0.550359 -0.264824 0.791817
    outer loop
      vertex 34.963 12.622 2.82843
      vertex 35.7422 12.9033 3.4641
      vertex 32.3858 19.8786 3.4641
    endloop
  endfacet
  facet normal -0.716264 -0.344659 0.606775
    outer loop
      vertex 34.3651 12.4062 2
      vertex 31.6798 19.4452 2.82843
      vertex 31.138 19.1127 2
    endloop
  endfacet
  facet normal -0.716287 -0.344664 0.606746
    outer loop
      vertex 34.3651 12.4062 2
      vertex 34.963 12.622 2.82843
      vertex 31.6798 19.4452 2.82843
    endloop
  endfacet
  facet normal -0.833158 -0.400897 0.380958
    outer loop
      vertex 33.9892 12.2705 1.03528
      vertex 31.138 19.1127 2
      vertex 30.7975 18.9036 1.03528
    endloop
  endfacet
  facet normal -0.833132 -0.400895 0.381018
    outer loop
      vertex 33.9892 12.2705 1.03528
      vertex 34.3651 12.4062 2
      vertex 31.138 19.1127 2
    endloop
  endfacet
  facet normal -0.893473 -0.429923 0.129892
    outer loop
      vertex 33.861 12.2242 0
      vertex 30.7975 18.9036 1.03528
      vertex 30.6813 18.8323 0
    endloop
  endfacet
  facet normal -0.893477 -0.429921 0.129867
    outer loop
      vertex 33.861 12.2242 0
      vertex 33.9892 12.2705 1.03528
      vertex 30.7975 18.9036 1.03528
    endloop
  endfacet
  facet normal 0.96206 0.239949 0.129864
    outer loop
      vertex 43.4198 6.22479 1.03528
      vertex 41.3857 14.9407 0
      vertex 41.2575 14.8944 1.03528
    endloop
  endfacet
  facet normal 0.962064 0.239947 0.129842
    outer loop
      vertex 43.4198 6.22479 1.03528
      vertex 43.5547 6.24413 0
      vertex 41.3857 14.9407 0
    endloop
  endfacet
  facet normal 0.897086 0.223744 0.381019
    outer loop
      vertex 43.0242 6.16808 2
      vertex 41.2575 14.8944 1.03528
      vertex 40.8816 14.7587 2
    endloop
  endfacet
  facet normal 0.897086 0.223744 0.381018
    outer loop
      vertex 43.0242 6.16808 2
      vertex 43.4198 6.22479 1.03528
      vertex 41.2575 14.8944 1.03528
    endloop
  endfacet
  facet normal 0.771264 0.192364 0.606751
    outer loop
      vertex 42.395 6.07787 2.82843
      vertex 40.8816 14.7587 2
      vertex 40.2837 14.5429 2.82843
    endloop
  endfacet
  facet normal 0.771275 0.192365 0.606738
    outer loop
      vertex 42.395 6.07787 2.82843
      vertex 43.0242 6.16808 2
      vertex 40.8816 14.7587 2
    endloop
  endfacet
  facet normal 0.592605 0.1478 0.791817
    outer loop
      vertex 41.5749 5.9603 3.4641
      vertex 40.2837 14.5429 2.82843
      vertex 39.5045 14.2616 3.4641
    endloop
  endfacet
  facet normal 0.592576 0.147797 0.791839
    outer loop
      vertex 41.5749 5.9603 3.4641
      vertex 42.395 6.07787 2.82843
      vertex 40.2837 14.5429 2.82843
    endloop
  endfacet
  facet normal 0.372962 0.093022 0.923172
    outer loop
      vertex 40.62 5.8234 3.8637
      vertex 39.5045 14.2616 3.4641
      vertex 38.5971 13.934 3.8637
    endloop
  endfacet
  facet normal 0.372983 0.0930244 0.923163
    outer loop
      vertex 40.62 5.8234 3.8637
      vertex 41.5749 5.9603 3.4641
      vertex 39.5045 14.2616 3.4641
    endloop
  endfacet
  facet normal 0.127306 0.0317512 0.991355
    outer loop
      vertex 39.5952 5.67648 4
      vertex 38.5971 13.934 3.8637
      vertex 37.6234 13.5824 4
    endloop
  endfacet
  facet normal 0.1273 0.0317504 0.991356
    outer loop
      vertex 39.5952 5.67648 4
      vertex 40.62 5.8234 3.8637
      vertex 38.5971 13.934 3.8637
    endloop
  endfacet
  facet normal -0.127297 -0.0317493 0.991356
    outer loop
      vertex 38.5704 5.52956 3.8637
      vertex 37.6234 13.5824 4
      vertex 36.6496 13.2309 3.8637
    endloop
  endfacet
  facet normal -0.1273 -0.0317497 0.991356
    outer loop
      vertex 38.5704 5.52956 3.8637
      vertex 39.5952 5.67648 4
      vertex 37.6234 13.5824 4
    endloop
  endfacet
  facet normal -0.372963 -0.0930192 0.923172
    outer loop
      vertex 37.6154 5.39266 3.4641
      vertex 36.6496 13.2309 3.8637
      vertex 35.7422 12.9033 3.4641
    endloop
  endfacet
  facet normal -0.37295 -0.0930179 0.923177
    outer loop
      vertex 37.6154 5.39266 3.4641
      vertex 38.5704 5.52956 3.8637
      vertex 36.6496 13.2309 3.8637
    endloop
  endfacet
  facet normal -0.592605 -0.147802 0.791817
    outer loop
      vertex 36.7954 5.27509 2.82843
      vertex 35.7422 12.9033 3.4641
      vertex 34.963 12.622 2.82843
    endloop
  endfacet
  facet normal -0.592621 -0.147803 0.791805
    outer loop
      vertex 36.7954 5.27509 2.82843
      vertex 37.6154 5.39266 3.4641
      vertex 35.7422 12.9033 3.4641
    endloop
  endfacet
  facet normal -0.771267 -0.192354 0.606751
    outer loop
      vertex 36.1661 5.18488 2
      vertex 34.963 12.622 2.82843
      vertex 34.3651 12.4062 2
    endloop
  endfacet
  facet normal -0.771232 -0.192354 0.606796
    outer loop
      vertex 36.1661 5.18488 2
      vertex 36.7954 5.27509 2.82843
      vertex 34.963 12.622 2.82843
    endloop
  endfacet
  facet normal -0.897085 -0.223746 0.381019
    outer loop
      vertex 35.7706 5.12817 1.03528
      vertex 34.3651 12.4062 2
      vertex 33.9892 12.2705 1.03528
    endloop
  endfacet
  facet normal -0.89712 -0.223742 0.380939
    outer loop
      vertex 35.7706 5.12817 1.03528
      vertex 36.1661 5.18488 2
      vertex 34.3651 12.4062 2
    endloop
  endfacet
  facet normal -0.962059 -0.239955 0.129864
    outer loop
      vertex 35.6357 5.10883 0
      vertex 33.9892 12.2705 1.03528
      vertex 33.861 12.2242 0
    endloop
  endfacet
  facet normal -0.962062 -0.239952 0.129842
    outer loop
      vertex 35.6357 5.10883 0
      vertex 35.7706 5.12817 1.03528
      vertex 33.9892 12.2705 1.03528
    endloop
  endfacet
  facet normal -0.086218 -0.987775 -0.129874
    outer loop
      vertex 8.16864 42.1129 0.776457
      vertex 9.50926e-15 42.8259 0.776457
      vertex 9.53001e-15 42.9194 0.0653311
    endloop
  endfacet
  facet normal -0.0862332 -0.987948 -0.128538
    outer loop
      vertex 8.18811 42.2132 0
      vertex 9.53001e-15 42.9194 0.0653311
      vertex 9.53192e-15 42.9279 0
    endloop
  endfacet
  facet normal -0.0862292 -0.987789 -0.129761
    outer loop
      vertex 9.53001e-15 42.9194 0.0653311
      vertex 8.18811 42.2132 0
      vertex 8.16864 42.1129 0.776457
    endloop
  endfacet
  facet normal -0.0804094 -0.921123 -0.380877
    outer loop
      vertex 8.11157 41.8186 1.5
      vertex 9.44282e-15 42.5267 1.5
      vertex 9.50365e-15 42.8006 0.837594
    endloop
  endfacet
  facet normal -0.0803753 -0.921017 -0.38114
    outer loop
      vertex 9.50926e-15 42.8259 0.776457
      vertex 8.11157 41.8186 1.5
      vertex 9.50365e-15 42.8006 0.837594
    endloop
  endfacet
  facet normal -0.0803963 -0.921078 -0.380988
    outer loop
      vertex 8.11157 41.8186 1.5
      vertex 9.50926e-15 42.8259 0.776457
      vertex 8.16864 42.1129 0.776457
    endloop
  endfacet
  facet normal -0.0691248 -0.791938 -0.606676
    outer loop
      vertex 8.02079 41.3506 2.12132
      vertex 9.33714e-15 42.0507 2.12132
      vertex 9.43386e-15 42.4863 1.5527
    endloop
  endfacet
  facet normal -0.0690769 -0.791735 -0.606947
    outer loop
      vertex 9.44282e-15 42.5267 1.5
      vertex 8.02079 41.3506 2.12132
      vertex 9.43386e-15 42.4863 1.5527
    endloop
  endfacet
  facet normal -0.0691348 -0.791966 -0.606638
    outer loop
      vertex 8.02079 41.3506 2.12132
      vertex 9.44282e-15 42.5267 1.5
      vertex 8.11157 41.8186 1.5
    endloop
  endfacet
  facet normal -0.0531186 -0.608536 -0.791747
    outer loop
      vertex 7.90247 40.7407 2.59808
      vertex 9.19941e-15 41.4305 2.59808
      vertex 9.32542e-15 41.998 2.1619
    endloop
  endfacet
  facet normal -0.053127 -0.608578 -0.791714
    outer loop
      vertex 9.32542e-15 41.998 2.1619
      vertex 8.02079 41.3506 2.12132
      vertex 7.90247 40.7407 2.59808
    endloop
  endfacet
  facet normal -0.0531779 -0.60924 -0.791201
    outer loop
      vertex 8.02079 41.3506 2.12132
      vertex 9.32542e-15 41.998 2.1619
      vertex 9.33714e-15 42.0507 2.12132
    endloop
  endfacet
  facet normal -0.0334296 -0.383017 -0.923136
    outer loop
      vertex 7.7647 40.0304 2.89778
      vertex 9.03902e-15 40.7081 2.89778
      vertex 9.18573e-15 41.3688 2.62365
    endloop
  endfacet
  facet normal -0.0334299 -0.383019 -0.923136
    outer loop
      vertex 9.18573e-15 41.3688 2.62365
      vertex 7.90247 40.7407 2.59808
      vertex 7.7647 40.0304 2.89778
    endloop
  endfacet
  facet normal -0.0334 -0.382636 -0.923295
    outer loop
      vertex 7.90247 40.7407 2.59808
      vertex 9.18573e-15 41.3688 2.62365
      vertex 9.19941e-15 41.4305 2.59808
    endloop
  endfacet
  facet normal -0.0114127 -0.13074 -0.991351
    outer loop
      vertex 7.61684 39.2681 3
      vertex 8.8669e-15 39.933 3
      vertex 9.02431e-15 40.6419 2.90651
    endloop
  endfacet
  facet normal -0.0114094 -0.130722 -0.991353
    outer loop
      vertex 9.02431e-15 40.6419 2.90651
      vertex 7.7647 40.0304 2.89778
      vertex 7.61684 39.2681 3
    endloop
  endfacet
  facet normal -0.0114103 -0.130733 -0.991352
    outer loop
      vertex 7.7647 40.0304 2.89778
      vertex 9.02431e-15 40.6419 2.90651
      vertex 9.03902e-15 40.7081 2.89778
    endloop
  endfacet
  facet normal 0.0114099 0.130726 -0.991353
    outer loop
      vertex 7.46899 38.5059 2.89778
      vertex 8.69478e-15 39.1578 2.89778
      vertex 8.85219e-15 39.8667 2.99126
    endloop
  endfacet
  facet normal 0.0114121 0.130738 -0.991351
    outer loop
      vertex 8.85219e-15 39.8667 2.99126
      vertex 7.61684 39.2681 3
      vertex 7.46899 38.5059 2.89778
    endloop
  endfacet
  facet normal 0.011408 0.130686 -0.991358
    outer loop
      vertex 7.61684 39.2681 3
      vertex 8.85219e-15 39.8667 2.99126
      vertex 8.8669e-15 39.933 3
    endloop
  endfacet
  facet normal 0.0334326 0.383031 -0.92313
    outer loop
      vertex 7.33121 37.7956 2.59808
      vertex 8.53439e-15 38.4355 2.59808
      vertex 8.68109e-15 39.0961 2.87218
    endloop
  endfacet
  facet normal 0.0334302 0.383018 -0.923136
    outer loop
      vertex 8.68109e-15 39.0961 2.87218
      vertex 7.46899 38.5059 2.89778
      vertex 7.33121 37.7956 2.59808
    endloop
  endfacet
  facet normal 0.0334302 0.383019 -0.923135
    outer loop
      vertex 7.46899 38.5059 2.89778
      vertex 8.68109e-15 39.0961 2.87218
      vertex 8.69478e-15 39.1578 2.89778
    endloop
  endfacet
  facet normal 0.05312 0.608559 -0.791728
    outer loop
      vertex 7.2129 37.1856 2.12132
      vertex 8.39666e-15 37.8152 2.12132
      vertex 8.52266e-15 38.3826 2.55745
    endloop
  endfacet
  facet normal 0.0531112 0.608518 -0.791761
    outer loop
      vertex 8.52266e-15 38.3826 2.55745
      vertex 7.33121 37.7956 2.59808
      vertex 7.2129 37.1856 2.12132
    endloop
  endfacet
  facet normal 0.053092 0.608265 -0.791957
    outer loop
      vertex 7.33121 37.7956 2.59808
      vertex 8.52266e-15 38.3826 2.55745
      vertex 8.53439e-15 38.4355 2.59808
    endloop
  endfacet
  facet normal 0.0691322 0.791969 -0.606635
    outer loop
      vertex 7.12211 36.7176 1.5
      vertex 8.29098e-15 37.3393 1.5
      vertex 8.38769e-15 37.7748 2.06855
    endloop
  endfacet
  facet normal 0.0691292 0.791967 -0.606638
    outer loop
      vertex 7.12211 36.7176 1.5
      vertex 8.39666e-15 37.8152 2.12132
      vertex 7.2129 37.1856 2.12132
    endloop
  endfacet
  facet normal 0.0691704 0.792119 -0.606435
    outer loop
      vertex 8.39666e-15 37.8152 2.12132
      vertex 7.12211 36.7176 1.5
      vertex 8.38769e-15 37.7748 2.06855
    endloop
  endfacet
  facet normal 0.080407 0.921159 -0.38079
    outer loop
      vertex 7.06504 36.4234 0.776457
      vertex 8.22454e-15 37.0401 0.776457
      vertex 8.28536e-15 37.3139 1.4388
    endloop
  endfacet
  facet normal 0.0803627 0.920625 -0.382089
    outer loop
      vertex 7.12211 36.7176 1.5
      vertex 8.28536e-15 37.3139 1.4388
      vertex 8.29098e-15 37.3393 1.5
    endloop
  endfacet
  facet normal 0.0803941 0.921123 -0.380879
    outer loop
      vertex 8.28536e-15 37.3139 1.4388
      vertex 7.12211 36.7176 1.5
      vertex 7.06504 36.4234 0.776457
    endloop
  endfacet
  facet normal 0.0862216 0.987774 -0.129878
    outer loop
      vertex 7.04558 36.323 0
      vertex 8.20188e-15 36.938 0
      vertex 8.22264e-15 37.0315 0.711103
    endloop
  endfacet
  facet normal 0.0862206 0.987761 -0.12998
    outer loop
      vertex 7.06504 36.4234 0.776457
      vertex 8.22264e-15 37.0315 0.711103
      vertex 8.22454e-15 37.0401 0.776457
    endloop
  endfacet
  facet normal 0.0862208 0.987773 -0.129885
    outer loop
      vertex 8.22264e-15 37.0315 0.711103
      vertex 7.06504 36.4234 0.776457
      vertex 7.04558 36.323 0
    endloop
  endfacet
  facet normal -0.289336 -0.948391 -0.129765
    outer loop
      vertex 16.7303 39.5009 0.776457
      vertex 8.16864 42.1129 0.776457
      vertex 8.18811 42.2132 0
    endloop
  endfacet
  facet normal -0.289331 -0.948387 -0.129804
    outer loop
      vertex 16.7303 39.5009 0.776457
      vertex 8.18811 42.2132 0
      vertex 16.7702 39.595 0
    endloop
  endfacet
  facet normal -0.269791 -0.884343 -0.380985
    outer loop
      vertex 16.6134 39.2249 1.5
      vertex 8.11157 41.8186 1.5
      vertex 8.16864 42.1129 0.776457
    endloop
  endfacet
  facet normal -0.269802 -0.884361 -0.380936
    outer loop
      vertex 16.6134 39.2249 1.5
      vertex 8.16864 42.1129 0.776457
      vertex 16.7303 39.5009 0.776457
    endloop
  endfacet
  facet normal -0.231975 -0.76038 -0.606638
    outer loop
      vertex 16.4275 38.7859 2.12132
      vertex 8.02079 41.3506 2.12132
      vertex 8.11157 41.8186 1.5
    endloop
  endfacet
  facet normal -0.23197 -0.76037 -0.606653
    outer loop
      vertex 16.4275 38.7859 2.12132
      vertex 8.11157 41.8186 1.5
      vertex 16.6134 39.2249 1.5
    endloop
  endfacet
  facet normal -0.178262 -0.584303 -0.791715
    outer loop
      vertex 16.1851 38.2138 2.59808
      vertex 7.90247 40.7407 2.59808
      vertex 8.02079 41.3506 2.12132
    endloop
  endfacet
  facet normal -0.178249 -0.584273 -0.79174
    outer loop
      vertex 16.1851 38.2138 2.59808
      vertex 8.02079 41.3506 2.12132
      vertex 16.4275 38.7859 2.12132
    endloop
  endfacet
  facet normal -0.112194 -0.367741 -0.923135
    outer loop
      vertex 15.903 37.5475 2.89778
      vertex 7.7647 40.0304 2.89778
      vertex 7.90247 40.7407 2.59808
    endloop
  endfacet
  facet normal -0.112188 -0.367728 -0.923141
    outer loop
      vertex 15.903 37.5475 2.89778
      vertex 7.90247 40.7407 2.59808
      vertex 16.1851 38.2138 2.59808
    endloop
  endfacet
  facet normal -0.0382909 -0.125508 -0.991353
    outer loop
      vertex 15.6001 36.8325 3
      vertex 7.61684 39.2681 3
      vertex 7.7647 40.0304 2.89778
    endloop
  endfacet
  facet normal -0.0382909 -0.125507 -0.991353
    outer loop
      vertex 15.6001 36.8325 3
      vertex 7.7647 40.0304 2.89778
      vertex 15.903 37.5475 2.89778
    endloop
  endfacet
  facet normal 0.0382953 0.125523 -0.991351
    outer loop
      vertex 15.2973 36.1176 2.89778
      vertex 7.46899 38.5059 2.89778
      vertex 7.61684 39.2681 3
    endloop
  endfacet
  facet normal 0.038297 0.125527 -0.991351
    outer loop
      vertex 15.2973 36.1176 2.89778
      vertex 7.61684 39.2681 3
      vertex 15.6001 36.8325 3
    endloop
  endfacet
  facet normal 0.112195 0.36774 -0.923136
    outer loop
      vertex 15.0151 35.4513 2.59808
      vertex 7.33121 37.7956 2.59808
      vertex 7.46899 38.5059 2.89778
    endloop
  endfacet
  facet normal 0.112184 0.367715 -0.923147
    outer loop
      vertex 15.0151 35.4513 2.59808
      vertex 7.46899 38.5059 2.89778
      vertex 15.2973 36.1176 2.89778
    endloop
  endfacet
  facet normal 0.178244 0.584248 -0.79176
    outer loop
      vertex 14.7728 34.8792 2.12132
      vertex 7.2129 37.1856 2.12132
      vertex 7.33121 37.7956 2.59808
    endloop
  endfacet
  facet normal 0.178262 0.584287 -0.791727
    outer loop
      vertex 14.7728 34.8792 2.12132
      vertex 7.33121 37.7956 2.59808
      vertex 15.0151 35.4513 2.59808
    endloop
  endfacet
  facet normal 0.23198 0.760377 -0.60664
    outer loop
      vertex 14.5869 34.4402 1.5
      vertex 7.12211 36.7176 1.5
      vertex 7.2129 37.1856 2.12132
    endloop
  endfacet
  facet normal 0.231976 0.760368 -0.606653
    outer loop
      vertex 14.5869 34.4402 1.5
      vertex 7.2129 37.1856 2.12132
      vertex 14.7728 34.8792 2.12132
    endloop
  endfacet
  facet normal 0.269818 0.88438 -0.38088
    outer loop
      vertex 14.47 34.1642 0.776457
      vertex 7.06504 36.4234 0.776457
      vertex 7.12211 36.7176 1.5
    endloop
  endfacet
  facet normal 0.269806 0.88436 -0.380936
    outer loop
      vertex 14.47 34.1642 0.776457
      vertex 7.12211 36.7176 1.5
      vertex 14.5869 34.4402 1.5
    endloop
  endfacet
  facet normal 0.289334 0.948376 -0.129881
    outer loop
      vertex 14.4301 34.0701 0
      vertex 7.04558 36.323 0
      vertex 7.06504 36.4234 0.776457
    endloop
  endfacet
  facet normal 0.289345 0.948383 -0.129805
    outer loop
      vertex 14.4301 34.0701 0
      vertex 7.06504 36.4234 0.776457
      vertex 14.47 34.1642 0.776457
    endloop
  endfacet
  facet normal -0.47985 -0.867693 -0.129815
    outer loop
      vertex 24.5635 35.169 0.776457
      vertex 16.7303 39.5009 0.776457
      vertex 16.7702 39.595 0
    endloop
  endfacet
  facet normal -0.479852 -0.867695 -0.1298
    outer loop
      vertex 24.5635 35.169 0.776457
      vertex 16.7702 39.595 0
      vertex 24.622 35.2528 0
    endloop
  endfacet
  facet normal -0.44746 -0.809115 -0.380936
    outer loop
      vertex 24.3919 34.9232 1.5
      vertex 16.6134 39.2249 1.5
      vertex 16.7303 39.5009 0.776457
    endloop
  endfacet
  facet normal -0.447447 -0.8091 -0.380984
    outer loop
      vertex 24.3919 34.9232 1.5
      vertex 16.7303 39.5009 0.776457
      vertex 24.5635 35.169 0.776457
    endloop
  endfacet
  facet normal -0.384723 -0.695677 -0.606648
    outer loop
      vertex 24.1189 34.5324 2.12132
      vertex 16.4275 38.7859 2.12132
      vertex 16.6134 39.2249 1.5
    endloop
  endfacet
  facet normal -0.384734 -0.695691 -0.606625
    outer loop
      vertex 24.1189 34.5324 2.12132
      vertex 16.6134 39.2249 1.5
      vertex 24.3919 34.9232 1.5
    endloop
  endfacet
  facet normal -0.295618 -0.53455 -0.791749
    outer loop
      vertex 23.7631 34.023 2.59808
      vertex 16.1851 38.2138 2.59808
      vertex 16.4275 38.7859 2.12132
    endloop
  endfacet
  facet normal -0.295614 -0.534545 -0.791754
    outer loop
      vertex 23.7631 34.023 2.59808
      vertex 16.4275 38.7859 2.12132
      vertex 24.1189 34.5324 2.12132
    endloop
  endfacet
  facet normal -0.186064 -0.336449 -0.923137
    outer loop
      vertex 23.3488 33.4298 2.89778
      vertex 15.903 37.5475 2.89778
      vertex 16.1851 38.2138 2.59808
    endloop
  endfacet
  facet normal -0.186062 -0.336445 -0.923139
    outer loop
      vertex 23.3488 33.4298 2.89778
      vertex 16.1851 38.2138 2.59808
      vertex 23.7631 34.023 2.59808
    endloop
  endfacet
  facet normal -0.0635003 -0.114828 -0.991354
    outer loop
      vertex 22.9042 32.7933 3
      vertex 15.6001 36.8325 3
      vertex 15.903 37.5475 2.89778
    endloop
  endfacet
  facet normal -0.0635117 -0.114845 -0.991351
    outer loop
      vertex 22.9042 32.7933 3
      vertex 15.903 37.5475 2.89778
      vertex 23.3488 33.4298 2.89778
    endloop
  endfacet
  facet normal 0.0635128 0.114847 -0.991351
    outer loop
      vertex 22.4596 32.1567 2.89778
      vertex 15.2973 36.1176 2.89778
      vertex 15.6001 36.8325 3
    endloop
  endfacet
  facet normal 0.0635031 0.114833 -0.991353
    outer loop
      vertex 22.4596 32.1567 2.89778
      vertex 15.6001 36.8325 3
      vertex 22.9042 32.7933 3
    endloop
  endfacet
  facet normal 0.186051 0.33643 -0.923147
    outer loop
      vertex 22.0453 31.5635 2.59808
      vertex 15.0151 35.4513 2.59808
      vertex 15.2973 36.1176 2.89778
    endloop
  endfacet
  facet normal 0.186061 0.336446 -0.923139
    outer loop
      vertex 22.0453 31.5635 2.59808
      vertex 15.2973 36.1176 2.89778
      vertex 22.4596 32.1567 2.89778
    endloop
  endfacet
  facet normal 0.295633 0.534576 -0.791725
    outer loop
      vertex 21.6895 31.0541 2.12132
      vertex 14.7728 34.8792 2.12132
      vertex 15.0151 35.4513 2.59808
    endloop
  endfacet
  facet normal 0.295612 0.534546 -0.791754
    outer loop
      vertex 21.6895 31.0541 2.12132
      vertex 15.0151 35.4513 2.59808
      vertex 22.0453 31.5635 2.59808
    endloop
  endfacet
  facet normal 0.384723 0.695677 -0.606648
    outer loop
      vertex 21.4165 30.6633 1.5
      vertex 14.5869 34.4402 1.5
      vertex 14.7728 34.8792 2.12132
    endloop
  endfacet
  facet normal 0.384734 0.695691 -0.606625
    outer loop
      vertex 21.4165 30.6633 1.5
      vertex 14.7728 34.8792 2.12132
      vertex 21.6895 31.0541 2.12132
    endloop
  endfacet
  facet normal 0.447452 0.809119 -0.380937
    outer loop
      vertex 21.2449 30.4176 0.776457
      vertex 14.47 34.1642 0.776457
      vertex 14.5869 34.4402 1.5
    endloop
  endfacet
  facet normal 0.447467 0.809134 -0.380889
    outer loop
      vertex 21.2449 30.4176 0.776457
      vertex 14.5869 34.4402 1.5
      vertex 21.4165 30.6633 1.5
    endloop
  endfacet
  facet normal 0.479845 0.867696 -0.129815
    outer loop
      vertex 21.1864 30.3338 0
      vertex 14.4301 34.0701 0
      vertex 14.47 34.1642 0.776457
    endloop
  endfacet
  facet normal 0.479847 0.867697 -0.1298
    outer loop
      vertex 21.1864 30.3338 0
      vertex 14.47 34.1642 0.776457
      vertex 21.2449 30.4176 0.776457
    endloop
  endfacet
  facet normal -0.649474 -0.749224 -0.129794
    outer loop
      vertex 31.3272 29.3058 0.776457
      vertex 24.5635 35.169 0.776457
      vertex 24.622 35.2528 0
    endloop
  endfacet
  facet normal -0.649481 -0.749226 -0.129752
    outer loop
      vertex 31.3272 29.3058 0.776457
      vertex 24.622 35.2528 0
      vertex 31.4018 29.3756 0
    endloop
  endfacet
  facet normal -0.605619 -0.698633 -0.38097
    outer loop
      vertex 31.1083 29.101 1.5
      vertex 24.3919 34.9232 1.5
      vertex 24.5635 35.169 0.776457
    endloop
  endfacet
  facet normal -0.605618 -0.698632 -0.380972
    outer loop
      vertex 31.1083 29.101 1.5
      vertex 24.5635 35.169 0.776457
      vertex 31.3272 29.3058 0.776457
    endloop
  endfacet
  facet normal -0.520731 -0.600698 -0.606631
    outer loop
      vertex 30.7601 28.7753 2.12132
      vertex 24.1189 34.5324 2.12132
      vertex 24.3919 34.9232 1.5
    endloop
  endfacet
  facet normal -0.520699 -0.600671 -0.606686
    outer loop
      vertex 30.7601 28.7753 2.12132
      vertex 24.3919 34.9232 1.5
      vertex 31.1083 29.101 1.5
    endloop
  endfacet
  facet normal -0.400107 -0.461561 -0.791755
    outer loop
      vertex 30.3064 28.3509 2.59808
      vertex 23.7631 34.023 2.59808
      vertex 24.1189 34.5324 2.12132
    endloop
  endfacet
  facet normal -0.400153 -0.461604 -0.791707
    outer loop
      vertex 30.3064 28.3509 2.59808
      vertex 24.1189 34.5324 2.12132
      vertex 30.7601 28.7753 2.12132
    endloop
  endfacet
  facet normal -0.251831 -0.290511 -0.923138
    outer loop
      vertex 29.778 27.8566 2.89778
      vertex 23.3488 33.4298 2.89778
      vertex 23.7631 34.023 2.59808
    endloop
  endfacet
  facet normal -0.251829 -0.290509 -0.92314
    outer loop
      vertex 29.778 27.8566 2.89778
      vertex 23.7631 34.023 2.59808
      vertex 30.3064 28.3509 2.59808
    endloop
  endfacet
  facet normal -0.0859619 -0.0991631 -0.991351
    outer loop
      vertex 29.211 27.3261 3
      vertex 22.9042 32.7933 3
      vertex 23.3488 33.4298 2.89778
    endloop
  endfacet
  facet normal -0.0859523 -0.0991539 -0.991353
    outer loop
      vertex 29.211 27.3261 3
      vertex 23.3488 33.4298 2.89778
      vertex 29.778 27.8566 2.89778
    endloop
  endfacet
  facet normal 0.0859526 0.0991542 -0.991353
    outer loop
      vertex 28.644 26.7957 2.89778
      vertex 22.4596 32.1567 2.89778
      vertex 22.9042 32.7933 3
    endloop
  endfacet
  facet normal 0.0859614 0.0991625 -0.991351
    outer loop
      vertex 28.644 26.7957 2.89778
      vertex 22.9042 32.7933 3
      vertex 29.211 27.3261 3
    endloop
  endfacet
  facet normal 0.251832 0.29051 -0.923138
    outer loop
      vertex 28.1156 26.3014 2.59808
      vertex 22.0453 31.5635 2.59808
      vertex 22.4596 32.1567 2.89778
    endloop
  endfacet
  facet normal 0.25183 0.290508 -0.92314
    outer loop
      vertex 28.1156 26.3014 2.59808
      vertex 22.4596 32.1567 2.89778
      vertex 28.644 26.7957 2.89778
    endloop
  endfacet
  facet normal 0.400106 0.461562 -0.791755
    outer loop
      vertex 27.6618 25.877 2.12132
      vertex 21.6895 31.0541 2.12132
      vertex 22.0453 31.5635 2.59808
    endloop
  endfacet
  facet normal 0.400123 0.461577 -0.791738
    outer loop
      vertex 27.6618 25.877 2.12132
      vertex 22.0453 31.5635 2.59808
      vertex 28.1156 26.3014 2.59808
    endloop
  endfacet
  facet normal 0.520722 0.600705 -0.606632
    outer loop
      vertex 27.3137 25.5513 1.5
      vertex 21.4165 30.6633 1.5
      vertex 21.6895 31.0541 2.12132
    endloop
  endfacet
  facet normal 0.520722 0.600705 -0.606632
    outer loop
      vertex 27.3137 25.5513 1.5
      vertex 21.6895 31.0541 2.12132
      vertex 27.6618 25.877 2.12132
    endloop
  endfacet
  facet normal 0.605644 0.698656 -0.380887
    outer loop
      vertex 27.0948 25.3465 0.776457
      vertex 21.2449 30.4176 0.776457
      vertex 21.4165 30.6633 1.5
    endloop
  endfacet
  facet normal 0.605614 0.698636 -0.380972
    outer loop
      vertex 27.0948 25.3465 0.776457
      vertex 21.4165 30.6633 1.5
      vertex 27.3137 25.5513 1.5
    endloop
  endfacet
  facet normal 0.649474 0.749224 -0.129794
    outer loop
      vertex 27.0202 25.2767 0
      vertex 21.1864 30.3338 0
      vertex 21.2449 30.4176 0.776457
    endloop
  endfacet
  facet normal 0.649481 0.749226 -0.129752
    outer loop
      vertex 27.0202 25.2767 0
      vertex 21.2449 30.4176 0.776457
      vertex 27.0948 25.3465 0.776457
    endloop
  endfacet
  facet normal -0.790828 -0.598128 -0.12975
    outer loop
      vertex 36.7268 22.1666 0.776457
      vertex 31.3272 29.3058 0.776457
      vertex 31.4018 29.3756 0
    endloop
  endfacet
  facet normal -0.790805 -0.598126 -0.129892
    outer loop
      vertex 36.7268 22.1666 0.776457
      vertex 31.4018 29.3756 0
      vertex 36.8144 22.2194 0
    endloop
  endfacet
  facet normal -0.737416 -0.557746 -0.380968
    outer loop
      vertex 36.4703 22.0117 1.5
      vertex 31.1083 29.101 1.5
      vertex 31.3272 29.3058 0.776457
    endloop
  endfacet
  facet normal -0.737464 -0.557767 -0.380845
    outer loop
      vertex 36.4703 22.0117 1.5
      vertex 31.3272 29.3058 0.776457
      vertex 36.7268 22.1666 0.776457
    endloop
  endfacet
  facet normal -0.634011 -0.47954 -0.60669
    outer loop
      vertex 36.0621 21.7654 2.12132
      vertex 30.7601 28.7753 2.12132
      vertex 31.1083 29.101 1.5
    endloop
  endfacet
  facet normal -0.634034 -0.479553 -0.606655
    outer loop
      vertex 36.0621 21.7654 2.12132
      vertex 31.1083 29.101 1.5
      vertex 36.4703 22.0117 1.5
    endloop
  endfacet
  facet normal -0.487234 -0.368512 -0.791708
    outer loop
      vertex 35.5301 21.4443 2.59808
      vertex 30.3064 28.3509 2.59808
      vertex 30.7601 28.7753 2.12132
    endloop
  endfacet
  facet normal -0.487162 -0.368469 -0.791773
    outer loop
      vertex 35.5301 21.4443 2.59808
      vertex 30.7601 28.7753 2.12132
      vertex 36.0621 21.7654 2.12132
    endloop
  endfacet
  facet normal -0.306633 -0.231924 -0.92314
    outer loop
      vertex 34.9107 21.0705 2.89778
      vertex 29.778 27.8566 2.89778
      vertex 30.3064 28.3509 2.59808
    endloop
  endfacet
  facet normal -0.306677 -0.23195 -0.923119
    outer loop
      vertex 34.9107 21.0705 2.89778
      vertex 30.3064 28.3509 2.59808
      vertex 35.5301 21.4443 2.59808
    endloop
  endfacet
  facet normal -0.10466 -0.0791589 -0.991353
    outer loop
      vertex 34.2459 20.6692 3
      vertex 29.211 27.3261 3
      vertex 29.778 27.8566 2.89778
    endloop
  endfacet
  facet normal -0.104651 -0.0791533 -0.991354
    outer loop
      vertex 34.2459 20.6692 3
      vertex 29.778 27.8566 2.89778
      vertex 34.9107 21.0705 2.89778
    endloop
  endfacet
  facet normal 0.104668 0.0791652 -0.991351
    outer loop
      vertex 33.5812 20.268 2.89778
      vertex 28.644 26.7957 2.89778
      vertex 29.211 27.3261 3
    endloop
  endfacet
  facet normal 0.10467 0.0791666 -0.991351
    outer loop
      vertex 33.5812 20.268 2.89778
      vertex 29.211 27.3261 3
      vertex 34.2459 20.6692 3
    endloop
  endfacet
  facet normal 0.306636 0.231921 -0.92314
    outer loop
      vertex 32.9617 19.8941 2.59808
      vertex 28.1156 26.3014 2.59808
      vertex 28.644 26.7957 2.89778
    endloop
  endfacet
  facet normal 0.306625 0.231914 -0.923145
    outer loop
      vertex 32.9617 19.8941 2.59808
      vertex 28.644 26.7957 2.89778
      vertex 33.5812 20.268 2.89778
    endloop
  endfacet
  facet normal 0.487189 0.368489 -0.791747
    outer loop
      vertex 32.4298 19.5731 2.12132
      vertex 27.6618 25.877 2.12132
      vertex 28.1156 26.3014 2.59808
    endloop
  endfacet
  facet normal 0.487235 0.368516 -0.791706
    outer loop
      vertex 32.4298 19.5731 2.12132
      vertex 28.1156 26.3014 2.59808
      vertex 32.9617 19.8941 2.59808
    endloop
  endfacet
  facet normal 0.634057 0.479561 -0.606625
    outer loop
      vertex 32.0216 19.3267 1.5
      vertex 27.3137 25.5513 1.5
      vertex 27.6618 25.877 2.12132
    endloop
  endfacet
  facet normal 0.634003 0.479533 -0.606703
    outer loop
      vertex 32.0216 19.3267 1.5
      vertex 27.6618 25.877 2.12132
      vertex 32.4298 19.5731 2.12132
    endloop
  endfacet
  facet normal 0.737414 0.557748 -0.380968
    outer loop
      vertex 31.765 19.1719 0.776457
      vertex 27.0948 25.3465 0.776457
      vertex 27.3137 25.5513 1.5
    endloop
  endfacet
  facet normal 0.737455 0.557765 -0.380866
    outer loop
      vertex 31.765 19.1719 0.776457
      vertex 27.3137 25.5513 1.5
      vertex 32.0216 19.3267 1.5
    endloop
  endfacet
  facet normal 0.790825 0.598131 -0.12975
    outer loop
      vertex 31.6775 19.119 0
      vertex 27.0202 25.2767 0
      vertex 27.0948 25.3465 0.776457
    endloop
  endfacet
  facet normal 0.790806 0.598131 -0.129868
    outer loop
      vertex 31.6775 19.119 0
      vertex 27.0948 25.3465 0.776457
      vertex 31.765 19.1719 0.776457
    endloop
  endfacet
  facet normal -0.897713 -0.420992 -0.129908
    outer loop
      vertex 40.5274 14.0623 0.776457
      vertex 36.7268 22.1666 0.776457
      vertex 36.8144 22.2194 0
    endloop
  endfacet
  facet normal -0.897722 -0.420991 -0.12985
    outer loop
      vertex 40.5274 14.0623 0.776457
      vertex 36.8144 22.2194 0
      vertex 40.624 14.0958 0
    endloop
  endfacet
  facet normal -0.837164 -0.392591 -0.380827
    outer loop
      vertex 40.2443 13.964 1.5
      vertex 36.4703 22.0117 1.5
      vertex 36.7268 22.1666 0.776457
    endloop
  endfacet
  facet normal -0.83714 -0.392586 -0.380884
    outer loop
      vertex 40.2443 13.964 1.5
      vertex 36.7268 22.1666 0.776457
      vertex 40.5274 14.0623 0.776457
    endloop
  endfacet
  facet normal -0.719743 -0.337531 -0.606665
    outer loop
      vertex 39.7939 13.8078 2.12132
      vertex 36.0621 21.7654 2.12132
      vertex 36.4703 22.0117 1.5
    endloop
  endfacet
  facet normal -0.719772 -0.33754 -0.606626
    outer loop
      vertex 39.7939 13.8078 2.12132
      vertex 36.4703 22.0117 1.5
      vertex 40.2443 13.964 1.5
    endloop
  endfacet
  facet normal -0.553023 -0.25935 -0.791772
    outer loop
      vertex 39.2069 13.6041 2.59808
      vertex 35.5301 21.4443 2.59808
      vertex 36.0621 21.7654 2.12132
    endloop
  endfacet
  facet normal -0.553053 -0.25936 -0.791748
    outer loop
      vertex 39.2069 13.6041 2.59808
      vertex 36.0621 21.7654 2.12132
      vertex 39.7939 13.8078 2.12132
    endloop
  endfacet
  facet normal -0.348133 -0.163257 -0.92312
    outer loop
      vertex 38.5233 13.3669 2.89778
      vertex 34.9107 21.0705 2.89778
      vertex 35.5301 21.4443 2.59808
    endloop
  endfacet
  facet normal -0.348078 -0.163237 -0.923144
    outer loop
      vertex 38.5233 13.3669 2.89778
      vertex 35.5301 21.4443 2.59808
      vertex 39.2069 13.6041 2.59808
    endloop
  endfacet
  facet normal -0.1188 -0.0557135 -0.991354
    outer loop
      vertex 37.7898 13.1124 3
      vertex 34.2459 20.6692 3
      vertex 34.9107 21.0705 2.89778
    endloop
  endfacet
  facet normal -0.118821 -0.0557209 -0.991351
    outer loop
      vertex 37.7898 13.1124 3
      vertex 34.9107 21.0705 2.89778
      vertex 38.5233 13.3669 2.89778
    endloop
  endfacet
  facet normal 0.118821 0.0557211 -0.991351
    outer loop
      vertex 37.0562 12.8578 2.89778
      vertex 33.5812 20.268 2.89778
      vertex 34.2459 20.6692 3
    endloop
  endfacet
  facet normal 0.1188 0.0557134 -0.991354
    outer loop
      vertex 37.0562 12.8578 2.89778
      vertex 34.2459 20.6692 3
      vertex 37.7898 13.1124 3
    endloop
  endfacet
  facet normal 0.348077 0.163233 -0.923145
    outer loop
      vertex 36.3726 12.6207 2.59808
      vertex 32.9617 19.8941 2.59808
      vertex 33.5812 20.268 2.89778
    endloop
  endfacet
  facet normal 0.348098 0.16324 -0.923136
    outer loop
      vertex 36.3726 12.6207 2.59808
      vertex 33.5812 20.268 2.89778
      vertex 37.0562 12.8578 2.89778
    endloop
  endfacet
  facet normal 0.5531 0.25938 -0.791708
    outer loop
      vertex 35.7857 12.417 2.12132
      vertex 32.4298 19.5731 2.12132
      vertex 32.9617 19.8941 2.59808
    endloop
  endfacet
  facet normal 0.553105 0.259381 -0.791705
    outer loop
      vertex 35.7857 12.417 2.12132
      vertex 32.9617 19.8941 2.59808
      vertex 36.3726 12.6207 2.59808
    endloop
  endfacet
  facet normal 0.719723 0.337514 -0.606699
    outer loop
      vertex 35.3352 12.2607 1.5
      vertex 32.0216 19.3267 1.5
      vertex 32.4298 19.5731 2.12132
    endloop
  endfacet
  facet normal 0.719697 0.337507 -0.606734
    outer loop
      vertex 35.3352 12.2607 1.5
      vertex 32.4298 19.5731 2.12132
      vertex 35.7857 12.417 2.12132
    endloop
  endfacet
  facet normal 0.837143 0.392583 -0.38088
    outer loop
      vertex 35.0521 12.1625 0.776457
      vertex 31.765 19.1719 0.776457
      vertex 32.0216 19.3267 1.5
    endloop
  endfacet
  facet normal 0.837161 0.392587 -0.380837
    outer loop
      vertex 35.0521 12.1625 0.776457
      vertex 32.0216 19.3267 1.5
      vertex 35.3352 12.2607 1.5
    endloop
  endfacet
  facet normal 0.897725 0.420987 -0.129848
    outer loop
      vertex 34.9555 12.1289 0
      vertex 31.6775 19.119 0
      vertex 31.765 19.1719 0.776457
    endloop
  endfacet
  facet normal 0.897716 0.420989 -0.129904
    outer loop
      vertex 34.9555 12.1289 0
      vertex 31.765 19.1719 0.776457
      vertex 35.0521 12.1625 0.776457
    endloop
  endfacet
  facet normal -0.965544 -0.225525 -0.129855
    outer loop
      vertex 42.4009 6.07872 0.71141
      vertex 40.5274 14.0623 0.776457
      vertex 40.624 14.0958 0
    endloop
  endfacet
  facet normal -0.965659 -0.22556 -0.128936
    outer loop
      vertex 42.3949 6.07786 0.757851
      vertex 40.5274 14.0623 0.776457
      vertex 42.4009 6.07872 0.71141
    endloop
  endfacet
  facet normal -0.965676 -0.225564 -0.128806
    outer loop
      vertex 40.5274 14.0623 0.776457
      vertex 42.3949 6.07786 0.757851
      vertex 42.3925 6.07751 0.776457
    endloop
  endfacet
  facet normal -0.965469 -0.225511 -0.130436
    outer loop
      vertex 42.482 6.09035 0.0879567
      vertex 40.624 14.0958 0
      vertex 42.4935 6.09199 0
    endloop
  endfacet
  facet normal -0.965551 -0.225523 -0.129808
    outer loop
      vertex 40.624 14.0958 0
      vertex 42.482 6.09035 0.0879567
      vertex 42.4009 6.07872 0.71141
    endloop
  endfacet
  facet normal -0.900394 -0.210308 -0.380869
    outer loop
      vertex 42.121 6.03859 1.43964
      vertex 40.2443 13.964 1.5
      vertex 40.5274 14.0623 0.776457
    endloop
  endfacet
  facet normal -0.900422 -0.210316 -0.380798
    outer loop
      vertex 40.2443 13.964 1.5
      vertex 42.121 6.03859 1.43964
      vertex 42.0963 6.03505 1.5
    endloop
  endfacet
  facet normal -0.900315 -0.210297 -0.381063
    outer loop
      vertex 42.2865 6.06232 1.03528
      vertex 40.5274 14.0623 0.776457
      vertex 42.3925 6.07751 0.776457
    endloop
  endfacet
  facet normal -0.900396 -0.210308 -0.380864
    outer loop
      vertex 40.5274 14.0623 0.776457
      vertex 42.2865 6.06232 1.03528
      vertex 42.121 6.03859 1.43964
    endloop
  endfacet
  facet normal -0.774142 -0.180816 -0.606639
    outer loop
      vertex 41.6643 5.97312 2.06969
      vertex 39.7939 13.8078 2.12132
      vertex 40.2443 13.964 1.5
    endloop
  endfacet
  facet normal -0.774465 -0.180896 -0.606202
    outer loop
      vertex 39.7939 13.8078 2.12132
      vertex 41.6643 5.97312 2.06969
      vertex 41.6252 5.9675 2.12132
    endloop
  endfacet
  facet normal -0.774104 -0.180811 -0.606688
    outer loop
      vertex 41.6786 5.97517 2.05081
      vertex 40.2443 13.964 1.5
      vertex 42.0963 6.03505 1.5
    endloop
  endfacet
  facet normal -0.77446 -0.180843 -0.606224
    outer loop
      vertex 40.2443 13.964 1.5
      vertex 41.6786 5.97517 2.05081
      vertex 41.6643 5.97312 2.06969
    endloop
  endfacet
  facet normal -0.595261 -0.13904 -0.791412
    outer loop
      vertex 39.2069 13.6041 2.59808
      vertex 41.062 5.88677 2.55859
      vertex 41.0112 5.87948 2.59808
    endloop
  endfacet
  facet normal -0.59484 -0.138937 -0.791746
    outer loop
      vertex 41.062 5.88677 2.55859
      vertex 39.2069 13.6041 2.59808
      vertex 39.7939 13.8078 2.12132
    endloop
  endfacet
  facet normal -0.594814 -0.138934 -0.791766
    outer loop
      vertex 41.062 5.88677 2.55859
      vertex 39.7939 13.8078 2.12132
      vertex 41.6252 5.9675 2.12132
    endloop
  endfacet
  facet normal -0.374247 -0.087414 -0.9232
    outer loop
      vertex 38.5233 13.3669 2.89778
      vertex 40.3552 5.78544 2.87302
      vertex 40.2961 5.77697 2.89778
    endloop
  endfacet
  facet normal -0.374377 -0.0874455 -0.923144
    outer loop
      vertex 40.3552 5.78544 2.87302
      vertex 38.5233 13.3669 2.89778
      vertex 39.2069 13.6041 2.59808
    endloop
  endfacet
  facet normal -0.37437 -0.0874446 -0.923147
    outer loop
      vertex 40.3552 5.78544 2.87302
      vertex 39.2069 13.6041 2.59808
      vertex 41.0112 5.87948 2.59808
    endloop
  endfacet
  facet normal -0.127749 -0.0298378 -0.991358
    outer loop
      vertex 37.7898 13.1124 3
      vertex 39.5921 5.67604 2.99157
      vertex 39.5288 5.66697 3
    endloop
  endfacet
  facet normal -0.127797 -0.0298495 -0.991351
    outer loop
      vertex 39.5921 5.67604 2.99157
      vertex 37.7898 13.1124 3
      vertex 38.5233 13.3669 2.89778
    endloop
  endfacet
  facet normal -0.127823 -0.029856 -0.991347
    outer loop
      vertex 40.2059 5.76403 2.9098
      vertex 38.5233 13.3669 2.89778
      vertex 40.2961 5.77697 2.89778
    endloop
  endfacet
  facet normal -0.127788 -0.0298483 -0.991352
    outer loop
      vertex 38.5233 13.3669 2.89778
      vertex 40.2059 5.76403 2.9098
      vertex 39.5921 5.67604 2.99157
    endloop
  endfacet
  facet normal 0.127749 0.0298391 -0.991358
    outer loop
      vertex 37.0562 12.8578 2.89778
      vertex 38.8248 5.56603 2.90621
      vertex 38.7615 5.55696 2.89778
    endloop
  endfacet
  facet normal 0.127777 0.0298459 -0.991354
    outer loop
      vertex 38.8248 5.56603 2.90621
      vertex 37.0562 12.8578 2.89778
      vertex 37.7898 13.1124 3
    endloop
  endfacet
  facet normal 0.127793 0.029848 -0.991352
    outer loop
      vertex 38.8248 5.56603 2.90621
      vertex 37.7898 13.1124 3
      vertex 39.5288 5.66697 3
    endloop
  endfacet
  facet normal 0.374395 0.0874517 -0.923136
    outer loop
      vertex 36.3726 12.6207 2.59808
      vertex 38.1055 5.46292 2.62281
      vertex 38.0465 5.45446 2.59808
    endloop
  endfacet
  facet normal 0.374387 0.0874496 -0.92314
    outer loop
      vertex 38.1055 5.46292 2.62281
      vertex 36.3726 12.6207 2.59808
      vertex 37.0562 12.8578 2.89778
    endloop
  endfacet
  facet normal 0.374405 0.087452 -0.923132
    outer loop
      vertex 38.1055 5.46292 2.62281
      vertex 37.0562 12.8578 2.89778
      vertex 38.7615 5.55696 2.89778
    endloop
  endfacet
  facet normal 0.594711 0.138907 -0.791848
    outer loop
      vertex 35.7857 12.417 2.12132
      vertex 37.4833 5.37371 2.16075
      vertex 37.4325 5.36643 2.12132
    endloop
  endfacet
  facet normal 0.594899 0.138953 -0.791699
    outer loop
      vertex 37.4833 5.37371 2.16075
      vertex 35.7857 12.417 2.12132
      vertex 36.3726 12.6207 2.59808
    endloop
  endfacet
  facet normal 0.594862 0.138949 -0.791728
    outer loop
      vertex 37.4833 5.37371 2.16075
      vertex 36.3726 12.6207 2.59808
      vertex 38.0465 5.45446 2.59808
    endloop
  endfacet
  facet normal 0.774066 0.180812 -0.606737
    outer loop
      vertex 37.0005 5.30449 1.55156
      vertex 35.3352 12.2607 1.5
      vertex 35.7857 12.417 2.12132
    endloop
  endfacet
  facet normal 0.774109 0.180823 -0.606677
    outer loop
      vertex 35.3352 12.2607 1.5
      vertex 37.0005 5.30449 1.55156
      vertex 36.9614 5.29889 1.5
    endloop
  endfacet
  facet normal 0.774149 0.180818 -0.606628
    outer loop
      vertex 37.0005 5.30449 1.55156
      vertex 35.7857 12.417 2.12132
      vertex 37.4325 5.36643 2.12132
    endloop
  endfacet
  facet normal 0.900403 0.210316 -0.380844
    outer loop
      vertex 36.6899 5.25997 0.836757
      vertex 35.0521 12.1625 0.776457
      vertex 35.3352 12.2607 1.5
    endloop
  endfacet
  facet normal 0.900292 0.210288 -0.381122
    outer loop
      vertex 35.0521 12.1625 0.776457
      vertex 36.6899 5.25997 0.836757
      vertex 36.6652 5.25643 0.776457
    endloop
  endfacet
  facet normal 0.90033 0.210307 -0.381021
    outer loop
      vertex 36.7711 5.27162 1.03528
      vertex 35.3352 12.2607 1.5
      vertex 36.9614 5.29889 1.5
    endloop
  endfacet
  facet normal 0.900482 0.210314 -0.380658
    outer loop
      vertex 35.3352 12.2607 1.5
      vertex 36.7711 5.27162 1.03528
      vertex 36.6899 5.25997 0.836757
    endloop
  endfacet
  facet normal 0.96554 0.225528 -0.129883
    outer loop
      vertex 36.5726 5.24316 0.0650243
      vertex 34.9555 12.1289 0
      vertex 35.0521 12.1625 0.776457
    endloop
  endfacet
  facet normal 0.965653 0.225563 -0.128978
    outer loop
      vertex 34.9555 12.1289 0
      vertex 36.5726 5.24316 0.0650243
      vertex 36.5642 5.24194 0
    endloop
  endfacet
  facet normal 0.96554 0.225528 -0.129881
    outer loop
      vertex 36.5726 5.24316 0.0650243
      vertex 35.0521 12.1625 0.776457
      vertex 36.6652 5.25643 0.776457
    endloop
  endfacet
  facet normal 0 0 -1
    outer loop
      vertex 40.624 14.0958 0
      vertex 43.4198 6.22479 0
      vertex 42.4935 6.09199 0
    endloop
  endfacet
  facet normal 0 0 -1
    outer loop
      vertex 43.4198 6.22479 0
      vertex 40.624 14.0958 0
      vertex 43.5547 6.24413 0
    endloop
  endfacet
  facet normal 0 0 -1
    outer loop
      vertex 43.5547 6.24413 0
      vertex 40.624 14.0958 0
      vertex 41.3857 14.9407 0
    endloop
  endfacet
  facet normal 0 0 -1
    outer loop
      vertex 36.8144 22.2194 0
      vertex 41.3857 14.9407 0
      vertex 40.624 14.0958 0
    endloop
  endfacet
  facet normal 0 0 -1
    outer loop
      vertex 41.3857 14.9407 0
      vertex 36.8144 22.2194 0
      vertex 37.4994 23.0173 0
    endloop
  endfacet
  facet normal 0 0 -1
    outer loop
      vertex 31.4018 29.3756 0
      vertex 37.4994 23.0173 0
      vertex 36.8144 22.2194 0
    endloop
  endfacet
  facet normal 0 0 -1
    outer loop
      vertex 37.4994 23.0173 0
      vertex 31.4018 29.3756 0
      vertex 32.057 30.1388 0
    endloop
  endfacet
  facet normal 0 0 -1
    outer loop
      vertex 31.4018 29.3756 0
      vertex 25.2845 36.0097 0
      vertex 32.057 30.1388 0
    endloop
  endfacet
  facet normal 0 0 -1
    outer loop
      vertex 24.622 35.2528 0
      vertex 25.2845 36.0097 0
      vertex 31.4018 29.3756 0
    endloop
  endfacet
  facet normal 0 0 -1
    outer loop
      vertex 24.622 35.2528 0
      vertex 17.4627 40.3863 0
      vertex 25.2845 36.0097 0
    endloop
  endfacet
  facet normal 0 0 -1
    outer loop
      vertex 16.7702 39.595 0
      vertex 17.4627 40.3863 0
      vertex 24.622 35.2528 0
    endloop
  endfacet
  facet normal 0 0 -1
    outer loop
      vertex 16.7702 39.595 0
      vertex 8.91636 43.0871 0
      vertex 17.4627 40.3863 0
    endloop
  endfacet
  facet normal 0 0 -1
    outer loop
      vertex 8.18811 42.2132 0
      vertex 8.91636 43.0871 0
      vertex 16.7702 39.595 0
    endloop
  endfacet
  facet normal 0 0 -1
    outer loop
      vertex 8.18811 42.2132 0
      vertex 9.76996e-15 44 0
      vertex 8.91636 43.0871 0
    endloop
  endfacet
  facet normal 0 -0 -1
    outer loop
      vertex 9.76996e-15 44 0
      vertex 8.18811 42.2132 0
      vertex 9.53192e-15 42.9279 0
    endloop
  endfacet
  facet normal 0 0 -1
    outer loop
      vertex 34.9555 12.1289 0
      vertex 35.7706 5.12817 0
      vertex 35.6357 5.10883 0
    endloop
  endfacet
  facet normal 0 0 -1
    outer loop
      vertex 35.7706 5.12817 0
      vertex 34.9555 12.1289 0
      vertex 36.5642 5.24194 0
    endloop
  endfacet
  facet normal 0 0 -1
    outer loop
      vertex 33.861 12.2242 0
      vertex 34.9555 12.1289 0
      vertex 35.6357 5.10883 0
    endloop
  endfacet
  facet normal 0 0 -1
    outer loop
      vertex 33.861 12.2242 0
      vertex 31.6775 19.119 0
      vertex 34.9555 12.1289 0
    endloop
  endfacet
  facet normal 0 0 -1
    outer loop
      vertex 30.6813 18.8323 0
      vertex 31.6775 19.119 0
      vertex 33.861 12.2242 0
    endloop
  endfacet
  facet normal 0 0 -1
    outer loop
      vertex 30.6813 18.8323 0
      vertex 27.0202 25.2767 0
      vertex 31.6775 19.119 0
    endloop
  endfacet
  facet normal 0 0 -1
    outer loop
      vertex 26.2285 24.659 0
      vertex 27.0202 25.2767 0
      vertex 30.6813 18.8323 0
    endloop
  endfacet
  facet normal 0 0 -1
    outer loop
      vertex 26.2285 24.659 0
      vertex 21.1864 30.3338 0
      vertex 27.0202 25.2767 0
    endloop
  endfacet
  facet normal 0 0 -1
    outer loop
      vertex 20.6873 29.4624 0
      vertex 21.1864 30.3338 0
      vertex 26.2285 24.659 0
    endloop
  endfacet
  facet normal 0 0 -1
    outer loop
      vertex 14.2877 33.0433 0
      vertex 21.1864 30.3338 0
      vertex 20.6873 29.4624 0
    endloop
  endfacet
  facet normal 0 0 -1
    outer loop
      vertex 21.1864 30.3338 0
      vertex 14.2877 33.0433 0
      vertex 14.4301 34.0701 0
    endloop
  endfacet
  facet normal 0 0 -1
    outer loop
      vertex 7.2952 35.2531 0
      vertex 14.4301 34.0701 0
      vertex 14.2877 33.0433 0
    endloop
  endfacet
  facet normal 0 0 -1
    outer loop
      vertex 7.2952 35.2531 0
      vertex 7.04558 36.323 0
      vertex 14.4301 34.0701 0
    endloop
  endfacet
  facet normal 0 0 -1
    outer loop
      vertex 7.99361e-15 36 0
      vertex 7.04558 36.323 0
      vertex 7.2952 35.2531 0
    endloop
  endfacet
  facet normal -0 0 -1
    outer loop
      vertex 7.04558 36.323 0
      vertex 7.99361e-15 36 0
      vertex 8.20188e-15 36.938 0
    endloop
  endfacet
endsolid OpenSCAD_Model
