solid OpenSCAD_Model
  facet normal -1 2.22041e-16 4.07767e-21
    outer loop
      vertex 2.87994e-15 12.9701 0.0679363
      vertex 3.07836e-15 13.8637 1.03528
      vertex 3.10862e-15 14 0
    endloop
  endfacet
  facet normal -1 2.22037e-16 -5.69468e-20
    outer loop
      vertex 2.87994e-15 12.9701 0.0679363
      vertex 3.10862e-15 14 0
      vertex 2.88192e-15 12.979 0
    endloop
  endfacet
  facet normal -1 2.22056e-16 -9.32807e-21
    outer loop
      vertex 3.07836e-15 13.8637 1.03528
      vertex 2.87994e-15 12.9701 0.0679363
      vertex 2.85926e-15 12.877 0.776457
    endloop
  endfacet
  facet normal -1 2.22029e-16 9.29608e-20
    outer loop
      vertex 2.85336e-15 12.8504 0.840671
      vertex 3.07836e-15 13.8637 1.03528
      vertex 2.85926e-15 12.877 0.776457
    endloop
  endfacet
  facet normal -1 2.22047e-16 -1.03287e-22
    outer loop
      vertex 3.07836e-15 13.8637 1.03528
      vertex 2.85336e-15 12.8504 0.840671
      vertex 2.98963e-15 13.4641 2
    endloop
  endfacet
  facet normal -1 2.22027e-16 1.03097e-20
    outer loop
      vertex 2.79282e-15 12.5777 1.5
      vertex 2.98963e-15 13.4641 2
      vertex 2.85336e-15 12.8504 0.840671
    endloop
  endfacet
  facet normal -1 2.22082e-16 -8.73294e-20
    outer loop
      vertex 2.78331e-15 12.5349 1.5559
      vertex 2.98963e-15 13.4641 2
      vertex 2.79282e-15 12.5777 1.5
    endloop
  endfacet
  facet normal -1 2.2204e-16 9.92309e-22
    outer loop
      vertex 2.98963e-15 13.4641 2
      vertex 2.78331e-15 12.5349 1.5559
      vertex 2.84848e-15 12.8284 2.82843
    endloop
  endfacet
  facet normal -1 2.22027e-16 3.92353e-21
    outer loop
      vertex 2.68713e-15 12.1017 2.12132
      vertex 2.84848e-15 12.8284 2.82843
      vertex 2.78331e-15 12.5349 1.5559
    endloop
  endfacet
  facet normal -1 2.22083e-16 -5.32667e-20
    outer loop
      vertex 2.67458e-15 12.0452 2.16477
      vertex 2.84848e-15 12.8284 2.82843
      vertex 2.68713e-15 12.1017 2.12132
    endloop
  endfacet
  facet normal -1 2.22047e-16 -1.03853e-20
    outer loop
      vertex 2.67458e-15 12.0452 2.16477
      vertex 2.66453e-15 12 3.4641
      vertex 2.84848e-15 12.8284 2.82843
    endloop
  endfacet
  facet normal -1 2.22039e-16 -1.06623e-20
    outer loop
      vertex 2.54939e-15 11.4814 2.59808
      vertex 2.66453e-15 12 3.4641
      vertex 2.67458e-15 12.0452 2.16477
    endloop
  endfacet
  facet normal -1 2.22209e-16 -1.12607e-19
    outer loop
      vertex 2.53461e-15 11.4149 2.6257
      vertex 2.66453e-15 12 3.4641
      vertex 2.54939e-15 11.4814 2.59808
    endloop
  endfacet
  facet normal -1 2.22048e-16 -4.28732e-22
    outer loop
      vertex 2.53461e-15 11.4149 2.6257
      vertex 2.45032e-15 11.0353 3.8637
      vertex 2.66453e-15 12 3.4641
    endloop
  endfacet
  facet normal -1 2.22049e-16 -4.23371e-23
    outer loop
      vertex 2.38899e-15 10.7591 2.89778
      vertex 2.45032e-15 11.0353 3.8637
      vertex 2.53461e-15 11.4149 2.6257
    endloop
  endfacet
  facet normal -1 2.22053e-16 -9.54796e-22
    outer loop
      vertex 2.37298e-15 10.687 2.90728
      vertex 2.45032e-15 11.0353 3.8637
      vertex 2.38899e-15 10.7591 2.89778
    endloop
  endfacet
  facet normal -1 2.2204e-16 3.53814e-21
    outer loop
      vertex 2.37298e-15 10.687 2.90728
      vertex 2.22044e-15 9.99999 4
      vertex 2.45032e-15 11.0353 3.8637
    endloop
  endfacet
  facet normal -1 2.22029e-16 -3.54759e-21
    outer loop
      vertex 2.21686e-15 9.98385 3
      vertex 2.22044e-15 9.99999 4
      vertex 2.37298e-15 10.687 2.90728
    endloop
  endfacet
  facet normal -1 2.21993e-16 -2.9616e-21
    outer loop
      vertex 2.20077e-15 9.91137 2.99044
      vertex 2.22044e-15 9.99999 4
      vertex 2.21686e-15 9.98385 3
    endloop
  endfacet
  facet normal -1 2.22051e-16 7.24634e-21
    outer loop
      vertex 1.99057e-15 8.96471 3.8637
      vertex 2.20077e-15 9.91137 2.99044
      vertex 2.04473e-15 9.20865 2.89778
    endloop
  endfacet
  facet normal -1 2.22069e-16 1.19924e-20
    outer loop
      vertex 1.99057e-15 8.96471 3.8637
      vertex 2.04473e-15 9.20865 2.89778
      vertex 2.02972e-15 9.14106 2.86973
    endloop
  endfacet
  facet normal -1 2.22037e-16 -6.89363e-21
    outer loop
      vertex 2.20077e-15 9.91137 2.99044
      vertex 1.99057e-15 8.96471 3.8637
      vertex 2.22044e-15 9.99999 4
    endloop
  endfacet
  facet normal -1 2.22043e-16 -5.6854e-21
    outer loop
      vertex 1.77635e-15 7.99999 3.4641
      vertex 2.02972e-15 9.14106 2.86973
      vertex 1.88433e-15 8.48627 2.59808
    endloop
  endfacet
  facet normal -1 2.22037e-16 -9.15833e-21
    outer loop
      vertex 1.77635e-15 7.99999 3.4641
      vertex 1.88433e-15 8.48627 2.59808
      vertex 1.87151e-15 8.42853 2.5537
    endloop
  endfacet
  facet normal -1 2.2205e-16 8.65479e-21
    outer loop
      vertex 2.02972e-15 9.14106 2.86973
      vertex 1.77635e-15 7.99999 3.4641
      vertex 1.99057e-15 8.96471 3.8637
    endloop
  endfacet
  facet normal -1 2.22043e-16 6.61045e-21
    outer loop
      vertex 1.59241e-15 7.17156 2.82843
      vertex 1.87151e-15 8.42853 2.5537
      vertex 1.74659e-15 7.86595 2.12132
    endloop
  endfacet
  facet normal -1 2.22073e-16 3.61687e-20
    outer loop
      vertex 1.59241e-15 7.17156 2.82843
      vertex 1.74659e-15 7.86595 2.12132
      vertex 1.73687e-15 7.82219 2.06419
    endloop
  endfacet
  facet normal -1 2.22038e-16 1.16981e-21
    outer loop
      vertex 1.45126e-15 6.53588 2
      vertex 1.73687e-15 7.82219 2.06419
      vertex 1.6409e-15 7.38997 1.5
    endloop
  endfacet
  facet normal -1 2.22017e-16 -3.44375e-20
    outer loop
      vertex 1.45126e-15 6.53588 2
      vertex 1.6409e-15 7.38997 1.5
      vertex 1.63491e-15 7.36298 1.43473
    endloop
  endfacet
  facet normal -1 2.2204e-16 -7.55027e-21
    outer loop
      vertex 1.87151e-15 8.42853 2.5537
      vertex 1.59241e-15 7.17156 2.82843
      vertex 1.77635e-15 7.99999 3.4641
    endloop
  endfacet
  facet normal -1 2.22041e-16 5.73529e-21
    outer loop
      vertex 1.36253e-15 6.13628 1.03528
      vertex 1.63491e-15 7.36298 1.43473
      vertex 1.57446e-15 7.09075 0.776457
    endloop
  endfacet
  facet normal -1 2.22024e-16 -5.5301e-20
    outer loop
      vertex 1.36253e-15 6.13628 1.03528
      vertex 1.57446e-15 7.09075 0.776457
      vertex 1.57247e-15 7.08177 0.70811
    endloop
  endfacet
  facet normal -1 2.22049e-16 2.35078e-21
    outer loop
      vertex 1.33226e-15 5.99999 0
      vertex 1.57247e-15 7.08177 0.70811
      vertex 1.5518e-15 6.98869 0
    endloop
  endfacet
  facet normal -1 2.22038e-16 5.9442e-21
    outer loop
      vertex 1.73687e-15 7.82219 2.06419
      vertex 1.45126e-15 6.53588 2
      vertex 1.59241e-15 7.17156 2.82843
    endloop
  endfacet
  facet normal -1 2.22042e-16 1.9955e-21
    outer loop
      vertex 1.63491e-15 7.36298 1.43473
      vertex 1.36253e-15 6.13628 1.03528
      vertex 1.45126e-15 6.53588 2
    endloop
  endfacet
  facet normal -1 2.22046e-16 7.09345e-21
    outer loop
      vertex 1.57247e-15 7.08177 0.70811
      vertex 1.33226e-15 5.99999 0
      vertex 1.36253e-15 6.13628 1.03528
    endloop
  endfacet
  facet normal -0.00993936 -0.999951 -2.66435e-07
    outer loop
      vertex 12.8278 -0.127507 2.82843
      vertex 11.9994 -0.119273 3.4641
      vertex 7.99959 -0.0795155 3.4641
    endloop
  endfacet
  facet normal -0.00993987 -0.999951 -1.15966e-06
    outer loop
      vertex 11.9994 -0.119273 3.4641
      vertex 11.0347 -0.109684 3.8637
      vertex 9.99949 -0.0993938 4
    endloop
  endfacet
  facet normal -0.00994004 -0.999951 -2.46678e-07
    outer loop
      vertex 13.863 -0.137797 1.03528
      vertex 13.4634 -0.133825 2
      vertex 12.8278 -0.127507 2.82843
    endloop
  endfacet
  facet normal -0.00993936 -0.999951 7.46932e-07
    outer loop
      vertex 11.9994 -0.119273 3.4641
      vertex 9.99949 -0.0993938 4
      vertex 7.99959 -0.0795155 3.4641
    endloop
  endfacet
  facet normal -0.00993988 -0.999951 2.68341e-06
    outer loop
      vertex 9.99949 -0.0993938 4
      vertex 8.96427 -0.0891037 3.8637
      vertex 7.99959 -0.0795155 3.4641
    endloop
  endfacet
  facet normal -0.00993933 -0.999951 1.65858e-07
    outer loop
      vertex 7.99959 -0.0795155 3.4641
      vertex 9.27072 -0.0921504 2.90602
      vertex 9.98336 -0.0992339 3
    endloop
  endfacet
  facet normal -0.00994012 -0.999951 -1.63337e-06
    outer loop
      vertex 7.99959 -0.0795155 3.4641
      vertex 9.20819 -0.0915288 2.89778
      vertex 9.27072 -0.0921504 2.90602
    endloop
  endfacet
  facet normal -0.00993932 -0.999951 8.80975e-08
    outer loop
      vertex 7.99959 -0.0795155 3.4641
      vertex 8.54407 -0.0849276 2.62223
      vertex 9.20819 -0.0915288 2.89778
    endloop
  endfacet
  facet normal -0.00994076 -0.999951 -8.45511e-07
    outer loop
      vertex 7.99959 -0.0795155 3.4641
      vertex 8.48585 -0.0843488 2.59808
      vertex 8.54407 -0.0849276 2.62223
    endloop
  endfacet
  facet normal -0.00993931 -0.999951 -3.23575e-08
    outer loop
      vertex 7.99959 -0.0795155 3.4641
      vertex 7.91583 -0.0786829 2.15995
      vertex 8.48585 -0.0843488 2.59808
    endloop
  endfacet
  facet normal -0.00994191 -0.999951 1.34737e-07
    outer loop
      vertex 7.99959 -0.0795155 3.4641
      vertex 7.86557 -0.0781832 2.12132
      vertex 7.91583 -0.0786829 2.15995
    endloop
  endfacet
  facet normal -0.00993913 -0.999951 -1.43174e-07
    outer loop
      vertex 7.99959 -0.0795155 3.4641
      vertex 7.42865 -0.0738403 1.55097
      vertex 7.86557 -0.0781832 2.12132
    endloop
  endfacet
  facet normal -0.00993706 -0.999951 -7.61821e-07
    outer loop
      vertex 7.99959 -0.0795155 3.4641
      vertex 7.3896 -0.0734522 1.5
      vertex 7.42865 -0.0738403 1.55097
    endloop
  endfacet
  facet normal -0.0099392 -0.999951 -9.51553e-08
    outer loop
      vertex 6.56478 -0.0652536 0
      vertex 7.3896 -0.0734522 1.5
      vertex 7.99959 -0.0795155 3.4641
    endloop
  endfacet
  facet normal -0.00993841 -0.999951 -5.29278e-07
    outer loop
      vertex 7.3896 -0.0734522 1.5
      vertex 6.56478 -0.0652536 0
      vertex 7.11543 -0.0707269 0.836977
    endloop
  endfacet
  facet normal -0.0099386 -0.999951 -4.05691e-07
    outer loop
      vertex 7.11543 -0.0707269 0.836977
      vertex 6.56478 -0.0652536 0
      vertex 7.0904 -0.0704781 0.776457
    endloop
  endfacet
  facet normal -0.00993939 -0.999951 1.26728e-07
    outer loop
      vertex 6.56478 -0.0652536 0
      vertex 6.99709 -0.0695507 0.0665608
      vertex 7.0904 -0.0704781 0.776457
    endloop
  endfacet
  facet normal -0.00993907 -0.999951 -1.92647e-06
    outer loop
      vertex 6.99709 -0.0695507 0.0665608
      vertex 6.56478 -0.0652536 0
      vertex 6.98835 -0.0694637 0
    endloop
  endfacet
  facet normal -0.0099532 -0.99995 -5.91226e-05
    outer loop
      vertex 10.0462 -0.0998589 2.99171
      vertex 7.99959 -0.0795155 3.4641
      vertex 9.98336 -0.0992339 3
    endloop
  endfacet
  facet normal -0.00993892 -0.999951 2.77541e-06
    outer loop
      vertex 10.7585 -0.106939 2.89778
      vertex 7.99959 -0.0795155 3.4641
      vertex 10.0462 -0.0998589 2.99171
    endloop
  endfacet
  facet normal -0.00993903 -0.999951 2.23094e-06
    outer loop
      vertex 10.7585 -0.106939 2.89778
      vertex 12.8278 -0.127507 2.82843
      vertex 7.99959 -0.0795155 3.4641
    endloop
  endfacet
  facet normal -0.00993826 -0.999951 2.52788e-05
    outer loop
      vertex 10.8176 -0.107527 2.87325
      vertex 12.8278 -0.127507 2.82843
      vertex 10.7585 -0.106939 2.89778
    endloop
  endfacet
  facet normal -0.00993888 -0.999951 -2.85723e-06
    outer loop
      vertex 11.4809 -0.114119 2.59808
      vertex 12.8278 -0.127507 2.82843
      vertex 10.8176 -0.107527 2.87325
    endloop
  endfacet
  facet normal -0.00993967 -0.999951 1.76356e-06
    outer loop
      vertex 11.5322 -0.114629 2.55861
      vertex 12.8278 -0.127507 2.82843
      vertex 11.4809 -0.114119 2.59808
    endloop
  endfacet
  facet normal -0.00993954 -0.999951 1.12477e-06
    outer loop
      vertex 12.8278 -0.127507 2.82843
      vertex 11.5322 -0.114629 2.55861
      vertex 11.8875 -0.118161 2.28553
    endloop
  endfacet
  facet normal -0.00993929 -0.999951 -1.34077e-07
    outer loop
      vertex 7.99959 -0.0795155 3.4641
      vertex 7.1712 -0.0712814 2.82843
      vertex 6.13598 -0.0609913 1.03528
    endloop
  endfacet
  facet normal -0.00993957 -0.999951 0
    outer loop
      vertex 6.56478 -0.0652536 0
      vertex 6.13598 -0.0609913 1.03528
      vertex 6.13598 -0.0609913 0
    endloop
  endfacet
  facet normal -0.0099395 -0.999951 2.96006e-08
    outer loop
      vertex 6.13598 -0.0609913 1.03528
      vertex 6.56478 -0.0652536 0
      vertex 7.99959 -0.0795155 3.4641
    endloop
  endfacet
  facet normal -0.00994301 -0.999951 0
    outer loop
      vertex 6.13598 -0.0609913 0
      vertex 6.13598 -0.0609913 1.03528
      vertex 5.99969 -0.0596361 0
    endloop
  endfacet
  facet normal -0.00994416 -0.999951 2.67896e-06
    outer loop
      vertex 7.1712 -0.0712814 2.82843
      vertex 6.53556 -0.0649624 2
      vertex 6.13598 -0.0609913 1.03528
    endloop
  endfacet
  facet normal -0.0099388 -0.999951 -1.59001e-07
    outer loop
      vertex 12.1012 -0.120285 2.12132
      vertex 12.8278 -0.127507 2.82843
      vertex 11.8875 -0.118161 2.28553
    endloop
  endfacet
  facet normal -0.00993271 -0.999951 -6.42019e-06
    outer loop
      vertex 12.1411 -0.120681 2.06922
      vertex 12.8278 -0.127507 2.82843
      vertex 12.1012 -0.120285 2.12132
    endloop
  endfacet
  facet normal -0.00994089 -0.999951 9.81391e-07
    outer loop
      vertex 12.5771 -0.125016 1.5
      vertex 12.8278 -0.127507 2.82843
      vertex 12.1411 -0.120681 2.06922
    endloop
  endfacet
  facet normal -0.00994198 -0.999951 -8.66469e-06
    outer loop
      vertex 13.863 -0.137797 1.03528
      vertex 12.5771 -0.125016 1.5
      vertex 12.6026 -0.125269 1.43848
    endloop
  endfacet
  facet normal -0.00993865 -0.999951 5.58849e-07
    outer loop
      vertex 12.5771 -0.125016 1.5
      vertex 13.863 -0.137797 1.03528
      vertex 12.8278 -0.127507 2.82843
    endloop
  endfacet
  facet normal -0.00993893 -0.999951 8.76682e-07
    outer loop
      vertex 12.8763 -0.12799 0.776457
      vertex 13.863 -0.137797 1.03528
      vertex 12.6026 -0.125269 1.43848
    endloop
  endfacet
  facet normal -0.0099407 -0.999951 7.64218e-06
    outer loop
      vertex 13.863 -0.137797 1.03528
      vertex 12.8763 -0.12799 0.776457
      vertex 12.877 -0.127997 0.771071
    endloop
  endfacet
  facet normal -0.00993653 -0.999951 -7.9543e-06
    outer loop
      vertex 12.8851 -0.128077 0.709493
      vertex 13.863 -0.137797 1.03528
      vertex 12.877 -0.127997 0.771071
    endloop
  endfacet
  facet normal -0.00994027 -0.999951 -6.6697e-07
    outer loop
      vertex 13.4342 -0.133535 0
      vertex 12.8851 -0.128077 0.709493
      vertex 12.9784 -0.129004 0
    endloop
  endfacet
  facet normal -0.00993922 -0.999951 1.44601e-07
    outer loop
      vertex 12.8851 -0.128077 0.709493
      vertex 13.4342 -0.133535 0
      vertex 13.863 -0.137797 1.03528
    endloop
  endfacet
  facet normal -0.00994139 -0.999951 1.04149e-06
    outer loop
      vertex 13.7267 -0.136443 0
      vertex 13.863 -0.137797 1.03528
      vertex 13.4342 -0.133535 0
    endloop
  endfacet
  facet normal -0.00994081 -0.999951 9.65875e-07
    outer loop
      vertex 13.9993 -0.139153 0
      vertex 13.863 -0.137797 1.03528
      vertex 13.7267 -0.136443 0
    endloop
  endfacet
  facet normal 0.0978149 0.98669 0.129903
    outer loop
      vertex 2.72156 13.5939 1.03528
      vertex 3.10862e-15 14 0
      vertex 3.07836e-15 13.8637 1.03528
    endloop
  endfacet
  facet normal 0.0977954 0.986686 0.129952
    outer loop
      vertex 2.72156 13.5939 1.03528
      vertex 2.74832 13.7276 0
      vertex 3.10862e-15 14 0
    endloop
  endfacet
  facet normal 0.0911982 0.92003 0.381089
    outer loop
      vertex 2.64312 13.2021 2
      vertex 3.07836e-15 13.8637 1.03528
      vertex 2.98963e-15 13.4641 2
    endloop
  endfacet
  facet normal 0.0912072 0.920037 0.381069
    outer loop
      vertex 2.64312 13.2021 2
      vertex 2.72156 13.5939 1.03528
      vertex 3.07836e-15 13.8637 1.03528
    endloop
  endfacet
  facet normal 0.0783888 0.790901 0.606902
    outer loop
      vertex 2.51833 12.5788 2.82843
      vertex 2.98963e-15 13.4641 2
      vertex 2.84848e-15 12.8284 2.82843
    endloop
  endfacet
  facet normal 0.0783996 0.790915 0.606884
    outer loop
      vertex 2.51833 12.5788 2.82843
      vertex 2.64312 13.2021 2
      vertex 2.98963e-15 13.4641 2
    endloop
  endfacet
  facet normal 0.0602326 0.607666 0.791905
    outer loop
      vertex 2.3557 11.7665 3.4641
      vertex 2.84848e-15 12.8284 2.82843
      vertex 2.66453e-15 12 3.4641
    endloop
  endfacet
  facet normal 0.0602269 0.607657 0.791912
    outer loop
      vertex 2.3557 11.7665 3.4641
      vertex 2.51833 12.5788 2.82843
      vertex 2.84848e-15 12.8284 2.82843
    endloop
  endfacet
  facet normal 0.0379181 0.382415 0.923212
    outer loop
      vertex 2.16632 10.8205 3.8637
      vertex 2.66453e-15 12 3.4641
      vertex 2.45032e-15 11.0353 3.8637
    endloop
  endfacet
  facet normal 0.0379031 0.382391 0.923223
    outer loop
      vertex 2.16632 10.8205 3.8637
      vertex 2.3557 11.7665 3.4641
      vertex 2.66453e-15 12 3.4641
    endloop
  endfacet
  facet normal 0.0129365 0.130514 0.991362
    outer loop
      vertex 1.96308 9.80541 4
      vertex 2.45032e-15 11.0353 3.8637
      vertex 2.22044e-15 9.99999 4
    endloop
  endfacet
  facet normal 0.0129419 0.130523 0.991361
    outer loop
      vertex 1.96308 9.80541 4
      vertex 2.16632 10.8205 3.8637
      vertex 2.45032e-15 11.0353 3.8637
    endloop
  endfacet
  facet normal -0.0129365 -0.130518 0.991362
    outer loop
      vertex 1.75985 8.79028 3.8637
      vertex 2.22044e-15 9.99999 4
      vertex 1.99057e-15 8.96471 3.8637
    endloop
  endfacet
  facet normal -0.012937 -0.130519 0.991361
    outer loop
      vertex 1.75985 8.79028 3.8637
      vertex 1.96308 9.80541 4
      vertex 2.22044e-15 9.99999 4
    endloop
  endfacet
  facet normal -0.0379055 -0.382408 0.923216
    outer loop
      vertex 1.57047 7.84432 3.4641
      vertex 1.99057e-15 8.96471 3.8637
      vertex 1.77635e-15 7.99999 3.4641
    endloop
  endfacet
  facet normal -0.0379026 -0.382405 0.923217
    outer loop
      vertex 1.57047 7.84432 3.4641
      vertex 1.75985 8.79028 3.8637
      vertex 1.99057e-15 8.96471 3.8637
    endloop
  endfacet
  facet normal -0.0602283 -0.607652 0.791916
    outer loop
      vertex 1.40784 7.03202 2.82843
      vertex 1.77635e-15 7.99999 3.4641
      vertex 1.59241e-15 7.17156 2.82843
    endloop
  endfacet
  facet normal -0.0602329 -0.607657 0.791913
    outer loop
      vertex 1.40784 7.03202 2.82843
      vertex 1.57047 7.84432 3.4641
      vertex 1.77635e-15 7.99999 3.4641
    endloop
  endfacet
  facet normal -0.0783914 -0.79091 0.60689
    outer loop
      vertex 1.28305 6.40871 2
      vertex 1.59241e-15 7.17156 2.82843
      vertex 1.45126e-15 6.53588 2
    endloop
  endfacet
  facet normal -0.0783922 -0.790911 0.606889
    outer loop
      vertex 1.28305 6.40871 2
      vertex 1.40784 7.03202 2.82843
      vertex 1.59241e-15 7.17156 2.82843
    endloop
  endfacet
  facet normal -0.0911927 -0.92003 0.381089
    outer loop
      vertex 1.20461 6.01688 1.03528
      vertex 1.45126e-15 6.53588 2
      vertex 1.36253e-15 6.13628 1.03528
    endloop
  endfacet
  facet normal -0.091189 -0.920029 0.381093
    outer loop
      vertex 1.20461 6.01688 1.03528
      vertex 1.28305 6.40871 2
      vertex 1.45126e-15 6.53588 2
    endloop
  endfacet
  facet normal -0.0978022 -0.986693 0.129894
    outer loop
      vertex 1.17785 5.88324 0
      vertex 1.36253e-15 6.13628 1.03528
      vertex 1.33226e-15 5.99999 0
    endloop
  endfacet
  facet normal -0.0978002 -0.986693 0.129896
    outer loop
      vertex 1.17785 5.88324 0
      vertex 1.20461 6.01688 1.03528
      vertex 1.36253e-15 6.13628 1.03528
    endloop
  endfacet
  facet normal 0.289565 0.948296 0.129951
    outer loop
      vertex 5.33722 12.7952 1.03528
      vertex 2.74832 13.7276 0
      vertex 2.72156 13.5939 1.03528
    endloop
  endfacet
  facet normal 0.289619 0.948297 0.129817
    outer loop
      vertex 5.33722 12.7952 1.03528
      vertex 5.38969 12.9209 0
      vertex 2.74832 13.7276 0
    endloop
  endfacet
  facet normal 0.270013 0.884239 0.381069
    outer loop
      vertex 5.18338 12.4264 2
      vertex 2.72156 13.5939 1.03528
      vertex 2.64312 13.2021 2
    endloop
  endfacet
  facet normal 0.270004 0.884234 0.381088
    outer loop
      vertex 5.18338 12.4264 2
      vertex 5.33722 12.7952 1.03528
      vertex 2.72156 13.5939 1.03528
    endloop
  endfacet
  facet normal 0.232125 0.760138 0.606884
    outer loop
      vertex 4.93866 11.8397 2.82843
      vertex 2.64312 13.2021 2
      vertex 2.51833 12.5788 2.82843
    endloop
  endfacet
  facet normal 0.232115 0.76013 0.606897
    outer loop
      vertex 4.93866 11.8397 2.82843
      vertex 5.18338 12.4264 2
      vertex 2.64312 13.2021 2
    endloop
  endfacet
  facet normal 0.178347 0.584009 0.791913
    outer loop
      vertex 4.61973 11.0751 3.4641
      vertex 2.51833 12.5788 2.82843
      vertex 2.3557 11.7665 3.4641
    endloop
  endfacet
  facet normal 0.178336 0.583998 0.791923
    outer loop
      vertex 4.61973 11.0751 3.4641
      vertex 4.93866 11.8397 2.82843
      vertex 2.51833 12.5788 2.82843
    endloop
  endfacet
  facet normal 0.11223 0.367511 0.923223
    outer loop
      vertex 4.24833 10.1847 3.8637
      vertex 2.3557 11.7665 3.4641
      vertex 2.16632 10.8205 3.8637
    endloop
  endfacet
  facet normal 0.112233 0.367515 0.923221
    outer loop
      vertex 4.24833 10.1847 3.8637
      vertex 4.61973 11.0751 3.4641
      vertex 2.3557 11.7665 3.4641
    endloop
  endfacet
  facet normal 0.0383088 0.125444 0.991361
    outer loop
      vertex 3.84977 9.22924 4
      vertex 2.16632 10.8205 3.8637
      vertex 1.96308 9.80541 4
    endloop
  endfacet
  facet normal 0.0383072 0.125442 0.991361
    outer loop
      vertex 3.84977 9.22924 4
      vertex 4.24833 10.1847 3.8637
      vertex 2.16632 10.8205 3.8637
    endloop
  endfacet
  facet normal -0.0383074 -0.125439 0.991361
    outer loop
      vertex 3.45122 8.27376 3.8637
      vertex 1.96308 9.80541 4
      vertex 1.75985 8.79028 3.8637
    endloop
  endfacet
  facet normal -0.0383076 -0.12544 0.991361
    outer loop
      vertex 3.45122 8.27376 3.8637
      vertex 3.84977 9.22924 4
      vertex 1.96308 9.80541 4
    endloop
  endfacet
  facet normal -0.112235 -0.367523 0.923217
    outer loop
      vertex 3.07982 7.38339 3.4641
      vertex 1.75985 8.79028 3.8637
      vertex 1.57047 7.84432 3.4641
    endloop
  endfacet
  facet normal -0.112237 -0.367524 0.923217
    outer loop
      vertex 3.07982 7.38339 3.4641
      vertex 3.45122 8.27376 3.8637
      vertex 1.75985 8.79028 3.8637
    endloop
  endfacet
  facet normal -0.178347 -0.584009 0.791913
    outer loop
      vertex 2.76089 6.61882 2.82843
      vertex 1.57047 7.84432 3.4641
      vertex 1.40784 7.03202 2.82843
    endloop
  endfacet
  facet normal -0.178346 -0.584009 0.791913
    outer loop
      vertex 2.76089 6.61882 2.82843
      vertex 3.07982 7.38339 3.4641
      vertex 1.57047 7.84432 3.4641
    endloop
  endfacet
  facet normal -0.232129 -0.760132 0.60689
    outer loop
      vertex 2.51617 6.03214 2
      vertex 1.40784 7.03202 2.82843
      vertex 1.28305 6.40871 2
    endloop
  endfacet
  facet normal -0.232133 -0.760134 0.606886
    outer loop
      vertex 2.51617 6.03214 2
      vertex 2.76089 6.61882 2.82843
      vertex 1.40784 7.03202 2.82843
    endloop
  endfacet
  facet normal -0.270029 -0.884225 0.381092
    outer loop
      vertex 2.36233 5.66333 1.03528
      vertex 1.28305 6.40871 2
      vertex 1.20461 6.01688 1.03528
    endloop
  endfacet
  facet normal -0.270024 -0.884224 0.381096
    outer loop
      vertex 2.36233 5.66333 1.03528
      vertex 2.51617 6.03214 2
      vertex 1.28305 6.40871 2
    endloop
  endfacet
  facet normal -0.289596 -0.948294 0.129897
    outer loop
      vertex 2.30986 5.53754 0
      vertex 1.20461 6.01688 1.03528
      vertex 1.17785 5.88324 0
    endloop
  endfacet
  facet normal -0.289594 -0.948294 0.129898
    outer loop
      vertex 2.30986 5.53754 0
      vertex 2.36233 5.66333 1.03528
      vertex 1.20461 6.01688 1.03528
    endloop
  endfacet
  facet normal 0.470147 0.872988 0.129823
    outer loop
      vertex 7.74517 11.4984 1.03528
      vertex 5.38969 12.9209 0
      vertex 5.33722 12.7952 1.03528
    endloop
  endfacet
  facet normal 0.470098 0.872996 0.129945
    outer loop
      vertex 7.74517 11.4984 1.03528
      vertex 7.82131 11.6115 0
      vertex 5.38969 12.9209 0
    endloop
  endfacet
  facet normal 0.438374 0.814002 0.381088
    outer loop
      vertex 7.52192 11.167 2
      vertex 5.33722 12.7952 1.03528
      vertex 5.18338 12.4264 2
    endloop
  endfacet
  facet normal 0.438382 0.814005 0.381074
    outer loop
      vertex 7.52192 11.167 2
      vertex 7.74517 11.4984 1.03528
      vertex 5.33722 12.7952 1.03528
    endloop
  endfacet
  facet normal 0.376839 0.699764 0.606897
    outer loop
      vertex 7.16679 10.6398 2.82843
      vertex 5.18338 12.4264 2
      vertex 4.93866 11.8397 2.82843
    endloop
  endfacet
  facet normal 0.376856 0.699773 0.606875
    outer loop
      vertex 7.16679 10.6398 2.82843
      vertex 7.52192 11.167 2
      vertex 5.18338 12.4264 2
    endloop
  endfacet
  facet normal 0.289518 0.537622 0.791923
    outer loop
      vertex 6.70398 9.9527 3.4641
      vertex 4.93866 11.8397 2.82843
      vertex 4.61973 11.0751 3.4641
    endloop
  endfacet
  facet normal 0.289525 0.537627 0.791917
    outer loop
      vertex 6.70398 9.9527 3.4641
      vertex 7.16679 10.6398 2.82843
      vertex 4.93866 11.8397 2.82843
    endloop
  endfacet
  facet normal 0.182192 0.338334 0.92322
    outer loop
      vertex 6.16502 9.15257 3.8637
      vertex 4.61973 11.0751 3.4641
      vertex 4.24833 10.1847 3.8637
    endloop
  endfacet
  facet normal 0.182202 0.338342 0.923216
    outer loop
      vertex 6.16502 9.15257 3.8637
      vertex 6.70398 9.9527 3.4641
      vertex 4.61973 11.0751 3.4641
    endloop
  endfacet
  facet normal 0.0621871 0.115481 0.991361
    outer loop
      vertex 5.58665 8.29392 4
      vertex 4.24833 10.1847 3.8637
      vertex 3.84977 9.22924 4
    endloop
  endfacet
  facet normal 0.0621853 0.11548 0.991361
    outer loop
      vertex 5.58665 8.29392 4
      vertex 6.16502 9.15257 3.8637
      vertex 4.24833 10.1847 3.8637
    endloop
  endfacet
  facet normal -0.0621869 -0.115479 0.991361
    outer loop
      vertex 5.00827 7.43527 3.8637
      vertex 3.84977 9.22924 4
      vertex 3.45122 8.27376 3.8637
    endloop
  endfacet
  facet normal -0.0621858 -0.115478 0.991362
    outer loop
      vertex 5.00827 7.43527 3.8637
      vertex 5.58665 8.29392 4
      vertex 3.84977 9.22924 4
    endloop
  endfacet
  facet normal -0.1822 -0.338341 0.923217
    outer loop
      vertex 4.46932 6.63513 3.4641
      vertex 3.45122 8.27376 3.8637
      vertex 3.07982 7.38339 3.4641
    endloop
  endfacet
  facet normal -0.182201 -0.338341 0.923216
    outer loop
      vertex 4.46932 6.63513 3.4641
      vertex 5.00827 7.43527 3.8637
      vertex 3.45122 8.27376 3.8637
    endloop
  endfacet
  facet normal -0.289523 -0.537633 0.791914
    outer loop
      vertex 4.0065 5.94804 2.82843
      vertex 3.07982 7.38339 3.4641
      vertex 2.76089 6.61882 2.82843
    endloop
  endfacet
  facet normal -0.28952 -0.537632 0.791916
    outer loop
      vertex 4.0065 5.94804 2.82843
      vertex 4.46932 6.63513 3.4641
      vertex 3.07982 7.38339 3.4641
    endloop
  endfacet
  facet normal -0.376837 -0.699773 0.606886
    outer loop
      vertex 3.65137 5.42082 2
      vertex 2.76089 6.61882 2.82843
      vertex 2.51617 6.03214 2
    endloop
  endfacet
  facet normal -0.376839 -0.699774 0.606885
    outer loop
      vertex 3.65137 5.42082 2
      vertex 4.0065 5.94804 2.82843
      vertex 2.76089 6.61882 2.82843
    endloop
  endfacet
  facet normal -0.43835 -0.814011 0.381096
    outer loop
      vertex 3.42813 5.08939 1.03528
      vertex 2.51617 6.03214 2
      vertex 2.36233 5.66333 1.03528
    endloop
  endfacet
  facet normal -0.438356 -0.814011 0.381091
    outer loop
      vertex 3.42813 5.08939 1.03528
      vertex 3.65137 5.42082 2
      vertex 2.51617 6.03214 2
    endloop
  endfacet
  facet normal -0.470114 -0.872994 0.129898
    outer loop
      vertex 3.35198 4.97635 0
      vertex 2.36233 5.66333 1.03528
      vertex 2.30986 5.53754 0
    endloop
  endfacet
  facet normal -0.470113 -0.872995 0.1299
    outer loop
      vertex 3.35198 4.97635 0
      vertex 3.42813 5.08939 1.03528
      vertex 2.36233 5.66333 1.03528
    endloop
  endfacet
  facet normal 0.632332 0.763723 0.129939
    outer loop
      vertex 9.85171 9.75427 1.03528
      vertex 7.82131 11.6115 0
      vertex 7.74517 11.4984 1.03528
    endloop
  endfacet
  facet normal 0.632349 0.763716 0.129893
    outer loop
      vertex 9.85171 9.75427 1.03528
      vertex 9.94856 9.85016 0
      vertex 7.82131 11.6115 0
    endloop
  endfacet
  facet normal 0.589622 0.712128 0.381077
    outer loop
      vertex 9.56775 9.47311 2
      vertex 7.74517 11.4984 1.03528
      vertex 7.52192 11.167 2
    endloop
  endfacet
  facet normal 0.589613 0.712127 0.381093
    outer loop
      vertex 9.56775 9.47311 2
      vertex 9.85171 9.75427 1.03528
      vertex 7.74517 11.4984 1.03528
    endloop
  endfacet
  facet normal 0.506881 0.612187 0.606876
    outer loop
      vertex 9.11603 9.02586 2.82843
      vertex 7.52192 11.167 2
      vertex 7.16679 10.6398 2.82843
    endloop
  endfacet
  facet normal 0.506871 0.612184 0.606887
    outer loop
      vertex 9.11603 9.02586 2.82843
      vertex 9.56775 9.47311 2
      vertex 7.52192 11.167 2
    endloop
  endfacet
  facet normal 0.389427 0.470335 0.791917
    outer loop
      vertex 8.52734 8.443 3.4641
      vertex 7.16679 10.6398 2.82843
      vertex 6.70398 9.9527 3.4641
    endloop
  endfacet
  facet normal 0.389432 0.470337 0.791913
    outer loop
      vertex 8.52734 8.443 3.4641
      vertex 9.11603 9.02586 2.82843
      vertex 7.16679 10.6398 2.82843
    endloop
  endfacet
  facet normal 0.245076 0.295991 0.923216
    outer loop
      vertex 7.84179 7.76423 3.8637
      vertex 6.70398 9.9527 3.4641
      vertex 6.16502 9.15257 3.8637
    endloop
  endfacet
  facet normal 0.245072 0.295989 0.923217
    outer loop
      vertex 7.84179 7.76423 3.8637
      vertex 8.52734 8.443 3.4641
      vertex 6.70398 9.9527 3.4641
    endloop
  endfacet
  facet normal 0.0836462 0.101024 0.991361
    outer loop
      vertex 7.10611 7.03583 4
      vertex 6.16502 9.15257 3.8637
      vertex 5.58665 8.29392 4
    endloop
  endfacet
  facet normal 0.0836462 0.101024 0.991361
    outer loop
      vertex 7.10611 7.03583 4
      vertex 7.84179 7.76423 3.8637
      vertex 6.16502 9.15257 3.8637
    endloop
  endfacet
  facet normal -0.0836458 -0.101023 0.991362
    outer loop
      vertex 6.37043 6.30742 3.8637
      vertex 5.58665 8.29392 4
      vertex 5.00827 7.43527 3.8637
    endloop
  endfacet
  facet normal -0.0836456 -0.101023 0.991362
    outer loop
      vertex 6.37043 6.30742 3.8637
      vertex 7.10611 7.03583 4
      vertex 5.58665 8.29392 4
    endloop
  endfacet
  facet normal -0.245075 -0.295991 0.923216
    outer loop
      vertex 5.68489 5.62866 3.4641
      vertex 5.00827 7.43527 3.8637
      vertex 4.46932 6.63513 3.4641
    endloop
  endfacet
  facet normal -0.245077 -0.295991 0.923215
    outer loop
      vertex 5.68489 5.62866 3.4641
      vertex 6.37043 6.30742 3.8637
      vertex 5.00827 7.43527 3.8637
    endloop
  endfacet
  facet normal -0.389428 -0.470335 0.791916
    outer loop
      vertex 5.0962 5.04579 2.82843
      vertex 4.46932 6.63513 3.4641
      vertex 4.0065 5.94804 2.82843
    endloop
  endfacet
  facet normal -0.389429 -0.470335 0.791916
    outer loop
      vertex 5.0962 5.04579 2.82843
      vertex 5.68489 5.62866 3.4641
      vertex 4.46932 6.63513 3.4641
    endloop
  endfacet
  facet normal -0.506877 -0.612182 0.606885
    outer loop
      vertex 4.64448 4.59854 2
      vertex 4.0065 5.94804 2.82843
      vertex 3.65137 5.42082 2
    endloop
  endfacet
  facet normal -0.506874 -0.612182 0.606887
    outer loop
      vertex 4.64448 4.59854 2
      vertex 5.0962 5.04579 2.82843
      vertex 4.0065 5.94804 2.82843
    endloop
  endfacet
  facet normal -0.589622 -0.712121 0.38109
    outer loop
      vertex 4.36052 4.31739 1.03528
      vertex 3.65137 5.42082 2
      vertex 3.42813 5.08939 1.03528
    endloop
  endfacet
  facet normal -0.589625 -0.71212 0.381087
    outer loop
      vertex 4.36052 4.31739 1.03528
      vertex 4.64448 4.59854 2
      vertex 3.65137 5.42082 2
    endloop
  endfacet
  facet normal -0.632348 -0.763716 0.129901
    outer loop
      vertex 4.26366 4.22149 0
      vertex 3.42813 5.08939 1.03528
      vertex 3.35198 4.97635 0
    endloop
  endfacet
  facet normal -0.632343 -0.763719 0.129906
    outer loop
      vertex 4.26366 4.22149 0
      vertex 4.36052 4.31739 1.03528
      vertex 3.42813 5.08939 1.03528
    endloop
  endfacet
  facet normal 0.769961 0.62473 0.129893
    outer loop
      vertex 11.5749 7.63049 1.03528
      vertex 9.94856 9.85016 0
      vertex 9.85171 9.75427 1.03528
    endloop
  endfacet
  facet normal 0.769957 0.624733 0.129905
    outer loop
      vertex 11.5749 7.63049 1.03528
      vertex 11.6887 7.70551 0
      vertex 9.94856 9.85016 0
    endloop
  endfacet
  facet normal 0.71795 0.582509 0.381092
    outer loop
      vertex 11.2412 7.41056 2
      vertex 9.85171 9.75427 1.03528
      vertex 9.56775 9.47311 2
    endloop
  endfacet
  facet normal 0.717928 0.582511 0.38113
    outer loop
      vertex 11.2412 7.41056 2
      vertex 11.5749 7.63049 1.03528
      vertex 9.85171 9.75427 1.03528
    endloop
  endfacet
  facet normal 0.61719 0.500764 0.606887
    outer loop
      vertex 10.7105 7.06068 2.82843
      vertex 9.56775 9.47311 2
      vertex 9.11603 9.02586 2.82843
    endloop
  endfacet
  facet normal 0.617199 0.500765 0.606877
    outer loop
      vertex 10.7105 7.06068 2.82843
      vertex 11.2412 7.41056 2
      vertex 9.56775 9.47311 2
    endloop
  endfacet
  facet normal 0.474192 0.384729 0.791913
    outer loop
      vertex 10.0188 6.60472 3.4641
      vertex 9.11603 9.02586 2.82843
      vertex 8.52734 8.443 3.4641
    endloop
  endfacet
  facet normal 0.474172 0.384725 0.791927
    outer loop
      vertex 10.0188 6.60472 3.4641
      vertex 10.7105 7.06068 2.82843
      vertex 9.11603 9.02586 2.82843
    endloop
  endfacet
  facet normal 0.29841 0.242119 0.923217
    outer loop
      vertex 9.21339 6.07374 3.8637
      vertex 8.52734 8.443 3.4641
      vertex 7.84179 7.76423 3.8637
    endloop
  endfacet
  facet normal 0.298424 0.242122 0.923212
    outer loop
      vertex 9.21339 6.07374 3.8637
      vertex 10.0188 6.60472 3.4641
      vertex 8.52734 8.443 3.4641
    endloop
  endfacet
  facet normal 0.10185 0.0826378 0.991361
    outer loop
      vertex 8.34904 5.50393 4
      vertex 7.84179 7.76423 3.8637
      vertex 7.10611 7.03583 4
    endloop
  endfacet
  facet normal 0.101851 0.0826379 0.991361
    outer loop
      vertex 8.34904 5.50393 4
      vertex 9.21339 6.07374 3.8637
      vertex 7.84179 7.76423 3.8637
    endloop
  endfacet
  facet normal -0.10185 -0.0826374 0.991362
    outer loop
      vertex 7.48468 4.93412 3.8637
      vertex 7.10611 7.03583 4
      vertex 6.37043 6.30742 3.8637
    endloop
  endfacet
  facet normal -0.10185 -0.0826374 0.991362
    outer loop
      vertex 7.48468 4.93412 3.8637
      vertex 8.34904 5.50393 4
      vertex 7.10611 7.03583 4
    endloop
  endfacet
  facet normal -0.298413 -0.242123 0.923215
    outer loop
      vertex 6.67923 4.40315 3.4641
      vertex 6.37043 6.30742 3.8637
      vertex 5.68489 5.62866 3.4641
    endloop
  endfacet
  facet normal -0.298413 -0.242123 0.923215
    outer loop
      vertex 6.67923 4.40315 3.4641
      vertex 7.48468 4.93412 3.8637
      vertex 6.37043 6.30742 3.8637
    endloop
  endfacet
  facet normal -0.474183 -0.384734 0.791915
    outer loop
      vertex 5.98757 3.94718 2.82843
      vertex 5.68489 5.62866 3.4641
      vertex 5.0962 5.04579 2.82843
    endloop
  endfacet
  facet normal -0.474179 -0.384734 0.791918
    outer loop
      vertex 5.98757 3.94718 2.82843
      vertex 6.67923 4.40315 3.4641
      vertex 5.68489 5.62866 3.4641
    endloop
  endfacet
  facet normal -0.61719 -0.500764 0.606887
    outer loop
      vertex 5.45684 3.59731 2
      vertex 5.0962 5.04579 2.82843
      vertex 4.64448 4.59854 2
    endloop
  endfacet
  facet normal -0.61719 -0.500764 0.606887
    outer loop
      vertex 5.45684 3.59731 2
      vertex 5.98757 3.94718 2.82843
      vertex 5.0962 5.04579 2.82843
    endloop
  endfacet
  facet normal -0.71795 -0.582512 0.381087
    outer loop
      vertex 5.12321 3.37737 1.03528
      vertex 4.64448 4.59854 2
      vertex 4.36052 4.31739 1.03528
    endloop
  endfacet
  facet normal -0.717946 -0.582514 0.381091
    outer loop
      vertex 5.12321 3.37737 1.03528
      vertex 5.45684 3.59731 2
      vertex 4.64448 4.59854 2
    endloop
  endfacet
  facet normal -0.769961 -0.624728 0.129907
    outer loop
      vertex 5.00942 3.30236 0
      vertex 4.36052 4.31739 1.03528
      vertex 4.26366 4.22149 0
    endloop
  endfacet
  facet normal -0.76997 -0.624719 0.129892
    outer loop
      vertex 5.00942 3.30236 0
      vertex 5.12321 3.37737 1.03528
      vertex 4.36052 4.31739 1.03528
    endloop
  endfacet
  facet normal 0.877623 0.461413 0.129906
    outer loop
      vertex 12.8476 5.20977 1.03528
      vertex 11.6887 7.70551 0
      vertex 11.5749 7.63049 1.03528
    endloop
  endfacet
  facet normal 0.877626 0.46141 0.129895
    outer loop
      vertex 12.8476 5.20977 1.03528
      vertex 12.9739 5.26099 0
      vertex 11.6887 7.70551 0
    endloop
  endfacet
  facet normal 0.818301 0.430252 0.381139
    outer loop
      vertex 12.4773 5.05961 2
      vertex 11.5749 7.63049 1.03528
      vertex 11.2412 7.41056 2
    endloop
  endfacet
  facet normal 0.818334 0.430242 0.381079
    outer loop
      vertex 12.4773 5.05961 2
      vertex 12.8476 5.20977 1.03528
      vertex 11.5749 7.63049 1.03528
    endloop
  endfacet
  facet normal 0.703489 0.369874 0.606874
    outer loop
      vertex 11.8882 4.82073 2.82843
      vertex 11.2412 7.41056 2
      vertex 10.7105 7.06068 2.82843
    endloop
  endfacet
  facet normal 0.70347 0.369876 0.606895
    outer loop
      vertex 11.8882 4.82073 2.82843
      vertex 12.4773 5.05961 2
      vertex 11.2412 7.41056 2
    endloop
  endfacet
  facet normal 0.540458 0.284171 0.791929
    outer loop
      vertex 11.1205 4.50942 3.4641
      vertex 10.7105 7.06068 2.82843
      vertex 10.0188 6.60472 3.4641
    endloop
  endfacet
  facet normal 0.540484 0.284171 0.791912
    outer loop
      vertex 11.1205 4.50942 3.4641
      vertex 11.8882 4.82073 2.82843
      vertex 10.7105 7.06068 2.82843
    endloop
  endfacet
  facet normal 0.34015 0.178829 0.923211
    outer loop
      vertex 10.2264 4.14689 3.8637
      vertex 10.0188 6.60472 3.4641
      vertex 9.21339 6.07374 3.8637
    endloop
  endfacet
  facet normal 0.340108 0.178828 0.923226
    outer loop
      vertex 10.2264 4.14689 3.8637
      vertex 11.1205 4.50942 3.4641
      vertex 10.0188 6.60472 3.4641
    endloop
  endfacet
  facet normal 0.116092 0.0610357 0.991361
    outer loop
      vertex 9.26705 3.75785 4
      vertex 9.21339 6.07374 3.8637
      vertex 8.34904 5.50393 4
    endloop
  endfacet
  facet normal 0.116096 0.0610358 0.991361
    outer loop
      vertex 9.26705 3.75785 4
      vertex 10.2264 4.14689 3.8637
      vertex 9.21339 6.07374 3.8637
    endloop
  endfacet
  facet normal -0.11609 -0.0610358 0.991362
    outer loop
      vertex 8.30766 3.36881 3.8637
      vertex 8.34904 5.50393 4
      vertex 7.48468 4.93412 3.8637
    endloop
  endfacet
  facet normal -0.116092 -0.0610358 0.991361
    outer loop
      vertex 9.26705 3.75785 4
      vertex 8.34904 5.50393 4
      vertex 8.30766 3.36881 3.8637
    endloop
  endfacet
  facet normal -0.340138 -0.178829 0.923215
    outer loop
      vertex 7.41364 3.00628 3.4641
      vertex 7.48468 4.93412 3.8637
      vertex 6.67923 4.40315 3.4641
    endloop
  endfacet
  facet normal -0.340134 -0.178829 0.923217
    outer loop
      vertex 8.30766 3.36881 3.8637
      vertex 7.48468 4.93412 3.8637
      vertex 7.41364 3.00628 3.4641
    endloop
  endfacet
  facet normal -0.54048 -0.284162 0.791917
    outer loop
      vertex 6.64593 2.69497 2.82843
      vertex 6.67923 4.40315 3.4641
      vertex 5.98757 3.94718 2.82843
    endloop
  endfacet
  facet normal -0.540483 -0.284161 0.791915
    outer loop
      vertex 7.41364 3.00628 3.4641
      vertex 6.67923 4.40315 3.4641
      vertex 6.64593 2.69497 2.82843
    endloop
  endfacet
  facet normal -0.703483 -0.369864 0.606888
    outer loop
      vertex 6.05685 2.45609 2
      vertex 5.98757 3.94718 2.82843
      vertex 5.45684 3.59731 2
    endloop
  endfacet
  facet normal -0.703485 -0.369863 0.606885
    outer loop
      vertex 6.05685 2.45609 2
      vertex 6.64593 2.69497 2.82843
      vertex 5.98757 3.94718 2.82843
    endloop
  endfacet
  facet normal -0.818327 -0.430244 0.381091
    outer loop
      vertex 5.68653 2.30593 1.03528
      vertex 5.45684 3.59731 2
      vertex 5.12321 3.37737 1.03528
    endloop
  endfacet
  facet normal -0.818326 -0.430245 0.381093
    outer loop
      vertex 5.68653 2.30593 1.03528
      vertex 6.05685 2.45609 2
      vertex 5.45684 3.59731 2
    endloop
  endfacet
  facet normal -0.877623 -0.461417 0.129893
    outer loop
      vertex 5.56023 2.25471 0
      vertex 5.12321 3.37737 1.03528
      vertex 5.00942 3.30236 0
    endloop
  endfacet
  facet normal -0.877622 -0.461418 0.129895
    outer loop
      vertex 5.56023 2.25471 0
      vertex 5.68653 2.30593 1.03528
      vertex 5.12321 3.37737 1.03528
    endloop
  endfacet
  facet normal 0.95113 0.280141 0.129894
    outer loop
      vertex 13.6203 2.58631 1.03528
      vertex 12.9739 5.26099 0
      vertex 12.8476 5.20977 1.03528
    endloop
  endfacet
  facet normal 0.951129 0.280142 0.129897
    outer loop
      vertex 13.6203 2.58631 1.03528
      vertex 13.7542 2.61174 0
      vertex 12.9739 5.26099 0
    endloop
  endfacet
  facet normal 0.886877 0.261207 0.381078
    outer loop
      vertex 13.2277 2.51177 2
      vertex 12.8476 5.20977 1.03528
      vertex 12.4773 5.05961 2
    endloop
  endfacet
  facet normal 0.886866 0.261213 0.3811
    outer loop
      vertex 13.2277 2.51177 2
      vertex 13.6203 2.58631 1.03528
      vertex 12.8476 5.20977 1.03528
    endloop
  endfacet
  facet normal 0.762399 0.224554 0.606896
    outer loop
      vertex 12.6032 2.39318 2.82843
      vertex 12.4773 5.05961 2
      vertex 11.8882 4.82073 2.82843
    endloop
  endfacet
  facet normal 0.762414 0.224549 0.606879
    outer loop
      vertex 12.6032 2.39318 2.82843
      vertex 13.2277 2.51177 2
      vertex 12.4773 5.05961 2
    endloop
  endfacet
  facet normal 0.585759 0.17252 0.791911
    outer loop
      vertex 11.7893 2.23863 3.4641
      vertex 11.8882 4.82073 2.82843
      vertex 11.1205 4.50942 3.4641
    endloop
  endfacet
  facet normal 0.585744 0.172523 0.791921
    outer loop
      vertex 12.6032 2.39318 2.82843
      vertex 11.8882 4.82073 2.82843
      vertex 11.7893 2.23863 3.4641
    endloop
  endfacet
  facet normal 0.368596 0.108572 0.923228
    outer loop
      vertex 10.8415 2.05866 3.8637
      vertex 11.1205 4.50942 3.4641
      vertex 10.2264 4.14689 3.8637
    endloop
  endfacet
  facet normal 0.368621 0.108567 0.923218
    outer loop
      vertex 11.7893 2.23863 3.4641
      vertex 11.1205 4.50942 3.4641
      vertex 10.8415 2.05866 3.8637
    endloop
  endfacet
  facet normal 0.125819 0.0370605 0.991361
    outer loop
      vertex 9.82444 1.86553 4
      vertex 10.2264 4.14689 3.8637
      vertex 9.26705 3.75785 4
    endloop
  endfacet
  facet normal 0.125819 0.0370606 0.991361
    outer loop
      vertex 10.8415 2.05866 3.8637
      vertex 10.2264 4.14689 3.8637
      vertex 9.82444 1.86553 4
    endloop
  endfacet
  facet normal -0.125815 -0.037058 0.991361
    outer loop
      vertex 8.80733 1.67239 3.8637
      vertex 9.26705 3.75785 4
      vertex 8.30766 3.36881 3.8637
    endloop
  endfacet
  facet normal -0.125812 -0.0370585 0.991362
    outer loop
      vertex 9.82444 1.86553 4
      vertex 9.26705 3.75785 4
      vertex 8.80733 1.67239 3.8637
    endloop
  endfacet
  facet normal -0.368622 -0.108576 0.923217
    outer loop
      vertex 7.85954 1.49242 3.4641
      vertex 8.30766 3.36881 3.8637
      vertex 7.41364 3.00628 3.4641
    endloop
  endfacet
  facet normal -0.368623 -0.108576 0.923216
    outer loop
      vertex 8.80733 1.67239 3.8637
      vertex 8.30766 3.36881 3.8637
      vertex 7.85954 1.49242 3.4641
    endloop
  endfacet
  facet normal -0.58575 -0.172532 0.791915
    outer loop
      vertex 7.04566 1.33788 2.82843
      vertex 7.41364 3.00628 3.4641
      vertex 6.64593 2.69497 2.82843
    endloop
  endfacet
  facet normal -0.585753 -0.172531 0.791913
    outer loop
      vertex 7.85954 1.49242 3.4641
      vertex 7.41364 3.00628 3.4641
      vertex 7.04566 1.33788 2.82843
    endloop
  endfacet
  facet normal -0.762404 -0.224567 0.606885
    outer loop
      vertex 6.42115 1.21929 2
      vertex 6.64593 2.69497 2.82843
      vertex 6.05685 2.45609 2
    endloop
  endfacet
  facet normal -0.762405 -0.224566 0.606884
    outer loop
      vertex 7.04566 1.33788 2.82843
      vertex 6.64593 2.69497 2.82843
      vertex 6.42115 1.21929 2
    endloop
  endfacet
  facet normal -0.886864 -0.261227 0.381094
    outer loop
      vertex 6.02856 1.14474 1.03528
      vertex 6.05685 2.45609 2
      vertex 5.68653 2.30593 1.03528
    endloop
  endfacet
  facet normal -0.886864 -0.261226 0.381094
    outer loop
      vertex 6.42115 1.21929 2
      vertex 6.05685 2.45609 2
      vertex 6.02856 1.14474 1.03528
    endloop
  endfacet
  facet normal -0.951126 -0.280155 0.129894
    outer loop
      vertex 5.89466 1.11932 0
      vertex 5.68653 2.30593 1.03528
      vertex 5.56023 2.25471 0
    endloop
  endfacet
  facet normal -0.951126 -0.280155 0.129895
    outer loop
      vertex 5.89466 1.11932 0
      vertex 6.02856 1.14474 1.03528
      vertex 5.68653 2.30593 1.03528
    endloop
  endfacet
  facet normal 0.987616 0.0879901 0.129897
    outer loop
      vertex 13.863 -0.137797 1.03528
      vertex 13.7542 2.61174 0
      vertex 13.6203 2.58631 1.03528
    endloop
  endfacet
  facet normal 0.987614 0.0879947 0.129909
    outer loop
      vertex 13.863 -0.137797 1.03528
      vertex 13.9993 -0.139153 0
      vertex 13.7542 2.61174 0
    endloop
  endfacet
  facet normal 0.920886 0.0820431 0.381101
    outer loop
      vertex 13.4634 -0.133825 2
      vertex 13.6203 2.58631 1.03528
      vertex 13.2277 2.51177 2
    endloop
  endfacet
  facet normal 0.920884 0.0820447 0.381105
    outer loop
      vertex 13.863 -0.137797 1.03528
      vertex 13.6203 2.58631 1.03528
      vertex 13.4634 -0.133825 2
    endloop
  endfacet
  facet normal 0.791659 0.0705389 0.606878
    outer loop
      vertex 12.8278 -0.127507 2.82843
      vertex 13.2277 2.51177 2
      vertex 12.6032 2.39318 2.82843
    endloop
  endfacet
  facet normal 0.791673 0.0705313 0.606861
    outer loop
      vertex 13.4634 -0.133825 2
      vertex 13.2277 2.51177 2
      vertex 12.8278 -0.127507 2.82843
    endloop
  endfacet
  facet normal 0.608213 0.0541946 0.791921
    outer loop
      vertex 11.9994 -0.119273 3.4641
      vertex 12.6032 2.39318 2.82843
      vertex 11.7893 2.23863 3.4641
    endloop
  endfacet
  facet normal 0.608216 0.0541937 0.79192
    outer loop
      vertex 12.8278 -0.127507 2.82843
      vertex 12.6032 2.39318 2.82843
      vertex 11.9994 -0.119273 3.4641
    endloop
  endfacet
  facet normal 0.38276 0.034104 0.923218
    outer loop
      vertex 11.0347 -0.109684 3.8637
      vertex 11.7893 2.23863 3.4641
      vertex 10.8415 2.05866 3.8637
    endloop
  endfacet
  facet normal 0.382757 0.0341054 0.923219
    outer loop
      vertex 11.9994 -0.119273 3.4641
      vertex 11.7893 2.23863 3.4641
      vertex 11.0347 -0.109684 3.8637
    endloop
  endfacet
  facet normal 0.130646 0.0116389 0.991361
    outer loop
      vertex 9.99949 -0.0993938 4
      vertex 10.8415 2.05866 3.8637
      vertex 9.82444 1.86553 4
    endloop
  endfacet
  facet normal 0.130642 0.0116403 0.991361
    outer loop
      vertex 11.0347 -0.109684 3.8637
      vertex 10.8415 2.05866 3.8637
      vertex 9.99949 -0.0993938 4
    endloop
  endfacet
  facet normal -0.130639 -0.0116393 0.991362
    outer loop
      vertex 8.96427 -0.0891037 3.8637
      vertex 9.82444 1.86553 4
      vertex 8.80733 1.67239 3.8637
    endloop
  endfacet
  facet normal -0.130641 -0.0116385 0.991361
    outer loop
      vertex 9.99949 -0.0993938 4
      vertex 9.82444 1.86553 4
      vertex 8.96427 -0.0891037 3.8637
    endloop
  endfacet
  facet normal -0.382764 -0.034102 0.923216
    outer loop
      vertex 7.99959 -0.0795155 3.4641
      vertex 8.80733 1.67239 3.8637
      vertex 7.85954 1.49242 3.4641
    endloop
  endfacet
  facet normal -0.382764 -0.0341023 0.923217
    outer loop
      vertex 8.96427 -0.0891037 3.8637
      vertex 8.80733 1.67239 3.8637
      vertex 7.99959 -0.0795155 3.4641
    endloop
  endfacet
  facet normal -0.608224 -0.0541858 0.791913
    outer loop
      vertex 7.1712 -0.0712814 2.82843
      vertex 7.85954 1.49242 3.4641
      vertex 7.04566 1.33788 2.82843
    endloop
  endfacet
  facet normal -0.60822 -0.0541888 0.791916
    outer loop
      vertex 7.99959 -0.0795155 3.4641
      vertex 7.85954 1.49242 3.4641
      vertex 7.1712 -0.0712814 2.82843
    endloop
  endfacet
  facet normal -0.791656 -0.0705261 0.606883
    outer loop
      vertex 6.53556 -0.0649624 2
      vertex 7.04566 1.33788 2.82843
      vertex 6.42115 1.21929 2
    endloop
  endfacet
  facet normal -0.791654 -0.0705273 0.606885
    outer loop
      vertex 7.1712 -0.0712814 2.82843
      vertex 7.04566 1.33788 2.82843
      vertex 6.53556 -0.0649624 2
    endloop
  endfacet
  facet normal -0.920889 -0.0820431 0.381093
    outer loop
      vertex 6.13598 -0.0609913 1.03528
      vertex 6.42115 1.21929 2
      vertex 6.02856 1.14474 1.03528
    endloop
  endfacet
  facet normal -0.920891 -0.0820393 0.381089
    outer loop
      vertex 6.53556 -0.0649624 2
      vertex 6.42115 1.21929 2
      vertex 6.13598 -0.0609913 1.03528
    endloop
  endfacet
  facet normal -0.987616 -0.0879841 0.129896
    outer loop
      vertex 5.99969 -0.0596361 0
      vertex 6.02856 1.14474 1.03528
      vertex 5.89466 1.11932 0
    endloop
  endfacet
  facet normal -0.987615 -0.0879878 0.1299
    outer loop
      vertex 6.13598 -0.0609913 1.03528
      vertex 6.02856 1.14474 1.03528
      vertex 5.99969 -0.0596361 0
    endloop
  endfacet
  facet normal -0.082723 -0.988079 -0.129834
    outer loop
      vertex 2.36619 12.6789 0.776457
      vertex 2.85926e-15 12.877 0.776457
      vertex 2.87994e-15 12.9701 0.0679363
    endloop
  endfacet
  facet normal -0.0827397 -0.988128 -0.12945
    outer loop
      vertex 2.38494 12.7793 0
      vertex 2.87994e-15 12.9701 0.0679363
      vertex 2.88192e-15 12.979 0
    endloop
  endfacet
  facet normal -0.0827453 -0.988086 -0.129763
    outer loop
      vertex 2.87994e-15 12.9701 0.0679363
      vertex 2.38494 12.7793 0
      vertex 2.36619 12.6789 0.776457
    endloop
  endfacet
  facet normal -0.0771359 -0.921326 -0.381063
    outer loop
      vertex 2.3112 12.3842 1.5
      vertex 2.79282e-15 12.5777 1.5
      vertex 2.85336e-15 12.8504 0.840671
    endloop
  endfacet
  facet normal -0.0771171 -0.92112 -0.381565
    outer loop
      vertex 2.36619 12.6789 0.776457
      vertex 2.85336e-15 12.8504 0.840671
      vertex 2.85926e-15 12.877 0.776457
    endloop
  endfacet
  facet normal -0.0771184 -0.921307 -0.381111
    outer loop
      vertex 2.85336e-15 12.8504 0.840671
      vertex 2.36619 12.6789 0.776457
      vertex 2.3112 12.3842 1.5
    endloop
  endfacet
  facet normal -0.0662855 -0.792056 -0.606839
    outer loop
      vertex 2.22374 11.9156 2.12132
      vertex 2.68713e-15 12.1017 2.12132
      vertex 2.78331e-15 12.5349 1.5559
    endloop
  endfacet
  facet normal -0.066329 -0.792246 -0.606586
    outer loop
      vertex 2.3112 12.3842 1.5
      vertex 2.78331e-15 12.5349 1.5559
      vertex 2.79282e-15 12.5777 1.5
    endloop
  endfacet
  facet normal -0.0663248 -0.792119 -0.606753
    outer loop
      vertex 2.78331e-15 12.5349 1.5559
      vertex 2.3112 12.3842 1.5
      vertex 2.22374 11.9156 2.12132
    endloop
  endfacet
  facet normal -0.0509423 -0.608582 -0.791854
    outer loop
      vertex 2.10975 11.3048 2.59808
      vertex 2.54939e-15 11.4814 2.59808
      vertex 2.67458e-15 12.0452 2.16477
    endloop
  endfacet
  facet normal -0.0509403 -0.608578 -0.791857
    outer loop
      vertex 2.67458e-15 12.0452 2.16477
      vertex 2.22374 11.9156 2.12132
      vertex 2.10975 11.3048 2.59808
    endloop
  endfacet
  facet normal -0.0509506 -0.608817 -0.791673
    outer loop
      vertex 2.22374 11.9156 2.12132
      vertex 2.67458e-15 12.0452 2.16477
      vertex 2.68713e-15 12.1017 2.12132
    endloop
  endfacet
  facet normal -0.0320823 -0.383014 -0.923185
    outer loop
      vertex 1.97701 10.5935 2.89778
      vertex 2.38899e-15 10.7591 2.89778
      vertex 2.53461e-15 11.4149 2.6257
    endloop
  endfacet
  facet normal -0.0320731 -0.382994 -0.923194
    outer loop
      vertex 2.53461e-15 11.4149 2.6257
      vertex 2.10975 11.3048 2.59808
      vertex 1.97701 10.5935 2.89778
    endloop
  endfacet
  facet normal -0.0320908 -0.383372 -0.923036
    outer loop
      vertex 2.10975 11.3048 2.59808
      vertex 2.53461e-15 11.4149 2.6257
      vertex 2.54939e-15 11.4814 2.59808
    endloop
  endfacet
  facet normal -0.0109442 -0.130724 -0.991358
    outer loop
      vertex 1.83457 9.83026 3
      vertex 2.21686e-15 9.98385 3
      vertex 2.37298e-15 10.687 2.90728
    endloop
  endfacet
  facet normal -0.0109463 -0.130729 -0.991358
    outer loop
      vertex 2.37298e-15 10.687 2.90728
      vertex 1.97701 10.5935 2.89778
      vertex 1.83457 9.83026 3
    endloop
  endfacet
  facet normal -0.0109415 -0.130625 -0.991372
    outer loop
      vertex 1.97701 10.5935 2.89778
      vertex 2.37298e-15 10.687 2.90728
      vertex 2.38899e-15 10.7591 2.89778
    endloop
  endfacet
  facet normal 0.0109443 0.13072 -0.991359
    outer loop
      vertex 1.69212 9.06698 2.89778
      vertex 2.04473e-15 9.20865 2.89778
      vertex 2.20077e-15 9.91137 2.99044
    endloop
  endfacet
  facet normal 0.0109455 0.130722 -0.991359
    outer loop
      vertex 2.20077e-15 9.91137 2.99044
      vertex 1.83457 9.83026 3
      vertex 1.69212 9.06698 2.89778
    endloop
  endfacet
  facet normal 0.010947 0.130758 -0.991354
    outer loop
      vertex 1.83457 9.83026 3
      vertex 2.20077e-15 9.91137 2.99044
      vertex 2.21686e-15 9.98385 3
    endloop
  endfacet
  facet normal 0.0320645 0.383001 -0.923191
    outer loop
      vertex 1.55938 8.35572 2.59808
      vertex 1.88433e-15 8.48627 2.59808
      vertex 2.02972e-15 9.14106 2.86973
    endloop
  endfacet
  facet normal 0.0320716 0.383013 -0.923186
    outer loop
      vertex 2.02972e-15 9.14106 2.86973
      vertex 1.69212 9.06698 2.89778
      vertex 1.55938 8.35572 2.59808
    endloop
  endfacet
  facet normal 0.0320751 0.383108 -0.923147
    outer loop
      vertex 1.69212 9.06698 2.89778
      vertex 2.02972e-15 9.14106 2.86973
      vertex 2.04473e-15 9.20865 2.89778
    endloop
  endfacet
  facet normal 0.0509473 0.608588 -0.791849
    outer loop
      vertex 1.4454 7.74495 2.12132
      vertex 1.74659e-15 7.86595 2.12132
      vertex 1.87151e-15 8.42853 2.5537
    endloop
  endfacet
  facet normal 0.0509522 0.608595 -0.791843
    outer loop
      vertex 1.87151e-15 8.42853 2.5537
      vertex 1.55938 8.35572 2.59808
      vertex 1.4454 7.74495 2.12132
    endloop
  endfacet
  facet normal 0.0509526 0.608614 -0.791829
    outer loop
      vertex 1.55938 8.35572 2.59808
      vertex 1.87151e-15 8.42853 2.5537
      vertex 1.88433e-15 8.48627 2.59808
    endloop
  endfacet
  facet normal 0.0663153 0.79208 -0.606804
    outer loop
      vertex 1.35793 7.27628 1.5
      vertex 1.6409e-15 7.38997 1.5
      vertex 1.73687e-15 7.82219 2.06419
    endloop
  endfacet
  facet normal 0.0663118 0.792125 -0.606746
    outer loop
      vertex 1.4454 7.74495 2.12132
      vertex 1.73687e-15 7.82219 2.06419
      vertex 1.74659e-15 7.86595 2.12132
    endloop
  endfacet
  facet normal 0.0663118 0.792076 -0.606809
    outer loop
      vertex 1.73687e-15 7.82219 2.06419
      vertex 1.4454 7.74495 2.12132
      vertex 1.35793 7.27628 1.5
    endloop
  endfacet
  facet normal 0.0771327 0.921343 -0.381023
    outer loop
      vertex 1.30295 6.98167 0.776457
      vertex 1.57446e-15 7.09075 0.776457
      vertex 1.63491e-15 7.36298 1.43473
    endloop
  endfacet
  facet normal 0.0771386 0.921355 -0.380992
    outer loop
      vertex 1.35793 7.27628 1.5
      vertex 1.63491e-15 7.36298 1.43473
      vertex 1.6409e-15 7.38997 1.5
    endloop
  endfacet
  facet normal 0.077139 0.921346 -0.381013
    outer loop
      vertex 1.63491e-15 7.36298 1.43473
      vertex 1.35793 7.27628 1.5
      vertex 1.30295 6.98167 0.776457
    endloop
  endfacet
  facet normal 0.082719 0.988073 -0.129881
    outer loop
      vertex 1.2842 6.88118 0
      vertex 1.5518e-15 6.98869 0
      vertex 1.57247e-15 7.08177 0.70811
    endloop
  endfacet
  facet normal 0.0827199 0.988081 -0.129822
    outer loop
      vertex 1.30295 6.98167 0.776457
      vertex 1.57247e-15 7.08177 0.70811
      vertex 1.57446e-15 7.09075 0.776457
    endloop
  endfacet
  facet normal 0.0827221 0.988074 -0.129875
    outer loop
      vertex 1.57247e-15 7.08177 0.70811
      vertex 1.30295 6.98167 0.776457
      vertex 1.2842 6.88118 0
    endloop
  endfacet
  facet normal -0.279235 -0.951414 -0.129766
    outer loop
      vertex 4.86129 11.9466 0.776457
      vertex 2.36619 12.6789 0.776457
      vertex 2.38494 12.7793 0
    endloop
  endfacet
  facet normal -0.279233 -0.951414 -0.129772
    outer loop
      vertex 4.86129 11.9466 0.776457
      vertex 2.38494 12.7793 0
      vertex 4.89982 12.0412 0
    endloop
  endfacet
  facet normal -0.260334 -0.887119 -0.381111
    outer loop
      vertex 4.74833 11.669 1.5
      vertex 2.3112 12.3842 1.5
      vertex 2.36619 12.6789 0.776457
    endloop
  endfacet
  facet normal -0.260373 -0.887147 -0.381019
    outer loop
      vertex 4.74833 11.669 1.5
      vertex 2.36619 12.6789 0.776457
      vertex 4.86129 11.9466 0.776457
    endloop
  endfacet
  facet normal -0.22385 -0.762719 -0.606754
    outer loop
      vertex 4.56863 11.2274 2.12132
      vertex 2.22374 11.9156 2.12132
      vertex 2.3112 12.3842 1.5
    endloop
  endfacet
  facet normal -0.223818 -0.762686 -0.606808
    outer loop
      vertex 4.56863 11.2274 2.12132
      vertex 2.3112 12.3842 1.5
      vertex 4.74833 11.669 1.5
    endloop
  endfacet
  facet normal -0.171975 -0.58599 -0.791858
    outer loop
      vertex 4.33445 10.6519 2.59808
      vertex 2.10975 11.3048 2.59808
      vertex 2.22374 11.9156 2.12132
    endloop
  endfacet
  facet normal -0.171986 -0.586004 -0.791846
    outer loop
      vertex 4.33445 10.6519 2.59808
      vertex 2.22374 11.9156 2.12132
      vertex 4.56863 11.2274 2.12132
    endloop
  endfacet
  facet normal -0.108229 -0.368782 -0.923193
    outer loop
      vertex 4.06174 9.98168 2.89778
      vertex 1.97701 10.5935 2.89778
      vertex 2.10975 11.3048 2.59808
    endloop
  endfacet
  facet normal -0.10823 -0.368783 -0.923193
    outer loop
      vertex 4.06174 9.98168 2.89778
      vertex 2.10975 11.3048 2.59808
      vertex 4.33445 10.6519 2.59808
    endloop
  endfacet
  facet normal -0.0369441 -0.125877 -0.991358
    outer loop
      vertex 3.76909 9.26249 3
      vertex 1.83457 9.83026 3
      vertex 1.97701 10.5935 2.89778
    endloop
  endfacet
  facet normal -0.0369406 -0.125872 -0.991358
    outer loop
      vertex 3.76909 9.26249 3
      vertex 1.97701 10.5935 2.89778
      vertex 4.06174 9.98168 2.89778
    endloop
  endfacet
  facet normal 0.0369426 0.12587 -0.991359
    outer loop
      vertex 3.47643 8.54329 2.89778
      vertex 1.69212 9.06698 2.89778
      vertex 1.83457 9.83026 3
    endloop
  endfacet
  facet normal 0.0369419 0.125869 -0.991359
    outer loop
      vertex 3.47643 8.54329 2.89778
      vertex 1.83457 9.83026 3
      vertex 3.76909 9.26249 3
    endloop
  endfacet
  facet normal 0.108241 0.368797 -0.923186
    outer loop
      vertex 3.20372 7.87311 2.59808
      vertex 1.55938 8.35572 2.59808
      vertex 1.69212 9.06698 2.89778
    endloop
  endfacet
  facet normal 0.108241 0.368797 -0.923186
    outer loop
      vertex 3.20372 7.87311 2.59808
      vertex 1.69212 9.06698 2.89778
      vertex 3.47643 8.54329 2.89778
    endloop
  endfacet
  facet normal 0.171991 0.586007 -0.791843
    outer loop
      vertex 2.96954 7.29762 2.12132
      vertex 1.4454 7.74495 2.12132
      vertex 1.55938 8.35572 2.59808
    endloop
  endfacet
  facet normal 0.171992 0.586008 -0.791842
    outer loop
      vertex 2.96954 7.29762 2.12132
      vertex 1.55938 8.35572 2.59808
      vertex 3.20372 7.87311 2.59808
    endloop
  endfacet
  facet normal 0.223841 0.762677 -0.60681
    outer loop
      vertex 2.78985 6.85602 1.5
      vertex 1.35793 7.27628 1.5
      vertex 1.4454 7.74495 2.12132
    endloop
  endfacet
  facet normal 0.223844 0.762679 -0.606807
    outer loop
      vertex 2.78985 6.85602 1.5
      vertex 1.4454 7.74495 2.12132
      vertex 2.96954 7.29762 2.12132
    endloop
  endfacet
  facet normal 0.260377 0.887149 -0.381012
    outer loop
      vertex 2.67689 6.57842 0.776457
      vertex 1.30295 6.98167 0.776457
      vertex 1.35793 7.27628 1.5
    endloop
  endfacet
  facet normal 0.260372 0.887147 -0.381019
    outer loop
      vertex 2.67689 6.57842 0.776457
      vertex 1.35793 7.27628 1.5
      vertex 2.78985 6.85602 1.5
    endloop
  endfacet
  facet normal 0.279232 0.9514 -0.129874
    outer loop
      vertex 2.63836 6.48374 0
      vertex 1.2842 6.88118 0
      vertex 1.30295 6.98167 0.776457
    endloop
  endfacet
  facet normal 0.279235 0.9514 -0.129869
    outer loop
      vertex 2.63836 6.48374 0
      vertex 1.30295 6.98167 0.776457
      vertex 2.67689 6.57842 0.776457
    endloop
  endfacet
  facet normal -0.4644 -0.876065 -0.129781
    outer loop
      vertex 7.15879 10.7287 0.776457
      vertex 4.86129 11.9466 0.776457
      vertex 4.89982 12.0412 0
    endloop
  endfacet
  facet normal -0.464381 -0.876066 -0.129839
    outer loop
      vertex 7.15879 10.7287 0.776457
      vertex 4.89982 12.0412 0
      vertex 7.21553 10.8137 0
    endloop
  endfacet
  facet normal -0.433032 -0.816889 -0.381019
    outer loop
      vertex 6.99244 10.4794 1.5
      vertex 4.74833 11.669 1.5
      vertex 4.86129 11.9466 0.776457
    endloop
  endfacet
  facet normal -0.433031 -0.816889 -0.381021
    outer loop
      vertex 6.99244 10.4794 1.5
      vertex 4.86129 11.9466 0.776457
      vertex 7.15879 10.7287 0.776457
    endloop
  endfacet
  facet normal -0.372279 -0.702275 -0.60681
    outer loop
      vertex 6.72783 10.0828 2.12132
      vertex 4.56863 11.2274 2.12132
      vertex 4.74833 11.669 1.5
    endloop
  endfacet
  facet normal -0.372273 -0.702271 -0.606818
    outer loop
      vertex 6.72783 10.0828 2.12132
      vertex 4.74833 11.669 1.5
      vertex 6.99244 10.4794 1.5
    endloop
  endfacet
  facet normal -0.286045 -0.539591 -0.791846
    outer loop
      vertex 6.38297 9.56595 2.59808
      vertex 4.33445 10.6519 2.59808
      vertex 4.56863 11.2274 2.12132
    endloop
  endfacet
  facet normal -0.286035 -0.539582 -0.791855
    outer loop
      vertex 6.38297 9.56595 2.59808
      vertex 4.56863 11.2274 2.12132
      vertex 6.72783 10.0828 2.12132
    endloop
  endfacet
  facet normal -0.180008 -0.339576 -0.923193
    outer loop
      vertex 5.98137 8.96409 2.89778
      vertex 4.06174 9.98168 2.89778
      vertex 4.33445 10.6519 2.59808
    endloop
  endfacet
  facet normal -0.18002 -0.339586 -0.923187
    outer loop
      vertex 5.98137 8.96409 2.89778
      vertex 4.33445 10.6519 2.59808
      vertex 6.38297 9.56595 2.59808
    endloop
  endfacet
  facet normal -0.0614397 -0.115903 -0.991358
    outer loop
      vertex 5.55041 8.31822 3
      vertex 3.76909 9.26249 3
      vertex 4.06174 9.98168 2.89778
    endloop
  endfacet
  facet normal -0.06144 -0.115903 -0.991358
    outer loop
      vertex 5.55041 8.31822 3
      vertex 4.06174 9.98168 2.89778
      vertex 5.98137 8.96409 2.89778
    endloop
  endfacet
  facet normal 0.0614385 0.115901 -0.991359
    outer loop
      vertex 5.11944 7.67234 2.89778
      vertex 3.47643 8.54329 2.89778
      vertex 3.76909 9.26249 3
    endloop
  endfacet
  facet normal 0.0614388 0.115901 -0.991359
    outer loop
      vertex 5.11944 7.67234 2.89778
      vertex 3.76909 9.26249 3
      vertex 5.55041 8.31822 3
    endloop
  endfacet
  facet normal 0.180016 0.339591 -0.923186
    outer loop
      vertex 4.71784 7.07048 2.59808
      vertex 3.20372 7.87311 2.59808
      vertex 3.47643 8.54329 2.89778
    endloop
  endfacet
  facet normal 0.180014 0.339589 -0.923187
    outer loop
      vertex 4.71784 7.07048 2.59808
      vertex 3.47643 8.54329 2.89778
      vertex 5.11944 7.67234 2.89778
    endloop
  endfacet
  facet normal 0.286043 0.539598 -0.791842
    outer loop
      vertex 4.37298 6.55365 2.12132
      vertex 2.96954 7.29762 2.12132
      vertex 3.20372 7.87311 2.59808
    endloop
  endfacet
  facet normal 0.286037 0.539594 -0.791847
    outer loop
      vertex 4.37298 6.55365 2.12132
      vertex 3.20372 7.87311 2.59808
      vertex 4.71784 7.07048 2.59808
    endloop
  endfacet
  facet normal 0.372275 0.70228 -0.606806
    outer loop
      vertex 4.10837 6.15708 1.5
      vertex 2.78985 6.85602 1.5
      vertex 2.96954 7.29762 2.12132
    endloop
  endfacet
  facet normal 0.372284 0.702284 -0.606796
    outer loop
      vertex 4.10837 6.15708 1.5
      vertex 2.96954 7.29762 2.12132
      vertex 4.37298 6.55365 2.12132
    endloop
  endfacet
  facet normal 0.43303 0.81689 -0.381019
    outer loop
      vertex 3.94202 5.90778 0.776457
      vertex 2.67689 6.57842 0.776457
      vertex 2.78985 6.85602 1.5
    endloop
  endfacet
  facet normal 0.433029 0.81689 -0.381021
    outer loop
      vertex 3.94202 5.90778 0.776457
      vertex 2.78985 6.85602 1.5
      vertex 4.10837 6.15708 1.5
    endloop
  endfacet
  facet normal 0.464395 0.876054 -0.129869
    outer loop
      vertex 3.88528 5.82275 0
      vertex 2.63836 6.48374 0
      vertex 2.67689 6.57842 0.776457
    endloop
  endfacet
  facet normal 0.464393 0.876055 -0.129873
    outer loop
      vertex 3.88528 5.82275 0
      vertex 2.67689 6.57842 0.776457
      vertex 3.94202 5.90778 0.776457
    endloop
  endfacet
  facet normal -0.630692 -0.765094 -0.129844
    outer loop
      vertex 9.16531 9.07466 0.776457
      vertex 7.15879 10.7287 0.776457
      vertex 7.21553 10.8137 0
    endloop
  endfacet
  facet normal -0.630684 -0.765096 -0.12987
    outer loop
      vertex 9.16531 9.07466 0.776457
      vertex 7.21553 10.8137 0
      vertex 9.23795 9.14658 0
    endloop
  endfacet
  facet normal -0.588095 -0.713419 -0.381021
    outer loop
      vertex 8.95234 8.86379 1.5
      vertex 6.99244 10.4794 1.5
      vertex 7.15879 10.7287 0.776457
    endloop
  endfacet
  facet normal -0.588095 -0.713419 -0.381021
    outer loop
      vertex 8.95234 8.86379 1.5
      vertex 7.15879 10.7287 0.776457
      vertex 9.16531 9.07466 0.776457
    endloop
  endfacet
  facet normal -0.505577 -0.613325 -0.606814
    outer loop
      vertex 8.61355 8.52836 2.12132
      vertex 6.72783 10.0828 2.12132
      vertex 6.99244 10.4794 1.5
    endloop
  endfacet
  facet normal -0.505588 -0.61333 -0.606801
    outer loop
      vertex 8.61355 8.52836 2.12132
      vertex 6.99244 10.4794 1.5
      vertex 8.95234 8.86379 1.5
    endloop
  endfacet
  facet normal -0.388454 -0.471244 -0.791854
    outer loop
      vertex 8.17203 8.0912 2.59808
      vertex 6.38297 9.56595 2.59808
      vertex 6.72783 10.0828 2.12132
    endloop
  endfacet
  facet normal -0.388459 -0.471247 -0.79185
    outer loop
      vertex 8.17203 8.0912 2.59808
      vertex 6.72783 10.0828 2.12132
      vertex 8.61355 8.52836 2.12132
    endloop
  endfacet
  facet normal -0.244473 -0.296578 -0.923187
    outer loop
      vertex 7.65787 7.58213 2.89778
      vertex 5.98137 8.96409 2.89778
      vertex 6.38297 9.56595 2.59808
    endloop
  endfacet
  facet normal -0.244475 -0.296579 -0.923186
    outer loop
      vertex 7.65787 7.58213 2.89778
      vertex 6.38297 9.56595 2.59808
      vertex 8.17203 8.0912 2.59808
    endloop
  endfacet
  facet normal -0.0834403 -0.101224 -0.991358
    outer loop
      vertex 7.10611 7.03583 3
      vertex 5.55041 8.31822 3
      vertex 5.98137 8.96409 2.89778
    endloop
  endfacet
  facet normal -0.0834394 -0.101223 -0.991359
    outer loop
      vertex 7.10611 7.03583 3
      vertex 5.98137 8.96409 2.89778
      vertex 7.65787 7.58213 2.89778
    endloop
  endfacet
  facet normal 0.0834383 0.101222 -0.991359
    outer loop
      vertex 6.55435 6.48953 2.89778
      vertex 5.11944 7.67234 2.89778
      vertex 5.55041 8.31822 3
    endloop
  endfacet
  facet normal 0.0834397 0.101223 -0.991359
    outer loop
      vertex 6.55435 6.48953 2.89778
      vertex 5.55041 8.31822 3
      vertex 7.10611 7.03583 3
    endloop
  endfacet
  facet normal 0.244473 0.296578 -0.923187
    outer loop
      vertex 6.04019 5.98045 2.59808
      vertex 4.71784 7.07048 2.59808
      vertex 5.11944 7.67234 2.89778
    endloop
  endfacet
  facet normal 0.244472 0.296578 -0.923188
    outer loop
      vertex 6.04019 5.98045 2.59808
      vertex 5.11944 7.67234 2.89778
      vertex 6.55435 6.48953 2.89778
    endloop
  endfacet
  facet normal 0.388456 0.471253 -0.791847
    outer loop
      vertex 5.59868 5.5433 2.12132
      vertex 4.37298 6.55365 2.12132
      vertex 4.71784 7.07048 2.59808
    endloop
  endfacet
  facet normal 0.388462 0.471255 -0.791843
    outer loop
      vertex 5.59868 5.5433 2.12132
      vertex 4.71784 7.07048 2.59808
      vertex 6.04019 5.98045 2.59808
    endloop
  endfacet
  facet normal 0.505586 0.613337 -0.606795
    outer loop
      vertex 5.25989 5.20786 1.5
      vertex 4.10837 6.15708 1.5
      vertex 4.37298 6.55365 2.12132
    endloop
  endfacet
  facet normal 0.505575 0.613335 -0.606806
    outer loop
      vertex 5.25989 5.20786 1.5
      vertex 4.37298 6.55365 2.12132
      vertex 5.59868 5.5433 2.12132
    endloop
  endfacet
  facet normal 0.588085 0.713427 -0.381021
    outer loop
      vertex 5.04692 4.997 0.776457
      vertex 3.94202 5.90778 0.776457
      vertex 4.10837 6.15708 1.5
    endloop
  endfacet
  facet normal 0.588091 0.713427 -0.381013
    outer loop
      vertex 5.04692 4.997 0.776457
      vertex 4.10837 6.15708 1.5
      vertex 5.25989 5.20786 1.5
    endloop
  endfacet
  facet normal 0.630677 0.765101 -0.129873
    outer loop
      vertex 4.97428 4.92508 0
      vertex 3.88528 5.82275 0
      vertex 3.94202 5.90778 0.776457
    endloop
  endfacet
  facet normal 0.630679 0.7651 -0.12987
    outer loop
      vertex 4.97428 4.92508 0
      vertex 3.94202 5.90778 0.776457
      vertex 5.04692 4.997 0.776457
    endloop
  endfacet
  facet normal -0.771326 -0.623048 -0.12987
    outer loop
      vertex 10.7993 7.0518 0.776457
      vertex 9.16531 9.07466 0.776457
      vertex 9.23795 9.14658 0
    endloop
  endfacet
  facet normal -0.771323 -0.62305 -0.129882
    outer loop
      vertex 10.7993 7.0518 0.776457
      vertex 9.23795 9.14658 0
      vertex 10.8849 7.10769 0
    endloop
  endfacet
  facet normal -0.719244 -0.580958 -0.38102
    outer loop
      vertex 10.5483 6.88794 1.5
      vertex 8.95234 8.86379 1.5
      vertex 9.16531 9.07466 0.776457
    endloop
  endfacet
  facet normal -0.719218 -0.580957 -0.381069
    outer loop
      vertex 10.5483 6.88794 1.5
      vertex 9.16531 9.07466 0.776457
      vertex 10.7993 7.0518 0.776457
    endloop
  endfacet
  facet normal -0.618323 -0.499468 -0.606802
    outer loop
      vertex 10.1492 6.62728 2.12132
      vertex 8.61355 8.52836 2.12132
      vertex 8.95234 8.86379 1.5
    endloop
  endfacet
  facet normal -0.618369 -0.499477 -0.606748
    outer loop
      vertex 10.1492 6.62728 2.12132
      vertex 8.95234 8.86379 1.5
      vertex 10.5483 6.88794 1.5
    endloop
  endfacet
  facet normal -0.475087 -0.383754 -0.791849
    outer loop
      vertex 9.62892 6.28757 2.59808
      vertex 8.17203 8.0912 2.59808
      vertex 8.61355 8.52836 2.12132
    endloop
  endfacet
  facet normal -0.475065 -0.383747 -0.791865
    outer loop
      vertex 9.62892 6.28757 2.59808
      vertex 8.61355 8.52836 2.12132
      vertex 10.1492 6.62728 2.12132
    endloop
  endfacet
  facet normal -0.298994 -0.241515 -0.923186
    outer loop
      vertex 9.0231 5.89198 2.89778
      vertex 7.65787 7.58213 2.89778
      vertex 8.17203 8.0912 2.59808
    endloop
  endfacet
  facet normal -0.298996 -0.241515 -0.923186
    outer loop
      vertex 9.0231 5.89198 2.89778
      vertex 8.17203 8.0912 2.59808
      vertex 9.62892 6.28757 2.59808
    endloop
  endfacet
  facet normal -0.102048 -0.0824289 -0.991359
    outer loop
      vertex 8.37297 5.46745 3
      vertex 7.10611 7.03583 3
      vertex 7.65787 7.58213 2.89778
    endloop
  endfacet
  facet normal -0.102046 -0.0824285 -0.991359
    outer loop
      vertex 8.37297 5.46745 3
      vertex 7.65787 7.58213 2.89778
      vertex 9.0231 5.89198 2.89778
    endloop
  endfacet
  facet normal 0.102047 0.0824293 -0.991359
    outer loop
      vertex 7.72285 5.04293 2.89778
      vertex 6.55435 6.48953 2.89778
      vertex 7.10611 7.03583 3
    endloop
  endfacet
  facet normal 0.102048 0.0824296 -0.991358
    outer loop
      vertex 7.72285 5.04293 2.89778
      vertex 7.10611 7.03583 3
      vertex 8.37297 5.46745 3
    endloop
  endfacet
  facet normal 0.298992 0.241513 -0.923187
    outer loop
      vertex 7.11703 4.64733 2.59808
      vertex 6.04019 5.98045 2.59808
      vertex 6.55435 6.48953 2.89778
    endloop
  endfacet
  facet normal 0.298993 0.241514 -0.923187
    outer loop
      vertex 7.11703 4.64733 2.59808
      vertex 6.55435 6.48953 2.89778
      vertex 7.72285 5.04293 2.89778
    endloop
  endfacet
  facet normal 0.475095 0.383757 -0.791843
    outer loop
      vertex 6.59679 4.30763 2.12132
      vertex 5.59868 5.5433 2.12132
      vertex 6.04019 5.98045 2.59808
    endloop
  endfacet
  facet normal 0.475087 0.383756 -0.791848
    outer loop
      vertex 6.59679 4.30763 2.12132
      vertex 6.04019 5.98045 2.59808
      vertex 7.11703 4.64733 2.59808
    endloop
  endfacet
  facet normal 0.618328 0.499456 -0.606806
    outer loop
      vertex 6.19761 4.04696 1.5
      vertex 5.25989 5.20786 1.5
      vertex 5.59868 5.5433 2.12132
    endloop
  endfacet
  facet normal 0.618332 0.499456 -0.606803
    outer loop
      vertex 6.19761 4.04696 1.5
      vertex 5.59868 5.5433 2.12132
      vertex 6.59679 4.30763 2.12132
    endloop
  endfacet
  facet normal 0.719241 0.580966 -0.381013
    outer loop
      vertex 5.94667 3.8831 0.776457
      vertex 5.04692 4.997 0.776457
      vertex 5.25989 5.20786 1.5
    endloop
  endfacet
  facet normal 0.719238 0.580966 -0.381018
    outer loop
      vertex 5.94667 3.8831 0.776457
      vertex 5.25989 5.20786 1.5
      vertex 6.19761 4.04696 1.5
    endloop
  endfacet
  facet normal 0.771333 0.623041 -0.12987
    outer loop
      vertex 5.86108 3.82721 0
      vertex 4.97428 4.92508 0
      vertex 5.04692 4.997 0.776457
    endloop
  endfacet
  facet normal 0.771332 0.623041 -0.129872
    outer loop
      vertex 5.86108 3.82721 0
      vertex 5.04692 4.997 0.776457
      vertex 5.94667 3.8831 0.776457
    endloop
  endfacet
  facet normal -0.880627 -0.455661 -0.129883
    outer loop
      vertex 11.9943 4.7423 0.776457
      vertex 10.7993 7.0518 0.776457
      vertex 10.8849 7.10769 0
    endloop
  endfacet
  facet normal -0.880646 -0.455645 -0.129806
    outer loop
      vertex 11.9943 4.7423 0.776457
      vertex 10.8849 7.10769 0
      vertex 12.0893 4.77989 0
    endloop
  endfacet
  facet normal -0.821123 -0.424898 -0.381077
    outer loop
      vertex 11.7156 4.63211 1.5
      vertex 10.5483 6.88794 1.5
      vertex 10.7993 7.0518 0.776457
    endloop
  endfacet
  facet normal -0.821158 -0.42489 -0.381008
    outer loop
      vertex 11.7156 4.63211 1.5
      vertex 10.7993 7.0518 0.776457
      vertex 11.9943 4.7423 0.776457
    endloop
  endfacet
  facet normal -0.705999 -0.365284 -0.606739
    outer loop
      vertex 11.2722 4.45681 2.12132
      vertex 10.1492 6.62728 2.12132
      vertex 10.5483 6.88794 1.5
    endloop
  endfacet
  facet normal -0.705918 -0.365284 -0.606834
    outer loop
      vertex 11.2722 4.45681 2.12132
      vertex 10.5483 6.88794 1.5
      vertex 11.7156 4.63211 1.5
    endloop
  endfacet
  facet normal -0.542388 -0.280643 -0.791868
    outer loop
      vertex 10.6944 4.22836 2.59808
      vertex 9.62892 6.28757 2.59808
      vertex 10.1492 6.62728 2.12132
    endloop
  endfacet
  facet normal -0.542416 -0.280646 -0.791848
    outer loop
      vertex 10.6944 4.22836 2.59808
      vertex 10.1492 6.62728 2.12132
      vertex 11.2722 4.45681 2.12132
    endloop
  endfacet
  facet normal -0.34136 -0.176637 -0.923186
    outer loop
      vertex 10.0216 3.96233 2.89778
      vertex 9.0231 5.89198 2.89778
      vertex 9.62892 6.28757 2.59808
    endloop
  endfacet
  facet normal -0.341386 -0.17664 -0.923176
    outer loop
      vertex 10.0216 3.96233 2.89778
      vertex 9.62892 6.28757 2.59808
      vertex 10.6944 4.22836 2.59808
    endloop
  endfacet
  facet normal -0.116506 -0.0602842 -0.991359
    outer loop
      vertex 9.29949 3.67684 3
      vertex 8.37297 5.46745 3
      vertex 9.0231 5.89198 2.89778
    endloop
  endfacet
  facet normal -0.116501 -0.0602835 -0.991359
    outer loop
      vertex 9.29949 3.67684 3
      vertex 9.0231 5.89198 2.89778
      vertex 10.0216 3.96233 2.89778
    endloop
  endfacet
  facet normal 0.116508 0.0602851 -0.991358
    outer loop
      vertex 8.57743 3.39135 2.89778
      vertex 7.72285 5.04293 2.89778
      vertex 8.37297 5.46745 3
    endloop
  endfacet
  facet normal 0.116508 0.0602851 -0.991358
    outer loop
      vertex 8.57743 3.39135 2.89778
      vertex 8.37297 5.46745 3
      vertex 9.29949 3.67684 3
    endloop
  endfacet
  facet normal 0.341362 0.176631 -0.923187
    outer loop
      vertex 7.90457 3.12531 2.59808
      vertex 7.11703 4.64733 2.59808
      vertex 7.72285 5.04293 2.89778
    endloop
  endfacet
  facet normal 0.341361 0.176631 -0.923187
    outer loop
      vertex 7.90457 3.12531 2.59808
      vertex 7.72285 5.04293 2.89778
      vertex 8.57743 3.39135 2.89778
    endloop
  endfacet
  facet normal 0.542407 0.28066 -0.791849
    outer loop
      vertex 7.32677 2.89686 2.12132
      vertex 6.59679 4.30763 2.12132
      vertex 7.11703 4.64733 2.59808
    endloop
  endfacet
  facet normal 0.54241 0.28066 -0.791847
    outer loop
      vertex 7.32677 2.89686 2.12132
      vertex 7.11703 4.64733 2.59808
      vertex 7.90457 3.12531 2.59808
    endloop
  endfacet
  facet normal 0.705948 0.36528 -0.606801
    outer loop
      vertex 6.88341 2.72157 1.5
      vertex 6.19761 4.04696 1.5
      vertex 6.59679 4.30763 2.12132
    endloop
  endfacet
  facet normal 0.705947 0.365281 -0.606803
    outer loop
      vertex 6.88341 2.72157 1.5
      vertex 6.59679 4.30763 2.12132
      vertex 7.32677 2.89686 2.12132
    endloop
  endfacet
  facet normal 0.821154 0.424889 -0.381018
    outer loop
      vertex 6.6047 2.61137 0.776457
      vertex 5.94667 3.8831 0.776457
      vertex 6.19761 4.04696 1.5
    endloop
  endfacet
  facet normal 0.821152 0.424891 -0.381022
    outer loop
      vertex 6.6047 2.61137 0.776457
      vertex 6.19761 4.04696 1.5
      vertex 6.88341 2.72157 1.5
    endloop
  endfacet
  facet normal 0.880628 0.455662 -0.129872
    outer loop
      vertex 6.50964 2.57378 0
      vertex 5.86108 3.82721 0
      vertex 5.94667 3.8831 0.776457
    endloop
  endfacet
  facet normal 0.880628 0.455662 -0.129873
    outer loop
      vertex 6.50964 2.57378 0
      vertex 5.94667 3.8831 0.776457
      vertex 6.6047 2.61137 0.776457
    endloop
  endfacet
  facet normal -0.954134 -0.269777 -0.129799
    outer loop
      vertex 12.7018 2.24005 0.776457
      vertex 11.9943 4.7423 0.776457
      vertex 12.0893 4.77989 0
    endloop
  endfacet
  facet normal -0.954137 -0.269774 -0.129788
    outer loop
      vertex 12.7018 2.24005 0.776457
      vertex 12.0893 4.77989 0
      vertex 12.8024 2.2578 0
    endloop
  endfacet
  facet normal -0.889698 -0.251536 -0.381008
    outer loop
      vertex 12.4066 2.188 1.5
      vertex 11.7156 4.63211 1.5
      vertex 11.9943 4.7423 0.776457
    endloop
  endfacet
  facet normal -0.889666 -0.251549 -0.381073
    outer loop
      vertex 12.4066 2.188 1.5
      vertex 11.9943 4.7423 0.776457
      vertex 12.7018 2.24005 0.776457
    endloop
  endfacet
  facet normal -0.764842 -0.216252 -0.606837
    outer loop
      vertex 11.9371 2.10519 2.12132
      vertex 11.2722 4.45681 2.12132
      vertex 11.7156 4.63211 1.5
    endloop
  endfacet
  facet normal -0.764875 -0.216246 -0.606798
    outer loop
      vertex 11.9371 2.10519 2.12132
      vertex 11.7156 4.63211 1.5
      vertex 12.4066 2.188 1.5
    endloop
  endfacet
  facet normal -0.587682 -0.166157 -0.791847
    outer loop
      vertex 11.3252 1.99728 2.59808
      vertex 10.6944 4.22836 2.59808
      vertex 11.2722 4.45681 2.12132
    endloop
  endfacet
  facet normal -0.58767 -0.166158 -0.791856
    outer loop
      vertex 11.3252 1.99728 2.59808
      vertex 11.2722 4.45681 2.12132
      vertex 11.9371 2.10519 2.12132
    endloop
  endfacet
  facet normal -0.36988 -0.104575 -0.923175
    outer loop
      vertex 10.6127 1.87162 2.89778
      vertex 10.0216 3.96233 2.89778
      vertex 10.6944 4.22836 2.59808
    endloop
  endfacet
  facet normal -0.369874 -0.104576 -0.923178
    outer loop
      vertex 11.3252 1.99728 2.59808
      vertex 10.6127 1.87162 2.89778
      vertex 10.6944 4.22836 2.59808
    endloop
  endfacet
  facet normal -0.126225 -0.0356878 -0.991359
    outer loop
      vertex 9.84801 1.73677 3
      vertex 9.29949 3.67684 3
      vertex 10.0216 3.96233 2.89778
    endloop
  endfacet
  facet normal -0.126227 -0.0356877 -0.991359
    outer loop
      vertex 10.6127 1.87162 2.89778
      vertex 9.84801 1.73677 3
      vertex 10.0216 3.96233 2.89778
    endloop
  endfacet
  facet normal 0.126233 0.0356894 -0.991358
    outer loop
      vertex 9.08335 1.60192 2.89778
      vertex 8.57743 3.39135 2.89778
      vertex 9.29949 3.67684 3
    endloop
  endfacet
  facet normal 0.126231 0.0356896 -0.991359
    outer loop
      vertex 9.84801 1.73677 3
      vertex 9.08335 1.60192 2.89778
      vertex 9.29949 3.67684 3
    endloop
  endfacet
  facet normal 0.369853 0.104569 -0.923187
    outer loop
      vertex 8.37081 1.47625 2.59808
      vertex 7.90457 3.12531 2.59808
      vertex 8.57743 3.39135 2.89778
    endloop
  endfacet
  facet normal 0.369857 0.104568 -0.923186
    outer loop
      vertex 9.08335 1.60192 2.89778
      vertex 8.37081 1.47625 2.59808
      vertex 8.57743 3.39135 2.89778
    endloop
  endfacet
  facet normal 0.587682 0.166156 -0.791847
    outer loop
      vertex 7.75893 1.36834 2.12132
      vertex 7.32677 2.89686 2.12132
      vertex 7.90457 3.12531 2.59808
    endloop
  endfacet
  facet normal 0.587682 0.166156 -0.791847
    outer loop
      vertex 8.37081 1.47625 2.59808
      vertex 7.75893 1.36834 2.12132
      vertex 7.90457 3.12531 2.59808
    endloop
  endfacet
  facet normal 0.764869 0.216252 -0.606803
    outer loop
      vertex 7.28942 1.28554 1.5
      vertex 6.88341 2.72157 1.5
      vertex 7.32677 2.89686 2.12132
    endloop
  endfacet
  facet normal 0.764869 0.216252 -0.606804
    outer loop
      vertex 7.75893 1.36834 2.12132
      vertex 7.28942 1.28554 1.5
      vertex 7.32677 2.89686 2.12132
    endloop
  endfacet
  facet normal 0.88969 0.251543 -0.381022
    outer loop
      vertex 6.99427 1.23349 0.776457
      vertex 6.6047 2.61137 0.776457
      vertex 6.88341 2.72157 1.5
    endloop
  endfacet
  facet normal 0.889691 0.251543 -0.381021
    outer loop
      vertex 6.99427 1.23349 0.776457
      vertex 6.88341 2.72157 1.5
      vertex 7.28942 1.28554 1.5
    endloop
  endfacet
  facet normal 0.954129 0.269762 -0.129872
    outer loop
      vertex 6.8936 1.21574 0
      vertex 6.50964 2.57378 0
      vertex 6.6047 2.61137 0.776457
    endloop
  endfacet
  facet normal 0.954129 0.269762 -0.129872
    outer loop
      vertex 6.8936 1.21574 0
      vertex 6.6047 2.61137 0.776457
      vertex 6.99427 1.23349 0.776457
    endloop
  endfacet
  facet normal -0.988861 -0.0728708 -0.129785
    outer loop
      vertex 12.8851 -0.128077 0.709493
      vertex 12.7018 2.24005 0.776457
      vertex 12.8024 2.2578 0
    endloop
  endfacet
  facet normal -0.989035 -0.0728816 -0.128447
    outer loop
      vertex 12.7018 2.24005 0.776457
      vertex 12.877 -0.127997 0.771071
      vertex 12.8763 -0.12799 0.776457
    endloop
  endfacet
  facet normal -0.988836 -0.0728634 -0.129977
    outer loop
      vertex 12.7018 2.24005 0.776457
      vertex 12.8851 -0.128077 0.709493
      vertex 12.877 -0.127997 0.771071
    endloop
  endfacet
  facet normal -0.988837 -0.0729156 -0.129939
    outer loop
      vertex 12.8851 -0.128077 0.709493
      vertex 12.8024 2.2578 0
      vertex 12.9784 -0.129004 0
    endloop
  endfacet
  facet normal -0.92204 -0.0679887 -0.381076
    outer loop
      vertex 12.6026 -0.125269 1.43848
      vertex 12.4066 2.188 1.5
      vertex 12.7018 2.24005 0.776457
    endloop
  endfacet
  facet normal -0.92175 -0.0679452 -0.381785
    outer loop
      vertex 12.4066 2.188 1.5
      vertex 12.6026 -0.125269 1.43848
      vertex 12.5771 -0.125016 1.5
    endloop
  endfacet
  facet normal -0.922098 -0.0679491 -0.380944
    outer loop
      vertex 12.8763 -0.12799 0.776457
      vertex 12.6026 -0.125269 1.43848
      vertex 12.7018 2.24005 0.776457
    endloop
  endfacet
  facet normal -0.792705 -0.058448 -0.606797
    outer loop
      vertex 12.1411 -0.120681 2.06922
      vertex 11.9371 2.10519 2.12132
      vertex 12.4066 2.188 1.5
    endloop
  endfacet
  facet normal -0.792782 -0.0584574 -0.606696
    outer loop
      vertex 11.9371 2.10519 2.12132
      vertex 12.1411 -0.120681 2.06922
      vertex 12.1012 -0.120285 2.12132
    endloop
  endfacet
  facet normal -0.792735 -0.0584351 -0.606759
    outer loop
      vertex 12.5771 -0.125016 1.5
      vertex 12.1411 -0.120681 2.06922
      vertex 12.4066 2.188 1.5
    endloop
  endfacet
  facet normal -0.609457 -0.044943 -0.791544
    outer loop
      vertex 11.3252 1.99728 2.59808
      vertex 11.5322 -0.114629 2.55861
      vertex 11.4809 -0.114119 2.59808
    endloop
  endfacet
  facet normal -0.609055 -0.0448976 -0.791856
    outer loop
      vertex 11.5322 -0.114629 2.55861
      vertex 11.3252 1.99728 2.59808
      vertex 11.9371 2.10519 2.12132
    endloop
  endfacet
  facet normal -0.60897 -0.0449036 -0.791922
    outer loop
      vertex 11.8875 -0.118161 2.28553
      vertex 11.9371 2.10519 2.12132
      vertex 12.1012 -0.120285 2.12132
    endloop
  endfacet
  facet normal -0.609058 -0.0448967 -0.791854
    outer loop
      vertex 11.9371 2.10519 2.12132
      vertex 11.8875 -0.118161 2.28553
      vertex 11.5322 -0.114629 2.55861
    endloop
  endfacet
  facet normal -0.383437 -0.0282555 -0.923135
    outer loop
      vertex 10.6127 1.87162 2.89778
      vertex 10.8176 -0.107527 2.87325
      vertex 10.7585 -0.106939 2.89778
    endloop
  endfacet
  facet normal -0.383336 -0.0282445 -0.923177
    outer loop
      vertex 10.8176 -0.107527 2.87325
      vertex 10.6127 1.87162 2.89778
      vertex 11.3252 1.99728 2.59808
    endloop
  endfacet
  facet normal -0.383272 -0.0282634 -0.923203
    outer loop
      vertex 11.4809 -0.114119 2.59808
      vertex 10.8176 -0.107527 2.87325
      vertex 11.3252 1.99728 2.59808
    endloop
  endfacet
  facet normal -0.130877 -0.00964827 -0.991352
    outer loop
      vertex 9.84801 1.73677 3
      vertex 10.0462 -0.0998589 2.99171
      vertex 9.98336 -0.0992339 3
    endloop
  endfacet
  facet normal -0.13082 -0.00964201 -0.991359
    outer loop
      vertex 10.0462 -0.0998589 2.99171
      vertex 9.84801 1.73677 3
      vertex 10.6127 1.87162 2.89778
    endloop
  endfacet
  facet normal -0.130825 -0.00964049 -0.991359
    outer loop
      vertex 10.7585 -0.106939 2.89778
      vertex 10.0462 -0.0998589 2.99171
      vertex 10.6127 1.87162 2.89778
    endloop
  endfacet
  facet normal 0.130735 0.00963773 -0.99137
    outer loop
      vertex 9.08335 1.60192 2.89778
      vertex 9.27072 -0.0921504 2.90602
      vertex 9.20819 -0.0915288 2.89778
    endloop
  endfacet
  facet normal 0.130824 0.00964757 -0.991359
    outer loop
      vertex 9.27072 -0.0921504 2.90602
      vertex 9.08335 1.60192 2.89778
      vertex 9.84801 1.73677 3
    endloop
  endfacet
  facet normal 0.130832 0.00964492 -0.991358
    outer loop
      vertex 9.98336 -0.0992339 3
      vertex 9.27072 -0.0921504 2.90602
      vertex 9.84801 1.73677 3
    endloop
  endfacet
  facet normal 0.383237 0.0282504 -0.923218
    outer loop
      vertex 8.37081 1.47625 2.59808
      vertex 8.54407 -0.0849276 2.62223
      vertex 8.48585 -0.0843488 2.59808
    endloop
  endfacet
  facet normal 0.383315 0.0282596 -0.923185
    outer loop
      vertex 8.54407 -0.0849276 2.62223
      vertex 8.37081 1.47625 2.59808
      vertex 9.08335 1.60192 2.89778
    endloop
  endfacet
  facet normal 0.383319 0.028258 -0.923184
    outer loop
      vertex 9.20819 -0.0915288 2.89778
      vertex 8.54407 -0.0849276 2.62223
      vertex 9.08335 1.60192 2.89778
    endloop
  endfacet
  facet normal 0.609064 0.0449012 -0.791849
    outer loop
      vertex 7.75893 1.36834 2.12132
      vertex 7.91583 -0.0786829 2.15995
      vertex 7.86557 -0.0781832 2.12132
    endloop
  endfacet
  facet normal 0.609067 0.0449015 -0.791847
    outer loop
      vertex 7.91583 -0.0786829 2.15995
      vertex 7.75893 1.36834 2.12132
      vertex 8.37081 1.47625 2.59808
    endloop
  endfacet
  facet normal 0.609074 0.044898 -0.791842
    outer loop
      vertex 8.48585 -0.0843488 2.59808
      vertex 7.91583 -0.0786829 2.15995
      vertex 8.37081 1.47625 2.59808
    endloop
  endfacet
  facet normal 0.7927 0.0584376 -0.606804
    outer loop
      vertex 7.42865 -0.0738403 1.55097
      vertex 7.28942 1.28554 1.5
      vertex 7.75893 1.36834 2.12132
    endloop
  endfacet
  facet normal 0.792668 0.0584326 -0.606847
    outer loop
      vertex 7.28942 1.28554 1.5
      vertex 7.42865 -0.0738403 1.55097
      vertex 7.3896 -0.0734522 1.5
    endloop
  endfacet
  facet normal 0.792698 0.058439 -0.606806
    outer loop
      vertex 7.86557 -0.0781832 2.12132
      vertex 7.42865 -0.0738403 1.55097
      vertex 7.75893 1.36834 2.12132
    endloop
  endfacet
  facet normal 0.922064 0.0679778 -0.381021
    outer loop
      vertex 7.11543 -0.0707269 0.836977
      vertex 6.99427 1.23349 0.776457
      vertex 7.28942 1.28554 1.5
    endloop
  endfacet
  facet normal 0.922047 0.0679743 -0.381063
    outer loop
      vertex 6.99427 1.23349 0.776457
      vertex 7.11543 -0.0707269 0.836977
      vertex 7.0904 -0.0704781 0.776457
    endloop
  endfacet
  facet normal 0.922069 0.0679716 -0.38101
    outer loop
      vertex 7.3896 -0.0734522 1.5
      vertex 7.11543 -0.0707269 0.836977
      vertex 7.28942 1.28554 1.5
    endloop
  endfacet
  facet normal 0.988847 0.0728951 -0.129873
    outer loop
      vertex 6.99709 -0.0695507 0.0665608
      vertex 6.8936 1.21574 0
      vertex 6.99427 1.23349 0.776457
    endloop
  endfacet
  facet normal 0.988863 0.0729027 -0.129751
    outer loop
      vertex 6.8936 1.21574 0
      vertex 6.99709 -0.0695507 0.0665608
      vertex 6.98835 -0.0694637 0
    endloop
  endfacet
  facet normal 0.988846 0.0728989 -0.12988
    outer loop
      vertex 6.99709 -0.0695507 0.0665608
      vertex 6.99427 1.23349 0.776457
      vertex 7.0904 -0.0704781 0.776457
    endloop
  endfacet
  facet normal 0 0 -1
    outer loop
      vertex 6.56478 -0.0652536 0
      vertex 6.8936 1.21574 0
      vertex 6.98835 -0.0694637 0
    endloop
  endfacet
  facet normal 0 0 -1
    outer loop
      vertex 5.89466 1.11932 0
      vertex 6.8936 1.21574 0
      vertex 6.56478 -0.0652536 0
    endloop
  endfacet
  facet normal 0 0 -1
    outer loop
      vertex 5.89466 1.11932 0
      vertex 6.56478 -0.0652536 0
      vertex 6.13598 -0.0609913 0
    endloop
  endfacet
  facet normal 0 0 -1
    outer loop
      vertex 5.89466 1.11932 0
      vertex 6.13598 -0.0609913 0
      vertex 5.99969 -0.0596361 0
    endloop
  endfacet
  facet normal -0 0 -1
    outer loop
      vertex 6.8936 1.21574 0
      vertex 5.89466 1.11932 0
      vertex 6.50964 2.57378 0
    endloop
  endfacet
  facet normal 0 0 -1
    outer loop
      vertex 5.56023 2.25471 0
      vertex 6.50964 2.57378 0
      vertex 5.89466 1.11932 0
    endloop
  endfacet
  facet normal -0 0 -1
    outer loop
      vertex 6.50964 2.57378 0
      vertex 5.56023 2.25471 0
      vertex 5.86108 3.82721 0
    endloop
  endfacet
  facet normal 0 0 -1
    outer loop
      vertex 5.00942 3.30236 0
      vertex 5.86108 3.82721 0
      vertex 5.56023 2.25471 0
    endloop
  endfacet
  facet normal 0 0 -1
    outer loop
      vertex 5.00942 3.30236 0
      vertex 4.97428 4.92508 0
      vertex 5.86108 3.82721 0
    endloop
  endfacet
  facet normal 0 0 -1
    outer loop
      vertex 4.26366 4.22149 0
      vertex 4.97428 4.92508 0
      vertex 5.00942 3.30236 0
    endloop
  endfacet
  facet normal 0 0 -1
    outer loop
      vertex 3.35198 4.97635 0
      vertex 4.97428 4.92508 0
      vertex 4.26366 4.22149 0
    endloop
  endfacet
  facet normal 0 0 -1
    outer loop
      vertex 4.97428 4.92508 0
      vertex 3.35198 4.97635 0
      vertex 3.88528 5.82275 0
    endloop
  endfacet
  facet normal 0 0 -1
    outer loop
      vertex 2.30986 5.53754 0
      vertex 3.88528 5.82275 0
      vertex 3.35198 4.97635 0
    endloop
  endfacet
  facet normal -0 0 -1
    outer loop
      vertex 3.88528 5.82275 0
      vertex 2.30986 5.53754 0
      vertex 2.63836 6.48374 0
    endloop
  endfacet
  facet normal 0 0 -1
    outer loop
      vertex 1.17785 5.88324 0
      vertex 2.63836 6.48374 0
      vertex 2.30986 5.53754 0
    endloop
  endfacet
  facet normal -0 0 -1
    outer loop
      vertex 2.63836 6.48374 0
      vertex 1.17785 5.88324 0
      vertex 1.2842 6.88118 0
    endloop
  endfacet
  facet normal 0 0 -1
    outer loop
      vertex 1.33226e-15 5.99999 0
      vertex 1.2842 6.88118 0
      vertex 1.17785 5.88324 0
    endloop
  endfacet
  facet normal -0 0 -1
    outer loop
      vertex 1.2842 6.88118 0
      vertex 1.33226e-15 5.99999 0
      vertex 1.5518e-15 6.98869 0
    endloop
  endfacet
  facet normal 0 0 -1
    outer loop
      vertex 13.7267 -0.136443 0
      vertex 13.7542 2.61174 0
      vertex 13.9993 -0.139153 0
    endloop
  endfacet
  facet normal 0 0 -1
    outer loop
      vertex 12.8024 2.2578 0
      vertex 13.7267 -0.136443 0
      vertex 13.4342 -0.133535 0
    endloop
  endfacet
  facet normal 0 0 -1
    outer loop
      vertex 12.8024 2.2578 0
      vertex 13.4342 -0.133535 0
      vertex 12.9784 -0.129004 0
    endloop
  endfacet
  facet normal 0 0 -1
    outer loop
      vertex 13.7267 -0.136443 0
      vertex 12.8024 2.2578 0
      vertex 13.7542 2.61174 0
    endloop
  endfacet
  facet normal 0 0 -1
    outer loop
      vertex 12.0893 4.77989 0
      vertex 13.7542 2.61174 0
      vertex 12.8024 2.2578 0
    endloop
  endfacet
  facet normal 0 0 -1
    outer loop
      vertex 13.7542 2.61174 0
      vertex 12.0893 4.77989 0
      vertex 12.9739 5.26099 0
    endloop
  endfacet
  facet normal 0 0 -1
    outer loop
      vertex 10.8849 7.10769 0
      vertex 12.9739 5.26099 0
      vertex 12.0893 4.77989 0
    endloop
  endfacet
  facet normal 0 0 -1
    outer loop
      vertex 12.9739 5.26099 0
      vertex 10.8849 7.10769 0
      vertex 11.6887 7.70551 0
    endloop
  endfacet
  facet normal 0 0 -1
    outer loop
      vertex 9.23795 9.14658 0
      vertex 11.6887 7.70551 0
      vertex 10.8849 7.10769 0
    endloop
  endfacet
  facet normal 0 0 -1
    outer loop
      vertex 11.6887 7.70551 0
      vertex 9.23795 9.14658 0
      vertex 9.94856 9.85016 0
    endloop
  endfacet
  facet normal 0 0 -1
    outer loop
      vertex 9.23795 9.14658 0
      vertex 7.82131 11.6115 0
      vertex 9.94856 9.85016 0
    endloop
  endfacet
  facet normal 0 0 -1
    outer loop
      vertex 7.21553 10.8137 0
      vertex 7.82131 11.6115 0
      vertex 9.23795 9.14658 0
    endloop
  endfacet
  facet normal 0 0 -1
    outer loop
      vertex 7.21553 10.8137 0
      vertex 5.38969 12.9209 0
      vertex 7.82131 11.6115 0
    endloop
  endfacet
  facet normal 0 0 -1
    outer loop
      vertex 4.89982 12.0412 0
      vertex 5.38969 12.9209 0
      vertex 7.21553 10.8137 0
    endloop
  endfacet
  facet normal 0 0 -1
    outer loop
      vertex 4.89982 12.0412 0
      vertex 2.74832 13.7276 0
      vertex 5.38969 12.9209 0
    endloop
  endfacet
  facet normal 0 0 -1
    outer loop
      vertex 2.38494 12.7793 0
      vertex 2.74832 13.7276 0
      vertex 4.89982 12.0412 0
    endloop
  endfacet
  facet normal 0 0 -1
    outer loop
      vertex 2.38494 12.7793 0
      vertex 3.10862e-15 14 0
      vertex 2.74832 13.7276 0
    endloop
  endfacet
  facet normal 0 -0 -1
    outer loop
      vertex 3.10862e-15 14 0
      vertex 2.38494 12.7793 0
      vertex 2.88192e-15 12.979 0
    endloop
  endfacet
endsolid OpenSCAD_Model
