solid OpenSCAD_Model
  facet normal -0.338438 0.122821 0.932939
    outer loop
      vertex 1 0.776457 3.26054
      vertex 10.0264 0 6.63723
      vertex 10.0264 0.776457 6.53501
    endloop
  endfacet
  facet normal -0.338437 0.122833 0.932938
    outer loop
      vertex 10.0264 0 6.63723
      vertex 1 0.776457 3.26054
      vertex 1 0 3.36277
    endloop
  endfacet
  facet normal -0.0472961 -0.990336 0.130376
    outer loop
      vertex 1 -2.89778 1.13922
      vertex 10.0264 -3 3.63723
      vertex 10.0264 -2.89778 4.41369
    endloop
  endfacet
  facet normal -0.0472964 -0.990336 0.130377
    outer loop
      vertex 10.0264 -3 3.63723
      vertex 1 -2.89778 1.13922
      vertex 1 -3 0.362766
    endloop
  endfacet
  facet normal -0.215643 0.774685 0.594442
    outer loop
      vertex 10.0264 2.59808 5.13723
      vertex 1 2.12132 2.48409
      vertex 10.0264 2.12132 5.75855
    endloop
  endfacet
  facet normal -0.215641 0.77469 0.594436
    outer loop
      vertex 1 2.12132 2.48409
      vertex 10.0264 2.59808 5.13723
      vertex 1 2.59808 1.86276
    endloop
  endfacet
  facet normal -0.276573 0.585019 0.762404
    outer loop
      vertex 1 2.12132 2.48409
      vertex 10.0264 1.5 6.23531
      vertex 10.0264 2.12132 5.75855
    endloop
  endfacet
  facet normal -0.276576 0.585011 0.76241
    outer loop
      vertex 10.0264 1.5 6.23531
      vertex 1 2.12132 2.48409
      vertex 1 1.5 2.96084
    endloop
  endfacet
  facet normal -0.137506 0.915104 0.379048
    outer loop
      vertex 10.0264 2.89778 4.41369
      vertex 1 2.59808 1.86276
      vertex 10.0264 2.59808 5.13723
    endloop
  endfacet
  facet normal -0.137506 0.915104 0.379048
    outer loop
      vertex 1 2.59808 1.86276
      vertex 10.0264 2.89778 4.41369
      vertex 1 2.89778 1.13922
    endloop
  endfacet
  facet normal -0.215643 -0.774685 0.594442
    outer loop
      vertex 1 -2.12132 2.48409
      vertex 10.0264 -2.59808 5.13723
      vertex 10.0264 -2.12132 5.75855
    endloop
  endfacet
  facet normal -0.215643 -0.774685 0.594442
    outer loop
      vertex 10.0264 -2.59808 5.13723
      vertex 1 -2.12132 2.48409
      vertex 1 -2.59808 1.86277
    endloop
  endfacet
  facet normal -1 5.83065e-22 -2.22043e-16
    outer loop
      vertex -1.14939e-16 1.93185 0.517637
      vertex -2.29877e-16 3.8637 1.03528
      vertex 0 4 0
    endloop
  endfacet
  facet normal -1 1.13736e-21 -2.22045e-16
    outer loop
      vertex -2.29877e-16 3.8637 1.03528
      vertex -1.14939e-16 1.93185 0.517637
      vertex -4.44089e-16 3.4641 2
    endloop
  endfacet
  facet normal -1 0 -2.22046e-16
    outer loop
      vertex -1.14939e-16 1.93185 0.517637
      vertex 0 4 0
      vertex 0 2 0
    endloop
  endfacet
  facet normal -1 -9.30366e-22 -2.22043e-16
    outer loop
      vertex -2.22044e-16 1.73205 0.999999
      vertex -4.44089e-16 3.4641 2
      vertex -1.14939e-16 1.93185 0.517637
    endloop
  endfacet
  facet normal -1 -2.68239e-22 -2.22044e-16
    outer loop
      vertex -4.44089e-16 3.4641 2
      vertex -2.22044e-16 1.73205 0.999999
      vertex -6.28037e-16 2.82843 2.82843
    endloop
  endfacet
  facet normal -1 1.30039e-21 -2.22045e-16
    outer loop
      vertex -3.14018e-16 1.41421 1.41421
      vertex -6.28037e-16 2.82843 2.82843
      vertex -2.22044e-16 1.73205 0.999999
    endloop
  endfacet
  facet normal -1 9.01607e-22 -2.22045e-16
    outer loop
      vertex -6.28037e-16 2.82843 2.82843
      vertex -3.14018e-16 1.41421 1.41421
      vertex -7.69185e-16 2 3.4641
    endloop
  endfacet
  facet normal -1 -1.29668e-21 -2.22044e-16
    outer loop
      vertex -3.84592e-16 0.999999 1.73205
      vertex -7.69185e-16 2 3.4641
      vertex -3.14018e-16 1.41421 1.41421
    endloop
  endfacet
  facet normal -1 -1.44093e-22 -2.22045e-16
    outer loop
      vertex -7.69185e-16 2 3.4641
      vertex -3.84592e-16 0.999999 1.73205
      vertex -8.57914e-16 1.03528 3.8637
    endloop
  endfacet
  facet normal -1 8.85416e-22 -2.22045e-16
    outer loop
      vertex -4.28957e-16 0.517637 1.93185
      vertex -8.57914e-16 1.03528 3.8637
      vertex -3.84592e-16 0.999999 1.73205
    endloop
  endfacet
  facet normal -1 -6.4268e-22 -2.22044e-16
    outer loop
      vertex -4.44089e-16 0 2
      vertex -8.57914e-16 1.03528 3.8637
      vertex -4.28957e-16 0.517637 1.93185
    endloop
  endfacet
  facet normal -1 -6.42676e-22 -2.22045e-16
    outer loop
      vertex -4.44089e-16 0 2
      vertex -8.88178e-16 0 4
      vertex -8.57914e-16 1.03528 3.8637
    endloop
  endfacet
  facet normal -1 6.4268e-22 -2.22044e-16
    outer loop
      vertex -4.28957e-16 -0.517637 1.93185
      vertex -8.88178e-16 0 4
      vertex -4.44089e-16 0 2
    endloop
  endfacet
  facet normal -1 -8.85416e-22 -2.22045e-16
    outer loop
      vertex -8.57914e-16 -1.03528 3.8637
      vertex -4.28957e-16 -0.517637 1.93185
      vertex -3.84592e-16 -0.999999 1.73205
    endloop
  endfacet
  facet normal -1 6.42676e-22 -2.22044e-16
    outer loop
      vertex -4.28957e-16 -0.517637 1.93185
      vertex -8.57914e-16 -1.03528 3.8637
      vertex -8.88178e-16 0 4
    endloop
  endfacet
  facet normal -1 1.29668e-21 -2.22044e-16
    outer loop
      vertex -7.69185e-16 -2 3.4641
      vertex -3.84592e-16 -0.999999 1.73205
      vertex -3.14018e-16 -1.41421 1.41421
    endloop
  endfacet
  facet normal -1 -2.37685e-22 -2.22044e-16
    outer loop
      vertex -6.28037e-16 -2.82843 2.82843
      vertex -3.14018e-16 -1.41421 1.41421
      vertex -2.22045e-16 -1.73205 1
    endloop
  endfacet
  facet normal -1 -1.83553e-22 -2.22044e-16
    outer loop
      vertex -4.44089e-16 -3.4641 2
      vertex -2.22045e-16 -1.73205 1
      vertex -1.14939e-16 -1.93185 0.517637
    endloop
  endfacet
  facet normal -1 1.44093e-22 -2.22045e-16
    outer loop
      vertex -3.84592e-16 -0.999999 1.73205
      vertex -7.69185e-16 -2 3.4641
      vertex -8.57914e-16 -1.03528 3.8637
    endloop
  endfacet
  facet normal -1 -1.16614e-21 -2.22045e-16
    outer loop
      vertex -2.29877e-16 -3.8637 1.03528
      vertex -1.14939e-16 -1.93185 0.517637
      vertex 0 -2 0
    endloop
  endfacet
  facet normal -1 -9.01607e-22 -2.22045e-16
    outer loop
      vertex -3.14018e-16 -1.41421 1.41421
      vertex -6.28037e-16 -2.82843 2.82843
      vertex -7.69185e-16 -2 3.4641
    endloop
  endfacet
  facet normal -1 -4.30223e-23 -2.22044e-16
    outer loop
      vertex -2.22045e-16 -1.73205 1
      vertex -4.44089e-16 -3.4641 2
      vertex -6.28037e-16 -2.82843 2.82843
    endloop
  endfacet
  facet normal -1 -1.13736e-21 -2.22045e-16
    outer loop
      vertex -1.14939e-16 -1.93185 0.517637
      vertex -2.29877e-16 -3.8637 1.03528
      vertex -4.44089e-16 -3.4641 2
    endloop
  endfacet
  facet normal -1 0 -2.22043e-16
    outer loop
      vertex -2.29877e-16 -3.8637 1.03528
      vertex 0 -2 0
      vertex 0 -4 0
    endloop
  endfacet
  facet normal -0.317779 0.362846 0.87599
    outer loop
      vertex 1 1.5 2.96084
      vertex 10.0264 0.776457 6.53501
      vertex 10.0264 1.5 6.23531
    endloop
  endfacet
  facet normal -0.317779 0.362846 0.87599
    outer loop
      vertex 10.0264 0.776457 6.53501
      vertex 1 1.5 2.96084
      vertex 1 0.776457 3.26054
    endloop
  endfacet
  facet normal -0.0472961 0.990336 0.130376
    outer loop
      vertex 10.0264 3 3.63723
      vertex 1 2.89778 1.13922
      vertex 10.0264 2.89778 4.41369
    endloop
  endfacet
  facet normal -0.0472964 0.990336 0.130377
    outer loop
      vertex 1 2.89778 1.13922
      vertex 10.0264 3 3.63723
      vertex 1 3 0.362766
    endloop
  endfacet
  facet normal -0.137505 -0.915104 0.379048
    outer loop
      vertex 1 -2.59808 1.86277
      vertex 10.0264 -2.89778 4.41369
      vertex 10.0264 -2.59808 5.13723
    endloop
  endfacet
  facet normal -0.137504 -0.915106 0.379044
    outer loop
      vertex 10.0264 -2.89778 4.41369
      vertex 1 -2.59808 1.86277
      vertex 1 -2.89778 1.13922
    endloop
  endfacet
  facet normal -0.276574 -0.585019 0.762404
    outer loop
      vertex 1 -1.5 2.96084
      vertex 10.0264 -2.12132 5.75855
      vertex 10.0264 -1.5 6.23531
    endloop
  endfacet
  facet normal -0.276575 -0.585011 0.76241
    outer loop
      vertex 10.0264 -2.12132 5.75855
      vertex 1 -1.5 2.96084
      vertex 1 -2.12132 2.48409
    endloop
  endfacet
  facet normal -0.338437 -0.122821 0.932939
    outer loop
      vertex 1 0 3.36277
      vertex 10.0264 -0.776457 6.53501
      vertex 10.0264 0 6.63723
    endloop
  endfacet
  facet normal -0.338438 -0.122833 0.932937
    outer loop
      vertex 10.0264 -0.776457 6.53501
      vertex 1 0 3.36277
      vertex 1 -0.776457 3.26054
    endloop
  endfacet
  facet normal -0.317779 -0.362846 0.87599
    outer loop
      vertex 1 -0.776457 3.26054
      vertex 10.0264 -1.5 6.23531
      vertex 10.0264 -0.776457 6.53501
    endloop
  endfacet
  facet normal -0.317779 -0.362846 0.87599
    outer loop
      vertex 10.0264 -1.5 6.23531
      vertex 1 -0.776457 3.26054
      vertex 1 -1.5 2.96084
    endloop
  endfacet
  facet normal 0.338438 -0.122827 -0.932938
    outer loop
      vertex 11.0264 0 6
      vertex -4.28957e-16 0.517637 1.93185
      vertex 11.0264 0.517637 5.93185
    endloop
  endfacet
  facet normal 0.338438 -0.122827 -0.932938
    outer loop
      vertex -4.28957e-16 0.517637 1.93185
      vertex 11.0264 0 6
      vertex -4.44089e-16 0 2
    endloop
  endfacet
  facet normal 0.0472984 0.990335 -0.130383
    outer loop
      vertex 11.0264 -2 4
      vertex -1.14939e-16 -1.93185 0.517637
      vertex 11.0264 -1.93185 4.51764
    endloop
  endfacet
  facet normal 0.0472987 0.990335 -0.130383
    outer loop
      vertex -1.14939e-16 -1.93185 0.517637
      vertex 11.0264 -2 4
      vertex 0 -2 0
    endloop
  endfacet
  facet normal 0.276574 0.585021 -0.762403
    outer loop
      vertex -3.14018e-16 -1.41421 1.41421
      vertex 11.0264 -0.999999 5.73205
      vertex 11.0264 -1.41421 5.41421
    endloop
  endfacet
  facet normal 0.276574 0.585021 -0.762403
    outer loop
      vertex 11.0264 -0.999999 5.73205
      vertex -3.14018e-16 -1.41421 1.41421
      vertex -3.84592e-16 -0.999999 1.73205
    endloop
  endfacet
  facet normal 0.215644 -0.774682 -0.594445
    outer loop
      vertex -3.14018e-16 1.41421 1.41421
      vertex 11.0264 1.73205 5
      vertex 11.0264 1.41421 5.41421
    endloop
  endfacet
  facet normal 0.215644 -0.774683 -0.594444
    outer loop
      vertex 11.0264 1.73205 5
      vertex -3.14018e-16 1.41421 1.41421
      vertex -2.22044e-16 1.73205 0.999999
    endloop
  endfacet
  facet normal 0.0472984 -0.990335 -0.130383
    outer loop
      vertex -1.14939e-16 1.93185 0.517637
      vertex 11.0264 2 4
      vertex 11.0264 1.93185 4.51764
    endloop
  endfacet
  facet normal 0.0472987 -0.990335 -0.130383
    outer loop
      vertex 11.0264 2 4
      vertex -1.14939e-16 1.93185 0.517637
      vertex 0 2 0
    endloop
  endfacet
  facet normal 0.338438 0.122827 -0.932938
    outer loop
      vertex -4.28957e-16 -0.517637 1.93185
      vertex 11.0264 0 6
      vertex 11.0264 -0.517637 5.93185
    endloop
  endfacet
  facet normal 0.338438 0.122827 -0.932938
    outer loop
      vertex 11.0264 0 6
      vertex -4.28957e-16 -0.517637 1.93185
      vertex -4.44089e-16 0 2
    endloop
  endfacet
  facet normal 0.276574 -0.585021 -0.762403
    outer loop
      vertex 11.0264 0.999999 5.73205
      vertex -3.14018e-16 1.41421 1.41421
      vertex 11.0264 1.41421 5.41421
    endloop
  endfacet
  facet normal 0.276574 -0.585021 -0.762403
    outer loop
      vertex -3.14018e-16 1.41421 1.41421
      vertex 11.0264 0.999999 5.73205
      vertex -3.84592e-16 0.999999 1.73205
    endloop
  endfacet
  facet normal 0.317779 -0.362846 -0.875991
    outer loop
      vertex 11.0264 0.517637 5.93185
      vertex -3.84592e-16 0.999999 1.73205
      vertex 11.0264 0.999999 5.73205
    endloop
  endfacet
  facet normal 0.317779 -0.362846 -0.875991
    outer loop
      vertex -3.84592e-16 0.999999 1.73205
      vertex 11.0264 0.517637 5.93185
      vertex -4.28957e-16 0.517637 1.93185
    endloop
  endfacet
  facet normal 0.137506 -0.915104 -0.379048
    outer loop
      vertex -2.22044e-16 1.73205 0.999999
      vertex 11.0264 1.93185 4.51764
      vertex 11.0264 1.73205 5
    endloop
  endfacet
  facet normal 0.137505 -0.915104 -0.379047
    outer loop
      vertex 11.0264 1.93185 4.51764
      vertex -2.22044e-16 1.73205 0.999999
      vertex -1.14939e-16 1.93185 0.517637
    endloop
  endfacet
  facet normal 0.215644 0.774682 -0.594445
    outer loop
      vertex 11.0264 -1.73205 5
      vertex -3.14018e-16 -1.41421 1.41421
      vertex 11.0264 -1.41421 5.41421
    endloop
  endfacet
  facet normal 0.215644 0.774682 -0.594445
    outer loop
      vertex -3.14018e-16 -1.41421 1.41421
      vertex 11.0264 -1.73205 5
      vertex -2.22045e-16 -1.73205 1
    endloop
  endfacet
  facet normal 0.317779 0.362846 -0.875991
    outer loop
      vertex -3.84592e-16 -0.999999 1.73205
      vertex 11.0264 -0.517637 5.93185
      vertex 11.0264 -0.999999 5.73205
    endloop
  endfacet
  facet normal 0.317779 0.362846 -0.875991
    outer loop
      vertex 11.0264 -0.517637 5.93185
      vertex -3.84592e-16 -0.999999 1.73205
      vertex -4.28957e-16 -0.517637 1.93185
    endloop
  endfacet
  facet normal 0.137506 0.915104 -0.379048
    outer loop
      vertex 11.0264 -1.93185 4.51764
      vertex -2.22045e-16 -1.73205 1
      vertex 11.0264 -1.73205 5
    endloop
  endfacet
  facet normal 0.137505 0.915105 -0.379046
    outer loop
      vertex -2.22045e-16 -1.73205 1
      vertex 11.0264 -1.93185 4.51764
      vertex -1.14939e-16 -1.93185 0.517637
    endloop
  endfacet
  facet normal -0.338441 0.122826 0.932937
    outer loop
      vertex -8.57914e-16 1.03528 3.8637
      vertex 1 0 4.36277
      vertex 1 1.03528 4.22647
    endloop
  endfacet
  facet normal -0.338441 0.122826 0.932937
    outer loop
      vertex 1 0 4.36277
      vertex -8.57914e-16 1.03528 3.8637
      vertex -8.88178e-16 0 4
    endloop
  endfacet
  facet normal -0.0472979 -0.990335 0.130383
    outer loop
      vertex -2.29877e-16 -3.8637 1.03528
      vertex 1 -4 0.362766
      vertex 1 -3.8637 1.39804
    endloop
  endfacet
  facet normal -0.0472984 -0.990335 0.130383
    outer loop
      vertex 1 -4 0.362766
      vertex -2.29877e-16 -3.8637 1.03528
      vertex 0 -4 0
    endloop
  endfacet
  facet normal -0.215637 0.774692 0.594435
    outer loop
      vertex 1 3.4641 2.36276
      vertex -6.28037e-16 2.82843 2.82843
      vertex 1 2.82843 3.19119
    endloop
  endfacet
  facet normal -0.215637 0.774692 0.594435
    outer loop
      vertex -6.28037e-16 2.82843 2.82843
      vertex 1 3.4641 2.36276
      vertex -4.44089e-16 3.4641 2
    endloop
  endfacet
  facet normal -0.27657 0.585018 0.762406
    outer loop
      vertex -6.28037e-16 2.82843 2.82843
      vertex 1 2 3.82687
      vertex 1 2.82843 3.19119
    endloop
  endfacet
  facet normal -0.276579 0.58501 0.762409
    outer loop
      vertex 1 2 3.82687
      vertex -6.28037e-16 2.82843 2.82843
      vertex -7.69185e-16 2 3.4641
    endloop
  endfacet
  facet normal -0.137504 0.915104 0.379048
    outer loop
      vertex 1 3.8637 1.39804
      vertex -4.44089e-16 3.4641 2
      vertex 1 3.4641 2.36276
    endloop
  endfacet
  facet normal -0.137504 0.915104 0.379048
    outer loop
      vertex -4.44089e-16 3.4641 2
      vertex 1 3.8637 1.39804
      vertex -2.29877e-16 3.8637 1.03528
    endloop
  endfacet
  facet normal -0.215639 -0.774688 0.59444
    outer loop
      vertex -6.28037e-16 -2.82843 2.82843
      vertex 1 -3.4641 2.36277
      vertex 1 -2.82843 3.19119
    endloop
  endfacet
  facet normal -0.215643 -0.774691 0.594435
    outer loop
      vertex 1 -3.4641 2.36277
      vertex -6.28037e-16 -2.82843 2.82843
      vertex -4.44089e-16 -3.4641 2
    endloop
  endfacet
  facet normal -0.317783 0.362846 0.875989
    outer loop
      vertex -7.69185e-16 2 3.4641
      vertex 1 1.03528 4.22647
      vertex 1 2 3.82687
    endloop
  endfacet
  facet normal -0.317783 0.362846 0.875989
    outer loop
      vertex 1 1.03528 4.22647
      vertex -7.69185e-16 2 3.4641
      vertex -8.57914e-16 1.03528 3.8637
    endloop
  endfacet
  facet normal 1 0 0
    outer loop
      vertex 1 2.89778 1.13922
      vertex 1 3.8637 1.39804
      vertex 1 3.4641 2.36276
    endloop
  endfacet
  facet normal 1 0 0
    outer loop
      vertex 1 3.8637 1.39804
      vertex 1 2.89778 1.13922
      vertex 1 4 0.362766
    endloop
  endfacet
  facet normal 1 0 0
    outer loop
      vertex 1 4 0.362766
      vertex 1 2.89778 1.13922
      vertex 1 3 0.362766
    endloop
  endfacet
  facet normal 1 0 0
    outer loop
      vertex 1 2.59808 1.86276
      vertex 1 3.4641 2.36276
      vertex 1 2.82843 3.19119
    endloop
  endfacet
  facet normal 1 0 0
    outer loop
      vertex 1 3.4641 2.36276
      vertex 1 2.59808 1.86276
      vertex 1 2.89778 1.13922
    endloop
  endfacet
  facet normal 1 0 0
    outer loop
      vertex 1 2.82843 3.19119
      vertex 1 2.12132 2.48409
      vertex 1 2.59808 1.86276
    endloop
  endfacet
  facet normal 1 0 0
    outer loop
      vertex 1 2 3.82687
      vertex 1 2.12132 2.48409
      vertex 1 2.82843 3.19119
    endloop
  endfacet
  facet normal 1 0 0
    outer loop
      vertex 1 2 3.82687
      vertex 1 1.5 2.96084
      vertex 1 2.12132 2.48409
    endloop
  endfacet
  facet normal 1 0 0
    outer loop
      vertex 1 1.03528 4.22647
      vertex 1 1.5 2.96084
      vertex 1 2 3.82687
    endloop
  endfacet
  facet normal 1 0 0
    outer loop
      vertex 1 1.03528 4.22647
      vertex 1 0.776457 3.26054
      vertex 1 1.5 2.96084
    endloop
  endfacet
  facet normal 1 0 0
    outer loop
      vertex 1 0 4.36277
      vertex 1 0.776457 3.26054
      vertex 1 1.03528 4.22647
    endloop
  endfacet
  facet normal 1 0 0
    outer loop
      vertex 1 0 4.36277
      vertex 1 0 3.36277
      vertex 1 0.776457 3.26054
    endloop
  endfacet
  facet normal 1 0 0
    outer loop
      vertex 1 0 4.36277
      vertex 1 -0.776457 3.26054
      vertex 1 0 3.36277
    endloop
  endfacet
  facet normal 1 -0 0
    outer loop
      vertex 1 -1.03528 4.22647
      vertex 1 -0.776457 3.26054
      vertex 1 0 4.36277
    endloop
  endfacet
  facet normal 1 0 0
    outer loop
      vertex 1 -1.03528 4.22647
      vertex 1 -1.5 2.96084
      vertex 1 -0.776457 3.26054
    endloop
  endfacet
  facet normal 1 -0 0
    outer loop
      vertex 1 -2 3.82687
      vertex 1 -1.5 2.96084
      vertex 1 -1.03528 4.22647
    endloop
  endfacet
  facet normal 1 0 0
    outer loop
      vertex 1 -2 3.82687
      vertex 1 -2.12132 2.48409
      vertex 1 -1.5 2.96084
    endloop
  endfacet
  facet normal 1 -0 0
    outer loop
      vertex 1 -2.82843 3.19119
      vertex 1 -2.12132 2.48409
      vertex 1 -2 3.82687
    endloop
  endfacet
  facet normal 1 0 0
    outer loop
      vertex 1 -2.12132 2.48409
      vertex 1 -2.82843 3.19119
      vertex 1 -2.59808 1.86277
    endloop
  endfacet
  facet normal 1 -0 0
    outer loop
      vertex 1 -3.4641 2.36277
      vertex 1 -2.59808 1.86277
      vertex 1 -2.82843 3.19119
    endloop
  endfacet
  facet normal 1 0 0
    outer loop
      vertex 1 -2.59808 1.86277
      vertex 1 -3.4641 2.36277
      vertex 1 -2.89778 1.13922
    endloop
  endfacet
  facet normal 1 -0 0
    outer loop
      vertex 1 -3.8637 1.39804
      vertex 1 -2.89778 1.13922
      vertex 1 -3.4641 2.36277
    endloop
  endfacet
  facet normal 1 0 0
    outer loop
      vertex 1 -2.89778 1.13922
      vertex 1 -3.8637 1.39804
      vertex 1 -3 0.362766
    endloop
  endfacet
  facet normal 1 0 0
    outer loop
      vertex 1 -3 0.362766
      vertex 1 -3.8637 1.39804
      vertex 1 -4 0.362766
    endloop
  endfacet
  facet normal -0.0472979 0.990335 0.130383
    outer loop
      vertex 1 4 0.362766
      vertex -2.29877e-16 3.8637 1.03528
      vertex 1 3.8637 1.39804
    endloop
  endfacet
  facet normal -0.0472984 0.990335 0.130383
    outer loop
      vertex -2.29877e-16 3.8637 1.03528
      vertex 1 4 0.362766
      vertex 0 4 0
    endloop
  endfacet
  facet normal -0.137506 -0.915105 0.379045
    outer loop
      vertex -4.44089e-16 -3.4641 2
      vertex 1 -3.8637 1.39804
      vertex 1 -3.4641 2.36277
    endloop
  endfacet
  facet normal -0.137504 -0.915104 0.379048
    outer loop
      vertex 1 -3.8637 1.39804
      vertex -4.44089e-16 -3.4641 2
      vertex -2.29877e-16 -3.8637 1.03528
    endloop
  endfacet
  facet normal -0.27657 -0.585018 0.762406
    outer loop
      vertex 1 -2 3.82687
      vertex -6.28037e-16 -2.82843 2.82843
      vertex 1 -2.82843 3.19119
    endloop
  endfacet
  facet normal -0.276579 -0.58501 0.762409
    outer loop
      vertex -6.28037e-16 -2.82843 2.82843
      vertex 1 -2 3.82687
      vertex -7.69185e-16 -2 3.4641
    endloop
  endfacet
  facet normal -0.338441 -0.122826 0.932937
    outer loop
      vertex 1 0 4.36277
      vertex -8.57914e-16 -1.03528 3.8637
      vertex 1 -1.03528 4.22647
    endloop
  endfacet
  facet normal -0.338441 -0.122826 0.932937
    outer loop
      vertex -8.57914e-16 -1.03528 3.8637
      vertex 1 0 4.36277
      vertex -8.88178e-16 0 4
    endloop
  endfacet
  facet normal -0.317783 -0.362846 0.875989
    outer loop
      vertex 1 -1.03528 4.22647
      vertex -7.69185e-16 -2 3.4641
      vertex 1 -2 3.82687
    endloop
  endfacet
  facet normal -0.317783 -0.362846 0.875989
    outer loop
      vertex -7.69185e-16 -2 3.4641
      vertex 1 -1.03528 4.22647
      vertex -8.57914e-16 -1.03528 3.8637
    endloop
  endfacet
  facet normal -0.338433 0.122826 0.93294
    outer loop
      vertex 10.0264 1.03528 7.50094
      vertex 11.0264 0 8
      vertex 11.0264 1.03528 7.8637
    endloop
  endfacet
  facet normal -0.338442 0.122817 0.932938
    outer loop
      vertex 11.0264 0 8
      vertex 10.0264 1.03528 7.50094
      vertex 10.0264 0 7.63723
    endloop
  endfacet
  facet normal -0.215643 0.774691 0.594435
    outer loop
      vertex 11.0264 3.4641 6
      vertex 10.0264 2.82843 6.46566
      vertex 11.0264 2.82843 6.82843
    endloop
  endfacet
  facet normal -0.215643 0.774691 0.594435
    outer loop
      vertex 10.0264 2.82843 6.46566
      vertex 11.0264 3.4641 6
      vertex 10.0264 3.4641 5.63723
    endloop
  endfacet
  facet normal -0.276579 0.58501 0.762409
    outer loop
      vertex 10.0264 2.82843 6.46566
      vertex 11.0264 2 7.4641
      vertex 11.0264 2.82843 6.82843
    endloop
  endfacet
  facet normal -0.27657 0.585018 0.762406
    outer loop
      vertex 11.0264 2 7.4641
      vertex 10.0264 2.82843 6.46566
      vertex 10.0264 2 7.10134
    endloop
  endfacet
  facet normal -0.137507 0.915103 0.379048
    outer loop
      vertex 11.0264 3.8637 5.03528
      vertex 10.0264 3.4641 5.63723
      vertex 11.0264 3.4641 6
    endloop
  endfacet
  facet normal -0.137507 0.915103 0.379048
    outer loop
      vertex 10.0264 3.4641 5.63723
      vertex 11.0264 3.8637 5.03528
      vertex 10.0264 3.8637 4.67251
    endloop
  endfacet
  facet normal -0.215643 -0.774691 0.594435
    outer loop
      vertex 10.0264 -2.82843 6.46566
      vertex 11.0264 -3.4641 6
      vertex 11.0264 -2.82843 6.82843
    endloop
  endfacet
  facet normal -0.215643 -0.774691 0.594435
    outer loop
      vertex 11.0264 -3.4641 6
      vertex 10.0264 -2.82843 6.46566
      vertex 10.0264 -3.4641 5.63723
    endloop
  endfacet
  facet normal -1 0 0
    outer loop
      vertex 10.0264 2.89778 4.41369
      vertex 10.0264 3.8637 4.67251
      vertex 10.0264 4 3.63723
    endloop
  endfacet
  facet normal -1 0 0
    outer loop
      vertex 10.0264 2.89778 4.41369
      vertex 10.0264 4 3.63723
      vertex 10.0264 3 3.63723
    endloop
  endfacet
  facet normal -1 -0 0
    outer loop
      vertex 10.0264 3.8637 4.67251
      vertex 10.0264 2.89778 4.41369
      vertex 10.0264 3.4641 5.63723
    endloop
  endfacet
  facet normal -1 0 0
    outer loop
      vertex 10.0264 2.59808 5.13723
      vertex 10.0264 3.4641 5.63723
      vertex 10.0264 2.89778 4.41369
    endloop
  endfacet
  facet normal -1 -0 0
    outer loop
      vertex 10.0264 3.4641 5.63723
      vertex 10.0264 2.59808 5.13723
      vertex 10.0264 2.82843 6.46566
    endloop
  endfacet
  facet normal -1 0 0
    outer loop
      vertex 10.0264 2.12132 5.75855
      vertex 10.0264 2.82843 6.46566
      vertex 10.0264 2.59808 5.13723
    endloop
  endfacet
  facet normal -1 0 0
    outer loop
      vertex 10.0264 2.12132 5.75855
      vertex 10.0264 2 7.10134
      vertex 10.0264 2.82843 6.46566
    endloop
  endfacet
  facet normal -1 0 0
    outer loop
      vertex 10.0264 1.5 6.23531
      vertex 10.0264 2 7.10134
      vertex 10.0264 2.12132 5.75855
    endloop
  endfacet
  facet normal -1 0 0
    outer loop
      vertex 10.0264 1.5 6.23531
      vertex 10.0264 1.03528 7.50094
      vertex 10.0264 2 7.10134
    endloop
  endfacet
  facet normal -1 0 0
    outer loop
      vertex 10.0264 0.776457 6.53501
      vertex 10.0264 1.03528 7.50094
      vertex 10.0264 1.5 6.23531
    endloop
  endfacet
  facet normal -1 0 0
    outer loop
      vertex 10.0264 0 6.63723
      vertex 10.0264 1.03528 7.50094
      vertex 10.0264 0.776457 6.53501
    endloop
  endfacet
  facet normal -1 0 0
    outer loop
      vertex 10.0264 0 6.63723
      vertex 10.0264 0 7.63723
      vertex 10.0264 1.03528 7.50094
    endloop
  endfacet
  facet normal -1 0 0
    outer loop
      vertex 10.0264 -0.776457 6.53501
      vertex 10.0264 0 7.63723
      vertex 10.0264 0 6.63723
    endloop
  endfacet
  facet normal -1 0 0
    outer loop
      vertex 10.0264 -0.776457 6.53501
      vertex 10.0264 -1.03528 7.50094
      vertex 10.0264 0 7.63723
    endloop
  endfacet
  facet normal -1 0 0
    outer loop
      vertex 10.0264 -1.5 6.23531
      vertex 10.0264 -1.03528 7.50094
      vertex 10.0264 -0.776457 6.53501
    endloop
  endfacet
  facet normal -1 0 0
    outer loop
      vertex 10.0264 -1.5 6.23531
      vertex 10.0264 -2 7.10134
      vertex 10.0264 -1.03528 7.50094
    endloop
  endfacet
  facet normal -1 0 0
    outer loop
      vertex 10.0264 -2.12132 5.75855
      vertex 10.0264 -2 7.10134
      vertex 10.0264 -1.5 6.23531
    endloop
  endfacet
  facet normal -1 0 0
    outer loop
      vertex 10.0264 -2.82843 6.46566
      vertex 10.0264 -2.12132 5.75855
      vertex 10.0264 -2.59808 5.13723
    endloop
  endfacet
  facet normal -1 0 0
    outer loop
      vertex 10.0264 -2.12132 5.75855
      vertex 10.0264 -2.82843 6.46566
      vertex 10.0264 -2 7.10134
    endloop
  endfacet
  facet normal -1 0 0
    outer loop
      vertex 10.0264 -3.4641 5.63723
      vertex 10.0264 -2.59808 5.13723
      vertex 10.0264 -2.89778 4.41369
    endloop
  endfacet
  facet normal -1 0 0
    outer loop
      vertex 10.0264 -3.8637 4.67251
      vertex 10.0264 -2.89778 4.41369
      vertex 10.0264 -3 3.63723
    endloop
  endfacet
  facet normal -1 0 0
    outer loop
      vertex 10.0264 -2.59808 5.13723
      vertex 10.0264 -3.4641 5.63723
      vertex 10.0264 -2.82843 6.46566
    endloop
  endfacet
  facet normal -1 0 0
    outer loop
      vertex 10.0264 -2.89778 4.41369
      vertex 10.0264 -3.8637 4.67251
      vertex 10.0264 -3.4641 5.63723
    endloop
  endfacet
  facet normal -1 0 -0
    outer loop
      vertex 10.0264 -3.8637 4.67251
      vertex 10.0264 -3 3.63723
      vertex 10.0264 -4 3.63723
    endloop
  endfacet
  facet normal -0.317775 0.362847 0.875991
    outer loop
      vertex 10.0264 2 7.10134
      vertex 11.0264 1.03528 7.8637
      vertex 11.0264 2 7.4641
    endloop
  endfacet
  facet normal -0.317775 0.362847 0.875991
    outer loop
      vertex 11.0264 1.03528 7.8637
      vertex 10.0264 2 7.10134
      vertex 10.0264 1.03528 7.50094
    endloop
  endfacet
  facet normal 1 0 0
    outer loop
      vertex 11.0264 1.93185 4.51764
      vertex 11.0264 3.8637 5.03528
      vertex 11.0264 3.4641 6
    endloop
  endfacet
  facet normal 1 0 0
    outer loop
      vertex 11.0264 1.73205 5
      vertex 11.0264 3.4641 6
      vertex 11.0264 2.82843 6.82843
    endloop
  endfacet
  facet normal 1 0 0
    outer loop
      vertex 11.0264 3.8637 5.03528
      vertex 11.0264 1.93185 4.51764
      vertex 11.0264 4 4
    endloop
  endfacet
  facet normal 1 0 0
    outer loop
      vertex 11.0264 1.41421 5.41421
      vertex 11.0264 2.82843 6.82843
      vertex 11.0264 2 7.4641
    endloop
  endfacet
  facet normal 1 0 0
    outer loop
      vertex 11.0264 4 4
      vertex 11.0264 1.93185 4.51764
      vertex 11.0264 2 4
    endloop
  endfacet
  facet normal 1 0 0
    outer loop
      vertex 11.0264 3.4641 6
      vertex 11.0264 1.73205 5
      vertex 11.0264 1.93185 4.51764
    endloop
  endfacet
  facet normal 1 0 0
    outer loop
      vertex 11.0264 2.82843 6.82843
      vertex 11.0264 1.41421 5.41421
      vertex 11.0264 1.73205 5
    endloop
  endfacet
  facet normal 1 0 0
    outer loop
      vertex 11.0264 0.999999 5.73205
      vertex 11.0264 2 7.4641
      vertex 11.0264 1.03528 7.8637
    endloop
  endfacet
  facet normal 1 0 0
    outer loop
      vertex 11.0264 2 7.4641
      vertex 11.0264 0.999999 5.73205
      vertex 11.0264 1.41421 5.41421
    endloop
  endfacet
  facet normal 1 0 0
    outer loop
      vertex 11.0264 1.03528 7.8637
      vertex 11.0264 0.517637 5.93185
      vertex 11.0264 0.999999 5.73205
    endloop
  endfacet
  facet normal 1 0 0
    outer loop
      vertex 11.0264 0 8
      vertex 11.0264 0.517637 5.93185
      vertex 11.0264 1.03528 7.8637
    endloop
  endfacet
  facet normal 1 0 0
    outer loop
      vertex 11.0264 0 8
      vertex 11.0264 0 6
      vertex 11.0264 0.517637 5.93185
    endloop
  endfacet
  facet normal 1 0 0
    outer loop
      vertex 11.0264 0 8
      vertex 11.0264 -0.517637 5.93185
      vertex 11.0264 0 6
    endloop
  endfacet
  facet normal 1 -0 0
    outer loop
      vertex 11.0264 -1.03528 7.8637
      vertex 11.0264 -0.517637 5.93185
      vertex 11.0264 0 8
    endloop
  endfacet
  facet normal 1 0 0
    outer loop
      vertex 11.0264 -0.517637 5.93185
      vertex 11.0264 -1.03528 7.8637
      vertex 11.0264 -0.999999 5.73205
    endloop
  endfacet
  facet normal 1 -0 0
    outer loop
      vertex 11.0264 -2 7.4641
      vertex 11.0264 -0.999999 5.73205
      vertex 11.0264 -1.03528 7.8637
    endloop
  endfacet
  facet normal 1 0 0
    outer loop
      vertex 11.0264 -0.999999 5.73205
      vertex 11.0264 -2 7.4641
      vertex 11.0264 -1.41421 5.41421
    endloop
  endfacet
  facet normal 1 -0 0
    outer loop
      vertex 11.0264 -2.82843 6.82843
      vertex 11.0264 -1.41421 5.41421
      vertex 11.0264 -2 7.4641
    endloop
  endfacet
  facet normal 1 0 0
    outer loop
      vertex 11.0264 -1.41421 5.41421
      vertex 11.0264 -2.82843 6.82843
      vertex 11.0264 -1.73205 5
    endloop
  endfacet
  facet normal 1 -0 0
    outer loop
      vertex 11.0264 -3.4641 6
      vertex 11.0264 -1.73205 5
      vertex 11.0264 -2.82843 6.82843
    endloop
  endfacet
  facet normal 1 0 0
    outer loop
      vertex 11.0264 -1.73205 5
      vertex 11.0264 -3.4641 6
      vertex 11.0264 -1.93185 4.51764
    endloop
  endfacet
  facet normal 1 -0 0
    outer loop
      vertex 11.0264 -3.8637 5.03528
      vertex 11.0264 -1.93185 4.51764
      vertex 11.0264 -3.4641 6
    endloop
  endfacet
  facet normal 1 0 0
    outer loop
      vertex 11.0264 -1.93185 4.51764
      vertex 11.0264 -3.8637 5.03528
      vertex 11.0264 -2 4
    endloop
  endfacet
  facet normal 1 0 0
    outer loop
      vertex 11.0264 -2 4
      vertex 11.0264 -3.8637 5.03528
      vertex 11.0264 -4 4
    endloop
  endfacet
  facet normal -0.0472989 0.990335 0.130383
    outer loop
      vertex 11.0264 4 4
      vertex 10.0264 3.8637 4.67251
      vertex 11.0264 3.8637 5.03528
    endloop
  endfacet
  facet normal -0.0472989 0.990335 0.130383
    outer loop
      vertex 10.0264 3.8637 4.67251
      vertex 11.0264 4 4
      vertex 10.0264 4 3.63723
    endloop
  endfacet
  facet normal -0.137507 -0.915103 0.379048
    outer loop
      vertex 10.0264 -3.4641 5.63723
      vertex 11.0264 -3.8637 5.03528
      vertex 11.0264 -3.4641 6
    endloop
  endfacet
  facet normal -0.137507 -0.915103 0.379048
    outer loop
      vertex 11.0264 -3.8637 5.03528
      vertex 10.0264 -3.4641 5.63723
      vertex 10.0264 -3.8637 4.67251
    endloop
  endfacet
  facet normal -0.276572 -0.585012 0.76241
    outer loop
      vertex 10.0264 -2 7.10134
      vertex 11.0264 -2.82843 6.82843
      vertex 11.0264 -2 7.4641
    endloop
  endfacet
  facet normal -0.276577 -0.585017 0.762404
    outer loop
      vertex 11.0264 -2.82843 6.82843
      vertex 10.0264 -2 7.10134
      vertex 10.0264 -2.82843 6.46566
    endloop
  endfacet
  facet normal -0.338441 -0.122826 0.932937
    outer loop
      vertex 10.0264 0 7.63723
      vertex 11.0264 -1.03528 7.8637
      vertex 11.0264 0 8
    endloop
  endfacet
  facet normal -0.338434 -0.122818 0.932941
    outer loop
      vertex 11.0264 -1.03528 7.8637
      vertex 10.0264 0 7.63723
      vertex 10.0264 -1.03528 7.50094
    endloop
  endfacet
  facet normal -0.0472989 -0.990335 0.130383
    outer loop
      vertex 10.0264 -3.8637 4.67251
      vertex 11.0264 -4 4
      vertex 11.0264 -3.8637 5.03528
    endloop
  endfacet
  facet normal -0.0472989 -0.990335 0.130383
    outer loop
      vertex 11.0264 -4 4
      vertex 10.0264 -3.8637 4.67251
      vertex 10.0264 -4 3.63723
    endloop
  endfacet
  facet normal -0.317775 -0.362847 0.875991
    outer loop
      vertex 10.0264 -1.03528 7.50094
      vertex 11.0264 -2 7.4641
      vertex 11.0264 -1.03528 7.8637
    endloop
  endfacet
  facet normal -0.317775 -0.362847 0.875991
    outer loop
      vertex 11.0264 -2 7.4641
      vertex 10.0264 -1.03528 7.50094
      vertex 10.0264 -2 7.10134
    endloop
  endfacet
  facet normal 0.341024 0 -0.940055
    outer loop
      vertex 11.0264 2 4
      vertex 10.0264 3 3.63723
      vertex 11.0264 4 4
    endloop
  endfacet
  facet normal 0.34102 -4.49157e-06 -0.940056
    outer loop
      vertex 11.0264 2 4
      vertex 1 3 0.362766
      vertex 10.0264 3 3.63723
    endloop
  endfacet
  facet normal 0.34102 2.57675e-07 -0.940056
    outer loop
      vertex 0 2 0
      vertex 1 3 0.362766
      vertex 11.0264 2 4
    endloop
  endfacet
  facet normal 0.34102 0 -0.940056
    outer loop
      vertex 0 4 0
      vertex 1 3 0.362766
      vertex 0 2 0
    endloop
  endfacet
  facet normal 0.34102 0 -0.940056
    outer loop
      vertex 1 3 0.362766
      vertex 0 4 0
      vertex 1 4 0.362766
    endloop
  endfacet
  facet normal 0.341024 0 -0.940055
    outer loop
      vertex 11.0264 4 4
      vertex 10.0264 3 3.63723
      vertex 10.0264 4 3.63723
    endloop
  endfacet
  facet normal 0.34102 0 -0.940056
    outer loop
      vertex 1 -4 0.362766
      vertex 0 -4 0
      vertex 1 -3 0.362766
    endloop
  endfacet
  facet normal 0.341024 0 -0.940055
    outer loop
      vertex 10.0264 -3 3.63723
      vertex 11.0264 -4 4
      vertex 10.0264 -4 3.63723
    endloop
  endfacet
  facet normal 0.341024 0 -0.940055
    outer loop
      vertex 11.0264 -4 4
      vertex 10.0264 -3 3.63723
      vertex 11.0264 -2 4
    endloop
  endfacet
  facet normal 0.34102 4.49157e-06 -0.940056
    outer loop
      vertex 1 -3 0.362766
      vertex 11.0264 -2 4
      vertex 10.0264 -3 3.63723
    endloop
  endfacet
  facet normal 0.34102 -2.57675e-07 -0.940056
    outer loop
      vertex 1 -3 0.362766
      vertex 0 -2 0
      vertex 11.0264 -2 4
    endloop
  endfacet
  facet normal 0.34102 0 -0.940056
    outer loop
      vertex 0 -2 0
      vertex 1 -3 0.362766
      vertex 0 -4 0
    endloop
  endfacet
endsolid OpenSCAD_Model
