solid OpenSCAD_Model
  facet normal -0 0.130523 0.991445
    outer loop
      vertex 1 0.776457 2.89778
      vertex 2.2338 0 3
      vertex 2.2338 0.776457 2.89778
    endloop
  endfacet
  facet normal 0 0.130523 0.991445
    outer loop
      vertex 2.2338 0 3
      vertex 1 0.776457 2.89778
      vertex 1 0 3
    endloop
  endfacet
  facet normal 0 1 -0
    outer loop
      vertex 2.2338 3 0
      vertex 1 3 2.22045e-16
      vertex 2.2338 3 4.96003e-16
    endloop
  endfacet
  facet normal 0 1 0
    outer loop
      vertex 1 3 2.22045e-16
      vertex 2.2338 3 0
      vertex 1 3 0
    endloop
  endfacet
  facet normal 0 -0.991445 0.130523
    outer loop
      vertex 1 -2.89778 0.776457
      vertex 2.2338 -3 4.96003e-16
      vertex 2.2338 -2.89778 0.776457
    endloop
  endfacet
  facet normal -2.89819e-17 -0.991445 0.130523
    outer loop
      vertex 2.2338 -3 4.96003e-16
      vertex 1 -2.89778 0.776457
      vertex 1 -3 2.22045e-16
    endloop
  endfacet
  facet normal 0 0.793351 0.608765
    outer loop
      vertex 2.2338 2.59808 1.5
      vertex 1 2.12132 2.12132
      vertex 2.2338 2.12132 2.12132
    endloop
  endfacet
  facet normal 0 0.793351 0.608765
    outer loop
      vertex 1 2.12132 2.12132
      vertex 2.2338 2.59808 1.5
      vertex 1 2.59808 1.5
    endloop
  endfacet
  facet normal -0 0.608765 0.793351
    outer loop
      vertex 1 2.12132 2.12132
      vertex 2.2338 1.5 2.59808
      vertex 2.2338 2.12132 2.12132
    endloop
  endfacet
  facet normal 0 0.608765 0.793351
    outer loop
      vertex 2.2338 1.5 2.59808
      vertex 1 2.12132 2.12132
      vertex 1 1.5 2.59808
    endloop
  endfacet
  facet normal 0 0.92388 0.382682
    outer loop
      vertex 2.2338 2.89778 0.776457
      vertex 1 2.59808 1.5
      vertex 2.2338 2.59808 1.5
    endloop
  endfacet
  facet normal 0 0.92388 0.382682
    outer loop
      vertex 1 2.59808 1.5
      vertex 2.2338 2.89778 0.776457
      vertex 1 2.89778 0.776457
    endloop
  endfacet
  facet normal 0 -0.793351 0.608765
    outer loop
      vertex 1 -2.59808 1.5
      vertex 2.2338 -2.12132 2.12132
      vertex 1 -2.12132 2.12132
    endloop
  endfacet
  facet normal 0 -0.793351 0.608765
    outer loop
      vertex 2.2338 -2.12132 2.12132
      vertex 1 -2.59808 1.5
      vertex 2.2338 -2.59808 1.5
    endloop
  endfacet
  facet normal -1 5.83065e-22 -2.22043e-16
    outer loop
      vertex -1.14939e-16 1.93185 0.517637
      vertex -2.29877e-16 3.8637 1.03528
      vertex 0 4 0
    endloop
  endfacet
  facet normal -1 1.13736e-21 -2.22045e-16
    outer loop
      vertex -2.29877e-16 3.8637 1.03528
      vertex -1.14939e-16 1.93185 0.517637
      vertex -4.44089e-16 3.4641 2
    endloop
  endfacet
  facet normal -1 0 -2.22046e-16
    outer loop
      vertex -1.14939e-16 1.93185 0.517637
      vertex 0 4 0
      vertex 0 2 0
    endloop
  endfacet
  facet normal -1 -9.30366e-22 -2.22043e-16
    outer loop
      vertex -2.22044e-16 1.73205 0.999999
      vertex -4.44089e-16 3.4641 2
      vertex -1.14939e-16 1.93185 0.517637
    endloop
  endfacet
  facet normal -1 -2.68239e-22 -2.22044e-16
    outer loop
      vertex -4.44089e-16 3.4641 2
      vertex -2.22044e-16 1.73205 0.999999
      vertex -6.28037e-16 2.82843 2.82843
    endloop
  endfacet
  facet normal -1 1.30039e-21 -2.22045e-16
    outer loop
      vertex -3.14018e-16 1.41421 1.41421
      vertex -6.28037e-16 2.82843 2.82843
      vertex -2.22044e-16 1.73205 0.999999
    endloop
  endfacet
  facet normal -1 9.01607e-22 -2.22045e-16
    outer loop
      vertex -6.28037e-16 2.82843 2.82843
      vertex -3.14018e-16 1.41421 1.41421
      vertex -7.69185e-16 2 3.4641
    endloop
  endfacet
  facet normal -1 -1.29668e-21 -2.22044e-16
    outer loop
      vertex -3.84592e-16 0.999999 1.73205
      vertex -7.69185e-16 2 3.4641
      vertex -3.14018e-16 1.41421 1.41421
    endloop
  endfacet
  facet normal -1 -1.44093e-22 -2.22045e-16
    outer loop
      vertex -7.69185e-16 2 3.4641
      vertex -3.84592e-16 0.999999 1.73205
      vertex -8.57914e-16 1.03528 3.8637
    endloop
  endfacet
  facet normal -1 8.85416e-22 -2.22045e-16
    outer loop
      vertex -4.28957e-16 0.517637 1.93185
      vertex -8.57914e-16 1.03528 3.8637
      vertex -3.84592e-16 0.999999 1.73205
    endloop
  endfacet
  facet normal -1 -6.4268e-22 -2.22044e-16
    outer loop
      vertex -4.44089e-16 0 2
      vertex -8.57914e-16 1.03528 3.8637
      vertex -4.28957e-16 0.517637 1.93185
    endloop
  endfacet
  facet normal -1 -6.42676e-22 -2.22045e-16
    outer loop
      vertex -4.44089e-16 0 2
      vertex -8.88178e-16 0 4
      vertex -8.57914e-16 1.03528 3.8637
    endloop
  endfacet
  facet normal -1 6.4268e-22 -2.22044e-16
    outer loop
      vertex -4.28957e-16 -0.517637 1.93185
      vertex -8.88178e-16 0 4
      vertex -4.44089e-16 0 2
    endloop
  endfacet
  facet normal -1 -8.85416e-22 -2.22045e-16
    outer loop
      vertex -8.57914e-16 -1.03528 3.8637
      vertex -4.28957e-16 -0.517637 1.93185
      vertex -3.84592e-16 -0.999999 1.73205
    endloop
  endfacet
  facet normal -1 6.42676e-22 -2.22044e-16
    outer loop
      vertex -4.28957e-16 -0.517637 1.93185
      vertex -8.57914e-16 -1.03528 3.8637
      vertex -8.88178e-16 0 4
    endloop
  endfacet
  facet normal -1 1.29668e-21 -2.22044e-16
    outer loop
      vertex -7.69185e-16 -2 3.4641
      vertex -3.84592e-16 -0.999999 1.73205
      vertex -3.14018e-16 -1.41421 1.41421
    endloop
  endfacet
  facet normal -1 -2.37685e-22 -2.22044e-16
    outer loop
      vertex -6.28037e-16 -2.82843 2.82843
      vertex -3.14018e-16 -1.41421 1.41421
      vertex -2.22045e-16 -1.73205 1
    endloop
  endfacet
  facet normal -1 -1.83553e-22 -2.22044e-16
    outer loop
      vertex -4.44089e-16 -3.4641 2
      vertex -2.22045e-16 -1.73205 1
      vertex -1.14939e-16 -1.93185 0.517637
    endloop
  endfacet
  facet normal -1 1.44093e-22 -2.22045e-16
    outer loop
      vertex -3.84592e-16 -0.999999 1.73205
      vertex -7.69185e-16 -2 3.4641
      vertex -8.57914e-16 -1.03528 3.8637
    endloop
  endfacet
  facet normal -1 -1.16614e-21 -2.22045e-16
    outer loop
      vertex -2.29877e-16 -3.8637 1.03528
      vertex -1.14939e-16 -1.93185 0.517637
      vertex 0 -2 0
    endloop
  endfacet
  facet normal -1 -9.01607e-22 -2.22045e-16
    outer loop
      vertex -3.14018e-16 -1.41421 1.41421
      vertex -6.28037e-16 -2.82843 2.82843
      vertex -7.69185e-16 -2 3.4641
    endloop
  endfacet
  facet normal -1 -4.30223e-23 -2.22044e-16
    outer loop
      vertex -2.22045e-16 -1.73205 1
      vertex -4.44089e-16 -3.4641 2
      vertex -6.28037e-16 -2.82843 2.82843
    endloop
  endfacet
  facet normal -1 -1.13736e-21 -2.22045e-16
    outer loop
      vertex -1.14939e-16 -1.93185 0.517637
      vertex -2.29877e-16 -3.8637 1.03528
      vertex -4.44089e-16 -3.4641 2
    endloop
  endfacet
  facet normal -1 0 -2.22043e-16
    outer loop
      vertex -2.29877e-16 -3.8637 1.03528
      vertex 0 -2 0
      vertex 0 -4 0
    endloop
  endfacet
  facet normal -0 0.382682 0.92388
    outer loop
      vertex 1 1.5 2.59808
      vertex 2.2338 0.776457 2.89778
      vertex 2.2338 1.5 2.59808
    endloop
  endfacet
  facet normal 0 0.382682 0.92388
    outer loop
      vertex 2.2338 0.776457 2.89778
      vertex 1 1.5 2.59808
      vertex 1 0.776457 2.89778
    endloop
  endfacet
  facet normal 0 0.991445 0.130523
    outer loop
      vertex 2.2338 3 4.96003e-16
      vertex 1 2.89778 0.776457
      vertex 2.2338 2.89778 0.776457
    endloop
  endfacet
  facet normal -1.43624e-17 0.991445 0.130523
    outer loop
      vertex 1 2.89778 0.776457
      vertex 2.2338 3 4.96003e-16
      vertex 1 3 2.22045e-16
    endloop
  endfacet
  facet normal 0 -1 0
    outer loop
      vertex 1 -3 0
      vertex 2.2338 -3 4.96003e-16
      vertex 1 -3 2.22045e-16
    endloop
  endfacet
  facet normal 0 -1 -0
    outer loop
      vertex 2.2338 -3 4.96003e-16
      vertex 1 -3 0
      vertex 2.2338 -3 0
    endloop
  endfacet
  facet normal 0 -0.92388 0.382682
    outer loop
      vertex 1 -2.89778 0.776457
      vertex 2.2338 -2.59808 1.5
      vertex 1 -2.59808 1.5
    endloop
  endfacet
  facet normal 0 -0.92388 0.382682
    outer loop
      vertex 2.2338 -2.59808 1.5
      vertex 1 -2.89778 0.776457
      vertex 2.2338 -2.89778 0.776457
    endloop
  endfacet
  facet normal 0 -0.608765 0.793351
    outer loop
      vertex 1 -1.5 2.59808
      vertex 2.2338 -2.12132 2.12132
      vertex 2.2338 -1.5 2.59808
    endloop
  endfacet
  facet normal 0 -0.608765 0.793351
    outer loop
      vertex 2.2338 -2.12132 2.12132
      vertex 1 -1.5 2.59808
      vertex 1 -2.12132 2.12132
    endloop
  endfacet
  facet normal 0 -0.130523 0.991445
    outer loop
      vertex 1 0 3
      vertex 2.2338 -0.776457 2.89778
      vertex 2.2338 0 3
    endloop
  endfacet
  facet normal 0 -0.130523 0.991445
    outer loop
      vertex 2.2338 -0.776457 2.89778
      vertex 1 0 3
      vertex 1 -0.776457 2.89778
    endloop
  endfacet
  facet normal 0 -0.382682 0.92388
    outer loop
      vertex 1 -0.776457 2.89778
      vertex 2.2338 -1.5 2.59808
      vertex 2.2338 -0.776457 2.89778
    endloop
  endfacet
  facet normal 0 -0.382682 0.92388
    outer loop
      vertex 2.2338 -1.5 2.59808
      vertex 1 -0.776457 2.89778
      vertex 1 -1.5 2.59808
    endloop
  endfacet
  facet normal 0 -0.13053 -0.991444
    outer loop
      vertex 3.2338 0 2
      vertex -4.28957e-16 0.517637 1.93185
      vertex 3.2338 0.517637 1.93185
    endloop
  endfacet
  facet normal 0 -0.13053 -0.991444
    outer loop
      vertex -4.28957e-16 0.517637 1.93185
      vertex 3.2338 0 2
      vertex -4.44089e-16 0 2
    endloop
  endfacet
  facet normal 0 1 0
    outer loop
      vertex 3.2338 -2 7.18048e-16
      vertex 3.2338 -2 0
      vertex 0 -2 0
    endloop
  endfacet
  facet normal 0 0.991444 -0.13053
    outer loop
      vertex 3.2338 -2 7.18048e-16
      vertex -1.14939e-16 -1.93185 0.517637
      vertex 3.2338 -1.93185 0.517637
    endloop
  endfacet
  facet normal 2.46588e-17 0.991444 -0.13053
    outer loop
      vertex -1.14939e-16 -1.93185 0.517637
      vertex 3.2338 -2 7.18048e-16
      vertex 0 -2 0
    endloop
  endfacet
  facet normal 0 -1 0
    outer loop
      vertex 3.2338 2 0
      vertex 3.2338 2 7.18048e-16
      vertex 0 2 0
    endloop
  endfacet
  facet normal 0 -0.991444 -0.13053
    outer loop
      vertex -1.14939e-16 1.93185 0.517637
      vertex 3.2338 2 7.18048e-16
      vertex 3.2338 1.93185 0.517637
    endloop
  endfacet
  facet normal 2.89834e-17 -0.991444 -0.13053
    outer loop
      vertex 3.2338 2 7.18048e-16
      vertex -1.14939e-16 1.93185 0.517637
      vertex 0 2 0
    endloop
  endfacet
  facet normal 0 -0.382682 -0.92388
    outer loop
      vertex 3.2338 0.517637 1.93185
      vertex -3.84592e-16 0.999999 1.73205
      vertex 3.2338 0.999999 1.73205
    endloop
  endfacet
  facet normal 0 -0.382682 -0.92388
    outer loop
      vertex -3.84592e-16 0.999999 1.73205
      vertex 3.2338 0.517637 1.93185
      vertex -4.28957e-16 0.517637 1.93185
    endloop
  endfacet
  facet normal 0 0.13053 -0.991444
    outer loop
      vertex -4.28957e-16 -0.517637 1.93185
      vertex 3.2338 0 2
      vertex 3.2338 -0.517637 1.93185
    endloop
  endfacet
  facet normal 0 0.13053 -0.991444
    outer loop
      vertex 3.2338 0 2
      vertex -4.28957e-16 -0.517637 1.93185
      vertex -4.44089e-16 0 2
    endloop
  endfacet
  facet normal 0 -0.608767 -0.793349
    outer loop
      vertex 3.2338 0.999999 1.73205
      vertex -3.14018e-16 1.41421 1.41421
      vertex 3.2338 1.41421 1.41421
    endloop
  endfacet
  facet normal 0 -0.608767 -0.793349
    outer loop
      vertex -3.14018e-16 1.41421 1.41421
      vertex 3.2338 0.999999 1.73205
      vertex -3.84592e-16 0.999999 1.73205
    endloop
  endfacet
  facet normal 0 -0.92388 -0.382682
    outer loop
      vertex -1.14939e-16 1.93185 0.517637
      vertex 3.2338 1.73205 0.999999
      vertex -2.22044e-16 1.73205 0.999999
    endloop
  endfacet
  facet normal 0 -0.92388 -0.382682
    outer loop
      vertex 3.2338 1.73205 0.999999
      vertex -1.14939e-16 1.93185 0.517637
      vertex 3.2338 1.93185 0.517637
    endloop
  endfacet
  facet normal 0 -0.793349 -0.608767
    outer loop
      vertex -2.22044e-16 1.73205 0.999999
      vertex 3.2338 1.41421 1.41421
      vertex -3.14018e-16 1.41421 1.41421
    endloop
  endfacet
  facet normal 0 -0.793349 -0.608767
    outer loop
      vertex 3.2338 1.41421 1.41421
      vertex -2.22044e-16 1.73205 0.999999
      vertex 3.2338 1.73205 0.999999
    endloop
  endfacet
  facet normal 0 0.793348 -0.608768
    outer loop
      vertex 3.2338 -1.73205 1
      vertex -3.14018e-16 -1.41421 1.41421
      vertex 3.2338 -1.41421 1.41421
    endloop
  endfacet
  facet normal 0 0.793348 -0.608768
    outer loop
      vertex -3.14018e-16 -1.41421 1.41421
      vertex 3.2338 -1.73205 1
      vertex -2.22045e-16 -1.73205 1
    endloop
  endfacet
  facet normal 0 0.382682 -0.92388
    outer loop
      vertex -3.84592e-16 -0.999999 1.73205
      vertex 3.2338 -0.517637 1.93185
      vertex 3.2338 -0.999999 1.73205
    endloop
  endfacet
  facet normal 0 0.382682 -0.92388
    outer loop
      vertex 3.2338 -0.517637 1.93185
      vertex -3.84592e-16 -0.999999 1.73205
      vertex -4.28957e-16 -0.517637 1.93185
    endloop
  endfacet
  facet normal 0 0.92388 -0.382681
    outer loop
      vertex 3.2338 -1.93185 0.517637
      vertex -2.22045e-16 -1.73205 1
      vertex 3.2338 -1.73205 1
    endloop
  endfacet
  facet normal 0 0.92388 -0.382681
    outer loop
      vertex -2.22045e-16 -1.73205 1
      vertex 3.2338 -1.93185 0.517637
      vertex -1.14939e-16 -1.93185 0.517637
    endloop
  endfacet
  facet normal 0 0.608767 -0.793349
    outer loop
      vertex -3.14018e-16 -1.41421 1.41421
      vertex 3.2338 -0.999999 1.73205
      vertex 3.2338 -1.41421 1.41421
    endloop
  endfacet
  facet normal 0 0.608767 -0.793349
    outer loop
      vertex 3.2338 -0.999999 1.73205
      vertex -3.14018e-16 -1.41421 1.41421
      vertex -3.84592e-16 -0.999999 1.73205
    endloop
  endfacet
  facet normal 0 -0.92388 0.382683
    outer loop
      vertex -2.29877e-16 -3.8637 1.03528
      vertex 1 -3.4641 2
      vertex -4.44089e-16 -3.4641 2
    endloop
  endfacet
  facet normal 0 -0.92388 0.382683
    outer loop
      vertex 1 -3.4641 2
      vertex -2.29877e-16 -3.8637 1.03528
      vertex 1 -3.8637 1.03528
    endloop
  endfacet
  facet normal 0 1 -0
    outer loop
      vertex 1 4 0
      vertex 0 4 0
      vertex 1 4 2.22045e-16
    endloop
  endfacet
  facet normal 0 0.92388 0.382683
    outer loop
      vertex 1 3.8637 1.03528
      vertex -4.44089e-16 3.4641 2
      vertex 1 3.4641 2
    endloop
  endfacet
  facet normal 0 0.92388 0.382683
    outer loop
      vertex -4.44089e-16 3.4641 2
      vertex 1 3.8637 1.03528
      vertex -2.29877e-16 3.8637 1.03528
    endloop
  endfacet
  facet normal -0 0.608757 0.793356
    outer loop
      vertex -6.28037e-16 2.82843 2.82843
      vertex 1 2 3.4641
      vertex 1 2.82843 2.82843
    endloop
  endfacet
  facet normal 0 0.608757 0.793356
    outer loop
      vertex 1 2 3.4641
      vertex -6.28037e-16 2.82843 2.82843
      vertex -7.69185e-16 2 3.4641
    endloop
  endfacet
  facet normal 0 0.793356 0.608757
    outer loop
      vertex 1 3.4641 2
      vertex -6.28037e-16 2.82843 2.82843
      vertex 1 2.82843 2.82843
    endloop
  endfacet
  facet normal 0 0.793356 0.608757
    outer loop
      vertex -6.28037e-16 2.82843 2.82843
      vertex 1 3.4641 2
      vertex -4.44089e-16 3.4641 2
    endloop
  endfacet
  facet normal 0 -0.793356 0.608757
    outer loop
      vertex -4.44089e-16 -3.4641 2
      vertex 1 -2.82843 2.82843
      vertex -6.28037e-16 -2.82843 2.82843
    endloop
  endfacet
  facet normal 0 -0.793356 0.608757
    outer loop
      vertex 1 -2.82843 2.82843
      vertex -4.44089e-16 -3.4641 2
      vertex 1 -3.4641 2
    endloop
  endfacet
  facet normal -0 0.130529 0.991445
    outer loop
      vertex -8.57914e-16 1.03528 3.8637
      vertex 1 0 4
      vertex 1 1.03528 3.8637
    endloop
  endfacet
  facet normal 0 0.130529 0.991445
    outer loop
      vertex 1 0 4
      vertex -8.57914e-16 1.03528 3.8637
      vertex -8.88178e-16 0 4
    endloop
  endfacet
  facet normal 0 0.991445 0.130529
    outer loop
      vertex 1 4 2.22045e-16
      vertex -2.29877e-16 3.8637 1.03528
      vertex 1 3.8637 1.03528
    endloop
  endfacet
  facet normal -2.65804e-17 0.991445 0.130529
    outer loop
      vertex -2.29877e-16 3.8637 1.03528
      vertex 1 4 2.22045e-16
      vertex 0 4 0
    endloop
  endfacet
  facet normal 0 -1 -0
    outer loop
      vertex 1 -4 2.22045e-16
      vertex 0 -4 0
      vertex 1 -4 0
    endloop
  endfacet
  facet normal 0 -0.991445 0.130529
    outer loop
      vertex -2.29877e-16 -3.8637 1.03528
      vertex 1 -4 2.22045e-16
      vertex 1 -3.8637 1.03528
    endloop
  endfacet
  facet normal -2.89833e-17 -0.991445 0.130529
    outer loop
      vertex 1 -4 2.22045e-16
      vertex -2.29877e-16 -3.8637 1.03528
      vertex 0 -4 0
    endloop
  endfacet
  facet normal 0 -0.608757 0.793356
    outer loop
      vertex 1 -2 3.4641
      vertex -6.28037e-16 -2.82843 2.82843
      vertex 1 -2.82843 2.82843
    endloop
  endfacet
  facet normal 0 -0.608757 0.793356
    outer loop
      vertex -6.28037e-16 -2.82843 2.82843
      vertex 1 -2 3.4641
      vertex -7.69185e-16 -2 3.4641
    endloop
  endfacet
  facet normal 0 -0.130529 0.991445
    outer loop
      vertex 1 0 4
      vertex -8.57914e-16 -1.03528 3.8637
      vertex 1 -1.03528 3.8637
    endloop
  endfacet
  facet normal 0 -0.130529 0.991445
    outer loop
      vertex -8.57914e-16 -1.03528 3.8637
      vertex 1 0 4
      vertex -8.88178e-16 0 4
    endloop
  endfacet
  facet normal 1 0 0
    outer loop
      vertex 1 3.8637 1.03528
      vertex 1 2.89778 0.776457
      vertex 1 3 2.22045e-16
    endloop
  endfacet
  facet normal 1 0 0
    outer loop
      vertex 1 2.59808 1.5
      vertex 1 3.4641 2
      vertex 1 2.82843 2.82843
    endloop
  endfacet
  facet normal 1 0 0
    outer loop
      vertex 1 3.4641 2
      vertex 1 2.59808 1.5
      vertex 1 2.89778 0.776457
    endloop
  endfacet
  facet normal 1 0 0
    outer loop
      vertex 1 2.82843 2.82843
      vertex 1 2.12132 2.12132
      vertex 1 2.59808 1.5
    endloop
  endfacet
  facet normal 1 0 0
    outer loop
      vertex 1 2 3.4641
      vertex 1 2.12132 2.12132
      vertex 1 2.82843 2.82843
    endloop
  endfacet
  facet normal 1 0 0
    outer loop
      vertex 1 2 3.4641
      vertex 1 1.5 2.59808
      vertex 1 2.12132 2.12132
    endloop
  endfacet
  facet normal 1 0 0
    outer loop
      vertex 1 1.03528 3.8637
      vertex 1 1.5 2.59808
      vertex 1 2 3.4641
    endloop
  endfacet
  facet normal 1 0 0
    outer loop
      vertex 1 1.03528 3.8637
      vertex 1 0.776457 2.89778
      vertex 1 1.5 2.59808
    endloop
  endfacet
  facet normal 1 0 0
    outer loop
      vertex 1 0 4
      vertex 1 0.776457 2.89778
      vertex 1 1.03528 3.8637
    endloop
  endfacet
  facet normal 1 0 0
    outer loop
      vertex 1 0 4
      vertex 1 0 3
      vertex 1 0.776457 2.89778
    endloop
  endfacet
  facet normal 1 0 0
    outer loop
      vertex 1 0 4
      vertex 1 -0.776457 2.89778
      vertex 1 0 3
    endloop
  endfacet
  facet normal 1 -0 0
    outer loop
      vertex 1 -1.03528 3.8637
      vertex 1 -0.776457 2.89778
      vertex 1 0 4
    endloop
  endfacet
  facet normal 1 0 0
    outer loop
      vertex 1 -1.03528 3.8637
      vertex 1 -1.5 2.59808
      vertex 1 -0.776457 2.89778
    endloop
  endfacet
  facet normal 1 -0 0
    outer loop
      vertex 1 -2 3.4641
      vertex 1 -1.5 2.59808
      vertex 1 -1.03528 3.8637
    endloop
  endfacet
  facet normal 1 0 0
    outer loop
      vertex 1 -2 3.4641
      vertex 1 -2.12132 2.12132
      vertex 1 -1.5 2.59808
    endloop
  endfacet
  facet normal 1 -0 0
    outer loop
      vertex 1 -2.82843 2.82843
      vertex 1 -2.12132 2.12132
      vertex 1 -2 3.4641
    endloop
  endfacet
  facet normal 1 0 0
    outer loop
      vertex 1 -2.12132 2.12132
      vertex 1 -2.82843 2.82843
      vertex 1 -2.59808 1.5
    endloop
  endfacet
  facet normal 1 -0 0
    outer loop
      vertex 1 -3.4641 2
      vertex 1 -2.59808 1.5
      vertex 1 -2.82843 2.82843
    endloop
  endfacet
  facet normal 1 0 0
    outer loop
      vertex 1 -2.59808 1.5
      vertex 1 -3.4641 2
      vertex 1 -2.89778 0.776457
    endloop
  endfacet
  facet normal 1 -0 0
    outer loop
      vertex 1 -3.8637 1.03528
      vertex 1 -2.89778 0.776457
      vertex 1 -3.4641 2
    endloop
  endfacet
  facet normal 1 0 0
    outer loop
      vertex 1 -2.89778 0.776457
      vertex 1 -3.8637 1.03528
      vertex 1 -3 2.22045e-16
    endloop
  endfacet
  facet normal 1 0 0
    outer loop
      vertex 1 -4 2.22045e-16
      vertex 1 -3 2.22045e-16
      vertex 1 -3.8637 1.03528
    endloop
  endfacet
  facet normal 1 0 0
    outer loop
      vertex 1 -3 2.22045e-16
      vertex 1 -4 2.22045e-16
      vertex 1 -3 0
    endloop
  endfacet
  facet normal 1 0 0
    outer loop
      vertex 1 -3 0
      vertex 1 -4 2.22045e-16
      vertex 1 -4 0
    endloop
  endfacet
  facet normal 1 0 0
    outer loop
      vertex 1 3 2.22045e-16
      vertex 1 4 2.22045e-16
      vertex 1 3.8637 1.03528
    endloop
  endfacet
  facet normal 1 0 0
    outer loop
      vertex 1 2.89778 0.776457
      vertex 1 3.8637 1.03528
      vertex 1 3.4641 2
    endloop
  endfacet
  facet normal 1 0 0
    outer loop
      vertex 1 4 2.22045e-16
      vertex 1 3 2.22045e-16
      vertex 1 4 0
    endloop
  endfacet
  facet normal 1 0 0
    outer loop
      vertex 1 4 0
      vertex 1 3 2.22045e-16
      vertex 1 3 0
    endloop
  endfacet
  facet normal -0 0.382683 0.92388
    outer loop
      vertex -7.69185e-16 2 3.4641
      vertex 1 1.03528 3.8637
      vertex 1 2 3.4641
    endloop
  endfacet
  facet normal 0 0.382683 0.92388
    outer loop
      vertex 1 1.03528 3.8637
      vertex -7.69185e-16 2 3.4641
      vertex -8.57914e-16 1.03528 3.8637
    endloop
  endfacet
  facet normal 0 -0.382683 0.92388
    outer loop
      vertex 1 -1.03528 3.8637
      vertex -7.69185e-16 -2 3.4641
      vertex 1 -2 3.4641
    endloop
  endfacet
  facet normal 0 -0.382683 0.92388
    outer loop
      vertex -7.69185e-16 -2 3.4641
      vertex 1 -1.03528 3.8637
      vertex -8.57914e-16 -1.03528 3.8637
    endloop
  endfacet
  facet normal -0 0.382683 0.92388
    outer loop
      vertex 2.2338 2 3.4641
      vertex 3.2338 1.03528 3.8637
      vertex 3.2338 2 3.4641
    endloop
  endfacet
  facet normal 0 0.382683 0.92388
    outer loop
      vertex 3.2338 1.03528 3.8637
      vertex 2.2338 2 3.4641
      vertex 2.2338 1.03528 3.8637
    endloop
  endfacet
  facet normal 0 -0.92388 0.382683
    outer loop
      vertex 2.2338 -3.8637 1.03528
      vertex 3.2338 -3.4641 2
      vertex 2.2338 -3.4641 2
    endloop
  endfacet
  facet normal 0 -0.92388 0.382683
    outer loop
      vertex 3.2338 -3.4641 2
      vertex 2.2338 -3.8637 1.03528
      vertex 3.2338 -3.8637 1.03528
    endloop
  endfacet
  facet normal 0 1 -0
    outer loop
      vertex 3.2338 4 0
      vertex 2.2338 4 4.96003e-16
      vertex 3.2338 4 7.18048e-16
    endloop
  endfacet
  facet normal 0 1 0
    outer loop
      vertex 2.2338 4 4.96003e-16
      vertex 3.2338 4 0
      vertex 2.2338 4 0
    endloop
  endfacet
  facet normal 0 0.92388 0.382683
    outer loop
      vertex 3.2338 3.8637 1.03528
      vertex 2.2338 3.4641 2
      vertex 3.2338 3.4641 2
    endloop
  endfacet
  facet normal 0 0.92388 0.382683
    outer loop
      vertex 2.2338 3.4641 2
      vertex 3.2338 3.8637 1.03528
      vertex 2.2338 3.8637 1.03528
    endloop
  endfacet
  facet normal 0 0.793356 0.608757
    outer loop
      vertex 3.2338 3.4641 2
      vertex 2.2338 2.82843 2.82843
      vertex 3.2338 2.82843 2.82843
    endloop
  endfacet
  facet normal 0 0.793356 0.608757
    outer loop
      vertex 2.2338 2.82843 2.82843
      vertex 3.2338 3.4641 2
      vertex 2.2338 3.4641 2
    endloop
  endfacet
  facet normal 0 -0.793356 0.608757
    outer loop
      vertex 2.2338 -3.4641 2
      vertex 3.2338 -2.82843 2.82843
      vertex 2.2338 -2.82843 2.82843
    endloop
  endfacet
  facet normal 0 -0.793356 0.608757
    outer loop
      vertex 3.2338 -2.82843 2.82843
      vertex 2.2338 -3.4641 2
      vertex 3.2338 -3.4641 2
    endloop
  endfacet
  facet normal -1 0 0
    outer loop
      vertex 2.2338 -4 4.96003e-16
      vertex 2.2338 -3 4.96003e-16
      vertex 2.2338 -3 0
    endloop
  endfacet
  facet normal -1 0 0
    outer loop
      vertex 2.2338 -3 4.96003e-16
      vertex 2.2338 -3.8637 1.03528
      vertex 2.2338 -3.4641 2
    endloop
  endfacet
  facet normal -1 0 0
    outer loop
      vertex 2.2338 -4 4.96003e-16
      vertex 2.2338 -3 0
      vertex 2.2338 -4 0
    endloop
  endfacet
  facet normal -1 0 0
    outer loop
      vertex 2.2338 -3 4.96003e-16
      vertex 2.2338 -4 4.96003e-16
      vertex 2.2338 -3.8637 1.03528
    endloop
  endfacet
  facet normal -1 0 0
    outer loop
      vertex 2.2338 3 4.96003e-16
      vertex 2.2338 4 4.96003e-16
      vertex 2.2338 4 0
    endloop
  endfacet
  facet normal -1 0 0
    outer loop
      vertex 2.2338 4 4.96003e-16
      vertex 2.2338 2.89778 0.776457
      vertex 2.2338 3.8637 1.03528
    endloop
  endfacet
  facet normal -1 0 0
    outer loop
      vertex 2.2338 3 4.96003e-16
      vertex 2.2338 4 0
      vertex 2.2338 3 0
    endloop
  endfacet
  facet normal -1 0 0
    outer loop
      vertex 2.2338 4 4.96003e-16
      vertex 2.2338 3 4.96003e-16
      vertex 2.2338 2.89778 0.776457
    endloop
  endfacet
  facet normal -1 -0 0
    outer loop
      vertex 2.2338 3.8637 1.03528
      vertex 2.2338 2.89778 0.776457
      vertex 2.2338 3.4641 2
    endloop
  endfacet
  facet normal -1 0 0
    outer loop
      vertex 2.2338 2.59808 1.5
      vertex 2.2338 3.4641 2
      vertex 2.2338 2.89778 0.776457
    endloop
  endfacet
  facet normal -1 -0 0
    outer loop
      vertex 2.2338 3.4641 2
      vertex 2.2338 2.59808 1.5
      vertex 2.2338 2.82843 2.82843
    endloop
  endfacet
  facet normal -1 0 0
    outer loop
      vertex 2.2338 2.12132 2.12132
      vertex 2.2338 2.82843 2.82843
      vertex 2.2338 2.59808 1.5
    endloop
  endfacet
  facet normal -1 0 0
    outer loop
      vertex 2.2338 2.12132 2.12132
      vertex 2.2338 2 3.4641
      vertex 2.2338 2.82843 2.82843
    endloop
  endfacet
  facet normal -1 0 0
    outer loop
      vertex 2.2338 1.5 2.59808
      vertex 2.2338 2 3.4641
      vertex 2.2338 2.12132 2.12132
    endloop
  endfacet
  facet normal -1 0 0
    outer loop
      vertex 2.2338 1.5 2.59808
      vertex 2.2338 1.03528 3.8637
      vertex 2.2338 2 3.4641
    endloop
  endfacet
  facet normal -1 0 0
    outer loop
      vertex 2.2338 0.776457 2.89778
      vertex 2.2338 1.03528 3.8637
      vertex 2.2338 1.5 2.59808
    endloop
  endfacet
  facet normal -1 0 0
    outer loop
      vertex 2.2338 0 3
      vertex 2.2338 1.03528 3.8637
      vertex 2.2338 0.776457 2.89778
    endloop
  endfacet
  facet normal -1 0 0
    outer loop
      vertex 2.2338 0 3
      vertex 2.2338 0 4
      vertex 2.2338 1.03528 3.8637
    endloop
  endfacet
  facet normal -1 0 0
    outer loop
      vertex 2.2338 -0.776457 2.89778
      vertex 2.2338 0 4
      vertex 2.2338 0 3
    endloop
  endfacet
  facet normal -1 0 0
    outer loop
      vertex 2.2338 -0.776457 2.89778
      vertex 2.2338 -1.03528 3.8637
      vertex 2.2338 0 4
    endloop
  endfacet
  facet normal -1 0 0
    outer loop
      vertex 2.2338 -1.5 2.59808
      vertex 2.2338 -1.03528 3.8637
      vertex 2.2338 -0.776457 2.89778
    endloop
  endfacet
  facet normal -1 0 0
    outer loop
      vertex 2.2338 -1.5 2.59808
      vertex 2.2338 -2 3.4641
      vertex 2.2338 -1.03528 3.8637
    endloop
  endfacet
  facet normal -1 0 0
    outer loop
      vertex 2.2338 -2.12132 2.12132
      vertex 2.2338 -2 3.4641
      vertex 2.2338 -1.5 2.59808
    endloop
  endfacet
  facet normal -1 0 0
    outer loop
      vertex 2.2338 -2.82843 2.82843
      vertex 2.2338 -2.12132 2.12132
      vertex 2.2338 -2.59808 1.5
    endloop
  endfacet
  facet normal -1 0 0
    outer loop
      vertex 2.2338 -2.12132 2.12132
      vertex 2.2338 -2.82843 2.82843
      vertex 2.2338 -2 3.4641
    endloop
  endfacet
  facet normal -1 0 0
    outer loop
      vertex 2.2338 -3.4641 2
      vertex 2.2338 -2.59808 1.5
      vertex 2.2338 -2.89778 0.776457
    endloop
  endfacet
  facet normal -1 0 0
    outer loop
      vertex 2.2338 -3.4641 2
      vertex 2.2338 -2.89778 0.776457
      vertex 2.2338 -3 4.96003e-16
    endloop
  endfacet
  facet normal -1 0 0
    outer loop
      vertex 2.2338 -2.59808 1.5
      vertex 2.2338 -3.4641 2
      vertex 2.2338 -2.82843 2.82843
    endloop
  endfacet
  facet normal -0 0.130529 0.991445
    outer loop
      vertex 2.2338 1.03528 3.8637
      vertex 3.2338 0 4
      vertex 3.2338 1.03528 3.8637
    endloop
  endfacet
  facet normal 0 0.130529 0.991445
    outer loop
      vertex 3.2338 0 4
      vertex 2.2338 1.03528 3.8637
      vertex 2.2338 0 4
    endloop
  endfacet
  facet normal -0 0.608757 0.793356
    outer loop
      vertex 2.2338 2.82843 2.82843
      vertex 3.2338 2 3.4641
      vertex 3.2338 2.82843 2.82843
    endloop
  endfacet
  facet normal 0 0.608757 0.793356
    outer loop
      vertex 3.2338 2 3.4641
      vertex 2.2338 2.82843 2.82843
      vertex 2.2338 2 3.4641
    endloop
  endfacet
  facet normal 0 0.991445 0.130529
    outer loop
      vertex 3.2338 4 7.18048e-16
      vertex 2.2338 3.8637 1.03528
      vertex 3.2338 3.8637 1.03528
    endloop
  endfacet
  facet normal -2.65804e-17 0.991445 0.130529
    outer loop
      vertex 2.2338 3.8637 1.03528
      vertex 3.2338 4 7.18048e-16
      vertex 2.2338 4 4.96003e-16
    endloop
  endfacet
  facet normal 0 -1 0
    outer loop
      vertex 2.2338 -4 0
      vertex 3.2338 -4 7.18048e-16
      vertex 2.2338 -4 4.96003e-16
    endloop
  endfacet
  facet normal 0 -1 -0
    outer loop
      vertex 3.2338 -4 7.18048e-16
      vertex 2.2338 -4 0
      vertex 3.2338 -4 0
    endloop
  endfacet
  facet normal 0 -0.991445 0.130529
    outer loop
      vertex 2.2338 -3.8637 1.03528
      vertex 3.2338 -4 7.18048e-16
      vertex 3.2338 -3.8637 1.03528
    endloop
  endfacet
  facet normal -2.89833e-17 -0.991445 0.130529
    outer loop
      vertex 3.2338 -4 7.18048e-16
      vertex 2.2338 -3.8637 1.03528
      vertex 2.2338 -4 4.96003e-16
    endloop
  endfacet
  facet normal 0 -0.608757 0.793356
    outer loop
      vertex 2.2338 -2 3.4641
      vertex 3.2338 -2.82843 2.82843
      vertex 3.2338 -2 3.4641
    endloop
  endfacet
  facet normal 0 -0.608757 0.793356
    outer loop
      vertex 3.2338 -2.82843 2.82843
      vertex 2.2338 -2 3.4641
      vertex 2.2338 -2.82843 2.82843
    endloop
  endfacet
  facet normal 0 -0.130529 0.991445
    outer loop
      vertex 2.2338 0 4
      vertex 3.2338 -1.03528 3.8637
      vertex 3.2338 0 4
    endloop
  endfacet
  facet normal 0 -0.130529 0.991445
    outer loop
      vertex 3.2338 -1.03528 3.8637
      vertex 2.2338 0 4
      vertex 2.2338 -1.03528 3.8637
    endloop
  endfacet
  facet normal 1 0 0
    outer loop
      vertex 3.2338 1.41421 1.41421
      vertex 3.2338 2.82843 2.82843
      vertex 3.2338 2 3.4641
    endloop
  endfacet
  facet normal 1 0 0
    outer loop
      vertex 3.2338 2.82843 2.82843
      vertex 3.2338 1.93185 0.517637
      vertex 3.2338 2 7.18048e-16
    endloop
  endfacet
  facet normal 1 0 0
    outer loop
      vertex 3.2338 2.82843 2.82843
      vertex 3.2338 1.73205 0.999999
      vertex 3.2338 1.93185 0.517637
    endloop
  endfacet
  facet normal 1 0 0
    outer loop
      vertex 3.2338 2.82843 2.82843
      vertex 3.2338 1.41421 1.41421
      vertex 3.2338 1.73205 0.999999
    endloop
  endfacet
  facet normal 1 0 0
    outer loop
      vertex 3.2338 0.999999 1.73205
      vertex 3.2338 2 3.4641
      vertex 3.2338 1.03528 3.8637
    endloop
  endfacet
  facet normal 1 0 0
    outer loop
      vertex 3.2338 2 3.4641
      vertex 3.2338 0.999999 1.73205
      vertex 3.2338 1.41421 1.41421
    endloop
  endfacet
  facet normal 1 0 0
    outer loop
      vertex 3.2338 1.03528 3.8637
      vertex 3.2338 0.517637 1.93185
      vertex 3.2338 0.999999 1.73205
    endloop
  endfacet
  facet normal 1 0 0
    outer loop
      vertex 3.2338 0 4
      vertex 3.2338 0.517637 1.93185
      vertex 3.2338 1.03528 3.8637
    endloop
  endfacet
  facet normal 1 0 0
    outer loop
      vertex 3.2338 0 4
      vertex 3.2338 0 2
      vertex 3.2338 0.517637 1.93185
    endloop
  endfacet
  facet normal 1 0 0
    outer loop
      vertex 3.2338 0 4
      vertex 3.2338 -0.517637 1.93185
      vertex 3.2338 0 2
    endloop
  endfacet
  facet normal 1 -0 0
    outer loop
      vertex 3.2338 -1.03528 3.8637
      vertex 3.2338 -0.517637 1.93185
      vertex 3.2338 0 4
    endloop
  endfacet
  facet normal 1 0 0
    outer loop
      vertex 3.2338 -0.517637 1.93185
      vertex 3.2338 -1.03528 3.8637
      vertex 3.2338 -0.999999 1.73205
    endloop
  endfacet
  facet normal 1 -0 0
    outer loop
      vertex 3.2338 -2 3.4641
      vertex 3.2338 -0.999999 1.73205
      vertex 3.2338 -1.03528 3.8637
    endloop
  endfacet
  facet normal 1 0 0
    outer loop
      vertex 3.2338 -0.999999 1.73205
      vertex 3.2338 -2 3.4641
      vertex 3.2338 -1.41421 1.41421
    endloop
  endfacet
  facet normal 1 -0 0
    outer loop
      vertex 3.2338 -2.82843 2.82843
      vertex 3.2338 -1.41421 1.41421
      vertex 3.2338 -2 3.4641
    endloop
  endfacet
  facet normal 1 0 0
    outer loop
      vertex 3.2338 -1.41421 1.41421
      vertex 3.2338 -2.82843 2.82843
      vertex 3.2338 -1.73205 1
    endloop
  endfacet
  facet normal 1 -0 0
    outer loop
      vertex 3.2338 -3.4641 2
      vertex 3.2338 -1.73205 1
      vertex 3.2338 -2.82843 2.82843
    endloop
  endfacet
  facet normal 1 0 0
    outer loop
      vertex 3.2338 -1.73205 1
      vertex 3.2338 -3.4641 2
      vertex 3.2338 -1.93185 0.517637
    endloop
  endfacet
  facet normal 1 -0 0
    outer loop
      vertex 3.2338 -3.8637 1.03528
      vertex 3.2338 -1.93185 0.517637
      vertex 3.2338 -3.4641 2
    endloop
  endfacet
  facet normal 1 0 0
    outer loop
      vertex 3.2338 -1.93185 0.517637
      vertex 3.2338 -3.8637 1.03528
      vertex 3.2338 -2 7.18048e-16
    endloop
  endfacet
  facet normal 1 0 0
    outer loop
      vertex 3.2338 -4 7.18048e-16
      vertex 3.2338 -2 7.18048e-16
      vertex 3.2338 -3.8637 1.03528
    endloop
  endfacet
  facet normal 1 0 0
    outer loop
      vertex 3.2338 -2 7.18048e-16
      vertex 3.2338 -4 7.18048e-16
      vertex 3.2338 -2 0
    endloop
  endfacet
  facet normal 1 0 0
    outer loop
      vertex 3.2338 -2 0
      vertex 3.2338 -4 7.18048e-16
      vertex 3.2338 -4 0
    endloop
  endfacet
  facet normal 1 0 0
    outer loop
      vertex 3.2338 2 7.18048e-16
      vertex 3.2338 4 7.18048e-16
      vertex 3.2338 3.8637 1.03528
    endloop
  endfacet
  facet normal 1 0 0
    outer loop
      vertex 3.2338 2 7.18048e-16
      vertex 3.2338 3.8637 1.03528
      vertex 3.2338 3.4641 2
    endloop
  endfacet
  facet normal 1 0 0
    outer loop
      vertex 3.2338 2 7.18048e-16
      vertex 3.2338 3.4641 2
      vertex 3.2338 2.82843 2.82843
    endloop
  endfacet
  facet normal 1 0 0
    outer loop
      vertex 3.2338 4 7.18048e-16
      vertex 3.2338 2 7.18048e-16
      vertex 3.2338 4 0
    endloop
  endfacet
  facet normal 1 0 0
    outer loop
      vertex 3.2338 4 0
      vertex 3.2338 2 7.18048e-16
      vertex 3.2338 2 0
    endloop
  endfacet
  facet normal 0 -0.382683 0.92388
    outer loop
      vertex 2.2338 -1.03528 3.8637
      vertex 3.2338 -2 3.4641
      vertex 3.2338 -1.03528 3.8637
    endloop
  endfacet
  facet normal 0 -0.382683 0.92388
    outer loop
      vertex 3.2338 -2 3.4641
      vertex 2.2338 -1.03528 3.8637
      vertex 2.2338 -2 3.4641
    endloop
  endfacet
  facet normal 0 0 -1
    outer loop
      vertex 3.2338 2 0
      vertex 2.2338 3 0
      vertex 3.2338 4 0
    endloop
  endfacet
  facet normal 0 0 -1
    outer loop
      vertex 3.2338 2 0
      vertex 1 3 0
      vertex 2.2338 3 0
    endloop
  endfacet
  facet normal 0 0 -1
    outer loop
      vertex 0 2 0
      vertex 1 3 0
      vertex 3.2338 2 0
    endloop
  endfacet
  facet normal 0 0 -1
    outer loop
      vertex 0 4 0
      vertex 1 3 0
      vertex 0 2 0
    endloop
  endfacet
  facet normal 0 0 -1
    outer loop
      vertex 1 3 0
      vertex 0 4 0
      vertex 1 4 0
    endloop
  endfacet
  facet normal -0 0 -1
    outer loop
      vertex 3.2338 4 0
      vertex 2.2338 3 0
      vertex 2.2338 4 0
    endloop
  endfacet
  facet normal 0 0 -1
    outer loop
      vertex 1 -4 0
      vertex 0 -4 0
      vertex 1 -3 0
    endloop
  endfacet
  facet normal 0 0 -1
    outer loop
      vertex 2.2338 -3 0
      vertex 3.2338 -4 0
      vertex 2.2338 -4 0
    endloop
  endfacet
  facet normal 0 0 -1
    outer loop
      vertex 3.2338 -4 0
      vertex 2.2338 -3 0
      vertex 3.2338 -2 0
    endloop
  endfacet
  facet normal 0 0 -1
    outer loop
      vertex 1 -3 0
      vertex 3.2338 -2 0
      vertex 2.2338 -3 0
    endloop
  endfacet
  facet normal 0 0 -1
    outer loop
      vertex 1 -3 0
      vertex 0 -2 0
      vertex 3.2338 -2 0
    endloop
  endfacet
  facet normal 0 0 -1
    outer loop
      vertex 0 -2 0
      vertex 1 -3 0
      vertex 0 -4 0
    endloop
  endfacet
endsolid OpenSCAD_Model
