solid OpenSCAD_Model
  facet normal -0 0.13053 0.991444
    outer loop
      vertex 1 1.55291 5.79555
      vertex 24.451 0 6
      vertex 24.451 1.55291 5.79555
    endloop
  endfacet
  facet normal 0 0.13053 0.991444
    outer loop
      vertex 24.451 0 6
      vertex 1 1.55291 5.79555
      vertex 1 0 6
    endloop
  endfacet
  facet normal 0 1 -0
    outer loop
      vertex 24.451 6 0
      vertex 1 6 2.22045e-16
      vertex 24.451 6 5.42921e-15
    endloop
  endfacet
  facet normal 0 1 0
    outer loop
      vertex 1 6 2.22045e-16
      vertex 24.451 6 0
      vertex 1 6 0
    endloop
  endfacet
  facet normal 0 -0.991444 0.13053
    outer loop
      vertex 1 -5.79555 1.55291
      vertex 24.451 -6 5.42921e-15
      vertex 24.451 -5.79555 1.55291
    endloop
  endfacet
  facet normal -2.89834e-17 -0.991444 0.13053
    outer loop
      vertex 24.451 -6 5.42921e-15
      vertex 1 -5.79555 1.55291
      vertex 1 -6 2.22045e-16
    endloop
  endfacet
  facet normal 0 0.793354 0.608761
    outer loop
      vertex 24.451 5.19615 3
      vertex 1 4.24264 4.24264
      vertex 24.451 4.24264 4.24264
    endloop
  endfacet
  facet normal 0 0.793354 0.608761
    outer loop
      vertex 1 4.24264 4.24264
      vertex 24.451 5.19615 3
      vertex 1 5.19615 3
    endloop
  endfacet
  facet normal -0 0.608761 0.793354
    outer loop
      vertex 1 4.24264 4.24264
      vertex 24.451 3 5.19615
      vertex 24.451 4.24264 4.24264
    endloop
  endfacet
  facet normal 0 0.608761 0.793354
    outer loop
      vertex 24.451 3 5.19615
      vertex 1 4.24264 4.24264
      vertex 1 3 5.19615
    endloop
  endfacet
  facet normal 0 0.923881 0.382681
    outer loop
      vertex 24.451 5.79555 1.55291
      vertex 1 5.19615 3
      vertex 24.451 5.19615 3
    endloop
  endfacet
  facet normal 0 0.923881 0.382681
    outer loop
      vertex 1 5.19615 3
      vertex 24.451 5.79555 1.55291
      vertex 1 5.79555 1.55291
    endloop
  endfacet
  facet normal 0 -0.793354 0.608761
    outer loop
      vertex 1 -5.19615 3
      vertex 24.451 -4.24264 4.24264
      vertex 1 -4.24264 4.24264
    endloop
  endfacet
  facet normal 0 -0.793354 0.608761
    outer loop
      vertex 24.451 -4.24264 4.24264
      vertex 1 -5.19615 3
      vertex 24.451 -5.19615 3
    endloop
  endfacet
  facet normal -1 -8.64448e-22 -2.22045e-16
    outer loop
      vertex -2.87347e-16 4.82963 1.2941
      vertex -4.02286e-16 6.76148 1.81173
      vertex 0 7 0
    endloop
  endfacet
  facet normal -1 0 -2.22044e-16
    outer loop
      vertex -2.87347e-16 4.82963 1.2941
      vertex 0 7 0
      vertex 0 5 0
    endloop
  endfacet
  facet normal -1 -1.13356e-21 -2.22044e-16
    outer loop
      vertex -4.02286e-16 6.76148 1.81173
      vertex -2.87347e-16 4.82963 1.2941
      vertex -7.77156e-16 6.06218 3.5
    endloop
  endfacet
  facet normal -1 -2.53074e-23 -2.22045e-16
    outer loop
      vertex -5.55111e-16 4.33013 2.5
      vertex -7.77156e-16 6.06218 3.5
      vertex -2.87347e-16 4.82963 1.2941
    endloop
  endfacet
  facet normal -1 -1.58377e-21 -2.22042e-16
    outer loop
      vertex -7.77156e-16 6.06218 3.5
      vertex -5.55111e-16 4.33013 2.5
      vertex -1.09906e-15 4.94975 4.94975
    endloop
  endfacet
  facet normal -1 2.99755e-21 -2.22043e-16
    outer loop
      vertex -7.85046e-16 3.53553 3.53553
      vertex -1.09906e-15 4.94975 4.94975
      vertex -5.55111e-16 4.33013 2.5
    endloop
  endfacet
  facet normal -1 2.17696e-21 -2.22043e-16
    outer loop
      vertex -7.85046e-16 3.53553 3.53553
      vertex -1.34607e-15 3.5 6.06218
      vertex -1.09906e-15 4.94975 4.94975
    endloop
  endfacet
  facet normal -1 -6.86387e-23 -2.22043e-16
    outer loop
      vertex -9.61481e-16 2.5 4.33013
      vertex -1.34607e-15 3.5 6.06218
      vertex -7.85046e-16 3.53553 3.53553
    endloop
  endfacet
  facet normal -1 2.65941e-21 -2.22044e-16
    outer loop
      vertex -9.61481e-16 2.5 4.33013
      vertex -1.50135e-15 1.81173 6.76148
      vertex -1.34607e-15 3.5 6.06218
    endloop
  endfacet
  facet normal -1 -2.30601e-21 -2.22046e-16
    outer loop
      vertex -1.07239e-15 1.2941 4.82963
      vertex -1.50135e-15 1.81173 6.76148
      vertex -9.61481e-16 2.5 4.33013
    endloop
  endfacet
  facet normal -1 -1.14752e-23 -2.22046e-16
    outer loop
      vertex -1.11022e-15 0 5
      vertex -1.50135e-15 1.81173 6.76148
      vertex -1.07239e-15 1.2941 4.82963
    endloop
  endfacet
  facet normal -1 -1.19963e-21 -2.22045e-16
    outer loop
      vertex -1.11022e-15 0 5
      vertex -1.55431e-15 0 7
      vertex -1.50135e-15 1.81173 6.76148
    endloop
  endfacet
  facet normal -1 -1.49409e-22 -2.22045e-16
    outer loop
      vertex -1.07239e-15 -1.2941 4.82963
      vertex -1.55431e-15 0 7
      vertex -1.11022e-15 0 5
    endloop
  endfacet
  facet normal -1 1.31455e-21 -2.22046e-16
    outer loop
      vertex -1.07239e-15 -1.2941 4.82963
      vertex -1.50135e-15 -1.81173 6.76148
      vertex -1.55431e-15 0 7
    endloop
  endfacet
  facet normal -1 2.30601e-21 -2.22046e-16
    outer loop
      vertex -9.61481e-16 -2.5 4.33013
      vertex -1.50135e-15 -1.81173 6.76148
      vertex -1.07239e-15 -1.2941 4.82963
    endloop
  endfacet
  facet normal -1 -2.65941e-21 -2.22044e-16
    outer loop
      vertex -9.61481e-16 -2.5 4.33013
      vertex -1.34607e-15 -3.5 6.06218
      vertex -1.50135e-15 -1.81173 6.76148
    endloop
  endfacet
  facet normal -1 6.86387e-23 -2.22043e-16
    outer loop
      vertex -7.85046e-16 -3.53553 3.53553
      vertex -1.34607e-15 -3.5 6.06218
      vertex -9.61481e-16 -2.5 4.33013
    endloop
  endfacet
  facet normal -1 -2.45114e-21 -2.22043e-16
    outer loop
      vertex -1.09906e-15 -4.94975 4.94975
      vertex -7.85046e-16 -3.53553 3.53553
      vertex -5.55112e-16 -4.33013 2.5
    endloop
  endfacet
  facet normal -1 -8.26991e-22 -2.22045e-16
    outer loop
      vertex -7.77156e-16 -6.06218 3.5
      vertex -5.55112e-16 -4.33013 2.5
      vertex -2.87347e-16 -4.82963 1.2941
    endloop
  endfacet
  facet normal -1 -2.17696e-21 -2.22043e-16
    outer loop
      vertex -7.85046e-16 -3.53553 3.53553
      vertex -1.09906e-15 -4.94975 4.94975
      vertex -1.34607e-15 -3.5 6.06218
    endloop
  endfacet
  facet normal -1 1.21022e-21 -2.22044e-16
    outer loop
      vertex -4.02286e-16 -6.76148 1.81173
      vertex -2.87347e-16 -4.82963 1.2941
      vertex 0 -5 0
    endloop
  endfacet
  facet normal -1 1.18367e-21 -2.22042e-16
    outer loop
      vertex -5.55112e-16 -4.33013 2.5
      vertex -7.77156e-16 -6.06218 3.5
      vertex -1.09906e-15 -4.94975 4.94975
    endloop
  endfacet
  facet normal -1 1.13356e-21 -2.22044e-16
    outer loop
      vertex -2.87347e-16 -4.82963 1.2941
      vertex -4.02286e-16 -6.76148 1.81173
      vertex -7.77156e-16 -6.06218 3.5
    endloop
  endfacet
  facet normal -1 0 -2.22045e-16
    outer loop
      vertex -4.02286e-16 -6.76148 1.81173
      vertex 0 -5 0
      vertex 0 -7 0
    endloop
  endfacet
  facet normal -0 0.382681 0.923881
    outer loop
      vertex 1 3 5.19615
      vertex 24.451 1.55291 5.79555
      vertex 24.451 3 5.19615
    endloop
  endfacet
  facet normal 0 0.382681 0.923881
    outer loop
      vertex 24.451 1.55291 5.79555
      vertex 1 3 5.19615
      vertex 1 1.55291 5.79555
    endloop
  endfacet
  facet normal 0 0.991444 0.13053
    outer loop
      vertex 24.451 6 5.42921e-15
      vertex 1 5.79555 1.55291
      vertex 24.451 5.79555 1.55291
    endloop
  endfacet
  facet normal -2.72028e-17 0.991444 0.13053
    outer loop
      vertex 1 5.79555 1.55291
      vertex 24.451 6 5.42921e-15
      vertex 1 6 2.22045e-16
    endloop
  endfacet
  facet normal 0 -1 0
    outer loop
      vertex 1 -6 0
      vertex 24.451 -6 5.42921e-15
      vertex 1 -6 2.22045e-16
    endloop
  endfacet
  facet normal 0 -1 -0
    outer loop
      vertex 24.451 -6 5.42921e-15
      vertex 1 -6 0
      vertex 24.451 -6 0
    endloop
  endfacet
  facet normal 0 -0.923881 0.382681
    outer loop
      vertex 1 -5.79555 1.55291
      vertex 24.451 -5.19615 3
      vertex 1 -5.19615 3
    endloop
  endfacet
  facet normal 0 -0.923881 0.382681
    outer loop
      vertex 24.451 -5.19615 3
      vertex 1 -5.79555 1.55291
      vertex 24.451 -5.79555 1.55291
    endloop
  endfacet
  facet normal 0 -0.608761 0.793354
    outer loop
      vertex 1 -3 5.19615
      vertex 24.451 -4.24264 4.24264
      vertex 24.451 -3 5.19615
    endloop
  endfacet
  facet normal 0 -0.608761 0.793354
    outer loop
      vertex 24.451 -4.24264 4.24264
      vertex 1 -3 5.19615
      vertex 1 -4.24264 4.24264
    endloop
  endfacet
  facet normal 0 -0.13053 0.991444
    outer loop
      vertex 1 0 6
      vertex 24.451 -1.55291 5.79555
      vertex 24.451 0 6
    endloop
  endfacet
  facet normal 0 -0.13053 0.991444
    outer loop
      vertex 24.451 -1.55291 5.79555
      vertex 1 0 6
      vertex 1 -1.55291 5.79555
    endloop
  endfacet
  facet normal 0 -0.382681 0.923881
    outer loop
      vertex 1 -1.55291 5.79555
      vertex 24.451 -3 5.19615
      vertex 24.451 -1.55291 5.79555
    endloop
  endfacet
  facet normal 0 -0.382681 0.923881
    outer loop
      vertex 24.451 -3 5.19615
      vertex 1 -1.55291 5.79555
      vertex 1 -3 5.19615
    endloop
  endfacet
  facet normal 0 -0.130525 -0.991445
    outer loop
      vertex 25.451 0 5
      vertex -1.07239e-15 1.2941 4.82963
      vertex 25.451 1.2941 4.82963
    endloop
  endfacet
  facet normal 0 -0.130525 -0.991445
    outer loop
      vertex -1.07239e-15 1.2941 4.82963
      vertex 25.451 0 5
      vertex -1.11022e-15 0 5
    endloop
  endfacet
  facet normal 0 -1 0
    outer loop
      vertex 25.451 5 0
      vertex 25.451 5 5.65126e-15
      vertex 0 5 0
    endloop
  endfacet
  facet normal 0 0.991445 -0.130525
    outer loop
      vertex 25.451 -5 5.65126e-15
      vertex -2.87347e-16 -4.82963 1.2941
      vertex 25.451 -4.82963 1.2941
    endloop
  endfacet
  facet normal 2.8407e-17 0.991445 -0.130525
    outer loop
      vertex -2.87347e-16 -4.82963 1.2941
      vertex 25.451 -5 5.65126e-15
      vertex 0 -5 0
    endloop
  endfacet
  facet normal 0 0.608766 -0.79335
    outer loop
      vertex -7.85046e-16 -3.53553 3.53553
      vertex 25.451 -2.5 4.33013
      vertex 25.451 -3.53553 3.53553
    endloop
  endfacet
  facet normal 0 0.608766 -0.79335
    outer loop
      vertex 25.451 -2.5 4.33013
      vertex -7.85046e-16 -3.53553 3.53553
      vertex -9.61481e-16 -2.5 4.33013
    endloop
  endfacet
  facet normal 0 -0.79335 -0.608766
    outer loop
      vertex -5.55111e-16 4.33013 2.5
      vertex 25.451 3.53553 3.53553
      vertex -7.85046e-16 3.53553 3.53553
    endloop
  endfacet
  facet normal 0 -0.79335 -0.608766
    outer loop
      vertex 25.451 3.53553 3.53553
      vertex -5.55111e-16 4.33013 2.5
      vertex 25.451 4.33013 2.5
    endloop
  endfacet
  facet normal 0 -0.991445 -0.130525
    outer loop
      vertex -2.87347e-16 4.82963 1.2941
      vertex 25.451 5 5.65126e-15
      vertex 25.451 4.82963 1.2941
    endloop
  endfacet
  facet normal 2.89824e-17 -0.991445 -0.130525
    outer loop
      vertex 25.451 5 5.65126e-15
      vertex -2.87347e-16 4.82963 1.2941
      vertex 0 5 0
    endloop
  endfacet
  facet normal 0 0.79335 -0.608766
    outer loop
      vertex 25.451 -4.33013 2.5
      vertex -7.85046e-16 -3.53553 3.53553
      vertex 25.451 -3.53553 3.53553
    endloop
  endfacet
  facet normal 0 0.79335 -0.608766
    outer loop
      vertex -7.85046e-16 -3.53553 3.53553
      vertex 25.451 -4.33013 2.5
      vertex -5.55112e-16 -4.33013 2.5
    endloop
  endfacet
  facet normal 0 0.130525 -0.991445
    outer loop
      vertex -1.07239e-15 -1.2941 4.82963
      vertex 25.451 0 5
      vertex 25.451 -1.2941 4.82963
    endloop
  endfacet
  facet normal 0 0.130525 -0.991445
    outer loop
      vertex 25.451 0 5
      vertex -1.07239e-15 -1.2941 4.82963
      vertex -1.11022e-15 0 5
    endloop
  endfacet
  facet normal 0 -0.608766 -0.79335
    outer loop
      vertex 25.451 2.5 4.33013
      vertex -7.85046e-16 3.53553 3.53553
      vertex 25.451 3.53553 3.53553
    endloop
  endfacet
  facet normal 0 -0.608766 -0.79335
    outer loop
      vertex -7.85046e-16 3.53553 3.53553
      vertex 25.451 2.5 4.33013
      vertex -9.61481e-16 2.5 4.33013
    endloop
  endfacet
  facet normal 0 -0.382683 -0.92388
    outer loop
      vertex 25.451 1.2941 4.82963
      vertex -9.61481e-16 2.5 4.33013
      vertex 25.451 2.5 4.33013
    endloop
  endfacet
  facet normal 0 -0.382683 -0.92388
    outer loop
      vertex -9.61481e-16 2.5 4.33013
      vertex 25.451 1.2941 4.82963
      vertex -1.07239e-15 1.2941 4.82963
    endloop
  endfacet
  facet normal 0 -0.92388 -0.382683
    outer loop
      vertex -2.87347e-16 4.82963 1.2941
      vertex 25.451 4.33013 2.5
      vertex -5.55111e-16 4.33013 2.5
    endloop
  endfacet
  facet normal 0 -0.92388 -0.382683
    outer loop
      vertex 25.451 4.33013 2.5
      vertex -2.87347e-16 4.82963 1.2941
      vertex 25.451 4.82963 1.2941
    endloop
  endfacet
  facet normal 0 1 0
    outer loop
      vertex 25.451 -5 5.65126e-15
      vertex 25.451 -5 0
      vertex 0 -5 0
    endloop
  endfacet
  facet normal 0 0.92388 -0.382683
    outer loop
      vertex 25.451 -4.82963 1.2941
      vertex -5.55112e-16 -4.33013 2.5
      vertex 25.451 -4.33013 2.5
    endloop
  endfacet
  facet normal 0 0.92388 -0.382683
    outer loop
      vertex -5.55112e-16 -4.33013 2.5
      vertex 25.451 -4.82963 1.2941
      vertex -2.87347e-16 -4.82963 1.2941
    endloop
  endfacet
  facet normal 0 0.382683 -0.92388
    outer loop
      vertex -9.61481e-16 -2.5 4.33013
      vertex 25.451 -1.2941 4.82963
      vertex 25.451 -2.5 4.33013
    endloop
  endfacet
  facet normal 0 0.382683 -0.92388
    outer loop
      vertex 25.451 -1.2941 4.82963
      vertex -9.61481e-16 -2.5 4.33013
      vertex -1.07239e-15 -1.2941 4.82963
    endloop
  endfacet
  facet normal -0 0.382681 0.92388
    outer loop
      vertex -1.34607e-15 3.5 6.06218
      vertex 1 1.81173 6.76148
      vertex 1 3.5 6.06218
    endloop
  endfacet
  facet normal 0 0.382681 0.92388
    outer loop
      vertex 1 1.81173 6.76148
      vertex -1.34607e-15 3.5 6.06218
      vertex -1.50135e-15 1.81173 6.76148
    endloop
  endfacet
  facet normal 0 -0.92388 0.382681
    outer loop
      vertex -4.02286e-16 -6.76148 1.81173
      vertex 1 -6.06218 3.5
      vertex -7.77156e-16 -6.06218 3.5
    endloop
  endfacet
  facet normal 0 -0.92388 0.382681
    outer loop
      vertex 1 -6.06218 3.5
      vertex -4.02286e-16 -6.76148 1.81173
      vertex 1 -6.76148 1.81173
    endloop
  endfacet
  facet normal 0 1 -0
    outer loop
      vertex 1 7 0
      vertex 0 7 0
      vertex 1 7 2.22045e-16
    endloop
  endfacet
  facet normal 0 0.92388 0.382681
    outer loop
      vertex 1 6.76148 1.81173
      vertex -7.77156e-16 6.06218 3.5
      vertex 1 6.06218 3.5
    endloop
  endfacet
  facet normal 0 0.92388 0.382681
    outer loop
      vertex -7.77156e-16 6.06218 3.5
      vertex 1 6.76148 1.81173
      vertex -4.02286e-16 6.76148 1.81173
    endloop
  endfacet
  facet normal 0 0.793354 0.608761
    outer loop
      vertex 1 6.06218 3.5
      vertex -1.09906e-15 4.94975 4.94975
      vertex 1 4.94975 4.94975
    endloop
  endfacet
  facet normal 0 0.793354 0.608761
    outer loop
      vertex -1.09906e-15 4.94975 4.94975
      vertex 1 6.06218 3.5
      vertex -7.77156e-16 6.06218 3.5
    endloop
  endfacet
  facet normal 0 -0.382681 0.92388
    outer loop
      vertex 1 -1.81173 6.76148
      vertex -1.34607e-15 -3.5 6.06218
      vertex 1 -3.5 6.06218
    endloop
  endfacet
  facet normal 0 -0.382681 0.92388
    outer loop
      vertex -1.34607e-15 -3.5 6.06218
      vertex 1 -1.81173 6.76148
      vertex -1.50135e-15 -1.81173 6.76148
    endloop
  endfacet
  facet normal 0 -0.793354 0.608761
    outer loop
      vertex -7.77156e-16 -6.06218 3.5
      vertex 1 -4.94975 4.94975
      vertex -1.09906e-15 -4.94975 4.94975
    endloop
  endfacet
  facet normal 0 -0.793354 0.608761
    outer loop
      vertex 1 -4.94975 4.94975
      vertex -7.77156e-16 -6.06218 3.5
      vertex 1 -6.06218 3.5
    endloop
  endfacet
  facet normal 0 -0.608761 0.793354
    outer loop
      vertex 1 -3.5 6.06218
      vertex -1.09906e-15 -4.94975 4.94975
      vertex 1 -4.94975 4.94975
    endloop
  endfacet
  facet normal 0 -0.608761 0.793354
    outer loop
      vertex -1.09906e-15 -4.94975 4.94975
      vertex 1 -3.5 6.06218
      vertex -1.34607e-15 -3.5 6.06218
    endloop
  endfacet
  facet normal -0 0.130527 0.991445
    outer loop
      vertex -1.50135e-15 1.81173 6.76148
      vertex 1 0 7
      vertex 1 1.81173 6.76148
    endloop
  endfacet
  facet normal 0 0.130527 0.991445
    outer loop
      vertex 1 0 7
      vertex -1.50135e-15 1.81173 6.76148
      vertex -1.55431e-15 0 7
    endloop
  endfacet
  facet normal -0 0.608761 0.793354
    outer loop
      vertex -1.09906e-15 4.94975 4.94975
      vertex 1 3.5 6.06218
      vertex 1 4.94975 4.94975
    endloop
  endfacet
  facet normal 0 0.608761 0.793354
    outer loop
      vertex 1 3.5 6.06218
      vertex -1.09906e-15 4.94975 4.94975
      vertex -1.34607e-15 3.5 6.06218
    endloop
  endfacet
  facet normal 0 0.991445 0.130527
    outer loop
      vertex 1 7 2.22045e-16
      vertex -4.02286e-16 6.76148 1.81173
      vertex 1 6.76148 1.81173
    endloop
  endfacet
  facet normal -3.03777e-17 0.991445 0.130527
    outer loop
      vertex -4.02286e-16 6.76148 1.81173
      vertex 1 7 2.22045e-16
      vertex 0 7 0
    endloop
  endfacet
  facet normal 0 -1 -0
    outer loop
      vertex 1 -7 2.22045e-16
      vertex 0 -7 0
      vertex 1 -7 0
    endloop
  endfacet
  facet normal 0 -0.991445 0.130527
    outer loop
      vertex -4.02286e-16 -6.76148 1.81173
      vertex 1 -7 2.22045e-16
      vertex 1 -6.76148 1.81173
    endloop
  endfacet
  facet normal -2.89828e-17 -0.991445 0.130527
    outer loop
      vertex 1 -7 2.22045e-16
      vertex -4.02286e-16 -6.76148 1.81173
      vertex 0 -7 0
    endloop
  endfacet
  facet normal 0 -0.130527 0.991445
    outer loop
      vertex 1 0 7
      vertex -1.50135e-15 -1.81173 6.76148
      vertex 1 -1.81173 6.76148
    endloop
  endfacet
  facet normal 0 -0.130527 0.991445
    outer loop
      vertex -1.50135e-15 -1.81173 6.76148
      vertex 1 0 7
      vertex -1.55431e-15 0 7
    endloop
  endfacet
  facet normal 1 0 0
    outer loop
      vertex 1 6.76148 1.81173
      vertex 1 5.79555 1.55291
      vertex 1 6 2.22045e-16
    endloop
  endfacet
  facet normal 1 0 0
    outer loop
      vertex 1 6.06218 3.5
      vertex 1 5.19615 3
      vertex 1 5.79555 1.55291
    endloop
  endfacet
  facet normal 1 0 0
    outer loop
      vertex 1 4.94975 4.94975
      vertex 1 5.19615 3
      vertex 1 6.06218 3.5
    endloop
  endfacet
  facet normal 1 0 0
    outer loop
      vertex 1 4.94975 4.94975
      vertex 1 4.24264 4.24264
      vertex 1 5.19615 3
    endloop
  endfacet
  facet normal 1 0 0
    outer loop
      vertex 1 3.5 6.06218
      vertex 1 4.24264 4.24264
      vertex 1 4.94975 4.94975
    endloop
  endfacet
  facet normal 1 0 0
    outer loop
      vertex 1 3.5 6.06218
      vertex 1 3 5.19615
      vertex 1 4.24264 4.24264
    endloop
  endfacet
  facet normal 1 0 0
    outer loop
      vertex 1 1.81173 6.76148
      vertex 1 3 5.19615
      vertex 1 3.5 6.06218
    endloop
  endfacet
  facet normal 1 0 0
    outer loop
      vertex 1 1.81173 6.76148
      vertex 1 1.55291 5.79555
      vertex 1 3 5.19615
    endloop
  endfacet
  facet normal 1 0 0
    outer loop
      vertex 1 0 7
      vertex 1 1.55291 5.79555
      vertex 1 1.81173 6.76148
    endloop
  endfacet
  facet normal 1 0 0
    outer loop
      vertex 1 0 7
      vertex 1 0 6
      vertex 1 1.55291 5.79555
    endloop
  endfacet
  facet normal 1 0 0
    outer loop
      vertex 1 0 7
      vertex 1 -1.55291 5.79555
      vertex 1 0 6
    endloop
  endfacet
  facet normal 1 -0 0
    outer loop
      vertex 1 -1.81173 6.76148
      vertex 1 -1.55291 5.79555
      vertex 1 0 7
    endloop
  endfacet
  facet normal 1 0 0
    outer loop
      vertex 1 -1.81173 6.76148
      vertex 1 -3 5.19615
      vertex 1 -1.55291 5.79555
    endloop
  endfacet
  facet normal 1 -0 0
    outer loop
      vertex 1 -3.5 6.06218
      vertex 1 -3 5.19615
      vertex 1 -1.81173 6.76148
    endloop
  endfacet
  facet normal 1 0 0
    outer loop
      vertex 1 -3.5 6.06218
      vertex 1 -4.24264 4.24264
      vertex 1 -3 5.19615
    endloop
  endfacet
  facet normal 1 -0 0
    outer loop
      vertex 1 -4.94975 4.94975
      vertex 1 -4.24264 4.24264
      vertex 1 -3.5 6.06218
    endloop
  endfacet
  facet normal 1 0 0
    outer loop
      vertex 1 -4.94975 4.94975
      vertex 1 -5.19615 3
      vertex 1 -4.24264 4.24264
    endloop
  endfacet
  facet normal 1 -0 0
    outer loop
      vertex 1 -6.06218 3.5
      vertex 1 -5.19615 3
      vertex 1 -4.94975 4.94975
    endloop
  endfacet
  facet normal 1 0 0
    outer loop
      vertex 1 -5.19615 3
      vertex 1 -6.06218 3.5
      vertex 1 -5.79555 1.55291
    endloop
  endfacet
  facet normal 1 -0 0
    outer loop
      vertex 1 -6.76148 1.81173
      vertex 1 -5.79555 1.55291
      vertex 1 -6.06218 3.5
    endloop
  endfacet
  facet normal 1 0 0
    outer loop
      vertex 1 -5.79555 1.55291
      vertex 1 -6.76148 1.81173
      vertex 1 -6 2.22045e-16
    endloop
  endfacet
  facet normal 1 0 0
    outer loop
      vertex 1 -7 2.22045e-16
      vertex 1 -6 2.22045e-16
      vertex 1 -6.76148 1.81173
    endloop
  endfacet
  facet normal 1 0 0
    outer loop
      vertex 1 -6 2.22045e-16
      vertex 1 -7 2.22045e-16
      vertex 1 -6 0
    endloop
  endfacet
  facet normal 1 0 0
    outer loop
      vertex 1 -6 0
      vertex 1 -7 2.22045e-16
      vertex 1 -7 0
    endloop
  endfacet
  facet normal 1 0 0
    outer loop
      vertex 1 6 2.22045e-16
      vertex 1 7 2.22045e-16
      vertex 1 6.76148 1.81173
    endloop
  endfacet
  facet normal 1 0 0
    outer loop
      vertex 1 5.79555 1.55291
      vertex 1 6.76148 1.81173
      vertex 1 6.06218 3.5
    endloop
  endfacet
  facet normal 1 0 0
    outer loop
      vertex 1 7 2.22045e-16
      vertex 1 6 2.22045e-16
      vertex 1 7 0
    endloop
  endfacet
  facet normal 1 0 0
    outer loop
      vertex 1 7 0
      vertex 1 6 2.22045e-16
      vertex 1 6 0
    endloop
  endfacet
  facet normal 0 -0.92388 0.382681
    outer loop
      vertex 24.451 -6.76148 1.81173
      vertex 25.451 -6.06218 3.5
      vertex 24.451 -6.06218 3.5
    endloop
  endfacet
  facet normal 0 -0.92388 0.382681
    outer loop
      vertex 25.451 -6.06218 3.5
      vertex 24.451 -6.76148 1.81173
      vertex 25.451 -6.76148 1.81173
    endloop
  endfacet
  facet normal 0 1 -0
    outer loop
      vertex 25.451 7 0
      vertex 24.451 7 5.42921e-15
      vertex 25.451 7 5.65126e-15
    endloop
  endfacet
  facet normal 0 1 0
    outer loop
      vertex 24.451 7 5.42921e-15
      vertex 25.451 7 0
      vertex 24.451 7 0
    endloop
  endfacet
  facet normal 0 0.92388 0.382681
    outer loop
      vertex 25.451 6.76148 1.81173
      vertex 24.451 6.06218 3.5
      vertex 25.451 6.06218 3.5
    endloop
  endfacet
  facet normal 0 0.92388 0.382681
    outer loop
      vertex 24.451 6.06218 3.5
      vertex 25.451 6.76148 1.81173
      vertex 24.451 6.76148 1.81173
    endloop
  endfacet
  facet normal 0 0.793354 0.608761
    outer loop
      vertex 25.451 6.06218 3.5
      vertex 24.451 4.94975 4.94975
      vertex 25.451 4.94975 4.94975
    endloop
  endfacet
  facet normal 0 0.793354 0.608761
    outer loop
      vertex 24.451 4.94975 4.94975
      vertex 25.451 6.06218 3.5
      vertex 24.451 6.06218 3.5
    endloop
  endfacet
  facet normal 0 -0.793354 0.608761
    outer loop
      vertex 24.451 -6.06218 3.5
      vertex 25.451 -4.94975 4.94975
      vertex 24.451 -4.94975 4.94975
    endloop
  endfacet
  facet normal 0 -0.793354 0.608761
    outer loop
      vertex 25.451 -4.94975 4.94975
      vertex 24.451 -6.06218 3.5
      vertex 25.451 -6.06218 3.5
    endloop
  endfacet
  facet normal -0 0.130527 0.991445
    outer loop
      vertex 24.451 1.81173 6.76148
      vertex 25.451 0 7
      vertex 25.451 1.81173 6.76148
    endloop
  endfacet
  facet normal 0 0.130527 0.991445
    outer loop
      vertex 25.451 0 7
      vertex 24.451 1.81173 6.76148
      vertex 24.451 0 7
    endloop
  endfacet
  facet normal -0 0.608761 0.793354
    outer loop
      vertex 24.451 4.94975 4.94975
      vertex 25.451 3.5 6.06218
      vertex 25.451 4.94975 4.94975
    endloop
  endfacet
  facet normal 0 0.608761 0.793354
    outer loop
      vertex 25.451 3.5 6.06218
      vertex 24.451 4.94975 4.94975
      vertex 24.451 3.5 6.06218
    endloop
  endfacet
  facet normal 0 0.991445 0.130527
    outer loop
      vertex 25.451 7 5.65126e-15
      vertex 24.451 6.76148 1.81173
      vertex 25.451 6.76148 1.81173
    endloop
  endfacet
  facet normal -3.03777e-17 0.991445 0.130527
    outer loop
      vertex 24.451 6.76148 1.81173
      vertex 25.451 7 5.65126e-15
      vertex 24.451 7 5.42921e-15
    endloop
  endfacet
  facet normal 0 -1 0
    outer loop
      vertex 24.451 -7 0
      vertex 25.451 -7 5.65126e-15
      vertex 24.451 -7 5.42921e-15
    endloop
  endfacet
  facet normal 0 -1 -0
    outer loop
      vertex 25.451 -7 5.65126e-15
      vertex 24.451 -7 0
      vertex 25.451 -7 0
    endloop
  endfacet
  facet normal 0 -0.991445 0.130527
    outer loop
      vertex 24.451 -6.76148 1.81173
      vertex 25.451 -7 5.65126e-15
      vertex 25.451 -6.76148 1.81173
    endloop
  endfacet
  facet normal -2.89835e-17 -0.991445 0.130527
    outer loop
      vertex 25.451 -7 5.65126e-15
      vertex 24.451 -6.76148 1.81173
      vertex 24.451 -7 5.42921e-15
    endloop
  endfacet
  facet normal 0 -0.608761 0.793354
    outer loop
      vertex 24.451 -3.5 6.06218
      vertex 25.451 -4.94975 4.94975
      vertex 25.451 -3.5 6.06218
    endloop
  endfacet
  facet normal 0 -0.608761 0.793354
    outer loop
      vertex 25.451 -4.94975 4.94975
      vertex 24.451 -3.5 6.06218
      vertex 24.451 -4.94975 4.94975
    endloop
  endfacet
  facet normal 0 -0.130527 0.991445
    outer loop
      vertex 24.451 0 7
      vertex 25.451 -1.81173 6.76148
      vertex 25.451 0 7
    endloop
  endfacet
  facet normal 0 -0.130527 0.991445
    outer loop
      vertex 25.451 -1.81173 6.76148
      vertex 24.451 0 7
      vertex 24.451 -1.81173 6.76148
    endloop
  endfacet
  facet normal -1 0 0
    outer loop
      vertex 24.451 -7 5.42921e-15
      vertex 24.451 -6 5.42921e-15
      vertex 24.451 -6 0
    endloop
  endfacet
  facet normal -1 0 0
    outer loop
      vertex 24.451 -6 5.42921e-15
      vertex 24.451 -6.76148 1.81173
      vertex 24.451 -6.06218 3.5
    endloop
  endfacet
  facet normal -1 0 0
    outer loop
      vertex 24.451 -7 5.42921e-15
      vertex 24.451 -6 0
      vertex 24.451 -7 0
    endloop
  endfacet
  facet normal -1 0 0
    outer loop
      vertex 24.451 -6 5.42921e-15
      vertex 24.451 -7 5.42921e-15
      vertex 24.451 -6.76148 1.81173
    endloop
  endfacet
  facet normal -1 0 0
    outer loop
      vertex 24.451 6 5.42921e-15
      vertex 24.451 7 5.42921e-15
      vertex 24.451 7 0
    endloop
  endfacet
  facet normal -1 0 0
    outer loop
      vertex 24.451 7 5.42921e-15
      vertex 24.451 5.79555 1.55291
      vertex 24.451 6.76148 1.81173
    endloop
  endfacet
  facet normal -1 0 0
    outer loop
      vertex 24.451 6 5.42921e-15
      vertex 24.451 7 0
      vertex 24.451 6 0
    endloop
  endfacet
  facet normal -1 0 0
    outer loop
      vertex 24.451 7 5.42921e-15
      vertex 24.451 6 5.42921e-15
      vertex 24.451 5.79555 1.55291
    endloop
  endfacet
  facet normal -1 -0 0
    outer loop
      vertex 24.451 6.76148 1.81173
      vertex 24.451 5.79555 1.55291
      vertex 24.451 6.06218 3.5
    endloop
  endfacet
  facet normal -1 0 0
    outer loop
      vertex 24.451 5.19615 3
      vertex 24.451 6.06218 3.5
      vertex 24.451 5.79555 1.55291
    endloop
  endfacet
  facet normal -1 0 0
    outer loop
      vertex 24.451 5.19615 3
      vertex 24.451 4.94975 4.94975
      vertex 24.451 6.06218 3.5
    endloop
  endfacet
  facet normal -1 0 0
    outer loop
      vertex 24.451 4.24264 4.24264
      vertex 24.451 4.94975 4.94975
      vertex 24.451 5.19615 3
    endloop
  endfacet
  facet normal -1 0 0
    outer loop
      vertex 24.451 4.24264 4.24264
      vertex 24.451 3.5 6.06218
      vertex 24.451 4.94975 4.94975
    endloop
  endfacet
  facet normal -1 0 0
    outer loop
      vertex 24.451 3 5.19615
      vertex 24.451 3.5 6.06218
      vertex 24.451 4.24264 4.24264
    endloop
  endfacet
  facet normal -1 0 0
    outer loop
      vertex 24.451 3 5.19615
      vertex 24.451 1.81173 6.76148
      vertex 24.451 3.5 6.06218
    endloop
  endfacet
  facet normal -1 0 0
    outer loop
      vertex 24.451 1.55291 5.79555
      vertex 24.451 1.81173 6.76148
      vertex 24.451 3 5.19615
    endloop
  endfacet
  facet normal -1 0 0
    outer loop
      vertex 24.451 0 6
      vertex 24.451 1.81173 6.76148
      vertex 24.451 1.55291 5.79555
    endloop
  endfacet
  facet normal -1 0 0
    outer loop
      vertex 24.451 0 6
      vertex 24.451 0 7
      vertex 24.451 1.81173 6.76148
    endloop
  endfacet
  facet normal -1 0 0
    outer loop
      vertex 24.451 -1.55291 5.79555
      vertex 24.451 0 7
      vertex 24.451 0 6
    endloop
  endfacet
  facet normal -1 0 0
    outer loop
      vertex 24.451 -1.55291 5.79555
      vertex 24.451 -1.81173 6.76148
      vertex 24.451 0 7
    endloop
  endfacet
  facet normal -1 0 0
    outer loop
      vertex 24.451 -3 5.19615
      vertex 24.451 -1.81173 6.76148
      vertex 24.451 -1.55291 5.79555
    endloop
  endfacet
  facet normal -1 0 0
    outer loop
      vertex 24.451 -3 5.19615
      vertex 24.451 -3.5 6.06218
      vertex 24.451 -1.81173 6.76148
    endloop
  endfacet
  facet normal -1 0 0
    outer loop
      vertex 24.451 -4.24264 4.24264
      vertex 24.451 -3.5 6.06218
      vertex 24.451 -3 5.19615
    endloop
  endfacet
  facet normal -1 0 0
    outer loop
      vertex 24.451 -4.24264 4.24264
      vertex 24.451 -4.94975 4.94975
      vertex 24.451 -3.5 6.06218
    endloop
  endfacet
  facet normal -1 0 0
    outer loop
      vertex 24.451 -5.19615 3
      vertex 24.451 -4.94975 4.94975
      vertex 24.451 -4.24264 4.24264
    endloop
  endfacet
  facet normal -1 0 0
    outer loop
      vertex 24.451 -6.06218 3.5
      vertex 24.451 -5.19615 3
      vertex 24.451 -5.79555 1.55291
    endloop
  endfacet
  facet normal -1 0 0
    outer loop
      vertex 24.451 -5.19615 3
      vertex 24.451 -6.06218 3.5
      vertex 24.451 -4.94975 4.94975
    endloop
  endfacet
  facet normal -1 0 0
    outer loop
      vertex 24.451 -6.06218 3.5
      vertex 24.451 -5.79555 1.55291
      vertex 24.451 -6 5.42921e-15
    endloop
  endfacet
  facet normal 1 0 0
    outer loop
      vertex 25.451 4.33013 2.5
      vertex 25.451 6.06218 3.5
      vertex 25.451 4.94975 4.94975
    endloop
  endfacet
  facet normal 1 0 0
    outer loop
      vertex 25.451 6.06218 3.5
      vertex 25.451 4.82963 1.2941
      vertex 25.451 5 5.65126e-15
    endloop
  endfacet
  facet normal 1 0 0
    outer loop
      vertex 25.451 6.06218 3.5
      vertex 25.451 4.33013 2.5
      vertex 25.451 4.82963 1.2941
    endloop
  endfacet
  facet normal 1 0 0
    outer loop
      vertex 25.451 4.94975 4.94975
      vertex 25.451 3.53553 3.53553
      vertex 25.451 4.33013 2.5
    endloop
  endfacet
  facet normal 1 0 0
    outer loop
      vertex 25.451 3.5 6.06218
      vertex 25.451 3.53553 3.53553
      vertex 25.451 4.94975 4.94975
    endloop
  endfacet
  facet normal 1 0 0
    outer loop
      vertex 25.451 3.5 6.06218
      vertex 25.451 2.5 4.33013
      vertex 25.451 3.53553 3.53553
    endloop
  endfacet
  facet normal 1 0 0
    outer loop
      vertex 25.451 1.81173 6.76148
      vertex 25.451 2.5 4.33013
      vertex 25.451 3.5 6.06218
    endloop
  endfacet
  facet normal 1 0 0
    outer loop
      vertex 25.451 1.81173 6.76148
      vertex 25.451 1.2941 4.82963
      vertex 25.451 2.5 4.33013
    endloop
  endfacet
  facet normal 1 0 0
    outer loop
      vertex 25.451 0 7
      vertex 25.451 1.2941 4.82963
      vertex 25.451 1.81173 6.76148
    endloop
  endfacet
  facet normal 1 0 0
    outer loop
      vertex 25.451 0 7
      vertex 25.451 0 5
      vertex 25.451 1.2941 4.82963
    endloop
  endfacet
  facet normal 1 0 0
    outer loop
      vertex 25.451 0 7
      vertex 25.451 -1.2941 4.82963
      vertex 25.451 0 5
    endloop
  endfacet
  facet normal 1 -0 0
    outer loop
      vertex 25.451 -1.81173 6.76148
      vertex 25.451 -1.2941 4.82963
      vertex 25.451 0 7
    endloop
  endfacet
  facet normal 1 0 0
    outer loop
      vertex 25.451 -1.81173 6.76148
      vertex 25.451 -2.5 4.33013
      vertex 25.451 -1.2941 4.82963
    endloop
  endfacet
  facet normal 1 -0 0
    outer loop
      vertex 25.451 -3.5 6.06218
      vertex 25.451 -2.5 4.33013
      vertex 25.451 -1.81173 6.76148
    endloop
  endfacet
  facet normal 1 0 0
    outer loop
      vertex 25.451 -3.5 6.06218
      vertex 25.451 -3.53553 3.53553
      vertex 25.451 -2.5 4.33013
    endloop
  endfacet
  facet normal 1 -0 0
    outer loop
      vertex 25.451 -4.94975 4.94975
      vertex 25.451 -3.53553 3.53553
      vertex 25.451 -3.5 6.06218
    endloop
  endfacet
  facet normal 1 0 0
    outer loop
      vertex 25.451 -3.53553 3.53553
      vertex 25.451 -4.94975 4.94975
      vertex 25.451 -4.33013 2.5
    endloop
  endfacet
  facet normal 1 -0 0
    outer loop
      vertex 25.451 -6.06218 3.5
      vertex 25.451 -4.33013 2.5
      vertex 25.451 -4.94975 4.94975
    endloop
  endfacet
  facet normal 1 0 0
    outer loop
      vertex 25.451 -4.33013 2.5
      vertex 25.451 -6.06218 3.5
      vertex 25.451 -4.82963 1.2941
    endloop
  endfacet
  facet normal 1 -0 0
    outer loop
      vertex 25.451 -6.76148 1.81173
      vertex 25.451 -4.82963 1.2941
      vertex 25.451 -6.06218 3.5
    endloop
  endfacet
  facet normal 1 0 0
    outer loop
      vertex 25.451 -4.82963 1.2941
      vertex 25.451 -6.76148 1.81173
      vertex 25.451 -5 5.65126e-15
    endloop
  endfacet
  facet normal 1 0 0
    outer loop
      vertex 25.451 -7 5.65126e-15
      vertex 25.451 -5 5.65126e-15
      vertex 25.451 -6.76148 1.81173
    endloop
  endfacet
  facet normal 1 0 0
    outer loop
      vertex 25.451 -5 5.65126e-15
      vertex 25.451 -7 5.65126e-15
      vertex 25.451 -5 0
    endloop
  endfacet
  facet normal 1 0 0
    outer loop
      vertex 25.451 -5 0
      vertex 25.451 -7 5.65126e-15
      vertex 25.451 -7 0
    endloop
  endfacet
  facet normal 1 0 0
    outer loop
      vertex 25.451 5 5.65126e-15
      vertex 25.451 7 5.65126e-15
      vertex 25.451 6.76148 1.81173
    endloop
  endfacet
  facet normal 1 0 0
    outer loop
      vertex 25.451 5 5.65126e-15
      vertex 25.451 6.76148 1.81173
      vertex 25.451 6.06218 3.5
    endloop
  endfacet
  facet normal 1 0 0
    outer loop
      vertex 25.451 7 5.65126e-15
      vertex 25.451 5 5.65126e-15
      vertex 25.451 7 0
    endloop
  endfacet
  facet normal 1 0 0
    outer loop
      vertex 25.451 7 0
      vertex 25.451 5 5.65126e-15
      vertex 25.451 5 0
    endloop
  endfacet
  facet normal -0 0.382681 0.92388
    outer loop
      vertex 24.451 3.5 6.06218
      vertex 25.451 1.81173 6.76148
      vertex 25.451 3.5 6.06218
    endloop
  endfacet
  facet normal 0 0.382681 0.92388
    outer loop
      vertex 25.451 1.81173 6.76148
      vertex 24.451 3.5 6.06218
      vertex 24.451 1.81173 6.76148
    endloop
  endfacet
  facet normal 0 -0.382681 0.92388
    outer loop
      vertex 24.451 -1.81173 6.76148
      vertex 25.451 -3.5 6.06218
      vertex 25.451 -1.81173 6.76148
    endloop
  endfacet
  facet normal 0 -0.382681 0.92388
    outer loop
      vertex 25.451 -3.5 6.06218
      vertex 24.451 -1.81173 6.76148
      vertex 24.451 -3.5 6.06218
    endloop
  endfacet
  facet normal 0 0 -1
    outer loop
      vertex 25.451 5 0
      vertex 24.451 6 0
      vertex 25.451 7 0
    endloop
  endfacet
  facet normal 0 0 -1
    outer loop
      vertex 25.451 5 0
      vertex 1 6 0
      vertex 24.451 6 0
    endloop
  endfacet
  facet normal 0 0 -1
    outer loop
      vertex 0 5 0
      vertex 1 6 0
      vertex 25.451 5 0
    endloop
  endfacet
  facet normal 0 0 -1
    outer loop
      vertex 0 7 0
      vertex 1 6 0
      vertex 0 5 0
    endloop
  endfacet
  facet normal 0 0 -1
    outer loop
      vertex 1 6 0
      vertex 0 7 0
      vertex 1 7 0
    endloop
  endfacet
  facet normal -0 0 -1
    outer loop
      vertex 25.451 7 0
      vertex 24.451 6 0
      vertex 24.451 7 0
    endloop
  endfacet
  facet normal 0 0 -1
    outer loop
      vertex 1 -7 0
      vertex 0 -7 0
      vertex 1 -6 0
    endloop
  endfacet
  facet normal 0 0 -1
    outer loop
      vertex 24.451 -6 0
      vertex 25.451 -7 0
      vertex 24.451 -7 0
    endloop
  endfacet
  facet normal 0 0 -1
    outer loop
      vertex 25.451 -7 0
      vertex 24.451 -6 0
      vertex 25.451 -5 0
    endloop
  endfacet
  facet normal 0 0 -1
    outer loop
      vertex 1 -6 0
      vertex 25.451 -5 0
      vertex 24.451 -6 0
    endloop
  endfacet
  facet normal 0 0 -1
    outer loop
      vertex 1 -6 0
      vertex 0 -5 0
      vertex 25.451 -5 0
    endloop
  endfacet
  facet normal 0 0 -1
    outer loop
      vertex 0 -5 0
      vertex 1 -6 0
      vertex 0 -7 0
    endloop
  endfacet
endsolid OpenSCAD_Model
