solid OpenSCAD_Model
  facet normal -1 2.22019e-16 1.07788e-19
    outer loop
      vertex 1.17426e-14 52.8839 0.165291
      vertex 1.19904e-14 54.0001 0
      vertex 1.17474e-14 52.9056 0
    endloop
  endfacet
  facet normal -1 2.22002e-16 -5.08365e-21
    outer loop
      vertex 1.19904e-14 54.0001 0
      vertex 1.17426e-14 52.8839 0.165291
      vertex 1.19223e-14 53.6934 2.32937
    endloop
  endfacet
  facet normal -1 2.22003e-16 -5.43136e-21
    outer loop
      vertex 1.1687e-14 52.6335 2.07055
      vertex 1.19223e-14 53.6934 2.32937
      vertex 1.17426e-14 52.8839 0.165291
    endloop
  endfacet
  facet normal -1 2.2207e-16 -2.77345e-19
    outer loop
      vertex 1.16727e-14 52.5693 2.22602
      vertex 1.19223e-14 53.6934 2.32937
      vertex 1.1687e-14 52.6335 2.07055
    endloop
  endfacet
  facet normal -1 2.22043e-16 1.7766e-20
    outer loop
      vertex 1.19223e-14 53.6934 2.32937
      vertex 1.16727e-14 52.5693 2.22602
      vertex 1.17227e-14 52.7943 4.5
    endloop
  endfacet
  facet normal -1 2.22002e-16 2.17695e-20
    outer loop
      vertex 1.15099e-14 51.8358 4
      vertex 1.17227e-14 52.7943 4.5
      vertex 1.16727e-14 52.5693 2.22602
    endloop
  endfacet
  facet normal -1 2.22258e-16 -4.67896e-19
    outer loop
      vertex 1.14869e-14 51.7326 4.13467
      vertex 1.17227e-14 52.7943 4.5
      vertex 1.15099e-14 51.8358 4
    endloop
  endfacet
  facet normal -1 2.22087e-16 2.75115e-20
    outer loop
      vertex 1.14869e-14 51.7326 4.13467
      vertex 1.14051e-14 51.364 6.36396
      vertex 1.17227e-14 52.7943 4.5
    endloop
  endfacet
  facet normal -1 2.21989e-16 1.13147e-20
    outer loop
      vertex 1.12281e-14 50.5667 5.65685
      vertex 1.14051e-14 51.364 6.36396
      vertex 1.14869e-14 51.7326 4.13467
    endloop
  endfacet
  facet normal -1 2.22075e-16 -8.51541e-20
    outer loop
      vertex 1.1198e-14 50.4312 5.761
      vertex 1.14051e-14 51.364 6.36396
      vertex 1.12281e-14 50.5667 5.65685
    endloop
  endfacet
  facet normal -1 2.22039e-16 -2.93855e-20
    outer loop
      vertex 1.1198e-14 50.4312 5.761
      vertex 1.09912e-14 49.5001 7.79423
      vertex 1.14051e-14 51.364 6.36396
    endloop
  endfacet
  facet normal -1 2.22061e-16 -1.90955e-20
    outer loop
      vertex 1.08608e-14 48.9128 6.9282
      vertex 1.09912e-14 49.5001 7.79423
      vertex 1.1198e-14 50.4312 5.761
    endloop
  endfacet
  facet normal -1 2.21744e-16 1.96115e-19
    outer loop
      vertex 1.08256e-14 48.754 6.99409
      vertex 1.09912e-14 49.5001 7.79423
      vertex 1.08608e-14 48.9128 6.9282
    endloop
  endfacet
  facet normal -1 2.22022e-16 -6.32475e-20
    outer loop
      vertex 1.08256e-14 48.754 6.99409
      vertex 1.05092e-14 47.3294 8.69333
      vertex 1.09912e-14 49.5001 7.79423
    endloop
  endfacet
  facet normal -1 2.22019e-16 -6.58969e-20
    outer loop
      vertex 1.04332e-14 46.9868 7.72741
      vertex 1.05092e-14 47.3294 8.69333
      vertex 1.08256e-14 48.754 6.99409
    endloop
  endfacet
  facet normal -1 2.21957e-16 -4.39058e-20
    outer loop
      vertex 1.03952e-14 46.8156 7.74998
      vertex 1.05092e-14 47.3294 8.69333
      vertex 1.04332e-14 46.9868 7.72741
    endloop
  endfacet
  facet normal -1 2.22022e-16 -7.93592e-20
    outer loop
      vertex 1.03952e-14 46.8156 7.74998
      vertex 9.99202e-15 45.0001 9
      vertex 1.05092e-14 47.3294 8.69333
    endloop
  endfacet
  facet normal -1 2.2207e-16 -9.98877e-21
    outer loop
      vertex 9.97422e-15 44.9199 8
      vertex 9.99202e-15 45.0001 9
      vertex 1.03952e-14 46.8156 7.74998
    endloop
  endfacet
  facet normal -1 2.21983e-16 -3.02913e-21
    outer loop
      vertex 9.93615e-15 44.7484 7.97738
      vertex 9.99202e-15 45.0001 9
      vertex 9.97422e-15 44.9199 8
    endloop
  endfacet
  facet normal -1 2.22044e-16 -1.17077e-20
    outer loop
      vertex 9.4748e-15 42.6707 8.69333
      vertex 9.93615e-15 44.7484 7.97738
      vertex 9.51529e-15 42.853 7.72741
    endloop
  endfacet
  facet normal -1 2.22117e-16 1.99114e-21
    outer loop
      vertex 9.4748e-15 42.6707 8.69333
      vertex 9.51529e-15 42.853 7.72741
      vertex 9.47984e-15 42.6934 7.66117
    endloop
  endfacet
  facet normal -1 2.22042e-16 -1.76563e-20
    outer loop
      vertex 9.93615e-15 44.7484 7.97738
      vertex 9.4748e-15 42.6707 8.69333
      vertex 9.99202e-15 45.0001 9
    endloop
  endfacet
  facet normal -1 2.22048e-16 -2.05871e-20
    outer loop
      vertex 8.99282e-15 40.5001 7.79423
      vertex 9.47984e-15 42.6934 7.66117
      vertex 9.08763e-15 40.927 6.9282
    endloop
  endfacet
  facet normal -1 2.22062e-16 -1.36565e-20
    outer loop
      vertex 8.99282e-15 40.5001 7.79423
      vertex 9.08763e-15 40.927 6.9282
      vertex 9.05732e-15 40.7905 6.82329
    endloop
  endfacet
  facet normal -1 2.22049e-16 4.96281e-22
    outer loop
      vertex 9.47984e-15 42.6934 7.66117
      vertex 8.99282e-15 40.5001 7.79423
      vertex 9.4748e-15 42.6707 8.69333
    endloop
  endfacet
  facet normal -1 2.22047e-16 5.35465e-21
    outer loop
      vertex 8.57894e-15 38.6361 6.36396
      vertex 9.05732e-15 40.7905 6.82329
      vertex 8.72038e-15 39.2731 5.65685
    endloop
  endfacet
  facet normal -1 2.22041e-16 -1.62611e-22
    outer loop
      vertex 8.57894e-15 38.6361 6.36396
      vertex 8.72038e-15 39.2731 5.65685
      vertex 8.69731e-15 39.1692 5.52118
    endloop
  endfacet
  facet normal -1 2.22051e-16 -1.67393e-20
    outer loop
      vertex 9.05732e-15 40.7905 6.82329
      vertex 8.57894e-15 38.6361 6.36396
      vertex 8.99282e-15 40.5001 7.79423
    endloop
  endfacet
  facet normal -1 2.22038e-16 1.06188e-21
    outer loop
      vertex 8.26136e-15 37.2058 4.5
      vertex 8.69731e-15 39.1692 5.52118
      vertex 8.43859e-15 38.004 4
    endloop
  endfacet
  facet normal -1 2.22057e-16 3.2545e-20
    outer loop
      vertex 8.26136e-15 37.2058 4.5
      vertex 8.43859e-15 38.004 4
      vertex 8.42424e-15 37.9394 3.84368
    endloop
  endfacet
  facet normal -1 2.22035e-16 9.23888e-21
    outer loop
      vertex 8.06171e-15 36.3067 2.32937
      vertex 8.42424e-15 37.9394 3.84368
      vertex 8.26145e-15 37.2063 2.07055
    endloop
  endfacet
  facet normal -1 2.22039e-16 -1.23368e-21
    outer loop
      vertex 8.69731e-15 39.1692 5.52118
      vertex 8.26136e-15 37.2058 4.5
      vertex 8.57894e-15 38.6361 6.36396
    endloop
  endfacet
  facet normal -1 2.22015e-16 -5.99092e-20
    outer loop
      vertex 8.06171e-15 36.3067 2.32937
      vertex 8.26145e-15 37.2063 2.07055
      vertex 8.25662e-15 37.1845 1.90493
    endloop
  endfacet
  facet normal -1 2.22043e-16 6.68542e-21
    outer loop
      vertex 7.99362e-15 36.0001 0
      vertex 8.25662e-15 37.1845 1.90493
      vertex 8.20103e-15 36.9342 0
    endloop
  endfacet
  facet normal -1 2.22036e-16 8.17055e-21
    outer loop
      vertex 8.42424e-15 37.9394 3.84368
      vertex 8.06171e-15 36.3067 2.32937
      vertex 8.26136e-15 37.2058 4.5
    endloop
  endfacet
  facet normal -1 2.22046e-16 4.59617e-21
    outer loop
      vertex 8.25662e-15 37.1845 1.90493
      vertex 7.99362e-15 36.0001 0
      vertex 8.06171e-15 36.3067 2.32937
    endloop
  endfacet
  facet normal 0.275782 -0.96122 3.32941e-05
    outer loop
      vertex 51.9074 14.8872 0
      vertex 51.6126 14.8027 2.32937
      vertex 50.7483 14.5548 4.5
    endloop
  endfacet
  facet normal 0.275669 -0.961253 1.14381e-05
    outer loop
      vertex 35.764 10.2573 4.5
      vertex 36.6253 10.5043 4.12771
      vertex 37.1926 10.667 4.89823
    endloop
  endfacet
  facet normal 0.275763 -0.961226 0.000245955
    outer loop
      vertex 35.764 10.2573 4.5
      vertex 36.5313 10.4773 4
      vertex 36.6253 10.5043 4.12771
    endloop
  endfacet
  facet normal 0.275612 -0.961269 -4.71799e-06
    outer loop
      vertex 36.5313 10.4773 4
      vertex 35.764 10.2573 4.5
      vertex 35.9973 10.3242 2.65651
    endloop
  endfacet
  facet normal 0.275706 -0.961242 -0.00010068
    outer loop
      vertex 46.9609 13.4686 6.95251
      vertex 47.5818 13.6466 7.79423
      vertex 46.0197 13.1986 7.35881
    endloop
  endfacet
  facet normal 0.275728 -0.961236 2.96842e-05
    outer loop
      vertex 50.7483 14.5548 4.5
      vertex 49.3735 14.1605 6.36396
      vertex 47.5818 13.6466 7.79423
    endloop
  endfacet
  facet normal 0.275703 -0.961243 5.09982e-05
    outer loop
      vertex 47.5818 13.6466 7.79423
      vertex 45.4953 13.0482 8.69333
      vertex 43.2562 12.406 9
    endloop
  endfacet
  facet normal 0.275625 -0.961265 0.000251777
    outer loop
      vertex 43.2562 12.406 9
      vertex 41.0171 11.7639 8.69333
      vertex 38.9306 11.1654 7.79423
    endloop
  endfacet
  facet normal 0.275706 -0.961242 -6.33449e-05
    outer loop
      vertex 38.9306 11.1654 7.79423
      vertex 40.997 11.7581 7.64308
      vertex 43.2562 12.406 9
    endloop
  endfacet
  facet normal 0.275706 -0.961242 -5.45559e-05
    outer loop
      vertex 38.9306 11.1654 7.79423
      vertex 39.482 11.3236 6.98906
      vertex 40.997 11.7581 7.64308
    endloop
  endfacet
  facet normal 0.276005 -0.961156 0.000166632
    outer loop
      vertex 38.9306 11.1654 7.79423
      vertex 39.341 11.2831 6.9282
      vertex 39.482 11.3236 6.98906
    endloop
  endfacet
  facet normal 0.275685 -0.961248 2.80047e-06
    outer loop
      vertex 38.9306 11.1654 7.79423
      vertex 37.9355 10.88 5.80426
      vertex 39.341 11.2831 6.9282
    endloop
  endfacet
  facet normal 0.275633 -0.961263 3.09457e-05
    outer loop
      vertex 37.9355 10.88 5.80426
      vertex 38.9306 11.1654 7.79423
      vertex 35.764 10.2573 4.5
    endloop
  endfacet
  facet normal 0.275671 -0.961252 3.6829e-06
    outer loop
      vertex 37.7512 10.8272 5.65685
      vertex 35.764 10.2573 4.5
      vertex 37.1926 10.667 4.89823
    endloop
  endfacet
  facet normal 0.275147 -0.961402 0.000977454
    outer loop
      vertex 37.8728 10.8621 5.75409
      vertex 35.764 10.2573 4.5
      vertex 37.7512 10.8272 5.65685
    endloop
  endfacet
  facet normal 0.279046 -0.960258 -0.00613048
    outer loop
      vertex 35.764 10.2573 4.5
      vertex 37.8728 10.8621 5.75409
      vertex 37.9355 10.88 5.80426
    endloop
  endfacet
  facet normal 0.275663 -0.961254 -9.8868e-06
    outer loop
      vertex 43.2562 12.406 9
      vertex 41.3435 11.8575 7.74814
      vertex 43.1791 12.3839 8
    endloop
  endfacet
  facet normal 0.27596 -0.961169 -0.000500912
    outer loop
      vertex 43.2562 12.406 9
      vertex 41.1923 11.8141 7.72741
      vertex 41.3435 11.8575 7.74814
    endloop
  endfacet
  facet normal 0.27553 -0.961292 0.000253847
    outer loop
      vertex 41.1923 11.8141 7.72741
      vertex 43.2562 12.406 9
      vertex 40.997 11.7581 7.64308
    endloop
  endfacet
  facet normal 0.27614 -0.961117 -4.96885e-05
    outer loop
      vertex 43.3305 12.4274 7.97922
      vertex 43.2562 12.406 9
      vertex 43.1791 12.3839 8
    endloop
  endfacet
  facet normal 0.275678 -0.96125 -8.60488e-05
    outer loop
      vertex 45.1659 12.9538 7.72741
      vertex 43.2562 12.406 9
      vertex 43.3305 12.4274 7.97922
    endloop
  endfacet
  facet normal 0.275659 -0.961255 -0.000117036
    outer loop
      vertex 43.2562 12.406 9
      vertex 45.1659 12.9538 7.72741
      vertex 47.5818 13.6466 7.79423
    endloop
  endfacet
  facet normal 0.275643 -0.96126 0.000514677
    outer loop
      vertex 45.3076 12.9944 7.66622
      vertex 47.5818 13.6466 7.79423
      vertex 45.1659 12.9538 7.72741
    endloop
  endfacet
  facet normal 0.275667 -0.961253 4.86302e-05
    outer loop
      vertex 47.5818 13.6466 7.79423
      vertex 45.3076 12.9944 7.66622
      vertex 46.0197 13.1986 7.35881
    endloop
  endfacet
  facet normal 0.275573 -0.96128 9.41328e-05
    outer loop
      vertex 38.9306 11.1654 7.79423
      vertex 37.1388 10.6516 6.36396
      vertex 35.764 10.2573 4.5
    endloop
  endfacet
  facet normal 0.275709 -0.961241 0
    outer loop
      vertex 34.6049 9.92484 0
      vertex 35.764 10.2573 2.06735
      vertex 35.764 10.2573 4.5
    endloop
  endfacet
  facet normal 0.275689 -0.961247 1.19589e-05
    outer loop
      vertex 35.764 10.2573 2.06735
      vertex 34.6049 9.92484 0
      vertex 35.5235 10.1883 0.1634
    endloop
  endfacet
  facet normal 0.275728 -0.961236 -0.000221983
    outer loop
      vertex 35.5235 10.1883 0.1634
      vertex 34.6049 9.92484 0
      vertex 35.5028 10.1824 0
    endloop
  endfacet
  facet normal 0.275698 -0.961244 3.00124e-06
    outer loop
      vertex 35.764 10.2573 4.5
      vertex 34.8997 10.0094 2.32937
      vertex 34.6049 9.92484 0
    endloop
  endfacet
  facet normal 0.275778 -0.961221 1.81089e-05
    outer loop
      vertex 35.764 10.2573 4.5
      vertex 35.8241 10.2745 2.22088
      vertex 35.9973 10.3242 2.65651
    endloop
  endfacet
  facet normal 0.275346 -0.961345 5.76416e-06
    outer loop
      vertex 35.764 10.2573 4.5
      vertex 35.7644 10.2574 2.07055
      vertex 35.8241 10.2745 2.22088
    endloop
  endfacet
  facet normal 0.242536 -0.970143 0
    outer loop
      vertex 35.7644 10.2574 2.07055
      vertex 35.764 10.2573 4.5
      vertex 35.764 10.2573 2.06735
    endloop
  endfacet
  facet normal 0.2751 -0.961416 0.000383287
    outer loop
      vertex 47.0172 13.4847 6.9282
      vertex 47.5818 13.6466 7.79423
      vertex 46.9609 13.4686 6.95251
    endloop
  endfacet
  facet normal 0.27599 -0.96116 -0.000245178
    outer loop
      vertex 47.1397 13.5199 6.83024
      vertex 47.5818 13.6466 7.79423
      vertex 47.0172 13.4847 6.9282
    endloop
  endfacet
  facet normal 0.275496 -0.961302 0
    outer loop
      vertex 47.5818 13.6466 7.79423
      vertex 47.1397 13.5199 6.83024
      vertex 47.5818 13.6466 6.47675
    endloop
  endfacet
  facet normal 0.275724 -0.961237 0
    outer loop
      vertex 48.6071 13.9407 5.65685
      vertex 47.5818 13.6466 7.79423
      vertex 47.5818 13.6466 6.47675
    endloop
  endfacet
  facet normal 0.275441 -0.961318 -0.000494583
    outer loop
      vertex 50.7483 14.5548 4.5
      vertex 48.6071 13.9407 5.65685
      vertex 48.7018 13.9679 5.52819
    endloop
  endfacet
  facet normal 0.275675 -0.961251 -2.55705e-05
    outer loop
      vertex 48.6071 13.9407 5.65685
      vertex 50.7483 14.5548 4.5
      vertex 47.5818 13.6466 7.79423
    endloop
  endfacet
  facet normal 0.275664 -0.961254 -1.25223e-05
    outer loop
      vertex 49.827 14.2906 4
      vertex 50.7483 14.5548 4.5
      vertex 48.7018 13.9679 5.52819
    endloop
  endfacet
  facet normal 0.275642 -0.96126 3.203e-05
    outer loop
      vertex 49.887 14.3078 3.84884
      vertex 50.7483 14.5548 4.5
      vertex 49.827 14.2906 4
    endloop
  endfacet
  facet normal 0.275662 -0.961254 2.74738e-06
    outer loop
      vertex 50.7483 14.5548 4.5
      vertex 49.887 14.3078 3.84884
      vertex 50.3079 14.4285 2.78995
    endloop
  endfacet
  facet normal 0.275688 -0.961247 -4.33066e-06
    outer loop
      vertex 50.5938 14.5105 2.07055
      vertex 50.7483 14.5548 4.5
      vertex 50.3079 14.4285 2.78995
    endloop
  endfacet
  facet normal 0.276044 -0.961145 0.000264822
    outer loop
      vertex 51.9074 14.8872 0
      vertex 50.5938 14.5105 2.07055
      vertex 50.6145 14.5164 1.90682
    endloop
  endfacet
  facet normal 0.275674 -0.961251 -6.55058e-06
    outer loop
      vertex 51.9074 14.8872 0
      vertex 50.6145 14.5164 1.90682
      vertex 50.8554 14.5855 0
    endloop
  endfacet
  facet normal 0.275655 -0.961257 -2.09979e-06
    outer loop
      vertex 50.5938 14.5105 2.07055
      vertex 51.9074 14.8872 0
      vertex 50.7483 14.5548 4.5
    endloop
  endfacet
  facet normal 0.106511 0.985803 0.129797
    outer loop
      vertex 11.4684 52.4543 2.32937
      vertex 1.19904e-14 54.0001 0
      vertex 1.19223e-14 53.6934 2.32937
    endloop
  endfacet
  facet normal 0.106513 0.985804 0.129788
    outer loop
      vertex 11.4684 52.4543 2.32937
      vertex 11.5339 52.7539 0
      vertex 1.19904e-14 54.0001 0
    endloop
  endfacet
  facet normal 0.0993231 0.919312 0.38079
    outer loop
      vertex 11.2763 51.576 4.5
      vertex 1.19223e-14 53.6934 2.32937
      vertex 1.17227e-14 52.7943 4.5
    endloop
  endfacet
  facet normal 0.0993275 0.919318 0.380773
    outer loop
      vertex 11.2763 51.576 4.5
      vertex 11.4684 52.4543 2.32937
      vertex 1.19223e-14 53.6934 2.32937
    endloop
  endfacet
  facet normal 0.0854011 0.790448 0.606546
    outer loop
      vertex 10.9708 50.1787 6.36396
      vertex 1.17227e-14 52.7943 4.5
      vertex 1.14051e-14 51.364 6.36396
    endloop
  endfacet
  facet normal 0.0854005 0.790447 0.606548
    outer loop
      vertex 10.9708 50.1787 6.36396
      vertex 11.2763 51.576 4.5
      vertex 1.17227e-14 52.7943 4.5
    endloop
  endfacet
  facet normal 0.0656317 0.607462 0.791633
    outer loop
      vertex 10.5727 48.3578 7.79423
      vertex 1.14051e-14 51.364 6.36396
      vertex 1.09912e-14 49.5001 7.79423
    endloop
  endfacet
  facet normal 0.0656308 0.60746 0.791635
    outer loop
      vertex 10.5727 48.3578 7.79423
      vertex 10.9708 50.1787 6.36396
      vertex 1.14051e-14 51.364 6.36396
    endloop
  endfacet
  facet normal 0.041309 0.382345 0.923096
    outer loop
      vertex 10.1091 46.2372 8.69333
      vertex 1.09912e-14 49.5001 7.79423
      vertex 1.05092e-14 47.3294 8.69333
    endloop
  endfacet
  facet normal 0.0413096 0.382346 0.923095
    outer loop
      vertex 10.1091 46.2372 8.69333
      vertex 10.5727 48.3578 7.79423
      vertex 1.09912e-14 49.5001 7.79423
    endloop
  endfacet
  facet normal 0.0141021 0.130518 0.991346
    outer loop
      vertex 9.61156 43.9616 9
      vertex 1.05092e-14 47.3294 8.69333
      vertex 9.99202e-15 45.0001 9
    endloop
  endfacet
  facet normal 0.014101 0.130515 0.991346
    outer loop
      vertex 9.61156 43.9616 9
      vertex 10.1091 46.2372 8.69333
      vertex 1.05092e-14 47.3294 8.69333
    endloop
  endfacet
  facet normal -0.0141009 -0.130513 0.991346
    outer loop
      vertex 9.11403 41.686 8.69333
      vertex 9.99202e-15 45.0001 9
      vertex 9.4748e-15 42.6707 8.69333
    endloop
  endfacet
  facet normal -0.0141018 -0.130515 0.991346
    outer loop
      vertex 9.11403 41.686 8.69333
      vertex 9.61156 43.9616 9
      vertex 9.99202e-15 45.0001 9
    endloop
  endfacet
  facet normal -0.0413106 -0.38236 0.92309
    outer loop
      vertex 8.65041 39.5655 7.79423
      vertex 9.4748e-15 42.6707 8.69333
      vertex 8.99282e-15 40.5001 7.79423
    endloop
  endfacet
  facet normal -0.0413111 -0.382361 0.923089
    outer loop
      vertex 8.65041 39.5655 7.79423
      vertex 9.11403 41.686 8.69333
      vertex 9.4748e-15 42.6707 8.69333
    endloop
  endfacet
  facet normal -0.0656297 -0.607442 0.791649
    outer loop
      vertex 8.25228 37.7445 6.36396
      vertex 8.99282e-15 40.5001 7.79423
      vertex 8.57894e-15 38.6361 6.36396
    endloop
  endfacet
  facet normal -0.0656284 -0.607439 0.791651
    outer loop
      vertex 8.25228 37.7445 6.36396
      vertex 8.65041 39.5655 7.79423
      vertex 8.99282e-15 40.5001 7.79423
    endloop
  endfacet
  facet normal -0.085393 -0.790449 0.606547
    outer loop
      vertex 7.94679 36.3473 4.5
      vertex 8.57894e-15 38.6361 6.36396
      vertex 8.26136e-15 37.2058 4.5
    endloop
  endfacet
  facet normal -0.0854043 -0.790467 0.606521
    outer loop
      vertex 7.94679 36.3473 4.5
      vertex 8.25228 37.7445 6.36396
      vertex 8.57894e-15 38.6361 6.36396
    endloop
  endfacet
  facet normal -0.0993197 -0.919312 0.38079
    outer loop
      vertex 7.75475 35.4689 2.32937
      vertex 8.26136e-15 37.2058 4.5
      vertex 8.06171e-15 36.3067 2.32937
    endloop
  endfacet
  facet normal -0.0993136 -0.919306 0.380807
    outer loop
      vertex 7.75475 35.4689 2.32937
      vertex 7.94679 36.3473 4.5
      vertex 8.26136e-15 37.2058 4.5
    endloop
  endfacet
  facet normal -0.106514 -0.985808 0.129756
    outer loop
      vertex 7.68925 35.1693 0
      vertex 8.06171e-15 36.3067 2.32937
      vertex 7.99362e-15 36.0001 0
    endloop
  endfacet
  facet normal -0.106503 -0.985805 0.129788
    outer loop
      vertex 7.68925 35.1693 0
      vertex 7.75475 35.4689 2.32937
      vertex 8.06171e-15 36.3067 2.32937
    endloop
  endfacet
  facet normal 0.31461 0.940306 0.129787
    outer loop
      vertex 22.4074 48.7943 2.32937
      vertex 11.5339 52.7539 0
      vertex 11.4684 52.4543 2.32937
    endloop
  endfacet
  facet normal 0.314609 0.940306 0.129792
    outer loop
      vertex 22.4074 48.7943 2.32937
      vertex 22.5354 49.073 0
      vertex 11.5339 52.7539 0
    endloop
  endfacet
  facet normal 0.293388 0.876887 0.380779
    outer loop
      vertex 22.0322 47.9773 4.5
      vertex 11.4684 52.4543 2.32937
      vertex 11.2763 51.576 4.5
    endloop
  endfacet
  facet normal 0.293393 0.876891 0.380766
    outer loop
      vertex 22.0322 47.9773 4.5
      vertex 22.4074 48.7943 2.32937
      vertex 11.4684 52.4543 2.32937
    endloop
  endfacet
  facet normal 0.252261 0.753965 0.606548
    outer loop
      vertex 21.4353 46.6775 6.36396
      vertex 11.2763 51.576 4.5
      vertex 10.9708 50.1787 6.36396
    endloop
  endfacet
  facet normal 0.252261 0.753966 0.606547
    outer loop
      vertex 21.4353 46.6775 6.36396
      vertex 22.0322 47.9773 4.5
      vertex 11.2763 51.576 4.5
    endloop
  endfacet
  facet normal 0.193865 0.579424 0.791634
    outer loop
      vertex 20.6575 44.9836 7.79423
      vertex 10.9708 50.1787 6.36396
      vertex 10.5727 48.3578 7.79423
    endloop
  endfacet
  facet normal 0.193861 0.579417 0.79164
    outer loop
      vertex 20.6575 44.9836 7.79423
      vertex 21.4353 46.6775 6.36396
      vertex 10.9708 50.1787 6.36396
    endloop
  endfacet
  facet normal 0.122022 0.364701 0.923095
    outer loop
      vertex 19.7516 43.011 8.69333
      vertex 10.5727 48.3578 7.79423
      vertex 10.1091 46.2372 8.69333
    endloop
  endfacet
  facet normal 0.122023 0.364703 0.923094
    outer loop
      vertex 19.7516 43.011 8.69333
      vertex 20.6575 44.9836 7.79423
      vertex 10.5727 48.3578 7.79423
    endloop
  endfacet
  facet normal 0.0416522 0.124491 0.991346
    outer loop
      vertex 18.7795 40.8942 9
      vertex 10.1091 46.2372 8.69333
      vertex 9.61156 43.9616 9
    endloop
  endfacet
  facet normal 0.0416528 0.124492 0.991346
    outer loop
      vertex 18.7795 40.8942 9
      vertex 19.7516 43.011 8.69333
      vertex 10.1091 46.2372 8.69333
    endloop
  endfacet
  facet normal -0.041652 -0.124492 0.991346
    outer loop
      vertex 17.8074 38.7774 8.69333
      vertex 9.61156 43.9616 9
      vertex 9.11403 41.686 8.69333
    endloop
  endfacet
  facet normal -0.0416526 -0.124492 0.991346
    outer loop
      vertex 17.8074 38.7774 8.69333
      vertex 18.7795 40.8942 9
      vertex 9.61156 43.9616 9
    endloop
  endfacet
  facet normal -0.122027 -0.364714 0.923089
    outer loop
      vertex 16.9016 36.8048 7.79423
      vertex 9.11403 41.686 8.69333
      vertex 8.65041 39.5655 7.79423
    endloop
  endfacet
  facet normal -0.122023 -0.364708 0.923092
    outer loop
      vertex 16.9016 36.8048 7.79423
      vertex 17.8074 38.7774 8.69333
      vertex 9.11403 41.686 8.69333
    endloop
  endfacet
  facet normal -0.193856 -0.579404 0.791651
    outer loop
      vertex 16.1237 35.1109 6.36396
      vertex 8.65041 39.5655 7.79423
      vertex 8.25228 37.7445 6.36396
    endloop
  endfacet
  facet normal -0.19386 -0.57941 0.791645
    outer loop
      vertex 16.1237 35.1109 6.36396
      vertex 16.9016 36.8048 7.79423
      vertex 8.65041 39.5655 7.79423
    endloop
  endfacet
  facet normal -0.252275 -0.753982 0.606521
    outer loop
      vertex 15.5268 33.8111 4.5
      vertex 8.25228 37.7445 6.36396
      vertex 7.94679 36.3473 4.5
    endloop
  endfacet
  facet normal -0.25226 -0.753966 0.606547
    outer loop
      vertex 15.5268 33.8111 4.5
      vertex 16.1237 35.1109 6.36396
      vertex 8.25228 37.7445 6.36396
    endloop
  endfacet
  facet normal -0.293381 -0.876877 0.380806
    outer loop
      vertex 15.1516 32.9941 2.32937
      vertex 7.94679 36.3473 4.5
      vertex 7.75475 35.4689 2.32937
    endloop
  endfacet
  facet normal -0.293399 -0.876889 0.380766
    outer loop
      vertex 15.1516 32.9941 2.32937
      vertex 15.5268 33.8111 4.5
      vertex 7.94679 36.3473 4.5
    endloop
  endfacet
  facet normal -0.314605 -0.940308 0.129787
    outer loop
      vertex 15.0236 32.7154 0
      vertex 7.75475 35.4689 2.32937
      vertex 7.68925 35.1693 0
    endloop
  endfacet
  facet normal -0.314603 -0.940308 0.129792
    outer loop
      vertex 15.0236 32.7154 0
      vertex 15.1516 32.9941 2.32937
      vertex 7.75475 35.4689 2.32937
    endloop
  endfacet
  facet normal 0.508187 0.851411 0.129793
    outer loop
      vertex 32.3123 42.8823 2.32937
      vertex 22.5354 49.073 0
      vertex 22.4074 48.7943 2.32937
    endloop
  endfacet
  facet normal 0.508188 0.851411 0.129787
    outer loop
      vertex 32.3123 42.8823 2.32937
      vertex 32.4969 43.1272 0
      vertex 22.5354 49.073 0
    endloop
  endfacet
  facet normal 0.473912 0.793992 0.380767
    outer loop
      vertex 31.7713 42.1643 4.5
      vertex 22.4074 48.7943 2.32937
      vertex 22.0322 47.9773 4.5
    endloop
  endfacet
  facet normal 0.473917 0.793995 0.380755
    outer loop
      vertex 31.7713 42.1643 4.5
      vertex 32.3123 42.8823 2.32937
      vertex 22.4074 48.7943 2.32937
    endloop
  endfacet
  facet normal 0.407478 0.682687 0.606548
    outer loop
      vertex 30.9105 41.022 6.36396
      vertex 22.0322 47.9773 4.5
      vertex 21.4353 46.6775 6.36396
    endloop
  endfacet
  facet normal 0.407476 0.682685 0.606551
    outer loop
      vertex 30.9105 41.022 6.36396
      vertex 31.7713 42.1643 4.5
      vertex 22.0322 47.9773 4.5
    endloop
  endfacet
  facet normal 0.313148 0.524641 0.791638
    outer loop
      vertex 29.7888 39.5333 7.79423
      vertex 21.4353 46.6775 6.36396
      vertex 20.6575 44.9836 7.79423
    endloop
  endfacet
  facet normal 0.313139 0.524632 0.791647
    outer loop
      vertex 29.7888 39.5333 7.79423
      vertex 30.9105 41.022 6.36396
      vertex 21.4353 46.6775 6.36396
    endloop
  endfacet
  facet normal 0.197104 0.330223 0.923094
    outer loop
      vertex 28.4825 37.7997 8.69333
      vertex 20.6575 44.9836 7.79423
      vertex 19.7516 43.011 8.69333
    endloop
  endfacet
  facet normal 0.197104 0.330224 0.923094
    outer loop
      vertex 28.4825 37.7997 8.69333
      vertex 29.7888 39.5333 7.79423
      vertex 20.6575 44.9836 7.79423
    endloop
  endfacet
  facet normal 0.0672817 0.112723 0.991346
    outer loop
      vertex 27.0807 35.9394 9
      vertex 19.7516 43.011 8.69333
      vertex 18.7795 40.8942 9
    endloop
  endfacet
  facet normal 0.0672824 0.112724 0.991346
    outer loop
      vertex 27.0807 35.9394 9
      vertex 28.4825 37.7997 8.69333
      vertex 19.7516 43.011 8.69333
    endloop
  endfacet
  facet normal -0.0672826 -0.112722 0.991346
    outer loop
      vertex 25.6789 34.079 8.69333
      vertex 18.7795 40.8942 9
      vertex 17.8074 38.7774 8.69333
    endloop
  endfacet
  facet normal -0.0672798 -0.11272 0.991346
    outer loop
      vertex 25.6789 34.079 8.69333
      vertex 27.0807 35.9394 9
      vertex 18.7795 40.8942 9
    endloop
  endfacet
  facet normal -0.197106 -0.330231 0.923091
    outer loop
      vertex 24.3727 32.3455 7.79423
      vertex 17.8074 38.7774 8.69333
      vertex 16.9016 36.8048 7.79423
    endloop
  endfacet
  facet normal -0.197117 -0.330241 0.923085
    outer loop
      vertex 24.3727 32.3455 7.79423
      vertex 25.6789 34.079 8.69333
      vertex 17.8074 38.7774 8.69333
    endloop
  endfacet
  facet normal -0.31314 -0.524633 0.791646
    outer loop
      vertex 23.251 30.8568 6.36396
      vertex 16.9016 36.8048 7.79423
      vertex 16.1237 35.1109 6.36396
    endloop
  endfacet
  facet normal -0.313139 -0.524633 0.791647
    outer loop
      vertex 23.251 30.8568 6.36396
      vertex 24.3727 32.3455 7.79423
      vertex 16.9016 36.8048 7.79423
    endloop
  endfacet
  facet normal -0.407479 -0.682686 0.606547
    outer loop
      vertex 22.3902 29.7145 4.5
      vertex 16.1237 35.1109 6.36396
      vertex 15.5268 33.8111 4.5
    endloop
  endfacet
  facet normal -0.407477 -0.682685 0.606551
    outer loop
      vertex 22.3902 29.7145 4.5
      vertex 23.251 30.8568 6.36396
      vertex 16.1237 35.1109 6.36396
    endloop
  endfacet
  facet normal -0.47392 -0.793988 0.380766
    outer loop
      vertex 21.8492 28.9964 2.32937
      vertex 15.5268 33.8111 4.5
      vertex 15.1516 32.9941 2.32937
    endloop
  endfacet
  facet normal -0.47391 -0.793984 0.380786
    outer loop
      vertex 21.8492 28.9964 2.32937
      vertex 22.3902 29.7145 4.5
      vertex 15.5268 33.8111 4.5
    endloop
  endfacet
  facet normal -0.508191 -0.851408 0.129793
    outer loop
      vertex 21.6646 28.7515 0
      vertex 15.1516 32.9941 2.32937
      vertex 15.0236 32.7154 0
    endloop
  endfacet
  facet normal -0.508193 -0.851408 0.129787
    outer loop
      vertex 21.6646 28.7515 0
      vertex 21.8492 28.9964 2.32937
      vertex 15.1516 32.9941 2.32937
    endloop
  endfacet
  facet normal 0.678309 0.723223 0.129792
    outer loop
      vertex 40.7259 34.9912 2.32937
      vertex 32.4969 43.1272 0
      vertex 32.3123 42.8823 2.32937
    endloop
  endfacet
  facet normal 0.678315 0.723221 0.129767
    outer loop
      vertex 40.7259 34.9912 2.32937
      vertex 40.9585 35.191 0
      vertex 32.4969 43.1272 0
    endloop
  endfacet
  facet normal 0.632578 0.674442 0.380753
    outer loop
      vertex 40.0439 34.4052 4.5
      vertex 32.3123 42.8823 2.32937
      vertex 31.7713 42.1643 4.5
    endloop
  endfacet
  facet normal 0.632549 0.674432 0.380818
    outer loop
      vertex 40.0439 34.4052 4.5
      vertex 40.7259 34.9912 2.32937
      vertex 32.3123 42.8823 2.32937
    endloop
  endfacet
  facet normal 0.54389 0.579893 0.606554
    outer loop
      vertex 38.9591 33.4731 6.36396
      vertex 31.7713 42.1643 4.5
      vertex 30.9105 41.022 6.36396
    endloop
  endfacet
  facet normal 0.543905 0.579901 0.606533
    outer loop
      vertex 38.9591 33.4731 6.36396
      vertex 40.0439 34.4052 4.5
      vertex 31.7713 42.1643 4.5
    endloop
  endfacet
  facet normal 0.417972 0.445642 0.791645
    outer loop
      vertex 37.5453 32.2584 7.79423
      vertex 30.9105 41.022 6.36396
      vertex 29.7888 39.5333 7.79423
    endloop
  endfacet
  facet normal 0.417977 0.445645 0.791641
    outer loop
      vertex 37.5453 32.2584 7.79423
      vertex 38.9591 33.4731 6.36396
      vertex 30.9105 41.022 6.36396
    endloop
  endfacet
  facet normal 0.263085 0.280506 0.923094
    outer loop
      vertex 35.8989 30.8439 8.69333
      vertex 29.7888 39.5333 7.79423
      vertex 28.4825 37.7997 8.69333
    endloop
  endfacet
  facet normal 0.263097 0.280514 0.923088
    outer loop
      vertex 35.8989 30.8439 8.69333
      vertex 37.5453 32.2584 7.79423
      vertex 29.7888 39.5333 7.79423
    endloop
  endfacet
  facet normal 0.0898062 0.0957511 0.991346
    outer loop
      vertex 34.1321 29.3258 9
      vertex 28.4825 37.7997 8.69333
      vertex 27.0807 35.9394 9
    endloop
  endfacet
  facet normal 0.0898015 0.095748 0.991347
    outer loop
      vertex 34.1321 29.3258 9
      vertex 35.8989 30.8439 8.69333
      vertex 28.4825 37.7997 8.69333
    endloop
  endfacet
  facet normal -0.0898029 -0.0957485 0.991346
    outer loop
      vertex 32.3653 27.8078 8.69333
      vertex 27.0807 35.9394 9
      vertex 25.6789 34.079 8.69333
    endloop
  endfacet
  facet normal -0.0898051 -0.0957499 0.991346
    outer loop
      vertex 32.3653 27.8078 8.69333
      vertex 34.1321 29.3258 9
      vertex 27.0807 35.9394 9
    endloop
  endfacet
  facet normal -0.263103 -0.280519 0.923085
    outer loop
      vertex 30.7189 26.3933 7.79423
      vertex 25.6789 34.079 8.69333
      vertex 24.3727 32.3455 7.79423
    endloop
  endfacet
  facet normal -0.263096 -0.280515 0.923088
    outer loop
      vertex 30.7189 26.3933 7.79423
      vertex 32.3653 27.8078 8.69333
      vertex 25.6789 34.079 8.69333
    endloop
  endfacet
  facet normal -0.417972 -0.445642 0.791645
    outer loop
      vertex 29.3051 25.1786 6.36396
      vertex 24.3727 32.3455 7.79423
      vertex 23.251 30.8568 6.36396
    endloop
  endfacet
  facet normal -0.417977 -0.445645 0.791641
    outer loop
      vertex 29.3051 25.1786 6.36396
      vertex 30.7189 26.3933 7.79423
      vertex 24.3727 32.3455 7.79423
    endloop
  endfacet
  facet normal -0.543883 -0.579899 0.606554
    outer loop
      vertex 28.2203 24.2465 4.5
      vertex 23.251 30.8568 6.36396
      vertex 22.3902 29.7145 4.5
    endloop
  endfacet
  facet normal -0.5439 -0.579906 0.606533
    outer loop
      vertex 28.2203 24.2465 4.5
      vertex 29.3051 25.1786 6.36396
      vertex 23.251 30.8568 6.36396
    endloop
  endfacet
  facet normal -0.632566 -0.674438 0.38078
    outer loop
      vertex 27.5383 23.6605 2.32937
      vertex 22.3902 29.7145 4.5
      vertex 21.8492 28.9964 2.32937
    endloop
  endfacet
  facet normal -0.632547 -0.674435 0.380818
    outer loop
      vertex 27.5383 23.6605 2.32937
      vertex 28.2203 24.2465 4.5
      vertex 22.3902 29.7145 4.5
    endloop
  endfacet
  facet normal -0.678311 -0.723221 0.129792
    outer loop
      vertex 27.3057 23.4607 0
      vertex 21.8492 28.9964 2.32937
      vertex 21.6646 28.7515 0
    endloop
  endfacet
  facet normal -0.678318 -0.723218 0.129767
    outer loop
      vertex 27.3057 23.4607 0
      vertex 27.5383 23.6605 2.32937
      vertex 21.8492 28.9964 2.32937
    endloop
  endfacet
  facet normal 0.817135 0.56165 0.12977
    outer loop
      vertex 47.2599 25.485 2.32937
      vertex 40.9585 35.191 0
      vertex 40.7259 34.9912 2.32937
    endloop
  endfacet
  facet normal 0.817131 0.561652 0.129786
    outer loop
      vertex 47.2599 25.485 2.32937
      vertex 47.5298 25.6306 0
      vertex 40.9585 35.191 0
    endloop
  endfacet
  facet normal 0.762004 0.523764 0.380817
    outer loop
      vertex 46.4685 25.0583 4.5
      vertex 40.7259 34.9912 2.32937
      vertex 40.0439 34.4052 4.5
    endloop
  endfacet
  facet normal 0.762017 0.523765 0.380789
    outer loop
      vertex 46.4685 25.0583 4.5
      vertex 47.2599 25.485 2.32937
      vertex 40.7259 34.9912 2.32937
    endloop
  endfacet
  facet normal 0.655211 0.450355 0.60653
    outer loop
      vertex 45.2096 24.3794 6.36396
      vertex 40.0439 34.4052 4.5
      vertex 38.9591 33.4731 6.36396
    endloop
  endfacet
  facet normal 0.6552 0.450352 0.606545
    outer loop
      vertex 45.2096 24.3794 6.36396
      vertex 46.4685 25.0583 4.5
      vertex 40.0439 34.4052 4.5
    endloop
  endfacet
  facet normal 0.503514 0.346088 0.791642
    outer loop
      vertex 43.569 23.4947 7.79423
      vertex 38.9591 33.4731 6.36396
      vertex 37.5453 32.2584 7.79423
    endloop
  endfacet
  facet normal 0.503518 0.34609 0.791639
    outer loop
      vertex 43.569 23.4947 7.79423
      vertex 45.2096 24.3794 6.36396
      vertex 38.9591 33.4731 6.36396
    endloop
  endfacet
  facet normal 0.31694 0.217843 0.923089
    outer loop
      vertex 41.6584 22.4644 8.69333
      vertex 37.5453 32.2584 7.79423
      vertex 35.8989 30.8439 8.69333
    endloop
  endfacet
  facet normal 0.316925 0.217837 0.923095
    outer loop
      vertex 41.6584 22.4644 8.69333
      vertex 43.569 23.4947 7.79423
      vertex 37.5453 32.2584 7.79423
    endloop
  endfacet
  facet normal 0.108181 0.0743578 0.991346
    outer loop
      vertex 39.6082 21.3588 9
      vertex 35.8989 30.8439 8.69333
      vertex 34.1321 29.3258 9
    endloop
  endfacet
  facet normal 0.108186 0.07436 0.991346
    outer loop
      vertex 39.6082 21.3588 9
      vertex 41.6584 22.4644 8.69333
      vertex 35.8989 30.8439 8.69333
    endloop
  endfacet
  facet normal -0.108184 -0.0743592 0.991346
    outer loop
      vertex 37.5579 20.2532 8.69333
      vertex 34.1321 29.3258 9
      vertex 32.3653 27.8078 8.69333
    endloop
  endfacet
  facet normal -0.108182 -0.0743586 0.991346
    outer loop
      vertex 37.5579 20.2532 8.69333
      vertex 39.6082 21.3588 9
      vertex 34.1321 29.3258 9
    endloop
  endfacet
  facet normal -0.31694 -0.217844 0.923089
    outer loop
      vertex 35.6473 19.223 7.79423
      vertex 32.3653 27.8078 8.69333
      vertex 30.7189 26.3933 7.79423
    endloop
  endfacet
  facet normal -0.316933 -0.217841 0.923092
    outer loop
      vertex 35.6473 19.223 7.79423
      vertex 37.5579 20.2532 8.69333
      vertex 32.3653 27.8078 8.69333
    endloop
  endfacet
  facet normal -0.503519 -0.346082 0.791641
    outer loop
      vertex 34.0067 18.3382 6.36396
      vertex 30.7189 26.3933 7.79423
      vertex 29.3051 25.1786 6.36396
    endloop
  endfacet
  facet normal -0.50351 -0.34608 0.791648
    outer loop
      vertex 34.0067 18.3382 6.36396
      vertex 35.6473 19.223 7.79423
      vertex 30.7189 26.3933 7.79423
    endloop
  endfacet
  facet normal -0.655216 -0.450348 0.60653
    outer loop
      vertex 32.7478 17.6594 4.5
      vertex 29.3051 25.1786 6.36396
      vertex 28.2203 24.2465 4.5
    endloop
  endfacet
  facet normal -0.655216 -0.450348 0.60653
    outer loop
      vertex 32.7478 17.6594 4.5
      vertex 34.0067 18.3382 6.36396
      vertex 29.3051 25.1786 6.36396
    endloop
  endfacet
  facet normal -0.762005 -0.523762 0.380817
    outer loop
      vertex 31.9565 17.2326 2.32937
      vertex 28.2203 24.2465 4.5
      vertex 27.5383 23.6605 2.32937
    endloop
  endfacet
  facet normal -0.762025 -0.523761 0.380779
    outer loop
      vertex 31.9565 17.2326 2.32937
      vertex 32.7478 17.6594 4.5
      vertex 28.2203 24.2465 4.5
    endloop
  endfacet
  facet normal -0.817137 -0.561647 0.12977
    outer loop
      vertex 31.6865 17.0871 0
      vertex 27.5383 23.6605 2.32937
      vertex 27.3057 23.4607 0
    endloop
  endfacet
  facet normal -0.817129 -0.561652 0.129797
    outer loop
      vertex 31.6865 17.0871 0
      vertex 31.9565 17.2326 2.32937
      vertex 27.5383 23.6605 2.32937
    endloop
  endfacet
  facet normal 0.91824 0.374154 0.129782
    outer loop
      vertex 51.6126 14.8027 2.32937
      vertex 47.5298 25.6306 0
      vertex 47.2599 25.485 2.32937
    endloop
  endfacet
  facet normal 0.91824 0.374154 0.129783
    outer loop
      vertex 51.6126 14.8027 2.32937
      vertex 51.9074 14.8872 0
      vertex 47.5298 25.6306 0
    endloop
  endfacet
  facet normal 0.856304 0.348913 0.380793
    outer loop
      vertex 50.7483 14.5548 4.5
      vertex 47.2599 25.485 2.32937
      vertex 46.4685 25.0583 4.5
    endloop
  endfacet
  facet normal 0.856297 0.348914 0.380808
    outer loop
      vertex 50.7483 14.5548 4.5
      vertex 51.6126 14.8027 2.32937
      vertex 47.2599 25.485 2.32937
    endloop
  endfacet
  facet normal 0.736274 0.30001 0.606543
    outer loop
      vertex 49.3735 14.1605 6.36396
      vertex 46.4685 25.0583 4.5
      vertex 45.2096 24.3794 6.36396
    endloop
  endfacet
  facet normal 0.736287 0.300011 0.606527
    outer loop
      vertex 49.3735 14.1605 6.36396
      vertex 50.7483 14.5548 4.5
      vertex 46.4685 25.0583 4.5
    endloop
  endfacet
  facet normal 0.565821 0.230555 0.791639
    outer loop
      vertex 47.5818 13.6466 7.79423
      vertex 45.2096 24.3794 6.36396
      vertex 43.569 23.4947 7.79423
    endloop
  endfacet
  facet normal 0.565819 0.230554 0.79164
    outer loop
      vertex 47.5818 13.6466 7.79423
      vertex 49.3735 14.1605 6.36396
      vertex 45.2096 24.3794 6.36396
    endloop
  endfacet
  facet normal 0.356139 0.145119 0.923096
    outer loop
      vertex 45.4953 13.0482 8.69333
      vertex 43.569 23.4947 7.79423
      vertex 41.6584 22.4644 8.69333
    endloop
  endfacet
  facet normal 0.356152 0.145121 0.92309
    outer loop
      vertex 45.4953 13.0482 8.69333
      vertex 47.5818 13.6466 7.79423
      vertex 43.569 23.4947 7.79423
    endloop
  endfacet
  facet normal 0.121572 0.0495371 0.991346
    outer loop
      vertex 43.2562 12.406 9
      vertex 41.6584 22.4644 8.69333
      vertex 39.6082 21.3588 9
    endloop
  endfacet
  facet normal 0.121568 0.0495365 0.991346
    outer loop
      vertex 43.2562 12.406 9
      vertex 45.4953 13.0482 8.69333
      vertex 41.6584 22.4644 8.69333
    endloop
  endfacet
  facet normal -0.121567 -0.0495359 0.991346
    outer loop
      vertex 41.0171 11.7639 8.69333
      vertex 39.6082 21.3588 9
      vertex 37.5579 20.2532 8.69333
    endloop
  endfacet
  facet normal -0.121571 -0.0495364 0.991346
    outer loop
      vertex 41.0171 11.7639 8.69333
      vertex 43.2562 12.406 9
      vertex 39.6082 21.3588 9
    endloop
  endfacet
  facet normal -0.356144 -0.145121 0.923093
    outer loop
      vertex 38.9306 11.1654 7.79423
      vertex 37.5579 20.2532 8.69333
      vertex 35.6473 19.223 7.79423
    endloop
  endfacet
  facet normal -0.356145 -0.145121 0.923093
    outer loop
      vertex 38.9306 11.1654 7.79423
      vertex 41.0171 11.7639 8.69333
      vertex 37.5579 20.2532 8.69333
    endloop
  endfacet
  facet normal -0.565812 -0.230554 0.791645
    outer loop
      vertex 37.1388 10.6516 6.36396
      vertex 35.6473 19.223 7.79423
      vertex 34.0067 18.3382 6.36396
    endloop
  endfacet
  facet normal -0.565807 -0.230554 0.791649
    outer loop
      vertex 37.1388 10.6516 6.36396
      vertex 38.9306 11.1654 7.79423
      vertex 35.6473 19.223 7.79423
    endloop
  endfacet
  facet normal -0.736279 -0.300018 0.606533
    outer loop
      vertex 35.764 10.2573 4.5
      vertex 34.0067 18.3382 6.36396
      vertex 32.7478 17.6594 4.5
    endloop
  endfacet
  facet normal -0.736285 -0.300018 0.606526
    outer loop
      vertex 35.764 10.2573 4.5
      vertex 37.1388 10.6516 6.36396
      vertex 34.0067 18.3382 6.36396
    endloop
  endfacet
  facet normal -0.856311 -0.348917 0.380773
    outer loop
      vertex 34.8997 10.0094 2.32937
      vertex 32.7478 17.6594 4.5
      vertex 31.9565 17.2326 2.32937
    endloop
  endfacet
  facet normal -0.856294 -0.348922 0.380808
    outer loop
      vertex 34.8997 10.0094 2.32937
      vertex 35.764 10.2573 4.5
      vertex 32.7478 17.6594 4.5
    endloop
  endfacet
  facet normal -0.918237 -0.374153 0.129805
    outer loop
      vertex 34.6049 9.92484 0
      vertex 31.9565 17.2326 2.32937
      vertex 31.6865 17.0871 0
    endloop
  endfacet
  facet normal -0.91824 -0.374151 0.129793
    outer loop
      vertex 34.6049 9.92484 0
      vertex 34.8997 10.0094 2.32937
      vertex 31.9565 17.2326 2.32937
    endloop
  endfacet
  facet normal -0.0921512 -0.987255 -0.129751
    outer loop
      vertex 10.662 51.6383 2.07055
      vertex 1.1687e-14 52.6335 2.07055
      vertex 1.17426e-14 52.8839 0.165291
    endloop
  endfacet
  facet normal -0.0921581 -0.987273 -0.129613
    outer loop
      vertex 10.7171 51.9052 0
      vertex 1.17426e-14 52.8839 0.165291
      vertex 1.17474e-14 52.9056 0
    endloop
  endfacet
  facet normal -0.0921584 -0.98726 -0.129713
    outer loop
      vertex 1.17426e-14 52.8839 0.165291
      vertex 10.7171 51.9052 0
      vertex 10.662 51.6383 2.07055
    endloop
  endfacet
  facet normal -0.0859471 -0.9207 -0.380689
    outer loop
      vertex 10.5003 50.8556 4
      vertex 1.15099e-14 51.8358 4
      vertex 1.16727e-14 52.5693 2.22602
    endloop
  endfacet
  facet normal -0.0859551 -0.920874 -0.380267
    outer loop
      vertex 10.662 51.6383 2.07055
      vertex 1.16727e-14 52.5693 2.22602
      vertex 1.1687e-14 52.6335 2.07055
    endloop
  endfacet
  facet normal -0.0859461 -0.920699 -0.380693
    outer loop
      vertex 1.16727e-14 52.5693 2.22602
      vertex 10.662 51.6383 2.07055
      vertex 10.5003 50.8556 4
    endloop
  endfacet
  facet normal -0.0739055 -0.791713 -0.606406
    outer loop
      vertex 10.2433 49.6105 5.65685
      vertex 1.12281e-14 50.5667 5.65685
      vertex 1.14869e-14 51.7326 4.13467
    endloop
  endfacet
  facet normal -0.0738481 -0.791573 -0.606596
    outer loop
      vertex 1.15099e-14 51.8358 4
      vertex 10.2433 49.6105 5.65685
      vertex 1.14869e-14 51.7326 4.13467
    endloop
  endfacet
  facet normal -0.0739053 -0.791704 -0.606418
    outer loop
      vertex 10.2433 49.6105 5.65685
      vertex 1.15099e-14 51.8358 4
      vertex 10.5003 50.8556 4
    endloop
  endfacet
  facet normal -0.0568042 -0.608464 -0.791546
    outer loop
      vertex 9.90824 47.9878 6.9282
      vertex 1.08608e-14 48.9128 6.9282
      vertex 1.1198e-14 50.4312 5.761
    endloop
  endfacet
  facet normal -0.0567972 -0.608444 -0.791562
    outer loop
      vertex 1.1198e-14 50.4312 5.761
      vertex 10.2433 49.6105 5.65685
      vertex 9.90824 47.9878 6.9282
    endloop
  endfacet
  facet normal -0.0567962 -0.60843 -0.791573
    outer loop
      vertex 10.2433 49.6105 5.65685
      vertex 1.1198e-14 50.4312 5.761
      vertex 1.12281e-14 50.5667 5.65685
    endloop
  endfacet
  facet normal -0.0357551 -0.383028 -0.923045
    outer loop
      vertex 9.51809 46.0983 7.72741
      vertex 1.04332e-14 46.9868 7.72741
      vertex 1.08256e-14 48.754 6.99409
    endloop
  endfacet
  facet normal -0.0357585 -0.383039 -0.92304
    outer loop
      vertex 1.08256e-14 48.754 6.99409
      vertex 9.90824 47.9878 6.9282
      vertex 9.51809 46.0983 7.72741
    endloop
  endfacet
  facet normal -0.0357555 -0.382999 -0.923057
    outer loop
      vertex 9.90824 47.9878 6.9282
      vertex 1.08256e-14 48.754 6.99409
      vertex 1.08608e-14 48.9128 6.9282
    endloop
  endfacet
  facet normal -0.0122047 -0.130746 -0.991341
    outer loop
      vertex 9.09941 44.0705 8
      vertex 9.97422e-15 44.9199 8
      vertex 1.03952e-14 46.8156 7.74998
    endloop
  endfacet
  facet normal -0.0122037 -0.130743 -0.991341
    outer loop
      vertex 1.03952e-14 46.8156 7.74998
      vertex 9.51809 46.0983 7.72741
      vertex 9.09941 44.0705 8
    endloop
  endfacet
  facet normal -0.0122 -0.130693 -0.991348
    outer loop
      vertex 9.51809 46.0983 7.72741
      vertex 1.03952e-14 46.8156 7.74998
      vertex 1.04332e-14 46.9868 7.72741
    endloop
  endfacet
  facet normal 0.0122039 0.130741 -0.991342
    outer loop
      vertex 8.68072 42.0427 7.72741
      vertex 9.51529e-15 42.853 7.72741
      vertex 9.93615e-15 44.7484 7.97738
    endloop
  endfacet
  facet normal 0.0122046 0.130743 -0.991341
    outer loop
      vertex 9.93615e-15 44.7484 7.97738
      vertex 9.09941 44.0705 8
      vertex 8.68072 42.0427 7.72741
    endloop
  endfacet
  facet normal 0.0122053 0.130753 -0.99134
    outer loop
      vertex 9.09941 44.0705 8
      vertex 9.93615e-15 44.7484 7.97738
      vertex 9.97422e-15 44.9199 8
    endloop
  endfacet
  facet normal 0.0357538 0.38302 -0.923048
    outer loop
      vertex 8.29057 40.1531 6.9282
      vertex 9.08763e-15 40.927 6.9282
      vertex 9.47984e-15 42.6934 7.66117
    endloop
  endfacet
  facet normal 0.0357545 0.383022 -0.923047
    outer loop
      vertex 9.47984e-15 42.6934 7.66117
      vertex 8.68072 42.0427 7.72741
      vertex 8.29057 40.1531 6.9282
    endloop
  endfacet
  facet normal 0.0357593 0.383088 -0.92302
    outer loop
      vertex 8.68072 42.0427 7.72741
      vertex 9.47984e-15 42.6934 7.66117
      vertex 9.51529e-15 42.853 7.72741
    endloop
  endfacet
  facet normal 0.0567966 0.608467 -0.791544
    outer loop
      vertex 7.95554 38.5305 5.65685
      vertex 8.72038e-15 39.2731 5.65685
      vertex 9.05732e-15 40.7905 6.82329
    endloop
  endfacet
  facet normal 0.0567968 0.608468 -0.791543
    outer loop
      vertex 9.05732e-15 40.7905 6.82329
      vertex 8.29057 40.1531 6.9282
      vertex 7.95554 38.5305 5.65685
    endloop
  endfacet
  facet normal 0.0567922 0.608399 -0.791597
    outer loop
      vertex 8.29057 40.1531 6.9282
      vertex 9.05732e-15 40.7905 6.82329
      vertex 9.08763e-15 40.927 6.9282
    endloop
  endfacet
  facet normal 0.0738997 0.791697 -0.606428
    outer loop
      vertex 7.69846 37.2854 4
      vertex 8.43859e-15 38.004 4
      vertex 8.69731e-15 39.1692 5.52118
    endloop
  endfacet
  facet normal 0.0739055 0.791756 -0.60635
    outer loop
      vertex 7.95554 38.5305 5.65685
      vertex 8.69731e-15 39.1692 5.52118
      vertex 8.72038e-15 39.2731 5.65685
    endloop
  endfacet
  facet normal 0.0739024 0.791702 -0.60642
    outer loop
      vertex 8.69731e-15 39.1692 5.52118
      vertex 7.95554 38.5305 5.65685
      vertex 7.69846 37.2854 4
    endloop
  endfacet
  facet normal 0.0859523 0.920709 -0.380667
    outer loop
      vertex 7.53686 36.5027 2.07055
      vertex 8.26145e-15 37.2063 2.07055
      vertex 8.42424e-15 37.9394 3.84368
    endloop
  endfacet
  facet normal 0.085948 0.920773 -0.380514
    outer loop
      vertex 7.69846 37.2854 4
      vertex 8.42424e-15 37.9394 3.84368
      vertex 8.43859e-15 38.004 4
    endloop
  endfacet
  facet normal 0.0859454 0.9207 -0.380689
    outer loop
      vertex 8.42424e-15 37.9394 3.84368
      vertex 7.69846 37.2854 4
      vertex 7.53686 36.5027 2.07055
    endloop
  endfacet
  facet normal 0.092171 0.987257 -0.129722
    outer loop
      vertex 7.48174 36.2357 0
      vertex 8.20103e-15 36.9342 0
      vertex 8.25662e-15 37.1845 1.90493
    endloop
  endfacet
  facet normal 0.0921623 0.987229 -0.129946
    outer loop
      vertex 7.53686 36.5027 2.07055
      vertex 8.25662e-15 37.1845 1.90493
      vertex 8.26145e-15 37.2063 2.07055
    endloop
  endfacet
  facet normal 0.0921604 0.987253 -0.129761
    outer loop
      vertex 8.25662e-15 37.1845 1.90493
      vertex 7.53686 36.5027 2.07055
      vertex 7.48174 36.2357 0
    endloop
  endfacet
  facet normal -0.306395 -0.943025 -0.129712
    outer loop
      vertex 21.7252 48.0438 2.07055
      vertex 10.662 51.6383 2.07055
      vertex 10.7171 51.9052 0
    endloop
  endfacet
  facet normal -0.306396 -0.943026 -0.129705
    outer loop
      vertex 21.7252 48.0438 2.07055
      vertex 10.7171 51.9052 0
      vertex 21.8375 48.2921 0
    endloop
  endfacet
  facet normal -0.28574 -0.879442 -0.380701
    outer loop
      vertex 21.3959 47.3155 4
      vertex 10.5003 50.8556 4
      vertex 10.662 51.6383 2.07055
    endloop
  endfacet
  facet normal -0.285734 -0.879435 -0.380722
    outer loop
      vertex 21.3959 47.3155 4
      vertex 10.662 51.6383 2.07055
      vertex 21.7252 48.0438 2.07055
    endloop
  endfacet
  facet normal -0.245708 -0.756235 -0.606413
    outer loop
      vertex 20.8721 46.1571 5.65685
      vertex 10.2433 49.6105 5.65685
      vertex 10.5003 50.8556 4
    endloop
  endfacet
  facet normal -0.24571 -0.756237 -0.606409
    outer loop
      vertex 20.8721 46.1571 5.65685
      vertex 10.5003 50.8556 4
      vertex 21.3959 47.3155 4
    endloop
  endfacet
  facet normal -0.188829 -0.581182 -0.791562
    outer loop
      vertex 20.1894 44.6474 6.9282
      vertex 9.90824 47.9878 6.9282
      vertex 10.2433 49.6105 5.65685
    endloop
  endfacet
  facet normal -0.188835 -0.581192 -0.791554
    outer loop
      vertex 20.1894 44.6474 6.9282
      vertex 10.2433 49.6105 5.65685
      vertex 20.8721 46.1571 5.65685
    endloop
  endfacet
  facet normal -0.118876 -0.365876 -0.92304
    outer loop
      vertex 19.3944 42.8894 7.72741
      vertex 9.51809 46.0983 7.72741
      vertex 9.90824 47.9878 6.9282
    endloop
  endfacet
  facet normal -0.118873 -0.365871 -0.923043
    outer loop
      vertex 19.3944 42.8894 7.72741
      vertex 9.90824 47.9878 6.9282
      vertex 20.1894 44.6474 6.9282
    endloop
  endfacet
  facet normal -0.0405755 -0.124885 -0.991341
    outer loop
      vertex 18.5413 41.0028 8
      vertex 9.09941 44.0705 8
      vertex 9.51809 46.0983 7.72741
    endloop
  endfacet
  facet normal -0.0405771 -0.124888 -0.991341
    outer loop
      vertex 18.5413 41.0028 8
      vertex 9.51809 46.0983 7.72741
      vertex 19.3944 42.8894 7.72741
    endloop
  endfacet
  facet normal 0.040576 0.124885 -0.991341
    outer loop
      vertex 17.6882 39.1161 7.72741
      vertex 8.68072 42.0427 7.72741
      vertex 9.09941 44.0705 8
    endloop
  endfacet
  facet normal 0.0405747 0.124882 -0.991342
    outer loop
      vertex 17.6882 39.1161 7.72741
      vertex 9.09941 44.0705 8
      vertex 18.5413 41.0028 8
    endloop
  endfacet
  facet normal 0.118869 0.365861 -0.923047
    outer loop
      vertex 16.8932 37.3581 6.9282
      vertex 8.29057 40.1531 6.9282
      vertex 8.68072 42.0427 7.72741
    endloop
  endfacet
  facet normal 0.118874 0.36587 -0.923043
    outer loop
      vertex 16.8932 37.3581 6.9282
      vertex 8.68072 42.0427 7.72741
      vertex 17.6882 39.1161 7.72741
    endloop
  endfacet
  facet normal 0.188838 0.581205 -0.791544
    outer loop
      vertex 16.2105 35.8484 5.65685
      vertex 7.95554 38.5305 5.65685
      vertex 8.29057 40.1531 6.9282
    endloop
  endfacet
  facet normal 0.18883 0.581193 -0.791554
    outer loop
      vertex 16.2105 35.8484 5.65685
      vertex 8.29057 40.1531 6.9282
      vertex 16.8932 37.3581 6.9282
    endloop
  endfacet
  facet normal 0.245701 0.756231 -0.606421
    outer loop
      vertex 15.6867 34.69 4
      vertex 7.69846 37.2854 4
      vertex 7.95554 38.5305 5.65685
    endloop
  endfacet
  facet normal 0.245708 0.756238 -0.606409
    outer loop
      vertex 15.6867 34.69 4
      vertex 7.95554 38.5305 5.65685
      vertex 16.2105 35.8484 5.65685
    endloop
  endfacet
  facet normal 0.285734 0.87945 -0.380689
    outer loop
      vertex 15.3574 33.9618 2.07055
      vertex 7.53686 36.5027 2.07055
      vertex 7.69846 37.2854 4
    endloop
  endfacet
  facet normal 0.285736 0.879452 -0.380683
    outer loop
      vertex 15.3574 33.9618 2.07055
      vertex 7.69846 37.2854 4
      vertex 15.6867 34.69 4
    endloop
  endfacet
  facet normal 0.306386 0.943022 -0.12976
    outer loop
      vertex 15.2451 33.7134 0
      vertex 7.48174 36.2357 0
      vertex 7.53686 36.5027 2.07055
    endloop
  endfacet
  facet normal 0.306389 0.943022 -0.12975
    outer loop
      vertex 15.2451 33.7134 0
      vertex 7.53686 36.5027 2.07055
      vertex 15.3574 33.9618 2.07055
    endloop
  endfacet
  facet normal -0.505719 -0.852892 -0.129707
    outer loop
      vertex 31.731 42.1109 2.07055
      vertex 21.7252 48.0438 2.07055
      vertex 21.8375 48.2921 0
    endloop
  endfacet
  facet normal -0.505709 -0.852891 -0.129754
    outer loop
      vertex 31.731 42.1109 2.07055
      vertex 21.8375 48.2921 0
      vertex 31.8951 42.3286 0
    endloop
  endfacet
  facet normal -0.471611 -0.795384 -0.38072
    outer loop
      vertex 31.2501 41.4726 4
      vertex 21.3959 47.3155 4
      vertex 21.7252 48.0438 2.07055
    endloop
  endfacet
  facet normal -0.471626 -0.795394 -0.380681
    outer loop
      vertex 31.2501 41.4726 4
      vertex 21.7252 48.0438 2.07055
      vertex 31.731 42.1109 2.07055
    endloop
  endfacet
  facet normal -0.405549 -0.68396 -0.606407
    outer loop
      vertex 30.485 40.4572 5.65685
      vertex 20.8721 46.1571 5.65685
      vertex 21.3959 47.3155 4
    endloop
  endfacet
  facet normal -0.405537 -0.683949 -0.606427
    outer loop
      vertex 30.485 40.4572 5.65685
      vertex 21.3959 47.3155 4
      vertex 31.2501 41.4726 4
    endloop
  endfacet
  facet normal -0.311672 -0.525644 -0.791555
    outer loop
      vertex 29.4879 39.134 6.9282
      vertex 20.1894 44.6474 6.9282
      vertex 20.8721 46.1571 5.65685
    endloop
  endfacet
  facet normal -0.311684 -0.525656 -0.791542
    outer loop
      vertex 29.4879 39.134 6.9282
      vertex 20.8721 46.1571 5.65685
      vertex 30.485 40.4572 5.65685
    endloop
  endfacet
  facet normal -0.196205 -0.3309 -0.923043
    outer loop
      vertex 28.3268 37.593 7.72741
      vertex 19.3944 42.8894 7.72741
      vertex 20.1894 44.6474 6.9282
    endloop
  endfacet
  facet normal -0.196197 -0.330892 -0.923048
    outer loop
      vertex 28.3268 37.593 7.72741
      vertex 20.1894 44.6474 6.9282
      vertex 29.4879 39.134 6.9282
    endloop
  endfacet
  facet normal -0.066974 -0.112951 -0.991341
    outer loop
      vertex 27.0807 35.9394 8
      vertex 18.5413 41.0028 8
      vertex 19.3944 42.8894 7.72741
    endloop
  endfacet
  facet normal -0.066973 -0.11295 -0.991341
    outer loop
      vertex 27.0807 35.9394 8
      vertex 19.3944 42.8894 7.72741
      vertex 28.3268 37.593 7.72741
    endloop
  endfacet
  facet normal 0.0669709 0.112947 -0.991341
    outer loop
      vertex 25.8347 34.2857 7.72741
      vertex 17.6882 39.1161 7.72741
      vertex 18.5413 41.0028 8
    endloop
  endfacet
  facet normal 0.0669721 0.112948 -0.991341
    outer loop
      vertex 25.8347 34.2857 7.72741
      vertex 18.5413 41.0028 8
      vertex 27.0807 35.9394 8
    endloop
  endfacet
  facet normal 0.196204 0.330901 -0.923043
    outer loop
      vertex 24.6736 32.7448 6.9282
      vertex 16.8932 37.3581 6.9282
      vertex 17.6882 39.1161 7.72741
    endloop
  endfacet
  facet normal 0.196206 0.330903 -0.923042
    outer loop
      vertex 24.6736 32.7448 6.9282
      vertex 17.6882 39.1161 7.72741
      vertex 25.8347 34.2857 7.72741
    endloop
  endfacet
  facet normal 0.311675 0.525642 -0.791555
    outer loop
      vertex 23.6765 31.4215 5.65685
      vertex 16.2105 35.8484 5.65685
      vertex 16.8932 37.3581 6.9282
    endloop
  endfacet
  facet normal 0.311672 0.52564 -0.791558
    outer loop
      vertex 23.6765 31.4215 5.65685
      vertex 16.8932 37.3581 6.9282
      vertex 24.6736 32.7448 6.9282
    endloop
  endfacet
  facet normal 0.405546 0.683961 -0.606407
    outer loop
      vertex 22.9114 30.4062 4
      vertex 15.6867 34.69 4
      vertex 16.2105 35.8484 5.65685
    endloop
  endfacet
  facet normal 0.405551 0.683964 -0.606401
    outer loop
      vertex 22.9114 30.4062 4
      vertex 16.2105 35.8484 5.65685
      vertex 23.6765 31.4215 5.65685
    endloop
  endfacet
  facet normal 0.471624 0.795393 -0.380684
    outer loop
      vertex 22.4304 29.7679 2.07055
      vertex 15.3574 33.9618 2.07055
      vertex 15.6867 34.69 4
    endloop
  endfacet
  facet normal 0.471617 0.795389 -0.380702
    outer loop
      vertex 22.4304 29.7679 2.07055
      vertex 15.6867 34.69 4
      vertex 22.9114 30.4062 4
    endloop
  endfacet
  facet normal 0.505711 0.85289 -0.129748
    outer loop
      vertex 22.2664 29.5502 0
      vertex 15.2451 33.7134 0
      vertex 15.3574 33.9618 2.07055
    endloop
  endfacet
  facet normal 0.505717 0.85289 -0.12973
    outer loop
      vertex 22.2664 29.5502 0
      vertex 15.3574 33.9618 2.07055
      vertex 22.4304 29.7679 2.07055
    endloop
  endfacet
  facet normal -0.680417 -0.721246 -0.129759
    outer loop
      vertex 40.1925 34.1284 2.07055
      vertex 31.731 42.1109 2.07055
      vertex 31.8951 42.3286 0
    endloop
  endfacet
  facet normal -0.680415 -0.721246 -0.129768
    outer loop
      vertex 40.1925 34.1284 2.07055
      vertex 31.8951 42.3286 0
      vertex 40.4003 34.3049 0
    endloop
  endfacet
  facet normal -0.634554 -0.672628 -0.380676
    outer loop
      vertex 39.5833 33.6111 4
      vertex 31.2501 41.4726 4
      vertex 31.731 42.1109 2.07055
    endloop
  endfacet
  facet normal -0.634549 -0.672626 -0.380687
    outer loop
      vertex 39.5833 33.6111 4
      vertex 31.731 42.1109 2.07055
      vertex 40.1925 34.1284 2.07055
    endloop
  endfacet
  facet normal -0.545639 -0.578382 -0.606426
    outer loop
      vertex 38.6142 32.7882 5.65685
      vertex 30.485 40.4572 5.65685
      vertex 31.2501 41.4726 4
    endloop
  endfacet
  facet normal -0.545646 -0.578386 -0.606416
    outer loop
      vertex 38.6142 32.7882 5.65685
      vertex 31.2501 41.4726 4
      vertex 39.5833 33.6111 4
    endloop
  endfacet
  facet normal -0.419357 -0.444519 -0.791544
    outer loop
      vertex 37.3512 31.7158 6.9282
      vertex 29.4879 39.134 6.9282
      vertex 30.485 40.4572 5.65685
    endloop
  endfacet
  facet normal -0.41935 -0.444515 -0.79155
    outer loop
      vertex 37.3512 31.7158 6.9282
      vertex 30.485 40.4572 5.65685
      vertex 38.6142 32.7882 5.65685
    endloop
  endfacet
  facet normal -0.263977 -0.279821 -0.923047
    outer loop
      vertex 35.8805 30.467 7.72741
      vertex 28.3268 37.593 7.72741
      vertex 29.4879 39.134 6.9282
    endloop
  endfacet
  facet normal -0.263991 -0.27983 -0.923041
    outer loop
      vertex 35.8805 30.467 7.72741
      vertex 29.4879 39.134 6.9282
      vertex 37.3512 31.7158 6.9282
    endloop
  endfacet
  facet normal -0.0901088 -0.0955159 -0.991341
    outer loop
      vertex 34.3021 29.1268 8
      vertex 27.0807 35.9394 8
      vertex 28.3268 37.593 7.72741
    endloop
  endfacet
  facet normal -0.0901055 -0.0955136 -0.991342
    outer loop
      vertex 34.3021 29.1268 8
      vertex 28.3268 37.593 7.72741
      vertex 35.8805 30.467 7.72741
    endloop
  endfacet
  facet normal 0.0901085 0.0955158 -0.991341
    outer loop
      vertex 32.7238 27.7866 7.72741
      vertex 25.8347 34.2857 7.72741
      vertex 27.0807 35.9394 8
    endloop
  endfacet
  facet normal 0.090109 0.0955161 -0.991341
    outer loop
      vertex 32.7238 27.7866 7.72741
      vertex 27.0807 35.9394 8
      vertex 34.3021 29.1268 8
    endloop
  endfacet
  facet normal 0.263989 0.279828 -0.923042
    outer loop
      vertex 31.2531 26.5377 6.9282
      vertex 24.6736 32.7448 6.9282
      vertex 25.8347 34.2857 7.72741
    endloop
  endfacet
  facet normal 0.263981 0.279822 -0.923046
    outer loop
      vertex 31.2531 26.5377 6.9282
      vertex 25.8347 34.2857 7.72741
      vertex 32.7238 27.7866 7.72741
    endloop
  endfacet
  facet normal 0.419345 0.444508 -0.791557
    outer loop
      vertex 29.9901 25.4653 5.65685
      vertex 23.6765 31.4215 5.65685
      vertex 24.6736 32.7448 6.9282
    endloop
  endfacet
  facet normal 0.419353 0.444512 -0.79155
    outer loop
      vertex 29.9901 25.4653 5.65685
      vertex 24.6736 32.7448 6.9282
      vertex 31.2531 26.5377 6.9282
    endloop
  endfacet
  facet normal 0.545654 0.578391 -0.606404
    outer loop
      vertex 29.021 24.6424 4
      vertex 22.9114 30.4062 4
      vertex 23.6765 31.4215 5.65685
    endloop
  endfacet
  facet normal 0.545645 0.578387 -0.606415
    outer loop
      vertex 29.021 24.6424 4
      vertex 23.6765 31.4215 5.65685
      vertex 29.9901 25.4653 5.65685
    endloop
  endfacet
  facet normal 0.634544 0.67262 -0.380704
    outer loop
      vertex 28.4118 24.1251 2.07055
      vertex 22.4304 29.7679 2.07055
      vertex 22.9114 30.4062 4
    endloop
  endfacet
  facet normal 0.634552 0.672622 -0.380687
    outer loop
      vertex 28.4118 24.1251 2.07055
      vertex 22.9114 30.4062 4
      vertex 29.021 24.6424 4
    endloop
  endfacet
  facet normal 0.680421 0.721248 -0.129726
    outer loop
      vertex 28.204 23.9487 0
      vertex 22.2664 29.5502 0
      vertex 22.4304 29.7679 2.07055
    endloop
  endfacet
  facet normal 0.680419 0.721248 -0.129733
    outer loop
      vertex 28.204 23.9487 0
      vertex 22.4304 29.7679 2.07055
      vertex 28.4118 24.1251 2.07055
    endloop
  endfacet
  facet normal -0.822005 -0.554499 -0.129763
    outer loop
      vertex 46.6977 24.4849 2.07055
      vertex 40.1925 34.1284 2.07055
      vertex 40.4003 34.3049 0
    endloop
  endfacet
  facet normal -0.82201 -0.554497 -0.12974
    outer loop
      vertex 46.6977 24.4849 2.07055
      vertex 40.4003 34.3049 0
      vertex 46.9391 24.6115 0
    endloop
  endfacet
  facet normal -0.766593 -0.517121 -0.380686
    outer loop
      vertex 45.9899 24.1138 4
      vertex 39.5833 33.6111 4
      vertex 40.1925 34.1284 2.07055
    endloop
  endfacet
  facet normal -0.766596 -0.517121 -0.380679
    outer loop
      vertex 45.9899 24.1138 4
      vertex 40.1925 34.1284 2.07055
      vertex 46.6977 24.4849 2.07055
    endloop
  endfacet
  facet normal -0.659191 -0.444667 -0.606415
    outer loop
      vertex 44.8639 23.5234 5.65685
      vertex 38.6142 32.7882 5.65685
      vertex 39.5833 33.6111 4
    endloop
  endfacet
  facet normal -0.659179 -0.444663 -0.606431
    outer loop
      vertex 44.8639 23.5234 5.65685
      vertex 39.5833 33.6111 4
      vertex 45.9899 24.1138 4
    endloop
  endfacet
  facet normal -0.506611 -0.341747 -0.791552
    outer loop
      vertex 43.3966 22.754 6.9282
      vertex 37.3512 31.7158 6.9282
      vertex 38.6142 32.7882 5.65685
    endloop
  endfacet
  facet normal -0.506629 -0.341753 -0.791538
    outer loop
      vertex 43.3966 22.754 6.9282
      vertex 38.6142 32.7882 5.65685
      vertex 44.8639 23.5234 5.65685
    endloop
  endfacet
  facet normal -0.318925 -0.215135 -0.923041
    outer loop
      vertex 41.6878 21.858 7.72741
      vertex 35.8805 30.467 7.72741
      vertex 37.3512 31.7158 6.9282
    endloop
  endfacet
  facet normal -0.31891 -0.215128 -0.923047
    outer loop
      vertex 41.6878 21.858 7.72741
      vertex 37.3512 31.7158 6.9282
      vertex 43.3966 22.754 6.9282
    endloop
  endfacet
  facet normal -0.108856 -0.0734307 -0.991342
    outer loop
      vertex 39.854 20.8965 8
      vertex 34.3021 29.1268 8
      vertex 35.8805 30.467 7.72741
    endloop
  endfacet
  facet normal -0.108859 -0.0734319 -0.991341
    outer loop
      vertex 39.854 20.8965 8
      vertex 35.8805 30.467 7.72741
      vertex 41.6878 21.858 7.72741
    endloop
  endfacet
  facet normal 0.10886 0.0734332 -0.991341
    outer loop
      vertex 38.0202 19.935 7.72741
      vertex 32.7238 27.7866 7.72741
      vertex 34.3021 29.1268 8
    endloop
  endfacet
  facet normal 0.108858 0.0734324 -0.991341
    outer loop
      vertex 38.0202 19.935 7.72741
      vertex 34.3021 29.1268 8
      vertex 39.854 20.8965 8
    endloop
  endfacet
  facet normal 0.318916 0.21513 -0.923045
    outer loop
      vertex 36.3114 19.0391 6.9282
      vertex 31.2531 26.5377 6.9282
      vertex 32.7238 27.7866 7.72741
    endloop
  endfacet
  facet normal 0.318919 0.215131 -0.923043
    outer loop
      vertex 36.3114 19.0391 6.9282
      vertex 32.7238 27.7866 7.72741
      vertex 38.0202 19.935 7.72741
    endloop
  endfacet
  facet normal 0.506614 0.341744 -0.791552
    outer loop
      vertex 34.844 18.2697 5.65685
      vertex 29.9901 25.4653 5.65685
      vertex 31.2531 26.5377 6.9282
    endloop
  endfacet
  facet normal 0.506612 0.341743 -0.791553
    outer loop
      vertex 34.844 18.2697 5.65685
      vertex 31.2531 26.5377 6.9282
      vertex 36.3114 19.0391 6.9282
    endloop
  endfacet
  facet normal 0.659189 0.444669 -0.606415
    outer loop
      vertex 33.7181 17.6793 4
      vertex 29.021 24.6424 4
      vertex 29.9901 25.4653 5.65685
    endloop
  endfacet
  facet normal 0.659197 0.444671 -0.606406
    outer loop
      vertex 33.7181 17.6793 4
      vertex 29.9901 25.4653 5.65685
      vertex 34.844 18.2697 5.65685
    endloop
  endfacet
  facet normal 0.766592 0.517122 -0.380686
    outer loop
      vertex 33.0103 17.3082 2.07055
      vertex 28.4118 24.1251 2.07055
      vertex 29.021 24.6424 4
    endloop
  endfacet
  facet normal 0.766595 0.517122 -0.380679
    outer loop
      vertex 33.0103 17.3082 2.07055
      vertex 29.021 24.6424 4
      vertex 33.7181 17.6793 4
    endloop
  endfacet
  facet normal 0.822012 0.554495 -0.129737
    outer loop
      vertex 32.7688 17.1816 0
      vertex 28.204 23.9487 0
      vertex 28.4118 24.1251 2.07055
    endloop
  endfacet
  facet normal 0.822002 0.554501 -0.129779
    outer loop
      vertex 32.7688 17.1816 0
      vertex 28.4118 24.1251 2.07055
      vertex 33.0103 17.3082 2.07055
    endloop
  endfacet
  facet normal -0.92359 -0.360764 -0.129737
    outer loop
      vertex 50.6145 14.5164 1.90682
      vertex 46.6977 24.4849 2.07055
      vertex 46.9391 24.6115 0
    endloop
  endfacet
  facet normal -0.923586 -0.360762 -0.129767
    outer loop
      vertex 46.6977 24.4849 2.07055
      vertex 50.6145 14.5164 1.90682
      vertex 50.5938 14.5105 2.07055
    endloop
  endfacet
  facet normal -0.923586 -0.360766 -0.129756
    outer loop
      vertex 50.6145 14.5164 1.90682
      vertex 46.9391 24.6115 0
      vertex 50.8554 14.5855 0
    endloop
  endfacet
  facet normal -0.86133 -0.336442 -0.38068
    outer loop
      vertex 49.887 14.3078 3.84884
      vertex 45.9899 24.1138 4
      vertex 46.6977 24.4849 2.07055
    endloop
  endfacet
  facet normal -0.861495 -0.336514 -0.380244
    outer loop
      vertex 45.9899 24.1138 4
      vertex 49.887 14.3078 3.84884
      vertex 49.827 14.2906 4
    endloop
  endfacet
  facet normal -0.861338 -0.336447 -0.380658
    outer loop
      vertex 50.3079 14.4285 2.78995
      vertex 46.6977 24.4849 2.07055
      vertex 50.5938 14.5105 2.07055
    endloop
  endfacet
  facet normal -0.861314 -0.336443 -0.380715
    outer loop
      vertex 46.6977 24.4849 2.07055
      vertex 50.3079 14.4285 2.78995
      vertex 49.887 14.3078 3.84884
    endloop
  endfacet
  facet normal -0.740637 -0.289307 -0.60643
    outer loop
      vertex 48.7018 13.9679 5.52819
      vertex 44.8639 23.5234 5.65685
      vertex 45.9899 24.1138 4
    endloop
  endfacet
  facet normal -0.740692 -0.28933 -0.606353
    outer loop
      vertex 44.8639 23.5234 5.65685
      vertex 48.7018 13.9679 5.52819
      vertex 48.6071 13.9407 5.65685
    endloop
  endfacet
  facet normal -0.740643 -0.289307 -0.606424
    outer loop
      vertex 48.7018 13.9679 5.52819
      vertex 45.9899 24.1138 4
      vertex 49.827 14.2906 4
    endloop
  endfacet
  facet normal -0.56915 -0.222311 -0.79161
    outer loop
      vertex 43.3966 22.754 6.9282
      vertex 47.1397 13.5199 6.83024
      vertex 47.0172 13.4847 6.9282
    endloop
  endfacet
  facet normal -0.569239 -0.222348 -0.791536
    outer loop
      vertex 47.1397 13.5199 6.83024
      vertex 43.3966 22.754 6.9282
      vertex 44.8639 23.5234 5.65685
    endloop
  endfacet
  facet normal -0.569195 -0.222341 -0.791569
    outer loop
      vertex 44.8639 23.5234 5.65685
      vertex 47.5818 13.6466 6.47675
      vertex 47.1397 13.5199 6.83024
    endloop
  endfacet
  facet normal -0.569207 -0.222344 -0.791559
    outer loop
      vertex 47.5818 13.6466 6.47675
      vertex 44.8639 23.5234 5.65685
      vertex 48.6071 13.9407 5.65685
    endloop
  endfacet
  facet normal -0.358454 -0.140017 -0.922988
    outer loop
      vertex 41.6878 21.858 7.72741
      vertex 45.3076 12.9944 7.66622
      vertex 45.1659 12.9538 7.72741
    endloop
  endfacet
  facet normal -0.358323 -0.139963 -0.923047
    outer loop
      vertex 45.3076 12.9944 7.66622
      vertex 41.6878 21.858 7.72741
      vertex 43.3966 22.754 6.9282
    endloop
  endfacet
  facet normal -0.358336 -0.139965 -0.923041
    outer loop
      vertex 43.3966 22.754 6.9282
      vertex 46.0197 13.1986 7.35881
      vertex 45.3076 12.9944 7.66622
    endloop
  endfacet
  facet normal -0.35849 -0.140027 -0.922972
    outer loop
      vertex 46.9609 13.4686 6.95251
      vertex 43.3966 22.754 6.9282
      vertex 47.0172 13.4847 6.9282
    endloop
  endfacet
  facet normal -0.358315 -0.13996 -0.92305
    outer loop
      vertex 46.0197 13.1986 7.35881
      vertex 43.3966 22.754 6.9282
      vertex 46.9609 13.4686 6.95251
    endloop
  endfacet
  facet normal -0.122334 -0.0477848 -0.991338
    outer loop
      vertex 39.854 20.8965 8
      vertex 43.3305 12.4274 7.97922
      vertex 43.1791 12.3839 8
    endloop
  endfacet
  facet normal -0.122311 -0.0477753 -0.991341
    outer loop
      vertex 43.3305 12.4274 7.97922
      vertex 39.854 20.8965 8
      vertex 41.6878 21.858 7.72741
    endloop
  endfacet
  facet normal -0.122306 -0.0477745 -0.991342
    outer loop
      vertex 43.3305 12.4274 7.97922
      vertex 41.6878 21.858 7.72741
      vertex 45.1659 12.9538 7.72741
    endloop
  endfacet
  facet normal 0.122215 0.0477384 -0.991355
    outer loop
      vertex 38.0202 19.935 7.72741
      vertex 41.3435 11.8575 7.74814
      vertex 41.1923 11.8141 7.72741
    endloop
  endfacet
  facet normal 0.12231 0.0477774 -0.991341
    outer loop
      vertex 41.3435 11.8575 7.74814
      vertex 38.0202 19.935 7.72741
      vertex 39.854 20.8965 8
    endloop
  endfacet
  facet normal 0.122319 0.0477788 -0.99134
    outer loop
      vertex 41.3435 11.8575 7.74814
      vertex 39.854 20.8965 8
      vertex 43.1791 12.3839 8
    endloop
  endfacet
  facet normal 0.358238 0.139933 -0.923084
    outer loop
      vertex 36.3114 19.0391 6.9282
      vertex 39.482 11.3236 6.98906
      vertex 39.341 11.2831 6.9282
    endloop
  endfacet
  facet normal 0.358326 0.139969 -0.923044
    outer loop
      vertex 39.482 11.3236 6.98906
      vertex 36.3114 19.0391 6.9282
      vertex 38.0202 19.935 7.72741
    endloop
  endfacet
  facet normal 0.358409 0.139998 -0.923008
    outer loop
      vertex 40.997 11.7581 7.64308
      vertex 38.0202 19.935 7.72741
      vertex 41.1923 11.8141 7.72741
    endloop
  endfacet
  facet normal 0.358331 0.13997 -0.923042
    outer loop
      vertex 38.0202 19.935 7.72741
      vertex 40.997 11.7581 7.64308
      vertex 39.482 11.3236 6.98906
    endloop
  endfacet
  facet normal 0.569188 0.222337 -0.791575
    outer loop
      vertex 34.844 18.2697 5.65685
      vertex 37.8728 10.8621 5.75409
      vertex 37.7512 10.8272 5.65685
    endloop
  endfacet
  facet normal 0.569215 0.222348 -0.791553
    outer loop
      vertex 37.8728 10.8621 5.75409
      vertex 34.844 18.2697 5.65685
      vertex 36.3114 19.0391 6.9282
    endloop
  endfacet
  facet normal 0.569215 0.222343 -0.791554
    outer loop
      vertex 37.9355 10.88 5.80426
      vertex 36.3114 19.0391 6.9282
      vertex 39.341 11.2831 6.9282
    endloop
  endfacet
  facet normal 0.569633 0.222383 -0.791242
    outer loop
      vertex 36.3114 19.0391 6.9282
      vertex 37.9355 10.88 5.80426
      vertex 37.8728 10.8621 5.75409
    endloop
  endfacet
  facet normal 0.740659 0.28931 -0.606402
    outer loop
      vertex 36.6253 10.5043 4.12771
      vertex 33.7181 17.6793 4
      vertex 34.844 18.2697 5.65685
    endloop
  endfacet
  facet normal 0.740695 0.289326 -0.606351
    outer loop
      vertex 33.7181 17.6793 4
      vertex 36.6253 10.5043 4.12771
      vertex 36.5313 10.4773 4
    endloop
  endfacet
  facet normal 0.740627 0.289305 -0.606444
    outer loop
      vertex 37.1926 10.667 4.89823
      vertex 34.844 18.2697 5.65685
      vertex 37.7512 10.8272 5.65685
    endloop
  endfacet
  facet normal 0.740658 0.28931 -0.606404
    outer loop
      vertex 34.844 18.2697 5.65685
      vertex 37.1926 10.667 4.89823
      vertex 36.6253 10.5043 4.12771
    endloop
  endfacet
  facet normal 0.861333 0.336436 -0.38068
    outer loop
      vertex 35.8241 10.2745 2.22088
      vertex 33.0103 17.3082 2.07055
      vertex 33.7181 17.6793 4
    endloop
  endfacet
  facet normal 0.861446 0.336488 -0.380378
    outer loop
      vertex 33.0103 17.3082 2.07055
      vertex 35.8241 10.2745 2.22088
      vertex 35.7644 10.2574 2.07055
    endloop
  endfacet
  facet normal 0.861324 0.336445 -0.380692
    outer loop
      vertex 35.9973 10.3242 2.65651
      vertex 33.7181 17.6793 4
      vertex 36.5313 10.4773 4
    endloop
  endfacet
  facet normal 0.861269 0.33645 -0.380812
    outer loop
      vertex 33.7181 17.6793 4
      vertex 35.9973 10.3242 2.65651
      vertex 35.8241 10.2745 2.22088
    endloop
  endfacet
  facet normal 0.923581 0.360771 -0.129781
    outer loop
      vertex 35.5235 10.1883 0.1634
      vertex 32.7688 17.1816 0
      vertex 33.0103 17.3082 2.07055
    endloop
  endfacet
  facet normal 0.923553 0.360755 -0.130024
    outer loop
      vertex 32.7688 17.1816 0
      vertex 35.5235 10.1883 0.1634
      vertex 35.5028 10.1824 0
    endloop
  endfacet
  facet normal 0.923948 0.360901 -0.126772
    outer loop
      vertex 35.764 10.2573 2.06735
      vertex 33.0103 17.3082 2.07055
      vertex 35.7644 10.2574 2.07055
    endloop
  endfacet
  facet normal 0.92359 0.360763 -0.129739
    outer loop
      vertex 33.0103 17.3082 2.07055
      vertex 35.764 10.2573 2.06735
      vertex 35.5235 10.1883 0.1634
    endloop
  endfacet
  facet normal 0 0 -1
    outer loop
      vertex 46.9391 24.6115 0
      vertex 51.9074 14.8872 0
      vertex 50.8554 14.5855 0
    endloop
  endfacet
  facet normal 0 0 -1
    outer loop
      vertex 51.9074 14.8872 0
      vertex 46.9391 24.6115 0
      vertex 47.5298 25.6306 0
    endloop
  endfacet
  facet normal 0 0 -1
    outer loop
      vertex 40.4003 34.3049 0
      vertex 47.5298 25.6306 0
      vertex 46.9391 24.6115 0
    endloop
  endfacet
  facet normal 0 0 -1
    outer loop
      vertex 47.5298 25.6306 0
      vertex 40.4003 34.3049 0
      vertex 40.9585 35.191 0
    endloop
  endfacet
  facet normal 0 0 -1
    outer loop
      vertex 31.8951 42.3286 0
      vertex 40.9585 35.191 0
      vertex 40.4003 34.3049 0
    endloop
  endfacet
  facet normal 0 0 -1
    outer loop
      vertex 40.9585 35.191 0
      vertex 31.8951 42.3286 0
      vertex 32.4969 43.1272 0
    endloop
  endfacet
  facet normal 0 0 -1
    outer loop
      vertex 31.8951 42.3286 0
      vertex 22.5354 49.073 0
      vertex 32.4969 43.1272 0
    endloop
  endfacet
  facet normal 0 0 -1
    outer loop
      vertex 21.8375 48.2921 0
      vertex 22.5354 49.073 0
      vertex 31.8951 42.3286 0
    endloop
  endfacet
  facet normal 0 0 -1
    outer loop
      vertex 21.8375 48.2921 0
      vertex 11.5339 52.7539 0
      vertex 22.5354 49.073 0
    endloop
  endfacet
  facet normal 0 0 -1
    outer loop
      vertex 10.7171 51.9052 0
      vertex 11.5339 52.7539 0
      vertex 21.8375 48.2921 0
    endloop
  endfacet
  facet normal 0 0 -1
    outer loop
      vertex 10.7171 51.9052 0
      vertex 1.19904e-14 54.0001 0
      vertex 11.5339 52.7539 0
    endloop
  endfacet
  facet normal 0 -0 -1
    outer loop
      vertex 1.19904e-14 54.0001 0
      vertex 10.7171 51.9052 0
      vertex 1.17474e-14 52.9056 0
    endloop
  endfacet
  facet normal 0 0 -1
    outer loop
      vertex 34.6049 9.92484 0
      vertex 32.7688 17.1816 0
      vertex 35.5028 10.1824 0
    endloop
  endfacet
  facet normal 0 0 -1
    outer loop
      vertex 31.6865 17.0871 0
      vertex 32.7688 17.1816 0
      vertex 34.6049 9.92484 0
    endloop
  endfacet
  facet normal 0 0 -1
    outer loop
      vertex 31.6865 17.0871 0
      vertex 28.204 23.9487 0
      vertex 32.7688 17.1816 0
    endloop
  endfacet
  facet normal 0 0 -1
    outer loop
      vertex 27.3057 23.4607 0
      vertex 28.204 23.9487 0
      vertex 31.6865 17.0871 0
    endloop
  endfacet
  facet normal 0 0 -1
    outer loop
      vertex 27.3057 23.4607 0
      vertex 22.2664 29.5502 0
      vertex 28.204 23.9487 0
    endloop
  endfacet
  facet normal 0 0 -1
    outer loop
      vertex 21.6646 28.7515 0
      vertex 22.2664 29.5502 0
      vertex 27.3057 23.4607 0
    endloop
  endfacet
  facet normal 0 0 -1
    outer loop
      vertex 15.0236 32.7154 0
      vertex 22.2664 29.5502 0
      vertex 21.6646 28.7515 0
    endloop
  endfacet
  facet normal 0 0 -1
    outer loop
      vertex 22.2664 29.5502 0
      vertex 15.0236 32.7154 0
      vertex 15.2451 33.7134 0
    endloop
  endfacet
  facet normal 0 0 -1
    outer loop
      vertex 7.68925 35.1693 0
      vertex 15.2451 33.7134 0
      vertex 15.0236 32.7154 0
    endloop
  endfacet
  facet normal 0 0 -1
    outer loop
      vertex 7.68925 35.1693 0
      vertex 7.48174 36.2357 0
      vertex 15.2451 33.7134 0
    endloop
  endfacet
  facet normal 0 0 -1
    outer loop
      vertex 7.99362e-15 36.0001 0
      vertex 7.48174 36.2357 0
      vertex 7.68925 35.1693 0
    endloop
  endfacet
  facet normal -0 0 -1
    outer loop
      vertex 7.48174 36.2357 0
      vertex 7.99362e-15 36.0001 0
      vertex 8.20103e-15 36.9342 0
    endloop
  endfacet
endsolid OpenSCAD_Model
