solid OpenSCAD_Model
  facet normal -0 0.13053 0.991444
    outer loop
      vertex 20.3649 1.55291 5.79555
      vertex 42.3397 0 6
      vertex 42.3397 1.55291 5.79555
    endloop
  endfacet
  facet normal 0 0.13053 0.991444
    outer loop
      vertex 42.3397 0 6
      vertex 20.3649 1.55291 5.79555
      vertex 20.3649 0 6
    endloop
  endfacet
  facet normal 0 1 -0
    outer loop
      vertex 42.3397 6 0
      vertex 20.3649 6 2.22045e-16
      vertex 42.3397 6 5.10143e-15
    endloop
  endfacet
  facet normal 0 1 0
    outer loop
      vertex 20.3649 6 2.22045e-16
      vertex 42.3397 6 0
      vertex 20.3649 6 0
    endloop
  endfacet
  facet normal 0 -0.991444 0.13053
    outer loop
      vertex 20.3649 -5.79555 1.55291
      vertex 42.3397 -6 5.10143e-15
      vertex 42.3397 -5.79555 1.55291
    endloop
  endfacet
  facet normal -2.89834e-17 -0.991444 0.13053
    outer loop
      vertex 42.3397 -6 5.10143e-15
      vertex 20.3649 -5.79555 1.55291
      vertex 20.3649 -6 2.22045e-16
    endloop
  endfacet
  facet normal 0 0.793354 0.608761
    outer loop
      vertex 42.3397 5.19615 3
      vertex 20.3649 4.24264 4.24264
      vertex 42.3397 4.24264 4.24264
    endloop
  endfacet
  facet normal 0 0.793354 0.608761
    outer loop
      vertex 20.3649 4.24264 4.24264
      vertex 42.3397 5.19615 3
      vertex 20.3649 5.19615 3
    endloop
  endfacet
  facet normal -0 0.608761 0.793354
    outer loop
      vertex 20.3649 4.24264 4.24264
      vertex 42.3397 3 5.19615
      vertex 42.3397 4.24264 4.24264
    endloop
  endfacet
  facet normal 0 0.608761 0.793354
    outer loop
      vertex 42.3397 3 5.19615
      vertex 20.3649 4.24264 4.24264
      vertex 20.3649 3 5.19615
    endloop
  endfacet
  facet normal 0 0.923881 0.382681
    outer loop
      vertex 42.3397 5.79555 1.55291
      vertex 20.3649 5.19615 3
      vertex 42.3397 5.19615 3
    endloop
  endfacet
  facet normal 0 0.923881 0.382681
    outer loop
      vertex 20.3649 5.19615 3
      vertex 42.3397 5.79555 1.55291
      vertex 20.3649 5.79555 1.55291
    endloop
  endfacet
  facet normal 0 -0.793354 0.608761
    outer loop
      vertex 20.3649 -5.19615 3
      vertex 42.3397 -4.24264 4.24264
      vertex 20.3649 -4.24264 4.24264
    endloop
  endfacet
  facet normal 0 -0.793354 0.608761
    outer loop
      vertex 42.3397 -4.24264 4.24264
      vertex 20.3649 -5.19615 3
      vertex 42.3397 -5.19615 3
    endloop
  endfacet
  facet normal -1 0 0
    outer loop
      vertex 19.3649 4.82963 1.2941
      vertex 19.3649 6.76148 1.81173
      vertex 19.3649 7 0
    endloop
  endfacet
  facet normal -1 0 0
    outer loop
      vertex 19.3649 4.82963 1.2941
      vertex 19.3649 7 0
      vertex 19.3649 5 0
    endloop
  endfacet
  facet normal -1 -0 0
    outer loop
      vertex 19.3649 6.76148 1.81173
      vertex 19.3649 4.82963 1.2941
      vertex 19.3649 6.06218 3.5
    endloop
  endfacet
  facet normal -1 0 0
    outer loop
      vertex 19.3649 4.33013 2.5
      vertex 19.3649 6.06218 3.5
      vertex 19.3649 4.82963 1.2941
    endloop
  endfacet
  facet normal -1 -0 0
    outer loop
      vertex 19.3649 6.06218 3.5
      vertex 19.3649 4.33013 2.5
      vertex 19.3649 4.94975 4.94975
    endloop
  endfacet
  facet normal -1 0 0
    outer loop
      vertex 19.3649 3.53553 3.53553
      vertex 19.3649 4.94975 4.94975
      vertex 19.3649 4.33013 2.5
    endloop
  endfacet
  facet normal -1 0 0
    outer loop
      vertex 19.3649 3.53553 3.53553
      vertex 19.3649 3.5 6.06218
      vertex 19.3649 4.94975 4.94975
    endloop
  endfacet
  facet normal -1 0 0
    outer loop
      vertex 19.3649 2.5 4.33013
      vertex 19.3649 3.5 6.06218
      vertex 19.3649 3.53553 3.53553
    endloop
  endfacet
  facet normal -1 0 0
    outer loop
      vertex 19.3649 2.5 4.33013
      vertex 19.3649 1.81173 6.76148
      vertex 19.3649 3.5 6.06218
    endloop
  endfacet
  facet normal -1 0 0
    outer loop
      vertex 19.3649 1.2941 4.82963
      vertex 19.3649 1.81173 6.76148
      vertex 19.3649 2.5 4.33013
    endloop
  endfacet
  facet normal -1 0 0
    outer loop
      vertex 19.3649 0 5
      vertex 19.3649 1.81173 6.76148
      vertex 19.3649 1.2941 4.82963
    endloop
  endfacet
  facet normal -1 0 0
    outer loop
      vertex 19.3649 0 5
      vertex 19.3649 0 7
      vertex 19.3649 1.81173 6.76148
    endloop
  endfacet
  facet normal -1 0 0
    outer loop
      vertex 19.3649 -1.2941 4.82963
      vertex 19.3649 0 7
      vertex 19.3649 0 5
    endloop
  endfacet
  facet normal -1 0 0
    outer loop
      vertex 19.3649 -1.2941 4.82963
      vertex 19.3649 -1.81173 6.76148
      vertex 19.3649 0 7
    endloop
  endfacet
  facet normal -1 0 0
    outer loop
      vertex 19.3649 -2.5 4.33013
      vertex 19.3649 -1.81173 6.76148
      vertex 19.3649 -1.2941 4.82963
    endloop
  endfacet
  facet normal -1 0 0
    outer loop
      vertex 19.3649 -2.5 4.33013
      vertex 19.3649 -3.5 6.06218
      vertex 19.3649 -1.81173 6.76148
    endloop
  endfacet
  facet normal -1 0 0
    outer loop
      vertex 19.3649 -3.53553 3.53553
      vertex 19.3649 -3.5 6.06218
      vertex 19.3649 -2.5 4.33013
    endloop
  endfacet
  facet normal -1 0 0
    outer loop
      vertex 19.3649 -4.94975 4.94975
      vertex 19.3649 -3.53553 3.53553
      vertex 19.3649 -4.33013 2.5
    endloop
  endfacet
  facet normal -1 0 0
    outer loop
      vertex 19.3649 -6.06218 3.5
      vertex 19.3649 -4.33013 2.5
      vertex 19.3649 -4.82963 1.2941
    endloop
  endfacet
  facet normal -1 0 0
    outer loop
      vertex 19.3649 -3.53553 3.53553
      vertex 19.3649 -4.94975 4.94975
      vertex 19.3649 -3.5 6.06218
    endloop
  endfacet
  facet normal -1 0 0
    outer loop
      vertex 19.3649 -6.76148 1.81173
      vertex 19.3649 -4.82963 1.2941
      vertex 19.3649 -5 0
    endloop
  endfacet
  facet normal -1 0 0
    outer loop
      vertex 19.3649 -4.33013 2.5
      vertex 19.3649 -6.06218 3.5
      vertex 19.3649 -4.94975 4.94975
    endloop
  endfacet
  facet normal -1 0 0
    outer loop
      vertex 19.3649 -4.82963 1.2941
      vertex 19.3649 -6.76148 1.81173
      vertex 19.3649 -6.06218 3.5
    endloop
  endfacet
  facet normal -1 0 -0
    outer loop
      vertex 19.3649 -6.76148 1.81173
      vertex 19.3649 -5 0
      vertex 19.3649 -7 0
    endloop
  endfacet
  facet normal -0 0.382681 0.923881
    outer loop
      vertex 20.3649 3 5.19615
      vertex 42.3397 1.55291 5.79555
      vertex 42.3397 3 5.19615
    endloop
  endfacet
  facet normal 0 0.382681 0.923881
    outer loop
      vertex 42.3397 1.55291 5.79555
      vertex 20.3649 3 5.19615
      vertex 20.3649 1.55291 5.79555
    endloop
  endfacet
  facet normal 0 0.991444 0.13053
    outer loop
      vertex 42.3397 6 5.10143e-15
      vertex 20.3649 5.79555 1.55291
      vertex 42.3397 5.79555 1.55291
    endloop
  endfacet
  facet normal -2.90302e-17 0.991444 0.13053
    outer loop
      vertex 20.3649 5.79555 1.55291
      vertex 42.3397 6 5.10143e-15
      vertex 20.3649 6 2.22045e-16
    endloop
  endfacet
  facet normal 0 -1 0
    outer loop
      vertex 20.3649 -6 0
      vertex 42.3397 -6 5.10143e-15
      vertex 20.3649 -6 2.22045e-16
    endloop
  endfacet
  facet normal 0 -1 -0
    outer loop
      vertex 42.3397 -6 5.10143e-15
      vertex 20.3649 -6 0
      vertex 42.3397 -6 0
    endloop
  endfacet
  facet normal 0 -0.923881 0.382681
    outer loop
      vertex 20.3649 -5.79555 1.55291
      vertex 42.3397 -5.19615 3
      vertex 20.3649 -5.19615 3
    endloop
  endfacet
  facet normal 0 -0.923881 0.382681
    outer loop
      vertex 42.3397 -5.19615 3
      vertex 20.3649 -5.79555 1.55291
      vertex 42.3397 -5.79555 1.55291
    endloop
  endfacet
  facet normal 0 -0.608761 0.793354
    outer loop
      vertex 20.3649 -3 5.19615
      vertex 42.3397 -4.24264 4.24264
      vertex 42.3397 -3 5.19615
    endloop
  endfacet
  facet normal 0 -0.608761 0.793354
    outer loop
      vertex 42.3397 -4.24264 4.24264
      vertex 20.3649 -3 5.19615
      vertex 20.3649 -4.24264 4.24264
    endloop
  endfacet
  facet normal 0 -0.13053 0.991444
    outer loop
      vertex 20.3649 0 6
      vertex 42.3397 -1.55291 5.79555
      vertex 42.3397 0 6
    endloop
  endfacet
  facet normal 0 -0.13053 0.991444
    outer loop
      vertex 42.3397 -1.55291 5.79555
      vertex 20.3649 0 6
      vertex 20.3649 -1.55291 5.79555
    endloop
  endfacet
  facet normal 0 -0.382681 0.923881
    outer loop
      vertex 20.3649 -1.55291 5.79555
      vertex 42.3397 -3 5.19615
      vertex 42.3397 -1.55291 5.79555
    endloop
  endfacet
  facet normal 0 -0.382681 0.923881
    outer loop
      vertex 42.3397 -3 5.19615
      vertex 20.3649 -1.55291 5.79555
      vertex 20.3649 -3 5.19615
    endloop
  endfacet
  facet normal 0 -0.130525 -0.991445
    outer loop
      vertex 19.3649 0 5
      vertex 43.3397 1.2941 4.82963
      vertex 43.3397 0 5
    endloop
  endfacet
  facet normal -0 -0.130525 -0.991445
    outer loop
      vertex 43.3397 1.2941 4.82963
      vertex 19.3649 0 5
      vertex 19.3649 1.2941 4.82963
    endloop
  endfacet
  facet normal 0 -1 0
    outer loop
      vertex 43.3397 5 0
      vertex 43.3397 5 5.32348e-15
      vertex 19.3649 5 0
    endloop
  endfacet
  facet normal 0 0.608766 -0.79335
    outer loop
      vertex 19.3649 -3.53553 3.53553
      vertex 43.3397 -2.5 4.33013
      vertex 43.3397 -3.53553 3.53553
    endloop
  endfacet
  facet normal 0 0.608766 -0.79335
    outer loop
      vertex 43.3397 -2.5 4.33013
      vertex 19.3649 -3.53553 3.53553
      vertex 19.3649 -2.5 4.33013
    endloop
  endfacet
  facet normal 0 -0.79335 -0.608766
    outer loop
      vertex 19.3649 4.33013 2.5
      vertex 43.3397 3.53553 3.53553
      vertex 19.3649 3.53553 3.53553
    endloop
  endfacet
  facet normal 0 -0.79335 -0.608766
    outer loop
      vertex 43.3397 3.53553 3.53553
      vertex 19.3649 4.33013 2.5
      vertex 43.3397 4.33013 2.5
    endloop
  endfacet
  facet normal 0 -0.991445 -0.130525
    outer loop
      vertex 19.3649 4.82963 1.2941
      vertex 43.3397 5 5.32348e-15
      vertex 43.3397 4.82963 1.2941
    endloop
  endfacet
  facet normal 2.89824e-17 -0.991445 -0.130525
    outer loop
      vertex 43.3397 5 5.32348e-15
      vertex 19.3649 4.82963 1.2941
      vertex 19.3649 5 0
    endloop
  endfacet
  facet normal 0 0.79335 -0.608766
    outer loop
      vertex 43.3397 -4.33013 2.5
      vertex 19.3649 -3.53553 3.53553
      vertex 43.3397 -3.53553 3.53553
    endloop
  endfacet
  facet normal 0 0.79335 -0.608766
    outer loop
      vertex 19.3649 -3.53553 3.53553
      vertex 43.3397 -4.33013 2.5
      vertex 19.3649 -4.33013 2.5
    endloop
  endfacet
  facet normal 0 0.130525 -0.991445
    outer loop
      vertex 19.3649 -1.2941 4.82963
      vertex 43.3397 0 5
      vertex 43.3397 -1.2941 4.82963
    endloop
  endfacet
  facet normal 0 0.130525 -0.991445
    outer loop
      vertex 43.3397 0 5
      vertex 19.3649 -1.2941 4.82963
      vertex 19.3649 0 5
    endloop
  endfacet
  facet normal 0 -0.608766 -0.79335
    outer loop
      vertex 19.3649 2.5 4.33013
      vertex 43.3397 3.53553 3.53553
      vertex 43.3397 2.5 4.33013
    endloop
  endfacet
  facet normal -0 -0.608766 -0.79335
    outer loop
      vertex 43.3397 3.53553 3.53553
      vertex 19.3649 2.5 4.33013
      vertex 19.3649 3.53553 3.53553
    endloop
  endfacet
  facet normal 0 -0.382683 -0.92388
    outer loop
      vertex 19.3649 1.2941 4.82963
      vertex 43.3397 2.5 4.33013
      vertex 43.3397 1.2941 4.82963
    endloop
  endfacet
  facet normal -0 -0.382683 -0.92388
    outer loop
      vertex 43.3397 2.5 4.33013
      vertex 19.3649 1.2941 4.82963
      vertex 19.3649 2.5 4.33013
    endloop
  endfacet
  facet normal 0 -0.92388 -0.382683
    outer loop
      vertex 19.3649 4.82963 1.2941
      vertex 43.3397 4.33013 2.5
      vertex 19.3649 4.33013 2.5
    endloop
  endfacet
  facet normal 0 -0.92388 -0.382683
    outer loop
      vertex 43.3397 4.33013 2.5
      vertex 19.3649 4.82963 1.2941
      vertex 43.3397 4.82963 1.2941
    endloop
  endfacet
  facet normal 0 1 0
    outer loop
      vertex 43.3397 -5 5.32348e-15
      vertex 43.3397 -5 0
      vertex 19.3649 -5 0
    endloop
  endfacet
  facet normal 0 0.92388 -0.382683
    outer loop
      vertex 43.3397 -4.82963 1.2941
      vertex 19.3649 -4.33013 2.5
      vertex 43.3397 -4.33013 2.5
    endloop
  endfacet
  facet normal 0 0.92388 -0.382683
    outer loop
      vertex 19.3649 -4.33013 2.5
      vertex 43.3397 -4.82963 1.2941
      vertex 19.3649 -4.82963 1.2941
    endloop
  endfacet
  facet normal 0 0.382683 -0.92388
    outer loop
      vertex 19.3649 -2.5 4.33013
      vertex 43.3397 -1.2941 4.82963
      vertex 43.3397 -2.5 4.33013
    endloop
  endfacet
  facet normal 0 0.382683 -0.92388
    outer loop
      vertex 43.3397 -1.2941 4.82963
      vertex 19.3649 -2.5 4.33013
      vertex 19.3649 -1.2941 4.82963
    endloop
  endfacet
  facet normal 0 0.991445 -0.130525
    outer loop
      vertex 43.3397 -5 5.32348e-15
      vertex 19.3649 -4.82963 1.2941
      vertex 43.3397 -4.82963 1.2941
    endloop
  endfacet
  facet normal 2.92691e-17 0.991445 -0.130525
    outer loop
      vertex 19.3649 -4.82963 1.2941
      vertex 43.3397 -5 5.32348e-15
      vertex 19.3649 -5 0
    endloop
  endfacet
  facet normal -0 0.382681 0.92388
    outer loop
      vertex 19.3649 3.5 6.06218
      vertex 20.3649 1.81173 6.76148
      vertex 20.3649 3.5 6.06218
    endloop
  endfacet
  facet normal 0 0.382681 0.92388
    outer loop
      vertex 20.3649 1.81173 6.76148
      vertex 19.3649 3.5 6.06218
      vertex 19.3649 1.81173 6.76148
    endloop
  endfacet
  facet normal 0 -0.92388 0.382681
    outer loop
      vertex 19.3649 -6.76148 1.81173
      vertex 20.3649 -6.06218 3.5
      vertex 19.3649 -6.06218 3.5
    endloop
  endfacet
  facet normal 0 -0.92388 0.382681
    outer loop
      vertex 20.3649 -6.06218 3.5
      vertex 19.3649 -6.76148 1.81173
      vertex 20.3649 -6.76148 1.81173
    endloop
  endfacet
  facet normal 0 1 -0
    outer loop
      vertex 20.3649 7 0
      vertex 19.3649 7 0
      vertex 20.3649 7 2.22045e-16
    endloop
  endfacet
  facet normal 0 0.92388 0.382681
    outer loop
      vertex 20.3649 6.76148 1.81173
      vertex 19.3649 6.06218 3.5
      vertex 20.3649 6.06218 3.5
    endloop
  endfacet
  facet normal 0 0.92388 0.382681
    outer loop
      vertex 19.3649 6.06218 3.5
      vertex 20.3649 6.76148 1.81173
      vertex 19.3649 6.76148 1.81173
    endloop
  endfacet
  facet normal 0 0.793354 0.608761
    outer loop
      vertex 20.3649 6.06218 3.5
      vertex 19.3649 4.94975 4.94975
      vertex 20.3649 4.94975 4.94975
    endloop
  endfacet
  facet normal 0 0.793354 0.608761
    outer loop
      vertex 19.3649 4.94975 4.94975
      vertex 20.3649 6.06218 3.5
      vertex 19.3649 6.06218 3.5
    endloop
  endfacet
  facet normal 0 -0.793354 0.608761
    outer loop
      vertex 19.3649 -6.06218 3.5
      vertex 20.3649 -4.94975 4.94975
      vertex 19.3649 -4.94975 4.94975
    endloop
  endfacet
  facet normal 0 -0.793354 0.608761
    outer loop
      vertex 20.3649 -4.94975 4.94975
      vertex 19.3649 -6.06218 3.5
      vertex 20.3649 -6.06218 3.5
    endloop
  endfacet
  facet normal 0 -0.608761 0.793354
    outer loop
      vertex 19.3649 -3.5 6.06218
      vertex 20.3649 -4.94975 4.94975
      vertex 20.3649 -3.5 6.06218
    endloop
  endfacet
  facet normal 0 -0.608761 0.793354
    outer loop
      vertex 20.3649 -4.94975 4.94975
      vertex 19.3649 -3.5 6.06218
      vertex 19.3649 -4.94975 4.94975
    endloop
  endfacet
  facet normal -0 0.130527 0.991445
    outer loop
      vertex 19.3649 1.81173 6.76148
      vertex 20.3649 0 7
      vertex 20.3649 1.81173 6.76148
    endloop
  endfacet
  facet normal 0 0.130527 0.991445
    outer loop
      vertex 20.3649 0 7
      vertex 19.3649 1.81173 6.76148
      vertex 19.3649 0 7
    endloop
  endfacet
  facet normal -0 0.608761 0.793354
    outer loop
      vertex 19.3649 4.94975 4.94975
      vertex 20.3649 3.5 6.06218
      vertex 20.3649 4.94975 4.94975
    endloop
  endfacet
  facet normal 0 0.608761 0.793354
    outer loop
      vertex 20.3649 3.5 6.06218
      vertex 19.3649 4.94975 4.94975
      vertex 19.3649 3.5 6.06218
    endloop
  endfacet
  facet normal 0 0.991445 0.130527
    outer loop
      vertex 20.3649 7 2.22045e-16
      vertex 19.3649 6.76148 1.81173
      vertex 20.3649 6.76148 1.81173
    endloop
  endfacet
  facet normal -3.03777e-17 0.991445 0.130527
    outer loop
      vertex 19.3649 6.76148 1.81173
      vertex 20.3649 7 2.22045e-16
      vertex 19.3649 7 0
    endloop
  endfacet
  facet normal 0 -1 -0
    outer loop
      vertex 20.3649 -7 2.22045e-16
      vertex 19.3649 -7 0
      vertex 20.3649 -7 0
    endloop
  endfacet
  facet normal 0 -0.991445 0.130527
    outer loop
      vertex 19.3649 -6.76148 1.81173
      vertex 20.3649 -7 2.22045e-16
      vertex 20.3649 -6.76148 1.81173
    endloop
  endfacet
  facet normal -2.89828e-17 -0.991445 0.130527
    outer loop
      vertex 20.3649 -7 2.22045e-16
      vertex 19.3649 -6.76148 1.81173
      vertex 19.3649 -7 0
    endloop
  endfacet
  facet normal 0 -0.130527 0.991445
    outer loop
      vertex 19.3649 0 7
      vertex 20.3649 -1.81173 6.76148
      vertex 20.3649 0 7
    endloop
  endfacet
  facet normal 0 -0.130527 0.991445
    outer loop
      vertex 20.3649 -1.81173 6.76148
      vertex 19.3649 0 7
      vertex 19.3649 -1.81173 6.76148
    endloop
  endfacet
  facet normal 1 0 0
    outer loop
      vertex 20.3649 6.76148 1.81173
      vertex 20.3649 5.79555 1.55291
      vertex 20.3649 6 2.22045e-16
    endloop
  endfacet
  facet normal 1 0 0
    outer loop
      vertex 20.3649 6.06218 3.5
      vertex 20.3649 5.19615 3
      vertex 20.3649 5.79555 1.55291
    endloop
  endfacet
  facet normal 1 0 0
    outer loop
      vertex 20.3649 4.94975 4.94975
      vertex 20.3649 5.19615 3
      vertex 20.3649 6.06218 3.5
    endloop
  endfacet
  facet normal 1 0 0
    outer loop
      vertex 20.3649 4.94975 4.94975
      vertex 20.3649 4.24264 4.24264
      vertex 20.3649 5.19615 3
    endloop
  endfacet
  facet normal 1 0 0
    outer loop
      vertex 20.3649 3.5 6.06218
      vertex 20.3649 4.24264 4.24264
      vertex 20.3649 4.94975 4.94975
    endloop
  endfacet
  facet normal 1 0 0
    outer loop
      vertex 20.3649 3.5 6.06218
      vertex 20.3649 3 5.19615
      vertex 20.3649 4.24264 4.24264
    endloop
  endfacet
  facet normal 1 0 0
    outer loop
      vertex 20.3649 1.81173 6.76148
      vertex 20.3649 3 5.19615
      vertex 20.3649 3.5 6.06218
    endloop
  endfacet
  facet normal 1 0 0
    outer loop
      vertex 20.3649 1.81173 6.76148
      vertex 20.3649 1.55291 5.79555
      vertex 20.3649 3 5.19615
    endloop
  endfacet
  facet normal 1 0 0
    outer loop
      vertex 20.3649 0 7
      vertex 20.3649 1.55291 5.79555
      vertex 20.3649 1.81173 6.76148
    endloop
  endfacet
  facet normal 1 0 0
    outer loop
      vertex 20.3649 0 7
      vertex 20.3649 0 6
      vertex 20.3649 1.55291 5.79555
    endloop
  endfacet
  facet normal 1 0 0
    outer loop
      vertex 20.3649 0 7
      vertex 20.3649 -1.55291 5.79555
      vertex 20.3649 0 6
    endloop
  endfacet
  facet normal 1 -0 0
    outer loop
      vertex 20.3649 -1.81173 6.76148
      vertex 20.3649 -1.55291 5.79555
      vertex 20.3649 0 7
    endloop
  endfacet
  facet normal 1 0 0
    outer loop
      vertex 20.3649 -1.81173 6.76148
      vertex 20.3649 -3 5.19615
      vertex 20.3649 -1.55291 5.79555
    endloop
  endfacet
  facet normal 1 -0 0
    outer loop
      vertex 20.3649 -3.5 6.06218
      vertex 20.3649 -3 5.19615
      vertex 20.3649 -1.81173 6.76148
    endloop
  endfacet
  facet normal 1 0 0
    outer loop
      vertex 20.3649 -3.5 6.06218
      vertex 20.3649 -4.24264 4.24264
      vertex 20.3649 -3 5.19615
    endloop
  endfacet
  facet normal 1 -0 0
    outer loop
      vertex 20.3649 -4.94975 4.94975
      vertex 20.3649 -4.24264 4.24264
      vertex 20.3649 -3.5 6.06218
    endloop
  endfacet
  facet normal 1 0 0
    outer loop
      vertex 20.3649 -4.94975 4.94975
      vertex 20.3649 -5.19615 3
      vertex 20.3649 -4.24264 4.24264
    endloop
  endfacet
  facet normal 1 -0 0
    outer loop
      vertex 20.3649 -6.06218 3.5
      vertex 20.3649 -5.19615 3
      vertex 20.3649 -4.94975 4.94975
    endloop
  endfacet
  facet normal 1 0 0
    outer loop
      vertex 20.3649 -5.19615 3
      vertex 20.3649 -6.06218 3.5
      vertex 20.3649 -5.79555 1.55291
    endloop
  endfacet
  facet normal 1 -0 0
    outer loop
      vertex 20.3649 -6.76148 1.81173
      vertex 20.3649 -5.79555 1.55291
      vertex 20.3649 -6.06218 3.5
    endloop
  endfacet
  facet normal 1 0 0
    outer loop
      vertex 20.3649 -5.79555 1.55291
      vertex 20.3649 -6.76148 1.81173
      vertex 20.3649 -6 2.22045e-16
    endloop
  endfacet
  facet normal 1 0 0
    outer loop
      vertex 20.3649 -7 2.22045e-16
      vertex 20.3649 -6 2.22045e-16
      vertex 20.3649 -6.76148 1.81173
    endloop
  endfacet
  facet normal 1 0 0
    outer loop
      vertex 20.3649 -6 2.22045e-16
      vertex 20.3649 -7 2.22045e-16
      vertex 20.3649 -6 0
    endloop
  endfacet
  facet normal 1 0 0
    outer loop
      vertex 20.3649 -6 0
      vertex 20.3649 -7 2.22045e-16
      vertex 20.3649 -7 0
    endloop
  endfacet
  facet normal 1 0 0
    outer loop
      vertex 20.3649 6 2.22045e-16
      vertex 20.3649 7 2.22045e-16
      vertex 20.3649 6.76148 1.81173
    endloop
  endfacet
  facet normal 1 0 0
    outer loop
      vertex 20.3649 5.79555 1.55291
      vertex 20.3649 6.76148 1.81173
      vertex 20.3649 6.06218 3.5
    endloop
  endfacet
  facet normal 1 0 0
    outer loop
      vertex 20.3649 7 2.22045e-16
      vertex 20.3649 6 2.22045e-16
      vertex 20.3649 7 0
    endloop
  endfacet
  facet normal 1 0 0
    outer loop
      vertex 20.3649 7 0
      vertex 20.3649 6 2.22045e-16
      vertex 20.3649 6 0
    endloop
  endfacet
  facet normal 0 -0.382681 0.92388
    outer loop
      vertex 19.3649 -1.81173 6.76148
      vertex 20.3649 -3.5 6.06218
      vertex 20.3649 -1.81173 6.76148
    endloop
  endfacet
  facet normal 0 -0.382681 0.92388
    outer loop
      vertex 20.3649 -3.5 6.06218
      vertex 19.3649 -1.81173 6.76148
      vertex 19.3649 -3.5 6.06218
    endloop
  endfacet
  facet normal -0 0.130527 0.991445
    outer loop
      vertex 42.3397 1.81173 6.76148
      vertex 43.3397 0 7
      vertex 43.3397 1.81173 6.76148
    endloop
  endfacet
  facet normal 0 0.130527 0.991445
    outer loop
      vertex 43.3397 0 7
      vertex 42.3397 1.81173 6.76148
      vertex 42.3397 0 7
    endloop
  endfacet
  facet normal 0 1 -0
    outer loop
      vertex 43.3397 7 0
      vertex 42.3397 7 5.10143e-15
      vertex 43.3397 7 5.32348e-15
    endloop
  endfacet
  facet normal 0 1 0
    outer loop
      vertex 42.3397 7 5.10143e-15
      vertex 43.3397 7 0
      vertex 42.3397 7 0
    endloop
  endfacet
  facet normal 0 0.793354 0.608761
    outer loop
      vertex 43.3397 6.06218 3.5
      vertex 42.3397 4.94975 4.94975
      vertex 43.3397 4.94975 4.94975
    endloop
  endfacet
  facet normal 0 0.793354 0.608761
    outer loop
      vertex 42.3397 4.94975 4.94975
      vertex 43.3397 6.06218 3.5
      vertex 42.3397 6.06218 3.5
    endloop
  endfacet
  facet normal -0 0.608761 0.793354
    outer loop
      vertex 42.3397 4.94975 4.94975
      vertex 43.3397 3.5 6.06218
      vertex 43.3397 4.94975 4.94975
    endloop
  endfacet
  facet normal 0 0.608761 0.793354
    outer loop
      vertex 43.3397 3.5 6.06218
      vertex 42.3397 4.94975 4.94975
      vertex 42.3397 3.5 6.06218
    endloop
  endfacet
  facet normal 0 0.92388 0.382681
    outer loop
      vertex 43.3397 6.76148 1.81173
      vertex 42.3397 6.06218 3.5
      vertex 43.3397 6.06218 3.5
    endloop
  endfacet
  facet normal 0 0.92388 0.382681
    outer loop
      vertex 42.3397 6.06218 3.5
      vertex 43.3397 6.76148 1.81173
      vertex 42.3397 6.76148 1.81173
    endloop
  endfacet
  facet normal 0 -0.793354 0.608761
    outer loop
      vertex 42.3397 -6.06218 3.5
      vertex 43.3397 -4.94975 4.94975
      vertex 42.3397 -4.94975 4.94975
    endloop
  endfacet
  facet normal 0 -0.793354 0.608761
    outer loop
      vertex 43.3397 -4.94975 4.94975
      vertex 42.3397 -6.06218 3.5
      vertex 43.3397 -6.06218 3.5
    endloop
  endfacet
  facet normal -1 0 0
    outer loop
      vertex 42.3397 -7 5.10143e-15
      vertex 42.3397 -6 5.10143e-15
      vertex 42.3397 -6 0
    endloop
  endfacet
  facet normal -1 0 0
    outer loop
      vertex 42.3397 -6 5.10143e-15
      vertex 42.3397 -6.76148 1.81173
      vertex 42.3397 -6.06218 3.5
    endloop
  endfacet
  facet normal -1 0 0
    outer loop
      vertex 42.3397 -7 5.10143e-15
      vertex 42.3397 -6 0
      vertex 42.3397 -7 0
    endloop
  endfacet
  facet normal -1 0 0
    outer loop
      vertex 42.3397 -6 5.10143e-15
      vertex 42.3397 -7 5.10143e-15
      vertex 42.3397 -6.76148 1.81173
    endloop
  endfacet
  facet normal -1 0 0
    outer loop
      vertex 42.3397 6 5.10143e-15
      vertex 42.3397 7 5.10143e-15
      vertex 42.3397 7 0
    endloop
  endfacet
  facet normal -1 0 0
    outer loop
      vertex 42.3397 7 5.10143e-15
      vertex 42.3397 5.79555 1.55291
      vertex 42.3397 6.76148 1.81173
    endloop
  endfacet
  facet normal -1 0 0
    outer loop
      vertex 42.3397 6 5.10143e-15
      vertex 42.3397 7 0
      vertex 42.3397 6 0
    endloop
  endfacet
  facet normal -1 0 0
    outer loop
      vertex 42.3397 7 5.10143e-15
      vertex 42.3397 6 5.10143e-15
      vertex 42.3397 5.79555 1.55291
    endloop
  endfacet
  facet normal -1 -0 0
    outer loop
      vertex 42.3397 6.76148 1.81173
      vertex 42.3397 5.79555 1.55291
      vertex 42.3397 6.06218 3.5
    endloop
  endfacet
  facet normal -1 0 0
    outer loop
      vertex 42.3397 5.19615 3
      vertex 42.3397 6.06218 3.5
      vertex 42.3397 5.79555 1.55291
    endloop
  endfacet
  facet normal -1 0 0
    outer loop
      vertex 42.3397 5.19615 3
      vertex 42.3397 4.94975 4.94975
      vertex 42.3397 6.06218 3.5
    endloop
  endfacet
  facet normal -1 0 0
    outer loop
      vertex 42.3397 4.24264 4.24264
      vertex 42.3397 4.94975 4.94975
      vertex 42.3397 5.19615 3
    endloop
  endfacet
  facet normal -1 0 0
    outer loop
      vertex 42.3397 4.24264 4.24264
      vertex 42.3397 3.5 6.06218
      vertex 42.3397 4.94975 4.94975
    endloop
  endfacet
  facet normal -1 0 0
    outer loop
      vertex 42.3397 3 5.19615
      vertex 42.3397 3.5 6.06218
      vertex 42.3397 4.24264 4.24264
    endloop
  endfacet
  facet normal -1 0 0
    outer loop
      vertex 42.3397 3 5.19615
      vertex 42.3397 1.81173 6.76148
      vertex 42.3397 3.5 6.06218
    endloop
  endfacet
  facet normal -1 0 0
    outer loop
      vertex 42.3397 1.55291 5.79555
      vertex 42.3397 1.81173 6.76148
      vertex 42.3397 3 5.19615
    endloop
  endfacet
  facet normal -1 0 0
    outer loop
      vertex 42.3397 0 6
      vertex 42.3397 1.81173 6.76148
      vertex 42.3397 1.55291 5.79555
    endloop
  endfacet
  facet normal -1 0 0
    outer loop
      vertex 42.3397 0 6
      vertex 42.3397 0 7
      vertex 42.3397 1.81173 6.76148
    endloop
  endfacet
  facet normal -1 0 0
    outer loop
      vertex 42.3397 -1.55291 5.79555
      vertex 42.3397 0 7
      vertex 42.3397 0 6
    endloop
  endfacet
  facet normal -1 0 0
    outer loop
      vertex 42.3397 -1.55291 5.79555
      vertex 42.3397 -1.81173 6.76148
      vertex 42.3397 0 7
    endloop
  endfacet
  facet normal -1 0 0
    outer loop
      vertex 42.3397 -3 5.19615
      vertex 42.3397 -1.81173 6.76148
      vertex 42.3397 -1.55291 5.79555
    endloop
  endfacet
  facet normal -1 0 0
    outer loop
      vertex 42.3397 -3 5.19615
      vertex 42.3397 -3.5 6.06218
      vertex 42.3397 -1.81173 6.76148
    endloop
  endfacet
  facet normal -1 0 0
    outer loop
      vertex 42.3397 -4.24264 4.24264
      vertex 42.3397 -3.5 6.06218
      vertex 42.3397 -3 5.19615
    endloop
  endfacet
  facet normal -1 0 0
    outer loop
      vertex 42.3397 -4.24264 4.24264
      vertex 42.3397 -4.94975 4.94975
      vertex 42.3397 -3.5 6.06218
    endloop
  endfacet
  facet normal -1 0 0
    outer loop
      vertex 42.3397 -5.19615 3
      vertex 42.3397 -4.94975 4.94975
      vertex 42.3397 -4.24264 4.24264
    endloop
  endfacet
  facet normal -1 0 0
    outer loop
      vertex 42.3397 -6.06218 3.5
      vertex 42.3397 -5.19615 3
      vertex 42.3397 -5.79555 1.55291
    endloop
  endfacet
  facet normal -1 0 0
    outer loop
      vertex 42.3397 -5.19615 3
      vertex 42.3397 -6.06218 3.5
      vertex 42.3397 -4.94975 4.94975
    endloop
  endfacet
  facet normal -1 0 0
    outer loop
      vertex 42.3397 -6.06218 3.5
      vertex 42.3397 -5.79555 1.55291
      vertex 42.3397 -6 5.10143e-15
    endloop
  endfacet
  facet normal -0 0.382681 0.92388
    outer loop
      vertex 42.3397 3.5 6.06218
      vertex 43.3397 1.81173 6.76148
      vertex 43.3397 3.5 6.06218
    endloop
  endfacet
  facet normal 0 0.382681 0.92388
    outer loop
      vertex 43.3397 1.81173 6.76148
      vertex 42.3397 3.5 6.06218
      vertex 42.3397 1.81173 6.76148
    endloop
  endfacet
  facet normal 1 0 0
    outer loop
      vertex 43.3397 4.33013 2.5
      vertex 43.3397 6.06218 3.5
      vertex 43.3397 4.94975 4.94975
    endloop
  endfacet
  facet normal 1 0 0
    outer loop
      vertex 43.3397 6.06218 3.5
      vertex 43.3397 4.82963 1.2941
      vertex 43.3397 5 5.32348e-15
    endloop
  endfacet
  facet normal 1 0 0
    outer loop
      vertex 43.3397 6.06218 3.5
      vertex 43.3397 4.33013 2.5
      vertex 43.3397 4.82963 1.2941
    endloop
  endfacet
  facet normal 1 0 0
    outer loop
      vertex 43.3397 4.94975 4.94975
      vertex 43.3397 3.53553 3.53553
      vertex 43.3397 4.33013 2.5
    endloop
  endfacet
  facet normal 1 0 0
    outer loop
      vertex 43.3397 3.5 6.06218
      vertex 43.3397 3.53553 3.53553
      vertex 43.3397 4.94975 4.94975
    endloop
  endfacet
  facet normal 1 0 0
    outer loop
      vertex 43.3397 3.5 6.06218
      vertex 43.3397 2.5 4.33013
      vertex 43.3397 3.53553 3.53553
    endloop
  endfacet
  facet normal 1 0 0
    outer loop
      vertex 43.3397 1.81173 6.76148
      vertex 43.3397 2.5 4.33013
      vertex 43.3397 3.5 6.06218
    endloop
  endfacet
  facet normal 1 0 0
    outer loop
      vertex 43.3397 1.81173 6.76148
      vertex 43.3397 1.2941 4.82963
      vertex 43.3397 2.5 4.33013
    endloop
  endfacet
  facet normal 1 0 0
    outer loop
      vertex 43.3397 0 7
      vertex 43.3397 1.2941 4.82963
      vertex 43.3397 1.81173 6.76148
    endloop
  endfacet
  facet normal 1 0 0
    outer loop
      vertex 43.3397 0 7
      vertex 43.3397 0 5
      vertex 43.3397 1.2941 4.82963
    endloop
  endfacet
  facet normal 1 0 0
    outer loop
      vertex 43.3397 0 7
      vertex 43.3397 -1.2941 4.82963
      vertex 43.3397 0 5
    endloop
  endfacet
  facet normal 1 -0 0
    outer loop
      vertex 43.3397 -1.81173 6.76148
      vertex 43.3397 -1.2941 4.82963
      vertex 43.3397 0 7
    endloop
  endfacet
  facet normal 1 0 0
    outer loop
      vertex 43.3397 -1.81173 6.76148
      vertex 43.3397 -2.5 4.33013
      vertex 43.3397 -1.2941 4.82963
    endloop
  endfacet
  facet normal 1 -0 0
    outer loop
      vertex 43.3397 -3.5 6.06218
      vertex 43.3397 -2.5 4.33013
      vertex 43.3397 -1.81173 6.76148
    endloop
  endfacet
  facet normal 1 0 0
    outer loop
      vertex 43.3397 -3.5 6.06218
      vertex 43.3397 -3.53553 3.53553
      vertex 43.3397 -2.5 4.33013
    endloop
  endfacet
  facet normal 1 -0 0
    outer loop
      vertex 43.3397 -4.94975 4.94975
      vertex 43.3397 -3.53553 3.53553
      vertex 43.3397 -3.5 6.06218
    endloop
  endfacet
  facet normal 1 0 0
    outer loop
      vertex 43.3397 -3.53553 3.53553
      vertex 43.3397 -4.94975 4.94975
      vertex 43.3397 -4.33013 2.5
    endloop
  endfacet
  facet normal 1 -0 0
    outer loop
      vertex 43.3397 -6.06218 3.5
      vertex 43.3397 -4.33013 2.5
      vertex 43.3397 -4.94975 4.94975
    endloop
  endfacet
  facet normal 1 0 0
    outer loop
      vertex 43.3397 -4.33013 2.5
      vertex 43.3397 -6.06218 3.5
      vertex 43.3397 -4.82963 1.2941
    endloop
  endfacet
  facet normal 1 -0 0
    outer loop
      vertex 43.3397 -6.76148 1.81173
      vertex 43.3397 -4.82963 1.2941
      vertex 43.3397 -6.06218 3.5
    endloop
  endfacet
  facet normal 1 0 0
    outer loop
      vertex 43.3397 -4.82963 1.2941
      vertex 43.3397 -6.76148 1.81173
      vertex 43.3397 -5 5.32348e-15
    endloop
  endfacet
  facet normal 1 0 0
    outer loop
      vertex 43.3397 -7 5.32348e-15
      vertex 43.3397 -5 5.32348e-15
      vertex 43.3397 -6.76148 1.81173
    endloop
  endfacet
  facet normal 1 0 0
    outer loop
      vertex 43.3397 -5 5.32348e-15
      vertex 43.3397 -7 5.32348e-15
      vertex 43.3397 -5 0
    endloop
  endfacet
  facet normal 1 0 0
    outer loop
      vertex 43.3397 -5 0
      vertex 43.3397 -7 5.32348e-15
      vertex 43.3397 -7 0
    endloop
  endfacet
  facet normal 1 0 0
    outer loop
      vertex 43.3397 5 5.32348e-15
      vertex 43.3397 7 5.32348e-15
      vertex 43.3397 6.76148 1.81173
    endloop
  endfacet
  facet normal 1 0 0
    outer loop
      vertex 43.3397 5 5.32348e-15
      vertex 43.3397 6.76148 1.81173
      vertex 43.3397 6.06218 3.5
    endloop
  endfacet
  facet normal 1 0 0
    outer loop
      vertex 43.3397 7 5.32348e-15
      vertex 43.3397 5 5.32348e-15
      vertex 43.3397 7 0
    endloop
  endfacet
  facet normal 1 0 0
    outer loop
      vertex 43.3397 7 0
      vertex 43.3397 5 5.32348e-15
      vertex 43.3397 5 0
    endloop
  endfacet
  facet normal 0 0.991445 0.130527
    outer loop
      vertex 43.3397 7 5.32348e-15
      vertex 42.3397 6.76148 1.81173
      vertex 43.3397 6.76148 1.81173
    endloop
  endfacet
  facet normal 0 0.991445 0.130527
    outer loop
      vertex 42.3397 6.76148 1.81173
      vertex 43.3397 7 5.32348e-15
      vertex 42.3397 7 5.10143e-15
    endloop
  endfacet
  facet normal 0 -1 0
    outer loop
      vertex 42.3397 -7 0
      vertex 43.3397 -7 5.32348e-15
      vertex 42.3397 -7 5.10143e-15
    endloop
  endfacet
  facet normal 0 -1 -0
    outer loop
      vertex 43.3397 -7 5.32348e-15
      vertex 42.3397 -7 0
      vertex 43.3397 -7 0
    endloop
  endfacet
  facet normal 0 -0.92388 0.382681
    outer loop
      vertex 42.3397 -6.76148 1.81173
      vertex 43.3397 -6.06218 3.5
      vertex 42.3397 -6.06218 3.5
    endloop
  endfacet
  facet normal 0 -0.92388 0.382681
    outer loop
      vertex 43.3397 -6.06218 3.5
      vertex 42.3397 -6.76148 1.81173
      vertex 43.3397 -6.76148 1.81173
    endloop
  endfacet
  facet normal 0 -0.608761 0.793354
    outer loop
      vertex 42.3397 -3.5 6.06218
      vertex 43.3397 -4.94975 4.94975
      vertex 43.3397 -3.5 6.06218
    endloop
  endfacet
  facet normal 0 -0.608761 0.793354
    outer loop
      vertex 43.3397 -4.94975 4.94975
      vertex 42.3397 -3.5 6.06218
      vertex 42.3397 -4.94975 4.94975
    endloop
  endfacet
  facet normal 0 -0.130527 0.991445
    outer loop
      vertex 42.3397 0 7
      vertex 43.3397 -1.81173 6.76148
      vertex 43.3397 0 7
    endloop
  endfacet
  facet normal 0 -0.130527 0.991445
    outer loop
      vertex 43.3397 -1.81173 6.76148
      vertex 42.3397 0 7
      vertex 42.3397 -1.81173 6.76148
    endloop
  endfacet
  facet normal 0 -0.991445 0.130527
    outer loop
      vertex 42.3397 -6.76148 1.81173
      vertex 43.3397 -7 5.32348e-15
      vertex 43.3397 -6.76148 1.81173
    endloop
  endfacet
  facet normal -2.89835e-17 -0.991445 0.130527
    outer loop
      vertex 43.3397 -7 5.32348e-15
      vertex 42.3397 -6.76148 1.81173
      vertex 42.3397 -7 5.10143e-15
    endloop
  endfacet
  facet normal 0 -0.382681 0.92388
    outer loop
      vertex 42.3397 -1.81173 6.76148
      vertex 43.3397 -3.5 6.06218
      vertex 43.3397 -1.81173 6.76148
    endloop
  endfacet
  facet normal 0 -0.382681 0.92388
    outer loop
      vertex 43.3397 -3.5 6.06218
      vertex 42.3397 -1.81173 6.76148
      vertex 42.3397 -3.5 6.06218
    endloop
  endfacet
  facet normal 0 0 -1
    outer loop
      vertex 43.3397 5 0
      vertex 42.3397 6 0
      vertex 43.3397 7 0
    endloop
  endfacet
  facet normal 0 0 -1
    outer loop
      vertex 43.3397 5 0
      vertex 20.3649 6 0
      vertex 42.3397 6 0
    endloop
  endfacet
  facet normal 0 0 -1
    outer loop
      vertex 19.3649 5 0
      vertex 20.3649 6 0
      vertex 43.3397 5 0
    endloop
  endfacet
  facet normal 0 0 -1
    outer loop
      vertex 19.3649 7 0
      vertex 20.3649 6 0
      vertex 19.3649 5 0
    endloop
  endfacet
  facet normal 0 0 -1
    outer loop
      vertex 20.3649 6 0
      vertex 19.3649 7 0
      vertex 20.3649 7 0
    endloop
  endfacet
  facet normal -0 0 -1
    outer loop
      vertex 43.3397 7 0
      vertex 42.3397 6 0
      vertex 42.3397 7 0
    endloop
  endfacet
  facet normal 0 0 -1
    outer loop
      vertex 20.3649 -7 0
      vertex 19.3649 -7 0
      vertex 20.3649 -6 0
    endloop
  endfacet
  facet normal 0 0 -1
    outer loop
      vertex 42.3397 -6 0
      vertex 43.3397 -7 0
      vertex 42.3397 -7 0
    endloop
  endfacet
  facet normal 0 0 -1
    outer loop
      vertex 43.3397 -7 0
      vertex 42.3397 -6 0
      vertex 43.3397 -5 0
    endloop
  endfacet
  facet normal 0 0 -1
    outer loop
      vertex 20.3649 -6 0
      vertex 43.3397 -5 0
      vertex 42.3397 -6 0
    endloop
  endfacet
  facet normal 0 0 -1
    outer loop
      vertex 20.3649 -6 0
      vertex 19.3649 -5 0
      vertex 43.3397 -5 0
    endloop
  endfacet
  facet normal 0 0 -1
    outer loop
      vertex 19.3649 -5 0
      vertex 20.3649 -6 0
      vertex 19.3649 -7 0
    endloop
  endfacet
endsolid OpenSCAD_Model
