solid OpenSCAD_Model
  facet normal -1 2.22047e-16 5.49365e-21
    outer loop
      vertex 1.44027e-14 64.8642 0.0976171
      vertex 1.46095e-14 65.7955 1.55291
      vertex 1.46549e-14 66 0
    endloop
  endfacet
  facet normal -1 2.21995e-16 -5.98956e-19
    outer loop
      vertex 1.44027e-14 64.8642 0.0976171
      vertex 1.46549e-14 66 0
      vertex 1.44056e-14 64.877 0
    endloop
  endfacet
  facet normal -1 2.22048e-16 4.90672e-21
    outer loop
      vertex 1.46095e-14 65.7955 1.55291
      vertex 1.44027e-14 64.8642 0.0976171
      vertex 1.43678e-14 64.707 1.2941
    endloop
  endfacet
  facet normal -1 2.22064e-16 -6.53481e-20
    outer loop
      vertex 1.43594e-14 64.6692 1.38549
      vertex 1.46095e-14 65.7955 1.55291
      vertex 1.43678e-14 64.707 1.2941
    endloop
  endfacet
  facet normal -1 2.22045e-16 6.47552e-20
    outer loop
      vertex 1.46095e-14 65.7955 1.55291
      vertex 1.43594e-14 64.6692 1.38549
      vertex 1.44765e-14 65.1961 3
    endloop
  endfacet
  facet normal -1 2.2211e-16 4.34269e-20
    outer loop
      vertex 1.42571e-14 64.2084 2.5
      vertex 1.44765e-14 65.1961 3
      vertex 1.43594e-14 64.6692 1.38549
    endloop
  endfacet
  facet normal -1 2.22055e-16 1.53447e-19
    outer loop
      vertex 1.42437e-14 64.148 2.57882
      vertex 1.44765e-14 65.1961 3
      vertex 1.42571e-14 64.2084 2.5
    endloop
  endfacet
  facet normal -1 2.22119e-16 -7.49997e-21
    outer loop
      vertex 1.44765e-14 65.1961 3
      vertex 1.42437e-14 64.148 2.57882
      vertex 1.42647e-14 64.2426 4.24264
    endloop
  endfacet
  facet normal -1 2.22051e-16 -3.60419e-21
    outer loop
      vertex 1.4081e-14 63.4153 3.53553
      vertex 1.42647e-14 64.2426 4.24264
      vertex 1.42437e-14 64.148 2.57882
    endloop
  endfacet
  facet normal -1 2.21769e-16 3.25676e-19
    outer loop
      vertex 1.40635e-14 63.3363 3.59624
      vertex 1.42647e-14 64.2426 4.24264
      vertex 1.4081e-14 63.4153 3.53553
    endloop
  endfacet
  facet normal -1 2.22017e-16 -2.22205e-20
    outer loop
      vertex 1.40635e-14 63.3363 3.59624
      vertex 1.39888e-14 63 5.19615
      vertex 1.42647e-14 64.2426 4.24264
    endloop
  endfacet
  facet normal -1 2.22075e-16 -1.01682e-20
    outer loop
      vertex 1.38515e-14 62.3817 4.33013
      vertex 1.39888e-14 63 5.19615
      vertex 1.40635e-14 63.3363 3.59624
    endloop
  endfacet
  facet normal -1 2.21442e-16 4.41892e-19
    outer loop
      vertex 1.38311e-14 62.2895 4.3684
      vertex 1.39888e-14 63 5.19615
      vertex 1.38515e-14 62.3817 4.33013
    endloop
  endfacet
  facet normal -1 2.22011e-16 -4.6794e-20
    outer loop
      vertex 1.38311e-14 62.2895 4.3684
      vertex 1.36675e-14 61.5529 5.79555
      vertex 1.39888e-14 63 5.19615
    endloop
  endfacet
  facet normal -1 2.22052e-16 -2.58025e-20
    outer loop
      vertex 1.35843e-14 61.1781 4.82963
      vertex 1.36675e-14 61.5529 5.79555
      vertex 1.38311e-14 62.2895 4.3684
    endloop
  endfacet
  facet normal -1 2.21997e-16 -4.77036e-21
    outer loop
      vertex 1.35623e-14 61.079 4.8427
      vertex 1.36675e-14 61.5529 5.79555
      vertex 1.35843e-14 61.1781 4.82963
    endloop
  endfacet
  facet normal -1 2.22033e-16 -2.2606e-20
    outer loop
      vertex 1.35623e-14 61.079 4.8427
      vertex 1.33227e-14 60 6
      vertex 1.36675e-14 61.5529 5.79555
    endloop
  endfacet
  facet normal -1 2.22054e-16 -3.13958e-21
    outer loop
      vertex 1.32975e-14 59.8865 5
      vertex 1.33227e-14 60 6
      vertex 1.35623e-14 61.079 4.8427
    endloop
  endfacet
  facet normal -1 2.22794e-16 -8.70896e-20
    outer loop
      vertex 1.32754e-14 59.7873 4.98692
      vertex 1.33227e-14 60 6
      vertex 1.32975e-14 59.8865 5
    endloop
  endfacet
  facet normal -1 2.21973e-16 -1.51563e-20
    outer loop
      vertex 1.29779e-14 58.4471 5.79555
      vertex 1.32754e-14 59.7873 4.98692
      vertex 1.30107e-14 58.5948 4.82963
    endloop
  endfacet
  facet normal -1 2.221e-16 4.32424e-21
    outer loop
      vertex 1.29779e-14 58.4471 5.79555
      vertex 1.30107e-14 58.5948 4.82963
      vertex 1.29902e-14 58.5025 4.79131
    endloop
  endfacet
  facet normal -1 2.22026e-16 7.40067e-20
    outer loop
      vertex 1.32754e-14 59.7873 4.98692
      vertex 1.29779e-14 58.4471 5.79555
      vertex 1.33227e-14 60 6
    endloop
  endfacet
  facet normal -1 2.22091e-16 -2.08344e-20
    outer loop
      vertex 1.26565e-14 57 5.19615
      vertex 1.29902e-14 58.5025 4.79131
      vertex 1.27434e-14 57.3912 4.33013
    endloop
  endfacet
  facet normal -1 2.22409e-16 1.22764e-19
    outer loop
      vertex 1.26565e-14 57 5.19615
      vertex 1.27434e-14 57.3912 4.33013
      vertex 1.27258e-14 57.3121 4.26932
    endloop
  endfacet
  facet normal -1 2.22098e-16 4.19122e-21
    outer loop
      vertex 1.29902e-14 58.5025 4.79131
      vertex 1.26565e-14 57 5.19615
      vertex 1.29779e-14 58.4471 5.79555
    endloop
  endfacet
  facet normal -1 2.22023e-16 -2.8043e-20
    outer loop
      vertex 1.23806e-14 55.7573 4.24264
      vertex 1.27258e-14 57.3121 4.26932
      vertex 1.25139e-14 56.3576 3.53553
    endloop
  endfacet
  facet normal -1 2.2196e-16 -8.10183e-20
    outer loop
      vertex 1.23806e-14 55.7573 4.24264
      vertex 1.25139e-14 56.3576 3.53553
      vertex 1.25005e-14 56.2972 3.45658
    endloop
  endfacet
  facet normal -1 2.22022e-16 -7.39636e-21
    outer loop
      vertex 1.27258e-14 57.3121 4.26932
      vertex 1.23806e-14 55.7573 4.24264
      vertex 1.26565e-14 57 5.19615
    endloop
  endfacet
  facet normal -1 2.2204e-16 1.17548e-20
    outer loop
      vertex 1.21689e-14 54.8038 3
      vertex 1.25005e-14 56.2972 3.45658
      vertex 1.23378e-14 55.5645 2.5
    endloop
  endfacet
  facet normal -1 2.22073e-16 6.16921e-20
    outer loop
      vertex 1.21689e-14 54.8038 3
      vertex 1.23378e-14 55.5645 2.5
      vertex 1.23294e-14 55.5267 2.4085
    endloop
  endfacet
  facet normal -1 2.22032e-16 9.05132e-21
    outer loop
      vertex 1.20358e-14 54.2044 1.55291
      vertex 1.23294e-14 55.5267 2.4085
      vertex 1.22271e-14 55.066 1.2941
    endloop
  endfacet
  facet normal -1 2.22011e-16 8.34227e-20
    outer loop
      vertex 1.19904e-14 54 0
      vertex 1.22243e-14 55.0531 1.19644
      vertex 1.21893e-14 54.8959 0
    endloop
  endfacet
  facet normal -1 2.2205e-16 -1.95859e-20
    outer loop
      vertex 1.25005e-14 56.2972 3.45658
      vertex 1.21689e-14 54.8038 3
      vertex 1.23806e-14 55.7573 4.24264
    endloop
  endfacet
  facet normal -1 2.22105e-16 1.13602e-21
    outer loop
      vertex 1.20358e-14 54.2044 1.55291
      vertex 1.22243e-14 55.0531 1.19644
      vertex 1.19904e-14 54 0
    endloop
  endfacet
  facet normal -1 2.22031e-16 1.02024e-20
    outer loop
      vertex 1.23294e-14 55.5267 2.4085
      vertex 1.20358e-14 54.2044 1.55291
      vertex 1.21689e-14 54.8038 3
    endloop
  endfacet
  facet normal -1 2.21839e-16 -6.32012e-19
    outer loop
      vertex 1.22243e-14 55.0531 1.19644
      vertex 1.20358e-14 54.2044 1.55291
      vertex 1.22271e-14 55.066 1.2941
    endloop
  endfacet
  facet normal 0.621767 -0.783202 0
    outer loop
      vertex 51.6798 41.0511 0
      vertex 51.5197 40.924 1.55291
      vertex 51.5197 40.924 0
    endloop
  endfacet
  facet normal 0.622001 -0.783017 1.38056e-05
    outer loop
      vertex 51.5197 40.924 1.55291
      vertex 50.3037 39.9581 4.24264
      vertex 49.3307 39.1852 5.19615
    endloop
  endfacet
  facet normal 0.621922 -0.783079 -4.3974e-05
    outer loop
      vertex 51.5197 40.924 1.55291
      vertex 51.0504 40.5512 3
      vertex 50.3037 39.9581 4.24264
    endloop
  endfacet
  facet normal 0.621972 -0.783039 -9.49806e-05
    outer loop
      vertex 49.3307 39.1852 5.19615
      vertex 48.1976 38.2851 5.79555
      vertex 46.9816 37.3192 6
    endloop
  endfacet
  facet normal 0.621999 -0.783018 3.09564e-05
    outer loop
      vertex 48.4961 38.5222 4.51589
      vertex 49.3307 39.1852 5.19615
      vertex 46.9816 37.3192 6
    endloop
  endfacet
  facet normal 0.621985 -0.783029 5.74336e-05
    outer loop
      vertex 48.8466 38.8006 4.33013
      vertex 49.3307 39.1852 5.19615
      vertex 48.4961 38.5222 4.51589
    endloop
  endfacet
  facet normal 0.622215 -0.782847 -0.000151472
    outer loop
      vertex 48.9066 38.8483 4.27124
      vertex 49.3307 39.1852 5.19615
      vertex 48.8466 38.8006 4.33013
    endloop
  endfacet
  facet normal 0.621997 -0.78302 1.15694e-05
    outer loop
      vertex 49.6559 39.4435 3.53553
      vertex 49.3307 39.1852 5.19615
      vertex 48.9066 38.8483 4.27124
    endloop
  endfacet
  facet normal 0.622026 -0.782997 2.0912e-05
    outer loop
      vertex 49.7021 39.4802 3.4585
      vertex 49.3307 39.1852 5.19615
      vertex 49.6559 39.4435 3.53553
    endloop
  endfacet
  facet normal 0.622102 -0.782936 4.76526e-05
    outer loop
      vertex 49.8831 39.624 3.15668
      vertex 49.3307 39.1852 5.19615
      vertex 49.7021 39.4802 3.4585
    endloop
  endfacet
  facet normal 0.62198 -0.783033 -6.41277e-06
    outer loop
      vertex 49.3307 39.1852 5.19615
      vertex 49.8831 39.624 3.15668
      vertex 51.5197 40.924 1.55291
    endloop
  endfacet
  facet normal 0.622054 -0.782975 -0.00039041
    outer loop
      vertex 46.9816 37.3192 6
      vertex 45.7657 36.3533 5.79555
      vertex 44.6325 35.4533 5.19615
    endloop
  endfacet
  facet normal 0.621961 -0.783049 5.30128e-05
    outer loop
      vertex 46.9816 37.3192 6
      vertex 44.6325 35.4533 5.19615
      vertex 43.6595 34.6804 4.24264
    endloop
  endfacet
  facet normal 0.62201 -0.78301 5.80587e-05
    outer loop
      vertex 51.5197 40.924 1.55291
      vertex 50.3061 39.96 2.4099
      vertex 50.4669 40.0877 1.91318
    endloop
  endfacet
  facet normal 0.621996 -0.78302 2.03548e-05
    outer loop
      vertex 50.2769 39.9368 2.5
      vertex 51.5197 40.924 1.55291
      vertex 49.8831 39.624 3.15668
    endloop
  endfacet
  facet normal 0.621958 -0.783051 -6.24054e-05
    outer loop
      vertex 50.3061 39.96 2.4099
      vertex 51.5197 40.924 1.55291
      vertex 50.2769 39.9368 2.5
    endloop
  endfacet
  facet normal 0.621971 -0.783041 -1.05308e-05
    outer loop
      vertex 46.9816 37.3192 6
      vertex 45.9559 36.5045 4.84219
      vertex 46.8927 37.2486 5
    endloop
  endfacet
  facet normal 0.622313 -0.782769 -0.000504769
    outer loop
      vertex 46.9816 37.3192 6
      vertex 45.8813 36.4452 4.82963
      vertex 45.9559 36.5045 4.84219
    endloop
  endfacet
  facet normal 0.621972 -0.783039 1.75321e-05
    outer loop
      vertex 43.6595 34.6804 4.24264
      vertex 45.8813 36.4452 4.82963
      vertex 46.9816 37.3192 6
    endloop
  endfacet
  facet normal 0.622004 -0.783014 -0.000182247
    outer loop
      vertex 45.8813 36.4452 4.82963
      vertex 43.6595 34.6804 4.24264
      vertex 45.0084 35.7519 4.367
    endloop
  endfacet
  facet normal 0.621858 -0.783127 0.00238077
    outer loop
      vertex 45.0084 35.7519 4.367
      vertex 43.6595 34.6804 4.24264
      vertex 44.9389 35.6966 4.33013
    endloop
  endfacet
  facet normal 0.621966 -0.783044 -0.000150686
    outer loop
      vertex 44.9389 35.6966 4.33013
      vertex 43.6595 34.6804 4.24264
      vertex 44.5421 35.3815 3.94061
    endloop
  endfacet
  facet normal 0.621752 -0.783214 2.1177e-05
    outer loop
      vertex 46.9674 37.3079 4.98743
      vertex 46.9816 37.3192 6
      vertex 46.8927 37.2486 5
    endloop
  endfacet
  facet normal 0.622012 -0.783008 1.52283e-05
    outer loop
      vertex 47.9041 38.052 4.82963
      vertex 46.9816 37.3192 6
      vertex 46.9674 37.3079 4.98743
    endloop
  endfacet
  facet normal 0.621205 -0.783647 -0.00102104
    outer loop
      vertex 47.9738 38.1073 4.79271
      vertex 46.9816 37.3192 6
      vertex 47.9041 38.052 4.82963
    endloop
  endfacet
  facet normal 0.622032 -0.782992 8.61297e-05
    outer loop
      vertex 46.9816 37.3192 6
      vertex 47.9738 38.1073 4.79271
      vertex 48.4961 38.5222 4.51589
    endloop
  endfacet
  facet normal 0.62201 -0.78301 3.98869e-06
    outer loop
      vertex 42.2835 33.5873 0
      vertex 43.1035 34.2387 1.15132
      vertex 42.9129 34.0873 3
    endloop
  endfacet
  facet normal 0.622007 -0.783012 7.51735e-06
    outer loop
      vertex 43.1035 34.2387 1.15132
      vertex 42.2835 33.5873 0
      vertex 42.995 34.1525 0.0971023
    endloop
  endfacet
  facet normal 0.622037 -0.782988 -0.00035806
    outer loop
      vertex 42.995 34.1525 0.0971023
      vertex 42.2835 33.5873 0
      vertex 42.985 34.1446 0
    endloop
  endfacet
  facet normal 0.621977 -0.783036 1.5248e-05
    outer loop
      vertex 42.9129 34.0873 3
      vertex 42.4436 33.7145 1.55291
      vertex 42.2835 33.5873 0
    endloop
  endfacet
  facet normal 0.622018 -0.783003 0
    outer loop
      vertex 42.9129 34.0873 3
      vertex 43.6595 34.6804 2.75175
      vertex 43.6595 34.6804 4.24264
    endloop
  endfacet
  facet normal 0.622054 -0.782974 0.000174548
    outer loop
      vertex 42.9129 34.0873 3
      vertex 43.5547 34.5971 2.57691
      vertex 43.6595 34.6804 2.75175
    endloop
  endfacet
  facet normal 0.621989 -0.783026 1.47724e-05
    outer loop
      vertex 42.9129 34.0873 3
      vertex 43.5085 34.5604 2.5
      vertex 43.5547 34.5971 2.57691
    endloop
  endfacet
  facet normal 0.621979 -0.783034 -5.63257e-06
    outer loop
      vertex 42.9129 34.0873 3
      vertex 43.1473 34.2735 1.38409
      vertex 43.5085 34.5604 2.5
    endloop
  endfacet
  facet normal 0.622956 -0.782256 0.000225777
    outer loop
      vertex 42.9129 34.0873 3
      vertex 43.1182 34.2503 1.2941
      vertex 43.1473 34.2735 1.38409
    endloop
  endfacet
  facet normal 0.620732 -0.784023 -0.000210747
    outer loop
      vertex 43.1182 34.2503 1.2941
      vertex 42.9129 34.0873 3
      vertex 43.1035 34.2387 1.15132
    endloop
  endfacet
  facet normal 0.621994 -0.783022 -1.51857e-05
    outer loop
      vertex 50.6673 40.2469 1.2941
      vertex 51.5197 40.924 1.55291
      vertex 50.4669 40.0877 1.91318
    endloop
  endfacet
  facet normal 0.621928 -0.783074 0.000339643
    outer loop
      vertex 50.6773 40.2548 1.19695
      vertex 51.5197 40.924 1.55291
      vertex 50.6673 40.2469 1.2941
    endloop
  endfacet
  facet normal 0.622034 -0.78299 -6.79418e-05
    outer loop
      vertex 51.5197 40.924 1.55291
      vertex 50.6773 40.2548 1.19695
      vertex 50.7027 40.275 0.95049
    endloop
  endfacet
  facet normal 0.622008 -0.783011 5.04399e-05
    outer loop
      vertex 43.6595 34.6804 4.24264
      vertex 44.1894 35.1013 3.59433
      vertex 44.5421 35.3815 3.94061
    endloop
  endfacet
  facet normal 0.622418 -0.782684 0.000597923
    outer loop
      vertex 43.6595 34.6804 4.24264
      vertex 44.1296 35.0537 3.53553
      vertex 44.1894 35.1013 3.59433
    endloop
  endfacet
  facet normal 0.621867 -0.783123 0
    outer loop
      vertex 44.1296 35.0537 3.53553
      vertex 43.6595 34.6804 4.24264
      vertex 43.6595 34.6804 2.75175
    endloop
  endfacet
  facet normal 0.621976 -0.783037 -1.3394e-05
    outer loop
      vertex 51.3596 40.7968 0
      vertex 50.7027 40.275 0.95049
      vertex 50.8005 40.3527 0
    endloop
  endfacet
  facet normal 0.621998 -0.783019 1.1689e-05
    outer loop
      vertex 50.7027 40.275 0.95049
      vertex 51.3596 40.7968 0
      vertex 51.5197 40.924 1.55291
    endloop
  endfacet
  facet normal 0.622067 -0.782964 0
    outer loop
      vertex 51.5197 40.924 0
      vertex 51.5197 40.924 1.55291
      vertex 51.3596 40.7968 0
    endloop
  endfacet
  facet normal 0.11125 0.985286 0.129751
    outer loop
      vertex 14.6717 64.1389 1.55291
      vertex 1.46549e-14 66 0
      vertex 1.46095e-14 65.7955 1.55291
    endloop
  endfacet
  facet normal 0.111254 0.98529 0.129719
    outer loop
      vertex 14.6717 64.1389 1.55291
      vertex 14.7173 64.3382 0
      vertex 1.46549e-14 66 0
    endloop
  endfacet
  facet normal 0.103753 0.918894 0.380616
    outer loop
      vertex 14.538 63.5546 3
      vertex 1.46095e-14 65.7955 1.55291
      vertex 1.44765e-14 65.1961 3
    endloop
  endfacet
  facet normal 0.103754 0.918895 0.380614
    outer loop
      vertex 14.538 63.5546 3
      vertex 14.6717 64.1389 1.55291
      vertex 1.46095e-14 65.7955 1.55291
    endloop
  endfacet
  facet normal 0.0892217 0.790193 0.606329
    outer loop
      vertex 14.3254 62.6251 4.24264
      vertex 1.44765e-14 65.1961 3
      vertex 1.42647e-14 64.2426 4.24264
    endloop
  endfacet
  facet normal 0.0892213 0.790191 0.606331
    outer loop
      vertex 14.3254 62.6251 4.24264
      vertex 14.538 63.5546 3
      vertex 1.44765e-14 65.1961 3
    endloop
  endfacet
  facet normal 0.0685794 0.60734 0.791476
    outer loop
      vertex 14.0483 61.4137 5.19615
      vertex 1.42647e-14 64.2426 4.24264
      vertex 1.39888e-14 63 5.19615
    endloop
  endfacet
  facet normal 0.0685726 0.607313 0.791498
    outer loop
      vertex 14.0483 61.4137 5.19615
      vertex 14.3254 62.6251 4.24264
      vertex 1.42647e-14 64.2426 4.24264
    endloop
  endfacet
  facet normal 0.0431692 0.382322 0.92302
    outer loop
      vertex 13.7256 60.0031 5.79555
      vertex 1.39888e-14 63 5.19615
      vertex 1.36675e-14 61.5529 5.79555
    endloop
  endfacet
  facet normal 0.0431724 0.382336 0.923014
    outer loop
      vertex 13.7256 60.0031 5.79555
      vertex 14.0483 61.4137 5.19615
      vertex 1.39888e-14 63 5.19615
    endloop
  endfacet
  facet normal 0.014738 0.130516 0.991337
    outer loop
      vertex 13.3793 58.4892 6
      vertex 1.36675e-14 61.5529 5.79555
      vertex 1.33227e-14 60 6
    endloop
  endfacet
  facet normal 0.0147361 0.130508 0.991338
    outer loop
      vertex 13.3793 58.4892 6
      vertex 13.7256 60.0031 5.79555
      vertex 1.36675e-14 61.5529 5.79555
    endloop
  endfacet
  facet normal -0.0147379 -0.130516 0.991337
    outer loop
      vertex 13.0331 56.9754 5.79555
      vertex 1.33227e-14 60 6
      vertex 1.29779e-14 58.4471 5.79555
    endloop
  endfacet
  facet normal -0.0147381 -0.130517 0.991337
    outer loop
      vertex 13.0331 56.9754 5.79555
      vertex 13.3793 58.4892 6
      vertex 1.33227e-14 60 6
    endloop
  endfacet
  facet normal -0.0431701 -0.382322 0.92302
    outer loop
      vertex 12.7104 55.5648 5.19615
      vertex 1.29779e-14 58.4471 5.79555
      vertex 1.26565e-14 57 5.19615
    endloop
  endfacet
  facet normal -0.0431734 -0.382336 0.923014
    outer loop
      vertex 12.7104 55.5648 5.19615
      vertex 13.0331 56.9754 5.79555
      vertex 1.29779e-14 58.4471 5.79555
    endloop
  endfacet
  facet normal -0.0685741 -0.607309 0.7915
    outer loop
      vertex 12.4333 54.3534 4.24264
      vertex 1.26565e-14 57 5.19615
      vertex 1.23806e-14 55.7573 4.24264
    endloop
  endfacet
  facet normal -0.068575 -0.607313 0.791498
    outer loop
      vertex 12.4333 54.3534 4.24264
      vertex 12.7104 55.5648 5.19615
      vertex 1.26565e-14 57 5.19615
    endloop
  endfacet
  facet normal -0.0892253 -0.790192 0.606329
    outer loop
      vertex 12.2206 53.4239 3
      vertex 1.23806e-14 55.7573 4.24264
      vertex 1.21689e-14 54.8038 3
    endloop
  endfacet
  facet normal -0.0892236 -0.790187 0.606336
    outer loop
      vertex 12.2206 53.4239 3
      vertex 12.4333 54.3534 4.24264
      vertex 1.23806e-14 55.7573 4.24264
    endloop
  endfacet
  facet normal -0.103757 -0.918894 0.380616
    outer loop
      vertex 12.087 52.8396 1.55291
      vertex 1.21689e-14 54.8038 3
      vertex 1.20358e-14 54.2044 1.55291
    endloop
  endfacet
  facet normal -0.103758 -0.918897 0.380608
    outer loop
      vertex 12.087 52.8396 1.55291
      vertex 12.2206 53.4239 3
      vertex 1.21689e-14 54.8038 3
    endloop
  endfacet
  facet normal -0.111258 -0.985293 0.129688
    outer loop
      vertex 12.0414 52.6403 0
      vertex 1.20358e-14 54.2044 1.55291
      vertex 1.19904e-14 54 0
    endloop
  endfacet
  facet normal -0.111254 -0.98529 0.129719
    outer loop
      vertex 12.0414 52.6403 0
      vertex 12.087 52.8396 1.55291
      vertex 1.20358e-14 54.2044 1.55291
    endloop
  endfacet
  facet normal 0.328165 0.935671 0.12972
    outer loop
      vertex 28.6045 59.2523 1.55291
      vertex 14.7173 64.3382 0
      vertex 14.6717 64.1389 1.55291
    endloop
  endfacet
  facet normal 0.328166 0.935672 0.129712
    outer loop
      vertex 28.6045 59.2523 1.55291
      vertex 28.6934 59.4364 0
      vertex 14.7173 64.3382 0
    endloop
  endfacet
  facet normal 0.306051 0.872618 0.380619
    outer loop
      vertex 28.3439 58.7125 3
      vertex 14.6717 64.1389 1.55291
      vertex 14.538 63.5546 3
    endloop
  endfacet
  facet normal 0.30605 0.872617 0.380623
    outer loop
      vertex 28.3439 58.7125 3
      vertex 28.6045 59.2523 1.55291
      vertex 14.6717 64.1389 1.55291
    endloop
  endfacet
  facet normal 0.263186 0.750399 0.606329
    outer loop
      vertex 27.9294 57.8538 4.24264
      vertex 14.538 63.5546 3
      vertex 14.3254 62.6251 4.24264
    endloop
  endfacet
  facet normal 0.263184 0.750396 0.606334
    outer loop
      vertex 27.9294 57.8538 4.24264
      vertex 28.3439 58.7125 3
      vertex 14.538 63.5546 3
    endloop
  endfacet
  facet normal 0.202274 0.57673 0.791497
    outer loop
      vertex 27.3892 56.7347 5.19615
      vertex 14.3254 62.6251 4.24264
      vertex 14.0483 61.4137 5.19615
    endloop
  endfacet
  facet normal 0.202277 0.576736 0.791492
    outer loop
      vertex 27.3892 56.7347 5.19615
      vertex 27.9294 57.8538 4.24264
      vertex 14.3254 62.6251 4.24264
    endloop
  endfacet
  facet normal 0.127342 0.363081 0.923015
    outer loop
      vertex 26.76 55.4316 5.79555
      vertex 14.0483 61.4137 5.19615
      vertex 13.7256 60.0031 5.79555
    endloop
  endfacet
  facet normal 0.127342 0.363081 0.923015
    outer loop
      vertex 26.76 55.4316 5.79555
      vertex 27.3892 56.7347 5.19615
      vertex 14.0483 61.4137 5.19615
    endloop
  endfacet
  facet normal 0.0434667 0.123936 0.991338
    outer loop
      vertex 26.0849 54.0331 6
      vertex 13.7256 60.0031 5.79555
      vertex 13.3793 58.4892 6
    endloop
  endfacet
  facet normal 0.0434696 0.123942 0.991337
    outer loop
      vertex 26.0849 54.0331 6
      vertex 26.76 55.4316 5.79555
      vertex 13.7256 60.0031 5.79555
    endloop
  endfacet
  facet normal -0.0434707 -0.123946 0.991336
    outer loop
      vertex 25.4098 52.6346 5.79555
      vertex 13.3793 58.4892 6
      vertex 13.0331 56.9754 5.79555
    endloop
  endfacet
  facet normal -0.0434689 -0.123942 0.991337
    outer loop
      vertex 25.4098 52.6346 5.79555
      vertex 26.0849 54.0331 6
      vertex 13.3793 58.4892 6
    endloop
  endfacet
  facet normal -0.127343 -0.363081 0.923015
    outer loop
      vertex 24.7807 51.3314 5.19615
      vertex 13.0331 56.9754 5.79555
      vertex 12.7104 55.5648 5.19615
    endloop
  endfacet
  facet normal -0.127337 -0.363069 0.92302
    outer loop
      vertex 24.7807 51.3314 5.19615
      vertex 25.4098 52.6346 5.79555
      vertex 13.0331 56.9754 5.79555
    endloop
  endfacet
  facet normal -0.202272 -0.57673 0.791497
    outer loop
      vertex 24.2404 50.2124 4.24264
      vertex 12.7104 55.5648 5.19615
      vertex 12.4333 54.3534 4.24264
    endloop
  endfacet
  facet normal -0.202284 -0.576754 0.791477
    outer loop
      vertex 24.2404 50.2124 4.24264
      vertex 24.7807 51.3314 5.19615
      vertex 12.7104 55.5648 5.19615
    endloop
  endfacet
  facet normal -0.263176 -0.750391 0.606343
    outer loop
      vertex 23.8259 49.3537 3
      vertex 12.4333 54.3534 4.24264
      vertex 12.2206 53.4239 3
    endloop
  endfacet
  facet normal -0.26318 -0.750397 0.606333
    outer loop
      vertex 23.8259 49.3537 3
      vertex 24.2404 50.2124 4.24264
      vertex 12.4333 54.3534 4.24264
    endloop
  endfacet
  facet normal -0.30605 -0.872626 0.380601
    outer loop
      vertex 23.5653 48.8139 1.55291
      vertex 12.2206 53.4239 3
      vertex 12.087 52.8396 1.55291
    endloop
  endfacet
  facet normal -0.306044 -0.872619 0.380622
    outer loop
      vertex 23.5653 48.8139 1.55291
      vertex 23.8259 49.3537 3
      vertex 12.2206 53.4239 3
    endloop
  endfacet
  facet normal -0.32816 -0.935673 0.12972
    outer loop
      vertex 23.4764 48.6298 0
      vertex 12.087 52.8396 1.55291
      vertex 12.0414 52.6403 0
    endloop
  endfacet
  facet normal -0.328162 -0.935673 0.129712
    outer loop
      vertex 23.4764 48.6298 0
      vertex 23.5653 48.8139 1.55291
      vertex 12.087 52.8396 1.55291
    endloop
  endfacet
  facet normal 0.528543 0.838937 0.129715
    outer loop
      vertex 41.0969 51.3819 1.55291
      vertex 28.6934 59.4364 0
      vertex 28.6045 59.2523 1.55291
    endloop
  endfacet
  facet normal 0.528548 0.838939 0.129686
    outer loop
      vertex 41.0969 51.3819 1.55291
      vertex 41.2246 51.5415 0
      vertex 28.6934 59.4364 0
    endloop
  endfacet
  facet normal 0.492924 0.782401 0.380623
    outer loop
      vertex 40.7225 50.9138 3
      vertex 28.6045 59.2523 1.55291
      vertex 28.3439 58.7125 3
    endloop
  endfacet
  facet normal 0.492925 0.782402 0.380621
    outer loop
      vertex 40.7225 50.9138 3
      vertex 41.0969 51.3819 1.55291
      vertex 28.6045 59.2523 1.55291
    endloop
  endfacet
  facet normal 0.423885 0.672819 0.60633
    outer loop
      vertex 40.1269 50.1692 4.24264
      vertex 28.3439 58.7125 3
      vertex 27.9294 57.8538 4.24264
    endloop
  endfacet
  facet normal 0.423886 0.67282 0.606329
    outer loop
      vertex 40.1269 50.1692 4.24264
      vertex 40.7225 50.9138 3
      vertex 28.3439 58.7125 3
    endloop
  endfacet
  facet normal 0.325792 0.517112 0.791489
    outer loop
      vertex 39.3507 49.1987 5.19615
      vertex 27.9294 57.8538 4.24264
      vertex 27.3892 56.7347 5.19615
    endloop
  endfacet
  facet normal 0.325777 0.517095 0.791506
    outer loop
      vertex 39.3507 49.1987 5.19615
      vertex 40.1269 50.1692 4.24264
      vertex 27.9294 57.8538 4.24264
    endloop
  endfacet
  facet normal 0.205094 0.32554 0.923017
    outer loop
      vertex 38.4469 48.0687 5.79555
      vertex 27.3892 56.7347 5.19615
      vertex 26.76 55.4316 5.79555
    endloop
  endfacet
  facet normal 0.205106 0.325554 0.923009
    outer loop
      vertex 38.4469 48.0687 5.79555
      vertex 39.3507 49.1987 5.19615
      vertex 27.3892 56.7347 5.19615
    endloop
  endfacet
  facet normal 0.0700132 0.111128 0.991337
    outer loop
      vertex 37.4769 46.8559 6
      vertex 26.76 55.4316 5.79555
      vertex 26.0849 54.0331 6
    endloop
  endfacet
  facet normal 0.0700091 0.111123 0.991338
    outer loop
      vertex 37.4769 46.8559 6
      vertex 38.4469 48.0687 5.79555
      vertex 26.76 55.4316 5.79555
    endloop
  endfacet
  facet normal -0.0700131 -0.111128 0.991337
    outer loop
      vertex 36.5069 45.6432 5.79555
      vertex 26.0849 54.0331 6
      vertex 25.4098 52.6346 5.79555
    endloop
  endfacet
  facet normal -0.0700134 -0.111129 0.991337
    outer loop
      vertex 36.5069 45.6432 5.79555
      vertex 37.4769 46.8559 6
      vertex 26.0849 54.0331 6
    endloop
  endfacet
  facet normal -0.205092 -0.325533 0.92302
    outer loop
      vertex 35.6031 44.5131 5.19615
      vertex 25.4098 52.6346 5.79555
      vertex 24.7807 51.3314 5.19615
    endloop
  endfacet
  facet normal -0.205096 -0.325538 0.923017
    outer loop
      vertex 35.6031 44.5131 5.19615
      vertex 36.5069 45.6432 5.79555
      vertex 25.4098 52.6346 5.79555
    endloop
  endfacet
  facet normal -0.325796 -0.517121 0.791482
    outer loop
      vertex 34.8269 43.5427 4.24264
      vertex 24.7807 51.3314 5.19615
      vertex 24.2404 50.2124 4.24264
    endloop
  endfacet
  facet normal -0.325792 -0.517116 0.791486
    outer loop
      vertex 34.8269 43.5427 4.24264
      vertex 35.6031 44.5131 5.19615
      vertex 24.7807 51.3314 5.19615
    endloop
  endfacet
  facet normal -0.423888 -0.672817 0.60633
    outer loop
      vertex 34.2313 42.7981 3
      vertex 24.2404 50.2124 4.24264
      vertex 23.8259 49.3537 3
    endloop
  endfacet
  facet normal -0.423888 -0.672818 0.606329
    outer loop
      vertex 34.2313 42.7981 3
      vertex 34.8269 43.5427 4.24264
      vertex 24.2404 50.2124 4.24264
    endloop
  endfacet
  facet normal -0.492926 -0.7824 0.380623
    outer loop
      vertex 33.8569 42.33 1.55291
      vertex 23.8259 49.3537 3
      vertex 23.5653 48.8139 1.55291
    endloop
  endfacet
  facet normal -0.492927 -0.7824 0.380621
    outer loop
      vertex 33.8569 42.33 1.55291
      vertex 34.2313 42.7981 3
      vertex 23.8259 49.3537 3
    endloop
  endfacet
  facet normal -0.528548 -0.838934 0.129715
    outer loop
      vertex 33.7292 42.1703 0
      vertex 23.5653 48.8139 1.55291
      vertex 23.4764 48.6298 0
    endloop
  endfacet
  facet normal -0.528544 -0.838933 0.129739
    outer loop
      vertex 33.7292 42.1703 0
      vertex 33.8569 42.33 1.55291
      vertex 23.5653 48.8139 1.55291
    endloop
  endfacet
  facet normal 0.702312 0.699955 0.129691
    outer loop
      vertex 51.5197 40.924 1.55291
      vertex 41.2246 51.5415 0
      vertex 41.0969 51.3819 1.55291
    endloop
  endfacet
  facet normal 0.702312 0.699955 0.129695
    outer loop
      vertex 51.5197 40.924 1.55291
      vertex 51.6798 41.0511 0
      vertex 41.2246 51.5415 0
    endloop
  endfacet
  facet normal 0.654979 0.652786 0.380621
    outer loop
      vertex 51.0504 40.5512 3
      vertex 41.0969 51.3819 1.55291
      vertex 40.7225 50.9138 3
    endloop
  endfacet
  facet normal 0.654991 0.652793 0.38059
    outer loop
      vertex 51.0504 40.5512 3
      vertex 51.5197 40.924 1.55291
      vertex 41.0969 51.3819 1.55291
    endloop
  endfacet
  facet normal 0.563245 0.561353 0.606332
    outer loop
      vertex 50.3037 39.9581 4.24264
      vertex 40.7225 50.9138 3
      vertex 40.1269 50.1692 4.24264
    endloop
  endfacet
  facet normal 0.563225 0.561339 0.606363
    outer loop
      vertex 50.3037 39.9581 4.24264
      vertex 51.0504 40.5512 3
      vertex 40.7225 50.9138 3
    endloop
  endfacet
  facet normal 0.432881 0.431433 0.791505
    outer loop
      vertex 49.3307 39.1852 5.19615
      vertex 40.1269 50.1692 4.24264
      vertex 39.3507 49.1987 5.19615
    endloop
  endfacet
  facet normal 0.432905 0.431451 0.791481
    outer loop
      vertex 49.3307 39.1852 5.19615
      vertex 50.3037 39.9581 4.24264
      vertex 40.1269 50.1692 4.24264
    endloop
  endfacet
  facet normal 0.272538 0.271621 0.923009
    outer loop
      vertex 48.1976 38.2851 5.79555
      vertex 39.3507 49.1987 5.19615
      vertex 38.4469 48.0687 5.79555
    endloop
  endfacet
  facet normal 0.272516 0.271604 0.92302
    outer loop
      vertex 48.1976 38.2851 5.79555
      vertex 49.3307 39.1852 5.19615
      vertex 39.3507 49.1987 5.19615
    endloop
  endfacet
  facet normal 0.0930262 0.092714 0.991338
    outer loop
      vertex 46.9816 37.3192 6
      vertex 38.4469 48.0687 5.79555
      vertex 37.4769 46.8559 6
    endloop
  endfacet
  facet normal 0.0930295 0.0927166 0.991337
    outer loop
      vertex 46.9816 37.3192 6
      vertex 48.1976 38.2851 5.79555
      vertex 38.4469 48.0687 5.79555
    endloop
  endfacet
  facet normal -0.09303 -0.0927185 0.991337
    outer loop
      vertex 45.7657 36.3533 5.79555
      vertex 37.4769 46.8559 6
      vertex 36.5069 45.6432 5.79555
    endloop
  endfacet
  facet normal -0.0930334 -0.0927212 0.991336
    outer loop
      vertex 45.7657 36.3533 5.79555
      vertex 46.9816 37.3192 6
      vertex 37.4769 46.8559 6
    endloop
  endfacet
  facet normal -0.272525 -0.271611 0.923016
    outer loop
      vertex 44.6325 35.4533 5.19615
      vertex 36.5069 45.6432 5.79555
      vertex 35.6031 44.5131 5.19615
    endloop
  endfacet
  facet normal -0.272516 -0.271604 0.92302
    outer loop
      vertex 44.6325 35.4533 5.19615
      vertex 45.7657 36.3533 5.79555
      vertex 36.5069 45.6432 5.79555
    endloop
  endfacet
  facet normal -0.432898 -0.431447 0.791488
    outer loop
      vertex 43.6595 34.6804 4.24264
      vertex 35.6031 44.5131 5.19615
      vertex 34.8269 43.5427 4.24264
    endloop
  endfacet
  facet normal -0.432905 -0.431452 0.791481
    outer loop
      vertex 43.6595 34.6804 4.24264
      vertex 44.6325 35.4533 5.19615
      vertex 35.6031 44.5131 5.19615
    endloop
  endfacet
  facet normal -0.563243 -0.561355 0.606332
    outer loop
      vertex 42.9129 34.0873 3
      vertex 34.8269 43.5427 4.24264
      vertex 34.2313 42.7981 3
    endloop
  endfacet
  facet normal -0.563241 -0.561354 0.606334
    outer loop
      vertex 42.9129 34.0873 3
      vertex 43.6595 34.6804 4.24264
      vertex 34.8269 43.5427 4.24264
    endloop
  endfacet
  facet normal -0.654977 -0.652788 0.380621
    outer loop
      vertex 42.4436 33.7145 1.55291
      vertex 34.2313 42.7981 3
      vertex 33.8569 42.33 1.55291
    endloop
  endfacet
  facet normal -0.65499 -0.652794 0.38059
    outer loop
      vertex 42.4436 33.7145 1.55291
      vertex 42.9129 34.0873 3
      vertex 34.2313 42.7981 3
    endloop
  endfacet
  facet normal -0.702304 -0.699956 0.129735
    outer loop
      vertex 42.2835 33.5873 0
      vertex 33.8569 42.33 1.55291
      vertex 33.7292 42.1703 0
    endloop
  endfacet
  facet normal -0.702303 -0.699956 0.129739
    outer loop
      vertex 42.2835 33.5873 0
      vertex 42.4436 33.7145 1.55291
      vertex 33.8569 42.33 1.55291
    endloop
  endfacet
  facet normal -0.0983535 -0.986672 -0.129634
    outer loop
      vertex 13.9042 63.321 1.2941
      vertex 1.43678e-14 64.707 1.2941
      vertex 1.44027e-14 64.8642 0.0976171
    endloop
  endfacet
  facet normal -0.0983534 -0.986705 -0.129381
    outer loop
      vertex 13.9408 63.4874 0
      vertex 1.44027e-14 64.8642 0.0976171
      vertex 1.44056e-14 64.877 0
    endloop
  endfacet
  facet normal -0.0983518 -0.98667 -0.129651
    outer loop
      vertex 1.44027e-14 64.8642 0.0976171
      vertex 13.9408 63.4874 0
      vertex 13.9042 63.321 1.2941
    endloop
  endfacet
  facet normal -0.091729 -0.920231 -0.380474
    outer loop
      vertex 13.7971 62.8331 2.5
      vertex 1.42571e-14 64.2084 2.5
      vertex 1.43594e-14 64.6692 1.38549
    endloop
  endfacet
  facet normal -0.0917124 -0.920181 -0.380598
    outer loop
      vertex 1.43678e-14 64.707 1.2941
      vertex 13.7971 62.8331 2.5
      vertex 1.43594e-14 64.6692 1.38549
    endloop
  endfacet
  facet normal -0.0917308 -0.920233 -0.380468
    outer loop
      vertex 13.7971 62.8331 2.5
      vertex 1.43678e-14 64.707 1.2941
      vertex 13.9042 63.321 1.2941
    endloop
  endfacet
  facet normal -0.0788905 -0.791443 -0.60613
    outer loop
      vertex 13.6267 62.057 3.53553
      vertex 1.4081e-14 63.4153 3.53553
      vertex 1.42437e-14 64.148 2.57882
    endloop
  endfacet
  facet normal -0.0788487 -0.791274 -0.606356
    outer loop
      vertex 1.42571e-14 64.2084 2.5
      vertex 13.6267 62.057 3.53553
      vertex 1.42437e-14 64.148 2.57882
    endloop
  endfacet
  facet normal -0.0788906 -0.791436 -0.60614
    outer loop
      vertex 13.6267 62.057 3.53553
      vertex 1.42571e-14 64.2084 2.5
      vertex 13.7971 62.8331 2.5
    endloop
  endfacet
  facet normal -0.0606392 -0.608371 -0.791333
    outer loop
      vertex 13.4046 61.0456 4.33013
      vertex 1.38515e-14 62.3817 4.33013
      vertex 1.40635e-14 63.3363 3.59624
    endloop
  endfacet
  facet normal -0.0606416 -0.608382 -0.791324
    outer loop
      vertex 1.40635e-14 63.3363 3.59624
      vertex 13.6267 62.057 3.53553
      vertex 13.4046 61.0456 4.33013
    endloop
  endfacet
  facet normal -0.0606266 -0.608216 -0.791453
    outer loop
      vertex 13.6267 62.057 3.53553
      vertex 1.40635e-14 63.3363 3.59624
      vertex 1.4081e-14 63.4153 3.53553
    endloop
  endfacet
  facet normal -0.038177 -0.383023 -0.922949
    outer loop
      vertex 13.146 59.8678 4.82963
      vertex 1.35843e-14 61.1781 4.82963
      vertex 1.38311e-14 62.2895 4.3684
    endloop
  endfacet
  facet normal -0.0381792 -0.383034 -0.922945
    outer loop
      vertex 1.38311e-14 62.2895 4.3684
      vertex 13.4046 61.0456 4.33013
      vertex 13.146 59.8678 4.82963
    endloop
  endfacet
  facet normal -0.0381838 -0.383084 -0.922924
    outer loop
      vertex 13.4046 61.0456 4.33013
      vertex 1.38311e-14 62.2895 4.3684
      vertex 1.38515e-14 62.3817 4.33013
    endloop
  endfacet
  facet normal -0.0130343 -0.130764 -0.991328
    outer loop
      vertex 12.8684 58.6038 5
      vertex 1.32975e-14 59.8865 5
      vertex 1.35623e-14 61.079 4.8427
    endloop
  endfacet
  facet normal -0.0130327 -0.130755 -0.991329
    outer loop
      vertex 1.35623e-14 61.079 4.8427
      vertex 13.146 59.8678 4.82963
      vertex 12.8684 58.6038 5
    endloop
  endfacet
  facet normal -0.0130316 -0.130744 -0.991331
    outer loop
      vertex 13.146 59.8678 4.82963
      vertex 1.35623e-14 61.079 4.8427
      vertex 1.35843e-14 61.1781 4.82963
    endloop
  endfacet
  facet normal 0.0130331 0.130756 -0.991329
    outer loop
      vertex 12.5909 57.3398 4.82963
      vertex 1.30107e-14 58.5948 4.82963
      vertex 1.32754e-14 59.7873 4.98692
    endloop
  endfacet
  facet normal 0.0130332 0.130756 -0.991329
    outer loop
      vertex 1.32754e-14 59.7873 4.98692
      vertex 12.8684 58.6038 5
      vertex 12.5909 57.3398 4.82963
    endloop
  endfacet
  facet normal 0.0130292 0.130712 -0.991335
    outer loop
      vertex 12.8684 58.6038 5
      vertex 1.32754e-14 59.7873 4.98692
      vertex 1.32975e-14 59.8865 5
    endloop
  endfacet
  facet normal 0.03818 0.383017 -0.922952
    outer loop
      vertex 12.3322 56.1619 4.33013
      vertex 1.27434e-14 57.3912 4.33013
      vertex 1.29902e-14 58.5025 4.79131
    endloop
  endfacet
  facet normal 0.0381773 0.383004 -0.922957
    outer loop
      vertex 1.29902e-14 58.5025 4.79131
      vertex 12.5909 57.3398 4.82963
      vertex 12.3322 56.1619 4.33013
    endloop
  endfacet
  facet normal 0.0381911 0.383156 -0.922894
    outer loop
      vertex 12.5909 57.3398 4.82963
      vertex 1.29902e-14 58.5025 4.79131
      vertex 1.30107e-14 58.5948 4.82963
    endloop
  endfacet
  facet normal 0.0606395 0.608359 -0.791342
    outer loop
      vertex 12.1101 55.1505 3.53553
      vertex 1.25139e-14 56.3576 3.53553
      vertex 1.27258e-14 57.3121 4.26932
    endloop
  endfacet
  facet normal 0.0606446 0.608382 -0.791324
    outer loop
      vertex 1.27258e-14 57.3121 4.26932
      vertex 12.3322 56.1619 4.33013
      vertex 12.1101 55.1505 3.53553
    endloop
  endfacet
  facet normal 0.0606428 0.608361 -0.79134
    outer loop
      vertex 12.3322 56.1619 4.33013
      vertex 1.27258e-14 57.3121 4.26932
      vertex 1.27434e-14 57.3912 4.33013
    endloop
  endfacet
  facet normal 0.0788839 0.791404 -0.606182
    outer loop
      vertex 11.9397 54.3744 2.5
      vertex 1.23378e-14 55.5645 2.5
      vertex 1.25005e-14 56.2972 3.45658
    endloop
  endfacet
  facet normal 0.0788881 0.791436 -0.60614
    outer loop
      vertex 11.9397 54.3744 2.5
      vertex 1.25139e-14 56.3576 3.53553
      vertex 12.1101 55.1505 3.53553
    endloop
  endfacet
  facet normal 0.0789764 0.791749 -0.60572
    outer loop
      vertex 1.25139e-14 56.3576 3.53553
      vertex 11.9397 54.3744 2.5
      vertex 1.25005e-14 56.2972 3.45658
    endloop
  endfacet
  facet normal 0.0917322 0.920247 -0.380436
    outer loop
      vertex 11.8326 53.8865 1.2941
      vertex 1.22271e-14 55.066 1.2941
      vertex 1.23294e-14 55.5267 2.4085
    endloop
  endfacet
  facet normal 0.0917358 0.920341 -0.380206
    outer loop
      vertex 11.9397 54.3744 2.5
      vertex 1.23294e-14 55.5267 2.4085
      vertex 1.23378e-14 55.5645 2.5
    endloop
  endfacet
  facet normal 0.0917275 0.920234 -0.380468
    outer loop
      vertex 1.23294e-14 55.5267 2.4085
      vertex 11.9397 54.3744 2.5
      vertex 11.8326 53.8865 1.2941
    endloop
  endfacet
  facet normal 0.0983493 0.986672 -0.129639
    outer loop
      vertex 11.796 53.7201 0
      vertex 1.21893e-14 54.8959 0
      vertex 1.22243e-14 55.0531 1.19644
    endloop
  endfacet
  facet normal 0.0983448 0.986583 -0.130319
    outer loop
      vertex 11.8326 53.8865 1.2941
      vertex 1.22243e-14 55.0531 1.19644
      vertex 1.22271e-14 55.066 1.2941
    endloop
  endfacet
  facet normal 0.0983479 0.98667 -0.129651
    outer loop
      vertex 1.22243e-14 55.0531 1.19644
      vertex 11.8326 53.8865 1.2941
      vertex 11.796 53.7201 0
    endloop
  endfacet
  facet normal -0.324079 -0.937102 -0.129662
    outer loop
      vertex 28.1846 58.3824 1.2941
      vertex 13.9042 63.321 1.2941
      vertex 13.9408 63.4874 0
    endloop
  endfacet
  facet normal -0.324073 -0.937098 -0.12971
    outer loop
      vertex 28.1846 58.3824 1.2941
      vertex 13.9408 63.4874 0
      vertex 28.2587 58.5359 0
    endloop
  endfacet
  facet normal -0.302257 -0.874007 -0.380463
    outer loop
      vertex 27.9674 57.9326 2.5
      vertex 13.7971 62.8331 2.5
      vertex 13.9042 63.321 1.2941
    endloop
  endfacet
  facet normal -0.30226 -0.874013 -0.380448
    outer loop
      vertex 27.9674 57.9326 2.5
      vertex 13.9042 63.321 1.2941
      vertex 28.1846 58.3824 1.2941
    endloop
  endfacet
  facet normal -0.259953 -0.751679 -0.606138
    outer loop
      vertex 27.622 57.217 3.53553
      vertex 13.6267 62.057 3.53553
      vertex 13.7971 62.8331 2.5
    endloop
  endfacet
  facet normal -0.25995 -0.751672 -0.606147
    outer loop
      vertex 27.622 57.217 3.53553
      vertex 13.7971 62.8331 2.5
      vertex 27.9674 57.9326 2.5
    endloop
  endfacet
  facet normal -0.199826 -0.577818 -0.791325
    outer loop
      vertex 27.1718 56.2845 4.33013
      vertex 13.4046 61.0456 4.33013
      vertex 13.6267 62.057 3.53553
    endloop
  endfacet
  facet normal -0.199829 -0.577824 -0.791321
    outer loop
      vertex 27.1718 56.2845 4.33013
      vertex 13.6267 62.057 3.53553
      vertex 27.622 57.217 3.53553
    endloop
  endfacet
  facet normal -0.125813 -0.363793 -0.922944
    outer loop
      vertex 26.6475 55.1985 4.82963
      vertex 13.146 59.8678 4.82963
      vertex 13.4046 61.0456 4.33013
    endloop
  endfacet
  facet normal -0.125803 -0.363772 -0.922954
    outer loop
      vertex 26.6475 55.1985 4.82963
      vertex 13.4046 61.0456 4.33013
      vertex 27.1718 56.2845 4.33013
    endloop
  endfacet
  facet normal -0.0429474 -0.124186 -0.991329
    outer loop
      vertex 26.0849 54.0331 5
      vertex 12.8684 58.6038 5
      vertex 13.146 59.8678 4.82963
    endloop
  endfacet
  facet normal -0.0429489 -0.124189 -0.991329
    outer loop
      vertex 26.0849 54.0331 5
      vertex 13.146 59.8678 4.82963
      vertex 26.6475 55.1985 4.82963
    endloop
  endfacet
  facet normal 0.0429485 0.124189 -0.991329
    outer loop
      vertex 25.5223 52.8677 4.82963
      vertex 12.5909 57.3398 4.82963
      vertex 12.8684 58.6038 5
    endloop
  endfacet
  facet normal 0.0429486 0.124189 -0.991329
    outer loop
      vertex 25.5223 52.8677 4.82963
      vertex 12.8684 58.6038 5
      vertex 26.0849 54.0331 5
    endloop
  endfacet
  facet normal 0.125799 0.363761 -0.922959
    outer loop
      vertex 24.998 51.7817 4.33013
      vertex 12.3322 56.1619 4.33013
      vertex 12.5909 57.3398 4.82963
    endloop
  endfacet
  facet normal 0.125804 0.363772 -0.922954
    outer loop
      vertex 24.998 51.7817 4.33013
      vertex 12.5909 57.3398 4.82963
      vertex 25.5223 52.8677 4.82963
    endloop
  endfacet
  facet normal 0.199826 0.577819 -0.791325
    outer loop
      vertex 24.5478 50.8492 3.53553
      vertex 12.1101 55.1505 3.53553
      vertex 12.3322 56.1619 4.33013
    endloop
  endfacet
  facet normal 0.199828 0.577824 -0.791321
    outer loop
      vertex 24.5478 50.8492 3.53553
      vertex 12.3322 56.1619 4.33013
      vertex 24.998 51.7817 4.33013
    endloop
  endfacet
  facet normal 0.259953 0.751679 -0.606138
    outer loop
      vertex 24.2024 50.1336 2.5
      vertex 11.9397 54.3744 2.5
      vertex 12.1101 55.1505 3.53553
    endloop
  endfacet
  facet normal 0.259949 0.751673 -0.606147
    outer loop
      vertex 24.2024 50.1336 2.5
      vertex 12.1101 55.1505 3.53553
      vertex 24.5478 50.8492 3.53553
    endloop
  endfacet
  facet normal 0.302256 0.874008 -0.380463
    outer loop
      vertex 23.9852 49.6838 1.2941
      vertex 11.8326 53.8865 1.2941
      vertex 11.9397 54.3744 2.5
    endloop
  endfacet
  facet normal 0.302259 0.874013 -0.380448
    outer loop
      vertex 23.9852 49.6838 1.2941
      vertex 11.9397 54.3744 2.5
      vertex 24.2024 50.1336 2.5
    endloop
  endfacet
  facet normal 0.324078 0.937103 -0.129662
    outer loop
      vertex 23.9112 49.5303 0
      vertex 11.796 53.7201 0
      vertex 11.8326 53.8865 1.2941
    endloop
  endfacet
  facet normal 0.324075 0.9371 -0.129686
    outer loop
      vertex 23.9112 49.5303 0
      vertex 11.8326 53.8865 1.2941
      vertex 23.9852 49.6838 1.2941
    endloop
  endfacet
  facet normal -0.532199 -0.836624 -0.12971
    outer loop
      vertex 40.9338 50.2723 1.2941
      vertex 28.1846 58.3824 1.2941
      vertex 28.2587 58.5359 0
    endloop
  endfacet
  facet normal -0.532207 -0.836628 -0.129653
    outer loop
      vertex 40.9338 50.2723 1.2941
      vertex 28.2587 58.5359 0
      vertex 41.0414 50.4044 0
    endloop
  endfacet
  facet normal -0.496373 -0.7803 -0.380455
    outer loop
      vertex 40.6184 49.8849 2.5
      vertex 27.9674 57.9326 2.5
      vertex 28.1846 58.3824 1.2941
    endloop
  endfacet
  facet normal -0.496362 -0.780288 -0.380493
    outer loop
      vertex 40.6184 49.8849 2.5
      vertex 28.1846 58.3824 1.2941
      vertex 40.9338 50.2723 1.2941
    endloop
  endfacet
  facet normal -0.426894 -0.671084 -0.606141
    outer loop
      vertex 40.1167 49.2688 3.53553
      vertex 27.622 57.217 3.53553
      vertex 27.9674 57.9326 2.5
    endloop
  endfacet
  facet normal -0.426909 -0.671102 -0.606111
    outer loop
      vertex 40.1167 49.2688 3.53553
      vertex 27.9674 57.9326 2.5
      vertex 40.6184 49.8849 2.5
    endloop
  endfacet
  facet normal -0.328161 -0.515867 -0.791322
    outer loop
      vertex 39.4629 48.4657 4.33013
      vertex 27.1718 56.2845 4.33013
      vertex 27.622 57.217 3.53553
    endloop
  endfacet
  facet normal -0.328138 -0.515839 -0.79135
    outer loop
      vertex 39.4629 48.4657 4.33013
      vertex 27.622 57.217 3.53553
      vertex 40.1167 49.2688 3.53553
    endloop
  endfacet
  facet normal -0.206594 -0.324768 -0.922954
    outer loop
      vertex 38.7015 47.5306 4.82963
      vertex 26.6475 55.1985 4.82963
      vertex 27.1718 56.2845 4.33013
    endloop
  endfacet
  facet normal -0.206605 -0.324781 -0.922947
    outer loop
      vertex 38.7015 47.5306 4.82963
      vertex 27.1718 56.2845 4.33013
      vertex 39.4629 48.4657 4.33013
    endloop
  endfacet
  facet normal -0.0705301 -0.110874 -0.991329
    outer loop
      vertex 37.8844 46.5271 5
      vertex 26.0849 54.0331 5
      vertex 26.6475 55.1985 4.82963
    endloop
  endfacet
  facet normal -0.0705303 -0.110874 -0.991329
    outer loop
      vertex 37.8844 46.5271 5
      vertex 26.6475 55.1985 4.82963
      vertex 38.7015 47.5306 4.82963
    endloop
  endfacet
  facet normal 0.07053 0.110874 -0.991329
    outer loop
      vertex 37.0673 45.5236 4.82963
      vertex 25.5223 52.8677 4.82963
      vertex 26.0849 54.0331 5
    endloop
  endfacet
  facet normal 0.0705303 0.110874 -0.991329
    outer loop
      vertex 37.0673 45.5236 4.82963
      vertex 26.0849 54.0331 5
      vertex 37.8844 46.5271 5
    endloop
  endfacet
  facet normal 0.206593 0.324769 -0.922954
    outer loop
      vertex 36.3059 44.5885 4.33013
      vertex 24.998 51.7817 4.33013
      vertex 25.5223 52.8677 4.82963
    endloop
  endfacet
  facet normal 0.206603 0.324783 -0.922947
    outer loop
      vertex 36.3059 44.5885 4.33013
      vertex 25.5223 52.8677 4.82963
      vertex 37.0673 45.5236 4.82963
    endloop
  endfacet
  facet normal 0.328159 0.515869 -0.791322
    outer loop
      vertex 35.652 43.7855 3.53553
      vertex 24.5478 50.8492 3.53553
      vertex 24.998 51.7817 4.33013
    endloop
  endfacet
  facet normal 0.328143 0.51585 -0.791341
    outer loop
      vertex 35.652 43.7855 3.53553
      vertex 24.998 51.7817 4.33013
      vertex 36.3059 44.5885 4.33013
    endloop
  endfacet
  facet normal 0.426897 0.671083 -0.606141
    outer loop
      vertex 35.1503 43.1693 2.5
      vertex 24.2024 50.1336 2.5
      vertex 24.5478 50.8492 3.53553
    endloop
  endfacet
  facet normal 0.426891 0.671077 -0.606152
    outer loop
      vertex 35.1503 43.1693 2.5
      vertex 24.5478 50.8492 3.53553
      vertex 35.652 43.7855 3.53553
    endloop
  endfacet
  facet normal 0.496371 0.780301 -0.380455
    outer loop
      vertex 34.8349 42.782 1.2941
      vertex 23.9852 49.6838 1.2941
      vertex 24.2024 50.1336 2.5
    endloop
  endfacet
  facet normal 0.496377 0.780306 -0.380438
    outer loop
      vertex 34.8349 42.782 1.2941
      vertex 24.2024 50.1336 2.5
      vertex 35.1503 43.1693 2.5
    endloop
  endfacet
  facet normal 0.532201 0.836629 -0.12967
    outer loop
      vertex 34.7273 42.6499 0
      vertex 23.9112 49.5303 0
      vertex 23.9852 49.6838 1.2941
    endloop
  endfacet
  facet normal 0.532204 0.83663 -0.129653
    outer loop
      vertex 34.7273 42.6499 0
      vertex 23.9852 49.6838 1.2941
      vertex 34.8349 42.782 1.2941
    endloop
  endfacet
  facet normal -0.71142 -0.690703 -0.129658
    outer loop
      vertex 50.6773 40.2548 1.19695
      vertex 40.9338 50.2723 1.2941
      vertex 41.0414 50.4044 0
    endloop
  endfacet
  facet normal -0.711442 -0.690728 -0.1294
    outer loop
      vertex 40.9338 50.2723 1.2941
      vertex 50.6773 40.2548 1.19695
      vertex 50.6673 40.2469 1.2941
    endloop
  endfacet
  facet normal -0.711415 -0.690706 -0.129664
    outer loop
      vertex 50.7027 40.275 0.95049
      vertex 41.0414 50.4044 0
      vertex 50.8005 40.3527 0
    endloop
  endfacet
  facet normal -0.711378 -0.690696 -0.129924
    outer loop
      vertex 41.0414 50.4044 0
      vertex 50.7027 40.275 0.95049
      vertex 50.6773 40.2548 1.19695
    endloop
  endfacet
  facet normal -0.663507 -0.644195 -0.380489
    outer loop
      vertex 50.3061 39.96 2.4099
      vertex 40.6184 49.8849 2.5
      vertex 40.9338 50.2723 1.2941
    endloop
  endfacet
  facet normal -0.663403 -0.644091 -0.380846
    outer loop
      vertex 40.6184 49.8849 2.5
      vertex 50.3061 39.96 2.4099
      vertex 50.2769 39.9368 2.5
    endloop
  endfacet
  facet normal -0.663523 -0.644203 -0.380447
    outer loop
      vertex 50.4669 40.0877 1.91318
      vertex 40.9338 50.2723 1.2941
      vertex 50.6673 40.2469 1.2941
    endloop
  endfacet
  facet normal -0.663532 -0.64421 -0.380419
    outer loop
      vertex 40.9338 50.2723 1.2941
      vertex 50.4669 40.0877 1.91318
      vertex 50.3061 39.96 2.4099
    endloop
  endfacet
  facet normal -0.570623 -0.554007 -0.60619
    outer loop
      vertex 40.1167 49.2688 3.53553
      vertex 49.7021 39.4802 3.4585
      vertex 49.6559 39.4435 3.53553
    endloop
  endfacet
  facet normal -0.570663 -0.554047 -0.606115
    outer loop
      vertex 49.7021 39.4802 3.4585
      vertex 40.1167 49.2688 3.53553
      vertex 40.6184 49.8849 2.5
    endloop
  endfacet
  facet normal -0.570631 -0.554024 -0.606166
    outer loop
      vertex 40.6184 49.8849 2.5
      vertex 49.8831 39.624 3.15668
      vertex 49.7021 39.4802 3.4585
    endloop
  endfacet
  facet normal -0.570657 -0.554044 -0.606124
    outer loop
      vertex 49.8831 39.624 3.15668
      vertex 40.6184 49.8849 2.5
      vertex 50.2769 39.9368 2.5
    endloop
  endfacet
  facet normal -0.438464 -0.425698 -0.791537
    outer loop
      vertex 39.4629 48.4657 4.33013
      vertex 48.9066 38.8483 4.27124
      vertex 48.8466 38.8006 4.33013
    endloop
  endfacet
  facet normal -0.438641 -0.425873 -0.791344
    outer loop
      vertex 48.9066 38.8483 4.27124
      vertex 39.4629 48.4657 4.33013
      vertex 40.1167 49.2688 3.53553
    endloop
  endfacet
  facet normal -0.438665 -0.425892 -0.791321
    outer loop
      vertex 48.9066 38.8483 4.27124
      vertex 40.1167 49.2688 3.53553
      vertex 49.6559 39.4435 3.53553
    endloop
  endfacet
  facet normal -0.276162 -0.26812 -0.922955
    outer loop
      vertex 38.7015 47.5306 4.82963
      vertex 47.9738 38.1073 4.79271
      vertex 47.9041 38.052 4.82963
    endloop
  endfacet
  facet normal -0.276175 -0.268134 -0.922947
    outer loop
      vertex 47.9738 38.1073 4.79271
      vertex 38.7015 47.5306 4.82963
      vertex 39.4629 48.4657 4.33013
    endloop
  endfacet
  facet normal -0.276173 -0.268133 -0.922948
    outer loop
      vertex 48.4961 38.5222 4.51589
      vertex 39.4629 48.4657 4.33013
      vertex 48.8466 38.8006 4.33013
    endloop
  endfacet
  facet normal -0.27617 -0.26813 -0.92295
    outer loop
      vertex 39.4629 48.4657 4.33013
      vertex 48.4961 38.5222 4.51589
      vertex 47.9738 38.1073 4.79271
    endloop
  endfacet
  facet normal -0.0942079 -0.0914644 -0.991342
    outer loop
      vertex 37.8844 46.5271 5
      vertex 46.9674 37.3079 4.98743
      vertex 46.8927 37.2486 5
    endloop
  endfacet
  facet normal -0.0942803 -0.0915358 -0.991329
    outer loop
      vertex 46.9674 37.3079 4.98743
      vertex 37.8844 46.5271 5
      vertex 38.7015 47.5306 4.82963
    endloop
  endfacet
  facet normal -0.0942851 -0.0915397 -0.991328
    outer loop
      vertex 46.9674 37.3079 4.98743
      vertex 38.7015 47.5306 4.82963
      vertex 47.9041 38.052 4.82963
    endloop
  endfacet
  facet normal 0.0942043 0.0914607 -0.991343
    outer loop
      vertex 37.0673 45.5236 4.82963
      vertex 45.9559 36.5045 4.84219
      vertex 45.8813 36.4452 4.82963
    endloop
  endfacet
  facet normal 0.0942804 0.0915357 -0.991329
    outer loop
      vertex 45.9559 36.5045 4.84219
      vertex 37.0673 45.5236 4.82963
      vertex 37.8844 46.5271 5
    endloop
  endfacet
  facet normal 0.0942855 0.0915398 -0.991328
    outer loop
      vertex 45.9559 36.5045 4.84219
      vertex 37.8844 46.5271 5
      vertex 46.8927 37.2486 5
    endloop
  endfacet
  facet normal 0.276224 0.268181 -0.922919
    outer loop
      vertex 36.3059 44.5885 4.33013
      vertex 45.0084 35.7519 4.367
      vertex 44.9389 35.6966 4.33013
    endloop
  endfacet
  facet normal 0.276176 0.268134 -0.922947
    outer loop
      vertex 45.0084 35.7519 4.367
      vertex 36.3059 44.5885 4.33013
      vertex 37.0673 45.5236 4.82963
    endloop
  endfacet
  facet normal 0.276183 0.268139 -0.922943
    outer loop
      vertex 45.0084 35.7519 4.367
      vertex 37.0673 45.5236 4.82963
      vertex 45.8813 36.4452 4.82963
    endloop
  endfacet
  facet normal 0.438812 0.426037 -0.791162
    outer loop
      vertex 35.652 43.7855 3.53553
      vertex 44.1894 35.1013 3.59433
      vertex 44.1296 35.0537 3.53553
    endloop
  endfacet
  facet normal 0.438643 0.42587 -0.791345
    outer loop
      vertex 44.1894 35.1013 3.59433
      vertex 35.652 43.7855 3.53553
      vertex 36.3059 44.5885 4.33013
    endloop
  endfacet
  facet normal 0.438642 0.42587 -0.791345
    outer loop
      vertex 44.5421 35.3815 3.94061
      vertex 36.3059 44.5885 4.33013
      vertex 44.9389 35.6966 4.33013
    endloop
  endfacet
  facet normal 0.438631 0.425861 -0.791357
    outer loop
      vertex 36.3059 44.5885 4.33013
      vertex 44.5421 35.3815 3.94061
      vertex 44.1894 35.1013 3.59433
    endloop
  endfacet
  facet normal 0.570296 0.553688 -0.606788
    outer loop
      vertex 35.1503 43.1693 2.5
      vertex 43.5547 34.5971 2.57691
      vertex 43.5085 34.5604 2.5
    endloop
  endfacet
  facet normal 0.570641 0.554033 -0.606149
    outer loop
      vertex 43.5547 34.5971 2.57691
      vertex 35.1503 43.1693 2.5
      vertex 35.652 43.7855 3.53553
    endloop
  endfacet
  facet normal 0.570698 0.554072 -0.606059
    outer loop
      vertex 35.652 43.7855 3.53553
      vertex 43.6595 34.6804 2.75175
      vertex 43.5547 34.5971 2.57691
    endloop
  endfacet
  facet normal 0.570647 0.554034 -0.606142
    outer loop
      vertex 43.6595 34.6804 2.75175
      vertex 35.652 43.7855 3.53553
      vertex 44.1296 35.0537 3.53553
    endloop
  endfacet
  facet normal 0.663522 0.644206 -0.380443
    outer loop
      vertex 43.1473 34.2735 1.38409
      vertex 34.8349 42.782 1.2941
      vertex 35.1503 43.1693 2.5
    endloop
  endfacet
  facet normal 0.663473 0.644156 -0.380614
    outer loop
      vertex 34.8349 42.782 1.2941
      vertex 43.1473 34.2735 1.38409
      vertex 43.1182 34.2503 1.2941
    endloop
  endfacet
  facet normal 0.663537 0.644214 -0.380402
    outer loop
      vertex 43.1473 34.2735 1.38409
      vertex 35.1503 43.1693 2.5
      vertex 43.5085 34.5604 2.5
    endloop
  endfacet
  facet normal 0.711418 0.690705 -0.129658
    outer loop
      vertex 42.995 34.1525 0.0971023
      vertex 34.7273 42.6499 0
      vertex 34.8349 42.782 1.2941
    endloop
  endfacet
  facet normal 0.711435 0.690724 -0.129462
    outer loop
      vertex 34.7273 42.6499 0
      vertex 42.995 34.1525 0.0971023
      vertex 42.985 34.1446 0
    endloop
  endfacet
  facet normal 0.711445 0.690732 -0.129365
    outer loop
      vertex 43.1035 34.2387 1.15132
      vertex 34.8349 42.782 1.2941
      vertex 43.1182 34.2503 1.2941
    endloop
  endfacet
  facet normal 0.711412 0.690705 -0.129695
    outer loop
      vertex 34.8349 42.782 1.2941
      vertex 43.1035 34.2387 1.15132
      vertex 42.995 34.1525 0.0971023
    endloop
  endfacet
  facet normal 0 0 -1
    outer loop
      vertex 41.0414 50.4044 0
      vertex 51.5197 40.924 0
      vertex 51.3596 40.7968 0
    endloop
  endfacet
  facet normal 0 0 -1
    outer loop
      vertex 41.0414 50.4044 0
      vertex 51.3596 40.7968 0
      vertex 50.8005 40.3527 0
    endloop
  endfacet
  facet normal 0 0 -1
    outer loop
      vertex 51.5197 40.924 0
      vertex 41.0414 50.4044 0
      vertex 51.6798 41.0511 0
    endloop
  endfacet
  facet normal 0 0 -1
    outer loop
      vertex 51.6798 41.0511 0
      vertex 41.0414 50.4044 0
      vertex 41.2246 51.5415 0
    endloop
  endfacet
  facet normal 0 0 -1
    outer loop
      vertex 28.2587 58.5359 0
      vertex 41.2246 51.5415 0
      vertex 41.0414 50.4044 0
    endloop
  endfacet
  facet normal 0 0 -1
    outer loop
      vertex 41.2246 51.5415 0
      vertex 28.2587 58.5359 0
      vertex 28.6934 59.4364 0
    endloop
  endfacet
  facet normal 0 0 -1
    outer loop
      vertex 28.2587 58.5359 0
      vertex 14.7173 64.3382 0
      vertex 28.6934 59.4364 0
    endloop
  endfacet
  facet normal 0 0 -1
    outer loop
      vertex 13.9408 63.4874 0
      vertex 14.7173 64.3382 0
      vertex 28.2587 58.5359 0
    endloop
  endfacet
  facet normal 0 0 -1
    outer loop
      vertex 13.9408 63.4874 0
      vertex 1.46549e-14 66 0
      vertex 14.7173 64.3382 0
    endloop
  endfacet
  facet normal 0 -0 -1
    outer loop
      vertex 1.46549e-14 66 0
      vertex 13.9408 63.4874 0
      vertex 1.44056e-14 64.877 0
    endloop
  endfacet
  facet normal 0 0 -1
    outer loop
      vertex 42.2835 33.5873 0
      vertex 34.7273 42.6499 0
      vertex 42.985 34.1446 0
    endloop
  endfacet
  facet normal 0 0 -1
    outer loop
      vertex 33.7292 42.1703 0
      vertex 34.7273 42.6499 0
      vertex 42.2835 33.5873 0
    endloop
  endfacet
  facet normal 0 0 -1
    outer loop
      vertex 33.7292 42.1703 0
      vertex 23.9112 49.5303 0
      vertex 34.7273 42.6499 0
    endloop
  endfacet
  facet normal 0 0 -1
    outer loop
      vertex 23.4764 48.6298 0
      vertex 23.9112 49.5303 0
      vertex 33.7292 42.1703 0
    endloop
  endfacet
  facet normal 0 0 -1
    outer loop
      vertex 12.0414 52.6403 0
      vertex 23.9112 49.5303 0
      vertex 23.4764 48.6298 0
    endloop
  endfacet
  facet normal 0 0 -1
    outer loop
      vertex 12.0414 52.6403 0
      vertex 11.796 53.7201 0
      vertex 23.9112 49.5303 0
    endloop
  endfacet
  facet normal 0 0 -1
    outer loop
      vertex 1.19904e-14 54 0
      vertex 11.796 53.7201 0
      vertex 12.0414 52.6403 0
    endloop
  endfacet
  facet normal 0 0 -1
    outer loop
      vertex 11.796 53.7201 0
      vertex 1.19904e-14 54 0
      vertex 1.21893e-14 54.8959 0
    endloop
  endfacet
endsolid OpenSCAD_Model
