solid OpenSCAD_Model
  facet normal -1 2.22059e-16 -7.86628e-22
    outer loop
      vertex 7.09061e-15 31.9333 0.112207
      vertex 7.28209e-15 32.7956 1.55291
      vertex 7.32748e-15 33 0
    endloop
  endfacet
  facet normal -1 2.22044e-16 -1.42212e-19
    outer loop
      vertex 7.09061e-15 31.9333 0.112207
      vertex 7.32748e-15 33 0
      vertex 7.09389e-15 31.948 0
    endloop
  endfacet
  facet normal -1 2.22037e-16 1.22805e-20
    outer loop
      vertex 7.28209e-15 32.7956 1.55291
      vertex 7.09061e-15 31.9333 0.112207
      vertex 7.05612e-15 31.7779 1.2941
    endloop
  endfacet
  facet normal -1 2.2206e-16 -7.7675e-20
    outer loop
      vertex 7.04643e-15 31.7343 1.39966
      vertex 7.28209e-15 32.7956 1.55291
      vertex 7.05612e-15 31.7779 1.2941
    endloop
  endfacet
  facet normal -1 2.22049e-16 -2.71925e-21
    outer loop
      vertex 7.28209e-15 32.7956 1.55291
      vertex 7.04643e-15 31.7343 1.39966
      vertex 7.14899e-15 32.1962 3
    endloop
  endfacet
  facet normal -1 2.22026e-16 3.78469e-21
    outer loop
      vertex 6.94539e-15 31.2792 2.5
      vertex 7.14899e-15 32.1962 3
      vertex 7.04643e-15 31.7343 1.39966
    endloop
  endfacet
  facet normal -1 2.22104e-16 -1.38966e-19
    outer loop
      vertex 6.92983e-15 31.2092 2.59147
      vertex 7.14899e-15 32.1962 3
      vertex 6.94539e-15 31.2792 2.5
    endloop
  endfacet
  facet normal -1 2.22046e-16 8.78703e-22
    outer loop
      vertex 7.14899e-15 32.1962 3
      vertex 6.92983e-15 31.2092 2.59147
      vertex 6.93727e-15 31.2427 4.24264
    endloop
  endfacet
  facet normal -1 2.22026e-16 1.29454e-21
    outer loop
      vertex 6.76924e-15 30.4859 3.53553
      vertex 6.93727e-15 31.2427 4.24264
      vertex 6.92983e-15 31.2092 2.59147
    endloop
  endfacet
  facet normal -1 2.22108e-16 -8.62693e-20
    outer loop
      vertex 6.7488e-15 30.3939 3.60629
      vertex 6.93727e-15 31.2427 4.24264
      vertex 6.76924e-15 30.4859 3.53553
    endloop
  endfacet
  facet normal -1 2.22038e-16 6.73257e-21
    outer loop
      vertex 6.7488e-15 30.3939 3.60629
      vertex 6.66135e-15 30 5.19615
      vertex 6.93727e-15 31.2427 4.24264
    endloop
  endfacet
  facet normal -1 2.2205e-16 9.86463e-21
    outer loop
      vertex 6.53968e-15 29.4521 4.33013
      vertex 6.66135e-15 30 5.19615
      vertex 6.7488e-15 30.3939 3.60629
    endloop
  endfacet
  facet normal -1 2.22059e-16 4.31455e-21
    outer loop
      vertex 6.51572e-15 29.3442 4.3749
      vertex 6.66135e-15 30 5.19615
      vertex 6.53968e-15 29.4521 4.33013
    endloop
  endfacet
  facet normal -1 2.22061e-16 3.1326e-21
    outer loop
      vertex 6.51572e-15 29.3442 4.3749
      vertex 6.34003e-15 28.553 5.79555
      vertex 6.66135e-15 30 5.19615
    endloop
  endfacet
  facet normal -1 2.22026e-16 -1.62562e-20
    outer loop
      vertex 6.27235e-15 28.2481 4.82963
      vertex 6.34003e-15 28.553 5.79555
      vertex 6.51572e-15 29.3442 4.3749
    endloop
  endfacet
  facet normal -1 2.22093e-16 -3.74572e-20
    outer loop
      vertex 6.24652e-15 28.1318 4.84497
      vertex 6.34003e-15 28.553 5.79555
      vertex 6.27235e-15 28.2481 4.82963
    endloop
  endfacet
  facet normal -1 2.22033e-16 -1.09795e-20
    outer loop
      vertex 6.24652e-15 28.1318 4.84497
      vertex 5.99521e-15 27 6
      vertex 6.34003e-15 28.553 5.79555
    endloop
  endfacet
  facet normal -1 2.22059e-16 1.38313e-20
    outer loop
      vertex 5.98547e-15 26.9562 5
      vertex 5.99521e-15 27 6
      vertex 6.24652e-15 28.1318 4.84497
    endloop
  endfacet
  facet normal -1 2.22039e-16 1.46817e-20
    outer loop
      vertex 5.95958e-15 26.8396 4.98463
      vertex 5.99521e-15 27 6
      vertex 5.98547e-15 26.9562 5
    endloop
  endfacet
  facet normal -1 2.22041e-16 1.57426e-20
    outer loop
      vertex 5.6504e-15 25.4471 5.79555
      vertex 5.95958e-15 26.8396 4.98463
      vertex 5.69859e-15 25.6642 4.82963
    endloop
  endfacet
  facet normal -1 2.2192e-16 -1.15457e-20
    outer loop
      vertex 5.6504e-15 25.4471 5.79555
      vertex 5.69859e-15 25.6642 4.82963
      vertex 5.67449e-15 25.5556 4.7846
    endloop
  endfacet
  facet normal -1 2.22041e-16 1.44452e-20
    outer loop
      vertex 5.95958e-15 26.8396 4.98463
      vertex 5.6504e-15 25.4471 5.79555
      vertex 5.99521e-15 27 6
    endloop
  endfacet
  facet normal -1 2.22044e-16 5.59171e-21
    outer loop
      vertex 5.32908e-15 24 5.19615
      vertex 5.67449e-15 25.5556 4.7846
      vertex 5.43126e-15 24.4602 4.33013
    endloop
  endfacet
  facet normal -1 2.21998e-16 -1.92953e-20
    outer loop
      vertex 5.32908e-15 24 5.19615
      vertex 5.43126e-15 24.4602 4.33013
      vertex 5.41066e-15 24.3674 4.25881
    endloop
  endfacet
  facet normal -1 2.22043e-16 1.68916e-21
    outer loop
      vertex 5.67449e-15 25.5556 4.7846
      vertex 5.32908e-15 24 5.19615
      vertex 5.6504e-15 25.4471 5.79555
    endloop
  endfacet
  facet normal -1 2.2205e-16 1.57492e-20
    outer loop
      vertex 5.05316e-15 22.7574 4.24264
      vertex 5.41066e-15 24.3674 4.25881
      vertex 5.2017e-15 23.4264 3.53553
    endloop
  endfacet
  facet normal -1 2.21984e-16 -4.62774e-20
    outer loop
      vertex 5.05316e-15 22.7574 4.24264
      vertex 5.2017e-15 23.4264 3.53553
      vertex 5.18601e-15 23.3557 3.44333
    endloop
  endfacet
  facet normal -1 2.2205e-16 1.12207e-21
    outer loop
      vertex 5.41066e-15 24.3674 4.25881
      vertex 5.05316e-15 22.7574 4.24264
      vertex 5.32908e-15 24 5.19615
    endloop
  endfacet
  facet normal -1 2.22041e-16 1.3595e-20
    outer loop
      vertex 4.84144e-15 21.8039 3
      vertex 5.18601e-15 23.3557 3.44333
      vertex 5.02555e-15 22.6331 2.5
    endloop
  endfacet
  facet normal -1 2.22046e-16 2.06449e-20
    outer loop
      vertex 4.84144e-15 21.8039 3
      vertex 5.02555e-15 22.6331 2.5
      vertex 5.0158e-15 22.5892 2.39381
    endloop
  endfacet
  facet normal -1 2.22044e-16 -5.08801e-21
    outer loop
      vertex 4.70834e-15 21.2045 1.55291
      vertex 5.0158e-15 22.5892 2.39381
      vertex 4.91482e-15 22.1344 1.2941
    endloop
  endfacet
  facet normal -1 2.22026e-16 7.87832e-21
    outer loop
      vertex 4.66295e-15 21 0
      vertex 4.91154e-15 22.1196 1.18164
      vertex 4.87705e-15 21.9643 0
    endloop
  endfacet
  facet normal -1 2.22045e-16 -2.65008e-22
    outer loop
      vertex 5.18601e-15 23.3557 3.44333
      vertex 4.84144e-15 21.8039 3
      vertex 5.05316e-15 22.7574 4.24264
    endloop
  endfacet
  facet normal -1 2.2203e-16 -5.37973e-20
    outer loop
      vertex 4.91154e-15 22.1196 1.18164
      vertex 4.70834e-15 21.2045 1.55291
      vertex 4.91482e-15 22.1344 1.2941
    endloop
  endfacet
  facet normal -1 2.22036e-16 8.032e-21
    outer loop
      vertex 5.0158e-15 22.5892 2.39381
      vertex 4.70834e-15 21.2045 1.55291
      vertex 4.84144e-15 21.8039 3
    endloop
  endfacet
  facet normal -1 2.22047e-16 -1.20315e-20
    outer loop
      vertex 4.91154e-15 22.1196 1.18164
      vertex 4.66295e-15 21 0
      vertex 4.70834e-15 21.2045 1.55291
    endloop
  endfacet
  facet normal 0.711912 -0.702269 -5.86428e-05
    outer loop
      vertex 23.1714 23.4966 0
      vertex 23.0279 23.351 1.55291
      vertex 22.607 22.9242 3
    endloop
  endfacet
  facet normal 0.711969 -0.702211 -5.43877e-05
    outer loop
      vertex 22.607 22.9242 3
      vertex 21.9375 22.2453 4.24264
      vertex 21.0649 21.3605 5.19615
    endloop
  endfacet
  facet normal 0.711988 -0.702191 -2.68269e-05
    outer loop
      vertex 22.607 22.9242 3
      vertex 21.0649 21.3605 5.19615
      vertex 20.0488 20.3302 5.79555
    endloop
  endfacet
  facet normal 0.712019 -0.702161 2.89568e-05
    outer loop
      vertex 22.607 22.9242 3
      vertex 20.0488 20.3302 5.79555
      vertex 18.9584 19.2245 6
    endloop
  endfacet
  facet normal 0.711896 -0.702285 -0.000368493
    outer loop
      vertex 22.607 22.9242 3
      vertex 20.7409 21.0319 4.2637
      vertex 21.0635 21.3591 3.91049
    endloop
  endfacet
  facet normal 0.712501 -0.70167 0.00144704
    outer loop
      vertex 22.607 22.9242 3
      vertex 20.6802 20.9704 4.33013
      vertex 20.7409 21.0319 4.2637
    endloop
  endfacet
  facet normal 0.71206 -0.702118 0.000118393
    outer loop
      vertex 18.9584 19.2245 6
      vertex 19.905 20.1843 4.78815
      vertex 20.6802 20.9704 4.33013
    endloop
  endfacet
  facet normal 0.712023 -0.702156 3.99204e-05
    outer loop
      vertex 18.9584 19.2245 6
      vertex 20.6802 20.9704 4.33013
      vertex 22.607 22.9242 3
    endloop
  endfacet
  facet normal 0.712179 -0.701998 0.00030589
    outer loop
      vertex 19.905 20.1843 4.78815
      vertex 18.9584 19.2245 6
      vertex 19.8348 20.1131 4.82963
    endloop
  endfacet
  facet normal 0.711955 -0.702225 -3.34642e-05
    outer loop
      vertex 18.9584 19.2245 6
      vertex 19.3516 19.6232 4.92037
      vertex 19.8348 20.1131 4.82963
    endloop
  endfacet
  facet normal 0.712015 -0.702164 1.04742e-05
    outer loop
      vertex 19.3516 19.6232 4.92037
      vertex 18.9584 19.2245 6
      vertex 17.868 18.1188 5.79555
    endloop
  endfacet
  facet normal 0.712021 -0.702159 3.35107e-05
    outer loop
      vertex 17.868 18.1188 5.79555
      vertex 16.8519 17.0884 5.19615
      vertex 15.9794 16.2036 4.24264
    endloop
  endfacet
  facet normal 0.712012 -0.702167 0.000125508
    outer loop
      vertex 22.607 22.9242 3
      vertex 21.453 21.7541 3.44826
      vertex 21.5918 21.8948 3.19034
    endloop
  endfacet
  facet normal 0.711899 -0.702282 -0.000464538
    outer loop
      vertex 22.607 22.9242 3
      vertex 21.4061 21.7065 3.53553
      vertex 21.453 21.7541 3.44826
    endloop
  endfacet
  facet normal 0.711996 -0.702183 -2.27379e-05
    outer loop
      vertex 21.4061 21.7065 3.53553
      vertex 22.607 22.9242 3
      vertex 21.0635 21.3591 3.91049
    endloop
  endfacet
  facet normal 0.712022 -0.702157 3.52111e-05
    outer loop
      vertex 17.868 18.1188 5.79555
      vertex 19.0026 19.2693 4.98592
      vertex 19.3516 19.6232 4.92037
    endloop
  endfacet
  facet normal 0.712019 -0.702161 6.72495e-05
    outer loop
      vertex 17.868 18.1188 5.79555
      vertex 18.0953 18.3492 4.84368
      vertex 18.9276 19.1932 5
    endloop
  endfacet
  facet normal 0.712316 -0.701858 0.000871459
    outer loop
      vertex 19.0026 19.2693 4.98592
      vertex 17.868 18.1188 5.79555
      vertex 18.9276 19.1932 5
    endloop
  endfacet
  facet normal 0.711784 -0.702398 -4.61107e-05
    outer loop
      vertex 18.0953 18.3492 4.84368
      vertex 17.868 18.1188 5.79555
      vertex 18.0204 18.2733 4.82963
    endloop
  endfacet
  facet normal 0.712016 -0.702163 2.7961e-05
    outer loop
      vertex 17.868 18.1188 5.79555
      vertex 17.2449 17.4869 4.37137
      vertex 18.0204 18.2733 4.82963
    endloop
  endfacet
  facet normal 0.712143 -0.702035 -8.43839e-05
    outer loop
      vertex 17.868 18.1188 5.79555
      vertex 17.1751 17.4161 4.33013
      vertex 17.2449 17.4869 4.37137
    endloop
  endfacet
  facet normal 0.712021 -0.702158 3.202e-05
    outer loop
      vertex 15.9794 16.2036 4.24264
      vertex 17.1751 17.4161 4.33013
      vertex 17.868 18.1188 5.79555
    endloop
  endfacet
  facet normal 0.712024 -0.702155 -4.42254e-05
    outer loop
      vertex 17.1751 17.4161 4.33013
      vertex 15.9794 16.2036 4.24264
      vertex 16.932 17.1696 4.06404
    endloop
  endfacet
  facet normal 0.71203 -0.702149 -8.5819e-05
    outer loop
      vertex 22.607 22.9242 3
      vertex 21.9631 22.2713 2.5
      vertex 21.97 22.2783 2.47626
    endloop
  endfacet
  facet normal 0.712 -0.70218 -7.33201e-06
    outer loop
      vertex 21.9631 22.2713 2.5
      vertex 22.607 22.9242 3
      vertex 21.5918 21.8948 3.19034
    endloop
  endfacet
  facet normal 0.712023 -0.702157 -5.96368e-05
    outer loop
      vertex 15.9794 16.2036 4.24264
      vertex 16.5093 16.741 3.60144
      vertex 16.932 17.1696 4.06404
    endloop
  endfacet
  facet normal 0.711901 -0.70228 -0.000263429
    outer loop
      vertex 16.5093 16.741 3.60144
      vertex 15.9794 16.2036 4.24264
      vertex 16.4491 16.68 3.53553
    endloop
  endfacet
  facet normal 0.712102 -0.702076 7.94657e-06
    outer loop
      vertex 15.9794 16.2036 4.24264
      vertex 15.9387 16.1623 2.58658
      vertex 16.4491 16.68 3.53553
    endloop
  endfacet
  facet normal 0.711584 -0.702601 3.37713e-05
    outer loop
      vertex 15.9794 16.2036 4.24264
      vertex 15.8921 16.1151 2.5
      vertex 15.9387 16.1623 2.58658
    endloop
  endfacet
  facet normal 0.712353 -0.701822 -4.42664e-05
    outer loop
      vertex 15.8921 16.1151 2.5
      vertex 15.9794 16.2036 4.24264
      vertex 15.7839 16.0053 2.1272
    endloop
  endfacet
  facet normal 0.712027 -0.702152 -8.7611e-06
    outer loop
      vertex 15.9794 16.2036 4.24264
      vertex 15.3099 15.5247 3
      vertex 14.7455 14.9524 0
    endloop
  endfacet
  facet normal 0.712024 -0.702155 -7.63619e-06
    outer loop
      vertex 15.3099 15.5247 3
      vertex 14.889 15.0979 1.55291
      vertex 14.7455 14.9524 0
    endloop
  endfacet
  facet normal 0.711963 -0.702217 2.86951e-05
    outer loop
      vertex 14.7455 14.9524 0
      vertex 15.7839 16.0053 2.1272
      vertex 15.9794 16.2036 4.24264
    endloop
  endfacet
  facet normal 0.712389 -0.701784 -0.000393298
    outer loop
      vertex 15.7839 16.0053 2.1272
      vertex 14.7455 14.9524 0
      vertex 15.5715 15.7901 1.39605
    endloop
  endfacet
  facet normal 0.712047 -0.702132 -2.49295e-05
    outer loop
      vertex 14.7455 14.9524 0
      vertex 15.4327 15.6493 0.110876
      vertex 15.5419 15.76 1.2941
    endloop
  endfacet
  facet normal 0.712016 -0.702163 0.000360141
    outer loop
      vertex 15.4327 15.6493 0.110876
      vertex 14.7455 14.9524 0
      vertex 15.4225 15.6389 0
    endloop
  endfacet
  facet normal 0.71115 -0.703039 0.00109306
    outer loop
      vertex 15.5715 15.7901 1.39605
      vertex 14.7455 14.9524 0
      vertex 15.5419 15.76 1.2941
    endloop
  endfacet
  facet normal 0.71203 -0.702149 -1.3541e-05
    outer loop
      vertex 22.3133 22.6264 1.2941
      vertex 23.1714 23.4966 0
      vertex 22.607 22.9242 3
    endloop
  endfacet
  facet normal 0.712032 -0.702147 2.22005e-05
    outer loop
      vertex 23.1714 23.4966 0
      vertex 22.3235 22.6368 1.18298
      vertex 22.4327 22.7475 0
    endloop
  endfacet
  facet normal 0.711733 -0.70245 -0.000412138
    outer loop
      vertex 23.1714 23.4966 0
      vertex 22.3133 22.6264 1.2941
      vertex 22.3235 22.6368 1.18298
    endloop
  endfacet
  facet normal 0.71201 -0.70217 -6.46019e-06
    outer loop
      vertex 22.607 22.9242 3
      vertex 21.9929 22.3015 2.39744
      vertex 22.3133 22.6264 1.2941
    endloop
  endfacet
  facet normal 0.711937 -0.702243 0.000143492
    outer loop
      vertex 21.9929 22.3015 2.39744
      vertex 22.607 22.9242 3
      vertex 21.97 22.2783 2.47626
    endloop
  endfacet
  facet normal 0.128292 0.983256 0.12942
    outer loop
      vertex 8.41453 31.6977 1.55291
      vertex 7.32748e-15 33 0
      vertex 7.28209e-15 32.7956 1.55291
    endloop
  endfacet
  facet normal 0.128286 0.983253 0.129448
    outer loop
      vertex 8.41453 31.6977 1.55291
      vertex 8.46699 31.8953 0
      vertex 7.32748e-15 33 0
    endloop
  endfacet
  facet normal 0.119675 0.917241 0.379931
    outer loop
      vertex 8.26074 31.1184 3
      vertex 7.28209e-15 32.7956 1.55291
      vertex 7.14899e-15 32.1962 3
    endloop
  endfacet
  facet normal 0.119679 0.917248 0.379912
    outer loop
      vertex 8.26074 31.1184 3
      vertex 8.41453 31.6977 1.55291
      vertex 7.28209e-15 32.7956 1.55291
    endloop
  endfacet
  facet normal 0.102963 0.78914 0.605521
    outer loop
      vertex 8.01609 30.1968 4.24264
      vertex 7.14899e-15 32.1962 3
      vertex 6.93727e-15 31.2427 4.24264
    endloop
  endfacet
  facet normal 0.10296 0.789134 0.60553
    outer loop
      vertex 8.01609 30.1968 4.24264
      vertex 8.26074 31.1184 3
      vertex 7.14899e-15 32.1962 3
    endloop
  endfacet
  facet normal 0.0791685 0.606832 0.790878
    outer loop
      vertex 7.69726 28.9958 5.19615
      vertex 6.93727e-15 31.2427 4.24264
      vertex 6.66135e-15 30 5.19615
    endloop
  endfacet
  facet normal 0.0791804 0.606862 0.790853
    outer loop
      vertex 7.69726 28.9958 5.19615
      vertex 8.01609 30.1968 4.24264
      vertex 6.93727e-15 31.2427 4.24264
    endloop
  endfacet
  facet normal 0.0498731 0.382225 0.922722
    outer loop
      vertex 7.32598 27.5971 5.79555
      vertex 6.66135e-15 30 5.19615
      vertex 6.34003e-15 28.553 5.79555
    endloop
  endfacet
  facet normal 0.0498618 0.382194 0.922736
    outer loop
      vertex 7.32598 27.5971 5.79555
      vertex 7.69726 28.9958 5.19615
      vertex 6.66135e-15 30 5.19615
    endloop
  endfacet
  facet normal 0.0170261 0.130503 0.991302
    outer loop
      vertex 6.92754 26.0962 6
      vertex 6.34003e-15 28.553 5.79555
      vertex 5.99521e-15 27 6
    endloop
  endfacet
  facet normal 0.0170294 0.130512 0.9913
    outer loop
      vertex 6.92754 26.0962 6
      vertex 7.32598 27.5971 5.79555
      vertex 6.34003e-15 28.553 5.79555
    endloop
  endfacet
  facet normal -0.0170268 -0.130512 0.991301
    outer loop
      vertex 6.5291 24.5953 5.79555
      vertex 5.99521e-15 27 6
      vertex 5.6504e-15 25.4471 5.79555
    endloop
  endfacet
  facet normal -0.0170274 -0.130513 0.9913
    outer loop
      vertex 6.5291 24.5953 5.79555
      vertex 6.92754 26.0962 6
      vertex 5.99521e-15 27 6
    endloop
  endfacet
  facet normal -0.0498654 -0.382203 0.922732
    outer loop
      vertex 6.15781 23.1966 5.19615
      vertex 5.6504e-15 25.4471 5.79555
      vertex 5.32908e-15 24 5.19615
    endloop
  endfacet
  facet normal -0.0498618 -0.382194 0.922736
    outer loop
      vertex 6.15781 23.1966 5.19615
      vertex 6.5291 24.5953 5.79555
      vertex 5.6504e-15 25.4471 5.79555
    endloop
  endfacet
  facet normal -0.0791761 -0.606862 0.790854
    outer loop
      vertex 5.83898 21.9956 4.24264
      vertex 5.32908e-15 24 5.19615
      vertex 5.05316e-15 22.7574 4.24264
    endloop
  endfacet
  facet normal -0.0791765 -0.606863 0.790853
    outer loop
      vertex 5.83898 21.9956 4.24264
      vertex 6.15781 23.1966 5.19615
      vertex 5.32908e-15 24 5.19615
    endloop
  endfacet
  facet normal -0.10296 -0.78914 0.605522
    outer loop
      vertex 5.59433 21.074 3
      vertex 5.05316e-15 22.7574 4.24264
      vertex 4.84144e-15 21.8039 3
    endloop
  endfacet
  facet normal -0.102957 -0.789135 0.605529
    outer loop
      vertex 5.59433 21.074 3
      vertex 5.83898 21.9956 4.24264
      vertex 5.05316e-15 22.7574 4.24264
    endloop
  endfacet
  facet normal -0.119668 -0.917241 0.379931
    outer loop
      vertex 5.44054 20.4947 1.55291
      vertex 4.84144e-15 21.8039 3
      vertex 4.70834e-15 21.2045 1.55291
    endloop
  endfacet
  facet normal -0.119675 -0.917249 0.379912
    outer loop
      vertex 5.44054 20.4947 1.55291
      vertex 5.59433 21.074 3
      vertex 4.84144e-15 21.8039 3
    endloop
  endfacet
  facet normal -0.128269 -0.98325 0.129483
    outer loop
      vertex 5.38809 20.2971 0
      vertex 4.70834e-15 21.2045 1.55291
      vertex 4.66295e-15 21 0
    endloop
  endfacet
  facet normal -0.12828 -0.983254 0.129447
    outer loop
      vertex 5.38809 20.2971 0
      vertex 5.44054 20.4947 1.55291
      vertex 4.70834e-15 21.2045 1.55291
    endloop
  endfacet
  facet normal 0.376264 0.917425 0.129449
    outer loop
      vertex 16.2657 28.4777 1.55291
      vertex 8.46699 31.8953 0
      vertex 8.41453 31.6977 1.55291
    endloop
  endfacet
  facet normal 0.376267 0.917426 0.129432
    outer loop
      vertex 16.2657 28.4777 1.55291
      vertex 16.3671 28.6552 0
      vertex 8.46699 31.8953 0
    endloop
  endfacet
  facet normal 0.351011 0.855837 0.379913
    outer loop
      vertex 15.9684 27.9572 3
      vertex 8.41453 31.6977 1.55291
      vertex 8.26074 31.1184 3
    endloop
  endfacet
  facet normal 0.351001 0.855828 0.379943
    outer loop
      vertex 15.9684 27.9572 3
      vertex 16.2657 28.4777 1.55291
      vertex 8.41453 31.6977 1.55291
    endloop
  endfacet
  facet normal 0.301986 0.736301 0.60553
    outer loop
      vertex 15.4955 27.1292 4.24264
      vertex 8.26074 31.1184 3
      vertex 8.01609 30.1968 4.24264
    endloop
  endfacet
  facet normal 0.301983 0.736297 0.605535
    outer loop
      vertex 15.4955 27.1292 4.24264
      vertex 15.9684 27.9572 3
      vertex 8.26074 31.1184 3
    endloop
  endfacet
  facet normal 0.232234 0.566231 0.790854
    outer loop
      vertex 14.8792 26.0502 5.19615
      vertex 8.01609 30.1968 4.24264
      vertex 7.69726 28.9958 5.19615
    endloop
  endfacet
  facet normal 0.232233 0.56623 0.790855
    outer loop
      vertex 14.8792 26.0502 5.19615
      vertex 15.4955 27.1292 4.24264
      vertex 8.01609 30.1968 4.24264
    endloop
  endfacet
  facet normal 0.146257 0.356606 0.922735
    outer loop
      vertex 14.1615 24.7936 5.79555
      vertex 7.69726 28.9958 5.19615
      vertex 7.32598 27.5971 5.79555
    endloop
  endfacet
  facet normal 0.14626 0.35661 0.922734
    outer loop
      vertex 14.1615 24.7936 5.79555
      vertex 14.8792 26.0502 5.19615
      vertex 7.69726 28.9958 5.19615
    endloop
  endfacet
  facet normal 0.0499438 0.121775 0.9913
    outer loop
      vertex 13.3913 23.4452 6
      vertex 7.32598 27.5971 5.79555
      vertex 6.92754 26.0962 6
    endloop
  endfacet
  facet normal 0.0499451 0.121777 0.9913
    outer loop
      vertex 13.3913 23.4452 6
      vertex 14.1615 24.7936 5.79555
      vertex 7.32598 27.5971 5.79555
    endloop
  endfacet
  facet normal -0.0499451 -0.121774 0.9913
    outer loop
      vertex 12.6211 22.0967 5.79555
      vertex 6.92754 26.0962 6
      vertex 6.5291 24.5953 5.79555
    endloop
  endfacet
  facet normal -0.0499417 -0.12177 0.991301
    outer loop
      vertex 12.6211 22.0967 5.79555
      vertex 13.3913 23.4452 6
      vertex 6.92754 26.0962 6
    endloop
  endfacet
  facet normal -0.146255 -0.356606 0.922736
    outer loop
      vertex 11.9033 20.8402 5.19615
      vertex 6.5291 24.5953 5.79555
      vertex 6.15781 23.1966 5.19615
    endloop
  endfacet
  facet normal -0.146266 -0.356621 0.922729
    outer loop
      vertex 11.9033 20.8402 5.19615
      vertex 12.6211 22.0967 5.79555
      vertex 6.5291 24.5953 5.79555
    endloop
  endfacet
  facet normal -0.232239 -0.56623 0.790853
    outer loop
      vertex 11.287 19.7611 4.24264
      vertex 6.15781 23.1966 5.19615
      vertex 5.83898 21.9956 4.24264
    endloop
  endfacet
  facet normal -0.232218 -0.566206 0.790877
    outer loop
      vertex 11.287 19.7611 4.24264
      vertex 11.9033 20.8402 5.19615
      vertex 6.15781 23.1966 5.19615
    endloop
  endfacet
  facet normal -0.301982 -0.736302 0.60553
    outer loop
      vertex 10.8141 18.9332 3
      vertex 5.83898 21.9956 4.24264
      vertex 5.59433 21.074 3
    endloop
  endfacet
  facet normal -0.302001 -0.73632 0.605498
    outer loop
      vertex 10.8141 18.9332 3
      vertex 11.287 19.7611 4.24264
      vertex 5.83898 21.9956 4.24264
    endloop
  endfacet
  facet normal -0.351016 -0.855835 0.379913
    outer loop
      vertex 10.5168 18.4127 1.55291
      vertex 5.59433 21.074 3
      vertex 5.44054 20.4947 1.55291
    endloop
  endfacet
  facet normal -0.351003 -0.855827 0.379943
    outer loop
      vertex 10.5168 18.4127 1.55291
      vertex 10.8141 18.9332 3
      vertex 5.59433 21.074 3
    endloop
  endfacet
  facet normal -0.376287 -0.917416 0.129446
    outer loop
      vertex 10.4154 18.2351 0
      vertex 5.44054 20.4947 1.55291
      vertex 5.38809 20.2971 0
    endloop
  endfacet
  facet normal -0.376273 -0.917415 0.12949
    outer loop
      vertex 10.4154 18.2351 0
      vertex 10.5168 18.4127 1.55291
      vertex 5.44054 20.4947 1.55291
    endloop
  endfacet
  facet normal 0.599062 0.790172 0.129435
    outer loop
      vertex 23.0279 23.351 1.55291
      vertex 16.3671 28.6552 0
      vertex 16.2657 28.4777 1.55291
    endloop
  endfacet
  facet normal 0.59906 0.790172 0.129444
    outer loop
      vertex 23.0279 23.351 1.55291
      vertex 23.1714 23.4966 0
      vertex 16.3671 28.6552 0
    endloop
  endfacet
  facet normal 0.558839 0.737117 0.379943
    outer loop
      vertex 22.607 22.9242 3
      vertex 16.2657 28.4777 1.55291
      vertex 15.9684 27.9572 3
    endloop
  endfacet
  facet normal 0.558838 0.737117 0.379946
    outer loop
      vertex 22.607 22.9242 3
      vertex 23.0279 23.351 1.55291
      vertex 16.2657 28.4777 1.55291
    endloop
  endfacet
  facet normal 0.480787 0.634172 0.605532
    outer loop
      vertex 21.9375 22.2453 4.24264
      vertex 15.9684 27.9572 3
      vertex 15.4955 27.1292 4.24264
    endloop
  endfacet
  facet normal 0.480798 0.634179 0.605516
    outer loop
      vertex 21.9375 22.2453 4.24264
      vertex 22.607 22.9242 3
      vertex 15.9684 27.9572 3
    endloop
  endfacet
  facet normal 0.369742 0.487688 0.790855
    outer loop
      vertex 21.0649 21.3605 5.19615
      vertex 15.4955 27.1292 4.24264
      vertex 14.8792 26.0502 5.19615
    endloop
  endfacet
  facet normal 0.36972 0.48767 0.790876
    outer loop
      vertex 21.0649 21.3605 5.19615
      vertex 21.9375 22.2453 4.24264
      vertex 15.4955 27.1292 4.24264
    endloop
  endfacet
  facet normal 0.232861 0.307148 0.922733
    outer loop
      vertex 20.0488 20.3302 5.79555
      vertex 14.8792 26.0502 5.19615
      vertex 14.1615 24.7936 5.79555
    endloop
  endfacet
  facet normal 0.232871 0.307156 0.922728
    outer loop
      vertex 20.0488 20.3302 5.79555
      vertex 21.0649 21.3605 5.19615
      vertex 14.8792 26.0502 5.19615
    endloop
  endfacet
  facet normal 0.0795183 0.104885 0.9913
    outer loop
      vertex 18.9584 19.2245 6
      vertex 14.1615 24.7936 5.79555
      vertex 13.3913 23.4452 6
    endloop
  endfacet
  facet normal 0.0795153 0.104882 0.991301
    outer loop
      vertex 18.9584 19.2245 6
      vertex 20.0488 20.3302 5.79555
      vertex 14.1615 24.7936 5.79555
    endloop
  endfacet
  facet normal -0.0795137 -0.10488 0.991301
    outer loop
      vertex 17.868 18.1188 5.79555
      vertex 13.3913 23.4452 6
      vertex 12.6211 22.0967 5.79555
    endloop
  endfacet
  facet normal -0.0795159 -0.104881 0.991301
    outer loop
      vertex 17.868 18.1188 5.79555
      vertex 18.9584 19.2245 6
      vertex 13.3913 23.4452 6
    endloop
  endfacet
  facet normal -0.232867 -0.307149 0.922731
    outer loop
      vertex 16.8519 17.0884 5.19615
      vertex 12.6211 22.0967 5.79555
      vertex 11.9033 20.8402 5.19615
    endloop
  endfacet
  facet normal -0.232858 -0.307143 0.922735
    outer loop
      vertex 16.8519 17.0884 5.19615
      vertex 17.868 18.1188 5.79555
      vertex 12.6211 22.0967 5.79555
    endloop
  endfacet
  facet normal -0.369723 -0.487671 0.790874
    outer loop
      vertex 15.9794 16.2036 4.24264
      vertex 11.9033 20.8402 5.19615
      vertex 11.287 19.7611 4.24264
    endloop
  endfacet
  facet normal -0.369737 -0.48768 0.790862
    outer loop
      vertex 15.9794 16.2036 4.24264
      vertex 16.8519 17.0884 5.19615
      vertex 11.9033 20.8402 5.19615
    endloop
  endfacet
  facet normal -0.48081 -0.634186 0.605499
    outer loop
      vertex 15.3099 15.5247 3
      vertex 11.287 19.7611 4.24264
      vertex 10.8141 18.9332 3
    endloop
  endfacet
  facet normal -0.480798 -0.63418 0.605516
    outer loop
      vertex 15.3099 15.5247 3
      vertex 15.9794 16.2036 4.24264
      vertex 11.287 19.7611 4.24264
    endloop
  endfacet
  facet normal -0.558845 -0.737113 0.379943
    outer loop
      vertex 14.889 15.0979 1.55291
      vertex 10.8141 18.9332 3
      vertex 10.5168 18.4127 1.55291
    endloop
  endfacet
  facet normal -0.558843 -0.737112 0.379946
    outer loop
      vertex 14.889 15.0979 1.55291
      vertex 15.3099 15.5247 3
      vertex 10.8141 18.9332 3
    endloop
  endfacet
  facet normal -0.599043 -0.790178 0.129485
    outer loop
      vertex 14.7455 14.9524 0
      vertex 10.5168 18.4127 1.55291
      vertex 10.4154 18.2351 0
    endloop
  endfacet
  facet normal -0.599071 -0.790171 0.129394
    outer loop
      vertex 14.7455 14.9524 0
      vertex 14.889 15.0979 1.55291
      vertex 10.5168 18.4127 1.55291
    endloop
  endfacet
  facet normal -0.0833909 -0.988013 -0.129908
    outer loop
      vertex 5.88252 31.2814 1.2941
      vertex 7.05612e-15 31.7779 1.2941
      vertex 7.09061e-15 31.9333 0.112207
    endloop
  endfacet
  facet normal -0.083403 -0.988073 -0.129445
    outer loop
      vertex 5.91401 31.4488 0
      vertex 7.09061e-15 31.9333 0.112207
      vertex 7.09389e-15 31.948 0
    endloop
  endfacet
  facet normal -0.0834062 -0.988021 -0.129836
    outer loop
      vertex 7.09061e-15 31.9333 0.112207
      vertex 5.91401 31.4488 0
      vertex 5.88252 31.2814 1.2941
    endloop
  endfacet
  facet normal -0.0777572 -0.921282 -0.381042
    outer loop
      vertex 5.79021 30.7905 2.5
      vertex 6.94539e-15 31.2792 2.5
      vertex 7.04643e-15 31.7343 1.39966
    endloop
  endfacet
  facet normal -0.077774 -0.921465 -0.380597
    outer loop
      vertex 5.88252 31.2814 1.2941
      vertex 7.04643e-15 31.7343 1.39966
      vertex 7.05612e-15 31.7779 1.2941
    endloop
  endfacet
  facet normal -0.0777685 -0.9213 -0.380997
    outer loop
      vertex 7.04643e-15 31.7343 1.39966
      vertex 5.88252 31.2814 1.2941
      vertex 5.79021 30.7905 2.5
    endloop
  endfacet
  facet normal -0.066847 -0.792025 -0.606817
    outer loop
      vertex 5.64336 30.0096 3.53553
      vertex 6.76924e-15 30.4859 3.53553
      vertex 6.92983e-15 31.2092 2.59147
    endloop
  endfacet
  facet normal -0.0668761 -0.792361 -0.606376
    outer loop
      vertex 5.79021 30.7905 2.5
      vertex 6.92983e-15 31.2092 2.59147
      vertex 6.94539e-15 31.2792 2.5
    endloop
  endfacet
  facet normal -0.0668604 -0.792056 -0.606776
    outer loop
      vertex 6.92983e-15 31.2092 2.59147
      vertex 5.79021 30.7905 2.5
      vertex 5.64336 30.0096 3.53553
    endloop
  endfacet
  facet normal -0.0513698 -0.608577 -0.79183
    outer loop
      vertex 5.45198 28.9919 4.33013
      vertex 6.53968e-15 29.4521 4.33013
      vertex 6.7488e-15 30.3939 3.60629
    endloop
  endfacet
  facet normal -0.0513715 -0.608582 -0.791826
    outer loop
      vertex 6.7488e-15 30.3939 3.60629
      vertex 5.64336 30.0096 3.53553
      vertex 5.45198 28.9919 4.33013
    endloop
  endfacet
  facet normal -0.0513874 -0.608855 -0.791615
    outer loop
      vertex 5.64336 30.0096 3.53553
      vertex 6.7488e-15 30.3939 3.60629
      vertex 6.76924e-15 30.4859 3.53553
    endloop
  endfacet
  facet normal -0.0323293 -0.382994 -0.923185
    outer loop
      vertex 5.22911 27.8067 4.82963
      vertex 6.27235e-15 28.2481 4.82963
      vertex 6.51572e-15 29.3442 4.3749
    endloop
  endfacet
  facet normal -0.0323295 -0.382995 -0.923185
    outer loop
      vertex 6.51572e-15 29.3442 4.3749
      vertex 5.45198 28.9919 4.33013
      vertex 5.22911 27.8067 4.82963
    endloop
  endfacet
  facet normal -0.0323324 -0.383041 -0.923165
    outer loop
      vertex 5.45198 28.9919 4.33013
      vertex 6.51572e-15 29.3442 4.3749
      vertex 6.53968e-15 29.4521 4.33013
    endloop
  endfacet
  facet normal -0.0110378 -0.130733 -0.991356
    outer loop
      vertex 4.98994 26.5349 5
      vertex 5.98547e-15 26.9562 5
      vertex 6.24652e-15 28.1318 4.84497
    endloop
  endfacet
  facet normal -0.0110357 -0.130727 -0.991357
    outer loop
      vertex 6.24652e-15 28.1318 4.84497
      vertex 5.22911 27.8067 4.82963
      vertex 4.98994 26.5349 5
    endloop
  endfacet
  facet normal -0.0110377 -0.13076 -0.991353
    outer loop
      vertex 5.22911 27.8067 4.82963
      vertex 6.24652e-15 28.1318 4.84497
      vertex 6.27235e-15 28.2481 4.82963
    endloop
  endfacet
  facet normal 0.0110373 0.13073 -0.991357
    outer loop
      vertex 4.75078 25.2631 4.82963
      vertex 5.69859e-15 25.6642 4.82963
      vertex 5.95958e-15 26.8396 4.98463
    endloop
  endfacet
  facet normal 0.0110361 0.130727 -0.991357
    outer loop
      vertex 5.95958e-15 26.8396 4.98463
      vertex 4.98994 26.5349 5
      vertex 4.75078 25.2631 4.82963
    endloop
  endfacet
  facet normal 0.0110333 0.13068 -0.991363
    outer loop
      vertex 4.98994 26.5349 5
      vertex 5.95958e-15 26.8396 4.98463
      vertex 5.98547e-15 26.9562 5
    endloop
  endfacet
  facet normal 0.0323303 0.383016 -0.923176
    outer loop
      vertex 4.52791 24.078 4.33013
      vertex 5.43126e-15 24.4602 4.33013
      vertex 5.67449e-15 25.5556 4.7846
    endloop
  endfacet
  facet normal 0.0323325 0.383022 -0.923173
    outer loop
      vertex 5.67449e-15 25.5556 4.7846
      vertex 4.75078 25.2631 4.82963
      vertex 4.52791 24.078 4.33013
    endloop
  endfacet
  facet normal 0.0323208 0.38282 -0.923257
    outer loop
      vertex 4.75078 25.2631 4.82963
      vertex 5.67449e-15 25.5556 4.7846
      vertex 5.69859e-15 25.6642 4.82963
    endloop
  endfacet
  facet normal 0.0513799 0.608606 -0.791807
    outer loop
      vertex 4.33653 23.0603 3.53553
      vertex 5.2017e-15 23.4264 3.53553
      vertex 5.41066e-15 24.3674 4.25881
    endloop
  endfacet
  facet normal 0.0513696 0.608582 -0.791826
    outer loop
      vertex 5.41066e-15 24.3674 4.25881
      vertex 4.52791 24.078 4.33013
      vertex 4.33653 23.0603 3.53553
    endloop
  endfacet
  facet normal 0.0513684 0.608559 -0.791844
    outer loop
      vertex 4.52791 24.078 4.33013
      vertex 5.41066e-15 24.3674 4.25881
      vertex 5.43126e-15 24.4602 4.33013
    endloop
  endfacet
  facet normal 0.0668689 0.792081 -0.606742
    outer loop
      vertex 4.18968 22.2794 2.5
      vertex 5.02555e-15 22.6331 2.5
      vertex 5.18601e-15 23.3557 3.44333
    endloop
  endfacet
  facet normal 0.0668436 0.791776 -0.607143
    outer loop
      vertex 4.33653 23.0603 3.53553
      vertex 5.18601e-15 23.3557 3.44333
      vertex 5.2017e-15 23.4264 3.53553
    endloop
  endfacet
  facet normal 0.0668549 0.792057 -0.606776
    outer loop
      vertex 5.18601e-15 23.3557 3.44333
      vertex 4.33653 23.0603 3.53553
      vertex 4.18968 22.2794 2.5
    endloop
  endfacet
  facet normal 0.0777755 0.921293 -0.381013
    outer loop
      vertex 4.09737 21.7885 1.2941
      vertex 4.91482e-15 22.1344 1.2941
      vertex 5.0158e-15 22.5892 2.39381
    endloop
  endfacet
  facet normal 0.0777813 0.921342 -0.380892
    outer loop
      vertex 4.18968 22.2794 2.5
      vertex 5.0158e-15 22.5892 2.39381
      vertex 5.02555e-15 22.6331 2.5
    endloop
  endfacet
  facet normal 0.0777807 0.921298 -0.380998
    outer loop
      vertex 5.0158e-15 22.5892 2.39381
      vertex 4.18968 22.2794 2.5
      vertex 4.09737 21.7885 1.2941
    endloop
  endfacet
  facet normal 0.0833985 0.98802 -0.129853
    outer loop
      vertex 4.06588 21.6211 0
      vertex 4.87705e-15 21.9643 0
      vertex 4.91154e-15 22.1196 1.18164
    endloop
  endfacet
  facet normal 0.0834067 0.987997 -0.130023
    outer loop
      vertex 4.09737 21.7885 1.2941
      vertex 4.91154e-15 22.1196 1.18164
      vertex 4.91482e-15 22.1344 1.2941
    endloop
  endfacet
  facet normal 0.0834036 0.988021 -0.129836
    outer loop
      vertex 4.91154e-15 22.1196 1.18164
      vertex 4.09737 21.7885 1.2941
      vertex 4.06588 21.6211 0
    endloop
  endfacet
  facet normal -0.28121 -0.950822 -0.129838
    outer loop
      vertex 12.0782 29.449 1.2941
      vertex 5.88252 31.2814 1.2941
      vertex 5.91401 31.4488 0
    endloop
  endfacet
  facet normal -0.281195 -0.950818 -0.129904
    outer loop
      vertex 12.0782 29.449 1.2941
      vertex 5.91401 31.4488 0
      vertex 12.1428 29.6067 0
    endloop
  endfacet
  facet normal -0.262216 -0.886614 -0.380997
    outer loop
      vertex 11.8886 28.9869 2.5
      vertex 5.79021 30.7905 2.5
      vertex 5.88252 31.2814 1.2941
    endloop
  endfacet
  facet normal -0.262222 -0.886619 -0.38098
    outer loop
      vertex 11.8886 28.9869 2.5
      vertex 5.88252 31.2814 1.2941
      vertex 12.0782 29.449 1.2941
    endloop
  endfacet
  facet normal -0.225436 -0.762235 -0.606776
    outer loop
      vertex 11.5871 28.2517 3.53553
      vertex 5.64336 30.0096 3.53553
      vertex 5.79021 30.7905 2.5
    endloop
  endfacet
  facet normal -0.225428 -0.762223 -0.606793
    outer loop
      vertex 11.5871 28.2517 3.53553
      vertex 5.79021 30.7905 2.5
      vertex 11.8886 28.9869 2.5
    endloop
  endfacet
  facet normal -0.173215 -0.585669 -0.791826
    outer loop
      vertex 11.1942 27.2936 4.33013
      vertex 5.45198 28.9919 4.33013
      vertex 5.64336 30.0096 3.53553
    endloop
  endfacet
  facet normal -0.173215 -0.585668 -0.791826
    outer loop
      vertex 11.1942 27.2936 4.33013
      vertex 5.64336 30.0096 3.53553
      vertex 11.5871 28.2517 3.53553
    endloop
  endfacet
  facet normal -0.109004 -0.368577 -0.923184
    outer loop
      vertex 10.7366 26.1779 4.82963
      vertex 5.22911 27.8067 4.82963
      vertex 5.45198 28.9919 4.33013
    endloop
  endfacet
  facet normal -0.109014 -0.368595 -0.923176
    outer loop
      vertex 10.7366 26.1779 4.82963
      vertex 5.45198 28.9919 4.33013
      vertex 11.1942 27.2936 4.33013
    endloop
  endfacet
  facet normal -0.0372061 -0.125805 -0.991357
    outer loop
      vertex 10.2455 24.9806 5
      vertex 4.98994 26.5349 5
      vertex 5.22911 27.8067 4.82963
    endloop
  endfacet
  facet normal -0.0372058 -0.125805 -0.991357
    outer loop
      vertex 10.2455 24.9806 5
      vertex 5.22911 27.8067 4.82963
      vertex 10.7366 26.1779 4.82963
    endloop
  endfacet
  facet normal 0.0372061 0.125805 -0.991357
    outer loop
      vertex 9.75445 23.7833 4.82963
      vertex 4.75078 25.2631 4.82963
      vertex 4.98994 26.5349 5
    endloop
  endfacet
  facet normal 0.0372063 0.125806 -0.991357
    outer loop
      vertex 9.75445 23.7833 4.82963
      vertex 4.98994 26.5349 5
      vertex 10.2455 24.9806 5
    endloop
  endfacet
  facet normal 0.109013 0.368601 -0.923173
    outer loop
      vertex 9.29685 22.6676 4.33013
      vertex 4.52791 24.078 4.33013
      vertex 4.75078 25.2631 4.82963
    endloop
  endfacet
  facet normal 0.10901 0.368597 -0.923176
    outer loop
      vertex 9.29685 22.6676 4.33013
      vertex 4.75078 25.2631 4.82963
      vertex 9.75445 23.7833 4.82963
    endloop
  endfacet
  facet normal 0.173212 0.58567 -0.791826
    outer loop
      vertex 8.9039 21.7095 3.53553
      vertex 4.33653 23.0603 3.53553
      vertex 4.52791 24.078 4.33013
    endloop
  endfacet
  facet normal 0.173209 0.585665 -0.79183
    outer loop
      vertex 8.9039 21.7095 3.53553
      vertex 4.52791 24.078 4.33013
      vertex 9.29685 22.6676 4.33013
    endloop
  endfacet
  facet normal 0.225422 0.762238 -0.606776
    outer loop
      vertex 8.60239 20.9744 2.5
      vertex 4.18968 22.2794 2.5
      vertex 4.33653 23.0603 3.53553
    endloop
  endfacet
  facet normal 0.225437 0.762256 -0.606748
    outer loop
      vertex 8.60239 20.9744 2.5
      vertex 4.33653 23.0603 3.53553
      vertex 8.9039 21.7095 3.53553
    endloop
  endfacet
  facet normal 0.262216 0.886614 -0.380997
    outer loop
      vertex 8.41284 20.5122 1.2941
      vertex 4.09737 21.7885 1.2941
      vertex 4.18968 22.2794 2.5
    endloop
  endfacet
  facet normal 0.262201 0.886603 -0.381033
    outer loop
      vertex 8.41284 20.5122 1.2941
      vertex 4.18968 22.2794 2.5
      vertex 8.60239 20.9744 2.5
    endloop
  endfacet
  facet normal 0.281207 0.950823 -0.129838
    outer loop
      vertex 8.34819 20.3546 0
      vertex 4.06588 21.6211 0
      vertex 4.09737 21.7885 1.2941
    endloop
  endfacet
  facet normal 0.281206 0.950823 -0.129843
    outer loop
      vertex 8.34819 20.3546 0
      vertex 4.09737 21.7885 1.2941
      vertex 8.41284 20.5122 1.2941
    endloop
  endfacet
  facet normal -0.46741 -0.874446 -0.129893
    outer loop
      vertex 17.7762 26.4033 1.2941
      vertex 12.0782 29.449 1.2941
      vertex 12.1428 29.6067 0
    endloop
  endfacet
  facet normal -0.467409 -0.874446 -0.129895
    outer loop
      vertex 17.7762 26.4033 1.2941
      vertex 12.1428 29.6067 0
      vertex 17.8713 26.5447 0
    endloop
  endfacet
  facet normal -0.435848 -0.815404 -0.380989
    outer loop
      vertex 17.4972 25.989 2.5
      vertex 11.8886 28.9869 2.5
      vertex 12.0782 29.449 1.2941
    endloop
  endfacet
  facet normal -0.435851 -0.815406 -0.380981
    outer loop
      vertex 17.4972 25.989 2.5
      vertex 12.0782 29.449 1.2941
      vertex 17.7762 26.4033 1.2941
    endloop
  endfacet
  facet normal -0.374695 -0.701005 -0.606791
    outer loop
      vertex 17.0534 25.3299 3.53553
      vertex 11.5871 28.2517 3.53553
      vertex 11.8886 28.9869 2.5
    endloop
  endfacet
  facet normal -0.374705 -0.701014 -0.606774
    outer loop
      vertex 17.0534 25.3299 3.53553
      vertex 11.8886 28.9869 2.5
      vertex 17.4972 25.989 2.5
    endloop
  endfacet
  facet normal -0.287906 -0.538634 -0.791823
    outer loop
      vertex 16.4751 24.4709 4.33013
      vertex 11.1942 27.2936 4.33013
      vertex 11.5871 28.2517 3.53553
    endloop
  endfacet
  facet normal -0.287906 -0.538634 -0.791823
    outer loop
      vertex 16.4751 24.4709 4.33013
      vertex 11.5871 28.2517 3.53553
      vertex 17.0534 25.3299 3.53553
    endloop
  endfacet
  facet normal -0.181197 -0.33899 -0.923176
    outer loop
      vertex 15.8017 23.4705 4.82963
      vertex 10.7366 26.1779 4.82963
      vertex 11.1942 27.2936 4.33013
    endloop
  endfacet
  facet normal -0.181189 -0.338981 -0.923181
    outer loop
      vertex 15.8017 23.4705 4.82963
      vertex 11.1942 27.2936 4.33013
      vertex 16.4751 24.4709 4.33013
    endloop
  endfacet
  facet normal -0.0618424 -0.115699 -0.991357
    outer loop
      vertex 15.0789 22.3971 5
      vertex 10.2455 24.9806 5
      vertex 10.7366 26.1779 4.82963
    endloop
  endfacet
  facet normal -0.0618456 -0.115703 -0.991357
    outer loop
      vertex 15.0789 22.3971 5
      vertex 10.7366 26.1779 4.82963
      vertex 15.8017 23.4705 4.82963
    endloop
  endfacet
  facet normal 0.0618439 0.115701 -0.991357
    outer loop
      vertex 14.3562 21.3236 4.82963
      vertex 9.75445 23.7833 4.82963
      vertex 10.2455 24.9806 5
    endloop
  endfacet
  facet normal 0.0618427 0.1157 -0.991357
    outer loop
      vertex 14.3562 21.3236 4.82963
      vertex 10.2455 24.9806 5
      vertex 15.0789 22.3971 5
    endloop
  endfacet
  facet normal 0.181195 0.33899 -0.923176
    outer loop
      vertex 13.6827 20.3233 4.33013
      vertex 9.29685 22.6676 4.33013
      vertex 9.75445 23.7833 4.82963
    endloop
  endfacet
  facet normal 0.181195 0.33899 -0.923176
    outer loop
      vertex 13.6827 20.3233 4.33013
      vertex 9.75445 23.7833 4.82963
      vertex 14.3562 21.3236 4.82963
    endloop
  endfacet
  facet normal 0.2879 0.538626 -0.79183
    outer loop
      vertex 13.1044 19.4643 3.53553
      vertex 8.9039 21.7095 3.53553
      vertex 9.29685 22.6676 4.33013
    endloop
  endfacet
  facet normal 0.287907 0.538633 -0.791823
    outer loop
      vertex 13.1044 19.4643 3.53553
      vertex 9.29685 22.6676 4.33013
      vertex 13.6827 20.3233 4.33013
    endloop
  endfacet
  facet normal 0.374729 0.701023 -0.606749
    outer loop
      vertex 12.6606 18.8051 2.5
      vertex 8.60239 20.9744 2.5
      vertex 8.9039 21.7095 3.53553
    endloop
  endfacet
  facet normal 0.374684 0.700989 -0.606817
    outer loop
      vertex 12.6606 18.8051 2.5
      vertex 8.9039 21.7095 3.53553
      vertex 13.1044 19.4643 3.53553
    endloop
  endfacet
  facet normal 0.435835 0.815391 -0.381032
    outer loop
      vertex 12.3817 18.3908 1.2941
      vertex 8.41284 20.5122 1.2941
      vertex 8.60239 20.9744 2.5
    endloop
  endfacet
  facet normal 0.435873 0.815408 -0.380951
    outer loop
      vertex 12.3817 18.3908 1.2941
      vertex 8.60239 20.9744 2.5
      vertex 12.6606 18.8051 2.5
    endloop
  endfacet
  facet normal 0.467411 0.874453 -0.129845
    outer loop
      vertex 12.2865 18.2495 0
      vertex 8.34819 20.3546 0
      vertex 8.41284 20.5122 1.2941
    endloop
  endfacet
  facet normal 0.467405 0.874453 -0.129864
    outer loop
      vertex 12.2865 18.2495 0
      vertex 8.41284 20.5122 1.2941
      vertex 12.3817 18.3908 1.2941
    endloop
  endfacet
  facet normal -0.634391 -0.762078 -0.129557
    outer loop
      vertex 17.7762 26.4033 1.2941
      vertex 22.3235 22.6368 1.18298
      vertex 22.3133 22.6264 1.2941
    endloop
  endfacet
  facet normal -0.634368 -0.762042 -0.129883
    outer loop
      vertex 22.3235 22.6368 1.18298
      vertex 17.7762 26.4033 1.2941
      vertex 17.8713 26.5447 0
    endloop
  endfacet
  facet normal -0.634372 -0.762041 -0.129868
    outer loop
      vertex 22.3235 22.6368 1.18298
      vertex 17.8713 26.5447 0
      vertex 22.4327 22.7475 0
    endloop
  endfacet
  facet normal -0.591537 -0.710586 -0.380989
    outer loop
      vertex 17.7762 26.4033 1.2941
      vertex 21.9631 22.2713 2.5
      vertex 17.4972 25.989 2.5
    endloop
  endfacet
  facet normal -0.59136 -0.710521 -0.381383
    outer loop
      vertex 21.9631 22.2713 2.5
      vertex 17.7762 26.4033 1.2941
      vertex 21.97 22.2783 2.47626
    endloop
  endfacet
  facet normal -0.591525 -0.710583 -0.381013
    outer loop
      vertex 21.97 22.2783 2.47626
      vertex 17.7762 26.4033 1.2941
      vertex 21.9929 22.3015 2.39744
    endloop
  endfacet
  facet normal -0.591523 -0.710582 -0.381018
    outer loop
      vertex 21.9929 22.3015 2.39744
      vertex 17.7762 26.4033 1.2941
      vertex 22.3133 22.6264 1.2941
    endloop
  endfacet
  facet normal -0.508545 -0.610902 -0.606779
    outer loop
      vertex 17.4972 25.989 2.5
      vertex 21.4061 21.7065 3.53553
      vertex 17.0534 25.3299 3.53553
    endloop
  endfacet
  facet normal -0.508666 -0.610971 -0.606608
    outer loop
      vertex 21.4061 21.7065 3.53553
      vertex 17.4972 25.989 2.5
      vertex 21.453 21.7541 3.44826
    endloop
  endfacet
  facet normal -0.508482 -0.610859 -0.606875
    outer loop
      vertex 17.4972 25.989 2.5
      vertex 21.5918 21.8948 3.19034
      vertex 21.453 21.7541 3.44826
    endloop
  endfacet
  facet normal -0.508575 -0.610928 -0.606728
    outer loop
      vertex 21.5918 21.8948 3.19034
      vertex 17.4972 25.989 2.5
      vertex 21.9631 22.2713 2.5
    endloop
  endfacet
  facet normal -0.390814 -0.469479 -0.791741
    outer loop
      vertex 16.4751 24.4709 4.33013
      vertex 20.7409 21.0319 4.2637
      vertex 20.6802 20.9704 4.33013
    endloop
  endfacet
  facet normal -0.390749 -0.469397 -0.791822
    outer loop
      vertex 20.7409 21.0319 4.2637
      vertex 16.4751 24.4709 4.33013
      vertex 17.0534 25.3299 3.53553
    endloop
  endfacet
  facet normal -0.390791 -0.469427 -0.791783
    outer loop
      vertex 17.0534 25.3299 3.53553
      vertex 21.0635 21.3591 3.91049
      vertex 20.7409 21.0319 4.2637
    endloop
  endfacet
  facet normal -0.390718 -0.46936 -0.791859
    outer loop
      vertex 21.0635 21.3591 3.91049
      vertex 17.0534 25.3299 3.53553
      vertex 21.4061 21.7065 3.53553
    endloop
  endfacet
  facet normal -0.2459 -0.295389 -0.923189
    outer loop
      vertex 15.8017 23.4705 4.82963
      vertex 19.905 20.1843 4.78815
      vertex 19.8348 20.1131 4.82963
    endloop
  endfacet
  facet normal -0.245916 -0.295409 -0.923178
    outer loop
      vertex 19.905 20.1843 4.78815
      vertex 15.8017 23.4705 4.82963
      vertex 16.4751 24.4709 4.33013
    endloop
  endfacet
  facet normal -0.245903 -0.295399 -0.923185
    outer loop
      vertex 19.905 20.1843 4.78815
      vertex 16.4751 24.4709 4.33013
      vertex 20.6802 20.9704 4.33013
    endloop
  endfacet
  facet normal -0.0838773 -0.100758 -0.991369
    outer loop
      vertex 15.0789 22.3971 5
      vertex 19.0026 19.2693 4.98592
      vertex 18.9276 19.1932 5
    endloop
  endfacet
  facet normal -0.083934 -0.100829 -0.991357
    outer loop
      vertex 19.0026 19.2693 4.98592
      vertex 15.0789 22.3971 5
      vertex 15.8017 23.4705 4.82963
    endloop
  endfacet
  facet normal -0.0839452 -0.100838 -0.991355
    outer loop
      vertex 15.8017 23.4705 4.82963
      vertex 19.3516 19.6232 4.92037
      vertex 19.0026 19.2693 4.98592
    endloop
  endfacet
  facet normal -0.0839377 -0.100831 -0.991356
    outer loop
      vertex 19.3516 19.6232 4.92037
      vertex 15.8017 23.4705 4.82963
      vertex 19.8348 20.1131 4.82963
    endloop
  endfacet
  facet normal 0.08387 0.10075 -0.99137
    outer loop
      vertex 14.3562 21.3236 4.82963
      vertex 18.0953 18.3492 4.84368
      vertex 18.0204 18.2733 4.82963
    endloop
  endfacet
  facet normal 0.0839327 0.100828 -0.991357
    outer loop
      vertex 18.0953 18.3492 4.84368
      vertex 14.3562 21.3236 4.82963
      vertex 15.0789 22.3971 5
    endloop
  endfacet
  facet normal 0.0839412 0.100835 -0.991356
    outer loop
      vertex 18.0953 18.3492 4.84368
      vertex 15.0789 22.3971 5
      vertex 18.9276 19.1932 5
    endloop
  endfacet
  facet normal 0.245868 0.29536 -0.923207
    outer loop
      vertex 13.6827 20.3233 4.33013
      vertex 17.2449 17.4869 4.37137
      vertex 17.1751 17.4161 4.33013
    endloop
  endfacet
  facet normal 0.245913 0.295416 -0.923177
    outer loop
      vertex 17.2449 17.4869 4.37137
      vertex 13.6827 20.3233 4.33013
      vertex 14.3562 21.3236 4.82963
    endloop
  endfacet
  facet normal 0.245935 0.295432 -0.923166
    outer loop
      vertex 17.2449 17.4869 4.37137
      vertex 14.3562 21.3236 4.82963
      vertex 18.0204 18.2733 4.82963
    endloop
  endfacet
  facet normal 0.390903 0.469581 -0.791637
    outer loop
      vertex 13.1044 19.4643 3.53553
      vertex 16.5093 16.741 3.60144
      vertex 16.4491 16.68 3.53553
    endloop
  endfacet
  facet normal 0.390756 0.469392 -0.791822
    outer loop
      vertex 16.5093 16.741 3.60144
      vertex 13.1044 19.4643 3.53553
      vertex 13.6827 20.3233 4.33013
    endloop
  endfacet
  facet normal 0.390703 0.469359 -0.791867
    outer loop
      vertex 13.6827 20.3233 4.33013
      vertex 16.932 17.1696 4.06404
      vertex 16.5093 16.741 3.60144
    endloop
  endfacet
  facet normal 0.390744 0.469398 -0.791824
    outer loop
      vertex 16.932 17.1696 4.06404
      vertex 13.6827 20.3233 4.33013
      vertex 17.1751 17.4161 4.33013
    endloop
  endfacet
  facet normal 0.508561 0.610904 -0.606764
    outer loop
      vertex 15.8921 16.1151 2.5
      vertex 13.1044 19.4643 3.53553
      vertex 15.9387 16.1623 2.58658
    endloop
  endfacet
  facet normal 0.50852 0.610885 -0.606817
    outer loop
      vertex 13.1044 19.4643 3.53553
      vertex 15.8921 16.1151 2.5
      vertex 12.6606 18.8051 2.5
    endloop
  endfacet
  facet normal 0.508538 0.610893 -0.606794
    outer loop
      vertex 15.9387 16.1623 2.58658
      vertex 13.1044 19.4643 3.53553
      vertex 16.4491 16.68 3.53553
    endloop
  endfacet
  facet normal 0.591287 0.710543 -0.381456
    outer loop
      vertex 15.5419 15.76 1.2941
      vertex 12.6606 18.8051 2.5
      vertex 15.5715 15.7901 1.39605
    endloop
  endfacet
  facet normal 0.591554 0.710594 -0.380947
    outer loop
      vertex 12.6606 18.8051 2.5
      vertex 15.5419 15.76 1.2941
      vertex 12.3817 18.3908 1.2941
    endloop
  endfacet
  facet normal 0.591527 0.710602 -0.380974
    outer loop
      vertex 15.7839 16.0053 2.1272
      vertex 12.6606 18.8051 2.5
      vertex 15.8921 16.1151 2.5
    endloop
  endfacet
  facet normal 0.591522 0.710598 -0.380989
    outer loop
      vertex 12.6606 18.8051 2.5
      vertex 15.7839 16.0053 2.1272
      vertex 15.5715 15.7901 1.39605
    endloop
  endfacet
  facet normal 0.634373 0.762045 -0.129838
    outer loop
      vertex 12.2865 18.2495 0
      vertex 15.4327 15.6493 0.110876
      vertex 15.4225 15.6389 0
    endloop
  endfacet
  facet normal 0.634371 0.762041 -0.129873
    outer loop
      vertex 15.4327 15.6493 0.110876
      vertex 12.2865 18.2495 0
      vertex 12.3817 18.3908 1.2941
    endloop
  endfacet
  facet normal 0.634381 0.762038 -0.129842
    outer loop
      vertex 15.4327 15.6493 0.110876
      vertex 12.3817 18.3908 1.2941
      vertex 15.5419 15.76 1.2941
    endloop
  endfacet
  facet normal 0 0 -1
    outer loop
      vertex 17.8713 26.5447 0
      vertex 23.1714 23.4966 0
      vertex 22.4327 22.7475 0
    endloop
  endfacet
  facet normal 0 0 -1
    outer loop
      vertex 17.8713 26.5447 0
      vertex 16.3671 28.6552 0
      vertex 23.1714 23.4966 0
    endloop
  endfacet
  facet normal 0 0 -1
    outer loop
      vertex 12.1428 29.6067 0
      vertex 16.3671 28.6552 0
      vertex 17.8713 26.5447 0
    endloop
  endfacet
  facet normal 0 0 -1
    outer loop
      vertex 12.1428 29.6067 0
      vertex 8.46699 31.8953 0
      vertex 16.3671 28.6552 0
    endloop
  endfacet
  facet normal 0 0 -1
    outer loop
      vertex 5.91401 31.4488 0
      vertex 8.46699 31.8953 0
      vertex 12.1428 29.6067 0
    endloop
  endfacet
  facet normal 0 0 -1
    outer loop
      vertex 5.91401 31.4488 0
      vertex 7.32748e-15 33 0
      vertex 8.46699 31.8953 0
    endloop
  endfacet
  facet normal 0 -0 -1
    outer loop
      vertex 7.32748e-15 33 0
      vertex 5.91401 31.4488 0
      vertex 7.09389e-15 31.948 0
    endloop
  endfacet
  facet normal 0 0 -1
    outer loop
      vertex 14.7455 14.9524 0
      vertex 12.2865 18.2495 0
      vertex 15.4225 15.6389 0
    endloop
  endfacet
  facet normal 0 0 -1
    outer loop
      vertex 10.4154 18.2351 0
      vertex 12.2865 18.2495 0
      vertex 14.7455 14.9524 0
    endloop
  endfacet
  facet normal 0 0 -1
    outer loop
      vertex 10.4154 18.2351 0
      vertex 8.34819 20.3546 0
      vertex 12.2865 18.2495 0
    endloop
  endfacet
  facet normal 0 0 -1
    outer loop
      vertex 5.38809 20.2971 0
      vertex 8.34819 20.3546 0
      vertex 10.4154 18.2351 0
    endloop
  endfacet
  facet normal 0 0 -1
    outer loop
      vertex 5.38809 20.2971 0
      vertex 4.06588 21.6211 0
      vertex 8.34819 20.3546 0
    endloop
  endfacet
  facet normal 0 0 -1
    outer loop
      vertex 4.66295e-15 21 0
      vertex 4.06588 21.6211 0
      vertex 5.38809 20.2971 0
    endloop
  endfacet
  facet normal -0 0 -1
    outer loop
      vertex 4.06588 21.6211 0
      vertex 4.66295e-15 21 0
      vertex 4.87705e-15 21.9643 0
    endloop
  endfacet
endsolid OpenSCAD_Model
