solid OpenSCAD_Model
  facet normal -1 -2.22041e-16 -4.02892e-21
    outer loop
      vertex 3.10529e-15 -13.985 0.0646385
      vertex 2.91684e-15 -13.1363 1.03528
      vertex 2.88658e-15 -13 0
    endloop
  endfacet
  facet normal -1 -2.22048e-16 -1.14624e-19
    outer loop
      vertex 3.10529e-15 -13.985 0.0646385
      vertex 2.88658e-15 -13 0
      vertex 3.10341e-15 -13.9765 0
    endloop
  endfacet
  facet normal -1 -2.22058e-16 1.06839e-20
    outer loop
      vertex 2.91684e-15 -13.1363 1.03528
      vertex 3.10529e-15 -13.985 0.0646385
      vertex 3.12606e-15 -14.0785 0.776457
    endloop
  endfacet
  facet normal -1 -2.22086e-16 1.12519e-19
    outer loop
      vertex 3.13153e-15 -14.1031 0.835935
      vertex 2.91684e-15 -13.1363 1.03528
      vertex 3.12606e-15 -14.0785 0.776457
    endloop
  endfacet
  facet normal -1 -2.22061e-16 -5.88729e-21
    outer loop
      vertex 2.91684e-15 -13.1363 1.03528
      vertex 3.13153e-15 -14.1031 0.835935
      vertex 3.00557e-15 -13.5359 2
    endloop
  endfacet
  facet normal -1 -2.22054e-16 -9.23727e-21
    outer loop
      vertex 3.1925e-15 -14.3777 1.5
      vertex 3.00557e-15 -13.5359 2
      vertex 3.13153e-15 -14.1031 0.835935
    endloop
  endfacet
  facet normal -1 -2.21931e-16 -2.16387e-19
    outer loop
      vertex 3.2011e-15 -14.4165 1.55054
      vertex 3.00557e-15 -13.5359 2
      vertex 3.1925e-15 -14.3777 1.5
    endloop
  endfacet
  facet normal -1 -2.22041e-16 -1.70502e-21
    outer loop
      vertex 3.00557e-15 -13.5359 2
      vertex 3.2011e-15 -14.4165 1.55054
      vertex 3.14672e-15 -14.1716 2.82843
    endloop
  endfacet
  facet normal -1 -2.22049e-16 -6.29942e-23
    outer loop
      vertex 3.29818e-15 -14.8537 2.12132
      vertex 3.14672e-15 -14.1716 2.82843
      vertex 3.2011e-15 -14.4165 1.55054
    endloop
  endfacet
  facet normal -1 -2.21996e-16 -5.17889e-20
    outer loop
      vertex 3.3093e-15 -14.9038 2.1598
      vertex 3.14672e-15 -14.1716 2.82843
      vertex 3.29818e-15 -14.8537 2.12132
    endloop
  endfacet
  facet normal -1 -2.22049e-16 6.78681e-21
    outer loop
      vertex 3.3093e-15 -14.9038 2.1598
      vertex 3.33067e-15 -15 3.4641
      vertex 3.14672e-15 -14.1716 2.82843
    endloop
  endfacet
  facet normal -1 -2.22039e-16 7.5433e-21
    outer loop
      vertex 3.43591e-15 -15.474 2.59808
      vertex 3.33067e-15 -15 3.4641
      vertex 3.3093e-15 -14.9038 2.1598
    endloop
  endfacet
  facet normal -1 -2.22201e-16 9.63612e-20
    outer loop
      vertex 3.4488e-15 -15.532 2.62216
      vertex 3.33067e-15 -15 3.4641
      vertex 3.43591e-15 -15.474 2.59808
    endloop
  endfacet
  facet normal -1 -2.22048e-16 -2.83956e-22
    outer loop
      vertex 3.4488e-15 -15.532 2.62216
      vertex 3.54488e-15 -15.9647 3.8637
      vertex 3.33067e-15 -15 3.4641
    endloop
  endfacet
  facet normal -1 -2.22037e-16 3.8186e-21
    outer loop
      vertex 3.5963e-15 -16.1963 2.89778
      vertex 3.54488e-15 -15.9647 3.8637
      vertex 3.4488e-15 -15.532 2.62216
    endloop
  endfacet
  facet normal -1 -2.22181e-16 3.8529e-20
    outer loop
      vertex 3.61012e-15 -16.2585 2.90598
      vertex 3.54488e-15 -15.9647 3.8637
      vertex 3.5963e-15 -16.1963 2.89778
    endloop
  endfacet
  facet normal -1 -2.22021e-16 -1.06689e-20
    outer loop
      vertex 3.76842e-15 -16.9715 3
      vertex 3.54488e-15 -15.9647 3.8637
      vertex 3.61012e-15 -16.2585 2.90598
    endloop
  endfacet
  facet normal -1 -2.2204e-16 1.18497e-20
    outer loop
      vertex 3.76842e-15 -16.9715 3
      vertex 3.77476e-15 -17 4
      vertex 3.54488e-15 -15.9647 3.8637
    endloop
  endfacet
  facet normal -1 -2.22312e-16 4.10975e-21
    outer loop
      vertex 3.78227e-15 -17.0338 2.99178
      vertex 3.77476e-15 -17 4
      vertex 3.76842e-15 -16.9715 3
    endloop
  endfacet
  facet normal -1 -2.22039e-16 -5.03437e-21
    outer loop
      vertex 3.94054e-15 -17.7466 2.89778
      vertex 3.77476e-15 -17 4
      vertex 3.78227e-15 -17.0338 2.99178
    endloop
  endfacet
  facet normal -1 -2.2193e-16 2.97782e-20
    outer loop
      vertex 4.00464e-15 -18.0353 3.8637
      vertex 3.94054e-15 -17.7466 2.89778
      vertex 3.9535e-15 -17.805 2.87356
    endloop
  endfacet
  facet normal -1 -2.22041e-16 -3.48866e-21
    outer loop
      vertex 3.94054e-15 -17.7466 2.89778
      vertex 4.00464e-15 -18.0353 3.8637
      vertex 3.77476e-15 -17 4
    endloop
  endfacet
  facet normal -1 -2.22066e-16 -1.77997e-21
    outer loop
      vertex 4.10093e-15 -18.4689 2.59808
      vertex 4.00464e-15 -18.0353 3.8637
      vertex 3.9535e-15 -17.805 2.87356
    endloop
  endfacet
  facet normal -1 -2.21861e-16 1.03226e-19
    outer loop
      vertex 4.21885e-15 -19 3.4641
      vertex 4.10093e-15 -18.4689 2.59808
      vertex 4.11213e-15 -18.5194 2.55931
    endloop
  endfacet
  facet normal -1 -2.22045e-16 -9.07436e-21
    outer loop
      vertex 4.10093e-15 -18.4689 2.59808
      vertex 4.21885e-15 -19 3.4641
      vertex 4.00464e-15 -18.0353 3.8637
    endloop
  endfacet
  facet normal -1 -2.22056e-16 -5.51004e-21
    outer loop
      vertex 4.4028e-15 -19.8284 2.82843
      vertex 4.11213e-15 -18.5194 2.55931
      vertex 4.23866e-15 -19.0892 2.12132
    endloop
  endfacet
  facet normal -1 -2.22051e-16 -1.84021e-22
    outer loop
      vertex 4.4028e-15 -19.8284 2.82843
      vertex 4.23866e-15 -19.0892 2.12132
      vertex 4.24732e-15 -19.1282 2.07041
    endloop
  endfacet
  facet normal -1 -2.22039e-16 1.90389e-20
    outer loop
      vertex 4.54394e-15 -20.4641 2
      vertex 4.24732e-15 -19.1282 2.07041
      vertex 4.34434e-15 -19.5652 1.5
    endloop
  endfacet
  facet normal -1 -2.2209e-16 -7.32328e-20
    outer loop
      vertex 4.54394e-15 -20.4641 2
      vertex 4.34434e-15 -19.5652 1.5
      vertex 4.34983e-15 -19.5899 1.4402
    endloop
  endfacet
  facet normal -1 -2.22055e-16 4.53067e-22
    outer loop
      vertex 4.11213e-15 -18.5194 2.55931
      vertex 4.4028e-15 -19.8284 2.82843
      vertex 4.21885e-15 -19 3.4641
    endloop
  endfacet
  facet normal -1 -2.22045e-16 2.00184e-21
    outer loop
      vertex 4.63267e-15 -20.8637 1.03528
      vertex 4.34983e-15 -19.5899 1.4402
      vertex 4.41078e-15 -19.8644 0.776457
    endloop
  endfacet
  facet normal -1 -2.22056e-16 -3.90313e-20
    outer loop
      vertex 4.63267e-15 -20.8637 1.03528
      vertex 4.41078e-15 -19.8644 0.776457
      vertex 4.41267e-15 -19.8729 0.711691
    endloop
  endfacet
  facet normal -1 -2.22039e-16 -1.30804e-20
    outer loop
      vertex 4.66294e-15 -21 0
      vertex 4.41267e-15 -19.8729 0.711691
      vertex 4.43344e-15 -19.9664 0
    endloop
  endfacet
  facet normal -1 -2.22038e-16 1.16843e-20
    outer loop
      vertex 4.24732e-15 -19.1282 2.07041
      vertex 4.54394e-15 -20.4641 2
      vertex 4.4028e-15 -19.8284 2.82843
    endloop
  endfacet
  facet normal -1 -2.22044e-16 -1.32139e-21
    outer loop
      vertex 4.34983e-15 -19.5899 1.4402
      vertex 4.63267e-15 -20.8637 1.03528
      vertex 4.54394e-15 -20.4641 2
    endloop
  endfacet
  facet normal -1 -2.22044e-16 -5.15581e-21
    outer loop
      vertex 4.41267e-15 -19.8729 0.711691
      vertex 4.66294e-15 -21 0
      vertex 4.63267e-15 -20.8637 1.03528
    endloop
  endfacet
  facet normal -0.0696708 0.99757 1.63036e-06
    outer loop
      vertex 20.813 1.45345 1.03528
      vertex 20.949 1.46295 0
      vertex 20.4144 1.42561 2
    endloop
  endfacet
  facet normal -0.0696455 0.997572 1.24298e-05
    outer loop
      vertex 19.7803 1.38133 2.82843
      vertex 20.4144 1.42561 2
      vertex 18.9538 1.32362 3.4641
    endloop
  endfacet
  facet normal -0.0696466 0.997572 8.11627e-06
    outer loop
      vertex 20.949 1.46295 0
      vertex 20.677 1.44396 0
      vertex 20.4144 1.42561 2
    endloop
  endfacet
  facet normal -0.0696537 0.997571 4.75214e-05
    outer loop
      vertex 17.9915 1.25641 3.8637
      vertex 18.9538 1.32362 3.4641
      vertex 16.9587 1.18429 4
    endloop
  endfacet
  facet normal -0.0696696 0.99757 -1.17327e-05
    outer loop
      vertex 18.9538 1.32362 3.4641
      vertex 20.4144 1.42561 2
      vertex 16.9587 1.18429 4
    endloop
  endfacet
  facet normal -0.0696605 0.997571 4.01606e-06
    outer loop
      vertex 16.9587 1.18429 4
      vertex 20.4144 1.42561 2
      vertex 15.9259 1.11217 3.8637
    endloop
  endfacet
  facet normal -0.0696963 0.997568 5.56295e-05
    outer loop
      vertex 14.9636 1.04496 3.4641
      vertex 15.9259 1.11217 3.8637
      vertex 14.1371 0.987251 2.82843
    endloop
  endfacet
  facet normal -0.069667 0.99757 -8.10782e-06
    outer loop
      vertex 15.9259 1.11217 3.8637
      vertex 17.636 1.23159 2.9067
      vertex 16.9302 1.1823 3
    endloop
  endfacet
  facet normal -0.0695918 0.997576 0.000126943
    outer loop
      vertex 15.9259 1.11217 3.8637
      vertex 17.7035 1.2363 2.89778
      vertex 17.636 1.23159 2.9067
    endloop
  endfacet
  facet normal -0.0697169 0.997567 -0.000104369
    outer loop
      vertex 15.9259 1.11217 3.8637
      vertex 18.3614 1.28225 2.62413
      vertex 17.7035 1.2363 2.89778
    endloop
  endfacet
  facet normal -0.0696537 0.997571 2.04037e-05
    outer loop
      vertex 20.4144 1.42561 2
      vertex 18.3614 1.28225 2.62413
      vertex 15.9259 1.11217 3.8637
    endloop
  endfacet
  facet normal -0.0696563 0.997571 2.57015e-05
    outer loop
      vertex 18.4241 1.28662 2.59808
      vertex 20.4144 1.42561 2
      vertex 18.9494 1.32331 2.19334
    endloop
  endfacet
  facet normal -0.0700187 0.997545 -0.00118626
    outer loop
      vertex 18.3614 1.28225 2.62413
      vertex 20.4144 1.42561 2
      vertex 18.4241 1.28662 2.59808
    endloop
  endfacet
  facet normal -0.0696539 0.997571 7.2858e-06
    outer loop
      vertex 16.8626 1.17758 2.99106
      vertex 15.9259 1.11217 3.8637
      vertex 16.9302 1.1823 3
    endloop
  endfacet
  facet normal -0.0696702 0.99757 -1.03288e-05
    outer loop
      vertex 16.157 1.1283 2.89778
      vertex 15.9259 1.11217 3.8637
      vertex 16.8626 1.17758 2.99106
    endloop
  endfacet
  facet normal -0.0695242 0.99758 2.4766e-05
    outer loop
      vertex 16.094 1.12391 2.87159
      vertex 15.9259 1.11217 3.8637
      vertex 16.157 1.1283 2.89778
    endloop
  endfacet
  facet normal -0.069672 0.99757 -3.89314e-07
    outer loop
      vertex 15.5439 1.08549 2.64278
      vertex 15.9259 1.11217 3.8637
      vertex 16.094 1.12391 2.87159
    endloop
  endfacet
  facet normal -0.0696623 0.997571 -3.41688e-06
    outer loop
      vertex 15.9259 1.11217 3.8637
      vertex 15.5439 1.08549 2.64278
      vertex 14.1371 0.987251 2.82843
    endloop
  endfacet
  facet normal -0.0696694 0.99757 4.90787e-07
    outer loop
      vertex 13.3811 0.934454 0
      vertex 13.1044 0.915129 1.03528
      vertex 14.1371 0.987251 2.82843
    endloop
  endfacet
  facet normal -0.0696713 0.99757 0
    outer loop
      vertex 13.1044 0.915129 1.03528
      vertex 13.3811 0.934454 0
      vertex 13.1044 0.915129 0
    endloop
  endfacet
  facet normal -0.0696657 0.99757 -1.67752e-06
    outer loop
      vertex 13.503 0.942967 2
      vertex 14.1371 0.987251 2.82843
      vertex 13.1044 0.915129 1.03528
    endloop
  endfacet
  facet normal -0.069676 0.99757 -0.000123874
    outer loop
      vertex 20.4144 1.42561 2
      vertex 18.9894 1.3261 2.1625
      vertex 18.9494 1.32331 2.19334
    endloop
  endfacet
  facet normal -0.0696587 0.997571 2.82489e-05
    outer loop
      vertex 18.9894 1.3261 2.1625
      vertex 20.4144 1.42561 2
      vertex 19.0428 1.32983 2.12132
    endloop
  endfacet
  facet normal -0.0696609 0.997571 3.65907e-06
    outer loop
      vertex 19.0428 1.32983 2.12132
      vertex 20.4144 1.42561 2
      vertex 19.4436 1.35782 1.5969
    endloop
  endfacet
  facet normal -0.0696688 0.99757 -5.26895e-05
    outer loop
      vertex 15.4364 1.07798 2.59808
      vertex 14.1371 0.987251 2.82843
      vertex 15.5439 1.08549 2.64278
    endloop
  endfacet
  facet normal -0.0696464 0.997572 7.40926e-05
    outer loop
      vertex 15.3825 1.07422 2.5566
      vertex 14.1371 0.987251 2.82843
      vertex 15.4364 1.07798 2.59808
    endloop
  endfacet
  facet normal -0.0696632 0.997571 -3.21489e-06
    outer loop
      vertex 14.8176 1.03477 2.12132
      vertex 14.1371 0.987251 2.82843
      vertex 15.3825 1.07422 2.5566
    endloop
  endfacet
  facet normal -0.0696276 0.997573 3.12096e-05
    outer loop
      vertex 14.7766 1.03191 2.06768
      vertex 14.1371 0.987251 2.82843
      vertex 14.8176 1.03477 2.12132
    endloop
  endfacet
  facet normal -0.069671 0.99757 -5.43489e-06
    outer loop
      vertex 14.3428 1.00161 1.5
      vertex 14.1371 0.987251 2.82843
      vertex 14.7766 1.03191 2.06768
    endloop
  endfacet
  facet normal -0.06955 0.997578 1.33949e-05
    outer loop
      vertex 14.3173 0.999833 1.43818
      vertex 14.1371 0.987251 2.82843
      vertex 14.3428 1.00161 1.5
    endloop
  endfacet
  facet normal -0.0696569 0.997571 -5.33205e-07
    outer loop
      vertex 14.0443 0.98077 0.776457
      vertex 14.1371 0.987251 2.82843
      vertex 14.3173 0.999833 1.43818
    endloop
  endfacet
  facet normal -0.0695339 0.99758 -0.00011464
    outer loop
      vertex 13.3811 0.934454 0
      vertex 14.0443 0.98077 0.776457
      vertex 14.0358 0.98017 0.710951
    endloop
  endfacet
  facet normal -0.0696664 0.99757 8.0125e-06
    outer loop
      vertex 13.3811 0.934454 0
      vertex 14.0358 0.98017 0.710951
      vertex 13.9425 0.97366 0
    endloop
  endfacet
  facet normal -0.0696674 0.99757 -5.75873e-08
    outer loop
      vertex 14.0443 0.98077 0.776457
      vertex 13.3811 0.934454 0
      vertex 14.1371 0.987251 2.82843
    endloop
  endfacet
  facet normal -0.0696466 0.997572 0
    outer loop
      vertex 13.1044 0.915129 1.03528
      vertex 13.1044 0.915129 0
      vertex 12.9684 0.905634 0
    endloop
  endfacet
  facet normal -0.0696931 0.997568 8.14842e-05
    outer loop
      vertex 20.4144 1.42561 2
      vertex 19.4769 1.36015 1.55326
      vertex 19.4436 1.35782 1.5969
    endloop
  endfacet
  facet normal -0.0696425 0.997572 -2.52199e-05
    outer loop
      vertex 20.4144 1.42561 2
      vertex 19.5176 1.36299 1.5
      vertex 19.4769 1.36015 1.55326
    endloop
  endfacet
  facet normal -0.0696568 0.997571 6.20166e-07
    outer loop
      vertex 20.4144 1.42561 2
      vertex 19.7907 1.38206 0.837942
      vertex 19.5176 1.36299 1.5
    endloop
  endfacet
  facet normal -0.0695951 0.997575 -3.26476e-05
    outer loop
      vertex 20.4144 1.42561 2
      vertex 19.8161 1.38383 0.776457
      vertex 19.7907 1.38206 0.837942
    endloop
  endfacet
  facet normal -0.0696714 0.99757 4.84819e-06
    outer loop
      vertex 20.677 1.44396 0
      vertex 19.8161 1.38383 0.776457
      vertex 20.4144 1.42561 2
    endloop
  endfacet
  facet normal -0.0696609 0.997571 1.65435e-05
    outer loop
      vertex 19.8161 1.38383 0.776457
      vertex 20.677 1.44396 0
      vertex 19.9093 1.39035 0.0653771
    endloop
  endfacet
  facet normal -0.0696761 0.99757 -0.000162879
    outer loop
      vertex 19.9093 1.39035 0.0653771
      vertex 20.677 1.44396 0
      vertex 19.9179 1.39094 0
    endloop
  endfacet
  facet normal -0.101474 0.986327 0.129855
    outer loop
      vertex 2.91684e-15 -13.1363 1.03528
      vertex 2.67495 -12.8611 1.03528
      vertex 2.88658e-15 -13 0
    endloop
  endfacet
  facet normal -0.101493 0.986318 0.129907
    outer loop
      vertex 2.67495 -12.8611 1.03528
      vertex 2.6472 -12.7276 0
      vertex 2.88658e-15 -13 0
    endloop
  endfacet
  facet normal -0.0946321 0.919733 0.380966
    outer loop
      vertex 3.00557e-15 -13.5359 2
      vertex 2.75632 -13.2523 2
      vertex 2.91684e-15 -13.1363 1.03528
    endloop
  endfacet
  facet normal -0.0946236 0.919744 0.380943
    outer loop
      vertex 2.75632 -13.2523 2
      vertex 2.67495 -12.8611 1.03528
      vertex 2.91684e-15 -13.1363 1.03528
    endloop
  endfacet
  facet normal -0.0813793 0.790711 0.606756
    outer loop
      vertex 3.14672e-15 -14.1716 2.82843
      vertex 2.88576 -13.8746 2.82843
      vertex 3.00557e-15 -13.5359 2
    endloop
  endfacet
  facet normal -0.0813609 0.79075 0.606708
    outer loop
      vertex 2.88576 -13.8746 2.82843
      vertex 2.75632 -13.2523 2
      vertex 3.00557e-15 -13.5359 2
    endloop
  endfacet
  facet normal -0.0625192 0.60758 0.791794
    outer loop
      vertex 3.33067e-15 -15 3.4641
      vertex 3.05446 -14.6857 3.4641
      vertex 3.14672e-15 -14.1716 2.82843
    endloop
  endfacet
  facet normal -0.0625287 0.607551 0.791815
    outer loop
      vertex 3.05446 -14.6857 3.4641
      vertex 2.88576 -13.8746 2.82843
      vertex 3.14672e-15 -14.1716 2.82843
    endloop
  endfacet
  facet normal -0.0393462 0.382394 0.923161
    outer loop
      vertex 3.54488e-15 -15.9647 3.8637
      vertex 3.2509 -15.6302 3.8637
      vertex 3.33067e-15 -15 3.4641
    endloop
  endfacet
  facet normal -0.0393474 0.382389 0.923163
    outer loop
      vertex 3.2509 -15.6302 3.8637
      vertex 3.05446 -14.6857 3.4641
      vertex 3.33067e-15 -15 3.4641
    endloop
  endfacet
  facet normal -0.0134295 0.130515 0.991355
    outer loop
      vertex 3.77476e-15 -17 4
      vertex 3.46172 -16.6438 4
      vertex 3.54488e-15 -15.9647 3.8637
    endloop
  endfacet
  facet normal -0.0134293 0.130516 0.991355
    outer loop
      vertex 3.46172 -16.6438 4
      vertex 3.2509 -15.6302 3.8637
      vertex 3.54488e-15 -15.9647 3.8637
    endloop
  endfacet
  facet normal 0.0134298 -0.130515 0.991355
    outer loop
      vertex 4.00464e-15 -18.0353 3.8637
      vertex 3.67253 -17.6574 3.8637
      vertex 3.77476e-15 -17 4
    endloop
  endfacet
  facet normal 0.0134296 -0.130516 0.991355
    outer loop
      vertex 3.67253 -17.6574 3.8637
      vertex 3.46172 -16.6438 4
      vertex 3.77476e-15 -17 4
    endloop
  endfacet
  facet normal 0.0393465 -0.382394 0.923161
    outer loop
      vertex 4.21885e-15 -19 3.4641
      vertex 3.86898 -18.6019 3.4641
      vertex 4.00464e-15 -18.0353 3.8637
    endloop
  endfacet
  facet normal 0.0393475 -0.382389 0.923163
    outer loop
      vertex 3.86898 -18.6019 3.4641
      vertex 3.67253 -17.6574 3.8637
      vertex 4.00464e-15 -18.0353 3.8637
    endloop
  endfacet
  facet normal 0.0625086 -0.607581 0.791794
    outer loop
      vertex 4.4028e-15 -19.8284 2.82843
      vertex 4.03767 -19.413 2.82843
      vertex 4.21885e-15 -19 3.4641
    endloop
  endfacet
  facet normal 0.0625145 -0.607554 0.791814
    outer loop
      vertex 4.03767 -19.413 2.82843
      vertex 3.86898 -18.6019 3.4641
      vertex 4.21885e-15 -19 3.4641
    endloop
  endfacet
  facet normal 0.0813651 -0.790712 0.606757
    outer loop
      vertex 4.54394e-15 -20.4641 2
      vertex 4.16711 -20.0353 2
      vertex 4.4028e-15 -19.8284 2.82843
    endloop
  endfacet
  facet normal 0.0813534 -0.790751 0.606708
    outer loop
      vertex 4.16711 -20.0353 2
      vertex 4.03767 -19.413 2.82843
      vertex 4.4028e-15 -19.8284 2.82843
    endloop
  endfacet
  facet normal 0.0946258 -0.919734 0.380966
    outer loop
      vertex 4.63267e-15 -20.8637 1.03528
      vertex 4.24848 -20.4266 1.03528
      vertex 4.54394e-15 -20.4641 2
    endloop
  endfacet
  facet normal 0.0946389 -0.919708 0.381025
    outer loop
      vertex 4.24848 -20.4266 1.03528
      vertex 4.16711 -20.0353 2
      vertex 4.54394e-15 -20.4641 2
    endloop
  endfacet
  facet normal 0.101487 -0.986326 0.129855
    outer loop
      vertex 4.66294e-15 -21 0
      vertex 4.27624 -20.56 0
      vertex 4.63267e-15 -20.8637 1.03528
    endloop
  endfacet
  facet normal 0.101478 -0.986332 0.129814
    outer loop
      vertex 4.27624 -20.56 0
      vertex 4.24848 -20.4266 1.03528
      vertex 4.63267e-15 -20.8637 1.03528
    endloop
  endfacet
  facet normal -0.300214 0.944985 0.129903
    outer loop
      vertex 2.67495 -12.8611 1.03528
      vertex 5.23781 -12.0469 1.03528
      vertex 2.6472 -12.7276 0
    endloop
  endfacet
  facet normal -0.300199 0.944996 0.129859
    outer loop
      vertex 5.23781 -12.0469 1.03528
      vertex 5.18346 -11.9219 0
      vertex 2.6472 -12.7276 0
    endloop
  endfacet
  facet normal -0.279929 0.881204 0.380945
    outer loop
      vertex 2.75632 -13.2523 2
      vertex 5.39714 -12.4134 2
      vertex 2.67495 -12.8611 1.03528
    endloop
  endfacet
  facet normal -0.279943 0.881177 0.380996
    outer loop
      vertex 5.39714 -12.4134 2
      vertex 5.23781 -12.0469 1.03528
      vertex 2.67495 -12.8611 1.03528
    endloop
  endfacet
  facet normal -0.24067 0.757616 0.60671
    outer loop
      vertex 2.88576 -13.8746 2.82843
      vertex 5.6506 -12.9963 2.82843
      vertex 2.75632 -13.2523 2
    endloop
  endfacet
  facet normal -0.24067 0.757617 0.606708
    outer loop
      vertex 5.6506 -12.9963 2.82843
      vertex 5.39714 -12.4134 2
      vertex 2.75632 -13.2523 2
    endloop
  endfacet
  facet normal -0.184924 0.582094 0.791815
    outer loop
      vertex 3.05446 -14.6857 3.4641
      vertex 5.98092 -13.756 3.4641
      vertex 2.88576 -13.8746 2.82843
    endloop
  endfacet
  facet normal -0.184921 0.582121 0.791795
    outer loop
      vertex 5.98092 -13.756 3.4641
      vertex 5.6506 -12.9963 2.82843
      vertex 2.88576 -13.8746 2.82843
    endloop
  endfacet
  facet normal -0.116379 0.366368 0.923163
    outer loop
      vertex 3.2509 -15.6302 3.8637
      vertex 6.36558 -14.6408 3.8637
      vertex 3.05446 -14.6857 3.4641
    endloop
  endfacet
  facet normal -0.11638 0.366336 0.923176
    outer loop
      vertex 6.36558 -14.6408 3.8637
      vertex 5.98092 -13.756 3.4641
      vertex 3.05446 -14.6857 3.4641
    endloop
  endfacet
  facet normal -0.0397235 0.125047 0.991355
    outer loop
      vertex 3.46172 -16.6438 4
      vertex 6.77837 -15.5902 4
      vertex 3.2509 -15.6302 3.8637
    endloop
  endfacet
  facet normal -0.0397236 0.125052 0.991355
    outer loop
      vertex 6.77837 -15.5902 4
      vertex 6.36558 -14.6408 3.8637
      vertex 3.2509 -15.6302 3.8637
    endloop
  endfacet
  facet normal 0.0397248 -0.125047 0.991355
    outer loop
      vertex 3.67253 -17.6574 3.8637
      vertex 7.19117 -16.5396 3.8637
      vertex 3.46172 -16.6438 4
    endloop
  endfacet
  facet normal 0.0397249 -0.125051 0.991355
    outer loop
      vertex 7.19117 -16.5396 3.8637
      vertex 6.77837 -15.5902 4
      vertex 3.46172 -16.6438 4
    endloop
  endfacet
  facet normal 0.116388 -0.366365 0.923163
    outer loop
      vertex 3.86898 -18.6019 3.4641
      vertex 7.57583 -17.4243 3.4641
      vertex 3.67253 -17.6574 3.8637
    endloop
  endfacet
  facet normal 0.116388 -0.366368 0.923162
    outer loop
      vertex 7.57583 -17.4243 3.4641
      vertex 7.19117 -16.5396 3.8637
      vertex 3.67253 -17.6574 3.8637
    endloop
  endfacet
  facet normal 0.184929 -0.582094 0.791813
    outer loop
      vertex 4.03767 -19.413 2.82843
      vertex 7.90615 -18.184 2.82843
      vertex 3.86898 -18.6019 3.4641
    endloop
  endfacet
  facet normal 0.184928 -0.582118 0.791795
    outer loop
      vertex 7.90615 -18.184 2.82843
      vertex 7.57583 -17.4243 3.4641
      vertex 3.86898 -18.6019 3.4641
    endloop
  endfacet
  facet normal 0.240672 -0.757615 0.60671
    outer loop
      vertex 4.16711 -20.0353 2
      vertex 8.15961 -18.767 2
      vertex 4.03767 -19.413 2.82843
    endloop
  endfacet
  facet normal 0.240676 -0.757568 0.606767
    outer loop
      vertex 8.15961 -18.767 2
      vertex 7.90615 -18.184 2.82843
      vertex 4.03767 -19.413 2.82843
    endloop
  endfacet
  facet normal 0.279929 -0.881171 0.381022
    outer loop
      vertex 4.24848 -20.4266 1.03528
      vertex 8.31894 -19.1335 1.03528
      vertex 4.16711 -20.0353 2
    endloop
  endfacet
  facet normal 0.279926 -0.881183 0.380996
    outer loop
      vertex 8.31894 -19.1335 1.03528
      vertex 8.15961 -18.767 2
      vertex 4.16711 -20.0353 2
    endloop
  endfacet
  facet normal 0.300197 -0.945002 0.129817
    outer loop
      vertex 4.27624 -20.56 0
      vertex 8.37329 -19.2585 0
      vertex 4.24848 -20.4266 1.03528
    endloop
  endfacet
  facet normal 0.300205 -0.944994 0.129859
    outer loop
      vertex 8.37329 -19.2585 0
      vertex 8.31894 -19.1335 1.03528
      vertex 4.24848 -20.4266 1.03528
    endloop
  endfacet
  facet normal -0.486349 0.864061 0.129859
    outer loop
      vertex 5.23781 -12.0469 1.03528
      vertex 7.58118 -10.7279 1.03528
      vertex 5.18346 -11.9219 0
    endloop
  endfacet
  facet normal -0.486345 0.864065 0.129845
    outer loop
      vertex 7.58118 -10.7279 1.03528
      vertex 7.50252 -10.6166 0
      vertex 5.18346 -11.9219 0
    endloop
  endfacet
  facet normal -0.453527 0.805704 0.380992
    outer loop
      vertex 5.39714 -12.4134 2
      vertex 7.8118 -11.0542 2
      vertex 5.23781 -12.0469 1.03528
    endloop
  endfacet
  facet normal -0.453518 0.805733 0.380941
    outer loop
      vertex 7.8118 -11.0542 2
      vertex 7.58118 -10.7279 1.03528
      vertex 5.23781 -12.0469 1.03528
    endloop
  endfacet
  facet normal -0.389901 0.692733 0.606712
    outer loop
      vertex 5.6506 -12.9963 2.82843
      vertex 8.17865 -11.5734 2.82843
      vertex 5.39714 -12.4134 2
    endloop
  endfacet
  facet normal -0.389903 0.692674 0.606777
    outer loop
      vertex 8.17865 -11.5734 2.82843
      vertex 7.8118 -11.0542 2
      vertex 5.39714 -12.4134 2
    endloop
  endfacet
  facet normal -0.299587 0.532265 0.791796
    outer loop
      vertex 5.98092 -13.756 3.4641
      vertex 8.65675 -12.2499 3.4641
      vertex 5.6506 -12.9963 2.82843
    endloop
  endfacet
  facet normal -0.299588 0.532275 0.79179
    outer loop
      vertex 8.65675 -12.2499 3.4641
      vertex 8.17865 -11.5734 2.82843
      vertex 5.6506 -12.9963 2.82843
    endloop
  endfacet
  facet normal -0.18854 0.334965 0.923175
    outer loop
      vertex 6.36558 -14.6408 3.8637
      vertex 9.21351 -13.0378 3.8637
      vertex 5.98092 -13.756 3.4641
    endloop
  endfacet
  facet normal -0.188542 0.334975 0.923171
    outer loop
      vertex 9.21351 -13.0378 3.8637
      vertex 8.65675 -12.2499 3.4641
      vertex 5.98092 -13.756 3.4641
    endloop
  endfacet
  facet normal -0.0643598 0.11434 0.991355
    outer loop
      vertex 6.77837 -15.5902 4
      vertex 9.81099 -13.8832 4
      vertex 6.36558 -14.6408 3.8637
    endloop
  endfacet
  facet normal -0.0643608 0.114345 0.991354
    outer loop
      vertex 9.81099 -13.8832 4
      vertex 9.21351 -13.0378 3.8637
      vertex 6.36558 -14.6408 3.8637
    endloop
  endfacet
  facet normal 0.0643575 -0.114341 0.991355
    outer loop
      vertex 7.19117 -16.5396 3.8637
      vertex 10.4085 -14.7287 3.8637
      vertex 6.77837 -15.5902 4
    endloop
  endfacet
  facet normal 0.0643557 -0.114333 0.991356
    outer loop
      vertex 10.4085 -14.7287 3.8637
      vertex 9.81099 -13.8832 4
      vertex 6.77837 -15.5902 4
    endloop
  endfacet
  facet normal 0.18855 -0.334993 0.923162
    outer loop
      vertex 7.57583 -17.4243 3.4641
      vertex 10.9652 -15.5166 3.4641
      vertex 7.19117 -16.5396 3.8637
    endloop
  endfacet
  facet normal 0.188548 -0.334983 0.923167
    outer loop
      vertex 10.9652 -15.5166 3.4641
      vertex 10.4085 -14.7287 3.8637
      vertex 7.19117 -16.5396 3.8637
    endloop
  endfacet
  facet normal 0.299587 -0.532265 0.791796
    outer loop
      vertex 7.90615 -18.184 2.82843
      vertex 11.4433 -16.1931 2.82843
      vertex 7.57583 -17.4243 3.4641
    endloop
  endfacet
  facet normal 0.299589 -0.532274 0.79179
    outer loop
      vertex 11.4433 -16.1931 2.82843
      vertex 10.9652 -15.5166 3.4641
      vertex 7.57583 -17.4243 3.4641
    endloop
  endfacet
  facet normal 0.389894 -0.692691 0.606764
    outer loop
      vertex 8.15961 -18.767 2
      vertex 11.8102 -16.7122 2
      vertex 7.90615 -18.184 2.82843
    endloop
  endfacet
  facet normal 0.389896 -0.692712 0.606738
    outer loop
      vertex 11.8102 -16.7122 2
      vertex 11.4433 -16.1931 2.82843
      vertex 7.90615 -18.184 2.82843
    endloop
  endfacet
  facet normal 0.453507 -0.805714 0.380993
    outer loop
      vertex 8.31894 -19.1335 1.03528
      vertex 12.0408 -17.0386 1.03528
      vertex 8.15961 -18.767 2
    endloop
  endfacet
  facet normal 0.453508 -0.805709 0.381004
    outer loop
      vertex 12.0408 -17.0386 1.03528
      vertex 11.8102 -16.7122 2
      vertex 8.15961 -18.767 2
    endloop
  endfacet
  facet normal 0.486348 -0.864062 0.129859
    outer loop
      vertex 8.37329 -19.2585 0
      vertex 12.1195 -17.1499 0
      vertex 8.31894 -19.1335 1.03528
    endloop
  endfacet
  facet normal 0.486348 -0.864061 0.129864
    outer loop
      vertex 12.1195 -17.1499 0
      vertex 12.0408 -17.0386 1.03528
      vertex 8.31894 -19.1335 1.03528
    endloop
  endfacet
  facet normal -0.652104 0.746927 0.129847
    outer loop
      vertex 7.58118 -10.7279 1.03528
      vertex 9.60686 -8.95938 1.03528
      vertex 7.50252 -10.6166 0
    endloop
  endfacet
  facet normal -0.652105 0.746926 0.129848
    outer loop
      vertex 9.60686 -8.95938 1.03528
      vertex 9.50719 -8.86642 0
      vertex 7.50252 -10.6166 0
    endloop
  endfacet
  facet normal -0.608075 0.696509 0.380945
    outer loop
      vertex 7.8118 -11.0542 2
      vertex 9.8991 -9.23192 2
      vertex 7.58118 -10.7279 1.03528
    endloop
  endfacet
  facet normal -0.608076 0.696496 0.380968
    outer loop
      vertex 9.8991 -9.23192 2
      vertex 9.60686 -8.95938 1.03528
      vertex 7.58118 -10.7279 1.03528
    endloop
  endfacet
  facet normal -0.52277 0.598783 0.60677
    outer loop
      vertex 8.17865 -11.5734 2.82843
      vertex 10.364 -9.66547 2.82843
      vertex 7.8118 -11.0542 2
    endloop
  endfacet
  facet normal -0.522774 0.598802 0.606748
    outer loop
      vertex 10.364 -9.66547 2.82843
      vertex 9.8991 -9.23192 2
      vertex 7.8118 -11.0542 2
    endloop
  endfacet
  facet normal -0.401699 0.460112 0.791792
    outer loop
      vertex 8.65675 -12.2499 3.4641
      vertex 10.9698 -10.2305 3.4641
      vertex 8.17865 -11.5734 2.82843
    endloop
  endfacet
  facet normal -0.401697 0.460105 0.791797
    outer loop
      vertex 10.9698 -10.2305 3.4641
      vertex 10.364 -9.66547 2.82843
      vertex 8.17865 -11.5734 2.82843
    endloop
  endfacet
  facet normal -0.2528 0.289567 0.92317
    outer loop
      vertex 9.21351 -13.0378 3.8637
      vertex 11.6754 -10.8885 3.8637
      vertex 8.65675 -12.2499 3.4641
    endloop
  endfacet
  facet normal -0.252796 0.289556 0.923175
    outer loop
      vertex 11.6754 -10.8885 3.8637
      vertex 10.9698 -10.2305 3.4641
      vertex 8.65675 -12.2499 3.4641
    endloop
  endfacet
  facet normal -0.0862948 0.0988433 0.991354
    outer loop
      vertex 9.81099 -13.8832 4
      vertex 12.4325 -11.5945 4
      vertex 9.21351 -13.0378 3.8637
    endloop
  endfacet
  facet normal -0.0862966 0.0988475 0.991354
    outer loop
      vertex 12.4325 -11.5945 4
      vertex 11.6754 -10.8885 3.8637
      vertex 9.21351 -13.0378 3.8637
    endloop
  endfacet
  facet normal 0.0862885 -0.0988333 0.991356
    outer loop
      vertex 10.4085 -14.7287 3.8637
      vertex 13.1896 -12.3006 3.8637
      vertex 9.81099 -13.8832 4
    endloop
  endfacet
  facet normal 0.0862914 -0.0988394 0.991355
    outer loop
      vertex 13.1896 -12.3006 3.8637
      vertex 12.4325 -11.5945 4
      vertex 9.81099 -13.8832 4
    endloop
  endfacet
  facet normal 0.252816 -0.289572 0.923164
    outer loop
      vertex 10.9652 -15.5166 3.4641
      vertex 13.8951 -12.9586 3.4641
      vertex 10.4085 -14.7287 3.8637
    endloop
  endfacet
  facet normal 0.252814 -0.289569 0.923166
    outer loop
      vertex 13.8951 -12.9586 3.4641
      vertex 13.1896 -12.3006 3.8637
      vertex 10.4085 -14.7287 3.8637
    endloop
  endfacet
  facet normal 0.401698 -0.460113 0.791792
    outer loop
      vertex 11.4433 -16.1931 2.82843
      vertex 14.501 -13.5236 2.82843
      vertex 10.9652 -15.5166 3.4641
    endloop
  endfacet
  facet normal 0.401687 -0.460087 0.791813
    outer loop
      vertex 14.501 -13.5236 2.82843
      vertex 13.8951 -12.9586 3.4641
      vertex 10.9652 -15.5166 3.4641
    endloop
  endfacet
  facet normal 0.522772 -0.598807 0.606745
    outer loop
      vertex 11.8102 -16.7122 2
      vertex 14.9659 -13.9572 2
      vertex 11.4433 -16.1931 2.82843
    endloop
  endfacet
  facet normal 0.522765 -0.598786 0.606771
    outer loop
      vertex 14.9659 -13.9572 2
      vertex 14.501 -13.5236 2.82843
      vertex 11.4433 -16.1931 2.82843
    endloop
  endfacet
  facet normal 0.608073 -0.696484 0.380995
    outer loop
      vertex 12.0408 -17.0386 1.03528
      vertex 15.2581 -14.2297 1.03528
      vertex 11.8102 -16.7122 2
    endloop
  endfacet
  facet normal 0.608078 -0.69652 0.380921
    outer loop
      vertex 15.2581 -14.2297 1.03528
      vertex 14.9659 -13.9572 2
      vertex 11.8102 -16.7122 2
    endloop
  endfacet
  facet normal 0.652103 -0.746924 0.129871
    outer loop
      vertex 12.1195 -17.1499 0
      vertex 15.3578 -14.3227 0
      vertex 12.0408 -17.0386 1.03528
    endloop
  endfacet
  facet normal 0.652105 -0.746918 0.129896
    outer loop
      vertex 15.3578 -14.3227 0
      vertex 15.2581 -14.2297 1.03528
      vertex 12.0408 -17.0386 1.03528
    endloop
  endfacet
  facet normal -0.790536 0.598492 0.129848
    outer loop
      vertex 9.60686 -8.95938 1.03528
      vertex 11.23 -6.81541 1.03528
      vertex 9.50719 -8.86642 0
    endloop
  endfacet
  facet normal -0.790535 0.598495 0.129842
    outer loop
      vertex 11.23 -6.81541 1.03528
      vertex 11.1135 -6.74469 0
      vertex 9.50719 -8.86642 0
    endloop
  endfacet
  facet normal -0.737163 0.55808 0.380968
    outer loop
      vertex 9.8991 -9.23192 2
      vertex 11.5716 -7.02273 2
      vertex 9.60686 -8.95938 1.03528
    endloop
  endfacet
  facet normal -0.737164 0.558086 0.380958
    outer loop
      vertex 11.5716 -7.02273 2
      vertex 11.23 -6.81541 1.03528
      vertex 9.60686 -8.95938 1.03528
    endloop
  endfacet
  facet normal -0.633765 0.479789 0.60675
    outer loop
      vertex 10.364 -9.66547 2.82843
      vertex 12.115 -7.35253 2.82843
      vertex 9.8991 -9.23192 2
    endloop
  endfacet
  facet normal -0.633772 0.479806 0.606728
    outer loop
      vertex 12.115 -7.35253 2.82843
      vertex 11.5716 -7.02273 2
      vertex 9.8991 -9.23192 2
    endloop
  endfacet
  facet normal -0.486976 0.368669 0.791794
    outer loop
      vertex 10.9698 -10.2305 3.4641
      vertex 12.8232 -7.78234 3.4641
      vertex 10.364 -9.66547 2.82843
    endloop
  endfacet
  facet normal -0.48697 0.368658 0.791803
    outer loop
      vertex 12.8232 -7.78234 3.4641
      vertex 12.115 -7.35253 2.82843
      vertex 10.364 -9.66547 2.82843
    endloop
  endfacet
  facet normal -0.306463 0.232008 0.923176
    outer loop
      vertex 11.6754 -10.8885 3.8637
      vertex 13.648 -8.28286 3.8637
      vertex 10.9698 -10.2305 3.4641
    endloop
  endfacet
  facet normal -0.306466 0.232013 0.923173
    outer loop
      vertex 13.648 -8.28286 3.8637
      vertex 12.8232 -7.78234 3.4641
      vertex 10.9698 -10.2305 3.4641
    endloop
  endfacet
  facet normal -0.104616 0.0792019 0.991354
    outer loop
      vertex 12.4325 -11.5945 4
      vertex 14.533 -8.81999 4
      vertex 11.6754 -10.8885 3.8637
    endloop
  endfacet
  facet normal -0.104613 0.0791972 0.991355
    outer loop
      vertex 14.533 -8.81999 4
      vertex 13.648 -8.28286 3.8637
      vertex 11.6754 -10.8885 3.8637
    endloop
  endfacet
  facet normal 0.104611 -0.0791967 0.991355
    outer loop
      vertex 13.1896 -12.3006 3.8637
      vertex 15.418 -9.35711 3.8637
      vertex 12.4325 -11.5945 4
    endloop
  endfacet
  facet normal 0.104613 -0.0791991 0.991354
    outer loop
      vertex 15.418 -9.35711 3.8637
      vertex 14.533 -8.81999 4
      vertex 12.4325 -11.5945 4
    endloop
  endfacet
  facet normal 0.306478 -0.23203 0.923165
    outer loop
      vertex 13.8951 -12.9586 3.4641
      vertex 16.2428 -9.85763 3.4641
      vertex 13.1896 -12.3006 3.8637
    endloop
  endfacet
  facet normal 0.306466 -0.232013 0.923173
    outer loop
      vertex 16.2428 -9.85763 3.4641
      vertex 15.418 -9.35711 3.8637
      vertex 13.1896 -12.3006 3.8637
    endloop
  endfacet
  facet normal 0.486953 -0.368653 0.791816
    outer loop
      vertex 14.501 -13.5236 2.82843
      vertex 16.951 -10.2874 2.82843
      vertex 13.8951 -12.9586 3.4641
    endloop
  endfacet
  facet normal 0.48697 -0.368678 0.791793
    outer loop
      vertex 16.951 -10.2874 2.82843
      vertex 16.2428 -9.85763 3.4641
      vertex 13.8951 -12.9586 3.4641
    endloop
  endfacet
  facet normal 0.633757 -0.479777 0.606768
    outer loop
      vertex 14.9659 -13.9572 2
      vertex 17.4944 -10.6172 2
      vertex 14.501 -13.5236 2.82843
    endloop
  endfacet
  facet normal 0.633773 -0.479805 0.606728
    outer loop
      vertex 17.4944 -10.6172 2
      vertex 16.951 -10.2874 2.82843
      vertex 14.501 -13.5236 2.82843
    endloop
  endfacet
  facet normal 0.737176 -0.558094 0.380923
    outer loop
      vertex 15.2581 -14.2297 1.03528
      vertex 17.836 -10.8246 1.03528
      vertex 14.9659 -13.9572 2
    endloop
  endfacet
  facet normal 0.737164 -0.558059 0.380998
    outer loop
      vertex 17.836 -10.8246 1.03528
      vertex 17.4944 -10.6172 2
      vertex 14.9659 -13.9572 2
    endloop
  endfacet
  facet normal 0.790541 -0.598476 0.129893
    outer loop
      vertex 15.3578 -14.3227 0
      vertex 17.9525 -10.8953 0
      vertex 15.2581 -14.2297 1.03528
    endloop
  endfacet
  facet normal 0.790538 -0.598493 0.129831
    outer loop
      vertex 17.9525 -10.8953 0
      vertex 17.836 -10.8246 1.03528
      vertex 15.2581 -14.2297 1.03528
    endloop
  endfacet
  facet normal -0.895851 0.424961 0.129839
    outer loop
      vertex 11.23 -6.81541 1.03528
      vertex 12.3825 -4.38585 1.03528
      vertex 11.1135 -6.74469 0
    endloop
  endfacet
  facet normal -0.895853 0.424947 0.129874
    outer loop
      vertex 12.3825 -4.38585 1.03528
      vertex 12.254 -4.34034 0
      vertex 11.1135 -6.74469 0
    endloop
  endfacet
  facet normal -0.835364 0.396281 0.380957
    outer loop
      vertex 11.5716 -7.02273 2
      vertex 12.7592 -4.51926 2
      vertex 11.23 -6.81541 1.03528
    endloop
  endfacet
  facet normal -0.835358 0.396265 0.380986
    outer loop
      vertex 12.7592 -4.51926 2
      vertex 12.3825 -4.38585 1.03528
      vertex 11.23 -6.81541 1.03528
    endloop
  endfacet
  facet normal -0.718194 0.340705 0.606727
    outer loop
      vertex 12.115 -7.35253 2.82843
      vertex 13.3584 -4.73149 2.82843
      vertex 11.5716 -7.02273 2
    endloop
  endfacet
  facet normal -0.718187 0.340694 0.606742
    outer loop
      vertex 13.3584 -4.73149 2.82843
      vertex 12.7592 -4.51926 2
      vertex 11.5716 -7.02273 2
    endloop
  endfacet
  facet normal -0.551831 0.261787 0.791802
    outer loop
      vertex 12.8232 -7.78234 3.4641
      vertex 14.1393 -5.00808 3.4641
      vertex 12.115 -7.35253 2.82843
    endloop
  endfacet
  facet normal -0.551827 0.261782 0.791807
    outer loop
      vertex 14.1393 -5.00808 3.4641
      vertex 13.3584 -4.73149 2.82843
      vertex 12.115 -7.35253 2.82843
    endloop
  endfacet
  facet normal -0.347291 0.164737 0.923174
    outer loop
      vertex 13.648 -8.28286 3.8637
      vertex 15.0486 -5.33018 3.8637
      vertex 12.8232 -7.78234 3.4641
    endloop
  endfacet
  facet normal -0.347323 0.164769 0.923156
    outer loop
      vertex 15.0486 -5.33018 3.8637
      vertex 14.1393 -5.00808 3.4641
      vertex 12.8232 -7.78234 3.4641
    endloop
  endfacet
  facet normal -0.118549 0.0562361 0.991354
    outer loop
      vertex 14.533 -8.81999 4
      vertex 16.0245 -5.67583 4
      vertex 13.648 -8.28286 3.8637
    endloop
  endfacet
  facet normal -0.118543 0.0562305 0.991356
    outer loop
      vertex 16.0245 -5.67583 4
      vertex 15.0486 -5.33018 3.8637
      vertex 13.648 -8.28286 3.8637
    endloop
  endfacet
  facet normal 0.118548 -0.0562383 0.991354
    outer loop
      vertex 15.418 -9.35711 3.8637
      vertex 17.0004 -6.02148 3.8637
      vertex 14.533 -8.81999 4
    endloop
  endfacet
  facet normal 0.118542 -0.0562328 0.991355
    outer loop
      vertex 17.0004 -6.02148 3.8637
      vertex 16.0245 -5.67583 4
      vertex 14.533 -8.81999 4
    endloop
  endfacet
  facet normal 0.347291 -0.164738 0.923174
    outer loop
      vertex 16.2428 -9.85763 3.4641
      vertex 17.9097 -6.34357 3.4641
      vertex 15.418 -9.35711 3.8637
    endloop
  endfacet
  facet normal 0.347325 -0.164769 0.923156
    outer loop
      vertex 17.9097 -6.34357 3.4641
      vertex 17.0004 -6.02148 3.8637
      vertex 15.418 -9.35711 3.8637
    endloop
  endfacet
  facet normal 0.551846 -0.261775 0.791795
    outer loop
      vertex 16.951 -10.2874 2.82843
      vertex 18.6906 -6.62016 2.82843
      vertex 16.2428 -9.85763 3.4641
    endloop
  endfacet
  facet normal 0.551834 -0.261763 0.791808
    outer loop
      vertex 18.6906 -6.62016 2.82843
      vertex 17.9097 -6.34357 3.4641
      vertex 16.2428 -9.85763 3.4641
    endloop
  endfacet
  facet normal 0.7182 -0.340693 0.606727
    outer loop
      vertex 17.4944 -10.6172 2
      vertex 19.2898 -6.8324 2
      vertex 16.951 -10.2874 2.82843
    endloop
  endfacet
  facet normal 0.71819 -0.340682 0.606745
    outer loop
      vertex 19.2898 -6.8324 2
      vertex 18.6906 -6.62016 2.82843
      vertex 16.951 -10.2874 2.82843
    endloop
  endfacet
  facet normal 0.835357 -0.396269 0.380985
    outer loop
      vertex 17.836 -10.8246 1.03528
      vertex 19.6665 -6.96581 1.03528
      vertex 17.4944 -10.6172 2
    endloop
  endfacet
  facet normal 0.835356 -0.396269 0.380986
    outer loop
      vertex 19.6665 -6.96581 1.03528
      vertex 19.2898 -6.8324 2
      vertex 17.4944 -10.6172 2
    endloop
  endfacet
  facet normal 0.895846 -0.424975 0.129831
    outer loop
      vertex 17.9525 -10.8953 0
      vertex 19.795 -7.01132 0
      vertex 17.836 -10.8246 1.03528
    endloop
  endfacet
  facet normal 0.895845 -0.424963 0.129874
    outer loop
      vertex 19.795 -7.01132 0
      vertex 19.6665 -6.96581 1.03528
      vertex 17.836 -10.8246 1.03528
    endloop
  endfacet
  facet normal -0.963605 0.233661 0.129875
    outer loop
      vertex 12.3825 -4.38585 1.03528
      vertex 13.0162 -1.7725 1.03528
      vertex 12.254 -4.34034 0
    endloop
  endfacet
  facet normal -0.963604 0.233651 0.129899
    outer loop
      vertex 13.0162 -1.7725 1.03528
      vertex 12.8811 -1.7541 0
      vertex 12.254 -4.34034 0
    endloop
  endfacet
  facet normal -0.898546 0.217859 0.380988
    outer loop
      vertex 12.7592 -4.51926 2
      vertex 13.4121 -1.82641 2
      vertex 12.3825 -4.38585 1.03528
    endloop
  endfacet
  facet normal -0.898565 0.217889 0.380927
    outer loop
      vertex 13.4121 -1.82641 2
      vertex 13.0162 -1.7725 1.03528
      vertex 12.3825 -4.38585 1.03528
    endloop
  endfacet
  facet normal -0.772514 0.187313 0.606742
    outer loop
      vertex 13.3584 -4.73149 2.82843
      vertex 14.042 -1.91219 2.82843
      vertex 12.7592 -4.51926 2
    endloop
  endfacet
  facet normal -0.772499 0.187298 0.606766
    outer loop
      vertex 14.042 -1.91219 2.82843
      vertex 13.4121 -1.82641 2
      vertex 12.7592 -4.51926 2
    endloop
  endfacet
  facet normal -0.593575 0.143913 0.791807
    outer loop
      vertex 14.1393 -5.00808 3.4641
      vertex 14.8628 -2.02397 3.4641
      vertex 13.3584 -4.73149 2.82843
    endloop
  endfacet
  facet normal -0.593599 0.143931 0.791786
    outer loop
      vertex 14.8628 -2.02397 3.4641
      vertex 14.042 -1.91219 2.82843
      vertex 13.3584 -4.73149 2.82843
    endloop
  endfacet
  facet normal -0.3736 0.0905875 0.923156
    outer loop
      vertex 15.0486 -5.33018 3.8637
      vertex 15.8187 -2.15414 3.8637
      vertex 14.1393 -5.00808 3.4641
    endloop
  endfacet
  facet normal -0.373581 0.0905751 0.923165
    outer loop
      vertex 15.8187 -2.15414 3.8637
      vertex 14.8628 -2.02397 3.4641
      vertex 14.1393 -5.00808 3.4641
    endloop
  endfacet
  facet normal -0.127509 0.0309158 0.991356
    outer loop
      vertex 16.0245 -5.67583 4
      vertex 16.8445 -2.29383 4
      vertex 15.0486 -5.33018 3.8637
    endloop
  endfacet
  facet normal -0.127513 0.0309183 0.991355
    outer loop
      vertex 16.8445 -2.29383 4
      vertex 15.8187 -2.15414 3.8637
      vertex 15.0486 -5.33018 3.8637
    endloop
  endfacet
  facet normal 0.127509 -0.0309146 0.991355
    outer loop
      vertex 17.0004 -6.02148 3.8637
      vertex 17.8703 -2.43352 3.8637
      vertex 16.0245 -5.67583 4
    endloop
  endfacet
  facet normal 0.127513 -0.0309168 0.991355
    outer loop
      vertex 17.8703 -2.43352 3.8637
      vertex 16.8445 -2.29383 4
      vertex 16.0245 -5.67583 4
    endloop
  endfacet
  facet normal 0.373602 -0.0905864 0.923155
    outer loop
      vertex 17.9097 -6.34357 3.4641
      vertex 18.8262 -2.56369 3.4641
      vertex 17.0004 -6.02148 3.8637
    endloop
  endfacet
  facet normal 0.373581 -0.0905747 0.923165
    outer loop
      vertex 18.8262 -2.56369 3.4641
      vertex 17.8703 -2.43352 3.8637
      vertex 17.0004 -6.02148 3.8637
    endloop
  endfacet
  facet normal 0.593571 -0.143928 0.791807
    outer loop
      vertex 18.6906 -6.62016 2.82843
      vertex 19.6471 -2.67547 2.82843
      vertex 17.9097 -6.34357 3.4641
    endloop
  endfacet
  facet normal 0.593555 -0.143918 0.791821
    outer loop
      vertex 19.6471 -2.67547 2.82843
      vertex 18.8262 -2.56369 3.4641
      vertex 17.9097 -6.34357 3.4641
    endloop
  endfacet
  facet normal 0.77251 -0.187323 0.606744
    outer loop
      vertex 19.2898 -6.8324 2
      vertex 20.277 -2.76124 2
      vertex 18.6906 -6.62016 2.82843
    endloop
  endfacet
  facet normal 0.772497 -0.187313 0.606764
    outer loop
      vertex 20.277 -2.76124 2
      vertex 19.6471 -2.67547 2.82843
      vertex 18.6906 -6.62016 2.82843
    endloop
  endfacet
  facet normal 0.898544 -0.217868 0.380989
    outer loop
      vertex 19.6665 -6.96581 1.03528
      vertex 20.6729 -2.81516 1.03528
      vertex 19.2898 -6.8324 2
    endloop
  endfacet
  facet normal 0.898564 -0.217889 0.380929
    outer loop
      vertex 20.6729 -2.81516 1.03528
      vertex 20.277 -2.76124 2
      vertex 19.2898 -6.8324 2
    endloop
  endfacet
  facet normal 0.963608 -0.23365 0.129875
    outer loop
      vertex 19.795 -7.01132 0
      vertex 20.808 -2.83355 0
      vertex 19.6665 -6.96581 1.03528
    endloop
  endfacet
  facet normal 0.963606 -0.233644 0.129897
    outer loop
      vertex 20.808 -2.83355 0
      vertex 20.6729 -2.81516 1.03528
      vertex 19.6665 -6.96581 1.03528
    endloop
  endfacet
  facet normal -0.990994 0.0325215 0.129899
    outer loop
      vertex 13.0162 -1.7725 1.03528
      vertex 13.1044 0.915129 1.03528
      vertex 12.8811 -1.7541 0
    endloop
  endfacet
  facet normal -0.990995 0.0325273 0.129884
    outer loop
      vertex 13.1044 0.915129 1.03528
      vertex 12.9684 0.905634 0
      vertex 12.8811 -1.7541 0
    endloop
  endfacet
  facet normal -0.924107 0.0303322 0.380928
    outer loop
      vertex 13.4121 -1.82641 2
      vertex 13.503 0.942967 2
      vertex 13.0162 -1.7725 1.03528
    endloop
  endfacet
  facet normal -0.924101 0.0303263 0.380942
    outer loop
      vertex 13.503 0.942967 2
      vertex 13.1044 0.915129 1.03528
      vertex 13.0162 -1.7725 1.03528
    endloop
  endfacet
  facet normal -0.794454 0.0260576 0.606765
    outer loop
      vertex 14.042 -1.91219 2.82843
      vertex 14.1371 0.987251 2.82843
      vertex 13.4121 -1.82641 2
    endloop
  endfacet
  facet normal -0.794485 0.0260776 0.606724
    outer loop
      vertex 14.1371 0.987251 2.82843
      vertex 13.503 0.942967 2
      vertex 13.4121 -1.82641 2
    endloop
  endfacet
  facet normal -0.610469 0.0200511 0.791786
    outer loop
      vertex 14.8628 -2.02397 3.4641
      vertex 14.9636 1.04496 3.4641
      vertex 14.042 -1.91219 2.82843
    endloop
  endfacet
  facet normal -0.610407 0.020021 0.791835
    outer loop
      vertex 14.9636 1.04496 3.4641
      vertex 14.1371 0.987251 2.82843
      vertex 14.042 -1.91219 2.82843
    endloop
  endfacet
  facet normal -0.384198 0.0126094 0.923164
    outer loop
      vertex 15.8187 -2.15414 3.8637
      vertex 15.9259 1.11217 3.8637
      vertex 14.8628 -2.02397 3.4641
    endloop
  endfacet
  facet normal -0.384225 0.01262 0.923153
    outer loop
      vertex 15.9259 1.11217 3.8637
      vertex 14.9636 1.04496 3.4641
      vertex 14.8628 -2.02397 3.4641
    endloop
  endfacet
  facet normal -0.131137 0.00430573 0.991355
    outer loop
      vertex 16.8445 -2.29383 4
      vertex 16.9587 1.18429 4
      vertex 15.8187 -2.15414 3.8637
    endloop
  endfacet
  facet normal -0.131131 0.00430371 0.991356
    outer loop
      vertex 16.9587 1.18429 4
      vertex 15.9259 1.11217 3.8637
      vertex 15.8187 -2.15414 3.8637
    endloop
  endfacet
  facet normal 0.131137 -0.00430733 0.991355
    outer loop
      vertex 17.8703 -2.43352 3.8637
      vertex 17.9915 1.25641 3.8637
      vertex 16.8445 -2.29383 4
    endloop
  endfacet
  facet normal 0.131131 -0.00430554 0.991356
    outer loop
      vertex 17.9915 1.25641 3.8637
      vertex 16.9587 1.18429 4
      vertex 16.8445 -2.29383 4
    endloop
  endfacet
  facet normal 0.384198 -0.0126112 0.923165
    outer loop
      vertex 18.8262 -2.56369 3.4641
      vertex 18.9538 1.32362 3.4641
      vertex 17.8703 -2.43352 3.8637
    endloop
  endfacet
  facet normal 0.384225 -0.0126203 0.923153
    outer loop
      vertex 18.9538 1.32362 3.4641
      vertex 17.9915 1.25641 3.8637
      vertex 17.8703 -2.43352 3.8637
    endloop
  endfacet
  facet normal 0.610424 -0.0200425 0.791821
    outer loop
      vertex 19.6471 -2.67547 2.82843
      vertex 19.7803 1.38133 2.82843
      vertex 18.8262 -2.56369 3.4641
    endloop
  endfacet
  facet normal 0.610407 -0.0200365 0.791834
    outer loop
      vertex 19.7803 1.38133 2.82843
      vertex 18.9538 1.32362 3.4641
      vertex 18.8262 -2.56369 3.4641
    endloop
  endfacet
  facet normal 0.794454 -0.0260716 0.606765
    outer loop
      vertex 20.277 -2.76124 2
      vertex 20.4144 1.42561 2
      vertex 19.6471 -2.67547 2.82843
    endloop
  endfacet
  facet normal 0.794485 -0.0260859 0.606723
    outer loop
      vertex 20.4144 1.42561 2
      vertex 19.7803 1.38133 2.82843
      vertex 19.6471 -2.67547 2.82843
    endloop
  endfacet
  facet normal 0.924107 -0.0303301 0.380928
    outer loop
      vertex 20.6729 -2.81516 1.03528
      vertex 20.813 1.45345 1.03528
      vertex 20.277 -2.76124 2
    endloop
  endfacet
  facet normal 0.924101 -0.0303263 0.380942
    outer loop
      vertex 20.813 1.45345 1.03528
      vertex 20.4144 1.42561 2
      vertex 20.277 -2.76124 2
    endloop
  endfacet
  facet normal 0.990994 -0.0325218 0.129899
    outer loop
      vertex 20.808 -2.83355 0
      vertex 20.949 1.46295 0
      vertex 20.6729 -2.81516 1.03528
    endloop
  endfacet
  facet normal 0.990996 -0.0325255 0.129884
    outer loop
      vertex 20.949 1.46295 0
      vertex 20.813 1.45345 1.03528
      vertex 20.6729 -2.81516 1.03528
    endloop
  endfacet
  facet normal 0.0863814 -0.987777 -0.129748
    outer loop
      vertex 3.12606e-15 -14.0785 0.776457
      vertex 3.10529e-15 -13.985 0.0646385
      vertex 2.69067 -13.8432 0.776457
    endloop
  endfacet
  facet normal 0.0864185 -0.987755 -0.12989
    outer loop
      vertex 2.67117 -13.7428 0
      vertex 3.10529e-15 -13.985 0.0646385
      vertex 3.10341e-15 -13.9765 0
    endloop
  endfacet
  facet normal 0.0864184 -0.987755 -0.129892
    outer loop
      vertex 3.10529e-15 -13.985 0.0646385
      vertex 2.67117 -13.7428 0
      vertex 2.69067 -13.8432 0.776457
    endloop
  endfacet
  facet normal 0.0805508 -0.921105 -0.38089
    outer loop
      vertex 3.1925e-15 -14.3777 1.5
      vertex 3.13153e-15 -14.1031 0.835935
      vertex 2.74785 -14.1374 1.5
    endloop
  endfacet
  facet normal 0.0805486 -0.921078 -0.380956
    outer loop
      vertex 2.69067 -13.8432 0.776457
      vertex 3.13153e-15 -14.1031 0.835935
      vertex 3.12606e-15 -14.0785 0.776457
    endloop
  endfacet
  facet normal 0.0805523 -0.921103 -0.380896
    outer loop
      vertex 3.13153e-15 -14.1031 0.835935
      vertex 2.69067 -13.8432 0.776457
      vertex 2.74785 -14.1374 1.5
    endloop
  endfacet
  facet normal 0.0692979 -0.791965 -0.606621
    outer loop
      vertex 3.29818e-15 -14.8537 2.12132
      vertex 3.2011e-15 -14.4165 1.55054
      vertex 2.83882 -14.6053 2.12132
    endloop
  endfacet
  facet normal 0.0691998 -0.791306 -0.607492
    outer loop
      vertex 2.74785 -14.1374 1.5
      vertex 3.2011e-15 -14.4165 1.55054
      vertex 3.1925e-15 -14.3777 1.5
    endloop
  endfacet
  facet normal 0.069287 -0.791999 -0.606578
    outer loop
      vertex 3.2011e-15 -14.4165 1.55054
      vertex 2.74785 -14.1374 1.5
      vertex 2.83882 -14.6053 2.12132
    endloop
  endfacet
  facet normal 0.0532342 -0.608554 -0.791725
    outer loop
      vertex 3.43591e-15 -15.474 2.59808
      vertex 3.3093e-15 -14.9038 2.1598
      vertex 2.95736 -15.2153 2.59808
    endloop
  endfacet
  facet normal 0.0532492 -0.608484 -0.791777
    outer loop
      vertex 3.3093e-15 -14.9038 2.1598
      vertex 2.83882 -14.6053 2.12132
      vertex 2.95736 -15.2153 2.59808
    endloop
  endfacet
  facet normal 0.053224 -0.608266 -0.791947
    outer loop
      vertex 2.83882 -14.6053 2.12132
      vertex 3.3093e-15 -14.9038 2.1598
      vertex 3.29818e-15 -14.8537 2.12132
    endloop
  endfacet
  facet normal 0.0335075 -0.383012 -0.923136
    outer loop
      vertex 3.5963e-15 -16.1963 2.89778
      vertex 3.4488e-15 -15.532 2.62216
      vertex 3.09541 -15.9255 2.89778
    endloop
  endfacet
  facet normal 0.0335029 -0.38304 -0.923124
    outer loop
      vertex 3.4488e-15 -15.532 2.62216
      vertex 2.95736 -15.2153 2.59808
      vertex 3.09541 -15.9255 2.89778
    endloop
  endfacet
  facet normal 0.0335231 -0.383224 -0.923047
    outer loop
      vertex 2.95736 -15.2153 2.59808
      vertex 3.4488e-15 -15.532 2.62216
      vertex 3.43591e-15 -15.474 2.59808
    endloop
  endfacet
  facet normal 0.011438 -0.130725 -0.991353
    outer loop
      vertex 3.76842e-15 -16.9715 3
      vertex 3.61012e-15 -16.2585 2.90598
      vertex 3.24356 -16.6877 3
    endloop
  endfacet
  facet normal 0.0114375 -0.130729 -0.991352
    outer loop
      vertex 3.61012e-15 -16.2585 2.90598
      vertex 3.09541 -15.9255 2.89778
      vertex 3.24356 -16.6877 3
    endloop
  endfacet
  facet normal 0.0114336 -0.130693 -0.991357
    outer loop
      vertex 3.09541 -15.9255 2.89778
      vertex 3.61012e-15 -16.2585 2.90598
      vertex 3.5963e-15 -16.1963 2.89778
    endloop
  endfacet
  facet normal -0.0114363 0.130734 -0.991352
    outer loop
      vertex 3.94054e-15 -17.7466 2.89778
      vertex 3.78227e-15 -17.0338 2.99178
      vertex 3.39171 -17.4499 2.89778
    endloop
  endfacet
  facet normal -0.0114369 0.130729 -0.991352
    outer loop
      vertex 3.78227e-15 -17.0338 2.99178
      vertex 3.24356 -16.6877 3
      vertex 3.39171 -17.4499 2.89778
    endloop
  endfacet
  facet normal -0.0114445 0.1308 -0.991343
    outer loop
      vertex 3.24356 -16.6877 3
      vertex 3.78227e-15 -17.0338 2.99178
      vertex 3.76842e-15 -16.9715 3
    endloop
  endfacet
  facet normal -0.0335104 0.383042 -0.923123
    outer loop
      vertex 4.10093e-15 -18.4689 2.59808
      vertex 3.9535e-15 -17.805 2.87356
      vertex 3.52976 -18.1601 2.59808
    endloop
  endfacet
  facet normal -0.0335108 0.383039 -0.923124
    outer loop
      vertex 3.9535e-15 -17.805 2.87356
      vertex 3.39171 -17.4499 2.89778
      vertex 3.52976 -18.1601 2.59808
    endloop
  endfacet
  facet normal -0.0334929 0.382873 -0.923194
    outer loop
      vertex 3.39171 -17.4499 2.89778
      vertex 3.9535e-15 -17.805 2.87356
      vertex 3.94054e-15 -17.7466 2.89778
    endloop
  endfacet
  facet normal -0.0532287 0.608569 -0.791714
    outer loop
      vertex 4.23866e-15 -19.0892 2.12132
      vertex 4.11213e-15 -18.5194 2.55931
      vertex 3.6483 -18.7701 2.12132
    endloop
  endfacet
  facet normal -0.0532421 0.608486 -0.791777
    outer loop
      vertex 4.11213e-15 -18.5194 2.55931
      vertex 3.52976 -18.1601 2.59808
      vertex 3.6483 -18.7701 2.12132
    endloop
  endfacet
  facet normal -0.0531992 0.608097 -0.792078
    outer loop
      vertex 3.52976 -18.1601 2.59808
      vertex 4.11213e-15 -18.5194 2.55931
      vertex 4.10093e-15 -18.4689 2.59808
    endloop
  endfacet
  facet normal -0.069295 0.791909 -0.606694
    outer loop
      vertex 4.34434e-15 -19.5652 1.5
      vertex 4.24732e-15 -19.1282 2.07041
      vertex 3.73927 -19.238 1.5
    endloop
  endfacet
  facet normal -0.0692667 0.791933 -0.606666
    outer loop
      vertex 3.6483 -18.7701 2.12132
      vertex 4.24732e-15 -19.1282 2.07041
      vertex 4.23866e-15 -19.0892 2.12132
    endloop
  endfacet
  facet normal -0.0692746 0.792 -0.606578
    outer loop
      vertex 4.24732e-15 -19.1282 2.07041
      vertex 3.6483 -18.7701 2.12132
      vertex 3.73927 -19.238 1.5
    endloop
  endfacet
  facet normal -0.0805975 0.921085 -0.380927
    outer loop
      vertex 4.41078e-15 -19.8644 0.776457
      vertex 4.34983e-15 -19.5899 1.4402
      vertex 3.79645 -19.5322 0.776457
    endloop
  endfacet
  facet normal -0.0806131 0.921253 -0.380518
    outer loop
      vertex 3.73927 -19.238 1.5
      vertex 4.34983e-15 -19.5899 1.4402
      vertex 4.34434e-15 -19.5652 1.5
    endloop
  endfacet
  facet normal -0.0805924 0.921098 -0.380897
    outer loop
      vertex 4.34983e-15 -19.5899 1.4402
      vertex 3.73927 -19.238 1.5
      vertex 3.79645 -19.5322 0.776457
    endloop
  endfacet
  facet normal -0.0864053 0.987772 -0.129771
    outer loop
      vertex 4.43344e-15 -19.9664 0
      vertex 4.41267e-15 -19.8729 0.711691
      vertex 3.81595 -19.6326 0
    endloop
  endfacet
  facet normal -0.0864341 0.987787 -0.129639
    outer loop
      vertex 3.79645 -19.5322 0.776457
      vertex 4.41267e-15 -19.8729 0.711691
      vertex 4.41078e-15 -19.8644 0.776457
    endloop
  endfacet
  facet normal -0.0864269 0.987754 -0.129892
    outer loop
      vertex 4.41267e-15 -19.8729 0.711691
      vertex 3.79645 -19.5322 0.776457
      vertex 3.81595 -19.6326 0
    endloop
  endfacet
  facet normal 0.289889 -0.948205 -0.129888
    outer loop
      vertex 2.69067 -13.8432 0.776457
      vertex 2.67117 -13.7428 0
      vertex 5.50988 -12.9813 0.776457
    endloop
  endfacet
  facet normal 0.289876 -0.948218 -0.129827
    outer loop
      vertex 5.50988 -12.9813 0.776457
      vertex 2.67117 -13.7428 0
      vertex 5.46994 -12.8872 0
    endloop
  endfacet
  facet normal 0.270322 -0.88422 -0.380896
    outer loop
      vertex 2.74785 -14.1374 1.5
      vertex 2.69067 -13.8432 0.776457
      vertex 5.62697 -13.2572 1.5
    endloop
  endfacet
  facet normal 0.270325 -0.884212 -0.380912
    outer loop
      vertex 5.62697 -13.2572 1.5
      vertex 2.69067 -13.8432 0.776457
      vertex 5.50988 -12.9813 0.776457
    endloop
  endfacet
  facet normal 0.232424 -0.760287 -0.606583
    outer loop
      vertex 2.83882 -14.6053 2.12132
      vertex 2.74785 -14.1374 1.5
      vertex 5.81325 -13.696 2.12132
    endloop
  endfacet
  facet normal 0.232426 -0.760263 -0.606612
    outer loop
      vertex 5.81325 -13.696 2.12132
      vertex 2.74785 -14.1374 1.5
      vertex 5.62697 -13.2572 1.5
    endloop
  endfacet
  facet normal 0.178576 -0.584127 -0.791774
    outer loop
      vertex 2.95736 -15.2153 2.59808
      vertex 2.83882 -14.6053 2.12132
      vertex 6.056 -14.268 2.59808
    endloop
  endfacet
  facet normal 0.178576 -0.584145 -0.791761
    outer loop
      vertex 6.056 -14.268 2.59808
      vertex 2.83882 -14.6053 2.12132
      vertex 5.81325 -13.696 2.12132
    endloop
  endfacet
  facet normal 0.11241 -0.367702 -0.923125
    outer loop
      vertex 3.09541 -15.9255 2.89778
      vertex 2.95736 -15.2153 2.59808
      vertex 6.3387 -14.934 2.89778
    endloop
  endfacet
  facet normal 0.112409 -0.367693 -0.923128
    outer loop
      vertex 6.3387 -14.934 2.89778
      vertex 2.95736 -15.2153 2.59808
      vertex 6.056 -14.268 2.59808
    endloop
  endfacet
  facet normal 0.0383665 -0.125495 -0.991352
    outer loop
      vertex 3.24356 -16.6877 3
      vertex 3.09541 -15.9255 2.89778
      vertex 6.64207 -15.6487 3
    endloop
  endfacet
  facet normal 0.0383671 -0.125502 -0.991351
    outer loop
      vertex 6.64207 -15.6487 3
      vertex 3.09541 -15.9255 2.89778
      vertex 6.3387 -14.934 2.89778
    endloop
  endfacet
  facet normal -0.0383647 0.125495 -0.991352
    outer loop
      vertex 3.39171 -17.4499 2.89778
      vertex 3.24356 -16.6877 3
      vertex 6.94544 -16.3635 2.89778
    endloop
  endfacet
  facet normal -0.038364 0.125486 -0.991353
    outer loop
      vertex 6.94544 -16.3635 2.89778
      vertex 3.24356 -16.6877 3
      vertex 6.64207 -15.6487 3
    endloop
  endfacet
  facet normal -0.112408 0.367703 -0.923125
    outer loop
      vertex 3.52976 -18.1601 2.59808
      vertex 3.39171 -17.4499 2.89778
      vertex 7.22813 -17.0295 2.59808
    endloop
  endfacet
  facet normal -0.112407 0.367695 -0.923128
    outer loop
      vertex 7.22813 -17.0295 2.59808
      vertex 3.39171 -17.4499 2.89778
      vertex 6.94544 -16.3635 2.89778
    endloop
  endfacet
  facet normal -0.178587 0.584125 -0.791773
    outer loop
      vertex 3.6483 -18.7701 2.12132
      vertex 3.52976 -18.1601 2.59808
      vertex 7.47089 -17.6014 2.12132
    endloop
  endfacet
  facet normal -0.178591 0.5842 -0.791717
    outer loop
      vertex 7.47089 -17.6014 2.12132
      vertex 3.52976 -18.1601 2.59808
      vertex 7.22813 -17.0295 2.59808
    endloop
  endfacet
  facet normal -0.23242 0.760288 -0.606583
    outer loop
      vertex 3.73927 -19.238 1.5
      vertex 3.6483 -18.7701 2.12132
      vertex 7.65716 -18.0403 1.5
    endloop
  endfacet
  facet normal -0.232421 0.760205 -0.606687
    outer loop
      vertex 7.65716 -18.0403 1.5
      vertex 3.6483 -18.7701 2.12132
      vertex 7.47089 -17.6014 2.12132
    endloop
  endfacet
  facet normal -0.270304 0.884225 -0.380896
    outer loop
      vertex 3.79645 -19.5322 0.776457
      vertex 3.73927 -19.238 1.5
      vertex 7.77426 -18.3162 0.776457
    endloop
  endfacet
  facet normal -0.270305 0.884217 -0.380915
    outer loop
      vertex 7.77426 -18.3162 0.776457
      vertex 3.73927 -19.238 1.5
      vertex 7.65716 -18.0403 1.5
    endloop
  endfacet
  facet normal -0.289876 0.948209 -0.129888
    outer loop
      vertex 3.81595 -19.6326 0
      vertex 3.79645 -19.5322 0.776457
      vertex 7.8142 -18.4103 0
    endloop
  endfacet
  facet normal -0.289867 0.94822 -0.129827
    outer loop
      vertex 7.8142 -18.4103 0
      vertex 3.79645 -19.5322 0.776457
      vertex 7.77426 -18.3162 0.776457
    endloop
  endfacet
  facet normal 0.480696 -0.867223 -0.129827
    outer loop
      vertex 5.50988 -12.9813 0.776457
      vertex 5.46994 -12.8872 0
      vertex 8.0883 -11.5521 0.776457
    endloop
  endfacet
  facet normal 0.480688 -0.867234 -0.129782
    outer loop
      vertex 8.0883 -11.5521 0.776457
      vertex 5.46994 -12.8872 0
      vertex 8.02967 -11.4684 0
    endloop
  endfacet
  facet normal 0.448233 -0.8087 -0.380909
    outer loop
      vertex 5.62697 -13.2572 1.5
      vertex 5.50988 -12.9813 0.776457
      vertex 8.26019 -11.7977 1.5
    endloop
  endfacet
  facet normal 0.448237 -0.808664 -0.38098
    outer loop
      vertex 8.26019 -11.7977 1.5
      vertex 5.50988 -12.9813 0.776457
      vertex 8.0883 -11.5521 0.776457
    endloop
  endfacet
  facet normal 0.385394 -0.695333 -0.606617
    outer loop
      vertex 5.81325 -13.696 2.12132
      vertex 5.62697 -13.2572 1.5
      vertex 8.53364 -12.1882 2.12132
    endloop
  endfacet
  facet normal 0.385393 -0.695324 -0.606627
    outer loop
      vertex 8.53364 -12.1882 2.12132
      vertex 5.62697 -13.2572 1.5
      vertex 8.26019 -11.7977 1.5
    endloop
  endfacet
  facet normal 0.296123 -0.534257 -0.791758
    outer loop
      vertex 6.056 -14.268 2.59808
      vertex 5.81325 -13.696 2.12132
      vertex 8.88999 -12.6972 2.59808
    endloop
  endfacet
  facet normal 0.296127 -0.534276 -0.791743
    outer loop
      vertex 8.88999 -12.6972 2.59808
      vertex 5.81325 -13.696 2.12132
      vertex 8.53364 -12.1882 2.12132
    endloop
  endfacet
  facet normal 0.186393 -0.336289 -0.923129
    outer loop
      vertex 6.3387 -14.934 2.89778
      vertex 6.056 -14.268 2.59808
      vertex 9.30498 -13.2899 2.89778
    endloop
  endfacet
  facet normal 0.18639 -0.33628 -0.923133
    outer loop
      vertex 9.30498 -13.2899 2.89778
      vertex 6.056 -14.268 2.59808
      vertex 8.88999 -12.6972 2.59808
    endloop
  endfacet
  facet normal 0.0636204 -0.114783 -0.991351
    outer loop
      vertex 6.64207 -15.6487 3
      vertex 6.3387 -14.934 2.89778
      vertex 9.75032 -13.9259 3
    endloop
  endfacet
  facet normal 0.0636209 -0.114785 -0.991351
    outer loop
      vertex 9.75032 -13.9259 3
      vertex 6.3387 -14.934 2.89778
      vertex 9.30498 -13.2899 2.89778
    endloop
  endfacet
  facet normal -0.063613 0.11477 -0.991353
    outer loop
      vertex 6.94544 -16.3635 2.89778
      vertex 6.64207 -15.6487 3
      vertex 10.1957 -14.562 2.89778
    endloop
  endfacet
  facet normal -0.0636125 0.114769 -0.991353
    outer loop
      vertex 10.1957 -14.562 2.89778
      vertex 6.64207 -15.6487 3
      vertex 9.75032 -13.9259 3
    endloop
  endfacet
  facet normal -0.186395 0.33629 -0.923128
    outer loop
      vertex 7.22813 -17.0295 2.59808
      vertex 6.94544 -16.3635 2.89778
      vertex 10.6106 -15.1547 2.59808
    endloop
  endfacet
  facet normal -0.186398 0.336298 -0.923125
    outer loop
      vertex 10.6106 -15.1547 2.59808
      vertex 6.94544 -16.3635 2.89778
      vertex 10.1957 -14.562 2.89778
    endloop
  endfacet
  facet normal -0.296149 0.534301 -0.791719
    outer loop
      vertex 7.47089 -17.6014 2.12132
      vertex 7.22813 -17.0295 2.59808
      vertex 10.967 -15.6636 2.12132
    endloop
  endfacet
  facet normal -0.296151 0.534308 -0.791713
    outer loop
      vertex 10.967 -15.6636 2.12132
      vertex 7.22813 -17.0295 2.59808
      vertex 10.6106 -15.1547 2.59808
    endloop
  endfacet
  facet normal -0.385378 0.695284 -0.606683
    outer loop
      vertex 7.65716 -18.0403 1.5
      vertex 7.47089 -17.6014 2.12132
      vertex 11.2404 -16.0542 1.5
    endloop
  endfacet
  facet normal -0.385379 0.695287 -0.606679
    outer loop
      vertex 11.2404 -16.0542 1.5
      vertex 7.47089 -17.6014 2.12132
      vertex 10.967 -15.6636 2.12132
    endloop
  endfacet
  facet normal -0.448243 0.808692 -0.380914
    outer loop
      vertex 7.77426 -18.3162 0.776457
      vertex 7.65716 -18.0403 1.5
      vertex 11.4123 -16.2997 0.776457
    endloop
  endfacet
  facet normal -0.448244 0.808703 -0.380889
    outer loop
      vertex 11.4123 -16.2997 0.776457
      vertex 7.65716 -18.0403 1.5
      vertex 11.2404 -16.0542 1.5
    endloop
  endfacet
  facet normal -0.480689 0.867227 -0.129827
    outer loop
      vertex 7.8142 -18.4103 0
      vertex 7.77426 -18.3162 0.776457
      vertex 11.471 -16.3834 0
    endloop
  endfacet
  facet normal -0.480689 0.867228 -0.129825
    outer loop
      vertex 11.471 -16.3834 0
      vertex 7.77426 -18.3162 0.776457
      vertex 11.4123 -16.2997 0.776457
    endloop
  endfacet
  facet normal 0.650465 -0.748365 -0.129788
    outer loop
      vertex 8.0883 -11.5521 0.776457
      vertex 8.02967 -11.4684 0
      vertex 10.3133 -9.61817 0.776457
    endloop
  endfacet
  facet normal 0.650474 -0.748345 -0.129859
    outer loop
      vertex 10.3133 -9.61817 0.776457
      vertex 8.02967 -11.4684 0
      vertex 10.2385 -9.54845 0
    endloop
  endfacet
  facet normal 0.606571 -0.697809 -0.380966
    outer loop
      vertex 8.26019 -11.7977 1.5
      vertex 8.0883 -11.5521 0.776457
      vertex 10.5324 -9.82258 1.5
    endloop
  endfacet
  facet normal 0.606578 -0.697872 -0.380839
    outer loop
      vertex 10.5324 -9.82258 1.5
      vertex 8.0883 -11.5521 0.776457
      vertex 10.3133 -9.61817 0.776457
    endloop
  endfacet
  facet normal 0.521538 -0.599995 -0.606633
    outer loop
      vertex 8.53364 -12.1882 2.12132
      vertex 8.26019 -11.7977 1.5
      vertex 10.8811 -10.1477 2.12132
    endloop
  endfacet
  facet normal 0.521534 -0.599981 -0.606651
    outer loop
      vertex 10.8811 -10.1477 2.12132
      vertex 8.26019 -11.7977 1.5
      vertex 10.5324 -9.82258 1.5
    endloop
  endfacet
  facet normal 0.400742 -0.461033 -0.791741
    outer loop
      vertex 8.88999 -12.6972 2.59808
      vertex 8.53364 -12.1882 2.12132
      vertex 11.3355 -10.5715 2.59808
    endloop
  endfacet
  facet normal 0.400737 -0.461021 -0.791751
    outer loop
      vertex 11.3355 -10.5715 2.59808
      vertex 8.53364 -12.1882 2.12132
      vertex 10.8811 -10.1477 2.12132
    endloop
  endfacet
  facet normal 0.252232 -0.290179 -0.923133
    outer loop
      vertex 9.30498 -13.2899 2.89778
      vertex 8.88999 -12.6972 2.59808
      vertex 11.8646 -11.065 2.89778
    endloop
  endfacet
  facet normal 0.252234 -0.290183 -0.923131
    outer loop
      vertex 11.8646 -11.065 2.89778
      vertex 8.88999 -12.6972 2.59808
      vertex 11.3355 -10.5715 2.59808
    endloop
  endfacet
  facet normal 0.0860945 -0.0990481 -0.991351
    outer loop
      vertex 9.75032 -13.9259 3
      vertex 9.30498 -13.2899 2.89778
      vertex 12.4325 -11.5945 3
    endloop
  endfacet
  facet normal 0.0860925 -0.0990445 -0.991352
    outer loop
      vertex 12.4325 -11.5945 3
      vertex 9.30498 -13.2899 2.89778
      vertex 11.8646 -11.065 2.89778
    endloop
  endfacet
  facet normal -0.0860853 0.0990339 -0.991353
    outer loop
      vertex 10.1957 -14.562 2.89778
      vertex 9.75032 -13.9259 3
      vertex 13.0003 -12.1241 2.89778
    endloop
  endfacet
  facet normal -0.0860908 0.0990439 -0.991352
    outer loop
      vertex 13.0003 -12.1241 2.89778
      vertex 9.75032 -13.9259 3
      vertex 12.4325 -11.5945 3
    endloop
  endfacet
  facet normal -0.252244 0.290204 -0.923122
    outer loop
      vertex 10.6106 -15.1547 2.59808
      vertex 10.1957 -14.562 2.89778
      vertex 13.5295 -12.6176 2.59808
    endloop
  endfacet
  facet normal -0.252219 0.290156 -0.923144
    outer loop
      vertex 13.5295 -12.6176 2.59808
      vertex 10.1957 -14.562 2.89778
      vertex 13.0003 -12.1241 2.89778
    endloop
  endfacet
  facet normal -0.400752 0.461059 -0.791721
    outer loop
      vertex 10.967 -15.6636 2.12132
      vertex 10.6106 -15.1547 2.59808
      vertex 13.9838 -13.0414 2.12132
    endloop
  endfacet
  facet normal -0.400753 0.461061 -0.791719
    outer loop
      vertex 13.9838 -13.0414 2.12132
      vertex 10.6106 -15.1547 2.59808
      vertex 13.5295 -12.6176 2.59808
    endloop
  endfacet
  facet normal -0.521513 0.599982 -0.606668
    outer loop
      vertex 11.2404 -16.0542 1.5
      vertex 10.967 -15.6636 2.12132
      vertex 14.3325 -13.3665 1.5
    endloop
  endfacet
  facet normal -0.521523 0.600004 -0.606638
    outer loop
      vertex 14.3325 -13.3665 1.5
      vertex 10.967 -15.6636 2.12132
      vertex 13.9838 -13.0414 2.12132
    endloop
  endfacet
  facet normal -0.606575 0.697846 -0.380891
    outer loop
      vertex 11.4123 -16.2997 0.776457
      vertex 11.2404 -16.0542 1.5
      vertex 14.5517 -13.5709 0.776457
    endloop
  endfacet
  facet normal -0.606574 0.697841 -0.380903
    outer loop
      vertex 14.5517 -13.5709 0.776457
      vertex 11.2404 -16.0542 1.5
      vertex 14.3325 -13.3665 1.5
    endloop
  endfacet
  facet normal -0.650485 0.748338 -0.129845
    outer loop
      vertex 11.471 -16.3834 0
      vertex 11.4123 -16.2997 0.776457
      vertex 14.6264 -13.6406 0
    endloop
  endfacet
  facet normal -0.65048 0.748357 -0.129758
    outer loop
      vertex 14.6264 -13.6406 0
      vertex 11.4123 -16.2997 0.776457
      vertex 14.5517 -13.5709 0.776457
    endloop
  endfacet
  facet normal 0.791854 -0.596743 -0.129866
    outer loop
      vertex 10.3133 -9.61817 0.776457
      vertex 10.2385 -9.54845 0
      vertex 12.0875 -7.26388 0.776457
    endloop
  endfacet
  facet normal 0.79185 -0.596762 -0.129802
    outer loop
      vertex 12.0875 -7.26388 0.776457
      vertex 10.2385 -9.54845 0
      vertex 11.9999 -7.21123 0
    endloop
  endfacet
  facet normal 0.738425 -0.556507 -0.380827
    outer loop
      vertex 10.5324 -9.82258 1.5
      vertex 10.3133 -9.61817 0.776457
      vertex 12.3444 -7.41825 1.5
    endloop
  endfacet
  facet normal 0.738413 -0.55647 -0.380904
    outer loop
      vertex 12.3444 -7.41825 1.5
      vertex 10.3133 -9.61817 0.776457
      vertex 12.0875 -7.26388 0.776457
    endloop
  endfacet
  facet normal 0.634852 -0.478462 -0.606661
    outer loop
      vertex 10.8811 -10.1477 2.12132
      vertex 10.5324 -9.82258 1.5
      vertex 12.7531 -7.66382 2.12132
    endloop
  endfacet
  facet normal 0.634839 -0.47844 -0.606691
    outer loop
      vertex 12.7531 -7.66382 2.12132
      vertex 10.5324 -9.82258 1.5
      vertex 12.3444 -7.41825 1.5
    endloop
  endfacet
  facet normal 0.487828 -0.367638 -0.791749
    outer loop
      vertex 11.3355 -10.5715 2.59808
      vertex 10.8811 -10.1477 2.12132
      vertex 13.2856 -7.98386 2.59808
    endloop
  endfacet
  facet normal 0.487858 -0.367679 -0.791711
    outer loop
      vertex 13.2856 -7.98386 2.59808
      vertex 10.8811 -10.1477 2.12132
      vertex 12.7531 -7.66382 2.12132
    endloop
  endfacet
  facet normal 0.307053 -0.231408 -0.92313
    outer loop
      vertex 11.8646 -11.065 2.89778
      vertex 11.3355 -10.5715 2.59808
      vertex 13.9058 -8.35655 2.89778
    endloop
  endfacet
  facet normal 0.307041 -0.231392 -0.923138
    outer loop
      vertex 13.9058 -8.35655 2.89778
      vertex 11.3355 -10.5715 2.59808
      vertex 13.2856 -7.98386 2.59808
    endloop
  endfacet
  facet normal 0.1048 -0.0789802 -0.991352
    outer loop
      vertex 12.4325 -11.5945 3
      vertex 11.8646 -11.065 2.89778
      vertex 14.5713 -8.75649 3
    endloop
  endfacet
  facet normal 0.104804 -0.0789844 -0.991351
    outer loop
      vertex 14.5713 -8.75649 3
      vertex 11.8646 -11.065 2.89778
      vertex 13.9058 -8.35655 2.89778
    endloop
  endfacet
  facet normal -0.104801 0.0789839 -0.991352
    outer loop
      vertex 13.0003 -12.1241 2.89778
      vertex 12.4325 -11.5945 3
      vertex 15.2369 -9.15643 2.89778
    endloop
  endfacet
  facet normal -0.104794 0.0789754 -0.991353
    outer loop
      vertex 15.2369 -9.15643 2.89778
      vertex 12.4325 -11.5945 3
      vertex 14.5713 -8.75649 3
    endloop
  endfacet
  facet normal -0.30703 0.23138 -0.923144
    outer loop
      vertex 13.5295 -12.6176 2.59808
      vertex 13.0003 -12.1241 2.89778
      vertex 15.857 -9.52912 2.59808
    endloop
  endfacet
  facet normal -0.307065 0.231421 -0.923122
    outer loop
      vertex 15.857 -9.52912 2.59808
      vertex 13.0003 -12.1241 2.89778
      vertex 15.2369 -9.15643 2.89778
    endloop
  endfacet
  facet normal -0.487863 0.367673 -0.791711
    outer loop
      vertex 13.9838 -13.0414 2.12132
      vertex 13.5295 -12.6176 2.59808
      vertex 16.3896 -9.84916 2.12132
    endloop
  endfacet
  facet normal -0.48783 0.367632 -0.791751
    outer loop
      vertex 16.3896 -9.84916 2.12132
      vertex 13.5295 -12.6176 2.59808
      vertex 15.857 -9.52912 2.59808
    endloop
  endfacet
  facet normal -0.63487 0.478452 -0.60665
    outer loop
      vertex 14.3325 -13.3665 1.5
      vertex 13.9838 -13.0414 2.12132
      vertex 16.7982 -10.0947 1.5
    endloop
  endfacet
  facet normal -0.634887 0.478477 -0.606612
    outer loop
      vertex 16.7982 -10.0947 1.5
      vertex 13.9838 -13.0414 2.12132
      vertex 16.3896 -9.84916 2.12132
    endloop
  endfacet
  facet normal -0.738403 0.556481 -0.380907
    outer loop
      vertex 14.5517 -13.5709 0.776457
      vertex 14.3325 -13.3665 1.5
      vertex 17.0551 -10.2491 0.776457
    endloop
  endfacet
  facet normal -0.7384 0.556474 -0.380923
    outer loop
      vertex 17.0551 -10.2491 0.776457
      vertex 14.3325 -13.3665 1.5
      vertex 16.7982 -10.0947 1.5
    endloop
  endfacet
  facet normal -0.791846 0.596778 -0.129751
    outer loop
      vertex 14.6264 -13.6406 0
      vertex 14.5517 -13.5709 0.776457
      vertex 17.1427 -10.3018 0
    endloop
  endfacet
  facet normal -0.791847 0.596758 -0.12984
    outer loop
      vertex 17.1427 -10.3018 0
      vertex 14.5517 -13.5709 0.776457
      vertex 17.0551 -10.2491 0.776457
    endloop
  endfacet
  facet normal 0.898608 -0.419114 -0.1298
    outer loop
      vertex 12.0875 -7.26388 0.776457
      vertex 11.9999 -7.21123 0
      vertex 13.3336 -4.59216 0.776457
    endloop
  endfacet
  facet normal 0.898607 -0.41909 -0.129881
    outer loop
      vertex 13.3336 -4.59216 0.776457
      vertex 11.9999 -7.21123 0
      vertex 13.2369 -4.55887 0
    endloop
  endfacet
  facet normal 0.837952 -0.390829 -0.380906
    outer loop
      vertex 12.3444 -7.41825 1.5
      vertex 12.0875 -7.26388 0.776457
      vertex 13.617 -4.68975 1.5
    endloop
  endfacet
  facet normal 0.837947 -0.390822 -0.380924
    outer loop
      vertex 13.617 -4.68975 1.5
      vertex 12.0875 -7.26388 0.776457
      vertex 13.3336 -4.59216 0.776457
    endloop
  endfacet
  facet normal 0.720439 -0.335988 -0.606696
    outer loop
      vertex 12.7531 -7.66382 2.12132
      vertex 12.3444 -7.41825 1.5
      vertex 14.0677 -4.845 2.12132
    endloop
  endfacet
  facet normal 0.72049 -0.336044 -0.606605
    outer loop
      vertex 14.0677 -4.845 2.12132
      vertex 12.3444 -7.41825 1.5
      vertex 13.617 -4.68975 1.5
    endloop
  endfacet
  facet normal 0.553643 -0.258219 -0.791709
    outer loop
      vertex 13.2856 -7.98386 2.59808
      vertex 12.7531 -7.66382 2.12132
      vertex 14.6552 -5.04732 2.59808
    endloop
  endfacet
  facet normal 0.5536 -0.25818 -0.791751
    outer loop
      vertex 14.6552 -5.04732 2.59808
      vertex 12.7531 -7.66382 2.12132
      vertex 14.0677 -4.845 2.12132
    endloop
  endfacet
  facet normal 0.348436 -0.162506 -0.923138
    outer loop
      vertex 13.9058 -8.35655 2.89778
      vertex 13.2856 -7.98386 2.59808
      vertex 15.3393 -5.28293 2.89778
    endloop
  endfacet
  facet normal 0.348447 -0.162515 -0.923132
    outer loop
      vertex 15.3393 -5.28293 2.89778
      vertex 13.2856 -7.98386 2.59808
      vertex 14.6552 -5.04732 2.59808
    endloop
  endfacet
  facet normal 0.118935 -0.0554698 -0.991351
    outer loop
      vertex 14.5713 -8.75649 3
      vertex 13.9058 -8.35655 2.89778
      vertex 16.0734 -5.53577 3
    endloop
  endfacet
  facet normal 0.118936 -0.0554703 -0.991351
    outer loop
      vertex 16.0734 -5.53577 3
      vertex 13.9058 -8.35655 2.89778
      vertex 15.3393 -5.28293 2.89778
    endloop
  endfacet
  facet normal -0.118922 0.0554632 -0.991353
    outer loop
      vertex 15.2369 -9.15643 2.89778
      vertex 14.5713 -8.75649 3
      vertex 16.8076 -5.78861 2.89778
    endloop
  endfacet
  facet normal -0.118922 0.0554637 -0.991353
    outer loop
      vertex 16.8076 -5.78861 2.89778
      vertex 14.5713 -8.75649 3
      vertex 16.0734 -5.53577 3
    endloop
  endfacet
  facet normal -0.348471 0.162528 -0.923121
    outer loop
      vertex 15.857 -9.52912 2.59808
      vertex 15.2369 -9.15643 2.89778
      vertex 17.4917 -6.02422 2.59808
    endloop
  endfacet
  facet normal -0.348448 0.162511 -0.923133
    outer loop
      vertex 17.4917 -6.02422 2.59808
      vertex 15.2369 -9.15643 2.89778
      vertex 16.8076 -5.78861 2.89778
    endloop
  endfacet
  facet normal -0.553597 0.258185 -0.791752
    outer loop
      vertex 16.3896 -9.84916 2.12132
      vertex 15.857 -9.52912 2.59808
      vertex 18.0791 -6.22655 2.12132
    endloop
  endfacet
  facet normal -0.553642 0.258221 -0.791709
    outer loop
      vertex 18.0791 -6.22655 2.12132
      vertex 15.857 -9.52912 2.59808
      vertex 17.4917 -6.02422 2.59808
    endloop
  endfacet
  facet normal -0.720487 0.336035 -0.606613
    outer loop
      vertex 16.7982 -10.0947 1.5
      vertex 16.3896 -9.84916 2.12132
      vertex 18.5299 -6.38179 1.5
    endloop
  endfacet
  facet normal -0.72045 0.336001 -0.606676
    outer loop
      vertex 18.5299 -6.38179 1.5
      vertex 16.3896 -9.84916 2.12132
      vertex 18.0791 -6.22655 2.12132
    endloop
  endfacet
  facet normal -0.837949 0.390821 -0.38092
    outer loop
      vertex 17.0551 -10.2491 0.776457
      vertex 16.7982 -10.0947 1.5
      vertex 18.8133 -6.47939 0.776457
    endloop
  endfacet
  facet normal -0.837947 0.390818 -0.380928
    outer loop
      vertex 18.8133 -6.47939 0.776457
      vertex 16.7982 -10.0947 1.5
      vertex 18.5299 -6.38179 1.5
    endloop
  endfacet
  facet normal -0.89861 0.419101 -0.129827
    outer loop
      vertex 17.1427 -10.3018 0
      vertex 17.0551 -10.2491 0.776457
      vertex 18.9099 -6.51268 0
    endloop
  endfacet
  facet normal -0.898612 0.419114 -0.129767
    outer loop
      vertex 18.9099 -6.51268 0
      vertex 17.0551 -10.2491 0.776457
      vertex 18.8133 -6.47939 0.776457
    endloop
  endfacet
  facet normal 0.966098 -0.223127 -0.129884
    outer loop
      vertex 13.3336 -4.59216 0.776457
      vertex 13.2369 -4.55887 0
      vertex 13.997 -1.71976 0.776457
    endloop
  endfacet
  facet normal 0.966098 -0.223131 -0.129871
    outer loop
      vertex 13.997 -1.71976 0.776457
      vertex 13.2369 -4.55887 0
      vertex 13.8955 -1.7073 0
    endloop
  endfacet
  facet normal 0.900897 -0.208038 -0.380926
    outer loop
      vertex 13.617 -4.68975 1.5
      vertex 13.3336 -4.59216 0.776457
      vertex 14.2944 -1.75631 1.5
    endloop
  endfacet
  facet normal 0.900932 -0.208076 -0.380824
    outer loop
      vertex 14.2944 -1.75631 1.5
      vertex 13.3336 -4.59216 0.776457
      vertex 13.997 -1.71976 0.776457
    endloop
  endfacet
  facet normal 0.774617 -0.178896 -0.606601
    outer loop
      vertex 14.0677 -4.845 2.12132
      vertex 13.617 -4.68975 1.5
      vertex 14.7676 -1.81445 2.12132
    endloop
  endfacet
  facet normal 0.774578 -0.178868 -0.606659
    outer loop
      vertex 14.7676 -1.81445 2.12132
      vertex 13.617 -4.68975 1.5
      vertex 14.2944 -1.75631 1.5
    endloop
  endfacet
  facet normal 0.595177 -0.13745 -0.791752
    outer loop
      vertex 14.6552 -5.04732 2.59808
      vertex 14.0677 -4.845 2.12132
      vertex 15.3843 -1.89022 2.59808
    endloop
  endfacet
  facet normal 0.595192 -0.137458 -0.79174
    outer loop
      vertex 15.3843 -1.89022 2.59808
      vertex 14.0677 -4.845 2.12132
      vertex 14.7676 -1.81445 2.12132
    endloop
  endfacet
  facet normal 0.37462 -0.0865221 -0.923133
    outer loop
      vertex 15.3393 -5.28293 2.89778
      vertex 14.6552 -5.04732 2.59808
      vertex 16.1025 -1.97846 2.89778
    endloop
  endfacet
  facet normal 0.374593 -0.0865085 -0.923145
    outer loop
      vertex 16.1025 -1.97846 2.89778
      vertex 14.6552 -5.04732 2.59808
      vertex 15.3843 -1.89022 2.59808
    endloop
  endfacet
  facet normal 0.12787 -0.0295317 -0.991351
    outer loop
      vertex 16.0734 -5.53577 3
      vertex 15.3393 -5.28293 2.89778
      vertex 16.8731 -2.07314 3
    endloop
  endfacet
  facet normal 0.127874 -0.0295337 -0.991351
    outer loop
      vertex 16.8731 -2.07314 3
      vertex 15.3393 -5.28293 2.89778
      vertex 16.1025 -1.97846 2.89778
    endloop
  endfacet
  facet normal -0.127854 0.0295272 -0.991353
    outer loop
      vertex 16.8076 -5.78861 2.89778
      vertex 16.0734 -5.53577 3
      vertex 17.6438 -2.16783 2.89778
    endloop
  endfacet
  facet normal -0.127858 0.029529 -0.991353
    outer loop
      vertex 17.6438 -2.16783 2.89778
      vertex 16.0734 -5.53577 3
      vertex 16.8731 -2.07314 3
    endloop
  endfacet
  facet normal -0.374623 0.0865137 -0.923132
    outer loop
      vertex 17.4917 -6.02422 2.59808
      vertex 16.8076 -5.78861 2.89778
      vertex 18.3619 -2.25607 2.59808
    endloop
  endfacet
  facet normal -0.374636 0.0865203 -0.923126
    outer loop
      vertex 18.3619 -2.25607 2.59808
      vertex 16.8076 -5.78861 2.89778
      vertex 17.6438 -2.16783 2.89778
    endloop
  endfacet
  facet normal -0.595233 0.137472 -0.791707
    outer loop
      vertex 18.0791 -6.22655 2.12132
      vertex 17.4917 -6.02422 2.59808
      vertex 18.9786 -2.33184 2.12132
    endloop
  endfacet
  facet normal -0.595193 0.137451 -0.79174
    outer loop
      vertex 18.9786 -2.33184 2.12132
      vertex 17.4917 -6.02422 2.59808
      vertex 18.3619 -2.25607 2.59808
    endloop
  endfacet
  facet normal -0.77456 0.178883 -0.606678
    outer loop
      vertex 18.5299 -6.38179 1.5
      vertex 18.0791 -6.22655 2.12132
      vertex 19.4518 -2.38998 1.5
    endloop
  endfacet
  facet normal -0.774573 0.178891 -0.606658
    outer loop
      vertex 19.4518 -2.38998 1.5
      vertex 18.0791 -6.22655 2.12132
      vertex 18.9786 -2.33184 2.12132
    endloop
  endfacet
  facet normal -0.900891 0.208059 -0.38093
    outer loop
      vertex 18.8133 -6.47939 0.776457
      vertex 18.5299 -6.38179 1.5
      vertex 19.7493 -2.42653 0.776457
    endloop
  endfacet
  facet normal -0.90089 0.208059 -0.38093
    outer loop
      vertex 19.7493 -2.42653 0.776457
      vertex 18.5299 -6.38179 1.5
      vertex 19.4518 -2.38998 1.5
    endloop
  endfacet
  facet normal -0.966116 0.22312 -0.129762
    outer loop
      vertex 18.9099 -6.51268 0
      vertex 18.8133 -6.47939 0.776457
      vertex 19.8507 -2.43899 0
    endloop
  endfacet
  facet normal -0.966117 0.223123 -0.129749
    outer loop
      vertex 19.8507 -2.43899 0
      vertex 18.8133 -6.47939 0.776457
      vertex 19.7493 -2.42653 0.776457
    endloop
  endfacet
  facet normal 0.991557 -0.0173672 -0.128504
    outer loop
      vertex 13.997 -1.71976 0.776457
      vertex 14.0358 0.98017 0.710951
      vertex 14.0443 0.98077 0.776457
    endloop
  endfacet
  facet normal 0.991378 -0.0173979 -0.129874
    outer loop
      vertex 14.0358 0.98017 0.710951
      vertex 13.997 -1.71976 0.776457
      vertex 13.8955 -1.7073 0
    endloop
  endfacet
  facet normal 0.991369 -0.0173797 -0.129941
    outer loop
      vertex 14.0358 0.98017 0.710951
      vertex 13.8955 -1.7073 0
      vertex 13.9425 0.97366 0
    endloop
  endfacet
  facet normal 0.924485 -0.0162242 -0.380873
    outer loop
      vertex 14.2944 -1.75631 1.5
      vertex 14.3173 0.999833 1.43818
      vertex 14.3428 1.00161 1.5
    endloop
  endfacet
  facet normal 0.924506 -0.0162233 -0.380822
    outer loop
      vertex 14.3173 0.999833 1.43818
      vertex 14.2944 -1.75631 1.5
      vertex 13.997 -1.71976 0.776457
    endloop
  endfacet
  facet normal 0.924462 -0.016192 -0.380929
    outer loop
      vertex 14.3173 0.999833 1.43818
      vertex 13.997 -1.71976 0.776457
      vertex 14.0443 0.98077 0.776457
    endloop
  endfacet
  facet normal 0.794774 -0.0139472 -0.606746
    outer loop
      vertex 14.7676 -1.81445 2.12132
      vertex 14.7766 1.03191 2.06768
      vertex 14.8176 1.03477 2.12132
    endloop
  endfacet
  facet normal 0.79484 -0.0139458 -0.606659
    outer loop
      vertex 14.7766 1.03191 2.06768
      vertex 14.7676 -1.81445 2.12132
      vertex 14.2944 -1.75631 1.5
    endloop
  endfacet
  facet normal 0.794848 -0.0139491 -0.606649
    outer loop
      vertex 14.7766 1.03191 2.06768
      vertex 14.2944 -1.75631 1.5
      vertex 14.3428 1.00161 1.5
    endloop
  endfacet
  facet normal 0.610316 -0.0107127 -0.792086
    outer loop
      vertex 15.3843 -1.89022 2.59808
      vertex 15.3825 1.07422 2.5566
      vertex 15.4364 1.07798 2.59808
    endloop
  endfacet
  facet normal 0.610765 -0.0107076 -0.79174
    outer loop
      vertex 15.3825 1.07422 2.5566
      vertex 15.3843 -1.89022 2.59808
      vertex 14.7676 -1.81445 2.12132
    endloop
  endfacet
  facet normal 0.610798 -0.0107187 -0.791714
    outer loop
      vertex 15.3825 1.07422 2.5566
      vertex 14.7676 -1.81445 2.12132
      vertex 14.8176 1.03477 2.12132
    endloop
  endfacet
  facet normal 0.384258 -0.0067408 -0.923201
    outer loop
      vertex 16.1025 -1.97846 2.89778
      vertex 16.094 1.12391 2.87159
      vertex 16.157 1.1283 2.89778
    endloop
  endfacet
  facet normal 0.384394 -0.00673995 -0.923145
    outer loop
      vertex 16.094 1.12391 2.87159
      vertex 16.1025 -1.97846 2.89778
      vertex 15.3843 -1.89022 2.59808
    endloop
  endfacet
  facet normal 0.384439 -0.00675225 -0.923126
    outer loop
      vertex 15.3843 -1.89022 2.59808
      vertex 15.5439 1.08549 2.64278
      vertex 16.094 1.12391 2.87159
    endloop
  endfacet
  facet normal 0.384337 -0.00674617 -0.923168
    outer loop
      vertex 15.5439 1.08549 2.64278
      vertex 15.3843 -1.89022 2.59808
      vertex 15.4364 1.07798 2.59808
    endloop
  endfacet
  facet normal 0.131265 -0.00230236 -0.991345
    outer loop
      vertex 16.8731 -2.07314 3
      vertex 16.8626 1.17758 2.99106
      vertex 16.9302 1.1823 3
    endloop
  endfacet
  facet normal 0.13122 -0.00230253 -0.991351
    outer loop
      vertex 16.8626 1.17758 2.99106
      vertex 16.8731 -2.07314 3
      vertex 16.1025 -1.97846 2.89778
    endloop
  endfacet
  facet normal 0.131217 -0.00230186 -0.991351
    outer loop
      vertex 16.8626 1.17758 2.99106
      vertex 16.1025 -1.97846 2.89778
      vertex 16.157 1.1283 2.89778
    endloop
  endfacet
  facet normal -0.131167 0.00230034 -0.991358
    outer loop
      vertex 17.6438 -2.16783 2.89778
      vertex 17.636 1.23159 2.9067
      vertex 17.7035 1.2363 2.89778
    endloop
  endfacet
  facet normal -0.131203 0.00230024 -0.991353
    outer loop
      vertex 17.636 1.23159 2.9067
      vertex 17.6438 -2.16783 2.89778
      vertex 16.8731 -2.07314 3
    endloop
  endfacet
  facet normal -0.131208 0.00230137 -0.991352
    outer loop
      vertex 17.636 1.23159 2.9067
      vertex 16.8731 -2.07314 3
      vertex 16.9302 1.1823 3
    endloop
  endfacet
  facet normal -0.384066 0.00674315 -0.923281
    outer loop
      vertex 18.3619 -2.25607 2.59808
      vertex 18.3614 1.28225 2.62413
      vertex 18.4241 1.28662 2.59808
    endloop
  endfacet
  facet normal -0.384439 0.00674196 -0.923126
    outer loop
      vertex 18.3614 1.28225 2.62413
      vertex 18.3619 -2.25607 2.59808
      vertex 17.6438 -2.16783 2.89778
    endloop
  endfacet
  facet normal -0.38444 0.00674212 -0.923125
    outer loop
      vertex 18.3614 1.28225 2.62413
      vertex 17.6438 -2.16783 2.89778
      vertex 17.7035 1.2363 2.89778
    endloop
  endfacet
  facet normal -0.611105 0.0107145 -0.791477
    outer loop
      vertex 18.9786 -2.33184 2.12132
      vertex 18.9894 1.3261 2.1625
      vertex 19.0428 1.32983 2.12132
    endloop
  endfacet
  facet normal -0.610764 0.0107164 -0.79174
    outer loop
      vertex 18.9894 1.3261 2.1625
      vertex 18.9786 -2.33184 2.12132
      vertex 18.3619 -2.25607 2.59808
    endloop
  endfacet
  facet normal -0.610774 0.0107235 -0.791733
    outer loop
      vertex 18.9494 1.32331 2.19334
      vertex 18.3619 -2.25607 2.59808
      vertex 18.4241 1.28662 2.59808
    endloop
  endfacet
  facet normal -0.611027 0.0107873 -0.791536
    outer loop
      vertex 18.3619 -2.25607 2.59808
      vertex 18.9494 1.32331 2.19334
      vertex 18.9894 1.3261 2.1625
    endloop
  endfacet
  facet normal -0.794842 0.0139358 -0.606656
    outer loop
      vertex 19.4518 -2.38998 1.5
      vertex 19.4769 1.36015 1.55326
      vertex 19.5176 1.36299 1.5
    endloop
  endfacet
  facet normal -0.794841 0.0139358 -0.606658
    outer loop
      vertex 19.4769 1.36015 1.55326
      vertex 19.4518 -2.38998 1.5
      vertex 18.9786 -2.33184 2.12132
    endloop
  endfacet
  facet normal -0.794805 0.0139353 -0.606704
    outer loop
      vertex 19.4436 1.35782 1.5969
      vertex 18.9786 -2.33184 2.12132
      vertex 19.0428 1.32983 2.12132
    endloop
  endfacet
  facet normal -0.795272 0.0140815 -0.606089
    outer loop
      vertex 18.9786 -2.33184 2.12132
      vertex 19.4436 1.35782 1.5969
      vertex 19.4769 1.36015 1.55326
    endloop
  endfacet
  facet normal -0.924283 0.0162038 -0.381363
    outer loop
      vertex 19.7493 -2.42653 0.776457
      vertex 19.7907 1.38206 0.837942
      vertex 19.8161 1.38383 0.776457
    endloop
  endfacet
  facet normal -0.924462 0.0161987 -0.38093
    outer loop
      vertex 19.7907 1.38206 0.837942
      vertex 19.7493 -2.42653 0.776457
      vertex 19.4518 -2.38998 1.5
    endloop
  endfacet
  facet normal -0.924481 0.0162087 -0.380883
    outer loop
      vertex 19.7907 1.38206 0.837942
      vertex 19.4518 -2.38998 1.5
      vertex 19.5176 1.36299 1.5
    endloop
  endfacet
  facet normal -0.991329 0.0173939 -0.130247
    outer loop
      vertex 19.8507 -2.43899 0
      vertex 19.9093 1.39035 0.0653771
      vertex 19.9179 1.39094 0
    endloop
  endfacet
  facet normal -0.991395 0.0173864 -0.129748
    outer loop
      vertex 19.9093 1.39035 0.0653771
      vertex 19.8507 -2.43899 0
      vertex 19.7493 -2.42653 0.776457
    endloop
  endfacet
  facet normal -0.99139 0.0173802 -0.12978
    outer loop
      vertex 19.9093 1.39035 0.0653771
      vertex 19.7493 -2.42653 0.776457
      vertex 19.8161 1.38383 0.776457
    endloop
  endfacet
  facet normal 0 0 -1
    outer loop
      vertex 19.8507 -2.43899 0
      vertex 20.949 1.46295 0
      vertex 20.808 -2.83355 0
    endloop
  endfacet
  facet normal 0 0 -1
    outer loop
      vertex 20.949 1.46295 0
      vertex 19.8507 -2.43899 0
      vertex 20.677 1.44396 0
    endloop
  endfacet
  facet normal 0 0 -1
    outer loop
      vertex 20.677 1.44396 0
      vertex 19.8507 -2.43899 0
      vertex 19.9179 1.39094 0
    endloop
  endfacet
  facet normal 0 0 -1
    outer loop
      vertex 18.9099 -6.51268 0
      vertex 20.808 -2.83355 0
      vertex 19.795 -7.01132 0
    endloop
  endfacet
  facet normal -0 0 -1
    outer loop
      vertex 20.808 -2.83355 0
      vertex 18.9099 -6.51268 0
      vertex 19.8507 -2.43899 0
    endloop
  endfacet
  facet normal 0 0 -1
    outer loop
      vertex 17.1427 -10.3018 0
      vertex 19.795 -7.01132 0
      vertex 17.9525 -10.8953 0
    endloop
  endfacet
  facet normal -0 0 -1
    outer loop
      vertex 19.795 -7.01132 0
      vertex 17.1427 -10.3018 0
      vertex 18.9099 -6.51268 0
    endloop
  endfacet
  facet normal 0 0 -1
    outer loop
      vertex 14.6264 -13.6406 0
      vertex 17.9525 -10.8953 0
      vertex 15.3578 -14.3227 0
    endloop
  endfacet
  facet normal -0 0 -1
    outer loop
      vertex 17.9525 -10.8953 0
      vertex 14.6264 -13.6406 0
      vertex 17.1427 -10.3018 0
    endloop
  endfacet
  facet normal 0 0 -1
    outer loop
      vertex 12.1195 -17.1499 0
      vertex 14.6264 -13.6406 0
      vertex 15.3578 -14.3227 0
    endloop
  endfacet
  facet normal 0 0 -1
    outer loop
      vertex 12.1195 -17.1499 0
      vertex 11.471 -16.3834 0
      vertex 14.6264 -13.6406 0
    endloop
  endfacet
  facet normal 0 0 -1
    outer loop
      vertex 8.37329 -19.2585 0
      vertex 11.471 -16.3834 0
      vertex 12.1195 -17.1499 0
    endloop
  endfacet
  facet normal 0 0 -1
    outer loop
      vertex 8.37329 -19.2585 0
      vertex 7.8142 -18.4103 0
      vertex 11.471 -16.3834 0
    endloop
  endfacet
  facet normal 0 0 -1
    outer loop
      vertex 4.27624 -20.56 0
      vertex 7.8142 -18.4103 0
      vertex 8.37329 -19.2585 0
    endloop
  endfacet
  facet normal 0 0 -1
    outer loop
      vertex 4.27624 -20.56 0
      vertex 3.81595 -19.6326 0
      vertex 7.8142 -18.4103 0
    endloop
  endfacet
  facet normal 0 0 -1
    outer loop
      vertex 4.66294e-15 -21 0
      vertex 3.81595 -19.6326 0
      vertex 4.27624 -20.56 0
    endloop
  endfacet
  facet normal 0 0 -1
    outer loop
      vertex 3.81595 -19.6326 0
      vertex 4.66294e-15 -21 0
      vertex 4.43344e-15 -19.9664 0
    endloop
  endfacet
  facet normal 0 0 -1
    outer loop
      vertex 13.8955 -1.7073 0
      vertex 13.3811 0.934454 0
      vertex 13.9425 0.97366 0
    endloop
  endfacet
  facet normal 0 0 -1
    outer loop
      vertex 12.8811 -1.7541 0
      vertex 13.8955 -1.7073 0
      vertex 13.2369 -4.55887 0
    endloop
  endfacet
  facet normal -0 0 -1
    outer loop
      vertex 13.8955 -1.7073 0
      vertex 12.8811 -1.7541 0
      vertex 13.3811 0.934454 0
    endloop
  endfacet
  facet normal 0 0 -1
    outer loop
      vertex 13.3811 0.934454 0
      vertex 12.8811 -1.7541 0
      vertex 13.1044 0.915129 0
    endloop
  endfacet
  facet normal 0 0 -1
    outer loop
      vertex 13.1044 0.915129 0
      vertex 12.8811 -1.7541 0
      vertex 12.9684 0.905634 0
    endloop
  endfacet
  facet normal 0 0 -1
    outer loop
      vertex 13.2369 -4.55887 0
      vertex 12.254 -4.34034 0
      vertex 12.8811 -1.7541 0
    endloop
  endfacet
  facet normal 0 0 -1
    outer loop
      vertex 11.9999 -7.21123 0
      vertex 12.254 -4.34034 0
      vertex 13.2369 -4.55887 0
    endloop
  endfacet
  facet normal 0 0 -1
    outer loop
      vertex 11.9999 -7.21123 0
      vertex 11.1135 -6.74469 0
      vertex 12.254 -4.34034 0
    endloop
  endfacet
  facet normal 0 0 -1
    outer loop
      vertex 10.2385 -9.54845 0
      vertex 11.1135 -6.74469 0
      vertex 11.9999 -7.21123 0
    endloop
  endfacet
  facet normal 0 0 -1
    outer loop
      vertex 10.2385 -9.54845 0
      vertex 9.50719 -8.86642 0
      vertex 11.1135 -6.74469 0
    endloop
  endfacet
  facet normal 0 0 -1
    outer loop
      vertex 7.50252 -10.6166 0
      vertex 10.2385 -9.54845 0
      vertex 8.02967 -11.4684 0
    endloop
  endfacet
  facet normal -0 0 -1
    outer loop
      vertex 10.2385 -9.54845 0
      vertex 7.50252 -10.6166 0
      vertex 9.50719 -8.86642 0
    endloop
  endfacet
  facet normal 0 0 -1
    outer loop
      vertex 5.18346 -11.9219 0
      vertex 8.02967 -11.4684 0
      vertex 5.46994 -12.8872 0
    endloop
  endfacet
  facet normal -0 0 -1
    outer loop
      vertex 8.02967 -11.4684 0
      vertex 5.18346 -11.9219 0
      vertex 7.50252 -10.6166 0
    endloop
  endfacet
  facet normal 0 0 -1
    outer loop
      vertex 2.6472 -12.7276 0
      vertex 5.46994 -12.8872 0
      vertex 2.67117 -13.7428 0
    endloop
  endfacet
  facet normal 0 0 -1
    outer loop
      vertex 5.46994 -12.8872 0
      vertex 2.6472 -12.7276 0
      vertex 5.18346 -11.9219 0
    endloop
  endfacet
  facet normal 0 0 -1
    outer loop
      vertex 2.88658e-15 -13 0
      vertex 2.67117 -13.7428 0
      vertex 3.10341e-15 -13.9765 0
    endloop
  endfacet
  facet normal 0 0 -1
    outer loop
      vertex 2.67117 -13.7428 0
      vertex 2.88658e-15 -13 0
      vertex 2.6472 -12.7276 0
    endloop
  endfacet
endsolid OpenSCAD_Model
