solid OpenSCAD_Model
  facet normal -0 0.130523 0.991445
    outer loop
      vertex 6.6569 0.776457 2.89778
      vertex 10.7309 0 3
      vertex 10.7309 0.776457 2.89778
    endloop
  endfacet
  facet normal 0 0.130523 0.991445
    outer loop
      vertex 10.7309 0 3
      vertex 6.6569 0.776457 2.89778
      vertex 6.6569 0 3
    endloop
  endfacet
  facet normal 0 1 -0
    outer loop
      vertex 10.7309 3 0
      vertex 6.6569 3 2.22045e-16
      vertex 10.7309 3 1.12665e-15
    endloop
  endfacet
  facet normal 0 1 0
    outer loop
      vertex 6.6569 3 2.22045e-16
      vertex 10.7309 3 0
      vertex 6.6569 3 0
    endloop
  endfacet
  facet normal 0 -0.991445 0.130523
    outer loop
      vertex 6.6569 -2.89778 0.776457
      vertex 10.7309 -3 1.12665e-15
      vertex 10.7309 -2.89778 0.776457
    endloop
  endfacet
  facet normal -2.89818e-17 -0.991445 0.130523
    outer loop
      vertex 10.7309 -3 1.12665e-15
      vertex 6.6569 -2.89778 0.776457
      vertex 6.6569 -3 2.22045e-16
    endloop
  endfacet
  facet normal 0 0.793351 0.608765
    outer loop
      vertex 10.7309 2.59808 1.5
      vertex 6.6569 2.12132 2.12132
      vertex 10.7309 2.12132 2.12132
    endloop
  endfacet
  facet normal 0 0.793351 0.608765
    outer loop
      vertex 6.6569 2.12132 2.12132
      vertex 10.7309 2.59808 1.5
      vertex 6.6569 2.59808 1.5
    endloop
  endfacet
  facet normal -0 0.608765 0.793351
    outer loop
      vertex 6.6569 2.12132 2.12132
      vertex 10.7309 1.5 2.59808
      vertex 10.7309 2.12132 2.12132
    endloop
  endfacet
  facet normal 0 0.608765 0.793351
    outer loop
      vertex 10.7309 1.5 2.59808
      vertex 6.6569 2.12132 2.12132
      vertex 6.6569 1.5 2.59808
    endloop
  endfacet
  facet normal 0 0.92388 0.382682
    outer loop
      vertex 10.7309 2.89778 0.776457
      vertex 6.6569 2.59808 1.5
      vertex 10.7309 2.59808 1.5
    endloop
  endfacet
  facet normal 0 0.92388 0.382682
    outer loop
      vertex 6.6569 2.59808 1.5
      vertex 10.7309 2.89778 0.776457
      vertex 6.6569 2.89778 0.776457
    endloop
  endfacet
  facet normal 0 -0.793351 0.608765
    outer loop
      vertex 6.6569 -2.59808 1.5
      vertex 10.7309 -2.12132 2.12132
      vertex 6.6569 -2.12132 2.12132
    endloop
  endfacet
  facet normal 0 -0.793351 0.608765
    outer loop
      vertex 10.7309 -2.12132 2.12132
      vertex 6.6569 -2.59808 1.5
      vertex 10.7309 -2.59808 1.5
    endloop
  endfacet
  facet normal -1 0 0
    outer loop
      vertex 5.6569 1.93185 0.517637
      vertex 5.6569 3.8637 1.03528
      vertex 5.6569 4 0
    endloop
  endfacet
  facet normal -1 -0 0
    outer loop
      vertex 5.6569 3.8637 1.03528
      vertex 5.6569 1.93185 0.517637
      vertex 5.6569 3.4641 2
    endloop
  endfacet
  facet normal -1 0 0
    outer loop
      vertex 5.6569 1.93185 0.517637
      vertex 5.6569 4 0
      vertex 5.6569 2 0
    endloop
  endfacet
  facet normal -1 0 0
    outer loop
      vertex 5.6569 1.73205 0.999999
      vertex 5.6569 3.4641 2
      vertex 5.6569 1.93185 0.517637
    endloop
  endfacet
  facet normal -1 -0 0
    outer loop
      vertex 5.6569 3.4641 2
      vertex 5.6569 1.73205 0.999999
      vertex 5.6569 2.82843 2.82843
    endloop
  endfacet
  facet normal -1 0 0
    outer loop
      vertex 5.6569 1.41421 1.41421
      vertex 5.6569 2.82843 2.82843
      vertex 5.6569 1.73205 0.999999
    endloop
  endfacet
  facet normal -1 -0 0
    outer loop
      vertex 5.6569 2.82843 2.82843
      vertex 5.6569 1.41421 1.41421
      vertex 5.6569 2 3.4641
    endloop
  endfacet
  facet normal -1 0 0
    outer loop
      vertex 5.6569 0.999999 1.73205
      vertex 5.6569 2 3.4641
      vertex 5.6569 1.41421 1.41421
    endloop
  endfacet
  facet normal -1 -0 0
    outer loop
      vertex 5.6569 2 3.4641
      vertex 5.6569 0.999999 1.73205
      vertex 5.6569 1.03528 3.8637
    endloop
  endfacet
  facet normal -1 0 0
    outer loop
      vertex 5.6569 0.517637 1.93185
      vertex 5.6569 1.03528 3.8637
      vertex 5.6569 0.999999 1.73205
    endloop
  endfacet
  facet normal -1 0 0
    outer loop
      vertex 5.6569 0 2
      vertex 5.6569 1.03528 3.8637
      vertex 5.6569 0.517637 1.93185
    endloop
  endfacet
  facet normal -1 0 0
    outer loop
      vertex 5.6569 0 2
      vertex 5.6569 0 4
      vertex 5.6569 1.03528 3.8637
    endloop
  endfacet
  facet normal -1 0 0
    outer loop
      vertex 5.6569 -0.517637 1.93185
      vertex 5.6569 0 4
      vertex 5.6569 0 2
    endloop
  endfacet
  facet normal -1 0 0
    outer loop
      vertex 5.6569 -1.03528 3.8637
      vertex 5.6569 -0.517637 1.93185
      vertex 5.6569 -0.999999 1.73205
    endloop
  endfacet
  facet normal -1 0 0
    outer loop
      vertex 5.6569 -0.517637 1.93185
      vertex 5.6569 -1.03528 3.8637
      vertex 5.6569 0 4
    endloop
  endfacet
  facet normal -1 0 0
    outer loop
      vertex 5.6569 -2 3.4641
      vertex 5.6569 -0.999999 1.73205
      vertex 5.6569 -1.41421 1.41421
    endloop
  endfacet
  facet normal -1 0 0
    outer loop
      vertex 5.6569 -2.82843 2.82843
      vertex 5.6569 -1.41421 1.41421
      vertex 5.6569 -1.73205 1
    endloop
  endfacet
  facet normal -1 0 0
    outer loop
      vertex 5.6569 -3.4641 2
      vertex 5.6569 -1.73205 1
      vertex 5.6569 -1.93185 0.517637
    endloop
  endfacet
  facet normal -1 0 0
    outer loop
      vertex 5.6569 -0.999999 1.73205
      vertex 5.6569 -2 3.4641
      vertex 5.6569 -1.03528 3.8637
    endloop
  endfacet
  facet normal -1 0 0
    outer loop
      vertex 5.6569 -3.8637 1.03528
      vertex 5.6569 -1.93185 0.517637
      vertex 5.6569 -2 0
    endloop
  endfacet
  facet normal -1 0 0
    outer loop
      vertex 5.6569 -1.41421 1.41421
      vertex 5.6569 -2.82843 2.82843
      vertex 5.6569 -2 3.4641
    endloop
  endfacet
  facet normal -1 0 0
    outer loop
      vertex 5.6569 -1.73205 1
      vertex 5.6569 -3.4641 2
      vertex 5.6569 -2.82843 2.82843
    endloop
  endfacet
  facet normal -1 0 0
    outer loop
      vertex 5.6569 -1.93185 0.517637
      vertex 5.6569 -3.8637 1.03528
      vertex 5.6569 -3.4641 2
    endloop
  endfacet
  facet normal -1 0 -0
    outer loop
      vertex 5.6569 -3.8637 1.03528
      vertex 5.6569 -2 0
      vertex 5.6569 -4 0
    endloop
  endfacet
  facet normal -0 0.382682 0.92388
    outer loop
      vertex 6.6569 1.5 2.59808
      vertex 10.7309 0.776457 2.89778
      vertex 10.7309 1.5 2.59808
    endloop
  endfacet
  facet normal 0 0.382682 0.92388
    outer loop
      vertex 10.7309 0.776457 2.89778
      vertex 6.6569 1.5 2.59808
      vertex 6.6569 0.776457 2.89778
    endloop
  endfacet
  facet normal 0 0.991445 0.130523
    outer loop
      vertex 10.7309 3 1.12665e-15
      vertex 6.6569 2.89778 0.776457
      vertex 10.7309 2.89778 0.776457
    endloop
  endfacet
  facet normal -2.60977e-17 0.991445 0.130523
    outer loop
      vertex 6.6569 2.89778 0.776457
      vertex 10.7309 3 1.12665e-15
      vertex 6.6569 3 2.22045e-16
    endloop
  endfacet
  facet normal 0 -1 0
    outer loop
      vertex 6.6569 -3 0
      vertex 10.7309 -3 1.12665e-15
      vertex 6.6569 -3 2.22045e-16
    endloop
  endfacet
  facet normal 0 -1 -0
    outer loop
      vertex 10.7309 -3 1.12665e-15
      vertex 6.6569 -3 0
      vertex 10.7309 -3 0
    endloop
  endfacet
  facet normal 0 -0.92388 0.382682
    outer loop
      vertex 6.6569 -2.89778 0.776457
      vertex 10.7309 -2.59808 1.5
      vertex 6.6569 -2.59808 1.5
    endloop
  endfacet
  facet normal 0 -0.92388 0.382682
    outer loop
      vertex 10.7309 -2.59808 1.5
      vertex 6.6569 -2.89778 0.776457
      vertex 10.7309 -2.89778 0.776457
    endloop
  endfacet
  facet normal 0 -0.608765 0.793351
    outer loop
      vertex 6.6569 -1.5 2.59808
      vertex 10.7309 -2.12132 2.12132
      vertex 10.7309 -1.5 2.59808
    endloop
  endfacet
  facet normal 0 -0.608765 0.793351
    outer loop
      vertex 10.7309 -2.12132 2.12132
      vertex 6.6569 -1.5 2.59808
      vertex 6.6569 -2.12132 2.12132
    endloop
  endfacet
  facet normal 0 -0.130523 0.991445
    outer loop
      vertex 6.6569 0 3
      vertex 10.7309 -0.776457 2.89778
      vertex 10.7309 0 3
    endloop
  endfacet
  facet normal 0 -0.130523 0.991445
    outer loop
      vertex 10.7309 -0.776457 2.89778
      vertex 6.6569 0 3
      vertex 6.6569 -0.776457 2.89778
    endloop
  endfacet
  facet normal 0 -0.382682 0.92388
    outer loop
      vertex 6.6569 -0.776457 2.89778
      vertex 10.7309 -1.5 2.59808
      vertex 10.7309 -0.776457 2.89778
    endloop
  endfacet
  facet normal 0 -0.382682 0.92388
    outer loop
      vertex 10.7309 -1.5 2.59808
      vertex 6.6569 -0.776457 2.89778
      vertex 6.6569 -1.5 2.59808
    endloop
  endfacet
  facet normal 0 -0.13053 -0.991444
    outer loop
      vertex 5.6569 0 2
      vertex 11.7309 0.517637 1.93185
      vertex 11.7309 0 2
    endloop
  endfacet
  facet normal -0 -0.13053 -0.991444
    outer loop
      vertex 11.7309 0.517637 1.93185
      vertex 5.6569 0 2
      vertex 5.6569 0.517637 1.93185
    endloop
  endfacet
  facet normal 0 -1 0
    outer loop
      vertex 11.7309 2 0
      vertex 11.7309 2 1.3487e-15
      vertex 5.6569 2 0
    endloop
  endfacet
  facet normal 0 0.991444 -0.13053
    outer loop
      vertex 11.7309 -2 1.3487e-15
      vertex 5.6569 -1.93185 0.517637
      vertex 11.7309 -1.93185 0.517637
    endloop
  endfacet
  facet normal 2.84447e-17 0.991444 -0.13053
    outer loop
      vertex 5.6569 -1.93185 0.517637
      vertex 11.7309 -2 1.3487e-15
      vertex 5.6569 -2 0
    endloop
  endfacet
  facet normal 0 1 0
    outer loop
      vertex 11.7309 -2 1.3487e-15
      vertex 11.7309 -2 0
      vertex 5.6569 -2 0
    endloop
  endfacet
  facet normal 0 0.608767 -0.793349
    outer loop
      vertex 5.6569 -1.41421 1.41421
      vertex 11.7309 -0.999999 1.73205
      vertex 11.7309 -1.41421 1.41421
    endloop
  endfacet
  facet normal 0 0.608767 -0.793349
    outer loop
      vertex 11.7309 -0.999999 1.73205
      vertex 5.6569 -1.41421 1.41421
      vertex 5.6569 -0.999999 1.73205
    endloop
  endfacet
  facet normal 0 -0.793349 -0.608767
    outer loop
      vertex 5.6569 1.73205 0.999999
      vertex 11.7309 1.41421 1.41421
      vertex 5.6569 1.41421 1.41421
    endloop
  endfacet
  facet normal 0 -0.793349 -0.608767
    outer loop
      vertex 11.7309 1.41421 1.41421
      vertex 5.6569 1.73205 0.999999
      vertex 11.7309 1.73205 0.999999
    endloop
  endfacet
  facet normal 0 -0.991444 -0.13053
    outer loop
      vertex 5.6569 1.93185 0.517637
      vertex 11.7309 2 1.3487e-15
      vertex 11.7309 1.93185 0.517637
    endloop
  endfacet
  facet normal 2.89834e-17 -0.991444 -0.13053
    outer loop
      vertex 11.7309 2 1.3487e-15
      vertex 5.6569 1.93185 0.517637
      vertex 5.6569 2 0
    endloop
  endfacet
  facet normal 0 0.13053 -0.991444
    outer loop
      vertex 5.6569 -0.517637 1.93185
      vertex 11.7309 0 2
      vertex 11.7309 -0.517637 1.93185
    endloop
  endfacet
  facet normal 0 0.13053 -0.991444
    outer loop
      vertex 11.7309 0 2
      vertex 5.6569 -0.517637 1.93185
      vertex 5.6569 0 2
    endloop
  endfacet
  facet normal 0 -0.608767 -0.793349
    outer loop
      vertex 5.6569 0.999999 1.73205
      vertex 11.7309 1.41421 1.41421
      vertex 11.7309 0.999999 1.73205
    endloop
  endfacet
  facet normal -0 -0.608767 -0.793349
    outer loop
      vertex 11.7309 1.41421 1.41421
      vertex 5.6569 0.999999 1.73205
      vertex 5.6569 1.41421 1.41421
    endloop
  endfacet
  facet normal 0 -0.382682 -0.92388
    outer loop
      vertex 5.6569 0.517637 1.93185
      vertex 11.7309 0.999999 1.73205
      vertex 11.7309 0.517637 1.93185
    endloop
  endfacet
  facet normal -0 -0.382682 -0.92388
    outer loop
      vertex 11.7309 0.999999 1.73205
      vertex 5.6569 0.517637 1.93185
      vertex 5.6569 0.999999 1.73205
    endloop
  endfacet
  facet normal 0 -0.92388 -0.382682
    outer loop
      vertex 5.6569 1.93185 0.517637
      vertex 11.7309 1.73205 0.999999
      vertex 5.6569 1.73205 0.999999
    endloop
  endfacet
  facet normal 0 -0.92388 -0.382682
    outer loop
      vertex 11.7309 1.73205 0.999999
      vertex 5.6569 1.93185 0.517637
      vertex 11.7309 1.93185 0.517637
    endloop
  endfacet
  facet normal 0 0.793348 -0.608768
    outer loop
      vertex 11.7309 -1.73205 1
      vertex 5.6569 -1.41421 1.41421
      vertex 11.7309 -1.41421 1.41421
    endloop
  endfacet
  facet normal 0 0.793348 -0.608768
    outer loop
      vertex 5.6569 -1.41421 1.41421
      vertex 11.7309 -1.73205 1
      vertex 5.6569 -1.73205 1
    endloop
  endfacet
  facet normal 0 0.382682 -0.92388
    outer loop
      vertex 5.6569 -0.999999 1.73205
      vertex 11.7309 -0.517637 1.93185
      vertex 11.7309 -0.999999 1.73205
    endloop
  endfacet
  facet normal 0 0.382682 -0.92388
    outer loop
      vertex 11.7309 -0.517637 1.93185
      vertex 5.6569 -0.999999 1.73205
      vertex 5.6569 -0.517637 1.93185
    endloop
  endfacet
  facet normal 0 0.92388 -0.382681
    outer loop
      vertex 11.7309 -1.93185 0.517637
      vertex 5.6569 -1.73205 1
      vertex 11.7309 -1.73205 1
    endloop
  endfacet
  facet normal 0 0.92388 -0.382681
    outer loop
      vertex 5.6569 -1.73205 1
      vertex 11.7309 -1.93185 0.517637
      vertex 5.6569 -1.93185 0.517637
    endloop
  endfacet
  facet normal 0 -0.92388 0.382683
    outer loop
      vertex 5.6569 -3.8637 1.03528
      vertex 6.6569 -3.4641 2
      vertex 5.6569 -3.4641 2
    endloop
  endfacet
  facet normal 0 -0.92388 0.382683
    outer loop
      vertex 6.6569 -3.4641 2
      vertex 5.6569 -3.8637 1.03528
      vertex 6.6569 -3.8637 1.03528
    endloop
  endfacet
  facet normal 0 1 -0
    outer loop
      vertex 6.6569 4 0
      vertex 5.6569 4 0
      vertex 6.6569 4 2.22045e-16
    endloop
  endfacet
  facet normal 0 0.92388 0.382683
    outer loop
      vertex 6.6569 3.8637 1.03528
      vertex 5.6569 3.4641 2
      vertex 6.6569 3.4641 2
    endloop
  endfacet
  facet normal 0 0.92388 0.382683
    outer loop
      vertex 5.6569 3.4641 2
      vertex 6.6569 3.8637 1.03528
      vertex 5.6569 3.8637 1.03528
    endloop
  endfacet
  facet normal -0 0.608757 0.793356
    outer loop
      vertex 5.6569 2.82843 2.82843
      vertex 6.6569 2 3.4641
      vertex 6.6569 2.82843 2.82843
    endloop
  endfacet
  facet normal 0 0.608757 0.793356
    outer loop
      vertex 6.6569 2 3.4641
      vertex 5.6569 2.82843 2.82843
      vertex 5.6569 2 3.4641
    endloop
  endfacet
  facet normal 0 0.793356 0.608757
    outer loop
      vertex 6.6569 3.4641 2
      vertex 5.6569 2.82843 2.82843
      vertex 6.6569 2.82843 2.82843
    endloop
  endfacet
  facet normal 0 0.793356 0.608757
    outer loop
      vertex 5.6569 2.82843 2.82843
      vertex 6.6569 3.4641 2
      vertex 5.6569 3.4641 2
    endloop
  endfacet
  facet normal 0 -0.382683 0.92388
    outer loop
      vertex 5.6569 -1.03528 3.8637
      vertex 6.6569 -2 3.4641
      vertex 6.6569 -1.03528 3.8637
    endloop
  endfacet
  facet normal 0 -0.382683 0.92388
    outer loop
      vertex 6.6569 -2 3.4641
      vertex 5.6569 -1.03528 3.8637
      vertex 5.6569 -2 3.4641
    endloop
  endfacet
  facet normal 0 -0.793356 0.608757
    outer loop
      vertex 5.6569 -3.4641 2
      vertex 6.6569 -2.82843 2.82843
      vertex 5.6569 -2.82843 2.82843
    endloop
  endfacet
  facet normal 0 -0.793356 0.608757
    outer loop
      vertex 6.6569 -2.82843 2.82843
      vertex 5.6569 -3.4641 2
      vertex 6.6569 -3.4641 2
    endloop
  endfacet
  facet normal 0 -0.608757 0.793356
    outer loop
      vertex 5.6569 -2 3.4641
      vertex 6.6569 -2.82843 2.82843
      vertex 6.6569 -2 3.4641
    endloop
  endfacet
  facet normal 0 -0.608757 0.793356
    outer loop
      vertex 6.6569 -2.82843 2.82843
      vertex 5.6569 -2 3.4641
      vertex 5.6569 -2.82843 2.82843
    endloop
  endfacet
  facet normal -0 0.130529 0.991445
    outer loop
      vertex 5.6569 1.03528 3.8637
      vertex 6.6569 0 4
      vertex 6.6569 1.03528 3.8637
    endloop
  endfacet
  facet normal 0 0.130529 0.991445
    outer loop
      vertex 6.6569 0 4
      vertex 5.6569 1.03528 3.8637
      vertex 5.6569 0 4
    endloop
  endfacet
  facet normal 0 0.991445 0.130529
    outer loop
      vertex 6.6569 4 2.22045e-16
      vertex 5.6569 3.8637 1.03528
      vertex 6.6569 3.8637 1.03528
    endloop
  endfacet
  facet normal -2.65804e-17 0.991445 0.130529
    outer loop
      vertex 5.6569 3.8637 1.03528
      vertex 6.6569 4 2.22045e-16
      vertex 5.6569 4 0
    endloop
  endfacet
  facet normal 0 -1 -0
    outer loop
      vertex 6.6569 -4 2.22045e-16
      vertex 5.6569 -4 0
      vertex 6.6569 -4 0
    endloop
  endfacet
  facet normal 0 -0.991445 0.130529
    outer loop
      vertex 5.6569 -3.8637 1.03528
      vertex 6.6569 -4 2.22045e-16
      vertex 6.6569 -3.8637 1.03528
    endloop
  endfacet
  facet normal -2.89833e-17 -0.991445 0.130529
    outer loop
      vertex 6.6569 -4 2.22045e-16
      vertex 5.6569 -3.8637 1.03528
      vertex 5.6569 -4 0
    endloop
  endfacet
  facet normal 0 -0.130529 0.991445
    outer loop
      vertex 5.6569 0 4
      vertex 6.6569 -1.03528 3.8637
      vertex 6.6569 0 4
    endloop
  endfacet
  facet normal 0 -0.130529 0.991445
    outer loop
      vertex 6.6569 -1.03528 3.8637
      vertex 5.6569 0 4
      vertex 5.6569 -1.03528 3.8637
    endloop
  endfacet
  facet normal 1 0 0
    outer loop
      vertex 6.6569 3.8637 1.03528
      vertex 6.6569 2.89778 0.776457
      vertex 6.6569 3 2.22045e-16
    endloop
  endfacet
  facet normal 1 0 0
    outer loop
      vertex 6.6569 2.59808 1.5
      vertex 6.6569 3.4641 2
      vertex 6.6569 2.82843 2.82843
    endloop
  endfacet
  facet normal 1 0 0
    outer loop
      vertex 6.6569 3.4641 2
      vertex 6.6569 2.59808 1.5
      vertex 6.6569 2.89778 0.776457
    endloop
  endfacet
  facet normal 1 0 0
    outer loop
      vertex 6.6569 2.82843 2.82843
      vertex 6.6569 2.12132 2.12132
      vertex 6.6569 2.59808 1.5
    endloop
  endfacet
  facet normal 1 0 0
    outer loop
      vertex 6.6569 2 3.4641
      vertex 6.6569 2.12132 2.12132
      vertex 6.6569 2.82843 2.82843
    endloop
  endfacet
  facet normal 1 0 0
    outer loop
      vertex 6.6569 2 3.4641
      vertex 6.6569 1.5 2.59808
      vertex 6.6569 2.12132 2.12132
    endloop
  endfacet
  facet normal 1 0 0
    outer loop
      vertex 6.6569 1.03528 3.8637
      vertex 6.6569 1.5 2.59808
      vertex 6.6569 2 3.4641
    endloop
  endfacet
  facet normal 1 0 0
    outer loop
      vertex 6.6569 1.03528 3.8637
      vertex 6.6569 0.776457 2.89778
      vertex 6.6569 1.5 2.59808
    endloop
  endfacet
  facet normal 1 0 0
    outer loop
      vertex 6.6569 0 4
      vertex 6.6569 0.776457 2.89778
      vertex 6.6569 1.03528 3.8637
    endloop
  endfacet
  facet normal 1 0 0
    outer loop
      vertex 6.6569 0 4
      vertex 6.6569 0 3
      vertex 6.6569 0.776457 2.89778
    endloop
  endfacet
  facet normal 1 0 0
    outer loop
      vertex 6.6569 0 4
      vertex 6.6569 -0.776457 2.89778
      vertex 6.6569 0 3
    endloop
  endfacet
  facet normal 1 -0 0
    outer loop
      vertex 6.6569 -1.03528 3.8637
      vertex 6.6569 -0.776457 2.89778
      vertex 6.6569 0 4
    endloop
  endfacet
  facet normal 1 0 0
    outer loop
      vertex 6.6569 -1.03528 3.8637
      vertex 6.6569 -1.5 2.59808
      vertex 6.6569 -0.776457 2.89778
    endloop
  endfacet
  facet normal 1 -0 0
    outer loop
      vertex 6.6569 -2 3.4641
      vertex 6.6569 -1.5 2.59808
      vertex 6.6569 -1.03528 3.8637
    endloop
  endfacet
  facet normal 1 0 0
    outer loop
      vertex 6.6569 -2 3.4641
      vertex 6.6569 -2.12132 2.12132
      vertex 6.6569 -1.5 2.59808
    endloop
  endfacet
  facet normal 1 -0 0
    outer loop
      vertex 6.6569 -2.82843 2.82843
      vertex 6.6569 -2.12132 2.12132
      vertex 6.6569 -2 3.4641
    endloop
  endfacet
  facet normal 1 0 0
    outer loop
      vertex 6.6569 -2.12132 2.12132
      vertex 6.6569 -2.82843 2.82843
      vertex 6.6569 -2.59808 1.5
    endloop
  endfacet
  facet normal 1 -0 0
    outer loop
      vertex 6.6569 -3.4641 2
      vertex 6.6569 -2.59808 1.5
      vertex 6.6569 -2.82843 2.82843
    endloop
  endfacet
  facet normal 1 0 0
    outer loop
      vertex 6.6569 -2.59808 1.5
      vertex 6.6569 -3.4641 2
      vertex 6.6569 -2.89778 0.776457
    endloop
  endfacet
  facet normal 1 -0 0
    outer loop
      vertex 6.6569 -3.8637 1.03528
      vertex 6.6569 -2.89778 0.776457
      vertex 6.6569 -3.4641 2
    endloop
  endfacet
  facet normal 1 0 0
    outer loop
      vertex 6.6569 -2.89778 0.776457
      vertex 6.6569 -3.8637 1.03528
      vertex 6.6569 -3 2.22045e-16
    endloop
  endfacet
  facet normal 1 0 0
    outer loop
      vertex 6.6569 -4 2.22045e-16
      vertex 6.6569 -3 2.22045e-16
      vertex 6.6569 -3.8637 1.03528
    endloop
  endfacet
  facet normal 1 0 0
    outer loop
      vertex 6.6569 -3 2.22045e-16
      vertex 6.6569 -4 2.22045e-16
      vertex 6.6569 -3 0
    endloop
  endfacet
  facet normal 1 0 0
    outer loop
      vertex 6.6569 -3 0
      vertex 6.6569 -4 2.22045e-16
      vertex 6.6569 -4 0
    endloop
  endfacet
  facet normal 1 0 0
    outer loop
      vertex 6.6569 3 2.22045e-16
      vertex 6.6569 4 2.22045e-16
      vertex 6.6569 3.8637 1.03528
    endloop
  endfacet
  facet normal 1 0 0
    outer loop
      vertex 6.6569 2.89778 0.776457
      vertex 6.6569 3.8637 1.03528
      vertex 6.6569 3.4641 2
    endloop
  endfacet
  facet normal 1 0 0
    outer loop
      vertex 6.6569 4 2.22045e-16
      vertex 6.6569 3 2.22045e-16
      vertex 6.6569 4 0
    endloop
  endfacet
  facet normal 1 0 0
    outer loop
      vertex 6.6569 4 0
      vertex 6.6569 3 2.22045e-16
      vertex 6.6569 3 0
    endloop
  endfacet
  facet normal -0 0.382683 0.92388
    outer loop
      vertex 5.6569 2 3.4641
      vertex 6.6569 1.03528 3.8637
      vertex 6.6569 2 3.4641
    endloop
  endfacet
  facet normal 0 0.382683 0.92388
    outer loop
      vertex 6.6569 1.03528 3.8637
      vertex 5.6569 2 3.4641
      vertex 5.6569 1.03528 3.8637
    endloop
  endfacet
  facet normal -0 0.130529 0.991445
    outer loop
      vertex 10.7309 1.03528 3.8637
      vertex 11.7309 0 4
      vertex 11.7309 1.03528 3.8637
    endloop
  endfacet
  facet normal 0 0.130529 0.991445
    outer loop
      vertex 11.7309 0 4
      vertex 10.7309 1.03528 3.8637
      vertex 10.7309 0 4
    endloop
  endfacet
  facet normal 0 1 -0
    outer loop
      vertex 11.7309 4 0
      vertex 10.7309 4 1.12665e-15
      vertex 11.7309 4 1.3487e-15
    endloop
  endfacet
  facet normal 0 1 0
    outer loop
      vertex 10.7309 4 1.12665e-15
      vertex 11.7309 4 0
      vertex 10.7309 4 0
    endloop
  endfacet
  facet normal 0 -0.991445 0.130529
    outer loop
      vertex 10.7309 -3.8637 1.03528
      vertex 11.7309 -4 1.3487e-15
      vertex 11.7309 -3.8637 1.03528
    endloop
  endfacet
  facet normal -2.89839e-17 -0.991445 0.130529
    outer loop
      vertex 11.7309 -4 1.3487e-15
      vertex 10.7309 -3.8637 1.03528
      vertex 10.7309 -4 1.12665e-15
    endloop
  endfacet
  facet normal 0 0.793356 0.608757
    outer loop
      vertex 11.7309 3.4641 2
      vertex 10.7309 2.82843 2.82843
      vertex 11.7309 2.82843 2.82843
    endloop
  endfacet
  facet normal 0 0.793356 0.608757
    outer loop
      vertex 10.7309 2.82843 2.82843
      vertex 11.7309 3.4641 2
      vertex 10.7309 3.4641 2
    endloop
  endfacet
  facet normal -0 0.608757 0.793356
    outer loop
      vertex 10.7309 2.82843 2.82843
      vertex 11.7309 2 3.4641
      vertex 11.7309 2.82843 2.82843
    endloop
  endfacet
  facet normal 0 0.608757 0.793356
    outer loop
      vertex 11.7309 2 3.4641
      vertex 10.7309 2.82843 2.82843
      vertex 10.7309 2 3.4641
    endloop
  endfacet
  facet normal 0 0.92388 0.382683
    outer loop
      vertex 11.7309 3.8637 1.03528
      vertex 10.7309 3.4641 2
      vertex 11.7309 3.4641 2
    endloop
  endfacet
  facet normal 0 0.92388 0.382683
    outer loop
      vertex 10.7309 3.4641 2
      vertex 11.7309 3.8637 1.03528
      vertex 10.7309 3.8637 1.03528
    endloop
  endfacet
  facet normal 0 -0.793356 0.608757
    outer loop
      vertex 10.7309 -3.4641 2
      vertex 11.7309 -2.82843 2.82843
      vertex 10.7309 -2.82843 2.82843
    endloop
  endfacet
  facet normal 0 -0.793356 0.608757
    outer loop
      vertex 11.7309 -2.82843 2.82843
      vertex 10.7309 -3.4641 2
      vertex 11.7309 -3.4641 2
    endloop
  endfacet
  facet normal -1 0 0
    outer loop
      vertex 10.7309 -4 1.12665e-15
      vertex 10.7309 -3 1.12665e-15
      vertex 10.7309 -3 0
    endloop
  endfacet
  facet normal -1 0 0
    outer loop
      vertex 10.7309 -3 1.12665e-15
      vertex 10.7309 -3.8637 1.03528
      vertex 10.7309 -3.4641 2
    endloop
  endfacet
  facet normal -1 0 0
    outer loop
      vertex 10.7309 -4 1.12665e-15
      vertex 10.7309 -3 0
      vertex 10.7309 -4 0
    endloop
  endfacet
  facet normal -1 0 0
    outer loop
      vertex 10.7309 -3 1.12665e-15
      vertex 10.7309 -4 1.12665e-15
      vertex 10.7309 -3.8637 1.03528
    endloop
  endfacet
  facet normal -1 0 0
    outer loop
      vertex 10.7309 3 1.12665e-15
      vertex 10.7309 4 1.12665e-15
      vertex 10.7309 4 0
    endloop
  endfacet
  facet normal -1 0 0
    outer loop
      vertex 10.7309 4 1.12665e-15
      vertex 10.7309 2.89778 0.776457
      vertex 10.7309 3.8637 1.03528
    endloop
  endfacet
  facet normal -1 0 0
    outer loop
      vertex 10.7309 3 1.12665e-15
      vertex 10.7309 4 0
      vertex 10.7309 3 0
    endloop
  endfacet
  facet normal -1 0 0
    outer loop
      vertex 10.7309 4 1.12665e-15
      vertex 10.7309 3 1.12665e-15
      vertex 10.7309 2.89778 0.776457
    endloop
  endfacet
  facet normal -1 -0 0
    outer loop
      vertex 10.7309 3.8637 1.03528
      vertex 10.7309 2.89778 0.776457
      vertex 10.7309 3.4641 2
    endloop
  endfacet
  facet normal -1 0 0
    outer loop
      vertex 10.7309 2.59808 1.5
      vertex 10.7309 3.4641 2
      vertex 10.7309 2.89778 0.776457
    endloop
  endfacet
  facet normal -1 -0 0
    outer loop
      vertex 10.7309 3.4641 2
      vertex 10.7309 2.59808 1.5
      vertex 10.7309 2.82843 2.82843
    endloop
  endfacet
  facet normal -1 0 0
    outer loop
      vertex 10.7309 2.12132 2.12132
      vertex 10.7309 2.82843 2.82843
      vertex 10.7309 2.59808 1.5
    endloop
  endfacet
  facet normal -1 0 0
    outer loop
      vertex 10.7309 2.12132 2.12132
      vertex 10.7309 2 3.4641
      vertex 10.7309 2.82843 2.82843
    endloop
  endfacet
  facet normal -1 0 0
    outer loop
      vertex 10.7309 1.5 2.59808
      vertex 10.7309 2 3.4641
      vertex 10.7309 2.12132 2.12132
    endloop
  endfacet
  facet normal -1 0 0
    outer loop
      vertex 10.7309 1.5 2.59808
      vertex 10.7309 1.03528 3.8637
      vertex 10.7309 2 3.4641
    endloop
  endfacet
  facet normal -1 0 0
    outer loop
      vertex 10.7309 0.776457 2.89778
      vertex 10.7309 1.03528 3.8637
      vertex 10.7309 1.5 2.59808
    endloop
  endfacet
  facet normal -1 0 0
    outer loop
      vertex 10.7309 0 3
      vertex 10.7309 1.03528 3.8637
      vertex 10.7309 0.776457 2.89778
    endloop
  endfacet
  facet normal -1 0 0
    outer loop
      vertex 10.7309 0 3
      vertex 10.7309 0 4
      vertex 10.7309 1.03528 3.8637
    endloop
  endfacet
  facet normal -1 0 0
    outer loop
      vertex 10.7309 -0.776457 2.89778
      vertex 10.7309 0 4
      vertex 10.7309 0 3
    endloop
  endfacet
  facet normal -1 0 0
    outer loop
      vertex 10.7309 -0.776457 2.89778
      vertex 10.7309 -1.03528 3.8637
      vertex 10.7309 0 4
    endloop
  endfacet
  facet normal -1 0 0
    outer loop
      vertex 10.7309 -1.5 2.59808
      vertex 10.7309 -1.03528 3.8637
      vertex 10.7309 -0.776457 2.89778
    endloop
  endfacet
  facet normal -1 0 0
    outer loop
      vertex 10.7309 -1.5 2.59808
      vertex 10.7309 -2 3.4641
      vertex 10.7309 -1.03528 3.8637
    endloop
  endfacet
  facet normal -1 0 0
    outer loop
      vertex 10.7309 -2.12132 2.12132
      vertex 10.7309 -2 3.4641
      vertex 10.7309 -1.5 2.59808
    endloop
  endfacet
  facet normal -1 0 0
    outer loop
      vertex 10.7309 -2.82843 2.82843
      vertex 10.7309 -2.12132 2.12132
      vertex 10.7309 -2.59808 1.5
    endloop
  endfacet
  facet normal -1 0 0
    outer loop
      vertex 10.7309 -2.12132 2.12132
      vertex 10.7309 -2.82843 2.82843
      vertex 10.7309 -2 3.4641
    endloop
  endfacet
  facet normal -1 0 0
    outer loop
      vertex 10.7309 -3.4641 2
      vertex 10.7309 -2.59808 1.5
      vertex 10.7309 -2.89778 0.776457
    endloop
  endfacet
  facet normal -1 0 0
    outer loop
      vertex 10.7309 -3.4641 2
      vertex 10.7309 -2.89778 0.776457
      vertex 10.7309 -3 1.12665e-15
    endloop
  endfacet
  facet normal -1 0 0
    outer loop
      vertex 10.7309 -2.59808 1.5
      vertex 10.7309 -3.4641 2
      vertex 10.7309 -2.82843 2.82843
    endloop
  endfacet
  facet normal -0 0.382683 0.92388
    outer loop
      vertex 10.7309 2 3.4641
      vertex 11.7309 1.03528 3.8637
      vertex 11.7309 2 3.4641
    endloop
  endfacet
  facet normal 0 0.382683 0.92388
    outer loop
      vertex 11.7309 1.03528 3.8637
      vertex 10.7309 2 3.4641
      vertex 10.7309 1.03528 3.8637
    endloop
  endfacet
  facet normal 1 0 0
    outer loop
      vertex 11.7309 1.41421 1.41421
      vertex 11.7309 2.82843 2.82843
      vertex 11.7309 2 3.4641
    endloop
  endfacet
  facet normal 1 0 0
    outer loop
      vertex 11.7309 2.82843 2.82843
      vertex 11.7309 1.93185 0.517637
      vertex 11.7309 2 1.3487e-15
    endloop
  endfacet
  facet normal 1 0 0
    outer loop
      vertex 11.7309 2.82843 2.82843
      vertex 11.7309 1.73205 0.999999
      vertex 11.7309 1.93185 0.517637
    endloop
  endfacet
  facet normal 1 0 0
    outer loop
      vertex 11.7309 2.82843 2.82843
      vertex 11.7309 1.41421 1.41421
      vertex 11.7309 1.73205 0.999999
    endloop
  endfacet
  facet normal 1 0 0
    outer loop
      vertex 11.7309 0.999999 1.73205
      vertex 11.7309 2 3.4641
      vertex 11.7309 1.03528 3.8637
    endloop
  endfacet
  facet normal 1 0 0
    outer loop
      vertex 11.7309 2 3.4641
      vertex 11.7309 0.999999 1.73205
      vertex 11.7309 1.41421 1.41421
    endloop
  endfacet
  facet normal 1 0 0
    outer loop
      vertex 11.7309 1.03528 3.8637
      vertex 11.7309 0.517637 1.93185
      vertex 11.7309 0.999999 1.73205
    endloop
  endfacet
  facet normal 1 0 0
    outer loop
      vertex 11.7309 0 4
      vertex 11.7309 0.517637 1.93185
      vertex 11.7309 1.03528 3.8637
    endloop
  endfacet
  facet normal 1 0 0
    outer loop
      vertex 11.7309 0 4
      vertex 11.7309 0 2
      vertex 11.7309 0.517637 1.93185
    endloop
  endfacet
  facet normal 1 0 0
    outer loop
      vertex 11.7309 0 4
      vertex 11.7309 -0.517637 1.93185
      vertex 11.7309 0 2
    endloop
  endfacet
  facet normal 1 -0 0
    outer loop
      vertex 11.7309 -1.03528 3.8637
      vertex 11.7309 -0.517637 1.93185
      vertex 11.7309 0 4
    endloop
  endfacet
  facet normal 1 0 0
    outer loop
      vertex 11.7309 -0.517637 1.93185
      vertex 11.7309 -1.03528 3.8637
      vertex 11.7309 -0.999999 1.73205
    endloop
  endfacet
  facet normal 1 -0 0
    outer loop
      vertex 11.7309 -2 3.4641
      vertex 11.7309 -0.999999 1.73205
      vertex 11.7309 -1.03528 3.8637
    endloop
  endfacet
  facet normal 1 0 0
    outer loop
      vertex 11.7309 -0.999999 1.73205
      vertex 11.7309 -2 3.4641
      vertex 11.7309 -1.41421 1.41421
    endloop
  endfacet
  facet normal 1 -0 0
    outer loop
      vertex 11.7309 -2.82843 2.82843
      vertex 11.7309 -1.41421 1.41421
      vertex 11.7309 -2 3.4641
    endloop
  endfacet
  facet normal 1 0 0
    outer loop
      vertex 11.7309 -1.41421 1.41421
      vertex 11.7309 -2.82843 2.82843
      vertex 11.7309 -1.73205 1
    endloop
  endfacet
  facet normal 1 -0 0
    outer loop
      vertex 11.7309 -3.4641 2
      vertex 11.7309 -1.73205 1
      vertex 11.7309 -2.82843 2.82843
    endloop
  endfacet
  facet normal 1 0 0
    outer loop
      vertex 11.7309 -1.73205 1
      vertex 11.7309 -3.4641 2
      vertex 11.7309 -1.93185 0.517637
    endloop
  endfacet
  facet normal 1 -0 0
    outer loop
      vertex 11.7309 -3.8637 1.03528
      vertex 11.7309 -1.93185 0.517637
      vertex 11.7309 -3.4641 2
    endloop
  endfacet
  facet normal 1 0 0
    outer loop
      vertex 11.7309 -1.93185 0.517637
      vertex 11.7309 -3.8637 1.03528
      vertex 11.7309 -2 1.3487e-15
    endloop
  endfacet
  facet normal 1 0 0
    outer loop
      vertex 11.7309 -4 1.3487e-15
      vertex 11.7309 -2 1.3487e-15
      vertex 11.7309 -3.8637 1.03528
    endloop
  endfacet
  facet normal 1 0 0
    outer loop
      vertex 11.7309 -2 1.3487e-15
      vertex 11.7309 -4 1.3487e-15
      vertex 11.7309 -2 0
    endloop
  endfacet
  facet normal 1 0 0
    outer loop
      vertex 11.7309 -2 0
      vertex 11.7309 -4 1.3487e-15
      vertex 11.7309 -4 0
    endloop
  endfacet
  facet normal 1 0 0
    outer loop
      vertex 11.7309 2 1.3487e-15
      vertex 11.7309 4 1.3487e-15
      vertex 11.7309 3.8637 1.03528
    endloop
  endfacet
  facet normal 1 0 0
    outer loop
      vertex 11.7309 2 1.3487e-15
      vertex 11.7309 3.8637 1.03528
      vertex 11.7309 3.4641 2
    endloop
  endfacet
  facet normal 1 0 0
    outer loop
      vertex 11.7309 2 1.3487e-15
      vertex 11.7309 3.4641 2
      vertex 11.7309 2.82843 2.82843
    endloop
  endfacet
  facet normal 1 0 0
    outer loop
      vertex 11.7309 4 1.3487e-15
      vertex 11.7309 2 1.3487e-15
      vertex 11.7309 4 0
    endloop
  endfacet
  facet normal 1 0 0
    outer loop
      vertex 11.7309 4 0
      vertex 11.7309 2 1.3487e-15
      vertex 11.7309 2 0
    endloop
  endfacet
  facet normal 0 0.991445 0.130529
    outer loop
      vertex 11.7309 4 1.3487e-15
      vertex 10.7309 3.8637 1.03528
      vertex 11.7309 3.8637 1.03528
    endloop
  endfacet
  facet normal -2.65804e-17 0.991445 0.130529
    outer loop
      vertex 10.7309 3.8637 1.03528
      vertex 11.7309 4 1.3487e-15
      vertex 10.7309 4 1.12665e-15
    endloop
  endfacet
  facet normal 0 -1 0
    outer loop
      vertex 10.7309 -4 0
      vertex 11.7309 -4 1.3487e-15
      vertex 10.7309 -4 1.12665e-15
    endloop
  endfacet
  facet normal 0 -1 -0
    outer loop
      vertex 11.7309 -4 1.3487e-15
      vertex 10.7309 -4 0
      vertex 11.7309 -4 0
    endloop
  endfacet
  facet normal 0 -0.92388 0.382683
    outer loop
      vertex 10.7309 -3.8637 1.03528
      vertex 11.7309 -3.4641 2
      vertex 10.7309 -3.4641 2
    endloop
  endfacet
  facet normal 0 -0.92388 0.382683
    outer loop
      vertex 11.7309 -3.4641 2
      vertex 10.7309 -3.8637 1.03528
      vertex 11.7309 -3.8637 1.03528
    endloop
  endfacet
  facet normal 0 -0.608757 0.793356
    outer loop
      vertex 10.7309 -2 3.4641
      vertex 11.7309 -2.82843 2.82843
      vertex 11.7309 -2 3.4641
    endloop
  endfacet
  facet normal 0 -0.608757 0.793356
    outer loop
      vertex 11.7309 -2.82843 2.82843
      vertex 10.7309 -2 3.4641
      vertex 10.7309 -2.82843 2.82843
    endloop
  endfacet
  facet normal 0 -0.130529 0.991445
    outer loop
      vertex 10.7309 0 4
      vertex 11.7309 -1.03528 3.8637
      vertex 11.7309 0 4
    endloop
  endfacet
  facet normal 0 -0.130529 0.991445
    outer loop
      vertex 11.7309 -1.03528 3.8637
      vertex 10.7309 0 4
      vertex 10.7309 -1.03528 3.8637
    endloop
  endfacet
  facet normal 0 -0.382683 0.92388
    outer loop
      vertex 10.7309 -1.03528 3.8637
      vertex 11.7309 -2 3.4641
      vertex 11.7309 -1.03528 3.8637
    endloop
  endfacet
  facet normal 0 -0.382683 0.92388
    outer loop
      vertex 11.7309 -2 3.4641
      vertex 10.7309 -1.03528 3.8637
      vertex 10.7309 -2 3.4641
    endloop
  endfacet
  facet normal 0 0 -1
    outer loop
      vertex 11.7309 2 0
      vertex 10.7309 3 0
      vertex 11.7309 4 0
    endloop
  endfacet
  facet normal 0 0 -1
    outer loop
      vertex 11.7309 2 0
      vertex 6.6569 3 0
      vertex 10.7309 3 0
    endloop
  endfacet
  facet normal 0 0 -1
    outer loop
      vertex 5.6569 2 0
      vertex 6.6569 3 0
      vertex 11.7309 2 0
    endloop
  endfacet
  facet normal 0 0 -1
    outer loop
      vertex 5.6569 4 0
      vertex 6.6569 3 0
      vertex 5.6569 2 0
    endloop
  endfacet
  facet normal 0 0 -1
    outer loop
      vertex 6.6569 3 0
      vertex 5.6569 4 0
      vertex 6.6569 4 0
    endloop
  endfacet
  facet normal -0 0 -1
    outer loop
      vertex 11.7309 4 0
      vertex 10.7309 3 0
      vertex 10.7309 4 0
    endloop
  endfacet
  facet normal 0 0 -1
    outer loop
      vertex 6.6569 -4 0
      vertex 5.6569 -4 0
      vertex 6.6569 -3 0
    endloop
  endfacet
  facet normal 0 0 -1
    outer loop
      vertex 10.7309 -3 0
      vertex 11.7309 -4 0
      vertex 10.7309 -4 0
    endloop
  endfacet
  facet normal 0 0 -1
    outer loop
      vertex 11.7309 -4 0
      vertex 10.7309 -3 0
      vertex 11.7309 -2 0
    endloop
  endfacet
  facet normal 0 0 -1
    outer loop
      vertex 6.6569 -3 0
      vertex 11.7309 -2 0
      vertex 10.7309 -3 0
    endloop
  endfacet
  facet normal 0 0 -1
    outer loop
      vertex 6.6569 -3 0
      vertex 5.6569 -2 0
      vertex 11.7309 -2 0
    endloop
  endfacet
  facet normal 0 0 -1
    outer loop
      vertex 5.6569 -2 0
      vertex 6.6569 -3 0
      vertex 5.6569 -4 0
    endloop
  endfacet
endsolid OpenSCAD_Model
