solid OpenSCAD_Model
  facet normal -1 -2.2205e-16 8.18905e-22
    outer loop
      vertex 1.11048e-15 -5.00114 0.0679929
      vertex 9.1845e-16 -4.13633 1.03528
      vertex 8.88186e-16 -4.00004 0
    endloop
  endfacet
  facet normal -1 -2.22045e-16 7.23488e-20
    outer loop
      vertex 1.11048e-15 -5.00114 0.0679929
      vertex 8.88186e-16 -4.00004 0
      vertex 1.10849e-15 -4.9922 0
    endloop
  endfacet
  facet normal -1 -2.22039e-16 -8.83786e-21
    outer loop
      vertex 9.1845e-16 -4.13633 1.03528
      vertex 1.11048e-15 -5.00114 0.0679929
      vertex 1.13115e-15 -5.09426 0.776457
    endloop
  endfacet
  facet normal -1 -2.22055e-16 5.10076e-20
    outer loop
      vertex 1.13678e-15 -5.1196 0.837719
      vertex 9.1845e-16 -4.13633 1.03528
      vertex 1.13115e-15 -5.09426 0.776457
    endloop
  endfacet
  facet normal -1 -2.22045e-16 8.5555e-22
    outer loop
      vertex 9.1845e-16 -4.13633 1.03528
      vertex 1.13678e-15 -5.1196 0.837719
      vertex 1.00718e-15 -4.53593 2
    endloop
  endfacet
  facet normal -1 -2.22047e-16 1.94268e-21
    outer loop
      vertex 1.1976e-15 -5.3935 1.5
      vertex 1.00718e-15 -4.53593 2
      vertex 1.13678e-15 -5.1196 0.837719
    endloop
  endfacet
  facet normal -1 -2.21996e-16 -8.635e-20
    outer loop
      vertex 1.20632e-15 -5.4328 1.5513
      vertex 1.00718e-15 -4.53593 2
      vertex 1.1976e-15 -5.3935 1.5
    endloop
  endfacet
  facet normal -1 -2.22041e-16 3.77865e-21
    outer loop
      vertex 1.00718e-15 -4.53593 2
      vertex 1.20632e-15 -5.4328 1.5513
      vertex 1.14833e-15 -5.17161 2.82843
    endloop
  endfacet
  facet normal -1 -2.22042e-16 3.93621e-21
    outer loop
      vertex 1.30329e-15 -5.86951 2.12132
      vertex 1.14833e-15 -5.17161 2.82843
      vertex 1.20632e-15 -5.4328 1.5513
    endloop
  endfacet
  facet normal -1 -2.2208e-16 4.1871e-20
    outer loop
      vertex 1.3145e-15 -5.91998 2.16011
      vertex 1.14833e-15 -5.17161 2.82843
      vertex 1.30329e-15 -5.86951 2.12132
    endloop
  endfacet
  facet normal -1 -2.22045e-16 2.37854e-21
    outer loop
      vertex 1.3145e-15 -5.91998 2.16011
      vertex 1.33228e-15 -6.00004 3.4641
      vertex 1.14833e-15 -5.17161 2.82843
    endloop
  endfacet
  facet normal -1 -2.22049e-16 2.11315e-21
    outer loop
      vertex 1.44104e-15 -6.48985 2.59808
      vertex 1.33228e-15 -6.00004 3.4641
      vertex 1.3145e-15 -5.91998 2.16011
    endloop
  endfacet
  facet normal -1 -2.22019e-16 -1.46375e-20
    outer loop
      vertex 1.45403e-15 -6.54836 2.62235
      vertex 1.33228e-15 -6.00004 3.4641
      vertex 1.44104e-15 -6.48985 2.59808
    endloop
  endfacet
  facet normal -1 -2.22043e-16 9.37971e-22
    outer loop
      vertex 1.45403e-15 -6.54836 2.62235
      vertex 1.54649e-15 -6.96476 3.8637
      vertex 1.33228e-15 -6.00004 3.4641
    endloop
  endfacet
  facet normal -1 -2.22035e-16 3.76351e-21
    outer loop
      vertex 1.60144e-15 -7.21226 2.89778
      vertex 1.54649e-15 -6.96476 3.8637
      vertex 1.45403e-15 -6.54836 2.62235
    endloop
  endfacet
  facet normal -1 -2.22096e-16 1.94682e-20
    outer loop
      vertex 1.61543e-15 -7.27525 2.90608
      vertex 1.54649e-15 -6.96476 3.8637
      vertex 1.60144e-15 -7.21226 2.89778
    endloop
  endfacet
  facet normal -1 -2.22043e-16 -4.4243e-21
    outer loop
      vertex 1.77636e-15 -8.00004 4
      vertex 1.61543e-15 -7.27525 2.90608
      vertex 1.77358e-15 -7.9875 3
    endloop
  endfacet
  facet normal -1 -2.22037e-16 1.28758e-22
    outer loop
      vertex 1.61543e-15 -7.27525 2.90608
      vertex 1.77636e-15 -8.00004 4
      vertex 1.54649e-15 -6.96476 3.8637
    endloop
  endfacet
  facet normal -1 -2.22064e-16 -4.68536e-21
    outer loop
      vertex 1.78769e-15 -8.05104 2.99162
      vertex 1.77636e-15 -8.00004 4
      vertex 1.77358e-15 -7.9875 3
    endloop
  endfacet
  facet normal -1 -2.22045e-16 -3.01968e-21
    outer loop
      vertex 2.00624e-15 -9.03531 3.8637
      vertex 1.78769e-15 -8.05104 2.99162
      vertex 1.94572e-15 -8.76274 2.89778
    endloop
  endfacet
  facet normal -1 -2.22053e-16 -5.2245e-21
    outer loop
      vertex 2.00624e-15 -9.03531 3.8637
      vertex 1.94572e-15 -8.76274 2.89778
      vertex 1.95903e-15 -8.82268 2.87291
    endloop
  endfacet
  facet normal -1 -2.22048e-16 -5.52472e-21
    outer loop
      vertex 1.78769e-15 -8.05104 2.99162
      vertex 2.00624e-15 -9.03531 3.8637
      vertex 1.77636e-15 -8.00004 4
    endloop
  endfacet
  facet normal -1 -2.22047e-16 -1.20888e-21
    outer loop
      vertex 2.22045e-15 -10 3.4641
      vertex 1.95903e-15 -8.82268 2.87291
      vertex 2.10613e-15 -9.48515 2.59808
    endloop
  endfacet
  facet normal -1 -2.21948e-16 5.8e-20
    outer loop
      vertex 2.22045e-15 -10 3.4641
      vertex 2.10613e-15 -9.48515 2.59808
      vertex 2.11772e-15 -9.53738 2.55794
    endloop
  endfacet
  facet normal -1 -2.22049e-16 -4.28278e-21
    outer loop
      vertex 1.95903e-15 -8.82268 2.87291
      vertex 2.22045e-15 -10 3.4641
      vertex 2.00624e-15 -9.03531 3.8637
    endloop
  endfacet
  facet normal -1 -2.22042e-16 -8.56761e-21
    outer loop
      vertex 2.4044e-15 -10.8285 2.82843
      vertex 2.11772e-15 -9.53738 2.55794
      vertex 2.24387e-15 -10.1055 2.12132
    endloop
  endfacet
  facet normal -1 -2.22067e-16 -3.49556e-20
    outer loop
      vertex 2.4044e-15 -10.8285 2.82843
      vertex 2.24387e-15 -10.1055 2.12132
      vertex 2.25291e-15 -10.1462 2.06818
    endloop
  endfacet
  facet normal -1 -2.2205e-16 -2.81175e-21
    outer loop
      vertex 2.54555e-15 -11.4641 2
      vertex 2.25291e-15 -10.1462 2.06818
      vertex 2.34957e-15 -10.5815 1.5
    endloop
  endfacet
  facet normal -1 -2.22025e-16 4.19943e-20
    outer loop
      vertex 2.54555e-15 -11.4641 2
      vertex 2.34957e-15 -10.5815 1.5
      vertex 2.35534e-15 -10.6075 1.43708
    endloop
  endfacet
  facet normal -1 -2.22037e-16 1.23044e-20
    outer loop
      vertex 2.11772e-15 -9.53738 2.55794
      vertex 2.4044e-15 -10.8285 2.82843
      vertex 2.22045e-15 -10 3.4641
    endloop
  endfacet
  facet normal -1 -2.22047e-16 -1.00625e-20
    outer loop
      vertex 2.63428e-15 -11.8637 1.03528
      vertex 2.35534e-15 -10.6075 1.43708
      vertex 2.41601e-15 -10.8807 0.776457
    endloop
  endfacet
  facet normal -1 -2.21968e-16 2.89962e-19
    outer loop
      vertex 2.63428e-15 -11.8637 1.03528
      vertex 2.41601e-15 -10.8807 0.776457
      vertex 2.41801e-15 -10.8898 0.707784
    endloop
  endfacet
  facet normal -1 -2.22051e-16 -1.31147e-20
    outer loop
      vertex 2.66454e-15 -12 0
      vertex 2.41801e-15 -10.8898 0.707784
      vertex 2.43867e-15 -10.9828 0
    endloop
  endfacet
  facet normal -1 -2.22049e-16 -1.86952e-20
    outer loop
      vertex 2.25291e-15 -10.1462 2.06818
      vertex 2.54555e-15 -11.4641 2
      vertex 2.4044e-15 -10.8285 2.82843
    endloop
  endfacet
  facet normal -1 -2.22051e-16 1.71023e-21
    outer loop
      vertex 2.35534e-15 -10.6075 1.43708
      vertex 2.63428e-15 -11.8637 1.03528
      vertex 2.54555e-15 -11.4641 2
    endloop
  endfacet
  facet normal -1 -2.22064e-16 7.01588e-21
    outer loop
      vertex 2.41801e-15 -10.8898 0.707784
      vertex 2.66454e-15 -12 0
      vertex 2.63428e-15 -11.8637 1.03528
    endloop
  endfacet
  facet normal 0.0327837 0.999462 -2.24025e-06
    outer loop
      vertex 9.99466 -0.327837 3.4641
      vertex 10.8226 -0.354996 2.82843
      vertex 5.99681 -0.196702 3.4641
    endloop
  endfacet
  facet normal 0.0327841 0.999462 1.82222e-06
    outer loop
      vertex 9.03045 -0.29621 3.8637
      vertex 9.99466 -0.327837 3.4641
      vertex 7.99574 -0.26227 4
    endloop
  endfacet
  facet normal 0.0327731 0.999463 -4.53058e-06
    outer loop
      vertex 11.458 -0.375835 2
      vertex 11.8574 -0.388936 1.03528
      vertex 10.8226 -0.354996 2.82843
    endloop
  endfacet
  facet normal 0.0327837 0.999462 6.26633e-07
    outer loop
      vertex 7.99574 -0.26227 4
      vertex 9.99466 -0.327837 3.4641
      vertex 5.99681 -0.196702 3.4641
    endloop
  endfacet
  facet normal 0.0327831 0.999462 2.96509e-06
    outer loop
      vertex 6.96102 -0.22833 3.8637
      vertex 7.99574 -0.26227 4
      vertex 5.99681 -0.196702 3.4641
    endloop
  endfacet
  facet normal 0.0327819 0.999463 -8.49568e-06
    outer loop
      vertex 5.99681 -0.196702 3.4641
      vertex 8.68286 -0.284808 2.90769
      vertex 7.98321 -0.261859 3
    endloop
  endfacet
  facet normal 0.0327847 0.999462 4.64624e-06
    outer loop
      vertex 10.8226 -0.354996 2.82843
      vertex 8.68286 -0.284808 2.90769
      vertex 5.99681 -0.196702 3.4641
    endloop
  endfacet
  facet normal 0.0327831 0.999462 -3.71602e-05
    outer loop
      vertex 8.68286 -0.284808 2.90769
      vertex 10.8226 -0.354996 2.82843
      vertex 8.75803 -0.287274 2.89778
    endloop
  endfacet
  facet normal 0.0327845 0.999462 3.18514e-06
    outer loop
      vertex 10.8226 -0.354996 2.82843
      vertex 9.41085 -0.308687 2.6268
      vertex 8.75803 -0.287274 2.89778
    endloop
  endfacet
  facet normal 0.0327839 0.999462 6.84748e-06
    outer loop
      vertex 10.8226 -0.354996 2.82843
      vertex 9.48006 -0.310957 2.59808
      vertex 9.41085 -0.308687 2.6268
    endloop
  endfacet
  facet normal 0.0327852 0.999462 -3.98448e-07
    outer loop
      vertex 9.48006 -0.310957 2.59808
      vertex 10.8226 -0.354996 2.82843
      vertex 9.88493 -0.324238 2.28675
    endloop
  endfacet
  facet normal 0.0327838 0.999462 -4.89092e-07
    outer loop
      vertex 7.90739 -0.259372 2.99
      vertex 5.99681 -0.196702 3.4641
      vertex 7.98321 -0.261859 3
    endloop
  endfacet
  facet normal 0.0327846 0.999462 2.67557e-06
    outer loop
      vertex 7.20839 -0.236443 2.89778
      vertex 5.99681 -0.196702 3.4641
      vertex 7.90739 -0.259372 2.99
    endloop
  endfacet
  facet normal 0.0327788 0.999463 -9.66427e-06
    outer loop
      vertex 7.13752 -0.234119 2.86836
      vertex 5.99681 -0.196702 3.4641
      vertex 7.20839 -0.236443 2.89778
    endloop
  endfacet
  facet normal 0.0327841 0.999462 4.9575e-07
    outer loop
      vertex 6.48637 -0.21276 2.59808
      vertex 5.99681 -0.196702 3.4641
      vertex 7.13752 -0.234119 2.86836
    endloop
  endfacet
  facet normal 0.0327824 0.999463 -5.03502e-07
    outer loop
      vertex 6.42579 -0.210773 2.55149
      vertex 5.99681 -0.196702 3.4641
      vertex 6.48637 -0.21276 2.59808
    endloop
  endfacet
  facet normal 0.0327831 0.999462 -1.39821e-07
    outer loop
      vertex 5.86635 -0.192423 2.12132
      vertex 5.99681 -0.196702 3.4641
      vertex 6.42579 -0.210773 2.55149
    endloop
  endfacet
  facet normal 0.0327851 0.999462 -3.27452e-07
    outer loop
      vertex 5.82053 -0.19092 2.06148
      vertex 5.99681 -0.196702 3.4641
      vertex 5.86635 -0.192423 2.12132
    endloop
  endfacet
  facet normal 0.0327832 0.999462 -8.98236e-08
    outer loop
      vertex 5.3906 -0.176818 1.5
      vertex 5.99681 -0.196702 3.4641
      vertex 5.82053 -0.19092 2.06148
    endloop
  endfacet
  facet normal 0.0327527 0.999463 1.69994e-05
    outer loop
      vertex 4.5627 -0.149662 0
      vertex 5.3906 -0.176818 1.5
      vertex 5.3625 -0.175896 1.43203
    endloop
  endfacet
  facet normal 0.0327831 0.999462 -3.35867e-08
    outer loop
      vertex 4.5627 -0.149662 0
      vertex 5.3625 -0.175896 1.43203
      vertex 5.09153 -0.167008 0.776457
    endloop
  endfacet
  facet normal 0.0327831 0.999462 8.77069e-08
    outer loop
      vertex 4.5627 -0.149662 0
      vertex 5.08226 -0.166704 0.70591
      vertex 4.98952 -0.163662 0
    endloop
  endfacet
  facet normal 0.0327841 0.999462 -3.83686e-07
    outer loop
      vertex 5.3906 -0.176818 1.5
      vertex 4.5627 -0.149662 0
      vertex 5.99681 -0.196702 3.4641
    endloop
  endfacet
  facet normal 0.0327847 0.999462 -1.09873e-06
    outer loop
      vertex 5.08226 -0.166704 0.70591
      vertex 4.5627 -0.149662 0
      vertex 5.09153 -0.167008 0.776457
    endloop
  endfacet
  facet normal 0.0327849 0.999462 -1.38659e-06
    outer loop
      vertex 5.16883 -0.169543 2.82843
      vertex 5.99681 -0.196702 3.4641
      vertex 4.13411 -0.135604 1.03528
    endloop
  endfacet
  facet normal 0.0327831 0.999462 5.22454e-08
    outer loop
      vertex 4.5627 -0.149662 0
      vertex 4.13411 -0.135604 1.03528
      vertex 5.99681 -0.196702 3.4641
    endloop
  endfacet
  facet normal 0.0327829 0.999462 0
    outer loop
      vertex 4.13411 -0.135604 1.03528
      vertex 4.5627 -0.149662 0
      vertex 4.13411 -0.135604 0
    endloop
  endfacet
  facet normal 0.0327896 0.999462 0
    outer loop
      vertex 4.13411 -0.135604 1.03528
      vertex 4.13411 -0.135604 0
      vertex 3.99789 -0.131135 0
    endloop
  endfacet
  facet normal 0.0327829 0.999462 -2.31077e-07
    outer loop
      vertex 4.5335 -0.148704 2
      vertex 5.16883 -0.169543 2.82843
      vertex 4.13411 -0.135604 1.03528
    endloop
  endfacet
  facet normal 0.0327825 0.999463 4.26995e-06
    outer loop
      vertex 10.8226 -0.354996 2.82843
      vertex 10.0415 -0.329373 2.16636
      vertex 9.88493 -0.324238 2.28675
    endloop
  endfacet
  facet normal 0.0327834 0.999462 3.156e-06
    outer loop
      vertex 10.8226 -0.354996 2.82843
      vertex 10.1001 -0.331295 2.12132
      vertex 10.0415 -0.329373 2.16636
    endloop
  endfacet
  facet normal 0.0327845 0.999462 2.01922e-06
    outer loop
      vertex 10.8226 -0.354996 2.82843
      vertex 10.5316 -0.345448 1.55779
      vertex 10.1001 -0.331295 2.12132
    endloop
  endfacet
  facet normal 0.0328238 0.999461 -6.99001e-06
    outer loop
      vertex 10.8226 -0.354996 2.82843
      vertex 10.5758 -0.3469 1.5
      vertex 10.5316 -0.345448 1.55779
    endloop
  endfacet
  facet normal 0.0327823 0.999463 7.41838e-07
    outer loop
      vertex 11.8574 -0.388936 1.03528
      vertex 10.5758 -0.3469 1.5
      vertex 10.8226 -0.354996 2.82843
    endloop
  endfacet
  facet normal 0.0327818 0.999463 -6.11242e-07
    outer loop
      vertex 11.8574 -0.388936 1.03528
      vertex 10.8475 -0.355812 0.842655
      vertex 10.5758 -0.3469 1.5
    endloop
  endfacet
  facet normal 0.0327798 0.999463 9.80185e-06
    outer loop
      vertex 11.8574 -0.388936 1.03528
      vertex 10.8749 -0.35671 0.776457
      vertex 10.8475 -0.355812 0.842655
    endloop
  endfacet
  facet normal 0.0327433 0.999464 0.000148487
    outer loop
      vertex 10.8749 -0.35671 0.776457
      vertex 11.8574 -0.388936 1.03528
      vertex 10.8755 -0.356729 0.772038
    endloop
  endfacet
  facet normal 0.0327832 0.999462 -4.09201e-07
    outer loop
      vertex 11.4288 -0.374878 0
      vertex 10.8755 -0.356729 0.772038
      vertex 11.8574 -0.388936 1.03528
    endloop
  endfacet
  facet normal 0.0327796 0.999463 -2.98574e-06
    outer loop
      vertex 10.8755 -0.356729 0.772038
      vertex 11.4288 -0.374878 0
      vertex 10.9677 -0.359755 0.0698507
    endloop
  endfacet
  facet normal 0.0327817 0.999463 1.07813e-05
    outer loop
      vertex 10.9677 -0.359755 0.0698507
      vertex 11.4288 -0.374878 0
      vertex 10.9769 -0.360056 0
    endloop
  endfacet
  facet normal 0.0327911 0.999462 -3.7011e-06
    outer loop
      vertex 11.8574 -0.388936 1.03528
      vertex 11.7211 -0.384468 0
      vertex 11.4288 -0.374878 0
    endloop
  endfacet
  facet normal 0.032775 0.999463 -1.58291e-06
    outer loop
      vertex 11.8574 -0.388936 1.03528
      vertex 11.9936 -0.393404 0
      vertex 11.7211 -0.384468 0
    endloop
  endfacet
  facet normal -0.108711 0.98557 0.129746
    outer loop
      vertex 9.1845e-16 -4.13633 1.03528
      vertex 0.901521 -4.03689 1.03528
      vertex 8.88186e-16 -4.00004 0
    endloop
  endfacet
  facet normal -0.108718 0.985568 0.129752
    outer loop
      vertex 0.901521 -4.03689 1.03528
      vertex 0.871815 -3.90387 0
      vertex 8.88186e-16 -4.00004 0
    endloop
  endfacet
  facet normal -0.101375 0.91912 0.380712
    outer loop
      vertex 1.00718e-15 -4.53593 2
      vertex 0.988614 -4.42689 2
      vertex 9.1845e-16 -4.13633 1.03528
    endloop
  endfacet
  facet normal -0.101381 0.919117 0.380717
    outer loop
      vertex 0.988614 -4.42689 2
      vertex 0.901521 -4.03689 1.03528
      vertex 9.1845e-16 -4.13633 1.03528
    endloop
  endfacet
  facet normal -0.0871765 0.790331 0.606446
    outer loop
      vertex 1.14833e-15 -5.17161 2.82843
      vertex 1.12716 -5.04728 2.82843
      vertex 1.00718e-15 -4.53593 2
    endloop
  endfacet
  facet normal -0.0871708 0.790336 0.606441
    outer loop
      vertex 1.12716 -5.04728 2.82843
      vertex 0.988614 -4.42689 2
      vertex 1.00718e-15 -4.53593 2
    endloop
  endfacet
  facet normal -0.066999 0.60739 0.791574
    outer loop
      vertex 1.33228e-15 -6.00004 3.4641
      vertex 1.30772 -5.85579 3.4641
      vertex 1.14833e-15 -5.17161 2.82843
    endloop
  endfacet
  facet normal -0.0669975 0.607391 0.791573
    outer loop
      vertex 1.30772 -5.85579 3.4641
      vertex 1.12716 -5.04728 2.82843
      vertex 1.14833e-15 -5.17161 2.82843
    endloop
  endfacet
  facet normal -0.0421741 0.382343 0.923058
    outer loop
      vertex 1.54649e-15 -6.96476 3.8637
      vertex 1.51798 -6.79732 3.8637
      vertex 1.33228e-15 -6.00004 3.4641
    endloop
  endfacet
  facet normal -0.0421748 0.382342 0.923058
    outer loop
      vertex 1.51798 -6.79732 3.8637
      vertex 1.30772 -5.85579 3.4641
      vertex 1.33228e-15 -6.00004 3.4641
    endloop
  endfacet
  facet normal -0.0143965 0.130515 0.991342
    outer loop
      vertex 1.77636e-15 -8.00004 4
      vertex 1.74362 -7.80771 4
      vertex 1.54649e-15 -6.96476 3.8637
    endloop
  endfacet
  facet normal -0.0143964 0.130515 0.991342
    outer loop
      vertex 1.74362 -7.80771 4
      vertex 1.51798 -6.79732 3.8637
      vertex 1.54649e-15 -6.96476 3.8637
    endloop
  endfacet
  facet normal 0.014396 -0.130517 0.991342
    outer loop
      vertex 2.00624e-15 -9.03531 3.8637
      vertex 1.96926 -8.8181 3.8637
      vertex 1.77636e-15 -8.00004 4
    endloop
  endfacet
  facet normal 0.0143965 -0.130515 0.991342
    outer loop
      vertex 1.96926 -8.8181 3.8637
      vertex 1.74362 -7.80771 4
      vertex 1.77636e-15 -8.00004 4
    endloop
  endfacet
  facet normal 0.0421681 -0.382353 0.923054
    outer loop
      vertex 2.22045e-15 -10 3.4641
      vertex 2.17952 -9.75963 3.4641
      vertex 2.00624e-15 -9.03531 3.8637
    endloop
  endfacet
  facet normal 0.0421725 -0.382342 0.923058
    outer loop
      vertex 2.17952 -9.75963 3.4641
      vertex 1.96926 -8.8181 3.8637
      vertex 2.00624e-15 -9.03531 3.8637
    endloop
  endfacet
  facet normal 0.0670128 -0.607357 0.791598
    outer loop
      vertex 2.4044e-15 -10.8285 2.82843
      vertex 2.36008 -10.5681 2.82843
      vertex 2.22045e-15 -10 3.4641
    endloop
  endfacet
  facet normal 0.0669888 -0.607412 0.791558
    outer loop
      vertex 2.36008 -10.5681 2.82843
      vertex 2.17952 -9.75963 3.4641
      vertex 2.22045e-15 -10 3.4641
    endloop
  endfacet
  facet normal 0.087178 -0.790368 0.606398
    outer loop
      vertex 2.54555e-15 -11.4641 2
      vertex 2.49863 -11.1885 2
      vertex 2.4044e-15 -10.8285 2.82843
    endloop
  endfacet
  facet normal 0.0872009 -0.790327 0.606449
    outer loop
      vertex 2.49863 -11.1885 2
      vertex 2.36008 -10.5681 2.82843
      vertex 2.4044e-15 -10.8285 2.82843
    endloop
  endfacet
  facet normal 0.101377 -0.91912 0.380712
    outer loop
      vertex 2.63428e-15 -11.8637 1.03528
      vertex 2.58572 -11.5785 1.03528
      vertex 2.54555e-15 -11.4641 2
    endloop
  endfacet
  facet normal 0.101379 -0.919118 0.380717
    outer loop
      vertex 2.58572 -11.5785 1.03528
      vertex 2.49863 -11.1885 2
      vertex 2.54555e-15 -11.4641 2
    endloop
  endfacet
  facet normal 0.108715 -0.985568 0.129755
    outer loop
      vertex 2.66454e-15 -12 0
      vertex 2.61543 -11.7115 0
      vertex 2.63428e-15 -11.8637 1.03528
    endloop
  endfacet
  facet normal 0.108707 -0.985572 0.129734
    outer loop
      vertex 2.61543 -11.7115 0
      vertex 2.58572 -11.5785 1.03528
      vertex 2.63428e-15 -11.8637 1.03528
    endloop
  endfacet
  facet normal -0.320895 0.938185 0.129752
    outer loop
      vertex 0.901521 -4.03689 1.03528
      vertex 1.7597 -3.74336 1.03528
      vertex 0.871815 -3.90387 0
    endloop
  endfacet
  facet normal -0.320899 0.938183 0.129756
    outer loop
      vertex 1.7597 -3.74336 1.03528
      vertex 1.70171 -3.62001 0
      vertex 0.871815 -3.90387 0
    endloop
  endfacet
  facet normal -0.299269 0.874924 0.380716
    outer loop
      vertex 0.988614 -4.42689 2
      vertex 1.9297 -4.10499 2
      vertex 0.901521 -4.03689 1.03528
    endloop
  endfacet
  facet normal -0.29926 0.874932 0.380707
    outer loop
      vertex 1.9297 -4.10499 2
      vertex 1.7597 -3.74336 1.03528
      vertex 0.901521 -4.03689 1.03528
    endloop
  endfacet
  facet normal -0.257336 0.752335 0.606441
    outer loop
      vertex 1.12716 -5.04728 2.82843
      vertex 2.20013 -4.68027 2.82843
      vertex 0.988614 -4.42689 2
    endloop
  endfacet
  facet normal -0.257337 0.752334 0.606441
    outer loop
      vertex 2.20013 -4.68027 2.82843
      vertex 1.9297 -4.10499 2
      vertex 0.988614 -4.42689 2
    endloop
  endfacet
  facet normal -0.197766 0.578188 0.791573
    outer loop
      vertex 1.30772 -5.85579 3.4641
      vertex 2.55256 -5.43 3.4641
      vertex 1.12716 -5.04728 2.82843
    endloop
  endfacet
  facet normal -0.197768 0.578183 0.791576
    outer loop
      vertex 2.55256 -5.43 3.4641
      vertex 2.20013 -4.68027 2.82843
      vertex 1.12716 -5.04728 2.82843
    endloop
  endfacet
  facet normal -0.124489 0.36396 0.923058
    outer loop
      vertex 1.51798 -6.79732 3.8637
      vertex 2.96298 -6.30307 3.8637
      vertex 1.30772 -5.85579 3.4641
    endloop
  endfacet
  facet normal -0.12449 0.363958 0.923058
    outer loop
      vertex 2.96298 -6.30307 3.8637
      vertex 2.55256 -5.43 3.4641
      vertex 1.30772 -5.85579 3.4641
    endloop
  endfacet
  facet normal -0.0424963 0.12424 0.991342
    outer loop
      vertex 1.74362 -7.80771 4
      vertex 3.40341 -7.23998 4
      vertex 1.51798 -6.79732 3.8637
    endloop
  endfacet
  facet normal -0.0424959 0.124242 0.991342
    outer loop
      vertex 3.40341 -7.23998 4
      vertex 2.96298 -6.30307 3.8637
      vertex 1.51798 -6.79732 3.8637
    endloop
  endfacet
  facet normal 0.0424963 -0.12424 0.991342
    outer loop
      vertex 1.96926 -8.8181 3.8637
      vertex 3.84384 -8.1769 3.8637
      vertex 1.74362 -7.80771 4
    endloop
  endfacet
  facet normal 0.0424963 -0.12424 0.991342
    outer loop
      vertex 3.84384 -8.1769 3.8637
      vertex 3.40341 -7.23998 4
      vertex 1.74362 -7.80771 4
    endloop
  endfacet
  facet normal 0.124491 -0.363959 0.923058
    outer loop
      vertex 2.17952 -9.75963 3.4641
      vertex 4.25426 -9.04997 3.4641
      vertex 1.96926 -8.8181 3.8637
    endloop
  endfacet
  facet normal 0.124492 -0.363957 0.923058
    outer loop
      vertex 4.25426 -9.04997 3.4641
      vertex 3.84384 -8.1769 3.8637
      vertex 1.96926 -8.8181 3.8637
    endloop
  endfacet
  facet normal 0.197762 -0.578207 0.79156
    outer loop
      vertex 2.36008 -10.5681 2.82843
      vertex 4.60669 -9.7997 2.82843
      vertex 2.17952 -9.75963 3.4641
    endloop
  endfacet
  facet normal 0.197767 -0.578184 0.791575
    outer loop
      vertex 4.60669 -9.7997 2.82843
      vertex 4.25426 -9.04997 3.4641
      vertex 2.17952 -9.75963 3.4641
    endloop
  endfacet
  facet normal 0.257317 -0.752335 0.606448
    outer loop
      vertex 2.49863 -11.1885 2
      vertex 4.87712 -10.375 2
      vertex 2.36008 -10.5681 2.82843
    endloop
  endfacet
  facet normal 0.257317 -0.752332 0.606452
    outer loop
      vertex 4.87712 -10.375 2
      vertex 4.60669 -9.7997 2.82843
      vertex 2.36008 -10.5681 2.82843
    endloop
  endfacet
  facet normal 0.299261 -0.874927 0.380716
    outer loop
      vertex 2.58572 -11.5785 1.03528
      vertex 5.04712 -10.7366 1.03528
      vertex 2.49863 -11.1885 2
    endloop
  endfacet
  facet normal 0.299252 -0.874945 0.380683
    outer loop
      vertex 5.04712 -10.7366 1.03528
      vertex 4.87712 -10.375 2
      vertex 2.49863 -11.1885 2
    endloop
  endfacet
  facet normal 0.320875 -0.938194 0.129736
    outer loop
      vertex 2.61543 -11.7115 0
      vertex 5.1051 -10.86 0
      vertex 2.58572 -11.5785 1.03528
    endloop
  endfacet
  facet normal 0.320896 -0.938178 0.129797
    outer loop
      vertex 5.1051 -10.86 0
      vertex 5.04712 -10.7366 1.03528
      vertex 2.58572 -11.5785 1.03528
    endloop
  endfacet
  facet normal -0.517669 0.845684 0.129757
    outer loop
      vertex 1.7597 -3.74336 1.03528
      vertex 2.53326 -3.26984 1.03528
      vertex 1.70171 -3.62001 0
    endloop
  endfacet
  facet normal -0.517667 0.845686 0.129755
    outer loop
      vertex 2.53326 -3.26984 1.03528
      vertex 2.44979 -3.16209 0
      vertex 1.70171 -3.62001 0
    endloop
  endfacet
  facet normal -0.482761 0.788672 0.380708
    outer loop
      vertex 1.9297 -4.10499 2
      vertex 2.778 -3.58573 2
      vertex 1.7597 -3.74336 1.03528
    endloop
  endfacet
  facet normal -0.482766 0.788665 0.380715
    outer loop
      vertex 2.778 -3.58573 2
      vertex 2.53326 -3.26984 1.03528
      vertex 1.7597 -3.74336 1.03528
    endloop
  endfacet
  facet normal -0.415117 0.678164 0.606441
    outer loop
      vertex 2.20013 -4.68027 2.82843
      vertex 3.16731 -4.08824 2.82843
      vertex 1.9297 -4.10499 2
    endloop
  endfacet
  facet normal -0.415117 0.678165 0.606441
    outer loop
      vertex 3.16731 -4.08824 2.82843
      vertex 2.778 -3.58573 2
      vertex 1.9297 -4.10499 2
    endloop
  endfacet
  facet normal -0.319031 0.52118 0.791575
    outer loop
      vertex 2.55256 -5.43 3.4641
      vertex 3.67467 -4.74312 3.4641
      vertex 2.20013 -4.68027 2.82843
    endloop
  endfacet
  facet normal -0.319029 0.521187 0.791571
    outer loop
      vertex 3.67467 -4.74312 3.4641
      vertex 3.16731 -4.08824 2.82843
      vertex 2.20013 -4.68027 2.82843
    endloop
  endfacet
  facet normal -0.200825 0.328074 0.923058
    outer loop
      vertex 2.96298 -6.30307 3.8637
      vertex 4.26551 -5.50575 3.8637
      vertex 2.55256 -5.43 3.4641
    endloop
  endfacet
  facet normal -0.200825 0.328074 0.923059
    outer loop
      vertex 4.26551 -5.50575 3.8637
      vertex 3.67467 -4.74312 3.4641
      vertex 2.55256 -5.43 3.4641
    endloop
  endfacet
  facet normal -0.0685534 0.111993 0.991342
    outer loop
      vertex 3.40341 -7.23998 4
      vertex 4.89956 -6.32415 4
      vertex 2.96298 -6.30307 3.8637
    endloop
  endfacet
  facet normal -0.0685534 0.111991 0.991342
    outer loop
      vertex 4.89956 -6.32415 4
      vertex 4.26551 -5.50575 3.8637
      vertex 2.96298 -6.30307 3.8637
    endloop
  endfacet
  facet normal 0.0685526 -0.111992 0.991342
    outer loop
      vertex 3.84384 -8.1769 3.8637
      vertex 5.5336 -7.14256 3.8637
      vertex 3.40341 -7.23998 4
    endloop
  endfacet
  facet normal 0.0685526 -0.111991 0.991342
    outer loop
      vertex 5.5336 -7.14256 3.8637
      vertex 4.89956 -6.32415 4
      vertex 3.40341 -7.23998 4
    endloop
  endfacet
  facet normal 0.200824 -0.328075 0.923058
    outer loop
      vertex 4.25426 -9.04997 3.4641
      vertex 6.12444 -7.90518 3.4641
      vertex 3.84384 -8.1769 3.8637
    endloop
  endfacet
  facet normal 0.200824 -0.328078 0.923057
    outer loop
      vertex 6.12444 -7.90518 3.4641
      vertex 5.5336 -7.14256 3.8637
      vertex 3.84384 -8.1769 3.8637
    endloop
  endfacet
  facet normal 0.31903 -0.52118 0.791575
    outer loop
      vertex 4.60669 -9.7997 2.82843
      vertex 6.6318 -8.56007 2.82843
      vertex 4.25426 -9.04997 3.4641
    endloop
  endfacet
  facet normal 0.31903 -0.521182 0.791574
    outer loop
      vertex 6.6318 -8.56007 2.82843
      vertex 6.12444 -7.90518 3.4641
      vertex 4.25426 -9.04997 3.4641
    endloop
  endfacet
  facet normal 0.415122 -0.678152 0.606451
    outer loop
      vertex 4.87712 -10.375 2
      vertex 7.02112 -9.06258 2
      vertex 4.60669 -9.7997 2.82843
    endloop
  endfacet
  facet normal 0.415121 -0.678159 0.606444
    outer loop
      vertex 7.02112 -9.06258 2
      vertex 6.6318 -8.56007 2.82843
      vertex 4.60669 -9.7997 2.82843
    endloop
  endfacet
  facet normal 0.482766 -0.788679 0.380687
    outer loop
      vertex 5.04712 -10.7366 1.03528
      vertex 7.26585 -9.37847 1.03528
      vertex 4.87712 -10.375 2
    endloop
  endfacet
  facet normal 0.48277 -0.788665 0.380711
    outer loop
      vertex 7.26585 -9.37847 1.03528
      vertex 7.02112 -9.06258 2
      vertex 4.87712 -10.375 2
    endloop
  endfacet
  facet normal 0.517673 -0.845676 0.129792
    outer loop
      vertex 5.1051 -10.86 0
      vertex 7.34932 -9.48622 0
      vertex 5.04712 -10.7366 1.03528
    endloop
  endfacet
  facet normal 0.517663 -0.845688 0.129755
    outer loop
      vertex 7.34932 -9.48622 0
      vertex 7.26585 -9.37847 1.03528
      vertex 5.04712 -10.7366 1.03528
    endloop
  endfacet
  facet normal -0.68954 0.71253 0.129753
    outer loop
      vertex 2.53326 -3.26984 1.03528
      vertex 3.18503 -2.6391 1.03528
      vertex 2.44979 -3.16209 0
    endloop
  endfacet
  facet normal -0.689538 0.712532 0.129751
    outer loop
      vertex 3.18503 -2.6391 1.03528
      vertex 3.08008 -2.55214 0
      vertex 2.44979 -3.16209 0
    endloop
  endfacet
  facet normal -0.643049 0.664488 0.380716
    outer loop
      vertex 2.778 -3.58573 2
      vertex 3.49273 -2.89406 2
      vertex 2.53326 -3.26984 1.03528
    endloop
  endfacet
  facet normal -0.643048 0.664488 0.380716
    outer loop
      vertex 3.49273 -2.89406 2
      vertex 3.18503 -2.6391 1.03528
      vertex 2.53326 -3.26984 1.03528
    endloop
  endfacet
  facet normal -0.552952 0.571379 0.60644
    outer loop
      vertex 3.16731 -4.08824 2.82843
      vertex 3.9822 -3.29963 2.82843
      vertex 2.778 -3.58573 2
    endloop
  endfacet
  facet normal -0.55295 0.571386 0.606436
    outer loop
      vertex 3.9822 -3.29963 2.82843
      vertex 3.49273 -2.89406 2
      vertex 2.778 -3.58573 2
    endloop
  endfacet
  facet normal -0.424956 0.439122 0.791571
    outer loop
      vertex 3.67467 -4.74312 3.4641
      vertex 4.6201 -3.82819 3.4641
      vertex 3.16731 -4.08824 2.82843
    endloop
  endfacet
  facet normal -0.424956 0.439117 0.791573
    outer loop
      vertex 4.6201 -3.82819 3.4641
      vertex 3.9822 -3.29963 2.82843
      vertex 3.16731 -4.08824 2.82843
    endloop
  endfacet
  facet normal -0.267499 0.276418 0.923059
    outer loop
      vertex 4.26551 -5.50575 3.8637
      vertex 5.36295 -4.44372 3.8637
      vertex 3.67467 -4.74312 3.4641
    endloop
  endfacet
  facet normal -0.267499 0.276417 0.923059
    outer loop
      vertex 5.36295 -4.44372 3.8637
      vertex 4.6201 -3.82819 3.4641
      vertex 3.67467 -4.74312 3.4641
    endloop
  endfacet
  facet normal -0.0913136 0.0943579 0.991342
    outer loop
      vertex 4.89956 -6.32415 4
      vertex 6.16013 -5.10425 4
      vertex 4.26551 -5.50575 3.8637
    endloop
  endfacet
  facet normal -0.0913137 0.0943582 0.991342
    outer loop
      vertex 6.16013 -5.10425 4
      vertex 5.36295 -4.44372 3.8637
      vertex 4.26551 -5.50575 3.8637
    endloop
  endfacet
  facet normal 0.0913137 -0.0943578 0.991342
    outer loop
      vertex 5.5336 -7.14256 3.8637
      vertex 6.9573 -5.76479 3.8637
      vertex 4.89956 -6.32415 4
    endloop
  endfacet
  facet normal 0.0913138 -0.0943581 0.991342
    outer loop
      vertex 6.9573 -5.76479 3.8637
      vertex 6.16013 -5.10425 4
      vertex 4.89956 -6.32415 4
    endloop
  endfacet
  facet normal 0.267501 -0.27642 0.923057
    outer loop
      vertex 6.12444 -7.90518 3.4641
      vertex 7.70015 -6.38031 3.4641
      vertex 5.5336 -7.14256 3.8637
    endloop
  endfacet
  facet normal 0.267501 -0.276418 0.923058
    outer loop
      vertex 7.70015 -6.38031 3.4641
      vertex 6.9573 -5.76479 3.8637
      vertex 5.5336 -7.14256 3.8637
    endloop
  endfacet
  facet normal 0.424953 -0.43912 0.791573
    outer loop
      vertex 6.6318 -8.56007 2.82843
      vertex 8.33805 -6.90887 2.82843
      vertex 6.12444 -7.90518 3.4641
    endloop
  endfacet
  facet normal 0.424953 -0.439121 0.791573
    outer loop
      vertex 8.33805 -6.90887 2.82843
      vertex 7.70015 -6.38031 3.4641
      vertex 6.12444 -7.90518 3.4641
    endloop
  endfacet
  facet normal 0.552946 -0.57138 0.606445
    outer loop
      vertex 7.02112 -9.06258 2
      vertex 8.82753 -7.31445 2
      vertex 6.6318 -8.56007 2.82843
    endloop
  endfacet
  facet normal 0.552946 -0.571381 0.606444
    outer loop
      vertex 8.82753 -7.31445 2
      vertex 8.33805 -6.90887 2.82843
      vertex 6.6318 -8.56007 2.82843
    endloop
  endfacet
  facet normal 0.643051 -0.664489 0.380711
    outer loop
      vertex 7.26585 -9.37847 1.03528
      vertex 9.13523 -7.5694 1.03528
      vertex 7.02112 -9.06258 2
    endloop
  endfacet
  facet normal 0.643051 -0.664489 0.38071
    outer loop
      vertex 9.13523 -7.5694 1.03528
      vertex 8.82753 -7.31445 2
      vertex 7.02112 -9.06258 2
    endloop
  endfacet
  facet normal 0.68954 -0.71253 0.129753
    outer loop
      vertex 7.34932 -9.48622 0
      vertex 9.24018 -7.65637 0
      vertex 7.26585 -9.37847 1.03528
    endloop
  endfacet
  facet normal 0.689541 -0.712528 0.129758
    outer loop
      vertex 9.24018 -7.65637 0
      vertex 9.13523 -7.5694 1.03528
      vertex 7.26585 -9.37847 1.03528
    endloop
  endfacet
  facet normal -0.828265 0.545107 0.129751
    outer loop
      vertex 3.18503 -2.6391 1.03528
      vertex 3.68365 -1.88147 1.03528
      vertex 3.08008 -2.55214 0
    endloop
  endfacet
  facet normal -0.828266 0.545105 0.129754
    outer loop
      vertex 3.68365 -1.88147 1.03528
      vertex 3.56227 -1.81947 0
      vertex 3.08008 -2.55214 0
    endloop
  endfacet
  facet normal -0.772419 0.508355 0.380715
    outer loop
      vertex 3.49273 -2.89406 2
      vertex 4.03952 -2.06324 2
      vertex 3.18503 -2.6391 1.03528
    endloop
  endfacet
  facet normal -0.77242 0.508353 0.380716
    outer loop
      vertex 4.03952 -2.06324 2
      vertex 3.68365 -1.88147 1.03528
      vertex 3.18503 -2.6391 1.03528
    endloop
  endfacet
  facet normal -0.66419 0.437135 0.606436
    outer loop
      vertex 3.9822 -3.29963 2.82843
      vertex 4.60563 -2.35238 2.82843
      vertex 3.49273 -2.89406 2
    endloop
  endfacet
  facet normal -0.66419 0.437125 0.606443
    outer loop
      vertex 4.60563 -2.35238 2.82843
      vertex 4.03952 -2.06324 2
      vertex 3.49273 -2.89406 2
    endloop
  endfacet
  facet normal -0.510442 0.335947 0.791573
    outer loop
      vertex 4.6201 -3.82819 3.4641
      vertex 5.3434 -2.7292 3.4641
      vertex 3.9822 -3.29963 2.82843
    endloop
  endfacet
  facet normal -0.510442 0.335946 0.791574
    outer loop
      vertex 5.3434 -2.7292 3.4641
      vertex 4.60563 -2.35238 2.82843
      vertex 3.9822 -3.29963 2.82843
    endloop
  endfacet
  facet normal -0.321314 0.21147 0.923059
    outer loop
      vertex 5.36295 -4.44372 3.8637
      vertex 6.20254 -3.16802 3.8637
      vertex 4.6201 -3.82819 3.4641
    endloop
  endfacet
  facet normal -0.321315 0.211474 0.923058
    outer loop
      vertex 6.20254 -3.16802 3.8637
      vertex 5.3434 -2.7292 3.4641
      vertex 4.6201 -3.82819 3.4641
    endloop
  endfacet
  facet normal -0.109684 0.0721876 0.991342
    outer loop
      vertex 6.16013 -5.10425 4
      vertex 7.12452 -3.63893 4
      vertex 5.36295 -4.44372 3.8637
    endloop
  endfacet
  facet normal -0.109684 0.0721873 0.991342
    outer loop
      vertex 7.12452 -3.63893 4
      vertex 6.20254 -3.16802 3.8637
      vertex 5.36295 -4.44372 3.8637
    endloop
  endfacet
  facet normal 0.109684 -0.0721877 0.991342
    outer loop
      vertex 6.9573 -5.76479 3.8637
      vertex 8.04649 -4.10984 3.8637
      vertex 6.16013 -5.10425 4
    endloop
  endfacet
  facet normal 0.109684 -0.0721881 0.991342
    outer loop
      vertex 8.04649 -4.10984 3.8637
      vertex 7.12452 -3.63893 4
      vertex 6.16013 -5.10425 4
    endloop
  endfacet
  facet normal 0.321315 -0.211472 0.923058
    outer loop
      vertex 7.70015 -6.38031 3.4641
      vertex 8.90564 -4.54866 3.4641
      vertex 6.9573 -5.76479 3.8637
    endloop
  endfacet
  facet normal 0.321314 -0.21147 0.923059
    outer loop
      vertex 8.90564 -4.54866 3.4641
      vertex 8.04649 -4.10984 3.8637
      vertex 6.9573 -5.76479 3.8637
    endloop
  endfacet
  facet normal 0.510444 -0.335944 0.791573
    outer loop
      vertex 8.33805 -6.90887 2.82843
      vertex 9.6434 -4.92548 2.82843
      vertex 7.70015 -6.38031 3.4641
    endloop
  endfacet
  facet normal 0.510446 -0.335947 0.791571
    outer loop
      vertex 9.6434 -4.92548 2.82843
      vertex 8.90564 -4.54866 3.4641
      vertex 7.70015 -6.38031 3.4641
    endloop
  endfacet
  facet normal 0.664188 -0.437127 0.606444
    outer loop
      vertex 8.82753 -7.31445 2
      vertex 10.2095 -5.21463 2
      vertex 8.33805 -6.90887 2.82843
    endloop
  endfacet
  facet normal 0.664189 -0.43713 0.606441
    outer loop
      vertex 10.2095 -5.21463 2
      vertex 9.6434 -4.92548 2.82843
      vertex 8.33805 -6.90887 2.82843
    endloop
  endfacet
  facet normal 0.772414 -0.508366 0.380711
    outer loop
      vertex 9.13523 -7.5694 1.03528
      vertex 10.5654 -5.39639 1.03528
      vertex 8.82753 -7.31445 2
    endloop
  endfacet
  facet normal 0.772412 -0.508353 0.380732
    outer loop
      vertex 10.5654 -5.39639 1.03528
      vertex 10.2095 -5.21463 2
      vertex 8.82753 -7.31445 2
    endloop
  endfacet
  facet normal 0.828254 -0.545123 0.129757
    outer loop
      vertex 9.24018 -7.65637 0
      vertex 10.6868 -5.45839 0
      vertex 9.13523 -7.5694 1.03528
    endloop
  endfacet
  facet normal 0.828255 -0.545118 0.129769
    outer loop
      vertex 10.6868 -5.45839 0
      vertex 10.5654 -5.39639 1.03528
      vertex 9.13523 -7.5694 1.03528
    endloop
  endfacet
  facet normal -0.927155 0.351494 0.129753
    outer loop
      vertex 3.68365 -1.88147 1.03528
      vertex 4.00517 -1.03338 1.03528
      vertex 3.56227 -1.81947 0
    endloop
  endfacet
  facet normal -0.927156 0.35149 0.129757
    outer loop
      vertex 4.00517 -1.03338 1.03528
      vertex 3.87319 -0.999329 0
      vertex 3.56227 -1.81947 0
    endloop
  endfacet
  facet normal -0.864644 0.327792 0.380715
    outer loop
      vertex 4.03952 -2.06324 2
      vertex 4.3921 -1.13321 2
      vertex 3.68365 -1.88147 1.03528
    endloop
  endfacet
  facet normal -0.864644 0.327796 0.380712
    outer loop
      vertex 4.3921 -1.13321 2
      vertex 4.00517 -1.03338 1.03528
      vertex 3.68365 -1.88147 1.03528
    endloop
  endfacet
  facet normal -0.743492 0.281863 0.606443
    outer loop
      vertex 4.60563 -2.35238 2.82843
      vertex 5.00762 -1.29202 2.82843
      vertex 4.03952 -2.06324 2
    endloop
  endfacet
  facet normal -0.743491 0.281862 0.606444
    outer loop
      vertex 5.00762 -1.29202 2.82843
      vertex 4.3921 -1.13321 2
      vertex 4.03952 -2.06324 2
    endloop
  endfacet
  facet normal -0.571392 0.216613 0.791574
    outer loop
      vertex 5.3434 -2.7292 3.4641
      vertex 5.80977 -1.49899 3.4641
      vertex 4.60563 -2.35238 2.82843
    endloop
  endfacet
  facet normal -0.571394 0.21662 0.791571
    outer loop
      vertex 5.80977 -1.49899 3.4641
      vertex 5.00762 -1.29202 2.82843
      vertex 4.60563 -2.35238 2.82843
    endloop
  endfacet
  facet normal -0.359682 0.136358 0.923058
    outer loop
      vertex 6.20254 -3.16802 3.8637
      vertex 6.74391 -1.74001 3.8637
      vertex 5.3434 -2.7292 3.4641
    endloop
  endfacet
  facet normal -0.359679 0.136354 0.923059
    outer loop
      vertex 6.74391 -1.74001 3.8637
      vertex 5.80977 -1.49899 3.4641
      vertex 5.3434 -2.7292 3.4641
    endloop
  endfacet
  facet normal -0.12278 0.046546 0.991342
    outer loop
      vertex 7.12452 -3.63893 4
      vertex 7.74635 -1.99865 4
      vertex 6.20254 -3.16802 3.8637
    endloop
  endfacet
  facet normal -0.122781 0.0465474 0.991342
    outer loop
      vertex 7.74635 -1.99865 4
      vertex 6.74391 -1.74001 3.8637
      vertex 6.20254 -3.16802 3.8637
    endloop
  endfacet
  facet normal 0.122781 -0.0465469 0.991342
    outer loop
      vertex 8.04649 -4.10984 3.8637
      vertex 8.7488 -2.25729 3.8637
      vertex 7.12452 -3.63893 4
    endloop
  endfacet
  facet normal 0.12278 -0.046546 0.991342
    outer loop
      vertex 8.7488 -2.25729 3.8637
      vertex 7.74635 -1.99865 4
      vertex 7.12452 -3.63893 4
    endloop
  endfacet
  facet normal 0.35968 -0.136355 0.923059
    outer loop
      vertex 8.90564 -4.54866 3.4641
      vertex 9.68293 -2.49831 3.4641
      vertex 8.04649 -4.10984 3.8637
    endloop
  endfacet
  facet normal 0.359681 -0.136357 0.923058
    outer loop
      vertex 9.68293 -2.49831 3.4641
      vertex 8.7488 -2.25729 3.8637
      vertex 8.04649 -4.10984 3.8637
    endloop
  endfacet
  facet normal 0.571393 -0.216621 0.791571
    outer loop
      vertex 9.6434 -4.92548 2.82843
      vertex 10.4851 -2.70528 2.82843
      vertex 8.90564 -4.54866 3.4641
    endloop
  endfacet
  facet normal 0.571387 -0.216614 0.791578
    outer loop
      vertex 10.4851 -2.70528 2.82843
      vertex 9.68293 -2.49831 3.4641
      vertex 8.90564 -4.54866 3.4641
    endloop
  endfacet
  facet normal 0.743495 -0.281862 0.60644
    outer loop
      vertex 10.2095 -5.21463 2
      vertex 11.1006 -2.86409 2
      vertex 9.6434 -4.92548 2.82843
    endloop
  endfacet
  facet normal 0.743499 -0.281868 0.606432
    outer loop
      vertex 11.1006 -2.86409 2
      vertex 10.4851 -2.70528 2.82843
      vertex 9.6434 -4.92548 2.82843
    endloop
  endfacet
  facet normal 0.864644 -0.327769 0.380734
    outer loop
      vertex 10.5654 -5.39639 1.03528
      vertex 11.4875 -2.96392 1.03528
      vertex 10.2095 -5.21463 2
    endloop
  endfacet
  facet normal 0.864654 -0.327794 0.380689
    outer loop
      vertex 11.4875 -2.96392 1.03528
      vertex 11.1006 -2.86409 2
      vertex 10.2095 -5.21463 2
    endloop
  endfacet
  facet normal 0.927162 -0.35147 0.12977
    outer loop
      vertex 10.6868 -5.45839 0
      vertex 11.6195 -2.99797 0
      vertex 10.5654 -5.39639 1.03528
    endloop
  endfacet
  facet normal 0.927162 -0.351468 0.129774
    outer loop
      vertex 11.6195 -2.99797 0
      vertex 11.4875 -2.96392 1.03528
      vertex 10.5654 -5.39639 1.03528
    endloop
  endfacet
  facet normal -0.981475 0.140961 0.129757
    outer loop
      vertex 4.00517 -1.03338 1.03528
      vertex 4.13411 -0.135604 1.03528
      vertex 3.87319 -0.999329 0
    endloop
  endfacet
  facet normal -0.981475 0.140971 0.129749
    outer loop
      vertex 4.13411 -0.135604 1.03528
      vertex 3.99789 -0.131135 0
      vertex 3.87319 -0.999329 0
    endloop
  endfacet
  facet normal -0.915301 0.13146 0.380713
    outer loop
      vertex 4.3921 -1.13321 2
      vertex 4.5335 -0.148704 2
      vertex 4.00517 -1.03338 1.03528
    endloop
  endfacet
  facet normal -0.9153 0.131457 0.380716
    outer loop
      vertex 4.5335 -0.148704 2
      vertex 4.13411 -0.135604 1.03528
      vertex 4.00517 -1.03338 1.03528
    endloop
  endfacet
  facet normal -0.78705 0.113036 0.606444
    outer loop
      vertex 5.00762 -1.29202 2.82843
      vertex 5.16883 -0.169543 2.82843
      vertex 4.3921 -1.13321 2
    endloop
  endfacet
  facet normal -0.787052 0.113041 0.606441
    outer loop
      vertex 5.16883 -0.169543 2.82843
      vertex 4.5335 -0.148704 2
      vertex 4.3921 -1.13321 2
    endloop
  endfacet
  facet normal -0.604871 0.0868741 0.791571
    outer loop
      vertex 5.80977 -1.49899 3.4641
      vertex 5.99681 -0.196702 3.4641
      vertex 5.00762 -1.29202 2.82843
    endloop
  endfacet
  facet normal -0.604869 0.0868712 0.791572
    outer loop
      vertex 5.99681 -0.196702 3.4641
      vertex 5.16883 -0.169543 2.82843
      vertex 5.00762 -1.29202 2.82843
    endloop
  endfacet
  facet normal -0.380751 0.0546841 0.923059
    outer loop
      vertex 6.74391 -1.74001 3.8637
      vertex 6.96102 -0.22833 3.8637
      vertex 5.80977 -1.49899 3.4641
    endloop
  endfacet
  facet normal -0.380752 0.0546852 0.923059
    outer loop
      vertex 6.96102 -0.22833 3.8637
      vertex 5.99681 -0.196702 3.4641
      vertex 5.80977 -1.49899 3.4641
    endloop
  endfacet
  facet normal -0.129974 0.0186678 0.991342
    outer loop
      vertex 7.74635 -1.99865 4
      vertex 7.99574 -0.26227 4
      vertex 6.74391 -1.74001 3.8637
    endloop
  endfacet
  facet normal -0.129974 0.018667 0.991342
    outer loop
      vertex 7.99574 -0.26227 4
      vertex 6.96102 -0.22833 3.8637
      vertex 6.74391 -1.74001 3.8637
    endloop
  endfacet
  facet normal 0.129973 -0.0186668 0.991342
    outer loop
      vertex 8.7488 -2.25729 3.8637
      vertex 9.03045 -0.29621 3.8637
      vertex 7.74635 -1.99865 4
    endloop
  endfacet
  facet normal 0.129975 -0.0186678 0.991342
    outer loop
      vertex 9.03045 -0.29621 3.8637
      vertex 7.99574 -0.26227 4
      vertex 7.74635 -1.99865 4
    endloop
  endfacet
  facet normal 0.380754 -0.0546851 0.923058
    outer loop
      vertex 9.68293 -2.49831 3.4641
      vertex 9.99466 -0.327837 3.4641
      vertex 8.7488 -2.25729 3.8637
    endloop
  endfacet
  facet normal 0.380752 -0.0546835 0.923059
    outer loop
      vertex 9.99466 -0.327837 3.4641
      vertex 9.03045 -0.29621 3.8637
      vertex 8.7488 -2.25729 3.8637
    endloop
  endfacet
  facet normal 0.604865 -0.0868584 0.791577
    outer loop
      vertex 10.4851 -2.70528 2.82843
      vertex 10.8226 -0.354996 2.82843
      vertex 9.68293 -2.49831 3.4641
    endloop
  endfacet
  facet normal 0.604887 -0.0868757 0.791558
    outer loop
      vertex 10.8226 -0.354996 2.82843
      vertex 9.99466 -0.327837 3.4641
      vertex 9.68293 -2.49831 3.4641
    endloop
  endfacet
  facet normal 0.787057 -0.113049 0.606433
    outer loop
      vertex 11.1006 -2.86409 2
      vertex 11.458 -0.375835 2
      vertex 10.4851 -2.70528 2.82843
    endloop
  endfacet
  facet normal 0.787023 -0.113016 0.606484
    outer loop
      vertex 11.458 -0.375835 2
      vertex 10.8226 -0.354996 2.82843
      vertex 10.4851 -2.70528 2.82843
    endloop
  endfacet
  facet normal 0.915307 -0.131485 0.380689
    outer loop
      vertex 11.4875 -2.96392 1.03528
      vertex 11.8574 -0.388936 1.03528
      vertex 11.1006 -2.86409 2
    endloop
  endfacet
  facet normal 0.915296 -0.131468 0.380723
    outer loop
      vertex 11.8574 -0.388936 1.03528
      vertex 11.458 -0.375835 2
      vertex 11.1006 -2.86409 2
    endloop
  endfacet
  facet normal 0.981471 -0.140971 0.129776
    outer loop
      vertex 11.6195 -2.99797 0
      vertex 11.9936 -0.393404 0
      vertex 11.4875 -2.96392 1.03528
    endloop
  endfacet
  facet normal 0.981474 -0.14099 0.12973
    outer loop
      vertex 11.9936 -0.393404 0
      vertex 11.8574 -0.388936 1.03528
      vertex 11.4875 -2.96392 1.03528
    endloop
  endfacet
  facet normal 0.0800745 -0.988288 -0.1299
    outer loop
      vertex 1.13115e-15 -5.09426 0.776457
      vertex 1.11048e-15 -5.00114 0.0679929
      vertex 0.909243 -5.02059 0.776457
    endloop
  endfacet
  facet normal 0.0800807 -0.988282 -0.129944
    outer loop
      vertex 0.891026 -4.92 0
      vertex 1.11048e-15 -5.00114 0.0679929
      vertex 1.10849e-15 -4.9922 0
    endloop
  endfacet
  facet normal 0.0800835 -0.988286 -0.129911
    outer loop
      vertex 1.11048e-15 -5.00114 0.0679929
      vertex 0.891026 -4.92 0
      vertex 0.909243 -5.02059 0.776457
    endloop
  endfacet
  facet normal 0.0746761 -0.921509 -0.381109
    outer loop
      vertex 1.1976e-15 -5.3935 1.5
      vertex 1.13678e-15 -5.1196 0.837719
      vertex 0.96265 -5.31549 1.5
    endloop
  endfacet
  facet normal 0.0746623 -0.92149 -0.381159
    outer loop
      vertex 0.909243 -5.02059 0.776457
      vertex 1.13678e-15 -5.1196 0.837719
      vertex 1.13115e-15 -5.09426 0.776457
    endloop
  endfacet
  facet normal 0.0746688 -0.921514 -0.3811
    outer loop
      vertex 1.13678e-15 -5.1196 0.837719
      vertex 0.909243 -5.02059 0.776457
      vertex 0.96265 -5.31549 1.5
    endloop
  endfacet
  facet normal 0.0641915 -0.792174 -0.606909
    outer loop
      vertex 1.30329e-15 -5.86951 2.12132
      vertex 1.20632e-15 -5.4328 1.5513
      vertex 1.04761 -5.78462 2.12132
    endloop
  endfacet
  facet normal 0.0641967 -0.792193 -0.606885
    outer loop
      vertex 0.96265 -5.31549 1.5
      vertex 1.20632e-15 -5.4328 1.5513
      vertex 1.1976e-15 -5.3935 1.5
    endloop
  endfacet
  facet normal 0.0641929 -0.792173 -0.606911
    outer loop
      vertex 1.20632e-15 -5.4328 1.5513
      vertex 0.96265 -5.31549 1.5
      vertex 1.04761 -5.78462 2.12132
    endloop
  endfacet
  facet normal 0.0493173 -0.608627 -0.791922
    outer loop
      vertex 1.44104e-15 -6.48985 2.59808
      vertex 1.3145e-15 -5.91998 2.16011
      vertex 1.15833 -6.39599 2.59808
    endloop
  endfacet
  facet normal 0.0493171 -0.608627 -0.791922
    outer loop
      vertex 1.3145e-15 -5.91998 2.16011
      vertex 1.04761 -5.78462 2.12132
      vertex 1.15833 -6.39599 2.59808
    endloop
  endfacet
  facet normal 0.0493196 -0.608643 -0.79191
    outer loop
      vertex 1.04761 -5.78462 2.12132
      vertex 1.3145e-15 -5.91998 2.16011
      vertex 1.30329e-15 -5.86951 2.12132
    endloop
  endfacet
  facet normal 0.0310363 -0.383014 -0.923221
    outer loop
      vertex 1.60144e-15 -7.21226 2.89778
      vertex 1.45403e-15 -6.54836 2.62235
      vertex 1.28727 -7.10795 2.89778
    endloop
  endfacet
  facet normal 0.0310383 -0.38301 -0.923223
    outer loop
      vertex 1.45403e-15 -6.54836 2.62235
      vertex 1.15833 -6.39599 2.59808
      vertex 1.28727 -7.10795 2.89778
    endloop
  endfacet
  facet normal 0.0310316 -0.382962 -0.923243
    outer loop
      vertex 1.15833 -6.39599 2.59808
      vertex 1.45403e-15 -6.54836 2.62235
      vertex 1.44104e-15 -6.48985 2.59808
    endloop
  endfacet
  facet normal 0.0105927 -0.130725 -0.991362
    outer loop
      vertex 1.77358e-15 -7.9875 3
      vertex 1.61543e-15 -7.27525 2.90608
      vertex 1.42564 -7.87198 3
    endloop
  endfacet
  facet normal 0.0105964 -0.130716 -0.991363
    outer loop
      vertex 1.61543e-15 -7.27525 2.90608
      vertex 1.28727 -7.10795 2.89778
      vertex 1.42564 -7.87198 3
    endloop
  endfacet
  facet normal 0.0105852 -0.13063 -0.991375
    outer loop
      vertex 1.28727 -7.10795 2.89778
      vertex 1.61543e-15 -7.27525 2.90608
      vertex 1.60144e-15 -7.21226 2.89778
    endloop
  endfacet
  facet normal -0.0105917 0.130715 -0.991363
    outer loop
      vertex 1.94572e-15 -8.76274 2.89778
      vertex 1.78769e-15 -8.05104 2.99162
      vertex 1.564 -8.63601 2.89778
    endloop
  endfacet
  facet normal -0.0105907 0.130717 -0.991363
    outer loop
      vertex 1.78769e-15 -8.05104 2.99162
      vertex 1.42564 -7.87198 3
      vertex 1.564 -8.63601 2.89778
    endloop
  endfacet
  facet normal -0.0105944 0.130746 -0.991359
    outer loop
      vertex 1.42564 -7.87198 3
      vertex 1.78769e-15 -8.05104 2.99162
      vertex 1.77358e-15 -7.9875 3
    endloop
  endfacet
  facet normal -0.0310352 0.383006 -0.923224
    outer loop
      vertex 2.10613e-15 -9.48515 2.59808
      vertex 1.95903e-15 -8.82268 2.87291
      vertex 1.69294 -9.34797 2.59808
    endloop
  endfacet
  facet normal -0.0310333 0.383011 -0.923222
    outer loop
      vertex 1.95903e-15 -8.82268 2.87291
      vertex 1.564 -8.63601 2.89778
      vertex 1.69294 -9.34797 2.59808
    endloop
  endfacet
  facet normal -0.0310385 0.383052 -0.923205
    outer loop
      vertex 1.564 -8.63601 2.89778
      vertex 1.95903e-15 -8.82268 2.87291
      vertex 1.94572e-15 -8.76274 2.89778
    endloop
  endfacet
  facet normal -0.0493162 0.608623 -0.791926
    outer loop
      vertex 2.24387e-15 -10.1055 2.12132
      vertex 2.11772e-15 -9.53738 2.55794
      vertex 1.80367 -9.95935 2.12132
    endloop
  endfacet
  facet normal -0.0493171 0.60862 -0.791927
    outer loop
      vertex 2.11772e-15 -9.53738 2.55794
      vertex 1.69294 -9.34797 2.59808
      vertex 1.80367 -9.95935 2.12132
    endloop
  endfacet
  facet normal -0.0493166 0.608617 -0.79193
    outer loop
      vertex 1.69294 -9.34797 2.59808
      vertex 2.11772e-15 -9.53738 2.55794
      vertex 2.10613e-15 -9.48515 2.59808
    endloop
  endfacet
  facet normal -0.064175 0.792176 -0.60691
    outer loop
      vertex 2.34957e-15 -10.5815 1.5
      vertex 2.25291e-15 -10.1462 2.06818
      vertex 1.88863 -10.4285 1.5
    endloop
  endfacet
  facet normal -0.0641964 0.792262 -0.606795
    outer loop
      vertex 1.80367 -9.95935 2.12132
      vertex 2.25291e-15 -10.1462 2.06818
      vertex 2.24387e-15 -10.1055 2.12132
    endloop
  endfacet
  facet normal -0.0641821 0.792162 -0.606927
    outer loop
      vertex 2.25291e-15 -10.1462 2.06818
      vertex 1.80367 -9.95935 2.12132
      vertex 1.88863 -10.4285 1.5
    endloop
  endfacet
  facet normal -0.0746409 0.921519 -0.381093
    outer loop
      vertex 2.41601e-15 -10.8807 0.776457
      vertex 2.35534e-15 -10.6075 1.43708
      vertex 1.94203 -10.7234 0.776457
    endloop
  endfacet
  facet normal -0.0746617 0.921623 -0.380836
    outer loop
      vertex 1.88863 -10.4285 1.5
      vertex 2.35534e-15 -10.6075 1.43708
      vertex 2.34957e-15 -10.5815 1.5
    endloop
  endfacet
  facet normal -0.0746428 0.921516 -0.381098
    outer loop
      vertex 2.35534e-15 -10.6075 1.43708
      vertex 1.88863 -10.4285 1.5
      vertex 1.94203 -10.7234 0.776457
    endloop
  endfacet
  facet normal -0.0800619 0.988295 -0.129858
    outer loop
      vertex 2.43867e-15 -10.9828 0
      vertex 2.41801e-15 -10.8898 0.707784
      vertex 1.96025 -10.824 0
    endloop
  endfacet
  facet normal -0.0800382 0.988154 -0.130942
    outer loop
      vertex 1.94203 -10.7234 0.776457
      vertex 2.41801e-15 -10.8898 0.707784
      vertex 2.41601e-15 -10.8807 0.776457
    endloop
  endfacet
  facet normal -0.0800854 0.988284 -0.129924
    outer loop
      vertex 2.41801e-15 -10.8898 0.707784
      vertex 1.94203 -10.7234 0.776457
      vertex 1.96025 -10.824 0
    endloop
  endfacet
  facet normal 0.2716 -0.953602 -0.129911
    outer loop
      vertex 0.909243 -5.02059 0.776457
      vertex 0.891026 -4.92 0
      vertex 1.8725 -4.74624 0.776457
    endloop
  endfacet
  facet normal 0.271598 -0.953603 -0.129909
    outer loop
      vertex 1.8725 -4.74624 0.776457
      vertex 0.891026 -4.92 0
      vertex 1.83498 -4.65115 0
    endloop
  endfacet
  facet normal 0.253247 -0.889173 -0.3811
    outer loop
      vertex 0.96265 -5.31549 1.5
      vertex 0.909243 -5.02059 0.776457
      vertex 1.98248 -5.02503 1.5
    endloop
  endfacet
  facet normal 0.253249 -0.889171 -0.381103
    outer loop
      vertex 1.98248 -5.02503 1.5
      vertex 0.909243 -5.02059 0.776457
      vertex 1.8725 -4.74624 0.776457
    endloop
  endfacet
  facet normal 0.217705 -0.764371 -0.606911
    outer loop
      vertex 1.04761 -5.78462 2.12132
      vertex 0.96265 -5.31549 1.5
      vertex 2.15745 -5.46852 2.12132
    endloop
  endfacet
  facet normal 0.217703 -0.764374 -0.606908
    outer loop
      vertex 2.15745 -5.46852 2.12132
      vertex 0.96265 -5.31549 1.5
      vertex 1.98248 -5.02503 1.5
    endloop
  endfacet
  facet normal 0.167259 -0.587268 -0.791922
    outer loop
      vertex 1.15833 -6.39599 2.59808
      vertex 1.04761 -5.78462 2.12132
      vertex 2.38547 -6.04649 2.59808
    endloop
  endfacet
  facet normal 0.167261 -0.587262 -0.791926
    outer loop
      vertex 2.38547 -6.04649 2.59808
      vertex 1.04761 -5.78462 2.12132
      vertex 2.15745 -5.46852 2.12132
    endloop
  endfacet
  facet normal 0.105258 -0.369568 -0.923223
    outer loop
      vertex 1.28727 -7.10795 2.89778
      vertex 1.15833 -6.39599 2.59808
      vertex 2.65101 -6.71954 2.89778
    endloop
  endfacet
  facet normal 0.105257 -0.369571 -0.923222
    outer loop
      vertex 2.65101 -6.71954 2.89778
      vertex 1.15833 -6.39599 2.59808
      vertex 2.38547 -6.04649 2.59808
    endloop
  endfacet
  facet normal 0.0359233 -0.126129 -0.991363
    outer loop
      vertex 1.42564 -7.87198 3
      vertex 1.28727 -7.10795 2.89778
      vertex 2.93596 -7.44182 3
    endloop
  endfacet
  facet normal 0.0359232 -0.126129 -0.991363
    outer loop
      vertex 2.93596 -7.44182 3
      vertex 1.28727 -7.10795 2.89778
      vertex 2.65101 -6.71954 2.89778
    endloop
  endfacet
  facet normal -0.0359232 0.12613 -0.991363
    outer loop
      vertex 1.564 -8.63601 2.89778
      vertex 1.42564 -7.87198 3
      vertex 3.22092 -8.1641 2.89778
    endloop
  endfacet
  facet normal -0.0359233 0.126129 -0.991363
    outer loop
      vertex 3.22092 -8.1641 2.89778
      vertex 1.42564 -7.87198 3
      vertex 2.93596 -7.44182 3
    endloop
  endfacet
  facet normal -0.105257 0.369569 -0.923223
    outer loop
      vertex 1.69294 -9.34797 2.59808
      vertex 1.564 -8.63601 2.89778
      vertex 3.48645 -8.83716 2.59808
    endloop
  endfacet
  facet normal -0.105257 0.369567 -0.923223
    outer loop
      vertex 3.48645 -8.83716 2.59808
      vertex 1.564 -8.63601 2.89778
      vertex 3.22092 -8.1641 2.89778
    endloop
  endfacet
  facet normal -0.167262 0.587259 -0.791928
    outer loop
      vertex 1.80367 -9.95935 2.12132
      vertex 1.69294 -9.34797 2.59808
      vertex 3.71447 -9.41512 2.12132
    endloop
  endfacet
  facet normal -0.16726 0.587269 -0.791921
    outer loop
      vertex 3.71447 -9.41512 2.12132
      vertex 1.69294 -9.34797 2.59808
      vertex 3.48645 -8.83716 2.59808
    endloop
  endfacet
  facet normal -0.217712 0.764358 -0.606926
    outer loop
      vertex 1.88863 -10.4285 1.5
      vertex 1.80367 -9.95935 2.12132
      vertex 3.88944 -9.85861 1.5
    endloop
  endfacet
  facet normal -0.217707 0.764373 -0.606908
    outer loop
      vertex 3.88944 -9.85861 1.5
      vertex 1.80367 -9.95935 2.12132
      vertex 3.71447 -9.41512 2.12132
    endloop
  endfacet
  facet normal -0.253259 0.889171 -0.381098
    outer loop
      vertex 1.94203 -10.7234 0.776457
      vertex 1.88863 -10.4285 1.5
      vertex 3.99943 -10.1374 0.776457
    endloop
  endfacet
  facet normal -0.253261 0.889166 -0.381106
    outer loop
      vertex 3.99943 -10.1374 0.776457
      vertex 1.88863 -10.4285 1.5
      vertex 3.88944 -9.85861 1.5
    endloop
  endfacet
  facet normal -0.271611 0.953597 -0.129924
    outer loop
      vertex 1.96025 -10.824 0
      vertex 1.94203 -10.7234 0.776457
      vertex 4.03694 -10.2325 0
    endloop
  endfacet
  facet normal -0.271609 0.953598 -0.129917
    outer loop
      vertex 4.03694 -10.2325 0
      vertex 1.94203 -10.7234 0.776457
      vertex 3.99943 -10.1374 0.776457
    endloop
  endfacet
  facet normal 0.45265 -0.882174 -0.12991
    outer loop
      vertex 1.8725 -4.74624 0.776457
      vertex 1.83498 -4.65115 0
      vertex 2.7636 -4.28901 0.776457
    endloop
  endfacet
  facet normal 0.452649 -0.882175 -0.129909
    outer loop
      vertex 2.7636 -4.28901 0.776457
      vertex 1.83498 -4.65115 0
      vertex 2.70823 -4.20308 0
    endloop
  endfacet
  facet normal 0.422066 -0.82257 -0.381101
    outer loop
      vertex 1.98248 -5.02503 1.5
      vertex 1.8725 -4.74624 0.776457
      vertex 2.92593 -4.54094 1.5
    endloop
  endfacet
  facet normal 0.422067 -0.82257 -0.381102
    outer loop
      vertex 2.92593 -4.54094 1.5
      vertex 1.8725 -4.74624 0.776457
      vertex 2.7636 -4.28901 0.776457
    endloop
  endfacet
  facet normal 0.362832 -0.707117 -0.606908
    outer loop
      vertex 2.15745 -5.46852 2.12132
      vertex 1.98248 -5.02503 1.5
      vertex 3.18416 -4.9417 2.12132
    endloop
  endfacet
  facet normal 0.36283 -0.707124 -0.606902
    outer loop
      vertex 3.18416 -4.9417 2.12132
      vertex 1.98248 -5.02503 1.5
      vertex 2.92593 -4.54094 1.5
    endloop
  endfacet
  facet normal 0.278762 -0.543273 -0.791926
    outer loop
      vertex 2.38547 -6.04649 2.59808
      vertex 2.15745 -5.46852 2.12132
      vertex 3.52069 -5.46399 2.59808
    endloop
  endfacet
  facet normal 0.278762 -0.543274 -0.791925
    outer loop
      vertex 3.52069 -5.46399 2.59808
      vertex 2.15745 -5.46852 2.12132
      vertex 3.18416 -4.9417 2.12132
    endloop
  endfacet
  facet normal 0.175426 -0.341887 -0.923222
    outer loop
      vertex 2.65101 -6.71954 2.89778
      vertex 2.38547 -6.04649 2.59808
      vertex 3.91259 -6.07221 2.89778
    endloop
  endfacet
  facet normal 0.175426 -0.341884 -0.923223
    outer loop
      vertex 3.91259 -6.07221 2.89778
      vertex 2.38547 -6.04649 2.59808
      vertex 3.52069 -5.46399 2.59808
    endloop
  endfacet
  facet normal 0.0598712 -0.116682 -0.991363
    outer loop
      vertex 2.93596 -7.44182 3
      vertex 2.65101 -6.71954 2.89778
      vertex 4.33315 -6.7249 3
    endloop
  endfacet
  facet normal 0.0598712 -0.116683 -0.991363
    outer loop
      vertex 4.33315 -6.7249 3
      vertex 2.65101 -6.71954 2.89778
      vertex 3.91259 -6.07221 2.89778
    endloop
  endfacet
  facet normal -0.0598706 0.116681 -0.991363
    outer loop
      vertex 3.22092 -8.1641 2.89778
      vertex 2.93596 -7.44182 3
      vertex 4.75372 -7.3776 2.89778
    endloop
  endfacet
  facet normal -0.0598706 0.116681 -0.991363
    outer loop
      vertex 4.75372 -7.3776 2.89778
      vertex 2.93596 -7.44182 3
      vertex 4.33315 -6.7249 3
    endloop
  endfacet
  facet normal -0.175425 0.341885 -0.923223
    outer loop
      vertex 3.48645 -8.83716 2.59808
      vertex 3.22092 -8.1641 2.89778
      vertex 5.14562 -7.98582 2.59808
    endloop
  endfacet
  facet normal -0.175425 0.341884 -0.923223
    outer loop
      vertex 5.14562 -7.98582 2.59808
      vertex 3.22092 -8.1641 2.89778
      vertex 4.75372 -7.3776 2.89778
    endloop
  endfacet
  facet normal -0.278761 0.543279 -0.791922
    outer loop
      vertex 3.71447 -9.41512 2.12132
      vertex 3.48645 -8.83716 2.59808
      vertex 5.48215 -8.50811 2.12132
    endloop
  endfacet
  facet normal -0.278761 0.543275 -0.791925
    outer loop
      vertex 5.48215 -8.50811 2.12132
      vertex 3.48645 -8.83716 2.59808
      vertex 5.14562 -7.98582 2.59808
    endloop
  endfacet
  facet normal -0.362831 0.707118 -0.606908
    outer loop
      vertex 3.88944 -9.85861 1.5
      vertex 3.71447 -9.41512 2.12132
      vertex 5.74038 -8.90887 1.5
    endloop
  endfacet
  facet normal -0.36283 0.707124 -0.606902
    outer loop
      vertex 5.74038 -8.90887 1.5
      vertex 3.71447 -9.41512 2.12132
      vertex 5.48215 -8.50811 2.12132
    endloop
  endfacet
  facet normal -0.42207 0.822566 -0.381106
    outer loop
      vertex 3.99943 -10.1374 0.776457
      vertex 3.88944 -9.85861 1.5
      vertex 5.90271 -9.1608 0.776457
    endloop
  endfacet
  facet normal -0.42207 0.822568 -0.381103
    outer loop
      vertex 5.90271 -9.1608 0.776457
      vertex 3.88944 -9.85861 1.5
      vertex 5.74038 -8.90887 1.5
    endloop
  endfacet
  facet normal -0.452657 0.88217 -0.129915
    outer loop
      vertex 4.03694 -10.2325 0
      vertex 3.99943 -10.1374 0.776457
      vertex 5.95808 -9.24673 0
    endloop
  endfacet
  facet normal -0.452655 0.882172 -0.129909
    outer loop
      vertex 5.95808 -9.24673 0
      vertex 3.99943 -10.1374 0.776457
      vertex 5.90271 -9.1608 0.776457
    endloop
  endfacet
  facet normal 0.616271 -0.776746 -0.129909
    outer loop
      vertex 2.7636 -4.28901 0.776457
      vertex 2.70823 -4.20308 0
      vertex 3.54821 -3.6665 0.776457
    endloop
  endfacet
  facet normal 0.616266 -0.776751 -0.129901
    outer loop
      vertex 3.54821 -3.6665 0.776457
      vertex 2.70823 -4.20308 0
      vertex 3.47712 -3.59305 0
    endloop
  endfacet
  facet normal 0.574628 -0.724268 -0.381103
    outer loop
      vertex 2.92593 -4.54094 1.5
      vertex 2.7636 -4.28901 0.776457
      vertex 3.75663 -3.88187 1.5
    endloop
  endfacet
  facet normal 0.57463 -0.724262 -0.381109
    outer loop
      vertex 3.75663 -3.88187 1.5
      vertex 2.7636 -4.28901 0.776457
      vertex 3.54821 -3.6665 0.776457
    endloop
  endfacet
  facet normal 0.493978 -0.622619 -0.606903
    outer loop
      vertex 3.18416 -4.9417 2.12132
      vertex 2.92593 -4.54094 1.5
      vertex 4.08817 -4.22447 2.12132
    endloop
  endfacet
  facet normal 0.493979 -0.622617 -0.606905
    outer loop
      vertex 4.08817 -4.22447 2.12132
      vertex 2.92593 -4.54094 1.5
      vertex 3.75663 -3.88187 1.5
    endloop
  endfacet
  facet normal 0.379519 -0.478352 -0.791925
    outer loop
      vertex 3.52069 -5.46399 2.59808
      vertex 3.18416 -4.9417 2.12132
      vertex 4.52025 -4.67095 2.59808
    endloop
  endfacet
  facet normal 0.379519 -0.478353 -0.791924
    outer loop
      vertex 4.52025 -4.67095 2.59808
      vertex 3.18416 -4.9417 2.12132
      vertex 4.08817 -4.22447 2.12132
    endloop
  endfacet
  facet normal 0.238833 -0.301028 -0.923223
    outer loop
      vertex 3.91259 -6.07221 2.89778
      vertex 3.52069 -5.46399 2.59808
      vertex 5.02342 -5.19089 2.89778
    endloop
  endfacet
  facet normal 0.238833 -0.301028 -0.923223
    outer loop
      vertex 5.02342 -5.19089 2.89778
      vertex 3.52069 -5.46399 2.59808
      vertex 4.52025 -4.67095 2.59808
    endloop
  endfacet
  facet normal 0.0815112 -0.102739 -0.991363
    outer loop
      vertex 4.33315 -6.7249 3
      vertex 3.91259 -6.07221 2.89778
      vertex 5.56338 -5.74886 3
    endloop
  endfacet
  facet normal 0.0815109 -0.102738 -0.991363
    outer loop
      vertex 5.56338 -5.74886 3
      vertex 3.91259 -6.07221 2.89778
      vertex 5.02342 -5.19089 2.89778
    endloop
  endfacet
  facet normal -0.0815106 0.102737 -0.991363
    outer loop
      vertex 4.75372 -7.3776 2.89778
      vertex 4.33315 -6.7249 3
      vertex 6.10334 -6.30682 2.89778
    endloop
  endfacet
  facet normal -0.0815112 0.102739 -0.991363
    outer loop
      vertex 6.10334 -6.30682 2.89778
      vertex 4.33315 -6.7249 3
      vertex 5.56338 -5.74886 3
    endloop
  endfacet
  facet normal -0.238833 0.301028 -0.923223
    outer loop
      vertex 5.14562 -7.98582 2.59808
      vertex 4.75372 -7.3776 2.89778
      vertex 6.60651 -6.82676 2.59808
    endloop
  endfacet
  facet normal -0.238833 0.301027 -0.923223
    outer loop
      vertex 6.60651 -6.82676 2.59808
      vertex 4.75372 -7.3776 2.89778
      vertex 6.10334 -6.30682 2.89778
    endloop
  endfacet
  facet normal -0.379519 0.478352 -0.791925
    outer loop
      vertex 5.48215 -8.50811 2.12132
      vertex 5.14562 -7.98582 2.59808
      vertex 7.03859 -7.27325 2.12132
    endloop
  endfacet
  facet normal -0.379518 0.478348 -0.791928
    outer loop
      vertex 7.03859 -7.27325 2.12132
      vertex 5.14562 -7.98582 2.59808
      vertex 6.60651 -6.82676 2.59808
    endloop
  endfacet
  facet normal -0.493977 0.62262 -0.606903
    outer loop
      vertex 5.74038 -8.90887 1.5
      vertex 5.48215 -8.50811 2.12132
      vertex 7.37013 -7.61585 1.5
    endloop
  endfacet
  facet normal -0.493977 0.622618 -0.606905
    outer loop
      vertex 7.37013 -7.61585 1.5
      vertex 5.48215 -8.50811 2.12132
      vertex 7.03859 -7.27325 2.12132
    endloop
  endfacet
  facet normal -0.574626 0.724269 -0.381103
    outer loop
      vertex 5.90271 -9.1608 0.776457
      vertex 5.74038 -8.90887 1.5
      vertex 7.57855 -7.83121 0.776457
    endloop
  endfacet
  facet normal -0.574626 0.724271 -0.3811
    outer loop
      vertex 7.57855 -7.83121 0.776457
      vertex 5.74038 -8.90887 1.5
      vertex 7.37013 -7.61585 1.5
    endloop
  endfacet
  facet normal -0.616264 0.776751 -0.129909
    outer loop
      vertex 5.95808 -9.24673 0
      vertex 5.90271 -9.1608 0.776457
      vertex 7.64964 -7.90467 0
    endloop
  endfacet
  facet normal -0.616264 0.776751 -0.129911
    outer loop
      vertex 7.64964 -7.90467 0
      vertex 5.90271 -9.1608 0.776457
      vertex 7.57855 -7.83121 0.776457
    endloop
  endfacet
  facet normal 0.756129 -0.6414 -0.129903
    outer loop
      vertex 3.54821 -3.6665 0.776457
      vertex 3.47712 -3.59305 0
      vertex 4.1961 -2.90272 0.776457
    endloop
  endfacet
  facet normal 0.75613 -0.641399 -0.129904
    outer loop
      vertex 4.1961 -2.90272 0.776457
      vertex 3.47712 -3.59305 0
      vertex 4.11203 -2.84457 0
    endloop
  endfacet
  facet normal 0.705043 -0.598055 -0.381108
    outer loop
      vertex 3.75663 -3.88187 1.5
      vertex 3.54821 -3.6665 0.776457
      vertex 4.44257 -3.07322 1.5
    endloop
  endfacet
  facet normal 0.705041 -0.598064 -0.381099
    outer loop
      vertex 4.44257 -3.07322 1.5
      vertex 3.54821 -3.6665 0.776457
      vertex 4.1961 -2.90272 0.776457
    endloop
  endfacet
  facet normal 0.606089 -0.514124 -0.606904
    outer loop
      vertex 4.08817 -4.22447 2.12132
      vertex 3.75663 -3.88187 1.5
      vertex 4.83466 -3.34445 2.12132
    endloop
  endfacet
  facet normal 0.606089 -0.514117 -0.60691
    outer loop
      vertex 4.83466 -3.34445 2.12132
      vertex 3.75663 -3.88187 1.5
      vertex 4.44257 -3.07322 1.5
    endloop
  endfacet
  facet normal 0.465653 -0.394998 -0.791924
    outer loop
      vertex 4.52025 -4.67095 2.59808
      vertex 4.08817 -4.22447 2.12132
      vertex 5.34563 -3.69793 2.59808
    endloop
  endfacet
  facet normal 0.465653 -0.394997 -0.791925
    outer loop
      vertex 5.34563 -3.69793 2.59808
      vertex 4.08817 -4.22447 2.12132
      vertex 4.83466 -3.34445 2.12132
    endloop
  endfacet
  facet normal 0.293037 -0.248572 -0.923223
    outer loop
      vertex 5.02342 -5.19089 2.89778
      vertex 4.52025 -4.67095 2.59808
      vertex 5.94067 -4.10956 2.89778
    endloop
  endfacet
  facet normal 0.293038 -0.248574 -0.923222
    outer loop
      vertex 5.94067 -4.10956 2.89778
      vertex 4.52025 -4.67095 2.59808
      vertex 5.34563 -3.69793 2.59808
    endloop
  endfacet
  facet normal 0.100011 -0.084835 -0.991363
    outer loop
      vertex 5.56338 -5.74886 3
      vertex 5.02342 -5.19089 2.89778
      vertex 6.57923 -4.55129 3
    endloop
  endfacet
  facet normal 0.100011 -0.0848352 -0.991363
    outer loop
      vertex 6.57923 -4.55129 3
      vertex 5.02342 -5.19089 2.89778
      vertex 5.94067 -4.10956 2.89778
    endloop
  endfacet
  facet normal -0.100011 0.0848363 -0.991363
    outer loop
      vertex 6.10334 -6.30682 2.89778
      vertex 5.56338 -5.74886 3
      vertex 7.21779 -4.99303 2.89778
    endloop
  endfacet
  facet normal -0.10001 0.0848344 -0.991363
    outer loop
      vertex 7.21779 -4.99303 2.89778
      vertex 5.56338 -5.74886 3
      vertex 6.57923 -4.55129 3
    endloop
  endfacet
  facet normal -0.293036 0.248573 -0.923223
    outer loop
      vertex 6.60651 -6.82676 2.59808
      vertex 6.10334 -6.30682 2.89778
      vertex 7.81283 -5.40466 2.59808
    endloop
  endfacet
  facet normal -0.293037 0.248575 -0.923222
    outer loop
      vertex 7.81283 -5.40466 2.59808
      vertex 6.10334 -6.30682 2.89778
      vertex 7.21779 -4.99303 2.89778
    endloop
  endfacet
  facet normal -0.465651 0.394994 -0.791927
    outer loop
      vertex 7.03859 -7.27325 2.12132
      vertex 6.60651 -6.82676 2.59808
      vertex 8.32381 -5.75813 2.12132
    endloop
  endfacet
  facet normal -0.465652 0.394997 -0.791925
    outer loop
      vertex 8.32381 -5.75813 2.12132
      vertex 6.60651 -6.82676 2.59808
      vertex 7.81283 -5.40466 2.59808
    endloop
  endfacet
  facet normal -0.60609 0.514123 -0.606904
    outer loop
      vertex 7.37013 -7.61585 1.5
      vertex 7.03859 -7.27325 2.12132
      vertex 8.71589 -6.02936 1.5
    endloop
  endfacet
  facet normal -0.60609 0.514123 -0.606904
    outer loop
      vertex 8.71589 -6.02936 1.5
      vertex 7.03859 -7.27325 2.12132
      vertex 8.32381 -5.75813 2.12132
    endloop
  endfacet
  facet normal -0.705041 0.598063 -0.381102
    outer loop
      vertex 7.57855 -7.83121 0.776457
      vertex 7.37013 -7.61585 1.5
      vertex 8.96237 -6.19986 0.776457
    endloop
  endfacet
  facet normal -0.705041 0.598059 -0.381107
    outer loop
      vertex 8.96237 -6.19986 0.776457
      vertex 7.37013 -7.61585 1.5
      vertex 8.71589 -6.02936 1.5
    endloop
  endfacet
  facet normal -0.756131 0.641397 -0.129911
    outer loop
      vertex 7.64964 -7.90467 0
      vertex 7.57855 -7.83121 0.776457
      vertex 9.04643 -6.25802 0
    endloop
  endfacet
  facet normal -0.75613 0.6414 -0.129903
    outer loop
      vertex 9.04643 -6.25802 0
      vertex 7.57855 -7.83121 0.776457
      vertex 8.96237 -6.19986 0.776457
    endloop
  endfacet
  facet normal 0.86686 -0.48133 -0.129906
    outer loop
      vertex 4.1961 -2.90272 0.776457
      vertex 4.11203 -2.84457 0
      vertex 4.6823 -2.02709 0.776457
    endloop
  endfacet
  facet normal 0.86686 -0.48133 -0.129907
    outer loop
      vertex 4.6823 -2.02709 0.776457
      vertex 4.11203 -2.84457 0
      vertex 4.58849 -1.98648 0
    endloop
  endfacet
  facet normal 0.808286 -0.448818 -0.381099
    outer loop
      vertex 4.44257 -3.07322 1.5
      vertex 4.1961 -2.90272 0.776457
      vertex 4.95734 -2.14616 1.5
    endloop
  endfacet
  facet normal 0.808286 -0.448807 -0.381111
    outer loop
      vertex 4.95734 -2.14616 1.5
      vertex 4.1961 -2.90272 0.776457
      vertex 4.6823 -2.02709 0.776457
    endloop
  endfacet
  facet normal 0.694842 -0.385817 -0.60691
    outer loop
      vertex 4.83466 -3.34445 2.12132
      vertex 4.44257 -3.07322 1.5
      vertex 5.39485 -2.33557 2.12132
    endloop
  endfacet
  facet normal 0.694843 -0.385827 -0.606902
    outer loop
      vertex 5.39485 -2.33557 2.12132
      vertex 4.44257 -3.07322 1.5
      vertex 4.95734 -2.14616 1.5
    endloop
  endfacet
  facet normal 0.533845 -0.296421 -0.791924
    outer loop
      vertex 5.34563 -3.69793 2.59808
      vertex 4.83466 -3.34445 2.12132
      vertex 5.96503 -2.58241 2.59808
    endloop
  endfacet
  facet normal 0.533846 -0.296423 -0.791923
    outer loop
      vertex 5.96503 -2.58241 2.59808
      vertex 4.83466 -3.34445 2.12132
      vertex 5.39485 -2.33557 2.12132
    endloop
  endfacet
  facet normal 0.335951 -0.18654 -0.923222
    outer loop
      vertex 5.94067 -4.10956 2.89778
      vertex 5.34563 -3.69793 2.59808
      vertex 6.62902 -2.86987 2.89778
    endloop
  endfacet
  facet normal 0.33595 -0.186539 -0.923223
    outer loop
      vertex 6.62902 -2.86987 2.89778
      vertex 5.34563 -3.69793 2.59808
      vertex 5.96503 -2.58241 2.59808
    endloop
  endfacet
  facet normal 0.114656 -0.0636641 -0.991363
    outer loop
      vertex 6.57923 -4.55129 3
      vertex 5.94067 -4.10956 2.89778
      vertex 7.34157 -3.17835 3
    endloop
  endfacet
  facet normal 0.114656 -0.0636639 -0.991363
    outer loop
      vertex 7.34157 -3.17835 3
      vertex 5.94067 -4.10956 2.89778
      vertex 6.62902 -2.86987 2.89778
    endloop
  endfacet
  facet normal -0.114656 0.0636635 -0.991363
    outer loop
      vertex 7.21779 -4.99303 2.89778
      vertex 6.57923 -4.55129 3
      vertex 8.05412 -3.48683 2.89778
    endloop
  endfacet
  facet normal -0.114656 0.063664 -0.991363
    outer loop
      vertex 8.05412 -3.48683 2.89778
      vertex 6.57923 -4.55129 3
      vertex 7.34157 -3.17835 3
    endloop
  endfacet
  facet normal -0.335951 0.18654 -0.923222
    outer loop
      vertex 7.81283 -5.40466 2.59808
      vertex 7.21779 -4.99303 2.89778
      vertex 8.71811 -3.77429 2.59808
    endloop
  endfacet
  facet normal -0.33595 0.186539 -0.923223
    outer loop
      vertex 8.71811 -3.77429 2.59808
      vertex 7.21779 -4.99303 2.89778
      vertex 8.05412 -3.48683 2.89778
    endloop
  endfacet
  facet normal -0.533842 0.296421 -0.791926
    outer loop
      vertex 8.32381 -5.75813 2.12132
      vertex 7.81283 -5.40466 2.59808
      vertex 9.28829 -4.02114 2.12132
    endloop
  endfacet
  facet normal -0.533843 0.296422 -0.791925
    outer loop
      vertex 9.28829 -4.02114 2.12132
      vertex 7.81283 -5.40466 2.59808
      vertex 8.71811 -3.77429 2.59808
    endloop
  endfacet
  facet normal -0.694846 0.38582 -0.606903
    outer loop
      vertex 8.71589 -6.02936 1.5
      vertex 8.32381 -5.75813 2.12132
      vertex 9.7258 -4.21055 1.5
    endloop
  endfacet
  facet normal -0.694847 0.38582 -0.606902
    outer loop
      vertex 9.7258 -4.21055 1.5
      vertex 8.32381 -5.75813 2.12132
      vertex 9.28829 -4.02114 2.12132
    endloop
  endfacet
  facet normal -0.808294 0.448796 -0.381108
    outer loop
      vertex 8.96237 -6.19986 0.776457
      vertex 8.71589 -6.02936 1.5
      vertex 10.0008 -4.32962 0.776457
    endloop
  endfacet
  facet normal -0.8083 0.448815 -0.381073
    outer loop
      vertex 10.0008 -4.32962 0.776457
      vertex 8.71589 -6.02936 1.5
      vertex 9.7258 -4.21055 1.5
    endloop
  endfacet
  facet normal -0.866868 0.481317 -0.129901
    outer loop
      vertex 9.04643 -6.25802 0
      vertex 8.96237 -6.19986 0.776457
      vertex 10.0946 -4.37023 0
    endloop
  endfacet
  facet normal -0.866868 0.481319 -0.129896
    outer loop
      vertex 10.0946 -4.37023 0
      vertex 8.96237 -6.19986 0.776457
      vertex 10.0008 -4.32962 0.776457
    endloop
  endfacet
  facet normal 0.944186 -0.302717 -0.129907
    outer loop
      vertex 4.6823 -2.02709 0.776457
      vertex 4.58849 -1.98648 0
      vertex 4.98808 -1.07335 0.776457
    endloop
  endfacet
  facet normal 0.944185 -0.30272 -0.129903
    outer loop
      vertex 4.98808 -1.07335 0.776457
      vertex 4.58849 -1.98648 0
      vertex 4.88815 -1.05184 0
    endloop
  endfacet
  facet normal 0.880388 -0.282259 -0.381112
    outer loop
      vertex 4.95734 -2.14616 1.5
      vertex 4.6823 -2.02709 0.776457
      vertex 5.28108 -1.13639 1.5
    endloop
  endfacet
  facet normal 0.880389 -0.282263 -0.381108
    outer loop
      vertex 5.28108 -1.13639 1.5
      vertex 4.6823 -2.02709 0.776457
      vertex 4.98808 -1.07335 0.776457
    endloop
  endfacet
  facet normal 0.756831 -0.242646 -0.606902
    outer loop
      vertex 5.39485 -2.33557 2.12132
      vertex 4.95734 -2.14616 1.5
      vertex 5.74716 -1.23669 2.12132
    endloop
  endfacet
  facet normal 0.75683 -0.242646 -0.606903
    outer loop
      vertex 5.74716 -1.23669 2.12132
      vertex 4.95734 -2.14616 1.5
      vertex 5.28108 -1.13639 1.5
    endloop
  endfacet
  facet normal 0.581466 -0.186425 -0.791924
    outer loop
      vertex 5.96503 -2.58241 2.59808
      vertex 5.39485 -2.33557 2.12132
      vertex 6.35458 -1.36739 2.59808
    endloop
  endfacet
  facet normal 0.581464 -0.186422 -0.791926
    outer loop
      vertex 6.35458 -1.36739 2.59808
      vertex 5.39485 -2.33557 2.12132
      vertex 5.74716 -1.23669 2.12132
    endloop
  endfacet
  facet normal 0.365918 -0.117317 -0.923223
    outer loop
      vertex 6.62902 -2.86987 2.89778
      vertex 5.96503 -2.58241 2.59808
      vertex 7.06193 -1.5196 2.89778
    endloop
  endfacet
  facet normal 0.365919 -0.117318 -0.923222
    outer loop
      vertex 7.06193 -1.5196 2.89778
      vertex 5.96503 -2.58241 2.59808
      vertex 6.35458 -1.36739 2.59808
    endloop
  endfacet
  facet normal 0.124884 -0.0400387 -0.991363
    outer loop
      vertex 7.34157 -3.17835 3
      vertex 6.62902 -2.86987 2.89778
      vertex 7.82101 -1.68294 3
    endloop
  endfacet
  facet normal 0.124884 -0.0400391 -0.991363
    outer loop
      vertex 7.82101 -1.68294 3
      vertex 6.62902 -2.86987 2.89778
      vertex 7.06193 -1.5196 2.89778
    endloop
  endfacet
  facet normal -0.124884 0.0400392 -0.991363
    outer loop
      vertex 8.05412 -3.48683 2.89778
      vertex 7.34157 -3.17835 3
      vertex 8.5801 -1.84628 2.89778
    endloop
  endfacet
  facet normal -0.124883 0.0400384 -0.991363
    outer loop
      vertex 8.5801 -1.84628 2.89778
      vertex 7.34157 -3.17835 3
      vertex 7.82101 -1.68294 3
    endloop
  endfacet
  facet normal -0.365918 0.117317 -0.923223
    outer loop
      vertex 8.71811 -3.77429 2.59808
      vertex 8.05412 -3.48683 2.89778
      vertex 9.28745 -1.99849 2.59808
    endloop
  endfacet
  facet normal -0.365919 0.117318 -0.923222
    outer loop
      vertex 9.28745 -1.99849 2.59808
      vertex 8.05412 -3.48683 2.89778
      vertex 8.5801 -1.84628 2.89778
    endloop
  endfacet
  facet normal -0.581464 0.186425 -0.791925
    outer loop
      vertex 9.28829 -4.02114 2.12132
      vertex 8.71811 -3.77429 2.59808
      vertex 9.89487 -2.1292 2.12132
    endloop
  endfacet
  facet normal -0.581462 0.186423 -0.791927
    outer loop
      vertex 9.89487 -2.1292 2.12132
      vertex 8.71811 -3.77429 2.59808
      vertex 9.28745 -1.99849 2.59808
    endloop
  endfacet
  facet normal -0.756824 0.242665 -0.606903
    outer loop
      vertex 9.7258 -4.21055 1.5
      vertex 9.28829 -4.02114 2.12132
      vertex 10.361 -2.22949 1.5
    endloop
  endfacet
  facet normal -0.756803 0.242641 -0.606939
    outer loop
      vertex 10.361 -2.22949 1.5
      vertex 9.28829 -4.02114 2.12132
      vertex 9.89487 -2.1292 2.12132
    endloop
  endfacet
  facet normal -0.880405 0.282263 -0.38107
    outer loop
      vertex 10.0008 -4.32962 0.776457
      vertex 9.7258 -4.21055 1.5
      vertex 10.6539 -2.29254 0.776457
    endloop
  endfacet
  facet normal -0.880422 0.282295 -0.381006
    outer loop
      vertex 10.6539 -2.29254 0.776457
      vertex 9.7258 -4.21055 1.5
      vertex 10.361 -2.22949 1.5
    endloop
  endfacet
  facet normal -0.944179 0.302743 -0.129896
    outer loop
      vertex 10.0946 -4.37023 0
      vertex 10.0008 -4.32962 0.776457
      vertex 10.7539 -2.31404 0
    endloop
  endfacet
  facet normal -0.944178 0.302709 -0.129983
    outer loop
      vertex 10.7539 -2.31404 0
      vertex 10.0008 -4.32962 0.776457
      vertex 10.6539 -2.29254 0.776457
    endloop
  endfacet
  facet normal 0.985127 -0.112442 -0.129932
    outer loop
      vertex 4.98808 -1.07335 0.776457
      vertex 5.08226 -0.166704 0.70591
      vertex 5.09153 -0.167008 0.776457
    endloop
  endfacet
  facet normal 0.985131 -0.112441 -0.129901
    outer loop
      vertex 5.08226 -0.166704 0.70591
      vertex 4.98808 -1.07335 0.776457
      vertex 4.88815 -1.05184 0
    endloop
  endfacet
  facet normal 0.985131 -0.112435 -0.129908
    outer loop
      vertex 5.08226 -0.166704 0.70591
      vertex 4.88815 -1.05184 0
      vertex 4.98952 -0.163662 0
    endloop
  endfacet
  facet normal 0.918544 -0.104837 -0.381164
    outer loop
      vertex 5.28108 -1.13639 1.5
      vertex 5.3625 -0.175896 1.43203
      vertex 5.3906 -0.176818 1.5
    endloop
  endfacet
  facet normal 0.918567 -0.104835 -0.381109
    outer loop
      vertex 5.3625 -0.175896 1.43203
      vertex 5.28108 -1.13639 1.5
      vertex 4.98808 -1.07335 0.776457
    endloop
  endfacet
  facet normal 0.918571 -0.104846 -0.381097
    outer loop
      vertex 5.3625 -0.175896 1.43203
      vertex 4.98808 -1.07335 0.776457
      vertex 5.09153 -0.167008 0.776457
    endloop
  endfacet
  facet normal 0.789648 -0.0901285 -0.606904
    outer loop
      vertex 5.74716 -1.23669 2.12132
      vertex 5.82053 -0.19092 2.06148
      vertex 5.86635 -0.192423 2.12132
    endloop
  endfacet
  facet normal 0.78965 -0.0901284 -0.606902
    outer loop
      vertex 5.82053 -0.19092 2.06148
      vertex 5.74716 -1.23669 2.12132
      vertex 5.28108 -1.13639 1.5
    endloop
  endfacet
  facet normal 0.789648 -0.0901259 -0.606904
    outer loop
      vertex 5.82053 -0.19092 2.06148
      vertex 5.28108 -1.13639 1.5
      vertex 5.3906 -0.176818 1.5
    endloop
  endfacet
  facet normal 0.606737 -0.0692532 -0.79188
    outer loop
      vertex 6.35458 -1.36739 2.59808
      vertex 6.42579 -0.210773 2.55149
      vertex 6.48637 -0.21276 2.59808
    endloop
  endfacet
  facet normal 0.606677 -0.0692514 -0.791926
    outer loop
      vertex 6.42579 -0.210773 2.55149
      vertex 6.35458 -1.36739 2.59808
      vertex 5.74716 -1.23669 2.12132
    endloop
  endfacet
  facet normal 0.606669 -0.0692437 -0.791933
    outer loop
      vertex 6.42579 -0.210773 2.55149
      vertex 5.74716 -1.23669 2.12132
      vertex 5.86635 -0.192423 2.12132
    endloop
  endfacet
  facet normal 0.381819 -0.043581 -0.923209
    outer loop
      vertex 7.06193 -1.5196 2.89778
      vertex 7.13752 -0.234119 2.86836
      vertex 7.20839 -0.236443 2.89778
    endloop
  endfacet
  facet normal 0.381786 -0.0435794 -0.923223
    outer loop
      vertex 7.13752 -0.234119 2.86836
      vertex 7.06193 -1.5196 2.89778
      vertex 6.35458 -1.36739 2.59808
    endloop
  endfacet
  facet normal 0.381783 -0.0435769 -0.923224
    outer loop
      vertex 7.13752 -0.234119 2.86836
      vertex 6.35458 -1.36739 2.59808
      vertex 6.48637 -0.21276 2.59808
    endloop
  endfacet
  facet normal 0.130265 -0.0148683 -0.991368
    outer loop
      vertex 7.82101 -1.68294 3
      vertex 7.90739 -0.259372 2.99
      vertex 7.98321 -0.261859 3
    endloop
  endfacet
  facet normal 0.1303 -0.0148704 -0.991363
    outer loop
      vertex 7.90739 -0.259372 2.99
      vertex 7.82101 -1.68294 3
      vertex 7.06193 -1.5196 2.89778
    endloop
  endfacet
  facet normal 0.130304 -0.0148729 -0.991363
    outer loop
      vertex 7.90739 -0.259372 2.99
      vertex 7.06193 -1.5196 2.89778
      vertex 7.20839 -0.236443 2.89778
    endloop
  endfacet
  facet normal -0.13021 0.0148609 -0.991375
    outer loop
      vertex 8.5801 -1.84628 2.89778
      vertex 8.68286 -0.284808 2.90769
      vertex 8.75803 -0.287274 2.89778
    endloop
  endfacet
  facet normal -0.130299 0.0148667 -0.991363
    outer loop
      vertex 8.68286 -0.284808 2.90769
      vertex 8.5801 -1.84628 2.89778
      vertex 7.82101 -1.68294 3
    endloop
  endfacet
  facet normal -0.13031 0.0148734 -0.991362
    outer loop
      vertex 8.68286 -0.284808 2.90769
      vertex 7.82101 -1.68294 3
      vertex 7.98321 -0.261859 3
    endloop
  endfacet
  facet normal -0.381696 0.0435656 -0.923261
    outer loop
      vertex 9.28745 -1.99849 2.59808
      vertex 9.41085 -0.308687 2.6268
      vertex 9.48006 -0.310957 2.59808
    endloop
  endfacet
  facet normal -0.381788 0.0435717 -0.923222
    outer loop
      vertex 9.41085 -0.308687 2.6268
      vertex 9.28745 -1.99849 2.59808
      vertex 8.5801 -1.84628 2.89778
    endloop
  endfacet
  facet normal -0.381792 0.043574 -0.923221
    outer loop
      vertex 9.41085 -0.308687 2.6268
      vertex 8.5801 -1.84628 2.89778
      vertex 8.75803 -0.287274 2.89778
    endloop
  endfacet
  facet normal -0.606506 0.0692324 -0.792059
    outer loop
      vertex 9.89487 -2.1292 2.12132
      vertex 10.0415 -0.329373 2.16636
      vertex 10.1001 -0.331295 2.12132
    endloop
  endfacet
  facet normal -0.606678 0.0692431 -0.791927
    outer loop
      vertex 10.0415 -0.329373 2.16636
      vertex 9.89487 -2.1292 2.12132
      vertex 9.28745 -1.99849 2.59808
    endloop
  endfacet
  facet normal -0.606686 0.0692453 -0.79192
    outer loop
      vertex 9.88493 -0.324238 2.28675
      vertex 9.28745 -1.99849 2.59808
      vertex 9.48006 -0.310957 2.59808
    endloop
  endfacet
  facet normal -0.606666 0.0692352 -0.791936
    outer loop
      vertex 9.28745 -1.99849 2.59808
      vertex 9.88493 -0.324238 2.28675
      vertex 10.0415 -0.329373 2.16636
    endloop
  endfacet
  facet normal -0.78998 0.0901352 -0.606471
    outer loop
      vertex 10.361 -2.22949 1.5
      vertex 10.5316 -0.345448 1.55779
      vertex 10.5758 -0.3469 1.5
    endloop
  endfacet
  facet normal -0.789622 0.0901172 -0.60694
    outer loop
      vertex 10.5316 -0.345448 1.55779
      vertex 10.361 -2.22949 1.5
      vertex 9.89487 -2.1292 2.12132
    endloop
  endfacet
  facet normal -0.789647 0.0901379 -0.606904
    outer loop
      vertex 10.5316 -0.345448 1.55779
      vertex 9.89487 -2.1292 2.12132
      vertex 10.1001 -0.331295 2.12132
    endloop
  endfacet
  facet normal -0.918383 0.104845 -0.38155
    outer loop
      vertex 10.6539 -2.29254 0.776457
      vertex 10.8475 -0.355812 0.842655
      vertex 10.8749 -0.35671 0.776457
    endloop
  endfacet
  facet normal -0.91861 0.104849 -0.381002
    outer loop
      vertex 10.8475 -0.355812 0.842655
      vertex 10.6539 -2.29254 0.776457
      vertex 10.361 -2.22949 1.5
    endloop
  endfacet
  facet normal -0.918576 0.104808 -0.381095
    outer loop
      vertex 10.8475 -0.355812 0.842655
      vertex 10.361 -2.22949 1.5
      vertex 10.5758 -0.3469 1.5
    endloop
  endfacet
  facet normal -0.985089 0.112424 -0.13023
    outer loop
      vertex 10.7539 -2.31404 0
      vertex 10.9677 -0.359755 0.0698507
      vertex 10.9769 -0.360056 0
    endloop
  endfacet
  facet normal -0.985122 0.112419 -0.129987
    outer loop
      vertex 10.9677 -0.359755 0.0698507
      vertex 10.7539 -2.31404 0
      vertex 10.6539 -2.29254 0.776457
    endloop
  endfacet
  facet normal -0.984564 0.112401 -0.134165
    outer loop
      vertex 10.8755 -0.356729 0.772038
      vertex 10.6539 -2.29254 0.776457
      vertex 10.8749 -0.35671 0.776457
    endloop
  endfacet
  facet normal -0.985135 0.112476 -0.129837
    outer loop
      vertex 10.6539 -2.29254 0.776457
      vertex 10.8755 -0.356729 0.772038
      vertex 10.9677 -0.359755 0.0698507
    endloop
  endfacet
  facet normal 0 0 -1
    outer loop
      vertex 3.87319 -0.999329 0
      vertex 4.88815 -1.05184 0
      vertex 4.58849 -1.98648 0
    endloop
  endfacet
  facet normal 0 -0 -1
    outer loop
      vertex 4.5627 -0.149662 0
      vertex 4.88815 -1.05184 0
      vertex 3.87319 -0.999329 0
    endloop
  endfacet
  facet normal 0 0 -1
    outer loop
      vertex 4.88815 -1.05184 0
      vertex 4.5627 -0.149662 0
      vertex 4.98952 -0.163662 0
    endloop
  endfacet
  facet normal 0 0 -1
    outer loop
      vertex 3.56227 -1.81947 0
      vertex 4.58849 -1.98648 0
      vertex 4.11203 -2.84457 0
    endloop
  endfacet
  facet normal -0 0 -1
    outer loop
      vertex 4.5627 -0.149662 0
      vertex 3.87319 -0.999329 0
      vertex 4.13411 -0.135604 0
    endloop
  endfacet
  facet normal -0 0 -1
    outer loop
      vertex 4.13411 -0.135604 0
      vertex 3.87319 -0.999329 0
      vertex 3.99789 -0.131135 0
    endloop
  endfacet
  facet normal 0 0 -1
    outer loop
      vertex 4.58849 -1.98648 0
      vertex 3.56227 -1.81947 0
      vertex 3.87319 -0.999329 0
    endloop
  endfacet
  facet normal 0 0 -1
    outer loop
      vertex 3.08008 -2.55214 0
      vertex 4.11203 -2.84457 0
      vertex 3.47712 -3.59305 0
    endloop
  endfacet
  facet normal 0 0 -1
    outer loop
      vertex 4.11203 -2.84457 0
      vertex 3.08008 -2.55214 0
      vertex 3.56227 -1.81947 0
    endloop
  endfacet
  facet normal 0 0 -1
    outer loop
      vertex 2.44979 -3.16209 0
      vertex 3.47712 -3.59305 0
      vertex 2.70823 -4.20308 0
    endloop
  endfacet
  facet normal 0 0 -1
    outer loop
      vertex 3.47712 -3.59305 0
      vertex 2.44979 -3.16209 0
      vertex 3.08008 -2.55214 0
    endloop
  endfacet
  facet normal 0 0 -1
    outer loop
      vertex 1.70171 -3.62001 0
      vertex 2.70823 -4.20308 0
      vertex 1.83498 -4.65115 0
    endloop
  endfacet
  facet normal 0 0 -1
    outer loop
      vertex 2.70823 -4.20308 0
      vertex 1.70171 -3.62001 0
      vertex 2.44979 -3.16209 0
    endloop
  endfacet
  facet normal 0 0 -1
    outer loop
      vertex 0.871815 -3.90387 0
      vertex 1.83498 -4.65115 0
      vertex 0.891026 -4.92 0
    endloop
  endfacet
  facet normal 0 0 -1
    outer loop
      vertex 1.83498 -4.65115 0
      vertex 0.871815 -3.90387 0
      vertex 1.70171 -3.62001 0
    endloop
  endfacet
  facet normal 0 0 -1
    outer loop
      vertex 8.88186e-16 -4.00004 0
      vertex 0.891026 -4.92 0
      vertex 1.10849e-15 -4.9922 0
    endloop
  endfacet
  facet normal 0 0 -1
    outer loop
      vertex 0.891026 -4.92 0
      vertex 8.88186e-16 -4.00004 0
      vertex 0.871815 -3.90387 0
    endloop
  endfacet
  facet normal 0 0 -1
    outer loop
      vertex 10.7539 -2.31404 0
      vertex 11.9936 -0.393404 0
      vertex 11.6195 -2.99797 0
    endloop
  endfacet
  facet normal -0 0 -1
    outer loop
      vertex 11.9936 -0.393404 0
      vertex 10.7539 -2.31404 0
      vertex 11.7211 -0.384468 0
    endloop
  endfacet
  facet normal -0 0 -1
    outer loop
      vertex 11.7211 -0.384468 0
      vertex 10.7539 -2.31404 0
      vertex 11.4288 -0.374878 0
    endloop
  endfacet
  facet normal -0 0 -1
    outer loop
      vertex 11.4288 -0.374878 0
      vertex 10.7539 -2.31404 0
      vertex 10.9769 -0.360056 0
    endloop
  endfacet
  facet normal 0 0 -1
    outer loop
      vertex 10.0946 -4.37023 0
      vertex 11.6195 -2.99797 0
      vertex 10.6868 -5.45839 0
    endloop
  endfacet
  facet normal -0 0 -1
    outer loop
      vertex 11.6195 -2.99797 0
      vertex 10.0946 -4.37023 0
      vertex 10.7539 -2.31404 0
    endloop
  endfacet
  facet normal 0 0 -1
    outer loop
      vertex 9.04643 -6.25802 0
      vertex 10.6868 -5.45839 0
      vertex 9.24018 -7.65637 0
    endloop
  endfacet
  facet normal -0 0 -1
    outer loop
      vertex 10.6868 -5.45839 0
      vertex 9.04643 -6.25802 0
      vertex 10.0946 -4.37023 0
    endloop
  endfacet
  facet normal -0 0 -1
    outer loop
      vertex 9.24018 -7.65637 0
      vertex 7.64964 -7.90467 0
      vertex 9.04643 -6.25802 0
    endloop
  endfacet
  facet normal 0 0 -1
    outer loop
      vertex 7.34932 -9.48622 0
      vertex 7.64964 -7.90467 0
      vertex 9.24018 -7.65637 0
    endloop
  endfacet
  facet normal 0 0 -1
    outer loop
      vertex 7.34932 -9.48622 0
      vertex 5.95808 -9.24673 0
      vertex 7.64964 -7.90467 0
    endloop
  endfacet
  facet normal 0 0 -1
    outer loop
      vertex 5.1051 -10.86 0
      vertex 5.95808 -9.24673 0
      vertex 7.34932 -9.48622 0
    endloop
  endfacet
  facet normal 0 0 -1
    outer loop
      vertex 5.1051 -10.86 0
      vertex 4.03694 -10.2325 0
      vertex 5.95808 -9.24673 0
    endloop
  endfacet
  facet normal 0 0 -1
    outer loop
      vertex 2.61543 -11.7115 0
      vertex 4.03694 -10.2325 0
      vertex 5.1051 -10.86 0
    endloop
  endfacet
  facet normal 0 0 -1
    outer loop
      vertex 2.61543 -11.7115 0
      vertex 1.96025 -10.824 0
      vertex 4.03694 -10.2325 0
    endloop
  endfacet
  facet normal 0 0 -1
    outer loop
      vertex 2.66454e-15 -12 0
      vertex 1.96025 -10.824 0
      vertex 2.61543 -11.7115 0
    endloop
  endfacet
  facet normal 0 0 -1
    outer loop
      vertex 1.96025 -10.824 0
      vertex 2.66454e-15 -12 0
      vertex 2.43867e-15 -10.9828 0
    endloop
  endfacet
endsolid OpenSCAD_Model
