solid OpenSCAD_Model
  facet normal -1 2.22043e-16 -5.56225e-20
    outer loop
      vertex 9.52668e-15 42.9044 0.172997
      vertex 9.76996e-15 44 0
      vertex 9.53173e-15 42.9271 0
    endloop
  endfacet
  facet normal -1 2.22053e-16 5.83113e-21
    outer loop
      vertex 9.76996e-15 44 0
      vertex 9.52668e-15 42.9044 0.172997
      vertex 9.70187e-15 43.6933 2.32937
    endloop
  endfacet
  facet normal -1 2.22065e-16 1.52547e-21
    outer loop
      vertex 9.4713e-15 42.655 2.07055
      vertex 9.70187e-15 43.6933 2.32937
      vertex 9.52668e-15 42.9044 0.172997
    endloop
  endfacet
  facet normal -1 2.22038e-16 1.07738e-19
    outer loop
      vertex 9.45633e-15 42.5875 2.23362
      vertex 9.70187e-15 43.6933 2.32937
      vertex 9.4713e-15 42.655 2.07055
    endloop
  endfacet
  facet normal -1 2.22047e-16 1.2476e-21
    outer loop
      vertex 9.70187e-15 43.6933 2.32937
      vertex 9.45633e-15 42.5875 2.23362
      vertex 9.50223e-15 42.7942 4.5
    endloop
  endfacet
  facet normal -1 2.22046e-16 1.36305e-21
    outer loop
      vertex 9.29415e-15 41.8571 4
      vertex 9.50223e-15 42.7942 4.5
      vertex 9.45633e-15 42.5875 2.23362
    endloop
  endfacet
  facet normal -1 2.22074e-16 -5.08199e-20
    outer loop
      vertex 9.27007e-15 41.7487 4.14156
      vertex 9.50223e-15 42.7942 4.5
      vertex 9.29415e-15 41.8571 4
    endloop
  endfacet
  facet normal -1 2.22056e-16 2.1703e-21
    outer loop
      vertex 9.27007e-15 41.7487 4.14156
      vertex 9.18465e-15 41.364 6.36396
      vertex 9.50223e-15 42.7942 4.5
    endloop
  endfacet
  facet normal -1 2.22035e-16 -1.48135e-21
    outer loop
      vertex 9.01233e-15 40.5879 5.65685
      vertex 9.18465e-15 41.364 6.36396
      vertex 9.27007e-15 41.7487 4.14156
    endloop
  endfacet
  facet normal -1 2.22056e-16 -2.44288e-20
    outer loop
      vertex 8.98064e-15 40.4452 5.76656
      vertex 9.18465e-15 41.364 6.36396
      vertex 9.01233e-15 40.5879 5.65685
    endloop
  endfacet
  facet normal -1 2.22042e-16 -3.08607e-21
    outer loop
      vertex 8.98064e-15 40.4452 5.76656
      vertex 8.77076e-15 39.5 7.79423
      vertex 9.18465e-15 41.364 6.36396
    endloop
  endfacet
  facet normal -1 2.22047e-16 -7.26187e-22
    outer loop
      vertex 8.64506e-15 38.9339 6.9282
      vertex 8.77076e-15 39.5 7.79423
      vertex 8.98064e-15 40.4452 5.76656
    endloop
  endfacet
  facet normal -1 2.2207e-16 -1.58363e-20
    outer loop
      vertex 8.60784e-15 38.7663 6.99774
      vertex 8.77076e-15 39.5 7.79423
      vertex 8.64506e-15 38.9339 6.9282
    endloop
  endfacet
  facet normal -1 2.22047e-16 5.34345e-21
    outer loop
      vertex 8.60784e-15 38.7663 6.99774
      vertex 8.28879e-15 37.3294 8.69333
      vertex 8.77076e-15 39.5 7.79423
    endloop
  endfacet
  facet normal -1 2.2204e-16 -3.19644e-22
    outer loop
      vertex 8.21736e-15 37.0077 7.72741
      vertex 8.28879e-15 37.3294 8.69333
      vertex 8.60784e-15 38.7663 6.99774
    endloop
  endfacet
  facet normal -1 2.21991e-16 1.60213e-20
    outer loop
      vertex 8.17718e-15 36.8267 7.75127
      vertex 8.28879e-15 37.3294 8.69333
      vertex 8.21736e-15 37.0077 7.72741
    endloop
  endfacet
  facet normal -1 2.22043e-16 -1.15758e-20
    outer loop
      vertex 8.17718e-15 36.8267 7.75127
      vertex 7.77156e-15 35 9
      vertex 8.28879e-15 37.3294 8.69333
    endloop
  endfacet
  facet normal -1 2.22059e-16 1.19111e-20
    outer loop
      vertex 7.75838e-15 34.9407 8
      vertex 7.77156e-15 35 9
      vertex 8.17718e-15 36.8267 7.75127
    endloop
  endfacet
  facet normal -1 2.21969e-16 1.72327e-20
    outer loop
      vertex 7.71807e-15 34.7591 7.97606
      vertex 7.77156e-15 35 9
      vertex 7.75838e-15 34.9407 8
    endloop
  endfacet
  facet normal -1 2.22041e-16 4.53861e-21
    outer loop
      vertex 7.25434e-15 32.6706 8.69333
      vertex 7.71807e-15 34.7591 7.97606
      vertex 7.29941e-15 32.8736 7.72741
    endloop
  endfacet
  facet normal -1 2.22e-16 -4.03763e-21
    outer loop
      vertex 7.25434e-15 32.6706 8.69333
      vertex 7.29941e-15 32.8736 7.72741
      vertex 7.26187e-15 32.7045 7.65725
    endloop
  endfacet
  facet normal -1 2.2204e-16 5.65918e-22
    outer loop
      vertex 7.71807e-15 34.7591 7.97606
      vertex 7.25434e-15 32.6706 8.69333
      vertex 7.77156e-15 35 9
    endloop
  endfacet
  facet normal -1 2.2205e-16 -5.5745e-21
    outer loop
      vertex 6.77236e-15 30.5 7.79423
      vertex 7.26187e-15 32.7045 7.65725
      vertex 6.87171e-15 30.9474 6.9282
    endloop
  endfacet
  facet normal -1 2.22132e-16 3.69237e-20
    outer loop
      vertex 6.77236e-15 30.5 7.79423
      vertex 6.87171e-15 30.9474 6.9282
      vertex 6.83963e-15 30.803 6.81715
    endloop
  endfacet
  facet normal -1 2.2205e-16 -2.41117e-21
    outer loop
      vertex 7.26187e-15 32.7045 7.65725
      vertex 6.77236e-15 30.5 7.79423
      vertex 7.25434e-15 32.6706 8.69333
    endloop
  endfacet
  facet normal -1 2.22034e-16 6.93354e-21
    outer loop
      vertex 6.35848e-15 28.636 6.36396
      vertex 6.83963e-15 30.803 6.81715
      vertex 6.50444e-15 29.2934 5.65685
    endloop
  endfacet
  facet normal -1 2.22032e-16 5.84199e-21
    outer loop
      vertex 6.35848e-15 28.636 6.36396
      vertex 6.50444e-15 29.2934 5.65685
      vertex 6.48006e-15 29.1836 5.51353
    endloop
  endfacet
  facet normal -1 2.22034e-16 6.36906e-21
    outer loop
      vertex 6.83963e-15 30.803 6.81715
      vertex 6.35848e-15 28.636 6.36396
      vertex 6.77236e-15 30.5 7.79423
    endloop
  endfacet
  facet normal -1 2.22044e-16 1.50024e-21
    outer loop
      vertex 6.0409e-15 27.2058 4.5
      vertex 6.48006e-15 29.1836 5.51353
      vertex 6.22262e-15 28.0242 4
    endloop
  endfacet
  facet normal -1 2.22076e-16 5.37336e-20
    outer loop
      vertex 6.0409e-15 27.2058 4.5
      vertex 6.22262e-15 28.0242 4
      vertex 6.20751e-15 27.9562 3.83543
    endloop
  endfacet
  facet normal -1 2.22041e-16 2.71902e-21
    outer loop
      vertex 5.84125e-15 26.3067 2.32937
      vertex 6.20751e-15 27.9562 3.83543
      vertex 6.04546e-15 27.2264 2.07055
    endloop
  endfacet
  facet normal -1 2.22039e-16 1.03228e-20
    outer loop
      vertex 6.48006e-15 29.1836 5.51353
      vertex 6.0409e-15 27.2058 4.5
      vertex 6.35848e-15 28.636 6.36396
    endloop
  endfacet
  facet normal -1 2.22001e-16 -1.37266e-19
    outer loop
      vertex 5.84125e-15 26.3067 2.32937
      vertex 6.04546e-15 27.2264 2.07055
      vertex 6.0404e-15 27.2035 1.89697
    endloop
  endfacet
  facet normal -1 2.2205e-16 1.56235e-21
    outer loop
      vertex 5.77316e-15 26 0
      vertex 6.0404e-15 27.2035 1.89697
      vertex 5.98504e-15 26.9542 0
    endloop
  endfacet
  facet normal -1 2.22036e-16 8.22375e-21
    outer loop
      vertex 6.20751e-15 27.9562 3.83543
      vertex 5.84125e-15 26.3067 2.32937
      vertex 6.0409e-15 27.2058 4.5
    endloop
  endfacet
  facet normal -1 2.22064e-16 -7.2889e-21
    outer loop
      vertex 6.0404e-15 27.2035 1.89697
      vertex 5.77316e-15 26 0
      vertex 5.84125e-15 26.3067 2.32937
    endloop
  endfacet
  facet normal 0.126173 -0.992008 4.69945e-06
    outer loop
      vertex 43.6485 5.55062 0
      vertex 43.3443 5.51194 2.32937
      vertex 42.4524 5.39851 4.5
    endloop
  endfacet
  facet normal 0.126146 -0.992012 2.24377e-06
    outer loop
      vertex 26.9884 3.43202 4.5
      vertex 27.0729 3.44276 2.22663
      vertex 27.7605 3.5302 3.90283
    endloop
  endfacet
  facet normal 0.125986 -0.992032 -3.77057e-06
    outer loop
      vertex 26.9884 3.43202 4.5
      vertex 27.0088 3.43462 2.07055
      vertex 27.0729 3.44276 2.22663
    endloop
  endfacet
  facet normal 0.126428 -0.991976 0
    outer loop
      vertex 27.0088 3.43462 2.07055
      vertex 26.9884 3.43202 4.5
      vertex 26.9884 3.43202 1.914
    endloop
  endfacet
  facet normal 0.126152 -0.992011 4.92282e-06
    outer loop
      vertex 42.4524 5.39851 4.5
      vertex 41.0335 5.21808 6.36396
      vertex 39.1844 4.98294 7.79423
    endloop
  endfacet
  facet normal 0.126146 -0.992012 -1.78032e-05
    outer loop
      vertex 39.1844 4.98294 7.79423
      vertex 37.0312 4.70912 8.69333
      vertex 34.7204 4.41527 9
    endloop
  endfacet
  facet normal 0.126146 -0.992012 1.34101e-05
    outer loop
      vertex 34.7204 4.41527 9
      vertex 32.4096 4.12142 8.69333
      vertex 30.2563 3.84759 7.79423
    endloop
  endfacet
  facet normal 0.126149 -0.992011 3.4941e-06
    outer loop
      vertex 30.2563 3.84759 7.79423
      vertex 32.3366 4.11213 7.61266
      vertex 34.7204 4.41527 9
    endloop
  endfacet
  facet normal 0.126149 -0.992011 1.10124e-05
    outer loop
      vertex 30.2563 3.84759 7.79423
      vertex 30.8504 3.92313 6.991
      vertex 32.3366 4.11213 7.61266
    endloop
  endfacet
  facet normal 0.126145 -0.992012 7.54899e-06
    outer loop
      vertex 30.2563 3.84759 7.79423
      vertex 30.7002 3.90403 6.9282
      vertex 30.8504 3.92313 6.991
    endloop
  endfacet
  facet normal 0.126145 -0.992012 7.40146e-06
    outer loop
      vertex 30.2563 3.84759 7.79423
      vertex 29.3106 3.72732 5.85147
      vertex 30.7002 3.90403 6.9282
    endloop
  endfacet
  facet normal 0.126144 -0.992012 7.91059e-06
    outer loop
      vertex 29.3106 3.72732 5.85147
      vertex 30.2563 3.84759 7.79423
      vertex 26.9884 3.43202 4.5
    endloop
  endfacet
  facet normal 0.126149 -0.992011 6.44344e-07
    outer loop
      vertex 29.0594 3.69538 5.65685
      vertex 26.9884 3.43202 4.5
      vertex 28.4881 3.62273 4.90507
    endloop
  endfacet
  facet normal 0.126357 -0.991985 -0.000377602
    outer loop
      vertex 29.189 3.71185 5.75726
      vertex 26.9884 3.43202 4.5
      vertex 29.0594 3.69538 5.65685
    endloop
  endfacet
  facet normal 0.125982 -0.992033 0.000290745
    outer loop
      vertex 26.9884 3.43202 4.5
      vertex 29.189 3.71185 5.75726
      vertex 29.3106 3.72732 5.85147
    endloop
  endfacet
  facet normal 0.12615 -0.992011 -7.24943e-08
    outer loop
      vertex 34.7204 4.41527 9
      vertex 32.772 4.1675 7.74882
      vertex 34.6615 4.40778 8
    endloop
  endfacet
  facet normal 0.126198 -0.992005 -7.61558e-05
    outer loop
      vertex 34.7204 4.41527 9
      vertex 32.611 4.14702 7.72741
      vertex 32.772 4.1675 7.74882
    endloop
  endfacet
  facet normal 0.126093 -0.992018 0.000100308
    outer loop
      vertex 32.611 4.14702 7.72741
      vertex 34.7204 4.41527 9
      vertex 32.3366 4.11213 7.61266
    endloop
  endfacet
  facet normal 0.12615 -0.992011 -6.7001e-08
    outer loop
      vertex 34.8231 4.42833 7.97852
      vertex 34.7204 4.41527 9
      vertex 34.6615 4.40778 8
    endloop
  endfacet
  facet normal 0.126153 -0.992011 2.77747e-07
    outer loop
      vertex 36.712 4.66854 7.72741
      vertex 34.7204 4.41527 9
      vertex 34.8231 4.42833 7.97852
    endloop
  endfacet
  facet normal 0.126148 -0.992011 -7.77654e-06
    outer loop
      vertex 34.7204 4.41527 9
      vertex 36.712 4.66854 7.72741
      vertex 39.1844 4.98294 7.79423
    endloop
  endfacet
  facet normal 0.126146 -0.992012 7.83622e-05
    outer loop
      vertex 36.8635 4.6878 7.66404
      vertex 39.1844 4.98294 7.79423
      vertex 36.712 4.66854 7.72741
    endloop
  endfacet
  facet normal 0.12615 -0.992011 9.04107e-06
    outer loop
      vertex 39.1844 4.98294 7.79423
      vertex 36.8635 4.6878 7.66404
      vertex 37.5851 4.77956 7.36224
    endloop
  endfacet
  facet normal 0.126169 -0.992009 -1.75545e-05
    outer loop
      vertex 30.2563 3.84759 7.79423
      vertex 28.4073 3.61245 6.36396
      vertex 26.9884 3.43202 4.5
    endloop
  endfacet
  facet normal 0.126156 -0.99201 0
    outer loop
      vertex 25.7923 3.27991 0
      vertex 26.9884 3.43202 1.914
      vertex 26.9884 3.43202 4.5
    endloop
  endfacet
  facet normal 0.126151 -0.992011 2.7937e-06
    outer loop
      vertex 26.9884 3.43202 1.914
      vertex 25.7923 3.27991 0
      vertex 26.7611 3.40311 0.170414
    endloop
  endfacet
  facet normal 0.126155 -0.992011 -1.85963e-05
    outer loop
      vertex 26.7611 3.40311 0.170414
      vertex 25.7923 3.27991 0
      vertex 26.7389 3.40029 0
    endloop
  endfacet
  facet normal 0.126142 -0.992012 3.67264e-06
    outer loop
      vertex 26.9884 3.43202 4.5
      vertex 26.0965 3.3186 2.32937
      vertex 25.7923 3.27991 0
    endloop
  endfacet
  facet normal 0.126153 -0.992011 -1.12648e-05
    outer loop
      vertex 26.9884 3.43202 4.5
      vertex 27.9007 3.54804 4.13214
      vertex 28.4881 3.62273 4.90507
    endloop
  endfacet
  facet normal 0.126161 -0.99201 1.04754e-05
    outer loop
      vertex 26.9884 3.43202 4.5
      vertex 27.8003 3.53527 4
      vertex 27.9007 3.54804 4.13214
    endloop
  endfacet
  facet normal 0.126197 -0.992005 7.01185e-05
    outer loop
      vertex 27.8003 3.53527 4
      vertex 26.9884 3.43202 4.5
      vertex 27.7605 3.5302 3.90283
    endloop
  endfacet
  facet normal 0.126155 -0.992011 -1.05893e-05
    outer loop
      vertex 38.6228 4.91153 6.9282
      vertex 39.1844 4.98294 7.79423
      vertex 37.5851 4.77956 7.36224
    endloop
  endfacet
  facet normal 0.126126 -0.992014 8.74021e-06
    outer loop
      vertex 38.754 4.92821 6.82656
      vertex 39.1844 4.98294 7.79423
      vertex 38.6228 4.91153 6.9282
    endloop
  endfacet
  facet normal 0.12615 -0.992011 -2.06386e-06
    outer loop
      vertex 39.1844 4.98294 7.79423
      vertex 38.754 4.92821 6.82656
      vertex 39.3735 5.00699 6.34656
    endloop
  endfacet
  facet normal 0.126145 -0.992012 -2.73206e-06
    outer loop
      vertex 40.2637 5.12019 5.65685
      vertex 39.1844 4.98294 7.79423
      vertex 39.3735 5.00699 6.34656
    endloop
  endfacet
  facet normal 0.126144 -0.992012 -3.9162e-06
    outer loop
      vertex 42.4524 5.39851 4.5
      vertex 40.2637 5.12019 5.65685
      vertex 40.3653 5.13311 5.52306
    endloop
  endfacet
  facet normal 0.126145 -0.992012 -2.40056e-06
    outer loop
      vertex 40.2637 5.12019 5.65685
      vertex 42.4524 5.39851 4.5
      vertex 39.1844 4.98294 7.79423
    endloop
  endfacet
  facet normal 0.126145 -0.992012 -2.69452e-06
    outer loop
      vertex 41.5227 5.28029 4
      vertex 42.4524 5.39851 4.5
      vertex 40.3653 5.13311 5.52306
    endloop
  endfacet
  facet normal 0.126159 -0.99201 -2.84262e-05
    outer loop
      vertex 41.5873 5.28851 3.84248
      vertex 42.4524 5.39851 4.5
      vertex 41.5227 5.28029 4
    endloop
  endfacet
  facet normal 0.126142 -0.992012 -6.62331e-06
    outer loop
      vertex 42.4524 5.39851 4.5
      vertex 41.5873 5.28851 3.84248
      vertex 42.1783 5.36367 2.40177
    endloop
  endfacet
  facet normal 0.126072 -0.992021 2.7681e-06
    outer loop
      vertex 42.3142 5.38094 2.07055
      vertex 42.4524 5.39851 4.5
      vertex 42.1783 5.36367 2.40177
    endloop
  endfacet
  facet normal 0.126106 -0.992017 -3.02437e-05
    outer loop
      vertex 43.6485 5.55062 0
      vertex 42.3142 5.38094 2.07055
      vertex 42.3365 5.38378 1.89956
    endloop
  endfacet
  facet normal 0.126157 -0.99201 5.58787e-06
    outer loop
      vertex 43.6485 5.55062 0
      vertex 42.3365 5.38378 1.89956
      vertex 42.5842 5.41527 0
    endloop
  endfacet
  facet normal 0.126149 -0.992011 -1.72236e-06
    outer loop
      vertex 42.3142 5.38094 2.07055
      vertex 43.6485 5.55062 0
      vertex 42.4524 5.39851 4.5
    endloop
  endfacet
  facet normal 0.102103 0.986262 0.129858
    outer loop
      vertex 8.95141 42.7666 2.32937
      vertex 9.76996e-15 44 0
      vertex 9.70187e-15 43.6933 2.32937
    endloop
  endfacet
  facet normal 0.102114 0.986266 0.129818
    outer loop
      vertex 8.95141 42.7666 2.32937
      vertex 9.01424 43.0667 0
      vertex 9.76996e-15 44 0
    endloop
  endfacet
  facet normal 0.095218 0.919682 0.380943
    outer loop
      vertex 8.76721 41.8865 4.5
      vertex 9.70187e-15 43.6933 2.32937
      vertex 9.50223e-15 42.7942 4.5
    endloop
  endfacet
  facet normal 0.0952097 0.919673 0.380969
    outer loop
      vertex 8.76721 41.8865 4.5
      vertex 8.95141 42.7666 2.32937
      vertex 9.70187e-15 43.6933 2.32937
    endloop
  endfacet
  facet normal 0.0818678 0.790704 0.6067
    outer loop
      vertex 8.47419 40.4866 6.36396
      vertex 9.50223e-15 42.7942 4.5
      vertex 9.18465e-15 41.364 6.36396
    endloop
  endfacet
  facet normal 0.0818636 0.790697 0.60671
    outer loop
      vertex 8.47419 40.4866 6.36396
      vertex 8.76721 41.8865 4.5
      vertex 9.50223e-15 42.7942 4.5
    endloop
  endfacet
  facet normal 0.0628996 0.607549 0.791788
    outer loop
      vertex 8.09233 38.6622 7.79423
      vertex 9.18465e-15 41.364 6.36396
      vertex 8.77076e-15 39.5 7.79423
    endloop
  endfacet
  facet normal 0.0629056 0.607561 0.791778
    outer loop
      vertex 8.09233 38.6622 7.79423
      vertex 8.47419 40.4866 6.36396
      vertex 9.18465e-15 41.364 6.36396
    endloop
  endfacet
  facet normal 0.0395905 0.382386 0.923154
    outer loop
      vertex 7.64763 36.5376 8.69333
      vertex 8.77076e-15 39.5 7.79423
      vertex 8.28879e-15 37.3294 8.69333
    endloop
  endfacet
  facet normal 0.0395879 0.38238 0.923157
    outer loop
      vertex 7.64763 36.5376 8.69333
      vertex 8.09233 38.6622 7.79423
      vertex 8.77076e-15 39.5 7.79423
    endloop
  endfacet
  facet normal 0.0135129 0.130514 0.991354
    outer loop
      vertex 7.17041 34.2576 9
      vertex 8.28879e-15 37.3294 8.69333
      vertex 7.77156e-15 35 9
    endloop
  endfacet
  facet normal 0.0135127 0.130513 0.991354
    outer loop
      vertex 7.17041 34.2576 9
      vertex 7.64763 36.5376 8.69333
      vertex 8.28879e-15 37.3294 8.69333
    endloop
  endfacet
  facet normal -0.0135112 -0.130514 0.991354
    outer loop
      vertex 6.6932 31.9777 8.69333
      vertex 7.77156e-15 35 9
      vertex 7.25434e-15 32.6706 8.69333
    endloop
  endfacet
  facet normal -0.0135135 -0.130519 0.991354
    outer loop
      vertex 6.6932 31.9777 8.69333
      vertex 7.17041 34.2576 9
      vertex 7.77156e-15 35 9
    endloop
  endfacet
  facet normal -0.039588 -0.382386 0.923154
    outer loop
      vertex 6.2485 29.8531 7.79423
      vertex 7.25434e-15 32.6706 8.69333
      vertex 6.77236e-15 30.5 7.79423
    endloop
  endfacet
  facet normal -0.0395852 -0.382381 0.923156
    outer loop
      vertex 6.2485 29.8531 7.79423
      vertex 6.6932 31.9777 8.69333
      vertex 7.25434e-15 32.6706 8.69333
    endloop
  endfacet
  facet normal -0.062892 -0.607549 0.791788
    outer loop
      vertex 5.86664 28.0287 6.36396
      vertex 6.77236e-15 30.5 7.79423
      vertex 6.35848e-15 28.636 6.36396
    endloop
  endfacet
  facet normal -0.0629002 -0.607562 0.791778
    outer loop
      vertex 5.86664 28.0287 6.36396
      vertex 6.2485 29.8531 7.79423
      vertex 6.77236e-15 30.5 7.79423
    endloop
  endfacet
  facet normal -0.0818705 -0.790704 0.6067
    outer loop
      vertex 5.57362 26.6287 4.5
      vertex 6.35848e-15 28.636 6.36396
      vertex 6.0409e-15 27.2058 4.5
    endloop
  endfacet
  facet normal -0.081849 -0.790678 0.606736
    outer loop
      vertex 5.57362 26.6287 4.5
      vertex 5.86664 28.0287 6.36396
      vertex 6.35848e-15 28.636 6.36396
    endloop
  endfacet
  facet normal -0.0952204 -0.919682 0.380943
    outer loop
      vertex 5.38942 25.7487 2.32937
      vertex 6.0409e-15 27.2058 4.5
      vertex 5.84125e-15 26.3067 2.32937
    endloop
  endfacet
  facet normal -0.0952255 -0.919686 0.380933
    outer loop
      vertex 5.38942 25.7487 2.32937
      vertex 5.57362 26.6287 4.5
      vertex 6.0409e-15 27.2058 4.5
    endloop
  endfacet
  facet normal -0.102115 -0.98626 0.129857
    outer loop
      vertex 5.32659 25.4485 0
      vertex 5.84125e-15 26.3067 2.32937
      vertex 5.77316e-15 26 0
    endloop
  endfacet
  facet normal -0.102114 -0.98626 0.12986
    outer loop
      vertex 5.32659 25.4485 0
      vertex 5.38942 25.7487 2.32937
      vertex 5.84125e-15 26.3067 2.32937
    endloop
  endfacet
  facet normal 0.302003 0.944426 0.129819
    outer loop
      vertex 17.5231 40.0256 2.32937
      vertex 9.01424 43.0667 0
      vertex 8.95141 42.7666 2.32937
    endloop
  endfacet
  facet normal 0.301998 0.944426 0.129836
    outer loop
      vertex 17.5231 40.0256 2.32937
      vertex 17.6461 40.3065 0
      vertex 9.01424 43.0667 0
    endloop
  endfacet
  facet normal 0.281602 0.880661 0.380968
    outer loop
      vertex 17.1625 39.202 4.5
      vertex 8.95141 42.7666 2.32937
      vertex 8.76721 41.8865 4.5
    endloop
  endfacet
  facet normal 0.281615 0.880671 0.380936
    outer loop
      vertex 17.1625 39.202 4.5
      vertex 17.5231 40.0256 2.32937
      vertex 8.95141 42.7666 2.32937
    endloop
  endfacet
  facet normal 0.242112 0.757155 0.606711
    outer loop
      vertex 16.5889 37.8918 6.36396
      vertex 8.76721 41.8865 4.5
      vertex 8.47419 40.4866 6.36396
    endloop
  endfacet
  facet normal 0.242109 0.757152 0.606716
    outer loop
      vertex 16.5889 37.8918 6.36396
      vertex 17.1625 39.202 4.5
      vertex 8.76721 41.8865 4.5
    endloop
  endfacet
  facet normal 0.186037 0.581789 0.791778
    outer loop
      vertex 15.8414 36.1843 7.79423
      vertex 8.47419 40.4866 6.36396
      vertex 8.09233 38.6622 7.79423
    endloop
  endfacet
  facet normal 0.186035 0.581786 0.791781
    outer loop
      vertex 15.8414 36.1843 7.79423
      vertex 16.5889 37.8918 6.36396
      vertex 8.47419 40.4866 6.36396
    endloop
  endfacet
  facet normal 0.117085 0.366159 0.923157
    outer loop
      vertex 14.9708 34.1959 8.69333
      vertex 8.09233 38.6622 7.79423
      vertex 7.64763 36.5376 8.69333
    endloop
  endfacet
  facet normal 0.117086 0.366161 0.923156
    outer loop
      vertex 14.9708 34.1959 8.69333
      vertex 15.8414 36.1843 7.79423
      vertex 8.09233 38.6622 7.79423
    endloop
  endfacet
  facet normal 0.0399633 0.124977 0.991354
    outer loop
      vertex 14.0367 32.062 9
      vertex 7.64763 36.5376 8.69333
      vertex 7.17041 34.2576 9
    endloop
  endfacet
  facet normal 0.0399634 0.124977 0.991354
    outer loop
      vertex 14.0367 32.062 9
      vertex 14.9708 34.1959 8.69333
      vertex 7.64763 36.5376 8.69333
    endloop
  endfacet
  facet normal -0.0399655 -0.124982 0.991354
    outer loop
      vertex 13.1025 29.9282 8.69333
      vertex 7.17041 34.2576 9
      vertex 6.6932 31.9777 8.69333
    endloop
  endfacet
  facet normal -0.0399645 -0.124981 0.991354
    outer loop
      vertex 13.1025 29.9282 8.69333
      vertex 14.0367 32.062 9
      vertex 7.17041 34.2576 9
    endloop
  endfacet
  facet normal -0.117086 -0.366159 0.923157
    outer loop
      vertex 12.2319 27.9398 7.79423
      vertex 6.6932 31.9777 8.69333
      vertex 6.2485 29.8531 7.79423
    endloop
  endfacet
  facet normal -0.117087 -0.366161 0.923156
    outer loop
      vertex 12.2319 27.9398 7.79423
      vertex 13.1025 29.9282 8.69333
      vertex 6.6932 31.9777 8.69333
    endloop
  endfacet
  facet normal -0.186039 -0.581788 0.791778
    outer loop
      vertex 11.4844 26.2323 6.36396
      vertex 6.2485 29.8531 7.79423
      vertex 5.86664 28.0287 6.36396
    endloop
  endfacet
  facet normal -0.186036 -0.581785 0.791781
    outer loop
      vertex 11.4844 26.2323 6.36396
      vertex 12.2319 27.9398 7.79423
      vertex 6.2485 29.8531 7.79423
    endloop
  endfacet
  facet normal -0.2421 -0.757138 0.606737
    outer loop
      vertex 10.9108 24.9221 4.5
      vertex 5.86664 28.0287 6.36396
      vertex 5.57362 26.6287 4.5
    endloop
  endfacet
  facet normal -0.242115 -0.75715 0.606716
    outer loop
      vertex 10.9108 24.9221 4.5
      vertex 11.4844 26.2323 6.36396
      vertex 5.86664 28.0287 6.36396
    endloop
  endfacet
  facet normal -0.281618 -0.880671 0.380933
    outer loop
      vertex 10.5502 24.0984 2.32937
      vertex 5.57362 26.6287 4.5
      vertex 5.38942 25.7487 2.32937
    endloop
  endfacet
  facet normal -0.281598 -0.880661 0.38097
    outer loop
      vertex 10.5502 24.0984 2.32937
      vertex 10.9108 24.9221 4.5
      vertex 5.57362 26.6287 4.5
    endloop
  endfacet
  facet normal -0.301994 -0.944424 0.129859
    outer loop
      vertex 10.4272 23.8175 0
      vertex 5.38942 25.7487 2.32937
      vertex 5.32659 25.4485 0
    endloop
  endfacet
  facet normal -0.302005 -0.944423 0.129836
    outer loop
      vertex 10.4272 23.8175 0
      vertex 10.5502 24.0984 2.32937
      vertex 5.38942 25.7487 2.32937
    endloop
  endfacet
  facet normal 0.489078 0.862522 0.129837
    outer loop
      vertex 25.3514 35.5867 2.32937
      vertex 17.6461 40.3065 0
      vertex 17.5231 40.0256 2.32937
    endloop
  endfacet
  facet normal 0.489069 0.862523 0.129869
    outer loop
      vertex 25.3514 35.5867 2.32937
      vertex 25.5294 35.8365 0
      vertex 17.6461 40.3065 0
    endloop
  endfacet
  facet normal 0.456066 0.804295 0.380938
    outer loop
      vertex 24.8297 34.8544 4.5
      vertex 17.5231 40.0256 2.32937
      vertex 17.1625 39.202 4.5
    endloop
  endfacet
  facet normal 0.456059 0.804291 0.380953
    outer loop
      vertex 24.8297 34.8544 4.5
      vertex 25.3514 35.5867 2.32937
      vertex 17.5231 40.0256 2.32937
    endloop
  endfacet
  facet normal 0.392098 0.691487 0.606716
    outer loop
      vertex 23.9999 33.6895 6.36396
      vertex 17.1625 39.202 4.5
      vertex 16.5889 37.8918 6.36396
    endloop
  endfacet
  facet normal 0.392102 0.69149 0.60671
    outer loop
      vertex 23.9999 33.6895 6.36396
      vertex 24.8297 34.8544 4.5
      vertex 17.1625 39.202 4.5
    endloop
  endfacet
  facet normal 0.301283 0.531332 0.79178
    outer loop
      vertex 22.9184 32.1714 7.79423
      vertex 16.5889 37.8918 6.36396
      vertex 15.8414 36.1843 7.79423
    endloop
  endfacet
  facet normal 0.301285 0.531333 0.791778
    outer loop
      vertex 22.9184 32.1714 7.79423
      vertex 23.9999 33.6895 6.36396
      vertex 16.5889 37.8918 6.36396
    endloop
  endfacet
  facet normal 0.189617 0.334405 0.923157
    outer loop
      vertex 21.659 30.4035 8.69333
      vertex 15.8414 36.1843 7.79423
      vertex 14.9708 34.1959 8.69333
    endloop
  endfacet
  facet normal 0.189621 0.334408 0.923155
    outer loop
      vertex 21.659 30.4035 8.69333
      vertex 22.9184 32.1714 7.79423
      vertex 15.8414 36.1843 7.79423
    endloop
  endfacet
  facet normal 0.0647211 0.11414 0.991354
    outer loop
      vertex 20.3074 28.5063 9
      vertex 14.9708 34.1959 8.69333
      vertex 14.0367 32.062 9
    endloop
  endfacet
  facet normal 0.0647198 0.114138 0.991355
    outer loop
      vertex 20.3074 28.5063 9
      vertex 21.659 30.4035 8.69333
      vertex 14.9708 34.1959 8.69333
    endloop
  endfacet
  facet normal -0.0647225 -0.114141 0.991354
    outer loop
      vertex 18.9559 26.6091 8.69333
      vertex 14.0367 32.062 9
      vertex 13.1025 29.9282 8.69333
    endloop
  endfacet
  facet normal -0.0647216 -0.114141 0.991354
    outer loop
      vertex 18.9559 26.6091 8.69333
      vertex 20.3074 28.5063 9
      vertex 14.0367 32.062 9
    endloop
  endfacet
  facet normal -0.189618 -0.334404 0.923157
    outer loop
      vertex 17.6965 24.8412 7.79423
      vertex 13.1025 29.9282 8.69333
      vertex 12.2319 27.9398 7.79423
    endloop
  endfacet
  facet normal -0.189622 -0.334408 0.923155
    outer loop
      vertex 17.6965 24.8412 7.79423
      vertex 18.9559 26.6091 8.69333
      vertex 13.1025 29.9282 8.69333
    endloop
  endfacet
  facet normal -0.301281 -0.531333 0.79178
    outer loop
      vertex 16.615 23.3231 6.36396
      vertex 12.2319 27.9398 7.79423
      vertex 11.4844 26.2323 6.36396
    endloop
  endfacet
  facet normal -0.301283 -0.531334 0.791778
    outer loop
      vertex 16.615 23.3231 6.36396
      vertex 17.6965 24.8412 7.79423
      vertex 12.2319 27.9398 7.79423
    endloop
  endfacet
  facet normal -0.392098 -0.691488 0.606716
    outer loop
      vertex 15.7851 22.1582 4.5
      vertex 11.4844 26.2323 6.36396
      vertex 10.9108 24.9221 4.5
    endloop
  endfacet
  facet normal -0.392092 -0.691485 0.606723
    outer loop
      vertex 15.7851 22.1582 4.5
      vertex 16.615 23.3231 6.36396
      vertex 11.4844 26.2323 6.36396
    endloop
  endfacet
  facet normal -0.456044 -0.804292 0.38097
    outer loop
      vertex 15.2635 21.4259 2.32937
      vertex 10.9108 24.9221 4.5
      vertex 10.5502 24.0984 2.32937
    endloop
  endfacet
  facet normal -0.456065 -0.804297 0.380935
    outer loop
      vertex 15.2635 21.4259 2.32937
      vertex 15.7851 22.1582 4.5
      vertex 10.9108 24.9221 4.5
    endloop
  endfacet
  facet normal -0.489077 -0.862523 0.129837
    outer loop
      vertex 15.0855 21.1761 0
      vertex 10.5502 24.0984 2.32937
      vertex 10.4272 23.8175 0
    endloop
  endfacet
  facet normal -0.489063 -0.862526 0.129869
    outer loop
      vertex 15.0855 21.1761 0
      vertex 15.2635 21.4259 2.32937
      vertex 10.5502 24.0984 2.32937
    endloop
  endfacet
  facet normal 0.655402 0.74403 0.129872
    outer loop
      vertex 32.1043 29.6382 2.32937
      vertex 25.5294 35.8365 0
      vertex 25.3514 35.5867 2.32937
    endloop
  endfacet
  facet normal 0.655414 0.744027 0.12983
    outer loop
      vertex 32.1043 29.6382 2.32937
      vertex 32.3296 29.8462 0
      vertex 25.5294 35.8365 0
    endloop
  endfacet
  facet normal 0.611154 0.693804 0.380955
    outer loop
      vertex 31.4437 29.0283 4.5
      vertex 25.3514 35.5867 2.32937
      vertex 24.8297 34.8544 4.5
    endloop
  endfacet
  facet normal 0.61116 0.693806 0.380942
    outer loop
      vertex 31.4437 29.0283 4.5
      vertex 32.1043 29.6382 2.32937
      vertex 25.3514 35.5867 2.32937
    endloop
  endfacet
  facet normal 0.525447 0.5965 0.606707
    outer loop
      vertex 30.3928 28.0581 6.36396
      vertex 24.8297 34.8544 4.5
      vertex 23.9999 33.6895 6.36396
    endloop
  endfacet
  facet normal 0.525437 0.596495 0.60672
    outer loop
      vertex 30.3928 28.0581 6.36396
      vertex 31.4437 29.0283 4.5
      vertex 24.8297 34.8544 4.5
    endloop
  endfacet
  facet normal 0.403749 0.458338 0.791779
    outer loop
      vertex 29.0232 26.7937 7.79423
      vertex 23.9999 33.6895 6.36396
      vertex 22.9184 32.1714 7.79423
    endloop
  endfacet
  facet normal 0.403736 0.458331 0.791789
    outer loop
      vertex 29.0232 26.7937 7.79423
      vertex 30.3928 28.0581 6.36396
      vertex 23.9999 33.6895 6.36396
    endloop
  endfacet
  facet normal 0.254108 0.288469 0.923155
    outer loop
      vertex 27.4283 25.3214 8.69333
      vertex 22.9184 32.1714 7.79423
      vertex 21.659 30.4035 8.69333
    endloop
  endfacet
  facet normal 0.254115 0.288473 0.923152
    outer loop
      vertex 27.4283 25.3214 8.69333
      vertex 29.0232 26.7937 7.79423
      vertex 22.9184 32.1714 7.79423
    endloop
  endfacet
  facet normal 0.0867294 0.0984584 0.991355
    outer loop
      vertex 25.7168 23.7413 9
      vertex 21.659 30.4035 8.69333
      vertex 20.3074 28.5063 9
    endloop
  endfacet
  facet normal 0.0867321 0.09846 0.991354
    outer loop
      vertex 25.7168 23.7413 9
      vertex 27.4283 25.3214 8.69333
      vertex 21.659 30.4035 8.69333
    endloop
  endfacet
  facet normal -0.0867331 -0.0984603 0.991354
    outer loop
      vertex 24.0052 22.1612 8.69333
      vertex 20.3074 28.5063 9
      vertex 18.9559 26.6091 8.69333
    endloop
  endfacet
  facet normal -0.086729 -0.0984579 0.991355
    outer loop
      vertex 24.0052 22.1612 8.69333
      vertex 25.7168 23.7413 9
      vertex 20.3074 28.5063 9
    endloop
  endfacet
  facet normal -0.254111 -0.288467 0.923155
    outer loop
      vertex 22.4103 20.6888 7.79423
      vertex 18.9559 26.6091 8.69333
      vertex 17.6965 24.8412 7.79423
    endloop
  endfacet
  facet normal -0.254107 -0.288465 0.923157
    outer loop
      vertex 22.4103 20.6888 7.79423
      vertex 24.0052 22.1612 8.69333
      vertex 18.9559 26.6091 8.69333
    endloop
  endfacet
  facet normal -0.403749 -0.458337 0.791779
    outer loop
      vertex 21.0407 19.4245 6.36396
      vertex 17.6965 24.8412 7.79423
      vertex 16.615 23.3231 6.36396
    endloop
  endfacet
  facet normal -0.403751 -0.458338 0.791777
    outer loop
      vertex 21.0407 19.4245 6.36396
      vertex 22.4103 20.6888 7.79423
      vertex 17.6965 24.8412 7.79423
    endloop
  endfacet
  facet normal -0.525442 -0.596486 0.606725
    outer loop
      vertex 19.9898 18.4543 4.5
      vertex 16.615 23.3231 6.36396
      vertex 15.7851 22.1582 4.5
    endloop
  endfacet
  facet normal -0.525446 -0.596487 0.606721
    outer loop
      vertex 19.9898 18.4543 4.5
      vertex 21.0407 19.4245 6.36396
      vertex 16.615 23.3231 6.36396
    endloop
  endfacet
  facet normal -0.611173 -0.693801 0.38093
    outer loop
      vertex 19.3292 17.8444 2.32937
      vertex 15.7851 22.1582 4.5
      vertex 15.2635 21.4259 2.32937
    endloop
  endfacet
  facet normal -0.611166 -0.693801 0.380942
    outer loop
      vertex 19.3292 17.8444 2.32937
      vertex 19.9898 18.4543 4.5
      vertex 15.7851 22.1582 4.5
    endloop
  endfacet
  facet normal -0.655399 -0.744033 0.129872
    outer loop
      vertex 19.1039 17.6364 0
      vertex 15.2635 21.4259 2.32937
      vertex 15.0855 21.1761 0
    endloop
  endfacet
  facet normal -0.655416 -0.744025 0.12983
    outer loop
      vertex 19.1039 17.6364 0
      vertex 19.3292 17.8444 2.32937
      vertex 15.2635 21.4259 2.32937
    endloop
  endfacet
  facet normal 0.793938 0.593975 0.12983
    outer loop
      vertex 37.4953 22.4323 2.32937
      vertex 32.3296 29.8462 0
      vertex 32.1043 29.6382 2.32937
    endloop
  endfacet
  facet normal 0.793928 0.59398 0.129869
    outer loop
      vertex 37.4953 22.4323 2.32937
      vertex 37.7585 22.5898 0
      vertex 32.3296 29.8462 0
    endloop
  endfacet
  facet normal 0.740344 0.553873 0.380939
    outer loop
      vertex 36.7237 21.9707 4.5
      vertex 32.1043 29.6382 2.32937
      vertex 31.4437 29.0283 4.5
    endloop
  endfacet
  facet normal 0.740337 0.553873 0.380955
    outer loop
      vertex 36.7237 21.9707 4.5
      vertex 37.4953 22.4323 2.32937
      vertex 32.1043 29.6382 2.32937
    endloop
  endfacet
  facet normal 0.6365 0.476193 0.606719
    outer loop
      vertex 35.4964 21.2364 6.36396
      vertex 31.4437 29.0283 4.5
      vertex 30.3928 28.0581 6.36396
    endloop
  endfacet
  facet normal 0.636515 0.476196 0.606701
    outer loop
      vertex 35.4964 21.2364 6.36396
      vertex 36.7237 21.9707 4.5
      vertex 31.4437 29.0283 4.5
    endloop
  endfacet
  facet normal 0.48907 0.365898 0.791789
    outer loop
      vertex 33.8968 20.2795 7.79423
      vertex 30.3928 28.0581 6.36396
      vertex 29.0232 26.7937 7.79423
    endloop
  endfacet
  facet normal 0.489079 0.365901 0.791782
    outer loop
      vertex 33.8968 20.2795 7.79423
      vertex 35.4964 21.2364 6.36396
      vertex 30.3928 28.0581 6.36396
    endloop
  endfacet
  facet normal 0.307821 0.230295 0.923153
    outer loop
      vertex 32.0341 19.1651 8.69333
      vertex 29.0232 26.7937 7.79423
      vertex 27.4283 25.3214 8.69333
    endloop
  endfacet
  facet normal 0.307816 0.230293 0.923154
    outer loop
      vertex 32.0341 19.1651 8.69333
      vertex 33.8968 20.2795 7.79423
      vertex 29.0232 26.7937 7.79423
    endloop
  endfacet
  facet normal 0.105065 0.0786026 0.991354
    outer loop
      vertex 30.0351 17.9692 9
      vertex 27.4283 25.3214 8.69333
      vertex 25.7168 23.7413 9
    endloop
  endfacet
  facet normal 0.105062 0.0786016 0.991355
    outer loop
      vertex 30.0351 17.9692 9
      vertex 32.0341 19.1651 8.69333
      vertex 27.4283 25.3214 8.69333
    endloop
  endfacet
  facet normal -0.105061 -0.0786006 0.991355
    outer loop
      vertex 28.0362 16.7732 8.69333
      vertex 25.7168 23.7413 9
      vertex 24.0052 22.1612 8.69333
    endloop
  endfacet
  facet normal -0.105063 -0.0786015 0.991354
    outer loop
      vertex 28.0362 16.7732 8.69333
      vertex 30.0351 17.9692 9
      vertex 25.7168 23.7413 9
    endloop
  endfacet
  facet normal -0.307813 -0.23029 0.923156
    outer loop
      vertex 26.1735 15.6588 7.79423
      vertex 24.0052 22.1612 8.69333
      vertex 22.4103 20.6888 7.79423
    endloop
  endfacet
  facet normal -0.307817 -0.230292 0.923155
    outer loop
      vertex 26.1735 15.6588 7.79423
      vertex 28.0362 16.7732 8.69333
      vertex 24.0052 22.1612 8.69333
    endloop
  endfacet
  facet normal -0.489081 -0.365904 0.791779
    outer loop
      vertex 24.5739 14.7019 6.36396
      vertex 22.4103 20.6888 7.79423
      vertex 21.0407 19.4245 6.36396
    endloop
  endfacet
  facet normal -0.489077 -0.365904 0.791781
    outer loop
      vertex 24.5739 14.7019 6.36396
      vertex 26.1735 15.6588 7.79423
      vertex 22.4103 20.6888 7.79423
    endloop
  endfacet
  facet normal -0.636499 -0.476194 0.606719
    outer loop
      vertex 23.3465 13.9676 4.5
      vertex 21.0407 19.4245 6.36396
      vertex 19.9898 18.4543 4.5
    endloop
  endfacet
  facet normal -0.636497 -0.476193 0.606722
    outer loop
      vertex 23.3465 13.9676 4.5
      vertex 24.5739 14.7019 6.36396
      vertex 21.0407 19.4245 6.36396
    endloop
  endfacet
  facet normal -0.740335 -0.553886 0.38094
    outer loop
      vertex 22.575 13.506 2.32937
      vertex 19.9898 18.4543 4.5
      vertex 19.3292 17.8444 2.32937
    endloop
  endfacet
  facet normal -0.740344 -0.553884 0.380925
    outer loop
      vertex 22.575 13.506 2.32937
      vertex 23.3465 13.9676 4.5
      vertex 19.9898 18.4543 4.5
    endloop
  endfacet
  facet normal -0.793942 -0.59397 0.129829
    outer loop
      vertex 22.3118 13.3485 0
      vertex 19.3292 17.8444 2.32937
      vertex 19.1039 17.6364 0
    endloop
  endfacet
  facet normal -0.793927 -0.593981 0.129869
    outer loop
      vertex 22.3118 13.3485 0
      vertex 22.575 13.506 2.32937
      vertex 19.3292 17.8444 2.32937
    endloop
  endfacet
  facet normal 0.898779 0.418726 0.129867
    outer loop
      vertex 41.2957 14.2749 2.32937
      vertex 37.7585 22.5898 0
      vertex 37.4953 22.4323 2.32937
    endloop
  endfacet
  facet normal 0.898787 0.41872 0.129831
    outer loop
      vertex 41.2957 14.2749 2.32937
      vertex 41.5855 14.3751 0
      vertex 37.7585 22.5898 0
    endloop
  endfacet
  facet normal 0.838101 0.39046 0.380956
    outer loop
      vertex 40.4459 13.9812 4.5
      vertex 37.4953 22.4323 2.32937
      vertex 36.7237 21.9707 4.5
    endloop
  endfacet
  facet normal 0.838105 0.390459 0.380949
    outer loop
      vertex 40.4459 13.9812 4.5
      vertex 41.2957 14.2749 2.32937
      vertex 37.4953 22.4323 2.32937
    endloop
  endfacet
  facet normal 0.720573 0.335695 0.606698
    outer loop
      vertex 39.0941 13.5139 6.36396
      vertex 36.7237 21.9707 4.5
      vertex 35.4964 21.2364 6.36396
    endloop
  endfacet
  facet normal 0.720551 0.335695 0.606725
    outer loop
      vertex 39.0941 13.5139 6.36396
      vertex 40.4459 13.9812 4.5
      vertex 36.7237 21.9707 4.5
    endloop
  endfacet
  facet normal 0.553664 0.257942 0.791784
    outer loop
      vertex 37.3325 12.9049 7.79423
      vertex 35.4964 21.2364 6.36396
      vertex 33.8968 20.2795 7.79423
    endloop
  endfacet
  facet normal 0.553679 0.257944 0.791773
    outer loop
      vertex 37.3325 12.9049 7.79423
      vertex 39.0941 13.5139 6.36396
      vertex 35.4964 21.2364 6.36396
    endloop
  endfacet
  facet normal 0.348467 0.162346 0.923155
    outer loop
      vertex 35.281 12.1958 8.69333
      vertex 33.8968 20.2795 7.79423
      vertex 32.0341 19.1651 8.69333
    endloop
  endfacet
  facet normal 0.348471 0.162346 0.923153
    outer loop
      vertex 35.281 12.1958 8.69333
      vertex 37.3325 12.9049 7.79423
      vertex 33.8968 20.2795 7.79423
    endloop
  endfacet
  facet normal 0.118936 0.0554102 0.991355
    outer loop
      vertex 33.0794 11.4347 9
      vertex 32.0341 19.1651 8.69333
      vertex 30.0351 17.9692 9
    endloop
  endfacet
  facet normal 0.118935 0.0554099 0.991355
    outer loop
      vertex 33.0794 11.4347 9
      vertex 35.281 12.1958 8.69333
      vertex 32.0341 19.1651 8.69333
    endloop
  endfacet
  facet normal -0.118938 -0.0554122 0.991354
    outer loop
      vertex 30.8779 10.6737 8.69333
      vertex 30.0351 17.9692 9
      vertex 28.0362 16.7732 8.69333
    endloop
  endfacet
  facet normal -0.118941 -0.0554126 0.991354
    outer loop
      vertex 30.8779 10.6737 8.69333
      vertex 33.0794 11.4347 9
      vertex 30.0351 17.9692 9
    endloop
  endfacet
  facet normal -0.348469 -0.162343 0.923154
    outer loop
      vertex 28.8263 9.96457 7.79423
      vertex 28.0362 16.7732 8.69333
      vertex 26.1735 15.6588 7.79423
    endloop
  endfacet
  facet normal -0.348455 -0.162342 0.92316
    outer loop
      vertex 28.8263 9.96457 7.79423
      vertex 30.8779 10.6737 8.69333
      vertex 28.0362 16.7732 8.69333
    endloop
  endfacet
  facet normal -0.553661 -0.257947 0.791785
    outer loop
      vertex 27.0647 9.3556 6.36396
      vertex 26.1735 15.6588 7.79423
      vertex 24.5739 14.7019 6.36396
    endloop
  endfacet
  facet normal -0.553681 -0.257946 0.791771
    outer loop
      vertex 27.0647 9.3556 6.36396
      vertex 28.8263 9.96457 7.79423
      vertex 26.1735 15.6588 7.79423
    endloop
  endfacet
  facet normal -0.72055 -0.335699 0.606723
    outer loop
      vertex 25.7129 8.88832 4.5
      vertex 24.5739 14.7019 6.36396
      vertex 23.3465 13.9676 4.5
    endloop
  endfacet
  facet normal -0.720551 -0.335699 0.606722
    outer loop
      vertex 25.7129 8.88832 4.5
      vertex 27.0647 9.3556 6.36396
      vertex 24.5739 14.7019 6.36396
    endloop
  endfacet
  facet normal -0.838118 -0.390456 0.380923
    outer loop
      vertex 24.8631 8.59457 2.32937
      vertex 23.3465 13.9676 4.5
      vertex 22.575 13.506 2.32937
    endloop
  endfacet
  facet normal -0.838099 -0.390464 0.380956
    outer loop
      vertex 24.8631 8.59457 2.32937
      vertex 25.7129 8.88832 4.5
      vertex 23.3465 13.9676 4.5
    endloop
  endfacet
  facet normal -0.898775 -0.418733 0.129867
    outer loop
      vertex 24.5733 8.49438 0
      vertex 22.575 13.506 2.32937
      vertex 22.3118 13.3485 0
    endloop
  endfacet
  facet normal -0.898787 -0.41872 0.129829
    outer loop
      vertex 24.5733 8.49438 0
      vertex 24.8631 8.59457 2.32937
      vertex 22.575 13.506 2.32937
    endloop
  endfacet
  facet normal 0.965504 0.225715 0.129829
    outer loop
      vertex 43.3443 5.51194 2.32937
      vertex 41.5855 14.3751 0
      vertex 41.2957 14.2749 2.32937
    endloop
  endfacet
  facet normal 0.965502 0.225717 0.129836
    outer loop
      vertex 43.3443 5.51194 2.32937
      vertex 43.6485 5.55062 0
      vertex 41.5855 14.3751 0
    endloop
  endfacet
  facet normal 0.900318 0.21048 0.380953
    outer loop
      vertex 42.4524 5.39851 4.5
      vertex 41.2957 14.2749 2.32937
      vertex 40.4459 13.9812 4.5
    endloop
  endfacet
  facet normal 0.900325 0.210478 0.380938
    outer loop
      vertex 42.4524 5.39851 4.5
      vertex 43.3443 5.51194 2.32937
      vertex 41.2957 14.2749 2.32937
    endloop
  endfacet
  facet normal 0.774042 0.180956 0.606724
    outer loop
      vertex 41.0335 5.21808 6.36396
      vertex 40.4459 13.9812 4.5
      vertex 39.0941 13.5139 6.36396
    endloop
  endfacet
  facet normal 0.774034 0.180957 0.606734
    outer loop
      vertex 41.0335 5.21808 6.36396
      vertex 42.4524 5.39851 4.5
      vertex 40.4459 13.9812 4.5
    endloop
  endfacet
  facet normal 0.594783 0.139041 0.791771
    outer loop
      vertex 39.1844 4.98294 7.79423
      vertex 39.0941 13.5139 6.36396
      vertex 37.3325 12.9049 7.79423
    endloop
  endfacet
  facet normal 0.594762 0.139044 0.791786
    outer loop
      vertex 39.1844 4.98294 7.79423
      vertex 41.0335 5.21808 6.36396
      vertex 39.0941 13.5139 6.36396
    endloop
  endfacet
  facet normal 0.374338 0.0875109 0.923154
    outer loop
      vertex 37.0312 4.70912 8.69333
      vertex 37.3325 12.9049 7.79423
      vertex 35.281 12.1958 8.69333
    endloop
  endfacet
  facet normal 0.374346 0.0875102 0.92315
    outer loop
      vertex 39.1844 4.98294 7.79423
      vertex 37.3325 12.9049 7.79423
      vertex 37.0312 4.70912 8.69333
    endloop
  endfacet
  facet normal 0.127764 0.0298687 0.991355
    outer loop
      vertex 34.7204 4.41527 9
      vertex 35.281 12.1958 8.69333
      vertex 33.0794 11.4347 9
    endloop
  endfacet
  facet normal 0.127766 0.0298685 0.991354
    outer loop
      vertex 37.0312 4.70912 8.69333
      vertex 35.281 12.1958 8.69333
      vertex 34.7204 4.41527 9
    endloop
  endfacet
  facet normal -0.127771 -0.0298686 0.991354
    outer loop
      vertex 32.4096 4.12142 8.69333
      vertex 33.0794 11.4347 9
      vertex 30.8779 10.6737 8.69333
    endloop
  endfacet
  facet normal -0.127766 -0.0298691 0.991354
    outer loop
      vertex 34.7204 4.41527 9
      vertex 33.0794 11.4347 9
      vertex 32.4096 4.12142 8.69333
    endloop
  endfacet
  facet normal -0.374322 -0.0875074 0.923161
    outer loop
      vertex 30.2563 3.84759 7.79423
      vertex 30.8779 10.6737 8.69333
      vertex 28.8263 9.96457 7.79423
    endloop
  endfacet
  facet normal -0.374332 -0.087506 0.923157
    outer loop
      vertex 32.4096 4.12142 8.69333
      vertex 30.8779 10.6737 8.69333
      vertex 30.2563 3.84759 7.79423
    endloop
  endfacet
  facet normal -0.594783 -0.139045 0.79177
    outer loop
      vertex 28.4073 3.61245 6.36396
      vertex 28.8263 9.96457 7.79423
      vertex 27.0647 9.3556 6.36396
    endloop
  endfacet
  facet normal -0.594782 -0.139045 0.791771
    outer loop
      vertex 30.2563 3.84759 7.79423
      vertex 28.8263 9.96457 7.79423
      vertex 28.4073 3.61245 6.36396
    endloop
  endfacet
  facet normal -0.774045 -0.180946 0.606723
    outer loop
      vertex 26.9884 3.43202 4.5
      vertex 27.0647 9.3556 6.36396
      vertex 25.7129 8.88832 4.5
    endloop
  endfacet
  facet normal -0.774036 -0.18095 0.606734
    outer loop
      vertex 28.4073 3.61245 6.36396
      vertex 27.0647 9.3556 6.36396
      vertex 26.9884 3.43202 4.5
    endloop
  endfacet
  facet normal -0.900318 -0.210474 0.380957
    outer loop
      vertex 26.0965 3.3186 2.32937
      vertex 25.7129 8.88832 4.5
      vertex 24.8631 8.59457 2.32937
    endloop
  endfacet
  facet normal -0.900328 -0.210467 0.380937
    outer loop
      vertex 26.0965 3.3186 2.32937
      vertex 26.9884 3.43202 4.5
      vertex 25.7129 8.88832 4.5
    endloop
  endfacet
  facet normal -0.965505 -0.225709 0.129828
    outer loop
      vertex 25.7923 3.27991 0
      vertex 24.8631 8.59457 2.32937
      vertex 24.5733 8.49438 0
    endloop
  endfacet
  facet normal -0.965503 -0.225712 0.129837
    outer loop
      vertex 25.7923 3.27991 0
      vertex 26.0965 3.3186 2.32937
      vertex 24.8631 8.59457 2.32937
    endloop
  endfacet
  facet normal -0.0873517 -0.987683 -0.129814
    outer loop
      vertex 8.23148 41.927 2.07055
      vertex 9.4713e-15 42.655 2.07055
      vertex 9.52668e-15 42.9044 0.172997
    endloop
  endfacet
  facet normal -0.0873488 -0.987711 -0.129604
    outer loop
      vertex 8.284 42.1945 0
      vertex 9.52668e-15 42.9044 0.172997
      vertex 9.53173e-15 42.9271 0
    endloop
  endfacet
  facet normal -0.0873508 -0.987683 -0.129817
    outer loop
      vertex 9.52668e-15 42.9044 0.172997
      vertex 8.284 42.1945 0
      vertex 8.23148 41.927 2.07055
    endloop
  endfacet
  facet normal -0.0814483 -0.921042 -0.380852
    outer loop
      vertex 8.07752 41.1428 4
      vertex 9.29415e-15 41.8571 4
      vertex 9.45633e-15 42.5875 2.23362
    endloop
  endfacet
  facet normal -0.0814454 -0.920902 -0.381191
    outer loop
      vertex 8.23148 41.927 2.07055
      vertex 9.45633e-15 42.5875 2.23362
      vertex 9.4713e-15 42.655 2.07055
    endloop
  endfacet
  facet normal -0.08145 -0.921044 -0.380846
    outer loop
      vertex 9.45633e-15 42.5875 2.23362
      vertex 8.23148 41.927 2.07055
      vertex 8.07752 41.1428 4
    endloop
  endfacet
  facet normal -0.0700334 -0.79189 -0.606634
    outer loop
      vertex 7.83259 39.8952 5.65685
      vertex 9.01233e-15 40.5879 5.65685
      vertex 9.27007e-15 41.7487 4.14156
    endloop
  endfacet
  facet normal -0.0700376 -0.792007 -0.606482
    outer loop
      vertex 8.07752 41.1428 4
      vertex 9.27007e-15 41.7487 4.14156
      vertex 9.29415e-15 41.8571 4
    endloop
  endfacet
  facet normal -0.0700314 -0.791887 -0.606639
    outer loop
      vertex 9.27007e-15 41.7487 4.14156
      vertex 8.07752 41.1428 4
      vertex 7.83259 39.8952 5.65685
    endloop
  endfacet
  facet normal -0.0538197 -0.608531 -0.791703
    outer loop
      vertex 7.5134 38.2694 6.9282
      vertex 8.64506e-15 38.9339 6.9282
      vertex 8.98064e-15 40.4452 5.76656
    endloop
  endfacet
  facet normal -0.05382 -0.608532 -0.791702
    outer loop
      vertex 8.98064e-15 40.4452 5.76656
      vertex 7.83259 39.8952 5.65685
      vertex 7.5134 38.2694 6.9282
    endloop
  endfacet
  facet normal -0.0538253 -0.60862 -0.791634
    outer loop
      vertex 7.83259 39.8952 5.65685
      vertex 8.98064e-15 40.4452 5.76656
      vertex 9.01233e-15 40.5879 5.65685
    endloop
  endfacet
  facet normal -0.0338734 -0.383017 -0.92312
    outer loop
      vertex 7.14169 36.3761 7.72741
      vertex 8.21736e-15 37.0077 7.72741
      vertex 8.60784e-15 38.7663 6.99774
    endloop
  endfacet
  facet normal -0.033875 -0.383021 -0.923118
    outer loop
      vertex 8.60784e-15 38.7663 6.99774
      vertex 7.5134 38.2694 6.9282
      vertex 7.14169 36.3761 7.72741
    endloop
  endfacet
  facet normal -0.0338748 -0.383018 -0.92312
    outer loop
      vertex 7.5134 38.2694 6.9282
      vertex 8.60784e-15 38.7663 6.99774
      vertex 8.64506e-15 38.9339 6.9282
    endloop
  endfacet
  facet normal -0.0115621 -0.130741 -0.991349
    outer loop
      vertex 6.74279 34.3444 8
      vertex 7.75838e-15 34.9407 8
      vertex 8.17718e-15 36.8267 7.75127
    endloop
  endfacet
  facet normal -0.0115609 -0.130738 -0.99135
    outer loop
      vertex 8.17718e-15 36.8267 7.75127
      vertex 7.14169 36.3761 7.72741
      vertex 6.74279 34.3444 8
    endloop
  endfacet
  facet normal -0.0115575 -0.130684 -0.991357
    outer loop
      vertex 7.14169 36.3761 7.72741
      vertex 8.17718e-15 36.8267 7.75127
      vertex 8.21736e-15 37.0077 7.72741
    endloop
  endfacet
  facet normal 0.011561 0.130734 -0.99135
    outer loop
      vertex 6.3439 32.3126 7.72741
      vertex 7.29941e-15 32.8736 7.72741
      vertex 7.71807e-15 34.7591 7.97606
    endloop
  endfacet
  facet normal 0.0115601 0.130732 -0.99135
    outer loop
      vertex 7.71807e-15 34.7591 7.97606
      vertex 6.74279 34.3444 8
      vertex 6.3439 32.3126 7.72741
    endloop
  endfacet
  facet normal 0.0115575 0.130689 -0.991356
    outer loop
      vertex 6.74279 34.3444 8
      vertex 7.71807e-15 34.7591 7.97606
      vertex 7.75838e-15 34.9407 8
    endloop
  endfacet
  facet normal 0.0338689 0.383018 -0.92312
    outer loop
      vertex 5.97219 30.4193 6.9282
      vertex 6.87171e-15 30.9474 6.9282
      vertex 7.26187e-15 32.7045 7.65725
    endloop
  endfacet
  facet normal 0.0338707 0.383022 -0.923118
    outer loop
      vertex 7.26187e-15 32.7045 7.65725
      vertex 6.3439 32.3126 7.72741
      vertex 5.97219 30.4193 6.9282
    endloop
  endfacet
  facet normal 0.0338698 0.383007 -0.923124
    outer loop
      vertex 6.3439 32.3126 7.72741
      vertex 7.26187e-15 32.7045 7.65725
      vertex 7.29941e-15 32.8736 7.72741
    endloop
  endfacet
  facet normal 0.0538121 0.608521 -0.791711
    outer loop
      vertex 5.65299 28.7935 5.65685
      vertex 6.50444e-15 29.2934 5.65685
      vertex 6.83963e-15 30.803 6.81715
    endloop
  endfacet
  facet normal 0.0538182 0.608532 -0.791702
    outer loop
      vertex 6.83963e-15 30.803 6.81715
      vertex 5.97219 30.4193 6.9282
      vertex 5.65299 28.7935 5.65685
    endloop
  endfacet
  facet normal 0.0538282 0.608734 -0.791546
    outer loop
      vertex 5.97219 30.4193 6.9282
      vertex 6.83963e-15 30.803 6.81715
      vertex 6.87171e-15 30.9474 6.9282
    endloop
  endfacet
  facet normal 0.0700376 0.791903 -0.606617
    outer loop
      vertex 5.40806 27.5459 4
      vertex 6.22262e-15 28.0242 4
      vertex 6.48006e-15 29.1836 5.51353
    endloop
  endfacet
  facet normal 0.0700257 0.791868 -0.606664
    outer loop
      vertex 5.65299 28.7935 5.65685
      vertex 6.48006e-15 29.1836 5.51353
      vertex 6.50444e-15 29.2934 5.65685
    endloop
  endfacet
  facet normal 0.0700264 0.791887 -0.606639
    outer loop
      vertex 6.48006e-15 29.1836 5.51353
      vertex 5.65299 28.7935 5.65685
      vertex 5.40806 27.5459 4
    endloop
  endfacet
  facet normal 0.0814613 0.921037 -0.38086
    outer loop
      vertex 5.2541 26.7617 2.07055
      vertex 6.04546e-15 27.2264 2.07055
      vertex 6.20751e-15 27.9562 3.83543
    endloop
  endfacet
  facet normal 0.0814674 0.921139 -0.380613
    outer loop
      vertex 5.40806 27.5459 4
      vertex 6.20751e-15 27.9562 3.83543
      vertex 6.22262e-15 28.0242 4
    endloop
  endfacet
  facet normal 0.0814672 0.921042 -0.380846
    outer loop
      vertex 6.20751e-15 27.9562 3.83543
      vertex 5.40806 27.5459 4
      vertex 5.2541 26.7617 2.07055
    endloop
  endfacet
  facet normal 0.0873456 0.987685 -0.129802
    outer loop
      vertex 5.20158 26.4942 0
      vertex 5.98504e-15 26.9542 0
      vertex 6.0404e-15 27.2035 1.89697
    endloop
  endfacet
  facet normal 0.0873503 0.98762 -0.130294
    outer loop
      vertex 5.2541 26.7617 2.07055
      vertex 6.0404e-15 27.2035 1.89697
      vertex 6.04546e-15 27.2264 2.07055
    endloop
  endfacet
  facet normal 0.0873399 0.987684 -0.129817
    outer loop
      vertex 6.0404e-15 27.2035 1.89697
      vertex 5.2541 26.7617 2.07055
      vertex 5.20158 26.4942 0
    endloop
  endfacet
  facet normal -0.292568 -0.947392 -0.129817
    outer loop
      vertex 16.8425 39.2678 2.07055
      vertex 8.23148 41.927 2.07055
      vertex 8.284 42.1945 0
    endloop
  endfacet
  facet normal -0.292562 -0.947391 -0.129839
    outer loop
      vertex 16.8425 39.2678 2.07055
      vertex 8.284 42.1945 0
      vertex 16.9499 39.5184 0
    endloop
  endfacet
  facet normal -0.272834 -0.88347 -0.380845
    outer loop
      vertex 16.5274 38.5333 4
      vertex 8.07752 41.1428 4
      vertex 8.23148 41.927 2.07055
    endloop
  endfacet
  facet normal -0.272825 -0.883462 -0.38087
    outer loop
      vertex 16.5274 38.5333 4
      vertex 8.23148 41.927 2.07055
      vertex 16.8425 39.2678 2.07055
    endloop
  endfacet
  facet normal -0.234567 -0.759584 -0.606639
    outer loop
      vertex 16.0263 37.3649 5.65685
      vertex 7.83259 39.8952 5.65685
      vertex 8.07752 41.1428 4
    endloop
  endfacet
  facet normal -0.234581 -0.759601 -0.606612
    outer loop
      vertex 16.0263 37.3649 5.65685
      vertex 8.07752 41.1428 4
      vertex 16.5274 38.5333 4
    endloop
  endfacet
  facet normal -0.180256 -0.583709 -0.791702
    outer loop
      vertex 15.3732 35.8422 6.9282
      vertex 7.5134 38.2694 6.9282
      vertex 7.83259 39.8952 5.65685
    endloop
  endfacet
  facet normal -0.180254 -0.583706 -0.791704
    outer loop
      vertex 15.3732 35.8422 6.9282
      vertex 7.83259 39.8952 5.65685
      vertex 16.0263 37.3649 5.65685
    endloop
  endfacet
  facet normal -0.113456 -0.367397 -0.923118
    outer loop
      vertex 14.6126 34.069 7.72741
      vertex 7.14169 36.3761 7.72741
      vertex 7.5134 38.2694 6.9282
    endloop
  endfacet
  facet normal -0.113457 -0.367398 -0.923118
    outer loop
      vertex 14.6126 34.069 7.72741
      vertex 7.5134 38.2694 6.9282
      vertex 15.3732 35.8422 6.9282
    endloop
  endfacet
  facet normal -0.0387274 -0.125404 -0.99135
    outer loop
      vertex 13.7964 32.1661 8
      vertex 6.74279 34.3444 8
      vertex 7.14169 36.3761 7.72741
    endloop
  endfacet
  facet normal -0.0387251 -0.125401 -0.99135
    outer loop
      vertex 13.7964 32.1661 8
      vertex 7.14169 36.3761 7.72741
      vertex 14.6126 34.069 7.72741
    endloop
  endfacet
  facet normal 0.0387247 0.125399 -0.99135
    outer loop
      vertex 12.9803 30.2632 7.72741
      vertex 6.3439 32.3126 7.72741
      vertex 6.74279 34.3444 8
    endloop
  endfacet
  facet normal 0.0387267 0.125402 -0.99135
    outer loop
      vertex 12.9803 30.2632 7.72741
      vertex 6.74279 34.3444 8
      vertex 13.7964 32.1661 8
    endloop
  endfacet
  facet normal 0.113456 0.367397 -0.923118
    outer loop
      vertex 12.2197 28.49 6.9282
      vertex 5.97219 30.4193 6.9282
      vertex 6.3439 32.3126 7.72741
    endloop
  endfacet
  facet normal 0.113457 0.367398 -0.923118
    outer loop
      vertex 12.2197 28.49 6.9282
      vertex 6.3439 32.3126 7.72741
      vertex 12.9803 30.2632 7.72741
    endloop
  endfacet
  facet normal 0.180257 0.583708 -0.791702
    outer loop
      vertex 11.5666 26.9673 5.65685
      vertex 5.65299 28.7935 5.65685
      vertex 5.97219 30.4193 6.9282
    endloop
  endfacet
  facet normal 0.180255 0.583706 -0.791704
    outer loop
      vertex 11.5666 26.9673 5.65685
      vertex 5.97219 30.4193 6.9282
      vertex 12.2197 28.49 6.9282
    endloop
  endfacet
  facet normal 0.234558 0.759586 -0.606639
    outer loop
      vertex 11.0655 25.7989 4
      vertex 5.40806 27.5459 4
      vertex 5.65299 28.7935 5.65685
    endloop
  endfacet
  facet normal 0.234575 0.759603 -0.606612
    outer loop
      vertex 11.0655 25.7989 4
      vertex 5.65299 28.7935 5.65685
      vertex 11.5666 26.9673 5.65685
    endloop
  endfacet
  facet normal 0.272823 0.883473 -0.380846
    outer loop
      vertex 10.7504 25.0644 2.07055
      vertex 5.2541 26.7617 2.07055
      vertex 5.40806 27.5459 4
    endloop
  endfacet
  facet normal 0.272812 0.883466 -0.38087
    outer loop
      vertex 10.7504 25.0644 2.07055
      vertex 5.40806 27.5459 4
      vertex 11.0655 25.7989 4
    endloop
  endfacet
  facet normal 0.292554 0.947396 -0.129817
    outer loop
      vertex 10.643 24.8139 0
      vertex 5.20158 26.4942 0
      vertex 5.2541 26.7617 2.07055
    endloop
  endfacet
  facet normal 0.292563 0.947397 -0.129794
    outer loop
      vertex 10.643 24.8139 0
      vertex 5.2541 26.7617 2.07055
      vertex 10.7504 25.0644 2.07055
    endloop
  endfacet
  facet normal -0.48477 -0.864952 -0.129831
    outer loop
      vertex 24.7041 34.8617 2.07055
      vertex 16.8425 39.2678 2.07055
      vertex 16.9499 39.5184 0
    endloop
  endfacet
  facet normal -0.484777 -0.864952 -0.129804
    outer loop
      vertex 24.7041 34.8617 2.07055
      vertex 16.9499 39.5184 0
      vertex 24.8617 35.0841 0
    endloop
  endfacet
  facet normal -0.452056 -0.806585 -0.380875
    outer loop
      vertex 24.242 34.2096 4
      vertex 16.5274 38.5333 4
      vertex 16.8425 39.2678 2.07055
    endloop
  endfacet
  facet normal -0.452058 -0.806586 -0.380871
    outer loop
      vertex 24.242 34.2096 4
      vertex 16.8425 39.2678 2.07055
      vertex 24.7041 34.8617 2.07055
    endloop
  endfacet
  facet normal -0.38868 -0.693507 -0.60661
    outer loop
      vertex 23.507 33.1723 5.65685
      vertex 16.0263 37.3649 5.65685
      vertex 16.5274 38.5333 4
    endloop
  endfacet
  facet normal -0.388682 -0.693509 -0.606607
    outer loop
      vertex 23.507 33.1723 5.65685
      vertex 16.5274 38.5333 4
      vertex 24.242 34.2096 4
    endloop
  endfacet
  facet normal -0.298674 -0.532915 -0.791704
    outer loop
      vertex 22.549 31.8205 6.9282
      vertex 15.3732 35.8422 6.9282
      vertex 16.0263 37.3649 5.65685
    endloop
  endfacet
  facet normal -0.298677 -0.532917 -0.791702
    outer loop
      vertex 22.549 31.8205 6.9282
      vertex 16.0263 37.3649 5.65685
      vertex 23.507 33.1723 5.65685
    endloop
  endfacet
  facet normal -0.187991 -0.335427 -0.923119
    outer loop
      vertex 21.4335 30.2462 7.72741
      vertex 14.6126 34.069 7.72741
      vertex 15.3732 35.8422 6.9282
    endloop
  endfacet
  facet normal -0.187991 -0.335427 -0.923119
    outer loop
      vertex 21.4335 30.2462 7.72741
      vertex 15.3732 35.8422 6.9282
      vertex 22.549 31.8205 6.9282
    endloop
  endfacet
  facet normal -0.064166 -0.114488 -0.99135
    outer loop
      vertex 20.2363 28.5568 8
      vertex 13.7964 32.1661 8
      vertex 14.6126 34.069 7.72741
    endloop
  endfacet
  facet normal -0.0641647 -0.114487 -0.99135
    outer loop
      vertex 20.2363 28.5568 8
      vertex 14.6126 34.069 7.72741
      vertex 21.4335 30.2462 7.72741
    endloop
  endfacet
  facet normal 0.0641689 0.11449 -0.99135
    outer loop
      vertex 19.0391 26.8674 7.72741
      vertex 12.9803 30.2632 7.72741
      vertex 13.7964 32.1661 8
    endloop
  endfacet
  facet normal 0.0641651 0.114487 -0.99135
    outer loop
      vertex 19.0391 26.8674 7.72741
      vertex 13.7964 32.1661 8
      vertex 20.2363 28.5568 8
    endloop
  endfacet
  facet normal 0.187993 0.335427 -0.923119
    outer loop
      vertex 17.9236 25.2932 6.9282
      vertex 12.2197 28.49 6.9282
      vertex 12.9803 30.2632 7.72741
    endloop
  endfacet
  facet normal 0.188003 0.335436 -0.923113
    outer loop
      vertex 17.9236 25.2932 6.9282
      vertex 12.9803 30.2632 7.72741
      vertex 19.0391 26.8674 7.72741
    endloop
  endfacet
  facet normal 0.298683 0.532911 -0.791704
    outer loop
      vertex 16.9656 23.9413 5.65685
      vertex 11.5666 26.9673 5.65685
      vertex 12.2197 28.49 6.9282
    endloop
  endfacet
  facet normal 0.298668 0.532899 -0.791717
    outer loop
      vertex 16.9656 23.9413 5.65685
      vertex 12.2197 28.49 6.9282
      vertex 17.9236 25.2932 6.9282
    endloop
  endfacet
  facet normal 0.38869 0.693502 -0.606609
    outer loop
      vertex 16.2306 22.904 4
      vertex 11.0655 25.7989 4
      vertex 11.5666 26.9673 5.65685
    endloop
  endfacet
  facet normal 0.388691 0.693503 -0.606608
    outer loop
      vertex 16.2306 22.904 4
      vertex 11.5666 26.9673 5.65685
      vertex 16.9656 23.9413 5.65685
    endloop
  endfacet
  facet normal 0.452053 0.806587 -0.380875
    outer loop
      vertex 15.7685 22.252 2.07055
      vertex 10.7504 25.0644 2.07055
      vertex 11.0655 25.7989 4
    endloop
  endfacet
  facet normal 0.452074 0.806594 -0.380835
    outer loop
      vertex 15.7685 22.252 2.07055
      vertex 11.0655 25.7989 4
      vertex 16.2306 22.904 4
    endloop
  endfacet
  facet normal 0.484772 0.864957 -0.12979
    outer loop
      vertex 15.6109 22.0296 0
      vertex 10.643 24.8139 0
      vertex 10.7504 25.0644 2.07055
    endloop
  endfacet
  facet normal 0.484767 0.864958 -0.129804
    outer loop
      vertex 15.6109 22.0296 0
      vertex 10.7504 25.0644 2.07055
      vertex 15.7685 22.252 2.07055
    endloop
  endfacet
  facet normal -0.655411 -0.744034 -0.129804
    outer loop
      vertex 31.4667 28.9046 2.07055
      vertex 24.7041 34.8617 2.07055
      vertex 24.8617 35.0841 0
    endloop
  endfacet
  facet normal -0.655406 -0.744035 -0.129823
    outer loop
      vertex 31.4667 28.9046 2.07055
      vertex 24.8617 35.0841 0
      vertex 31.6675 29.089 0
    endloop
  endfacet
  facet normal -0.611179 -0.693828 -0.380871
    outer loop
      vertex 30.8782 28.3639 4
      vertex 24.242 34.2096 4
      vertex 24.7041 34.8617 2.07055
    endloop
  endfacet
  facet normal -0.611187 -0.69383 -0.380854
    outer loop
      vertex 30.8782 28.3639 4
      vertex 24.7041 34.8617 2.07055
      vertex 31.4667 28.9046 2.07055
    endloop
  endfacet
  facet normal -0.525499 -0.596559 -0.606604
    outer loop
      vertex 29.9419 27.5039 5.65685
      vertex 23.507 33.1723 5.65685
      vertex 24.242 34.2096 4
    endloop
  endfacet
  facet normal -0.525495 -0.596557 -0.606609
    outer loop
      vertex 29.9419 27.5039 5.65685
      vertex 24.242 34.2096 4
      vertex 30.8782 28.3639 4
    endloop
  endfacet
  facet normal -0.403812 -0.458411 -0.791704
    outer loop
      vertex 28.7217 26.383 6.9282
      vertex 22.549 31.8205 6.9282
      vertex 23.507 33.1723 5.65685
    endloop
  endfacet
  facet normal -0.403801 -0.458405 -0.791713
    outer loop
      vertex 28.7217 26.383 6.9282
      vertex 23.507 33.1723 5.65685
      vertex 29.9419 27.5039 5.65685
    endloop
  endfacet
  facet normal -0.254169 -0.288534 -0.923118
    outer loop
      vertex 27.3007 25.0778 7.72741
      vertex 21.4335 30.2462 7.72741
      vertex 22.549 31.8205 6.9282
    endloop
  endfacet
  facet normal -0.254167 -0.288533 -0.923118
    outer loop
      vertex 27.3007 25.0778 7.72741
      vertex 22.549 31.8205 6.9282
      vertex 28.7217 26.383 6.9282
    endloop
  endfacet
  facet normal -0.0867501 -0.0984817 -0.99135
    outer loop
      vertex 25.7759 23.6771 8
      vertex 20.2363 28.5568 8
      vertex 21.4335 30.2462 7.72741
    endloop
  endfacet
  facet normal -0.0867551 -0.0984849 -0.99135
    outer loop
      vertex 25.7759 23.6771 8
      vertex 21.4335 30.2462 7.72741
      vertex 27.3007 25.0778 7.72741
    endloop
  endfacet
  facet normal 0.0867497 0.098482 -0.99135
    outer loop
      vertex 24.251 22.2764 7.72741
      vertex 19.0391 26.8674 7.72741
      vertex 20.2363 28.5568 8
    endloop
  endfacet
  facet normal 0.0867513 0.098483 -0.99135
    outer loop
      vertex 24.251 22.2764 7.72741
      vertex 20.2363 28.5568 8
      vertex 25.7759 23.6771 8
    endloop
  endfacet
  facet normal 0.254177 0.288544 -0.923112
    outer loop
      vertex 22.8301 20.9711 6.9282
      vertex 17.9236 25.2932 6.9282
      vertex 19.0391 26.8674 7.72741
    endloop
  endfacet
  facet normal 0.254163 0.288536 -0.923119
    outer loop
      vertex 22.8301 20.9711 6.9282
      vertex 19.0391 26.8674 7.72741
      vertex 24.251 22.2764 7.72741
    endloop
  endfacet
  facet normal 0.403792 0.458405 -0.791718
    outer loop
      vertex 21.6099 19.8503 5.65685
      vertex 16.9656 23.9413 5.65685
      vertex 17.9236 25.2932 6.9282
    endloop
  endfacet
  facet normal 0.403815 0.458416 -0.7917
    outer loop
      vertex 21.6099 19.8503 5.65685
      vertex 17.9236 25.2932 6.9282
      vertex 22.8301 20.9711 6.9282
    endloop
  endfacet
  facet normal 0.525502 0.596557 -0.606604
    outer loop
      vertex 20.6736 18.9902 4
      vertex 16.2306 22.904 4
      vertex 16.9656 23.9413 5.65685
    endloop
  endfacet
  facet normal 0.525479 0.596549 -0.606631
    outer loop
      vertex 20.6736 18.9902 4
      vertex 16.9656 23.9413 5.65685
      vertex 21.6099 19.8503 5.65685
    endloop
  endfacet
  facet normal 0.611195 0.693831 -0.38084
    outer loop
      vertex 20.085 18.4496 2.07055
      vertex 15.7685 22.252 2.07055
      vertex 16.2306 22.904 4
    endloop
  endfacet
  facet normal 0.611189 0.693831 -0.38085
    outer loop
      vertex 20.085 18.4496 2.07055
      vertex 16.2306 22.904 4
      vertex 20.6736 18.9902 4
    endloop
  endfacet
  facet normal 0.655421 0.744026 -0.129804
    outer loop
      vertex 19.8842 18.2652 0
      vertex 15.6109 22.0296 0
      vertex 15.7685 22.252 2.07055
    endloop
  endfacet
  facet normal 0.655414 0.744029 -0.129823
    outer loop
      vertex 19.8842 18.2652 0
      vertex 15.7685 22.252 2.07055
      vertex 20.085 18.4496 2.07055
    endloop
  endfacet
  facet normal -0.796882 -0.59002 -0.129827
    outer loop
      vertex 36.8295 21.6616 2.07055
      vertex 31.4667 28.9046 2.07055
      vertex 31.6675 29.089 0
    endloop
  endfacet
  facet normal -0.796892 -0.590016 -0.129787
    outer loop
      vertex 36.8295 21.6616 2.07055
      vertex 31.6675 29.089 0
      vertex 37.0644 21.7998 0
    endloop
  endfacet
  facet normal -0.743121 -0.550207 -0.380846
    outer loop
      vertex 36.1406 21.2564 4
      vertex 30.8782 28.3639 4
      vertex 31.4667 28.9046 2.07055
    endloop
  endfacet
  facet normal -0.743109 -0.550206 -0.380871
    outer loop
      vertex 36.1406 21.2564 4
      vertex 31.4667 28.9046 2.07055
      vertex 36.8295 21.6616 2.07055
    endloop
  endfacet
  facet normal -0.638932 -0.473062 -0.606612
    outer loop
      vertex 35.0447 20.6119 5.65685
      vertex 29.9419 27.5039 5.65685
      vertex 30.8782 28.3639 4
    endloop
  endfacet
  facet normal -0.638924 -0.47306 -0.606623
    outer loop
      vertex 35.0447 20.6119 5.65685
      vertex 30.8782 28.3639 4
      vertex 36.1406 21.2564 4
    endloop
  endfacet
  facet normal -0.490967 -0.363515 -0.791712
    outer loop
      vertex 33.6166 19.7719 6.9282
      vertex 28.7217 26.383 6.9282
      vertex 29.9419 27.5039 5.65685
    endloop
  endfacet
  facet normal -0.490982 -0.36352 -0.7917
    outer loop
      vertex 33.6166 19.7719 6.9282
      vertex 29.9419 27.5039 5.65685
      vertex 35.0447 20.6119 5.65685
    endloop
  endfacet
  facet normal -0.309027 -0.228807 -0.923119
    outer loop
      vertex 31.9535 18.7937 7.72741
      vertex 27.3007 25.0778 7.72741
      vertex 28.7217 26.383 6.9282
    endloop
  endfacet
  facet normal -0.309029 -0.228807 -0.923119
    outer loop
      vertex 31.9535 18.7937 7.72741
      vertex 28.7217 26.383 6.9282
      vertex 33.6166 19.7719 6.9282
    endloop
  endfacet
  facet normal -0.105483 -0.0780981 -0.99135
    outer loop
      vertex 30.1687 17.744 8
      vertex 25.7759 23.6771 8
      vertex 27.3007 25.0778 7.72741
    endloop
  endfacet
  facet normal -0.105477 -0.0780959 -0.99135
    outer loop
      vertex 30.1687 17.744 8
      vertex 27.3007 25.0778 7.72741
      vertex 31.9535 18.7937 7.72741
    endloop
  endfacet
  facet normal 0.105478 0.078096 -0.99135
    outer loop
      vertex 28.384 16.6943 7.72741
      vertex 24.251 22.2764 7.72741
      vertex 25.7759 23.6771 8
    endloop
  endfacet
  facet normal 0.105482 0.0780974 -0.99135
    outer loop
      vertex 28.384 16.6943 7.72741
      vertex 25.7759 23.6771 8
      vertex 30.1687 17.744 8
    endloop
  endfacet
  facet normal 0.309032 0.228807 -0.923118
    outer loop
      vertex 26.7209 15.7161 6.9282
      vertex 22.8301 20.9711 6.9282
      vertex 24.251 22.2764 7.72741
    endloop
  endfacet
  facet normal 0.30903 0.228806 -0.923119
    outer loop
      vertex 26.7209 15.7161 6.9282
      vertex 24.251 22.2764 7.72741
      vertex 28.384 16.6943 7.72741
    endloop
  endfacet
  facet normal 0.490985 0.363516 -0.791701
    outer loop
      vertex 25.2927 14.8761 5.65685
      vertex 21.6099 19.8503 5.65685
      vertex 22.8301 20.9711 6.9282
    endloop
  endfacet
  facet normal 0.490966 0.363511 -0.791715
    outer loop
      vertex 25.2927 14.8761 5.65685
      vertex 22.8301 20.9711 6.9282
      vertex 26.7209 15.7161 6.9282
    endloop
  endfacet
  facet normal 0.638917 0.473059 -0.60663
    outer loop
      vertex 24.1969 14.2316 4
      vertex 20.6736 18.9902 4
      vertex 21.6099 19.8503 5.65685
    endloop
  endfacet
  facet normal 0.638944 0.473062 -0.606599
    outer loop
      vertex 24.1969 14.2316 4
      vertex 21.6099 19.8503 5.65685
      vertex 25.2927 14.8761 5.65685
    endloop
  endfacet
  facet normal 0.743119 0.550203 -0.380855
    outer loop
      vertex 23.508 13.8264 2.07055
      vertex 20.085 18.4496 2.07055
      vertex 20.6736 18.9902 4
    endloop
  endfacet
  facet normal 0.74311 0.550204 -0.380871
    outer loop
      vertex 23.508 13.8264 2.07055
      vertex 20.6736 18.9902 4
      vertex 24.1969 14.2316 4
    endloop
  endfacet
  facet normal 0.796887 0.590013 -0.129827
    outer loop
      vertex 23.273 13.6882 0
      vertex 19.8842 18.2652 0
      vertex 20.085 18.4496 2.07055
    endloop
  endfacet
  facet normal 0.796888 0.590013 -0.129825
    outer loop
      vertex 23.273 13.6882 0
      vertex 20.085 18.4496 2.07055
      vertex 23.508 13.8264 2.07055
    endloop
  endfacet
  facet normal -0.902922 -0.409741 -0.129783
    outer loop
      vertex 40.5537 13.4548 2.07055
      vertex 36.8295 21.6616 2.07055
      vertex 37.0644 21.7998 0
    endloop
  endfacet
  facet normal -0.902916 -0.409746 -0.129812
    outer loop
      vertex 40.5537 13.4548 2.07055
      vertex 37.0644 21.7998 0
      vertex 40.8124 13.5407 0
    endloop
  endfacet
  facet normal -0.841989 -0.38209 -0.38087
    outer loop
      vertex 39.7951 13.2032 4
      vertex 36.1406 21.2564 4
      vertex 36.8295 21.6616 2.07055
    endloop
  endfacet
  facet normal -0.841989 -0.38209 -0.380869
    outer loop
      vertex 39.7951 13.2032 4
      vertex 36.8295 21.6616 2.07055
      vertex 40.5537 13.4548 2.07055
    endloop
  endfacet
  facet normal -0.723935 -0.328515 -0.606626
    outer loop
      vertex 38.5884 12.8028 5.65685
      vertex 35.0447 20.6119 5.65685
      vertex 36.1406 21.2564 4
    endloop
  endfacet
  facet normal -0.723929 -0.328515 -0.606634
    outer loop
      vertex 38.5884 12.8028 5.65685
      vertex 36.1406 21.2564 4
      vertex 39.7951 13.2032 4
    endloop
  endfacet
  facet normal -0.55631 -0.252452 -0.791699
    outer loop
      vertex 37.0159 12.2811 6.9282
      vertex 33.6166 19.7719 6.9282
      vertex 35.0447 20.6119 5.65685
    endloop
  endfacet
  facet normal -0.55632 -0.252453 -0.791692
    outer loop
      vertex 37.0159 12.2811 6.9282
      vertex 35.0447 20.6119 5.65685
      vertex 38.5884 12.8028 5.65685
    endloop
  endfacet
  facet normal -0.35015 -0.158896 -0.923118
    outer loop
      vertex 35.1846 11.6735 7.72741
      vertex 31.9535 18.7937 7.72741
      vertex 33.6166 19.7719 6.9282
    endloop
  endfacet
  facet normal -0.350146 -0.158895 -0.92312
    outer loop
      vertex 35.1846 11.6735 7.72741
      vertex 33.6166 19.7719 6.9282
      vertex 37.0159 12.2811 6.9282
    endloop
  endfacet
  facet normal -0.119511 -0.0542344 -0.991351
    outer loop
      vertex 33.2194 11.0215 8
      vertex 30.1687 17.744 8
      vertex 31.9535 18.7937 7.72741
    endloop
  endfacet
  facet normal -0.119515 -0.0542351 -0.99135
    outer loop
      vertex 33.2194 11.0215 8
      vertex 31.9535 18.7937 7.72741
      vertex 35.1846 11.6735 7.72741
    endloop
  endfacet
  facet normal 0.119516 0.0542364 -0.99135
    outer loop
      vertex 31.2542 10.3695 7.72741
      vertex 28.384 16.6943 7.72741
      vertex 30.1687 17.744 8
    endloop
  endfacet
  facet normal 0.119515 0.0542362 -0.99135
    outer loop
      vertex 31.2542 10.3695 7.72741
      vertex 30.1687 17.744 8
      vertex 33.2194 11.0215 8
    endloop
  endfacet
  facet normal 0.350149 0.158896 -0.923118
    outer loop
      vertex 29.4229 9.76188 6.9282
      vertex 26.7209 15.7161 6.9282
      vertex 28.384 16.6943 7.72741
    endloop
  endfacet
  facet normal 0.350144 0.158896 -0.92312
    outer loop
      vertex 29.4229 9.76188 6.9282
      vertex 28.384 16.6943 7.72741
      vertex 31.2542 10.3695 7.72741
    endloop
  endfacet
  facet normal 0.55629 0.252445 -0.791715
    outer loop
      vertex 27.8503 9.24014 5.65685
      vertex 25.2927 14.8761 5.65685
      vertex 26.7209 15.7161 6.9282
    endloop
  endfacet
  facet normal 0.556296 0.252445 -0.791711
    outer loop
      vertex 27.8503 9.24014 5.65685
      vertex 26.7209 15.7161 6.9282
      vertex 29.4229 9.76188 6.9282
    endloop
  endfacet
  facet normal 0.723952 0.328529 -0.606599
    outer loop
      vertex 26.6437 8.83979 4
      vertex 24.1969 14.2316 4
      vertex 25.2927 14.8761 5.65685
    endloop
  endfacet
  facet normal 0.723951 0.328529 -0.6066
    outer loop
      vertex 26.6437 8.83979 4
      vertex 25.2927 14.8761 5.65685
      vertex 27.8503 9.24014 5.65685
    endloop
  endfacet
  facet normal 0.841989 0.38209 -0.38087
    outer loop
      vertex 25.8851 8.58813 2.07055
      vertex 23.508 13.8264 2.07055
      vertex 24.1969 14.2316 4
    endloop
  endfacet
  facet normal 0.841984 0.382092 -0.380879
    outer loop
      vertex 25.8851 8.58813 2.07055
      vertex 24.1969 14.2316 4
      vertex 26.6437 8.83979 4
    endloop
  endfacet
  facet normal 0.902913 0.409748 -0.129826
    outer loop
      vertex 25.6264 8.50229 0
      vertex 23.273 13.6882 0
      vertex 23.508 13.8264 2.07055
    endloop
  endfacet
  facet normal 0.90292 0.40974 -0.1298
    outer loop
      vertex 25.6264 8.50229 0
      vertex 23.508 13.8264 2.07055
      vertex 25.8851 8.58813 2.07055
    endloop
  endfacet
  facet normal -0.968776 -0.211242 -0.129805
    outer loop
      vertex 42.3365 5.38378 1.89956
      vertex 40.5537 13.4548 2.07055
      vertex 40.8124 13.5407 0
    endloop
  endfacet
  facet normal -0.96877 -0.21124 -0.129853
    outer loop
      vertex 40.5537 13.4548 2.07055
      vertex 42.3365 5.38378 1.89956
      vertex 42.3142 5.38094 2.07055
    endloop
  endfacet
  facet normal -0.968772 -0.211247 -0.129828
    outer loop
      vertex 42.3365 5.38378 1.89956
      vertex 40.8124 13.5407 0
      vertex 42.5842 5.41527 0
    endloop
  endfacet
  facet normal -0.903399 -0.196985 -0.380876
    outer loop
      vertex 41.5873 5.28851 3.84248
      vertex 39.7951 13.2032 4
      vertex 40.5537 13.4548 2.07055
    endloop
  endfacet
  facet normal -0.903436 -0.196995 -0.380785
    outer loop
      vertex 39.7951 13.2032 4
      vertex 41.5873 5.28851 3.84248
      vertex 41.5227 5.28029 4
    endloop
  endfacet
  facet normal -0.903378 -0.196981 -0.380928
    outer loop
      vertex 42.1783 5.36367 2.40177
      vertex 40.5537 13.4548 2.07055
      vertex 42.3142 5.38094 2.07055
    endloop
  endfacet
  facet normal -0.903404 -0.196984 -0.380866
    outer loop
      vertex 40.5537 13.4548 2.07055
      vertex 42.1783 5.36367 2.40177
      vertex 41.5873 5.28851 3.84248
    endloop
  endfacet
  facet normal -0.776732 -0.16937 -0.606632
    outer loop
      vertex 40.3653 5.13311 5.52306
      vertex 38.5884 12.8028 5.65685
      vertex 39.7951 13.2032 4
    endloop
  endfacet
  facet normal -0.776931 -0.169421 -0.606362
    outer loop
      vertex 38.5884 12.8028 5.65685
      vertex 40.3653 5.13311 5.52306
      vertex 40.2637 5.12019 5.65685
    endloop
  endfacet
  facet normal -0.776738 -0.169369 -0.606624
    outer loop
      vertex 40.3653 5.13311 5.52306
      vertex 39.7951 13.2032 4
      vertex 41.5227 5.28029 4
    endloop
  endfacet
  facet normal -0.596821 -0.130134 -0.791751
    outer loop
      vertex 37.0159 12.2811 6.9282
      vertex 38.754 4.92821 6.82656
      vertex 38.6228 4.91153 6.9282
    endloop
  endfacet
  facet normal -0.596895 -0.130152 -0.791692
    outer loop
      vertex 38.754 4.92821 6.82656
      vertex 37.0159 12.2811 6.9282
      vertex 38.5884 12.8028 5.65685
    endloop
  endfacet
  facet normal -0.596877 -0.130154 -0.791706
    outer loop
      vertex 38.5884 12.8028 5.65685
      vertex 39.3735 5.00699 6.34656
      vertex 38.754 4.92821 6.82656
    endloop
  endfacet
  facet normal -0.596859 -0.130153 -0.79172
    outer loop
      vertex 39.3735 5.00699 6.34656
      vertex 38.5884 12.8028 5.65685
      vertex 40.2637 5.12019 5.65685
    endloop
  endfacet
  facet normal -0.375708 -0.0819213 -0.92311
    outer loop
      vertex 35.1846 11.6735 7.72741
      vertex 36.8635 4.6878 7.66404
      vertex 36.712 4.66854 7.72741
    endloop
  endfacet
  facet normal -0.375686 -0.0819161 -0.92312
    outer loop
      vertex 36.8635 4.6878 7.66404
      vertex 35.1846 11.6735 7.72741
      vertex 37.0159 12.2811 6.9282
    endloop
  endfacet
  facet normal -0.375695 -0.0819185 -0.923116
    outer loop
      vertex 37.5851 4.77956 7.36224
      vertex 37.0159 12.2811 6.9282
      vertex 38.6228 4.91153 6.9282
    endloop
  endfacet
  facet normal -0.375669 -0.0819171 -0.923126
    outer loop
      vertex 37.0159 12.2811 6.9282
      vertex 37.5851 4.77956 7.36224
      vertex 36.8635 4.6878 7.66404
    endloop
  endfacet
  facet normal -0.128216 -0.0279571 -0.991352
    outer loop
      vertex 33.2194 11.0215 8
      vertex 34.8231 4.42833 7.97852
      vertex 34.6615 4.40778 8
    endloop
  endfacet
  facet normal -0.128232 -0.027961 -0.99135
    outer loop
      vertex 34.8231 4.42833 7.97852
      vertex 33.2194 11.0215 8
      vertex 35.1846 11.6735 7.72741
    endloop
  endfacet
  facet normal -0.128234 -0.0279609 -0.99135
    outer loop
      vertex 36.712 4.66854 7.72741
      vertex 34.8231 4.42833 7.97852
      vertex 35.1846 11.6735 7.72741
    endloop
  endfacet
  facet normal 0.128272 0.0279696 -0.991344
    outer loop
      vertex 31.2542 10.3695 7.72741
      vertex 32.772 4.1675 7.74882
      vertex 32.611 4.14702 7.72741
    endloop
  endfacet
  facet normal 0.128232 0.0279597 -0.99135
    outer loop
      vertex 32.772 4.1675 7.74882
      vertex 31.2542 10.3695 7.72741
      vertex 33.2194 11.0215 8
    endloop
  endfacet
  facet normal 0.128229 0.02796 -0.99135
    outer loop
      vertex 34.6615 4.40778 8
      vertex 32.772 4.1675 7.74882
      vertex 33.2194 11.0215 8
    endloop
  endfacet
  facet normal 0.375571 0.0818931 -0.923168
    outer loop
      vertex 29.4229 9.76188 6.9282
      vertex 30.8504 3.92313 6.991
      vertex 30.7002 3.90403 6.9282
    endloop
  endfacet
  facet normal 0.375684 0.0819211 -0.92312
    outer loop
      vertex 30.8504 3.92313 6.991
      vertex 29.4229 9.76188 6.9282
      vertex 31.2542 10.3695 7.72741
    endloop
  endfacet
  facet normal 0.37563 0.0819055 -0.923143
    outer loop
      vertex 32.3366 4.11213 7.61266
      vertex 31.2542 10.3695 7.72741
      vertex 32.611 4.14702 7.72741
    endloop
  endfacet
  facet normal 0.375709 0.0819184 -0.92311
    outer loop
      vertex 31.2542 10.3695 7.72741
      vertex 32.3366 4.11213 7.61266
      vertex 30.8504 3.92313 6.991
    endloop
  endfacet
  facet normal 0.596859 0.130152 -0.791719
    outer loop
      vertex 27.8503 9.24014 5.65685
      vertex 29.189 3.71185 5.75726
      vertex 29.0594 3.69538 5.65685
    endloop
  endfacet
  facet normal 0.596869 0.130155 -0.791712
    outer loop
      vertex 29.189 3.71185 5.75726
      vertex 27.8503 9.24014 5.65685
      vertex 29.4229 9.76188 6.9282
    endloop
  endfacet
  facet normal 0.596892 0.130152 -0.791694
    outer loop
      vertex 29.3106 3.72732 5.85147
      vertex 29.4229 9.76188 6.9282
      vertex 30.7002 3.90403 6.9282
    endloop
  endfacet
  facet normal 0.596839 0.13016 -0.791733
    outer loop
      vertex 29.4229 9.76188 6.9282
      vertex 29.3106 3.72732 5.85147
      vertex 29.189 3.71185 5.75726
    endloop
  endfacet
  facet normal 0.776759 0.169364 -0.606598
    outer loop
      vertex 27.9007 3.54804 4.13214
      vertex 26.6437 8.83979 4
      vertex 27.8503 9.24014 5.65685
    endloop
  endfacet
  facet normal 0.776782 0.16937 -0.606567
    outer loop
      vertex 26.6437 8.83979 4
      vertex 27.9007 3.54804 4.13214
      vertex 27.8003 3.53527 4
    endloop
  endfacet
  facet normal 0.776732 0.169376 -0.60663
    outer loop
      vertex 28.4881 3.62273 4.90507
      vertex 27.8503 9.24014 5.65685
      vertex 29.0594 3.69538 5.65685
    endloop
  endfacet
  facet normal 0.776719 0.169376 -0.606646
    outer loop
      vertex 27.8503 9.24014 5.65685
      vertex 28.4881 3.62273 4.90507
      vertex 27.9007 3.54804 4.13214
    endloop
  endfacet
  facet normal 0.903395 0.196994 -0.380881
    outer loop
      vertex 27.0729 3.44276 2.22663
      vertex 25.8851 8.58813 2.07055
      vertex 26.6437 8.83979 4
    endloop
  endfacet
  facet normal 0.903258 0.196951 -0.381228
    outer loop
      vertex 25.8851 8.58813 2.07055
      vertex 27.0729 3.44276 2.22663
      vertex 27.0088 3.43462 2.07055
    endloop
  endfacet
  facet normal 0.903598 0.197021 -0.380386
    outer loop
      vertex 27.7605 3.5302 3.90283
      vertex 26.6437 8.83979 4
      vertex 27.8003 3.53527 4
    endloop
  endfacet
  facet normal 0.903403 0.196989 -0.380864
    outer loop
      vertex 26.6437 8.83979 4
      vertex 27.7605 3.5302 3.90283
      vertex 27.0729 3.44276 2.22663
    endloop
  endfacet
  facet normal 0.968777 0.21124 -0.129799
    outer loop
      vertex 26.7611 3.40311 0.170414
      vertex 25.6264 8.50229 0
      vertex 25.8851 8.58813 2.07055
    endloop
  endfacet
  facet normal 0.968789 0.211246 -0.129701
    outer loop
      vertex 25.6264 8.50229 0
      vertex 26.7611 3.40311 0.170414
      vertex 26.7389 3.40029 0
    endloop
  endfacet
  facet normal 0.968784 0.211239 -0.12975
    outer loop
      vertex 26.9884 3.43202 1.914
      vertex 25.8851 8.58813 2.07055
      vertex 27.0088 3.43462 2.07055
    endloop
  endfacet
  facet normal 0.968778 0.211239 -0.129796
    outer loop
      vertex 25.8851 8.58813 2.07055
      vertex 26.9884 3.43202 1.914
      vertex 26.7611 3.40311 0.170414
    endloop
  endfacet
  facet normal 0 0 -1
    outer loop
      vertex 40.8124 13.5407 0
      vertex 43.6485 5.55062 0
      vertex 42.5842 5.41527 0
    endloop
  endfacet
  facet normal 0 0 -1
    outer loop
      vertex 43.6485 5.55062 0
      vertex 40.8124 13.5407 0
      vertex 41.5855 14.3751 0
    endloop
  endfacet
  facet normal 0 0 -1
    outer loop
      vertex 37.0644 21.7998 0
      vertex 41.5855 14.3751 0
      vertex 40.8124 13.5407 0
    endloop
  endfacet
  facet normal 0 0 -1
    outer loop
      vertex 41.5855 14.3751 0
      vertex 37.0644 21.7998 0
      vertex 37.7585 22.5898 0
    endloop
  endfacet
  facet normal 0 0 -1
    outer loop
      vertex 31.6675 29.089 0
      vertex 37.7585 22.5898 0
      vertex 37.0644 21.7998 0
    endloop
  endfacet
  facet normal 0 0 -1
    outer loop
      vertex 37.7585 22.5898 0
      vertex 31.6675 29.089 0
      vertex 32.3296 29.8462 0
    endloop
  endfacet
  facet normal 0 0 -1
    outer loop
      vertex 31.6675 29.089 0
      vertex 25.5294 35.8365 0
      vertex 32.3296 29.8462 0
    endloop
  endfacet
  facet normal 0 0 -1
    outer loop
      vertex 24.8617 35.0841 0
      vertex 25.5294 35.8365 0
      vertex 31.6675 29.089 0
    endloop
  endfacet
  facet normal 0 0 -1
    outer loop
      vertex 24.8617 35.0841 0
      vertex 17.6461 40.3065 0
      vertex 25.5294 35.8365 0
    endloop
  endfacet
  facet normal 0 0 -1
    outer loop
      vertex 16.9499 39.5184 0
      vertex 17.6461 40.3065 0
      vertex 24.8617 35.0841 0
    endloop
  endfacet
  facet normal 0 0 -1
    outer loop
      vertex 16.9499 39.5184 0
      vertex 9.01424 43.0667 0
      vertex 17.6461 40.3065 0
    endloop
  endfacet
  facet normal 0 0 -1
    outer loop
      vertex 8.284 42.1945 0
      vertex 9.01424 43.0667 0
      vertex 16.9499 39.5184 0
    endloop
  endfacet
  facet normal 0 0 -1
    outer loop
      vertex 8.284 42.1945 0
      vertex 9.76996e-15 44 0
      vertex 9.01424 43.0667 0
    endloop
  endfacet
  facet normal 0 -0 -1
    outer loop
      vertex 9.76996e-15 44 0
      vertex 8.284 42.1945 0
      vertex 9.53173e-15 42.9271 0
    endloop
  endfacet
  facet normal 0 0 -1
    outer loop
      vertex 25.7923 3.27991 0
      vertex 25.6264 8.50229 0
      vertex 26.7389 3.40029 0
    endloop
  endfacet
  facet normal 0 0 -1
    outer loop
      vertex 24.5733 8.49438 0
      vertex 25.6264 8.50229 0
      vertex 25.7923 3.27991 0
    endloop
  endfacet
  facet normal 0 0 -1
    outer loop
      vertex 24.5733 8.49438 0
      vertex 23.273 13.6882 0
      vertex 25.6264 8.50229 0
    endloop
  endfacet
  facet normal 0 0 -1
    outer loop
      vertex 22.3118 13.3485 0
      vertex 23.273 13.6882 0
      vertex 24.5733 8.49438 0
    endloop
  endfacet
  facet normal 0 0 -1
    outer loop
      vertex 22.3118 13.3485 0
      vertex 19.8842 18.2652 0
      vertex 23.273 13.6882 0
    endloop
  endfacet
  facet normal 0 0 -1
    outer loop
      vertex 19.1039 17.6364 0
      vertex 19.8842 18.2652 0
      vertex 22.3118 13.3485 0
    endloop
  endfacet
  facet normal 0 0 -1
    outer loop
      vertex 19.1039 17.6364 0
      vertex 15.6109 22.0296 0
      vertex 19.8842 18.2652 0
    endloop
  endfacet
  facet normal 0 0 -1
    outer loop
      vertex 15.0855 21.1761 0
      vertex 15.6109 22.0296 0
      vertex 19.1039 17.6364 0
    endloop
  endfacet
  facet normal 0 0 -1
    outer loop
      vertex 10.4272 23.8175 0
      vertex 15.6109 22.0296 0
      vertex 15.0855 21.1761 0
    endloop
  endfacet
  facet normal 0 0 -1
    outer loop
      vertex 15.6109 22.0296 0
      vertex 10.4272 23.8175 0
      vertex 10.643 24.8139 0
    endloop
  endfacet
  facet normal 0 0 -1
    outer loop
      vertex 5.32659 25.4485 0
      vertex 10.643 24.8139 0
      vertex 10.4272 23.8175 0
    endloop
  endfacet
  facet normal 0 0 -1
    outer loop
      vertex 5.32659 25.4485 0
      vertex 5.20158 26.4942 0
      vertex 10.643 24.8139 0
    endloop
  endfacet
  facet normal 0 0 -1
    outer loop
      vertex 5.77316e-15 26 0
      vertex 5.20158 26.4942 0
      vertex 5.32659 25.4485 0
    endloop
  endfacet
  facet normal -0 0 -1
    outer loop
      vertex 5.20158 26.4942 0
      vertex 5.77316e-15 26 0
      vertex 5.98504e-15 26.9542 0
    endloop
  endfacet
endsolid OpenSCAD_Model
