solid OpenSCAD_Model
  facet normal -1 -2.22047e-16 -9.62976e-22
    outer loop
      vertex 1.11007e-15 -4.9993 0.06135
      vertex 9.18447e-16 -4.13632 1.03528
      vertex 8.88183e-16 -4.00002 0
    endloop
  endfacet
  facet normal -1 -2.22047e-16 4.96585e-21
    outer loop
      vertex 1.11007e-15 -4.9993 0.06135
      vertex 8.88183e-16 -4.00002 0
      vertex 1.10828e-15 -4.99124 0
    endloop
  endfacet
  facet normal -1 -2.22051e-16 2.34679e-21
    outer loop
      vertex 9.18447e-16 -4.13632 1.03528
      vertex 1.11007e-15 -4.9993 0.06135
      vertex 1.13094e-15 -5.09328 0.776457
    endloop
  endfacet
  facet normal -1 -2.22033e-16 -6.2554e-20
    outer loop
      vertex 1.13601e-15 -5.11613 0.831716
      vertex 9.18447e-16 -4.13632 1.03528
      vertex 1.13094e-15 -5.09328 0.776457
    endloop
  endfacet
  facet normal -1 -2.22047e-16 3.22031e-21
    outer loop
      vertex 9.18447e-16 -4.13632 1.03528
      vertex 1.13601e-15 -5.11613 0.831716
      vertex 1.00718e-15 -4.53592 2
    endloop
  endfacet
  facet normal -1 -2.22046e-16 2.94366e-21
    outer loop
      vertex 1.19737e-15 -5.39246 1.5
      vertex 1.00718e-15 -4.53592 2
      vertex 1.13601e-15 -5.11613 0.831716
    endloop
  endfacet
  facet normal -1 -2.21964e-16 -1.38275e-19
    outer loop
      vertex 1.20523e-15 -5.4279 1.54626
      vertex 1.00718e-15 -4.53592 2
      vertex 1.19737e-15 -5.39246 1.5
    endloop
  endfacet
  facet normal -1 -2.22034e-16 -3.76008e-22
    outer loop
      vertex 1.00718e-15 -4.53592 2
      vertex 1.20523e-15 -5.4279 1.54626
      vertex 1.14832e-15 -5.17159 2.82843
    endloop
  endfacet
  facet normal -1 -2.2205e-16 2.75821e-21
    outer loop
      vertex 1.30304e-15 -5.86838 2.12132
      vertex 1.14832e-15 -5.17159 2.82843
      vertex 1.20523e-15 -5.4279 1.54626
    endloop
  endfacet
  facet normal -1 -2.22133e-16 8.46531e-20
    outer loop
      vertex 1.31315e-15 -5.91388 2.1563
      vertex 1.14832e-15 -5.17159 2.82843
      vertex 1.30304e-15 -5.86838 2.12132
    endloop
  endfacet
  facet normal -1 -2.22051e-16 -5.70779e-21
    outer loop
      vertex 1.31315e-15 -5.91388 2.1563
      vertex 1.33227e-15 -6.00002 3.4641
      vertex 1.14832e-15 -5.17159 2.82843
    endloop
  endfacet
  facet normal -1 -2.22038e-16 -4.88777e-21
    outer loop
      vertex 1.44076e-15 -6.48861 2.59808
      vertex 1.33227e-15 -6.00002 3.4641
      vertex 1.31315e-15 -5.91388 2.1563
    endloop
  endfacet
  facet normal -1 -2.22035e-16 -6.63009e-21
    outer loop
      vertex 1.45247e-15 -6.54135 2.61996
      vertex 1.33227e-15 -6.00002 3.4641
      vertex 1.44076e-15 -6.48861 2.59808
    endloop
  endfacet
  facet normal -1 -2.22044e-16 -1.01361e-21
    outer loop
      vertex 1.45247e-15 -6.54135 2.61996
      vertex 1.54648e-15 -6.96474 3.8637
      vertex 1.33227e-15 -6.00002 3.4641
    endloop
  endfacet
  facet normal -1 -2.22053e-16 -4.02184e-21
    outer loop
      vertex 1.60114e-15 -7.21088 2.89778
      vertex 1.54648e-15 -6.96474 3.8637
      vertex 1.45247e-15 -6.54135 2.61996
    endloop
  endfacet
  facet normal -1 -2.22085e-16 4.06784e-21
    outer loop
      vertex 1.61375e-15 -7.26766 2.90527
      vertex 1.54648e-15 -6.96474 3.8637
      vertex 1.60114e-15 -7.21088 2.89778
    endloop
  endfacet
  facet normal -1 -2.22035e-16 4.08241e-22
    outer loop
      vertex 1.77636e-15 -8.00002 4
      vertex 1.61375e-15 -7.26766 2.90527
      vertex 1.77324e-15 -7.98597 3
    endloop
  endfacet
  facet normal -1 -2.22047e-16 -7.77528e-21
    outer loop
      vertex 1.61375e-15 -7.26766 2.90527
      vertex 1.77636e-15 -8.00002 4
      vertex 1.54648e-15 -6.96474 3.8637
    endloop
  endfacet
  facet normal -1 -2.22028e-16 5.01776e-22
    outer loop
      vertex 1.78596e-15 -8.04326 2.99245
      vertex 1.77636e-15 -8.00002 4
      vertex 1.77324e-15 -7.98597 3
    endloop
  endfacet
  facet normal -1 -2.2205e-16 -2.8761e-21
    outer loop
      vertex 2.00624e-15 -9.0353 3.8637
      vertex 1.78596e-15 -8.04326 2.99245
      vertex 1.94535e-15 -8.76107 2.89778
    endloop
  endfacet
  facet normal -1 -2.22056e-16 -4.53133e-21
    outer loop
      vertex 2.00624e-15 -9.0353 3.8637
      vertex 1.94535e-15 -8.76107 2.89778
      vertex 1.95735e-15 -8.81511 2.87535
    endloop
  endfacet
  facet normal -1 -2.22046e-16 1.27574e-21
    outer loop
      vertex 1.78596e-15 -8.04326 2.99245
      vertex 2.00624e-15 -9.0353 3.8637
      vertex 1.77636e-15 -8.00002 4
    endloop
  endfacet
  facet normal -1 -2.2204e-16 1.27206e-20
    outer loop
      vertex 2.22045e-15 -10 3.4641
      vertex 1.95735e-15 -8.81511 2.87535
      vertex 2.10572e-15 -9.48334 2.59808
    endloop
  endfacet
  facet normal -1 -2.22074e-16 -8.07761e-21
    outer loop
      vertex 2.22045e-15 -10 3.4641
      vertex 2.10572e-15 -9.48334 2.59808
      vertex 2.11618e-15 -9.53044 2.56187
    endloop
  endfacet
  facet normal -1 -2.22047e-16 -2.60877e-21
    outer loop
      vertex 1.95735e-15 -8.81511 2.87535
      vertex 2.22045e-15 -10 3.4641
      vertex 2.00624e-15 -9.0353 3.8637
    endloop
  endfacet
  facet normal -1 -2.22051e-16 2.45455e-20
    outer loop
      vertex 2.4044e-15 -10.8284 2.82843
      vertex 2.11618e-15 -9.53044 2.56187
      vertex 2.24344e-15 -10.1036 2.12132
    endloop
  endfacet
  facet normal -1 -2.2219e-16 -1.17566e-19
    outer loop
      vertex 2.4044e-15 -10.8284 2.82843
      vertex 2.24344e-15 -10.1036 2.12132
      vertex 2.2516e-15 -10.1403 2.07338
    endloop
  endfacet
  facet normal -1 -2.22051e-16 8.06811e-21
    outer loop
      vertex 2.54555e-15 -11.4641 2
      vertex 2.2516e-15 -10.1403 2.07338
      vertex 2.34912e-15 -10.5795 1.5
    endloop
  endfacet
  facet normal -1 -2.21988e-16 1.18431e-19
    outer loop
      vertex 2.54555e-15 -11.4641 2
      vertex 2.34912e-15 -10.5795 1.5
      vertex 2.35433e-15 -10.603 1.44323
    endloop
  endfacet
  facet normal -1 -2.22056e-16 1.63114e-21
    outer loop
      vertex 2.11618e-15 -9.53044 2.56187
      vertex 2.4044e-15 -10.8284 2.82843
      vertex 2.22045e-15 -10 3.4641
    endloop
  endfacet
  facet normal -1 -2.2206e-16 2.96788e-21
    outer loop
      vertex 2.63428e-15 -11.8637 1.03528
      vertex 2.35433e-15 -10.603 1.44323
      vertex 2.41555e-15 -10.8787 0.776457
    endloop
  endfacet
  facet normal -1 -2.22107e-16 -1.76397e-19
    outer loop
      vertex 2.63428e-15 -11.8637 1.03528
      vertex 2.41555e-15 -10.8787 0.776457
      vertex 2.41736e-15 -10.8868 0.714488
    endloop
  endfacet
  facet normal -1 -2.22045e-16 -2.47158e-23
    outer loop
      vertex 2.66454e-15 -12 0
      vertex 2.41736e-15 -10.8868 0.714488
      vertex 2.43821e-15 -10.9807 0
    endloop
  endfacet
  facet normal -1 -2.22051e-16 9.18547e-21
    outer loop
      vertex 2.2516e-15 -10.1403 2.07338
      vertex 2.54555e-15 -11.4641 2
      vertex 2.4044e-15 -10.8284 2.82843
    endloop
  endfacet
  facet normal -1 -2.22061e-16 5.80039e-21
    outer loop
      vertex 2.35433e-15 -10.603 1.44323
      vertex 2.63428e-15 -11.8637 1.03528
      vertex 2.54555e-15 -11.4641 2
    endloop
  endfacet
  facet normal -1 -2.22048e-16 4.93039e-21
    outer loop
      vertex 2.41736e-15 -10.8868 0.714488
      vertex 2.66454e-15 -12 0
      vertex 2.63428e-15 -11.8637 1.03528
    endloop
  endfacet
  facet normal -0.139047 0.990286 -8.81021e-06
    outer loop
      vertex 9.90288 1.39047 3.4641
      vertex 10.7233 1.50566 2.82843
      vertex 5.94174 0.834284 3.4641
    endloop
  endfacet
  facet normal -0.139045 0.990286 1.34051e-06
    outer loop
      vertex 8.94753 1.25633 3.8637
      vertex 9.90288 1.39047 3.4641
      vertex 7.92231 1.11238 4
    endloop
  endfacet
  facet normal -0.139053 0.990285 -3.19959e-06
    outer loop
      vertex 11.3528 1.59405 2
      vertex 11.7485 1.64961 1.03528
      vertex 10.7233 1.50566 2.82843
    endloop
  endfacet
  facet normal -0.139047 0.990286 -5.54368e-06
    outer loop
      vertex 7.92231 1.11238 4
      vertex 9.90288 1.39047 3.4641
      vertex 5.94174 0.834284 3.4641
    endloop
  endfacet
  facet normal -0.139049 0.990285 4.93492e-06
    outer loop
      vertex 6.89709 0.968426 3.8637
      vertex 7.92231 1.11238 4
      vertex 5.94174 0.834284 3.4641
    endloop
  endfacet
  facet normal -0.139082 0.990281 -0.000162998
    outer loop
      vertex 5.94174 0.834284 3.4641
      vertex 8.6087 1.20876 2.90673
      vertex 7.9084 1.11042 3
    endloop
  endfacet
  facet normal -0.139039 0.990287 4.75089e-05
    outer loop
      vertex 10.7233 1.50566 2.82843
      vertex 8.6087 1.20876 2.90673
      vertex 5.94174 0.834284 3.4641
    endloop
  endfacet
  facet normal -0.139061 0.990284 -0.00055607
    outer loop
      vertex 8.6087 1.20876 2.90673
      vertex 10.7233 1.50566 2.82843
      vertex 8.67596 1.2182 2.89778
    endloop
  endfacet
  facet normal -0.139042 0.990287 2.66331e-05
    outer loop
      vertex 10.7233 1.50566 2.82843
      vertex 9.3293 1.30994 2.62402
      vertex 8.67596 1.2182 2.89778
    endloop
  endfacet
  facet normal -0.139023 0.990289 -0.000103911
    outer loop
      vertex 10.7233 1.50566 2.82843
      vertex 9.39122 1.31863 2.59808
      vertex 9.3293 1.30994 2.62402
    endloop
  endfacet
  facet normal -0.139043 0.990286 1.10271e-05
    outer loop
      vertex 9.39122 1.31863 2.59808
      vertex 10.7233 1.50566 2.82843
      vertex 9.7931 1.37506 2.28613
    endloop
  endfacet
  facet normal -0.138983 0.990295 0.000265814
    outer loop
      vertex 7.84055 1.1009 2.99096
      vertex 5.94174 0.834284 3.4641
      vertex 7.9084 1.11042 3
    endloop
  endfacet
  facet normal -0.139049 0.990286 -2.99228e-06
    outer loop
      vertex 7.14083 1.00265 2.89778
      vertex 5.94174 0.834284 3.4641
      vertex 7.84055 1.1009 2.99096
    endloop
  endfacet
  facet normal -0.13904 0.990287 1.56949e-05
    outer loop
      vertex 7.07741 0.993746 2.8712
      vertex 5.94174 0.834284 3.4641
      vertex 7.14083 1.00265 2.89778
    endloop
  endfacet
  facet normal -0.139049 0.990285 -1.72992e-06
    outer loop
      vertex 6.42558 0.90222 2.59808
      vertex 5.94174 0.834284 3.4641
      vertex 7.07741 0.993746 2.8712
    endloop
  endfacet
  facet normal -0.139038 0.990287 4.47746e-06
    outer loop
      vertex 6.37137 0.894609 2.556
      vertex 5.94174 0.834284 3.4641
      vertex 6.42558 0.90222 2.59808
    endloop
  endfacet
  facet normal -0.139047 0.990286 2.75029e-07
    outer loop
      vertex 5.81137 0.815979 2.12132
      vertex 5.94174 0.834284 3.4641
      vertex 6.37137 0.894609 2.556
    endloop
  endfacet
  facet normal -0.139062 0.990284 1.811e-06
    outer loop
      vertex 5.77038 0.810223 2.06727
      vertex 5.94174 0.834284 3.4641
      vertex 5.81137 0.815979 2.12132
    endloop
  endfacet
  facet normal -0.139047 0.990286 -9.52454e-08
    outer loop
      vertex 5.34008 0.749804 1.5
      vertex 5.94174 0.834284 3.4641
      vertex 5.77038 0.810223 2.06727
    endloop
  endfacet
  facet normal -0.139104 0.990278 3.222e-05
    outer loop
      vertex 4.5208 0.634769 0
      vertex 5.34008 0.749804 1.5
      vertex 5.31495 0.746276 1.43862
    endloop
  endfacet
  facet normal -0.139046 0.990286 -5.5914e-07
    outer loop
      vertex 4.5208 0.634769 0
      vertex 5.31495 0.746276 1.43862
      vertex 5.04381 0.708205 0.776457
    endloop
  endfacet
  facet normal -0.139045 0.990286 -2.30229e-06
    outer loop
      vertex 4.5208 0.634769 0
      vertex 5.03552 0.707042 0.71278
      vertex 4.94276 0.694016 0
    endloop
  endfacet
  facet normal -0.139044 0.990286 -1.14393e-06
    outer loop
      vertex 5.34008 0.749804 1.5
      vertex 4.5208 0.634769 0
      vertex 5.94174 0.834284 3.4641
    endloop
  endfacet
  facet normal -0.139074 0.990282 1.9307e-05
    outer loop
      vertex 5.03552 0.707042 0.71278
      vertex 4.5208 0.634769 0
      vertex 5.04381 0.708205 0.776457
    endloop
  endfacet
  facet normal -0.139046 0.990286 -3.02103e-07
    outer loop
      vertex 5.12136 0.719094 2.82843
      vertex 5.94174 0.834284 3.4641
      vertex 4.09614 0.575142 1.03528
    endloop
  endfacet
  facet normal -0.139047 0.990286 1.17631e-07
    outer loop
      vertex 4.5208 0.634769 0
      vertex 4.09614 0.575142 1.03528
      vertex 5.94174 0.834284 3.4641
    endloop
  endfacet
  facet normal -0.139047 0.990286 0
    outer loop
      vertex 4.09614 0.575142 1.03528
      vertex 4.5208 0.634769 0
      vertex 4.09614 0.575142 0
    endloop
  endfacet
  facet normal -0.139042 0.990286 0
    outer loop
      vertex 4.09614 0.575142 1.03528
      vertex 4.09614 0.575142 0
      vertex 3.96116 0.55619 0
    endloop
  endfacet
  facet normal -0.139049 0.990285 1.36985e-06
    outer loop
      vertex 4.49186 0.630705 2
      vertex 5.12136 0.719094 2.82843
      vertex 4.09614 0.575142 1.03528
    endloop
  endfacet
  facet normal -0.139029 0.990288 -1.25476e-05
    outer loop
      vertex 10.7233 1.50566 2.82843
      vertex 9.95302 1.39751 2.16199
      vertex 9.7931 1.37506 2.28613
    endloop
  endfacet
  facet normal -0.139095 0.990279 6.52427e-05
    outer loop
      vertex 10.7233 1.50566 2.82843
      vertex 10.0054 1.40487 2.12132
      vertex 9.95302 1.39751 2.16199
    endloop
  endfacet
  facet normal -0.139043 0.990286 1.11742e-05
    outer loop
      vertex 10.7233 1.50566 2.82843
      vertex 10.4371 1.46549 1.55217
      vertex 10.0054 1.40487 2.12132
    endloop
  endfacet
  facet normal -0.13903 0.990288 8.16783e-06
    outer loop
      vertex 10.7233 1.50566 2.82843
      vertex 10.4767 1.47105 1.5
      vertex 10.4371 1.46549 1.55217
    endloop
  endfacet
  facet normal -0.139033 0.990288 8.72658e-06
    outer loop
      vertex 11.7485 1.64961 1.03528
      vertex 10.4767 1.47105 1.5
      vertex 10.7233 1.50566 2.82843
    endloop
  endfacet
  facet normal -0.139036 0.990287 -9.93191e-07
    outer loop
      vertex 11.7485 1.64961 1.03528
      vertex 10.7485 1.50921 0.836212
      vertex 10.4767 1.47105 1.5
    endloop
  endfacet
  facet normal -0.139007 0.990291 -0.000150155
    outer loop
      vertex 11.7485 1.64961 1.03528
      vertex 10.773 1.51264 0.776457
      vertex 10.7485 1.50921 0.836212
    endloop
  endfacet
  facet normal -0.139839 0.99017 0.00305135
    outer loop
      vertex 10.773 1.51264 0.776457
      vertex 11.7485 1.64961 1.03528
      vertex 10.7736 1.51274 0.771504
    endloop
  endfacet
  facet normal -0.139032 0.990288 5.685e-06
    outer loop
      vertex 11.3238 1.58999 0
      vertex 10.7736 1.51274 0.771504
      vertex 11.7485 1.64961 1.03528
    endloop
  endfacet
  facet normal -0.139052 0.990285 -8.89402e-06
    outer loop
      vertex 10.7736 1.51274 0.771504
      vertex 11.3238 1.58999 0
      vertex 10.8658 1.52568 0.063042
    endloop
  endfacet
  facet normal -0.139054 0.990285 -2.24205e-05
    outer loop
      vertex 10.8658 1.52568 0.063042
      vertex 11.3238 1.58999 0
      vertex 10.874 1.52683 0
    endloop
  endfacet
  facet normal -0.139023 0.990289 2.09667e-06
    outer loop
      vertex 11.7485 1.64961 1.03528
      vertex 11.6135 1.63066 0
      vertex 11.3238 1.58999 0
    endloop
  endfacet
  facet normal -0.139044 0.990286 4.7827e-06
    outer loop
      vertex 11.7485 1.64961 1.03528
      vertex 11.8835 1.66857 0
      vertex 11.6135 1.63066 0
    endloop
  endfacet
  facet normal -0.105793 0.985881 0.129796
    outer loop
      vertex 9.18447e-16 -4.13632 1.03528
      vertex 0.877569 -4.04215 1.03528
      vertex 8.88183e-16 -4.00002 0
    endloop
  endfacet
  facet normal -0.105785 0.985882 0.12979
    outer loop
      vertex 0.877569 -4.04215 1.03528
      vertex 0.848653 -3.90896 0
      vertex 8.88183e-16 -4.00002 0
    endloop
  endfacet
  facet normal -0.0986486 0.919373 0.380817
    outer loop
      vertex 1.00718e-15 -4.53592 2
      vertex 0.96235 -4.43266 2
      vertex 9.18447e-16 -4.13632 1.03528
    endloop
  endfacet
  facet normal -0.0986556 0.91937 0.380823
    outer loop
      vertex 0.96235 -4.43266 2
      vertex 0.877569 -4.04215 1.03528
      vertex 9.18447e-16 -4.13632 1.03528
    endloop
  endfacet
  facet normal -0.0848191 0.790497 0.606564
    outer loop
      vertex 1.14832e-15 -5.17159 2.82843
      vertex 1.09722 -5.05386 2.82843
      vertex 1.00718e-15 -4.53592 2
    endloop
  endfacet
  facet normal -0.0848202 0.790497 0.606565
    outer loop
      vertex 1.09722 -5.05386 2.82843
      vertex 0.96235 -4.43266 2
      vertex 1.00718e-15 -4.53592 2
    endloop
  endfacet
  facet normal -0.0651804 0.607463 0.791669
    outer loop
      vertex 1.33227e-15 -6.00002 3.4641
      vertex 1.27298 -5.86343 3.4641
      vertex 1.14832e-15 -5.17159 2.82843
    endloop
  endfacet
  facet normal -0.0651799 0.607463 0.791669
    outer loop
      vertex 1.27298 -5.86343 3.4641
      vertex 1.09722 -5.05386 2.82843
      vertex 1.14832e-15 -5.17159 2.82843
    endloop
  endfacet
  facet normal -0.0410269 0.382361 0.923102
    outer loop
      vertex 1.54648e-15 -6.96474 3.8637
      vertex 1.47765 -6.80619 3.8637
      vertex 1.33227e-15 -6.00002 3.4641
    endloop
  endfacet
  facet normal -0.0410271 0.382361 0.923102
    outer loop
      vertex 1.47765 -6.80619 3.8637
      vertex 1.27298 -5.86343 3.4641
      vertex 1.33227e-15 -6.00002 3.4641
    endloop
  endfacet
  facet normal -0.0140043 0.130516 0.991347
    outer loop
      vertex 1.77636e-15 -8.00002 4
      vertex 1.6973 -7.8179 4
      vertex 1.54648e-15 -6.96474 3.8637
    endloop
  endfacet
  facet normal -0.0140042 0.130516 0.991347
    outer loop
      vertex 1.6973 -7.8179 4
      vertex 1.47765 -6.80619 3.8637
      vertex 1.54648e-15 -6.96474 3.8637
    endloop
  endfacet
  facet normal 0.0140051 -0.130516 0.991347
    outer loop
      vertex 2.00624e-15 -9.0353 3.8637
      vertex 1.91695 -8.8296 3.8637
      vertex 1.77636e-15 -8.00002 4
    endloop
  endfacet
  facet normal 0.0140045 -0.130517 0.991347
    outer loop
      vertex 1.91695 -8.8296 3.8637
      vertex 1.6973 -7.8179 4
      vertex 1.77636e-15 -8.00002 4
    endloop
  endfacet
  facet normal 0.0410245 -0.382368 0.923099
    outer loop
      vertex 2.22045e-15 -10 3.4641
      vertex 2.12162 -9.77237 3.4641
      vertex 2.00624e-15 -9.0353 3.8637
    endloop
  endfacet
  facet normal 0.0410291 -0.382357 0.923103
    outer loop
      vertex 2.12162 -9.77237 3.4641
      vertex 1.91695 -8.8296 3.8637
      vertex 2.00624e-15 -9.0353 3.8637
    endloop
  endfacet
  facet normal 0.0651796 -0.607477 0.791659
    outer loop
      vertex 2.4044e-15 -10.8284 2.82843
      vertex 2.29739 -10.5819 2.82843
      vertex 2.22045e-15 -10 3.4641
    endloop
  endfacet
  facet normal 0.0651772 -0.607482 0.791655
    outer loop
      vertex 2.29739 -10.5819 2.82843
      vertex 2.12162 -9.77237 3.4641
      vertex 2.22045e-15 -10 3.4641
    endloop
  endfacet
  facet normal 0.0848252 -0.790483 0.606581
    outer loop
      vertex 2.54555e-15 -11.4641 2
      vertex 2.43225 -11.2031 2
      vertex 2.4044e-15 -10.8284 2.82843
    endloop
  endfacet
  facet normal 0.084817 -0.790498 0.606564
    outer loop
      vertex 2.43225 -11.2031 2
      vertex 2.29739 -10.5819 2.82843
      vertex 2.4044e-15 -10.8284 2.82843
    endloop
  endfacet
  facet normal 0.0986569 -0.919372 0.380816
    outer loop
      vertex 2.63428e-15 -11.8637 1.03528
      vertex 2.51703 -11.5936 1.03528
      vertex 2.54555e-15 -11.4641 2
    endloop
  endfacet
  facet normal 0.0986562 -0.919373 0.380814
    outer loop
      vertex 2.51703 -11.5936 1.03528
      vertex 2.43225 -11.2031 2
      vertex 2.54555e-15 -11.4641 2
    endloop
  endfacet
  facet normal 0.105793 -0.985881 0.129796
    outer loop
      vertex 2.66454e-15 -12 0
      vertex 2.54595 -11.7268 0
      vertex 2.63428e-15 -11.8637 1.03528
    endloop
  endfacet
  facet normal 0.105794 -0.98588 0.129799
    outer loop
      vertex 2.54595 -11.7268 0
      vertex 2.51703 -11.5936 1.03528
      vertex 2.63428e-15 -11.8637 1.03528
    endloop
  endfacet
  facet normal -0.312548 0.940993 0.12979
    outer loop
      vertex 0.877569 -4.04215 1.03528
      vertex 1.71518 -3.76394 1.03528
      vertex 0.848653 -3.90896 0
    endloop
  endfacet
  facet normal -0.312543 0.940995 0.129785
    outer loop
      vertex 1.71518 -3.76394 1.03528
      vertex 1.65867 -3.63992 0
      vertex 0.848653 -3.90896 0
    endloop
  endfacet
  facet normal -0.291465 0.877509 0.380822
    outer loop
      vertex 0.96235 -4.43266 2
      vertex 1.88088 -4.12757 2
      vertex 0.877569 -4.04215 1.03528
    endloop
  endfacet
  facet normal -0.291463 0.877511 0.38082
    outer loop
      vertex 1.88088 -4.12757 2
      vertex 1.71518 -3.76394 1.03528
      vertex 0.877569 -4.04215 1.03528
    endloop
  endfacet
  facet normal -0.250605 0.754504 0.606565
    outer loop
      vertex 1.09722 -5.05386 2.82843
      vertex 2.14447 -4.70602 2.82843
      vertex 0.96235 -4.43266 2
    endloop
  endfacet
  facet normal -0.250608 0.754501 0.606568
    outer loop
      vertex 2.14447 -4.70602 2.82843
      vertex 1.88088 -4.12757 2
      vertex 0.96235 -4.43266 2
    endloop
  endfacet
  facet normal -0.192579 0.579805 0.791669
    outer loop
      vertex 1.27298 -5.86343 3.4641
      vertex 2.48799 -5.45987 3.4641
      vertex 1.09722 -5.05386 2.82843
    endloop
  endfacet
  facet normal -0.19258 0.579804 0.791669
    outer loop
      vertex 2.48799 -5.45987 3.4641
      vertex 2.14447 -4.70602 2.82843
      vertex 1.09722 -5.05386 2.82843
    endloop
  endfacet
  facet normal -0.121217 0.364952 0.923102
    outer loop
      vertex 1.47765 -6.80619 3.8637
      vertex 2.88803 -6.33774 3.8637
      vertex 1.27298 -5.86343 3.4641
    endloop
  endfacet
  facet normal -0.121217 0.364951 0.923102
    outer loop
      vertex 2.88803 -6.33774 3.8637
      vertex 2.48799 -5.45987 3.4641
      vertex 1.27298 -5.86343 3.4641
    endloop
  endfacet
  facet normal -0.0413771 0.124573 0.991347
    outer loop
      vertex 1.6973 -7.8179 4
      vertex 3.31732 -7.27981 4
      vertex 1.47765 -6.80619 3.8637
    endloop
  endfacet
  facet normal -0.0413768 0.124575 0.991347
    outer loop
      vertex 3.31732 -7.27981 4
      vertex 2.88803 -6.33774 3.8637
      vertex 1.47765 -6.80619 3.8637
    endloop
  endfacet
  facet normal 0.0413767 -0.124575 0.991347
    outer loop
      vertex 1.91695 -8.8296 3.8637
      vertex 3.74661 -8.22189 3.8637
      vertex 1.6973 -7.8179 4
    endloop
  endfacet
  facet normal 0.041377 -0.124573 0.991347
    outer loop
      vertex 3.74661 -8.22189 3.8637
      vertex 3.31732 -7.27981 4
      vertex 1.6973 -7.8179 4
    endloop
  endfacet
  facet normal 0.121217 -0.364948 0.923103
    outer loop
      vertex 2.12162 -9.77237 3.4641
      vertex 4.14665 -9.09976 3.4641
      vertex 1.91695 -8.8296 3.8637
    endloop
  endfacet
  facet normal 0.121216 -0.364952 0.923102
    outer loop
      vertex 4.14665 -9.09976 3.4641
      vertex 3.74661 -8.22189 3.8637
      vertex 1.91695 -8.8296 3.8637
    endloop
  endfacet
  facet normal 0.192577 -0.579822 0.791657
    outer loop
      vertex 2.29739 -10.5819 2.82843
      vertex 4.49017 -9.85361 2.82843
      vertex 2.12162 -9.77237 3.4641
    endloop
  endfacet
  facet normal 0.192581 -0.579804 0.791669
    outer loop
      vertex 4.49017 -9.85361 2.82843
      vertex 4.14665 -9.09976 3.4641
      vertex 2.12162 -9.77237 3.4641
    endloop
  endfacet
  facet normal 0.250582 -0.754512 0.606565
    outer loop
      vertex 2.43225 -11.2031 2
      vertex 4.75376 -10.4321 2
      vertex 2.29739 -10.5819 2.82843
    endloop
  endfacet
  facet normal 0.250589 -0.754489 0.60659
    outer loop
      vertex 4.75376 -10.4321 2
      vertex 4.49017 -9.85361 2.82843
      vertex 2.29739 -10.5819 2.82843
    endloop
  endfacet
  facet normal 0.291444 -0.87752 0.380815
    outer loop
      vertex 2.51703 -11.5936 1.03528
      vertex 4.91946 -10.7957 1.03528
      vertex 2.43225 -11.2031 2
    endloop
  endfacet
  facet normal 0.291438 -0.87753 0.380796
    outer loop
      vertex 4.91946 -10.7957 1.03528
      vertex 4.75376 -10.4321 2
      vertex 2.43225 -11.2031 2
    endloop
  endfacet
  facet normal 0.312538 -0.940995 0.1298
    outer loop
      vertex 2.54595 -11.7268 0
      vertex 4.97598 -10.9197 0
      vertex 2.51703 -11.5936 1.03528
    endloop
  endfacet
  facet normal 0.312528 -0.941003 0.12977
    outer loop
      vertex 4.97598 -10.9197 0
      vertex 4.91946 -10.7957 1.03528
      vertex 2.51703 -11.5936 1.03528
    endloop
  endfacet
  facet normal -0.50507 0.853265 0.129785
    outer loop
      vertex 1.71518 -3.76394 1.03528
      vertex 2.4747 -3.31436 1.03528
      vertex 1.65867 -3.63992 0
    endloop
  endfacet
  facet normal -0.505075 0.853261 0.129789
    outer loop
      vertex 2.4747 -3.31436 1.03528
      vertex 2.39316 -3.20515 0
      vertex 1.65867 -3.63992 0
    endloop
  endfacet
  facet normal -0.470999 0.795698 0.38082
    outer loop
      vertex 1.88088 -4.12757 2
      vertex 2.71378 -3.63455 2
      vertex 1.71518 -3.76394 1.03528
    endloop
  endfacet
  facet normal -0.470997 0.795701 0.380817
    outer loop
      vertex 2.71378 -3.63455 2
      vertex 2.4747 -3.31436 1.03528
      vertex 1.71518 -3.76394 1.03528
    endloop
  endfacet
  facet normal -0.404975 0.684158 0.606567
    outer loop
      vertex 2.14447 -4.70602 2.82843
      vertex 3.09409 -4.14391 2.82843
      vertex 1.88088 -4.12757 2
    endloop
  endfacet
  facet normal -0.404975 0.684158 0.606567
    outer loop
      vertex 3.09409 -4.14391 2.82843
      vertex 2.71378 -3.63455 2
      vertex 1.88088 -4.12757 2
    endloop
  endfacet
  facet normal -0.311208 0.525746 0.791669
    outer loop
      vertex 2.48799 -5.45987 3.4641
      vertex 3.58973 -4.80771 3.4641
      vertex 2.14447 -4.70602 2.82843
    endloop
  endfacet
  facet normal -0.311208 0.525749 0.791668
    outer loop
      vertex 3.58973 -4.80771 3.4641
      vertex 3.09409 -4.14391 2.82843
      vertex 2.14447 -4.70602 2.82843
    endloop
  endfacet
  facet normal -0.195885 0.330925 0.923102
    outer loop
      vertex 2.88803 -6.33774 3.8637
      vertex 4.16691 -5.58073 3.8637
      vertex 2.48799 -5.45987 3.4641
    endloop
  endfacet
  facet normal -0.195886 0.330924 0.923103
    outer loop
      vertex 4.16691 -5.58073 3.8637
      vertex 3.58973 -4.80771 3.4641
      vertex 2.48799 -5.45987 3.4641
    endloop
  endfacet
  facet normal -0.0668643 0.11296 0.991347
    outer loop
      vertex 3.31732 -7.27981 4
      vertex 4.7863 -6.41028 4
      vertex 2.88803 -6.33774 3.8637
    endloop
  endfacet
  facet normal -0.0668643 0.112959 0.991347
    outer loop
      vertex 4.7863 -6.41028 4
      vertex 4.16691 -5.58073 3.8637
      vertex 2.88803 -6.33774 3.8637
    endloop
  endfacet
  facet normal 0.0668645 -0.112959 0.991347
    outer loop
      vertex 3.74661 -8.22189 3.8637
      vertex 5.40569 -7.23982 3.8637
      vertex 3.31732 -7.27981 4
    endloop
  endfacet
  facet normal 0.0668645 -0.112961 0.991347
    outer loop
      vertex 5.40569 -7.23982 3.8637
      vertex 4.7863 -6.41028 4
      vertex 3.31732 -7.27981 4
    endloop
  endfacet
  facet normal 0.195885 -0.330926 0.923102
    outer loop
      vertex 4.14665 -9.09976 3.4641
      vertex 5.98288 -8.01284 3.4641
      vertex 3.74661 -8.22189 3.8637
    endloop
  endfacet
  facet normal 0.195885 -0.330922 0.923103
    outer loop
      vertex 5.98288 -8.01284 3.4641
      vertex 5.40569 -7.23982 3.8637
      vertex 3.74661 -8.22189 3.8637
    endloop
  endfacet
  facet normal 0.311206 -0.525748 0.791669
    outer loop
      vertex 4.49017 -9.85361 2.82843
      vertex 6.47851 -8.67665 2.82843
      vertex 4.14665 -9.09976 3.4641
    endloop
  endfacet
  facet normal 0.311206 -0.525748 0.791669
    outer loop
      vertex 6.47851 -8.67665 2.82843
      vertex 5.98288 -8.01284 3.4641
      vertex 4.14665 -9.09976 3.4641
    endloop
  endfacet
  facet normal 0.404977 -0.684138 0.606587
    outer loop
      vertex 4.75376 -10.4321 2
      vertex 6.85883 -9.186 2
      vertex 4.49017 -9.85361 2.82843
    endloop
  endfacet
  facet normal 0.404975 -0.684159 0.606565
    outer loop
      vertex 6.85883 -9.186 2
      vertex 6.47851 -8.67665 2.82843
      vertex 4.49017 -9.85361 2.82843
    endloop
  endfacet
  facet normal 0.47101 -0.795703 0.380798
    outer loop
      vertex 4.91946 -10.7957 1.03528
      vertex 7.0979 -9.50619 1.03528
      vertex 4.75376 -10.4321 2
    endloop
  endfacet
  facet normal 0.471012 -0.795694 0.380813
    outer loop
      vertex 7.0979 -9.50619 1.03528
      vertex 6.85883 -9.186 2
      vertex 4.75376 -10.4321 2
    endloop
  endfacet
  facet normal 0.50507 -0.853266 0.129773
    outer loop
      vertex 4.97598 -10.9197 0
      vertex 7.17945 -9.61541 0
      vertex 4.91946 -10.7957 1.03528
    endloop
  endfacet
  facet normal 0.505078 -0.853257 0.129802
    outer loop
      vertex 7.17945 -9.61541 0
      vertex 7.0979 -9.50619 1.03528
      vertex 4.91946 -10.7957 1.03528
    endloop
  endfacet
  facet normal -0.674601 0.726683 0.129789
    outer loop
      vertex 2.4747 -3.31436 1.03528
      vertex 3.12155 -2.71387 1.03528
      vertex 2.39316 -3.20515 0
    endloop
  endfacet
  facet normal -0.674608 0.726675 0.129797
    outer loop
      vertex 3.12155 -2.71387 1.03528
      vertex 3.01869 -2.62444 0
      vertex 2.39316 -3.20515 0
    endloop
  endfacet
  facet normal -0.629095 0.677655 0.380818
    outer loop
      vertex 2.71378 -3.63455 2
      vertex 3.42311 -2.97605 2
      vertex 2.4747 -3.31436 1.03528
    endloop
  endfacet
  facet normal -0.629092 0.677661 0.380813
    outer loop
      vertex 3.42311 -2.97605 2
      vertex 3.12155 -2.71387 1.03528
      vertex 2.4747 -3.31436 1.03528
    endloop
  endfacet
  facet normal -0.54091 0.582661 0.606566
    outer loop
      vertex 3.09409 -4.14391 2.82843
      vertex 3.90283 -3.39312 2.82843
      vertex 2.71378 -3.63455 2
    endloop
  endfacet
  facet normal -0.54091 0.582663 0.606565
    outer loop
      vertex 3.90283 -3.39312 2.82843
      vertex 3.42311 -2.97605 2
      vertex 2.71378 -3.63455 2
    endloop
  endfacet
  facet normal -0.415666 0.447753 0.791668
    outer loop
      vertex 3.58973 -4.80771 3.4641
      vertex 4.52802 -3.93666 3.4641
      vertex 3.09409 -4.14391 2.82843
    endloop
  endfacet
  facet normal -0.415667 0.44775 0.79167
    outer loop
      vertex 4.52802 -3.93666 3.4641
      vertex 3.90283 -3.39312 2.82843
      vertex 3.09409 -4.14391 2.82843
    endloop
  endfacet
  facet normal -0.261635 0.281831 0.923102
    outer loop
      vertex 4.16691 -5.58073 3.8637
      vertex 5.25607 -4.56962 3.8637
      vertex 3.58973 -4.80771 3.4641
    endloop
  endfacet
  facet normal -0.261635 0.281832 0.923102
    outer loop
      vertex 5.25607 -4.56962 3.8637
      vertex 4.52802 -3.93666 3.4641
      vertex 3.58973 -4.80771 3.4641
    endloop
  endfacet
  facet normal -0.089308 0.0962017 0.991347
    outer loop
      vertex 4.7863 -6.41028 4
      vertex 6.03736 -5.24887 4
      vertex 4.16691 -5.58073 3.8637
    endloop
  endfacet
  facet normal -0.089308 0.0962019 0.991347
    outer loop
      vertex 6.03736 -5.24887 4
      vertex 5.25607 -4.56962 3.8637
      vertex 4.16691 -5.58073 3.8637
    endloop
  endfacet
  facet normal 0.0893083 -0.0962027 0.991347
    outer loop
      vertex 5.40569 -7.23982 3.8637
      vertex 6.81865 -5.92812 3.8637
      vertex 4.7863 -6.41028 4
    endloop
  endfacet
  facet normal 0.0893081 -0.0962018 0.991347
    outer loop
      vertex 6.81865 -5.92812 3.8637
      vertex 6.03736 -5.24887 4
      vertex 4.7863 -6.41028 4
    endloop
  endfacet
  facet normal 0.261635 -0.281828 0.923103
    outer loop
      vertex 5.98288 -8.01284 3.4641
      vertex 7.54669 -6.56108 3.4641
      vertex 5.40569 -7.23982 3.8637
    endloop
  endfacet
  facet normal 0.261636 -0.281834 0.923101
    outer loop
      vertex 7.54669 -6.56108 3.4641
      vertex 6.81865 -5.92812 3.8637
      vertex 5.40569 -7.23982 3.8637
    endloop
  endfacet
  facet normal 0.415668 -0.447752 0.791668
    outer loop
      vertex 6.47851 -8.67665 2.82843
      vertex 8.17188 -7.10462 2.82843
      vertex 5.98288 -8.01284 3.4641
    endloop
  endfacet
  facet normal 0.415667 -0.447749 0.79167
    outer loop
      vertex 8.17188 -7.10462 2.82843
      vertex 7.54669 -6.56108 3.4641
      vertex 5.98288 -8.01284 3.4641
    endloop
  endfacet
  facet normal 0.540911 -0.582661 0.606566
    outer loop
      vertex 6.85883 -9.186 2
      vertex 8.6516 -7.52169 2
      vertex 6.47851 -8.67665 2.82843
    endloop
  endfacet
  facet normal 0.540911 -0.582662 0.606565
    outer loop
      vertex 8.6516 -7.52169 2
      vertex 8.17188 -7.10462 2.82843
      vertex 6.47851 -8.67665 2.82843
    endloop
  endfacet
  facet normal 0.629096 -0.677658 0.380812
    outer loop
      vertex 7.0979 -9.50619 1.03528
      vertex 8.95317 -7.78387 1.03528
      vertex 6.85883 -9.186 2
    endloop
  endfacet
  facet normal 0.629097 -0.677653 0.380819
    outer loop
      vertex 8.95317 -7.78387 1.03528
      vertex 8.6516 -7.52169 2
      vertex 6.85883 -9.186 2
    endloop
  endfacet
  facet normal 0.674605 -0.726677 0.129802
    outer loop
      vertex 7.17945 -9.61541 0
      vertex 9.05603 -7.8733 0
      vertex 7.0979 -9.50619 1.03528
    endloop
  endfacet
  facet normal 0.674604 -0.726679 0.129797
    outer loop
      vertex 9.05603 -7.8733 0
      vertex 8.95317 -7.78387 1.03528
      vertex 7.0979 -9.50619 1.03528
    endloop
  endfacet
  facet normal -0.813425 0.567003 0.129797
    outer loop
      vertex 3.12155 -2.71387 1.03528
      vertex 3.62626 -1.98981 1.03528
      vertex 3.01869 -2.62444 0
    endloop
  endfacet
  facet normal -0.813425 0.567004 0.129795
    outer loop
      vertex 3.62626 -1.98981 1.03528
      vertex 3.50677 -1.92424 0
      vertex 3.01869 -2.62444 0
    endloop
  endfacet
  facet normal -0.758547 0.52876 0.380813
    outer loop
      vertex 3.42311 -2.97605 2
      vertex 3.97659 -2.18204 2
      vertex 3.12155 -2.71387 1.03528
    endloop
  endfacet
  facet normal -0.75855 0.528751 0.38082
    outer loop
      vertex 3.97659 -2.18204 2
      vertex 3.62626 -1.98981 1.03528
      vertex 3.12155 -2.71387 1.03528
    endloop
  endfacet
  facet normal -0.652212 0.454642 0.606565
    outer loop
      vertex 3.90283 -3.39312 2.82843
      vertex 4.53388 -2.48784 2.82843
      vertex 3.42311 -2.97605 2
    endloop
  endfacet
  facet normal -0.652212 0.454637 0.606568
    outer loop
      vertex 4.53388 -2.48784 2.82843
      vertex 3.97659 -2.18204 2
      vertex 3.42311 -2.97605 2
    endloop
  endfacet
  facet normal -0.501199 0.349369 0.79167
    outer loop
      vertex 4.52802 -3.93666 3.4641
      vertex 5.26015 -2.88636 3.4641
      vertex 3.90283 -3.39312 2.82843
    endloop
  endfacet
  facet normal -0.501199 0.349375 0.791667
    outer loop
      vertex 5.26015 -2.88636 3.4641
      vertex 4.53388 -2.48784 2.82843
      vertex 3.90283 -3.39312 2.82843
    endloop
  endfacet
  facet normal -0.315473 0.219905 0.923102
    outer loop
      vertex 5.25607 -4.56962 3.8637
      vertex 6.10591 -3.35045 3.8637
      vertex 4.52802 -3.93666 3.4641
    endloop
  endfacet
  facet normal -0.315474 0.219907 0.923102
    outer loop
      vertex 6.10591 -3.35045 3.8637
      vertex 5.26015 -2.88636 3.4641
      vertex 4.52802 -3.93666 3.4641
    endloop
  endfacet
  facet normal -0.107685 0.0750641 0.991347
    outer loop
      vertex 6.03736 -5.24887 4
      vertex 7.01353 -3.84848 4
      vertex 5.25607 -4.56962 3.8637
    endloop
  endfacet
  facet normal -0.107685 0.0750632 0.991347
    outer loop
      vertex 7.01353 -3.84848 4
      vertex 6.10591 -3.35045 3.8637
      vertex 5.25607 -4.56962 3.8637
    endloop
  endfacet
  facet normal 0.107685 -0.075064 0.991347
    outer loop
      vertex 6.81865 -5.92812 3.8637
      vertex 7.92114 -4.34651 3.8637
      vertex 6.03736 -5.24887 4
    endloop
  endfacet
  facet normal 0.107685 -0.0750643 0.991347
    outer loop
      vertex 7.92114 -4.34651 3.8637
      vertex 7.01353 -3.84848 4
      vertex 6.03736 -5.24887 4
    endloop
  endfacet
  facet normal 0.315475 -0.219908 0.923101
    outer loop
      vertex 7.54669 -6.56108 3.4641
      vertex 8.7669 -4.8106 3.4641
      vertex 6.81865 -5.92812 3.8637
    endloop
  endfacet
  facet normal 0.315474 -0.219907 0.923102
    outer loop
      vertex 8.7669 -4.8106 3.4641
      vertex 7.92114 -4.34651 3.8637
      vertex 6.81865 -5.92812 3.8637
    endloop
  endfacet
  facet normal 0.501198 -0.349371 0.79167
    outer loop
      vertex 8.17188 -7.10462 2.82843
      vertex 9.49318 -5.20912 2.82843
      vertex 7.54669 -6.56108 3.4641
    endloop
  endfacet
  facet normal 0.501197 -0.349371 0.79167
    outer loop
      vertex 9.49318 -5.20912 2.82843
      vertex 8.7669 -4.8106 3.4641
      vertex 7.54669 -6.56108 3.4641
    endloop
  endfacet
  facet normal 0.652208 -0.454646 0.606565
    outer loop
      vertex 8.6516 -7.52169 2
      vertex 10.0505 -5.51491 2
      vertex 8.17188 -7.10462 2.82843
    endloop
  endfacet
  facet normal 0.652204 -0.454633 0.606579
    outer loop
      vertex 10.0505 -5.51491 2
      vertex 9.49318 -5.20912 2.82843
      vertex 8.17188 -7.10462 2.82843
    endloop
  endfacet
  facet normal 0.758543 -0.528762 0.38082
    outer loop
      vertex 8.95317 -7.78387 1.03528
      vertex 10.4008 -5.70715 1.03528
      vertex 8.6516 -7.52169 2
    endloop
  endfacet
  facet normal 0.758544 -0.528771 0.380804
    outer loop
      vertex 10.4008 -5.70715 1.03528
      vertex 10.0505 -5.51491 2
      vertex 8.6516 -7.52169 2
    endloop
  endfacet
  facet normal 0.813418 -0.567014 0.129797
    outer loop
      vertex 9.05603 -7.8733 0
      vertex 10.5203 -5.77271 0
      vertex 8.95317 -7.78387 1.03528
    endloop
  endfacet
  facet normal 0.813418 -0.567013 0.129798
    outer loop
      vertex 10.5203 -5.77271 0
      vertex 10.4008 -5.70715 1.03528
      vertex 8.95317 -7.78387 1.03528
    endloop
  endfacet
  facet normal -0.9152 0.381527 0.129795
    outer loop
      vertex 3.62626 -1.98981 1.03528
      vertex 3.96587 -1.17516 1.03528
      vertex 3.50677 -1.92424 0
    endloop
  endfacet
  facet normal -0.9152 0.381526 0.129796
    outer loop
      vertex 3.96587 -1.17516 1.03528
      vertex 3.83519 -1.13643 0
      vertex 3.50677 -1.92424 0
    endloop
  endfacet
  facet normal -0.853457 0.35579 0.380821
    outer loop
      vertex 3.97659 -2.18204 2
      vertex 4.34901 -1.28869 2
      vertex 3.62626 -1.98981 1.03528
    endloop
  endfacet
  facet normal -0.853458 0.355788 0.380822
    outer loop
      vertex 4.34901 -1.28869 2
      vertex 3.96587 -1.17516 1.03528
      vertex 3.62626 -1.98981 1.03528
    endloop
  endfacet
  facet normal -0.733821 0.305913 0.606568
    outer loop
      vertex 4.53388 -2.48784 2.82843
      vertex 4.95849 -1.46929 2.82843
      vertex 3.97659 -2.18204 2
    endloop
  endfacet
  facet normal -0.733821 0.305916 0.606566
    outer loop
      vertex 4.95849 -1.46929 2.82843
      vertex 4.34901 -1.28869 2
      vertex 3.97659 -2.18204 2
    endloop
  endfacet
  facet normal -0.563914 0.235084 0.791667
    outer loop
      vertex 5.26015 -2.88636 3.4641
      vertex 5.75278 -1.70465 3.4641
      vertex 4.53388 -2.48784 2.82843
    endloop
  endfacet
  facet normal -0.563913 0.235082 0.791668
    outer loop
      vertex 5.75278 -1.70465 3.4641
      vertex 4.95849 -1.46929 2.82843
      vertex 4.53388 -2.48784 2.82843
    endloop
  endfacet
  facet normal -0.354947 0.14797 0.923102
    outer loop
      vertex 6.10591 -3.35045 3.8637
      vertex 6.67775 -1.97873 3.8637
      vertex 5.26015 -2.88636 3.4641
    endloop
  endfacet
  facet normal -0.354948 0.14797 0.923102
    outer loop
      vertex 6.67775 -1.97873 3.8637
      vertex 5.75278 -1.70465 3.4641
      vertex 5.26015 -2.88636 3.4641
    endloop
  endfacet
  facet normal -0.121159 0.0505076 0.991347
    outer loop
      vertex 7.01353 -3.84848 4
      vertex 7.67036 -2.27286 4
      vertex 6.10591 -3.35045 3.8637
    endloop
  endfacet
  facet normal -0.12116 0.0505089 0.991347
    outer loop
      vertex 7.67036 -2.27286 4
      vertex 6.67775 -1.97873 3.8637
      vertex 6.10591 -3.35045 3.8637
    endloop
  endfacet
  facet normal 0.12116 -0.0505086 0.991347
    outer loop
      vertex 7.92114 -4.34651 3.8637
      vertex 8.66298 -2.56699 3.8637
      vertex 7.01353 -3.84848 4
    endloop
  endfacet
  facet normal 0.121159 -0.0505076 0.991347
    outer loop
      vertex 8.66298 -2.56699 3.8637
      vertex 7.67036 -2.27286 4
      vertex 7.01353 -3.84848 4
    endloop
  endfacet
  facet normal 0.354948 -0.147969 0.923102
    outer loop
      vertex 8.7669 -4.8106 3.4641
      vertex 9.58795 -2.84107 3.4641
      vertex 7.92114 -4.34651 3.8637
    endloop
  endfacet
  facet normal 0.354948 -0.147969 0.923102
    outer loop
      vertex 9.58795 -2.84107 3.4641
      vertex 8.66298 -2.56699 3.8637
      vertex 7.92114 -4.34651 3.8637
    endloop
  endfacet
  facet normal 0.563915 -0.235071 0.79167
    outer loop
      vertex 9.49318 -5.20912 2.82843
      vertex 10.3822 -3.07644 2.82843
      vertex 8.7669 -4.8106 3.4641
    endloop
  endfacet
  facet normal 0.563928 -0.235088 0.791656
    outer loop
      vertex 10.3822 -3.07644 2.82843
      vertex 9.58795 -2.84107 3.4641
      vertex 8.7669 -4.8106 3.4641
    endloop
  endfacet
  facet normal 0.733817 -0.305894 0.606582
    outer loop
      vertex 10.0505 -5.51491 2
      vertex 10.9917 -3.25704 2
      vertex 9.49318 -5.20912 2.82843
    endloop
  endfacet
  facet normal 0.733819 -0.305897 0.606578
    outer loop
      vertex 10.9917 -3.25704 2
      vertex 10.3822 -3.07644 2.82843
      vertex 9.49318 -5.20912 2.82843
    endloop
  endfacet
  facet normal 0.853461 -0.355801 0.380801
    outer loop
      vertex 10.4008 -5.70715 1.03528
      vertex 11.3749 -3.37057 1.03528
      vertex 10.0505 -5.51491 2
    endloop
  endfacet
  facet normal 0.853448 -0.355762 0.380868
    outer loop
      vertex 11.3749 -3.37057 1.03528
      vertex 10.9917 -3.25704 2
      vertex 10.0505 -5.51491 2
    endloop
  endfacet
  facet normal 0.915207 -0.381507 0.1298
    outer loop
      vertex 10.5203 -5.77271 0
      vertex 11.5055 -3.40929 0
      vertex 10.4008 -5.70715 1.03528
    endloop
  endfacet
  facet normal 0.915204 -0.381541 0.129722
    outer loop
      vertex 11.5055 -3.40929 0
      vertex 11.3749 -3.37057 1.03528
      vertex 10.4008 -5.70715 1.03528
    endloop
  endfacet
  facet normal -0.975311 0.178668 0.129794
    outer loop
      vertex 3.96587 -1.17516 1.03528
      vertex 4.12491 -0.306995 1.03528
      vertex 3.83519 -1.13643 0
    endloop
  endfacet
  facet normal -0.975311 0.17867 0.129792
    outer loop
      vertex 4.12491 -0.306995 1.03528
      vertex 3.98899 -0.29688 0
      vertex 3.83519 -1.13643 0
    endloop
  endfacet
  facet normal -0.909514 0.166611 0.380822
    outer loop
      vertex 4.34901 -1.28869 2
      vertex 4.52341 -0.336654 2
      vertex 3.96587 -1.17516 1.03528
    endloop
  endfacet
  facet normal -0.909515 0.166615 0.380818
    outer loop
      vertex 4.52341 -0.336654 2
      vertex 4.12491 -0.306995 1.03528
      vertex 3.96587 -1.17516 1.03528
    endloop
  endfacet
  facet normal -0.78202 0.143255 0.606566
    outer loop
      vertex 4.95849 -1.46929 2.82843
      vertex 5.15733 -0.383834 2.82843
      vertex 4.34901 -1.28869 2
    endloop
  endfacet
  facet normal -0.78202 0.143255 0.606566
    outer loop
      vertex 5.15733 -0.383834 2.82843
      vertex 4.52341 -0.336654 2
      vertex 4.34901 -1.28869 2
    endloop
  endfacet
  facet normal -0.600952 0.110085 0.791668
    outer loop
      vertex 5.75278 -1.70465 3.4641
      vertex 5.98347 -0.445319 3.4641
      vertex 4.95849 -1.46929 2.82843
    endloop
  endfacet
  facet normal -0.600952 0.110086 0.791668
    outer loop
      vertex 5.98347 -0.445319 3.4641
      vertex 5.15733 -0.383834 2.82843
      vertex 4.95849 -1.46929 2.82843
    endloop
  endfacet
  facet normal -0.37826 0.0692938 0.923102
    outer loop
      vertex 6.67775 -1.97873 3.8637
      vertex 6.94554 -0.516921 3.8637
      vertex 5.75278 -1.70465 3.4641
    endloop
  endfacet
  facet normal -0.378258 0.069291 0.923103
    outer loop
      vertex 6.94554 -0.516921 3.8637
      vertex 5.98347 -0.445319 3.4641
      vertex 5.75278 -1.70465 3.4641
    endloop
  endfacet
  facet normal -0.129118 0.0236535 0.991347
    outer loop
      vertex 7.67036 -2.27286 4
      vertex 7.97796 -0.593759 4
      vertex 6.67775 -1.97873 3.8637
    endloop
  endfacet
  facet normal -0.129117 0.0236531 0.991347
    outer loop
      vertex 7.97796 -0.593759 4
      vertex 6.94554 -0.516921 3.8637
      vertex 6.67775 -1.97873 3.8637
    endloop
  endfacet
  facet normal 0.129117 -0.0236528 0.991347
    outer loop
      vertex 8.66298 -2.56699 3.8637
      vertex 9.01038 -0.670596 3.8637
      vertex 7.67036 -2.27286 4
    endloop
  endfacet
  facet normal 0.129117 -0.0236534 0.991347
    outer loop
      vertex 9.01038 -0.670596 3.8637
      vertex 7.97796 -0.593759 4
      vertex 7.67036 -2.27286 4
    endloop
  endfacet
  facet normal 0.378261 -0.0692931 0.923102
    outer loop
      vertex 9.58795 -2.84107 3.4641
      vertex 9.97244 -0.742198 3.4641
      vertex 8.66298 -2.56699 3.8637
    endloop
  endfacet
  facet normal 0.378261 -0.0692936 0.923102
    outer loop
      vertex 9.97244 -0.742198 3.4641
      vertex 9.01038 -0.670596 3.8637
      vertex 8.66298 -2.56699 3.8637
    endloop
  endfacet
  facet normal 0.600965 -0.110105 0.791655
    outer loop
      vertex 10.3822 -3.07644 2.82843
      vertex 10.7986 -0.803683 2.82843
      vertex 9.58795 -2.84107 3.4641
    endloop
  endfacet
  facet normal 0.600943 -0.110086 0.791675
    outer loop
      vertex 10.7986 -0.803683 2.82843
      vertex 9.97244 -0.742198 3.4641
      vertex 9.58795 -2.84107 3.4641
    endloop
  endfacet
  facet normal 0.78201 -0.14326 0.606578
    outer loop
      vertex 10.9917 -3.25704 2
      vertex 11.4325 -0.850863 2
      vertex 10.3822 -3.07644 2.82843
    endloop
  endfacet
  facet normal 0.782026 -0.143278 0.606553
    outer loop
      vertex 11.4325 -0.850863 2
      vertex 10.7986 -0.803683 2.82843
      vertex 10.3822 -3.07644 2.82843
    endloop
  endfacet
  facet normal 0.909497 -0.166592 0.38087
    outer loop
      vertex 11.3749 -3.37057 1.03528
      vertex 11.831 -0.880521 1.03528
      vertex 10.9917 -3.25704 2
    endloop
  endfacet
  facet normal 0.909514 -0.166619 0.380818
    outer loop
      vertex 11.831 -0.880521 1.03528
      vertex 11.4325 -0.850863 2
      vertex 10.9917 -3.25704 2
    endloop
  endfacet
  facet normal 0.97532 -0.178672 0.129719
    outer loop
      vertex 11.5055 -3.40929 0
      vertex 11.9669 -0.890637 0
      vertex 11.3749 -3.37057 1.03528
    endloop
  endfacet
  facet normal 0.975317 -0.178648 0.129774
    outer loop
      vertex 11.9669 -0.890637 0
      vertex 11.831 -0.880521 1.03528
      vertex 11.3749 -3.37057 1.03528
    endloop
  endfacet
  facet normal -0.991014 -0.0323209 0.129793
    outer loop
      vertex 4.12491 -0.306995 1.03528
      vertex 4.09614 0.575142 1.03528
      vertex 3.98899 -0.29688 0
    endloop
  endfacet
  facet normal -0.991013 -0.0323302 0.1298
    outer loop
      vertex 3.98899 -0.29688 0
      vertex 4.09614 0.575142 1.03528
      vertex 3.96116 0.55619 0
    endloop
  endfacet
  facet normal -0.924158 -0.030141 0.380818
    outer loop
      vertex 4.52341 -0.336654 2
      vertex 4.49186 0.630705 2
      vertex 4.12491 -0.306995 1.03528
    endloop
  endfacet
  facet normal -0.924159 -0.0301405 0.380818
    outer loop
      vertex 4.12491 -0.306995 1.03528
      vertex 4.49186 0.630705 2
      vertex 4.09614 0.575142 1.03528
    endloop
  endfacet
  facet normal -0.794611 -0.0259148 0.606566
    outer loop
      vertex 5.15733 -0.383834 2.82843
      vertex 5.12136 0.719094 2.82843
      vertex 4.52341 -0.336654 2
    endloop
  endfacet
  facet normal -0.79461 -0.0259159 0.606566
    outer loop
      vertex 4.52341 -0.336654 2
      vertex 5.12136 0.719094 2.82843
      vertex 4.49186 0.630705 2
    endloop
  endfacet
  facet normal -0.610627 -0.0199136 0.791668
    outer loop
      vertex 5.98347 -0.445319 3.4641
      vertex 5.94174 0.834284 3.4641
      vertex 5.15733 -0.383834 2.82843
    endloop
  endfacet
  facet normal -0.610627 -0.0199145 0.791668
    outer loop
      vertex 5.15733 -0.383834 2.82843
      vertex 5.94174 0.834284 3.4641
      vertex 5.12136 0.719094 2.82843
    endloop
  endfacet
  facet normal -0.384348 -0.0125369 0.923103
    outer loop
      vertex 6.94554 -0.516921 3.8637
      vertex 6.89709 0.968426 3.8637
      vertex 5.98347 -0.445319 3.4641
    endloop
  endfacet
  facet normal -0.384351 -0.0125343 0.923102
    outer loop
      vertex 5.98347 -0.445319 3.4641
      vertex 6.89709 0.968426 3.8637
      vertex 5.94174 0.834284 3.4641
    endloop
  endfacet
  facet normal -0.131196 -0.00427929 0.991347
    outer loop
      vertex 7.97796 -0.593759 4
      vertex 7.92231 1.11238 4
      vertex 6.94554 -0.516921 3.8637
    endloop
  endfacet
  facet normal -0.131196 -0.00427943 0.991347
    outer loop
      vertex 6.94554 -0.516921 3.8637
      vertex 7.92231 1.11238 4
      vertex 6.89709 0.968426 3.8637
    endloop
  endfacet
  facet normal 0.131196 0.00427918 0.991347
    outer loop
      vertex 9.01038 -0.670596 3.8637
      vertex 8.94753 1.25633 3.8637
      vertex 7.97796 -0.593759 4
    endloop
  endfacet
  facet normal 0.131196 0.00427928 0.991347
    outer loop
      vertex 7.97796 -0.593759 4
      vertex 8.94753 1.25633 3.8637
      vertex 7.92231 1.11238 4
    endloop
  endfacet
  facet normal 0.384351 0.0125362 0.923102
    outer loop
      vertex 9.97244 -0.742198 3.4641
      vertex 9.90288 1.39047 3.4641
      vertex 9.01038 -0.670596 3.8637
    endloop
  endfacet
  facet normal 0.384351 0.0125363 0.923102
    outer loop
      vertex 9.01038 -0.670596 3.8637
      vertex 9.90288 1.39047 3.4641
      vertex 8.94753 1.25633 3.8637
    endloop
  endfacet
  facet normal 0.610618 0.0199102 0.791675
    outer loop
      vertex 10.7986 -0.803683 2.82843
      vertex 10.7233 1.50566 2.82843
      vertex 9.97244 -0.742198 3.4641
    endloop
  endfacet
  facet normal 0.610608 0.0199158 0.791683
    outer loop
      vertex 9.97244 -0.742198 3.4641
      vertex 10.7233 1.50566 2.82843
      vertex 9.90288 1.39047 3.4641
    endloop
  endfacet
  facet normal 0.79462 0.0259033 0.606554
    outer loop
      vertex 11.4325 -0.850863 2
      vertex 11.3528 1.59405 2
      vertex 10.7986 -0.803683 2.82843
    endloop
  endfacet
  facet normal 0.794611 0.0259096 0.606566
    outer loop
      vertex 10.7986 -0.803683 2.82843
      vertex 11.3528 1.59405 2
      vertex 10.7233 1.50566 2.82843
    endloop
  endfacet
  facet normal 0.924159 0.030134 0.380819
    outer loop
      vertex 11.831 -0.880521 1.03528
      vertex 11.7485 1.64961 1.03528
      vertex 11.4325 -0.850863 2
    endloop
  endfacet
  facet normal 0.924166 0.0301262 0.380801
    outer loop
      vertex 11.4325 -0.850863 2
      vertex 11.7485 1.64961 1.03528
      vertex 11.3528 1.59405 2
    endloop
  endfacet
  facet normal 0.991017 0.0322955 0.129774
    outer loop
      vertex 11.9669 -0.890637 0
      vertex 11.8835 1.66857 0
      vertex 11.831 -0.880521 1.03528
    endloop
  endfacet
  facet normal 0.991011 0.0323139 0.129819
    outer loop
      vertex 11.831 -0.880521 1.03528
      vertex 11.8835 1.66857 0
      vertex 11.7485 1.64961 1.03528
    endloop
  endfacet
  facet normal 0.0907164 -0.987386 -0.129763
    outer loop
      vertex 1.13094e-15 -5.09328 0.776457
      vertex 1.11007e-15 -4.9993 0.06135
      vertex 1.01714 -4.99983 0.776457
    endloop
  endfacet
  facet normal 0.0907188 -0.987392 -0.129721
    outer loop
      vertex 0.996765 -4.89966 0
      vertex 1.11007e-15 -4.9993 0.06135
      vertex 1.10828e-15 -4.99124 0
    endloop
  endfacet
  facet normal 0.0907158 -0.987387 -0.129762
    outer loop
      vertex 1.11007e-15 -4.9993 0.06135
      vertex 0.996765 -4.89966 0
      vertex 1.01714 -4.99983 0.776457
    endloop
  endfacet
  facet normal 0.0845993 -0.920802 -0.380744
    outer loop
      vertex 1.19737e-15 -5.39246 1.5
      vertex 1.13601e-15 -5.11613 0.831716
      vertex 1.07689 -5.29352 1.5
    endloop
  endfacet
  facet normal 0.0845985 -0.920797 -0.380756
    outer loop
      vertex 1.01714 -4.99983 0.776457
      vertex 1.13601e-15 -5.11613 0.831716
      vertex 1.13094e-15 -5.09328 0.776457
    endloop
  endfacet
  facet normal 0.0845997 -0.920802 -0.380745
    outer loop
      vertex 1.13601e-15 -5.11613 0.831716
      vertex 1.01714 -4.99983 0.776457
      vertex 1.07689 -5.29352 1.5
    endloop
  endfacet
  facet normal 0.0727498 -0.791769 -0.606473
    outer loop
      vertex 1.30304e-15 -5.86838 2.12132
      vertex 1.20523e-15 -5.4279 1.54626
      vertex 1.17193 -5.7607 2.12132
    endloop
  endfacet
  facet normal 0.0727397 -0.791719 -0.606539
    outer loop
      vertex 1.07689 -5.29352 1.5
      vertex 1.20523e-15 -5.4279 1.54626
      vertex 1.19737e-15 -5.39246 1.5
    endloop
  endfacet
  facet normal 0.072749 -0.79177 -0.606472
    outer loop
      vertex 1.20523e-15 -5.4279 1.54626
      vertex 1.07689 -5.29352 1.5
      vertex 1.17193 -5.7607 2.12132
    endloop
  endfacet
  facet normal 0.0559085 -0.60848 -0.791597
    outer loop
      vertex 1.44076e-15 -6.48861 2.59808
      vertex 1.31315e-15 -5.91388 2.1563
      vertex 1.29579 -6.36955 2.59808
    endloop
  endfacet
  facet normal 0.0559058 -0.608485 -0.791594
    outer loop
      vertex 1.31315e-15 -5.91388 2.1563
      vertex 1.17193 -5.7607 2.12132
      vertex 1.29579 -6.36955 2.59808
    endloop
  endfacet
  facet normal 0.0559141 -0.608538 -0.791552
    outer loop
      vertex 1.17193 -5.7607 2.12132
      vertex 1.31315e-15 -5.91388 2.1563
      vertex 1.30304e-15 -5.86838 2.12132
    endloop
  endfacet
  facet normal 0.0351923 -0.383025 -0.923067
    outer loop
      vertex 1.60114e-15 -7.21088 2.89778
      vertex 1.45247e-15 -6.54135 2.61996
      vertex 1.44003 -7.07857 2.89778
    endloop
  endfacet
  facet normal 0.0351953 -0.383018 -0.92307
    outer loop
      vertex 1.45247e-15 -6.54135 2.61996
      vertex 1.29579 -6.36955 2.59808
      vertex 1.44003 -7.07857 2.89778
    endloop
  endfacet
  facet normal 0.0351872 -0.38296 -0.923095
    outer loop
      vertex 1.29579 -6.36955 2.59808
      vertex 1.45247e-15 -6.54135 2.61996
      vertex 1.44076e-15 -6.48861 2.59808
    endloop
  endfacet
  facet normal 0.012012 -0.130737 -0.991344
    outer loop
      vertex 1.77324e-15 -7.98597 3
      vertex 1.61375e-15 -7.26766 2.90527
      vertex 1.59482 -7.83944 3
    endloop
  endfacet
  facet normal 0.0120112 -0.13074 -0.991344
    outer loop
      vertex 1.61375e-15 -7.26766 2.90527
      vertex 1.44003 -7.07857 2.89778
      vertex 1.59482 -7.83944 3
    endloop
  endfacet
  facet normal 0.0120152 -0.13077 -0.99134
    outer loop
      vertex 1.44003 -7.07857 2.89778
      vertex 1.61375e-15 -7.26766 2.90527
      vertex 1.60114e-15 -7.21088 2.89778
    endloop
  endfacet
  facet normal -0.0120126 0.130746 -0.991343
    outer loop
      vertex 1.94535e-15 -8.76107 2.89778
      vertex 1.78596e-15 -8.04326 2.99245
      vertex 1.74961 -8.60032 2.89778
    endloop
  endfacet
  facet normal -0.0120153 0.130737 -0.991344
    outer loop
      vertex 1.78596e-15 -8.04326 2.99245
      vertex 1.59482 -7.83944 3
      vertex 1.74961 -8.60032 2.89778
    endloop
  endfacet
  facet normal -0.0120036 0.130647 -0.991356
    outer loop
      vertex 1.59482 -7.83944 3
      vertex 1.78596e-15 -8.04326 2.99245
      vertex 1.77324e-15 -7.98597 3
    endloop
  endfacet
  facet normal -0.0351898 0.383012 -0.923073
    outer loop
      vertex 2.10572e-15 -9.48334 2.59808
      vertex 1.95735e-15 -8.81511 2.87535
      vertex 1.89385 -9.30934 2.59808
    endloop
  endfacet
  facet normal -0.0351875 0.38302 -0.92307
    outer loop
      vertex 1.95735e-15 -8.81511 2.87535
      vertex 1.74961 -8.60032 2.89778
      vertex 1.89385 -9.30934 2.59808
    endloop
  endfacet
  facet normal -0.0351997 0.383115 -0.92303
    outer loop
      vertex 1.74961 -8.60032 2.89778
      vertex 1.95735e-15 -8.81511 2.87535
      vertex 1.94535e-15 -8.76107 2.89778
    endloop
  endfacet
  facet normal -0.0559152 0.60846 -0.791612
    outer loop
      vertex 2.24344e-15 -10.1036 2.12132
      vertex 2.11618e-15 -9.53044 2.56187
      vertex 2.01771 -9.91818 2.12132
    endloop
  endfacet
  facet normal -0.0559041 0.608491 -0.791589
    outer loop
      vertex 2.11618e-15 -9.53044 2.56187
      vertex 1.89385 -9.30934 2.59808
      vertex 2.01771 -9.91818 2.12132
    endloop
  endfacet
  facet normal -0.0559102 0.608538 -0.791553
    outer loop
      vertex 1.89385 -9.30934 2.59808
      vertex 2.11618e-15 -9.53044 2.56187
      vertex 2.10572e-15 -9.48334 2.59808
    endloop
  endfacet
  facet normal -0.0727401 0.791765 -0.606479
    outer loop
      vertex 2.34912e-15 -10.5795 1.5
      vertex 2.2516e-15 -10.1403 2.07338
      vertex 2.11275 -10.3854 1.5
    endloop
  endfacet
  facet normal -0.0727756 0.791933 -0.606256
    outer loop
      vertex 2.01771 -9.91818 2.12132
      vertex 2.2516e-15 -10.1403 2.07338
      vertex 2.24344e-15 -10.1036 2.12132
    endloop
  endfacet
  facet normal -0.0727491 0.791745 -0.606504
    outer loop
      vertex 2.2516e-15 -10.1403 2.07338
      vertex 2.01771 -9.91818 2.12132
      vertex 2.11275 -10.3854 1.5
    endloop
  endfacet
  facet normal -0.0845996 0.920805 -0.380738
    outer loop
      vertex 2.41555e-15 -10.8787 0.776457
      vertex 2.35433e-15 -10.603 1.44323
      vertex 2.1725 -10.6791 0.776457
    endloop
  endfacet
  facet normal -0.0845812 0.920654 -0.381106
    outer loop
      vertex 2.11275 -10.3854 1.5
      vertex 2.35433e-15 -10.603 1.44323
      vertex 2.34912e-15 -10.5795 1.5
    endloop
  endfacet
  facet normal -0.0846053 0.920797 -0.380756
    outer loop
      vertex 2.35433e-15 -10.603 1.44323
      vertex 2.11275 -10.3854 1.5
      vertex 2.1725 -10.6791 0.776457
    endloop
  endfacet
  facet normal -0.0907291 0.987385 -0.129765
    outer loop
      vertex 2.43821e-15 -10.9807 0
      vertex 2.41736e-15 -10.8868 0.714488
      vertex 2.19288 -10.7792 0
    endloop
  endfacet
  facet normal -0.0907251 0.987476 -0.129074
    outer loop
      vertex 2.1725 -10.6791 0.776457
      vertex 2.41736e-15 -10.8868 0.714488
      vertex 2.41555e-15 -10.8787 0.776457
    endloop
  endfacet
  facet normal -0.0907006 0.987399 -0.129675
    outer loop
      vertex 2.41736e-15 -10.8868 0.714488
      vertex 2.1725 -10.6791 0.776457
      vertex 2.19288 -10.7792 0
    endloop
  endfacet
  facet normal 0.302261 -0.944352 -0.129762
    outer loop
      vertex 1.01714 -4.99983 0.776457
      vertex 0.996765 -4.89966 0
      vertex 2.07512 -4.6612 0.776457
    endloop
  endfacet
  facet normal 0.302264 -0.94435 -0.129766
    outer loop
      vertex 2.07512 -4.6612 0.776457
      vertex 0.996765 -4.89966 0
      vertex 2.03355 -4.56781 0
    endloop
  endfacet
  facet normal 0.281885 -0.880667 -0.380745
    outer loop
      vertex 1.07689 -5.29352 1.5
      vertex 1.01714 -4.99983 0.776457
      vertex 2.19701 -4.93499 1.5
    endloop
  endfacet
  facet normal 0.281879 -0.880673 -0.380734
    outer loop
      vertex 2.19701 -4.93499 1.5
      vertex 1.01714 -4.99983 0.776457
      vertex 2.07512 -4.6612 0.776457
    endloop
  endfacet
  facet normal 0.242377 -0.757262 -0.606472
    outer loop
      vertex 1.17193 -5.7607 2.12132
      vertex 1.07689 -5.29352 1.5
      vertex 2.39091 -5.37054 2.12132
    endloop
  endfacet
  facet normal 0.242383 -0.757252 -0.606482
    outer loop
      vertex 2.39091 -5.37054 2.12132
      vertex 1.07689 -5.29352 1.5
      vertex 2.19701 -4.93499 1.5
    endloop
  endfacet
  facet normal 0.186271 -0.581964 -0.791594
    outer loop
      vertex 1.29579 -6.36955 2.59808
      vertex 1.17193 -5.7607 2.12132
      vertex 2.64361 -5.93815 2.59808
    endloop
  endfacet
  facet normal 0.18627 -0.581965 -0.791593
    outer loop
      vertex 2.64361 -5.93815 2.59808
      vertex 1.17193 -5.7607 2.12132
      vertex 2.39091 -5.37054 2.12132
    endloop
  endfacet
  facet normal 0.11725 -0.366325 -0.92307
    outer loop
      vertex 1.44003 -7.07857 2.89778
      vertex 1.29579 -6.36955 2.59808
      vertex 2.93788 -6.59915 2.89778
    endloop
  endfacet
  facet normal 0.117251 -0.366325 -0.92307
    outer loop
      vertex 2.93788 -6.59915 2.89778
      vertex 1.29579 -6.36955 2.59808
      vertex 2.64361 -5.93815 2.59808
    endloop
  endfacet
  facet normal 0.0400221 -0.125041 -0.991344
    outer loop
      vertex 1.59482 -7.83944 3
      vertex 1.44003 -7.07857 2.89778
      vertex 3.25367 -7.30849 3
    endloop
  endfacet
  facet normal 0.0400221 -0.125041 -0.991344
    outer loop
      vertex 3.25367 -7.30849 3
      vertex 1.44003 -7.07857 2.89778
      vertex 2.93788 -6.59915 2.89778
    endloop
  endfacet
  facet normal -0.0400222 0.12504 -0.991344
    outer loop
      vertex 1.74961 -8.60032 2.89778
      vertex 1.59482 -7.83944 3
      vertex 3.56946 -8.01783 2.89778
    endloop
  endfacet
  facet normal -0.040022 0.125041 -0.991344
    outer loop
      vertex 3.56946 -8.01783 2.89778
      vertex 1.59482 -7.83944 3
      vertex 3.25367 -7.30849 3
    endloop
  endfacet
  facet normal -0.117253 0.366325 -0.92307
    outer loop
      vertex 1.89385 -9.30934 2.59808
      vertex 1.74961 -8.60032 2.89778
      vertex 3.86373 -8.67882 2.59808
    endloop
  endfacet
  facet normal -0.117253 0.366329 -0.923068
    outer loop
      vertex 3.86373 -8.67882 2.59808
      vertex 1.74961 -8.60032 2.89778
      vertex 3.56946 -8.01783 2.89778
    endloop
  endfacet
  facet normal -0.186272 0.58197 -0.791589
    outer loop
      vertex 2.01771 -9.91818 2.12132
      vertex 1.89385 -9.30934 2.59808
      vertex 4.11643 -9.24644 2.12132
    endloop
  endfacet
  facet normal -0.186273 0.581958 -0.791598
    outer loop
      vertex 4.11643 -9.24644 2.12132
      vertex 1.89385 -9.30934 2.59808
      vertex 3.86373 -8.67882 2.59808
    endloop
  endfacet
  facet normal -0.242382 0.757236 -0.606502
    outer loop
      vertex 2.11275 -10.3854 1.5
      vertex 2.01771 -9.91818 2.12132
      vertex 4.31033 -9.68198 1.5
    endloop
  endfacet
  facet normal -0.242377 0.75726 -0.606473
    outer loop
      vertex 4.31033 -9.68198 1.5
      vertex 2.01771 -9.91818 2.12132
      vertex 4.11643 -9.24644 2.12132
    endloop
  endfacet
  facet normal -0.281893 0.88066 -0.380755
    outer loop
      vertex 2.1725 -10.6791 0.776457
      vertex 2.11275 -10.3854 1.5
      vertex 4.43222 -9.95578 0.776457
    endloop
  endfacet
  facet normal -0.281891 0.880665 -0.380745
    outer loop
      vertex 4.43222 -9.95578 0.776457
      vertex 2.11275 -10.3854 1.5
      vertex 4.31033 -9.68198 1.5
    endloop
  endfacet
  facet normal -0.302243 0.944369 -0.12968
    outer loop
      vertex 2.19288 -10.7792 0
      vertex 2.1725 -10.6791 0.776457
      vertex 4.47379 -10.0492 0
    endloop
  endfacet
  facet normal -0.302277 0.944341 -0.129802
    outer loop
      vertex 4.47379 -10.0492 0
      vertex 2.1725 -10.6791 0.776457
      vertex 4.43222 -9.95578 0.776457
    endloop
  endfacet
  facet normal 0.499482 -0.85655 -0.129765
    outer loop
      vertex 2.07512 -4.6612 0.776457
      vertex 2.03355 -4.56781 0
      vertex 3.03473 -4.10162 0.776457
    endloop
  endfacet
  facet normal 0.499485 -0.856548 -0.129769
    outer loop
      vertex 3.03473 -4.10162 0.776457
      vertex 2.03355 -4.56781 0
      vertex 2.97393 -4.01944 0
    endloop
  endfacet
  facet normal 0.465801 -0.798793 -0.380735
    outer loop
      vertex 2.19701 -4.93499 1.5
      vertex 2.07512 -4.6612 0.776457
      vertex 3.21299 -4.34254 1.5
    endloop
  endfacet
  facet normal 0.465802 -0.798792 -0.380736
    outer loop
      vertex 3.21299 -4.34254 1.5
      vertex 2.07512 -4.6612 0.776457
      vertex 3.03473 -4.10162 0.776457
    endloop
  endfacet
  facet normal 0.400524 -0.686849 -0.606481
    outer loop
      vertex 2.39091 -5.37054 2.12132
      vertex 2.19701 -4.93499 1.5
      vertex 3.49656 -4.7258 2.12132
    endloop
  endfacet
  facet normal 0.400524 -0.68685 -0.60648
    outer loop
      vertex 3.49656 -4.7258 2.12132
      vertex 2.19701 -4.93499 1.5
      vertex 3.21299 -4.34254 1.5
    endloop
  endfacet
  facet normal 0.30781 -0.527856 -0.791594
    outer loop
      vertex 2.64361 -5.93815 2.59808
      vertex 2.39091 -5.37054 2.12132
      vertex 3.86611 -5.22527 2.59808
    endloop
  endfacet
  facet normal 0.30781 -0.527857 -0.791593
    outer loop
      vertex 3.86611 -5.22527 2.59808
      vertex 2.39091 -5.37054 2.12132
      vertex 3.49656 -4.7258 2.12132
    endloop
  endfacet
  facet normal 0.193755 -0.332266 -0.92307
    outer loop
      vertex 2.93788 -6.59915 2.89778
      vertex 2.64361 -5.93815 2.59808
      vertex 4.29646 -5.80692 2.89778
    endloop
  endfacet
  facet normal 0.193755 -0.332265 -0.92307
    outer loop
      vertex 4.29646 -5.80692 2.89778
      vertex 2.64361 -5.93815 2.59808
      vertex 3.86611 -5.22527 2.59808
    endloop
  endfacet
  facet normal 0.066136 -0.113415 -0.991344
    outer loop
      vertex 3.25367 -7.30849 3
      vertex 2.93788 -6.59915 2.89778
      vertex 4.75829 -6.4311 3
    endloop
  endfacet
  facet normal 0.066136 -0.113415 -0.991344
    outer loop
      vertex 4.75829 -6.4311 3
      vertex 2.93788 -6.59915 2.89778
      vertex 4.29646 -5.80692 2.89778
    endloop
  endfacet
  facet normal -0.0661363 0.113415 -0.991344
    outer loop
      vertex 3.56946 -8.01783 2.89778
      vertex 3.25367 -7.30849 3
      vertex 5.22011 -7.05528 2.89778
    endloop
  endfacet
  facet normal -0.0661364 0.113416 -0.991344
    outer loop
      vertex 5.22011 -7.05528 2.89778
      vertex 3.25367 -7.30849 3
      vertex 4.75829 -6.4311 3
    endloop
  endfacet
  facet normal -0.193756 0.33227 -0.923068
    outer loop
      vertex 3.86373 -8.67882 2.59808
      vertex 3.56946 -8.01783 2.89778
      vertex 5.65046 -7.63693 2.59808
    endloop
  endfacet
  facet normal -0.193755 0.332265 -0.923071
    outer loop
      vertex 5.65046 -7.63693 2.59808
      vertex 3.56946 -8.01783 2.89778
      vertex 5.22011 -7.05528 2.89778
    endloop
  endfacet
  facet normal -0.307806 0.527852 -0.791598
    outer loop
      vertex 4.11643 -9.24644 2.12132
      vertex 3.86373 -8.67882 2.59808
      vertex 6.02002 -8.1364 2.12132
    endloop
  endfacet
  facet normal -0.307807 0.527856 -0.791596
    outer loop
      vertex 6.02002 -8.1364 2.12132
      vertex 3.86373 -8.67882 2.59808
      vertex 5.65046 -7.63693 2.59808
    endloop
  endfacet
  facet normal -0.400527 0.686853 -0.606474
    outer loop
      vertex 4.31033 -9.68198 1.5
      vertex 4.11643 -9.24644 2.12132
      vertex 6.30358 -8.51965 1.5
    endloop
  endfacet
  facet normal -0.400527 0.686857 -0.606469
    outer loop
      vertex 6.30358 -8.51965 1.5
      vertex 4.11643 -9.24644 2.12132
      vertex 6.02002 -8.1364 2.12132
    endloop
  endfacet
  facet normal -0.4658 0.798789 -0.380744
    outer loop
      vertex 4.43222 -9.95578 0.776457
      vertex 4.31033 -9.68198 1.5
      vertex 6.48184 -8.76058 0.776457
    endloop
  endfacet
  facet normal -0.4658 0.798789 -0.380745
    outer loop
      vertex 6.48184 -8.76058 0.776457
      vertex 4.31033 -9.68198 1.5
      vertex 6.30358 -8.51965 1.5
    endloop
  endfacet
  facet normal -0.499488 0.856542 -0.129797
    outer loop
      vertex 4.47379 -10.0492 0
      vertex 4.43222 -9.95578 0.776457
      vertex 6.54264 -8.84276 0
    endloop
  endfacet
  facet normal -0.499482 0.85655 -0.129769
    outer loop
      vertex 6.54264 -8.84276 0
      vertex 4.43222 -9.95578 0.776457
      vertex 6.48184 -8.76058 0.776457
    endloop
  endfacet
  facet normal 0.673018 -0.728153 -0.129768
    outer loop
      vertex 3.03473 -4.10162 0.776457
      vertex 2.97393 -4.01944 0
      vertex 3.8505 -3.34762 0.776457
    endloop
  endfacet
  facet normal 0.673019 -0.728152 -0.12977
    outer loop
      vertex 3.8505 -3.34762 0.776457
      vertex 2.97393 -4.01944 0
      vertex 3.77335 -3.28055 0
    endloop
  endfacet
  facet normal 0.627639 -0.67905 -0.380737
    outer loop
      vertex 3.21299 -4.34254 1.5
      vertex 3.03473 -4.10162 0.776457
      vertex 4.07667 -3.54425 1.5
    endloop
  endfacet
  facet normal 0.627637 -0.679055 -0.380731
    outer loop
      vertex 4.07667 -3.54425 1.5
      vertex 3.03473 -4.10162 0.776457
      vertex 3.8505 -3.34762 0.776457
    endloop
  endfacet
  facet normal 0.539678 -0.583891 -0.606481
    outer loop
      vertex 3.49656 -4.7258 2.12132
      vertex 3.21299 -4.34254 1.5
      vertex 4.43647 -3.85706 2.12132
    endloop
  endfacet
  facet normal 0.539679 -0.583885 -0.606486
    outer loop
      vertex 4.43647 -3.85706 2.12132
      vertex 3.21299 -4.34254 1.5
      vertex 4.07667 -3.54425 1.5
    endloop
  endfacet
  facet normal 0.414754 -0.448731 -0.791593
    outer loop
      vertex 3.86611 -5.22527 2.59808
      vertex 3.49656 -4.7258 2.12132
      vertex 4.90536 -4.26471 2.59808
    endloop
  endfacet
  facet normal 0.414754 -0.448732 -0.791592
    outer loop
      vertex 4.90536 -4.26471 2.59808
      vertex 3.49656 -4.7258 2.12132
      vertex 4.43647 -3.85706 2.12132
    endloop
  endfacet
  facet normal 0.261073 -0.282458 -0.92307
    outer loop
      vertex 4.29646 -5.80692 2.89778
      vertex 3.86611 -5.22527 2.59808
      vertex 5.45139 -4.73943 2.89778
    endloop
  endfacet
  facet normal 0.261073 -0.282461 -0.923069
    outer loop
      vertex 5.45139 -4.73943 2.89778
      vertex 3.86611 -5.22527 2.59808
      vertex 4.90536 -4.26471 2.59808
    endloop
  endfacet
  facet normal 0.0891142 -0.0964138 -0.991344
    outer loop
      vertex 4.75829 -6.4311 3
      vertex 4.29646 -5.80692 2.89778
      vertex 6.03736 -5.24887 3
    endloop
  endfacet
  facet normal 0.0891142 -0.0964137 -0.991344
    outer loop
      vertex 6.03736 -5.24887 3
      vertex 4.29646 -5.80692 2.89778
      vertex 5.45139 -4.73943 2.89778
    endloop
  endfacet
  facet normal -0.0891145 0.096415 -0.991344
    outer loop
      vertex 5.22011 -7.05528 2.89778
      vertex 4.75829 -6.4311 3
      vertex 6.62333 -5.75831 2.89778
    endloop
  endfacet
  facet normal -0.0891141 0.0964137 -0.991344
    outer loop
      vertex 6.62333 -5.75831 2.89778
      vertex 4.75829 -6.4311 3
      vertex 6.03736 -5.24887 3
    endloop
  endfacet
  facet normal -0.261072 0.282458 -0.92307
    outer loop
      vertex 5.65046 -7.63693 2.59808
      vertex 5.22011 -7.05528 2.89778
      vertex 7.16936 -6.23303 2.59808
    endloop
  endfacet
  facet normal -0.261073 0.282461 -0.923069
    outer loop
      vertex 7.16936 -6.23303 2.59808
      vertex 5.22011 -7.05528 2.89778
      vertex 6.62333 -5.75831 2.89778
    endloop
  endfacet
  facet normal -0.414754 0.448725 -0.791596
    outer loop
      vertex 6.02002 -8.1364 2.12132
      vertex 5.65046 -7.63693 2.59808
      vertex 7.63825 -6.64068 2.12132
    endloop
  endfacet
  facet normal -0.414756 0.44873 -0.791593
    outer loop
      vertex 7.63825 -6.64068 2.12132
      vertex 5.65046 -7.63693 2.59808
      vertex 7.16936 -6.23303 2.59808
    endloop
  endfacet
  facet normal -0.539685 0.583896 -0.606469
    outer loop
      vertex 6.30358 -8.51965 1.5
      vertex 6.02002 -8.1364 2.12132
      vertex 7.99804 -6.95349 1.5
    endloop
  endfacet
  facet normal -0.539683 0.583887 -0.60648
    outer loop
      vertex 7.99804 -6.95349 1.5
      vertex 6.02002 -8.1364 2.12132
      vertex 7.63825 -6.64068 2.12132
    endloop
  endfacet
  facet normal -0.627636 0.679048 -0.380745
    outer loop
      vertex 6.48184 -8.76058 0.776457
      vertex 6.30358 -8.51965 1.5
      vertex 8.22422 -7.15012 0.776457
    endloop
  endfacet
  facet normal -0.627636 0.679052 -0.380738
    outer loop
      vertex 8.22422 -7.15012 0.776457
      vertex 6.30358 -8.51965 1.5
      vertex 7.99804 -6.95349 1.5
    endloop
  endfacet
  facet normal -0.673022 0.728149 -0.129768
    outer loop
      vertex 6.54264 -8.84276 0
      vertex 6.48184 -8.76058 0.776457
      vertex 8.30136 -7.21719 0
    endloop
  endfacet
  facet normal -0.673021 0.728151 -0.129761
    outer loop
      vertex 8.30136 -7.21719 0
      vertex 6.48184 -8.76058 0.776457
      vertex 8.22422 -7.15012 0.776457
    endloop
  endfacet
  facet normal 0.814661 -0.565232 -0.12977
    outer loop
      vertex 3.8505 -3.34762 0.776457
      vertex 3.77335 -3.28055 0
      vertex 4.48374 -2.43494 0.776457
    endloop
  endfacet
  facet normal 0.81466 -0.565234 -0.129767
    outer loop
      vertex 4.48374 -2.43494 0.776457
      vertex 3.77335 -3.28055 0
      vertex 4.39391 -2.38615 0
    endloop
  endfacet
  facet normal 0.759724 -0.527127 -0.380732
    outer loop
      vertex 4.07667 -3.54425 1.5
      vertex 3.8505 -3.34762 0.776457
      vertex 4.74712 -2.57796 1.5
    endloop
  endfacet
  facet normal 0.759725 -0.527116 -0.380744
    outer loop
      vertex 4.74712 -2.57796 1.5
      vertex 3.8505 -3.34762 0.776457
      vertex 4.48374 -2.43494 0.776457
    endloop
  endfacet
  facet normal 0.653257 -0.453245 -0.606485
    outer loop
      vertex 4.43647 -3.85706 2.12132
      vertex 4.07667 -3.54425 1.5
      vertex 5.16608 -2.80548 2.12132
    endloop
  endfacet
  facet normal 0.653259 -0.453257 -0.606474
    outer loop
      vertex 5.16608 -2.80548 2.12132
      vertex 4.07667 -3.54425 1.5
      vertex 4.74712 -2.57796 1.5
    endloop
  endfacet
  facet normal 0.502042 -0.348331 -0.791593
    outer loop
      vertex 4.90536 -4.26471 2.59808
      vertex 4.43647 -3.85706 2.12132
      vertex 5.71208 -3.102 2.59808
    endloop
  endfacet
  facet normal 0.502041 -0.348328 -0.791595
    outer loop
      vertex 5.71208 -3.102 2.59808
      vertex 4.43647 -3.85706 2.12132
      vertex 5.16608 -2.80548 2.12132
    endloop
  endfacet
  facet normal 0.316017 -0.219264 -0.923069
    outer loop
      vertex 5.45139 -4.73943 2.89778
      vertex 4.90536 -4.26471 2.59808
      vertex 6.34792 -3.44729 2.89778
    endloop
  endfacet
  facet normal 0.316016 -0.219261 -0.92307
    outer loop
      vertex 6.34792 -3.44729 2.89778
      vertex 4.90536 -4.26471 2.59808
      vertex 5.71208 -3.102 2.59808
    endloop
  endfacet
  facet normal 0.107868 -0.0748422 -0.991344
    outer loop
      vertex 6.03736 -5.24887 3
      vertex 5.45139 -4.73943 2.89778
      vertex 7.03025 -3.81784 3
    endloop
  endfacet
  facet normal 0.107869 -0.074843 -0.991344
    outer loop
      vertex 7.03025 -3.81784 3
      vertex 5.45139 -4.73943 2.89778
      vertex 6.34792 -3.44729 2.89778
    endloop
  endfacet
  facet normal -0.107868 0.0748423 -0.991344
    outer loop
      vertex 6.62333 -5.75831 2.89778
      vertex 6.03736 -5.24887 3
      vertex 7.71259 -4.18839 2.89778
    endloop
  endfacet
  facet normal -0.107868 0.0748418 -0.991344
    outer loop
      vertex 7.71259 -4.18839 2.89778
      vertex 6.03736 -5.24887 3
      vertex 7.03025 -3.81784 3
    endloop
  endfacet
  facet normal -0.316018 0.219263 -0.923069
    outer loop
      vertex 7.16936 -6.23303 2.59808
      vertex 6.62333 -5.75831 2.89778
      vertex 8.34842 -4.53368 2.59808
    endloop
  endfacet
  facet normal -0.316019 0.219264 -0.923069
    outer loop
      vertex 8.34842 -4.53368 2.59808
      vertex 6.62333 -5.75831 2.89778
      vertex 7.71259 -4.18839 2.89778
    endloop
  endfacet
  facet normal -0.502042 0.348331 -0.791593
    outer loop
      vertex 7.63825 -6.64068 2.12132
      vertex 7.16936 -6.23303 2.59808
      vertex 8.89442 -4.83019 2.12132
    endloop
  endfacet
  facet normal -0.502043 0.348332 -0.791592
    outer loop
      vertex 8.89442 -4.83019 2.12132
      vertex 7.16936 -6.23303 2.59808
      vertex 8.34842 -4.53368 2.59808
    endloop
  endfacet
  facet normal -0.653258 0.453252 -0.606479
    outer loop
      vertex 7.99804 -6.95349 1.5
      vertex 7.63825 -6.64068 2.12132
      vertex 9.31339 -5.05772 1.5
    endloop
  endfacet
  facet normal -0.653255 0.453247 -0.606486
    outer loop
      vertex 9.31339 -5.05772 1.5
      vertex 7.63825 -6.64068 2.12132
      vertex 8.89442 -4.83019 2.12132
    endloop
  endfacet
  facet normal -0.759724 0.52712 -0.38074
    outer loop
      vertex 8.22422 -7.15012 0.776457
      vertex 7.99804 -6.95349 1.5
      vertex 9.57676 -5.20074 0.776457
    endloop
  endfacet
  facet normal -0.759725 0.527123 -0.380735
    outer loop
      vertex 9.57676 -5.20074 0.776457
      vertex 7.99804 -6.95349 1.5
      vertex 9.31339 -5.05772 1.5
    endloop
  endfacet
  facet normal -0.814658 0.565238 -0.12976
    outer loop
      vertex 8.30136 -7.21719 0
      vertex 8.22422 -7.15012 0.776457
      vertex 9.66659 -5.24953 0
    endloop
  endfacet
  facet normal -0.814659 0.565236 -0.129767
    outer loop
      vertex 9.66659 -5.24953 0
      vertex 8.22422 -7.15012 0.776457
      vertex 9.57676 -5.20074 0.776457
    endloop
  endfacet
  facet normal 0.917679 -0.375534 -0.129766
    outer loop
      vertex 4.48374 -2.43494 0.776457
      vertex 4.39391 -2.38615 0
      vertex 4.90446 -1.40684 0.776457
    endloop
  endfacet
  facet normal 0.917679 -0.375534 -0.129766
    outer loop
      vertex 4.90446 -1.40684 0.776457
      vertex 4.39391 -2.38615 0
      vertex 4.8062 -1.37865 0
    endloop
  endfacet
  facet normal 0.855799 -0.350201 -0.380746
    outer loop
      vertex 4.74712 -2.57796 1.5
      vertex 4.48374 -2.43494 0.776457
      vertex 5.19254 -1.48947 1.5
    endloop
  endfacet
  facet normal 0.8558 -0.350211 -0.380733
    outer loop
      vertex 5.19254 -1.48947 1.5
      vertex 4.48374 -2.43494 0.776457
      vertex 4.90446 -1.40684 0.776457
    endloop
  endfacet
  facet normal 0.735872 -0.301133 -0.606474
    outer loop
      vertex 5.16608 -2.80548 2.12132
      vertex 4.74712 -2.57796 1.5
      vertex 5.65082 -1.62093 2.12132
    endloop
  endfacet
  facet normal 0.735869 -0.301124 -0.606483
    outer loop
      vertex 5.65082 -1.62093 2.12132
      vertex 4.74712 -2.57796 1.5
      vertex 5.19254 -1.48947 1.5
    endloop
  endfacet
  facet normal 0.565529 -0.231422 -0.791594
    outer loop
      vertex 5.71208 -3.102 2.59808
      vertex 5.16608 -2.80548 2.12132
      vertex 6.24805 -1.79224 2.59808
    endloop
  endfacet
  facet normal 0.565532 -0.231426 -0.79159
    outer loop
      vertex 6.24805 -1.79224 2.59808
      vertex 5.16608 -2.80548 2.12132
      vertex 5.65082 -1.62093 2.12132
    endloop
  endfacet
  facet normal 0.355978 -0.145672 -0.923071
    outer loop
      vertex 6.34792 -3.44729 2.89778
      vertex 5.71208 -3.102 2.59808
      vertex 6.94355 -1.99175 2.89778
    endloop
  endfacet
  facet normal 0.355977 -0.14567 -0.923071
    outer loop
      vertex 6.94355 -1.99175 2.89778
      vertex 5.71208 -3.102 2.59808
      vertex 6.24805 -1.79224 2.59808
    endloop
  endfacet
  facet normal 0.12151 -0.0497235 -0.991344
    outer loop
      vertex 7.03025 -3.81784 3
      vertex 6.34792 -3.44729 2.89778
      vertex 7.6899 -2.20584 3
    endloop
  endfacet
  facet normal 0.121511 -0.0497242 -0.991344
    outer loop
      vertex 7.6899 -2.20584 3
      vertex 6.34792 -3.44729 2.89778
      vertex 6.94355 -1.99175 2.89778
    endloop
  endfacet
  facet normal -0.121509 0.0497226 -0.991344
    outer loop
      vertex 7.71259 -4.18839 2.89778
      vertex 7.03025 -3.81784 3
      vertex 8.43626 -2.41993 2.89778
    endloop
  endfacet
  facet normal -0.12151 0.0497232 -0.991344
    outer loop
      vertex 8.43626 -2.41993 2.89778
      vertex 7.03025 -3.81784 3
      vertex 7.6899 -2.20584 3
    endloop
  endfacet
  facet normal -0.355982 0.145673 -0.923069
    outer loop
      vertex 8.34842 -4.53368 2.59808
      vertex 7.71259 -4.18839 2.89778
      vertex 9.13176 -2.61943 2.59808
    endloop
  endfacet
  facet normal -0.355979 0.14567 -0.923071
    outer loop
      vertex 9.13176 -2.61943 2.59808
      vertex 7.71259 -4.18839 2.89778
      vertex 8.43626 -2.41993 2.89778
    endloop
  endfacet
  facet normal -0.565531 0.231424 -0.791592
    outer loop
      vertex 8.89442 -4.83019 2.12132
      vertex 8.34842 -4.53368 2.59808
      vertex 9.72899 -2.79075 2.12132
    endloop
  endfacet
  facet normal -0.565531 0.231424 -0.791592
    outer loop
      vertex 9.72899 -2.79075 2.12132
      vertex 8.34842 -4.53368 2.59808
      vertex 9.13176 -2.61943 2.59808
    endloop
  endfacet
  facet normal -0.735863 0.301134 -0.606485
    outer loop
      vertex 9.31339 -5.05772 1.5
      vertex 8.89442 -4.83019 2.12132
      vertex 10.1873 -2.9222 1.5
    endloop
  endfacet
  facet normal -0.735854 0.301123 -0.606502
    outer loop
      vertex 10.1873 -2.9222 1.5
      vertex 8.89442 -4.83019 2.12132
      vertex 9.72899 -2.79075 2.12132
    endloop
  endfacet
  facet normal -0.855809 0.350188 -0.380735
    outer loop
      vertex 9.57676 -5.20074 0.776457
      vertex 9.31339 -5.05772 1.5
      vertex 10.4753 -3.00484 0.776457
    endloop
  endfacet
  facet normal -0.855828 0.350227 -0.380656
    outer loop
      vertex 10.4753 -3.00484 0.776457
      vertex 9.31339 -5.05772 1.5
      vertex 10.1873 -2.9222 1.5
    endloop
  endfacet
  facet normal -0.917683 0.375524 -0.129765
    outer loop
      vertex 9.66659 -5.24953 0
      vertex 9.57676 -5.20074 0.776457
      vertex 10.5736 -3.03303 0
    endloop
  endfacet
  facet normal -0.917684 0.375507 -0.129813
    outer loop
      vertex 10.5736 -3.03303 0
      vertex 9.57676 -5.20074 0.776457
      vertex 10.4753 -3.00484 0.776457
    endloop
  endfacet
  facet normal 0.977206 -0.168014 -0.129765
    outer loop
      vertex 4.90446 -1.40684 0.776457
      vertex 4.8062 -1.37865 0
      vertex 5.09269 -0.312052 0.776457
    endloop
  endfacet
  facet normal 0.977206 -0.168015 -0.129762
    outer loop
      vertex 5.09269 -0.312052 0.776457
      vertex 4.8062 -1.37865 0
      vertex 4.99066 -0.305799 0
    endloop
  endfacet
  facet normal 0.911312 -0.156688 -0.380735
    outer loop
      vertex 5.19254 -1.48947 1.5
      vertex 4.90446 -1.40684 0.776457
      vertex 5.39183 -0.330381 1.5
    endloop
  endfacet
  facet normal 0.911311 -0.156684 -0.380739
    outer loop
      vertex 5.39183 -0.330381 1.5
      vertex 4.90446 -1.40684 0.776457
      vertex 5.09269 -0.312052 0.776457
    endloop
  endfacet
  facet normal 0.783599 -0.13473 -0.606482
    outer loop
      vertex 5.65082 -1.62093 2.12132
      vertex 5.19254 -1.48947 1.5
      vertex 5.8677 -0.35954 2.12132
    endloop
  endfacet
  facet normal 0.783599 -0.134729 -0.606482
    outer loop
      vertex 5.8677 -0.35954 2.12132
      vertex 5.19254 -1.48947 1.5
      vertex 5.39183 -0.330381 1.5
    endloop
  endfacet
  facet normal 0.602215 -0.103543 -0.791591
    outer loop
      vertex 6.24805 -1.79224 2.59808
      vertex 5.65082 -1.62093 2.12132
      vertex 6.48785 -0.39754 2.59808
    endloop
  endfacet
  facet normal 0.602216 -0.103543 -0.79159
    outer loop
      vertex 6.48785 -0.39754 2.59808
      vertex 5.65082 -1.62093 2.12132
      vertex 5.8677 -0.35954 2.12132
    endloop
  endfacet
  facet normal 0.379067 -0.0651745 -0.923071
    outer loop
      vertex 6.94355 -1.99175 2.89778
      vertex 6.24805 -1.79224 2.59808
      vertex 7.21004 -0.441792 2.89778
    endloop
  endfacet
  facet normal 0.379069 -0.0651759 -0.92307
    outer loop
      vertex 7.21004 -0.441792 2.89778
      vertex 6.24805 -1.79224 2.59808
      vertex 6.48785 -0.39754 2.59808
    endloop
  endfacet
  facet normal 0.129393 -0.0222474 -0.991344
    outer loop
      vertex 7.6899 -2.20584 3
      vertex 6.94355 -1.99175 2.89778
      vertex 7.98504 -0.48928 3
    endloop
  endfacet
  facet normal 0.129392 -0.0222468 -0.991344
    outer loop
      vertex 7.98504 -0.48928 3
      vertex 6.94355 -1.99175 2.89778
      vertex 7.21004 -0.441792 2.89778
    endloop
  endfacet
  facet normal -0.129391 0.0222474 -0.991344
    outer loop
      vertex 8.43626 -2.41993 2.89778
      vertex 7.6899 -2.20584 3
      vertex 8.76005 -0.536767 2.89778
    endloop
  endfacet
  facet normal -0.12939 0.022247 -0.991344
    outer loop
      vertex 8.76005 -0.536767 2.89778
      vertex 7.6899 -2.20584 3
      vertex 7.98504 -0.48928 3
    endloop
  endfacet
  facet normal -0.379068 0.0651761 -0.923071
    outer loop
      vertex 9.13176 -2.61943 2.59808
      vertex 8.43626 -2.41993 2.89778
      vertex 9.48224 -0.581019 2.59808
    endloop
  endfacet
  facet normal -0.379069 0.0651769 -0.92307
    outer loop
      vertex 9.48224 -0.581019 2.59808
      vertex 8.43626 -2.41993 2.89778
      vertex 8.76005 -0.536767 2.89778
    endloop
  endfacet
  facet normal -0.602213 0.103545 -0.791592
    outer loop
      vertex 9.72899 -2.79075 2.12132
      vertex 9.13176 -2.61943 2.59808
      vertex 10.1024 -0.619019 2.12132
    endloop
  endfacet
  facet normal -0.602209 0.103543 -0.791595
    outer loop
      vertex 10.1024 -0.619019 2.12132
      vertex 9.13176 -2.61943 2.59808
      vertex 9.48224 -0.581019 2.59808
    endloop
  endfacet
  facet normal -0.783581 0.134731 -0.606505
    outer loop
      vertex 10.1873 -2.9222 1.5
      vertex 9.72899 -2.79075 2.12132
      vertex 10.5783 -0.648177 1.5
    endloop
  endfacet
  facet normal -0.78358 0.13473 -0.606506
    outer loop
      vertex 10.5783 -0.648177 1.5
      vertex 9.72899 -2.79075 2.12132
      vertex 10.1024 -0.619019 2.12132
    endloop
  endfacet
  facet normal -0.911343 0.156715 -0.380651
    outer loop
      vertex 10.4753 -3.00484 0.776457
      vertex 10.1873 -2.9222 1.5
      vertex 10.8774 -0.666507 0.776457
    endloop
  endfacet
  facet normal -0.911327 0.156695 -0.380696
    outer loop
      vertex 10.8774 -0.666507 0.776457
      vertex 10.1873 -2.9222 1.5
      vertex 10.5783 -0.648177 1.5
    endloop
  endfacet
  facet normal -0.977201 0.16801 -0.129814
    outer loop
      vertex 10.5736 -3.03303 0
      vertex 10.4753 -3.00484 0.776457
      vertex 10.9794 -0.672759 0
    endloop
  endfacet
  facet normal -0.977207 0.168041 -0.129725
    outer loop
      vertex 10.9794 -0.672759 0
      vertex 10.4753 -3.00484 0.776457
      vertex 10.8774 -0.666507 0.776457
    endloop
  endfacet
  facet normal 0.990403 0.0474497 -0.129806
    outer loop
      vertex 5.09269 -0.312052 0.776457
      vertex 5.03552 0.707042 0.71278
      vertex 5.04381 0.708205 0.776457
    endloop
  endfacet
  facet normal 0.990409 0.0474528 -0.129762
    outer loop
      vertex 5.03552 0.707042 0.71278
      vertex 5.09269 -0.312052 0.776457
      vertex 4.99066 -0.305799 0
    endloop
  endfacet
  facet normal 0.99041 0.0474494 -0.129757
    outer loop
      vertex 4.99066 -0.305799 0
      vertex 4.94276 0.694016 0
      vertex 5.03552 0.707042 0.71278
    endloop
  endfacet
  facet normal 0.92364 0.0442502 -0.380697
    outer loop
      vertex 5.39183 -0.330381 1.5
      vertex 5.31495 0.746276 1.43862
      vertex 5.34008 0.749804 1.5
    endloop
  endfacet
  facet normal 0.923623 0.0442465 -0.38074
    outer loop
      vertex 5.31495 0.746276 1.43862
      vertex 5.39183 -0.330381 1.5
      vertex 5.09269 -0.312052 0.776457
    endloop
  endfacet
  facet normal 0.923621 0.0442502 -0.380745
    outer loop
      vertex 5.09269 -0.312052 0.776457
      vertex 5.04381 0.708205 0.776457
      vertex 5.31495 0.746276 1.43862
    endloop
  endfacet
  facet normal 0.794254 0.0380601 -0.606393
    outer loop
      vertex 5.8677 -0.35954 2.12132
      vertex 5.77038 0.810223 2.06727
      vertex 5.81137 0.815979 2.12132
    endloop
  endfacet
  facet normal 0.794186 0.0380503 -0.606483
    outer loop
      vertex 5.77038 0.810223 2.06727
      vertex 5.8677 -0.35954 2.12132
      vertex 5.39183 -0.330381 1.5
    endloop
  endfacet
  facet normal 0.794188 0.0380483 -0.60648
    outer loop
      vertex 5.39183 -0.330381 1.5
      vertex 5.34008 0.749804 1.5
      vertex 5.77038 0.810223 2.06727
    endloop
  endfacet
  facet normal 0.610356 0.0292415 -0.791587
    outer loop
      vertex 6.48785 -0.39754 2.59808
      vertex 6.37137 0.894609 2.556
      vertex 6.42558 0.90222 2.59808
    endloop
  endfacet
  facet normal 0.610352 0.029241 -0.79159
    outer loop
      vertex 6.37137 0.894609 2.556
      vertex 6.48785 -0.39754 2.59808
      vertex 5.8677 -0.35954 2.12132
    endloop
  endfacet
  facet normal 0.610343 0.0292472 -0.791597
    outer loop
      vertex 5.8677 -0.35954 2.12132
      vertex 5.81137 0.815979 2.12132
      vertex 6.37137 0.894609 2.556
    endloop
  endfacet
  facet normal 0.38427 0.0184122 -0.923037
    outer loop
      vertex 7.21004 -0.441792 2.89778
      vertex 7.07741 0.993746 2.8712
      vertex 7.14083 1.00265 2.89778
    endloop
  endfacet
  facet normal 0.384191 0.0184042 -0.92307
    outer loop
      vertex 7.07741 0.993746 2.8712
      vertex 7.21004 -0.441792 2.89778
      vertex 6.48785 -0.39754 2.59808
    endloop
  endfacet
  facet normal 0.384187 0.018406 -0.923072
    outer loop
      vertex 6.48785 -0.39754 2.59808
      vertex 6.42558 0.90222 2.59808
      vertex 7.07741 0.993746 2.8712
    endloop
  endfacet
  facet normal 0.131199 0.0062856 -0.991336
    outer loop
      vertex 7.98504 -0.48928 3
      vertex 7.84055 1.1009 2.99096
      vertex 7.9084 1.11042 3
    endloop
  endfacet
  facet normal 0.13114 0.0062802 -0.991344
    outer loop
      vertex 7.84055 1.1009 2.99096
      vertex 7.98504 -0.48928 3
      vertex 7.21004 -0.441792 2.89778
    endloop
  endfacet
  facet normal 0.131133 0.00628319 -0.991345
    outer loop
      vertex 7.21004 -0.441792 2.89778
      vertex 7.14083 1.00265 2.89778
      vertex 7.84055 1.1009 2.99096
    endloop
  endfacet
  facet normal -0.131035 -0.00627858 -0.991358
    outer loop
      vertex 8.76005 -0.536767 2.89778
      vertex 8.6087 1.20876 2.90673
      vertex 8.67596 1.2182 2.89778
    endloop
  endfacet
  facet normal -0.131139 -0.00628768 -0.991344
    outer loop
      vertex 8.6087 1.20876 2.90673
      vertex 8.76005 -0.536767 2.89778
      vertex 7.98504 -0.48928 3
    endloop
  endfacet
  facet normal -0.13115 -0.00628328 -0.991343
    outer loop
      vertex 7.98504 -0.48928 3
      vertex 7.9084 1.11042 3
      vertex 8.6087 1.20876 2.90673
    endloop
  endfacet
  facet normal -0.384128 -0.0184051 -0.923097
    outer loop
      vertex 9.48224 -0.581019 2.59808
      vertex 9.3293 1.30994 2.62402
      vertex 9.39122 1.31863 2.59808
    endloop
  endfacet
  facet normal -0.384191 -0.0184106 -0.92307
    outer loop
      vertex 9.3293 1.30994 2.62402
      vertex 9.48224 -0.581019 2.59808
      vertex 8.76005 -0.536767 2.89778
    endloop
  endfacet
  facet normal -0.384196 -0.0184089 -0.923068
    outer loop
      vertex 8.76005 -0.536767 2.89778
      vertex 8.67596 1.2182 2.89778
      vertex 9.3293 1.30994 2.62402
    endloop
  endfacet
  facet normal -0.610452 -0.0292575 -0.791513
    outer loop
      vertex 10.1024 -0.619019 2.12132
      vertex 9.95302 1.39751 2.16199
      vertex 10.0054 1.40487 2.12132
    endloop
  endfacet
  facet normal -0.610346 -0.0292479 -0.791595
    outer loop
      vertex 9.95302 1.39751 2.16199
      vertex 10.1024 -0.619019 2.12132
      vertex 9.48224 -0.581019 2.59808
    endloop
  endfacet
  facet normal -0.610368 -0.029239 -0.791578
    outer loop
      vertex 9.48224 -0.581019 2.59808
      vertex 9.7931 1.37506 2.28613
      vertex 9.95302 1.39751 2.16199
    endloop
  endfacet
  facet normal -0.610349 -0.0292443 -0.791593
    outer loop
      vertex 9.7931 1.37506 2.28613
      vertex 9.48224 -0.581019 2.59808
      vertex 9.39122 1.31863 2.59808
    endloop
  endfacet
  facet normal -0.793989 -0.0380654 -0.60674
    outer loop
      vertex 10.5783 -0.648177 1.5
      vertex 10.4371 1.46549 1.55217
      vertex 10.4767 1.47105 1.5
    endloop
  endfacet
  facet normal -0.794167 -0.0380831 -0.606505
    outer loop
      vertex 10.4371 1.46549 1.55217
      vertex 10.5783 -0.648177 1.5
      vertex 10.1024 -0.619019 2.12132
    endloop
  endfacet
  facet normal -0.794204 -0.0380642 -0.606458
    outer loop
      vertex 10.1024 -0.619019 2.12132
      vertex 10.0054 1.40487 2.12132
      vertex 10.4371 1.46549 1.55217
    endloop
  endfacet
  facet normal -0.92345 -0.0442412 -0.381161
    outer loop
      vertex 10.8774 -0.666507 0.776457
      vertex 10.7485 1.50921 0.836212
      vertex 10.773 1.51264 0.776457
    endloop
  endfacet
  facet normal -0.92364 -0.0442653 -0.380695
    outer loop
      vertex 10.7485 1.50921 0.836212
      vertex 10.8774 -0.666507 0.776457
      vertex 10.5783 -0.648177 1.5
    endloop
  endfacet
  facet normal -0.923622 -0.0442803 -0.380739
    outer loop
      vertex 10.5783 -0.648177 1.5
      vertex 10.4767 1.47105 1.5
      vertex 10.7485 1.50921 0.836212
    endloop
  endfacet
  facet normal -0.990418 -0.0474589 -0.129691
    outer loop
      vertex 10.9794 -0.672759 0
      vertex 10.8658 1.52568 0.063042
      vertex 10.874 1.52683 0
    endloop
  endfacet
  facet normal -0.990414 -0.0474577 -0.129724
    outer loop
      vertex 10.8658 1.52568 0.063042
      vertex 10.9794 -0.672759 0
      vertex 10.8774 -0.666507 0.776457
    endloop
  endfacet
  facet normal -0.991507 -0.0475018 -0.121069
    outer loop
      vertex 10.7736 1.51274 0.771504
      vertex 10.8774 -0.666507 0.776457
      vertex 10.773 1.51264 0.776457
    endloop
  endfacet
  facet normal -0.990409 -0.0474692 -0.12976
    outer loop
      vertex 10.8774 -0.666507 0.776457
      vertex 10.7736 1.51274 0.771504
      vertex 10.8658 1.52568 0.063042
    endloop
  endfacet
  facet normal 0 0 -1
    outer loop
      vertex 3.98899 -0.29688 0
      vertex 4.99066 -0.305799 0
      vertex 4.8062 -1.37865 0
    endloop
  endfacet
  facet normal 0 -0 -1
    outer loop
      vertex 4.5208 0.634769 0
      vertex 4.99066 -0.305799 0
      vertex 3.98899 -0.29688 0
    endloop
  endfacet
  facet normal 0 0 -1
    outer loop
      vertex 3.83519 -1.13643 0
      vertex 4.8062 -1.37865 0
      vertex 4.39391 -2.38615 0
    endloop
  endfacet
  facet normal 0 0 -1
    outer loop
      vertex 4.99066 -0.305799 0
      vertex 4.5208 0.634769 0
      vertex 4.94276 0.694016 0
    endloop
  endfacet
  facet normal 0 0 -1
    outer loop
      vertex 4.5208 0.634769 0
      vertex 3.98899 -0.29688 0
      vertex 4.09614 0.575142 0
    endloop
  endfacet
  facet normal 0 0 -1
    outer loop
      vertex 4.8062 -1.37865 0
      vertex 3.83519 -1.13643 0
      vertex 3.98899 -0.29688 0
    endloop
  endfacet
  facet normal 0 0 -1
    outer loop
      vertex 3.50677 -1.92424 0
      vertex 4.39391 -2.38615 0
      vertex 3.77335 -3.28055 0
    endloop
  endfacet
  facet normal 0 0 -1
    outer loop
      vertex 4.39391 -2.38615 0
      vertex 3.50677 -1.92424 0
      vertex 3.83519 -1.13643 0
    endloop
  endfacet
  facet normal 0 0 -1
    outer loop
      vertex 3.77335 -3.28055 0
      vertex 3.01869 -2.62444 0
      vertex 3.50677 -1.92424 0
    endloop
  endfacet
  facet normal 0 0 -1
    outer loop
      vertex 2.39316 -3.20515 0
      vertex 3.77335 -3.28055 0
      vertex 2.97393 -4.01944 0
    endloop
  endfacet
  facet normal 0 0 -1
    outer loop
      vertex 3.77335 -3.28055 0
      vertex 2.39316 -3.20515 0
      vertex 3.01869 -2.62444 0
    endloop
  endfacet
  facet normal 0 0 -1
    outer loop
      vertex 1.65867 -3.63992 0
      vertex 2.97393 -4.01944 0
      vertex 2.03355 -4.56781 0
    endloop
  endfacet
  facet normal 0 0 -1
    outer loop
      vertex 2.97393 -4.01944 0
      vertex 1.65867 -3.63992 0
      vertex 2.39316 -3.20515 0
    endloop
  endfacet
  facet normal 0 0 -1
    outer loop
      vertex 0.848653 -3.90896 0
      vertex 2.03355 -4.56781 0
      vertex 0.996765 -4.89966 0
    endloop
  endfacet
  facet normal 0 0 -1
    outer loop
      vertex 2.03355 -4.56781 0
      vertex 0.848653 -3.90896 0
      vertex 1.65867 -3.63992 0
    endloop
  endfacet
  facet normal 0 0 -1
    outer loop
      vertex 8.88183e-16 -4.00002 0
      vertex 0.996765 -4.89966 0
      vertex 1.10828e-15 -4.99124 0
    endloop
  endfacet
  facet normal 0 0 -1
    outer loop
      vertex 0.996765 -4.89966 0
      vertex 8.88183e-16 -4.00002 0
      vertex 0.848653 -3.90896 0
    endloop
  endfacet
  facet normal 0 0 -1
    outer loop
      vertex 4.09614 0.575142 0
      vertex 3.98899 -0.29688 0
      vertex 3.96116 0.55619 0
    endloop
  endfacet
  facet normal 0 0 -1
    outer loop
      vertex 11.9669 -0.890637 0
      vertex 11.6135 1.63066 0
      vertex 11.8835 1.66857 0
    endloop
  endfacet
  facet normal 0 0 -1
    outer loop
      vertex 10.5736 -3.03303 0
      vertex 11.9669 -0.890637 0
      vertex 11.5055 -3.40929 0
    endloop
  endfacet
  facet normal 0 0 -1
    outer loop
      vertex 11.9669 -0.890637 0
      vertex 10.9794 -0.672759 0
      vertex 11.6135 1.63066 0
    endloop
  endfacet
  facet normal 0 0 -1
    outer loop
      vertex 11.6135 1.63066 0
      vertex 10.9794 -0.672759 0
      vertex 11.3238 1.58999 0
    endloop
  endfacet
  facet normal -0 0 -1
    outer loop
      vertex 11.9669 -0.890637 0
      vertex 10.5736 -3.03303 0
      vertex 10.9794 -0.672759 0
    endloop
  endfacet
  facet normal 0 0 -1
    outer loop
      vertex 9.66659 -5.24953 0
      vertex 11.5055 -3.40929 0
      vertex 10.5203 -5.77271 0
    endloop
  endfacet
  facet normal -0 0 -1
    outer loop
      vertex 11.5055 -3.40929 0
      vertex 9.66659 -5.24953 0
      vertex 10.5736 -3.03303 0
    endloop
  endfacet
  facet normal 0 0 -1
    outer loop
      vertex 8.30136 -7.21719 0
      vertex 10.5203 -5.77271 0
      vertex 9.05603 -7.8733 0
    endloop
  endfacet
  facet normal -0 0 -1
    outer loop
      vertex 10.5203 -5.77271 0
      vertex 8.30136 -7.21719 0
      vertex 9.66659 -5.24953 0
    endloop
  endfacet
  facet normal 0 0 -1
    outer loop
      vertex 7.17945 -9.61541 0
      vertex 8.30136 -7.21719 0
      vertex 9.05603 -7.8733 0
    endloop
  endfacet
  facet normal 0 0 -1
    outer loop
      vertex 7.17945 -9.61541 0
      vertex 6.54264 -8.84276 0
      vertex 8.30136 -7.21719 0
    endloop
  endfacet
  facet normal 0 0 -1
    outer loop
      vertex 4.97598 -10.9197 0
      vertex 6.54264 -8.84276 0
      vertex 7.17945 -9.61541 0
    endloop
  endfacet
  facet normal 0 0 -1
    outer loop
      vertex 4.97598 -10.9197 0
      vertex 4.47379 -10.0492 0
      vertex 6.54264 -8.84276 0
    endloop
  endfacet
  facet normal 0 0 -1
    outer loop
      vertex 2.54595 -11.7268 0
      vertex 4.47379 -10.0492 0
      vertex 4.97598 -10.9197 0
    endloop
  endfacet
  facet normal 0 0 -1
    outer loop
      vertex 2.54595 -11.7268 0
      vertex 2.19288 -10.7792 0
      vertex 4.47379 -10.0492 0
    endloop
  endfacet
  facet normal 0 0 -1
    outer loop
      vertex 2.66454e-15 -12 0
      vertex 2.19288 -10.7792 0
      vertex 2.54595 -11.7268 0
    endloop
  endfacet
  facet normal 0 0 -1
    outer loop
      vertex 2.19288 -10.7792 0
      vertex 2.66454e-15 -12 0
      vertex 2.43821e-15 -10.9807 0
    endloop
  endfacet
  facet normal 0 0 -1
    outer loop
      vertex 11.3238 1.58999 0
      vertex 10.9794 -0.672759 0
      vertex 10.874 1.52683 0
    endloop
  endfacet
endsolid OpenSCAD_Model
