solid OpenSCAD_Model
  facet normal 0.413313 0.118853 0.902799
    outer loop
      vertex 1 0.776457 2.43996
      vertex 12.1058 0 -2.54219
      vertex 12.1058 0.776457 -2.64441
    endloop
  endfacet
  facet normal 0.413313 0.118864 0.902798
    outer loop
      vertex 12.1058 0 -2.54219
      vertex 1 0.776457 2.43996
      vertex 1 0 2.54219
    endloop
  endfacet
  facet normal 0.0596487 -0.98968 0.130291
    outer loop
      vertex 1 -3 -0.457813
      vertex 12.1058 -2.89778 -4.76573
      vertex 1 -2.89778 0.318644
    endloop
  endfacet
  facet normal 0.0596485 -0.98968 0.13029
    outer loop
      vertex 12.1058 -2.89778 -4.76573
      vertex 1 -3 -0.457813
      vertex 12.1058 -3 -5.54219
    endloop
  endfacet
  facet normal 0.268469 0.764225 0.586416
    outer loop
      vertex 12.1058 2.12132 -3.42087
      vertex 1 2.59808 1.04219
      vertex 1 2.12132 1.66351
    endloop
  endfacet
  facet normal 0.268469 0.764225 0.586416
    outer loop
      vertex 1 2.59808 1.04219
      vertex 12.1058 2.12132 -3.42087
      vertex 12.1058 2.59808 -4.04219
    endloop
  endfacet
  facet normal 0.341386 0.572192 0.745689
    outer loop
      vertex 1 2.12132 1.66351
      vertex 12.1058 1.5 -2.94411
      vertex 12.1058 2.12132 -3.42087
    endloop
  endfacet
  facet normal 0.341388 0.572184 0.745694
    outer loop
      vertex 12.1058 1.5 -2.94411
      vertex 1 2.12132 1.66351
      vertex 1 1.5 2.14026
    endloop
  endfacet
  facet normal 0.172568 0.91002 0.37694
    outer loop
      vertex 12.1058 2.59808 -4.04219
      vertex 1 2.89778 0.318644
      vertex 1 2.59808 1.04219
    endloop
  endfacet
  facet normal 0.172569 0.910019 0.376942
    outer loop
      vertex 1 2.89778 0.318644
      vertex 12.1058 2.59808 -4.04219
      vertex 12.1058 2.89778 -4.76573
    endloop
  endfacet
  facet normal 0.268469 -0.764225 0.586416
    outer loop
      vertex 1 -2.59808 1.04219
      vertex 12.1058 -2.12132 -3.42087
      vertex 1 -2.12132 1.66351
    endloop
  endfacet
  facet normal 0.268469 -0.764225 0.586416
    outer loop
      vertex 12.1058 -2.12132 -3.42087
      vertex 1 -2.59808 1.04219
      vertex 12.1058 -2.59808 -4.04219
    endloop
  endfacet
  facet normal -1 5.83065e-22 -2.22043e-16
    outer loop
      vertex -1.14939e-16 1.93185 0.517637
      vertex -2.29877e-16 3.8637 1.03528
      vertex 0 4 0
    endloop
  endfacet
  facet normal -1 1.13736e-21 -2.22045e-16
    outer loop
      vertex -2.29877e-16 3.8637 1.03528
      vertex -1.14939e-16 1.93185 0.517637
      vertex -4.44089e-16 3.4641 2
    endloop
  endfacet
  facet normal -1 0 -2.22046e-16
    outer loop
      vertex -1.14939e-16 1.93185 0.517637
      vertex 0 4 0
      vertex 0 2 0
    endloop
  endfacet
  facet normal -1 -9.30366e-22 -2.22043e-16
    outer loop
      vertex -2.22044e-16 1.73205 0.999999
      vertex -4.44089e-16 3.4641 2
      vertex -1.14939e-16 1.93185 0.517637
    endloop
  endfacet
  facet normal -1 -2.68239e-22 -2.22044e-16
    outer loop
      vertex -4.44089e-16 3.4641 2
      vertex -2.22044e-16 1.73205 0.999999
      vertex -6.28037e-16 2.82843 2.82843
    endloop
  endfacet
  facet normal -1 1.30039e-21 -2.22045e-16
    outer loop
      vertex -3.14018e-16 1.41421 1.41421
      vertex -6.28037e-16 2.82843 2.82843
      vertex -2.22044e-16 1.73205 0.999999
    endloop
  endfacet
  facet normal -1 9.01607e-22 -2.22045e-16
    outer loop
      vertex -6.28037e-16 2.82843 2.82843
      vertex -3.14018e-16 1.41421 1.41421
      vertex -7.69185e-16 2 3.4641
    endloop
  endfacet
  facet normal -1 -1.29668e-21 -2.22044e-16
    outer loop
      vertex -3.84592e-16 0.999999 1.73205
      vertex -7.69185e-16 2 3.4641
      vertex -3.14018e-16 1.41421 1.41421
    endloop
  endfacet
  facet normal -1 -1.44093e-22 -2.22045e-16
    outer loop
      vertex -7.69185e-16 2 3.4641
      vertex -3.84592e-16 0.999999 1.73205
      vertex -8.57914e-16 1.03528 3.8637
    endloop
  endfacet
  facet normal -1 8.85416e-22 -2.22045e-16
    outer loop
      vertex -4.28957e-16 0.517637 1.93185
      vertex -8.57914e-16 1.03528 3.8637
      vertex -3.84592e-16 0.999999 1.73205
    endloop
  endfacet
  facet normal -1 -6.4268e-22 -2.22044e-16
    outer loop
      vertex -4.44089e-16 0 2
      vertex -8.57914e-16 1.03528 3.8637
      vertex -4.28957e-16 0.517637 1.93185
    endloop
  endfacet
  facet normal -1 -6.42676e-22 -2.22045e-16
    outer loop
      vertex -4.44089e-16 0 2
      vertex -8.88178e-16 0 4
      vertex -8.57914e-16 1.03528 3.8637
    endloop
  endfacet
  facet normal -1 6.4268e-22 -2.22044e-16
    outer loop
      vertex -4.28957e-16 -0.517637 1.93185
      vertex -8.88178e-16 0 4
      vertex -4.44089e-16 0 2
    endloop
  endfacet
  facet normal -1 -8.85416e-22 -2.22045e-16
    outer loop
      vertex -8.57914e-16 -1.03528 3.8637
      vertex -4.28957e-16 -0.517637 1.93185
      vertex -3.84592e-16 -0.999999 1.73205
    endloop
  endfacet
  facet normal -1 6.42676e-22 -2.22044e-16
    outer loop
      vertex -4.28957e-16 -0.517637 1.93185
      vertex -8.57914e-16 -1.03528 3.8637
      vertex -8.88178e-16 0 4
    endloop
  endfacet
  facet normal -1 1.29668e-21 -2.22044e-16
    outer loop
      vertex -7.69185e-16 -2 3.4641
      vertex -3.84592e-16 -0.999999 1.73205
      vertex -3.14018e-16 -1.41421 1.41421
    endloop
  endfacet
  facet normal -1 -2.37685e-22 -2.22044e-16
    outer loop
      vertex -6.28037e-16 -2.82843 2.82843
      vertex -3.14018e-16 -1.41421 1.41421
      vertex -2.22045e-16 -1.73205 1
    endloop
  endfacet
  facet normal -1 -1.83553e-22 -2.22044e-16
    outer loop
      vertex -4.44089e-16 -3.4641 2
      vertex -2.22045e-16 -1.73205 1
      vertex -1.14939e-16 -1.93185 0.517637
    endloop
  endfacet
  facet normal -1 1.44093e-22 -2.22045e-16
    outer loop
      vertex -3.84592e-16 -0.999999 1.73205
      vertex -7.69185e-16 -2 3.4641
      vertex -8.57914e-16 -1.03528 3.8637
    endloop
  endfacet
  facet normal -1 -1.16614e-21 -2.22045e-16
    outer loop
      vertex -2.29877e-16 -3.8637 1.03528
      vertex -1.14939e-16 -1.93185 0.517637
      vertex 0 -2 0
    endloop
  endfacet
  facet normal -1 -9.01607e-22 -2.22045e-16
    outer loop
      vertex -3.14018e-16 -1.41421 1.41421
      vertex -6.28037e-16 -2.82843 2.82843
      vertex -7.69185e-16 -2 3.4641
    endloop
  endfacet
  facet normal -1 -4.30223e-23 -2.22044e-16
    outer loop
      vertex -2.22045e-16 -1.73205 1
      vertex -4.44089e-16 -3.4641 2
      vertex -6.28037e-16 -2.82843 2.82843
    endloop
  endfacet
  facet normal -1 -1.13736e-21 -2.22045e-16
    outer loop
      vertex -1.14939e-16 -1.93185 0.517637
      vertex -2.29877e-16 -3.8637 1.03528
      vertex -4.44089e-16 -3.4641 2
    endloop
  endfacet
  facet normal -1 0 -2.22043e-16
    outer loop
      vertex -2.29877e-16 -3.8637 1.03528
      vertex 0 -2 0
      vertex 0 -4 0
    endloop
  endfacet
  facet normal 0.389551 0.352452 0.850898
    outer loop
      vertex 1 1.5 2.14026
      vertex 12.1058 0.776457 -2.64441
      vertex 12.1058 1.5 -2.94411
    endloop
  endfacet
  facet normal 0.389551 0.352452 0.850898
    outer loop
      vertex 12.1058 0.776457 -2.64441
      vertex 1 1.5 2.14026
      vertex 1 0.776457 2.43996
    endloop
  endfacet
  facet normal 0.0596487 0.98968 0.130291
    outer loop
      vertex 12.1058 2.89778 -4.76573
      vertex 1 3 -0.457813
      vertex 1 2.89778 0.318644
    endloop
  endfacet
  facet normal 0.0596485 0.98968 0.13029
    outer loop
      vertex 1 3 -0.457813
      vertex 12.1058 2.89778 -4.76573
      vertex 12.1058 3 -5.54219
    endloop
  endfacet
  facet normal 0.172568 -0.91002 0.37694
    outer loop
      vertex 1 -2.89778 0.318644
      vertex 12.1058 -2.59808 -4.04219
      vertex 1 -2.59808 1.04219
    endloop
  endfacet
  facet normal 0.172569 -0.910019 0.376942
    outer loop
      vertex 12.1058 -2.59808 -4.04219
      vertex 1 -2.89778 0.318644
      vertex 12.1058 -2.89778 -4.76573
    endloop
  endfacet
  facet normal 0.341385 -0.572192 0.745689
    outer loop
      vertex 1 -1.5 2.14026
      vertex 12.1058 -2.12132 -3.42087
      vertex 12.1058 -1.5 -2.94411
    endloop
  endfacet
  facet normal 0.341388 -0.572184 0.745694
    outer loop
      vertex 12.1058 -2.12132 -3.42087
      vertex 1 -1.5 2.14026
      vertex 1 -2.12132 1.66351
    endloop
  endfacet
  facet normal 0.413313 -0.118853 0.902799
    outer loop
      vertex 1 0 2.54219
      vertex 12.1058 -0.776457 -2.64441
      vertex 12.1058 0 -2.54219
    endloop
  endfacet
  facet normal 0.413312 -0.118864 0.902798
    outer loop
      vertex 12.1058 -0.776457 -2.64441
      vertex 1 0 2.54219
      vertex 1 -0.776457 2.43996
    endloop
  endfacet
  facet normal 0.389551 -0.352452 0.850898
    outer loop
      vertex 1 -0.776457 2.43996
      vertex 12.1058 -1.5 -2.94411
      vertex 12.1058 -0.776457 -2.64441
    endloop
  endfacet
  facet normal 0.389551 -0.352452 0.850898
    outer loop
      vertex 12.1058 -1.5 -2.94411
      vertex 1 -0.776457 2.43996
      vertex 1 -1.5 2.14026
    endloop
  endfacet
  facet normal -0.413313 -0.118859 -0.902799
    outer loop
      vertex 13.1058 0 -4
      vertex -4.28957e-16 0.517637 1.93185
      vertex 13.1058 0.517637 -4.06815
    endloop
  endfacet
  facet normal -0.413313 -0.118859 -0.902799
    outer loop
      vertex -4.28957e-16 0.517637 1.93185
      vertex 13.1058 0 -4
      vertex -4.44089e-16 0 2
    endloop
  endfacet
  facet normal -0.0596516 0.989679 -0.130297
    outer loop
      vertex 13.1058 -1.93185 -5.48236
      vertex 0 -2 0
      vertex -1.14939e-16 -1.93185 0.517637
    endloop
  endfacet
  facet normal -0.0596513 0.989679 -0.130296
    outer loop
      vertex 0 -2 0
      vertex 13.1058 -1.93185 -5.48236
      vertex 13.1058 -2 -6
    endloop
  endfacet
  facet normal -0.341385 0.572195 -0.745687
    outer loop
      vertex -3.14018e-16 -1.41421 1.41421
      vertex 13.1058 -0.999999 -4.26795
      vertex 13.1058 -1.41421 -4.58579
    endloop
  endfacet
  facet normal -0.341385 0.572195 -0.745687
    outer loop
      vertex 13.1058 -0.999999 -4.26795
      vertex -3.14018e-16 -1.41421 1.41421
      vertex -3.84592e-16 -0.999999 1.73205
    endloop
  endfacet
  facet normal -0.26847 -0.764224 -0.586418
    outer loop
      vertex -2.22044e-16 1.73205 0.999999
      vertex 13.1058 1.41421 -4.58579
      vertex -3.14018e-16 1.41421 1.41421
    endloop
  endfacet
  facet normal -0.26847 -0.764223 -0.586419
    outer loop
      vertex 13.1058 1.41421 -4.58579
      vertex -2.22044e-16 1.73205 0.999999
      vertex 13.1058 1.73205 -5
    endloop
  endfacet
  facet normal -0.0596516 -0.989679 -0.130297
    outer loop
      vertex 0 2 0
      vertex 13.1058 1.93185 -5.48236
      vertex -1.14939e-16 1.93185 0.517637
    endloop
  endfacet
  facet normal -0.0596513 -0.989679 -0.130296
    outer loop
      vertex 13.1058 1.93185 -5.48236
      vertex 0 2 0
      vertex 13.1058 2 -6
    endloop
  endfacet
  facet normal -0.413313 0.118859 -0.902799
    outer loop
      vertex -4.28957e-16 -0.517637 1.93185
      vertex 13.1058 0 -4
      vertex 13.1058 -0.517637 -4.06815
    endloop
  endfacet
  facet normal -0.413313 0.118859 -0.902799
    outer loop
      vertex 13.1058 0 -4
      vertex -4.28957e-16 -0.517637 1.93185
      vertex -4.44089e-16 0 2
    endloop
  endfacet
  facet normal -0.341385 -0.572195 -0.745687
    outer loop
      vertex 13.1058 0.999999 -4.26795
      vertex -3.14018e-16 1.41421 1.41421
      vertex 13.1058 1.41421 -4.58579
    endloop
  endfacet
  facet normal -0.341385 -0.572195 -0.745687
    outer loop
      vertex -3.14018e-16 1.41421 1.41421
      vertex 13.1058 0.999999 -4.26795
      vertex -3.84592e-16 0.999999 1.73205
    endloop
  endfacet
  facet normal -0.389552 -0.352452 -0.850898
    outer loop
      vertex 13.1058 0.517637 -4.06815
      vertex -3.84592e-16 0.999999 1.73205
      vertex 13.1058 0.999999 -4.26795
    endloop
  endfacet
  facet normal -0.389552 -0.352452 -0.850898
    outer loop
      vertex -3.84592e-16 0.999999 1.73205
      vertex 13.1058 0.517637 -4.06815
      vertex -4.28957e-16 0.517637 1.93185
    endloop
  endfacet
  facet normal -0.172568 -0.91002 -0.376941
    outer loop
      vertex -1.14939e-16 1.93185 0.517637
      vertex 13.1058 1.73205 -5
      vertex -2.22044e-16 1.73205 0.999999
    endloop
  endfacet
  facet normal -0.172569 -0.910019 -0.376942
    outer loop
      vertex 13.1058 1.73205 -5
      vertex -1.14939e-16 1.93185 0.517637
      vertex 13.1058 1.93185 -5.48236
    endloop
  endfacet
  facet normal -0.26847 0.764223 -0.586419
    outer loop
      vertex 13.1058 -1.41421 -4.58579
      vertex -2.22045e-16 -1.73205 1
      vertex -3.14018e-16 -1.41421 1.41421
    endloop
  endfacet
  facet normal -0.26847 0.764223 -0.586419
    outer loop
      vertex -2.22045e-16 -1.73205 1
      vertex 13.1058 -1.41421 -4.58579
      vertex 13.1058 -1.73205 -5
    endloop
  endfacet
  facet normal -0.389552 0.352452 -0.850898
    outer loop
      vertex -3.84592e-16 -0.999999 1.73205
      vertex 13.1058 -0.517637 -4.06815
      vertex 13.1058 -0.999999 -4.26795
    endloop
  endfacet
  facet normal -0.389552 0.352452 -0.850898
    outer loop
      vertex 13.1058 -0.517637 -4.06815
      vertex -3.84592e-16 -0.999999 1.73205
      vertex -4.28957e-16 -0.517637 1.93185
    endloop
  endfacet
  facet normal -0.172568 0.91002 -0.37694
    outer loop
      vertex 13.1058 -1.73205 -5
      vertex -1.14939e-16 -1.93185 0.517637
      vertex -2.22045e-16 -1.73205 1
    endloop
  endfacet
  facet normal -0.172569 0.910019 -0.376942
    outer loop
      vertex -1.14939e-16 -1.93185 0.517637
      vertex 13.1058 -1.73205 -5
      vertex 13.1058 -1.93185 -5.48236
    endloop
  endfacet
  facet normal 0.38955 0.352453 0.850898
    outer loop
      vertex -7.69185e-16 2 3.4641
      vertex 1 1.03528 3.40589
      vertex 1 2 3.00629
    endloop
  endfacet
  facet normal 0.38955 0.352453 0.850898
    outer loop
      vertex 1 1.03528 3.40589
      vertex -7.69185e-16 2 3.4641
      vertex -8.57914e-16 1.03528 3.8637
    endloop
  endfacet
  facet normal 0.172568 -0.910019 0.376942
    outer loop
      vertex -2.29877e-16 -3.8637 1.03528
      vertex 1 -3.4641 1.54219
      vertex -4.44089e-16 -3.4641 2
    endloop
  endfacet
  facet normal 0.172569 -0.91002 0.37694
    outer loop
      vertex 1 -3.4641 1.54219
      vertex -2.29877e-16 -3.8637 1.03528
      vertex 1 -3.8637 0.577463
    endloop
  endfacet
  facet normal 0.172568 0.910019 0.376942
    outer loop
      vertex 1 3.4641 1.54219
      vertex -2.29877e-16 3.8637 1.03528
      vertex -4.44089e-16 3.4641 2
    endloop
  endfacet
  facet normal 0.172569 0.91002 0.37694
    outer loop
      vertex -2.29877e-16 3.8637 1.03528
      vertex 1 3.4641 1.54219
      vertex 1 3.8637 0.577463
    endloop
  endfacet
  facet normal 0.26847 0.764231 0.586409
    outer loop
      vertex 1 2.82843 2.37061
      vertex -4.44089e-16 3.4641 2
      vertex -6.28037e-16 2.82843 2.82843
    endloop
  endfacet
  facet normal 0.268466 0.764228 0.586414
    outer loop
      vertex -4.44089e-16 3.4641 2
      vertex 1 2.82843 2.37061
      vertex 1 3.4641 1.54219
    endloop
  endfacet
  facet normal 0.26847 -0.764231 0.586409
    outer loop
      vertex -4.44089e-16 -3.4641 2
      vertex 1 -2.82843 2.37061
      vertex -6.28037e-16 -2.82843 2.82843
    endloop
  endfacet
  facet normal 0.268466 -0.764228 0.586414
    outer loop
      vertex 1 -2.82843 2.37061
      vertex -4.44089e-16 -3.4641 2
      vertex 1 -3.4641 1.54219
    endloop
  endfacet
  facet normal 0.341391 -0.57219 0.745688
    outer loop
      vertex 1 -2 3.00629
      vertex -6.28037e-16 -2.82843 2.82843
      vertex 1 -2.82843 2.37061
    endloop
  endfacet
  facet normal 0.341386 -0.572185 0.745694
    outer loop
      vertex -6.28037e-16 -2.82843 2.82843
      vertex 1 -2 3.00629
      vertex -7.69185e-16 -2 3.4641
    endloop
  endfacet
  facet normal 0.413311 0.118858 0.9028
    outer loop
      vertex -8.57914e-16 1.03528 3.8637
      vertex 1 0 3.54219
      vertex 1 1.03528 3.40589
    endloop
  endfacet
  facet normal 0.413311 0.118858 0.9028
    outer loop
      vertex 1 0 3.54219
      vertex -8.57914e-16 1.03528 3.8637
      vertex -8.88178e-16 0 4
    endloop
  endfacet
  facet normal 0.341391 0.57219 0.745688
    outer loop
      vertex -6.28037e-16 2.82843 2.82843
      vertex 1 2 3.00629
      vertex 1 2.82843 2.37061
    endloop
  endfacet
  facet normal 0.341386 0.572185 0.745694
    outer loop
      vertex 1 2 3.00629
      vertex -6.28037e-16 2.82843 2.82843
      vertex -7.69185e-16 2 3.4641
    endloop
  endfacet
  facet normal 0.0596519 0.989679 0.130296
    outer loop
      vertex 1 3.8637 0.577463
      vertex 0 4 0
      vertex -2.29877e-16 3.8637 1.03528
    endloop
  endfacet
  facet normal 0.0596516 0.989679 0.130297
    outer loop
      vertex 0 4 0
      vertex 1 3.8637 0.577463
      vertex 1 4 -0.457813
    endloop
  endfacet
  facet normal 0.0596519 -0.989679 0.130296
    outer loop
      vertex 0 -4 0
      vertex 1 -3.8637 0.577463
      vertex -2.29877e-16 -3.8637 1.03528
    endloop
  endfacet
  facet normal 0.0596516 -0.989679 0.130297
    outer loop
      vertex 1 -3.8637 0.577463
      vertex 0 -4 0
      vertex 1 -4 -0.457813
    endloop
  endfacet
  facet normal 0.413311 -0.118858 0.9028
    outer loop
      vertex 1 0 3.54219
      vertex -8.57914e-16 -1.03528 3.8637
      vertex 1 -1.03528 3.40589
    endloop
  endfacet
  facet normal 0.413311 -0.118858 0.9028
    outer loop
      vertex -8.57914e-16 -1.03528 3.8637
      vertex 1 0 3.54219
      vertex -8.88178e-16 0 4
    endloop
  endfacet
  facet normal 1 0 0
    outer loop
      vertex 1 2.89778 0.318644
      vertex 1 3.8637 0.577463
      vertex 1 3.4641 1.54219
    endloop
  endfacet
  facet normal 1 0 0
    outer loop
      vertex 1 3.8637 0.577463
      vertex 1 2.89778 0.318644
      vertex 1 4 -0.457813
    endloop
  endfacet
  facet normal 1 0 0
    outer loop
      vertex 1 4 -0.457813
      vertex 1 2.89778 0.318644
      vertex 1 3 -0.457813
    endloop
  endfacet
  facet normal 1 0 0
    outer loop
      vertex 1 2.59808 1.04219
      vertex 1 3.4641 1.54219
      vertex 1 2.82843 2.37061
    endloop
  endfacet
  facet normal 1 0 0
    outer loop
      vertex 1 3.4641 1.54219
      vertex 1 2.59808 1.04219
      vertex 1 2.89778 0.318644
    endloop
  endfacet
  facet normal 1 0 0
    outer loop
      vertex 1 2.82843 2.37061
      vertex 1 2.12132 1.66351
      vertex 1 2.59808 1.04219
    endloop
  endfacet
  facet normal 1 0 0
    outer loop
      vertex 1 2 3.00629
      vertex 1 2.12132 1.66351
      vertex 1 2.82843 2.37061
    endloop
  endfacet
  facet normal 1 0 0
    outer loop
      vertex 1 2 3.00629
      vertex 1 1.5 2.14026
      vertex 1 2.12132 1.66351
    endloop
  endfacet
  facet normal 1 0 0
    outer loop
      vertex 1 1.03528 3.40589
      vertex 1 1.5 2.14026
      vertex 1 2 3.00629
    endloop
  endfacet
  facet normal 1 0 0
    outer loop
      vertex 1 1.03528 3.40589
      vertex 1 0.776457 2.43996
      vertex 1 1.5 2.14026
    endloop
  endfacet
  facet normal 1 0 0
    outer loop
      vertex 1 0 3.54219
      vertex 1 0.776457 2.43996
      vertex 1 1.03528 3.40589
    endloop
  endfacet
  facet normal 1 0 0
    outer loop
      vertex 1 0 3.54219
      vertex 1 0 2.54219
      vertex 1 0.776457 2.43996
    endloop
  endfacet
  facet normal 1 0 0
    outer loop
      vertex 1 0 3.54219
      vertex 1 -0.776457 2.43996
      vertex 1 0 2.54219
    endloop
  endfacet
  facet normal 1 -0 0
    outer loop
      vertex 1 -1.03528 3.40589
      vertex 1 -0.776457 2.43996
      vertex 1 0 3.54219
    endloop
  endfacet
  facet normal 1 0 0
    outer loop
      vertex 1 -1.03528 3.40589
      vertex 1 -1.5 2.14026
      vertex 1 -0.776457 2.43996
    endloop
  endfacet
  facet normal 1 -0 0
    outer loop
      vertex 1 -2 3.00629
      vertex 1 -1.5 2.14026
      vertex 1 -1.03528 3.40589
    endloop
  endfacet
  facet normal 1 0 0
    outer loop
      vertex 1 -2 3.00629
      vertex 1 -2.12132 1.66351
      vertex 1 -1.5 2.14026
    endloop
  endfacet
  facet normal 1 -0 0
    outer loop
      vertex 1 -2.82843 2.37061
      vertex 1 -2.12132 1.66351
      vertex 1 -2 3.00629
    endloop
  endfacet
  facet normal 1 0 0
    outer loop
      vertex 1 -2.12132 1.66351
      vertex 1 -2.82843 2.37061
      vertex 1 -2.59808 1.04219
    endloop
  endfacet
  facet normal 1 -0 0
    outer loop
      vertex 1 -3.4641 1.54219
      vertex 1 -2.59808 1.04219
      vertex 1 -2.82843 2.37061
    endloop
  endfacet
  facet normal 1 0 0
    outer loop
      vertex 1 -2.59808 1.04219
      vertex 1 -3.4641 1.54219
      vertex 1 -2.89778 0.318644
    endloop
  endfacet
  facet normal 1 -0 0
    outer loop
      vertex 1 -3.8637 0.577463
      vertex 1 -2.89778 0.318644
      vertex 1 -3.4641 1.54219
    endloop
  endfacet
  facet normal 1 0 0
    outer loop
      vertex 1 -2.89778 0.318644
      vertex 1 -3.8637 0.577463
      vertex 1 -3 -0.457813
    endloop
  endfacet
  facet normal 1 0 0
    outer loop
      vertex 1 -3 -0.457813
      vertex 1 -3.8637 0.577463
      vertex 1 -4 -0.457813
    endloop
  endfacet
  facet normal 0.38955 -0.352453 0.850898
    outer loop
      vertex 1 -1.03528 3.40589
      vertex -7.69185e-16 -2 3.4641
      vertex 1 -2 3.00629
    endloop
  endfacet
  facet normal 0.38955 -0.352453 0.850898
    outer loop
      vertex -7.69185e-16 -2 3.4641
      vertex 1 -1.03528 3.40589
      vertex -8.57914e-16 -1.03528 3.8637
    endloop
  endfacet
  facet normal 0.172568 -0.910019 0.376942
    outer loop
      vertex 12.1058 -3.8637 -4.50691
      vertex 13.1058 -3.4641 -4
      vertex 12.1058 -3.4641 -3.54219
    endloop
  endfacet
  facet normal 0.172568 -0.910019 0.376942
    outer loop
      vertex 13.1058 -3.4641 -4
      vertex 12.1058 -3.8637 -4.50691
      vertex 13.1058 -3.8637 -4.96472
    endloop
  endfacet
  facet normal 0.172568 0.910019 0.376942
    outer loop
      vertex 13.1058 3.4641 -4
      vertex 12.1058 3.8637 -4.50691
      vertex 12.1058 3.4641 -3.54219
    endloop
  endfacet
  facet normal 0.172568 0.910019 0.376942
    outer loop
      vertex 12.1058 3.8637 -4.50691
      vertex 13.1058 3.4641 -4
      vertex 13.1058 3.8637 -4.96472
    endloop
  endfacet
  facet normal 0.268464 0.764232 0.58641
    outer loop
      vertex 13.1058 2.82843 -3.17157
      vertex 12.1058 3.4641 -3.54219
      vertex 12.1058 2.82843 -2.71376
    endloop
  endfacet
  facet normal 0.268464 0.764232 0.58641
    outer loop
      vertex 12.1058 3.4641 -3.54219
      vertex 13.1058 2.82843 -3.17157
      vertex 13.1058 3.4641 -4
    endloop
  endfacet
  facet normal 0.389557 -0.352452 0.850895
    outer loop
      vertex 12.1058 -1.03528 -1.67848
      vertex 13.1058 -2 -2.5359
      vertex 13.1058 -1.03528 -2.1363
    endloop
  endfacet
  facet normal 0.389548 -0.352461 0.850895
    outer loop
      vertex 13.1058 -2 -2.5359
      vertex 12.1058 -1.03528 -1.67848
      vertex 12.1058 -2 -2.07809
    endloop
  endfacet
  facet normal 0.268464 -0.764232 0.58641
    outer loop
      vertex 12.1058 -3.4641 -3.54219
      vertex 13.1058 -2.82843 -3.17157
      vertex 12.1058 -2.82843 -2.71376
    endloop
  endfacet
  facet normal 0.268464 -0.764232 0.58641
    outer loop
      vertex 13.1058 -2.82843 -3.17157
      vertex 12.1058 -3.4641 -3.54219
      vertex 13.1058 -3.4641 -4
    endloop
  endfacet
  facet normal -1 0 0
    outer loop
      vertex 12.1058 2.89778 -4.76573
      vertex 12.1058 3.8637 -4.50691
      vertex 12.1058 4 -5.54219
    endloop
  endfacet
  facet normal -1 0 0
    outer loop
      vertex 12.1058 2.89778 -4.76573
      vertex 12.1058 4 -5.54219
      vertex 12.1058 3 -5.54219
    endloop
  endfacet
  facet normal -1 -0 0
    outer loop
      vertex 12.1058 3.8637 -4.50691
      vertex 12.1058 2.89778 -4.76573
      vertex 12.1058 3.4641 -3.54219
    endloop
  endfacet
  facet normal -1 0 0
    outer loop
      vertex 12.1058 2.59808 -4.04219
      vertex 12.1058 3.4641 -3.54219
      vertex 12.1058 2.89778 -4.76573
    endloop
  endfacet
  facet normal -1 -0 0
    outer loop
      vertex 12.1058 3.4641 -3.54219
      vertex 12.1058 2.59808 -4.04219
      vertex 12.1058 2.82843 -2.71376
    endloop
  endfacet
  facet normal -1 0 0
    outer loop
      vertex 12.1058 2.12132 -3.42087
      vertex 12.1058 2.82843 -2.71376
      vertex 12.1058 2.59808 -4.04219
    endloop
  endfacet
  facet normal -1 0 0
    outer loop
      vertex 12.1058 2.12132 -3.42087
      vertex 12.1058 2 -2.07809
      vertex 12.1058 2.82843 -2.71376
    endloop
  endfacet
  facet normal -1 0 0
    outer loop
      vertex 12.1058 1.5 -2.94411
      vertex 12.1058 2 -2.07809
      vertex 12.1058 2.12132 -3.42087
    endloop
  endfacet
  facet normal -1 0 0
    outer loop
      vertex 12.1058 1.5 -2.94411
      vertex 12.1058 1.03528 -1.67848
      vertex 12.1058 2 -2.07809
    endloop
  endfacet
  facet normal -1 0 0
    outer loop
      vertex 12.1058 0.776457 -2.64441
      vertex 12.1058 1.03528 -1.67848
      vertex 12.1058 1.5 -2.94411
    endloop
  endfacet
  facet normal -1 0 0
    outer loop
      vertex 12.1058 0 -2.54219
      vertex 12.1058 1.03528 -1.67848
      vertex 12.1058 0.776457 -2.64441
    endloop
  endfacet
  facet normal -1 0 0
    outer loop
      vertex 12.1058 0 -2.54219
      vertex 12.1058 0 -1.54219
      vertex 12.1058 1.03528 -1.67848
    endloop
  endfacet
  facet normal -1 0 0
    outer loop
      vertex 12.1058 -0.776457 -2.64441
      vertex 12.1058 0 -1.54219
      vertex 12.1058 0 -2.54219
    endloop
  endfacet
  facet normal -1 0 0
    outer loop
      vertex 12.1058 -0.776457 -2.64441
      vertex 12.1058 -1.03528 -1.67848
      vertex 12.1058 0 -1.54219
    endloop
  endfacet
  facet normal -1 0 0
    outer loop
      vertex 12.1058 -1.5 -2.94411
      vertex 12.1058 -1.03528 -1.67848
      vertex 12.1058 -0.776457 -2.64441
    endloop
  endfacet
  facet normal -1 0 0
    outer loop
      vertex 12.1058 -1.5 -2.94411
      vertex 12.1058 -2 -2.07809
      vertex 12.1058 -1.03528 -1.67848
    endloop
  endfacet
  facet normal -1 0 0
    outer loop
      vertex 12.1058 -2.12132 -3.42087
      vertex 12.1058 -2 -2.07809
      vertex 12.1058 -1.5 -2.94411
    endloop
  endfacet
  facet normal -1 0 0
    outer loop
      vertex 12.1058 -2.82843 -2.71376
      vertex 12.1058 -2.12132 -3.42087
      vertex 12.1058 -2.59808 -4.04219
    endloop
  endfacet
  facet normal -1 0 0
    outer loop
      vertex 12.1058 -2.12132 -3.42087
      vertex 12.1058 -2.82843 -2.71376
      vertex 12.1058 -2 -2.07809
    endloop
  endfacet
  facet normal -1 0 0
    outer loop
      vertex 12.1058 -3.4641 -3.54219
      vertex 12.1058 -2.59808 -4.04219
      vertex 12.1058 -2.89778 -4.76573
    endloop
  endfacet
  facet normal -1 0 0
    outer loop
      vertex 12.1058 -3.8637 -4.50691
      vertex 12.1058 -2.89778 -4.76573
      vertex 12.1058 -3 -5.54219
    endloop
  endfacet
  facet normal -1 0 0
    outer loop
      vertex 12.1058 -2.59808 -4.04219
      vertex 12.1058 -3.4641 -3.54219
      vertex 12.1058 -2.82843 -2.71376
    endloop
  endfacet
  facet normal -1 0 0
    outer loop
      vertex 12.1058 -2.89778 -4.76573
      vertex 12.1058 -3.8637 -4.50691
      vertex 12.1058 -3.4641 -3.54219
    endloop
  endfacet
  facet normal -1 0 -0
    outer loop
      vertex 12.1058 -3.8637 -4.50691
      vertex 12.1058 -3 -5.54219
      vertex 12.1058 -4 -5.54219
    endloop
  endfacet
  facet normal 0.413318 0.118858 0.902796
    outer loop
      vertex 12.1058 1.03528 -1.67848
      vertex 13.1058 0 -2
      vertex 13.1058 1.03528 -2.1363
    endloop
  endfacet
  facet normal 0.413311 0.11885 0.9028
    outer loop
      vertex 13.1058 0 -2
      vertex 12.1058 1.03528 -1.67848
      vertex 12.1058 0 -1.54219
    endloop
  endfacet
  facet normal 0.341386 0.572185 0.745694
    outer loop
      vertex 12.1058 2.82843 -2.71376
      vertex 13.1058 2 -2.5359
      vertex 13.1058 2.82843 -3.17157
    endloop
  endfacet
  facet normal 0.341386 0.572185 0.745694
    outer loop
      vertex 13.1058 2 -2.5359
      vertex 12.1058 2.82843 -2.71376
      vertex 12.1058 2 -2.07809
    endloop
  endfacet
  facet normal 0.059651 0.989679 0.130296
    outer loop
      vertex 13.1058 3.8637 -4.96472
      vertex 12.1058 4 -5.54219
      vertex 12.1058 3.8637 -4.50691
    endloop
  endfacet
  facet normal 0.059651 0.989679 0.130296
    outer loop
      vertex 12.1058 4 -5.54219
      vertex 13.1058 3.8637 -4.96472
      vertex 13.1058 4 -6
    endloop
  endfacet
  facet normal 0.059651 -0.989679 0.130296
    outer loop
      vertex 12.1058 -4 -5.54219
      vertex 13.1058 -3.8637 -4.96472
      vertex 12.1058 -3.8637 -4.50691
    endloop
  endfacet
  facet normal 0.059651 -0.989679 0.130296
    outer loop
      vertex 13.1058 -3.8637 -4.96472
      vertex 12.1058 -4 -5.54219
      vertex 13.1058 -4 -6
    endloop
  endfacet
  facet normal 0.341386 -0.572185 0.745694
    outer loop
      vertex 12.1058 -2 -2.07809
      vertex 13.1058 -2.82843 -3.17157
      vertex 13.1058 -2 -2.5359
    endloop
  endfacet
  facet normal 0.341386 -0.572185 0.745694
    outer loop
      vertex 13.1058 -2.82843 -3.17157
      vertex 12.1058 -2 -2.07809
      vertex 12.1058 -2.82843 -2.71376
    endloop
  endfacet
  facet normal 0.413311 -0.118858 0.9028
    outer loop
      vertex 12.1058 0 -1.54219
      vertex 13.1058 -1.03528 -2.1363
      vertex 13.1058 0 -2
    endloop
  endfacet
  facet normal 0.413319 -0.118849 0.902797
    outer loop
      vertex 13.1058 -1.03528 -2.1363
      vertex 12.1058 0 -1.54219
      vertex 12.1058 -1.03528 -1.67848
    endloop
  endfacet
  facet normal 1 0 0
    outer loop
      vertex 13.1058 1.93185 -5.48236
      vertex 13.1058 3.8637 -4.96472
      vertex 13.1058 3.4641 -4
    endloop
  endfacet
  facet normal 1 0 0
    outer loop
      vertex 13.1058 1.73205 -5
      vertex 13.1058 3.4641 -4
      vertex 13.1058 2.82843 -3.17157
    endloop
  endfacet
  facet normal 1 0 0
    outer loop
      vertex 13.1058 3.8637 -4.96472
      vertex 13.1058 1.93185 -5.48236
      vertex 13.1058 4 -6
    endloop
  endfacet
  facet normal 1 0 0
    outer loop
      vertex 13.1058 1.41421 -4.58579
      vertex 13.1058 2.82843 -3.17157
      vertex 13.1058 2 -2.5359
    endloop
  endfacet
  facet normal 1 0 0
    outer loop
      vertex 13.1058 4 -6
      vertex 13.1058 1.93185 -5.48236
      vertex 13.1058 2 -6
    endloop
  endfacet
  facet normal 1 0 0
    outer loop
      vertex 13.1058 3.4641 -4
      vertex 13.1058 1.73205 -5
      vertex 13.1058 1.93185 -5.48236
    endloop
  endfacet
  facet normal 1 0 0
    outer loop
      vertex 13.1058 2.82843 -3.17157
      vertex 13.1058 1.41421 -4.58579
      vertex 13.1058 1.73205 -5
    endloop
  endfacet
  facet normal 1 0 0
    outer loop
      vertex 13.1058 0.999999 -4.26795
      vertex 13.1058 2 -2.5359
      vertex 13.1058 1.03528 -2.1363
    endloop
  endfacet
  facet normal 1 0 0
    outer loop
      vertex 13.1058 2 -2.5359
      vertex 13.1058 0.999999 -4.26795
      vertex 13.1058 1.41421 -4.58579
    endloop
  endfacet
  facet normal 1 0 0
    outer loop
      vertex 13.1058 1.03528 -2.1363
      vertex 13.1058 0.517637 -4.06815
      vertex 13.1058 0.999999 -4.26795
    endloop
  endfacet
  facet normal 1 0 0
    outer loop
      vertex 13.1058 0 -2
      vertex 13.1058 0.517637 -4.06815
      vertex 13.1058 1.03528 -2.1363
    endloop
  endfacet
  facet normal 1 0 0
    outer loop
      vertex 13.1058 0 -2
      vertex 13.1058 0 -4
      vertex 13.1058 0.517637 -4.06815
    endloop
  endfacet
  facet normal 1 0 0
    outer loop
      vertex 13.1058 0 -2
      vertex 13.1058 -0.517637 -4.06815
      vertex 13.1058 0 -4
    endloop
  endfacet
  facet normal 1 -0 0
    outer loop
      vertex 13.1058 -1.03528 -2.1363
      vertex 13.1058 -0.517637 -4.06815
      vertex 13.1058 0 -2
    endloop
  endfacet
  facet normal 1 0 0
    outer loop
      vertex 13.1058 -0.517637 -4.06815
      vertex 13.1058 -1.03528 -2.1363
      vertex 13.1058 -0.999999 -4.26795
    endloop
  endfacet
  facet normal 1 -0 0
    outer loop
      vertex 13.1058 -2 -2.5359
      vertex 13.1058 -0.999999 -4.26795
      vertex 13.1058 -1.03528 -2.1363
    endloop
  endfacet
  facet normal 1 0 0
    outer loop
      vertex 13.1058 -0.999999 -4.26795
      vertex 13.1058 -2 -2.5359
      vertex 13.1058 -1.41421 -4.58579
    endloop
  endfacet
  facet normal 1 -0 0
    outer loop
      vertex 13.1058 -2.82843 -3.17157
      vertex 13.1058 -1.41421 -4.58579
      vertex 13.1058 -2 -2.5359
    endloop
  endfacet
  facet normal 1 0 0
    outer loop
      vertex 13.1058 -1.41421 -4.58579
      vertex 13.1058 -2.82843 -3.17157
      vertex 13.1058 -1.73205 -5
    endloop
  endfacet
  facet normal 1 -0 0
    outer loop
      vertex 13.1058 -3.4641 -4
      vertex 13.1058 -1.73205 -5
      vertex 13.1058 -2.82843 -3.17157
    endloop
  endfacet
  facet normal 1 0 0
    outer loop
      vertex 13.1058 -1.73205 -5
      vertex 13.1058 -3.4641 -4
      vertex 13.1058 -1.93185 -5.48236
    endloop
  endfacet
  facet normal 1 -0 0
    outer loop
      vertex 13.1058 -3.8637 -4.96472
      vertex 13.1058 -1.93185 -5.48236
      vertex 13.1058 -3.4641 -4
    endloop
  endfacet
  facet normal 1 0 0
    outer loop
      vertex 13.1058 -1.93185 -5.48236
      vertex 13.1058 -3.8637 -4.96472
      vertex 13.1058 -2 -6
    endloop
  endfacet
  facet normal 1 0 0
    outer loop
      vertex 13.1058 -2 -6
      vertex 13.1058 -3.8637 -4.96472
      vertex 13.1058 -4 -6
    endloop
  endfacet
  facet normal 0.38955 0.352453 0.850898
    outer loop
      vertex 12.1058 2 -2.07809
      vertex 13.1058 1.03528 -2.1363
      vertex 13.1058 2 -2.5359
    endloop
  endfacet
  facet normal 0.389556 0.35246 0.850893
    outer loop
      vertex 13.1058 1.03528 -2.1363
      vertex 12.1058 2 -2.07809
      vertex 12.1058 1.03528 -1.67848
    endloop
  endfacet
  facet normal -0.416261 0 -0.909245
    outer loop
      vertex 13.1058 2 -6
      vertex 12.1058 3 -5.54219
      vertex 13.1058 4 -6
    endloop
  endfacet
  facet normal -0.416264 -2.51361e-06 -0.909244
    outer loop
      vertex 13.1058 2 -6
      vertex 1 3 -0.457813
      vertex 12.1058 3 -5.54219
    endloop
  endfacet
  facet normal -0.416263 -3.89581e-07 -0.909244
    outer loop
      vertex 0 2 0
      vertex 1 3 -0.457813
      vertex 13.1058 2 -6
    endloop
  endfacet
  facet normal -0.416264 -0 -0.909244
    outer loop
      vertex 0 4 0
      vertex 1 3 -0.457813
      vertex 0 2 0
    endloop
  endfacet
  facet normal -0.416264 0 -0.909244
    outer loop
      vertex 1 3 -0.457813
      vertex 0 4 0
      vertex 1 4 -0.457813
    endloop
  endfacet
  facet normal -0.416261 0 -0.909245
    outer loop
      vertex 13.1058 4 -6
      vertex 12.1058 3 -5.54219
      vertex 12.1058 4 -5.54219
    endloop
  endfacet
  facet normal -0.416264 0 -0.909244
    outer loop
      vertex 1 -4 -0.457813
      vertex 0 -4 0
      vertex 1 -3 -0.457813
    endloop
  endfacet
  facet normal -0.416261 -0 -0.909245
    outer loop
      vertex 12.1058 -3 -5.54219
      vertex 13.1058 -4 -6
      vertex 12.1058 -4 -5.54219
    endloop
  endfacet
  facet normal -0.416261 0 -0.909245
    outer loop
      vertex 13.1058 -4 -6
      vertex 12.1058 -3 -5.54219
      vertex 13.1058 -2 -6
    endloop
  endfacet
  facet normal -0.416264 2.51361e-06 -0.909244
    outer loop
      vertex 1 -3 -0.457813
      vertex 13.1058 -2 -6
      vertex 12.1058 -3 -5.54219
    endloop
  endfacet
  facet normal -0.416263 3.89581e-07 -0.909244
    outer loop
      vertex 1 -3 -0.457813
      vertex 0 -2 0
      vertex 13.1058 -2 -6
    endloop
  endfacet
  facet normal -0.416264 -0 -0.909244
    outer loop
      vertex 0 -2 0
      vertex 1 -3 -0.457813
      vertex 0 -4 0
    endloop
  endfacet
endsolid OpenSCAD_Model
