solid OpenSCAD_Model
  facet normal -1 -2.22053e-16 4.95362e-20
    outer loop
      vertex 5.98926e-15 -26.9732 0.162847
      vertex 5.77315e-15 -26 0
      vertex 5.9845e-15 -26.9518 0
    endloop
  endfacet
  facet normal -1 -2.2206e-16 7.03379e-21
    outer loop
      vertex 5.77315e-15 -26 0
      vertex 5.98926e-15 -26.9732 0.162847
      vertex 5.84125e-15 -26.3066 2.32937
    endloop
  endfacet
  facet normal -1 -2.22032e-16 -1.73626e-21
    outer loop
      vertex 6.04492e-15 -27.2239 2.07055
      vertex 5.84125e-15 -26.3066 2.32937
      vertex 5.98926e-15 -26.9732 0.162847
    endloop
  endfacet
  facet normal -1 -2.22033e-16 3.73751e-21
    outer loop
      vertex 6.05862e-15 -27.2856 2.21969
      vertex 5.84125e-15 -26.3066 2.32937
      vertex 6.04492e-15 -27.2239 2.07055
    endloop
  endfacet
  facet normal -1 -2.22033e-16 4.58388e-21
    outer loop
      vertex 5.84125e-15 -26.3066 2.32937
      vertex 6.05862e-15 -27.2856 2.21969
      vertex 6.04089e-15 -27.2057 4.5
    endloop
  endfacet
  facet normal -1 -2.22037e-16 4.72434e-21
    outer loop
      vertex 6.22207e-15 -28.0217 4
      vertex 6.04089e-15 -27.2057 4.5
      vertex 6.05862e-15 -27.2856 2.21969
    endloop
  endfacet
  facet normal -1 -2.22032e-16 -3.8711e-21
    outer loop
      vertex 6.24354e-15 -28.1184 4.12626
      vertex 6.04089e-15 -27.2057 4.5
      vertex 6.22207e-15 -28.0217 4
    endloop
  endfacet
  facet normal -1 -2.22034e-16 2.22337e-21
    outer loop
      vertex 6.24354e-15 -28.1184 4.12626
      vertex 6.35847e-15 -28.636 6.36396
      vertex 6.04089e-15 -27.2057 4.5
    endloop
  endfacet
  facet normal -1 -2.22039e-16 1.25598e-21
    outer loop
      vertex 6.50386e-15 -29.2908 5.65685
      vertex 6.35847e-15 -28.636 6.36396
      vertex 6.24354e-15 -28.1184 4.12626
    endloop
  endfacet
  facet normal -1 -2.22036e-16 -1.0856e-21
    outer loop
      vertex 6.53157e-15 -29.4156 5.75279
      vertex 6.35847e-15 -28.636 6.36396
      vertex 6.50386e-15 -29.2908 5.65685
    endloop
  endfacet
  facet normal -1 -2.22038e-16 1.08594e-21
    outer loop
      vertex 6.53157e-15 -29.4156 5.75279
      vertex 6.77235e-15 -30.5 7.79423
      vertex 6.35847e-15 -28.636 6.36396
    endloop
  endfacet
  facet normal -1 -2.2205e-16 -5.21616e-21
    outer loop
      vertex 6.8711e-15 -30.9447 6.9282
      vertex 6.77235e-15 -30.5 7.79423
      vertex 6.53157e-15 -29.4156 5.75279
    endloop
  endfacet
  facet normal -1 -2.22061e-16 4.41038e-22
    outer loop
      vertex 6.90321e-15 -31.0893 6.98821
      vertex 6.77235e-15 -30.5 7.79423
      vertex 6.8711e-15 -30.9447 6.9282
    endloop
  endfacet
  facet normal -1 -2.22052e-16 -6.09901e-21
    outer loop
      vertex 6.90321e-15 -31.0893 6.98821
      vertex 7.25433e-15 -32.6706 8.69333
      vertex 6.77235e-15 -30.5 7.79423
    endloop
  endfacet
  facet normal -1 -2.22044e-16 1.04517e-21
    outer loop
      vertex 7.29876e-15 -32.8707 7.72741
      vertex 7.25433e-15 -32.6706 8.69333
      vertex 6.90321e-15 -31.0893 6.98821
    endloop
  endfacet
  facet normal -1 -2.2205e-16 2.28061e-21
    outer loop
      vertex 7.3332e-15 -33.0258 7.74786
      vertex 7.25433e-15 -32.6706 8.69333
      vertex 7.29876e-15 -32.8707 7.72741
    endloop
  endfacet
  facet normal -1 -2.22051e-16 -1.81773e-20
    outer loop
      vertex 7.77155e-15 -35 9
      vertex 7.3332e-15 -33.0258 7.74786
      vertex 7.75769e-15 -34.9375 8
    endloop
  endfacet
  facet normal -1 -2.2204e-16 -1.39921e-21
    outer loop
      vertex 7.3332e-15 -33.0258 7.74786
      vertex 7.77155e-15 -35 9
      vertex 7.25433e-15 -32.6706 8.69333
    endloop
  endfacet
  facet normal -1 -2.22041e-16 -1.75864e-20
    outer loop
      vertex 7.79224e-15 -35.0931 7.97948
      vertex 7.77155e-15 -35 9
      vertex 7.75769e-15 -34.9375 8
    endloop
  endfacet
  facet normal -1 -2.22044e-16 8.2902e-21
    outer loop
      vertex 8.28878e-15 -37.3293 8.69333
      vertex 7.79224e-15 -35.0931 7.97948
      vertex 8.21663e-15 -37.0044 7.72741
    endloop
  endfacet
  facet normal -1 -2.2201e-16 1.97637e-20
    outer loop
      vertex 8.28878e-15 -37.3293 8.69333
      vertex 8.21663e-15 -37.0044 7.72741
      vertex 8.24902e-15 -37.1503 7.66687
    endloop
  endfacet
  facet normal -1 -2.22052e-16 -1.66503e-20
    outer loop
      vertex 7.79224e-15 -35.0931 7.97948
      vertex 8.28878e-15 -37.3293 8.69333
      vertex 7.77155e-15 -35 9
    endloop
  endfacet
  facet normal -1 -2.22042e-16 -1.75023e-20
    outer loop
      vertex 8.77075e-15 -39.5 7.79423
      vertex 8.24902e-15 -37.1503 7.66687
      vertex 8.64429e-15 -38.9304 6.9282
    endloop
  endfacet
  facet normal -1 -2.21948e-16 4.40815e-20
    outer loop
      vertex 8.77075e-15 -39.5 7.79423
      vertex 8.64429e-15 -38.9304 6.9282
      vertex 8.67234e-15 -39.0568 6.83108
    endloop
  endfacet
  facet normal -1 -2.2204e-16 1.43997e-20
    outer loop
      vertex 8.24902e-15 -37.1503 7.66687
      vertex 8.77075e-15 -39.5 7.79423
      vertex 8.28878e-15 -37.3293 8.69333
    endloop
  endfacet
  facet normal -1 -2.22053e-16 -3.50732e-21
    outer loop
      vertex 9.18464e-15 -41.3639 6.36396
      vertex 8.67234e-15 -39.0568 6.83108
      vertex 9.01153e-15 -40.5843 5.65685
    endloop
  endfacet
  facet normal -1 -2.22055e-16 -6.12824e-21
    outer loop
      vertex 9.18464e-15 -41.3639 6.36396
      vertex 9.01153e-15 -40.5843 5.65685
      vertex 9.03327e-15 -40.6822 5.52901
    endloop
  endfacet
  facet normal -1 -2.22053e-16 -3.97224e-21
    outer loop
      vertex 8.67234e-15 -39.0568 6.83108
      vertex 9.18464e-15 -41.3639 6.36396
      vertex 8.77075e-15 -39.5 7.79423
    endloop
  endfacet
  facet normal -1 -2.22043e-16 4.26858e-21
    outer loop
      vertex 9.50222e-15 -42.7942 4.5
      vertex 9.03327e-15 -40.6822 5.52901
      vertex 9.29332e-15 -41.8534 4
    endloop
  endfacet
  facet normal -1 -2.22071e-16 -4.79187e-20
    outer loop
      vertex 9.50222e-15 -42.7942 4.5
      vertex 9.29332e-15 -41.8534 4
      vertex 9.30714e-15 -41.9156 3.84948
    endloop
  endfacet
  facet normal -1 -2.22049e-16 1.07954e-20
    outer loop
      vertex 9.70186e-15 -43.6933 2.32937
      vertex 9.30714e-15 -41.9156 3.84948
      vertex 9.47046e-15 -42.6512 2.07055
    endloop
  endfacet
  facet normal -1 -2.22043e-16 4.14826e-21
    outer loop
      vertex 9.03327e-15 -40.6822 5.52901
      vertex 9.50222e-15 -42.7942 4.5
      vertex 9.18464e-15 -41.3639 6.36396
    endloop
  endfacet
  facet normal -1 -2.22078e-16 -1.07253e-19
    outer loop
      vertex 9.70186e-15 -43.6933 2.32937
      vertex 9.47046e-15 -42.6512 2.07055
      vertex 9.47523e-15 -42.6726 1.90715
    endloop
  endfacet
  facet normal -1 -2.2204e-16 8.03242e-21
    outer loop
      vertex 9.76995e-15 -44 0
      vertex 9.47523e-15 -42.6726 1.90715
      vertex 9.53088e-15 -42.9233 0
    endloop
  endfacet
  facet normal -1 -2.22037e-16 -2.91975e-21
    outer loop
      vertex 9.30714e-15 -41.9156 3.84948
      vertex 9.70186e-15 -43.6933 2.32937
      vertex 9.50222e-15 -42.7942 4.5
    endloop
  endfacet
  facet normal -1 -2.22033e-16 3.17421e-21
    outer loop
      vertex 9.47523e-15 -42.6726 1.90715
      vertex 9.76995e-15 -44 0
      vertex 9.70186e-15 -43.6933 2.32937
    endloop
  endfacet
  facet normal 0.478743 0.877955 -4.02985e-05
    outer loop
      vertex 38.3578 -20.9233 2.32937
      vertex 38.627 -21.0702 0
      vertex 37.5685 -20.4928 4.5
    endloop
  endfacet
  facet normal 0.478367 0.87816 -0.000679954
    outer loop
      vertex 24.5428 -13.3876 3.84272
      vertex 23.8836 -13.028 4.5
      vertex 24.5651 -13.3997 3.90426
    endloop
  endfacet
  facet normal 0.478882 0.877879 -9.60068e-06
    outer loop
      vertex 23.8995 -13.0367 2.07055
      vertex 23.8836 -13.028 4.5
      vertex 24.5428 -13.3876 3.84272
    endloop
  endfacet
  facet normal 0.480011 0.877262 0
    outer loop
      vertex 23.8836 -13.028 4.5
      vertex 23.8995 -13.0367 2.07055
      vertex 23.8836 -13.028 1.93215
    endloop
  endfacet
  facet normal 0.478946 0.877844 9.51692e-05
    outer loop
      vertex 36.3128 -19.8079 6.36396
      vertex 37.5685 -20.4928 4.5
      vertex 34.6765 -18.9153 7.79423
    endloop
  endfacet
  facet normal 0.478839 0.877903 -0.000117114
    outer loop
      vertex 32.7709 -17.8758 8.69333
      vertex 34.6765 -18.9153 7.79423
      vertex 30.726 -16.7604 9
    endloop
  endfacet
  facet normal 0.478904 0.877867 -0.000159407
    outer loop
      vertex 28.6811 -15.6449 8.69333
      vertex 30.726 -16.7604 9
      vertex 26.7755 -14.6055 7.79423
    endloop
  endfacet
  facet normal 0.478863 0.87789 1.30147e-05
    outer loop
      vertex 28.6229 -15.6132 7.61688
      vertex 26.7755 -14.6055 7.79423
      vertex 30.726 -16.7604 9
    endloop
  endfacet
  facet normal 0.478866 0.877888 5.42677e-05
    outer loop
      vertex 27.1659 -14.8184 6.9282
      vertex 26.7755 -14.6055 7.79423
      vertex 28.6229 -15.6132 7.61688
    endloop
  endfacet
  facet normal 0.478793 0.877928 1.17537e-05
    outer loop
      vertex 27.0447 -14.7523 6.82206
      vertex 26.7755 -14.6055 7.79423
      vertex 27.1659 -14.8184 6.9282
    endloop
  endfacet
  facet normal 0.478861 0.877891 3.59977e-05
    outer loop
      vertex 25.9294 -14.1439 5.84546
      vertex 26.7755 -14.6055 7.79423
      vertex 27.0447 -14.7523 6.82206
    endloop
  endfacet
  facet normal 0.478827 0.877909 5.4951e-05
    outer loop
      vertex 26.7755 -14.6055 7.79423
      vertex 25.9294 -14.1439 5.84546
      vertex 23.8836 -13.028 4.5
    endloop
  endfacet
  facet normal 0.478895 0.877872 -6.32163e-05
    outer loop
      vertex 23.8836 -13.028 4.5
      vertex 25.6219 -13.9762 5.51987
      vertex 25.2079 -13.7504 4.90422
    endloop
  endfacet
  facet normal 0.478778 0.877936 0.000152102
    outer loop
      vertex 25.714 -14.0264 5.65685
      vertex 23.8836 -13.028 4.5
      vertex 25.9294 -14.1439 5.84546
    endloop
  endfacet
  facet normal 0.479049 0.877788 -0.00040522
    outer loop
      vertex 25.6219 -13.9762 5.51987
      vertex 23.8836 -13.028 4.5
      vertex 25.714 -14.0264 5.65685
    endloop
  endfacet
  facet normal 0.478887 0.877877 8.69032e-05
    outer loop
      vertex 32.4857 -17.7202 7.72741
      vertex 30.726 -16.7604 9
      vertex 34.6765 -18.9153 7.79423
    endloop
  endfacet
  facet normal 0.478864 0.877889 7.13293e-06
    outer loop
      vertex 30.726 -16.7604 9
      vertex 32.3338 -17.6374 7.75022
      vertex 30.6712 -16.7305 8
    endloop
  endfacet
  facet normal 0.478549 0.878061 -0.000518578
    outer loop
      vertex 30.726 -16.7604 9
      vertex 32.4857 -17.7202 7.72741
      vertex 32.3338 -17.6374 7.75022
    endloop
  endfacet
  facet normal 0.478891 0.877875 -9.03817e-05
    outer loop
      vertex 32.4857 -17.7202 7.72741
      vertex 34.6765 -18.9153 7.79423
      vertex 33.2594 -18.1423 7.3617
    endloop
  endfacet
  facet normal 0.478973 0.877829 -6.39283e-07
    outer loop
      vertex 30.5189 -16.6474 7.97712
      vertex 30.726 -16.7604 9
      vertex 30.6712 -16.7305 8
    endloop
  endfacet
  facet normal 0.478867 0.877887 2.71751e-05
    outer loop
      vertex 28.8567 -15.7407 7.72741
      vertex 30.726 -16.7604 9
      vertex 30.5189 -16.6474 7.97712
    endloop
  endfacet
  facet normal 0.479636 0.877466 -0.00143903
    outer loop
      vertex 28.7149 -15.6633 7.66035
      vertex 30.726 -16.7604 9
      vertex 28.8567 -15.7407 7.72741
    endloop
  endfacet
  facet normal 0.476661 0.879076 0.00434541
    outer loop
      vertex 30.726 -16.7604 9
      vertex 28.7149 -15.6633 7.66035
      vertex 28.6229 -15.6132 7.61688
    endloop
  endfacet
  facet normal 0.478904 0.877867 -3.26816e-05
    outer loop
      vertex 25.1392 -13.7129 6.36396
      vertex 26.7755 -14.6055 7.79423
      vertex 23.8836 -13.028 4.5
    endloop
  endfacet
  facet normal 0.475716 0.879596 0.00221837
    outer loop
      vertex 22.825 -12.4506 0
      vertex 23.8836 -13.028 1.93215
      vertex 23.8804 -13.0262 1.90466
    endloop
  endfacet
  facet normal 0.478867 0.877888 -4.41058e-05
    outer loop
      vertex 22.825 -12.4506 0
      vertex 23.8804 -13.0262 1.90466
      vertex 23.6606 -12.9064 0
    endloop
  endfacet
  facet normal 0.478841 0.877902 -0
    outer loop
      vertex 23.8836 -13.028 1.93215
      vertex 22.825 -12.4506 0
      vertex 23.8836 -13.028 4.5
    endloop
  endfacet
  facet normal 0.478918 0.87786 -2.35128e-05
    outer loop
      vertex 23.0942 -12.5974 2.32937
      vertex 23.8836 -13.028 4.5
      vertex 22.825 -12.4506 0
    endloop
  endfacet
  facet normal 0.478869 0.877886 4.71463e-05
    outer loop
      vertex 24.5999 -13.4187 4
      vertex 23.8836 -13.028 4.5
      vertex 25.2079 -13.7504 4.90422
    endloop
  endfacet
  facet normal 0.478917 0.87786 0.000136204
    outer loop
      vertex 23.8836 -13.028 4.5
      vertex 24.5999 -13.4187 4
      vertex 24.5651 -13.3997 3.90426
    endloop
  endfacet
  facet normal 0.478847 0.877898 9.50227e-05
    outer loop
      vertex 34.6765 -18.9153 7.79423
      vertex 34.0359 -18.5658 6.99467
      vertex 33.2594 -18.1423 7.3617
    endloop
  endfacet
  facet normal 0.478908 0.877865 3.21698e-05
    outer loop
      vertex 34.6765 -18.9153 7.79423
      vertex 34.1765 -18.6425 6.9282
      vertex 34.0359 -18.5658 6.99467
    endloop
  endfacet
  facet normal 0.478885 0.877878 4.89686e-05
    outer loop
      vertex 34.1765 -18.6425 6.9282
      vertex 34.6765 -18.9153 7.79423
      vertex 34.8442 -19.0067 6.34359
    endloop
  endfacet
  facet normal 0.478937 0.877849 5.66914e-05
    outer loop
      vertex 34.6765 -18.9153 7.79423
      vertex 35.5087 -19.3692 5.76171
      vertex 34.8442 -19.0067 6.34359
    endloop
  endfacet
  facet normal 0.478945 0.877845 6.09317e-05
    outer loop
      vertex 34.6765 -18.9153 7.79423
      vertex 35.6284 -19.4345 5.65685
      vertex 35.5087 -19.3692 5.76171
    endloop
  endfacet
  facet normal 0.478887 0.877877 2.76289e-05
    outer loop
      vertex 37.5685 -20.4928 4.5
      vertex 35.6284 -19.4345 5.65685
      vertex 34.6765 -18.9153 7.79423
    endloop
  endfacet
  facet normal 0.478893 0.877873 4.1082e-05
    outer loop
      vertex 37.5685 -20.4928 4.5
      vertex 36.6516 -19.9926 4.1353
      vertex 35.6284 -19.4345 5.65685
    endloop
  endfacet
  facet normal 0.47908 0.877771 -0.000568122
    outer loop
      vertex 37.5685 -20.4928 4.5
      vertex 36.7425 -20.0423 4
      vertex 36.6516 -19.9926 4.1353
    endloop
  endfacet
  facet normal 0.478814 0.877916 1.92723e-06
    outer loop
      vertex 36.7425 -20.0423 4
      vertex 37.5685 -20.4928 4.5
      vertex 37.3252 -20.3601 2.39493
    endloop
  endfacet
  facet normal 0.478617 0.878024 3.1472e-05
    outer loop
      vertex 37.5685 -20.4928 4.5
      vertex 37.3863 -20.3934 2.2264
      vertex 37.3252 -20.3601 2.39493
    endloop
  endfacet
  facet normal 0.479131 0.877743 -2.2016e-05
    outer loop
      vertex 37.5685 -20.4928 4.5
      vertex 37.4429 -20.4243 2.07055
      vertex 37.3863 -20.3934 2.2264
    endloop
  endfacet
  facet normal 0.478862 0.87789 -3.97136e-06
    outer loop
      vertex 38.627 -21.0702 0
      vertex 37.4429 -20.4243 2.07055
      vertex 37.5685 -20.4928 4.5
    endloop
  endfacet
  facet normal 0.478865 0.877889 -2.32528e-06
    outer loop
      vertex 37.4429 -20.4243 2.07055
      vertex 38.627 -21.0702 0
      vertex 37.6627 -20.5442 0.165326
    endloop
  endfacet
  facet normal 0.478878 0.877881 0.000100447
    outer loop
      vertex 37.6627 -20.5442 0.165326
      vertex 38.627 -21.0702 0
      vertex 37.6818 -20.5546 0
    endloop
  endfacet
  facet normal -0.106021 0.985861 0.129763
    outer loop
      vertex 5.84125e-15 -26.3066 2.32937
      vertex 5.59411 -25.705 2.32937
      vertex 5.77315e-15 -26 0
    endloop
  endfacet
  facet normal -0.106041 0.985852 0.12981
    outer loop
      vertex 5.59411 -25.705 2.32937
      vertex 5.52889 -25.4053 0
      vertex 5.77315e-15 -26 0
    endloop
  endfacet
  facet normal -0.098875 0.919353 0.380807
    outer loop
      vertex 6.04089e-15 -27.2057 4.5
      vertex 5.7853 -26.5835 4.5
      vertex 5.84125e-15 -26.3066 2.32937
    endloop
  endfacet
  facet normal -0.0988695 0.919359 0.380793
    outer loop
      vertex 5.7853 -26.5835 4.5
      vertex 5.59411 -25.705 2.32937
      vertex 5.84125e-15 -26.3066 2.32937
    endloop
  endfacet
  facet normal -0.0850258 0.790474 0.606566
    outer loop
      vertex 6.35847e-15 -28.636 6.36396
      vertex 6.08945 -27.981 6.36396
      vertex 6.04089e-15 -27.2057 4.5
    endloop
  endfacet
  facet normal -0.0850162 0.790493 0.606543
    outer loop
      vertex 6.08945 -27.981 6.36396
      vertex 5.7853 -26.5835 4.5
      vertex 6.04089e-15 -27.2057 4.5
    endloop
  endfacet
  facet normal -0.0653363 0.607453 0.791664
    outer loop
      vertex 6.77235e-15 -30.5 7.79423
      vertex 6.48582 -29.8024 7.79423
      vertex 6.35847e-15 -28.636 6.36396
    endloop
  endfacet
  facet normal -0.0653388 0.607446 0.791669
    outer loop
      vertex 6.48582 -29.8024 7.79423
      vertex 6.08945 -27.981 6.36396
      vertex 6.35847e-15 -28.636 6.36396
    endloop
  endfacet
  facet normal -0.0411235 0.382363 0.923097
    outer loop
      vertex 7.25433e-15 -32.6706 8.69333
      vertex 6.9474 -31.9234 8.69333
      vertex 6.77235e-15 -30.5 7.79423
    endloop
  endfacet
  facet normal -0.0411253 0.382356 0.9231
    outer loop
      vertex 6.9474 -31.9234 8.69333
      vertex 6.48582 -29.8024 7.79423
      vertex 6.77235e-15 -30.5 7.79423
    endloop
  endfacet
  facet normal -0.0140372 0.130513 0.991347
    outer loop
      vertex 7.77155e-15 -35 9
      vertex 7.44274 -34.1995 9
      vertex 7.25433e-15 -32.6706 8.69333
    endloop
  endfacet
  facet normal -0.0140369 0.130514 0.991347
    outer loop
      vertex 7.44274 -34.1995 9
      vertex 6.9474 -31.9234 8.69333
      vertex 7.25433e-15 -32.6706 8.69333
    endloop
  endfacet
  facet normal 0.0140366 -0.130518 0.991347
    outer loop
      vertex 8.28878e-15 -37.3293 8.69333
      vertex 7.93809 -36.4756 8.69333
      vertex 7.77155e-15 -35 9
    endloop
  endfacet
  facet normal 0.0140374 -0.130514 0.991347
    outer loop
      vertex 7.93809 -36.4756 8.69333
      vertex 7.44274 -34.1995 9
      vertex 7.77155e-15 -35 9
    endloop
  endfacet
  facet normal 0.0411267 -0.382348 0.923103
    outer loop
      vertex 8.77075e-15 -39.5 7.79423
      vertex 8.39967 -38.5965 7.79423
      vertex 8.28878e-15 -37.3293 8.69333
    endloop
  endfacet
  facet normal 0.0411221 -0.382372 0.923093
    outer loop
      vertex 8.39967 -38.5965 7.79423
      vertex 7.93809 -36.4756 8.69333
      vertex 8.28878e-15 -37.3293 8.69333
    endloop
  endfacet
  facet normal 0.0653329 -0.607474 0.791648
    outer loop
      vertex 9.18464e-15 -41.3639 6.36396
      vertex 8.79604 -40.4179 6.36396
      vertex 8.77075e-15 -39.5 7.79423
    endloop
  endfacet
  facet normal 0.0653392 -0.607446 0.791669
    outer loop
      vertex 8.79604 -40.4179 6.36396
      vertex 8.39967 -38.5965 7.79423
      vertex 8.77075e-15 -39.5 7.79423
    endloop
  endfacet
  facet normal 0.0850219 -0.790474 0.606566
    outer loop
      vertex 9.50222e-15 -42.7942 4.5
      vertex 9.10019 -41.8154 4.5
      vertex 9.18464e-15 -41.3639 6.36396
    endloop
  endfacet
  facet normal 0.0850162 -0.790493 0.606543
    outer loop
      vertex 9.10019 -41.8154 4.5
      vertex 8.79604 -40.4179 6.36396
      vertex 9.18464e-15 -41.3639 6.36396
    endloop
  endfacet
  facet normal 0.0988776 -0.919353 0.380807
    outer loop
      vertex 9.70186e-15 -43.6933 2.32937
      vertex 9.29138 -42.694 2.32937
      vertex 9.50222e-15 -42.7942 4.5
    endloop
  endfacet
  facet normal 0.0988828 -0.919343 0.38083
    outer loop
      vertex 9.29138 -42.694 2.32937
      vertex 9.10019 -41.8154 4.5
      vertex 9.50222e-15 -42.7942 4.5
    endloop
  endfacet
  facet normal 0.106039 -0.985853 0.129804
    outer loop
      vertex 9.76995e-15 -44 0
      vertex 9.3566 -42.9936 0
      vertex 9.70186e-15 -43.6933 2.32937
    endloop
  endfacet
  facet normal 0.10603 -0.985859 0.129768
    outer loop
      vertex 9.3566 -42.9936 0
      vertex 9.29138 -42.694 2.32937
      vertex 9.70186e-15 -43.6933 2.32937
    endloop
  endfacet
  facet normal -0.313251 0.940757 0.12981
    outer loop
      vertex 5.59411 -25.705 2.32937
      vertex 10.9323 -23.9275 2.32937
      vertex 5.52889 -25.4053 0
    endloop
  endfacet
  facet normal -0.313252 0.940756 0.129812
    outer loop
      vertex 10.9323 -23.9275 2.32937
      vertex 10.8049 -23.6485 0
      vertex 5.52889 -25.4053 0
    endloop
  endfacet
  facet normal -0.292127 0.877302 0.380793
    outer loop
      vertex 5.7853 -26.5835 4.5
      vertex 11.306 -24.7452 4.5
      vertex 5.59411 -25.705 2.32937
    endloop
  endfacet
  facet normal -0.292124 0.877307 0.380784
    outer loop
      vertex 11.306 -24.7452 4.5
      vertex 10.9323 -23.9275 2.32937
      vertex 5.59411 -25.705 2.32937
    endloop
  endfacet
  facet normal -0.251166 0.754334 0.606544
    outer loop
      vertex 6.08945 -27.981 6.36396
      vertex 11.9003 -26.0462 6.36396
      vertex 5.7853 -26.5835 4.5
    endloop
  endfacet
  facet normal -0.251172 0.754309 0.606573
    outer loop
      vertex 11.9003 -26.0462 6.36396
      vertex 11.306 -24.7452 4.5
      vertex 5.7853 -26.5835 4.5
    endloop
  endfacet
  facet normal -0.193018 0.57966 0.791668
    outer loop
      vertex 6.48582 -29.8024 7.79423
      vertex 12.675 -27.7415 7.79423
      vertex 6.08945 -27.981 6.36396
    endloop
  endfacet
  facet normal -0.193015 0.579687 0.791649
    outer loop
      vertex 12.675 -27.7415 7.79423
      vertex 11.9003 -26.0462 6.36396
      vertex 6.08945 -27.981 6.36396
    endloop
  endfacet
  facet normal -0.121492 0.364866 0.923099
    outer loop
      vertex 6.9474 -31.9234 8.69333
      vertex 13.577 -29.7159 8.69333
      vertex 6.48582 -29.8024 7.79423
    endloop
  endfacet
  facet normal -0.121492 0.364858 0.923103
    outer loop
      vertex 13.577 -29.7159 8.69333
      vertex 12.675 -27.7415 7.79423
      vertex 6.48582 -29.8024 7.79423
    endloop
  endfacet
  facet normal -0.0414705 0.124544 0.991347
    outer loop
      vertex 7.44274 -34.1995 9
      vertex 14.545 -31.8346 9
      vertex 6.9474 -31.9234 8.69333
    endloop
  endfacet
  facet normal -0.0414705 0.124545 0.991347
    outer loop
      vertex 14.545 -31.8346 9
      vertex 13.577 -29.7159 8.69333
      vertex 6.9474 -31.9234 8.69333
    endloop
  endfacet
  facet normal 0.0414702 -0.124544 0.991347
    outer loop
      vertex 7.93809 -36.4756 8.69333
      vertex 15.5131 -33.9533 8.69333
      vertex 7.44274 -34.1995 9
    endloop
  endfacet
  facet normal 0.0414701 -0.124543 0.991347
    outer loop
      vertex 15.5131 -33.9533 8.69333
      vertex 14.545 -31.8346 9
      vertex 7.44274 -34.1995 9
    endloop
  endfacet
  facet normal 0.121494 -0.36488 0.923094
    outer loop
      vertex 8.39967 -38.5965 7.79423
      vertex 16.4151 -35.9276 7.79423
      vertex 7.93809 -36.4756 8.69333
    endloop
  endfacet
  facet normal 0.121494 -0.364873 0.923096
    outer loop
      vertex 16.4151 -35.9276 7.79423
      vertex 15.5131 -33.9533 8.69333
      vertex 7.93809 -36.4756 8.69333
    endloop
  endfacet
  facet normal 0.193014 -0.579661 0.791668
    outer loop
      vertex 8.79604 -40.4179 6.36396
      vertex 17.1897 -37.623 6.36396
      vertex 8.39967 -38.5965 7.79423
    endloop
  endfacet
  facet normal 0.193014 -0.579673 0.791659
    outer loop
      vertex 17.1897 -37.623 6.36396
      vertex 16.4151 -35.9276 7.79423
      vertex 8.39967 -38.5965 7.79423
    endloop
  endfacet
  facet normal 0.251172 -0.754332 0.606544
    outer loop
      vertex 9.10019 -41.8154 4.5
      vertex 17.7841 -38.9239 4.5
      vertex 8.79604 -40.4179 6.36396
    endloop
  endfacet
  facet normal 0.251172 -0.754323 0.606556
    outer loop
      vertex 17.7841 -38.9239 4.5
      vertex 17.1897 -37.623 6.36396
      vertex 8.79604 -40.4179 6.36396
    endloop
  endfacet
  facet normal 0.292119 -0.877289 0.380828
    outer loop
      vertex 9.29138 -42.694 2.32937
      vertex 18.1577 -39.7417 2.32937
      vertex 9.10019 -41.8154 4.5
    endloop
  endfacet
  facet normal 0.292116 -0.8773 0.380807
    outer loop
      vertex 18.1577 -39.7417 2.32937
      vertex 17.7841 -38.9239 4.5
      vertex 9.10019 -41.8154 4.5
    endloop
  endfacet
  facet normal 0.31325 -0.940762 0.12977
    outer loop
      vertex 9.3566 -42.9936 0
      vertex 18.2852 -40.0206 0
      vertex 9.29138 -42.694 2.32937
    endloop
  endfacet
  facet normal 0.313253 -0.940759 0.129785
    outer loop
      vertex 18.2852 -40.0206 0
      vertex 18.1577 -39.7417 2.32937
      vertex 9.29138 -42.694 2.32937
    endloop
  endfacet
  facet normal -0.506144 0.852625 0.129805
    outer loop
      vertex 10.9323 -23.9275 2.32937
      vertex 15.7705 -21.0554 2.32937
      vertex 10.8049 -23.6485 0
    endloop
  endfacet
  facet normal -0.506137 0.852632 0.129784
    outer loop
      vertex 15.7705 -21.0554 2.32937
      vertex 15.5866 -20.81 0
      vertex 10.8049 -23.6485 0
    endloop
  endfacet
  facet normal -0.47199 0.795125 0.380791
    outer loop
      vertex 11.306 -24.7452 4.5
      vertex 16.3095 -21.7751 4.5
      vertex 10.9323 -23.9275 2.32937
    endloop
  endfacet
  facet normal -0.471996 0.795102 0.38083
    outer loop
      vertex 16.3095 -21.7751 4.5
      vertex 15.7705 -21.0554 2.32937
      vertex 10.9323 -23.9275 2.32937
    endloop
  endfacet
  facet normal -0.405833 0.68365 0.606566
    outer loop
      vertex 11.9003 -26.0462 6.36396
      vertex 17.1669 -22.9198 6.36396
      vertex 11.306 -24.7452 4.5
    endloop
  endfacet
  facet normal -0.405832 0.683675 0.606538
    outer loop
      vertex 17.1669 -22.9198 6.36396
      vertex 16.3095 -21.7751 4.5
      vertex 11.306 -24.7452 4.5
    endloop
  endfacet
  facet normal -0.311874 0.525376 0.791653
    outer loop
      vertex 12.675 -27.7415 7.79423
      vertex 18.2843 -24.4117 7.79423
      vertex 11.9003 -26.0462 6.36396
    endloop
  endfacet
  facet normal -0.311873 0.525369 0.791658
    outer loop
      vertex 18.2843 -24.4117 7.79423
      vertex 17.1669 -22.9198 6.36396
      vertex 11.9003 -26.0462 6.36396
    endloop
  endfacet
  facet normal -0.196298 0.330682 0.923101
    outer loop
      vertex 13.577 -29.7159 8.69333
      vertex 19.5856 -26.1491 8.69333
      vertex 12.675 -27.7415 7.79423
    endloop
  endfacet
  facet normal -0.196298 0.330678 0.923103
    outer loop
      vertex 19.5856 -26.1491 8.69333
      vertex 18.2843 -24.4117 7.79423
      vertex 12.675 -27.7415 7.79423
    endloop
  endfacet
  facet normal -0.0670074 0.112877 0.991347
    outer loop
      vertex 14.545 -31.8346 9
      vertex 20.982 -28.0134 9
      vertex 13.577 -29.7159 8.69333
    endloop
  endfacet
  facet normal -0.0670084 0.112882 0.991346
    outer loop
      vertex 20.982 -28.0134 9
      vertex 19.5856 -26.1491 8.69333
      vertex 13.577 -29.7159 8.69333
    endloop
  endfacet
  facet normal 0.0670066 -0.112875 0.991347
    outer loop
      vertex 15.5131 -33.9533 8.69333
      vertex 22.3784 -29.8778 8.69333
      vertex 14.545 -31.8346 9
    endloop
  endfacet
  facet normal 0.0670071 -0.112877 0.991347
    outer loop
      vertex 22.3784 -29.8778 8.69333
      vertex 20.982 -28.0134 9
      vertex 14.545 -31.8346 9
    endloop
  endfacet
  facet normal 0.196306 -0.330693 0.923096
    outer loop
      vertex 16.4151 -35.9276 7.79423
      vertex 23.6797 -31.6152 7.79423
      vertex 15.5131 -33.9533 8.69333
    endloop
  endfacet
  facet normal 0.196301 -0.330675 0.923103
    outer loop
      vertex 23.6797 -31.6152 7.79423
      vertex 22.3784 -29.8778 8.69333
      vertex 15.5131 -33.9533 8.69333
    endloop
  endfacet
  facet normal 0.31187 -0.52537 0.791659
    outer loop
      vertex 17.1897 -37.623 6.36396
      vertex 24.7971 -33.1071 6.36396
      vertex 16.4151 -35.9276 7.79423
    endloop
  endfacet
  facet normal 0.31187 -0.525371 0.791658
    outer loop
      vertex 24.7971 -33.1071 6.36396
      vertex 23.6797 -31.6152 7.79423
      vertex 16.4151 -35.9276 7.79423
    endloop
  endfacet
  facet normal 0.405838 -0.683655 0.606557
    outer loop
      vertex 17.7841 -38.9239 4.5
      vertex 25.6545 -34.2518 4.5
      vertex 17.1897 -37.623 6.36396
    endloop
  endfacet
  facet normal 0.40584 -0.68367 0.606539
    outer loop
      vertex 25.6545 -34.2518 4.5
      vertex 24.7971 -33.1071 6.36396
      vertex 17.1897 -37.623 6.36396
    endloop
  endfacet
  facet normal 0.471995 -0.795116 0.380803
    outer loop
      vertex 18.1577 -39.7417 2.32937
      vertex 26.1935 -34.9715 2.32937
      vertex 17.7841 -38.9239 4.5
    endloop
  endfacet
  facet normal 0.471996 -0.795103 0.38083
    outer loop
      vertex 26.1935 -34.9715 2.32937
      vertex 25.6545 -34.2518 4.5
      vertex 17.7841 -38.9239 4.5
    endloop
  endfacet
  facet normal 0.506139 -0.85263 0.129791
    outer loop
      vertex 18.2852 -40.0206 0
      vertex 26.3774 -35.2169 0
      vertex 18.1577 -39.7417 2.32937
    endloop
  endfacet
  facet normal 0.506138 -0.852632 0.129784
    outer loop
      vertex 26.3774 -35.2169 0
      vertex 26.1935 -34.9715 2.32937
      vertex 18.1577 -39.7417 2.32937
    endloop
  endfacet
  facet normal -0.675873 0.7255 0.129791
    outer loop
      vertex 15.7705 -21.0554 2.32937
      vertex 19.8872 -17.2203 2.32937
      vertex 15.5866 -20.81 0
    endloop
  endfacet
  facet normal -0.675874 0.725497 0.129798
    outer loop
      vertex 19.8872 -17.2203 2.32937
      vertex 19.6554 -17.0195 0
      vertex 15.5866 -20.81 0
    endloop
  endfacet
  facet normal -0.630285 0.676544 0.380826
    outer loop
      vertex 16.3095 -21.7751 4.5
      vertex 20.5669 -17.8088 4.5
      vertex 15.7705 -21.0554 2.32937
    endloop
  endfacet
  facet normal -0.630284 0.676564 0.380793
    outer loop
      vertex 20.5669 -17.8088 4.5
      vertex 19.8872 -17.2203 2.32937
      vertex 15.7705 -21.0554 2.32937
    endloop
  endfacet
  facet normal -0.541934 0.581735 0.60654
    outer loop
      vertex 17.1669 -22.9198 6.36396
      vertex 21.6482 -18.7451 6.36396
      vertex 16.3095 -21.7751 4.5
    endloop
  endfacet
  facet normal -0.541929 0.581702 0.606577
    outer loop
      vertex 21.6482 -18.7451 6.36396
      vertex 20.5669 -17.8088 4.5
      vertex 16.3095 -21.7751 4.5
    endloop
  endfacet
  facet normal -0.416457 0.447037 0.791657
    outer loop
      vertex 18.2843 -24.4117 7.79423
      vertex 23.0573 -19.9652 7.79423
      vertex 17.1669 -22.9198 6.36396
    endloop
  endfacet
  facet normal -0.41646 0.447046 0.791651
    outer loop
      vertex 23.0573 -19.9652 7.79423
      vertex 21.6482 -18.7451 6.36396
      vertex 17.1669 -22.9198 6.36396
    endloop
  endfacet
  facet normal -0.26213 0.28137 0.923103
    outer loop
      vertex 19.5856 -26.1491 8.69333
      vertex 24.6982 -21.3861 8.69333
      vertex 18.2843 -24.4117 7.79423
    endloop
  endfacet
  facet normal -0.262136 0.281384 0.923097
    outer loop
      vertex 24.6982 -21.3861 8.69333
      vertex 23.0573 -19.9652 7.79423
      vertex 18.2843 -24.4117 7.79423
    endloop
  endfacet
  facet normal -0.0894796 0.0960505 0.991346
    outer loop
      vertex 20.982 -28.0134 9
      vertex 26.4592 -22.9109 9
      vertex 19.5856 -26.1491 8.69333
    endloop
  endfacet
  facet normal -0.0894766 0.0960441 0.991347
    outer loop
      vertex 26.4592 -22.9109 9
      vertex 24.6982 -21.3861 8.69333
      vertex 19.5856 -26.1491 8.69333
    endloop
  endfacet
  facet normal 0.0894772 -0.0960472 0.991347
    outer loop
      vertex 22.3784 -29.8778 8.69333
      vertex 28.2201 -24.4357 8.69333
      vertex 20.982 -28.0134 9
    endloop
  endfacet
  facet normal 0.0894778 -0.0960486 0.991347
    outer loop
      vertex 28.2201 -24.4357 8.69333
      vertex 26.4592 -22.9109 9
      vertex 20.982 -28.0134 9
    endloop
  endfacet
  facet normal 0.262127 -0.281372 0.923103
    outer loop
      vertex 23.6797 -31.6152 7.79423
      vertex 29.8611 -25.8566 7.79423
      vertex 22.3784 -29.8778 8.69333
    endloop
  endfacet
  facet normal 0.262129 -0.281376 0.923101
    outer loop
      vertex 29.8611 -25.8566 7.79423
      vertex 28.2201 -24.4357 8.69333
      vertex 22.3784 -29.8778 8.69333
    endloop
  endfacet
  facet normal 0.416457 -0.447037 0.791657
    outer loop
      vertex 24.7971 -33.1071 6.36396
      vertex 31.2702 -27.0768 6.36396
      vertex 23.6797 -31.6152 7.79423
    endloop
  endfacet
  facet normal 0.416454 -0.44703 0.791663
    outer loop
      vertex 31.2702 -27.0768 6.36396
      vertex 29.8611 -25.8566 7.79423
      vertex 23.6797 -31.6152 7.79423
    endloop
  endfacet
  facet normal 0.541939 -0.581732 0.60654
    outer loop
      vertex 25.6545 -34.2518 4.5
      vertex 32.3514 -28.013 4.5
      vertex 24.7971 -33.1071 6.36396
    endloop
  endfacet
  facet normal 0.541939 -0.581733 0.606538
    outer loop
      vertex 32.3514 -28.013 4.5
      vertex 31.2702 -27.0768 6.36396
      vertex 24.7971 -33.1071 6.36396
    endloop
  endfacet
  facet normal 0.630276 -0.676553 0.380827
    outer loop
      vertex 26.1935 -34.9715 2.32937
      vertex 33.0311 -28.6016 2.32937
      vertex 25.6545 -34.2518 4.5
    endloop
  endfacet
  facet normal 0.630276 -0.676556 0.38082
    outer loop
      vertex 33.0311 -28.6016 2.32937
      vertex 32.3514 -28.013 4.5
      vertex 25.6545 -34.2518 4.5
    endloop
  endfacet
  facet normal 0.675873 -0.7255 0.129791
    outer loop
      vertex 26.3774 -35.2169 0
      vertex 33.263 -28.8023 0
      vertex 26.1935 -34.9715 2.32937
    endloop
  endfacet
  facet normal 0.675874 -0.725498 0.129796
    outer loop
      vertex 33.263 -28.8023 0
      vertex 33.0311 -28.6016 2.32937
      vertex 26.1935 -34.9715 2.32937
    endloop
  endfacet
  facet normal -0.814698 0.565173 0.129792
    outer loop
      vertex 19.8872 -17.2203 2.32937
      vertex 23.0942 -12.5974 2.32937
      vertex 19.6554 -17.0195 0
    endloop
  endfacet
  facet normal -0.814696 0.565182 0.129771
    outer loop
      vertex 23.0942 -12.5974 2.32937
      vertex 22.825 -12.4506 0
      vertex 19.6554 -17.0195 0
    endloop
  endfacet
  facet normal -0.759732 0.527068 0.380797
    outer loop
      vertex 20.5669 -17.8088 4.5
      vertex 23.8836 -13.028 4.5
      vertex 19.8872 -17.2203 2.32937
    endloop
  endfacet
  facet normal -0.759728 0.527039 0.380845
    outer loop
      vertex 23.8836 -13.028 4.5
      vertex 23.0942 -12.5974 2.32937
      vertex 19.8872 -17.2203 2.32937
    endloop
  endfacet
  facet normal -0.653228 0.453165 0.606576
    outer loop
      vertex 21.6482 -18.7451 6.36396
      vertex 25.1392 -13.7129 6.36396
      vertex 20.5669 -17.8088 4.5
    endloop
  endfacet
  facet normal -0.653236 0.453185 0.606553
    outer loop
      vertex 25.1392 -13.7129 6.36396
      vertex 23.8836 -13.028 4.5
      vertex 20.5669 -17.8088 4.5
    endloop
  endfacet
  facet normal -0.502002 0.348255 0.791652
    outer loop
      vertex 23.0573 -19.9652 7.79423
      vertex 26.7755 -14.6055 7.79423
      vertex 21.6482 -18.7451 6.36396
    endloop
  endfacet
  facet normal -0.502001 0.348255 0.791652
    outer loop
      vertex 26.7755 -14.6055 7.79423
      vertex 25.1392 -13.7129 6.36396
      vertex 21.6482 -18.7451 6.36396
    endloop
  endfacet
  facet normal -0.315977 0.219206 0.923097
    outer loop
      vertex 24.6982 -21.3861 8.69333
      vertex 28.6811 -15.6449 8.69333
      vertex 23.0573 -19.9652 7.79423
    endloop
  endfacet
  facet normal -0.315974 0.219202 0.923099
    outer loop
      vertex 28.6811 -15.6449 8.69333
      vertex 26.7755 -14.6055 7.79423
      vertex 23.0573 -19.9652 7.79423
    endloop
  endfacet
  facet normal -0.107853 0.0748211 0.991347
    outer loop
      vertex 26.4592 -22.9109 9
      vertex 30.726 -16.7604 9
      vertex 24.6982 -21.3861 8.69333
    endloop
  endfacet
  facet normal -0.107854 0.0748229 0.991347
    outer loop
      vertex 30.726 -16.7604 9
      vertex 28.6811 -15.6449 8.69333
      vertex 24.6982 -21.3861 8.69333
    endloop
  endfacet
  facet normal 0.107857 -0.0748236 0.991347
    outer loop
      vertex 28.2201 -24.4357 8.69333
      vertex 32.7709 -17.8758 8.69333
      vertex 26.4592 -22.9109 9
    endloop
  endfacet
  facet normal 0.107857 -0.0748241 0.991347
    outer loop
      vertex 32.7709 -17.8758 8.69333
      vertex 30.726 -16.7604 9
      vertex 26.4592 -22.9109 9
    endloop
  endfacet
  facet normal 0.315968 -0.219197 0.923102
    outer loop
      vertex 29.8611 -25.8566 7.79423
      vertex 34.6765 -18.9153 7.79423
      vertex 28.2201 -24.4357 8.69333
    endloop
  endfacet
  facet normal 0.315967 -0.219196 0.923102
    outer loop
      vertex 34.6765 -18.9153 7.79423
      vertex 32.7709 -17.8758 8.69333
      vertex 28.2201 -24.4357 8.69333
    endloop
  endfacet
  facet normal 0.501994 -0.348245 0.791661
    outer loop
      vertex 31.2702 -27.0768 6.36396
      vertex 36.3128 -19.8079 6.36396
      vertex 29.8611 -25.8566 7.79423
    endloop
  endfacet
  facet normal 0.502001 -0.348254 0.791652
    outer loop
      vertex 36.3128 -19.8079 6.36396
      vertex 34.6765 -18.9153 7.79423
      vertex 29.8611 -25.8566 7.79423
    endloop
  endfacet
  facet normal 0.653247 -0.453187 0.606539
    outer loop
      vertex 32.3514 -28.013 4.5
      vertex 37.5685 -20.4928 4.5
      vertex 31.2702 -27.0768 6.36396
    endloop
  endfacet
  facet normal 0.653231 -0.453161 0.606576
    outer loop
      vertex 37.5685 -20.4928 4.5
      vertex 36.3128 -19.8079 6.36396
      vertex 31.2702 -27.0768 6.36396
    endloop
  endfacet
  facet normal 0.759733 -0.527053 0.380817
    outer loop
      vertex 33.0311 -28.6016 2.32937
      vertex 38.3578 -20.9233 2.32937
      vertex 32.3514 -28.013 4.5
    endloop
  endfacet
  facet normal 0.759737 -0.527064 0.380793
    outer loop
      vertex 38.3578 -20.9233 2.32937
      vertex 37.5685 -20.4928 4.5
      vertex 32.3514 -28.013 4.5
    endloop
  endfacet
  facet normal 0.814693 -0.565178 0.129803
    outer loop
      vertex 33.263 -28.8023 0
      vertex 38.627 -21.0702 0
      vertex 33.0311 -28.6016 2.32937
    endloop
  endfacet
  facet normal 0.814693 -0.56518 0.129795
    outer loop
      vertex 38.627 -21.0702 0
      vertex 38.3578 -20.9233 2.32937
      vertex 33.0311 -28.6016 2.32937
    endloop
  endfacet
  facet normal 0.0922483 -0.987248 -0.129739
    outer loop
      vertex 6.04492e-15 -27.2239 2.07055
      vertex 5.98926e-15 -26.9732 0.162847
      vertex 5.52013 -26.7081 2.07055
    endloop
  endfacet
  facet normal 0.0922582 -0.987247 -0.129736
    outer loop
      vertex 5.46496 -26.4411 0
      vertex 5.98926e-15 -26.9732 0.162847
      vertex 5.9845e-15 -26.9518 0
    endloop
  endfacet
  facet normal 0.0922569 -0.987244 -0.129764
    outer loop
      vertex 5.98926e-15 -26.9732 0.162847
      vertex 5.46496 -26.4411 0
      vertex 5.52013 -26.7081 2.07055
    endloop
  endfacet
  facet normal 0.0860433 -0.920696 -0.380678
    outer loop
      vertex 6.22207e-15 -28.0217 4
      vertex 6.05862e-15 -27.2856 2.21969
      vertex 5.6819 -27.4907 4
    endloop
  endfacet
  facet normal 0.0860226 -0.92062 -0.380865
    outer loop
      vertex 5.52013 -26.7081 2.07055
      vertex 6.05862e-15 -27.2856 2.21969
      vertex 6.04492e-15 -27.2239 2.07055
    endloop
  endfacet
  facet normal 0.086037 -0.920704 -0.380658
    outer loop
      vertex 6.05862e-15 -27.2856 2.21969
      vertex 5.52013 -26.7081 2.07055
      vertex 5.6819 -27.4907 4
    endloop
  endfacet
  facet normal 0.073981 -0.791694 -0.606421
    outer loop
      vertex 6.50386e-15 -29.2908 5.65685
      vertex 6.24354e-15 -28.1184 4.12626
      vertex 5.93923 -28.7358 5.65685
    endloop
  endfacet
  facet normal 0.073991 -0.791732 -0.606371
    outer loop
      vertex 5.6819 -27.4907 4
      vertex 6.24354e-15 -28.1184 4.12626
      vertex 6.22207e-15 -28.0217 4
    endloop
  endfacet
  facet normal 0.0739846 -0.791686 -0.606432
    outer loop
      vertex 6.24354e-15 -28.1184 4.12626
      vertex 5.6819 -27.4907 4
      vertex 5.93923 -28.7358 5.65685
    endloop
  endfacet
  facet normal 0.0568643 -0.608457 -0.791547
    outer loop
      vertex 6.8711e-15 -30.9447 6.9282
      vertex 6.53157e-15 -29.4156 5.75279
      vertex 6.27458 -30.3583 6.9282
    endloop
  endfacet
  facet normal 0.0568594 -0.608474 -0.791534
    outer loop
      vertex 6.53157e-15 -29.4156 5.75279
      vertex 5.93923 -28.7358 5.65685
      vertex 6.27458 -30.3583 6.9282
    endloop
  endfacet
  facet normal 0.0568608 -0.608485 -0.791525
    outer loop
      vertex 5.93923 -28.7358 5.65685
      vertex 6.53157e-15 -29.4156 5.75279
      vertex 6.50386e-15 -29.2908 5.65685
    endloop
  endfacet
  facet normal 0.035796 -0.383022 -0.923045
    outer loop
      vertex 7.29876e-15 -32.8707 7.72741
      vertex 6.90321e-15 -31.0893 6.98821
      vertex 6.66511 -32.2478 7.72741
    endloop
  endfacet
  facet normal 0.0357952 -0.383026 -0.923044
    outer loop
      vertex 6.90321e-15 -31.0893 6.98821
      vertex 6.27458 -30.3583 6.9282
      vertex 6.66511 -32.2478 7.72741
    endloop
  endfacet
  facet normal 0.0357997 -0.383063 -0.923028
    outer loop
      vertex 6.27458 -30.3583 6.9282
      vertex 6.90321e-15 -31.0893 6.98821
      vertex 6.8711e-15 -30.9447 6.9282
    endloop
  endfacet
  facet normal 0.0122183 -0.130751 -0.99134
    outer loop
      vertex 7.75769e-15 -34.9375 8
      vertex 7.3332e-15 -33.0258 7.74786
      vertex 7.08421 -34.2755 8
    endloop
  endfacet
  facet normal 0.0122197 -0.130743 -0.991341
    outer loop
      vertex 7.3332e-15 -33.0258 7.74786
      vertex 6.66511 -32.2478 7.72741
      vertex 7.08421 -34.2755 8
    endloop
  endfacet
  facet normal 0.0122157 -0.130709 -0.991345
    outer loop
      vertex 6.66511 -32.2478 7.72741
      vertex 7.3332e-15 -33.0258 7.74786
      vertex 7.29876e-15 -32.8707 7.72741
    endloop
  endfacet
  facet normal -0.0122181 0.130742 -0.991341
    outer loop
      vertex 8.21663e-15 -37.0044 7.72741
      vertex 7.79224e-15 -35.0931 7.97948
      vertex 7.5033 -36.3032 7.72741
    endloop
  endfacet
  facet normal -0.0122179 0.130744 -0.991341
    outer loop
      vertex 7.79224e-15 -35.0931 7.97948
      vertex 7.08421 -34.2755 8
      vertex 7.5033 -36.3032 7.72741
    endloop
  endfacet
  facet normal -0.0122168 0.130735 -0.991342
    outer loop
      vertex 7.08421 -34.2755 8
      vertex 7.79224e-15 -35.0931 7.97948
      vertex 7.75769e-15 -34.9375 8
    endloop
  endfacet
  facet normal -0.0357948 0.383026 -0.923044
    outer loop
      vertex 8.64429e-15 -38.9304 6.9282
      vertex 8.24902e-15 -37.1503 7.66687
      vertex 7.89383 -38.1927 6.9282
    endloop
  endfacet
  facet normal -0.0357949 0.383026 -0.923044
    outer loop
      vertex 8.24902e-15 -37.1503 7.66687
      vertex 7.5033 -36.3032 7.72741
      vertex 7.89383 -38.1927 6.9282
    endloop
  endfacet
  facet normal -0.0357933 0.383012 -0.92305
    outer loop
      vertex 7.5033 -36.3032 7.72741
      vertex 8.24902e-15 -37.1503 7.66687
      vertex 8.21663e-15 -37.0044 7.72741
    endloop
  endfacet
  facet normal -0.0568605 0.608474 -0.791534
    outer loop
      vertex 9.01153e-15 -40.5843 5.65685
      vertex 8.67234e-15 -39.0568 6.83108
      vertex 8.22919 -39.8153 5.65685
    endloop
  endfacet
  facet normal -0.0568654 0.608449 -0.791553
    outer loop
      vertex 8.67234e-15 -39.0568 6.83108
      vertex 7.89383 -38.1927 6.9282
      vertex 8.22919 -39.8153 5.65685
    endloop
  endfacet
  facet normal -0.0568463 0.608289 -0.791677
    outer loop
      vertex 7.89383 -38.1927 6.9282
      vertex 8.67234e-15 -39.0568 6.83108
      vertex 8.64429e-15 -38.9304 6.9282
    endloop
  endfacet
  facet normal -0.0739868 0.791691 -0.606424
    outer loop
      vertex 9.29332e-15 -41.8534 4
      vertex 9.03327e-15 -40.6822 5.52901
      vertex 8.48652 -41.0603 4
    endloop
  endfacet
  facet normal -0.0739884 0.791762 -0.606332
    outer loop
      vertex 8.22919 -39.8153 5.65685
      vertex 9.03327e-15 -40.6822 5.52901
      vertex 9.01153e-15 -40.5843 5.65685
    endloop
  endfacet
  facet normal -0.0739818 0.79171 -0.606401
    outer loop
      vertex 9.03327e-15 -40.6822 5.52901
      vertex 8.22919 -39.8153 5.65685
      vertex 8.48652 -41.0603 4
    endloop
  endfacet
  facet normal -0.0860398 0.920683 -0.380709
    outer loop
      vertex 9.47046e-15 -42.6512 2.07055
      vertex 9.30714e-15 -41.9156 3.84948
      vertex 8.64828 -41.843 2.07055
    endloop
  endfacet
  facet normal -0.0860498 0.920771 -0.380494
    outer loop
      vertex 8.48652 -41.0603 4
      vertex 9.30714e-15 -41.9156 3.84948
      vertex 9.29332e-15 -41.8534 4
    endloop
  endfacet
  facet normal -0.0860378 0.920688 -0.380699
    outer loop
      vertex 9.30714e-15 -41.9156 3.84948
      vertex 8.48652 -41.0603 4
      vertex 8.64828 -41.843 2.07055
    endloop
  endfacet
  facet normal -0.0922647 0.987241 -0.129776
    outer loop
      vertex 9.53088e-15 -42.9233 0
      vertex 9.47523e-15 -42.6726 1.90715
      vertex 8.70346 -42.1099 0
    endloop
  endfacet
  facet normal -0.0922656 0.987303 -0.129304
    outer loop
      vertex 8.64828 -41.843 2.07055
      vertex 9.47523e-15 -42.6726 1.90715
      vertex 9.47046e-15 -42.6512 2.07055
    endloop
  endfacet
  facet normal -0.0922526 0.98725 -0.129718
    outer loop
      vertex 9.47523e-15 -42.6726 1.90715
      vertex 8.64828 -41.843 2.07055
      vertex 8.70346 -42.1099 0
    endloop
  endfacet
  facet normal 0.306686 -0.942924 -0.129763
    outer loop
      vertex 5.52013 -26.7081 2.07055
      vertex 5.46496 -26.4411 0
      vertex 11.2471 -24.8454 2.07055
    endloop
  endfacet
  facet normal 0.306675 -0.942933 -0.129724
    outer loop
      vertex 11.2471 -24.8454 2.07055
      vertex 5.46496 -26.4411 0
      vertex 11.1347 -24.5971 0
    endloop
  endfacet
  facet normal 0.286004 -0.879374 -0.38066
    outer loop
      vertex 5.6819 -27.4907 4
      vertex 5.52013 -26.7081 2.07055
      vertex 11.5767 -25.5735 4
    endloop
  endfacet
  facet normal 0.286011 -0.879358 -0.380694
    outer loop
      vertex 11.5767 -25.5735 4
      vertex 5.52013 -26.7081 2.07055
      vertex 11.2471 -24.8454 2.07055
    endloop
  endfacet
  facet normal 0.245935 -0.756147 -0.606431
    outer loop
      vertex 5.93923 -28.7358 5.65685
      vertex 5.6819 -27.4907 4
      vertex 12.101 -26.7317 5.65685
    endloop
  endfacet
  facet normal 0.245932 -0.756164 -0.60641
    outer loop
      vertex 12.101 -26.7317 5.65685
      vertex 5.6819 -27.4907 4
      vertex 11.5767 -25.5735 4
    endloop
  endfacet
  facet normal 0.189017 -0.581159 -0.791534
    outer loop
      vertex 6.27458 -30.3583 6.9282
      vertex 5.93923 -28.7358 5.65685
      vertex 12.7842 -28.2411 6.9282
    endloop
  endfacet
  facet normal 0.189018 -0.58115 -0.791541
    outer loop
      vertex 12.7842 -28.2411 6.9282
      vertex 5.93923 -28.7358 5.65685
      vertex 12.101 -26.7317 5.65685
    endloop
  endfacet
  facet normal 0.11898 -0.365833 -0.923044
    outer loop
      vertex 6.66511 -32.2478 7.72741
      vertex 6.27458 -30.3583 6.9282
      vertex 13.5799 -29.9989 7.72741
    endloop
  endfacet
  facet normal 0.11898 -0.36582 -0.923049
    outer loop
      vertex 13.5799 -29.9989 7.72741
      vertex 6.27458 -30.3583 6.9282
      vertex 12.7842 -28.2411 6.9282
    endloop
  endfacet
  facet normal 0.0406145 -0.124875 -0.991341
    outer loop
      vertex 7.08421 -34.2755 8
      vertex 6.66511 -32.2478 7.72741
      vertex 14.4338 -31.8851 8
    endloop
  endfacet
  facet normal 0.0406147 -0.12488 -0.99134
    outer loop
      vertex 14.4338 -31.8851 8
      vertex 6.66511 -32.2478 7.72741
      vertex 13.5799 -29.9989 7.72741
    endloop
  endfacet
  facet normal -0.0406143 0.124875 -0.991341
    outer loop
      vertex 7.5033 -36.3032 7.72741
      vertex 7.08421 -34.2755 8
      vertex 15.2877 -33.7714 7.72741
    endloop
  endfacet
  facet normal -0.0406142 0.124874 -0.991341
    outer loop
      vertex 15.2877 -33.7714 7.72741
      vertex 7.08421 -34.2755 8
      vertex 14.4338 -31.8851 8
    endloop
  endfacet
  facet normal -0.11898 0.365833 -0.923044
    outer loop
      vertex 7.89383 -38.1927 6.9282
      vertex 7.5033 -36.3032 7.72741
      vertex 16.0834 -35.5292 6.9282
    endloop
  endfacet
  facet normal -0.118979 0.36582 -0.923049
    outer loop
      vertex 16.0834 -35.5292 6.9282
      vertex 7.5033 -36.3032 7.72741
      vertex 15.2877 -33.7714 7.72741
    endloop
  endfacet
  facet normal -0.189007 0.581138 -0.791552
    outer loop
      vertex 8.22919 -39.8153 5.65685
      vertex 7.89383 -38.1927 6.9282
      vertex 16.7667 -37.0386 5.65685
    endloop
  endfacet
  facet normal -0.189007 0.581147 -0.791546
    outer loop
      vertex 16.7667 -37.0386 5.65685
      vertex 7.89383 -38.1927 6.9282
      vertex 16.0834 -35.5292 6.9282
    endloop
  endfacet
  facet normal -0.245931 0.756171 -0.606402
    outer loop
      vertex 8.48652 -41.0603 4
      vertex 8.22919 -39.8153 5.65685
      vertex 17.291 -38.1968 4
    endloop
  endfacet
  facet normal -0.245931 0.756164 -0.60641
    outer loop
      vertex 17.291 -38.1968 4
      vertex 8.22919 -39.8153 5.65685
      vertex 16.7667 -37.0386 5.65685
    endloop
  endfacet
  facet normal -0.286006 0.879357 -0.380698
    outer loop
      vertex 8.64828 -41.843 2.07055
      vertex 8.48652 -41.0603 4
      vertex 17.6206 -38.9248 2.07055
    endloop
  endfacet
  facet normal -0.286002 0.879378 -0.380654
    outer loop
      vertex 17.6206 -38.9248 2.07055
      vertex 8.48652 -41.0603 4
      vertex 17.291 -38.1968 4
    endloop
  endfacet
  facet normal -0.306673 0.942934 -0.12972
    outer loop
      vertex 8.70346 -42.1099 0
      vertex 8.64828 -41.843 2.07055
      vertex 17.733 -39.1732 0
    endloop
  endfacet
  facet normal -0.306681 0.942924 -0.129769
    outer loop
      vertex 17.733 -39.1732 0
      vertex 8.64828 -41.843 2.07055
      vertex 17.6206 -38.9248 2.07055
    endloop
  endfacet
  facet normal 0.506148 -0.852635 -0.129724
    outer loop
      vertex 11.2471 -24.8454 2.07055
      vertex 11.1347 -24.5971 0
      vertex 16.4256 -21.7713 2.07055
    endloop
  endfacet
  facet normal 0.506152 -0.852629 -0.129744
    outer loop
      vertex 16.4256 -21.7713 2.07055
      vertex 11.1347 -24.5971 0
      vertex 16.2614 -21.5537 0
    endloop
  endfacet
  facet normal 0.472022 -0.795152 -0.380693
    outer loop
      vertex 11.5767 -25.5735 4
      vertex 11.2471 -24.8454 2.07055
      vertex 16.907 -22.4093 4
    endloop
  endfacet
  facet normal 0.472023 -0.79515 -0.380698
    outer loop
      vertex 16.907 -22.4093 4
      vertex 11.2471 -24.8454 2.07055
      vertex 16.4256 -21.7713 2.07055
    endloop
  endfacet
  facet normal 0.405892 -0.683752 -0.606411
    outer loop
      vertex 12.101 -26.7317 5.65685
      vertex 11.5767 -25.5735 4
      vertex 17.6727 -23.4242 5.65685
    endloop
  endfacet
  facet normal 0.405892 -0.683752 -0.606411
    outer loop
      vertex 17.6727 -23.4242 5.65685
      vertex 11.5767 -25.5735 4
      vertex 16.907 -22.4093 4
    endloop
  endfacet
  facet normal 0.311948 -0.525506 -0.791538
    outer loop
      vertex 12.7842 -28.2411 6.9282
      vertex 12.101 -26.7317 5.65685
      vertex 18.6705 -24.7469 6.9282
    endloop
  endfacet
  facet normal 0.311947 -0.525494 -0.791546
    outer loop
      vertex 18.6705 -24.7469 6.9282
      vertex 12.101 -26.7317 5.65685
      vertex 17.6727 -23.4242 5.65685
    endloop
  endfacet
  facet normal 0.196367 -0.330789 -0.923049
    outer loop
      vertex 13.5799 -29.9989 7.72741
      vertex 12.7842 -28.2411 6.9282
      vertex 19.8326 -26.2871 7.72741
    endloop
  endfacet
  facet normal 0.19637 -0.330803 -0.923043
    outer loop
      vertex 19.8326 -26.2871 7.72741
      vertex 12.7842 -28.2411 6.9282
      vertex 18.6705 -24.7469 6.9282
    endloop
  endfacet
  facet normal 0.0670322 -0.112921 -0.99134
    outer loop
      vertex 14.4338 -31.8851 8
      vertex 13.5799 -29.9989 7.72741
      vertex 21.0796 -27.94 8
    endloop
  endfacet
  facet normal 0.0670314 -0.112918 -0.991341
    outer loop
      vertex 21.0796 -27.94 8
      vertex 13.5799 -29.9989 7.72741
      vertex 19.8326 -26.2871 7.72741
    endloop
  endfacet
  facet normal -0.0670293 0.112916 -0.991341
    outer loop
      vertex 15.2877 -33.7714 7.72741
      vertex 14.4338 -31.8851 8
      vertex 22.3267 -29.5929 7.72741
    endloop
  endfacet
  facet normal -0.0670291 0.112915 -0.991341
    outer loop
      vertex 22.3267 -29.5929 7.72741
      vertex 14.4338 -31.8851 8
      vertex 21.0796 -27.94 8
    endloop
  endfacet
  facet normal -0.196364 0.33079 -0.923049
    outer loop
      vertex 16.0834 -35.5292 6.9282
      vertex 15.2877 -33.7714 7.72741
      vertex 23.4888 -31.1332 6.9282
    endloop
  endfacet
  facet normal -0.196364 0.33079 -0.923049
    outer loop
      vertex 23.4888 -31.1332 6.9282
      vertex 15.2877 -33.7714 7.72741
      vertex 22.3267 -29.5929 7.72741
    endloop
  endfacet
  facet normal -0.31195 0.525492 -0.791546
    outer loop
      vertex 16.7667 -37.0386 5.65685
      vertex 16.0834 -35.5292 6.9282
      vertex 24.4866 -32.4558 5.65685
    endloop
  endfacet
  facet normal -0.311955 0.525513 -0.79153
    outer loop
      vertex 24.4866 -32.4558 5.65685
      vertex 16.0834 -35.5292 6.9282
      vertex 23.4888 -31.1332 6.9282
    endloop
  endfacet
  facet normal -0.405897 0.68375 -0.60641
    outer loop
      vertex 17.291 -38.1968 4
      vertex 16.7667 -37.0386 5.65685
      vertex 25.2523 -33.4707 4
    endloop
  endfacet
  facet normal -0.405897 0.683749 -0.606411
    outer loop
      vertex 25.2523 -33.4707 4
      vertex 16.7667 -37.0386 5.65685
      vertex 24.4866 -32.4558 5.65685
    endloop
  endfacet
  facet normal -0.472027 0.795167 -0.380658
    outer loop
      vertex 17.6206 -38.9248 2.07055
      vertex 17.291 -38.1968 4
      vertex 25.7337 -34.1087 2.07055
    endloop
  endfacet
  facet normal -0.472027 0.795148 -0.380698
    outer loop
      vertex 25.7337 -34.1087 2.07055
      vertex 17.291 -38.1968 4
      vertex 25.2523 -33.4707 4
    endloop
  endfacet
  facet normal -0.506144 0.852631 -0.129765
    outer loop
      vertex 17.733 -39.1732 0
      vertex 17.6206 -38.9248 2.07055
      vertex 25.8979 -34.3263 0
    endloop
  endfacet
  facet normal -0.506142 0.852635 -0.129744
    outer loop
      vertex 25.8979 -34.3263 0
      vertex 17.6206 -38.9248 2.07055
      vertex 25.7337 -34.1087 2.07055
    endloop
  endfacet
  facet normal 0.680924 -0.720769 -0.129747
    outer loop
      vertex 16.4256 -21.7713 2.07055
      vertex 16.2614 -21.5537 0
      vertex 20.8032 -17.6357 2.07055
    endloop
  endfacet
  facet normal 0.680923 -0.720771 -0.129741
    outer loop
      vertex 20.8032 -17.6357 2.07055
      vertex 16.2614 -21.5537 0
      vertex 20.5953 -17.4594 0
    endloop
  endfacet
  facet normal 0.635016 -0.672176 -0.380702
    outer loop
      vertex 16.907 -22.4093 4
      vertex 16.4256 -21.7713 2.07055
      vertex 21.4129 -18.1525 4
    endloop
  endfacet
  facet normal 0.635016 -0.672175 -0.380704
    outer loop
      vertex 21.4129 -18.1525 4
      vertex 16.4256 -21.7713 2.07055
      vertex 20.8032 -17.6357 2.07055
    endloop
  endfacet
  facet normal 0.546058 -0.578002 -0.606411
    outer loop
      vertex 17.6727 -23.4242 5.65685
      vertex 16.907 -22.4093 4
      vertex 22.3826 -18.9746 5.65685
    endloop
  endfacet
  facet normal 0.546062 -0.578016 -0.606394
    outer loop
      vertex 22.3826 -18.9746 5.65685
      vertex 16.907 -22.4093 4
      vertex 21.4129 -18.1525 4
    endloop
  endfacet
  facet normal 0.419669 -0.444229 -0.791542
    outer loop
      vertex 18.6705 -24.7469 6.9282
      vertex 17.6727 -23.4242 5.65685
      vertex 23.6465 -20.046 6.9282
    endloop
  endfacet
  facet normal 0.419663 -0.444213 -0.791554
    outer loop
      vertex 23.6465 -20.046 6.9282
      vertex 17.6727 -23.4242 5.65685
      vertex 22.3826 -18.9746 5.65685
    endloop
  endfacet
  facet normal 0.264181 -0.27964 -0.923044
    outer loop
      vertex 19.8326 -26.2871 7.72741
      vertex 18.6705 -24.7469 6.9282
      vertex 25.1182 -21.2937 7.72741
    endloop
  endfacet
  facet normal 0.264182 -0.279642 -0.923043
    outer loop
      vertex 25.1182 -21.2937 7.72741
      vertex 18.6705 -24.7469 6.9282
      vertex 23.6465 -20.046 6.9282
    endloop
  endfacet
  facet normal 0.0901778 -0.0954552 -0.991341
    outer loop
      vertex 21.0796 -27.94 8
      vertex 19.8326 -26.2871 7.72741
      vertex 26.6976 -22.6326 8
    endloop
  endfacet
  facet normal 0.0901773 -0.0954542 -0.991341
    outer loop
      vertex 26.6976 -22.6326 8
      vertex 19.8326 -26.2871 7.72741
      vertex 25.1182 -21.2937 7.72741
    endloop
  endfacet
  facet normal -0.0901755 0.0954515 -0.991341
    outer loop
      vertex 22.3267 -29.5929 7.72741
      vertex 21.0796 -27.94 8
      vertex 28.277 -23.9715 7.72741
    endloop
  endfacet
  facet normal -0.0901771 0.0954544 -0.991341
    outer loop
      vertex 28.277 -23.9715 7.72741
      vertex 21.0796 -27.94 8
      vertex 26.6976 -22.6326 8
    endloop
  endfacet
  facet normal -0.264174 0.27963 -0.923049
    outer loop
      vertex 23.4888 -31.1332 6.9282
      vertex 22.3267 -29.5929 7.72741
      vertex 29.7488 -25.2192 6.9282
    endloop
  endfacet
  facet normal -0.264175 0.279632 -0.923048
    outer loop
      vertex 29.7488 -25.2192 6.9282
      vertex 22.3267 -29.5929 7.72741
      vertex 28.277 -23.9715 7.72741
    endloop
  endfacet
  facet normal -0.41968 0.444241 -0.791529
    outer loop
      vertex 24.4866 -32.4558 5.65685
      vertex 23.4888 -31.1332 6.9282
      vertex 31.0126 -26.2906 5.65685
    endloop
  endfacet
  facet normal -0.419673 0.444226 -0.791542
    outer loop
      vertex 31.0126 -26.2906 5.65685
      vertex 23.4888 -31.1332 6.9282
      vertex 29.7488 -25.2192 6.9282
    endloop
  endfacet
  facet normal -0.546051 0.578009 -0.606411
    outer loop
      vertex 25.2523 -33.4707 4
      vertex 24.4866 -32.4558 5.65685
      vertex 31.9824 -27.1127 4
    endloop
  endfacet
  facet normal -0.54605 0.578006 -0.606415
    outer loop
      vertex 31.9824 -27.1127 4
      vertex 24.4866 -32.4558 5.65685
      vertex 31.0126 -26.2906 5.65685
    endloop
  endfacet
  facet normal -0.635019 0.672174 -0.380702
    outer loop
      vertex 25.7337 -34.1087 2.07055
      vertex 25.2523 -33.4707 4
      vertex 32.592 -27.6295 2.07055
    endloop
  endfacet
  facet normal -0.635021 0.672186 -0.380676
    outer loop
      vertex 32.592 -27.6295 2.07055
      vertex 25.2523 -33.4707 4
      vertex 31.9824 -27.1127 4
    endloop
  endfacet
  facet normal -0.680927 0.720766 -0.129747
    outer loop
      vertex 25.8979 -34.3263 0
      vertex 25.7337 -34.1087 2.07055
      vertex 32.7999 -27.8058 0
    endloop
  endfacet
  facet normal -0.680927 0.720768 -0.129741
    outer loop
      vertex 32.7999 -27.8058 0
      vertex 25.7337 -34.1087 2.07055
      vertex 32.592 -27.6295 2.07055
    endloop
  endfacet
  facet normal 0.822227 -0.55365 -0.131964
    outer loop
      vertex 20.8032 -17.6357 2.07055
      vertex 23.8804 -13.0262 1.90466
      vertex 23.8836 -13.028 1.93215
    endloop
  endfacet
  facet normal 0.822555 -0.553789 -0.129311
    outer loop
      vertex 20.8032 -17.6357 2.07055
      vertex 23.8836 -13.028 1.93215
      vertex 23.8995 -13.0367 2.07055
    endloop
  endfacet
  facet normal 0.822509 -0.553758 -0.129737
    outer loop
      vertex 23.8804 -13.0262 1.90466
      vertex 20.8032 -17.6357 2.07055
      vertex 20.5953 -17.4594 0
    endloop
  endfacet
  facet normal 0.82251 -0.553753 -0.129749
    outer loop
      vertex 23.8804 -13.0262 1.90466
      vertex 20.5953 -17.4594 0
      vertex 23.6606 -12.9064 0
    endloop
  endfacet
  facet normal 0.767197 -0.516983 -0.379655
    outer loop
      vertex 24.5651 -13.3997 3.90426
      vertex 20.8032 -17.6357 2.07055
      vertex 24.5428 -13.3876 3.84272
    endloop
  endfacet
  facet normal 0.766997 -0.516128 -0.381219
    outer loop
      vertex 24.5999 -13.4187 4
      vertex 20.8032 -17.6357 2.07055
      vertex 24.5651 -13.3997 3.90426
    endloop
  endfacet
  facet normal 0.767057 -0.516416 -0.380709
    outer loop
      vertex 20.8032 -17.6357 2.07055
      vertex 24.5999 -13.4187 4
      vertex 21.4129 -18.1525 4
    endloop
  endfacet
  facet normal 0.767056 -0.516424 -0.380697
    outer loop
      vertex 24.5428 -13.3876 3.84272
      vertex 20.8032 -17.6357 2.07055
      vertex 23.8995 -13.0367 2.07055
    endloop
  endfacet
  facet normal 0.659643 -0.444161 -0.606293
    outer loop
      vertex 25.714 -14.0264 5.65685
      vertex 21.4129 -18.1525 4
      vertex 25.6219 -13.9762 5.51987
    endloop
  endfacet
  facet normal 0.659606 -0.444083 -0.606392
    outer loop
      vertex 21.4129 -18.1525 4
      vertex 25.714 -14.0264 5.65685
      vertex 22.3826 -18.9746 5.65685
    endloop
  endfacet
  facet normal 0.659593 -0.444065 -0.606418
    outer loop
      vertex 21.4129 -18.1525 4
      vertex 25.2079 -13.7504 4.90422
      vertex 25.6219 -13.9762 5.51987
    endloop
  endfacet
  facet normal 0.659595 -0.444068 -0.606414
    outer loop
      vertex 25.2079 -13.7504 4.90422
      vertex 21.4129 -18.1525 4
      vertex 24.5999 -13.4187 4
    endloop
  endfacet
  facet normal 0.506991 -0.341324 -0.791491
    outer loop
      vertex 23.6465 -20.046 6.9282
      vertex 27.0447 -14.7523 6.82206
      vertex 27.1659 -14.8184 6.9282
    endloop
  endfacet
  facet normal 0.50692 -0.34128 -0.791555
    outer loop
      vertex 27.0447 -14.7523 6.82206
      vertex 23.6465 -20.046 6.9282
      vertex 22.3826 -18.9746 5.65685
    endloop
  endfacet
  facet normal 0.50693 -0.341293 -0.791544
    outer loop
      vertex 22.3826 -18.9746 5.65685
      vertex 25.9294 -14.1439 5.84546
      vertex 27.0447 -14.7523 6.82206
    endloop
  endfacet
  facet normal 0.506926 -0.341291 -0.791547
    outer loop
      vertex 25.9294 -14.1439 5.84546
      vertex 22.3826 -18.9746 5.65685
      vertex 25.714 -14.0264 5.65685
    endloop
  endfacet
  facet normal 0.319203 -0.2149 -0.922999
    outer loop
      vertex 25.1182 -21.2937 7.72741
      vertex 28.7149 -15.6633 7.66035
      vertex 28.8567 -15.7407 7.72741
    endloop
  endfacet
  facet normal 0.319116 -0.214845 -0.923042
    outer loop
      vertex 28.7149 -15.6633 7.66035
      vertex 25.1182 -21.2937 7.72741
      vertex 23.6465 -20.046 6.9282
    endloop
  endfacet
  facet normal 0.319105 -0.214833 -0.923049
    outer loop
      vertex 28.6229 -15.6132 7.61688
      vertex 23.6465 -20.046 6.9282
      vertex 27.1659 -14.8184 6.9282
    endloop
  endfacet
  facet normal 0.319128 -0.214861 -0.923034
    outer loop
      vertex 23.6465 -20.046 6.9282
      vertex 28.6229 -15.6132 7.61688
      vertex 28.7149 -15.6633 7.66035
    endloop
  endfacet
  facet normal 0.108918 -0.0733294 -0.991342
    outer loop
      vertex 26.6976 -22.6326 8
      vertex 30.5189 -16.6474 7.97712
      vertex 30.6712 -16.7305 8
    endloop
  endfacet
  facet normal 0.108928 -0.0733355 -0.991341
    outer loop
      vertex 30.5189 -16.6474 7.97712
      vertex 26.6976 -22.6326 8
      vertex 25.1182 -21.2937 7.72741
    endloop
  endfacet
  facet normal 0.108926 -0.0733332 -0.991341
    outer loop
      vertex 30.5189 -16.6474 7.97712
      vertex 25.1182 -21.2937 7.72741
      vertex 28.8567 -15.7407 7.72741
    endloop
  endfacet
  facet normal -0.1089 0.0733172 -0.991345
    outer loop
      vertex 28.277 -23.9715 7.72741
      vertex 32.3338 -17.6374 7.75022
      vertex 32.4857 -17.7202 7.72741
    endloop
  endfacet
  facet normal -0.108928 0.0733352 -0.991341
    outer loop
      vertex 32.3338 -17.6374 7.75022
      vertex 28.277 -23.9715 7.72741
      vertex 26.6976 -22.6326 8
    endloop
  endfacet
  facet normal -0.10893 0.0733374 -0.99134
    outer loop
      vertex 32.3338 -17.6374 7.75022
      vertex 26.6976 -22.6326 8
      vertex 30.6712 -16.7305 8
    endloop
  endfacet
  facet normal -0.319154 0.214867 -0.923024
    outer loop
      vertex 29.7488 -25.2192 6.9282
      vertex 34.0359 -18.5658 6.99467
      vertex 34.1765 -18.6425 6.9282
    endloop
  endfacet
  facet normal -0.319105 0.214836 -0.923048
    outer loop
      vertex 34.0359 -18.5658 6.99467
      vertex 29.7488 -25.2192 6.9282
      vertex 28.277 -23.9715 7.72741
    endloop
  endfacet
  facet normal -0.319117 0.21485 -0.92304
    outer loop
      vertex 28.277 -23.9715 7.72741
      vertex 33.2594 -18.1423 7.3617
      vertex 34.0359 -18.5658 6.99467
    endloop
  endfacet
  facet normal -0.319099 0.214834 -0.92305
    outer loop
      vertex 33.2594 -18.1423 7.3617
      vertex 28.277 -23.9715 7.72741
      vertex 32.4857 -17.7202 7.72741
    endloop
  endfacet
  facet normal -0.507068 0.341379 -0.791418
    outer loop
      vertex 31.0126 -26.2906 5.65685
      vertex 35.5087 -19.3692 5.76171
      vertex 35.6284 -19.4345 5.65685
    endloop
  endfacet
  facet normal -0.506934 0.341293 -0.791541
    outer loop
      vertex 35.5087 -19.3692 5.76171
      vertex 31.0126 -26.2906 5.65685
      vertex 29.7488 -25.2192 6.9282
    endloop
  endfacet
  facet normal -0.506911 0.341273 -0.791564
    outer loop
      vertex 34.8442 -19.0067 6.34359
      vertex 29.7488 -25.2192 6.9282
      vertex 34.1765 -18.6425 6.9282
    endloop
  endfacet
  facet normal -0.506937 0.341297 -0.791537
    outer loop
      vertex 29.7488 -25.2192 6.9282
      vertex 34.8442 -19.0067 6.34359
      vertex 35.5087 -19.3692 5.76171
    endloop
  endfacet
  facet normal -0.659639 0.444135 -0.606317
    outer loop
      vertex 36.7425 -20.0423 4
      vertex 31.0126 -26.2906 5.65685
      vertex 36.6516 -19.9926 4.1353
    endloop
  endfacet
  facet normal -0.659593 0.444067 -0.606417
    outer loop
      vertex 31.0126 -26.2906 5.65685
      vertex 36.7425 -20.0423 4
      vertex 31.9824 -27.1127 4
    endloop
  endfacet
  facet normal -0.659585 0.444059 -0.606432
    outer loop
      vertex 36.6516 -19.9926 4.1353
      vertex 31.0126 -26.2906 5.65685
      vertex 35.6284 -19.4345 5.65685
    endloop
  endfacet
  facet normal -0.767017 0.516315 -0.380926
    outer loop
      vertex 37.4429 -20.4243 2.07055
      vertex 31.9824 -27.1127 4
      vertex 37.3863 -20.3934 2.2264
    endloop
  endfacet
  facet normal -0.767066 0.516427 -0.380675
    outer loop
      vertex 31.9824 -27.1127 4
      vertex 37.4429 -20.4243 2.07055
      vertex 32.592 -27.6295 2.07055
    endloop
  endfacet
  facet normal -0.767164 0.516621 -0.380213
    outer loop
      vertex 31.9824 -27.1127 4
      vertex 37.3252 -20.3601 2.39493
      vertex 37.3863 -20.3934 2.2264
    endloop
  endfacet
  facet normal -0.767053 0.516414 -0.380718
    outer loop
      vertex 37.3252 -20.3601 2.39493
      vertex 31.9824 -27.1127 4
      vertex 36.7425 -20.0423 4
    endloop
  endfacet
  facet normal -0.822496 0.553749 -0.129857
    outer loop
      vertex 32.7999 -27.8058 0
      vertex 37.6627 -20.5442 0.165326
      vertex 37.6818 -20.5546 0
    endloop
  endfacet
  facet normal -0.82251 0.553756 -0.129737
    outer loop
      vertex 37.6627 -20.5442 0.165326
      vertex 32.7999 -27.8058 0
      vertex 32.592 -27.6295 2.07055
    endloop
  endfacet
  facet normal -0.82251 0.553755 -0.12974
    outer loop
      vertex 37.6627 -20.5442 0.165326
      vertex 32.592 -27.6295 2.07055
      vertex 37.4429 -20.4243 2.07055
    endloop
  endfacet
  facet normal 0 0 -1
    outer loop
      vertex 32.7999 -27.8058 0
      vertex 38.627 -21.0702 0
      vertex 33.263 -28.8023 0
    endloop
  endfacet
  facet normal -0 0 -1
    outer loop
      vertex 38.627 -21.0702 0
      vertex 32.7999 -27.8058 0
      vertex 37.6818 -20.5546 0
    endloop
  endfacet
  facet normal 0 0 -1
    outer loop
      vertex 25.8979 -34.3263 0
      vertex 33.263 -28.8023 0
      vertex 26.3774 -35.2169 0
    endloop
  endfacet
  facet normal -0 0 -1
    outer loop
      vertex 33.263 -28.8023 0
      vertex 25.8979 -34.3263 0
      vertex 32.7999 -27.8058 0
    endloop
  endfacet
  facet normal 0 0 -1
    outer loop
      vertex 18.2852 -40.0206 0
      vertex 25.8979 -34.3263 0
      vertex 26.3774 -35.2169 0
    endloop
  endfacet
  facet normal 0 0 -1
    outer loop
      vertex 18.2852 -40.0206 0
      vertex 17.733 -39.1732 0
      vertex 25.8979 -34.3263 0
    endloop
  endfacet
  facet normal 0 0 -1
    outer loop
      vertex 9.3566 -42.9936 0
      vertex 17.733 -39.1732 0
      vertex 18.2852 -40.0206 0
    endloop
  endfacet
  facet normal 0 0 -1
    outer loop
      vertex 9.3566 -42.9936 0
      vertex 8.70346 -42.1099 0
      vertex 17.733 -39.1732 0
    endloop
  endfacet
  facet normal 0 0 -1
    outer loop
      vertex 9.76995e-15 -44 0
      vertex 8.70346 -42.1099 0
      vertex 9.3566 -42.9936 0
    endloop
  endfacet
  facet normal 0 0 -1
    outer loop
      vertex 8.70346 -42.1099 0
      vertex 9.76995e-15 -44 0
      vertex 9.53088e-15 -42.9233 0
    endloop
  endfacet
  facet normal 0 0 -1
    outer loop
      vertex 20.5953 -17.4594 0
      vertex 22.825 -12.4506 0
      vertex 23.6606 -12.9064 0
    endloop
  endfacet
  facet normal 0 0 -1
    outer loop
      vertex 20.5953 -17.4594 0
      vertex 19.6554 -17.0195 0
      vertex 22.825 -12.4506 0
    endloop
  endfacet
  facet normal 0 0 -1
    outer loop
      vertex 16.2614 -21.5537 0
      vertex 19.6554 -17.0195 0
      vertex 20.5953 -17.4594 0
    endloop
  endfacet
  facet normal 0 0 -1
    outer loop
      vertex 16.2614 -21.5537 0
      vertex 15.5866 -20.81 0
      vertex 19.6554 -17.0195 0
    endloop
  endfacet
  facet normal 0 0 -1
    outer loop
      vertex 11.1347 -24.5971 0
      vertex 15.5866 -20.81 0
      vertex 16.2614 -21.5537 0
    endloop
  endfacet
  facet normal 0 0 -1
    outer loop
      vertex 11.1347 -24.5971 0
      vertex 10.8049 -23.6485 0
      vertex 15.5866 -20.81 0
    endloop
  endfacet
  facet normal -0 0 -1
    outer loop
      vertex 11.1347 -24.5971 0
      vertex 5.52889 -25.4053 0
      vertex 10.8049 -23.6485 0
    endloop
  endfacet
  facet normal 0 0 -1
    outer loop
      vertex 5.46496 -26.4411 0
      vertex 5.52889 -25.4053 0
      vertex 11.1347 -24.5971 0
    endloop
  endfacet
  facet normal 0 0 -1
    outer loop
      vertex 5.77315e-15 -26 0
      vertex 5.46496 -26.4411 0
      vertex 5.9845e-15 -26.9518 0
    endloop
  endfacet
  facet normal 0 0 -1
    outer loop
      vertex 5.46496 -26.4411 0
      vertex 5.77315e-15 -26 0
      vertex 5.52889 -25.4053 0
    endloop
  endfacet
endsolid OpenSCAD_Model
