solid OpenSCAD_Model
  facet normal -1 -2.22032e-16 1.27397e-19
    outer loop
      vertex 5.98924e-15 -26.9731 0.162639
      vertex 5.77316e-15 -26 0
      vertex 5.98449e-15 -26.9518 0
    endloop
  endfacet
  facet normal -1 -2.22053e-16 3.72196e-21
    outer loop
      vertex 5.77316e-15 -26 0
      vertex 5.98924e-15 -26.9731 0.162639
      vertex 5.84125e-15 -26.3066 2.32937
    endloop
  endfacet
  facet normal -1 -2.22019e-16 -6.52162e-21
    outer loop
      vertex 6.04491e-15 -27.2239 2.07055
      vertex 5.84125e-15 -26.3066 2.32937
      vertex 5.98924e-15 -26.9731 0.162639
    endloop
  endfacet
  facet normal -1 -2.22027e-16 2.10257e-20
    outer loop
      vertex 6.05859e-15 -27.2855 2.2195
      vertex 5.84125e-15 -26.3066 2.32937
      vertex 6.04491e-15 -27.2239 2.07055
    endloop
  endfacet
  facet normal -1 -2.22024e-16 -2.03811e-21
    outer loop
      vertex 5.84125e-15 -26.3066 2.32937
      vertex 6.05859e-15 -27.2855 2.2195
      vertex 6.04089e-15 -27.2058 4.5
    endloop
  endfacet
  facet normal -1 -2.22076e-16 -2.25752e-22
    outer loop
      vertex 6.22206e-15 -28.0216 4
      vertex 6.04089e-15 -27.2058 4.5
      vertex 6.05859e-15 -27.2855 2.2195
    endloop
  endfacet
  facet normal -1 -2.22035e-16 -6.79394e-20
    outer loop
      vertex 6.2435e-15 -28.1182 4.12609
      vertex 6.04089e-15 -27.2058 4.5
      vertex 6.22206e-15 -28.0216 4
    endloop
  endfacet
  facet normal -1 -2.2206e-16 -5.73935e-21
    outer loop
      vertex 6.2435e-15 -28.1182 4.12609
      vertex 6.35847e-15 -28.636 6.36396
      vertex 6.04089e-15 -27.2058 4.5
    endloop
  endfacet
  facet normal -1 -2.22052e-16 -3.7706e-21
    outer loop
      vertex 6.50385e-15 -29.2907 5.65685
      vertex 6.35847e-15 -28.636 6.36396
      vertex 6.2435e-15 -28.1182 4.12609
    endloop
  endfacet
  facet normal -1 -2.2196e-16 -8.8381e-20
    outer loop
      vertex 6.53152e-15 -29.4154 5.75266
      vertex 6.35847e-15 -28.636 6.36396
      vertex 6.50385e-15 -29.2907 5.65685
    endloop
  endfacet
  facet normal -1 -2.22037e-16 9.16771e-21
    outer loop
      vertex 6.53152e-15 -29.4154 5.75266
      vertex 6.77236e-15 -30.5 7.79423
      vertex 6.35847e-15 -28.636 6.36396
    endloop
  endfacet
  facet normal -1 -2.22059e-16 -2.75802e-21
    outer loop
      vertex 6.87109e-15 -30.9446 6.9282
      vertex 6.77236e-15 -30.5 7.79423
      vertex 6.53152e-15 -29.4154 5.75266
    endloop
  endfacet
  facet normal -1 -2.2203e-16 -1.80356e-20
    outer loop
      vertex 6.90315e-15 -31.089 6.98813
      vertex 6.77236e-15 -30.5 7.79423
      vertex 6.87109e-15 -30.9446 6.9282
    endloop
  endfacet
  facet normal -1 -2.22047e-16 -5.45959e-21
    outer loop
      vertex 6.90315e-15 -31.089 6.98813
      vertex 7.25433e-15 -32.6706 8.69333
      vertex 6.77236e-15 -30.5 7.79423
    endloop
  endfacet
  facet normal -1 -2.22043e-16 -1.5283e-21
    outer loop
      vertex 7.29874e-15 -32.8706 7.72741
      vertex 7.25433e-15 -32.6706 8.69333
      vertex 6.90315e-15 -31.089 6.98813
    endloop
  endfacet
  facet normal -1 -2.22078e-16 5.79682e-21
    outer loop
      vertex 7.33314e-15 -33.0255 7.74783
      vertex 7.25433e-15 -32.6706 8.69333
      vertex 7.29874e-15 -32.8706 7.72741
    endloop
  endfacet
  facet normal -1 -2.22039e-16 2.5366e-21
    outer loop
      vertex 7.77156e-15 -35 9
      vertex 7.33314e-15 -33.0255 7.74783
      vertex 7.75768e-15 -34.9375 8
    endloop
  endfacet
  facet normal -1 -2.22045e-16 -6.52754e-21
    outer loop
      vertex 7.33314e-15 -33.0255 7.74783
      vertex 7.77156e-15 -35 9
      vertex 7.25433e-15 -32.6706 8.69333
    endloop
  endfacet
  facet normal -1 -2.22008e-16 4.48045e-21
    outer loop
      vertex 7.79218e-15 -35.0929 7.97951
      vertex 7.77156e-15 -35 9
      vertex 7.75768e-15 -34.9375 8
    endloop
  endfacet
  facet normal -1 -2.22049e-16 -1.89061e-20
    outer loop
      vertex 8.28878e-15 -37.3294 8.69333
      vertex 7.79218e-15 -35.0929 7.97951
      vertex 8.21661e-15 -37.0043 7.72741
    endloop
  endfacet
  facet normal -1 -2.22087e-16 -3.15911e-20
    outer loop
      vertex 8.28878e-15 -37.3294 8.69333
      vertex 8.21661e-15 -37.0043 7.72741
      vertex 8.24897e-15 -37.15 7.66694
    endloop
  endfacet
  facet normal -1 -2.22041e-16 7.45538e-21
    outer loop
      vertex 7.79218e-15 -35.0929 7.97951
      vertex 8.28878e-15 -37.3294 8.69333
      vertex 7.77156e-15 -35 9
    endloop
  endfacet
  facet normal -1 -2.22039e-16 -6.24817e-21
    outer loop
      vertex 8.77076e-15 -39.5 7.79423
      vertex 8.24897e-15 -37.15 7.66694
      vertex 8.64427e-15 -38.9303 6.9282
    endloop
  endfacet
  facet normal -1 -2.22029e-16 2.67399e-22
    outer loop
      vertex 8.77076e-15 -39.5 7.79423
      vertex 8.64427e-15 -38.9303 6.9282
      vertex 8.67229e-15 -39.0565 6.83121
    endloop
  endfacet
  facet normal -1 -2.2204e-16 -2.32825e-20
    outer loop
      vertex 8.24897e-15 -37.15 7.66694
      vertex 8.77076e-15 -39.5 7.79423
      vertex 8.28878e-15 -37.3294 8.69333
    endloop
  endfacet
  facet normal -1 -2.22047e-16 4.3439e-22
    outer loop
      vertex 9.18464e-15 -41.3639 6.36396
      vertex 8.67229e-15 -39.0565 6.83121
      vertex 9.01151e-15 -40.5842 5.65685
    endloop
  endfacet
  facet normal -1 -2.22021e-16 2.8613e-20
    outer loop
      vertex 9.18464e-15 -41.3639 6.36396
      vertex 9.01151e-15 -40.5842 5.65685
      vertex 9.03322e-15 -40.682 5.52918
    endloop
  endfacet
  facet normal -1 -2.22045e-16 -7.22308e-21
    outer loop
      vertex 8.67229e-15 -39.0565 6.83121
      vertex 9.18464e-15 -41.3639 6.36396
      vertex 8.77076e-15 -39.5 7.79423
    endloop
  endfacet
  facet normal -1 -2.22043e-16 -6.30293e-22
    outer loop
      vertex 9.50222e-15 -42.7942 4.5
      vertex 9.03322e-15 -40.682 5.52918
      vertex 9.2933e-15 -41.8533 4
    endloop
  endfacet
  facet normal -1 -2.22011e-16 6.02971e-20
    outer loop
      vertex 9.50222e-15 -42.7942 4.5
      vertex 9.2933e-15 -41.8533 4
      vertex 9.3071e-15 -41.9155 3.84967
    endloop
  endfacet
  facet normal -1 -2.2205e-16 -1.93682e-22
    outer loop
      vertex 9.70186e-15 -43.6933 2.32937
      vertex 9.3071e-15 -41.9155 3.84967
      vertex 9.47044e-15 -42.6511 2.07055
    endloop
  endfacet
  facet normal -1 -2.22047e-16 7.39304e-21
    outer loop
      vertex 9.03322e-15 -40.682 5.52918
      vertex 9.50222e-15 -42.7942 4.5
      vertex 9.18464e-15 -41.3639 6.36396
    endloop
  endfacet
  facet normal -1 -2.22076e-16 -1.07656e-19
    outer loop
      vertex 9.70186e-15 -43.6933 2.32937
      vertex 9.47044e-15 -42.6511 2.07055
      vertex 9.47521e-15 -42.6725 1.90736
    endloop
  endfacet
  facet normal -1 -2.22047e-16 8.98315e-21
    outer loop
      vertex 9.76996e-15 -44 0
      vertex 9.47521e-15 -42.6725 1.90736
      vertex 9.53086e-15 -42.9232 0
    endloop
  endfacet
  facet normal -1 -2.22053e-16 3.50074e-21
    outer loop
      vertex 9.3071e-15 -41.9155 3.84967
      vertex 9.70186e-15 -43.6933 2.32937
      vertex 9.50222e-15 -42.7942 4.5
    endloop
  endfacet
  facet normal -1 -2.22032e-16 -1.16662e-21
    outer loop
      vertex 9.47521e-15 -42.6725 1.90736
      vertex 9.76996e-15 -44 0
      vertex 9.70186e-15 -43.6933 2.32937
    endloop
  endfacet
  facet normal 0.0547857 0.998498 2.60357e-07
    outer loop
      vertex 43.6277 -2.3941 2.32937
      vertex 43.9339 -2.4109 0
      vertex 42.7299 -2.34484 4.5
    endloop
  endfacet
  facet normal 0.0548012 0.998497 -3.43105e-06
    outer loop
      vertex 39.4406 -2.16434 7.79423
      vertex 38.7121 -2.12436 6.99459
      vertex 37.8288 -2.07588 7.36168
    endloop
  endfacet
  facet normal 0.054765 0.998499 2.95964e-05
    outer loop
      vertex 38.7121 -2.12436 6.99459
      vertex 39.4406 -2.16434 7.79423
      vertex 38.8 -2.12918 6.95807
    endloop
  endfacet
  facet normal 0.0547972 0.998498 8.30241e-07
    outer loop
      vertex 27.9796 -1.5354 4
      vertex 27.1649 -1.49069 4.5
      vertex 28.6711 -1.57335 4.90419
    endloop
  endfacet
  facet normal 0.0547915 0.998498 -8.38393e-06
    outer loop
      vertex 27.9147 -1.53184 3.84292
      vertex 27.1649 -1.49069 4.5
      vertex 27.9796 -1.5354 4
    endloop
  endfacet
  facet normal 0.0547955 0.998498 -3.77237e-06
    outer loop
      vertex 27.1649 -1.49069 4.5
      vertex 27.9147 -1.53184 3.84292
      vertex 27.4115 -1.50423 2.62404
    endloop
  endfacet
  facet normal 0.0547852 0.998498 -7.27264e-06
    outer loop
      vertex 41.3018 -2.26647 6.36396
      vertex 42.7299 -2.34484 4.5
      vertex 39.4406 -2.16434 7.79423
    endloop
  endfacet
  facet normal 0.0547882 0.998498 -2.10308e-05
    outer loop
      vertex 37.2733 -2.0454 8.69333
      vertex 39.4406 -2.16434 7.79423
      vertex 34.9474 -1.91777 9
    endloop
  endfacet
  facet normal 0.0547966 0.998498 -1.04184e-05
    outer loop
      vertex 32.6215 -1.79013 8.69333
      vertex 34.9474 -1.91777 9
      vertex 30.4542 -1.6712 7.79423
    endloop
  endfacet
  facet normal 0.0547913 0.998498 9.3867e-06
    outer loop
      vertex 32.5556 -1.78651 7.617
      vertex 30.4542 -1.6712 7.79423
      vertex 34.9474 -1.91777 9
    endloop
  endfacet
  facet normal 0.0547903 0.998498 -2.29094e-06
    outer loop
      vertex 30.8981 -1.69556 6.9282
      vertex 30.4542 -1.6712 7.79423
      vertex 32.5556 -1.78651 7.617
    endloop
  endfacet
  facet normal 0.0548124 0.998497 9.07802e-06
    outer loop
      vertex 30.7604 -1.688 6.8222
      vertex 30.4542 -1.6712 7.79423
      vertex 30.8981 -1.69556 6.9282
    endloop
  endfacet
  facet normal 0.0547903 0.998498 2.07578e-06
    outer loop
      vertex 29.4915 -1.61837 5.84528
      vertex 30.4542 -1.6712 7.79423
      vertex 30.7604 -1.688 6.8222
    endloop
  endfacet
  facet normal 0.0547965 0.998498 -1.00425e-06
    outer loop
      vertex 30.4542 -1.6712 7.79423
      vertex 29.4915 -1.61837 5.84528
      vertex 27.1649 -1.49069 4.5
    endloop
  endfacet
  facet normal 0.0547952 0.998498 5.23193e-06
    outer loop
      vertex 36.9487 -2.02759 7.72741
      vertex 34.9474 -1.91777 9
      vertex 39.4406 -2.16434 7.79423
    endloop
  endfacet
  facet normal 0.0547959 0.998498 5.58343e-06
    outer loop
      vertex 34.9474 -1.91777 9
      vertex 36.7763 -2.01813 7.75019
      vertex 34.885 -1.91434 8
    endloop
  endfacet
  facet normal 0.0547895 0.998498 -3.84911e-06
    outer loop
      vertex 34.9474 -1.91777 9
      vertex 36.9487 -2.02759 7.72741
      vertex 36.7763 -2.01813 7.75019
    endloop
  endfacet
  facet normal 0.0547948 0.998498 2.04028e-05
    outer loop
      vertex 36.9487 -2.02759 7.72741
      vertex 39.4406 -2.16434 7.79423
      vertex 37.8288 -2.07588 7.36168
    endloop
  endfacet
  facet normal 0.0547722 0.998499 7.06506e-06
    outer loop
      vertex 34.712 -1.90485 7.97714
      vertex 34.9474 -1.91777 9
      vertex 34.885 -1.91434 8
    endloop
  endfacet
  facet normal 0.0547935 0.998498 2.1469e-06
    outer loop
      vertex 32.8212 -1.80109 7.72741
      vertex 34.9474 -1.91777 9
      vertex 34.712 -1.90485 7.97714
    endloop
  endfacet
  facet normal 0.0547801 0.998498 2.45632e-05
    outer loop
      vertex 32.6601 -1.79225 7.66043
      vertex 34.9474 -1.91777 9
      vertex 32.8212 -1.80109 7.72741
    endloop
  endfacet
  facet normal 0.0549704 0.998488 -0.00030121
    outer loop
      vertex 34.9474 -1.91777 9
      vertex 32.6601 -1.79225 7.66043
      vertex 32.5556 -1.78651 7.617
    endloop
  endfacet
  facet normal 0.054802 0.998497 -1.7136e-05
    outer loop
      vertex 27.1649 -1.49069 4.5
      vertex 29.1421 -1.59919 5.52004
      vertex 28.6711 -1.57335 4.90419
    endloop
  endfacet
  facet normal 0.0548478 0.998495 -8.99478e-05
    outer loop
      vertex 29.2467 -1.60494 5.65685
      vertex 27.1649 -1.49069 4.5
      vertex 29.4915 -1.61837 5.84528
    endloop
  endfacet
  facet normal 0.0547311 0.998501 0.000120695
    outer loop
      vertex 29.1421 -1.59919 5.52004
      vertex 27.1649 -1.49069 4.5
      vertex 29.2467 -1.60494 5.65685
    endloop
  endfacet
  facet normal 0.0547982 0.998497 -2.7226e-06
    outer loop
      vertex 28.593 -1.56906 6.36396
      vertex 30.4542 -1.6712 7.79423
      vertex 27.1649 -1.49069 4.5
    endloop
  endfacet
  facet normal 0.0550047 0.998486 -0.000137467
    outer loop
      vertex 25.9609 -1.42463 0
      vertex 27.1649 -1.49069 1.93267
      vertex 27.1612 -1.49049 1.90488
    endloop
  endfacet
  facet normal 0.0547892 0.998498 -1.26908e-06
    outer loop
      vertex 25.9609 -1.42463 0
      vertex 27.1612 -1.49049 1.90488
      vertex 26.9113 -1.47678 0
    endloop
  endfacet
  facet normal 0.0547847 0.998498 -0
    outer loop
      vertex 27.1649 -1.49069 1.93267
      vertex 25.9609 -1.42463 0
      vertex 27.1649 -1.49069 4.5
    endloop
  endfacet
  facet normal 0.0547857 0.998498 -2.60357e-07
    outer loop
      vertex 26.2671 -1.44143 2.32937
      vertex 27.1649 -1.49069 4.5
      vertex 25.9609 -1.42463 0
    endloop
  endfacet
  facet normal 0.0548037 0.998497 -2.69612e-06
    outer loop
      vertex 27.183 -1.49169 2.07055
      vertex 27.1649 -1.49069 4.5
      vertex 27.4115 -1.50423 2.62404
    endloop
  endfacet
  facet normal 0.0551645 0.998477 0
    outer loop
      vertex 27.1649 -1.49069 4.5
      vertex 27.183 -1.49169 2.07055
      vertex 27.1649 -1.49069 1.93267
    endloop
  endfacet
  facet normal 0.054795 0.998498 6.60864e-06
    outer loop
      vertex 39.4406 -2.16434 7.79423
      vertex 38.8718 -2.13312 6.9282
      vertex 38.8 -2.12918 6.95807
    endloop
  endfacet
  facet normal 0.054805 0.998497 0
    outer loop
      vertex 38.8718 -2.13312 6.9282
      vertex 39.4406 -2.16434 7.79423
      vertex 39.4406 -2.16434 6.49032
    endloop
  endfacet
  facet normal 0.0547876 0.998498 0
    outer loop
      vertex 39.4406 -2.16434 7.79423
      vertex 40.3872 -2.21628 5.76157
      vertex 39.4406 -2.16434 6.49032
    endloop
  endfacet
  facet normal 0.0548126 0.998497 1.16321e-05
    outer loop
      vertex 39.4406 -2.16434 7.79423
      vertex 40.5233 -2.22375 5.65685
      vertex 40.3872 -2.21628 5.76157
    endloop
  endfacet
  facet normal 0.0547954 0.998498 2.89331e-06
    outer loop
      vertex 42.7299 -2.34484 4.5
      vertex 40.5233 -2.22375 5.65685
      vertex 39.4406 -2.16434 7.79423
    endloop
  endfacet
  facet normal 0.0547967 0.998498 5.49314e-06
    outer loop
      vertex 42.7299 -2.34484 4.5
      vertex 41.6871 -2.28761 4.13513
      vertex 40.5233 -2.22375 5.65685
    endloop
  endfacet
  facet normal 0.0548002 0.998497 -4.56748e-06
    outer loop
      vertex 42.7299 -2.34484 4.5
      vertex 41.7904 -2.29328 4
      vertex 41.6871 -2.28761 4.13513
    endloop
  endfacet
  facet normal 0.0547974 0.998497 6.61502e-07
    outer loop
      vertex 41.7904 -2.29328 4
      vertex 42.7299 -2.34484 4.5
      vertex 42.2793 -2.32011 2.81582
    endloop
  endfacet
  facet normal 0.0547903 0.998498 2.56945e-06
    outer loop
      vertex 42.7299 -2.34484 4.5
      vertex 42.5228 -2.33347 2.2262
      vertex 42.2793 -2.32011 2.81582
    endloop
  endfacet
  facet normal 0.0547595 0.9985 5.38993e-06
    outer loop
      vertex 42.7299 -2.34484 4.5
      vertex 42.587 -2.33699 2.07055
      vertex 42.5228 -2.33347 2.2262
    endloop
  endfacet
  facet normal 0.0547966 0.998498 3.19745e-06
    outer loop
      vertex 43.9339 -2.4109 0
      vertex 42.587 -2.33699 2.07055
      vertex 42.7299 -2.34484 4.5
    endloop
  endfacet
  facet normal 0.0547802 0.998498 -7.52337e-06
    outer loop
      vertex 42.587 -2.33699 2.07055
      vertex 43.9339 -2.4109 0
      vertex 42.837 -2.35072 0.165115
    endloop
  endfacet
  facet normal 0.0547911 0.998498 6.50398e-05
    outer loop
      vertex 42.837 -2.35072 0.165115
      vertex 43.9339 -2.4109 0
      vertex 42.8587 -2.3519 0
    endloop
  endfacet
  facet normal -0.107158 0.98574 0.129747
    outer loop
      vertex 5.84125e-15 -26.3066 2.32937
      vertex 5.65275 -25.6921 2.32937
      vertex 5.77316e-15 -26 0
    endloop
  endfacet
  facet normal -0.107169 0.985735 0.129773
    outer loop
      vertex 5.65275 -25.6921 2.32937
      vertex 5.58685 -25.3926 0
      vertex 5.77316e-15 -26 0
    endloop
  endfacet
  facet normal -0.0999443 0.919239 0.380802
    outer loop
      vertex 6.04089e-15 -27.2058 4.5
      vertex 5.84594 -26.5702 4.5
      vertex 5.84125e-15 -26.3066 2.32937
    endloop
  endfacet
  facet normal -0.0999306 0.919255 0.380767
    outer loop
      vertex 5.84594 -26.5702 4.5
      vertex 5.65275 -25.6921 2.32937
      vertex 5.84125e-15 -26.3066 2.32937
    endloop
  endfacet
  facet normal -0.085925 0.790433 0.606492
    outer loop
      vertex 6.35847e-15 -28.636 6.36396
      vertex 6.15328 -27.9671 6.36396
      vertex 6.04089e-15 -27.2058 4.5
    endloop
  endfacet
  facet normal -0.0859372 0.790408 0.606522
    outer loop
      vertex 6.15328 -27.9671 6.36396
      vertex 5.84594 -26.5702 4.5
      vertex 6.04089e-15 -27.2058 4.5
    endloop
  endfacet
  facet normal -0.0660366 0.607425 0.791627
    outer loop
      vertex 6.77236e-15 -30.5 7.79423
      vertex 6.5538 -29.7875 7.79423
      vertex 6.35847e-15 -28.636 6.36396
    endloop
  endfacet
  facet normal -0.0660323 0.607438 0.791618
    outer loop
      vertex 6.5538 -29.7875 7.79423
      vertex 6.15328 -27.9671 6.36396
      vertex 6.35847e-15 -28.636 6.36396
    endloop
  endfacet
  facet normal -0.0415676 0.382356 0.92308
    outer loop
      vertex 7.25433e-15 -32.6706 8.69333
      vertex 7.02023 -31.9074 8.69333
      vertex 6.77236e-15 -30.5 7.79423
    endloop
  endfacet
  facet normal -0.0415679 0.382354 0.92308
    outer loop
      vertex 7.02023 -31.9074 8.69333
      vertex 6.5538 -29.7875 7.79423
      vertex 6.77236e-15 -30.5 7.79423
    endloop
  endfacet
  facet normal -0.0141883 0.130512 0.991345
    outer loop
      vertex 7.77156e-15 -35 9
      vertex 7.52076 -34.1824 9
      vertex 7.25433e-15 -32.6706 8.69333
    endloop
  endfacet
  facet normal -0.0141885 0.130512 0.991345
    outer loop
      vertex 7.52076 -34.1824 9
      vertex 7.02023 -31.9074 8.69333
      vertex 7.25433e-15 -32.6706 8.69333
    endloop
  endfacet
  facet normal 0.0141881 -0.130512 0.991345
    outer loop
      vertex 8.28878e-15 -37.3294 8.69333
      vertex 8.02129 -36.4574 8.69333
      vertex 7.77156e-15 -35 9
    endloop
  endfacet
  facet normal 0.0141882 -0.130512 0.991345
    outer loop
      vertex 8.02129 -36.4574 8.69333
      vertex 7.52076 -34.1824 9
      vertex 7.77156e-15 -35 9
    endloop
  endfacet
  facet normal 0.0415659 -0.382356 0.92308
    outer loop
      vertex 8.77076e-15 -39.5 7.79423
      vertex 8.48772 -38.5773 7.79423
      vertex 8.28878e-15 -37.3294 8.69333
    endloop
  endfacet
  facet normal 0.041566 -0.382355 0.92308
    outer loop
      vertex 8.48772 -38.5773 7.79423
      vertex 8.02129 -36.4574 8.69333
      vertex 8.28878e-15 -37.3294 8.69333
    endloop
  endfacet
  facet normal 0.0660327 -0.607446 0.791612
    outer loop
      vertex 9.18464e-15 -41.3639 6.36396
      vertex 8.88824 -40.3977 6.36396
      vertex 8.77076e-15 -39.5 7.79423
    endloop
  endfacet
  facet normal 0.0660345 -0.607438 0.791618
    outer loop
      vertex 8.88824 -40.3977 6.36396
      vertex 8.48772 -38.5773 7.79423
      vertex 8.77076e-15 -39.5 7.79423
    endloop
  endfacet
  facet normal 0.0859213 -0.790413 0.606519
    outer loop
      vertex 9.50222e-15 -42.7942 4.5
      vertex 9.19558 -41.7946 4.5
      vertex 9.18464e-15 -41.3639 6.36396
    endloop
  endfacet
  facet normal 0.0859219 -0.790411 0.606522
    outer loop
      vertex 9.19558 -41.7946 4.5
      vertex 8.88824 -40.3977 6.36396
      vertex 9.18464e-15 -41.3639 6.36396
    endloop
  endfacet
  facet normal 0.0999271 -0.919256 0.380766
    outer loop
      vertex 9.70186e-15 -43.6933 2.32937
      vertex 9.38877 -42.6727 2.32937
      vertex 9.50222e-15 -42.7942 4.5
    endloop
  endfacet
  facet normal 0.0999272 -0.919256 0.380767
    outer loop
      vertex 9.38877 -42.6727 2.32937
      vertex 9.19558 -41.7946 4.5
      vertex 9.50222e-15 -42.7942 4.5
    endloop
  endfacet
  facet normal 0.107157 -0.985734 0.129788
    outer loop
      vertex 9.76996e-15 -44 0
      vertex 9.45467 -42.9722 0
      vertex 9.70186e-15 -43.6933 2.32937
    endloop
  endfacet
  facet normal 0.107154 -0.985737 0.129773
    outer loop
      vertex 9.45467 -42.9722 0
      vertex 9.38877 -42.6727 2.32937
      vertex 9.70186e-15 -43.6933 2.32937
    endloop
  endfacet
  facet normal -0.316469 0.939684 0.129774
    outer loop
      vertex 5.65275 -25.6921 2.32937
      vertex 11.0414 -23.8773 2.32937
      vertex 5.58685 -25.3926 0
    endloop
  endfacet
  facet normal -0.316462 0.939689 0.129754
    outer loop
      vertex 11.0414 -23.8773 2.32937
      vertex 10.9127 -23.599 0
      vertex 5.58685 -25.3926 0
    endloop
  endfacet
  facet normal -0.29512 0.876311 0.380766
    outer loop
      vertex 5.84594 -26.5702 4.5
      vertex 11.4188 -24.6934 4.5
      vertex 5.65275 -25.6921 2.32937
    endloop
  endfacet
  facet normal -0.295123 0.876304 0.38078
    outer loop
      vertex 11.4188 -24.6934 4.5
      vertex 11.0414 -23.8773 2.32937
      vertex 5.65275 -25.6921 2.32937
    endloop
  endfacet
  facet normal -0.253759 0.753484 0.606522
    outer loop
      vertex 6.15328 -27.9671 6.36396
      vertex 12.0191 -25.9916 6.36396
      vertex 5.84594 -26.5702 4.5
    endloop
  endfacet
  facet normal -0.253757 0.753492 0.606512
    outer loop
      vertex 12.0191 -25.9916 6.36396
      vertex 11.4188 -24.6934 4.5
      vertex 5.84594 -26.5702 4.5
    endloop
  endfacet
  facet normal -0.195018 0.579059 0.791618
    outer loop
      vertex 6.5538 -29.7875 7.79423
      vertex 12.8014 -27.6834 7.79423
      vertex 6.15328 -27.9671 6.36396
    endloop
  endfacet
  facet normal -0.195018 0.579064 0.791614
    outer loop
      vertex 12.8014 -27.6834 7.79423
      vertex 12.0191 -25.9916 6.36396
      vertex 6.15328 -27.9671 6.36396
    endloop
  endfacet
  facet normal -0.122752 0.364492 0.92308
    outer loop
      vertex 7.02023 -31.9074 8.69333
      vertex 13.7125 -29.6536 8.69333
      vertex 6.5538 -29.7875 7.79423
    endloop
  endfacet
  facet normal -0.122753 0.364483 0.923084
    outer loop
      vertex 13.7125 -29.6536 8.69333
      vertex 12.8014 -27.6834 7.79423
      vertex 6.5538 -29.7875 7.79423
    endloop
  endfacet
  facet normal -0.0419 0.124415 0.991345
    outer loop
      vertex 7.52076 -34.1824 9
      vertex 14.6902 -31.7679 9
      vertex 7.02023 -31.9074 8.69333
    endloop
  endfacet
  facet normal -0.0419 0.124415 0.991345
    outer loop
      vertex 14.6902 -31.7679 9
      vertex 13.7125 -29.6536 8.69333
      vertex 7.02023 -31.9074 8.69333
    endloop
  endfacet
  facet normal 0.041902 -0.124414 0.991345
    outer loop
      vertex 8.02129 -36.4574 8.69333
      vertex 15.6678 -33.8821 8.69333
      vertex 7.52076 -34.1824 9
    endloop
  endfacet
  facet normal 0.0419023 -0.124421 0.991344
    outer loop
      vertex 15.6678 -33.8821 8.69333
      vertex 14.6902 -31.7679 9
      vertex 7.52076 -34.1824 9
    endloop
  endfacet
  facet normal 0.122756 -0.364491 0.92308
    outer loop
      vertex 8.48772 -38.5773 7.79423
      vertex 16.5789 -35.8523 7.79423
      vertex 8.02129 -36.4574 8.69333
    endloop
  endfacet
  facet normal 0.122755 -0.364482 0.923084
    outer loop
      vertex 16.5789 -35.8523 7.79423
      vertex 15.6678 -33.8821 8.69333
      vertex 8.02129 -36.4574 8.69333
    endloop
  endfacet
  facet normal 0.19502 -0.579058 0.791618
    outer loop
      vertex 8.88824 -40.3977 6.36396
      vertex 17.3612 -37.5441 6.36396
      vertex 8.48772 -38.5773 7.79423
    endloop
  endfacet
  facet normal 0.19502 -0.579063 0.791615
    outer loop
      vertex 17.3612 -37.5441 6.36396
      vertex 16.5789 -35.8523 7.79423
      vertex 8.48772 -38.5773 7.79423
    endloop
  endfacet
  facet normal 0.253767 -0.753481 0.606521
    outer loop
      vertex 9.19558 -41.7946 4.5
      vertex 17.9615 -38.8423 4.5
      vertex 8.88824 -40.3977 6.36396
    endloop
  endfacet
  facet normal 0.253767 -0.753489 0.606512
    outer loop
      vertex 17.9615 -38.8423 4.5
      vertex 17.3612 -37.5441 6.36396
      vertex 8.88824 -40.3977 6.36396
    endloop
  endfacet
  facet normal 0.29513 -0.876308 0.380766
    outer loop
      vertex 9.38877 -42.6727 2.32937
      vertex 18.3389 -39.6584 2.32937
      vertex 9.19558 -41.7946 4.5
    endloop
  endfacet
  facet normal 0.295132 -0.876301 0.38078
    outer loop
      vertex 18.3389 -39.6584 2.32937
      vertex 17.9615 -38.8423 4.5
      vertex 9.19558 -41.7946 4.5
    endloop
  endfacet
  facet normal 0.316469 -0.939684 0.129774
    outer loop
      vertex 9.45467 -42.9722 0
      vertex 18.4676 -39.9368 0
      vertex 9.38877 -42.6727 2.32937
    endloop
  endfacet
  facet normal 0.316473 -0.93968 0.129793
    outer loop
      vertex 18.4676 -39.9368 0
      vertex 18.3389 -39.6584 2.32937
      vertex 9.38877 -42.6727 2.32937
    endloop
  endfacet
  facet normal -0.510995 0.849734 0.129754
    outer loop
      vertex 11.0414 -23.8773 2.32937
      vertex 15.9142 -20.947 2.32937
      vertex 10.9127 -23.599 0
    endloop
  endfacet
  facet normal -0.511001 0.849727 0.129775
    outer loop
      vertex 15.9142 -20.947 2.32937
      vertex 15.7287 -20.7028 0
      vertex 10.9127 -23.599 0
    endloop
  endfacet
  facet normal -0.476536 0.792414 0.38078
    outer loop
      vertex 11.4188 -24.6934 4.5
      vertex 16.4581 -21.6629 4.5
      vertex 11.0414 -23.8773 2.32937
    endloop
  endfacet
  facet normal -0.476533 0.792427 0.380758
    outer loop
      vertex 16.4581 -21.6629 4.5
      vertex 15.9142 -20.947 2.32937
      vertex 11.0414 -23.8773 2.32937
    endloop
  endfacet
  facet normal -0.409744 0.681361 0.606511
    outer loop
      vertex 12.0191 -25.9916 6.36396
      vertex 17.3234 -22.8018 6.36396
      vertex 11.4188 -24.6934 4.5
    endloop
  endfacet
  facet normal -0.409745 0.681348 0.606526
    outer loop
      vertex 17.3234 -22.8018 6.36396
      vertex 16.4581 -21.6629 4.5
      vertex 11.4188 -24.6934 4.5
    endloop
  endfacet
  facet normal -0.314889 0.523634 0.791614
    outer loop
      vertex 12.8014 -27.6834 7.79423
      vertex 18.451 -24.286 7.79423
      vertex 12.0191 -25.9916 6.36396
    endloop
  endfacet
  facet normal -0.314888 0.523625 0.79162
    outer loop
      vertex 18.451 -24.286 7.79423
      vertex 17.3234 -22.8018 6.36396
      vertex 12.0191 -25.9916 6.36396
    endloop
  endfacet
  facet normal -0.198204 0.329592 0.923084
    outer loop
      vertex 13.7125 -29.6536 8.69333
      vertex 19.7641 -26.0144 8.69333
      vertex 12.8014 -27.6834 7.79423
    endloop
  endfacet
  facet normal -0.198205 0.329599 0.923081
    outer loop
      vertex 19.7641 -26.0144 8.69333
      vertex 18.451 -24.286 7.79423
      vertex 12.8014 -27.6834 7.79423
    endloop
  endfacet
  facet normal -0.0676562 0.112505 0.991345
    outer loop
      vertex 14.6902 -31.7679 9
      vertex 21.1733 -27.8692 9
      vertex 13.7125 -29.6536 8.69333
    endloop
  endfacet
  facet normal -0.0676563 0.112505 0.991345
    outer loop
      vertex 21.1733 -27.8692 9
      vertex 19.7641 -26.0144 8.69333
      vertex 13.7125 -29.6536 8.69333
    endloop
  endfacet
  facet normal 0.067659 -0.112512 0.991344
    outer loop
      vertex 15.6678 -33.8821 8.69333
      vertex 22.5824 -29.724 8.69333
      vertex 14.6902 -31.7679 9
    endloop
  endfacet
  facet normal 0.0676579 -0.112508 0.991345
    outer loop
      vertex 22.5824 -29.724 8.69333
      vertex 21.1733 -27.8692 9
      vertex 14.6902 -31.7679 9
    endloop
  endfacet
  facet normal 0.198203 -0.329592 0.923084
    outer loop
      vertex 16.5789 -35.8523 7.79423
      vertex 23.8955 -31.4524 7.79423
      vertex 15.6678 -33.8821 8.69333
    endloop
  endfacet
  facet normal 0.198205 -0.329599 0.923081
    outer loop
      vertex 23.8955 -31.4524 7.79423
      vertex 22.5824 -29.724 8.69333
      vertex 15.6678 -33.8821 8.69333
    endloop
  endfacet
  facet normal 0.314889 -0.523634 0.791614
    outer loop
      vertex 17.3612 -37.5441 6.36396
      vertex 25.0231 -32.9366 6.36396
      vertex 16.5789 -35.8523 7.79423
    endloop
  endfacet
  facet normal 0.314887 -0.523625 0.79162
    outer loop
      vertex 25.0231 -32.9366 6.36396
      vertex 23.8955 -31.4524 7.79423
      vertex 16.5789 -35.8523 7.79423
    endloop
  endfacet
  facet normal 0.409742 -0.681363 0.606512
    outer loop
      vertex 17.9615 -38.8423 4.5
      vertex 25.8884 -34.0754 4.5
      vertex 17.3612 -37.5441 6.36396
    endloop
  endfacet
  facet normal 0.409744 -0.68137 0.606502
    outer loop
      vertex 25.8884 -34.0754 4.5
      vertex 25.0231 -32.9366 6.36396
      vertex 17.3612 -37.5441 6.36396
    endloop
  endfacet
  facet normal 0.476525 -0.79242 0.380781
    outer loop
      vertex 18.3389 -39.6584 2.32937
      vertex 26.4323 -34.7914 2.32937
      vertex 17.9615 -38.8423 4.5
    endloop
  endfacet
  facet normal 0.476525 -0.792416 0.380789
    outer loop
      vertex 26.4323 -34.7914 2.32937
      vertex 25.8884 -34.0754 4.5
      vertex 17.9615 -38.8423 4.5
    endloop
  endfacet
  facet normal 0.510993 -0.84973 0.12979
    outer loop
      vertex 18.4676 -39.9368 0
      vertex 26.6178 -35.0356 0
      vertex 18.3389 -39.6584 2.32937
    endloop
  endfacet
  facet normal 0.510991 -0.849733 0.129775
    outer loop
      vertex 26.6178 -35.0356 0
      vertex 26.4323 -34.7914 2.32937
      vertex 18.3389 -39.6584 2.32937
    endloop
  endfacet
  facet normal -0.681647 0.720081 0.129773
    outer loop
      vertex 15.9142 -20.947 2.32937
      vertex 20.0435 -17.0381 2.32937
      vertex 15.7287 -20.7028 0
    endloop
  endfacet
  facet normal -0.681642 0.720089 0.129752
    outer loop
      vertex 20.0435 -17.0381 2.32937
      vertex 19.8099 -16.8395 0
      vertex 15.7287 -20.7028 0
    endloop
  endfacet
  facet normal -0.635672 0.671524 0.380759
    outer loop
      vertex 16.4581 -21.6629 4.5
      vertex 20.7286 -17.6204 4.5
      vertex 15.9142 -20.947 2.32937
    endloop
  endfacet
  facet normal -0.635672 0.671514 0.380775
    outer loop
      vertex 20.7286 -17.6204 4.5
      vertex 20.0435 -17.0381 2.32937
      vertex 15.9142 -20.947 2.32937
    endloop
  endfacet
  facet normal -0.546582 0.577385 0.606527
    outer loop
      vertex 17.3234 -22.8018 6.36396
      vertex 21.8183 -18.5467 6.36396
      vertex 16.4581 -21.6629 4.5
    endloop
  endfacet
  facet normal -0.546588 0.577416 0.606492
    outer loop
      vertex 21.8183 -18.5467 6.36396
      vertex 20.7286 -17.6204 4.5
      vertex 16.4581 -21.6629 4.5
    endloop
  endfacet
  facet normal -0.420049 0.44373 0.79162
    outer loop
      vertex 18.451 -24.286 7.79423
      vertex 23.2385 -19.754 7.79423
      vertex 17.3234 -22.8018 6.36396
    endloop
  endfacet
  facet normal -0.420044 0.443716 0.79163
    outer loop
      vertex 23.2385 -19.754 7.79423
      vertex 21.8183 -18.5467 6.36396
      vertex 17.3234 -22.8018 6.36396
    endloop
  endfacet
  facet normal -0.264402 0.279308 0.923081
    outer loop
      vertex 19.7641 -26.0144 8.69333
      vertex 24.8924 -21.1598 8.69333
      vertex 18.451 -24.286 7.79423
    endloop
  endfacet
  facet normal -0.264401 0.279307 0.923082
    outer loop
      vertex 24.8924 -21.1598 8.69333
      vertex 23.2385 -19.754 7.79423
      vertex 18.451 -24.286 7.79423
    endloop
  endfacet
  facet normal -0.0902508 0.0953388 0.991345
    outer loop
      vertex 21.1733 -27.8692 9
      vertex 26.6672 -22.6685 9
      vertex 19.7641 -26.0144 8.69333
    endloop
  endfacet
  facet normal -0.090251 0.0953393 0.991345
    outer loop
      vertex 26.6672 -22.6685 9
      vertex 24.8924 -21.1598 8.69333
      vertex 19.7641 -26.0144 8.69333
    endloop
  endfacet
  facet normal 0.0902526 -0.0953422 0.991345
    outer loop
      vertex 22.5824 -29.724 8.69333
      vertex 28.442 -24.1772 8.69333
      vertex 21.1733 -27.8692 9
    endloop
  endfacet
  facet normal 0.0902511 -0.0953392 0.991345
    outer loop
      vertex 28.442 -24.1772 8.69333
      vertex 26.6672 -22.6685 9
      vertex 21.1733 -27.8692 9
    endloop
  endfacet
  facet normal 0.264402 -0.279308 0.923081
    outer loop
      vertex 23.8955 -31.4524 7.79423
      vertex 30.0958 -25.583 7.79423
      vertex 22.5824 -29.724 8.69333
    endloop
  endfacet
  facet normal 0.264406 -0.279317 0.923077
    outer loop
      vertex 30.0958 -25.583 7.79423
      vertex 28.442 -24.1772 8.69333
      vertex 22.5824 -29.724 8.69333
    endloop
  endfacet
  facet normal 0.420046 -0.443733 0.791621
    outer loop
      vertex 25.0231 -32.9366 6.36396
      vertex 31.516 -26.7903 6.36396
      vertex 23.8955 -31.4524 7.79423
    endloop
  endfacet
  facet normal 0.42004 -0.443721 0.79163
    outer loop
      vertex 31.516 -26.7903 6.36396
      vertex 30.0958 -25.583 7.79423
      vertex 23.8955 -31.4524 7.79423
    endloop
  endfacet
  facet normal 0.546586 -0.577402 0.606507
    outer loop
      vertex 25.8884 -34.0754 4.5
      vertex 32.6057 -27.7166 4.5
      vertex 25.0231 -32.9366 6.36396
    endloop
  endfacet
  facet normal 0.54659 -0.577413 0.606492
    outer loop
      vertex 32.6057 -27.7166 4.5
      vertex 31.516 -26.7903 6.36396
      vertex 25.0231 -32.9366 6.36396
    endloop
  endfacet
  facet normal 0.635673 -0.671508 0.380784
    outer loop
      vertex 26.4323 -34.7914 2.32937
      vertex 33.2908 -28.2989 2.32937
      vertex 25.8884 -34.0754 4.5
    endloop
  endfacet
  facet normal 0.635674 -0.671512 0.380775
    outer loop
      vertex 33.2908 -28.2989 2.32937
      vertex 32.6057 -27.7166 4.5
      vertex 25.8884 -34.0754 4.5
    endloop
  endfacet
  facet normal 0.681654 -0.720074 0.129773
    outer loop
      vertex 26.6178 -35.0356 0
      vertex 33.5244 -28.4975 0
      vertex 26.4323 -34.7914 2.32937
    endloop
  endfacet
  facet normal 0.681653 -0.720079 0.129753
    outer loop
      vertex 33.5244 -28.4975 0
      vertex 33.2908 -28.2989 2.32937
      vertex 26.4323 -34.7914 2.32937
    endloop
  endfacet
  facet normal -0.820455 0.556793 0.129751
    outer loop
      vertex 20.0435 -17.0381 2.32937
      vertex 23.2365 -12.3331 2.32937
      vertex 19.8099 -16.8395 0
    endloop
  endfacet
  facet normal -0.820457 0.556787 0.129766
    outer loop
      vertex 23.2365 -12.3331 2.32937
      vertex 22.9656 -12.1894 0
      vertex 19.8099 -16.8395 0
    endloop
  endfacet
  facet normal -0.765119 0.519231 0.380779
    outer loop
      vertex 20.7286 -17.6204 4.5
      vertex 24.0306 -12.7547 4.5
      vertex 20.0435 -17.0381 2.32937
    endloop
  endfacet
  facet normal -0.76512 0.519241 0.380762
    outer loop
      vertex 24.0306 -12.7547 4.5
      vertex 23.2365 -12.3331 2.32937
      vertex 20.0435 -17.0381 2.32937
    endloop
  endfacet
  facet normal -0.657893 0.446478 0.606493
    outer loop
      vertex 21.8183 -18.5467 6.36396
      vertex 25.294 -13.4252 6.36396
      vertex 20.7286 -17.6204 4.5
    endloop
  endfacet
  facet normal -0.657885 0.446459 0.606516
    outer loop
      vertex 25.294 -13.4252 6.36396
      vertex 24.0306 -12.7547 4.5
      vertex 20.7286 -17.6204 4.5
    endloop
  endfacet
  facet normal -0.505574 0.343102 0.791629
    outer loop
      vertex 23.2385 -19.754 7.79423
      vertex 26.9404 -14.2991 7.79423
      vertex 21.8183 -18.5467 6.36396
    endloop
  endfacet
  facet normal -0.50558 0.343111 0.791621
    outer loop
      vertex 26.9404 -14.2991 7.79423
      vertex 25.294 -13.4252 6.36396
      vertex 21.8183 -18.5467 6.36396
    endloop
  endfacet
  facet normal -0.31824 0.215967 0.923083
    outer loop
      vertex 24.8924 -21.1598 8.69333
      vertex 28.8577 -15.3167 8.69333
      vertex 23.2385 -19.754 7.79423
    endloop
  endfacet
  facet normal -0.318244 0.215972 0.92308
    outer loop
      vertex 28.8577 -15.3167 8.69333
      vertex 26.9404 -14.2991 7.79423
      vertex 23.2385 -19.754 7.79423
    endloop
  endfacet
  facet normal -0.10863 0.073719 0.991345
    outer loop
      vertex 26.6672 -22.6685 9
      vertex 30.9152 -16.4088 9
      vertex 24.8924 -21.1598 8.69333
    endloop
  endfacet
  facet normal -0.10863 0.0737196 0.991345
    outer loop
      vertex 30.9152 -16.4088 9
      vertex 28.8577 -15.3167 8.69333
      vertex 24.8924 -21.1598 8.69333
    endloop
  endfacet
  facet normal 0.10863 -0.0737181 0.991345
    outer loop
      vertex 28.442 -24.1772 8.69333
      vertex 32.9727 -17.5008 8.69333
      vertex 26.6672 -22.6685 9
    endloop
  endfacet
  facet normal 0.108633 -0.0737212 0.991345
    outer loop
      vertex 32.9727 -17.5008 8.69333
      vertex 30.9152 -16.4088 9
      vertex 26.6672 -22.6685 9
    endloop
  endfacet
  facet normal 0.31825 -0.215975 0.923077
    outer loop
      vertex 30.0958 -25.583 7.79423
      vertex 34.89 -18.5185 7.79423
      vertex 28.442 -24.1772 8.69333
    endloop
  endfacet
  facet normal 0.318239 -0.215962 0.923084
    outer loop
      vertex 34.89 -18.5185 7.79423
      vertex 32.9727 -17.5008 8.69333
      vertex 28.442 -24.1772 8.69333
    endloop
  endfacet
  facet normal 0.505576 -0.343099 0.791629
    outer loop
      vertex 31.516 -26.7903 6.36396
      vertex 36.5365 -19.3923 6.36396
      vertex 30.0958 -25.583 7.79423
    endloop
  endfacet
  facet normal 0.505579 -0.343102 0.791626
    outer loop
      vertex 36.5365 -19.3923 6.36396
      vertex 34.89 -18.5185 7.79423
      vertex 30.0958 -25.583 7.79423
    endloop
  endfacet
  facet normal 0.657896 -0.446474 0.606493
    outer loop
      vertex 32.6057 -27.7166 4.5
      vertex 37.7998 -20.0629 4.5
      vertex 31.516 -26.7903 6.36396
    endloop
  endfacet
  facet normal 0.657889 -0.446463 0.606509
    outer loop
      vertex 37.7998 -20.0629 4.5
      vertex 36.5365 -19.3923 6.36396
      vertex 31.516 -26.7903 6.36396
    endloop
  endfacet
  facet normal 0.765116 -0.519235 0.380779
    outer loop
      vertex 33.2908 -28.2989 2.32937
      vertex 38.594 -20.4844 2.32937
      vertex 32.6057 -27.7166 4.5
    endloop
  endfacet
  facet normal 0.765117 -0.519238 0.380772
    outer loop
      vertex 38.594 -20.4844 2.32937
      vertex 37.7998 -20.0629 4.5
      vertex 32.6057 -27.7166 4.5
    endloop
  endfacet
  facet normal 0.820451 -0.556799 0.129751
    outer loop
      vertex 33.5244 -28.4975 0
      vertex 38.8649 -20.6282 0
      vertex 33.2908 -28.2989 2.32937
    endloop
  endfacet
  facet normal 0.820452 -0.556788 0.129789
    outer loop
      vertex 38.8649 -20.6282 0
      vertex 38.594 -20.4844 2.32937
      vertex 33.2908 -28.2989 2.32937
    endloop
  endfacet
  facet normal -0.920934 0.367478 0.129772
    outer loop
      vertex 23.2365 -12.3331 2.32937
      vertex 25.3438 -7.05201 2.32937
      vertex 22.9656 -12.1894 0
    endloop
  endfacet
  facet normal -0.920933 0.367484 0.129758
    outer loop
      vertex 25.3438 -7.05201 2.32937
      vertex 25.0484 -6.9698 0
      vertex 22.9656 -12.1894 0
    endloop
  endfacet
  facet normal -0.858826 0.342702 0.380754
    outer loop
      vertex 24.0306 -12.7547 4.5
      vertex 26.21 -7.29303 4.5
      vertex 23.2365 -12.3331 2.32937
    endloop
  endfacet
  facet normal -0.858823 0.342694 0.380769
    outer loop
      vertex 26.21 -7.29303 4.5
      vertex 25.3438 -7.05201 2.32937
      vertex 23.2365 -12.3331 2.32937
    endloop
  endfacet
  facet normal -0.73845 0.294661 0.60652
    outer loop
      vertex 25.294 -13.4252 6.36396
      vertex 27.5879 -7.67645 6.36396
      vertex 24.0306 -12.7547 4.5
    endloop
  endfacet
  facet normal -0.738457 0.294671 0.606506
    outer loop
      vertex 27.5879 -7.67645 6.36396
      vertex 26.21 -7.29303 4.5
      vertex 24.0306 -12.7547 4.5
    endloop
  endfacet
  facet normal -0.5675 0.226454 0.79162
    outer loop
      vertex 26.9404 -14.2991 7.79423
      vertex 29.3837 -8.17612 7.79423
      vertex 25.294 -13.4252 6.36396
    endloop
  endfacet
  facet normal -0.56749 0.226443 0.79163
    outer loop
      vertex 29.3837 -8.17612 7.79423
      vertex 27.5879 -7.67645 6.36396
      vertex 25.294 -13.4252 6.36396
    endloop
  endfacet
  facet normal -0.357218 0.14254 0.923081
    outer loop
      vertex 28.8577 -15.3167 8.69333
      vertex 31.4748 -8.758 8.69333
      vertex 26.9404 -14.2991 7.79423
    endloop
  endfacet
  facet normal -0.357225 0.142546 0.923077
    outer loop
      vertex 31.4748 -8.758 8.69333
      vertex 29.3837 -8.17612 7.79423
      vertex 26.9404 -14.2991 7.79423
    endloop
  endfacet
  facet normal -0.121934 0.0486563 0.991345
    outer loop
      vertex 30.9152 -16.4088 9
      vertex 33.719 -9.38243 9
      vertex 28.8577 -15.3167 8.69333
    endloop
  endfacet
  facet normal -0.12193 0.0486534 0.991346
    outer loop
      vertex 33.719 -9.38243 9
      vertex 31.4748 -8.758 8.69333
      vertex 28.8577 -15.3167 8.69333
    endloop
  endfacet
  facet normal 0.121935 -0.0486576 0.991345
    outer loop
      vertex 32.9727 -17.5008 8.69333
      vertex 35.9631 -10.0069 8.69333
      vertex 30.9152 -16.4088 9
    endloop
  endfacet
  facet normal 0.121934 -0.0486564 0.991345
    outer loop
      vertex 35.9631 -10.0069 8.69333
      vertex 33.719 -9.38243 9
      vertex 30.9152 -16.4088 9
    endloop
  endfacet
  facet normal 0.357211 -0.142541 0.923083
    outer loop
      vertex 34.89 -18.5185 7.79423
      vertex 38.0543 -10.5887 7.79423
      vertex 32.9727 -17.5008 8.69333
    endloop
  endfacet
  facet normal 0.357216 -0.142545 0.923081
    outer loop
      vertex 38.0543 -10.5887 7.79423
      vertex 35.9631 -10.0069 8.69333
      vertex 32.9727 -17.5008 8.69333
    endloop
  endfacet
  facet normal 0.567491 -0.226446 0.791629
    outer loop
      vertex 36.5365 -19.3923 6.36396
      vertex 39.85 -11.0884 6.36396
      vertex 34.89 -18.5185 7.79423
    endloop
  endfacet
  facet normal 0.567503 -0.226456 0.791617
    outer loop
      vertex 39.85 -11.0884 6.36396
      vertex 38.0543 -10.5887 7.79423
      vertex 34.89 -18.5185 7.79423
    endloop
  endfacet
  facet normal 0.73846 -0.294667 0.606505
    outer loop
      vertex 37.7998 -20.0629 4.5
      vertex 41.2279 -11.4718 4.5
      vertex 36.5365 -19.3923 6.36396
    endloop
  endfacet
  facet normal 0.73846 -0.294667 0.606504
    outer loop
      vertex 41.2279 -11.4718 4.5
      vertex 39.85 -11.0884 6.36396
      vertex 36.5365 -19.3923 6.36396
    endloop
  endfacet
  facet normal 0.858821 -0.342692 0.380774
    outer loop
      vertex 38.594 -20.4844 2.32937
      vertex 42.0941 -11.7128 2.32937
      vertex 37.7998 -20.0629 4.5
    endloop
  endfacet
  facet normal 0.858823 -0.342695 0.380766
    outer loop
      vertex 42.0941 -11.7128 2.32937
      vertex 41.2279 -11.4718 4.5
      vertex 37.7998 -20.0629 4.5
    endloop
  endfacet
  facet normal 0.92093 -0.367482 0.129788
    outer loop
      vertex 38.8649 -20.6282 0
      vertex 42.3896 -11.7951 0
      vertex 38.594 -20.4844 2.32937
    endloop
  endfacet
  facet normal 0.920929 -0.367475 0.129811
    outer loop
      vertex 42.3896 -11.7951 0
      vertex 42.0941 -11.7128 2.32937
      vertex 38.594 -20.4844 2.32937
    endloop
  endfacet
  facet normal -0.978386 0.161007 0.129757
    outer loop
      vertex 25.3438 -7.05201 2.32937
      vertex 26.2671 -1.44143 2.32937
      vertex 25.0484 -6.9698 0
    endloop
  endfacet
  facet normal -0.978385 0.161001 0.129772
    outer loop
      vertex 26.2671 -1.44143 2.32937
      vertex 25.9609 -1.42463 0
      vertex 25.0484 -6.9698 0
    endloop
  endfacet
  facet normal -0.912397 0.150155 0.380769
    outer loop
      vertex 26.21 -7.29303 4.5
      vertex 27.1649 -1.49069 4.5
      vertex 25.3438 -7.05201 2.32937
    endloop
  endfacet
  facet normal -0.912392 0.150147 0.380784
    outer loop
      vertex 27.1649 -1.49069 4.5
      vertex 26.2671 -1.44143 2.32937
      vertex 25.3438 -7.05201 2.32937
    endloop
  endfacet
  facet normal -0.784526 0.12911 0.606506
    outer loop
      vertex 27.5879 -7.67645 6.36396
      vertex 28.593 -1.56906 6.36396
      vertex 26.21 -7.29303 4.5
    endloop
  endfacet
  facet normal -0.784527 0.129111 0.606505
    outer loop
      vertex 28.593 -1.56906 6.36396
      vertex 27.1649 -1.49069 4.5
      vertex 26.21 -7.29303 4.5
    endloop
  endfacet
  facet normal -0.60289 0.0992163 0.791631
    outer loop
      vertex 29.3837 -8.17612 7.79423
      vertex 30.4542 -1.6712 7.79423
      vertex 27.5879 -7.67645 6.36396
    endloop
  endfacet
  facet normal -0.602894 0.099219 0.791627
    outer loop
      vertex 30.4542 -1.6712 7.79423
      vertex 28.593 -1.56906 6.36396
      vertex 27.5879 -7.67645 6.36396
    endloop
  endfacet
  facet normal -0.379511 0.0624561 0.923077
    outer loop
      vertex 31.4748 -8.758 8.69333
      vertex 32.6215 -1.79013 8.69333
      vertex 29.3837 -8.17612 7.79423
    endloop
  endfacet
  facet normal -0.37951 0.062455 0.923077
    outer loop
      vertex 32.6215 -1.79013 8.69333
      vertex 30.4542 -1.6712 7.79423
      vertex 29.3837 -8.17612 7.79423
    endloop
  endfacet
  facet normal -0.129536 0.0213167 0.991346
    outer loop
      vertex 33.719 -9.38243 9
      vertex 34.9474 -1.91777 9
      vertex 31.4748 -8.758 8.69333
    endloop
  endfacet
  facet normal -0.129539 0.0213182 0.991345
    outer loop
      vertex 34.9474 -1.91777 9
      vertex 32.6215 -1.79013 8.69333
      vertex 31.4748 -8.758 8.69333
    endloop
  endfacet
  facet normal 0.129541 -0.0213182 0.991345
    outer loop
      vertex 35.9631 -10.0069 8.69333
      vertex 37.2733 -2.0454 8.69333
      vertex 33.719 -9.38243 9
    endloop
  endfacet
  facet normal 0.129539 -0.0213172 0.991345
    outer loop
      vertex 37.2733 -2.0454 8.69333
      vertex 34.9474 -1.91777 9
      vertex 33.719 -9.38243 9
    endloop
  endfacet
  facet normal 0.3795 -0.0624499 0.923082
    outer loop
      vertex 38.0543 -10.5887 7.79423
      vertex 39.4406 -2.16434 7.79423
      vertex 35.9631 -10.0069 8.69333
    endloop
  endfacet
  facet normal 0.379509 -0.0624547 0.923077
    outer loop
      vertex 39.4406 -2.16434 7.79423
      vertex 37.2733 -2.0454 8.69333
      vertex 35.9631 -10.0069 8.69333
    endloop
  endfacet
  facet normal 0.60291 -0.0992191 0.791616
    outer loop
      vertex 39.85 -11.0884 6.36396
      vertex 41.3018 -2.26647 6.36396
      vertex 38.0543 -10.5887 7.79423
    endloop
  endfacet
  facet normal 0.602895 -0.0992115 0.791628
    outer loop
      vertex 41.3018 -2.26647 6.36396
      vertex 39.4406 -2.16434 7.79423
      vertex 38.0543 -10.5887 7.79423
    endloop
  endfacet
  facet normal 0.784527 -0.129108 0.606505
    outer loop
      vertex 41.2279 -11.4718 4.5
      vertex 42.7299 -2.34484 4.5
      vertex 39.85 -11.0884 6.36396
    endloop
  endfacet
  facet normal 0.784527 -0.129107 0.606505
    outer loop
      vertex 42.7299 -2.34484 4.5
      vertex 41.3018 -2.26647 6.36396
      vertex 39.85 -11.0884 6.36396
    endloop
  endfacet
  facet normal 0.912397 -0.150155 0.380768
    outer loop
      vertex 42.0941 -11.7128 2.32937
      vertex 43.6277 -2.3941 2.32937
      vertex 41.2279 -11.4718 4.5
    endloop
  endfacet
  facet normal 0.912392 -0.15015 0.380784
    outer loop
      vertex 43.6277 -2.3941 2.32937
      vertex 42.7299 -2.34484 4.5
      vertex 41.2279 -11.4718 4.5
    endloop
  endfacet
  facet normal 0.97838 -0.161006 0.129804
    outer loop
      vertex 42.3896 -11.7951 0
      vertex 43.9339 -2.4109 0
      vertex 42.0941 -11.7128 2.32937
    endloop
  endfacet
  facet normal 0.978383 -0.161015 0.129772
    outer loop
      vertex 43.9339 -2.4109 0
      vertex 43.6277 -2.3941 2.32937
      vertex 42.0941 -11.7128 2.32937
    endloop
  endfacet
  facet normal 0.0924042 -0.987229 -0.129774
    outer loop
      vertex 6.04491e-15 -27.2239 2.07055
      vertex 5.98924e-15 -26.9731 0.162639
      vertex 5.5278 -26.7065 2.07055
    endloop
  endfacet
  facet normal 0.0924049 -0.987291 -0.1293
    outer loop
      vertex 5.47255 -26.4396 0
      vertex 5.98924e-15 -26.9731 0.162639
      vertex 5.98449e-15 -26.9518 0
    endloop
  endfacet
  facet normal 0.0923871 -0.987237 -0.129723
    outer loop
      vertex 5.98924e-15 -26.9731 0.162639
      vertex 5.47255 -26.4396 0
      vertex 5.5278 -26.7065 2.07055
    endloop
  endfacet
  facet normal 0.0861671 -0.9207 -0.380639
    outer loop
      vertex 6.22206e-15 -28.0216 4
      vertex 6.05859e-15 -27.2855 2.2195
      vertex 5.68979 -27.4891 4
    endloop
  endfacet
  facet normal 0.086173 -0.920655 -0.380748
    outer loop
      vertex 5.5278 -26.7065 2.07055
      vertex 6.05859e-15 -27.2855 2.2195
      vertex 6.04491e-15 -27.2239 2.07055
    endloop
  endfacet
  facet normal 0.0861782 -0.920686 -0.380672
    outer loop
      vertex 6.05859e-15 -27.2855 2.2195
      vertex 5.5278 -26.7065 2.07055
      vertex 5.68979 -27.4891 4
    endloop
  endfacet
  facet normal 0.0740915 -0.791695 -0.606407
    outer loop
      vertex 6.50385e-15 -29.2907 5.65685
      vertex 6.2435e-15 -28.1182 4.12609
      vertex 5.94748 -28.7341 5.65685
    endloop
  endfacet
  facet normal 0.074088 -0.791634 -0.606487
    outer loop
      vertex 5.68979 -27.4891 4
      vertex 6.2435e-15 -28.1182 4.12609
      vertex 6.22206e-15 -28.0216 4
    endloop
  endfacet
  facet normal 0.0740953 -0.791686 -0.606418
    outer loop
      vertex 6.2435e-15 -28.1182 4.12609
      vertex 5.68979 -27.4891 4
      vertex 5.94748 -28.7341 5.65685
    endloop
  endfacet
  facet normal 0.0569513 -0.608471 -0.79153
    outer loop
      vertex 6.87109e-15 -30.9446 6.9282
      vertex 6.53152e-15 -29.4154 5.75266
      vertex 6.2833 -30.3565 6.9282
    endloop
  endfacet
  facet normal 0.0569511 -0.608472 -0.791529
    outer loop
      vertex 6.53152e-15 -29.4154 5.75266
      vertex 5.94748 -28.7341 5.65685
      vertex 6.2833 -30.3565 6.9282
    endloop
  endfacet
  facet normal 0.0569256 -0.608271 -0.791685
    outer loop
      vertex 5.94748 -28.7341 5.65685
      vertex 6.53152e-15 -29.4154 5.75266
      vertex 6.50385e-15 -29.2907 5.65685
    endloop
  endfacet
  facet normal 0.0358494 -0.38302 -0.923044
    outer loop
      vertex 7.29874e-15 -32.8706 7.72741
      vertex 6.90315e-15 -31.089 6.98813
      vertex 6.67437 -32.2459 7.72741
    endloop
  endfacet
  facet normal 0.0358485 -0.383024 -0.923043
    outer loop
      vertex 6.90315e-15 -31.089 6.98813
      vertex 6.2833 -30.3565 6.9282
      vertex 6.67437 -32.2459 7.72741
    endloop
  endfacet
  facet normal 0.0358551 -0.383079 -0.92302
    outer loop
      vertex 6.2833 -30.3565 6.9282
      vertex 6.90315e-15 -31.089 6.98813
      vertex 6.87109e-15 -30.9446 6.9282
    endloop
  endfacet
  facet normal 0.0122378 -0.130746 -0.99134
    outer loop
      vertex 7.75768e-15 -34.9375 8
      vertex 7.33314e-15 -33.0255 7.74783
      vertex 7.09405 -34.2735 8
    endloop
  endfacet
  facet normal 0.0122384 -0.130742 -0.991341
    outer loop
      vertex 7.33314e-15 -33.0255 7.74783
      vertex 6.67437 -32.2459 7.72741
      vertex 7.09405 -34.2735 8
    endloop
  endfacet
  facet normal 0.0122318 -0.130686 -0.991348
    outer loop
      vertex 6.67437 -32.2459 7.72741
      vertex 7.33314e-15 -33.0255 7.74783
      vertex 7.29874e-15 -32.8706 7.72741
    endloop
  endfacet
  facet normal -0.0122368 0.130751 -0.99134
    outer loop
      vertex 8.21661e-15 -37.0043 7.72741
      vertex 7.79218e-15 -35.0929 7.97951
      vertex 7.51372 -36.3011 7.72741
    endloop
  endfacet
  facet normal -0.0122381 0.130743 -0.991341
    outer loop
      vertex 7.79218e-15 -35.0929 7.97951
      vertex 7.09405 -34.2735 8
      vertex 7.51372 -36.3011 7.72741
    endloop
  endfacet
  facet normal -0.0122346 0.130712 -0.991345
    outer loop
      vertex 7.09405 -34.2735 8
      vertex 7.79218e-15 -35.0929 7.97951
      vertex 7.75768e-15 -34.9375 8
    endloop
  endfacet
  facet normal -0.0358463 0.38302 -0.923044
    outer loop
      vertex 8.64427e-15 -38.9303 6.9282
      vertex 8.24897e-15 -37.15 7.66694
      vertex 7.9048 -38.1905 6.9282
    endloop
  endfacet
  facet normal -0.0358455 0.383024 -0.923042
    outer loop
      vertex 8.24897e-15 -37.15 7.66694
      vertex 7.51372 -36.3011 7.72741
      vertex 7.9048 -38.1905 6.9282
    endloop
  endfacet
  facet normal -0.0358521 0.383081 -0.923019
    outer loop
      vertex 7.51372 -36.3011 7.72741
      vertex 8.24897e-15 -37.15 7.66694
      vertex 8.21661e-15 -37.0043 7.72741
    endloop
  endfacet
  facet normal -0.0569505 0.608463 -0.791536
    outer loop
      vertex 9.01151e-15 -40.5842 5.65685
      vertex 8.67229e-15 -39.0565 6.83121
      vertex 8.24062 -39.8129 5.65685
    endloop
  endfacet
  facet normal -0.0569485 0.608473 -0.791529
    outer loop
      vertex 8.67229e-15 -39.0565 6.83121
      vertex 7.9048 -38.1905 6.9282
      vertex 8.24062 -39.8129 5.65685
    endloop
  endfacet
  facet normal -0.0569374 0.608379 -0.791602
    outer loop
      vertex 7.9048 -38.1905 6.9282
      vertex 8.67229e-15 -39.0565 6.83121
      vertex 8.64427e-15 -38.9303 6.9282
    endloop
  endfacet
  facet normal -0.0740985 0.791692 -0.60641
    outer loop
      vertex 9.2933e-15 -41.8533 4
      vertex 9.03322e-15 -40.682 5.52918
      vertex 8.49831 -41.0579 4
    endloop
  endfacet
  facet normal -0.0740977 0.791665 -0.606445
    outer loop
      vertex 8.24062 -39.8129 5.65685
      vertex 9.03322e-15 -40.682 5.52918
      vertex 9.01151e-15 -40.5842 5.65685
    endloop
  endfacet
  facet normal -0.0741003 0.791686 -0.606418
    outer loop
      vertex 9.03322e-15 -40.682 5.52918
      vertex 8.24062 -39.8129 5.65685
      vertex 8.49831 -41.0579 4
    endloop
  endfacet
  facet normal -0.086176 0.920687 -0.38067
    outer loop
      vertex 9.47044e-15 -42.6511 2.07055
      vertex 9.3071e-15 -41.9155 3.84967
      vertex 8.66029 -41.8405 2.07055
    endloop
  endfacet
  facet normal -0.0861629 0.920592 -0.380901
    outer loop
      vertex 8.49831 -41.0579 4
      vertex 9.3071e-15 -41.9155 3.84967
      vertex 9.2933e-15 -41.8533 4
    endloop
  endfacet
  facet normal -0.0861764 0.920686 -0.380672
    outer loop
      vertex 9.3071e-15 -41.9155 3.84967
      vertex 8.49831 -41.0579 4
      vertex 8.66029 -41.8405 2.07055
    endloop
  endfacet
  facet normal -0.0923964 0.987231 -0.12976
    outer loop
      vertex 9.53086e-15 -42.9232 0
      vertex 9.47521e-15 -42.6725 1.90736
      vertex 8.71554 -42.1075 0
    endloop
  endfacet
  facet normal -0.092408 0.987269 -0.129466
    outer loop
      vertex 8.66029 -41.8405 2.07055
      vertex 9.47521e-15 -42.6725 1.90736
      vertex 9.47044e-15 -42.6511 2.07055
    endloop
  endfacet
  facet normal -0.0923985 0.98723 -0.12977
    outer loop
      vertex 9.47521e-15 -42.6725 1.90736
      vertex 8.66029 -41.8405 2.07055
      vertex 8.71554 -42.1075 0
    endloop
  endfacet
  facet normal 0.307086 -0.942799 -0.129724
    outer loop
      vertex 5.5278 -26.7065 2.07055
      vertex 5.47255 -26.4396 0
      vertex 11.2613 -24.839 2.07055
    endloop
  endfacet
  facet normal 0.307092 -0.942794 -0.129745
    outer loop
      vertex 11.2613 -24.839 2.07055
      vertex 5.47255 -26.4396 0
      vertex 11.1488 -24.5907 0
    endloop
  endfacet
  facet normal 0.286382 -0.879246 -0.380673
    outer loop
      vertex 5.68979 -27.4891 4
      vertex 5.5278 -26.7065 2.07055
      vertex 11.5913 -25.5669 4
    endloop
  endfacet
  facet normal 0.286384 -0.879241 -0.380682
    outer loop
      vertex 11.5913 -25.5669 4
      vertex 5.5278 -26.7065 2.07055
      vertex 11.2613 -24.839 2.07055
    endloop
  endfacet
  facet normal 0.24626 -0.756051 -0.606417
    outer loop
      vertex 5.94748 -28.7341 5.65685
      vertex 5.68979 -27.4891 4
      vertex 12.1163 -26.7248 5.65685
    endloop
  endfacet
  facet normal 0.246259 -0.75606 -0.606408
    outer loop
      vertex 12.1163 -26.7248 5.65685
      vertex 5.68979 -27.4891 4
      vertex 11.5913 -25.5669 4
    endloop
  endfacet
  facet normal 0.189264 -0.581085 -0.79153
    outer loop
      vertex 6.2833 -30.3565 6.9282
      vertex 5.94748 -28.7341 5.65685
      vertex 12.8005 -28.2338 6.9282
    endloop
  endfacet
  facet normal 0.189265 -0.581068 -0.791542
    outer loop
      vertex 12.8005 -28.2338 6.9282
      vertex 5.94748 -28.7341 5.65685
      vertex 12.1163 -26.7248 5.65685
    endloop
  endfacet
  facet normal 0.119138 -0.365785 -0.923043
    outer loop
      vertex 6.67437 -32.2459 7.72741
      vertex 6.2833 -30.3565 6.9282
      vertex 13.5972 -29.9911 7.72741
    endloop
  endfacet
  facet normal 0.119138 -0.365782 -0.923044
    outer loop
      vertex 13.5972 -29.9911 7.72741
      vertex 6.2833 -30.3565 6.9282
      vertex 12.8005 -28.2338 6.9282
    endloop
  endfacet
  facet normal 0.0406677 -0.124858 -0.991341
    outer loop
      vertex 7.09405 -34.2735 8
      vertex 6.67437 -32.2459 7.72741
      vertex 14.4521 -31.8769 8
    endloop
  endfacet
  facet normal 0.0406678 -0.124861 -0.99134
    outer loop
      vertex 14.4521 -31.8769 8
      vertex 6.67437 -32.2459 7.72741
      vertex 13.5972 -29.9911 7.72741
    endloop
  endfacet
  facet normal -0.0406679 0.124858 -0.991341
    outer loop
      vertex 7.51372 -36.3011 7.72741
      vertex 7.09405 -34.2735 8
      vertex 15.3071 -33.7627 7.72741
    endloop
  endfacet
  facet normal -0.0406679 0.124859 -0.991341
    outer loop
      vertex 15.3071 -33.7627 7.72741
      vertex 7.09405 -34.2735 8
      vertex 14.4521 -31.8769 8
    endloop
  endfacet
  facet normal -0.119144 0.365783 -0.923043
    outer loop
      vertex 7.9048 -38.1905 6.9282
      vertex 7.51372 -36.3011 7.72741
      vertex 16.1038 -35.5199 6.9282
    endloop
  endfacet
  facet normal -0.119145 0.365797 -0.923037
    outer loop
      vertex 16.1038 -35.5199 6.9282
      vertex 7.51372 -36.3011 7.72741
      vertex 15.3071 -33.7627 7.72741
    endloop
  endfacet
  facet normal -0.189269 0.581084 -0.791529
    outer loop
      vertex 8.24062 -39.8129 5.65685
      vertex 7.9048 -38.1905 6.9282
      vertex 16.7879 -37.0289 5.65685
    endloop
  endfacet
  facet normal -0.189269 0.581074 -0.791536
    outer loop
      vertex 16.7879 -37.0289 5.65685
      vertex 7.9048 -38.1905 6.9282
      vertex 16.1038 -35.5199 6.9282
    endloop
  endfacet
  facet normal -0.246254 0.756053 -0.606418
    outer loop
      vertex 8.49831 -41.0579 4
      vertex 8.24062 -39.8129 5.65685
      vertex 17.3129 -38.1869 4
    endloop
  endfacet
  facet normal -0.246255 0.756038 -0.606437
    outer loop
      vertex 17.3129 -38.1869 4
      vertex 8.24062 -39.8129 5.65685
      vertex 16.7879 -37.0289 5.65685
    endloop
  endfacet
  facet normal -0.286386 0.879245 -0.380671
    outer loop
      vertex 8.66029 -41.8405 2.07055
      vertex 8.49831 -41.0579 4
      vertex 17.6429 -38.9147 2.07055
    endloop
  endfacet
  facet normal -0.286383 0.879259 -0.380643
    outer loop
      vertex 17.6429 -38.9147 2.07055
      vertex 8.49831 -41.0579 4
      vertex 17.3129 -38.1869 4
    endloop
  endfacet
  facet normal -0.307087 0.942793 -0.129768
    outer loop
      vertex 8.71554 -42.1075 0
      vertex 8.66029 -41.8405 2.07055
      vertex 17.7555 -39.163 0
    endloop
  endfacet
  facet normal -0.307085 0.942794 -0.12976
    outer loop
      vertex 17.7555 -39.163 0
      vertex 8.66029 -41.8405 2.07055
      vertex 17.6429 -38.9147 2.07055
    endloop
  endfacet
  facet normal 0.506751 -0.852274 -0.129738
    outer loop
      vertex 11.2613 -24.839 2.07055
      vertex 11.1488 -24.5907 0
      vertex 16.4444 -21.7572 2.07055
    endloop
  endfacet
  facet normal 0.506756 -0.852267 -0.129762
    outer loop
      vertex 16.4444 -21.7572 2.07055
      vertex 11.1488 -24.5907 0
      vertex 16.28 -21.5397 0
    endloop
  endfacet
  facet normal 0.472588 -0.794822 -0.380681
    outer loop
      vertex 11.5913 -25.5669 4
      vertex 11.2613 -24.839 2.07055
      vertex 16.9263 -22.3948 4
    endloop
  endfacet
  facet normal 0.472588 -0.794819 -0.380687
    outer loop
      vertex 16.9263 -22.3948 4
      vertex 11.2613 -24.839 2.07055
      vertex 16.4444 -21.7572 2.07055
    endloop
  endfacet
  facet normal 0.406387 -0.683459 -0.60641
    outer loop
      vertex 12.1163 -26.7248 5.65685
      vertex 11.5913 -25.5669 4
      vertex 17.6928 -23.409 5.65685
    endloop
  endfacet
  facet normal 0.406388 -0.683483 -0.606382
    outer loop
      vertex 17.6928 -23.409 5.65685
      vertex 11.5913 -25.5669 4
      vertex 16.9263 -22.3948 4
    endloop
  endfacet
  facet normal 0.312325 -0.525273 -0.791544
    outer loop
      vertex 12.8005 -28.2338 6.9282
      vertex 12.1163 -26.7248 5.65685
      vertex 18.6919 -24.7308 6.9282
    endloop
  endfacet
  facet normal 0.312323 -0.525264 -0.79155
    outer loop
      vertex 18.6919 -24.7308 6.9282
      vertex 12.1163 -26.7248 5.65685
      vertex 17.6928 -23.409 5.65685
    endloop
  endfacet
  facet normal 0.196609 -0.330659 -0.923044
    outer loop
      vertex 13.5972 -29.9911 7.72741
      vertex 12.8005 -28.2338 6.9282
      vertex 19.8552 -26.2701 7.72741
    endloop
  endfacet
  facet normal 0.19661 -0.330662 -0.923042
    outer loop
      vertex 19.8552 -26.2701 7.72741
      vertex 12.8005 -28.2338 6.9282
      vertex 18.6919 -24.7308 6.9282
    endloop
  endfacet
  facet normal 0.0671131 -0.112872 -0.99134
    outer loop
      vertex 14.4521 -31.8769 8
      vertex 13.5972 -29.9911 7.72741
      vertex 21.1037 -27.9219 8
    endloop
  endfacet
  facet normal 0.0671126 -0.11287 -0.991341
    outer loop
      vertex 21.1037 -27.9219 8
      vertex 13.5972 -29.9911 7.72741
      vertex 19.8552 -26.2701 7.72741
    endloop
  endfacet
  facet normal -0.0671118 0.112869 -0.991341
    outer loop
      vertex 15.3071 -33.7627 7.72741
      vertex 14.4521 -31.8769 8
      vertex 22.3522 -29.5737 7.72741
    endloop
  endfacet
  facet normal -0.0671122 0.112871 -0.991341
    outer loop
      vertex 22.3522 -29.5737 7.72741
      vertex 14.4521 -31.8769 8
      vertex 21.1037 -27.9219 8
    endloop
  endfacet
  facet normal -0.196612 0.330674 -0.923038
    outer loop
      vertex 16.1038 -35.5199 6.9282
      vertex 15.3071 -33.7627 7.72741
      vertex 23.5156 -31.113 6.9282
    endloop
  endfacet
  facet normal -0.196606 0.330654 -0.923046
    outer loop
      vertex 23.5156 -31.113 6.9282
      vertex 15.3071 -33.7627 7.72741
      vertex 22.3522 -29.5737 7.72741
    endloop
  endfacet
  facet normal -0.312322 0.525287 -0.791535
    outer loop
      vertex 16.7879 -37.0289 5.65685
      vertex 16.1038 -35.5199 6.9282
      vertex 24.5146 -32.4348 5.65685
    endloop
  endfacet
  facet normal -0.312321 0.525281 -0.79154
    outer loop
      vertex 24.5146 -32.4348 5.65685
      vertex 16.1038 -35.5199 6.9282
      vertex 23.5156 -31.113 6.9282
    endloop
  endfacet
  facet normal -0.406372 0.683445 -0.606436
    outer loop
      vertex 17.3129 -38.1869 4
      vertex 16.7879 -37.0289 5.65685
      vertex 25.2812 -33.449 4
    endloop
  endfacet
  facet normal -0.406377 0.683476 -0.606398
    outer loop
      vertex 25.2812 -33.449 4
      vertex 16.7879 -37.0289 5.65685
      vertex 24.5146 -32.4348 5.65685
    endloop
  endfacet
  facet normal -0.472597 0.794834 -0.380646
    outer loop
      vertex 17.6429 -38.9147 2.07055
      vertex 17.3129 -38.1869 4
      vertex 25.763 -34.0866 2.07055
    endloop
  endfacet
  facet normal -0.472597 0.794824 -0.380667
    outer loop
      vertex 25.763 -34.0866 2.07055
      vertex 17.3129 -38.1869 4
      vertex 25.2812 -33.449 4
    endloop
  endfacet
  facet normal -0.506757 0.852267 -0.129762
    outer loop
      vertex 17.7555 -39.163 0
      vertex 17.6429 -38.9147 2.07055
      vertex 25.9274 -34.304 0
    endloop
  endfacet
  facet normal -0.506752 0.852276 -0.129722
    outer loop
      vertex 25.9274 -34.304 0
      vertex 17.6429 -38.9147 2.07055
      vertex 25.763 -34.0866 2.07055
    endloop
  endfacet
  facet normal 0.681651 -0.720079 -0.129763
    outer loop
      vertex 16.4444 -21.7572 2.07055
      vertex 16.28 -21.5397 0
      vertex 20.8235 -17.6118 2.07055
    endloop
  endfacet
  facet normal 0.681643 -0.720094 -0.129717
    outer loop
      vertex 20.8235 -17.6118 2.07055
      vertex 16.28 -21.5397 0
      vertex 20.6154 -17.4358 0
    endloop
  endfacet
  facet normal 0.635704 -0.671534 -0.380687
    outer loop
      vertex 16.9263 -22.3948 4
      vertex 16.4444 -21.7572 2.07055
      vertex 21.4337 -18.1279 4
    endloop
  endfacet
  facet normal 0.635704 -0.671542 -0.380673
    outer loop
      vertex 21.4337 -18.1279 4
      vertex 16.4444 -21.7572 2.07055
      vertex 20.8235 -17.6118 2.07055
    endloop
  endfacet
  facet normal 0.54665 -0.577475 -0.606381
    outer loop
      vertex 17.6928 -23.409 5.65685
      vertex 16.9263 -22.3948 4
      vertex 22.4044 -18.9489 5.65685
    endloop
  endfacet
  facet normal 0.546645 -0.577456 -0.606403
    outer loop
      vertex 22.4044 -18.9489 5.65685
      vertex 16.9263 -22.3948 4
      vertex 21.4337 -18.1279 4
    endloop
  endfacet
  facet normal 0.420107 -0.443797 -0.791552
    outer loop
      vertex 18.6919 -24.7308 6.9282
      vertex 17.6928 -23.409 5.65685
      vertex 23.6695 -20.0189 6.9282
    endloop
  endfacet
  facet normal 0.420107 -0.443796 -0.791552
    outer loop
      vertex 23.6695 -20.0189 6.9282
      vertex 17.6928 -23.409 5.65685
      vertex 22.4044 -18.9489 5.65685
    endloop
  endfacet
  facet normal 0.264468 -0.279379 -0.923041
    outer loop
      vertex 19.8552 -26.2701 7.72741
      vertex 18.6919 -24.7308 6.9282
      vertex 25.1427 -21.2648 7.72741
    endloop
  endfacet
  facet normal 0.26447 -0.279384 -0.923039
    outer loop
      vertex 25.1427 -21.2648 7.72741
      vertex 18.6919 -24.7308 6.9282
      vertex 23.6695 -20.0189 6.9282
    endloop
  endfacet
  facet normal 0.0902747 -0.0953636 -0.991341
    outer loop
      vertex 21.1037 -27.9219 8
      vertex 19.8552 -26.2701 7.72741
      vertex 26.7236 -22.6019 8
    endloop
  endfacet
  facet normal 0.0902755 -0.0953653 -0.99134
    outer loop
      vertex 26.7236 -22.6019 8
      vertex 19.8552 -26.2701 7.72741
      vertex 25.1427 -21.2648 7.72741
    endloop
  endfacet
  facet normal -0.090275 0.0953634 -0.991341
    outer loop
      vertex 22.3522 -29.5737 7.72741
      vertex 21.1037 -27.9219 8
      vertex 28.3045 -23.939 7.72741
    endloop
  endfacet
  facet normal -0.0902758 0.0953649 -0.99134
    outer loop
      vertex 28.3045 -23.939 7.72741
      vertex 21.1037 -27.9219 8
      vertex 26.7236 -22.6019 8
    endloop
  endfacet
  facet normal -0.264463 0.279368 -0.923045
    outer loop
      vertex 23.5156 -31.113 6.9282
      vertex 22.3522 -29.5737 7.72741
      vertex 29.7777 -25.185 6.9282
    endloop
  endfacet
  facet normal -0.264465 0.279371 -0.923044
    outer loop
      vertex 29.7777 -25.185 6.9282
      vertex 22.3522 -29.5737 7.72741
      vertex 28.3045 -23.939 7.72741
    endloop
  endfacet
  facet normal -0.420121 0.443806 -0.791539
    outer loop
      vertex 24.5146 -32.4348 5.65685
      vertex 23.5156 -31.113 6.9282
      vertex 31.0428 -26.255 5.65685
    endloop
  endfacet
  facet normal -0.420113 0.44379 -0.791553
    outer loop
      vertex 31.0428 -26.255 5.65685
      vertex 23.5156 -31.113 6.9282
      vertex 29.7777 -25.185 6.9282
    endloop
  endfacet
  facet normal -0.546642 0.57746 -0.606401
    outer loop
      vertex 25.2812 -33.449 4
      vertex 24.5146 -32.4348 5.65685
      vertex 32.0135 -27.076 4
    endloop
  endfacet
  facet normal -0.546641 0.577459 -0.606403
    outer loop
      vertex 32.0135 -27.076 4
      vertex 24.5146 -32.4348 5.65685
      vertex 31.0428 -26.255 5.65685
    endloop
  endfacet
  facet normal -0.635704 0.671549 -0.380659
    outer loop
      vertex 25.763 -34.0866 2.07055
      vertex 25.2812 -33.449 4
      vertex 32.6237 -27.5921 2.07055
    endloop
  endfacet
  facet normal -0.635703 0.671543 -0.380673
    outer loop
      vertex 32.6237 -27.5921 2.07055
      vertex 25.2812 -33.449 4
      vertex 32.0135 -27.076 4
    endloop
  endfacet
  facet normal -0.681647 0.720089 -0.129729
    outer loop
      vertex 25.9274 -34.304 0
      vertex 25.763 -34.0866 2.07055
      vertex 32.8319 -27.7681 0
    endloop
  endfacet
  facet normal -0.681648 0.720084 -0.12975
    outer loop
      vertex 32.8319 -27.7681 0
      vertex 25.763 -34.0866 2.07055
      vertex 32.6237 -27.5921 2.07055
    endloop
  endfacet
  facet normal 0.823232 -0.552686 -0.129718
    outer loop
      vertex 20.8235 -17.6118 2.07055
      vertex 20.6154 -17.4358 0
      vertex 24.1846 -12.6054 2.07055
    endloop
  endfacet
  facet normal 0.823234 -0.552681 -0.12973
    outer loop
      vertex 24.1846 -12.6054 2.07055
      vertex 20.6154 -17.4358 0
      vertex 23.9429 -12.4794 0
    endloop
  endfacet
  facet normal 0.767737 -0.51543 -0.380672
    outer loop
      vertex 21.4337 -18.1279 4
      vertex 20.8235 -17.6118 2.07055
      vertex 24.8933 -12.9748 4
    endloop
  endfacet
  facet normal 0.767737 -0.515428 -0.380675
    outer loop
      vertex 24.8933 -12.9748 4
      vertex 20.8235 -17.6118 2.07055
      vertex 24.1846 -12.6054 2.07055
    endloop
  endfacet
  facet normal 0.660177 -0.443219 -0.606402
    outer loop
      vertex 22.4044 -18.9489 5.65685
      vertex 21.4337 -18.1279 4
      vertex 26.0207 -13.5624 5.65685
    endloop
  endfacet
  facet normal 0.660177 -0.443218 -0.606403
    outer loop
      vertex 26.0207 -13.5624 5.65685
      vertex 21.4337 -18.1279 4
      vertex 24.8933 -12.9748 4
    endloop
  endfacet
  facet normal 0.507364 -0.340629 -0.791552
    outer loop
      vertex 23.6695 -20.0189 6.9282
      vertex 22.4044 -18.9489 5.65685
      vertex 27.49 -14.3283 6.9282
    endloop
  endfacet
  facet normal 0.507359 -0.340623 -0.791557
    outer loop
      vertex 27.49 -14.3283 6.9282
      vertex 22.4044 -18.9489 5.65685
      vertex 26.0207 -13.5624 5.65685
    endloop
  endfacet
  facet normal 0.319399 -0.214435 -0.92304
    outer loop
      vertex 25.1427 -21.2648 7.72741
      vertex 23.6695 -20.0189 6.9282
      vertex 29.201 -15.22 7.72741
    endloop
  endfacet
  facet normal 0.319399 -0.214435 -0.92304
    outer loop
      vertex 29.201 -15.22 7.72741
      vertex 23.6695 -20.0189 6.9282
      vertex 27.49 -14.3283 6.9282
    endloop
  endfacet
  facet normal 0.109025 -0.0731974 -0.99134
    outer loop
      vertex 26.7236 -22.6019 8
      vertex 25.1427 -21.2648 7.72741
      vertex 31.0371 -16.1771 8
    endloop
  endfacet
  facet normal 0.109022 -0.0731942 -0.991341
    outer loop
      vertex 31.0371 -16.1771 8
      vertex 25.1427 -21.2648 7.72741
      vertex 29.201 -15.22 7.72741
    endloop
  endfacet
  facet normal -0.109025 0.0731974 -0.99134
    outer loop
      vertex 28.3045 -23.939 7.72741
      vertex 26.7236 -22.6019 8
      vertex 32.8732 -17.1341 7.72741
    endloop
  endfacet
  facet normal -0.109024 0.0731971 -0.99134
    outer loop
      vertex 32.8732 -17.1341 7.72741
      vertex 26.7236 -22.6019 8
      vertex 31.0371 -16.1771 8
    endloop
  endfacet
  facet normal -0.319389 0.214432 -0.923044
    outer loop
      vertex 29.7777 -25.185 6.9282
      vertex 28.3045 -23.939 7.72741
      vertex 34.5842 -18.0259 6.9282
    endloop
  endfacet
  facet normal -0.319389 0.214433 -0.923044
    outer loop
      vertex 34.5842 -18.0259 6.9282
      vertex 28.3045 -23.939 7.72741
      vertex 32.8732 -17.1341 7.72741
    endloop
  endfacet
  facet normal -0.507362 0.340632 -0.791552
    outer loop
      vertex 31.0428 -26.255 5.65685
      vertex 29.7777 -25.185 6.9282
      vertex 36.0535 -18.7917 5.65685
    endloop
  endfacet
  facet normal -0.507366 0.340637 -0.791547
    outer loop
      vertex 36.0535 -18.7917 5.65685
      vertex 29.7777 -25.185 6.9282
      vertex 34.5842 -18.0259 6.9282
    endloop
  endfacet
  facet normal -0.660172 0.443226 -0.606402
    outer loop
      vertex 32.0135 -27.076 4
      vertex 31.0428 -26.255 5.65685
      vertex 37.1809 -19.3793 4
    endloop
  endfacet
  facet normal -0.660172 0.443226 -0.606402
    outer loop
      vertex 37.1809 -19.3793 4
      vertex 31.0428 -26.255 5.65685
      vertex 36.0535 -18.7917 5.65685
    endloop
  endfacet
  facet normal -0.767731 0.515439 -0.380672
    outer loop
      vertex 32.6237 -27.5921 2.07055
      vertex 32.0135 -27.076 4
      vertex 37.8896 -19.7487 2.07055
    endloop
  endfacet
  facet normal -0.767731 0.515438 -0.380675
    outer loop
      vertex 37.8896 -19.7487 2.07055
      vertex 32.0135 -27.076 4
      vertex 37.1809 -19.3793 4
    endloop
  endfacet
  facet normal -0.823224 0.552689 -0.129757
    outer loop
      vertex 32.8319 -27.7681 0
      vertex 32.6237 -27.5921 2.07055
      vertex 38.1313 -19.8747 0
    endloop
  endfacet
  facet normal -0.823224 0.552696 -0.12973
    outer loop
      vertex 38.1313 -19.8747 0
      vertex 32.6237 -27.5921 2.07055
      vertex 37.8896 -19.7487 2.07055
    endloop
  endfacet
  facet normal 0.924553 -0.35829 -0.129728
    outer loop
      vertex 24.1846 -12.6054 2.07055
      vertex 23.9429 -12.4794 0
      vertex 26.3635 -6.98283 2.07055
    endloop
  endfacet
  facet normal 0.924553 -0.358287 -0.129736
    outer loop
      vertex 26.3635 -6.98283 2.07055
      vertex 23.9429 -12.4794 0
      vertex 26.1 -6.91304 0
    endloop
  endfacet
  facet normal 0.862232 -0.334131 -0.380674
    outer loop
      vertex 24.8933 -12.9748 4
      vertex 24.1846 -12.6054 2.07055
      vertex 27.136 -7.18746 4
    endloop
  endfacet
  facet normal 0.862237 -0.33414 -0.380654
    outer loop
      vertex 27.136 -7.18746 4
      vertex 24.1846 -12.6054 2.07055
      vertex 26.3635 -6.98283 2.07055
    endloop
  endfacet
  facet normal 0.741431 -0.287323 -0.606404
    outer loop
      vertex 26.0207 -13.5624 5.65685
      vertex 24.8933 -12.9748 4
      vertex 28.365 -7.51298 5.65685
    endloop
  endfacet
  facet normal 0.741425 -0.287316 -0.606415
    outer loop
      vertex 28.365 -7.51298 5.65685
      vertex 24.8933 -12.9748 4
      vertex 27.136 -7.18746 4
    endloop
  endfacet
  facet normal 0.569813 -0.220807 -0.791554
    outer loop
      vertex 27.49 -14.3283 6.9282
      vertex 26.0207 -13.5624 5.65685
      vertex 29.9666 -7.93719 6.9282
    endloop
  endfacet
  facet normal 0.569832 -0.220824 -0.791535
    outer loop
      vertex 29.9666 -7.93719 6.9282
      vertex 26.0207 -13.5624 5.65685
      vertex 28.365 -7.51298 5.65685
    endloop
  endfacet
  facet normal 0.358709 -0.139007 -0.923041
    outer loop
      vertex 29.201 -15.22 7.72741
      vertex 27.49 -14.3283 6.9282
      vertex 31.8318 -8.43121 7.72741
    endloop
  endfacet
  facet normal 0.358697 -0.138997 -0.923047
    outer loop
      vertex 31.8318 -8.43121 7.72741
      vertex 27.49 -14.3283 6.9282
      vertex 29.9666 -7.93719 6.9282
    endloop
  endfacet
  facet normal 0.122443 -0.0474482 -0.991341
    outer loop
      vertex 31.0371 -16.1771 8
      vertex 29.201 -15.22 7.72741
      vertex 33.8333 -8.96135 8
    endloop
  endfacet
  facet normal 0.122445 -0.0474501 -0.99134
    outer loop
      vertex 33.8333 -8.96135 8
      vertex 29.201 -15.22 7.72741
      vertex 31.8318 -8.43121 7.72741
    endloop
  endfacet
  facet normal -0.122445 0.0474488 -0.99134
    outer loop
      vertex 32.8732 -17.1341 7.72741
      vertex 31.0371 -16.1771 8
      vertex 35.8348 -9.49149 7.72741
    endloop
  endfacet
  facet normal -0.122446 0.0474493 -0.99134
    outer loop
      vertex 35.8348 -9.49149 7.72741
      vertex 31.0371 -16.1771 8
      vertex 33.8333 -8.96135 8
    endloop
  endfacet
  facet normal -0.358704 0.139004 -0.923044
    outer loop
      vertex 34.5842 -18.0259 6.9282
      vertex 32.8732 -17.1341 7.72741
      vertex 37.7 -9.9855 6.9282
    endloop
  endfacet
  facet normal -0.358697 0.138999 -0.923047
    outer loop
      vertex 37.7 -9.9855 6.9282
      vertex 32.8732 -17.1341 7.72741
      vertex 35.8348 -9.49149 7.72741
    endloop
  endfacet
  facet normal -0.56982 0.220811 -0.791547
    outer loop
      vertex 36.0535 -18.7917 5.65685
      vertex 34.5842 -18.0259 6.9282
      vertex 39.3016 -10.4097 5.65685
    endloop
  endfacet
  facet normal -0.569834 0.220821 -0.791535
    outer loop
      vertex 39.3016 -10.4097 5.65685
      vertex 34.5842 -18.0259 6.9282
      vertex 37.7 -9.9855 6.9282
    endloop
  endfacet
  facet normal -0.741434 0.287315 -0.606403
    outer loop
      vertex 37.1809 -19.3793 4
      vertex 36.0535 -18.7917 5.65685
      vertex 40.5306 -10.7352 4
    endloop
  endfacet
  facet normal -0.741429 0.28731 -0.606413
    outer loop
      vertex 40.5306 -10.7352 4
      vertex 36.0535 -18.7917 5.65685
      vertex 39.3016 -10.4097 5.65685
    endloop
  endfacet
  facet normal -0.862234 0.334125 -0.380674
    outer loop
      vertex 37.8896 -19.7487 2.07055
      vertex 37.1809 -19.3793 4
      vertex 41.3031 -10.9399 2.07055
    endloop
  endfacet
  facet normal -0.862237 0.334128 -0.380665
    outer loop
      vertex 41.3031 -10.9399 2.07055
      vertex 37.1809 -19.3793 4
      vertex 40.5306 -10.7352 4
    endloop
  endfacet
  facet normal -0.924558 0.358278 -0.129728
    outer loop
      vertex 38.1313 -19.8747 0
      vertex 37.8896 -19.7487 2.07055
      vertex 41.5666 -11.0097 0
    endloop
  endfacet
  facet normal -0.924558 0.358276 -0.129738
    outer loop
      vertex 41.5666 -11.0097 0
      vertex 37.8896 -19.7487 2.07055
      vertex 41.3031 -10.9399 2.07055
    endloop
  endfacet
  facet normal 0.980679 -0.146357 -0.129799
    outer loop
      vertex 26.3635 -6.98283 2.07055
      vertex 27.1649 -1.49069 1.93267
      vertex 27.183 -1.49169 2.07055
    endloop
  endfacet
  facet normal 0.980439 -0.146367 -0.13159
    outer loop
      vertex 27.1649 -1.49069 1.93267
      vertex 26.3635 -6.98283 2.07055
      vertex 27.1612 -1.49049 1.90488
    endloop
  endfacet
  facet normal 0.980689 -0.146347 -0.129736
    outer loop
      vertex 27.1612 -1.49049 1.90488
      vertex 26.3635 -6.98283 2.07055
      vertex 26.1 -6.91304 0
    endloop
  endfacet
  facet normal 0.980691 -0.146357 -0.12971
    outer loop
      vertex 27.1612 -1.49049 1.90488
      vertex 26.1 -6.91304 0
      vertex 26.9113 -1.47678 0
    endloop
  endfacet
  facet normal 0.914477 -0.136491 -0.380923
    outer loop
      vertex 27.136 -7.18746 4
      vertex 27.9147 -1.53184 3.84292
      vertex 27.9796 -1.5354 4
    endloop
  endfacet
  facet normal 0.914588 -0.136498 -0.380653
    outer loop
      vertex 27.9147 -1.53184 3.84292
      vertex 27.136 -7.18746 4
      vertex 26.3635 -6.98283 2.07055
    endloop
  endfacet
  facet normal 0.914584 -0.136493 -0.380665
    outer loop
      vertex 27.4115 -1.50423 2.62404
      vertex 26.3635 -6.98283 2.07055
      vertex 27.183 -1.49169 2.07055
    endloop
  endfacet
  facet normal 0.914583 -0.136493 -0.380667
    outer loop
      vertex 26.3635 -6.98283 2.07055
      vertex 27.4115 -1.50423 2.62404
      vertex 27.9147 -1.53184 3.84292
    endloop
  endfacet
  facet normal 0.786534 -0.11738 -0.606289
    outer loop
      vertex 28.365 -7.51298 5.65685
      vertex 29.1421 -1.59919 5.52004
      vertex 29.2467 -1.60494 5.65685
    endloop
  endfacet
  facet normal 0.786438 -0.117371 -0.606415
    outer loop
      vertex 29.1421 -1.59919 5.52004
      vertex 28.365 -7.51298 5.65685
      vertex 27.136 -7.18746 4
    endloop
  endfacet
  facet normal 0.786449 -0.117379 -0.606399
    outer loop
      vertex 27.136 -7.18746 4
      vertex 28.6711 -1.57335 4.90419
      vertex 29.1421 -1.59919 5.52004
    endloop
  endfacet
  facet normal 0.786457 -0.117383 -0.606388
    outer loop
      vertex 28.6711 -1.57335 4.90419
      vertex 27.136 -7.18746 4
      vertex 27.9796 -1.5354 4
    endloop
  endfacet
  facet normal 0.604388 -0.0901988 -0.791567
    outer loop
      vertex 29.9666 -7.93719 6.9282
      vertex 30.7604 -1.688 6.8222
      vertex 30.8981 -1.69556 6.9282
    endloop
  endfacet
  facet normal 0.604429 -0.0902035 -0.791536
    outer loop
      vertex 30.7604 -1.688 6.8222
      vertex 29.9666 -7.93719 6.9282
      vertex 28.365 -7.51298 5.65685
    endloop
  endfacet
  facet normal 0.604362 -0.0901933 -0.791588
    outer loop
      vertex 29.4915 -1.61837 5.84528
      vertex 28.365 -7.51298 5.65685
      vertex 29.2467 -1.60494 5.65685
    endloop
  endfacet
  facet normal 0.604441 -0.0902106 -0.791525
    outer loop
      vertex 28.365 -7.51298 5.65685
      vertex 29.4915 -1.61837 5.84528
      vertex 30.7604 -1.688 6.8222
    endloop
  endfacet
  facet normal 0.380628 -0.0568004 -0.922982
    outer loop
      vertex 31.8318 -8.43121 7.72741
      vertex 32.6601 -1.79225 7.66043
      vertex 32.8212 -1.80109 7.72741
    endloop
  endfacet
  facet normal 0.380473 -0.0567817 -0.923047
    outer loop
      vertex 32.6601 -1.79225 7.66043
      vertex 31.8318 -8.43121 7.72741
      vertex 29.9666 -7.93719 6.9282
    endloop
  endfacet
  facet normal 0.380471 -0.0567815 -0.923048
    outer loop
      vertex 32.5556 -1.78651 7.617
      vertex 29.9666 -7.93719 6.9282
      vertex 30.8981 -1.69556 6.9282
    endloop
  endfacet
  facet normal 0.380493 -0.0567919 -0.923038
    outer loop
      vertex 29.9666 -7.93719 6.9282
      vertex 32.5556 -1.78651 7.617
      vertex 32.6601 -1.79225 7.66043
    endloop
  endfacet
  facet normal 0.12993 -0.0193908 -0.991334
    outer loop
      vertex 33.8333 -8.96135 8
      vertex 34.712 -1.90485 7.97714
      vertex 34.885 -1.91434 8
    endloop
  endfacet
  facet normal 0.129879 -0.0193845 -0.99134
    outer loop
      vertex 34.712 -1.90485 7.97714
      vertex 33.8333 -8.96135 8
      vertex 31.8318 -8.43121 7.72741
    endloop
  endfacet
  facet normal 0.129869 -0.0193801 -0.991342
    outer loop
      vertex 34.712 -1.90485 7.97714
      vertex 31.8318 -8.43121 7.72741
      vertex 32.8212 -1.80109 7.72741
    endloop
  endfacet
  facet normal -0.129926 0.0193899 -0.991334
    outer loop
      vertex 35.8348 -9.49149 7.72741
      vertex 36.7763 -2.01813 7.75019
      vertex 36.9487 -2.02759 7.72741
    endloop
  endfacet
  facet normal -0.129879 0.0193841 -0.99134
    outer loop
      vertex 36.7763 -2.01813 7.75019
      vertex 35.8348 -9.49149 7.72741
      vertex 33.8333 -8.96135 8
    endloop
  endfacet
  facet normal -0.129876 0.0193828 -0.991341
    outer loop
      vertex 36.7763 -2.01813 7.75019
      vertex 33.8333 -8.96135 8
      vertex 34.885 -1.91434 8
    endloop
  endfacet
  facet normal -0.380823 0.0568297 -0.9229
    outer loop
      vertex 37.7 -9.9855 6.9282
      vertex 38.8 -2.12918 6.95807
      vertex 38.8718 -2.13312 6.9282
    endloop
  endfacet
  facet normal -0.3804 0.0567712 -0.923078
    outer loop
      vertex 37.7 -9.9855 6.9282
      vertex 38.7121 -2.12436 6.99459
      vertex 38.8 -2.12918 6.95807
    endloop
  endfacet
  facet normal -0.380473 0.0567803 -0.923047
    outer loop
      vertex 38.7121 -2.12436 6.99459
      vertex 37.7 -9.9855 6.9282
      vertex 35.8348 -9.49149 7.72741
    endloop
  endfacet
  facet normal -0.380463 0.0567797 -0.923051
    outer loop
      vertex 37.8288 -2.07588 7.36168
      vertex 35.8348 -9.49149 7.72741
      vertex 36.9487 -2.02759 7.72741
    endloop
  endfacet
  facet normal -0.380489 0.0567871 -0.92304
    outer loop
      vertex 35.8348 -9.49149 7.72741
      vertex 37.8288 -2.07588 7.36168
      vertex 38.7121 -2.12436 6.99459
    endloop
  endfacet
  facet normal -0.604214 0.090175 -0.791703
    outer loop
      vertex 39.3016 -10.4097 5.65685
      vertex 40.3872 -2.21628 5.76157
      vertex 40.5233 -2.22375 5.65685
    endloop
  endfacet
  facet normal -0.60443 0.0902015 -0.791535
    outer loop
      vertex 40.3872 -2.21628 5.76157
      vertex 39.3016 -10.4097 5.65685
      vertex 37.7 -9.9855 6.9282
    endloop
  endfacet
  facet normal -0.604425 0.0901994 -0.791539
    outer loop
      vertex 37.7 -9.9855 6.9282
      vertex 39.4406 -2.16434 6.49032
      vertex 40.3872 -2.21628 5.76157
    endloop
  endfacet
  facet normal -0.60441 0.0901953 -0.791551
    outer loop
      vertex 39.4406 -2.16434 6.49032
      vertex 37.7 -9.9855 6.9282
      vertex 38.8718 -2.13312 6.9282
    endloop
  endfacet
  facet normal -0.786575 0.117442 -0.606224
    outer loop
      vertex 41.7904 -2.29328 4
      vertex 39.3016 -10.4097 5.65685
      vertex 41.6871 -2.28761 4.13513
    endloop
  endfacet
  facet normal -0.78644 0.117362 -0.606414
    outer loop
      vertex 39.3016 -10.4097 5.65685
      vertex 41.7904 -2.29328 4
      vertex 40.5306 -10.7352 4
    endloop
  endfacet
  facet normal -0.786451 0.117373 -0.606398
    outer loop
      vertex 41.6871 -2.28761 4.13513
      vertex 39.3016 -10.4097 5.65685
      vertex 40.5233 -2.22375 5.65685
    endloop
  endfacet
  facet normal -0.914704 0.136511 -0.38037
    outer loop
      vertex 41.3031 -10.9399 2.07055
      vertex 42.5228 -2.33347 2.2262
      vertex 42.587 -2.33699 2.07055
    endloop
  endfacet
  facet normal -0.914586 0.136499 -0.380657
    outer loop
      vertex 42.5228 -2.33347 2.2262
      vertex 41.3031 -10.9399 2.07055
      vertex 40.5306 -10.7352 4
    endloop
  endfacet
  facet normal -0.914577 0.136484 -0.380684
    outer loop
      vertex 42.2793 -2.32011 2.81582
      vertex 40.5306 -10.7352 4
      vertex 41.7904 -2.29328 4
    endloop
  endfacet
  facet normal -0.914542 0.136463 -0.380777
    outer loop
      vertex 40.5306 -10.7352 4
      vertex 42.2793 -2.32011 2.81582
      vertex 42.5228 -2.33347 2.2262
    endloop
  endfacet
  facet normal -0.980662 0.146355 -0.129928
    outer loop
      vertex 41.5666 -11.0097 0
      vertex 42.837 -2.35072 0.165115
      vertex 42.8587 -2.3519 0
    endloop
  endfacet
  facet normal -0.980688 0.146355 -0.129737
    outer loop
      vertex 42.837 -2.35072 0.165115
      vertex 41.5666 -11.0097 0
      vertex 41.3031 -10.9399 2.07055
    endloop
  endfacet
  facet normal -0.980689 0.146358 -0.129725
    outer loop
      vertex 42.837 -2.35072 0.165115
      vertex 41.3031 -10.9399 2.07055
      vertex 42.587 -2.33699 2.07055
    endloop
  endfacet
  facet normal 0 0 -1
    outer loop
      vertex 41.5666 -11.0097 0
      vertex 43.9339 -2.4109 0
      vertex 42.3896 -11.7951 0
    endloop
  endfacet
  facet normal -0 0 -1
    outer loop
      vertex 43.9339 -2.4109 0
      vertex 41.5666 -11.0097 0
      vertex 42.8587 -2.3519 0
    endloop
  endfacet
  facet normal 0 0 -1
    outer loop
      vertex 38.1313 -19.8747 0
      vertex 42.3896 -11.7951 0
      vertex 38.8649 -20.6282 0
    endloop
  endfacet
  facet normal -0 0 -1
    outer loop
      vertex 42.3896 -11.7951 0
      vertex 38.1313 -19.8747 0
      vertex 41.5666 -11.0097 0
    endloop
  endfacet
  facet normal 0 0 -1
    outer loop
      vertex 32.8319 -27.7681 0
      vertex 38.8649 -20.6282 0
      vertex 33.5244 -28.4975 0
    endloop
  endfacet
  facet normal -0 0 -1
    outer loop
      vertex 38.8649 -20.6282 0
      vertex 32.8319 -27.7681 0
      vertex 38.1313 -19.8747 0
    endloop
  endfacet
  facet normal 0 0 -1
    outer loop
      vertex 26.6178 -35.0356 0
      vertex 32.8319 -27.7681 0
      vertex 33.5244 -28.4975 0
    endloop
  endfacet
  facet normal 0 0 -1
    outer loop
      vertex 26.6178 -35.0356 0
      vertex 25.9274 -34.304 0
      vertex 32.8319 -27.7681 0
    endloop
  endfacet
  facet normal 0 0 -1
    outer loop
      vertex 18.4676 -39.9368 0
      vertex 25.9274 -34.304 0
      vertex 26.6178 -35.0356 0
    endloop
  endfacet
  facet normal 0 0 -1
    outer loop
      vertex 18.4676 -39.9368 0
      vertex 17.7555 -39.163 0
      vertex 25.9274 -34.304 0
    endloop
  endfacet
  facet normal 0 0 -1
    outer loop
      vertex 9.45467 -42.9722 0
      vertex 17.7555 -39.163 0
      vertex 18.4676 -39.9368 0
    endloop
  endfacet
  facet normal 0 0 -1
    outer loop
      vertex 9.45467 -42.9722 0
      vertex 8.71554 -42.1075 0
      vertex 17.7555 -39.163 0
    endloop
  endfacet
  facet normal 0 0 -1
    outer loop
      vertex 9.76996e-15 -44 0
      vertex 8.71554 -42.1075 0
      vertex 9.45467 -42.9722 0
    endloop
  endfacet
  facet normal 0 0 -1
    outer loop
      vertex 8.71554 -42.1075 0
      vertex 9.76996e-15 -44 0
      vertex 9.53086e-15 -42.9232 0
    endloop
  endfacet
  facet normal 0 0 -1
    outer loop
      vertex 26.1 -6.91304 0
      vertex 25.9609 -1.42463 0
      vertex 26.9113 -1.47678 0
    endloop
  endfacet
  facet normal -0 0 -1
    outer loop
      vertex 26.1 -6.91304 0
      vertex 25.0484 -6.9698 0
      vertex 25.9609 -1.42463 0
    endloop
  endfacet
  facet normal 0 0 -1
    outer loop
      vertex 23.9429 -12.4794 0
      vertex 25.0484 -6.9698 0
      vertex 26.1 -6.91304 0
    endloop
  endfacet
  facet normal 0 0 -1
    outer loop
      vertex 23.9429 -12.4794 0
      vertex 22.9656 -12.1894 0
      vertex 25.0484 -6.9698 0
    endloop
  endfacet
  facet normal 0 0 -1
    outer loop
      vertex 20.6154 -17.4358 0
      vertex 22.9656 -12.1894 0
      vertex 23.9429 -12.4794 0
    endloop
  endfacet
  facet normal 0 0 -1
    outer loop
      vertex 20.6154 -17.4358 0
      vertex 19.8099 -16.8395 0
      vertex 22.9656 -12.1894 0
    endloop
  endfacet
  facet normal 0 0 -1
    outer loop
      vertex 16.28 -21.5397 0
      vertex 19.8099 -16.8395 0
      vertex 20.6154 -17.4358 0
    endloop
  endfacet
  facet normal 0 0 -1
    outer loop
      vertex 16.28 -21.5397 0
      vertex 15.7287 -20.7028 0
      vertex 19.8099 -16.8395 0
    endloop
  endfacet
  facet normal 0 0 -1
    outer loop
      vertex 10.9127 -23.599 0
      vertex 16.28 -21.5397 0
      vertex 11.1488 -24.5907 0
    endloop
  endfacet
  facet normal -0 0 -1
    outer loop
      vertex 16.28 -21.5397 0
      vertex 10.9127 -23.599 0
      vertex 15.7287 -20.7028 0
    endloop
  endfacet
  facet normal -0 0 -1
    outer loop
      vertex 11.1488 -24.5907 0
      vertex 5.58685 -25.3926 0
      vertex 10.9127 -23.599 0
    endloop
  endfacet
  facet normal 0 0 -1
    outer loop
      vertex 5.47255 -26.4396 0
      vertex 5.58685 -25.3926 0
      vertex 11.1488 -24.5907 0
    endloop
  endfacet
  facet normal 0 0 -1
    outer loop
      vertex 5.77316e-15 -26 0
      vertex 5.47255 -26.4396 0
      vertex 5.98449e-15 -26.9518 0
    endloop
  endfacet
  facet normal 0 0 -1
    outer loop
      vertex 5.47255 -26.4396 0
      vertex 5.77316e-15 -26 0
      vertex 5.58685 -25.3926 0
    endloop
  endfacet
endsolid OpenSCAD_Model
