solid OpenSCAD_Model
  facet normal -1 0 0
    outer loop
      vertex 5.6569 1.93185 0.517637
      vertex 5.6569 3.8637 1.03528
      vertex 5.6569 4 0
    endloop
  endfacet
  facet normal -1 -0 0
    outer loop
      vertex 5.6569 3.8637 1.03528
      vertex 5.6569 1.93185 0.517637
      vertex 5.6569 3.4641 2
    endloop
  endfacet
  facet normal -1 0 0
    outer loop
      vertex 5.6569 1.93185 0.517637
      vertex 5.6569 4 0
      vertex 5.6569 2 0
    endloop
  endfacet
  facet normal -1 0 0
    outer loop
      vertex 5.6569 1.73205 0.999999
      vertex 5.6569 3.4641 2
      vertex 5.6569 1.93185 0.517637
    endloop
  endfacet
  facet normal -1 -0 0
    outer loop
      vertex 5.6569 3.4641 2
      vertex 5.6569 1.73205 0.999999
      vertex 5.6569 2.82843 2.82843
    endloop
  endfacet
  facet normal -1 0 0
    outer loop
      vertex 5.6569 1.41421 1.41421
      vertex 5.6569 2.82843 2.82843
      vertex 5.6569 1.73205 0.999999
    endloop
  endfacet
  facet normal -1 -0 0
    outer loop
      vertex 5.6569 2.82843 2.82843
      vertex 5.6569 1.41421 1.41421
      vertex 5.6569 2 3.4641
    endloop
  endfacet
  facet normal -1 0 0
    outer loop
      vertex 5.6569 0.999999 1.73205
      vertex 5.6569 2 3.4641
      vertex 5.6569 1.41421 1.41421
    endloop
  endfacet
  facet normal -1 -0 0
    outer loop
      vertex 5.6569 2 3.4641
      vertex 5.6569 0.999999 1.73205
      vertex 5.6569 1.03528 3.8637
    endloop
  endfacet
  facet normal -1 0 0
    outer loop
      vertex 5.6569 0.517637 1.93185
      vertex 5.6569 1.03528 3.8637
      vertex 5.6569 0.999999 1.73205
    endloop
  endfacet
  facet normal -1 0 0
    outer loop
      vertex 5.6569 0 2
      vertex 5.6569 1.03528 3.8637
      vertex 5.6569 0.517637 1.93185
    endloop
  endfacet
  facet normal -1 0 0
    outer loop
      vertex 5.6569 0 2
      vertex 5.6569 0 4
      vertex 5.6569 1.03528 3.8637
    endloop
  endfacet
  facet normal -1 0 0
    outer loop
      vertex 5.6569 -0.517637 1.93185
      vertex 5.6569 0 4
      vertex 5.6569 0 2
    endloop
  endfacet
  facet normal -1 0 0
    outer loop
      vertex 5.6569 -1.03528 3.8637
      vertex 5.6569 -0.517637 1.93185
      vertex 5.6569 -0.999999 1.73205
    endloop
  endfacet
  facet normal -1 0 0
    outer loop
      vertex 5.6569 -0.517637 1.93185
      vertex 5.6569 -1.03528 3.8637
      vertex 5.6569 0 4
    endloop
  endfacet
  facet normal -1 0 0
    outer loop
      vertex 5.6569 -2 3.4641
      vertex 5.6569 -0.999999 1.73205
      vertex 5.6569 -1.41421 1.41421
    endloop
  endfacet
  facet normal -1 0 0
    outer loop
      vertex 5.6569 -2.82843 2.82843
      vertex 5.6569 -1.41421 1.41421
      vertex 5.6569 -1.73205 1
    endloop
  endfacet
  facet normal -1 0 0
    outer loop
      vertex 5.6569 -3.4641 2
      vertex 5.6569 -1.73205 1
      vertex 5.6569 -1.93185 0.517637
    endloop
  endfacet
  facet normal -1 0 0
    outer loop
      vertex 5.6569 -0.999999 1.73205
      vertex 5.6569 -2 3.4641
      vertex 5.6569 -1.03528 3.8637
    endloop
  endfacet
  facet normal -1 0 0
    outer loop
      vertex 5.6569 -3.8637 1.03528
      vertex 5.6569 -1.93185 0.517637
      vertex 5.6569 -2 0
    endloop
  endfacet
  facet normal -1 0 0
    outer loop
      vertex 5.6569 -1.41421 1.41421
      vertex 5.6569 -2.82843 2.82843
      vertex 5.6569 -2 3.4641
    endloop
  endfacet
  facet normal -1 0 0
    outer loop
      vertex 5.6569 -1.73205 1
      vertex 5.6569 -3.4641 2
      vertex 5.6569 -2.82843 2.82843
    endloop
  endfacet
  facet normal -1 0 0
    outer loop
      vertex 5.6569 -1.93185 0.517637
      vertex 5.6569 -3.8637 1.03528
      vertex 5.6569 -3.4641 2
    endloop
  endfacet
  facet normal -1 0 -0
    outer loop
      vertex 5.6569 -3.8637 1.03528
      vertex 5.6569 -2 0
      vertex 5.6569 -4 0
    endloop
  endfacet
  facet normal 0 -0.13053 -0.991444
    outer loop
      vertex 5.6569 0 2
      vertex 7.343 0.517637 1.93185
      vertex 7.343 0 2
    endloop
  endfacet
  facet normal -0 -0.13053 -0.991444
    outer loop
      vertex 7.343 0.517637 1.93185
      vertex 5.6569 0 2
      vertex 5.6569 0.517637 1.93185
    endloop
  endfacet
  facet normal 0 -1 0
    outer loop
      vertex 7.343 2 0
      vertex 7.343 2 3.74389e-16
      vertex 5.6569 2 0
    endloop
  endfacet
  facet normal 0 0.991444 -0.13053
    outer loop
      vertex 7.343 -2 3.74389e-16
      vertex 5.6569 -1.93185 0.517637
      vertex 7.343 -1.93185 0.517637
    endloop
  endfacet
  facet normal 2.36467e-17 0.991444 -0.13053
    outer loop
      vertex 5.6569 -1.93185 0.517637
      vertex 7.343 -2 3.74389e-16
      vertex 5.6569 -2 0
    endloop
  endfacet
  facet normal 0 1 0
    outer loop
      vertex 7.343 -2 3.74389e-16
      vertex 7.343 -2 0
      vertex 5.6569 -2 0
    endloop
  endfacet
  facet normal 0 0.608767 -0.793349
    outer loop
      vertex 5.6569 -1.41421 1.41421
      vertex 7.343 -0.999999 1.73205
      vertex 7.343 -1.41421 1.41421
    endloop
  endfacet
  facet normal 0 0.608767 -0.793349
    outer loop
      vertex 7.343 -0.999999 1.73205
      vertex 5.6569 -1.41421 1.41421
      vertex 5.6569 -0.999999 1.73205
    endloop
  endfacet
  facet normal 0 -0.793349 -0.608767
    outer loop
      vertex 5.6569 1.73205 0.999999
      vertex 7.343 1.41421 1.41421
      vertex 5.6569 1.41421 1.41421
    endloop
  endfacet
  facet normal 0 -0.793349 -0.608767
    outer loop
      vertex 7.343 1.41421 1.41421
      vertex 5.6569 1.73205 0.999999
      vertex 7.343 1.73205 0.999999
    endloop
  endfacet
  facet normal 0 -0.991444 -0.13053
    outer loop
      vertex 5.6569 1.93185 0.517637
      vertex 7.343 2 3.74389e-16
      vertex 7.343 1.93185 0.517637
    endloop
  endfacet
  facet normal 2.89834e-17 -0.991444 -0.13053
    outer loop
      vertex 7.343 2 3.74389e-16
      vertex 5.6569 1.93185 0.517637
      vertex 5.6569 2 0
    endloop
  endfacet
  facet normal 0 0.13053 -0.991444
    outer loop
      vertex 5.6569 -0.517637 1.93185
      vertex 7.343 0 2
      vertex 7.343 -0.517637 1.93185
    endloop
  endfacet
  facet normal 0 0.13053 -0.991444
    outer loop
      vertex 7.343 0 2
      vertex 5.6569 -0.517637 1.93185
      vertex 5.6569 0 2
    endloop
  endfacet
  facet normal 0 -0.608767 -0.793349
    outer loop
      vertex 5.6569 0.999999 1.73205
      vertex 7.343 1.41421 1.41421
      vertex 7.343 0.999999 1.73205
    endloop
  endfacet
  facet normal -0 -0.608767 -0.793349
    outer loop
      vertex 7.343 1.41421 1.41421
      vertex 5.6569 0.999999 1.73205
      vertex 5.6569 1.41421 1.41421
    endloop
  endfacet
  facet normal 0 -0.382682 -0.92388
    outer loop
      vertex 5.6569 0.517637 1.93185
      vertex 7.343 0.999999 1.73205
      vertex 7.343 0.517637 1.93185
    endloop
  endfacet
  facet normal -0 -0.382682 -0.92388
    outer loop
      vertex 7.343 0.999999 1.73205
      vertex 5.6569 0.517637 1.93185
      vertex 5.6569 0.999999 1.73205
    endloop
  endfacet
  facet normal 0 -0.92388 -0.382682
    outer loop
      vertex 5.6569 1.93185 0.517637
      vertex 7.343 1.73205 0.999999
      vertex 5.6569 1.73205 0.999999
    endloop
  endfacet
  facet normal 0 -0.92388 -0.382682
    outer loop
      vertex 7.343 1.73205 0.999999
      vertex 5.6569 1.93185 0.517637
      vertex 7.343 1.93185 0.517637
    endloop
  endfacet
  facet normal 0 0.793348 -0.608768
    outer loop
      vertex 7.343 -1.73205 1
      vertex 5.6569 -1.41421 1.41421
      vertex 7.343 -1.41421 1.41421
    endloop
  endfacet
  facet normal 0 0.793348 -0.608768
    outer loop
      vertex 5.6569 -1.41421 1.41421
      vertex 7.343 -1.73205 1
      vertex 5.6569 -1.73205 1
    endloop
  endfacet
  facet normal 0 0.382682 -0.92388
    outer loop
      vertex 5.6569 -0.999999 1.73205
      vertex 7.343 -0.517637 1.93185
      vertex 7.343 -0.999999 1.73205
    endloop
  endfacet
  facet normal 0 0.382682 -0.92388
    outer loop
      vertex 7.343 -0.517637 1.93185
      vertex 5.6569 -0.999999 1.73205
      vertex 5.6569 -0.517637 1.93185
    endloop
  endfacet
  facet normal 0 0.92388 -0.382681
    outer loop
      vertex 7.343 -1.93185 0.517637
      vertex 5.6569 -1.73205 1
      vertex 7.343 -1.73205 1
    endloop
  endfacet
  facet normal 0 0.92388 -0.382681
    outer loop
      vertex 5.6569 -1.73205 1
      vertex 7.343 -1.93185 0.517637
      vertex 5.6569 -1.93185 0.517637
    endloop
  endfacet
  facet normal 0 -0.92388 0.382683
    outer loop
      vertex 5.6569 -3.8637 1.03528
      vertex 7.343 -3.4641 2
      vertex 5.6569 -3.4641 2
    endloop
  endfacet
  facet normal 0 -0.92388 0.382683
    outer loop
      vertex 7.343 -3.4641 2
      vertex 5.6569 -3.8637 1.03528
      vertex 7.343 -3.8637 1.03528
    endloop
  endfacet
  facet normal 0 1 -0
    outer loop
      vertex 7.343 4 0
      vertex 5.6569 4 0
      vertex 7.343 4 3.74389e-16
    endloop
  endfacet
  facet normal 0 0.92388 0.382683
    outer loop
      vertex 7.343 3.8637 1.03528
      vertex 5.6569 3.4641 2
      vertex 7.343 3.4641 2
    endloop
  endfacet
  facet normal 0 0.92388 0.382683
    outer loop
      vertex 5.6569 3.4641 2
      vertex 7.343 3.8637 1.03528
      vertex 5.6569 3.8637 1.03528
    endloop
  endfacet
  facet normal 0 0.793356 0.608757
    outer loop
      vertex 7.343 3.4641 2
      vertex 5.6569 2.82843 2.82843
      vertex 7.343 2.82843 2.82843
    endloop
  endfacet
  facet normal 0 0.793356 0.608757
    outer loop
      vertex 5.6569 2.82843 2.82843
      vertex 7.343 3.4641 2
      vertex 5.6569 3.4641 2
    endloop
  endfacet
  facet normal 0 -0.382683 0.92388
    outer loop
      vertex 5.6569 -1.03528 3.8637
      vertex 7.343 -2 3.4641
      vertex 7.343 -1.03528 3.8637
    endloop
  endfacet
  facet normal 0 -0.382683 0.92388
    outer loop
      vertex 7.343 -2 3.4641
      vertex 5.6569 -1.03528 3.8637
      vertex 5.6569 -2 3.4641
    endloop
  endfacet
  facet normal 0 -0.793356 0.608757
    outer loop
      vertex 5.6569 -3.4641 2
      vertex 7.343 -2.82843 2.82843
      vertex 5.6569 -2.82843 2.82843
    endloop
  endfacet
  facet normal 0 -0.793356 0.608757
    outer loop
      vertex 7.343 -2.82843 2.82843
      vertex 5.6569 -3.4641 2
      vertex 7.343 -3.4641 2
    endloop
  endfacet
  facet normal 0 -0.608757 0.793356
    outer loop
      vertex 5.6569 -2 3.4641
      vertex 7.343 -2.82843 2.82843
      vertex 7.343 -2 3.4641
    endloop
  endfacet
  facet normal 0 -0.608757 0.793356
    outer loop
      vertex 7.343 -2.82843 2.82843
      vertex 5.6569 -2 3.4641
      vertex 5.6569 -2.82843 2.82843
    endloop
  endfacet
  facet normal -0 0.130529 0.991445
    outer loop
      vertex 5.6569 1.03528 3.8637
      vertex 7.343 0 4
      vertex 7.343 1.03528 3.8637
    endloop
  endfacet
  facet normal 0 0.130529 0.991445
    outer loop
      vertex 7.343 0 4
      vertex 5.6569 1.03528 3.8637
      vertex 5.6569 0 4
    endloop
  endfacet
  facet normal -0 0.608757 0.793356
    outer loop
      vertex 5.6569 2.82843 2.82843
      vertex 7.343 2 3.4641
      vertex 7.343 2.82843 2.82843
    endloop
  endfacet
  facet normal 0 0.608757 0.793356
    outer loop
      vertex 7.343 2 3.4641
      vertex 5.6569 2.82843 2.82843
      vertex 5.6569 2 3.4641
    endloop
  endfacet
  facet normal 0 0.991445 0.130529
    outer loop
      vertex 7.343 4 3.74389e-16
      vertex 5.6569 3.8637 1.03528
      vertex 7.343 3.8637 1.03528
    endloop
  endfacet
  facet normal -3.15288e-17 0.991445 0.130529
    outer loop
      vertex 5.6569 3.8637 1.03528
      vertex 7.343 4 3.74389e-16
      vertex 5.6569 4 0
    endloop
  endfacet
  facet normal 0 -1 -0
    outer loop
      vertex 7.343 -4 3.74389e-16
      vertex 5.6569 -4 0
      vertex 7.343 -4 0
    endloop
  endfacet
  facet normal 0 -0.991445 0.130529
    outer loop
      vertex 5.6569 -3.8637 1.03528
      vertex 7.343 -4 3.74389e-16
      vertex 7.343 -3.8637 1.03528
    endloop
  endfacet
  facet normal -2.89832e-17 -0.991445 0.130529
    outer loop
      vertex 7.343 -4 3.74389e-16
      vertex 5.6569 -3.8637 1.03528
      vertex 5.6569 -4 0
    endloop
  endfacet
  facet normal 0 -0.130529 0.991445
    outer loop
      vertex 5.6569 0 4
      vertex 7.343 -1.03528 3.8637
      vertex 7.343 0 4
    endloop
  endfacet
  facet normal 0 -0.130529 0.991445
    outer loop
      vertex 7.343 -1.03528 3.8637
      vertex 5.6569 0 4
      vertex 5.6569 -1.03528 3.8637
    endloop
  endfacet
  facet normal -0 0.382683 0.92388
    outer loop
      vertex 5.6569 2 3.4641
      vertex 7.343 1.03528 3.8637
      vertex 7.343 2 3.4641
    endloop
  endfacet
  facet normal 0 0.382683 0.92388
    outer loop
      vertex 7.343 1.03528 3.8637
      vertex 5.6569 2 3.4641
      vertex 5.6569 1.03528 3.8637
    endloop
  endfacet
  facet normal 1 0 0
    outer loop
      vertex 7.343 1.41421 1.41421
      vertex 7.343 2.82843 2.82843
      vertex 7.343 2 3.4641
    endloop
  endfacet
  facet normal 1 0 0
    outer loop
      vertex 7.343 2.82843 2.82843
      vertex 7.343 1.93185 0.517637
      vertex 7.343 2 3.74389e-16
    endloop
  endfacet
  facet normal 1 0 0
    outer loop
      vertex 7.343 2.82843 2.82843
      vertex 7.343 1.73205 0.999999
      vertex 7.343 1.93185 0.517637
    endloop
  endfacet
  facet normal 1 0 0
    outer loop
      vertex 7.343 2.82843 2.82843
      vertex 7.343 1.41421 1.41421
      vertex 7.343 1.73205 0.999999
    endloop
  endfacet
  facet normal 1 0 0
    outer loop
      vertex 7.343 0.999999 1.73205
      vertex 7.343 2 3.4641
      vertex 7.343 1.03528 3.8637
    endloop
  endfacet
  facet normal 1 0 0
    outer loop
      vertex 7.343 2 3.4641
      vertex 7.343 0.999999 1.73205
      vertex 7.343 1.41421 1.41421
    endloop
  endfacet
  facet normal 1 0 0
    outer loop
      vertex 7.343 1.03528 3.8637
      vertex 7.343 0.517637 1.93185
      vertex 7.343 0.999999 1.73205
    endloop
  endfacet
  facet normal 1 0 0
    outer loop
      vertex 7.343 0 4
      vertex 7.343 0.517637 1.93185
      vertex 7.343 1.03528 3.8637
    endloop
  endfacet
  facet normal 1 0 0
    outer loop
      vertex 7.343 0 4
      vertex 7.343 0 2
      vertex 7.343 0.517637 1.93185
    endloop
  endfacet
  facet normal 1 0 0
    outer loop
      vertex 7.343 0 4
      vertex 7.343 -0.517637 1.93185
      vertex 7.343 0 2
    endloop
  endfacet
  facet normal 1 -0 0
    outer loop
      vertex 7.343 -1.03528 3.8637
      vertex 7.343 -0.517637 1.93185
      vertex 7.343 0 4
    endloop
  endfacet
  facet normal 1 0 0
    outer loop
      vertex 7.343 -0.517637 1.93185
      vertex 7.343 -1.03528 3.8637
      vertex 7.343 -0.999999 1.73205
    endloop
  endfacet
  facet normal 1 -0 0
    outer loop
      vertex 7.343 -2 3.4641
      vertex 7.343 -0.999999 1.73205
      vertex 7.343 -1.03528 3.8637
    endloop
  endfacet
  facet normal 1 0 0
    outer loop
      vertex 7.343 -0.999999 1.73205
      vertex 7.343 -2 3.4641
      vertex 7.343 -1.41421 1.41421
    endloop
  endfacet
  facet normal 1 -0 0
    outer loop
      vertex 7.343 -2.82843 2.82843
      vertex 7.343 -1.41421 1.41421
      vertex 7.343 -2 3.4641
    endloop
  endfacet
  facet normal 1 0 0
    outer loop
      vertex 7.343 -1.41421 1.41421
      vertex 7.343 -2.82843 2.82843
      vertex 7.343 -1.73205 1
    endloop
  endfacet
  facet normal 1 -0 0
    outer loop
      vertex 7.343 -3.4641 2
      vertex 7.343 -1.73205 1
      vertex 7.343 -2.82843 2.82843
    endloop
  endfacet
  facet normal 1 0 0
    outer loop
      vertex 7.343 -1.73205 1
      vertex 7.343 -3.4641 2
      vertex 7.343 -1.93185 0.517637
    endloop
  endfacet
  facet normal 1 -0 0
    outer loop
      vertex 7.343 -3.8637 1.03528
      vertex 7.343 -1.93185 0.517637
      vertex 7.343 -3.4641 2
    endloop
  endfacet
  facet normal 1 0 0
    outer loop
      vertex 7.343 -1.93185 0.517637
      vertex 7.343 -3.8637 1.03528
      vertex 7.343 -2 3.74389e-16
    endloop
  endfacet
  facet normal 1 0 0
    outer loop
      vertex 7.343 -4 3.74389e-16
      vertex 7.343 -2 3.74389e-16
      vertex 7.343 -3.8637 1.03528
    endloop
  endfacet
  facet normal 1 0 0
    outer loop
      vertex 7.343 -2 3.74389e-16
      vertex 7.343 -4 3.74389e-16
      vertex 7.343 -2 0
    endloop
  endfacet
  facet normal 1 0 0
    outer loop
      vertex 7.343 -2 0
      vertex 7.343 -4 3.74389e-16
      vertex 7.343 -4 0
    endloop
  endfacet
  facet normal 1 0 0
    outer loop
      vertex 7.343 2 3.74389e-16
      vertex 7.343 4 3.74389e-16
      vertex 7.343 3.8637 1.03528
    endloop
  endfacet
  facet normal 1 0 0
    outer loop
      vertex 7.343 2 3.74389e-16
      vertex 7.343 3.8637 1.03528
      vertex 7.343 3.4641 2
    endloop
  endfacet
  facet normal 1 0 0
    outer loop
      vertex 7.343 2 3.74389e-16
      vertex 7.343 3.4641 2
      vertex 7.343 2.82843 2.82843
    endloop
  endfacet
  facet normal 1 0 0
    outer loop
      vertex 7.343 4 3.74389e-16
      vertex 7.343 2 3.74389e-16
      vertex 7.343 4 0
    endloop
  endfacet
  facet normal 1 0 0
    outer loop
      vertex 7.343 4 0
      vertex 7.343 2 3.74389e-16
      vertex 7.343 2 0
    endloop
  endfacet
  facet normal 0 0 -1
    outer loop
      vertex 5.6569 2 0
      vertex 7.343 4 0
      vertex 7.343 2 0
    endloop
  endfacet
  facet normal -0 0 -1
    outer loop
      vertex 7.343 4 0
      vertex 5.6569 2 0
      vertex 5.6569 4 0
    endloop
  endfacet
  facet normal 0 0 -1
    outer loop
      vertex 5.6569 -4 0
      vertex 7.343 -2 0
      vertex 7.343 -4 0
    endloop
  endfacet
  facet normal -0 0 -1
    outer loop
      vertex 7.343 -2 0
      vertex 5.6569 -4 0
      vertex 5.6569 -2 0
    endloop
  endfacet
endsolid OpenSCAD_Model
