solid OpenSCAD_Model
  facet normal -1 -2.22034e-16 -1.03209e-20
    outer loop
      vertex 4.43683e-15 -19.9817 0.109987
      vertex 4.26425e-15 -19.2045 1.55291
      vertex 4.21886e-15 -19 0
    endloop
  endfacet
  facet normal -1 -2.2202e-16 1.17388e-19
    outer loop
      vertex 4.43683e-15 -19.9817 0.109987
      vertex 4.21886e-15 -19 0
      vertex 4.43362e-15 -19.9673 0
    endloop
  endfacet
  facet normal -1 -2.22064e-16 5.75117e-21
    outer loop
      vertex 4.26425e-15 -19.2045 1.55291
      vertex 4.43683e-15 -19.9817 0.109987
      vertex 4.47139e-15 -20.1373 1.2941
    endloop
  endfacet
  facet normal -1 -2.22033e-16 -1.08501e-19
    outer loop
      vertex 4.48066e-15 -20.1791 1.3951
      vertex 4.26425e-15 -19.2045 1.55291
      vertex 4.47139e-15 -20.1373 1.2941
    endloop
  endfacet
  facet normal -1 -2.22049e-16 -4.41218e-21
    outer loop
      vertex 4.26425e-15 -19.2045 1.55291
      vertex 4.48066e-15 -20.1791 1.3951
      vertex 4.39734e-15 -19.8039 3
    endloop
  endfacet
  facet normal -1 -2.22064e-16 -9.72263e-22
    outer loop
      vertex 4.58212e-15 -20.636 2.5
      vertex 4.39734e-15 -19.8039 3
      vertex 4.48066e-15 -20.1791 1.3951
    endloop
  endfacet
  facet normal -1 -2.2197e-16 -1.56984e-19
    outer loop
      vertex 4.59669e-15 -20.7017 2.58568
      vertex 4.39734e-15 -19.8039 3
      vertex 4.58212e-15 -20.636 2.5
    endloop
  endfacet
  facet normal -1 -2.22046e-16 7.26089e-21
    outer loop
      vertex 4.59669e-15 -20.7017 2.58568
      vertex 4.60907e-15 -20.7574 4.24264
      vertex 4.39734e-15 -19.8039 3
    endloop
  endfacet
  facet normal -1 -2.22064e-16 6.66437e-21
    outer loop
      vertex 4.75827e-15 -21.4293 3.53553
      vertex 4.60907e-15 -20.7574 4.24264
      vertex 4.59669e-15 -20.7017 2.58568
    endloop
  endfacet
  facet normal -1 -2.22054e-16 -2.72734e-21
    outer loop
      vertex 4.7771e-15 -21.5141 3.60072
      vertex 4.60907e-15 -20.7574 4.24264
      vertex 4.75827e-15 -21.4293 3.53553
    endloop
  endfacet
  facet normal -1 -2.22053e-16 -3.56379e-21
    outer loop
      vertex 4.7771e-15 -21.5141 3.60072
      vertex 4.88499e-15 -22 5.19615
      vertex 4.60907e-15 -20.7574 4.24264
    endloop
  endfacet
  facet normal -1 -2.22015e-16 8.23502e-21
    outer loop
      vertex 4.98782e-15 -22.4632 4.33013
      vertex 4.88499e-15 -22 5.19615
      vertex 4.7771e-15 -21.5141 3.60072
    endloop
  endfacet
  facet normal -1 -2.22061e-16 3.33304e-20
    outer loop
      vertex 5.00965e-15 -22.5615 4.37091
      vertex 4.88499e-15 -22 5.19615
      vertex 4.98782e-15 -22.4632 4.33013
    endloop
  endfacet
  facet normal -1 -2.22037e-16 1.6785e-20
    outer loop
      vertex 5.00965e-15 -22.5615 4.37091
      vertex 5.20631e-15 -23.4471 5.79555
      vertex 4.88499e-15 -22 5.19615
    endloop
  endfacet
  facet normal -1 -2.22047e-16 1.06909e-20
    outer loop
      vertex 5.25515e-15 -23.6671 4.82963
      vertex 5.20631e-15 -23.4471 5.79555
      vertex 5.00965e-15 -22.5615 4.37091
    endloop
  endfacet
  facet normal -1 -2.22011e-16 2.5175e-21
    outer loop
      vertex 5.27855e-15 -23.7725 4.84353
      vertex 5.20631e-15 -23.4471 5.79555
      vertex 5.25515e-15 -23.6671 4.82963
    endloop
  endfacet
  facet normal -1 -2.22045e-16 8.35621e-21
    outer loop
      vertex 5.55112e-15 -25 6
      vertex 5.27855e-15 -23.7725 4.84353
      vertex 5.54203e-15 -24.9591 5
    endloop
  endfacet
  facet normal -1 -2.22041e-16 1.27372e-20
    outer loop
      vertex 5.27855e-15 -23.7725 4.84353
      vertex 5.55112e-15 -25 6
      vertex 5.20631e-15 -23.4471 5.79555
    endloop
  endfacet
  facet normal -1 -2.2216e-16 3.67336e-21
    outer loop
      vertex 5.56549e-15 -25.0647 4.98607
      vertex 5.55112e-15 -25 6
      vertex 5.54203e-15 -24.9591 5
    endloop
  endfacet
  facet normal -1 -2.22044e-16 5.0901e-21
    outer loop
      vertex 5.89594e-15 -26.5529 5.79555
      vertex 5.56549e-15 -25.0647 4.98607
      vertex 5.8289e-15 -26.251 4.82963
    endloop
  endfacet
  facet normal -1 -2.22025e-16 1.10903e-20
    outer loop
      vertex 5.89594e-15 -26.5529 5.79555
      vertex 5.8289e-15 -26.251 4.82963
      vertex 5.85088e-15 -26.35 4.78857
    endloop
  endfacet
  facet normal -1 -2.22049e-16 -3.40677e-21
    outer loop
      vertex 5.56549e-15 -25.0647 4.98607
      vertex 5.89594e-15 -26.5529 5.79555
      vertex 5.55112e-15 -25 6
    endloop
  endfacet
  facet normal -1 -2.22044e-16 1.85615e-20
    outer loop
      vertex 6.21726e-15 -28 5.19615
      vertex 5.85088e-15 -26.35 4.78857
      vertex 6.09623e-15 -27.455 4.33013
    endloop
  endfacet
  facet normal -1 -2.21999e-16 4.69851e-20
    outer loop
      vertex 6.21726e-15 -28 5.19615
      vertex 6.09623e-15 -27.455 4.33013
      vertex 6.11523e-15 -27.5406 4.26433
    endloop
  endfacet
  facet normal -1 -2.22047e-16 6.64927e-21
    outer loop
      vertex 5.85088e-15 -26.35 4.78857
      vertex 6.21726e-15 -28 5.19615
      vertex 5.89594e-15 -26.5529 5.79555
    endloop
  endfacet
  facet normal -1 -2.22049e-16 -4.06993e-21
    outer loop
      vertex 6.49318e-15 -29.2427 4.24264
      vertex 6.11523e-15 -27.5406 4.26433
      vertex 6.32578e-15 -28.4888 3.53553
    endloop
  endfacet
  facet normal -1 -2.22035e-16 1.08131e-20
    outer loop
      vertex 6.49318e-15 -29.2427 4.24264
      vertex 6.32578e-15 -28.4888 3.53553
      vertex 6.3405e-15 -28.5551 3.44904
    endloop
  endfacet
  facet normal -1 -2.2205e-16 2.19503e-20
    outer loop
      vertex 6.11523e-15 -27.5406 4.26433
      vertex 6.49318e-15 -29.2427 4.24264
      vertex 6.21726e-15 -28 5.19615
    endloop
  endfacet
  facet normal -1 -2.22045e-16 -3.22741e-21
    outer loop
      vertex 6.7049e-15 -30.1962 3
      vertex 6.3405e-15 -28.5551 3.44904
      vertex 6.50193e-15 -29.2821 2.5
    endloop
  endfacet
  facet normal -1 -2.22008e-16 6.43992e-20
    outer loop
      vertex 6.7049e-15 -30.1962 3
      vertex 6.50193e-15 -29.2821 2.5
      vertex 6.51127e-15 -29.3242 2.39829
    endloop
  endfacet
  facet normal -1 -2.22045e-16 -3.9509e-21
    outer loop
      vertex 6.83799e-15 -30.7956 1.55291
      vertex 6.51127e-15 -29.3242 2.39829
      vertex 6.61266e-15 -29.7808 1.2941
    endloop
  endfacet
  facet normal -1 -2.22046e-16 1.06012e-21
    outer loop
      vertex 6.3405e-15 -28.5551 3.44904
      vertex 6.7049e-15 -30.1962 3
      vertex 6.49318e-15 -29.2427 4.24264
    endloop
  endfacet
  facet normal -1 -2.22045e-16 -3.20782e-21
    outer loop
      vertex 6.83799e-15 -30.7956 1.55291
      vertex 6.61266e-15 -29.7808 1.2941
      vertex 6.61588e-15 -29.7953 1.18383
    endloop
  endfacet
  facet normal -1 -2.22057e-16 1.74805e-21
    outer loop
      vertex 6.88339e-15 -31 0
      vertex 6.61588e-15 -29.7953 1.18383
      vertex 6.65043e-15 -29.9509 0
    endloop
  endfacet
  facet normal -1 -2.2205e-16 4.52504e-21
    outer loop
      vertex 6.51127e-15 -29.3242 2.39829
      vertex 6.83799e-15 -30.7956 1.55291
      vertex 6.7049e-15 -30.1962 3
    endloop
  endfacet
  facet normal -1 -2.22047e-16 -8.80149e-21
    outer loop
      vertex 6.61588e-15 -29.7953 1.18383
      vertex 6.88339e-15 -31 0
      vertex 6.83799e-15 -30.7956 1.55291
    endloop
  endfacet
  facet normal -0.0330786 0.999453 5.37307e-06
    outer loop
      vertex 30.7787 1.01931 1.55291
      vertex 30.983 1.02608 0
      vertex 30.1796 0.999474 3
    endloop
  endfacet
  facet normal -0.0330995 0.999452 -1.16435e-06
    outer loop
      vertex 27.9847 0.926783 5.19615
      vertex 29.2267 0.967914 4.24264
      vertex 24.9863 0.827484 6
    endloop
  endfacet
  facet normal -0.0331035 0.999452 -1.3144e-06
    outer loop
      vertex 30.1796 0.999474 3
      vertex 30.983 1.02608 0
      vertex 29.2267 0.967914 4.24264
    endloop
  endfacet
  facet normal -0.0330987 0.999452 1.92053e-06
    outer loop
      vertex 26.5384 0.878885 5.79555
      vertex 27.9847 0.926783 5.19615
      vertex 24.9863 0.827484 6
    endloop
  endfacet
  facet normal -0.0331001 0.999452 -2.55815e-06
    outer loop
      vertex 24.9863 0.827484 6
      vertex 29.2267 0.967914 4.24264
      vertex 23.4343 0.776084 5.79555
    endloop
  endfacet
  facet normal -0.033099 0.999452 4.86176e-07
    outer loop
      vertex 21.988 0.728187 5.19615
      vertex 23.4343 0.776084 5.79555
      vertex 20.746 0.687056 4.24264
    endloop
  endfacet
  facet normal -0.0331024 0.999452 -5.55442e-06
    outer loop
      vertex 23.4343 0.776084 5.79555
      vertex 26.1208 0.865057 4.84491
      vertex 24.9454 0.826128 5
    endloop
  endfacet
  facet normal -0.0330532 0.999454 0.000133635
    outer loop
      vertex 23.4343 0.776084 5.79555
      vertex 26.2367 0.868892 4.82963
      vertex 26.1208 0.865057 4.84491
    endloop
  endfacet
  facet normal -0.0331001 0.999452 -2.67953e-06
    outer loop
      vertex 29.2267 0.967914 4.24264
      vertex 26.2367 0.868892 4.82963
      vertex 23.4343 0.776084 5.79555
    endloop
  endfacet
  facet normal -0.0330993 0.999452 1.18519e-06
    outer loop
      vertex 29.2267 0.967914 4.24264
      vertex 27.3326 0.905186 4.3747
      vertex 26.2367 0.868892 4.82963
    endloop
  endfacet
  facet normal -0.0330966 0.999452 3.99937e-05
    outer loop
      vertex 29.2267 0.967914 4.24264
      vertex 27.4399 0.908741 4.33013
      vertex 27.3326 0.905186 4.3747
    endloop
  endfacet
  facet normal -0.033099 0.999452 -8.36457e-06
    outer loop
      vertex 27.4399 0.908741 4.33013
      vertex 29.2267 0.967914 4.24264
      vertex 27.5537 0.912509 4.24264
    endloop
  endfacet
  facet normal -0.0330929 0.999452 1.24593e-05
    outer loop
      vertex 24.8293 0.822284 4.98468
      vertex 23.4343 0.776084 5.79555
      vertex 24.9454 0.826128 5
    endloop
  endfacet
  facet normal -0.033099 0.999452 1.91047e-06
    outer loop
      vertex 23.6541 0.783365 4.82963
      vertex 23.4343 0.776084 5.79555
      vertex 24.8293 0.822284 4.98468
    endloop
  endfacet
  facet normal -0.0331 0.999452 1.68006e-06
    outer loop
      vertex 23.546 0.779785 4.78476
      vertex 23.4343 0.776084 5.79555
      vertex 23.6541 0.783365 4.82963
    endloop
  endfacet
  facet normal -0.0330998 0.999452 1.70592e-06
    outer loop
      vertex 22.4508 0.743515 4.33013
      vertex 23.4343 0.776084 5.79555
      vertex 23.546 0.779785 4.78476
    endloop
  endfacet
  facet normal -0.0330978 0.999452 -3.37495e-05
    outer loop
      vertex 20.746 0.687056 4.24264
      vertex 22.4508 0.743515 4.33013
      vertex 22.3585 0.740456 4.25908
    endloop
  endfacet
  facet normal -0.0330986 0.999452 4.24117e-05
    outer loop
      vertex 20.746 0.687056 4.24264
      vertex 22.3585 0.740456 4.25908
      vertex 22.3371 0.739748 4.24264
    endloop
  endfacet
  facet normal -0.0330996 0.999452 1.57251e-06
    outer loop
      vertex 22.4508 0.743515 4.33013
      vertex 20.746 0.687056 4.24264
      vertex 23.4343 0.776084 5.79555
    endloop
  endfacet
  facet normal -0.0330968 0.999452 -1.13875e-06
    outer loop
      vertex 19.793 0.655496 3
      vertex 20.746 0.687056 4.24264
      vertex 18.9896 0.628888 0
    endloop
  endfacet
  facet normal -0.0331024 0.999452 2.41227e-06
    outer loop
      vertex 18.9896 0.628888 0
      vertex 20.4663 0.677792 2.11664
      vertex 20.1263 0.666533 1.2941
    endloop
  endfacet
  facet normal -0.033098 0.999452 -6.66971e-07
    outer loop
      vertex 20.4663 0.677792 2.11664
      vertex 18.9896 0.628888 0
      vertex 20.746 0.687056 4.24264
    endloop
  endfacet
  facet normal -0.0331096 0.999452 8.75142e-06
    outer loop
      vertex 20.1116 0.666047 1.18239
      vertex 18.9896 0.628888 0
      vertex 20.1263 0.666533 1.2941
    endloop
  endfacet
  facet normal -0.0330997 0.999452 -6.77921e-07
    outer loop
      vertex 18.9896 0.628888 0
      vertex 20.1116 0.666047 1.18239
      vertex 19.9563 0.660903 0
    endloop
  endfacet
  facet normal -0.0331132 0.999452 3.257e-06
    outer loop
      vertex 19.194 0.635655 1.55291
      vertex 19.793 0.655496 3
      vertex 18.9896 0.628888 0
    endloop
  endfacet
  facet normal -0.033099 0.999452 -1.57628e-06
    outer loop
      vertex 29.2267 0.967914 4.24264
      vertex 28.3817 0.939929 3.60593
      vertex 27.5537 0.912509 4.24264
    endloop
  endfacet
  facet normal -0.0332062 0.999449 0.000140872
    outer loop
      vertex 28.3817 0.939929 3.60593
      vertex 29.2267 0.967914 4.24264
      vertex 28.3895 0.940189 3.59991
    endloop
  endfacet
  facet normal -0.0330986 0.999452 -1.67292e-06
    outer loop
      vertex 21.4176 0.709296 3.53553
      vertex 20.746 0.687056 4.24264
      vertex 22.3371 0.739748 4.24264
    endloop
  endfacet
  facet normal -0.0330969 0.999452 -1.14877e-07
    outer loop
      vertex 21.3473 0.706968 3.44373
      vertex 20.746 0.687056 4.24264
      vertex 21.4176 0.709296 3.53553
    endloop
  endfacet
  facet normal -0.0330969 0.999452 -8.42512e-08
    outer loop
      vertex 20.6247 0.683039 2.5
      vertex 20.746 0.687056 4.24264
      vertex 21.3473 0.706968 3.44373
    endloop
  endfacet
  facet normal -0.0331568 0.99945 4.09163e-06
    outer loop
      vertex 20.5811 0.681593 2.39438
      vertex 20.746 0.687056 4.24264
      vertex 20.6247 0.683039 2.5
    endloop
  endfacet
  facet normal -0.0330863 0.999452 -2.20758e-06
    outer loop
      vertex 20.746 0.687056 4.24264
      vertex 20.5811 0.681593 2.39438
      vertex 20.4663 0.677792 2.11664
    endloop
  endfacet
  facet normal -0.0330992 0.999452 1.2612e-06
    outer loop
      vertex 29.2267 0.967914 4.24264
      vertex 28.4732 0.942961 3.53553
      vertex 28.3895 0.940189 3.59991
    endloop
  endfacet
  facet normal -0.0330988 0.999452 8.73432e-07
    outer loop
      vertex 29.2267 0.967914 4.24264
      vertex 29.1964 0.966912 2.59095
      vertex 28.4732 0.942961 3.53553
    endloop
  endfacet
  facet normal -0.0330512 0.999454 0
    outer loop
      vertex 29.1964 0.966912 2.59095
      vertex 29.2267 0.967914 4.24264
      vertex 29.2267 0.967914 2.55146
    endloop
  endfacet
  facet normal -0.0331624 0.99945 0
    outer loop
      vertex 29.2267 0.967914 4.24264
      vertex 29.266 0.969218 2.5
      vertex 29.2267 0.967914 2.55146
    endloop
  endfacet
  facet normal -0.0330939 0.999452 1.54635e-06
    outer loop
      vertex 29.2267 0.967914 4.24264
      vertex 29.7211 0.984289 1.39899
      vertex 29.266 0.969218 2.5
    endloop
  endfacet
  facet normal -0.0330986 0.999452 7.39081e-07
    outer loop
      vertex 30.983 1.02608 0
      vertex 29.7211 0.984289 1.39899
      vertex 29.2267 0.967914 4.24264
    endloop
  endfacet
  facet normal -0.0331442 0.999451 -4.04958e-05
    outer loop
      vertex 29.7211 0.984289 1.39899
      vertex 30.983 1.02608 0
      vertex 29.7645 0.985724 1.2941
    endloop
  endfacet
  facet normal -0.0330986 0.999452 2.50984e-06
    outer loop
      vertex 30.983 1.02608 0
      vertex 29.9198 0.99087 0.111423
      vertex 29.7645 0.985724 1.2941
    endloop
  endfacet
  facet normal -0.0331015 0.999452 -2.56495e-05
    outer loop
      vertex 29.9198 0.99087 0.111423
      vertex 30.983 1.02608 0
      vertex 29.9345 0.991354 0
    endloop
  endfacet
  facet normal -0.0992345 0.986547 0.129917
    outer loop
      vertex 4.26425e-15 -19.2045 1.55291
      vertex 3.82452 -18.8198 1.55291
      vertex 4.21886e-15 -19 0
    endloop
  endfacet
  facet normal -0.0992085 0.986558 0.129851
    outer loop
      vertex 3.82452 -18.8198 1.55291
      vertex 3.7838 -18.6195 0
      vertex 4.21886e-15 -19 0
    endloop
  endfacet
  facet normal -0.0925307 0.919917 0.381039
    outer loop
      vertex 4.39734e-15 -19.8039 3
      vertex 3.94389 -19.4072 3
      vertex 4.26425e-15 -19.2045 1.55291
    endloop
  endfacet
  facet normal -0.0925322 0.919915 0.381043
    outer loop
      vertex 3.94389 -19.4072 3
      vertex 3.82452 -18.8198 1.55291
      vertex 4.26425e-15 -19.2045 1.55291
    endloop
  endfacet
  facet normal -0.0795476 0.790843 0.606828
    outer loop
      vertex 4.60907e-15 -20.7574 4.24264
      vertex 4.13378 -20.3416 4.24264
      vertex 4.39734e-15 -19.8039 3
    endloop
  endfacet
  facet normal -0.0795477 0.790843 0.606828
    outer loop
      vertex 4.13378 -20.3416 4.24264
      vertex 3.94389 -19.4072 3
      vertex 4.39734e-15 -19.8039 3
    endloop
  endfacet
  facet normal -0.0611068 0.607636 0.791862
    outer loop
      vertex 4.88499e-15 -22 5.19615
      vertex 4.38125 -21.5594 5.19615
      vertex 4.60907e-15 -20.7574 4.24264
    endloop
  endfacet
  facet normal -0.0611167 0.607607 0.791883
    outer loop
      vertex 4.38125 -21.5594 5.19615
      vertex 4.13378 -20.3416 4.24264
      vertex 4.60907e-15 -20.7574 4.24264
    endloop
  endfacet
  facet normal -0.0384572 0.382396 0.923198
    outer loop
      vertex 5.20631e-15 -23.4471 5.79555
      vertex 4.66943 -22.9775 5.79555
      vertex 4.88499e-15 -22 5.19615
    endloop
  endfacet
  facet normal -0.038456 0.3824 0.923196
    outer loop
      vertex 4.66943 -22.9775 5.79555
      vertex 4.38125 -21.5594 5.19615
      vertex 4.88499e-15 -22 5.19615
    endloop
  endfacet
  facet normal -0.0131261 0.130519 0.991359
    outer loop
      vertex 5.55112e-15 -25 6
      vertex 4.97869 -24.4993 6
      vertex 5.20631e-15 -23.4471 5.79555
    endloop
  endfacet
  facet normal -0.0131262 0.130519 0.991359
    outer loop
      vertex 4.97869 -24.4993 6
      vertex 4.66943 -22.9775 5.79555
      vertex 5.20631e-15 -23.4471 5.79555
    endloop
  endfacet
  facet normal 0.0131261 -0.130519 0.991359
    outer loop
      vertex 5.89594e-15 -26.5529 5.79555
      vertex 5.28795 -26.0211 5.79555
      vertex 5.55112e-15 -25 6
    endloop
  endfacet
  facet normal 0.0131261 -0.130519 0.991359
    outer loop
      vertex 5.28795 -26.0211 5.79555
      vertex 4.97869 -24.4993 6
      vertex 5.55112e-15 -25 6
    endloop
  endfacet
  facet normal 0.0384581 -0.382396 0.923198
    outer loop
      vertex 6.21726e-15 -28 5.19615
      vertex 5.57613 -27.4392 5.19615
      vertex 5.89594e-15 -26.5529 5.79555
    endloop
  endfacet
  facet normal 0.0384573 -0.3824 0.923196
    outer loop
      vertex 5.57613 -27.4392 5.19615
      vertex 5.28795 -26.0211 5.79555
      vertex 5.89594e-15 -26.5529 5.79555
    endloop
  endfacet
  facet normal 0.0611193 -0.607604 0.791885
    outer loop
      vertex 6.49318e-15 -29.2427 4.24264
      vertex 5.8236 -28.6569 4.24264
      vertex 6.21726e-15 -28 5.19615
    endloop
  endfacet
  facet normal 0.0611112 -0.607639 0.791859
    outer loop
      vertex 5.8236 -28.6569 4.24264
      vertex 5.57613 -27.4392 5.19615
      vertex 6.21726e-15 -28 5.19615
    endloop
  endfacet
  facet normal 0.0795512 -0.790842 0.606828
    outer loop
      vertex 6.7049e-15 -30.1962 3
      vertex 6.01349 -29.5913 3
      vertex 6.49318e-15 -29.2427 4.24264
    endloop
  endfacet
  facet normal 0.0795514 -0.790842 0.606828
    outer loop
      vertex 6.01349 -29.5913 3
      vertex 5.8236 -28.6569 4.24264
      vertex 6.49318e-15 -29.2427 4.24264
    endloop
  endfacet
  facet normal 0.0925338 -0.919917 0.381039
    outer loop
      vertex 6.83799e-15 -30.7956 1.55291
      vertex 6.13286 -30.1787 1.55291
      vertex 6.7049e-15 -30.1962 3
    endloop
  endfacet
  facet normal 0.0925347 -0.919915 0.381043
    outer loop
      vertex 6.13286 -30.1787 1.55291
      vertex 6.01349 -29.5913 3
      vertex 6.7049e-15 -30.1962 3
    endloop
  endfacet
  facet normal 0.0992218 -0.986556 0.129854
    outer loop
      vertex 6.88339e-15 -31 0
      vertex 6.17357 -30.3791 0
      vertex 6.83799e-15 -30.7956 1.55291
    endloop
  endfacet
  facet normal 0.099236 -0.986547 0.129913
    outer loop
      vertex 6.17357 -30.3791 0
      vertex 6.13286 -30.1787 1.55291
      vertex 6.83799e-15 -30.7956 1.55291
    endloop
  endfacet
  facet normal -0.293708 0.947034 0.129853
    outer loop
      vertex 3.82452 -18.8198 1.55291
      vertex 7.49583 -17.6812 1.55291
      vertex 3.7838 -18.6195 0
    endloop
  endfacet
  facet normal -0.293712 0.947031 0.129866
    outer loop
      vertex 7.49583 -17.6812 1.55291
      vertex 7.41603 -17.493 0
      vertex 3.7838 -18.6195 0
    endloop
  endfacet
  facet normal -0.273883 0.88306 0.381043
    outer loop
      vertex 3.94389 -19.4072 3
      vertex 7.72978 -18.233 3
      vertex 3.82452 -18.8198 1.55291
    endloop
  endfacet
  facet normal -0.273873 0.883077 0.381009
    outer loop
      vertex 7.72978 -18.233 3
      vertex 7.49583 -17.6812 1.55291
      vertex 3.82452 -18.8198 1.55291
    endloop
  endfacet
  facet normal -0.235448 0.75916 0.606828
    outer loop
      vertex 4.13378 -20.3416 4.24264
      vertex 8.10195 -19.1109 4.24264
      vertex 3.94389 -19.4072 3
    endloop
  endfacet
  facet normal -0.235451 0.759149 0.606841
    outer loop
      vertex 8.10195 -19.1109 4.24264
      vertex 7.72978 -18.233 3
      vertex 3.94389 -19.4072 3
    endloop
  endfacet
  facet normal -0.180899 0.583265 0.791882
    outer loop
      vertex 4.38125 -21.5594 5.19615
      vertex 8.58698 -20.255 5.19615
      vertex 4.13378 -20.3416 4.24264
    endloop
  endfacet
  facet normal -0.180898 0.583272 0.791877
    outer loop
      vertex 8.58698 -20.255 5.19615
      vertex 8.10195 -19.1109 4.24264
      vertex 4.13378 -20.3416 4.24264
    endloop
  endfacet
  facet normal -0.113849 0.367079 0.923196
    outer loop
      vertex 4.66943 -22.9775 5.79555
      vertex 9.1518 -21.5873 5.79555
      vertex 4.38125 -21.5594 5.19615
    endloop
  endfacet
  facet normal -0.113849 0.367079 0.923196
    outer loop
      vertex 9.1518 -21.5873 5.79555
      vertex 8.58698 -20.255 5.19615
      vertex 4.38125 -21.5594 5.19615
    endloop
  endfacet
  facet normal -0.0388591 0.12529 0.991359
    outer loop
      vertex 4.97869 -24.4993 6
      vertex 9.75793 -23.017 6
      vertex 4.66943 -22.9775 5.79555
    endloop
  endfacet
  facet normal -0.038859 0.125292 0.991359
    outer loop
      vertex 9.75793 -23.017 6
      vertex 9.1518 -21.5873 5.79555
      vertex 4.66943 -22.9775 5.79555
    endloop
  endfacet
  facet normal 0.038857 -0.12529 0.991359
    outer loop
      vertex 5.28795 -26.0211 5.79555
      vertex 10.3641 -24.4468 5.79555
      vertex 4.97869 -24.4993 6
    endloop
  endfacet
  facet normal 0.038857 -0.125283 0.99136
    outer loop
      vertex 10.3641 -24.4468 5.79555
      vertex 9.75793 -23.017 6
      vertex 4.97869 -24.4993 6
    endloop
  endfacet
  facet normal 0.113846 -0.36708 0.923196
    outer loop
      vertex 5.57613 -27.4392 5.19615
      vertex 10.9289 -25.7791 5.19615
      vertex 5.28795 -26.0211 5.79555
    endloop
  endfacet
  facet normal 0.113846 -0.367082 0.923196
    outer loop
      vertex 10.9289 -25.7791 5.19615
      vertex 10.3641 -24.4468 5.79555
      vertex 5.28795 -26.0211 5.79555
    endloop
  endfacet
  facet normal 0.180896 -0.583296 0.79186
    outer loop
      vertex 5.8236 -28.6569 4.24264
      vertex 11.4139 -26.9232 4.24264
      vertex 5.57613 -27.4392 5.19615
    endloop
  endfacet
  facet normal 0.180896 -0.583276 0.791875
    outer loop
      vertex 11.4139 -26.9232 4.24264
      vertex 10.9289 -25.7791 5.19615
      vertex 5.57613 -27.4392 5.19615
    endloop
  endfacet
  facet normal 0.235444 -0.759161 0.606828
    outer loop
      vertex 6.01349 -29.5913 3
      vertex 11.7861 -27.801 3
      vertex 5.8236 -28.6569 4.24264
    endloop
  endfacet
  facet normal 0.235442 -0.75918 0.606805
    outer loop
      vertex 11.7861 -27.801 3
      vertex 11.4139 -26.9232 4.24264
      vertex 5.8236 -28.6569 4.24264
    endloop
  endfacet
  facet normal 0.273868 -0.883064 0.381043
    outer loop
      vertex 6.13286 -30.1787 1.55291
      vertex 12.02 -28.3529 1.55291
      vertex 6.01349 -29.5913 3
    endloop
  endfacet
  facet normal 0.273869 -0.883059 0.381053
    outer loop
      vertex 12.02 -28.3529 1.55291
      vertex 11.7861 -27.801 3
      vertex 6.01349 -29.5913 3
    endloop
  endfacet
  facet normal 0.293716 -0.947024 0.129911
    outer loop
      vertex 6.17357 -30.3791 0
      vertex 12.0998 -28.5411 0
      vertex 6.13286 -30.1787 1.55291
    endloop
  endfacet
  facet normal 0.293707 -0.947033 0.129865
    outer loop
      vertex 12.0998 -28.5411 0
      vertex 12.02 -28.3529 1.55291
      vertex 6.13286 -30.1787 1.55291
    endloop
  endfacet
  facet normal -0.476424 0.869571 0.129867
    outer loop
      vertex 7.49583 -17.6812 1.55291
      vertex 10.8668 -15.8343 1.55291
      vertex 7.41603 -17.493 0
    endloop
  endfacet
  facet normal -0.476427 0.869569 0.129875
    outer loop
      vertex 10.8668 -15.8343 1.55291
      vertex 10.7512 -15.6657 0
      vertex 7.41603 -17.493 0
    endloop
  endfacet
  facet normal -0.444238 0.810853 0.381012
    outer loop
      vertex 7.72978 -18.233 3
      vertex 11.206 -16.3285 3
      vertex 7.49583 -17.6812 1.55291
    endloop
  endfacet
  facet normal -0.444244 0.810836 0.381042
    outer loop
      vertex 11.206 -16.3285 3
      vertex 10.8668 -15.8343 1.55291
      vertex 7.49583 -17.6812 1.55291
    endloop
  endfacet
  facet normal -0.381908 0.697059 0.60684
    outer loop
      vertex 8.10195 -19.1109 4.24264
      vertex 11.7456 -17.1146 4.24264
      vertex 7.72978 -18.233 3
    endloop
  endfacet
  facet normal -0.381907 0.697082 0.606815
    outer loop
      vertex 11.7456 -17.1146 4.24264
      vertex 11.206 -16.3285 3
      vertex 7.72978 -18.233 3
    endloop
  endfacet
  facet normal -0.293431 0.535565 0.791877
    outer loop
      vertex 8.58698 -20.255 5.19615
      vertex 12.4487 -18.1392 5.19615
      vertex 8.10195 -19.1109 4.24264
    endloop
  endfacet
  facet normal -0.293431 0.535571 0.791872
    outer loop
      vertex 12.4487 -18.1392 5.19615
      vertex 11.7456 -17.1146 4.24264
      vertex 8.10195 -19.1109 4.24264
    endloop
  endfacet
  facet normal -0.184672 0.337054 0.923196
    outer loop
      vertex 9.1518 -21.5873 5.79555
      vertex 13.2675 -19.3323 5.79555
      vertex 8.58698 -20.255 5.19615
    endloop
  endfacet
  facet normal -0.184674 0.337063 0.923192
    outer loop
      vertex 13.2675 -19.3323 5.79555
      vertex 12.4487 -18.1392 5.19615
      vertex 8.58698 -20.255 5.19615
    endloop
  endfacet
  facet normal -0.0630304 0.115044 0.991359
    outer loop
      vertex 9.75793 -23.017 6
      vertex 14.1463 -20.6127 6
      vertex 9.1518 -21.5873 5.79555
    endloop
  endfacet
  facet normal -0.0630291 0.115037 0.99136
    outer loop
      vertex 14.1463 -20.6127 6
      vertex 13.2675 -19.3323 5.79555
      vertex 9.1518 -21.5873 5.79555
    endloop
  endfacet
  facet normal 0.0630278 -0.115036 0.99136
    outer loop
      vertex 10.3641 -24.4468 5.79555
      vertex 15.025 -21.8931 5.79555
      vertex 9.75793 -23.017 6
    endloop
  endfacet
  facet normal 0.0630291 -0.115042 0.991359
    outer loop
      vertex 15.025 -21.8931 5.79555
      vertex 14.1463 -20.6127 6
      vertex 9.75793 -23.017 6
    endloop
  endfacet
  facet normal 0.184669 -0.337058 0.923195
    outer loop
      vertex 10.9289 -25.7791 5.19615
      vertex 15.8438 -23.0863 5.19615
      vertex 10.3641 -24.4468 5.79555
    endloop
  endfacet
  facet normal 0.184666 -0.337045 0.923201
    outer loop
      vertex 15.8438 -23.0863 5.19615
      vertex 15.025 -21.8931 5.79555
      vertex 10.3641 -24.4468 5.79555
    endloop
  endfacet
  facet normal 0.293435 -0.535568 0.791873
    outer loop
      vertex 11.4139 -26.9232 4.24264
      vertex 16.547 -24.1108 4.24264
      vertex 10.9289 -25.7791 5.19615
    endloop
  endfacet
  facet normal 0.293437 -0.535582 0.791863
    outer loop
      vertex 16.547 -24.1108 4.24264
      vertex 15.8438 -23.0863 5.19615
      vertex 10.9289 -25.7791 5.19615
    endloop
  endfacet
  facet normal 0.381918 -0.69708 0.60681
    outer loop
      vertex 11.7861 -27.801 3
      vertex 17.0865 -24.897 3
      vertex 11.4139 -26.9232 4.24264
    endloop
  endfacet
  facet normal 0.381917 -0.697061 0.606832
    outer loop
      vertex 17.0865 -24.897 3
      vertex 16.547 -24.1108 4.24264
      vertex 11.4139 -26.9232 4.24264
    endloop
  endfacet
  facet normal 0.444243 -0.810834 0.381046
    outer loop
      vertex 12.02 -28.3529 1.55291
      vertex 17.4257 -25.3912 1.55291
      vertex 11.7861 -27.801 3
    endloop
  endfacet
  facet normal 0.444243 -0.810836 0.381042
    outer loop
      vertex 17.4257 -25.3912 1.55291
      vertex 17.0865 -24.897 3
      vertex 11.7861 -27.801 3
    endloop
  endfacet
  facet normal 0.476416 -0.869576 0.129867
    outer loop
      vertex 12.0998 -28.5411 0
      vertex 17.5414 -25.5598 0
      vertex 12.02 -28.3529 1.55291
    endloop
  endfacet
  facet normal 0.476422 -0.869567 0.129905
    outer loop
      vertex 17.5414 -25.5598 0
      vertex 17.4257 -25.3912 1.55291
      vertex 12.02 -28.3529 1.55291
    endloop
  endfacet
  facet normal -0.640058 0.757272 0.129864
    outer loop
      vertex 10.8668 -15.8343 1.55291
      vertex 13.8025 -13.353 1.55291
      vertex 10.7512 -15.6657 0
    endloop
  endfacet
  facet normal -0.640064 0.757262 0.12989
    outer loop
      vertex 13.8025 -13.353 1.55291
      vertex 13.6556 -13.2108 0
      vertex 10.7512 -15.6657 0
    endloop
  endfacet
  facet normal -0.596821 0.706123 0.381046
    outer loop
      vertex 11.206 -16.3285 3
      vertex 14.2333 -13.7698 3
      vertex 10.8668 -15.8343 1.55291
    endloop
  endfacet
  facet normal -0.596821 0.706117 0.381055
    outer loop
      vertex 14.2333 -13.7698 3
      vertex 13.8025 -13.353 1.55291
      vertex 10.8668 -15.8343 1.55291
    endloop
  endfacet
  facet normal -0.51309 0.607046 0.606823
    outer loop
      vertex 11.7456 -17.1146 4.24264
      vertex 14.9186 -14.4327 4.24264
      vertex 11.206 -16.3285 3
    endloop
  endfacet
  facet normal -0.513092 0.60706 0.606807
    outer loop
      vertex 14.9186 -14.4327 4.24264
      vertex 14.2333 -13.7698 3
      vertex 11.206 -16.3285 3
    endloop
  endfacet
  facet normal -0.394211 0.466412 0.79187
    outer loop
      vertex 12.4487 -18.1392 5.19615
      vertex 15.8117 -15.2968 5.19615
      vertex 11.7456 -17.1146 4.24264
    endloop
  endfacet
  facet normal -0.394204 0.46639 0.791886
    outer loop
      vertex 15.8117 -15.2968 5.19615
      vertex 14.9186 -14.4327 4.24264
      vertex 11.7456 -17.1146 4.24264
    endloop
  endfacet
  facet normal -0.248095 0.293539 0.923192
    outer loop
      vertex 13.2675 -19.3323 5.79555
      vertex 16.8518 -16.3029 5.79555
      vertex 12.4487 -18.1392 5.19615
    endloop
  endfacet
  facet normal -0.248092 0.293532 0.923195
    outer loop
      vertex 16.8518 -16.3029 5.79555
      vertex 15.8117 -15.2968 5.19615
      vertex 12.4487 -18.1392 5.19615
    endloop
  endfacet
  facet normal -0.0846732 0.100182 0.99136
    outer loop
      vertex 14.1463 -20.6127 6
      vertex 17.9679 -17.3827 6
      vertex 13.2675 -19.3323 5.79555
    endloop
  endfacet
  facet normal -0.0846741 0.100184 0.991359
    outer loop
      vertex 17.9679 -17.3827 6
      vertex 16.8518 -16.3029 5.79555
      vertex 13.2675 -19.3323 5.79555
    endloop
  endfacet
  facet normal 0.0846774 -0.100185 0.991359
    outer loop
      vertex 15.025 -21.8931 5.79555
      vertex 19.084 -18.4624 5.79555
      vertex 14.1463 -20.6127 6
    endloop
  endfacet
  facet normal 0.0846787 -0.100188 0.991359
    outer loop
      vertex 19.084 -18.4624 5.79555
      vertex 17.9679 -17.3827 6
      vertex 14.1463 -20.6127 6
    endloop
  endfacet
  facet normal 0.24809 -0.293522 0.923199
    outer loop
      vertex 15.8438 -23.0863 5.19615
      vertex 20.124 -19.4686 5.19615
      vertex 15.025 -21.8931 5.79555
    endloop
  endfacet
  facet normal 0.248092 -0.293528 0.923196
    outer loop
      vertex 20.124 -19.4686 5.19615
      vertex 19.084 -18.4624 5.79555
      vertex 15.025 -21.8931 5.79555
    endloop
  endfacet
  facet normal 0.394218 -0.466411 0.791866
    outer loop
      vertex 16.547 -24.1108 4.24264
      vertex 21.0171 -20.3326 4.24264
      vertex 15.8438 -23.0863 5.19615
    endloop
  endfacet
  facet normal 0.394218 -0.46641 0.791868
    outer loop
      vertex 21.0171 -20.3326 4.24264
      vertex 20.124 -19.4686 5.19615
      vertex 15.8438 -23.0863 5.19615
    endloop
  endfacet
  facet normal 0.513082 -0.607048 0.606828
    outer loop
      vertex 17.0865 -24.897 3
      vertex 21.7024 -20.9956 3
      vertex 16.547 -24.1108 4.24264
    endloop
  endfacet
  facet normal 0.51308 -0.60704 0.606838
    outer loop
      vertex 21.7024 -20.9956 3
      vertex 21.0171 -20.3326 4.24264
      vertex 16.547 -24.1108 4.24264
    endloop
  endfacet
  facet normal 0.596819 -0.706124 0.381046
    outer loop
      vertex 17.4257 -25.3912 1.55291
      vertex 22.1332 -21.4124 1.55291
      vertex 17.0865 -24.897 3
    endloop
  endfacet
  facet normal 0.596819 -0.70612 0.381054
    outer loop
      vertex 22.1332 -21.4124 1.55291
      vertex 21.7024 -20.9956 3
      vertex 17.0865 -24.897 3
    endloop
  endfacet
  facet normal 0.640054 -0.757269 0.129904
    outer loop
      vertex 17.5414 -25.5598 0
      vertex 22.2802 -21.5545 0
      vertex 17.4257 -25.3912 1.55291
    endloop
  endfacet
  facet normal 0.640052 -0.757274 0.129883
    outer loop
      vertex 22.2802 -21.5545 0
      vertex 22.1332 -21.4124 1.55291
      vertex 17.4257 -25.3912 1.55291
    endloop
  endfacet
  facet normal -0.778035 0.614648 0.129883
    outer loop
      vertex 13.8025 -13.353 1.55291
      vertex 16.1853 -10.3368 1.55291
      vertex 13.6556 -13.2108 0
    endloop
  endfacet
  facet normal -0.778038 0.61464 0.129903
    outer loop
      vertex 16.1853 -10.3368 1.55291
      vertex 16.013 -10.2267 0
      vertex 13.6556 -13.2108 0
    endloop
  endfacet
  facet normal -0.725494 0.573113 0.381052
    outer loop
      vertex 14.2333 -13.7698 3
      vertex 16.6904 -10.6594 3
      vertex 13.8025 -13.353 1.55291
    endloop
  endfacet
  facet normal -0.725496 0.573143 0.381002
    outer loop
      vertex 16.6904 -10.6594 3
      vertex 16.1853 -10.3368 1.55291
      vertex 13.8025 -13.353 1.55291
    endloop
  endfacet
  facet normal -0.623709 0.492715 0.606811
    outer loop
      vertex 14.9186 -14.4327 4.24264
      vertex 17.494 -11.1726 4.24264
      vertex 14.2333 -13.7698 3
    endloop
  endfacet
  facet normal -0.623705 0.492703 0.606824
    outer loop
      vertex 17.494 -11.1726 4.24264
      vertex 16.6904 -10.6594 3
      vertex 14.2333 -13.7698 3
    endloop
  endfacet
  facet normal -0.47919 0.378548 0.791883
    outer loop
      vertex 15.8117 -15.2968 5.19615
      vertex 18.5413 -11.8415 5.19615
      vertex 14.9186 -14.4327 4.24264
    endloop
  endfacet
  facet normal -0.47919 0.378549 0.791882
    outer loop
      vertex 18.5413 -11.8415 5.19615
      vertex 17.494 -11.1726 4.24264
      vertex 14.9186 -14.4327 4.24264
    endloop
  endfacet
  facet normal -0.301578 0.23824 0.923197
    outer loop
      vertex 16.8518 -16.3029 5.79555
      vertex 19.7609 -12.6204 5.79555
      vertex 15.8117 -15.2968 5.19615
    endloop
  endfacet
  facet normal -0.301576 0.238237 0.923198
    outer loop
      vertex 19.7609 -12.6204 5.79555
      vertex 18.5413 -11.8415 5.19615
      vertex 15.8117 -15.2968 5.19615
    endloop
  endfacet
  facet normal -0.102932 0.0813125 0.991359
    outer loop
      vertex 17.9679 -17.3827 6
      vertex 21.0697 -13.4562 6
      vertex 16.8518 -16.3029 5.79555
    endloop
  endfacet
  facet normal -0.102934 0.0813156 0.991359
    outer loop
      vertex 21.0697 -13.4562 6
      vertex 19.7609 -12.6204 5.79555
      vertex 16.8518 -16.3029 5.79555
    endloop
  endfacet
  facet normal 0.102934 -0.0813172 0.991359
    outer loop
      vertex 19.084 -18.4624 5.79555
      vertex 22.3785 -14.2921 5.79555
      vertex 17.9679 -17.3827 6
    endloop
  endfacet
  facet normal 0.10293 -0.0813114 0.99136
    outer loop
      vertex 22.3785 -14.2921 5.79555
      vertex 21.0697 -13.4562 6
      vertex 17.9679 -17.3827 6
    endloop
  endfacet
  facet normal 0.301581 -0.238242 0.923195
    outer loop
      vertex 20.124 -19.4686 5.19615
      vertex 23.598 -15.071 5.19615
      vertex 19.084 -18.4624 5.79555
    endloop
  endfacet
  facet normal 0.301588 -0.238252 0.923191
    outer loop
      vertex 23.598 -15.071 5.19615
      vertex 22.3785 -14.2921 5.79555
      vertex 19.084 -18.4624 5.79555
    endloop
  endfacet
  facet normal 0.479205 -0.37856 0.791868
    outer loop
      vertex 21.0171 -20.3326 4.24264
      vertex 24.6453 -15.7398 4.24264
      vertex 20.124 -19.4686 5.19615
    endloop
  endfacet
  facet normal 0.479205 -0.378561 0.791867
    outer loop
      vertex 24.6453 -15.7398 4.24264
      vertex 23.598 -15.071 5.19615
      vertex 20.124 -19.4686 5.19615
    endloop
  endfacet
  facet normal 0.623691 -0.492706 0.606837
    outer loop
      vertex 21.7024 -20.9956 3
      vertex 25.4489 -16.2531 3
      vertex 21.0171 -20.3326 4.24264
    endloop
  endfacet
  facet normal 0.623686 -0.492697 0.606849
    outer loop
      vertex 25.4489 -16.2531 3
      vertex 24.6453 -15.7398 4.24264
      vertex 21.0171 -20.3326 4.24264
    endloop
  endfacet
  facet normal 0.725487 -0.573121 0.381052
    outer loop
      vertex 22.1332 -21.4124 1.55291
      vertex 25.9541 -16.5757 1.55291
      vertex 21.7024 -20.9956 3
    endloop
  endfacet
  facet normal 0.725488 -0.573124 0.381045
    outer loop
      vertex 25.9541 -16.5757 1.55291
      vertex 25.4489 -16.2531 3
      vertex 21.7024 -20.9956 3
    endloop
  endfacet
  facet normal 0.778046 -0.614632 0.129893
    outer loop
      vertex 22.2802 -21.5545 0
      vertex 26.1264 -16.6857 0
      vertex 22.1332 -21.4124 1.55291
    endloop
  endfacet
  facet normal 0.778044 -0.61464 0.129864
    outer loop
      vertex 26.1264 -16.6857 0
      vertex 25.9541 -16.5757 1.55291
      vertex 22.1332 -21.4124 1.55291
    endloop
  endfacet
  facet normal -0.884866 0.44737 0.129897
    outer loop
      vertex 16.1853 -10.3368 1.55291
      vertex 17.9196 -6.90648 1.55291
      vertex 16.013 -10.2267 0
    endloop
  endfacet
  facet normal -0.884866 0.447369 0.1299
    outer loop
      vertex 17.9196 -6.90648 1.55291
      vertex 17.7288 -6.83296 0
      vertex 16.013 -10.2267 0
    endloop
  endfacet
  facet normal -0.825107 0.417178 0.381001
    outer loop
      vertex 16.6904 -10.6594 3
      vertex 18.4789 -7.12205 3
      vertex 16.1853 -10.3368 1.55291
    endloop
  endfacet
  facet normal -0.825099 0.417153 0.381043
    outer loop
      vertex 18.4789 -7.12205 3
      vertex 17.9196 -6.90648 1.55291
      vertex 16.1853 -10.3368 1.55291
    endloop
  endfacet
  facet normal -0.709325 0.358638 0.606826
    outer loop
      vertex 17.494 -11.1726 4.24264
      vertex 19.3686 -7.46496 4.24264
      vertex 16.6904 -10.6594 3
    endloop
  endfacet
  facet normal -0.709324 0.358638 0.606826
    outer loop
      vertex 19.3686 -7.46496 4.24264
      vertex 18.4789 -7.12205 3
      vertex 16.6904 -10.6594 3
    endloop
  endfacet
  facet normal -0.544981 0.275538 0.79188
    outer loop
      vertex 18.5413 -11.8415 5.19615
      vertex 20.5281 -7.91185 5.19615
      vertex 17.494 -11.1726 4.24264
    endloop
  endfacet
  facet normal -0.54499 0.275549 0.79187
    outer loop
      vertex 20.5281 -7.91185 5.19615
      vertex 19.3686 -7.46496 4.24264
      vertex 17.494 -11.1726 4.24264
    endloop
  endfacet
  facet normal -0.342979 0.173408 0.923198
    outer loop
      vertex 19.7609 -12.6204 5.79555
      vertex 21.8784 -8.43226 5.79555
      vertex 18.5413 -11.8415 5.19615
    endloop
  endfacet
  facet normal -0.342978 0.173407 0.923199
    outer loop
      vertex 21.8784 -8.43226 5.79555
      vertex 20.5281 -7.91185 5.19615
      vertex 18.5413 -11.8415 5.19615
    endloop
  endfacet
  facet normal -0.117065 0.059187 0.991359
    outer loop
      vertex 21.0697 -13.4562 6
      vertex 23.3274 -8.99073 6
      vertex 19.7609 -12.6204 5.79555
    endloop
  endfacet
  facet normal -0.117066 0.0591879 0.991359
    outer loop
      vertex 23.3274 -8.99073 6
      vertex 21.8784 -8.43226 5.79555
      vertex 19.7609 -12.6204 5.79555
    endloop
  endfacet
  facet normal 0.117063 -0.0591841 0.991359
    outer loop
      vertex 22.3785 -14.2921 5.79555
      vertex 24.7764 -9.5492 5.79555
      vertex 21.0697 -13.4562 6
    endloop
  endfacet
  facet normal 0.117066 -0.0591876 0.991359
    outer loop
      vertex 24.7764 -9.5492 5.79555
      vertex 23.3274 -8.99073 6
      vertex 21.0697 -13.4562 6
    endloop
  endfacet
  facet normal 0.342997 -0.173419 0.92319
    outer loop
      vertex 23.598 -15.071 5.19615
      vertex 26.1267 -10.0696 5.19615
      vertex 22.3785 -14.2921 5.79555
    endloop
  endfacet
  facet normal 0.34298 -0.173403 0.923199
    outer loop
      vertex 26.1267 -10.0696 5.19615
      vertex 24.7764 -9.5492 5.79555
      vertex 22.3785 -14.2921 5.79555
    endloop
  endfacet
  facet normal 0.544991 -0.275548 0.79187
    outer loop
      vertex 24.6453 -15.7398 4.24264
      vertex 27.2862 -10.5165 4.24264
      vertex 23.598 -15.071 5.19615
    endloop
  endfacet
  facet normal 0.54499 -0.275546 0.791871
    outer loop
      vertex 27.2862 -10.5165 4.24264
      vertex 26.1267 -10.0696 5.19615
      vertex 23.598 -15.071 5.19615
    endloop
  endfacet
  facet normal 0.709317 -0.358623 0.606844
    outer loop
      vertex 25.4489 -16.2531 3
      vertex 28.1759 -10.8594 3
      vertex 24.6453 -15.7398 4.24264
    endloop
  endfacet
  facet normal 0.709327 -0.358636 0.606824
    outer loop
      vertex 28.1759 -10.8594 3
      vertex 27.2862 -10.5165 4.24264
      vertex 24.6453 -15.7398 4.24264
    endloop
  endfacet
  facet normal 0.825094 -0.417159 0.381049
    outer loop
      vertex 25.9541 -16.5757 1.55291
      vertex 28.7352 -11.075 1.55291
      vertex 25.4489 -16.2531 3
    endloop
  endfacet
  facet normal 0.825093 -0.417159 0.38105
    outer loop
      vertex 28.7352 -11.075 1.55291
      vertex 28.1759 -10.8594 3
      vertex 25.4489 -16.2531 3
    endloop
  endfacet
  facet normal 0.884862 -0.447385 0.129868
    outer loop
      vertex 26.1264 -16.6857 0
      vertex 28.926 -11.1485 0
      vertex 25.9541 -16.5757 1.55291
    endloop
  endfacet
  facet normal 0.884862 -0.447378 0.129894
    outer loop
      vertex 28.926 -11.1485 0
      vertex 28.7352 -11.075 1.55291
      vertex 25.9541 -16.5757 1.55291
    endloop
  endfacet
  facet normal -0.956228 0.26221 0.129902
    outer loop
      vertex 17.9196 -6.90648 1.55291
      vertex 18.9361 -3.1995 1.55291
      vertex 17.7288 -6.83296 0
    endloop
  endfacet
  facet normal -0.956228 0.262215 0.129889
    outer loop
      vertex 18.9361 -3.1995 1.55291
      vertex 18.7345 -3.16544 0
      vertex 17.7288 -6.83296 0
    endloop
  endfacet
  facet normal -0.891645 0.244493 0.381042
    outer loop
      vertex 18.4789 -7.12205 3
      vertex 19.5271 -3.29936 3
      vertex 17.9196 -6.90648 1.55291
    endloop
  endfacet
  facet normal -0.891649 0.244501 0.381027
    outer loop
      vertex 19.5271 -3.29936 3
      vertex 18.9361 -3.1995 1.55291
      vertex 17.9196 -6.90648 1.55291
    endloop
  endfacet
  facet normal -0.766538 0.210195 0.606826
    outer loop
      vertex 19.3686 -7.46496 4.24264
      vertex 20.4673 -3.45822 4.24264
      vertex 18.4789 -7.12205 3
    endloop
  endfacet
  facet normal -0.76653 0.210186 0.606839
    outer loop
      vertex 20.4673 -3.45822 4.24264
      vertex 19.5271 -3.29936 3
      vertex 18.4789 -7.12205 3
    endloop
  endfacet
  facet normal -0.588947 0.161501 0.791871
    outer loop
      vertex 20.5281 -7.91185 5.19615
      vertex 21.6926 -3.66525 5.19615
      vertex 19.3686 -7.46496 4.24264
    endloop
  endfacet
  facet normal -0.58894 0.161495 0.791877
    outer loop
      vertex 21.6926 -3.66525 5.19615
      vertex 20.4673 -3.45822 4.24264
      vertex 19.3686 -7.46496 4.24264
    endloop
  endfacet
  facet normal -0.370641 0.101629 0.923199
    outer loop
      vertex 21.8784 -8.43226 5.79555
      vertex 23.1194 -3.90633 5.79555
      vertex 20.5281 -7.91185 5.19615
    endloop
  endfacet
  facet normal -0.370659 0.101642 0.92319
    outer loop
      vertex 23.1194 -3.90633 5.79555
      vertex 21.6926 -3.66525 5.19615
      vertex 20.5281 -7.91185 5.19615
    endloop
  endfacet
  facet normal -0.126508 0.0346886 0.991359
    outer loop
      vertex 23.3274 -8.99073 6
      vertex 24.6506 -4.16505 6
      vertex 21.8784 -8.43226 5.79555
    endloop
  endfacet
  facet normal -0.126508 0.0346882 0.991359
    outer loop
      vertex 24.6506 -4.16505 6
      vertex 23.1194 -3.90633 5.79555
      vertex 21.8784 -8.43226 5.79555
    endloop
  endfacet
  facet normal 0.126508 -0.034691 0.991359
    outer loop
      vertex 24.7764 -9.5492 5.79555
      vertex 26.1819 -4.42377 5.79555
      vertex 23.3274 -8.99073 6
    endloop
  endfacet
  facet normal 0.1265 -0.0346863 0.99136
    outer loop
      vertex 26.1819 -4.42377 5.79555
      vertex 24.6506 -4.16505 6
      vertex 23.3274 -8.99073 6
    endloop
  endfacet
  facet normal 0.370641 -0.101631 0.923199
    outer loop
      vertex 26.1267 -10.0696 5.19615
      vertex 27.6087 -4.66486 5.19615
      vertex 24.7764 -9.5492 5.79555
    endloop
  endfacet
  facet normal 0.370659 -0.101642 0.923191
    outer loop
      vertex 27.6087 -4.66486 5.19615
      vertex 26.1819 -4.42377 5.79555
      vertex 24.7764 -9.5492 5.79555
    endloop
  endfacet
  facet normal 0.588948 -0.161494 0.791871
    outer loop
      vertex 27.2862 -10.5165 4.24264
      vertex 28.834 -4.87188 4.24264
      vertex 26.1267 -10.0696 5.19615
    endloop
  endfacet
  facet normal 0.588942 -0.16149 0.791877
    outer loop
      vertex 28.834 -4.87188 4.24264
      vertex 27.6087 -4.66486 5.19615
      vertex 26.1267 -10.0696 5.19615
    endloop
  endfacet
  facet normal 0.766538 -0.210196 0.606825
    outer loop
      vertex 28.1759 -10.8594 3
      vertex 29.7742 -5.03074 3
      vertex 27.2862 -10.5165 4.24264
    endloop
  endfacet
  facet normal 0.76653 -0.210189 0.606838
    outer loop
      vertex 29.7742 -5.03074 3
      vertex 28.834 -4.87188 4.24264
      vertex 27.2862 -10.5165 4.24264
    endloop
  endfacet
  facet normal 0.891642 -0.244495 0.381047
    outer loop
      vertex 28.7352 -11.075 1.55291
      vertex 30.3652 -5.1306 1.55291
      vertex 28.1759 -10.8594 3
    endloop
  endfacet
  facet normal 0.891648 -0.244502 0.381027
    outer loop
      vertex 30.3652 -5.1306 1.55291
      vertex 29.7742 -5.03074 3
      vertex 28.1759 -10.8594 3
    endloop
  endfacet
  facet normal 0.95623 -0.262203 0.129898
    outer loop
      vertex 28.926 -11.1485 0
      vertex 30.5668 -5.16466 0
      vertex 28.7352 -11.075 1.55291
    endloop
  endfacet
  facet normal 0.956231 -0.262206 0.12989
    outer loop
      vertex 30.5668 -5.16466 0
      vertex 30.3652 -5.1306 1.55291
      vertex 28.7352 -11.075 1.55291
    endloop
  endfacet
  facet normal -0.989294 0.0665264 0.12989
    outer loop
      vertex 18.9361 -3.1995 1.55291
      vertex 19.194 0.635655 1.55291
      vertex 18.7345 -3.16544 0
    endloop
  endfacet
  facet normal -0.989291 0.0665119 0.129924
    outer loop
      vertex 19.194 0.635655 1.55291
      vertex 18.9896 0.628888 0
      vertex 18.7345 -3.16544 0
    endloop
  endfacet
  facet normal -0.922481 0.0620219 0.381027
    outer loop
      vertex 19.5271 -3.29936 3
      vertex 19.793 0.655496 3
      vertex 18.9361 -3.1995 1.55291
    endloop
  endfacet
  facet normal -0.922492 0.0620341 0.381
    outer loop
      vertex 19.793 0.655496 3
      vertex 19.194 0.635655 1.55291
      vertex 18.9361 -3.1995 1.55291
    endloop
  endfacet
  facet normal -0.793035 0.0533182 0.606838
    outer loop
      vertex 20.4673 -3.45822 4.24264
      vertex 20.746 0.687056 4.24264
      vertex 19.5271 -3.29936 3
    endloop
  endfacet
  facet normal -0.793036 0.0533188 0.606837
    outer loop
      vertex 20.746 0.687056 4.24264
      vertex 19.793 0.655496 3
      vertex 19.5271 -3.29936 3
    endloop
  endfacet
  facet normal -0.609305 0.0409676 0.791877
    outer loop
      vertex 21.6926 -3.66525 5.19615
      vertex 21.988 0.728187 5.19615
      vertex 20.4673 -3.45822 4.24264
    endloop
  endfacet
  facet normal -0.6093 0.0409652 0.791881
    outer loop
      vertex 21.988 0.728187 5.19615
      vertex 20.746 0.687056 4.24264
      vertex 20.4673 -3.45822 4.24264
    endloop
  endfacet
  facet normal -0.383476 0.0257894 0.923191
    outer loop
      vertex 23.1194 -3.90633 5.79555
      vertex 23.4343 0.776084 5.79555
      vertex 21.6926 -3.66525 5.19615
    endloop
  endfacet
  facet normal -0.383461 0.0257826 0.923197
    outer loop
      vertex 23.4343 0.776084 5.79555
      vertex 21.988 0.728187 5.19615
      vertex 21.6926 -3.66525 5.19615
    endloop
  endfacet
  facet normal -0.130882 0.00880056 0.991359
    outer loop
      vertex 24.6506 -4.16505 6
      vertex 24.9863 0.827484 6
      vertex 23.1194 -3.90633 5.79555
    endloop
  endfacet
  facet normal -0.130886 0.00880232 0.991358
    outer loop
      vertex 24.9863 0.827484 6
      vertex 23.4343 0.776084 5.79555
      vertex 23.1194 -3.90633 5.79555
    endloop
  endfacet
  facet normal 0.130874 -0.00879871 0.99136
    outer loop
      vertex 26.1819 -4.42377 5.79555
      vertex 26.5384 0.878885 5.79555
      vertex 24.6506 -4.16505 6
    endloop
  endfacet
  facet normal 0.130878 -0.00880029 0.991359
    outer loop
      vertex 26.5384 0.878885 5.79555
      vertex 24.9863 0.827484 6
      vertex 24.6506 -4.16505 6
    endloop
  endfacet
  facet normal 0.383476 -0.0257862 0.923191
    outer loop
      vertex 27.6087 -4.66486 5.19615
      vertex 27.9847 0.926783 5.19615
      vertex 26.1819 -4.42377 5.79555
    endloop
  endfacet
  facet normal 0.383461 -0.0257802 0.923197
    outer loop
      vertex 27.9847 0.926783 5.19615
      vertex 26.5384 0.878885 5.79555
      vertex 26.1819 -4.42377 5.79555
    endloop
  endfacet
  facet normal 0.609304 -0.040973 0.791877
    outer loop
      vertex 28.834 -4.87188 4.24264
      vertex 29.2267 0.967914 4.24264
      vertex 27.6087 -4.66486 5.19615
    endloop
  endfacet
  facet normal 0.6093 -0.0409713 0.79188
    outer loop
      vertex 29.2267 0.967914 4.24264
      vertex 27.9847 0.926783 5.19615
      vertex 27.6087 -4.66486 5.19615
    endloop
  endfacet
  facet normal 0.793035 -0.0533143 0.606838
    outer loop
      vertex 29.7742 -5.03074 3
      vertex 30.1796 0.999474 3
      vertex 28.834 -4.87188 4.24264
    endloop
  endfacet
  facet normal 0.793066 -0.0533301 0.606797
    outer loop
      vertex 30.1796 0.999474 3
      vertex 29.2267 0.967914 4.24264
      vertex 28.834 -4.87188 4.24264
    endloop
  endfacet
  facet normal 0.922481 -0.0620246 0.381027
    outer loop
      vertex 30.3652 -5.1306 1.55291
      vertex 30.7787 1.01931 1.55291
      vertex 29.7742 -5.03074 3
    endloop
  endfacet
  facet normal 0.92247 -0.0620159 0.381055
    outer loop
      vertex 30.7787 1.01931 1.55291
      vertex 30.1796 0.999474 3
      vertex 29.7742 -5.03074 3
    endloop
  endfacet
  facet normal 0.989295 -0.0665098 0.12989
    outer loop
      vertex 30.5668 -5.16466 0
      vertex 30.983 1.02608 0
      vertex 30.3652 -5.1306 1.55291
    endloop
  endfacet
  facet normal 0.989298 -0.0665172 0.129862
    outer loop
      vertex 30.983 1.02608 0
      vertex 30.7787 1.01931 1.55291
      vertex 30.3652 -5.1306 1.55291
    endloop
  endfacet
  facet normal 0.084131 -0.987961 -0.129824
    outer loop
      vertex 4.47139e-15 -20.1373 1.2941
      vertex 4.43683e-15 -19.9817 0.109987
      vertex 3.7578 -19.8173 1.2941
    endloop
  endfacet
  facet normal 0.0841633 -0.98802 -0.129356
    outer loop
      vertex 3.72606 -19.6499 0
      vertex 4.43683e-15 -19.9817 0.109987
      vertex 4.43362e-15 -19.9673 0
    endloop
  endfacet
  facet normal 0.0841426 -0.987955 -0.129862
    outer loop
      vertex 4.43683e-15 -19.9817 0.109987
      vertex 3.72606 -19.6499 0
      vertex 3.7578 -19.8173 1.2941
    endloop
  endfacet
  facet normal 0.0784687 -0.921256 -0.380959
    outer loop
      vertex 4.58212e-15 -20.636 2.5
      vertex 4.48066e-15 -20.1791 1.3951
      vertex 3.85086 -20.308 2.5
    endloop
  endfacet
  facet normal 0.0784414 -0.921147 -0.381227
    outer loop
      vertex 3.7578 -19.8173 1.2941
      vertex 4.48066e-15 -20.1791 1.3951
      vertex 4.47139e-15 -20.1373 1.2941
    endloop
  endfacet
  facet normal 0.0784609 -0.921267 -0.380933
    outer loop
      vertex 4.48066e-15 -20.1791 1.3951
      vertex 3.7578 -19.8173 1.2941
      vertex 3.85086 -20.308 2.5
    endloop
  endfacet
  facet normal 0.0674614 -0.792047 -0.606721
    outer loop
      vertex 4.75827e-15 -21.4293 3.53553
      vertex 4.59669e-15 -20.7017 2.58568
      vertex 3.9989 -21.0887 3.53553
    endloop
  endfacet
  facet normal 0.0674376 -0.791746 -0.607116
    outer loop
      vertex 3.85086 -20.308 2.5
      vertex 4.59669e-15 -20.7017 2.58568
      vertex 4.58212e-15 -20.636 2.5
    endloop
  endfacet
  facet normal 0.0674733 -0.792017 -0.606759
    outer loop
      vertex 4.59669e-15 -20.7017 2.58568
      vertex 3.85086 -20.308 2.5
      vertex 3.9989 -21.0887 3.53553
    endloop
  endfacet
  facet normal 0.0518415 -0.608541 -0.791827
    outer loop
      vertex 4.98782e-15 -22.4632 4.33013
      vertex 4.7771e-15 -21.5141 3.60072
      vertex 4.19182 -22.1061 4.33013
    endloop
  endfacet
  facet normal 0.051832 -0.608576 -0.791801
    outer loop
      vertex 4.7771e-15 -21.5141 3.60072
      vertex 3.9989 -21.0887 3.53553
      vertex 4.19182 -22.1061 4.33013
    endloop
  endfacet
  facet normal 0.051841 -0.608652 -0.791742
    outer loop
      vertex 3.9989 -21.0887 3.53553
      vertex 4.7771e-15 -21.5141 3.60072
      vertex 4.75827e-15 -21.4293 3.53553
    endloop
  endfacet
  facet normal 0.0326265 -0.383025 -0.923162
    outer loop
      vertex 5.25515e-15 -23.6671 4.82963
      vertex 5.00965e-15 -22.5615 4.37091
      vertex 4.41648 -23.2909 4.82963
    endloop
  endfacet
  facet normal 0.0326294 -0.383011 -0.923167
    outer loop
      vertex 5.00965e-15 -22.5615 4.37091
      vertex 4.19182 -22.1061 4.33013
      vertex 4.41648 -23.2909 4.82963
    endloop
  endfacet
  facet normal 0.0326262 -0.382983 -0.923179
    outer loop
      vertex 4.19182 -22.1061 4.33013
      vertex 5.00965e-15 -22.5615 4.37091
      vertex 4.98782e-15 -22.4632 4.33013
    endloop
  endfacet
  facet normal 0.011137 -0.130724 -0.991356
    outer loop
      vertex 5.54203e-15 -24.9591 5
      vertex 5.27855e-15 -23.7725 4.84353
      vertex 4.65758 -24.5623 5
    endloop
  endfacet
  facet normal 0.0111357 -0.130732 -0.991355
    outer loop
      vertex 5.27855e-15 -23.7725 4.84353
      vertex 4.41648 -23.2909 4.82963
      vertex 4.65758 -24.5623 5
    endloop
  endfacet
  facet normal 0.0111364 -0.130738 -0.991354
    outer loop
      vertex 4.41648 -23.2909 4.82963
      vertex 5.27855e-15 -23.7725 4.84353
      vertex 5.25515e-15 -23.6671 4.82963
    endloop
  endfacet
  facet normal -0.0111339 0.130732 -0.991355
    outer loop
      vertex 5.8289e-15 -26.251 4.82963
      vertex 5.56549e-15 -25.0647 4.98607
      vertex 4.89867 -25.8338 4.82963
    endloop
  endfacet
  facet normal -0.0111356 0.130722 -0.991357
    outer loop
      vertex 5.56549e-15 -25.0647 4.98607
      vertex 4.65758 -24.5623 5
      vertex 4.89867 -25.8338 4.82963
    endloop
  endfacet
  facet normal -0.011141 0.130772 -0.99135
    outer loop
      vertex 4.65758 -24.5623 5
      vertex 5.56549e-15 -25.0647 4.98607
      vertex 5.54203e-15 -24.9591 5
    endloop
  endfacet
  facet normal -0.0326238 0.383003 -0.923171
    outer loop
      vertex 6.09623e-15 -27.455 4.33013
      vertex 5.85088e-15 -26.35 4.78857
      vertex 5.12333 -27.0186 4.33013
    endloop
  endfacet
  facet normal -0.0326223 0.383012 -0.923167
    outer loop
      vertex 5.85088e-15 -26.35 4.78857
      vertex 4.89867 -25.8338 4.82963
      vertex 5.12333 -27.0186 4.33013
    endloop
  endfacet
  facet normal -0.0326101 0.382901 -0.923214
    outer loop
      vertex 4.89867 -25.8338 4.82963
      vertex 5.85088e-15 -26.35 4.78857
      vertex 5.8289e-15 -26.251 4.82963
    endloop
  endfacet
  facet normal -0.0518347 0.608584 -0.791794
    outer loop
      vertex 6.32578e-15 -28.4888 3.53553
      vertex 6.11523e-15 -27.5406 4.26433
      vertex 5.31626 -28.036 3.53553
    endloop
  endfacet
  facet normal -0.0518365 0.608575 -0.791801
    outer loop
      vertex 6.11523e-15 -27.5406 4.26433
      vertex 5.12333 -27.0186 4.33013
      vertex 5.31626 -28.036 3.53553
    endloop
  endfacet
  facet normal -0.0518419 0.608623 -0.791764
    outer loop
      vertex 5.12333 -27.0186 4.33013
      vertex 6.11523e-15 -27.5406 4.26433
      vertex 6.09623e-15 -27.455 4.33013
    endloop
  endfacet
  facet normal -0.0674589 0.792039 -0.606732
    outer loop
      vertex 6.50193e-15 -29.2821 2.5
      vertex 6.3405e-15 -28.5551 3.44904
      vertex 5.46429 -28.8167 2.5
    endloop
  endfacet
  facet normal -0.0674431 0.791839 -0.606994
    outer loop
      vertex 5.31626 -28.036 3.53553
      vertex 6.3405e-15 -28.5551 3.44904
      vertex 6.32578e-15 -28.4888 3.53553
    endloop
  endfacet
  facet normal -0.0674644 0.792019 -0.606758
    outer loop
      vertex 6.3405e-15 -28.5551 3.44904
      vertex 5.31626 -28.036 3.53553
      vertex 5.46429 -28.8167 2.5
    endloop
  endfacet
  facet normal -0.0784768 0.921257 -0.380954
    outer loop
      vertex 6.61266e-15 -29.7808 1.2941
      vertex 6.51127e-15 -29.3242 2.39829
      vertex 5.55735 -29.3074 1.2941
    endloop
  endfacet
  facet normal -0.0784535 0.921127 -0.381275
    outer loop
      vertex 5.46429 -28.8167 2.5
      vertex 6.51127e-15 -29.3242 2.39829
      vertex 6.50193e-15 -29.2821 2.5
    endloop
  endfacet
  facet normal -0.0784727 0.921266 -0.380934
    outer loop
      vertex 6.51127e-15 -29.3242 2.39829
      vertex 5.46429 -28.8167 2.5
      vertex 5.55735 -29.3074 1.2941
    endloop
  endfacet
  facet normal -0.0841578 0.987955 -0.129855
    outer loop
      vertex 6.65043e-15 -29.9509 0
      vertex 6.61588e-15 -29.7953 1.18383
      vertex 5.58909 -29.4748 0
    endloop
  endfacet
  facet normal -0.0841578 0.987948 -0.129911
    outer loop
      vertex 5.55735 -29.3074 1.2941
      vertex 6.61588e-15 -29.7953 1.18383
      vertex 6.61266e-15 -29.7808 1.2941
    endloop
  endfacet
  facet normal -0.0841593 0.987954 -0.129862
    outer loop
      vertex 6.61588e-15 -29.7953 1.18383
      vertex 5.55735 -29.3074 1.2941
      vertex 5.58909 -29.4748 0
    endloop
  endfacet
  facet normal 0.283369 -0.950178 -0.129862
    outer loop
      vertex 3.7578 -19.8173 1.2941
      vertex 3.72606 -19.6499 0
      vertex 7.71049 -18.6385 1.2941
    endloop
  endfacet
  facet normal 0.283361 -0.950185 -0.129831
    outer loop
      vertex 7.71049 -18.6385 1.2941
      vertex 3.72606 -19.6499 0
      vertex 7.64536 -18.4811 0
    endloop
  endfacet
  facet normal 0.264223 -0.886044 -0.380936
    outer loop
      vertex 3.85086 -20.308 2.5
      vertex 3.7578 -19.8173 1.2941
      vertex 7.90143 -19.1001 2.5
    endloop
  endfacet
  facet normal 0.264234 -0.886017 -0.380992
    outer loop
      vertex 7.90143 -19.1001 2.5
      vertex 3.7578 -19.8173 1.2941
      vertex 7.71049 -18.6385 1.2941
    endloop
  endfacet
  facet normal 0.227165 -0.761735 -0.606758
    outer loop
      vertex 3.9989 -21.0887 3.53553
      vertex 3.85086 -20.308 2.5
      vertex 8.20518 -19.8343 3.53553
    endloop
  endfacet
  facet normal 0.227161 -0.761761 -0.606728
    outer loop
      vertex 8.20518 -19.8343 3.53553
      vertex 3.85086 -20.308 2.5
      vertex 7.90143 -19.1001 2.5
    endloop
  endfacet
  facet normal 0.174548 -0.585307 -0.791801
    outer loop
      vertex 4.19182 -22.1061 4.33013
      vertex 3.9989 -21.0887 3.53553
      vertex 8.60103 -20.7912 4.33013
    endloop
  endfacet
  facet normal 0.174549 -0.5853 -0.791806
    outer loop
      vertex 8.60103 -20.7912 4.33013
      vertex 3.9989 -21.0887 3.53553
      vertex 8.20518 -19.8343 3.53553
    endloop
  endfacet
  facet normal 0.109855 -0.368367 -0.923167
    outer loop
      vertex 4.41648 -23.2909 4.82963
      vertex 4.19182 -22.1061 4.33013
      vertex 9.06201 -21.9055 4.82963
    endloop
  endfacet
  facet normal 0.109855 -0.368374 -0.923164
    outer loop
      vertex 9.06201 -21.9055 4.82963
      vertex 4.19182 -22.1061 4.33013
      vertex 8.60103 -20.7912 4.33013
    endloop
  endfacet
  facet normal 0.0374957 -0.125733 -0.991355
    outer loop
      vertex 4.65758 -24.5623 5
      vertex 4.41648 -23.2909 4.82963
      vertex 9.5567 -23.1013 5
    endloop
  endfacet
  facet normal 0.0374956 -0.125731 -0.991356
    outer loop
      vertex 9.5567 -23.1013 5
      vertex 4.41648 -23.2909 4.82963
      vertex 9.06201 -21.9055 4.82963
    endloop
  endfacet
  facet normal -0.0374946 0.125724 -0.991356
    outer loop
      vertex 4.89867 -25.8338 4.82963
      vertex 4.65758 -24.5623 5
      vertex 10.0514 -24.2971 4.82963
    endloop
  endfacet
  facet normal -0.0374949 0.12573 -0.991356
    outer loop
      vertex 10.0514 -24.2971 4.82963
      vertex 4.65758 -24.5623 5
      vertex 9.5567 -23.1013 5
    endloop
  endfacet
  facet normal -0.109853 0.368368 -0.923167
    outer loop
      vertex 5.12333 -27.0186 4.33013
      vertex 4.89867 -25.8338 4.82963
      vertex 10.5124 -25.4115 4.33013
    endloop
  endfacet
  facet normal -0.109852 0.368346 -0.923176
    outer loop
      vertex 10.5124 -25.4115 4.33013
      vertex 4.89867 -25.8338 4.82963
      vertex 10.0514 -24.2971 4.82963
    endloop
  endfacet
  facet normal -0.174557 0.585304 -0.791801
    outer loop
      vertex 5.31626 -28.036 3.53553
      vertex 5.12333 -27.0186 4.33013
      vertex 10.9082 -26.3683 3.53553
    endloop
  endfacet
  facet normal -0.174557 0.585341 -0.791774
    outer loop
      vertex 10.9082 -26.3683 3.53553
      vertex 5.12333 -27.0186 4.33013
      vertex 10.5124 -25.4115 4.33013
    endloop
  endfacet
  facet normal -0.227167 0.761736 -0.606757
    outer loop
      vertex 5.46429 -28.8167 2.5
      vertex 5.31626 -28.036 3.53553
      vertex 11.212 -27.1026 2.5
    endloop
  endfacet
  facet normal -0.227168 0.761715 -0.606782
    outer loop
      vertex 11.212 -27.1026 2.5
      vertex 5.31626 -28.036 3.53553
      vertex 10.9082 -26.3683 3.53553
    endloop
  endfacet
  facet normal -0.264227 0.886043 -0.380936
    outer loop
      vertex 5.55735 -29.3074 1.2941
      vertex 5.46429 -28.8167 2.5
      vertex 11.4029 -27.5642 1.2941
    endloop
  endfacet
  facet normal -0.264232 0.886021 -0.380984
    outer loop
      vertex 11.4029 -27.5642 1.2941
      vertex 5.46429 -28.8167 2.5
      vertex 11.212 -27.1026 2.5
    endloop
  endfacet
  facet normal -0.283361 0.95018 -0.129862
    outer loop
      vertex 5.58909 -29.4748 0
      vertex 5.55735 -29.3074 1.2941
      vertex 11.468 -27.7216 0
    endloop
  endfacet
  facet normal -0.283355 0.950187 -0.129824
    outer loop
      vertex 11.468 -27.7216 0
      vertex 5.55735 -29.3074 1.2941
      vertex 11.4029 -27.5642 1.2941
    endloop
  endfacet
  facet normal 0.470734 -0.87267 -0.129833
    outer loop
      vertex 7.71049 -18.6385 1.2941
      vertex 7.64536 -18.4811 0
      vertex 11.3407 -16.6803 1.2941
    endloop
  endfacet
  facet normal 0.47074 -0.872662 -0.129862
    outer loop
      vertex 11.3407 -16.6803 1.2941
      vertex 7.64536 -18.4811 0
      vertex 11.2449 -16.5394 0
    endloop
  endfacet
  facet normal 0.438942 -0.813743 -0.380989
    outer loop
      vertex 7.90143 -19.1001 2.5
      vertex 7.71049 -18.6385 1.2941
      vertex 11.6216 -17.0934 2.5
    endloop
  endfacet
  facet normal 0.438943 -0.813735 -0.381004
    outer loop
      vertex 11.6216 -17.0934 2.5
      vertex 7.71049 -18.6385 1.2941
      vertex 11.3407 -16.6803 1.2941
    endloop
  endfacet
  facet normal 0.377379 -0.699617 -0.60673
    outer loop
      vertex 8.20518 -19.8343 3.53553
      vertex 7.90143 -19.1001 2.5
      vertex 12.0683 -17.7505 3.53553
    endloop
  endfacet
  facet normal 0.377379 -0.699613 -0.606734
    outer loop
      vertex 12.0683 -17.7505 3.53553
      vertex 7.90143 -19.1001 2.5
      vertex 11.6216 -17.0934 2.5
    endloop
  endfacet
  facet normal 0.289965 -0.537554 -0.791805
    outer loop
      vertex 8.60103 -20.7912 4.33013
      vertex 8.20518 -19.8343 3.53553
      vertex 12.6506 -18.6068 4.33013
    endloop
  endfacet
  facet normal 0.289966 -0.537564 -0.791799
    outer loop
      vertex 12.6506 -18.6068 4.33013
      vertex 8.20518 -19.8343 3.53553
      vertex 12.0683 -17.7505 3.53553
    endloop
  endfacet
  facet normal 0.182492 -0.338325 -0.923165
    outer loop
      vertex 9.06201 -21.9055 4.82963
      vertex 8.60103 -20.7912 4.33013
      vertex 13.3286 -19.6041 4.82963
    endloop
  endfacet
  facet normal 0.182489 -0.338309 -0.923171
    outer loop
      vertex 13.3286 -19.6041 4.82963
      vertex 8.60103 -20.7912 4.33013
      vertex 12.6506 -18.6068 4.33013
    endloop
  endfacet
  facet normal 0.0622864 -0.115475 -0.991356
    outer loop
      vertex 9.5567 -23.1013 5
      vertex 9.06201 -21.9055 4.82963
      vertex 14.0562 -20.6743 5
    endloop
  endfacet
  facet normal 0.0622857 -0.115472 -0.991356
    outer loop
      vertex 14.0562 -20.6743 5
      vertex 9.06201 -21.9055 4.82963
      vertex 13.3286 -19.6041 4.82963
    endloop
  endfacet
  facet normal -0.0622876 0.115474 -0.991356
    outer loop
      vertex 10.0514 -24.2971 4.82963
      vertex 9.5567 -23.1013 5
      vertex 14.7838 -21.7444 4.82963
    endloop
  endfacet
  facet normal -0.0622893 0.11548 -0.991355
    outer loop
      vertex 14.7838 -21.7444 4.82963
      vertex 9.5567 -23.1013 5
      vertex 14.0562 -20.6743 5
    endloop
  endfacet
  facet normal -0.182485 0.338299 -0.923175
    outer loop
      vertex 10.5124 -25.4115 4.33013
      vertex 10.0514 -24.2971 4.82963
      vertex 15.4618 -22.7417 4.33013
    endloop
  endfacet
  facet normal -0.182488 0.338311 -0.923171
    outer loop
      vertex 15.4618 -22.7417 4.33013
      vertex 10.0514 -24.2971 4.82963
      vertex 14.7838 -21.7444 4.82963
    endloop
  endfacet
  facet normal -0.289982 0.537592 -0.791773
    outer loop
      vertex 10.9082 -26.3683 3.53553
      vertex 10.5124 -25.4115 4.33013
      vertex 16.044 -23.598 3.53553
    endloop
  endfacet
  facet normal -0.289979 0.537576 -0.791785
    outer loop
      vertex 16.044 -23.598 3.53553
      vertex 10.5124 -25.4115 4.33013
      vertex 15.4618 -22.7417 4.33013
    endloop
  endfacet
  facet normal -0.377356 0.699582 -0.606785
    outer loop
      vertex 11.212 -27.1026 2.5
      vertex 10.9082 -26.3683 3.53553
      vertex 16.4908 -24.2552 2.5
    endloop
  endfacet
  facet normal -0.377355 0.69957 -0.6068
    outer loop
      vertex 16.4908 -24.2552 2.5
      vertex 10.9082 -26.3683 3.53553
      vertex 16.044 -23.598 3.53553
    endloop
  endfacet
  facet normal -0.438952 0.813743 -0.380977
    outer loop
      vertex 11.4029 -27.5642 1.2941
      vertex 11.212 -27.1026 2.5
      vertex 16.7716 -24.6682 1.2941
    endloop
  endfacet
  facet normal -0.438951 0.813772 -0.380915
    outer loop
      vertex 16.7716 -24.6682 1.2941
      vertex 11.212 -27.1026 2.5
      vertex 16.4908 -24.2552 2.5
    endloop
  endfacet
  facet normal -0.47073 0.872673 -0.129823
    outer loop
      vertex 11.468 -27.7216 0
      vertex 11.4029 -27.5642 1.2941
      vertex 16.8674 -24.8091 0
    endloop
  endfacet
  facet normal -0.470735 0.872665 -0.129862
    outer loop
      vertex 16.8674 -24.8091 0
      vertex 11.4029 -27.5642 1.2941
      vertex 16.7716 -24.6682 1.2941
    endloop
  endfacet
  facet normal 0.638402 -0.758669 -0.129863
    outer loop
      vertex 11.3407 -16.6803 1.2941
      vertex 11.2449 -16.5394 0
      vertex 14.4967 -14.0246 1.2941
    endloop
  endfacet
  facet normal 0.638401 -0.758672 -0.129853
    outer loop
      vertex 14.4967 -14.0246 1.2941
      vertex 11.2449 -16.5394 0
      vertex 14.3743 -13.9061 0
    endloop
  endfacet
  facet normal 0.5953 -0.707426 -0.381008
    outer loop
      vertex 11.6216 -17.0934 2.5
      vertex 11.3407 -16.6803 1.2941
      vertex 14.8557 -14.3719 2.5
    endloop
  endfacet
  facet normal 0.5953 -0.707447 -0.380968
    outer loop
      vertex 14.8557 -14.3719 2.5
      vertex 11.3407 -16.6803 1.2941
      vertex 14.4967 -14.0246 1.2941
    endloop
  endfacet
  facet normal 0.511805 -0.608223 -0.606729
    outer loop
      vertex 12.0683 -17.7505 3.53553
      vertex 11.6216 -17.0934 2.5
      vertex 15.4268 -14.9244 3.53553
    endloop
  endfacet
  facet normal 0.511799 -0.608198 -0.60676
    outer loop
      vertex 15.4268 -14.9244 3.53553
      vertex 11.6216 -17.0934 2.5
      vertex 14.8557 -14.3719 2.5
    endloop
  endfacet
  facet normal 0.393249 -0.467335 -0.791804
    outer loop
      vertex 12.6506 -18.6068 4.33013
      vertex 12.0683 -17.7505 3.53553
      vertex 16.1711 -15.6444 4.33013
    endloop
  endfacet
  facet normal 0.393247 -0.467329 -0.791808
    outer loop
      vertex 16.1711 -15.6444 4.33013
      vertex 12.0683 -17.7505 3.53553
      vertex 15.4268 -14.9244 3.53553
    endloop
  endfacet
  facet normal 0.247493 -0.294117 -0.92317
    outer loop
      vertex 13.3286 -19.6041 4.82963
      vertex 12.6506 -18.6068 4.33013
      vertex 17.0378 -16.4829 4.82963
    endloop
  endfacet
  facet normal 0.247494 -0.29412 -0.923169
    outer loop
      vertex 17.0378 -16.4829 4.82963
      vertex 12.6506 -18.6068 4.33013
      vertex 16.1711 -15.6444 4.33013
    endloop
  endfacet
  facet normal 0.0844734 -0.100387 -0.991356
    outer loop
      vertex 14.0562 -20.6743 5
      vertex 13.3286 -19.6041 4.82963
      vertex 17.9679 -17.3827 5
    endloop
  endfacet
  facet normal 0.0844735 -0.100387 -0.991356
    outer loop
      vertex 17.9679 -17.3827 5
      vertex 13.3286 -19.6041 4.82963
      vertex 17.0378 -16.4829 4.82963
    endloop
  endfacet
  facet normal -0.0844768 0.100394 -0.991355
    outer loop
      vertex 14.7838 -21.7444 4.82963
      vertex 14.0562 -20.6743 5
      vertex 18.898 -18.2825 4.82963
    endloop
  endfacet
  facet normal -0.0844735 0.100387 -0.991356
    outer loop
      vertex 18.898 -18.2825 4.82963
      vertex 14.0562 -20.6743 5
      vertex 17.9679 -17.3827 5
    endloop
  endfacet
  facet normal -0.247493 0.294117 -0.92317
    outer loop
      vertex 15.4618 -22.7417 4.33013
      vertex 14.7838 -21.7444 4.82963
      vertex 19.7647 -19.1209 4.33013
    endloop
  endfacet
  facet normal -0.247504 0.294139 -0.92316
    outer loop
      vertex 19.7647 -19.1209 4.33013
      vertex 14.7838 -21.7444 4.82963
      vertex 18.898 -18.2825 4.82963
    endloop
  endfacet
  facet normal -0.393265 0.467352 -0.791786
    outer loop
      vertex 16.044 -23.598 3.53553
      vertex 15.4618 -22.7417 4.33013
      vertex 20.5089 -19.8409 3.53553
    endloop
  endfacet
  facet normal -0.393263 0.467347 -0.79179
    outer loop
      vertex 20.5089 -19.8409 3.53553
      vertex 15.4618 -22.7417 4.33013
      vertex 19.7647 -19.1209 4.33013
    endloop
  endfacet
  facet normal -0.511779 0.608177 -0.606797
    outer loop
      vertex 16.4908 -24.2552 2.5
      vertex 16.044 -23.598 3.53553
      vertex 21.08 -20.3934 2.5
    endloop
  endfacet
  facet normal -0.51179 0.608206 -0.606759
    outer loop
      vertex 21.08 -20.3934 2.5
      vertex 16.044 -23.598 3.53553
      vertex 20.5089 -19.8409 3.53553
    endloop
  endfacet
  facet normal -0.595313 0.707464 -0.380916
    outer loop
      vertex 16.7716 -24.6682 1.2941
      vertex 16.4908 -24.2552 2.5
      vertex 21.439 -20.7407 1.2941
    endloop
  endfacet
  facet normal -0.595309 0.70744 -0.380968
    outer loop
      vertex 21.439 -20.7407 1.2941
      vertex 16.4908 -24.2552 2.5
      vertex 21.08 -20.3934 2.5
    endloop
  endfacet
  facet normal -0.638403 0.758668 -0.129863
    outer loop
      vertex 16.8674 -24.8091 0
      vertex 16.7716 -24.6682 1.2941
      vertex 21.5614 -20.8592 0
    endloop
  endfacet
  facet normal -0.638402 0.75867 -0.129853
    outer loop
      vertex 21.5614 -20.8592 0
      vertex 16.7716 -24.6682 1.2941
      vertex 21.439 -20.7407 1.2941
    endloop
  endfacet
  facet normal 0.779386 -0.612942 -0.129844
    outer loop
      vertex 14.4967 -14.0246 1.2941
      vertex 14.3743 -13.9061 0
      vertex 17.0465 -10.7824 1.2941
    endloop
  endfacet
  facet normal 0.779384 -0.612951 -0.129815
    outer loop
      vertex 17.0465 -10.7824 1.2941
      vertex 14.3743 -13.9061 0
      vertex 16.9026 -10.6913 0
    endloop
  endfacet
  facet normal 0.726758 -0.571564 -0.380969
    outer loop
      vertex 14.8557 -14.3719 2.5
      vertex 14.4967 -14.0246 1.2941
      vertex 17.4687 -11.0494 2.5
    endloop
  endfacet
  facet normal 0.726756 -0.571551 -0.380994
    outer loop
      vertex 17.4687 -11.0494 2.5
      vertex 14.4967 -14.0246 1.2941
      vertex 17.0465 -10.7824 1.2941
    endloop
  endfacet
  facet normal 0.624811 -0.491381 -0.606759
    outer loop
      vertex 15.4268 -14.9244 3.53553
      vertex 14.8557 -14.3719 2.5
      vertex 18.1402 -11.4742 3.53553
    endloop
  endfacet
  facet normal 0.624815 -0.491389 -0.606748
    outer loop
      vertex 18.1402 -11.4742 3.53553
      vertex 14.8557 -14.3719 2.5
      vertex 17.4687 -11.0494 2.5
    endloop
  endfacet
  facet normal 0.480084 -0.377565 -0.791811
    outer loop
      vertex 16.1711 -15.6444 4.33013
      vertex 15.4268 -14.9244 3.53553
      vertex 19.0154 -12.0278 4.33013
    endloop
  endfacet
  facet normal 0.480078 -0.377556 -0.791819
    outer loop
      vertex 19.0154 -12.0278 4.33013
      vertex 15.4268 -14.9244 3.53553
      vertex 18.1402 -11.4742 3.53553
    endloop
  endfacet
  facet normal 0.302153 -0.237623 -0.923168
    outer loop
      vertex 17.0378 -16.4829 4.82963
      vertex 16.1711 -15.6444 4.33013
      vertex 20.0345 -12.6724 4.82963
    endloop
  endfacet
  facet normal 0.302165 -0.237639 -0.92316
    outer loop
      vertex 20.0345 -12.6724 4.82963
      vertex 16.1711 -15.6444 4.33013
      vertex 19.0154 -12.0278 4.33013
    endloop
  endfacet
  facet normal 0.103128 -0.0811041 -0.991356
    outer loop
      vertex 17.9679 -17.3827 5
      vertex 17.0378 -16.4829 4.82963
      vertex 21.1282 -13.3642 5
    endloop
  endfacet
  facet normal 0.103127 -0.0811027 -0.991356
    outer loop
      vertex 21.1282 -13.3642 5
      vertex 17.0378 -16.4829 4.82963
      vertex 20.0345 -12.6724 4.82963
    endloop
  endfacet
  facet normal -0.103128 0.0811044 -0.991356
    outer loop
      vertex 18.898 -18.2825 4.82963
      vertex 17.9679 -17.3827 5
      vertex 22.2219 -14.056 4.82963
    endloop
  endfacet
  facet normal -0.103127 0.0811031 -0.991356
    outer loop
      vertex 22.2219 -14.056 4.82963
      vertex 17.9679 -17.3827 5
      vertex 21.1282 -13.3642 5
    endloop
  endfacet
  facet normal -0.302165 0.237634 -0.923161
    outer loop
      vertex 19.7647 -19.1209 4.33013
      vertex 18.898 -18.2825 4.82963
      vertex 23.241 -14.7006 4.33013
    endloop
  endfacet
  facet normal -0.302166 0.237637 -0.92316
    outer loop
      vertex 23.241 -14.7006 4.33013
      vertex 18.898 -18.2825 4.82963
      vertex 22.2219 -14.056 4.82963
    endloop
  endfacet
  facet normal -0.480103 0.377587 -0.791789
    outer loop
      vertex 20.5089 -19.8409 3.53553
      vertex 19.7647 -19.1209 4.33013
      vertex 24.1162 -15.2542 3.53553
    endloop
  endfacet
  facet normal -0.480079 0.377554 -0.791819
    outer loop
      vertex 24.1162 -15.2542 3.53553
      vertex 19.7647 -19.1209 4.33013
      vertex 23.241 -14.7006 4.33013
    endloop
  endfacet
  facet normal -0.624811 0.49138 -0.606759
    outer loop
      vertex 21.08 -20.3934 2.5
      vertex 20.5089 -19.8409 3.53553
      vertex 24.7877 -15.6789 2.5
    endloop
  endfacet
  facet normal -0.624829 0.491409 -0.606717
    outer loop
      vertex 24.7877 -15.6789 2.5
      vertex 20.5089 -19.8409 3.53553
      vertex 24.1162 -15.2542 3.53553
    endloop
  endfacet
  facet normal -0.726766 0.571554 -0.380968
    outer loop
      vertex 21.439 -20.7407 1.2941
      vertex 21.08 -20.3934 2.5
      vertex 25.2098 -15.9459 1.2941
    endloop
  endfacet
  facet normal -0.726771 0.571566 -0.380942
    outer loop
      vertex 25.2098 -15.9459 1.2941
      vertex 21.08 -20.3934 2.5
      vertex 24.7877 -15.6789 2.5
    endloop
  endfacet
  facet normal -0.779385 0.612944 -0.129844
    outer loop
      vertex 21.5614 -20.8592 0
      vertex 21.439 -20.7407 1.2941
      vertex 25.3538 -16.037 0
    endloop
  endfacet
  facet normal -0.779386 0.612936 -0.129874
    outer loop
      vertex 25.3538 -16.037 0
      vertex 21.439 -20.7407 1.2941
      vertex 25.2098 -15.9459 1.2941
    endloop
  endfacet
  facet normal 0.887774 -0.441596 -0.129805
    outer loop
      vertex 17.0465 -10.7824 1.2941
      vertex 16.9026 -10.6913 0
      vertex 18.8835 -7.08934 1.2941
    endloop
  endfacet
  facet normal 0.887776 -0.44158 -0.129852
    outer loop
      vertex 18.8835 -7.08934 1.2941
      vertex 16.9026 -10.6913 0
      vertex 18.724 -7.02946 0
    endloop
  endfacet
  facet normal 0.827825 -0.411758 -0.380999
    outer loop
      vertex 17.4687 -11.0494 2.5
      vertex 17.0465 -10.7824 1.2941
      vertex 19.3511 -7.2649 2.5
    endloop
  endfacet
  facet normal 0.827836 -0.411782 -0.380951
    outer loop
      vertex 19.3511 -7.2649 2.5
      vertex 17.0465 -10.7824 1.2941
      vertex 18.8835 -7.08934 1.2941
    endloop
  endfacet
  facet normal 0.711716 -0.354009 -0.606743
    outer loop
      vertex 18.1402 -11.4742 3.53553
      vertex 17.4687 -11.0494 2.5
      vertex 20.095 -7.54418 3.53553
    endloop
  endfacet
  facet normal 0.711712 -0.354004 -0.606751
    outer loop
      vertex 20.095 -7.54418 3.53553
      vertex 17.4687 -11.0494 2.5
      vertex 19.3511 -7.2649 2.5
    endloop
  endfacet
  facet normal 0.546846 -0.271999 -0.791818
    outer loop
      vertex 19.0154 -12.0278 4.33013
      vertex 18.1402 -11.4742 3.53553
      vertex 21.0645 -7.90814 4.33013
    endloop
  endfacet
  facet normal 0.546853 -0.272006 -0.791811
    outer loop
      vertex 21.0645 -7.90814 4.33013
      vertex 18.1402 -11.4742 3.53553
      vertex 20.095 -7.54418 3.53553
    endloop
  endfacet
  facet normal 0.344186 -0.171204 -0.92316
    outer loop
      vertex 20.0345 -12.6724 4.82963
      vertex 19.0154 -12.0278 4.33013
      vertex 22.1935 -8.33198 4.82963
    endloop
  endfacet
  facet normal 0.344169 -0.171188 -0.92317
    outer loop
      vertex 22.1935 -8.33198 4.82963
      vertex 19.0154 -12.0278 4.33013
      vertex 21.0645 -7.90814 4.33013
    endloop
  endfacet
  facet normal 0.117469 -0.0584294 -0.991356
    outer loop
      vertex 21.1282 -13.3642 5
      vertex 20.0345 -12.6724 4.82963
      vertex 23.405 -8.78682 5
    endloop
  endfacet
  facet normal 0.117474 -0.0584334 -0.991355
    outer loop
      vertex 23.405 -8.78682 5
      vertex 20.0345 -12.6724 4.82963
      vertex 22.1935 -8.33198 4.82963
    endloop
  endfacet
  facet normal -0.11747 0.0584282 -0.991356
    outer loop
      vertex 22.2219 -14.056 4.82963
      vertex 21.1282 -13.3642 5
      vertex 24.6165 -9.24166 4.82963
    endloop
  endfacet
  facet normal -0.117474 0.058432 -0.991355
    outer loop
      vertex 24.6165 -9.24166 4.82963
      vertex 21.1282 -13.3642 5
      vertex 23.405 -8.78682 5
    endloop
  endfacet
  facet normal -0.344188 0.171202 -0.92316
    outer loop
      vertex 23.241 -14.7006 4.33013
      vertex 22.2219 -14.056 4.82963
      vertex 25.7455 -9.6655 4.33013
    endloop
  endfacet
  facet normal -0.34417 0.171186 -0.92317
    outer loop
      vertex 25.7455 -9.6655 4.33013
      vertex 22.2219 -14.056 4.82963
      vertex 24.6165 -9.24166 4.82963
    endloop
  endfacet
  facet normal -0.546848 0.271995 -0.791818
    outer loop
      vertex 24.1162 -15.2542 3.53553
      vertex 23.241 -14.7006 4.33013
      vertex 26.7149 -10.0295 3.53553
    endloop
  endfacet
  facet normal -0.546876 0.27202 -0.79179
    outer loop
      vertex 26.7149 -10.0295 3.53553
      vertex 23.241 -14.7006 4.33013
      vertex 25.7455 -9.6655 4.33013
    endloop
  endfacet
  facet normal -0.711734 0.354011 -0.606721
    outer loop
      vertex 24.7877 -15.6789 2.5
      vertex 24.1162 -15.2542 3.53553
      vertex 27.4588 -10.3087 2.5
    endloop
  endfacet
  facet normal -0.711727 0.354004 -0.606734
    outer loop
      vertex 27.4588 -10.3087 2.5
      vertex 24.1162 -15.2542 3.53553
      vertex 26.7149 -10.0295 3.53553
    endloop
  endfacet
  facet normal -0.82784 0.411783 -0.380941
    outer loop
      vertex 25.2098 -15.9459 1.2941
      vertex 24.7877 -15.6789 2.5
      vertex 27.9265 -10.4843 1.2941
    endloop
  endfacet
  facet normal -0.827818 0.411751 -0.381022
    outer loop
      vertex 27.9265 -10.4843 1.2941
      vertex 24.7877 -15.6789 2.5
      vertex 27.4588 -10.3087 2.5
    endloop
  endfacet
  facet normal -0.887768 0.441589 -0.129872
    outer loop
      vertex 25.3538 -16.037 0
      vertex 25.2098 -15.9459 1.2941
      vertex 28.086 -10.5442 0
    endloop
  endfacet
  facet normal -0.887768 0.441592 -0.129859
    outer loop
      vertex 28.086 -10.5442 0
      vertex 25.2098 -15.9459 1.2941
      vertex 27.9265 -10.4843 1.2941
    endloop
  endfacet
  facet normal 0.959039 -0.251759 -0.129852
    outer loop
      vertex 18.8835 -7.08934 1.2941
      vertex 18.724 -7.02946 0
      vertex 19.9308 -3.0998 1.2941
    endloop
  endfacet
  facet normal 0.959037 -0.251745 -0.129891
    outer loop
      vertex 19.9308 -3.0998 1.2941
      vertex 18.724 -7.02946 0
      vertex 19.7624 -3.07362 0
    endloop
  endfacet
  facet normal 0.894291 -0.234776 -0.38095
    outer loop
      vertex 19.3511 -7.2649 2.5
      vertex 18.8835 -7.08934 1.2941
      vertex 20.4244 -3.17657 2.5
    endloop
  endfacet
  facet normal 0.894278 -0.234758 -0.380992
    outer loop
      vertex 20.4244 -3.17657 2.5
      vertex 18.8835 -7.08934 1.2941
      vertex 19.9308 -3.0998 1.2941
    endloop
  endfacet
  facet normal 0.768842 -0.201831 -0.606751
    outer loop
      vertex 20.095 -7.54418 3.53553
      vertex 19.3511 -7.2649 2.5
      vertex 21.2095 -3.29868 3.53553
    endloop
  endfacet
  facet normal 0.76886 -0.201847 -0.606723
    outer loop
      vertex 21.2095 -3.29868 3.53553
      vertex 19.3511 -7.2649 2.5
      vertex 20.4244 -3.17657 2.5
    endloop
  endfacet
  facet normal 0.590752 -0.155071 -0.791811
    outer loop
      vertex 21.0645 -7.90814 4.33013
      vertex 20.095 -7.54418 3.53553
      vertex 22.2327 -3.45782 4.33013
    endloop
  endfacet
  facet normal 0.590773 -0.155086 -0.791793
    outer loop
      vertex 22.2327 -3.45782 4.33013
      vertex 20.095 -7.54418 3.53553
      vertex 21.2095 -3.29868 3.53553
    endloop
  endfacet
  facet normal 0.371797 -0.0975952 -0.92317
    outer loop
      vertex 22.1935 -8.33198 4.82963
      vertex 21.0645 -7.90814 4.33013
      vertex 23.4243 -3.64315 4.82963
    endloop
  endfacet
  facet normal 0.371799 -0.0975964 -0.923169
    outer loop
      vertex 23.4243 -3.64315 4.82963
      vertex 21.0645 -7.90814 4.33013
      vertex 22.2327 -3.45782 4.33013
    endloop
  endfacet
  facet normal 0.126905 -0.0333124 -0.991355
    outer loop
      vertex 23.405 -8.78682 5
      vertex 22.1935 -8.33198 4.82963
      vertex 24.703 -3.84203 5
    endloop
  endfacet
  facet normal 0.126904 -0.0333118 -0.991355
    outer loop
      vertex 24.703 -3.84203 5
      vertex 22.1935 -8.33198 4.82963
      vertex 23.4243 -3.64315 4.82963
    endloop
  endfacet
  facet normal -0.126904 0.0333148 -0.991355
    outer loop
      vertex 24.6165 -9.24166 4.82963
      vertex 23.405 -8.78682 5
      vertex 25.9818 -4.0409 4.82963
    endloop
  endfacet
  facet normal -0.126895 0.0333097 -0.991357
    outer loop
      vertex 25.9818 -4.0409 4.82963
      vertex 23.405 -8.78682 5
      vertex 24.703 -3.84203 5
    endloop
  endfacet
  facet normal -0.371796 0.097596 -0.92317
    outer loop
      vertex 25.7455 -9.6655 4.33013
      vertex 24.6165 -9.24166 4.82963
      vertex 27.1733 -4.22623 4.33013
    endloop
  endfacet
  facet normal -0.371823 0.0976107 -0.923158
    outer loop
      vertex 27.1733 -4.22623 4.33013
      vertex 24.6165 -9.24166 4.82963
      vertex 25.9818 -4.0409 4.82963
    endloop
  endfacet
  facet normal -0.590779 0.155092 -0.791787
    outer loop
      vertex 26.7149 -10.0295 3.53553
      vertex 25.7455 -9.6655 4.33013
      vertex 28.1966 -4.38537 3.53553
    endloop
  endfacet
  facet normal -0.590739 0.155068 -0.791821
    outer loop
      vertex 28.1966 -4.38537 3.53553
      vertex 25.7455 -9.6655 4.33013
      vertex 27.1733 -4.22623 4.33013
    endloop
  endfacet
  facet normal -0.768849 0.201833 -0.606741
    outer loop
      vertex 27.4588 -10.3087 2.5
      vertex 26.7149 -10.0295 3.53553
      vertex 28.9817 -4.50748 2.5
    endloop
  endfacet
  facet normal -0.768861 0.201842 -0.606723
    outer loop
      vertex 28.9817 -4.50748 2.5
      vertex 26.7149 -10.0295 3.53553
      vertex 28.1966 -4.38537 3.53553
    endloop
  endfacet
  facet normal -0.894268 0.234751 -0.38102
    outer loop
      vertex 27.9265 -10.4843 1.2941
      vertex 27.4588 -10.3087 2.5
      vertex 29.4753 -4.58425 1.2941
    endloop
  endfacet
  facet normal -0.894278 0.23476 -0.380992
    outer loop
      vertex 29.4753 -4.58425 1.2941
      vertex 27.4588 -10.3087 2.5
      vertex 28.9817 -4.50748 2.5
    endloop
  endfacet
  facet normal -0.959042 0.251746 -0.129856
    outer loop
      vertex 28.086 -10.5442 0
      vertex 27.9265 -10.4843 1.2941
      vertex 29.6436 -4.61043 0
    endloop
  endfacet
  facet normal -0.959045 0.251755 -0.129819
    outer loop
      vertex 29.6436 -4.61043 0
      vertex 27.9265 -10.4843 1.2941
      vertex 29.4753 -4.58425 1.2941
    endloop
  endfacet
  facet normal 0.990171 -0.0513971 -0.130074
    outer loop
      vertex 19.9308 -3.0998 1.2941
      vertex 20.1116 0.666047 1.18239
      vertex 20.1263 0.666533 1.2941
    endloop
  endfacet
  facet normal 0.990195 -0.0513929 -0.129893
    outer loop
      vertex 20.1116 0.666047 1.18239
      vertex 19.9308 -3.0998 1.2941
      vertex 19.7624 -3.07362 0
    endloop
  endfacet
  facet normal 0.990202 -0.0514122 -0.129834
    outer loop
      vertex 20.1116 0.666047 1.18239
      vertex 19.7624 -3.07362 0
      vertex 19.9563 0.660903 0
    endloop
  endfacet
  facet normal 0.92351 -0.0479269 -0.380569
    outer loop
      vertex 20.4244 -3.17657 2.5
      vertex 20.5811 0.681593 2.39438
      vertex 20.6247 0.683039 2.5
    endloop
  endfacet
  facet normal 0.923335 -0.0479314 -0.380992
    outer loop
      vertex 20.5811 0.681593 2.39438
      vertex 20.4244 -3.17657 2.5
      vertex 19.9308 -3.0998 1.2941
    endloop
  endfacet
  facet normal 0.923335 -0.0479313 -0.380992
    outer loop
      vertex 19.9308 -3.0998 1.2941
      vertex 20.4663 0.677792 2.11664
      vertex 20.5811 0.681593 2.39438
    endloop
  endfacet
  facet normal 0.92333 -0.0479275 -0.381006
    outer loop
      vertex 20.4663 0.677792 2.11664
      vertex 19.9308 -3.0998 1.2941
      vertex 20.1263 0.666533 1.2941
    endloop
  endfacet
  facet normal 0.79377 -0.0412137 -0.60682
    outer loop
      vertex 21.2095 -3.29868 3.53553
      vertex 21.3473 0.706968 3.44373
      vertex 21.4176 0.709296 3.53553
    endloop
  endfacet
  facet normal 0.793844 -0.041214 -0.606723
    outer loop
      vertex 21.3473 0.706968 3.44373
      vertex 21.2095 -3.29868 3.53553
      vertex 20.4244 -3.17657 2.5
    endloop
  endfacet
  facet normal 0.793812 -0.041196 -0.606766
    outer loop
      vertex 21.3473 0.706968 3.44373
      vertex 20.4244 -3.17657 2.5
      vertex 20.6247 0.683039 2.5
    endloop
  endfacet
  facet normal 0.610333 -0.0316837 -0.791511
    outer loop
      vertex 22.2327 -3.45782 4.33013
      vertex 22.3585 0.740456 4.25908
      vertex 22.4508 0.743515 4.33013
    endloop
  endfacet
  facet normal 0.609967 -0.0316775 -0.791794
    outer loop
      vertex 22.3585 0.740456 4.25908
      vertex 22.2327 -3.45782 4.33013
      vertex 21.2095 -3.29868 3.53553
    endloop
  endfacet
  facet normal 0.609957 -0.0316699 -0.791802
    outer loop
      vertex 22.3371 0.739748 4.24264
      vertex 21.2095 -3.29868 3.53553
      vertex 21.4176 0.709296 3.53553
    endloop
  endfacet
  facet normal 0.609562 -0.0315053 -0.792112
    outer loop
      vertex 21.2095 -3.29868 3.53553
      vertex 22.3371 0.739748 4.24264
      vertex 22.3585 0.740456 4.25908
    endloop
  endfacet
  facet normal 0.383852 -0.0199275 -0.92318
    outer loop
      vertex 23.4243 -3.64315 4.82963
      vertex 23.546 0.779785 4.78476
      vertex 23.6541 0.783365 4.82963
    endloop
  endfacet
  facet normal 0.383878 -0.0199281 -0.923169
    outer loop
      vertex 23.546 0.779785 4.78476
      vertex 23.4243 -3.64315 4.82963
      vertex 22.2327 -3.45782 4.33013
    endloop
  endfacet
  facet normal 0.383878 -0.0199279 -0.923169
    outer loop
      vertex 23.546 0.779785 4.78476
      vertex 22.2327 -3.45782 4.33013
      vertex 22.4508 0.743515 4.33013
    endloop
  endfacet
  facet normal 0.13104 -0.0068044 -0.991354
    outer loop
      vertex 24.703 -3.84203 5
      vertex 24.8293 0.822284 4.98468
      vertex 24.9454 0.826128 5
    endloop
  endfacet
  facet normal 0.131027 -0.00680406 -0.991355
    outer loop
      vertex 24.8293 0.822284 4.98468
      vertex 24.703 -3.84203 5
      vertex 23.4243 -3.64315 4.82963
    endloop
  endfacet
  facet normal 0.13102 -0.00680182 -0.991356
    outer loop
      vertex 24.8293 0.822284 4.98468
      vertex 23.4243 -3.64315 4.82963
      vertex 23.6541 0.783365 4.82963
    endloop
  endfacet
  facet normal -0.130925 0.00679718 -0.991369
    outer loop
      vertex 25.9818 -4.0409 4.82963
      vertex 26.1208 0.865057 4.84491
      vertex 26.2367 0.868892 4.82963
    endloop
  endfacet
  facet normal -0.131017 0.00679977 -0.991357
    outer loop
      vertex 26.1208 0.865057 4.84491
      vertex 25.9818 -4.0409 4.82963
      vertex 24.703 -3.84203 5
    endloop
  endfacet
  facet normal -0.131031 0.00680396 -0.991355
    outer loop
      vertex 26.1208 0.865057 4.84491
      vertex 24.703 -3.84203 5
      vertex 24.9454 0.826128 5
    endloop
  endfacet
  facet normal -0.384088 0.0199413 -0.923081
    outer loop
      vertex 27.1733 -4.22623 4.33013
      vertex 27.3326 0.905186 4.3747
      vertex 27.4399 0.908741 4.33013
    endloop
  endfacet
  facet normal -0.383905 0.0199362 -0.923157
    outer loop
      vertex 27.3326 0.905186 4.3747
      vertex 27.1733 -4.22623 4.33013
      vertex 25.9818 -4.0409 4.82963
    endloop
  endfacet
  facet normal -0.383885 0.01993 -0.923166
    outer loop
      vertex 27.3326 0.905186 4.3747
      vertex 25.9818 -4.0409 4.82963
      vertex 26.2367 0.868892 4.82963
    endloop
  endfacet
  facet normal -0.610036 0.0316677 -0.79174
    outer loop
      vertex 28.1966 -4.38537 3.53553
      vertex 28.3895 0.940189 3.59991
      vertex 28.4732 0.942961 3.53553
    endloop
  endfacet
  facet normal -0.61134 0.0317028 -0.790733
    outer loop
      vertex 28.1966 -4.38537 3.53553
      vertex 28.3817 0.939929 3.60593
      vertex 28.3895 0.940189 3.59991
    endloop
  endfacet
  facet normal -0.609931 0.0316682 -0.791822
    outer loop
      vertex 28.3817 0.939929 3.60593
      vertex 28.1966 -4.38537 3.53553
      vertex 27.1733 -4.22623 4.33013
    endloop
  endfacet
  facet normal -0.609852 0.0316626 -0.791883
    outer loop
      vertex 27.5537 0.912509 4.24264
      vertex 27.1733 -4.22623 4.33013
      vertex 27.4399 0.908741 4.33013
    endloop
  endfacet
  facet normal -0.609936 0.0316699 -0.791818
    outer loop
      vertex 27.1733 -4.22623 4.33013
      vertex 27.5537 0.912509 4.24264
      vertex 28.3817 0.939929 3.60593
    endloop
  endfacet
  facet normal -0.794571 0.0412468 -0.605769
    outer loop
      vertex 28.9817 -4.50748 2.5
      vertex 29.2267 0.967914 2.55146
      vertex 29.266 0.969218 2.5
    endloop
  endfacet
  facet normal -0.793201 0.0412024 -0.607564
    outer loop
      vertex 29.2267 0.967914 2.55146
      vertex 28.9817 -4.50748 2.5
      vertex 29.1964 0.966912 2.59095
    endloop
  endfacet
  facet normal -0.793844 0.0412137 -0.606723
    outer loop
      vertex 29.1964 0.966912 2.59095
      vertex 28.9817 -4.50748 2.5
      vertex 28.1966 -4.38537 3.53553
    endloop
  endfacet
  facet normal -0.793833 0.0412088 -0.606738
    outer loop
      vertex 29.1964 0.966912 2.59095
      vertex 28.1966 -4.38537 3.53553
      vertex 28.4732 0.942961 3.53553
    endloop
  endfacet
  facet normal -0.923195 0.0479334 -0.381332
    outer loop
      vertex 29.4753 -4.58425 1.2941
      vertex 29.7211 0.984289 1.39899
      vertex 29.7645 0.985724 1.2941
    endloop
  endfacet
  facet normal -0.923335 0.0479332 -0.380992
    outer loop
      vertex 29.7211 0.984289 1.39899
      vertex 29.4753 -4.58425 1.2941
      vertex 28.9817 -4.50748 2.5
    endloop
  endfacet
  facet normal -0.923331 0.0479309 -0.381001
    outer loop
      vertex 29.7211 0.984289 1.39899
      vertex 28.9817 -4.50748 2.5
      vertex 29.266 0.969218 2.5
    endloop
  endfacet
  facet normal -0.990127 0.0514172 -0.130404
    outer loop
      vertex 29.6436 -4.61043 0
      vertex 29.9198 0.99087 0.111423
      vertex 29.9345 0.991354 0
    endloop
  endfacet
  facet normal -0.990204 0.0514093 -0.129818
    outer loop
      vertex 29.9198 0.99087 0.111423
      vertex 29.6436 -4.61043 0
      vertex 29.4753 -4.58425 1.2941
    endloop
  endfacet
  facet normal -0.990206 0.0514127 -0.129802
    outer loop
      vertex 29.9198 0.99087 0.111423
      vertex 29.4753 -4.58425 1.2941
      vertex 29.7645 0.985724 1.2941
    endloop
  endfacet
  facet normal 0 0 -1
    outer loop
      vertex 29.6436 -4.61043 0
      vertex 30.983 1.02608 0
      vertex 30.5668 -5.16466 0
    endloop
  endfacet
  facet normal 0 0 -1
    outer loop
      vertex 30.983 1.02608 0
      vertex 29.6436 -4.61043 0
      vertex 29.9345 0.991354 0
    endloop
  endfacet
  facet normal 0 0 -1
    outer loop
      vertex 28.086 -10.5442 0
      vertex 30.5668 -5.16466 0
      vertex 28.926 -11.1485 0
    endloop
  endfacet
  facet normal -0 0 -1
    outer loop
      vertex 30.5668 -5.16466 0
      vertex 28.086 -10.5442 0
      vertex 29.6436 -4.61043 0
    endloop
  endfacet
  facet normal 0 0 -1
    outer loop
      vertex 25.3538 -16.037 0
      vertex 28.926 -11.1485 0
      vertex 26.1264 -16.6857 0
    endloop
  endfacet
  facet normal -0 0 -1
    outer loop
      vertex 28.926 -11.1485 0
      vertex 25.3538 -16.037 0
      vertex 28.086 -10.5442 0
    endloop
  endfacet
  facet normal 0 0 -1
    outer loop
      vertex 21.5614 -20.8592 0
      vertex 26.1264 -16.6857 0
      vertex 22.2802 -21.5545 0
    endloop
  endfacet
  facet normal -0 0 -1
    outer loop
      vertex 26.1264 -16.6857 0
      vertex 21.5614 -20.8592 0
      vertex 25.3538 -16.037 0
    endloop
  endfacet
  facet normal 0 0 -1
    outer loop
      vertex 17.5414 -25.5598 0
      vertex 21.5614 -20.8592 0
      vertex 22.2802 -21.5545 0
    endloop
  endfacet
  facet normal 0 0 -1
    outer loop
      vertex 17.5414 -25.5598 0
      vertex 16.8674 -24.8091 0
      vertex 21.5614 -20.8592 0
    endloop
  endfacet
  facet normal 0 0 -1
    outer loop
      vertex 12.0998 -28.5411 0
      vertex 16.8674 -24.8091 0
      vertex 17.5414 -25.5598 0
    endloop
  endfacet
  facet normal 0 0 -1
    outer loop
      vertex 12.0998 -28.5411 0
      vertex 11.468 -27.7216 0
      vertex 16.8674 -24.8091 0
    endloop
  endfacet
  facet normal 0 0 -1
    outer loop
      vertex 6.17357 -30.3791 0
      vertex 11.468 -27.7216 0
      vertex 12.0998 -28.5411 0
    endloop
  endfacet
  facet normal 0 0 -1
    outer loop
      vertex 6.17357 -30.3791 0
      vertex 5.58909 -29.4748 0
      vertex 11.468 -27.7216 0
    endloop
  endfacet
  facet normal 0 0 -1
    outer loop
      vertex 6.88339e-15 -31 0
      vertex 5.58909 -29.4748 0
      vertex 6.17357 -30.3791 0
    endloop
  endfacet
  facet normal 0 0 -1
    outer loop
      vertex 5.58909 -29.4748 0
      vertex 6.88339e-15 -31 0
      vertex 6.65043e-15 -29.9509 0
    endloop
  endfacet
  facet normal 0 0 -1
    outer loop
      vertex 19.7624 -3.07362 0
      vertex 18.9896 0.628888 0
      vertex 19.9563 0.660903 0
    endloop
  endfacet
  facet normal -0 0 -1
    outer loop
      vertex 19.7624 -3.07362 0
      vertex 18.7345 -3.16544 0
      vertex 18.9896 0.628888 0
    endloop
  endfacet
  facet normal 0 0 -1
    outer loop
      vertex 18.724 -7.02946 0
      vertex 18.7345 -3.16544 0
      vertex 19.7624 -3.07362 0
    endloop
  endfacet
  facet normal 0 0 -1
    outer loop
      vertex 18.724 -7.02946 0
      vertex 17.7288 -6.83296 0
      vertex 18.7345 -3.16544 0
    endloop
  endfacet
  facet normal 0 0 -1
    outer loop
      vertex 16.9026 -10.6913 0
      vertex 17.7288 -6.83296 0
      vertex 18.724 -7.02946 0
    endloop
  endfacet
  facet normal 0 0 -1
    outer loop
      vertex 16.9026 -10.6913 0
      vertex 16.013 -10.2267 0
      vertex 17.7288 -6.83296 0
    endloop
  endfacet
  facet normal 0 0 -1
    outer loop
      vertex 14.3743 -13.9061 0
      vertex 16.013 -10.2267 0
      vertex 16.9026 -10.6913 0
    endloop
  endfacet
  facet normal 0 0 -1
    outer loop
      vertex 14.3743 -13.9061 0
      vertex 13.6556 -13.2108 0
      vertex 16.013 -10.2267 0
    endloop
  endfacet
  facet normal 0 0 -1
    outer loop
      vertex 10.7512 -15.6657 0
      vertex 14.3743 -13.9061 0
      vertex 11.2449 -16.5394 0
    endloop
  endfacet
  facet normal -0 0 -1
    outer loop
      vertex 14.3743 -13.9061 0
      vertex 10.7512 -15.6657 0
      vertex 13.6556 -13.2108 0
    endloop
  endfacet
  facet normal 0 0 -1
    outer loop
      vertex 7.41603 -17.493 0
      vertex 11.2449 -16.5394 0
      vertex 7.64536 -18.4811 0
    endloop
  endfacet
  facet normal -0 0 -1
    outer loop
      vertex 11.2449 -16.5394 0
      vertex 7.41603 -17.493 0
      vertex 10.7512 -15.6657 0
    endloop
  endfacet
  facet normal -0 0 -1
    outer loop
      vertex 7.64536 -18.4811 0
      vertex 3.7838 -18.6195 0
      vertex 7.41603 -17.493 0
    endloop
  endfacet
  facet normal 0 0 -1
    outer loop
      vertex 3.72606 -19.6499 0
      vertex 3.7838 -18.6195 0
      vertex 7.64536 -18.4811 0
    endloop
  endfacet
  facet normal 0 0 -1
    outer loop
      vertex 4.21886e-15 -19 0
      vertex 3.72606 -19.6499 0
      vertex 4.43362e-15 -19.9673 0
    endloop
  endfacet
  facet normal 0 0 -1
    outer loop
      vertex 3.72606 -19.6499 0
      vertex 4.21886e-15 -19 0
      vertex 3.7838 -18.6195 0
    endloop
  endfacet
endsolid OpenSCAD_Model
