solid OpenSCAD_Model
  facet normal -1 -2.22044e-16 -1.94742e-20
    outer loop
      vertex 2.88252e-15 -12.9817 0.0402339
      vertex 2.68724e-15 -12.1023 0.776457
      vertex 2.66454e-15 -12 0
    endloop
  endfacet
  facet normal -1 -2.22129e-16 3.07705e-19
    outer loop
      vertex 2.89986e-15 -13.0598 0.554787
      vertex 2.68724e-15 -12.1023 0.776457
      vertex 2.89645e-15 -13.0445 0.517637
    endloop
  endfacet
  facet normal -1 -2.2205e-16 -1.70679e-19
    outer loop
      vertex 2.88252e-15 -12.9817 0.0402339
      vertex 2.66454e-15 -12 0
      vertex 2.88135e-15 -12.9764 0
    endloop
  endfacet
  facet normal -1 -2.22036e-16 -2.90562e-20
    outer loop
      vertex 2.68724e-15 -12.1023 0.776457
      vertex 2.88252e-15 -12.9817 0.0402339
      vertex 2.89645e-15 -13.0445 0.517637
    endloop
  endfacet
  facet normal -1 -2.22057e-16 -7.75789e-22
    outer loop
      vertex 2.68724e-15 -12.1023 0.776457
      vertex 2.89986e-15 -13.0598 0.554787
      vertex 2.75379e-15 -12.402 1.5
    endloop
  endfacet
  facet normal -1 -2.22056e-16 -1.33441e-21
    outer loop
      vertex 2.94074e-15 -13.2439 0.999999
      vertex 2.75379e-15 -12.402 1.5
      vertex 2.89986e-15 -13.0598 0.554787
    endloop
  endfacet
  facet normal -1 -2.22137e-16 1.3503e-19
    outer loop
      vertex 2.94612e-15 -13.2681 1.03165
      vertex 2.75379e-15 -12.402 1.5
      vertex 2.94074e-15 -13.2439 0.999999
    endloop
  endfacet
  facet normal -1 -2.22066e-16 2.14739e-21
    outer loop
      vertex 2.75379e-15 -12.402 1.5
      vertex 2.94612e-15 -13.2681 1.03165
      vertex 2.85965e-15 -12.8787 2.12132
    endloop
  endfacet
  facet normal -1 -2.22e-16 -2.13366e-20
    outer loop
      vertex 3.01118e-15 -13.5612 1.41421
      vertex 2.85965e-15 -12.8787 2.12132
      vertex 2.94612e-15 -13.2681 1.03165
    endloop
  endfacet
  facet normal -1 -2.22178e-16 1.50133e-19
    outer loop
      vertex 3.01816e-15 -13.5926 1.43836
      vertex 2.85965e-15 -12.8787 2.12132
      vertex 3.01118e-15 -13.5612 1.41421
    endloop
  endfacet
  facet normal -1 -2.22043e-16 9.65238e-21
    outer loop
      vertex 2.85965e-15 -12.8787 2.12132
      vertex 3.01816e-15 -13.5926 1.43836
      vertex 2.99761e-15 -13.5 2.59808
    endloop
  endfacet
  facet normal -1 -2.2206e-16 1.09696e-20
    outer loop
      vertex 3.10299e-15 -13.9746 1.73205
      vertex 2.99761e-15 -13.5 2.59808
      vertex 3.01816e-15 -13.5926 1.43836
    endloop
  endfacet
  facet normal -1 -2.21717e-16 -1.76765e-19
    outer loop
      vertex 3.11108e-15 -14.0111 1.74717
      vertex 2.99761e-15 -13.5 2.59808
      vertex 3.10299e-15 -13.9746 1.73205
    endloop
  endfacet
  facet normal -1 -2.22025e-16 8.36785e-21
    outer loop
      vertex 3.11108e-15 -14.0111 1.74717
      vertex 3.15827e-15 -14.2236 2.89778
      vertex 2.99761e-15 -13.5 2.59808
    endloop
  endfacet
  facet normal -1 -2.22067e-16 6.34549e-22
    outer loop
      vertex 3.2099e-15 -14.4561 1.93185
      vertex 3.15827e-15 -14.2236 2.89778
      vertex 3.11108e-15 -14.0111 1.74717
    endloop
  endfacet
  facet normal -1 -2.21997e-16 -1.62452e-20
    outer loop
      vertex 3.21858e-15 -14.4952 1.937
      vertex 3.15827e-15 -14.2236 2.89778
      vertex 3.2099e-15 -14.4561 1.93185
    endloop
  endfacet
  facet normal -1 -2.22048e-16 -1.84042e-21
    outer loop
      vertex 3.32463e-15 -14.9728 2
      vertex 3.15827e-15 -14.2236 2.89778
      vertex 3.21858e-15 -14.4952 1.937
    endloop
  endfacet
  facet normal -1 -2.22062e-16 9.91185e-21
    outer loop
      vertex 3.32463e-15 -14.9728 2
      vertex 3.33068e-15 -15 3
      vertex 3.15827e-15 -14.2236 2.89778
    endloop
  endfacet
  facet normal -1 -2.22251e-16 4.7655e-21
    outer loop
      vertex 3.33332e-15 -15.0119 1.99484
      vertex 3.33068e-15 -15 3
      vertex 3.32463e-15 -14.9728 2
    endloop
  endfacet
  facet normal -1 -2.22027e-16 2.11135e-21
    outer loop
      vertex 3.43936e-15 -15.4895 1.93185
      vertex 3.33068e-15 -15 3
      vertex 3.33332e-15 -15.0119 1.99484
    endloop
  endfacet
  facet normal -1 -2.2188e-16 5.23336e-20
    outer loop
      vertex 3.50309e-15 -15.7765 2.89778
      vertex 3.43936e-15 -15.4895 1.93185
      vertex 3.44748e-15 -15.5261 1.91668
    endloop
  endfacet
  facet normal -1 -2.22036e-16 5.99834e-21
    outer loop
      vertex 3.43936e-15 -15.4895 1.93185
      vertex 3.50309e-15 -15.7765 2.89778
      vertex 3.33068e-15 -15 3
    endloop
  endfacet
  facet normal -1 -2.22053e-16 8.02324e-21
    outer loop
      vertex 3.54627e-15 -15.971 1.73205
      vertex 3.50309e-15 -15.7765 2.89778
      vertex 3.44748e-15 -15.5261 1.91668
    endloop
  endfacet
  facet normal -1 -2.22393e-16 -1.91258e-19
    outer loop
      vertex 3.66375e-15 -16.5 2.59808
      vertex 3.54627e-15 -15.971 1.73205
      vertex 3.55328e-15 -16.0025 1.70781
    endloop
  endfacet
  facet normal -1 -2.22008e-16 2.37376e-20
    outer loop
      vertex 3.66375e-15 -16.5 2.59808
      vertex 3.55328e-15 -16.0025 1.70781
      vertex 3.63808e-15 -16.3845 1.41421
    endloop
  endfacet
  facet normal -1 -2.22298e-16 -2.56641e-19
    outer loop
      vertex 3.80171e-15 -17.1214 2.12132
      vertex 3.63808e-15 -16.3845 1.41421
      vertex 3.64349e-15 -16.4088 1.38243
    endloop
  endfacet
  facet normal -1 -2.22063e-16 9.73107e-21
    outer loop
      vertex 3.54627e-15 -15.971 1.73205
      vertex 3.66375e-15 -16.5 2.59808
      vertex 3.50309e-15 -15.7765 2.89778
    endloop
  endfacet
  facet normal -1 -2.22042e-16 -9.95212e-21
    outer loop
      vertex 3.80171e-15 -17.1214 2.12132
      vertex 3.64349e-15 -16.4088 1.38243
      vertex 3.70853e-15 -16.7017 0.999999
    endloop
  endfacet
  facet normal -1 -2.2205e-16 -1.14835e-20
    outer loop
      vertex 3.90757e-15 -17.5981 1.5
      vertex 3.70853e-15 -16.7017 0.999999
      vertex 3.71195e-15 -16.7171 0.962736
    endloop
  endfacet
  facet normal -1 -2.22044e-16 4.12308e-20
    outer loop
      vertex 3.97411e-15 -17.8978 0.776457
      vertex 3.71195e-15 -16.7171 0.962736
      vertex 3.75281e-15 -16.9012 0.517637
    endloop
  endfacet
  facet normal -1 -2.22061e-16 3.22643e-20
    outer loop
      vertex 3.99681e-15 -18 0
      vertex 3.75398e-15 -16.9064 0.477358
      vertex 3.76791e-15 -16.9692 0
    endloop
  endfacet
  facet normal -1 -2.22031e-16 2.14462e-20
    outer loop
      vertex 3.63808e-15 -16.3845 1.41421
      vertex 3.80171e-15 -17.1214 2.12132
      vertex 3.66375e-15 -16.5 2.59808
    endloop
  endfacet
  facet normal -1 -2.22151e-16 -3.67866e-19
    outer loop
      vertex 3.75398e-15 -16.9064 0.477358
      vertex 3.97411e-15 -17.8978 0.776457
      vertex 3.75281e-15 -16.9012 0.517637
    endloop
  endfacet
  facet normal -1 -2.22051e-16 -1.32478e-20
    outer loop
      vertex 3.70853e-15 -16.7017 0.999999
      vertex 3.90757e-15 -17.5981 1.5
      vertex 3.80171e-15 -17.1214 2.12132
    endloop
  endfacet
  facet normal -1 -2.22039e-16 6.98094e-21
    outer loop
      vertex 3.71195e-15 -16.7171 0.962736
      vertex 3.97411e-15 -17.8978 0.776457
      vertex 3.90757e-15 -17.5981 1.5
    endloop
  endfacet
  facet normal -1 -2.22042e-16 -9.36343e-21
    outer loop
      vertex 3.75398e-15 -16.9064 0.477358
      vertex 3.99681e-15 -18 0
      vertex 3.97411e-15 -17.8978 0.776457
    endloop
  endfacet
  facet normal 0.648902 0.760872 4.99096e-05
    outer loop
      vertex 13.6204 -11.611 0.776457
      vertex 13.6982 -11.6773 0
      vertex 13.3924 -11.4166 1.5
    endloop
  endfacet
  facet normal 0.648964 0.760819 0.000302138
    outer loop
      vertex 13.0295 -11.1073 2.12132
      vertex 13.3924 -11.4166 1.5
      vertex 12.5567 -10.7042 2.59808
    endloop
  endfacet
  facet normal 0.648783 0.760973 6.47639e-05
    outer loop
      vertex 12.5567 -10.7042 2.59808
      vertex 13.3924 -11.4166 1.5
      vertex 12.0061 -10.2348 2.89778
    endloop
  endfacet
  facet normal 0.648707 0.761039 -6.69267e-05
    outer loop
      vertex 12.0061 -10.2348 2.89778
      vertex 13.3924 -11.4166 1.5
      vertex 11.4152 -9.73111 3
    endloop
  endfacet
  facet normal 0.64873 0.761019 -1.44232e-05
    outer loop
      vertex 11.4152 -9.73111 3
      vertex 13.3924 -11.4166 1.5
      vertex 10.8243 -9.2274 2.89778
    endloop
  endfacet
  facet normal 0.648814 0.760947 -0.000160315
    outer loop
      vertex 10.2737 -8.758 2.59808
      vertex 10.8243 -9.2274 2.89778
      vertex 9.80085 -8.35493 2.12132
    endloop
  endfacet
  facet normal 0.648945 0.760835 0.000258623
    outer loop
      vertex 11.3628 -9.6864 1.9945
      vertex 10.8243 -9.2274 2.89778
      vertex 11.3945 -9.71344 2
    endloop
  endfacet
  facet normal 0.648732 0.761017 2.46946e-05
    outer loop
      vertex 10.8243 -9.2274 2.89778
      vertex 11.756 -10.0216 1.93734
      vertex 11.3945 -9.71344 2
    endloop
  endfacet
  facet normal 0.648354 0.761339 -0.000608328
    outer loop
      vertex 10.8243 -9.2274 2.89778
      vertex 11.7877 -10.0486 1.93185
      vertex 11.756 -10.0216 1.93734
    endloop
  endfacet
  facet normal 0.648766 0.760988 0.000101708
    outer loop
      vertex 13.3924 -11.4166 1.5
      vertex 11.7877 -10.0486 1.93185
      vertex 10.8243 -9.2274 2.89778
    endloop
  endfacet
  facet normal 0.648739 0.761011 -7.29261e-05
    outer loop
      vertex 11.7877 -10.0486 1.93185
      vertex 13.3924 -11.4166 1.5
      vertex 12.1247 -10.3359 1.7481
    endloop
  endfacet
  facet normal 0.648532 0.761185 -0.00185092
    outer loop
      vertex 12.1541 -10.361 1.73205
      vertex 13.3924 -11.4166 1.5
      vertex 12.1754 -10.3792 1.71053
    endloop
  endfacet
  facet normal 0.648436 0.761264 -0.00272312
    outer loop
      vertex 12.1247 -10.3359 1.7481
      vertex 13.3924 -11.4166 1.5
      vertex 12.1541 -10.361 1.73205
    endloop
  endfacet
  facet normal 0.648726 0.761022 3.30794e-05
    outer loop
      vertex 11.0013 -9.37824 1.93185
      vertex 10.8243 -9.2274 2.89778
      vertex 11.3628 -9.6864 1.9945
    endloop
  endfacet
  facet normal 0.647895 0.76173 -0.000229713
    outer loop
      vertex 10.9759 -9.35664 1.91804
      vertex 10.8243 -9.2274 2.89778
      vertex 11.0013 -9.37824 1.93185
    endloop
  endfacet
  facet normal 0.648744 0.761006 -2.87035e-06
    outer loop
      vertex 10.8243 -9.2274 2.89778
      vertex 10.9759 -9.35664 1.91804
      vertex 9.80085 -8.35493 2.12132
    endloop
  endfacet
  facet normal 0.648726 0.761022 6.81859e-05
    outer loop
      vertex 13.3924 -11.4166 1.5
      vertex 12.4436 -10.6078 1.43963
      vertex 12.1754 -10.3792 1.71053
    endloop
  endfacet
  facet normal 0.648732 0.761017 -0.000102127
    outer loop
      vertex 13.3924 -11.4166 1.5
      vertex 12.4687 -10.6292 1.41421
      vertex 12.4436 -10.6078 1.43963
    endloop
  endfacet
  facet normal 0.648727 0.761022 -4.36615e-06
    outer loop
      vertex 13.3924 -11.4166 1.5
      vertex 12.691 -10.8187 1.03293
      vertex 12.4687 -10.6292 1.41421
    endloop
  endfacet
  facet normal 0.648938 0.760841 -0.000552381
    outer loop
      vertex 13.3924 -11.4166 1.5
      vertex 12.7102 -10.8351 0.999999
      vertex 12.691 -10.8187 1.03293
    endloop
  endfacet
  facet normal 0.64962 0.760256 -0.00216423
    outer loop
      vertex 12.7102 -10.8351 0.999999
      vertex 13.3924 -11.4166 1.5
      vertex 12.7146 -10.8389 0.98584
    endloop
  endfacet
  facet normal 0.648479 0.761228 -0.0026315
    outer loop
      vertex 10.9717 -9.35307 1.91575
      vertex 9.80085 -8.35493 2.12132
      vertex 10.9759 -9.35664 1.91804
    endloop
  endfacet
  facet normal 0.648744 0.761007 -4.53767e-05
    outer loop
      vertex 10.6348 -9.06588 1.73205
      vertex 9.80085 -8.35493 2.12132
      vertex 10.9717 -9.35307 1.91575
    endloop
  endfacet
  facet normal 0.649014 0.760776 0.000954359
    outer loop
      vertex 10.6096 -9.04435 1.70653
      vertex 9.80085 -8.35493 2.12132
      vertex 10.6348 -9.06588 1.73205
    endloop
  endfacet
  facet normal 0.648726 0.761022 -1.62483e-05
    outer loop
      vertex 10.3202 -8.79766 1.41421
      vertex 9.80085 -8.35493 2.12132
      vertex 10.6096 -9.04435 1.70653
    endloop
  endfacet
  facet normal 0.648509 0.761207 -0.000290693
    outer loop
      vertex 10.3009 -8.78123 1.38115
      vertex 9.80085 -8.35493 2.12132
      vertex 10.3202 -8.79766 1.41421
    endloop
  endfacet
  facet normal 0.648801 0.760958 4.98168e-05
    outer loop
      vertex 10.0788 -8.59184 0.999999
      vertex 9.80085 -8.35493 2.12132
      vertex 10.3009 -8.78123 1.38115
    endloop
  endfacet
  facet normal 0.647386 0.762162 -0.000555349
    outer loop
      vertex 10.0667 -8.58159 0.961796
      vertex 9.80085 -8.35493 2.12132
      vertex 10.0788 -8.59184 0.999999
    endloop
  endfacet
  facet normal 0.648821 0.760941 1.20457e-05
    outer loop
      vertex 9.92698 -8.46245 0.517637
      vertex 9.80085 -8.35493 2.12132
      vertex 10.0667 -8.58159 0.961796
    endloop
  endfacet
  facet normal 0.64875 0.761002 -2.11401e-05
    outer loop
      vertex 9.58831 -8.17375 0
      vertex 9.92698 -8.46245 0.517637
      vertex 9.92292 -8.45899 0.477014
    endloop
  endfacet
  facet normal 0.648733 0.761016 -1.17721e-06
    outer loop
      vertex 9.58831 -8.17375 0
      vertex 9.92292 -8.45899 0.477014
      vertex 9.87521 -8.41832 0
    endloop
  endfacet
  facet normal 0.648731 0.761018 -8.43061e-08
    outer loop
      vertex 9.92698 -8.46245 0.517637
      vertex 9.58831 -8.17375 0
      vertex 9.80085 -8.35493 2.12132
    endloop
  endfacet
  facet normal 0.648737 0.761013 -1.81666e-06
    outer loop
      vertex 9.43803 -8.04564 1.5
      vertex 9.80085 -8.35493 2.12132
      vertex 9.13216 -7.7849 0
    endloop
  endfacet
  facet normal 0.648791 0.760966 -2.09923e-05
    outer loop
      vertex 9.20996 -7.85121 0.776457
      vertex 9.43803 -8.04564 1.5
      vertex 9.13216 -7.7849 0
    endloop
  endfacet
  facet normal 0.648735 0.761014 -7.2512e-07
    outer loop
      vertex 9.80085 -8.35493 2.12132
      vertex 9.58831 -8.17375 0
      vertex 9.13216 -7.7849 0
    endloop
  endfacet
  facet normal 0.648606 0.761124 0.000148031
    outer loop
      vertex 13.3924 -11.4166 1.5
      vertex 12.85 -10.9542 0.555725
      vertex 12.7146 -10.8389 0.98584
    endloop
  endfacet
  facet normal 0.648364 0.761331 0.000388397
    outer loop
      vertex 13.3924 -11.4166 1.5
      vertex 12.862 -10.9644 0.517637
      vertex 12.85 -10.9542 0.555725
    endloop
  endfacet
  facet normal 0.648775 0.76098 5.19352e-06
    outer loop
      vertex 13.6982 -11.6773 0
      vertex 12.862 -10.9644 0.517637
      vertex 13.3924 -11.4166 1.5
    endloop
  endfacet
  facet normal 0.648753 0.760999 -5.69593e-05
    outer loop
      vertex 12.862 -10.9644 0.517637
      vertex 13.6982 -11.6773 0
      vertex 12.9097 -11.0051 0.0405783
    endloop
  endfacet
  facet normal 0.648703 0.76104 -0.00169618
    outer loop
      vertex 12.9097 -11.0051 0.0405783
      vertex 13.6982 -11.6773 0
      vertex 12.9137 -11.0086 0
    endloop
  endfacet
  facet normal -0.106988 0.985742 0.129874
    outer loop
      vertex 2.68724e-15 -12.1023 0.776457
      vertex 2.59638 -11.8205 0.776457
      vertex 2.66454e-15 -12 0
    endloop
  endfacet
  facet normal -0.106981 0.985746 0.129849
    outer loop
      vertex 2.59638 -11.8205 0.776457
      vertex 2.57445 -11.7206 0
      vertex 2.66454e-15 -12 0
    endloop
  endfacet
  facet normal -0.0997809 0.919269 0.380772
    outer loop
      vertex 2.75379e-15 -12.402 1.5
      vertex 2.66068 -12.1132 1.5
      vertex 2.68724e-15 -12.1023 0.776457
    endloop
  endfacet
  facet normal -0.0997747 0.91928 0.380749
    outer loop
      vertex 2.66068 -12.1132 1.5
      vertex 2.59638 -11.8205 0.776457
      vertex 2.68724e-15 -12.1023 0.776457
    endloop
  endfacet
  facet normal -0.0857707 0.790464 0.606474
    outer loop
      vertex 2.85965e-15 -12.8787 2.12132
      vertex 2.76296 -12.5789 2.12132
      vertex 2.75379e-15 -12.402 1.5
    endloop
  endfacet
  facet normal -0.0857929 0.7904 0.606554
    outer loop
      vertex 2.76296 -12.5789 2.12132
      vertex 2.66068 -12.1132 1.5
      vertex 2.75379e-15 -12.402 1.5
    endloop
  endfacet
  facet normal -0.0659206 0.607453 0.791616
    outer loop
      vertex 2.99761e-15 -13.5 2.59808
      vertex 2.89625 -13.1857 2.59808
      vertex 2.85965e-15 -12.8787 2.12132
    endloop
  endfacet
  facet normal -0.0659153 0.607476 0.791598
    outer loop
      vertex 2.89625 -13.1857 2.59808
      vertex 2.76296 -12.5789 2.12132
      vertex 2.85965e-15 -12.8787 2.12132
    endloop
  endfacet
  facet normal -0.0414968 0.382327 0.923095
    outer loop
      vertex 3.15827e-15 -14.2236 2.89778
      vertex 3.05148 -13.8924 2.89778
      vertex 2.99761e-15 -13.5 2.59808
    endloop
  endfacet
  facet normal -0.0414926 0.382351 0.923085
    outer loop
      vertex 3.05148 -13.8924 2.89778
      vertex 2.89625 -13.1857 2.59808
      vertex 2.99761e-15 -13.5 2.59808
    endloop
  endfacet
  facet normal -0.014163 0.130519 0.991345
    outer loop
      vertex 3.33068e-15 -15 3
      vertex 3.21806 -14.6508 3
      vertex 3.15827e-15 -14.2236 2.89778
    endloop
  endfacet
  facet normal -0.0141648 0.130506 0.991346
    outer loop
      vertex 3.21806 -14.6508 3
      vertex 3.05148 -13.8924 2.89778
      vertex 3.15827e-15 -14.2236 2.89778
    endloop
  endfacet
  facet normal 0.0141621 -0.130503 0.991347
    outer loop
      vertex 3.50309e-15 -15.7765 2.89778
      vertex 3.38464 -15.4092 2.89778
      vertex 3.33068e-15 -15 3
    endloop
  endfacet
  facet normal 0.0141616 -0.130507 0.991346
    outer loop
      vertex 3.38464 -15.4092 2.89778
      vertex 3.21806 -14.6508 3
      vertex 3.33068e-15 -15 3
    endloop
  endfacet
  facet normal 0.0414901 -0.382372 0.923077
    outer loop
      vertex 3.66375e-15 -16.5 2.59808
      vertex 3.53986 -16.1159 2.59808
      vertex 3.50309e-15 -15.7765 2.89778
    endloop
  endfacet
  facet normal 0.0414927 -0.382352 0.923085
    outer loop
      vertex 3.53986 -16.1159 2.59808
      vertex 3.38464 -15.4092 2.89778
      vertex 3.50309e-15 -15.7765 2.89778
    endloop
  endfacet
  facet normal 0.0659288 -0.607391 0.791662
    outer loop
      vertex 3.80171e-15 -17.1214 2.12132
      vertex 3.67316 -16.7227 2.12132
      vertex 3.66375e-15 -16.5 2.59808
    endloop
  endfacet
  facet normal 0.0659154 -0.607475 0.791599
    outer loop
      vertex 3.67316 -16.7227 2.12132
      vertex 3.53986 -16.1159 2.59808
      vertex 3.66375e-15 -16.5 2.59808
    endloop
  endfacet
  facet normal 0.0857788 -0.790463 0.606473
    outer loop
      vertex 3.90757e-15 -17.5981 1.5
      vertex 3.77544 -17.1884 1.5
      vertex 3.80171e-15 -17.1214 2.12132
    endloop
  endfacet
  facet normal 0.0857933 -0.7904 0.606554
    outer loop
      vertex 3.77544 -17.1884 1.5
      vertex 3.67316 -16.7227 2.12132
      vertex 3.80171e-15 -17.1214 2.12132
    endloop
  endfacet
  facet normal 0.099762 -0.919271 0.380773
    outer loop
      vertex 3.97411e-15 -17.8978 0.776457
      vertex 3.83974 -17.4811 0.776457
      vertex 3.90757e-15 -17.5981 1.5
    endloop
  endfacet
  facet normal 0.0997578 -0.919282 0.380749
    outer loop
      vertex 3.83974 -17.4811 0.776457
      vertex 3.77544 -17.1884 1.5
      vertex 3.90757e-15 -17.5981 1.5
    endloop
  endfacet
  facet normal 0.106983 -0.985759 0.129749
    outer loop
      vertex 3.99681e-15 -18 0
      vertex 3.86167 -17.5809 0
      vertex 3.97411e-15 -17.8978 0.776457
    endloop
  endfacet
  facet normal 0.106978 -0.985762 0.129724
    outer loop
      vertex 3.86167 -17.5809 0
      vertex 3.83974 -17.4811 0.776457
      vertex 3.97411e-15 -17.8978 0.776457
    endloop
  endfacet
  facet normal -0.31599 0.939835 0.129845
    outer loop
      vertex 2.59638 -11.8205 0.776457
      vertex 5.07185 -10.9882 0.776457
      vertex 2.57445 -11.7206 0
    endloop
  endfacet
  facet normal -0.31597 0.939854 0.129762
    outer loop
      vertex 5.07185 -10.9882 0.776457
      vertex 5.02901 -10.8954 0
      vertex 2.57445 -11.7206 0
    endloop
  endfacet
  facet normal -0.294681 0.876466 0.380751
    outer loop
      vertex 2.66068 -12.1132 1.5
      vertex 5.19745 -11.2603 1.5
      vertex 2.59638 -11.8205 0.776457
    endloop
  endfacet
  facet normal -0.294683 0.876461 0.380761
    outer loop
      vertex 5.19745 -11.2603 1.5
      vertex 5.07185 -10.9882 0.776457
      vertex 2.59638 -11.8205 0.776457
    endloop
  endfacet
  facet normal -0.253372 0.753591 0.606551
    outer loop
      vertex 2.76296 -12.5789 2.12132
      vertex 5.39725 -11.6932 2.12132
      vertex 2.66068 -12.1132 1.5
    endloop
  endfacet
  facet normal -0.253371 0.753598 0.606541
    outer loop
      vertex 5.39725 -11.6932 2.12132
      vertex 5.19745 -11.2603 1.5
      vertex 2.66068 -12.1132 1.5
    endloop
  endfacet
  facet normal -0.194726 0.579183 0.791599
    outer loop
      vertex 2.89625 -13.1857 2.59808
      vertex 5.65764 -12.2573 2.59808
      vertex 2.76296 -12.5789 2.12132
    endloop
  endfacet
  facet normal -0.194726 0.579162 0.791614
    outer loop
      vertex 5.65764 -12.2573 2.59808
      vertex 5.39725 -11.6932 2.12132
      vertex 2.76296 -12.5789 2.12132
    endloop
  endfacet
  facet normal -0.122556 0.364546 0.923085
    outer loop
      vertex 3.05148 -13.8924 2.89778
      vertex 5.96086 -12.9143 2.89778
      vertex 2.89625 -13.1857 2.59808
    endloop
  endfacet
  facet normal -0.122555 0.364521 0.923095
    outer loop
      vertex 5.96086 -12.9143 2.89778
      vertex 5.65764 -12.2573 2.59808
      vertex 2.89625 -13.1857 2.59808
    endloop
  endfacet
  facet normal -0.0418319 0.124429 0.991346
    outer loop
      vertex 3.21806 -14.6508 3
      vertex 6.28626 -13.6193 3
      vertex 3.05148 -13.8924 2.89778
    endloop
  endfacet
  facet normal -0.041832 0.12443 0.991346
    outer loop
      vertex 6.28626 -13.6193 3
      vertex 5.96086 -12.9143 2.89778
      vertex 3.05148 -13.8924 2.89778
    endloop
  endfacet
  facet normal 0.0418357 -0.124428 0.991346
    outer loop
      vertex 3.38464 -15.4092 2.89778
      vertex 6.61166 -14.3242 2.89778
      vertex 3.21806 -14.6508 3
    endloop
  endfacet
  facet normal 0.0418373 -0.124445 0.991344
    outer loop
      vertex 6.61166 -14.3242 2.89778
      vertex 6.28626 -13.6193 3
      vertex 3.21806 -14.6508 3
    endloop
  endfacet
  facet normal 0.122562 -0.364546 0.923085
    outer loop
      vertex 3.53986 -16.1159 2.59808
      vertex 6.91488 -14.9812 2.59808
      vertex 3.38464 -15.4092 2.89778
    endloop
  endfacet
  facet normal 0.12256 -0.364519 0.923095
    outer loop
      vertex 6.91488 -14.9812 2.59808
      vertex 6.61166 -14.3242 2.89778
      vertex 3.38464 -15.4092 2.89778
    endloop
  endfacet
  facet normal 0.194719 -0.579182 0.791601
    outer loop
      vertex 3.67316 -16.7227 2.12132
      vertex 7.17527 -15.5453 2.12132
      vertex 3.53986 -16.1159 2.59808
    endloop
  endfacet
  facet normal 0.194718 -0.579165 0.791614
    outer loop
      vertex 7.17527 -15.5453 2.12132
      vertex 6.91488 -14.9812 2.59808
      vertex 3.53986 -16.1159 2.59808
    endloop
  endfacet
  facet normal 0.253359 -0.753594 0.606551
    outer loop
      vertex 3.77544 -17.1884 1.5
      vertex 7.37507 -15.9782 1.5
      vertex 3.67316 -16.7227 2.12132
    endloop
  endfacet
  facet normal 0.253359 -0.753603 0.606541
    outer loop
      vertex 7.37507 -15.9782 1.5
      vertex 7.17527 -15.5453 2.12132
      vertex 3.67316 -16.7227 2.12132
    endloop
  endfacet
  facet normal 0.294668 -0.87647 0.380751
    outer loop
      vertex 3.83974 -17.4811 0.776457
      vertex 7.50067 -16.2503 0.776457
      vertex 3.77544 -17.1884 1.5
    endloop
  endfacet
  facet normal 0.294669 -0.876465 0.380761
    outer loop
      vertex 7.50067 -16.2503 0.776457
      vertex 7.37507 -15.9782 1.5
      vertex 3.77544 -17.1884 1.5
    endloop
  endfacet
  facet normal 0.315971 -0.939858 0.129727
    outer loop
      vertex 3.86167 -17.5809 0
      vertex 7.54351 -16.3431 0
      vertex 3.83974 -17.4811 0.776457
    endloop
  endfacet
  facet normal 0.315977 -0.939851 0.129762
    outer loop
      vertex 7.54351 -16.3431 0
      vertex 7.50067 -16.2503 0.776457
      vertex 3.83974 -17.4811 0.776457
    endloop
  endfacet
  facet normal -0.510242 0.850185 0.129764
    outer loop
      vertex 5.07185 -10.9882 0.776457
      vertex 7.31114 -9.64428 0.776457
      vertex 5.02901 -10.8954 0
    endloop
  endfacet
  facet normal -0.510245 0.85018 0.12978
    outer loop
      vertex 7.31114 -9.64428 0.776457
      vertex 7.24938 -9.56282 0
      vertex 5.02901 -10.8954 0
    endloop
  endfacet
  facet normal -0.475828 0.792848 0.380762
    outer loop
      vertex 5.19745 -11.2603 1.5
      vertex 7.49219 -9.88311 1.5
      vertex 5.07185 -10.9882 0.776457
    endloop
  endfacet
  facet normal -0.475829 0.792844 0.38077
    outer loop
      vertex 7.49219 -9.88311 1.5
      vertex 7.31114 -9.64428 0.776457
      vertex 5.07185 -10.9882 0.776457
    endloop
  endfacet
  facet normal -0.409143 0.681699 0.606538
    outer loop
      vertex 5.39725 -11.6932 2.12132
      vertex 7.7802 -10.263 2.12132
      vertex 5.19745 -11.2603 1.5
    endloop
  endfacet
  facet normal -0.409147 0.68174 0.60649
    outer loop
      vertex 7.7802 -10.263 2.12132
      vertex 7.49219 -9.88311 1.5
      vertex 5.19745 -11.2603 1.5
    endloop
  endfacet
  facet normal -0.314421 0.523912 0.791616
    outer loop
      vertex 5.65764 -12.2573 2.59808
      vertex 8.15555 -10.7582 2.59808
      vertex 5.39725 -11.6932 2.12132
    endloop
  endfacet
  facet normal -0.31441 0.52386 0.791655
    outer loop
      vertex 8.15555 -10.7582 2.59808
      vertex 7.7802 -10.263 2.12132
      vertex 5.39725 -11.6932 2.12132
    endloop
  endfacet
  facet normal -0.197901 0.329747 0.923094
    outer loop
      vertex 5.96086 -12.9143 2.89778
      vertex 8.59265 -11.3348 2.89778
      vertex 5.65764 -12.2573 2.59808
    endloop
  endfacet
  facet normal -0.197907 0.329767 0.923085
    outer loop
      vertex 8.59265 -11.3348 2.89778
      vertex 8.15555 -10.7582 2.59808
      vertex 5.65764 -12.2573 2.59808
    endloop
  endfacet
  facet normal -0.0675556 0.112557 0.991346
    outer loop
      vertex 6.28626 -13.6193 3
      vertex 9.06172 -11.9535 3
      vertex 5.96086 -12.9143 2.89778
    endloop
  endfacet
  facet normal -0.0675587 0.112567 0.991345
    outer loop
      vertex 9.06172 -11.9535 3
      vertex 8.59265 -11.3348 2.89778
      vertex 5.96086 -12.9143 2.89778
    endloop
  endfacet
  facet normal 0.067559 -0.112571 0.991344
    outer loop
      vertex 6.61166 -14.3242 2.89778
      vertex 9.53079 -12.5723 2.89778
      vertex 6.28626 -13.6193 3
    endloop
  endfacet
  facet normal 0.0675534 -0.112554 0.991347
    outer loop
      vertex 9.53079 -12.5723 2.89778
      vertex 9.06172 -11.9535 3
      vertex 6.28626 -13.6193 3
    endloop
  endfacet
  facet normal 0.197901 -0.329747 0.923094
    outer loop
      vertex 6.91488 -14.9812 2.59808
      vertex 9.96789 -13.1489 2.59808
      vertex 6.61166 -14.3242 2.89778
    endloop
  endfacet
  facet normal 0.197908 -0.329766 0.923085
    outer loop
      vertex 9.96789 -13.1489 2.59808
      vertex 9.53079 -12.5723 2.89778
      vertex 6.61166 -14.3242 2.89778
    endloop
  endfacet
  facet normal 0.314433 -0.523906 0.791615
    outer loop
      vertex 7.17527 -15.5453 2.12132
      vertex 10.3432 -13.644 2.12132
      vertex 6.91488 -14.9812 2.59808
    endloop
  endfacet
  facet normal 0.314437 -0.523921 0.791603
    outer loop
      vertex 10.3432 -13.644 2.12132
      vertex 9.96789 -13.1489 2.59808
      vertex 6.91488 -14.9812 2.59808
    endloop
  endfacet
  facet normal 0.409139 -0.681701 0.606538
    outer loop
      vertex 7.37507 -15.9782 1.5
      vertex 10.6313 -14.0239 1.5
      vertex 7.17527 -15.5453 2.12132
    endloop
  endfacet
  facet normal 0.409139 -0.681704 0.606535
    outer loop
      vertex 10.6313 -14.0239 1.5
      vertex 10.3432 -13.644 2.12132
      vertex 7.17527 -15.5453 2.12132
    endloop
  endfacet
  facet normal 0.47585 -0.792835 0.380761
    outer loop
      vertex 7.50067 -16.2503 0.776457
      vertex 10.8123 -14.2627 0.776457
      vertex 7.37507 -15.9782 1.5
    endloop
  endfacet
  facet normal 0.475851 -0.792857 0.380714
    outer loop
      vertex 10.8123 -14.2627 0.776457
      vertex 10.6313 -14.0239 1.5
      vertex 7.37507 -15.9782 1.5
    endloop
  endfacet
  facet normal 0.510248 -0.850181 0.129764
    outer loop
      vertex 7.54351 -16.3431 0
      vertex 10.8741 -14.3442 0
      vertex 7.50067 -16.2503 0.776457
    endloop
  endfacet
  facet normal 0.510257 -0.850163 0.129849
    outer loop
      vertex 10.8741 -14.3442 0
      vertex 10.8123 -14.2627 0.776457
      vertex 7.50067 -16.2503 0.776457
    endloop
  endfacet
  facet normal -0.680764 0.720914 0.129781
    outer loop
      vertex 7.31114 -9.64428 0.776457
      vertex 9.20996 -7.85121 0.776457
      vertex 7.24938 -9.56282 0
    endloop
  endfacet
  facet normal -0.680764 0.720915 0.129778
    outer loop
      vertex 9.20996 -7.85121 0.776457
      vertex 9.13216 -7.7849 0
      vertex 7.24938 -9.56282 0
    endloop
  endfacet
  facet normal -0.634851 0.672293 0.38077
    outer loop
      vertex 7.49219 -9.88311 1.5
      vertex 9.43803 -8.04564 1.5
      vertex 7.31114 -9.64428 0.776457
    endloop
  endfacet
  facet normal -0.634851 0.672293 0.380771
    outer loop
      vertex 9.43803 -8.04564 1.5
      vertex 9.20996 -7.85121 0.776457
      vertex 7.31114 -9.64428 0.776457
    endloop
  endfacet
  facet normal -0.545877 0.578085 0.606494
    outer loop
      vertex 7.7802 -10.263 2.12132
      vertex 9.80085 -8.35493 2.12132
      vertex 7.49219 -9.88311 1.5
    endloop
  endfacet
  facet normal -0.545871 0.578065 0.606519
    outer loop
      vertex 9.80085 -8.35493 2.12132
      vertex 9.43803 -8.04564 1.5
      vertex 7.49219 -9.88311 1.5
    endloop
  endfacet
  facet normal -0.419479 0.444216 0.79165
    outer loop
      vertex 8.15555 -10.7582 2.59808
      vertex 10.2737 -8.758 2.59808
      vertex 7.7802 -10.263 2.12132
    endloop
  endfacet
  facet normal -0.419491 0.444242 0.791629
    outer loop
      vertex 10.2737 -8.758 2.59808
      vertex 9.80085 -8.35493 2.12132
      vertex 7.7802 -10.263 2.12132
    endloop
  endfacet
  facet normal -0.264054 0.279623 0.923085
    outer loop
      vertex 8.59265 -11.3348 2.89778
      vertex 10.8243 -9.2274 2.89778
      vertex 8.15555 -10.7582 2.59808
    endloop
  endfacet
  facet normal -0.264058 0.279629 0.923083
    outer loop
      vertex 10.8243 -9.2274 2.89778
      vertex 10.2737 -8.758 2.59808
      vertex 8.15555 -10.7582 2.59808
    endloop
  endfacet
  facet normal -0.0901347 0.0954514 0.991345
    outer loop
      vertex 9.06172 -11.9535 3
      vertex 11.4152 -9.73111 3
      vertex 8.59265 -11.3348 2.89778
    endloop
  endfacet
  facet normal -0.0901313 0.0954454 0.991346
    outer loop
      vertex 11.4152 -9.73111 3
      vertex 10.8243 -9.2274 2.89778
      vertex 8.59265 -11.3348 2.89778
    endloop
  endfacet
  facet normal 0.0901279 -0.0954414 0.991347
    outer loop
      vertex 9.53079 -12.5723 2.89778
      vertex 12.0061 -10.2348 2.89778
      vertex 9.06172 -11.9535 3
    endloop
  endfacet
  facet normal 0.0901319 -0.0954484 0.991345
    outer loop
      vertex 12.0061 -10.2348 2.89778
      vertex 11.4152 -9.73111 3
      vertex 9.06172 -11.9535 3
    endloop
  endfacet
  facet normal 0.264056 -0.279622 0.923085
    outer loop
      vertex 9.96789 -13.1489 2.59808
      vertex 12.5567 -10.7042 2.59808
      vertex 9.53079 -12.5723 2.89778
    endloop
  endfacet
  facet normal 0.264059 -0.279627 0.923083
    outer loop
      vertex 12.5567 -10.7042 2.59808
      vertex 12.0061 -10.2348 2.89778
      vertex 9.53079 -12.5723 2.89778
    endloop
  endfacet
  facet normal 0.419521 -0.444262 0.791602
    outer loop
      vertex 10.3432 -13.644 2.12132
      vertex 13.0295 -11.1073 2.12132
      vertex 9.96789 -13.1489 2.59808
    endloop
  endfacet
  facet normal 0.419507 -0.444236 0.791624
    outer loop
      vertex 13.0295 -11.1073 2.12132
      vertex 12.5567 -10.7042 2.59808
      vertex 9.96789 -13.1489 2.59808
    endloop
  endfacet
  facet normal 0.545852 -0.578051 0.60655
    outer loop
      vertex 10.6313 -14.0239 1.5
      vertex 13.3924 -11.4166 1.5
      vertex 10.3432 -13.644 2.12132
    endloop
  endfacet
  facet normal 0.545845 -0.578036 0.60657
    outer loop
      vertex 13.3924 -11.4166 1.5
      vertex 13.0295 -11.1073 2.12132
      vertex 10.3432 -13.644 2.12132
    endloop
  endfacet
  facet normal 0.634867 -0.672313 0.380709
    outer loop
      vertex 10.8123 -14.2627 0.776457
      vertex 13.6204 -11.611 0.776457
      vertex 10.6313 -14.0239 1.5
    endloop
  endfacet
  facet normal 0.634869 -0.672319 0.380695
    outer loop
      vertex 13.6204 -11.611 0.776457
      vertex 13.3924 -11.4166 1.5
      vertex 10.6313 -14.0239 1.5
    endloop
  endfacet
  facet normal 0.680769 -0.720897 0.129852
    outer loop
      vertex 10.8741 -14.3442 0
      vertex 13.6982 -11.6773 0
      vertex 10.8123 -14.2627 0.776457
    endloop
  endfacet
  facet normal 0.680764 -0.720916 0.129769
    outer loop
      vertex 13.6982 -11.6773 0
      vertex 13.6204 -11.611 0.776457
      vertex 10.8123 -14.2627 0.776457
    endloop
  endfacet
  facet normal 0.0940823 -0.987061 -0.129843
    outer loop
      vertex 2.89645e-15 -13.0445 0.517637
      vertex 2.88252e-15 -12.9817 0.0402339
      vertex 2.69211 -12.7879 0.517637
    endloop
  endfacet
  facet normal 0.0940571 -0.98704 -0.130022
    outer loop
      vertex 2.67808 -12.7212 0
      vertex 2.88252e-15 -12.9817 0.0402339
      vertex 2.88135e-15 -12.9764 0
    endloop
  endfacet
  facet normal 0.094065 -0.987076 -0.129739
    outer loop
      vertex 2.88252e-15 -12.9817 0.0402339
      vertex 2.67808 -12.7212 0
      vertex 2.69211 -12.7879 0.517637
    endloop
  endfacet
  facet normal 0.0877342 -0.920546 -0.380656
    outer loop
      vertex 2.94074e-15 -13.2439 0.999999
      vertex 2.89986e-15 -13.0598 0.554787
      vertex 2.73328 -12.9834 0.999999
    endloop
  endfacet
  facet normal 0.0877935 -0.921082 -0.379342
    outer loop
      vertex 2.69211 -12.7879 0.517637
      vertex 2.89986e-15 -13.0598 0.554787
      vertex 2.89645e-15 -13.0445 0.517637
    endloop
  endfacet
  facet normal 0.0877247 -0.920572 -0.380593
    outer loop
      vertex 2.89986e-15 -13.0598 0.554787
      vertex 2.69211 -12.7879 0.517637
      vertex 2.73328 -12.9834 0.999999
    endloop
  endfacet
  facet normal 0.0754561 -0.79154 -0.606442
    outer loop
      vertex 3.01118e-15 -13.5612 1.41421
      vertex 2.94612e-15 -13.2681 1.03165
      vertex 2.79875 -13.2944 1.41421
    endloop
  endfacet
  facet normal 0.0754959 -0.792136 -0.605658
    outer loop
      vertex 2.73328 -12.9834 0.999999
      vertex 2.94612e-15 -13.2681 1.03165
      vertex 2.94074e-15 -13.2439 0.999999
    endloop
  endfacet
  facet normal 0.075437 -0.791643 -0.606309
    outer loop
      vertex 2.94612e-15 -13.2681 1.03165
      vertex 2.73328 -12.9834 0.999999
      vertex 2.79875 -13.2944 1.41421
    endloop
  endfacet
  facet normal 0.0579772 -0.608482 -0.791447
    outer loop
      vertex 3.10299e-15 -13.9746 1.73205
      vertex 3.01816e-15 -13.5926 1.43836
      vertex 2.88408 -13.6998 1.73205
    endloop
  endfacet
  facet normal 0.0579902 -0.608369 -0.791533
    outer loop
      vertex 3.01816e-15 -13.5926 1.43836
      vertex 2.79875 -13.2944 1.41421
      vertex 2.88408 -13.6998 1.73205
    endloop
  endfacet
  facet normal 0.058019 -0.608623 -0.791336
    outer loop
      vertex 2.79875 -13.2944 1.41421
      vertex 3.01816e-15 -13.5926 1.43836
      vertex 3.01118e-15 -13.5612 1.41421
    endloop
  endfacet
  facet normal 0.0365024 -0.383057 -0.923003
    outer loop
      vertex 3.2099e-15 -14.4561 1.93185
      vertex 3.11108e-15 -14.0111 1.74717
      vertex 2.98345 -14.1718 1.93185
    endloop
  endfacet
  facet normal 0.0365044 -0.383031 -0.923014
    outer loop
      vertex 3.11108e-15 -14.0111 1.74717
      vertex 2.88408 -13.6998 1.73205
      vertex 2.98345 -14.1718 1.93185
    endloop
  endfacet
  facet normal 0.036441 -0.382455 -0.923255
    outer loop
      vertex 2.88408 -13.6998 1.73205
      vertex 3.11108e-15 -14.0111 1.74717
      vertex 3.10299e-15 -13.9746 1.73205
    endloop
  endfacet
  facet normal 0.0124627 -0.130767 -0.991335
    outer loop
      vertex 3.32463e-15 -14.9728 2
      vertex 3.21858e-15 -14.4952 1.937
      vertex 3.09009 -14.6783 2
    endloop
  endfacet
  facet normal 0.012463 -0.130761 -0.991336
    outer loop
      vertex 3.21858e-15 -14.4952 1.937
      vertex 2.98345 -14.1718 1.93185
      vertex 3.09009 -14.6783 2
    endloop
  endfacet
  facet normal 0.0124429 -0.130576 -0.99136
    outer loop
      vertex 2.98345 -14.1718 1.93185
      vertex 3.21858e-15 -14.4952 1.937
      vertex 3.2099e-15 -14.4561 1.93185
    endloop
  endfacet
  facet normal -0.0124623 0.130746 -0.991338
    outer loop
      vertex 3.43936e-15 -15.4895 1.93185
      vertex 3.33332e-15 -15.0119 1.99484
      vertex 3.19672 -15.1848 1.93185
    endloop
  endfacet
  facet normal -0.0124614 0.130762 -0.991336
    outer loop
      vertex 3.33332e-15 -15.0119 1.99484
      vertex 3.09009 -14.6783 2
      vertex 3.19672 -15.1848 1.93185
    endloop
  endfacet
  facet normal -0.0124682 0.130825 -0.991327
    outer loop
      vertex 3.09009 -14.6783 2
      vertex 3.33332e-15 -15.0119 1.99484
      vertex 3.32463e-15 -14.9728 2
    endloop
  endfacet
  facet normal -0.0365019 0.383042 -0.92301
    outer loop
      vertex 3.54627e-15 -15.971 1.73205
      vertex 3.44748e-15 -15.5261 1.91668
      vertex 3.29609 -15.6569 1.73205
    endloop
  endfacet
  facet normal -0.0365069 0.382962 -0.923043
    outer loop
      vertex 3.44748e-15 -15.5261 1.91668
      vertex 3.19672 -15.1848 1.93185
      vertex 3.29609 -15.6569 1.73205
    endloop
  endfacet
  facet normal -0.0364718 0.382639 -0.923178
    outer loop
      vertex 3.19672 -15.1848 1.93185
      vertex 3.44748e-15 -15.5261 1.91668
      vertex 3.43936e-15 -15.4895 1.93185
    endloop
  endfacet
  facet normal -0.0579862 0.608364 -0.791537
    outer loop
      vertex 3.63808e-15 -16.3845 1.41421
      vertex 3.55328e-15 -16.0025 1.70781
      vertex 3.38142 -16.0622 1.41421
    endloop
  endfacet
  facet normal -0.0579779 0.608464 -0.791461
    outer loop
      vertex 3.55328e-15 -16.0025 1.70781
      vertex 3.29609 -15.6569 1.73205
      vertex 3.38142 -16.0622 1.41421
    endloop
  endfacet
  facet normal -0.0580182 0.608829 -0.791177
    outer loop
      vertex 3.29609 -15.6569 1.73205
      vertex 3.55328e-15 -16.0025 1.70781
      vertex 3.54627e-15 -15.971 1.73205
    endloop
  endfacet
  facet normal -0.0754458 0.791641 -0.60631
    outer loop
      vertex 3.70853e-15 -16.7017 0.999999
      vertex 3.64349e-15 -16.4088 1.38243
      vertex 3.4469 -16.3732 0.999999
    endloop
  endfacet
  facet normal -0.0755008 0.792119 -0.605679
    outer loop
      vertex 3.38142 -16.0622 1.41421
      vertex 3.64349e-15 -16.4088 1.38243
      vertex 3.63808e-15 -16.3845 1.41421
    endloop
  endfacet
  facet normal -0.0754459 0.791641 -0.606311
    outer loop
      vertex 3.64349e-15 -16.4088 1.38243
      vertex 3.38142 -16.0622 1.41421
      vertex 3.4469 -16.3732 0.999999
    endloop
  endfacet
  facet normal -0.0877478 0.92051 -0.380738
    outer loop
      vertex 3.75281e-15 -16.9012 0.517637
      vertex 3.71195e-15 -16.7171 0.962736
      vertex 3.48806 -16.5687 0.517637
    endloop
  endfacet
  facet normal -0.0877379 0.920621 -0.380473
    outer loop
      vertex 3.4469 -16.3732 0.999999
      vertex 3.71195e-15 -16.7171 0.962736
      vertex 3.70853e-15 -16.7017 0.999999
    endloop
  endfacet
  facet normal -0.0877318 0.920572 -0.380592
    outer loop
      vertex 3.71195e-15 -16.7171 0.962736
      vertex 3.4469 -16.3732 0.999999
      vertex 3.48806 -16.5687 0.517637
    endloop
  endfacet
  facet normal -0.0940808 0.98706 -0.129855
    outer loop
      vertex 3.76791e-15 -16.9692 0
      vertex 3.75398e-15 -16.9064 0.477358
      vertex 3.5021 -16.6354 0
    endloop
  endfacet
  facet normal -0.0941209 0.987367 -0.127469
    outer loop
      vertex 3.48806 -16.5687 0.517637
      vertex 3.75398e-15 -16.9064 0.477358
      vertex 3.75281e-15 -16.9012 0.517637
    endloop
  endfacet
  facet normal -0.0940665 0.987076 -0.129741
    outer loop
      vertex 3.75398e-15 -16.9064 0.477358
      vertex 3.48806 -16.5687 0.517637
      vertex 3.5021 -16.6354 0
    endloop
  endfacet
  facet normal 0.311888 -0.94122 -0.129734
    outer loop
      vertex 2.69211 -12.7879 0.517637
      vertex 2.67808 -12.7212 0
      vertex 5.47665 -11.8652 0.517637
    endloop
  endfacet
  facet normal 0.311868 -0.941248 -0.129581
    outer loop
      vertex 5.47665 -11.8652 0.517637
      vertex 2.67808 -12.7212 0
      vertex 5.44809 -11.8034 0
    endloop
  endfacet
  facet normal 0.290872 -0.877804 -0.380598
    outer loop
      vertex 2.73328 -12.9834 0.999999
      vertex 2.69211 -12.7879 0.517637
      vertex 5.56039 -12.0466 0.999999
    endloop
  endfacet
  facet normal 0.290872 -0.877799 -0.380607
    outer loop
      vertex 5.56039 -12.0466 0.999999
      vertex 2.69211 -12.7879 0.517637
      vertex 5.47665 -11.8652 0.517637
    endloop
  endfacet
  facet normal 0.250124 -0.754869 -0.606309
    outer loop
      vertex 2.79875 -13.2944 1.41421
      vertex 2.73328 -12.9834 0.999999
      vertex 5.69359 -12.3352 1.41421
    endloop
  endfacet
  facet normal 0.250123 -0.75483 -0.606358
    outer loop
      vertex 5.69359 -12.3352 1.41421
      vertex 2.73328 -12.9834 0.999999
      vertex 5.56039 -12.0466 0.999999
    endloop
  endfacet
  facet normal 0.192229 -0.580111 -0.79153
    outer loop
      vertex 2.88408 -13.6998 1.73205
      vertex 2.79875 -13.2944 1.41421
      vertex 5.86718 -12.7113 1.73205
    endloop
  endfacet
  facet normal 0.192235 -0.58016 -0.791493
    outer loop
      vertex 5.86718 -12.7113 1.73205
      vertex 2.79875 -13.2944 1.41421
      vertex 5.69359 -12.3352 1.41421
    endloop
  endfacet
  facet normal 0.121021 -0.365238 -0.923014
    outer loop
      vertex 2.98345 -14.1718 1.93185
      vertex 2.88408 -13.6998 1.73205
      vertex 6.06933 -13.1493 1.93185
    endloop
  endfacet
  facet normal 0.121015 -0.365201 -0.92303
    outer loop
      vertex 6.06933 -13.1493 1.93185
      vertex 2.88408 -13.6998 1.73205
      vertex 5.86718 -12.7113 1.73205
    endloop
  endfacet
  facet normal 0.041313 -0.124687 -0.991336
    outer loop
      vertex 3.09009 -14.6783 2
      vertex 2.98345 -14.1718 1.93185
      vertex 6.28626 -13.6193 2
    endloop
  endfacet
  facet normal 0.0413113 -0.124677 -0.991337
    outer loop
      vertex 6.28626 -13.6193 2
      vertex 2.98345 -14.1718 1.93185
      vertex 6.06933 -13.1493 1.93185
    endloop
  endfacet
  facet normal -0.0413152 0.124687 -0.991336
    outer loop
      vertex 3.19672 -15.1848 1.93185
      vertex 3.09009 -14.6783 2
      vertex 6.50319 -14.0892 1.93185
    endloop
  endfacet
  facet normal -0.0413173 0.1247 -0.991334
    outer loop
      vertex 6.50319 -14.0892 1.93185
      vertex 3.09009 -14.6783 2
      vertex 6.28626 -13.6193 2
    endloop
  endfacet
  facet normal -0.121006 0.365175 -0.923041
    outer loop
      vertex 3.29609 -15.6569 1.73205
      vertex 3.19672 -15.1848 1.93185
      vertex 6.70534 -14.5272 1.73205
    endloop
  endfacet
  facet normal -0.12101 0.365203 -0.923029
    outer loop
      vertex 6.70534 -14.5272 1.73205
      vertex 3.19672 -15.1848 1.93185
      vertex 6.50319 -14.0892 1.93185
    endloop
  endfacet
  facet normal -0.192248 0.580197 -0.791462
    outer loop
      vertex 3.38142 -16.0622 1.41421
      vertex 3.29609 -15.6569 1.73205
      vertex 6.87893 -14.9033 1.41421
    endloop
  endfacet
  facet normal -0.192242 0.580156 -0.791493
    outer loop
      vertex 6.87893 -14.9033 1.41421
      vertex 3.29609 -15.6569 1.73205
      vertex 6.70534 -14.5272 1.73205
    endloop
  endfacet
  facet normal -0.250117 0.754868 -0.606313
    outer loop
      vertex 3.4469 -16.3732 0.999999
      vertex 3.38142 -16.0622 1.41421
      vertex 7.01213 -15.1919 0.999999
    endloop
  endfacet
  facet normal -0.250114 0.754833 -0.606358
    outer loop
      vertex 7.01213 -15.1919 0.999999
      vertex 3.38142 -16.0622 1.41421
      vertex 6.87893 -14.9033 1.41421
    endloop
  endfacet
  facet normal -0.290851 0.877812 -0.380593
    outer loop
      vertex 3.48806 -16.5687 0.517637
      vertex 3.4469 -16.3732 0.999999
      vertex 7.09587 -15.3733 0.517637
    endloop
  endfacet
  facet normal -0.290852 0.877806 -0.380606
    outer loop
      vertex 7.09587 -15.3733 0.517637
      vertex 3.4469 -16.3732 0.999999
      vertex 7.01213 -15.1919 0.999999
    endloop
  endfacet
  facet normal -0.311861 0.941228 -0.12974
    outer loop
      vertex 3.5021 -16.6354 0
      vertex 3.48806 -16.5687 0.517637
      vertex 7.12443 -15.4352 0
    endloop
  endfacet
  facet normal -0.311862 0.941225 -0.12976
    outer loop
      vertex 7.12443 -15.4352 0
      vertex 3.48806 -16.5687 0.517637
      vertex 7.09587 -15.3733 0.517637
    endloop
  endfacet
  facet normal 0.513966 -0.847965 -0.129595
    outer loop
      vertex 5.47665 -11.8652 0.517637
      vertex 5.44809 -11.8034 0
      vertex 7.98524 -10.3447 0.517637
    endloop
  endfacet
  facet normal 0.51397 -0.847955 -0.12964
    outer loop
      vertex 7.98524 -10.3447 0.517637
      vertex 5.44809 -11.8034 0
      vertex 7.9436 -10.2908 0
    endloop
  endfacet
  facet normal 0.479315 -0.790818 -0.380611
    outer loop
      vertex 5.56039 -12.0466 0.999999
      vertex 5.47665 -11.8652 0.517637
      vertex 8.10733 -10.5029 0.999999
    endloop
  endfacet
  facet normal 0.479312 -0.79079 -0.380673
    outer loop
      vertex 8.10733 -10.5029 0.999999
      vertex 5.47665 -11.8652 0.517637
      vertex 7.98524 -10.3447 0.517637
    endloop
  endfacet
  facet normal 0.412174 -0.680033 -0.606356
    outer loop
      vertex 5.69359 -12.3352 1.41421
      vertex 5.56039 -12.0466 0.999999
      vertex 8.30154 -10.7545 1.41421
    endloop
  endfacet
  facet normal 0.412179 -0.680051 -0.606333
    outer loop
      vertex 8.30154 -10.7545 1.41421
      vertex 5.56039 -12.0466 0.999999
      vertex 8.10733 -10.5029 0.999999
    endloop
  endfacet
  facet normal 0.316794 -0.522668 -0.791492
    outer loop
      vertex 5.86718 -12.7113 1.73205
      vertex 5.69359 -12.3352 1.41421
      vertex 8.55465 -11.0824 1.73205
    endloop
  endfacet
  facet normal 0.316795 -0.52267 -0.791491
    outer loop
      vertex 8.55465 -11.0824 1.73205
      vertex 5.69359 -12.3352 1.41421
      vertex 8.30154 -10.7545 1.41421
    endloop
  endfacet
  facet normal 0.199426 -0.329011 -0.923028
    outer loop
      vertex 6.06933 -13.1493 1.93185
      vertex 5.86718 -12.7113 1.73205
      vertex 8.84939 -11.4642 1.93185
    endloop
  endfacet
  facet normal 0.199443 -0.329055 -0.923009
    outer loop
      vertex 8.84939 -11.4642 1.93185
      vertex 5.86718 -12.7113 1.73205
      vertex 8.55465 -11.0824 1.73205
    endloop
  endfacet
  facet normal 0.0680808 -0.112321 -0.991337
    outer loop
      vertex 6.28626 -13.6193 2
      vertex 6.06933 -13.1493 1.93185
      vertex 9.16569 -11.874 2
    endloop
  endfacet
  facet normal 0.0680782 -0.112315 -0.991338
    outer loop
      vertex 9.16569 -11.874 2
      vertex 6.06933 -13.1493 1.93185
      vertex 8.84939 -11.4642 1.93185
    endloop
  endfacet
  facet normal -0.068091 0.11234 -0.991334
    outer loop
      vertex 6.50319 -14.0892 1.93185
      vertex 6.28626 -13.6193 2
      vertex 9.48199 -12.2837 1.93185
    endloop
  endfacet
  facet normal -0.0680885 0.112334 -0.991335
    outer loop
      vertex 9.48199 -12.2837 1.93185
      vertex 6.28626 -13.6193 2
      vertex 9.16569 -11.874 2
    endloop
  endfacet
  facet normal -0.199419 0.329015 -0.923028
    outer loop
      vertex 6.70534 -14.5272 1.73205
      vertex 6.50319 -14.0892 1.93185
      vertex 9.77673 -12.6656 1.73205
    endloop
  endfacet
  facet normal -0.199415 0.329004 -0.923033
    outer loop
      vertex 9.77673 -12.6656 1.73205
      vertex 6.50319 -14.0892 1.93185
      vertex 9.48199 -12.2837 1.93185
    endloop
  endfacet
  facet normal -0.316798 0.522666 -0.791492
    outer loop
      vertex 6.87893 -14.9033 1.41421
      vertex 6.70534 -14.5272 1.73205
      vertex 10.0298 -12.9935 1.41421
    endloop
  endfacet
  facet normal -0.316805 0.522686 -0.791476
    outer loop
      vertex 10.0298 -12.9935 1.41421
      vertex 6.70534 -14.5272 1.73205
      vertex 9.77673 -12.6656 1.73205
    endloop
  endfacet
  facet normal -0.412183 0.680028 -0.606355
    outer loop
      vertex 7.01213 -15.1919 0.999999
      vertex 6.87893 -14.9033 1.41421
      vertex 10.224 -13.2451 0.999999
    endloop
  endfacet
  facet normal -0.41219 0.680049 -0.606328
    outer loop
      vertex 10.224 -13.2451 0.999999
      vertex 6.87893 -14.9033 1.41421
      vertex 10.0298 -12.9935 1.41421
    endloop
  endfacet
  facet normal -0.479339 0.790804 -0.38061
    outer loop
      vertex 7.09587 -15.3733 0.517637
      vertex 7.01213 -15.1919 0.999999
      vertex 10.3461 -13.4032 0.517637
    endloop
  endfacet
  facet normal -0.479345 0.790833 -0.380541
    outer loop
      vertex 10.3461 -13.4032 0.517637
      vertex 7.01213 -15.1919 0.999999
      vertex 10.224 -13.2451 0.999999
    endloop
  endfacet
  facet normal -0.513958 0.847945 -0.129756
    outer loop
      vertex 7.12443 -15.4352 0
      vertex 7.09587 -15.3733 0.517637
      vertex 10.3878 -13.4572 0
    endloop
  endfacet
  facet normal -0.513963 0.847926 -0.12986
    outer loop
      vertex 10.3878 -13.4572 0
      vertex 7.09587 -15.3733 0.517637
      vertex 10.3461 -13.4032 0.517637
    endloop
  endfacet
  facet normal 0.690151 -0.711963 -0.129616
    outer loop
      vertex 7.98524 -10.3447 0.517637
      vertex 9.92292 -8.45899 0.477014
      vertex 9.92698 -8.46245 0.517637
    endloop
  endfacet
  facet normal 0.690147 -0.71196 -0.129651
    outer loop
      vertex 9.92292 -8.45899 0.477014
      vertex 7.98524 -10.3447 0.517637
      vertex 7.9436 -10.2908 0
    endloop
  endfacet
  facet normal 0.69015 -0.711944 -0.129727
    outer loop
      vertex 9.92292 -8.45899 0.477014
      vertex 7.9436 -10.2908 0
      vertex 9.87521 -8.41832 0
    endloop
  endfacet
  facet normal 0.643292 -0.663627 -0.381803
    outer loop
      vertex 8.10733 -10.5029 0.999999
      vertex 10.0667 -8.58159 0.961796
      vertex 10.0788 -8.59184 0.999999
    endloop
  endfacet
  facet normal 0.643632 -0.663952 -0.380665
    outer loop
      vertex 10.0667 -8.58159 0.961796
      vertex 8.10733 -10.5029 0.999999
      vertex 7.98524 -10.3447 0.517637
    endloop
  endfacet
  facet normal 0.643645 -0.663988 -0.380579
    outer loop
      vertex 10.0667 -8.58159 0.961796
      vertex 7.98524 -10.3447 0.517637
      vertex 9.92698 -8.46245 0.517637
    endloop
  endfacet
  facet normal 0.553305 -0.570785 -0.606678
    outer loop
      vertex 8.30154 -10.7545 1.41421
      vertex 10.3009 -8.78123 1.38115
      vertex 10.3202 -8.79766 1.41421
    endloop
  endfacet
  facet normal 0.553493 -0.570969 -0.606333
    outer loop
      vertex 10.3009 -8.78123 1.38115
      vertex 8.30154 -10.7545 1.41421
      vertex 8.10733 -10.5029 0.999999
    endloop
  endfacet
  facet normal 0.553517 -0.571014 -0.60627
    outer loop
      vertex 10.3009 -8.78123 1.38115
      vertex 8.10733 -10.5029 0.999999
      vertex 10.0788 -8.59184 0.999999
    endloop
  endfacet
  facet normal 0.42581 -0.439247 -0.791042
    outer loop
      vertex 8.55465 -11.0824 1.73205
      vertex 10.6096 -9.04435 1.70653
      vertex 10.6348 -9.06588 1.73205
    endloop
  endfacet
  facet normal 0.425399 -0.438837 -0.791491
    outer loop
      vertex 10.6096 -9.04435 1.70653
      vertex 8.55465 -11.0824 1.73205
      vertex 8.30154 -10.7545 1.41421
    endloop
  endfacet
  facet normal 0.4254 -0.438839 -0.791489
    outer loop
      vertex 10.6096 -9.04435 1.70653
      vertex 8.30154 -10.7545 1.41421
      vertex 10.3202 -8.79766 1.41421
    endloop
  endfacet
  facet normal 0.267396 -0.27585 -0.923259
    outer loop
      vertex 8.84939 -11.4642 1.93185
      vertex 10.9759 -9.35664 1.91804
      vertex 11.0013 -9.37824 1.93185
    endloop
  endfacet
  facet normal 0.268098 -0.276555 -0.922844
    outer loop
      vertex 10.9759 -9.35664 1.91804
      vertex 8.84939 -11.4642 1.93185
      vertex 10.9717 -9.35307 1.91575
    endloop
  endfacet
  facet normal 0.267816 -0.276274 -0.92301
    outer loop
      vertex 10.9717 -9.35307 1.91575
      vertex 8.84939 -11.4642 1.93185
      vertex 8.55465 -11.0824 1.73205
    endloop
  endfacet
  facet normal 0.267801 -0.276252 -0.923021
    outer loop
      vertex 10.9717 -9.35307 1.91575
      vertex 8.55465 -11.0824 1.73205
      vertex 10.6348 -9.06588 1.73205
    endloop
  endfacet
  facet normal 0.0914901 -0.0943802 -0.991323
    outer loop
      vertex 9.16569 -11.874 2
      vertex 11.3628 -9.6864 1.9945
      vertex 11.3945 -9.71344 2
    endloop
  endfacet
  facet normal 0.0914136 -0.0943034 -0.991338
    outer loop
      vertex 11.3628 -9.6864 1.9945
      vertex 9.16569 -11.874 2
      vertex 8.84939 -11.4642 1.93185
    endloop
  endfacet
  facet normal 0.0914145 -0.0943047 -0.991337
    outer loop
      vertex 11.3628 -9.6864 1.9945
      vertex 8.84939 -11.4642 1.93185
      vertex 11.0013 -9.37824 1.93185
    endloop
  endfacet
  facet normal -0.0913887 0.0942758 -0.991343
    outer loop
      vertex 9.48199 -12.2837 1.93185
      vertex 11.756 -10.0216 1.93734
      vertex 11.7877 -10.0486 1.93185
    endloop
  endfacet
  facet normal -0.0914278 0.0943151 -0.991335
    outer loop
      vertex 11.756 -10.0216 1.93734
      vertex 9.48199 -12.2837 1.93185
      vertex 9.16569 -11.874 2
    endloop
  endfacet
  facet normal -0.09143 0.0943182 -0.991335
    outer loop
      vertex 11.756 -10.0216 1.93734
      vertex 9.16569 -11.874 2
      vertex 11.3945 -9.71344 2
    endloop
  endfacet
  facet normal -0.26791 0.276369 -0.922954
    outer loop
      vertex 9.77673 -12.6656 1.73205
      vertex 12.1247 -10.3359 1.7481
      vertex 12.1541 -10.361 1.73205
    endloop
  endfacet
  facet normal -0.26778 0.27624 -0.923031
    outer loop
      vertex 12.1247 -10.3359 1.7481
      vertex 9.77673 -12.6656 1.73205
      vertex 9.48199 -12.2837 1.93185
    endloop
  endfacet
  facet normal -0.267782 0.276241 -0.92303
    outer loop
      vertex 12.1247 -10.3359 1.7481
      vertex 9.48199 -12.2837 1.93185
      vertex 11.7877 -10.0486 1.93185
    endloop
  endfacet
  facet normal -0.426084 0.439528 -0.790739
    outer loop
      vertex 10.0298 -12.9935 1.41421
      vertex 12.4436 -10.6078 1.43963
      vertex 12.4687 -10.6292 1.41421
    endloop
  endfacet
  facet normal -0.425414 0.438858 -0.791471
    outer loop
      vertex 12.4436 -10.6078 1.43963
      vertex 10.0298 -12.9935 1.41421
      vertex 9.77673 -12.6656 1.73205
    endloop
  endfacet
  facet normal -0.425404 0.438844 -0.791484
    outer loop
      vertex 9.77673 -12.6656 1.73205
      vertex 12.1754 -10.3792 1.71053
      vertex 12.4436 -10.6078 1.43963
    endloop
  endfacet
  facet normal -0.425168 0.438593 -0.79175
    outer loop
      vertex 12.1754 -10.3792 1.71053
      vertex 9.77673 -12.6656 1.73205
      vertex 12.1541 -10.361 1.73205
    endloop
  endfacet
  facet normal -0.553239 0.570731 -0.606789
    outer loop
      vertex 10.224 -13.2451 0.999999
      vertex 12.691 -10.8187 1.03293
      vertex 12.7102 -10.8351 0.999999
    endloop
  endfacet
  facet normal -0.55349 0.57098 -0.606325
    outer loop
      vertex 12.691 -10.8187 1.03293
      vertex 10.224 -13.2451 0.999999
      vertex 10.0298 -12.9935 1.41421
    endloop
  endfacet
  facet normal -0.553448 0.570911 -0.606429
    outer loop
      vertex 12.691 -10.8187 1.03293
      vertex 10.0298 -12.9935 1.41421
      vertex 12.4687 -10.6292 1.41421
    endloop
  endfacet
  facet normal -0.643637 0.663985 -0.3806
    outer loop
      vertex 10.3461 -13.4032 0.517637
      vertex 12.85 -10.9542 0.555725
      vertex 12.862 -10.9644 0.517637
    endloop
  endfacet
  facet normal -0.643649 0.663996 -0.380559
    outer loop
      vertex 12.85 -10.9542 0.555725
      vertex 10.3461 -13.4032 0.517637
      vertex 10.224 -13.2451 0.999999
    endloop
  endfacet
  facet normal -0.644219 0.664588 -0.378557
    outer loop
      vertex 12.7146 -10.8389 0.98584
      vertex 10.224 -13.2451 0.999999
      vertex 12.7102 -10.8351 0.999999
    endloop
  endfacet
  facet normal -0.64364 0.663977 -0.380608
    outer loop
      vertex 10.224 -13.2451 0.999999
      vertex 12.7146 -10.8389 0.98584
      vertex 12.85 -10.9542 0.555725
    endloop
  endfacet
  facet normal -0.690179 0.711967 -0.129444
    outer loop
      vertex 10.3878 -13.4572 0
      vertex 12.9097 -11.0051 0.0405783
      vertex 12.9137 -11.0086 0
    endloop
  endfacet
  facet normal -0.690137 0.711931 -0.129865
    outer loop
      vertex 12.9097 -11.0051 0.0405783
      vertex 10.3878 -13.4572 0
      vertex 10.3461 -13.4032 0.517637
    endloop
  endfacet
  facet normal -0.690136 0.711954 -0.129745
    outer loop
      vertex 12.9097 -11.0051 0.0405783
      vertex 10.3461 -13.4032 0.517637
      vertex 12.862 -10.9644 0.517637
    endloop
  endfacet
  facet normal 0 0 -1
    outer loop
      vertex 10.3878 -13.4572 0
      vertex 13.6982 -11.6773 0
      vertex 10.8741 -14.3442 0
    endloop
  endfacet
  facet normal -0 0 -1
    outer loop
      vertex 13.6982 -11.6773 0
      vertex 10.3878 -13.4572 0
      vertex 12.9137 -11.0086 0
    endloop
  endfacet
  facet normal 0 0 -1
    outer loop
      vertex 7.12443 -15.4352 0
      vertex 10.8741 -14.3442 0
      vertex 7.54351 -16.3431 0
    endloop
  endfacet
  facet normal -0 0 -1
    outer loop
      vertex 10.8741 -14.3442 0
      vertex 7.12443 -15.4352 0
      vertex 10.3878 -13.4572 0
    endloop
  endfacet
  facet normal 0 0 -1
    outer loop
      vertex 3.86167 -17.5809 0
      vertex 7.12443 -15.4352 0
      vertex 7.54351 -16.3431 0
    endloop
  endfacet
  facet normal 0 0 -1
    outer loop
      vertex 3.86167 -17.5809 0
      vertex 3.5021 -16.6354 0
      vertex 7.12443 -15.4352 0
    endloop
  endfacet
  facet normal 0 0 -1
    outer loop
      vertex 3.99681e-15 -18 0
      vertex 3.5021 -16.6354 0
      vertex 3.86167 -17.5809 0
    endloop
  endfacet
  facet normal 0 0 -1
    outer loop
      vertex 3.5021 -16.6354 0
      vertex 3.99681e-15 -18 0
      vertex 3.76791e-15 -16.9692 0
    endloop
  endfacet
  facet normal 0 0 -1
    outer loop
      vertex 7.9436 -10.2908 0
      vertex 9.58831 -8.17375 0
      vertex 9.87521 -8.41832 0
    endloop
  endfacet
  facet normal 0 0 -1
    outer loop
      vertex 7.24938 -9.56282 0
      vertex 9.58831 -8.17375 0
      vertex 7.9436 -10.2908 0
    endloop
  endfacet
  facet normal -0 0 -1
    outer loop
      vertex 9.58831 -8.17375 0
      vertex 7.24938 -9.56282 0
      vertex 9.13216 -7.7849 0
    endloop
  endfacet
  facet normal 0 0 -1
    outer loop
      vertex 5.44809 -11.8034 0
      vertex 7.24938 -9.56282 0
      vertex 7.9436 -10.2908 0
    endloop
  endfacet
  facet normal 0 0 -1
    outer loop
      vertex 5.44809 -11.8034 0
      vertex 5.02901 -10.8954 0
      vertex 7.24938 -9.56282 0
    endloop
  endfacet
  facet normal 0 0 -1
    outer loop
      vertex 2.57445 -11.7206 0
      vertex 5.44809 -11.8034 0
      vertex 2.67808 -12.7212 0
    endloop
  endfacet
  facet normal 0 0 -1
    outer loop
      vertex 5.44809 -11.8034 0
      vertex 2.57445 -11.7206 0
      vertex 5.02901 -10.8954 0
    endloop
  endfacet
  facet normal 0 0 -1
    outer loop
      vertex 2.66454e-15 -12 0
      vertex 2.67808 -12.7212 0
      vertex 2.88135e-15 -12.9764 0
    endloop
  endfacet
  facet normal 0 0 -1
    outer loop
      vertex 2.67808 -12.7212 0
      vertex 2.66454e-15 -12 0
      vertex 2.57445 -11.7206 0
    endloop
  endfacet
endsolid OpenSCAD_Model
