solid OpenSCAD_Model
  facet normal -1 2.2204e-16 -5.73439e-21
    outer loop
      vertex 3.32332e-15 14.9669 0.0680714
      vertex 3.52244e-15 15.8637 1.03528
      vertex 3.55271e-15 16 0
    endloop
  endfacet
  facet normal -1 2.22027e-16 -2.05081e-19
    outer loop
      vertex 3.32332e-15 14.9669 0.0680714
      vertex 3.55271e-15 16 0
      vertex 3.32531e-15 14.9758 0
    endloop
  endfacet
  facet normal -1 2.22045e-16 -1.06876e-20
    outer loop
      vertex 3.52244e-15 15.8637 1.03528
      vertex 3.32332e-15 14.9669 0.0680714
      vertex 3.30264e-15 14.8738 0.776457
    endloop
  endfacet
  facet normal -1 2.21983e-16 2.295e-19
    outer loop
      vertex 3.29675e-15 14.8472 0.840674
      vertex 3.52244e-15 15.8637 1.03528
      vertex 3.30264e-15 14.8738 0.776457
    endloop
  endfacet
  facet normal -1 2.22028e-16 -7.86185e-21
    outer loop
      vertex 3.52244e-15 15.8637 1.03528
      vertex 3.29675e-15 14.8472 0.840674
      vertex 3.43371e-15 15.4641 2
    endloop
  endfacet
  facet normal -1 2.2206e-16 -2.49028e-20
    outer loop
      vertex 3.2362e-15 14.5746 1.5
      vertex 3.43371e-15 15.4641 2
      vertex 3.29675e-15 14.8472 0.840674
    endloop
  endfacet
  facet normal -1 2.21951e-16 1.69982e-19
    outer loop
      vertex 3.22671e-15 14.5318 1.55579
      vertex 3.43371e-15 15.4641 2
      vertex 3.2362e-15 14.5746 1.5
    endloop
  endfacet
  facet normal -1 2.22033e-16 -4.02473e-21
    outer loop
      vertex 3.43371e-15 15.4641 2
      vertex 3.22671e-15 14.5318 1.55579
      vertex 3.29256e-15 14.8284 2.82843
    endloop
  endfacet
  facet normal -1 2.22056e-16 -9.31793e-21
    outer loop
      vertex 3.13051e-15 14.0986 2.12132
      vertex 3.29256e-15 14.8284 2.82843
      vertex 3.22671e-15 14.5318 1.55579
    endloop
  endfacet
  facet normal -1 2.22035e-16 1.28171e-20
    outer loop
      vertex 3.11801e-15 14.0423 2.16459
      vertex 3.29256e-15 14.8284 2.82843
      vertex 3.13051e-15 14.0986 2.12132
    endloop
  endfacet
  facet normal -1 2.22044e-16 1.8921e-21
    outer loop
      vertex 3.11801e-15 14.0423 2.16459
      vertex 3.10862e-15 14 3.4641
      vertex 3.29256e-15 14.8284 2.82843
    endloop
  endfacet
  facet normal -1 2.22059e-16 2.3678e-21
    outer loop
      vertex 2.99277e-15 13.4783 2.59808
      vertex 3.10862e-15 14 3.4641
      vertex 3.11801e-15 14.0423 2.16459
    endloop
  endfacet
  facet normal -1 2.21935e-16 7.67189e-20
    outer loop
      vertex 2.97808e-15 13.4121 2.62553
      vertex 3.10862e-15 14 3.4641
      vertex 2.99277e-15 13.4783 2.59808
    endloop
  endfacet
  facet normal -1 2.2203e-16 1.04725e-20
    outer loop
      vertex 2.97808e-15 13.4121 2.62553
      vertex 2.89441e-15 13.0352 3.8637
      vertex 3.10862e-15 14 3.4641
    endloop
  endfacet
  facet normal -1 2.22059e-16 1.95034e-20
    outer loop
      vertex 2.83237e-15 12.7559 2.89778
      vertex 2.89441e-15 13.0352 3.8637
      vertex 2.97808e-15 13.4121 2.62553
    endloop
  endfacet
  facet normal -1 2.21964e-16 4.69894e-20
    outer loop
      vertex 2.8165e-15 12.6844 2.90721
      vertex 2.89441e-15 13.0352 3.8637
      vertex 2.83237e-15 12.7559 2.89778
    endloop
  endfacet
  facet normal -1 2.22065e-16 1.01429e-20
    outer loop
      vertex 2.8165e-15 12.6844 2.90721
      vertex 2.66453e-15 12 4
      vertex 2.89441e-15 13.0352 3.8637
    endloop
  endfacet
  facet normal -1 2.22055e-16 4.33032e-21
    outer loop
      vertex 2.66024e-15 11.9807 3
      vertex 2.66453e-15 12 4
      vertex 2.8165e-15 12.6844 2.90721
    endloop
  endfacet
  facet normal -1 2.22005e-16 5.30599e-21
    outer loop
      vertex 2.6443e-15 11.9089 2.99053
      vertex 2.66453e-15 12 4
      vertex 2.66024e-15 11.9807 3
    endloop
  endfacet
  facet normal -1 2.22049e-16 9.67279e-21
    outer loop
      vertex 2.43465e-15 10.9647 3.8637
      vertex 2.6443e-15 11.9089 2.99053
      vertex 2.48811e-15 11.2055 2.89778
    endloop
  endfacet
  facet normal -1 2.21977e-16 -8.33073e-21
    outer loop
      vertex 2.43465e-15 10.9647 3.8637
      vertex 2.48811e-15 11.2055 2.89778
      vertex 2.47326e-15 11.1386 2.87003
    endloop
  endfacet
  facet normal -1 2.22042e-16 1.98608e-21
    outer loop
      vertex 2.6443e-15 11.9089 2.99053
      vertex 2.43465e-15 10.9647 3.8637
      vertex 2.66453e-15 12 4
    endloop
  endfacet
  facet normal -1 2.22042e-16 5.84568e-21
    outer loop
      vertex 2.22044e-15 9.99997 3.4641
      vertex 2.47326e-15 11.1386 2.87003
      vertex 2.32771e-15 10.4831 2.59808
    endloop
  endfacet
  facet normal -1 2.22056e-16 1.37467e-20
    outer loop
      vertex 2.22044e-15 9.99997 3.4641
      vertex 2.32771e-15 10.4831 2.59808
      vertex 2.31503e-15 10.426 2.55417
    endloop
  endfacet
  facet normal -1 2.2204e-16 2.81457e-21
    outer loop
      vertex 2.47326e-15 11.1386 2.87003
      vertex 2.22044e-15 9.99997 3.4641
      vertex 2.43465e-15 10.9647 3.8637
    endloop
  endfacet
  facet normal -1 2.22039e-16 -3.01376e-21
    outer loop
      vertex 2.03649e-15 9.17154 2.82843
      vertex 2.31503e-15 10.426 2.55417
      vertex 2.18997e-15 9.86276 2.12132
    endloop
  endfacet
  facet normal -1 2.2202e-16 -2.1682e-20
    outer loop
      vertex 2.03649e-15 9.17154 2.82843
      vertex 2.18997e-15 9.86276 2.12132
      vertex 2.18034e-15 9.81938 2.06469
    endloop
  endfacet
  facet normal -1 2.22046e-16 1.55165e-21
    outer loop
      vertex 1.89534e-15 8.53586 2
      vertex 2.18034e-15 9.81938 2.06469
      vertex 2.08428e-15 9.38677 1.5
    endloop
  endfacet
  facet normal -1 2.22031e-16 -2.35225e-20
    outer loop
      vertex 1.89534e-15 8.53586 2
      vertex 2.08428e-15 9.38677 1.5
      vertex 2.07832e-15 9.35992 1.43507
    endloop
  endfacet
  facet normal -1 2.22041e-16 6.85595e-21
    outer loop
      vertex 2.31503e-15 10.426 2.55417
      vertex 2.03649e-15 9.17154 2.82843
      vertex 2.22044e-15 9.99997 3.4641
    endloop
  endfacet
  facet normal -1 2.22046e-16 1.87094e-21
    outer loop
      vertex 1.80661e-15 8.13626 1.03528
      vertex 2.07832e-15 9.35992 1.43507
      vertex 2.01784e-15 9.08755 0.776457
    endloop
  endfacet
  facet normal -1 2.22031e-16 -5.61045e-20
    outer loop
      vertex 1.80661e-15 8.13626 1.03528
      vertex 2.01784e-15 9.08755 0.776457
      vertex 2.01585e-15 9.07857 0.708108
    endloop
  endfacet
  facet normal -1 2.22045e-16 2.86879e-21
    outer loop
      vertex 1.77635e-15 7.99997 0
      vertex 2.01585e-15 9.07857 0.708108
      vertex 1.99518e-15 8.98549 0
    endloop
  endfacet
  facet normal -1 2.22046e-16 4.69583e-23
    outer loop
      vertex 2.18034e-15 9.81938 2.06469
      vertex 1.89534e-15 8.53586 2
      vertex 2.03649e-15 9.17154 2.82843
    endloop
  endfacet
  facet normal -1 2.22047e-16 3.50728e-23
    outer loop
      vertex 2.07832e-15 9.35992 1.43507
      vertex 1.80661e-15 8.13626 1.03528
      vertex 1.89534e-15 8.53586 2
    endloop
  endfacet
  facet normal -1 2.22049e-16 -2.95938e-21
    outer loop
      vertex 2.01585e-15 9.07857 0.708108
      vertex 1.77635e-15 7.99997 0
      vertex 1.80661e-15 8.13626 1.03528
    endloop
  endfacet
  facet normal 0.194974 -0.980808 -2.11675e-05
    outer loop
      vertex 14.5438 2.89118 2.82843
      vertex 13.7313 2.72965 3.4641
      vertex 9.80805 1.94975 3.4641
    endloop
  endfacet
  facet normal 0.194971 -0.980809 -2.22181e-05
    outer loop
      vertex 13.7313 2.72965 3.4641
      vertex 12.7851 2.54155 3.8637
      vertex 11.7697 2.3397 4
    endloop
  endfacet
  facet normal 0.194945 -0.980814 -1.70023e-05
    outer loop
      vertex 15.5592 3.09303 1.03528
      vertex 15.1673 3.01512 2
      vertex 14.5438 2.89118 2.82843
    endloop
  endfacet
  facet normal 0.194974 -0.980808 -9.09564e-06
    outer loop
      vertex 13.7313 2.72965 3.4641
      vertex 11.7697 2.3397 4
      vertex 9.80805 1.94975 3.4641
    endloop
  endfacet
  facet normal 0.194975 -0.980808 -1.35456e-05
    outer loop
      vertex 11.7697 2.3397 4
      vertex 10.7543 2.13785 3.8637
      vertex 9.80805 1.94975 3.4641
    endloop
  endfacet
  facet normal 0.194981 -0.980807 3.71773e-06
    outer loop
      vertex 9.80805 1.94975 3.4641
      vertex 11.1107 2.20871 2.91395
      vertex 11.7507 2.33594 3
    endloop
  endfacet
  facet normal 0.194477 -0.980905 -0.00218743
    outer loop
      vertex 11.8133 2.34837 2.99159
      vertex 9.80805 1.94975 3.4641
      vertex 11.7507 2.33594 3
    endloop
  endfacet
  facet normal 0.194959 -0.980811 -6.10111e-05
    outer loop
      vertex 12.5111 2.48708 2.89778
      vertex 9.80805 1.94975 3.4641
      vertex 11.8133 2.34837 2.99159
    endloop
  endfacet
  facet normal 0.194986 -0.980806 7.30886e-05
    outer loop
      vertex 12.5111 2.48708 2.89778
      vertex 14.5438 2.89118 2.82843
      vertex 9.80805 1.94975 3.4641
    endloop
  endfacet
  facet normal 0.194983 -0.980807 -1.98482e-05
    outer loop
      vertex 12.5698 2.49875 2.87295
      vertex 14.5438 2.89118 2.82843
      vertex 12.5111 2.48708 2.89778
    endloop
  endfacet
  facet normal 0.194984 -0.980806 -5.84286e-07
    outer loop
      vertex 13.2196 2.62793 2.59808
      vertex 14.5438 2.89118 2.82843
      vertex 12.5698 2.49875 2.87295
    endloop
  endfacet
  facet normal 0.194954 -0.980812 0.000178816
    outer loop
      vertex 13.2705 2.63804 2.55821
      vertex 14.5438 2.89118 2.82843
      vertex 13.2196 2.62793 2.59808
    endloop
  endfacet
  facet normal 0.194992 -0.980805 -9.74229e-06
    outer loop
      vertex 13.828 2.74888 2.12132
      vertex 14.5438 2.89118 2.82843
      vertex 13.2705 2.63804 2.55821
    endloop
  endfacet
  facet normal 0.194855 -0.980832 0.000134405
    outer loop
      vertex 13.8675 2.75672 2.06881
      vertex 14.5438 2.89118 2.82843
      vertex 13.828 2.74888 2.12132
    endloop
  endfacet
  facet normal 0.195019 -0.980799 -1.7435e-05
    outer loop
      vertex 14.2186 2.82654 1.60142
      vertex 14.5438 2.89118 2.82843
      vertex 13.8675 2.75672 2.06881
    endloop
  endfacet
  facet normal 0.194968 -0.98081 -3.3054e-06
    outer loop
      vertex 14.5438 2.89118 2.82843
      vertex 14.2186 2.82654 1.60142
      vertex 15.5592 3.09303 1.03528
    endloop
  endfacet
  facet normal 0.194945 -0.980814 0
    outer loop
      vertex 7.98011 1.58637 0
      vertex 7.98011 1.58637 1.03528
      vertex 7.84643 1.5598 0
    endloop
  endfacet
  facet normal 0.194972 -0.980809 0
    outer loop
      vertex 8.40071 1.66998 0
      vertex 7.98011 1.58637 1.03528
      vertex 7.98011 1.58637 0
    endloop
  endfacet
  facet normal 0.194975 -0.980808 1.19979e-06
    outer loop
      vertex 7.98011 1.58637 1.03528
      vertex 8.40071 1.66998 0
      vertex 9.80805 1.94975 3.4641
    endloop
  endfacet
  facet normal 0.195008 -0.980802 -1.55793e-05
    outer loop
      vertex 8.99552 1.78823 2.82843
      vertex 8.37204 1.66428 2
      vertex 7.98011 1.58637 1.03528
    endloop
  endfacet
  facet normal 0.194964 -0.98081 1.00104e-05
    outer loop
      vertex 9.80805 1.94975 3.4641
      vertex 8.99552 1.78823 2.82843
      vertex 7.98011 1.58637 1.03528
    endloop
  endfacet
  facet normal 0.194756 -0.980852 -0.000117096
    outer loop
      vertex 9.80805 1.94975 3.4641
      vertex 10.2819 2.04394 2.59808
      vertex 10.2953 2.0466 2.60373
    endloop
  endfacet
  facet normal 0.194966 -0.98081 2.26603e-06
    outer loop
      vertex 9.80805 1.94975 3.4641
      vertex 9.7236 1.93296 2.1606
      vertex 10.2819 2.04394 2.59808
    endloop
  endfacet
  facet normal 0.194907 -0.980822 6.21255e-06
    outer loop
      vertex 9.80805 1.94975 3.4641
      vertex 9.67348 1.923 2.12132
      vertex 9.7236 1.93296 2.1606
    endloop
  endfacet
  facet normal 0.194976 -0.980808 -9.51371e-07
    outer loop
      vertex 9.80805 1.94975 3.4641
      vertex 9.24549 1.83792 1.55174
      vertex 9.67348 1.923 2.12132
    endloop
  endfacet
  facet normal 0.195097 -0.980784 -3.80958e-05
    outer loop
      vertex 9.80805 1.94975 3.4641
      vertex 9.20662 1.83019 1.5
      vertex 9.24549 1.83792 1.55174
    endloop
  endfacet
  facet normal 0.19498 -0.980807 -7.21403e-07
    outer loop
      vertex 8.40071 1.66998 0
      vertex 9.20662 1.83019 1.5
      vertex 9.80805 1.94975 3.4641
    endloop
  endfacet
  facet normal 0.194935 -0.980816 2.42671e-05
    outer loop
      vertex 9.20662 1.83019 1.5
      vertex 8.40071 1.66998 0
      vertex 8.93797 1.77678 0.837655
    endloop
  endfacet
  facet normal 0.195355 -0.980732 -0.00025591
    outer loop
      vertex 8.93797 1.77678 0.837655
      vertex 8.40071 1.66998 0
      vertex 8.91314 1.77185 0.776457
    endloop
  endfacet
  facet normal 0.194987 -0.980806 -3.52955e-06
    outer loop
      vertex 8.40071 1.66998 0
      vertex 8.82168 1.75367 0.0669537
      vertex 8.91314 1.77185 0.776457
    endloop
  endfacet
  facet normal 0.194982 -0.980807 3.50585e-05
    outer loop
      vertex 8.82168 1.75367 0.0669537
      vertex 8.40071 1.66998 0
      vertex 8.81304 1.75195 0
    endloop
  endfacet
  facet normal 0.194978 -0.980808 -2.92591e-06
    outer loop
      vertex 9.80805 1.94975 3.4641
      vertex 11.0527 2.19718 2.90615
      vertex 11.1107 2.20871 2.91395
    endloop
  endfacet
  facet normal 0.195039 -0.980796 0.000137302
    outer loop
      vertex 9.80805 1.94975 3.4641
      vertex 10.9904 2.18479 2.89778
      vertex 11.0527 2.19718 2.90615
    endloop
  endfacet
  facet normal 0.19498 -0.980807 1.10842e-05
    outer loop
      vertex 9.80805 1.94975 3.4641
      vertex 10.34 2.05549 2.62264
      vertex 10.9904 2.18479 2.89778
    endloop
  endfacet
  facet normal 0.195041 -0.980795 5.05597e-05
    outer loop
      vertex 10.34 2.05549 2.62264
      vertex 9.80805 1.94975 3.4641
      vertex 10.2953 2.0466 2.60373
    endloop
  endfacet
  facet normal 0.195069 -0.98079 0.000244195
    outer loop
      vertex 14.2949 2.84169 1.5
      vertex 15.5592 3.09303 1.03528
      vertex 14.2186 2.82654 1.60142
    endloop
  endfacet
  facet normal 0.195047 -0.980794 0.000182986
    outer loop
      vertex 14.32 2.84667 1.43812
      vertex 15.5592 3.09303 1.03528
      vertex 14.2949 2.84169 1.5
    endloop
  endfacet
  facet normal 0.194979 -0.980807 -3.48921e-05
    outer loop
      vertex 14.5883 2.90003 0.776457
      vertex 15.5592 3.09303 1.03528
      vertex 14.32 2.84667 1.43812
    endloop
  endfacet
  facet normal 0.194936 -0.980816 0.00013294
    outer loop
      vertex 14.597 2.90175 0.70923
      vertex 15.5592 3.09303 1.03528
      vertex 14.5883 2.90003 0.776457
    endloop
  endfacet
  facet normal 0.194985 -0.980806 5.09916e-07
    outer loop
      vertex 15.1386 3.00942 0
      vertex 14.597 2.90175 0.70923
      vertex 14.6884 2.91992 0
    endloop
  endfacet
  facet normal 0.19498 -0.980807 -3.22669e-06
    outer loop
      vertex 14.597 2.90175 0.70923
      vertex 15.1386 3.00942 0
      vertex 15.5592 3.09303 1.03528
    endloop
  endfacet
  facet normal 0.194965 -0.98081 2.94221e-06
    outer loop
      vertex 15.4255 3.06645 0
      vertex 15.5592 3.09303 1.03528
      vertex 15.1386 3.00942 0
    endloop
  endfacet
  facet normal 0.194952 -0.980813 4.73694e-06
    outer loop
      vertex 15.6929 3.1196 0
      vertex 15.5592 3.09303 1.03528
      vertex 15.4255 3.06645 0
    endloop
  endfacet
  facet normal 0.0972049 0.986749 0.129911
    outer loop
      vertex 3.09511 15.5588 1.03528
      vertex 3.55271e-15 16 0
      vertex 3.52244e-15 15.8637 1.03528
    endloop
  endfacet
  facet normal 0.0971986 0.986748 0.129929
    outer loop
      vertex 3.09511 15.5588 1.03528
      vertex 3.1217 15.6925 0
      vertex 3.55271e-15 16 0
    endloop
  endfacet
  facet normal 0.0906312 0.920077 0.381108
    outer loop
      vertex 3.01714 15.1669 2
      vertex 3.52244e-15 15.8637 1.03528
      vertex 3.43371e-15 15.4641 2
    endloop
  endfacet
  facet normal 0.0906376 0.920083 0.381093
    outer loop
      vertex 3.01714 15.1669 2
      vertex 3.09511 15.5588 1.03528
      vertex 3.52244e-15 15.8637 1.03528
    endloop
  endfacet
  facet normal 0.0779143 0.790931 0.606925
    outer loop
      vertex 2.89312 14.5434 2.82843
      vertex 3.43371e-15 15.4641 2
      vertex 3.29256e-15 14.8284 2.82843
    endloop
  endfacet
  facet normal 0.077909 0.790924 0.606935
    outer loop
      vertex 2.89312 14.5434 2.82843
      vertex 3.01714 15.1669 2
      vertex 3.43371e-15 15.4641 2
    endloop
  endfacet
  facet normal 0.0598671 0.607679 0.791923
    outer loop
      vertex 2.73149 13.7309 3.4641
      vertex 3.29256e-15 14.8284 2.82843
      vertex 3.10862e-15 14 3.4641
    endloop
  endfacet
  facet normal 0.0598612 0.607669 0.791931
    outer loop
      vertex 2.73149 13.7309 3.4641
      vertex 2.89312 14.5434 2.82843
      vertex 3.29256e-15 14.8284 2.82843
    endloop
  endfacet
  facet normal 0.0376632 0.382385 0.923235
    outer loop
      vertex 2.54326 12.7847 3.8637
      vertex 3.10862e-15 14 3.4641
      vertex 2.89441e-15 13.0352 3.8637
    endloop
  endfacet
  facet normal 0.0376735 0.382404 0.923227
    outer loop
      vertex 2.54326 12.7847 3.8637
      vertex 2.73149 13.7309 3.4641
      vertex 3.10862e-15 14 3.4641
    endloop
  endfacet
  facet normal 0.0128562 0.130528 0.991361
    outer loop
      vertex 2.34127 11.7694 4
      vertex 2.89441e-15 13.0352 3.8637
      vertex 2.66453e-15 12 4
    endloop
  endfacet
  facet normal 0.0128565 0.130529 0.991361
    outer loop
      vertex 2.34127 11.7694 4
      vertex 2.54326 12.7847 3.8637
      vertex 2.89441e-15 13.0352 3.8637
    endloop
  endfacet
  facet normal -0.0128546 -0.130516 0.991363
    outer loop
      vertex 2.13928 10.754 3.8637
      vertex 2.66453e-15 12 4
      vertex 2.43465e-15 10.9647 3.8637
    endloop
  endfacet
  facet normal -0.012855 -0.130516 0.991363
    outer loop
      vertex 2.13928 10.754 3.8637
      vertex 2.34127 11.7694 4
      vertex 2.66453e-15 12 4
    endloop
  endfacet
  facet normal -0.0376673 -0.382408 0.923225
    outer loop
      vertex 1.95106 9.80779 3.4641
      vertex 2.43465e-15 10.9647 3.8637
      vertex 2.22044e-15 9.99997 3.4641
    endloop
  endfacet
  facet normal -0.0376632 -0.382402 0.923228
    outer loop
      vertex 1.95106 9.80779 3.4641
      vertex 2.13928 10.754 3.8637
      vertex 2.43465e-15 10.9647 3.8637
    endloop
  endfacet
  facet normal -0.0598555 -0.607666 0.791934
    outer loop
      vertex 1.78943 8.99528 2.82843
      vertex 2.22044e-15 9.99997 3.4641
      vertex 2.03649e-15 9.17154 2.82843
    endloop
  endfacet
  facet normal -0.0598553 -0.607666 0.791934
    outer loop
      vertex 1.78943 8.99528 2.82843
      vertex 1.95106 9.80779 3.4641
      vertex 2.22044e-15 9.99997 3.4641
    endloop
  endfacet
  facet normal -0.0779067 -0.790941 0.606913
    outer loop
      vertex 1.6654 8.37182 2
      vertex 2.03649e-15 9.17154 2.82843
      vertex 1.89534e-15 8.53586 2
    endloop
  endfacet
  facet normal -0.0779083 -0.790942 0.606911
    outer loop
      vertex 1.6654 8.37182 2
      vertex 1.78943 8.99528 2.82843
      vertex 2.03649e-15 9.17154 2.82843
    endloop
  endfacet
  facet normal -0.090626 -0.920078 0.381109
    outer loop
      vertex 1.58744 7.9799 1.03528
      vertex 1.89534e-15 8.53586 2
      vertex 1.80661e-15 8.13626 1.03528
    endloop
  endfacet
  facet normal -0.0906266 -0.920078 0.381108
    outer loop
      vertex 1.58744 7.9799 1.03528
      vertex 1.6654 8.37182 2
      vertex 1.89534e-15 8.53586 2
    endloop
  endfacet
  facet normal -0.097199 -0.986751 0.129901
    outer loop
      vertex 1.56085 7.84622 0
      vertex 1.80661e-15 8.13626 1.03528
      vertex 1.77635e-15 7.99997 0
    endloop
  endfacet
  facet normal -0.0971932 -0.986751 0.12991
    outer loop
      vertex 1.56085 7.84622 0
      vertex 1.58744 7.9799 1.03528
      vertex 1.80661e-15 8.13626 1.03528
    endloop
  endfacet
  facet normal 0.287853 0.94882 0.129927
    outer loop
      vertex 6.07125 14.6559 1.03528
      vertex 3.1217 15.6925 0
      vertex 3.09511 15.5588 1.03528
    endloop
  endfacet
  facet normal 0.287865 0.948821 0.129892
    outer loop
      vertex 6.07125 14.6559 1.03528
      vertex 6.12342 14.7818 0
      vertex 3.1217 15.6925 0
    endloop
  endfacet
  facet normal 0.268417 0.884715 0.381093
    outer loop
      vertex 5.91832 14.2867 2
      vertex 3.09511 15.5588 1.03528
      vertex 3.01714 15.1669 2
    endloop
  endfacet
  facet normal 0.268402 0.884705 0.381126
    outer loop
      vertex 5.91832 14.2867 2
      vertex 6.07125 14.6559 1.03528
      vertex 3.09511 15.5588 1.03528
    endloop
  endfacet
  facet normal 0.230708 0.760529 0.606934
    outer loop
      vertex 5.67504 13.6995 2.82843
      vertex 3.01714 15.1669 2
      vertex 2.89312 14.5434 2.82843
    endloop
  endfacet
  facet normal 0.230753 0.760571 0.606865
    outer loop
      vertex 5.67504 13.6995 2.82843
      vertex 5.91832 14.2867 2
      vertex 3.01714 15.1669 2
    endloop
  endfacet
  facet normal 0.177263 0.584315 0.791931
    outer loop
      vertex 5.35799 12.9341 3.4641
      vertex 2.89312 14.5434 2.82843
      vertex 2.73149 13.7309 3.4641
    endloop
  endfacet
  facet normal 0.177247 0.584297 0.791947
    outer loop
      vertex 5.35799 12.9341 3.4641
      vertex 5.67504 13.6995 2.82843
      vertex 2.89312 14.5434 2.82843
    endloop
  endfacet
  facet normal 0.111552 0.367707 0.923227
    outer loop
      vertex 4.98877 12.0428 3.8637
      vertex 2.73149 13.7309 3.4641
      vertex 2.54326 12.7847 3.8637
    endloop
  endfacet
  facet normal 0.11155 0.367705 0.923228
    outer loop
      vertex 4.98877 12.0428 3.8637
      vertex 5.35799 12.9341 3.4641
      vertex 2.73149 13.7309 3.4641
    endloop
  endfacet
  facet normal 0.0380777 0.125511 0.991361
    outer loop
      vertex 4.59256 11.0864 4
      vertex 2.54326 12.7847 3.8637
      vertex 2.34127 11.7694 4
    endloop
  endfacet
  facet normal 0.0380759 0.125509 0.991362
    outer loop
      vertex 4.59256 11.0864 4
      vertex 4.98877 12.0428 3.8637
      vertex 2.54326 12.7847 3.8637
    endloop
  endfacet
  facet normal -0.0380757 -0.125499 0.991363
    outer loop
      vertex 4.19634 10.1299 3.8637
      vertex 2.34127 11.7694 4
      vertex 2.13928 10.754 3.8637
    endloop
  endfacet
  facet normal -0.0380733 -0.125496 0.991363
    outer loop
      vertex 4.19634 10.1299 3.8637
      vertex 4.59256 11.0864 4
      vertex 2.34127 11.7694 4
    endloop
  endfacet
  facet normal -0.111552 -0.367704 0.923228
    outer loop
      vertex 3.82713 9.23864 3.4641
      vertex 2.13928 10.754 3.8637
      vertex 1.95106 9.80779 3.4641
    endloop
  endfacet
  facet normal -0.111563 -0.367715 0.923222
    outer loop
      vertex 3.82713 9.23864 3.4641
      vertex 4.19634 10.1299 3.8637
      vertex 2.13928 10.754 3.8637
    endloop
  endfacet
  facet normal -0.177264 -0.58431 0.791934
    outer loop
      vertex 3.51008 8.47328 2.82843
      vertex 1.95106 9.80779 3.4641
      vertex 1.78943 8.99528 2.82843
    endloop
  endfacet
  facet normal -0.177264 -0.58431 0.791934
    outer loop
      vertex 3.51008 8.47328 2.82843
      vertex 3.82713 9.23864 3.4641
      vertex 1.95106 9.80779 3.4641
    endloop
  endfacet
  facet normal -0.230727 -0.760541 0.606912
    outer loop
      vertex 3.2668 7.886 2
      vertex 1.78943 8.99528 2.82843
      vertex 1.6654 8.37182 2
    endloop
  endfacet
  facet normal -0.230728 -0.760542 0.60691
    outer loop
      vertex 3.2668 7.886 2
      vertex 3.51008 8.47328 2.82843
      vertex 1.78943 8.99528 2.82843
    endloop
  endfacet
  facet normal -0.268401 -0.884714 0.381107
    outer loop
      vertex 3.11386 7.51682 1.03528
      vertex 1.6654 8.37182 2
      vertex 1.58744 7.9799 1.03528
    endloop
  endfacet
  facet normal -0.268397 -0.884713 0.381112
    outer loop
      vertex 3.11386 7.51682 1.03528
      vertex 3.2668 7.886 2
      vertex 1.6654 8.37182 2
    endloop
  endfacet
  facet normal -0.287849 -0.948824 0.129909
    outer loop
      vertex 3.0617 7.3909 0
      vertex 1.58744 7.9799 1.03528
      vertex 1.56085 7.84622 0
    endloop
  endfacet
  facet normal -0.287851 -0.948824 0.129907
    outer loop
      vertex 3.0617 7.3909 0
      vertex 3.11386 7.51682 1.03528
      vertex 1.58744 7.9799 1.03528
    endloop
  endfacet
  facet normal 0.46744 0.87443 0.129894
    outer loop
      vertex 8.81404 13.1897 1.03528
      vertex 6.12342 14.7818 0
      vertex 6.07125 14.6559 1.03528
    endloop
  endfacet
  facet normal 0.467441 0.87443 0.12989
    outer loop
      vertex 8.81404 13.1897 1.03528
      vertex 8.88977 13.303 0
      vertex 6.12342 14.7818 0
    endloop
  endfacet
  facet normal 0.435836 0.815347 0.381125
    outer loop
      vertex 8.59202 12.8575 2
      vertex 6.07125 14.6559 1.03528
      vertex 5.91832 14.2867 2
    endloop
  endfacet
  facet normal 0.435861 0.815357 0.381076
    outer loop
      vertex 8.59202 12.8575 2
      vertex 8.81404 13.1897 1.03528
      vertex 6.07125 14.6559 1.03528
    endloop
  endfacet
  facet normal 0.374716 0.700929 0.606866
    outer loop
      vertex 8.23883 12.3289 2.82843
      vertex 5.91832 14.2867 2
      vertex 5.67504 13.6995 2.82843
    endloop
  endfacet
  facet normal 0.374654 0.70089 0.606949
    outer loop
      vertex 8.23883 12.3289 2.82843
      vertex 8.59202 12.8575 2
      vertex 5.91832 14.2867 2
    endloop
  endfacet
  facet normal 0.287844 0.538484 0.791947
    outer loop
      vertex 7.77855 11.6402 3.4641
      vertex 5.67504 13.6995 2.82843
      vertex 5.35799 12.9341 3.4641
    endloop
  endfacet
  facet normal 0.287893 0.53852 0.791905
    outer loop
      vertex 7.77855 11.6402 3.4641
      vertex 8.23883 12.3289 2.82843
      vertex 5.67504 13.6995 2.82843
    endloop
  endfacet
  facet normal 0.181151 0.338873 0.923228
    outer loop
      vertex 7.24254 10.838 3.8637
      vertex 5.35799 12.9341 3.4641
      vertex 4.98877 12.0428 3.8637
    endloop
  endfacet
  facet normal 0.181136 0.33886 0.923235
    outer loop
      vertex 7.24254 10.838 3.8637
      vertex 7.77855 11.6402 3.4641
      vertex 5.35799 12.9341 3.4641
    endloop
  endfacet
  facet normal 0.0618334 0.115667 0.991362
    outer loop
      vertex 6.66732 9.97727 4
      vertex 4.98877 12.0428 3.8637
      vertex 4.59256 11.0864 4
    endloop
  endfacet
  facet normal 0.0618311 0.115665 0.991362
    outer loop
      vertex 6.66732 9.97727 4
      vertex 7.24254 10.838 3.8637
      vertex 4.98877 12.0428 3.8637
    endloop
  endfacet
  facet normal -0.0618256 -0.115657 0.991363
    outer loop
      vertex 6.09211 9.1165 3.8637
      vertex 4.59256 11.0864 4
      vertex 4.19634 10.1299 3.8637
    endloop
  endfacet
  facet normal -0.0618302 -0.115661 0.991362
    outer loop
      vertex 6.09211 9.1165 3.8637
      vertex 6.66732 9.97727 4
      vertex 4.59256 11.0864 4
    endloop
  endfacet
  facet normal -0.181157 -0.338885 0.923222
    outer loop
      vertex 5.5561 8.31439 3.4641
      vertex 4.19634 10.1299 3.8637
      vertex 3.82713 9.23864 3.4641
    endloop
  endfacet
  facet normal -0.181152 -0.338882 0.923224
    outer loop
      vertex 5.5561 8.31439 3.4641
      vertex 6.09211 9.1165 3.8637
      vertex 4.19634 10.1299 3.8637
    endloop
  endfacet
  facet normal -0.28786 -0.538495 0.791934
    outer loop
      vertex 5.09582 7.6256 2.82843
      vertex 3.82713 9.23864 3.4641
      vertex 3.51008 8.47328 2.82843
    endloop
  endfacet
  facet normal -0.287862 -0.538496 0.791933
    outer loop
      vertex 5.09582 7.6256 2.82843
      vertex 5.5561 8.31439 3.4641
      vertex 3.82713 9.23864 3.4641
    endloop
  endfacet
  facet normal -0.374683 -0.700909 0.60691
    outer loop
      vertex 4.74263 7.09707 2
      vertex 3.51008 8.47328 2.82843
      vertex 3.2668 7.886 2
    endloop
  endfacet
  facet normal -0.37468 -0.700908 0.606912
    outer loop
      vertex 4.74263 7.09707 2
      vertex 5.09582 7.6256 2.82843
      vertex 3.51008 8.47328 2.82843
    endloop
  endfacet
  facet normal -0.435852 -0.815344 0.381114
    outer loop
      vertex 4.5206 6.76483 1.03528
      vertex 3.2668 7.886 2
      vertex 3.11386 7.51682 1.03528
    endloop
  endfacet
  facet normal -0.435856 -0.815344 0.381109
    outer loop
      vertex 4.5206 6.76483 1.03528
      vertex 4.74263 7.09707 2
      vertex 3.2668 7.886 2
    endloop
  endfacet
  facet normal -0.467434 -0.874431 0.129907
    outer loop
      vertex 4.44488 6.65151 0
      vertex 3.11386 7.51682 1.03528
      vertex 3.0617 7.3909 0
    endloop
  endfacet
  facet normal -0.467437 -0.87443 0.129902
    outer loop
      vertex 4.44488 6.65151 0
      vertex 4.5206 6.76483 1.03528
      vertex 3.11386 7.51682 1.03528
    endloop
  endfacet
  facet normal 0.629045 0.76644 0.129893
    outer loop
      vertex 11.2181 11.2166 1.03528
      vertex 8.88977 13.303 0
      vertex 8.81404 13.1897 1.03528
    endloop
  endfacet
  facet normal 0.629074 0.76643 0.129807
    outer loop
      vertex 11.2181 11.2166 1.03528
      vertex 11.3144 11.3129 0
      vertex 8.88977 13.303 0
    endloop
  endfacet
  facet normal 0.58657 0.714643 0.381079
    outer loop
      vertex 10.9355 10.934 2
      vertex 8.81404 13.1897 1.03528
      vertex 8.59202 12.8575 2
    endloop
  endfacet
  facet normal 0.586528 0.714636 0.381156
    outer loop
      vertex 10.9355 10.934 2
      vertex 11.2181 11.2166 1.03528
      vertex 8.81404 13.1897 1.03528
    endloop
  endfacet
  facet normal 0.504195 0.614332 0.606946
    outer loop
      vertex 10.486 10.4846 2.82843
      vertex 8.59202 12.8575 2
      vertex 8.23883 12.3289 2.82843
    endloop
  endfacet
  facet normal 0.504254 0.614354 0.606874
    outer loop
      vertex 10.486 10.4846 2.82843
      vertex 10.9355 10.934 2
      vertex 8.59202 12.8575 2
    endloop
  endfacet
  facet normal 0.387421 0.472005 0.791907
    outer loop
      vertex 9.90013 9.89881 3.4641
      vertex 8.23883 12.3289 2.82843
      vertex 7.77855 11.6402 3.4641
    endloop
  endfacet
  facet normal 0.38736 0.471976 0.791954
    outer loop
      vertex 9.90013 9.89881 3.4641
      vertex 10.486 10.4846 2.82843
      vertex 8.23883 12.3289 2.82843
    endloop
  endfacet
  facet normal 0.243772 0.297008 0.923234
    outer loop
      vertex 9.21792 9.21669 3.8637
      vertex 7.77855 11.6402 3.4641
      vertex 7.24254 10.838 3.8637
    endloop
  endfacet
  facet normal 0.243793 0.297019 0.923225
    outer loop
      vertex 9.21792 9.21669 3.8637
      vertex 9.90013 9.89881 3.4641
      vertex 7.77855 11.6402 3.4641
    endloop
  endfacet
  facet normal 0.0832088 0.101378 0.991362
    outer loop
      vertex 8.48582 8.48469 4
      vertex 7.24254 10.838 3.8637
      vertex 6.66732 9.97727 4
    endloop
  endfacet
  facet normal 0.0832058 0.101377 0.991362
    outer loop
      vertex 8.48582 8.48469 4
      vertex 9.21792 9.21669 3.8637
      vertex 7.24254 10.838 3.8637
    endloop
  endfacet
  facet normal -0.0832069 -0.101376 0.991362
    outer loop
      vertex 7.75372 7.75269 3.8637
      vertex 6.66732 9.97727 4
      vertex 6.09211 9.1165 3.8637
    endloop
  endfacet
  facet normal -0.0832067 -0.101376 0.991362
    outer loop
      vertex 7.75372 7.75269 3.8637
      vertex 8.48582 8.48469 4
      vertex 6.66732 9.97727 4
    endloop
  endfacet
  facet normal -0.24379 -0.297024 0.923224
    outer loop
      vertex 7.07152 7.07057 3.4641
      vertex 6.09211 9.1165 3.8637
      vertex 5.5561 8.31439 3.4641
    endloop
  endfacet
  facet normal -0.243791 -0.297024 0.923224
    outer loop
      vertex 7.07152 7.07057 3.4641
      vertex 7.75372 7.75269 3.8637
      vertex 6.09211 9.1165 3.8637
    endloop
  endfacet
  facet normal -0.387395 -0.471983 0.791932
    outer loop
      vertex 6.48569 6.48482 2.82843
      vertex 5.5561 8.31439 3.4641
      vertex 5.09582 7.6256 2.82843
    endloop
  endfacet
  facet normal -0.387392 -0.471982 0.791935
    outer loop
      vertex 6.48569 6.48482 2.82843
      vertex 7.07152 7.07057 3.4641
      vertex 5.5561 8.31439 3.4641
    endloop
  endfacet
  facet normal -0.504233 -0.614335 0.606912
    outer loop
      vertex 6.03617 6.03536 2
      vertex 5.09582 7.6256 2.82843
      vertex 4.74263 7.09707 2
    endloop
  endfacet
  facet normal -0.504235 -0.614335 0.60691
    outer loop
      vertex 6.03617 6.03536 2
      vertex 6.48569 6.48482 2.82843
      vertex 5.09582 7.6256 2.82843
    endloop
  endfacet
  facet normal -0.586557 -0.714637 0.38111
    outer loop
      vertex 5.75359 5.75282 1.03528
      vertex 4.74263 7.09707 2
      vertex 4.5206 6.76483 1.03528
    endloop
  endfacet
  facet normal -0.586558 -0.714637 0.381109
    outer loop
      vertex 5.75359 5.75282 1.03528
      vertex 6.03617 6.03536 2
      vertex 4.74263 7.09707 2
    endloop
  endfacet
  facet normal -0.629066 -0.766422 0.129901
    outer loop
      vertex 5.65721 5.65645 0
      vertex 4.5206 6.76483 1.03528
      vertex 4.44488 6.65151 0
    endloop
  endfacet
  facet normal -0.629063 -0.766423 0.129906
    outer loop
      vertex 5.65721 5.65645 0
      vertex 5.75359 5.75282 1.03528
      vertex 4.5206 6.76483 1.03528
    endloop
  endfacet
  facet normal 0.766529 0.628955 0.129806
    outer loop
      vertex 13.1909 8.81228 1.03528
      vertex 11.3144 11.3129 0
      vertex 11.2181 11.2166 1.03528
    endloop
  endfacet
  facet normal 0.766505 0.628968 0.129882
    outer loop
      vertex 13.1909 8.81228 1.03528
      vertex 13.3042 8.88799 0
      vertex 11.3144 11.3129 0
    endloop
  endfacet
  facet normal 0.714706 0.586445 0.381152
    outer loop
      vertex 12.8586 8.5903 2
      vertex 11.2181 11.2166 1.03528
      vertex 10.9355 10.934 2
    endloop
  endfacet
  facet normal 0.71472 0.586445 0.381127
    outer loop
      vertex 12.8586 8.5903 2
      vertex 13.1909 8.81228 1.03528
      vertex 11.2181 11.2166 1.03528
    endloop
  endfacet
  facet normal 0.614441 0.504146 0.606876
    outer loop
      vertex 12.33 8.23718 2.82843
      vertex 10.9355 10.934 2
      vertex 10.486 10.4846 2.82843
    endloop
  endfacet
  facet normal 0.6144 0.50414 0.606923
    outer loop
      vertex 12.33 8.23718 2.82843
      vertex 12.8586 8.5903 2
      vertex 10.9355 10.934 2
    endloop
  endfacet
  facet normal 0.472013 0.387313 0.791955
    outer loop
      vertex 11.6412 7.77699 3.4641
      vertex 10.486 10.4846 2.82843
      vertex 9.90013 9.89881 3.4641
    endloop
  endfacet
  facet normal 0.472062 0.387325 0.79192
    outer loop
      vertex 11.6412 7.77699 3.4641
      vertex 12.33 8.23718 2.82843
      vertex 10.486 10.4846 2.82843
    endloop
  endfacet
  facet normal 0.297056 0.243749 0.923225
    outer loop
      vertex 10.839 7.24109 3.8637
      vertex 9.90013 9.89881 3.4641
      vertex 9.21792 9.21669 3.8637
    endloop
  endfacet
  facet normal 0.297053 0.243749 0.923226
    outer loop
      vertex 10.839 7.24109 3.8637
      vertex 11.6412 7.77699 3.4641
      vertex 9.90013 9.89881 3.4641
    endloop
  endfacet
  facet normal 0.101387 0.0831932 0.991363
    outer loop
      vertex 9.97816 6.66599 4
      vertex 9.21792 9.21669 3.8637
      vertex 8.48582 8.48469 4
    endloop
  endfacet
  facet normal 0.101387 0.0831934 0.991362
    outer loop
      vertex 9.97816 6.66599 4
      vertex 10.839 7.24109 3.8637
      vertex 9.21792 9.21669 3.8637
    endloop
  endfacet
  facet normal -0.101387 -0.0831934 0.991363
    outer loop
      vertex 9.11732 6.09089 3.8637
      vertex 8.48582 8.48469 4
      vertex 7.75372 7.75269 3.8637
    endloop
  endfacet
  facet normal -0.101387 -0.0831935 0.991362
    outer loop
      vertex 9.11732 6.09089 3.8637
      vertex 9.97816 6.66599 4
      vertex 8.48582 8.48469 4
    endloop
  endfacet
  facet normal -0.297058 -0.243751 0.923224
    outer loop
      vertex 8.31513 5.55499 3.4641
      vertex 7.75372 7.75269 3.8637
      vertex 7.07152 7.07057 3.4641
    endloop
  endfacet
  facet normal -0.297055 -0.24375 0.923225
    outer loop
      vertex 8.31513 5.55499 3.4641
      vertex 9.11732 6.09089 3.8637
      vertex 7.75372 7.75269 3.8637
    endloop
  endfacet
  facet normal -0.472033 -0.38733 0.791935
    outer loop
      vertex 7.62628 5.0948 2.82843
      vertex 7.07152 7.07057 3.4641
      vertex 6.48569 6.48482 2.82843
    endloop
  endfacet
  facet normal -0.472037 -0.38733 0.791932
    outer loop
      vertex 7.62628 5.0948 2.82843
      vertex 8.31513 5.55499 3.4641
      vertex 7.07152 7.07057 3.4641
    endloop
  endfacet
  facet normal -0.614402 -0.504153 0.60691
    outer loop
      vertex 7.09771 4.74168 2
      vertex 6.48569 6.48482 2.82843
      vertex 6.03617 6.03536 2
    endloop
  endfacet
  facet normal -0.614403 -0.504153 0.606909
    outer loop
      vertex 7.09771 4.74168 2
      vertex 7.62628 5.0948 2.82843
      vertex 6.48569 6.48482 2.82843
    endloop
  endfacet
  facet normal -0.714716 -0.586462 0.381109
    outer loop
      vertex 6.76543 4.5197 1.03528
      vertex 6.03617 6.03536 2
      vertex 5.75359 5.75282 1.03528
    endloop
  endfacet
  facet normal -0.714712 -0.586463 0.381113
    outer loop
      vertex 6.76543 4.5197 1.03528
      vertex 7.09771 4.74168 2
      vertex 6.03617 6.03536 2
    endloop
  endfacet
  facet normal -0.766507 -0.628961 0.129906
    outer loop
      vertex 6.6521 4.44399 0
      vertex 5.75359 5.75282 1.03528
      vertex 5.65721 5.65645 0
    endloop
  endfacet
  facet normal -0.766508 -0.62896 0.129904
    outer loop
      vertex 6.6521 4.44399 0
      vertex 6.76543 4.5197 1.03528
      vertex 5.75359 5.75282 1.03528
    endloop
  endfacet
  facet normal 0.874499 0.467315 0.129879
    outer loop
      vertex 14.6567 6.06929 1.03528
      vertex 13.3042 8.88799 0
      vertex 13.1909 8.81228 1.03528
    endloop
  endfacet
  facet normal 0.874474 0.467336 0.12997
    outer loop
      vertex 14.6567 6.06929 1.03528
      vertex 14.7827 6.12144 0
      vertex 13.3042 8.88799 0
    endloop
  endfacet
  facet normal 0.815397 0.43574 0.381128
    outer loop
      vertex 14.2875 5.91641 2
      vertex 13.1909 8.81228 1.03528
      vertex 12.8586 8.5903 2
    endloop
  endfacet
  facet normal 0.815407 0.435737 0.381109
    outer loop
      vertex 14.2875 5.91641 2
      vertex 14.6567 6.06929 1.03528
      vertex 13.1909 8.81228 1.03528
    endloop
  endfacet
  facet normal 0.700946 0.374589 0.606925
    outer loop
      vertex 13.7002 5.67321 2.82843
      vertex 12.8586 8.5903 2
      vertex 12.33 8.23718 2.82843
    endloop
  endfacet
  facet normal 0.700965 0.374589 0.606903
    outer loop
      vertex 13.7002 5.67321 2.82843
      vertex 14.2875 5.91641 2
      vertex 12.8586 8.5903 2
    endloop
  endfacet
  facet normal 0.538555 0.287796 0.791917
    outer loop
      vertex 12.9348 5.35626 3.4641
      vertex 12.33 8.23718 2.82843
      vertex 11.6412 7.77699 3.4641
    endloop
  endfacet
  facet normal 0.538531 0.287794 0.791933
    outer loop
      vertex 12.9348 5.35626 3.4641
      vertex 13.7002 5.67321 2.82843
      vertex 12.33 8.23718 2.82843
    endloop
  endfacet
  facet normal 0.3389 0.181108 0.923226
    outer loop
      vertex 12.0435 4.98716 3.8637
      vertex 11.6412 7.77699 3.4641
      vertex 10.839 7.24109 3.8637
    endloop
  endfacet
  facet normal 0.338912 0.181109 0.923222
    outer loop
      vertex 12.0435 4.98716 3.8637
      vertex 12.9348 5.35626 3.4641
      vertex 11.6412 7.77699 3.4641
    endloop
  endfacet
  facet normal 0.11567 0.0618144 0.991362
    outer loop
      vertex 11.087 4.59108 4
      vertex 10.839 7.24109 3.8637
      vertex 9.97816 6.66599 4
    endloop
  endfacet
  facet normal 0.115671 0.0618145 0.991362
    outer loop
      vertex 11.087 4.59108 4
      vertex 12.0435 4.98716 3.8637
      vertex 10.839 7.24109 3.8637
    endloop
  endfacet
  facet normal -0.11567 -0.0618146 0.991362
    outer loop
      vertex 10.1305 4.19499 3.8637
      vertex 9.97816 6.66599 4
      vertex 9.11732 6.09089 3.8637
    endloop
  endfacet
  facet normal -0.11567 -0.0618146 0.991362
    outer loop
      vertex 10.1305 4.19499 3.8637
      vertex 11.087 4.59108 4
      vertex 9.97816 6.66599 4
    endloop
  endfacet
  facet normal -0.338903 -0.181109 0.923225
    outer loop
      vertex 9.23915 3.8259 3.4641
      vertex 9.11732 6.09089 3.8637
      vertex 8.31513 5.55499 3.4641
    endloop
  endfacet
  facet normal -0.338897 -0.181109 0.923227
    outer loop
      vertex 9.23915 3.8259 3.4641
      vertex 10.1305 4.19499 3.8637
      vertex 9.11732 6.09089 3.8637
    endloop
  endfacet
  facet normal -0.538535 -0.28779 0.791933
    outer loop
      vertex 8.47375 3.50895 2.82843
      vertex 8.31513 5.55499 3.4641
      vertex 7.62628 5.0948 2.82843
    endloop
  endfacet
  facet normal -0.538533 -0.28779 0.791934
    outer loop
      vertex 8.47375 3.50895 2.82843
      vertex 9.23915 3.8259 3.4641
      vertex 8.31513 5.55499 3.4641
    endloop
  endfacet
  facet normal -0.700961 -0.374588 0.606909
    outer loop
      vertex 7.88644 3.26574 2
      vertex 7.62628 5.0948 2.82843
      vertex 7.09771 4.74168 2
    endloop
  endfacet
  facet normal -0.700958 -0.374588 0.606911
    outer loop
      vertex 7.88644 3.26574 2
      vertex 8.47375 3.50895 2.82843
      vertex 7.62628 5.0948 2.82843
    endloop
  endfacet
  facet normal -0.8154 -0.435747 0.381114
    outer loop
      vertex 7.51724 3.11286 1.03528
      vertex 7.09771 4.74168 2
      vertex 6.76543 4.5197 1.03528
    endloop
  endfacet
  facet normal -0.815403 -0.435745 0.381109
    outer loop
      vertex 7.51724 3.11286 1.03528
      vertex 7.88644 3.26574 2
      vertex 7.09771 4.74168 2
    endloop
  endfacet
  facet normal -0.874493 -0.46732 0.129904
    outer loop
      vertex 7.39131 3.06071 0
      vertex 6.76543 4.5197 1.03528
      vertex 6.6521 4.44399 0
    endloop
  endfacet
  facet normal -0.874489 -0.467324 0.129912
    outer loop
      vertex 7.39131 3.06071 0
      vertex 7.51724 3.11286 1.03528
      vertex 6.76543 4.5197 1.03528
    endloop
  endfacet
  facet normal 0.948853 0.287723 0.129975
    outer loop
      vertex 15.5592 3.09303 1.03528
      vertex 14.7827 6.12144 0
      vertex 14.6567 6.06929 1.03528
    endloop
  endfacet
  facet normal 0.948864 0.287709 0.129924
    outer loop
      vertex 15.5592 3.09303 1.03528
      vertex 15.6929 3.1196 0
      vertex 14.7827 6.12144 0
    endloop
  endfacet
  facet normal 0.884745 0.268294 0.38111
    outer loop
      vertex 15.1673 3.01512 2
      vertex 14.6567 6.06929 1.03528
      vertex 14.2875 5.91641 2
    endloop
  endfacet
  facet normal 0.884758 0.268288 0.381084
    outer loop
      vertex 15.1673 3.01512 2
      vertex 15.5592 3.09303 1.03528
      vertex 14.6567 6.06929 1.03528
    endloop
  endfacet
  facet normal 0.760577 0.230631 0.606903
    outer loop
      vertex 14.5438 2.89118 2.82843
      vertex 14.2875 5.91641 2
      vertex 13.7002 5.67321 2.82843
    endloop
  endfacet
  facet normal 0.76056 0.230635 0.606924
    outer loop
      vertex 14.5438 2.89118 2.82843
      vertex 15.1673 3.01512 2
      vertex 14.2875 5.91641 2
    endloop
  endfacet
  facet normal 0.584331 0.177194 0.791934
    outer loop
      vertex 13.7313 2.72965 3.4641
      vertex 13.7002 5.67321 2.82843
      vertex 12.9348 5.35626 3.4641
    endloop
  endfacet
  facet normal 0.584345 0.177192 0.791924
    outer loop
      vertex 13.7313 2.72965 3.4641
      vertex 14.5438 2.89118 2.82843
      vertex 13.7002 5.67321 2.82843
    endloop
  endfacet
  facet normal 0.367733 0.11151 0.923221
    outer loop
      vertex 12.7851 2.54155 3.8637
      vertex 12.9348 5.35626 3.4641
      vertex 12.0435 4.98716 3.8637
    endloop
  endfacet
  facet normal 0.367729 0.111511 0.923223
    outer loop
      vertex 13.7313 2.72965 3.4641
      vertex 12.9348 5.35626 3.4641
      vertex 12.7851 2.54155 3.8637
    endloop
  endfacet
  facet normal 0.125508 0.0380586 0.991362
    outer loop
      vertex 11.7697 2.3397 4
      vertex 12.0435 4.98716 3.8637
      vertex 11.087 4.59108 4
    endloop
  endfacet
  facet normal 0.125508 0.0380586 0.991362
    outer loop
      vertex 12.7851 2.54155 3.8637
      vertex 12.0435 4.98716 3.8637
      vertex 11.7697 2.3397 4
    endloop
  endfacet
  facet normal -0.125508 -0.0380585 0.991362
    outer loop
      vertex 10.7543 2.13785 3.8637
      vertex 11.087 4.59108 4
      vertex 10.1305 4.19499 3.8637
    endloop
  endfacet
  facet normal -0.125508 -0.0380585 0.991362
    outer loop
      vertex 11.7697 2.3397 4
      vertex 11.087 4.59108 4
      vertex 10.7543 2.13785 3.8637
    endloop
  endfacet
  facet normal -0.36772 -0.111503 0.923228
    outer loop
      vertex 9.80805 1.94975 3.4641
      vertex 10.1305 4.19499 3.8637
      vertex 9.23915 3.8259 3.4641
    endloop
  endfacet
  facet normal -0.367713 -0.111504 0.92323
    outer loop
      vertex 10.7543 2.13785 3.8637
      vertex 10.1305 4.19499 3.8637
      vertex 9.80805 1.94975 3.4641
    endloop
  endfacet
  facet normal -0.584334 -0.177186 0.791934
    outer loop
      vertex 8.99552 1.78823 2.82843
      vertex 9.23915 3.8259 3.4641
      vertex 8.47375 3.50895 2.82843
    endloop
  endfacet
  facet normal -0.584334 -0.177186 0.791933
    outer loop
      vertex 9.80805 1.94975 3.4641
      vertex 9.23915 3.8259 3.4641
      vertex 8.99552 1.78823 2.82843
    endloop
  endfacet
  facet normal -0.760574 -0.230624 0.60691
    outer loop
      vertex 8.37204 1.66428 2
      vertex 8.47375 3.50895 2.82843
      vertex 7.88644 3.26574 2
    endloop
  endfacet
  facet normal -0.76057 -0.230626 0.606914
    outer loop
      vertex 8.99552 1.78823 2.82843
      vertex 8.47375 3.50895 2.82843
      vertex 8.37204 1.66428 2
    endloop
  endfacet
  facet normal -0.88475 -0.268278 0.38111
    outer loop
      vertex 7.98011 1.58637 1.03528
      vertex 7.88644 3.26574 2
      vertex 7.51724 3.11286 1.03528
    endloop
  endfacet
  facet normal -0.884751 -0.268277 0.381107
    outer loop
      vertex 7.98011 1.58637 1.03528
      vertex 8.37204 1.66428 2
      vertex 7.88644 3.26574 2
    endloop
  endfacet
  facet normal -0.948862 -0.287723 0.129912
    outer loop
      vertex 7.84643 1.5598 0
      vertex 7.51724 3.11286 1.03528
      vertex 7.39131 3.06071 0
    endloop
  endfacet
  facet normal -0.948864 -0.287719 0.129906
    outer loop
      vertex 7.84643 1.5598 0
      vertex 7.98011 1.58637 1.03528
      vertex 7.51724 3.11286 1.03528
    endloop
  endfacet
  facet normal -0.0824422 -0.988099 -0.129861
    outer loop
      vertex 2.72427 14.6465 0.776457
      vertex 3.30264e-15 14.8738 0.776457
      vertex 3.32332e-15 14.9669 0.0680714
    endloop
  endfacet
  facet normal -0.0824278 -0.988187 -0.129201
    outer loop
      vertex 2.74297 14.747 0
      vertex 3.32332e-15 14.9669 0.0680714
      vertex 3.32531e-15 14.9758 0
    endloop
  endfacet
  facet normal -0.0824375 -0.988097 -0.129879
    outer loop
      vertex 3.32332e-15 14.9669 0.0680714
      vertex 2.74297 14.747 0
      vertex 2.72427 14.6465 0.776457
    endloop
  endfacet
  facet normal -0.0768671 -0.921394 -0.380953
    outer loop
      vertex 2.66947 14.3519 1.5
      vertex 3.2362e-15 14.5746 1.5
      vertex 3.29675e-15 14.8472 0.840674
    endloop
  endfacet
  facet normal -0.0768559 -0.921145 -0.381557
    outer loop
      vertex 2.72427 14.6465 0.776457
      vertex 3.29675e-15 14.8472 0.840674
      vertex 3.30264e-15 14.8738 0.776457
    endloop
  endfacet
  facet normal -0.0768599 -0.921385 -0.380975
    outer loop
      vertex 3.29675e-15 14.8472 0.840674
      vertex 2.72427 14.6465 0.776457
      vertex 2.66947 14.3519 1.5
    endloop
  endfacet
  facet normal -0.0660745 -0.792124 -0.606773
    outer loop
      vertex 2.58229 13.8832 2.12132
      vertex 3.13051e-15 14.0986 2.12132
      vertex 3.22671e-15 14.5318 1.55579
    endloop
  endfacet
  facet normal -0.0660461 -0.791684 -0.60735
    outer loop
      vertex 2.66947 14.3519 1.5
      vertex 3.22671e-15 14.5318 1.55579
      vertex 3.2362e-15 14.5746 1.5
    endloop
  endfacet
  facet normal -0.0660629 -0.792103 -0.606802
    outer loop
      vertex 3.22671e-15 14.5318 1.55579
      vertex 2.66947 14.3519 1.5
      vertex 2.58229 13.8832 2.12132
    endloop
  endfacet
  facet normal -0.0507859 -0.60861 -0.791843
    outer loop
      vertex 2.46867 13.2723 2.59808
      vertex 2.99277e-15 13.4783 2.59808
      vertex 3.11801e-15 14.0423 2.16459
    endloop
  endfacet
  facet normal -0.0507638 -0.608561 -0.791882
    outer loop
      vertex 3.11801e-15 14.0423 2.16459
      vertex 2.58229 13.8832 2.12132
      vertex 2.46867 13.2723 2.59808
    endloop
  endfacet
  facet normal -0.0507653 -0.608591 -0.791858
    outer loop
      vertex 2.58229 13.8832 2.12132
      vertex 3.11801e-15 14.0423 2.16459
      vertex 3.13051e-15 14.0986 2.12132
    endloop
  endfacet
  facet normal -0.0319517 -0.38302 -0.923187
    outer loop
      vertex 2.33636 12.561 2.89778
      vertex 2.83237e-15 12.7559 2.89778
      vertex 2.97808e-15 13.4121 2.62553
    endloop
  endfacet
  facet normal -0.0319561 -0.383031 -0.923183
    outer loop
      vertex 2.97808e-15 13.4121 2.62553
      vertex 2.46867 13.2723 2.59808
      vertex 2.33636 12.561 2.89778
    endloop
  endfacet
  facet normal -0.0319459 -0.382834 -0.923265
    outer loop
      vertex 2.46867 13.2723 2.59808
      vertex 2.97808e-15 13.4121 2.62553
      vertex 2.99277e-15 13.4783 2.59808
    endloop
  endfacet
  facet normal -0.0109074 -0.130721 -0.991359
    outer loop
      vertex 2.19437 11.7976 3
      vertex 2.66024e-15 11.9807 3
      vertex 2.8165e-15 12.6844 2.90721
    endloop
  endfacet
  facet normal -0.0109054 -0.130716 -0.99136
    outer loop
      vertex 2.8165e-15 12.6844 2.90721
      vertex 2.33636 12.561 2.89778
      vertex 2.19437 11.7976 3
    endloop
  endfacet
  facet normal -0.010907 -0.130748 -0.991356
    outer loop
      vertex 2.33636 12.561 2.89778
      vertex 2.8165e-15 12.6844 2.90721
      vertex 2.83237e-15 12.7559 2.89778
    endloop
  endfacet
  facet normal 0.0109041 0.13072 -0.991359
    outer loop
      vertex 2.05238 11.0343 2.89778
      vertex 2.48811e-15 11.2055 2.89778
      vertex 2.6443e-15 11.9089 2.99053
    endloop
  endfacet
  facet normal 0.0109091 0.130732 -0.991358
    outer loop
      vertex 2.6443e-15 11.9089 2.99053
      vertex 2.19437 11.7976 3
      vertex 2.05238 11.0343 2.89778
    endloop
  endfacet
  facet normal 0.0109102 0.130754 -0.991355
    outer loop
      vertex 2.19437 11.7976 3
      vertex 2.6443e-15 11.9089 2.99053
      vertex 2.66024e-15 11.9807 3
    endloop
  endfacet
  facet normal 0.0319561 0.383008 -0.923192
    outer loop
      vertex 1.92007 10.3229 2.59808
      vertex 2.32771e-15 10.4831 2.59808
      vertex 2.47326e-15 11.1386 2.87003
    endloop
  endfacet
  facet normal 0.0319455 0.382987 -0.923201
    outer loop
      vertex 2.47326e-15 11.1386 2.87003
      vertex 2.05238 11.0343 2.89778
      vertex 1.92007 10.3229 2.59808
    endloop
  endfacet
  facet normal 0.0319438 0.382949 -0.923217
    outer loop
      vertex 2.05238 11.0343 2.89778
      vertex 2.47326e-15 11.1386 2.87003
      vertex 2.48811e-15 11.2055 2.89778
    endloop
  endfacet
  facet normal 0.0507645 0.608561 -0.791882
    outer loop
      vertex 1.80646 9.71207 2.12132
      vertex 2.18997e-15 9.86276 2.12132
      vertex 2.31503e-15 10.426 2.55417
    endloop
  endfacet
  facet normal 0.0507882 0.608601 -0.791849
    outer loop
      vertex 2.31503e-15 10.426 2.55417
      vertex 1.92007 10.3229 2.59808
      vertex 1.80646 9.71207 2.12132
    endloop
  endfacet
  facet normal 0.0507957 0.60881 -0.791688
    outer loop
      vertex 1.92007 10.3229 2.59808
      vertex 2.31503e-15 10.426 2.55417
      vertex 2.32771e-15 10.4831 2.59808
    endloop
  endfacet
  facet normal 0.0660707 0.792088 -0.60682
    outer loop
      vertex 1.71927 9.24336 1.5
      vertex 2.08428e-15 9.38677 1.5
      vertex 2.18034e-15 9.81938 2.06469
    endloop
  endfacet
  facet normal 0.0660763 0.792117 -0.606782
    outer loop
      vertex 1.80646 9.71207 2.12132
      vertex 2.18034e-15 9.81938 2.06469
      vertex 2.18997e-15 9.86276 2.12132
    endloop
  endfacet
  facet normal 0.0660759 0.792095 -0.606811
    outer loop
      vertex 2.18034e-15 9.81938 2.06469
      vertex 1.80646 9.71207 2.12132
      vertex 1.71927 9.24336 1.5
    endloop
  endfacet
  facet normal 0.0768545 0.921363 -0.38103
    outer loop
      vertex 1.66447 8.94871 0.776457
      vertex 2.01784e-15 9.08755 0.776457
      vertex 2.07832e-15 9.35992 1.43507
    endloop
  endfacet
  facet normal 0.0768547 0.921372 -0.381008
    outer loop
      vertex 1.71927 9.24336 1.5
      vertex 2.07832e-15 9.35992 1.43507
      vertex 2.08428e-15 9.38677 1.5
    endloop
  endfacet
  facet normal 0.0768549 0.921363 -0.38103
    outer loop
      vertex 2.07832e-15 9.35992 1.43507
      vertex 1.71927 9.24336 1.5
      vertex 1.66447 8.94871 0.776457
    endloop
  endfacet
  facet normal 0.0824205 0.988098 -0.129884
    outer loop
      vertex 1.64578 8.84821 0
      vertex 1.99518e-15 8.98549 0
      vertex 2.01585e-15 9.07857 0.708108
    endloop
  endfacet
  facet normal 0.0824218 0.988106 -0.129822
    outer loop
      vertex 1.66447 8.94871 0.776457
      vertex 2.01585e-15 9.07857 0.708108
      vertex 2.01784e-15 9.08755 0.776457
    endloop
  endfacet
  facet normal 0.0824235 0.988098 -0.129878
    outer loop
      vertex 2.01585e-15 9.07857 0.708108
      vertex 1.66447 8.94871 0.776457
      vertex 1.64578 8.84821 0
    endloop
  endfacet
  facet normal -0.278358 -0.951655 -0.129881
    outer loop
      vertex 5.59847 13.8058 0.776457
      vertex 2.72427 14.6465 0.776457
      vertex 2.74297 14.747 0
    endloop
  endfacet
  facet normal -0.27837 -0.951657 -0.129839
    outer loop
      vertex 5.59847 13.8058 0.776457
      vertex 2.74297 14.747 0
      vertex 5.63688 13.9005 0
    endloop
  endfacet
  facet normal -0.259569 -0.887401 -0.380976
    outer loop
      vertex 5.48584 13.5281 1.5
      vertex 2.66947 14.3519 1.5
      vertex 2.72427 14.6465 0.776457
    endloop
  endfacet
  facet normal -0.259562 -0.887396 -0.380992
    outer loop
      vertex 5.48584 13.5281 1.5
      vertex 2.72427 14.6465 0.776457
      vertex 5.59847 13.8058 0.776457
    endloop
  endfacet
  facet normal -0.223175 -0.762879 -0.606802
    outer loop
      vertex 5.30668 13.0862 2.12132
      vertex 2.58229 13.8832 2.12132
      vertex 2.66947 14.3519 1.5
    endloop
  endfacet
  facet normal -0.22313 -0.762827 -0.606884
    outer loop
      vertex 5.30668 13.0862 2.12132
      vertex 2.66947 14.3519 1.5
      vertex 5.48584 13.5281 1.5
    endloop
  endfacet
  facet normal -0.171434 -0.586117 -0.791882
    outer loop
      vertex 5.07319 12.5105 2.59808
      vertex 2.46867 13.2723 2.59808
      vertex 2.58229 13.8832 2.12132
    endloop
  endfacet
  facet normal -0.171485 -0.586187 -0.791819
    outer loop
      vertex 5.07319 12.5105 2.59808
      vertex 2.58229 13.8832 2.12132
      vertex 5.30668 13.0862 2.12132
    endloop
  endfacet
  facet normal -0.107905 -0.368903 -0.923183
    outer loop
      vertex 4.80129 11.84 2.89778
      vertex 2.33636 12.561 2.89778
      vertex 2.46867 13.2723 2.59808
    endloop
  endfacet
  facet normal -0.107898 -0.368892 -0.923188
    outer loop
      vertex 4.80129 11.84 2.89778
      vertex 2.46867 13.2723 2.59808
      vertex 5.07319 12.5105 2.59808
    endloop
  endfacet
  facet normal -0.0368255 -0.125895 -0.99136
    outer loop
      vertex 4.5095 11.1204 3
      vertex 2.19437 11.7976 3
      vertex 2.33636 12.561 2.89778
    endloop
  endfacet
  facet normal -0.0368239 -0.125892 -0.99136
    outer loop
      vertex 4.5095 11.1204 3
      vertex 2.33636 12.561 2.89778
      vertex 4.80129 11.84 2.89778
    endloop
  endfacet
  facet normal 0.0368308 0.12591 -0.991358
    outer loop
      vertex 4.21772 10.4009 2.89778
      vertex 2.05238 11.0343 2.89778
      vertex 2.19437 11.7976 3
    endloop
  endfacet
  facet normal 0.0368293 0.125908 -0.991358
    outer loop
      vertex 4.21772 10.4009 2.89778
      vertex 2.19437 11.7976 3
      vertex 4.5095 11.1204 3
    endloop
  endfacet
  facet normal 0.107893 0.368861 -0.923201
    outer loop
      vertex 3.94582 9.73036 2.59808
      vertex 1.92007 10.3229 2.59808
      vertex 2.05238 11.0343 2.89778
    endloop
  endfacet
  facet normal 0.107902 0.368872 -0.923196
    outer loop
      vertex 3.94582 9.73036 2.59808
      vertex 2.05238 11.0343 2.89778
      vertex 4.21772 10.4009 2.89778
    endloop
  endfacet
  facet normal 0.171458 0.586157 -0.791848
    outer loop
      vertex 3.71233 9.15458 2.12132
      vertex 1.80646 9.71207 2.12132
      vertex 1.92007 10.3229 2.59808
    endloop
  endfacet
  facet normal 0.171451 0.586149 -0.791855
    outer loop
      vertex 3.71233 9.15458 2.12132
      vertex 1.92007 10.3229 2.59808
      vertex 3.94582 9.73036 2.59808
    endloop
  endfacet
  facet normal 0.223156 0.762876 -0.606812
    outer loop
      vertex 3.53317 8.71276 1.5
      vertex 1.71927 9.24336 1.5
      vertex 1.80646 9.71207 2.12132
    endloop
  endfacet
  facet normal 0.223149 0.76287 -0.606822
    outer loop
      vertex 3.53317 8.71276 1.5
      vertex 1.80646 9.71207 2.12132
      vertex 3.71233 9.15458 2.12132
    endloop
  endfacet
  facet normal 0.259573 0.887378 -0.381028
    outer loop
      vertex 3.42054 8.43503 0.776457
      vertex 1.66447 8.94871 0.776457
      vertex 1.71927 9.24336 1.5
    endloop
  endfacet
  facet normal 0.259575 0.887379 -0.381025
    outer loop
      vertex 3.42054 8.43503 0.776457
      vertex 1.71927 9.24336 1.5
      vertex 3.53317 8.71276 1.5
    endloop
  endfacet
  facet normal 0.278375 0.951651 -0.129877
    outer loop
      vertex 3.38212 8.3403 0
      vertex 1.64578 8.84821 0
      vertex 1.66447 8.94871 0.776457
    endloop
  endfacet
  facet normal 0.278374 0.951651 -0.129878
    outer loop
      vertex 3.38212 8.3403 0
      vertex 1.66447 8.94871 0.776457
      vertex 3.42054 8.43503 0.776457
    endloop
  endfacet
  facet normal -0.463081 -0.876754 -0.12984
    outer loop
      vertex 8.24645 12.4072 0.776457
      vertex 5.59847 13.8058 0.776457
      vertex 5.63688 13.9005 0
    endloop
  endfacet
  facet normal -0.46308 -0.876754 -0.129843
    outer loop
      vertex 8.24645 12.4072 0.776457
      vertex 5.63688 13.9005 0
      vertex 8.30304 12.4923 0
    endloop
  endfacet
  facet normal -0.431816 -0.817543 -0.380996
    outer loop
      vertex 8.08056 12.1576 1.5
      vertex 5.48584 13.5281 1.5
      vertex 5.59847 13.8058 0.776457
    endloop
  endfacet
  facet normal -0.431803 -0.817536 -0.381026
    outer loop
      vertex 8.08056 12.1576 1.5
      vertex 5.59847 13.8058 0.776457
      vertex 8.24645 12.4072 0.776457
    endloop
  endfacet
  facet normal -0.371171 -0.702801 -0.60688
    outer loop
      vertex 7.81666 11.7606 2.12132
      vertex 5.30668 13.0862 2.12132
      vertex 5.48584 13.5281 1.5
    endloop
  endfacet
  facet normal -0.371239 -0.702854 -0.606777
    outer loop
      vertex 7.81666 11.7606 2.12132
      vertex 5.48584 13.5281 1.5
      vertex 8.08056 12.1576 1.5
    endloop
  endfacet
  facet normal -0.285246 -0.54005 -0.791821
    outer loop
      vertex 7.47273 11.2431 2.59808
      vertex 5.07319 12.5105 2.59808
      vertex 5.30668 13.0862 2.12132
    endloop
  endfacet
  facet normal -0.28519 -0.539999 -0.791876
    outer loop
      vertex 7.47273 11.2431 2.59808
      vertex 5.30668 13.0862 2.12132
      vertex 7.81666 11.7606 2.12132
    endloop
  endfacet
  facet normal -0.179509 -0.339852 -0.923188
    outer loop
      vertex 7.07222 10.6405 2.89778
      vertex 4.80129 11.84 2.89778
      vertex 5.07319 12.5105 2.59808
    endloop
  endfacet
  facet normal -0.1795 -0.339843 -0.923194
    outer loop
      vertex 7.07222 10.6405 2.89778
      vertex 5.07319 12.5105 2.59808
      vertex 7.47273 11.2431 2.59808
    endloop
  endfacet
  facet normal -0.0612583 -0.115984 -0.99136
    outer loop
      vertex 6.64243 9.99387 3
      vertex 4.5095 11.1204 3
      vertex 4.80129 11.84 2.89778
    endloop
  endfacet
  facet normal -0.0612673 -0.115993 -0.991359
    outer loop
      vertex 6.64243 9.99387 3
      vertex 4.80129 11.84 2.89778
      vertex 7.07222 10.6405 2.89778
    endloop
  endfacet
  facet normal 0.0612683 0.115997 -0.991358
    outer loop
      vertex 6.21263 9.34721 2.89778
      vertex 4.21772 10.4009 2.89778
      vertex 4.5095 11.1204 3
    endloop
  endfacet
  facet normal 0.0612617 0.115991 -0.991359
    outer loop
      vertex 6.21263 9.34721 2.89778
      vertex 4.5095 11.1204 3
      vertex 6.64243 9.99387 3
    endloop
  endfacet
  facet normal 0.179495 0.339841 -0.923195
    outer loop
      vertex 5.81212 8.74463 2.59808
      vertex 3.94582 9.73036 2.59808
      vertex 4.21772 10.4009 2.89778
    endloop
  endfacet
  facet normal 0.179505 0.33985 -0.92319
    outer loop
      vertex 5.81212 8.74463 2.59808
      vertex 4.21772 10.4009 2.89778
      vertex 6.21263 9.34721 2.89778
    endloop
  endfacet
  facet normal 0.28522 0.540014 -0.791855
    outer loop
      vertex 5.4682 8.22718 2.12132
      vertex 3.71233 9.15458 2.12132
      vertex 3.94582 9.73036 2.59808
    endloop
  endfacet
  facet normal 0.285222 0.540015 -0.791854
    outer loop
      vertex 5.4682 8.22718 2.12132
      vertex 3.94582 9.73036 2.59808
      vertex 5.81212 8.74463 2.59808
    endloop
  endfacet
  facet normal 0.371213 0.702829 -0.606822
    outer loop
      vertex 5.2043 7.83012 1.5
      vertex 3.53317 8.71276 1.5
      vertex 3.71233 9.15458 2.12132
    endloop
  endfacet
  facet normal 0.371215 0.70283 -0.60682
    outer loop
      vertex 5.2043 7.83012 1.5
      vertex 3.71233 9.15458 2.12132
      vertex 5.4682 8.22718 2.12132
    endloop
  endfacet
  facet normal 0.431797 0.817539 -0.381026
    outer loop
      vertex 5.0384 7.58053 0.776457
      vertex 3.42054 8.43503 0.776457
      vertex 3.53317 8.71276 1.5
    endloop
  endfacet
  facet normal 0.4318 0.81754 -0.381021
    outer loop
      vertex 5.0384 7.58053 0.776457
      vertex 3.53317 8.71276 1.5
      vertex 5.2043 7.83012 1.5
    endloop
  endfacet
  facet normal 0.463072 0.876753 -0.12988
    outer loop
      vertex 4.98182 7.49539 0
      vertex 3.38212 8.3403 0
      vertex 3.42054 8.43503 0.776457
    endloop
  endfacet
  facet normal 0.463072 0.876753 -0.129881
    outer loop
      vertex 4.98182 7.49539 0
      vertex 3.42054 8.43503 0.776457
      vertex 5.0384 7.58053 0.776457
    endloop
  endfacet
  facet normal -0.629069 -0.766428 -0.129849
    outer loop
      vertex 10.5612 10.5073 0.776457
      vertex 8.24645 12.4072 0.776457
      vertex 8.30304 12.4923 0
    endloop
  endfacet
  facet normal -0.629052 -0.766432 -0.129905
    outer loop
      vertex 10.5612 10.5073 0.776457
      vertex 8.30304 12.4923 0
      vertex 10.6337 10.5794 0
    endloop
  endfacet
  facet normal -0.586576 -0.714667 -0.381025
    outer loop
      vertex 10.3488 10.2959 1.5
      vertex 8.08056 12.1576 1.5
      vertex 8.24645 12.4072 0.776457
    endloop
  endfacet
  facet normal -0.586586 -0.71467 -0.381003
    outer loop
      vertex 10.3488 10.2959 1.5
      vertex 8.24645 12.4072 0.776457
      vertex 10.5612 10.5073 0.776457
    endloop
  endfacet
  facet normal -0.504303 -0.614407 -0.606781
    outer loop
      vertex 10.0108 9.95966 2.12132
      vertex 7.81666 11.7606 2.12132
      vertex 8.08056 12.1576 1.5
    endloop
  endfacet
  facet normal -0.504274 -0.614393 -0.606818
    outer loop
      vertex 10.0108 9.95966 2.12132
      vertex 8.08056 12.1576 1.5
      vertex 10.3488 10.2959 1.5
    endloop
  endfacet
  facet normal -0.387441 -0.472042 -0.791875
    outer loop
      vertex 9.57032 9.52145 2.59808
      vertex 7.47273 11.2431 2.59808
      vertex 7.81666 11.7606 2.12132
    endloop
  endfacet
  facet normal -0.387459 -0.472054 -0.791859
    outer loop
      vertex 9.57032 9.52145 2.59808
      vertex 7.81666 11.7606 2.12132
      vertex 10.0108 9.95966 2.12132
    endloop
  endfacet
  facet normal -0.243836 -0.297083 -0.923193
    outer loop
      vertex 9.05739 9.01114 2.89778
      vertex 7.07222 10.6405 2.89778
      vertex 7.47273 11.2431 2.59808
    endloop
  endfacet
  facet normal -0.243842 -0.297087 -0.92319
    outer loop
      vertex 9.05739 9.01114 2.89778
      vertex 7.47273 11.2431 2.59808
      vertex 9.57032 9.52145 2.59808
    endloop
  endfacet
  facet normal -0.0832256 -0.101398 -0.991359
    outer loop
      vertex 8.50695 8.46351 3
      vertex 6.64243 9.99387 3
      vertex 7.07222 10.6405 2.89778
    endloop
  endfacet
  facet normal -0.0832226 -0.101396 -0.991359
    outer loop
      vertex 8.50695 8.46351 3
      vertex 7.07222 10.6405 2.89778
      vertex 9.05739 9.01114 2.89778
    endloop
  endfacet
  facet normal 0.0832221 0.101395 -0.991359
    outer loop
      vertex 7.95651 7.91588 2.89778
      vertex 6.21263 9.34721 2.89778
      vertex 6.64243 9.99387 3
    endloop
  endfacet
  facet normal 0.0832234 0.101396 -0.991359
    outer loop
      vertex 7.95651 7.91588 2.89778
      vertex 6.64243 9.99387 3
      vertex 8.50695 8.46351 3
    endloop
  endfacet
  facet normal 0.243843 0.297087 -0.92319
    outer loop
      vertex 7.44358 7.40556 2.59808
      vertex 5.81212 8.74463 2.59808
      vertex 6.21263 9.34721 2.89778
    endloop
  endfacet
  facet normal 0.243839 0.297085 -0.923192
    outer loop
      vertex 7.44358 7.40556 2.59808
      vertex 6.21263 9.34721 2.89778
      vertex 7.95651 7.91588 2.89778
    endloop
  endfacet
  facet normal 0.387459 0.472063 -0.791853
    outer loop
      vertex 7.00312 6.96735 2.12132
      vertex 5.4682 8.22718 2.12132
      vertex 5.81212 8.74463 2.59808
    endloop
  endfacet
  facet normal 0.38746 0.472063 -0.791853
    outer loop
      vertex 7.00312 6.96735 2.12132
      vertex 5.81212 8.74463 2.59808
      vertex 7.44358 7.40556 2.59808
    endloop
  endfacet
  facet normal 0.504276 0.614391 -0.606819
    outer loop
      vertex 6.66514 6.6311 1.5
      vertex 5.2043 7.83012 1.5
      vertex 5.4682 8.22718 2.12132
    endloop
  endfacet
  facet normal 0.50428 0.614392 -0.606814
    outer loop
      vertex 6.66514 6.6311 1.5
      vertex 5.4682 8.22718 2.12132
      vertex 7.00312 6.96735 2.12132
    endloop
  endfacet
  facet normal 0.586581 0.714664 -0.381023
    outer loop
      vertex 6.45268 6.41972 0.776457
      vertex 5.0384 7.58053 0.776457
      vertex 5.2043 7.83012 1.5
    endloop
  endfacet
  facet normal 0.586578 0.714664 -0.381028
    outer loop
      vertex 6.45268 6.41972 0.776457
      vertex 5.2043 7.83012 1.5
      vertex 6.66514 6.6311 1.5
    endloop
  endfacet
  facet normal 0.629066 0.766425 -0.12988
    outer loop
      vertex 6.38021 6.34762 0
      vertex 4.98182 7.49539 0
      vertex 5.0384 7.58053 0.776457
    endloop
  endfacet
  facet normal 0.629065 0.766425 -0.129882
    outer loop
      vertex 6.38021 6.34762 0
      vertex 5.0384 7.58053 0.776457
      vertex 6.45268 6.41972 0.776457
    endloop
  endfacet
  facet normal -0.769624 -0.625141 -0.129911
    outer loop
      vertex 12.4493 8.18282 0.776457
      vertex 10.5612 10.5073 0.776457
      vertex 10.6337 10.5794 0
    endloop
  endfacet
  facet normal -0.769639 -0.625134 -0.129857
    outer loop
      vertex 12.4493 8.18282 0.776457
      vertex 10.6337 10.5794 0
      vertex 12.5347 8.23897 0
    endloop
  endfacet
  facet normal -0.717676 -0.582913 -0.380989
    outer loop
      vertex 12.1988 8.0182 1.5
      vertex 10.3488 10.2959 1.5
      vertex 10.5612 10.5073 0.776457
    endloop
  endfacet
  facet normal -0.717633 -0.58291 -0.381077
    outer loop
      vertex 12.1988 8.0182 1.5
      vertex 10.5612 10.5073 0.776457
      vertex 12.4493 8.18282 0.776457
    endloop
  endfacet
  facet normal -0.616967 -0.501118 -0.606822
    outer loop
      vertex 11.8004 7.75634 2.12132
      vertex 10.0108 9.95966 2.12132
      vertex 10.3488 10.2959 1.5
    endloop
  endfacet
  facet normal -0.616973 -0.50112 -0.606814
    outer loop
      vertex 11.8004 7.75634 2.12132
      vertex 10.3488 10.2959 1.5
      vertex 12.1988 8.0182 1.5
    endloop
  endfacet
  facet normal -0.474036 -0.38503 -0.79186
    outer loop
      vertex 11.2812 7.41507 2.59808
      vertex 9.57032 9.52145 2.59808
      vertex 10.0108 9.95966 2.12132
    endloop
  endfacet
  facet normal -0.474045 -0.385033 -0.791853
    outer loop
      vertex 11.2812 7.41507 2.59808
      vertex 10.0108 9.95966 2.12132
      vertex 11.8004 7.75634 2.12132
    endloop
  endfacet
  facet normal -0.29833 -0.242319 -0.92319
    outer loop
      vertex 10.6766 7.01765 2.89778
      vertex 9.05739 9.01114 2.89778
      vertex 9.57032 9.52145 2.59808
    endloop
  endfacet
  facet normal -0.298339 -0.242322 -0.923187
    outer loop
      vertex 10.6766 7.01765 2.89778
      vertex 9.57032 9.52145 2.59808
      vertex 11.2812 7.41507 2.59808
    endloop
  endfacet
  facet normal -0.101822 -0.0827016 -0.991359
    outer loop
      vertex 10.0277 6.59117 3
      vertex 8.50695 8.46351 3
      vertex 9.05739 9.01114 2.89778
    endloop
  endfacet
  facet normal -0.101815 -0.0826988 -0.99136
    outer loop
      vertex 10.0277 6.59117 3
      vertex 9.05739 9.01114 2.89778
      vertex 10.6766 7.01765 2.89778
    endloop
  endfacet
  facet normal 0.101821 0.0827029 -0.991359
    outer loop
      vertex 9.3789 6.16469 2.89778
      vertex 7.95651 7.91588 2.89778
      vertex 8.50695 8.46351 3
    endloop
  endfacet
  facet normal 0.101826 0.0827049 -0.991358
    outer loop
      vertex 9.3789 6.16469 2.89778
      vertex 8.50695 8.46351 3
      vertex 10.0277 6.59117 3
    endloop
  endfacet
  facet normal 0.298329 0.242316 -0.923192
    outer loop
      vertex 8.77427 5.76727 2.59808
      vertex 7.44358 7.40556 2.59808
      vertex 7.95651 7.91588 2.89778
    endloop
  endfacet
  facet normal 0.29833 0.242316 -0.923191
    outer loop
      vertex 8.77427 5.76727 2.59808
      vertex 7.95651 7.91588 2.89778
      vertex 9.3789 6.16469 2.89778
    endloop
  endfacet
  facet normal 0.474042 0.385037 -0.791853
    outer loop
      vertex 8.25507 5.426 2.12132
      vertex 7.00312 6.96735 2.12132
      vertex 7.44358 7.40556 2.59808
    endloop
  endfacet
  facet normal 0.474041 0.385037 -0.791853
    outer loop
      vertex 8.25507 5.426 2.12132
      vertex 7.44358 7.40556 2.59808
      vertex 8.77427 5.76727 2.59808
    endloop
  endfacet
  facet normal 0.616968 0.501125 -0.606815
    outer loop
      vertex 7.85667 5.16413 1.5
      vertex 6.66514 6.6311 1.5
      vertex 7.00312 6.96735 2.12132
    endloop
  endfacet
  facet normal 0.616965 0.501125 -0.606818
    outer loop
      vertex 7.85667 5.16413 1.5
      vertex 7.00312 6.96735 2.12132
      vertex 8.25507 5.426 2.12132
    endloop
  endfacet
  facet normal 0.717659 0.58291 -0.381027
    outer loop
      vertex 7.60622 4.99952 0.776457
      vertex 6.45268 6.41972 0.776457
      vertex 6.66514 6.6311 1.5
    endloop
  endfacet
  facet normal 0.717658 0.58291 -0.381028
    outer loop
      vertex 7.60622 4.99952 0.776457
      vertex 6.66514 6.6311 1.5
      vertex 7.85667 5.16413 1.5
    endloop
  endfacet
  facet normal 0.769637 0.625131 -0.129882
    outer loop
      vertex 7.5208 4.94337 0
      vertex 6.38021 6.34762 0
      vertex 6.45268 6.41972 0.776457
    endloop
  endfacet
  facet normal 0.769639 0.62513 -0.129877
    outer loop
      vertex 7.5208 4.94337 0
      vertex 6.45268 6.41972 0.776457
      vertex 7.60622 4.99952 0.776457
    endloop
  endfacet
  facet normal -0.879116 -0.458578 -0.129853
    outer loop
      vertex 13.8343 5.52771 0.776457
      vertex 12.4493 8.18282 0.776457
      vertex 12.5347 8.23897 0
    endloop
  endfacet
  facet normal -0.879117 -0.458577 -0.129849
    outer loop
      vertex 13.8343 5.52771 0.776457
      vertex 12.5347 8.23897 0
      vertex 13.9292 5.56564 0
    endloop
  endfacet
  facet normal -0.819711 -0.427609 -0.381084
    outer loop
      vertex 13.556 5.4165 1.5
      vertex 12.1988 8.0182 1.5
      vertex 12.4493 8.18282 0.776457
    endloop
  endfacet
  facet normal -0.81974 -0.427606 -0.381025
    outer loop
      vertex 13.556 5.4165 1.5
      vertex 12.4493 8.18282 0.776457
      vertex 13.8343 5.52771 0.776457
    endloop
  endfacet
  facet normal -0.704729 -0.367607 -0.606814
    outer loop
      vertex 13.1132 5.23961 2.12132
      vertex 11.8004 7.75634 2.12132
      vertex 12.1988 8.0182 1.5
    endloop
  endfacet
  facet normal -0.704683 -0.367604 -0.606868
    outer loop
      vertex 13.1132 5.23961 2.12132
      vertex 12.1988 8.0182 1.5
      vertex 13.556 5.4165 1.5
    endloop
  endfacet
  facet normal -0.541466 -0.282458 -0.791853
    outer loop
      vertex 12.5363 5.00907 2.59808
      vertex 11.2812 7.41507 2.59808
      vertex 11.8004 7.75634 2.12132
    endloop
  endfacet
  facet normal -0.541502 -0.282463 -0.791827
    outer loop
      vertex 12.5363 5.00907 2.59808
      vertex 11.8004 7.75634 2.12132
      vertex 13.1132 5.23961 2.12132
    endloop
  endfacet
  facet normal -0.340775 -0.177763 -0.923186
    outer loop
      vertex 11.8644 4.74061 2.89778
      vertex 10.6766 7.01765 2.89778
      vertex 11.2812 7.41507 2.59808
    endloop
  endfacet
  facet normal -0.340763 -0.177761 -0.923191
    outer loop
      vertex 11.8644 4.74061 2.89778
      vertex 11.2812 7.41507 2.59808
      vertex 12.5363 5.00907 2.59808
    endloop
  endfacet
  facet normal -0.116294 -0.0606683 -0.99136
    outer loop
      vertex 11.1434 4.45251 3
      vertex 10.0277 6.59117 3
      vertex 10.6766 7.01765 2.89778
    endloop
  endfacet
  facet normal -0.116307 -0.0606707 -0.991359
    outer loop
      vertex 11.1434 4.45251 3
      vertex 10.6766 7.01765 2.89778
      vertex 11.8644 4.74061 2.89778
    endloop
  endfacet
  facet normal 0.11631 0.0606704 -0.991358
    outer loop
      vertex 10.4223 4.16441 2.89778
      vertex 9.3789 6.16469 2.89778
      vertex 10.0277 6.59117 3
    endloop
  endfacet
  facet normal 0.116292 0.0606677 -0.99136
    outer loop
      vertex 10.4223 4.16441 2.89778
      vertex 10.0277 6.59117 3
      vertex 11.1434 4.45251 3
    endloop
  endfacet
  facet normal 0.340765 0.177756 -0.923191
    outer loop
      vertex 9.75043 3.89594 2.59808
      vertex 8.77427 5.76727 2.59808
      vertex 9.3789 6.16469 2.89778
    endloop
  endfacet
  facet normal 0.340775 0.177758 -0.923187
    outer loop
      vertex 9.75043 3.89594 2.59808
      vertex 9.3789 6.16469 2.89778
      vertex 10.4223 4.16441 2.89778
    endloop
  endfacet
  facet normal 0.541471 0.28245 -0.791853
    outer loop
      vertex 9.17346 3.6654 2.12132
      vertex 8.25507 5.426 2.12132
      vertex 8.77427 5.76727 2.59808
    endloop
  endfacet
  facet normal 0.541466 0.28245 -0.791857
    outer loop
      vertex 9.17346 3.6654 2.12132
      vertex 8.77427 5.76727 2.59808
      vertex 9.75043 3.89594 2.59808
    endloop
  endfacet
  facet normal 0.704723 0.367611 -0.606818
    outer loop
      vertex 8.73074 3.48851 1.5
      vertex 7.85667 5.16413 1.5
      vertex 8.25507 5.426 2.12132
    endloop
  endfacet
  facet normal 0.704728 0.367611 -0.606811
    outer loop
      vertex 8.73074 3.48851 1.5
      vertex 8.25507 5.426 2.12132
      vertex 9.17346 3.6654 2.12132
    endloop
  endfacet
  facet normal 0.819737 0.427608 -0.38103
    outer loop
      vertex 8.45243 3.37731 0.776457
      vertex 7.60622 4.99952 0.776457
      vertex 7.85667 5.16413 1.5
    endloop
  endfacet
  facet normal 0.819737 0.427607 -0.381029
    outer loop
      vertex 8.45243 3.37731 0.776457
      vertex 7.85667 5.16413 1.5
      vertex 8.73074 3.48851 1.5
    endloop
  endfacet
  facet normal 0.87911 0.458582 -0.129876
    outer loop
      vertex 8.35751 3.33938 0
      vertex 7.5208 4.94337 0
      vertex 7.60622 4.99952 0.776457
    endloop
  endfacet
  facet normal 0.879112 0.45858 -0.129871
    outer loop
      vertex 8.35751 3.33938 0
      vertex 7.60622 4.99952 0.776457
      vertex 8.45243 3.37731 0.776457
    endloop
  endfacet
  facet normal -0.95307 -0.273491 -0.129846
    outer loop
      vertex 14.597 2.90175 0.70923
      vertex 13.8343 5.52771 0.776457
      vertex 13.9292 5.56564 0
    endloop
  endfacet
  facet normal -0.953013 -0.273462 -0.130328
    outer loop
      vertex 13.8343 5.52771 0.776457
      vertex 14.597 2.90175 0.70923
      vertex 14.5883 2.90003 0.776457
    endloop
  endfacet
  facet normal -0.953073 -0.273488 -0.129831
    outer loop
      vertex 14.597 2.90175 0.70923
      vertex 13.9292 5.56564 0
      vertex 14.6884 2.91992 0
    endloop
  endfacet
  facet normal -0.888696 -0.255031 -0.381023
    outer loop
      vertex 14.32 2.84667 1.43812
      vertex 13.556 5.4165 1.5
      vertex 13.8343 5.52771 0.776457
    endloop
  endfacet
  facet normal -0.888703 -0.255034 -0.381004
    outer loop
      vertex 13.556 5.4165 1.5
      vertex 14.32 2.84667 1.43812
      vertex 14.2949 2.84169 1.5
    endloop
  endfacet
  facet normal -0.888734 -0.255018 -0.380942
    outer loop
      vertex 14.32 2.84667 1.43812
      vertex 13.8343 5.52771 0.776457
      vertex 14.5883 2.90003 0.776457
    endloop
  endfacet
  facet normal -0.763956 -0.219255 -0.606876
    outer loop
      vertex 13.8675 2.75672 2.06881
      vertex 13.1132 5.23961 2.12132
      vertex 13.556 5.4165 1.5
    endloop
  endfacet
  facet normal -0.76371 -0.219173 -0.607215
    outer loop
      vertex 13.1132 5.23961 2.12132
      vertex 13.8675 2.75672 2.06881
      vertex 13.828 2.74888 2.12132
    endloop
  endfacet
  facet normal -0.763677 -0.219154 -0.607264
    outer loop
      vertex 14.2186 2.82654 1.60142
      vertex 13.556 5.4165 1.5
      vertex 14.2949 2.84169 1.5
    endloop
  endfacet
  facet normal -0.764082 -0.219237 -0.606723
    outer loop
      vertex 13.556 5.4165 1.5
      vertex 14.2186 2.82654 1.60142
      vertex 13.8675 2.75672 2.06881
    endloop
  endfacet
  facet normal -0.586889 -0.168416 -0.791958
    outer loop
      vertex 12.5363 5.00907 2.59808
      vertex 13.2705 2.63804 2.55821
      vertex 13.2196 2.62793 2.59808
    endloop
  endfacet
  facet normal -0.587054 -0.168469 -0.791824
    outer loop
      vertex 13.2705 2.63804 2.55821
      vertex 12.5363 5.00907 2.59808
      vertex 13.1132 5.23961 2.12132
    endloop
  endfacet
  facet normal -0.587036 -0.16847 -0.791837
    outer loop
      vertex 13.2705 2.63804 2.55821
      vertex 13.1132 5.23961 2.12132
      vertex 13.828 2.74888 2.12132
    endloop
  endfacet
  facet normal -0.369431 -0.106016 -0.923191
    outer loop
      vertex 11.8644 4.74061 2.89778
      vertex 12.5698 2.49875 2.87295
      vertex 12.5111 2.48708 2.89778
    endloop
  endfacet
  facet normal -0.369429 -0.106016 -0.923192
    outer loop
      vertex 12.5698 2.49875 2.87295
      vertex 11.8644 4.74061 2.89778
      vertex 12.5363 5.00907 2.59808
    endloop
  endfacet
  facet normal -0.369439 -0.106015 -0.923188
    outer loop
      vertex 12.5698 2.49875 2.87295
      vertex 12.5363 5.00907 2.59808
      vertex 13.2196 2.62793 2.59808
    endloop
  endfacet
  facet normal -0.126007 -0.0361547 -0.99137
    outer loop
      vertex 11.1434 4.45251 3
      vertex 11.8133 2.34837 2.99159
      vertex 11.7507 2.33594 3
    endloop
  endfacet
  facet normal -0.126092 -0.036182 -0.991358
    outer loop
      vertex 11.8133 2.34837 2.99159
      vertex 11.1434 4.45251 3
      vertex 11.8644 4.74061 2.89778
    endloop
  endfacet
  facet normal -0.126083 -0.0361822 -0.99136
    outer loop
      vertex 12.5111 2.48708 2.89778
      vertex 11.8133 2.34837 2.99159
      vertex 11.8644 4.74061 2.89778
    endloop
  endfacet
  facet normal 0.126 0.0361586 -0.991371
    outer loop
      vertex 10.4223 4.16441 2.89778
      vertex 11.0527 2.19718 2.90615
      vertex 10.9904 2.18479 2.89778
    endloop
  endfacet
  facet normal 0.126075 0.0361828 -0.991361
    outer loop
      vertex 11.0527 2.19718 2.90615
      vertex 10.4223 4.16441 2.89778
      vertex 11.1434 4.45251 3
    endloop
  endfacet
  facet normal 0.126098 0.036181 -0.991358
    outer loop
      vertex 11.1107 2.20871 2.91395
      vertex 11.1434 4.45251 3
      vertex 11.7507 2.33594 3
    endloop
  endfacet
  facet normal 0.126128 0.0361804 -0.991354
    outer loop
      vertex 11.1434 4.45251 3
      vertex 11.1107 2.20871 2.91395
      vertex 11.0527 2.19718 2.90615
    endloop
  endfacet
  facet normal 0.369456 0.106032 -0.923179
    outer loop
      vertex 9.75043 3.89594 2.59808
      vertex 10.34 2.05549 2.62264
      vertex 10.2953 2.0466 2.60373
    endloop
  endfacet
  facet normal 0.368446 0.105733 -0.923617
    outer loop
      vertex 9.75043 3.89594 2.59808
      vertex 10.2953 2.0466 2.60373
      vertex 10.2819 2.04394 2.59808
    endloop
  endfacet
  facet normal 0.369438 0.106026 -0.923187
    outer loop
      vertex 10.34 2.05549 2.62264
      vertex 9.75043 3.89594 2.59808
      vertex 10.4223 4.16441 2.89778
    endloop
  endfacet
  facet normal 0.369457 0.106025 -0.92318
    outer loop
      vertex 10.9904 2.18479 2.89778
      vertex 10.34 2.05549 2.62264
      vertex 10.4223 4.16441 2.89778
    endloop
  endfacet
  facet normal 0.587075 0.168474 -0.791808
    outer loop
      vertex 9.17346 3.6654 2.12132
      vertex 9.7236 1.93296 2.1606
      vertex 9.67348 1.923 2.12132
    endloop
  endfacet
  facet normal 0.587015 0.168454 -0.791856
    outer loop
      vertex 9.7236 1.93296 2.1606
      vertex 9.17346 3.6654 2.12132
      vertex 9.75043 3.89594 2.59808
    endloop
  endfacet
  facet normal 0.58701 0.168455 -0.79186
    outer loop
      vertex 10.2819 2.04394 2.59808
      vertex 9.7236 1.93296 2.1606
      vertex 9.75043 3.89594 2.59808
    endloop
  endfacet
  facet normal 0.764011 0.219242 -0.606812
    outer loop
      vertex 9.24549 1.83792 1.55174
      vertex 8.73074 3.48851 1.5
      vertex 9.17346 3.6654 2.12132
    endloop
  endfacet
  facet normal 0.764051 0.219256 -0.606755
    outer loop
      vertex 8.73074 3.48851 1.5
      vertex 9.24549 1.83792 1.55174
      vertex 9.20662 1.83019 1.5
    endloop
  endfacet
  facet normal 0.763997 0.219246 -0.606827
    outer loop
      vertex 9.24549 1.83792 1.55174
      vertex 9.17346 3.6654 2.12132
      vertex 9.67348 1.923 2.12132
    endloop
  endfacet
  facet normal 0.888694 0.255027 -0.38103
    outer loop
      vertex 8.93797 1.77678 0.837655
      vertex 8.45243 3.37731 0.776457
      vertex 8.73074 3.48851 1.5
    endloop
  endfacet
  facet normal 0.888666 0.255016 -0.381104
    outer loop
      vertex 8.45243 3.37731 0.776457
      vertex 8.93797 1.77678 0.837655
      vertex 8.91314 1.77185 0.776457
    endloop
  endfacet
  facet normal 0.888697 0.255025 -0.381024
    outer loop
      vertex 8.93797 1.77678 0.837655
      vertex 8.73074 3.48851 1.5
      vertex 9.20662 1.83019 1.5
    endloop
  endfacet
  facet normal 0.953065 0.273498 -0.12987
    outer loop
      vertex 8.82168 1.75367 0.0669537
      vertex 8.35751 3.33938 0
      vertex 8.45243 3.37731 0.776457
    endloop
  endfacet
  facet normal 0.953049 0.273487 -0.130011
    outer loop
      vertex 8.35751 3.33938 0
      vertex 8.82168 1.75367 0.0669537
      vertex 8.81304 1.75195 0
    endloop
  endfacet
  facet normal 0.953066 0.273496 -0.129865
    outer loop
      vertex 8.82168 1.75367 0.0669537
      vertex 8.45243 3.37731 0.776457
      vertex 8.91314 1.77185 0.776457
    endloop
  endfacet
  facet normal 0 0 -1
    outer loop
      vertex 8.40071 1.66998 0
      vertex 8.35751 3.33938 0
      vertex 8.81304 1.75195 0
    endloop
  endfacet
  facet normal 0 0 -1
    outer loop
      vertex 7.39131 3.06071 0
      vertex 8.40071 1.66998 0
      vertex 7.98011 1.58637 0
    endloop
  endfacet
  facet normal 0 0 -1
    outer loop
      vertex 7.39131 3.06071 0
      vertex 7.98011 1.58637 0
      vertex 7.84643 1.5598 0
    endloop
  endfacet
  facet normal 0 0 -1
    outer loop
      vertex 8.40071 1.66998 0
      vertex 7.39131 3.06071 0
      vertex 8.35751 3.33938 0
    endloop
  endfacet
  facet normal -0 0 -1
    outer loop
      vertex 8.35751 3.33938 0
      vertex 7.39131 3.06071 0
      vertex 7.5208 4.94337 0
    endloop
  endfacet
  facet normal 0 0 -1
    outer loop
      vertex 6.6521 4.44399 0
      vertex 7.5208 4.94337 0
      vertex 7.39131 3.06071 0
    endloop
  endfacet
  facet normal 0 0 -1
    outer loop
      vertex 6.6521 4.44399 0
      vertex 6.38021 6.34762 0
      vertex 7.5208 4.94337 0
    endloop
  endfacet
  facet normal 0 0 -1
    outer loop
      vertex 5.65721 5.65645 0
      vertex 6.38021 6.34762 0
      vertex 6.6521 4.44399 0
    endloop
  endfacet
  facet normal 0 0 -1
    outer loop
      vertex 5.65721 5.65645 0
      vertex 4.98182 7.49539 0
      vertex 6.38021 6.34762 0
    endloop
  endfacet
  facet normal 0 0 -1
    outer loop
      vertex 4.44488 6.65151 0
      vertex 4.98182 7.49539 0
      vertex 5.65721 5.65645 0
    endloop
  endfacet
  facet normal 0 0 -1
    outer loop
      vertex 3.0617 7.3909 0
      vertex 4.98182 7.49539 0
      vertex 4.44488 6.65151 0
    endloop
  endfacet
  facet normal -0 0 -1
    outer loop
      vertex 4.98182 7.49539 0
      vertex 3.0617 7.3909 0
      vertex 3.38212 8.3403 0
    endloop
  endfacet
  facet normal 0 0 -1
    outer loop
      vertex 1.56085 7.84622 0
      vertex 3.38212 8.3403 0
      vertex 3.0617 7.3909 0
    endloop
  endfacet
  facet normal -0 0 -1
    outer loop
      vertex 3.38212 8.3403 0
      vertex 1.56085 7.84622 0
      vertex 1.64578 8.84821 0
    endloop
  endfacet
  facet normal 0 0 -1
    outer loop
      vertex 1.77635e-15 7.99997 0
      vertex 1.64578 8.84821 0
      vertex 1.56085 7.84622 0
    endloop
  endfacet
  facet normal -0 0 -1
    outer loop
      vertex 1.64578 8.84821 0
      vertex 1.77635e-15 7.99997 0
      vertex 1.99518e-15 8.98549 0
    endloop
  endfacet
  facet normal 0 0 -1
    outer loop
      vertex 13.9292 5.56564 0
      vertex 15.4255 3.06645 0
      vertex 15.1386 3.00942 0
    endloop
  endfacet
  facet normal 0 -0 -1
    outer loop
      vertex 14.7827 6.12144 0
      vertex 15.4255 3.06645 0
      vertex 13.9292 5.56564 0
    endloop
  endfacet
  facet normal 0 0 -1
    outer loop
      vertex 13.9292 5.56564 0
      vertex 15.1386 3.00942 0
      vertex 14.6884 2.91992 0
    endloop
  endfacet
  facet normal 0 0 -1
    outer loop
      vertex 15.4255 3.06645 0
      vertex 14.7827 6.12144 0
      vertex 15.6929 3.1196 0
    endloop
  endfacet
  facet normal 0 0 -1
    outer loop
      vertex 12.5347 8.23897 0
      vertex 14.7827 6.12144 0
      vertex 13.9292 5.56564 0
    endloop
  endfacet
  facet normal 0 0 -1
    outer loop
      vertex 14.7827 6.12144 0
      vertex 12.5347 8.23897 0
      vertex 13.3042 8.88799 0
    endloop
  endfacet
  facet normal 0 0 -1
    outer loop
      vertex 10.6337 10.5794 0
      vertex 13.3042 8.88799 0
      vertex 12.5347 8.23897 0
    endloop
  endfacet
  facet normal 0 0 -1
    outer loop
      vertex 13.3042 8.88799 0
      vertex 10.6337 10.5794 0
      vertex 11.3144 11.3129 0
    endloop
  endfacet
  facet normal 0 0 -1
    outer loop
      vertex 10.6337 10.5794 0
      vertex 8.88977 13.303 0
      vertex 11.3144 11.3129 0
    endloop
  endfacet
  facet normal 0 0 -1
    outer loop
      vertex 8.30304 12.4923 0
      vertex 8.88977 13.303 0
      vertex 10.6337 10.5794 0
    endloop
  endfacet
  facet normal 0 0 -1
    outer loop
      vertex 8.30304 12.4923 0
      vertex 6.12342 14.7818 0
      vertex 8.88977 13.303 0
    endloop
  endfacet
  facet normal 0 0 -1
    outer loop
      vertex 5.63688 13.9005 0
      vertex 6.12342 14.7818 0
      vertex 8.30304 12.4923 0
    endloop
  endfacet
  facet normal 0 0 -1
    outer loop
      vertex 5.63688 13.9005 0
      vertex 3.1217 15.6925 0
      vertex 6.12342 14.7818 0
    endloop
  endfacet
  facet normal 0 0 -1
    outer loop
      vertex 2.74297 14.747 0
      vertex 3.1217 15.6925 0
      vertex 5.63688 13.9005 0
    endloop
  endfacet
  facet normal 0 0 -1
    outer loop
      vertex 2.74297 14.747 0
      vertex 3.55271e-15 16 0
      vertex 3.1217 15.6925 0
    endloop
  endfacet
  facet normal 0 -0 -1
    outer loop
      vertex 3.55271e-15 16 0
      vertex 2.74297 14.747 0
      vertex 3.32531e-15 14.9758 0
    endloop
  endfacet
endsolid OpenSCAD_Model
