solid OpenSCAD_Model
  facet normal -1 2.22032e-16 -4.24239e-21
    outer loop
      vertex 7.09045e-15 31.9325 0.110421
      vertex 7.28208e-15 32.7956 1.55291
      vertex 7.32747e-15 33 0
    endloop
  endfacet
  facet normal -1 2.22053e-16 1.9905e-19
    outer loop
      vertex 7.09045e-15 31.9325 0.110421
      vertex 7.32747e-15 33 0
      vertex 7.09367e-15 31.9471 0
    endloop
  endfacet
  facet normal -1 2.22054e-16 -1.73684e-20
    outer loop
      vertex 7.28208e-15 32.7956 1.55291
      vertex 7.09045e-15 31.9325 0.110421
      vertex 7.0559e-15 31.777 1.2941
    endloop
  endfacet
  facet normal -1 2.22032e-16 7.09418e-20
    outer loop
      vertex 7.04636e-15 31.734 1.39798
      vertex 7.28208e-15 32.7956 1.55291
      vertex 7.0559e-15 31.777 1.2941
    endloop
  endfacet
  facet normal -1 2.22043e-16 -5.15132e-21
    outer loop
      vertex 7.28208e-15 32.7956 1.55291
      vertex 7.04636e-15 31.734 1.39798
      vertex 7.14898e-15 32.1962 3
    endloop
  endfacet
  facet normal -1 2.22029e-16 -1.17961e-21
    outer loop
      vertex 6.94518e-15 31.2783 2.5
      vertex 7.14898e-15 32.1962 3
      vertex 7.04636e-15 31.734 1.39798
    endloop
  endfacet
  facet normal -1 2.22029e-16 -2.39052e-22
    outer loop
      vertex 6.92986e-15 31.2093 2.59002
      vertex 7.14898e-15 32.1962 3
      vertex 6.94518e-15 31.2783 2.5
    endloop
  endfacet
  facet normal -1 2.22027e-16 3.93491e-21
    outer loop
      vertex 7.14898e-15 32.1962 3
      vertex 6.92986e-15 31.2093 2.59002
      vertex 6.93726e-15 31.2426 4.24264
    endloop
  endfacet
  facet normal -1 2.22053e-16 3.4034e-21
    outer loop
      vertex 6.76903e-15 30.485 3.53553
      vertex 6.93726e-15 31.2426 4.24264
      vertex 6.92986e-15 31.2093 2.59002
    endloop
  endfacet
  facet normal -1 2.22006e-16 5.39482e-20
    outer loop
      vertex 6.74892e-15 30.3944 3.60516
      vertex 6.93726e-15 31.2426 4.24264
      vertex 6.76903e-15 30.485 3.53553
    endloop
  endfacet
  facet normal -1 2.22049e-16 -2.53607e-21
    outer loop
      vertex 6.74892e-15 30.3944 3.60516
      vertex 6.66134e-15 30 5.19615
      vertex 6.93726e-15 31.2426 4.24264
    endloop
  endfacet
  facet normal -1 2.22051e-16 -1.90995e-21
    outer loop
      vertex 6.53948e-15 29.4512 4.33013
      vertex 6.66134e-15 30 5.19615
      vertex 6.74892e-15 30.3944 3.60516
    endloop
  endfacet
  facet normal -1 2.22037e-16 7.12862e-21
    outer loop
      vertex 6.5159e-15 29.345 4.37419
      vertex 6.66134e-15 30 5.19615
      vertex 6.53948e-15 29.4512 4.33013
    endloop
  endfacet
  facet normal -1 2.22045e-16 1.02651e-21
    outer loop
      vertex 6.5159e-15 29.345 4.37419
      vertex 6.34002e-15 28.5529 5.79555
      vertex 6.66134e-15 30 5.19615
    endloop
  endfacet
  facet normal -1 2.22047e-16 2.48276e-21
    outer loop
      vertex 6.27216e-15 28.2473 4.82963
      vertex 6.34002e-15 28.5529 5.79555
      vertex 6.5159e-15 29.345 4.37419
    endloop
  endfacet
  facet normal -1 2.22094e-16 -1.24813e-20
    outer loop
      vertex 6.24673e-15 28.1328 4.84473
      vertex 6.34002e-15 28.5529 5.79555
      vertex 6.27216e-15 28.2473 4.82963
    endloop
  endfacet
  facet normal -1 2.22044e-16 9.83092e-21
    outer loop
      vertex 6.24673e-15 28.1328 4.84473
      vertex 5.99521e-15 27 6
      vertex 6.34002e-15 28.5529 5.79555
    endloop
  endfacet
  facet normal -1 2.22029e-16 -4.70095e-21
    outer loop
      vertex 5.98529e-15 26.9553 5
      vertex 5.99521e-15 27 6
      vertex 6.24673e-15 28.1328 4.84473
    endloop
  endfacet
  facet normal -1 2.22146e-16 -9.92776e-21
    outer loop
      vertex 5.95981e-15 26.8406 4.98487
      vertex 5.99521e-15 27 6
      vertex 5.98529e-15 26.9553 5
    endloop
  endfacet
  facet normal -1 2.22051e-16 9.97387e-21
    outer loop
      vertex 5.65039e-15 25.4471 5.79555
      vertex 5.95981e-15 26.8406 4.98487
      vertex 5.69841e-15 25.6634 4.82963
    endloop
  endfacet
  facet normal -1 2.22004e-16 -5.58775e-22
    outer loop
      vertex 5.65039e-15 25.4471 5.79555
      vertex 5.69841e-15 25.6634 4.82963
      vertex 5.6747e-15 25.5566 4.78531
    endloop
  endfacet
  facet normal -1 2.22048e-16 5.41001e-21
    outer loop
      vertex 5.95981e-15 26.8406 4.98487
      vertex 5.65039e-15 25.4471 5.79555
      vertex 5.99521e-15 27 6
    endloop
  endfacet
  facet normal -1 2.22045e-16 1.09147e-20
    outer loop
      vertex 5.32907e-15 24 5.19615
      vertex 5.6747e-15 25.5566 4.78531
      vertex 5.43109e-15 24.4595 4.33013
    endloop
  endfacet
  facet normal -1 2.22018e-16 -3.24291e-21
    outer loop
      vertex 5.32907e-15 24 5.19615
      vertex 5.43109e-15 24.4595 4.33013
      vertex 5.41082e-15 24.3682 4.25994
    endloop
  endfacet
  facet normal -1 2.22043e-16 3.62606e-21
    outer loop
      vertex 5.6747e-15 25.5566 4.78531
      vertex 5.32907e-15 24 5.19615
      vertex 5.65039e-15 25.4471 5.79555
    endloop
  endfacet
  facet normal -1 2.22045e-16 -2.73933e-20
    outer loop
      vertex 5.05315e-15 22.7574 4.24264
      vertex 5.41082e-15 24.3682 4.25994
      vertex 5.20154e-15 23.4256 3.53553
    endloop
  endfacet
  facet normal -1 2.22112e-16 3.5554e-20
    outer loop
      vertex 5.05315e-15 22.7574 4.24264
      vertex 5.20154e-15 23.4256 3.53553
      vertex 5.1861e-15 23.3561 3.44479
    endloop
  endfacet
  facet normal -1 2.22045e-16 7.39162e-21
    outer loop
      vertex 5.41082e-15 24.3682 4.25994
      vertex 5.05315e-15 22.7574 4.24264
      vertex 5.32907e-15 24 5.19615
    endloop
  endfacet
  facet normal -1 2.22048e-16 1.43132e-20
    outer loop
      vertex 4.84143e-15 21.8039 3
      vertex 5.1861e-15 23.3561 3.44479
      vertex 5.02539e-15 22.6324 2.5
    endloop
  endfacet
  facet normal -1 2.2203e-16 -1.62417e-20
    outer loop
      vertex 4.84143e-15 21.8039 3
      vertex 5.02539e-15 22.6324 2.5
      vertex 5.0158e-15 22.5892 2.3955
    endloop
  endfacet
  facet normal -1 2.22058e-16 -1.5661e-20
    outer loop
      vertex 4.70833e-15 21.2045 1.55291
      vertex 5.0158e-15 22.5892 2.3955
      vertex 4.91467e-15 22.1337 1.2941
    endloop
  endfacet
  facet normal -1 2.22055e-16 -7.35088e-21
    outer loop
      vertex 5.1861e-15 23.3561 3.44479
      vertex 4.84143e-15 21.8039 3
      vertex 5.05315e-15 22.7574 4.24264
    endloop
  endfacet
  facet normal -1 2.22033e-16 -1.05503e-19
    outer loop
      vertex 4.70833e-15 21.2045 1.55291
      vertex 4.91467e-15 22.1337 1.2941
      vertex 4.91144e-15 22.1191 1.18343
    endloop
  endfacet
  facet normal -1 2.22042e-16 1.04915e-20
    outer loop
      vertex 4.66294e-15 21 0
      vertex 4.91144e-15 22.1191 1.18343
      vertex 4.8769e-15 21.9636 0
    endloop
  endfacet
  facet normal -1 2.22046e-16 4.03807e-21
    outer loop
      vertex 5.0158e-15 22.5892 2.3955
      vertex 4.70833e-15 21.2045 1.55291
      vertex 4.84143e-15 21.8039 3
    endloop
  endfacet
  facet normal -1 2.22069e-16 -1.49086e-20
    outer loop
      vertex 4.91144e-15 22.1191 1.18343
      vertex 4.66294e-15 21 0
      vertex 4.70833e-15 21.2045 1.55291
    endloop
  endfacet
  facet normal 0.158325 -0.987387 -1.39304e-05
    outer loop
      vertex 32.5835 5.22633 0
      vertex 32.3817 5.19395 1.55291
      vertex 31.7898 5.09902 3
    endloop
  endfacet
  facet normal 0.158395 -0.987376 2.05251e-05
    outer loop
      vertex 31.7898 5.09902 3
      vertex 30.8483 4.94801 4.24264
      vertex 29.6214 4.75121 5.19615
    endloop
  endfacet
  facet normal 0.158377 -0.987379 1.60291e-06
    outer loop
      vertex 31.7898 5.09902 3
      vertex 29.6214 4.75121 5.19615
      vertex 28.1926 4.52203 5.79555
    endloop
  endfacet
  facet normal 0.15837 -0.98738 -6.98597e-06
    outer loop
      vertex 31.7898 5.09902 3
      vertex 28.1926 4.52203 5.79555
      vertex 26.6592 4.27608 6
    endloop
  endfacet
  facet normal 0.158375 -0.987379 -9.89752e-07
    outer loop
      vertex 27.2125 4.36483 4.92022
      vertex 26.6592 4.27608 6
      vertex 25.1259 4.03014 5.79555
    endloop
  endfacet
  facet normal 0.158361 -0.987381 -8.13012e-06
    outer loop
      vertex 27.8908 4.47362 4.82963
      vertex 26.6592 4.27608 6
      vertex 27.2125 4.36483 4.92022
    endloop
  endfacet
  facet normal 0.158473 -0.987363 0.000112091
    outer loop
      vertex 27.9879 4.4892 4.78881
      vertex 26.6592 4.27608 6
      vertex 27.8908 4.47362 4.82963
    endloop
  endfacet
  facet normal 0.158373 -0.987379 4.03161e-07
    outer loop
      vertex 29.0795 4.66429 4.33013
      vertex 26.6592 4.27608 6
      vertex 27.9879 4.4892 4.78881
    endloop
  endfacet
  facet normal 0.158403 -0.987374 5.78324e-05
    outer loop
      vertex 31.7898 5.09902 3
      vertex 29.1635 4.67776 4.26476
      vertex 29.6176 4.75059 3.91127
    endloop
  endfacet
  facet normal 0.158379 -0.987378 8.65756e-06
    outer loop
      vertex 29.0795 4.66429 4.33013
      vertex 31.7898 5.09902 3
      vertex 26.6592 4.27608 6
    endloop
  endfacet
  facet normal 0.158444 -0.987368 0.000144526
    outer loop
      vertex 29.1635 4.67776 4.26476
      vertex 31.7898 5.09902 3
      vertex 29.0795 4.66429 4.33013
    endloop
  endfacet
  facet normal 0.158371 -0.98738 1.08632e-05
    outer loop
      vertex 25.1259 4.03014 5.79555
      vertex 23.6971 3.80096 5.19615
      vertex 22.4702 3.60416 4.24264
    endloop
  endfacet
  facet normal 0.158373 -0.987379 -1.64908e-05
    outer loop
      vertex 30.1003 4.82802 3.53553
      vertex 31.7898 5.09902 3
      vertex 29.6176 4.75059 3.91127
    endloop
  endfacet
  facet normal 0.158332 -0.987386 -0.000149354
    outer loop
      vertex 30.1652 4.83844 3.44965
      vertex 31.7898 5.09902 3
      vertex 30.1003 4.82802 3.53553
    endloop
  endfacet
  facet normal 0.15839 -0.987377 6.61887e-05
    outer loop
      vertex 31.7898 5.09902 3
      vertex 30.1652 4.83844 3.44965
      vertex 30.3613 4.86988 3.19048
    endloop
  endfacet
  facet normal 0.158373 -0.987379 -8.40928e-06
    outer loop
      vertex 25.1259 4.03014 5.79555
      vertex 25.443 4.08101 4.84346
      vertex 26.6151 4.26901 5
    endloop
  endfacet
  facet normal 0.158453 -0.987367 1.90515e-05
    outer loop
      vertex 25.1259 4.03014 5.79555
      vertex 25.3395 4.0644 4.82963
      vertex 25.443 4.08101 4.84346
    endloop
  endfacet
  facet normal 0.158381 -0.987378 2.65663e-06
    outer loop
      vertex 25.1259 4.03014 5.79555
      vertex 24.2474 3.88922 4.37071
      vertex 25.3395 4.0644 4.82963
    endloop
  endfacet
  facet normal 0.15831 -0.987389 4.75058e-05
    outer loop
      vertex 25.1259 4.03014 5.79555
      vertex 24.1508 3.87373 4.33013
      vertex 24.2474 3.88922 4.37071
    endloop
  endfacet
  facet normal 0.158376 -0.987379 2.0512e-06
    outer loop
      vertex 22.4702 3.60416 4.24264
      vertex 24.1508 3.87373 4.33013
      vertex 25.1259 4.03014 5.79555
    endloop
  endfacet
  facet normal 0.15838 -0.987378 -5.99785e-05
    outer loop
      vertex 24.1508 3.87373 4.33013
      vertex 22.4702 3.60416 4.24264
      vertex 23.809 3.81892 4.06412
    endloop
  endfacet
  facet normal 0.158257 -0.987398 -0.000229848
    outer loop
      vertex 26.7189 4.28565 4.98614
      vertex 25.1259 4.03014 5.79555
      vertex 26.6151 4.26901 5
    endloop
  endfacet
  facet normal 0.158394 -0.987376 4.69492e-05
    outer loop
      vertex 25.1259 4.03014 5.79555
      vertex 26.7189 4.28565 4.98614
      vertex 27.2125 4.36483 4.92022
    endloop
  endfacet
  facet normal 0.15838 -0.987378 -9.50436e-06
    outer loop
      vertex 30.8835 4.95365 2.5
      vertex 31.7898 5.09902 3
      vertex 30.3613 4.86988 3.19048
    endloop
  endfacet
  facet normal 0.158232 -0.987402 0.000265147
    outer loop
      vertex 31.7898 5.09902 3
      vertex 30.8835 4.95365 2.5
      vertex 30.8934 4.95523 2.47584
    endloop
  endfacet
  facet normal 0.158388 -0.987377 4.33947e-06
    outer loop
      vertex 22.4702 3.60416 4.24264
      vertex 23.2133 3.72336 3.60038
      vertex 23.809 3.81892 4.06412
    endloop
  endfacet
  facet normal 0.158372 -0.98738 -1.49917e-05
    outer loop
      vertex 22.4702 3.60416 4.24264
      vertex 23.13 3.71 3.53553
      vertex 23.2133 3.72336 3.60038
    endloop
  endfacet
  facet normal 0.158385 -0.987377 -2.48039e-06
    outer loop
      vertex 22.4702 3.60416 4.24264
      vertex 22.4112 3.5947 2.58519
      vertex 23.13 3.71 3.53553
    endloop
  endfacet
  facet normal 0.158131 -0.987418 6.78443e-06
    outer loop
      vertex 22.4702 3.60416 4.24264
      vertex 22.3467 3.58437 2.5
      vertex 22.4112 3.5947 2.58519
    endloop
  endfacet
  facet normal 0.158542 -0.987352 -2.31131e-05
    outer loop
      vertex 22.3467 3.58437 2.5
      vertex 22.4702 3.60416 4.24264
      vertex 22.1955 3.5601 2.12954
    endloop
  endfacet
  facet normal 0.158365 -0.987381 3.07674e-06
    outer loop
      vertex 22.4702 3.60416 4.24264
      vertex 21.5287 3.45315 3
      vertex 20.735 3.32584 0
    endloop
  endfacet
  facet normal 0.158325 -0.987387 1.39304e-05
    outer loop
      vertex 21.5287 3.45315 3
      vertex 20.9368 3.35822 1.55291
      vertex 20.735 3.32584 0
    endloop
  endfacet
  facet normal 0.158374 -0.987379 -6.28462e-07
    outer loop
      vertex 20.735 3.32584 0
      vertex 22.1955 3.5601 2.12954
      vertex 22.4702 3.60416 4.24264
    endloop
  endfacet
  facet normal 0.158426 -0.987371 -3.72394e-05
    outer loop
      vertex 22.1955 3.5601 2.12954
      vertex 20.735 3.32584 0
      vertex 21.8953 3.51196 1.39442
    endloop
  endfacet
  facet normal 0.158533 -0.987354 -0.000129174
    outer loop
      vertex 21.8953 3.51196 1.39442
      vertex 20.735 3.32584 0
      vertex 21.8543 3.50539 1.2941
    endloop
  endfacet
  facet normal 0.158372 -0.98738 1.42714e-05
    outer loop
      vertex 20.735 3.32584 0
      vertex 21.7006 3.48072 0.109109
      vertex 21.8543 3.50539 1.2941
    endloop
  endfacet
  facet normal 0.158381 -0.987378 -7.02347e-05
    outer loop
      vertex 21.7006 3.48072 0.109109
      vertex 20.735 3.32584 0
      vertex 21.6864 3.47845 0
    endloop
  endfacet
  facet normal 0.158438 -0.987369 -9.57661e-05
    outer loop
      vertex 30.9247 4.96026 2.39908
      vertex 31.7898 5.09902 3
      vertex 30.8934 4.95523 2.47584
    endloop
  endfacet
  facet normal 0.158373 -0.987379 9.85727e-07
    outer loop
      vertex 31.3759 5.03263 1.2941
      vertex 31.7898 5.09902 3
      vertex 30.9247 4.96026 2.39908
    endloop
  endfacet
  facet normal 0.158461 -0.987365 8.06744e-05
    outer loop
      vertex 32.5835 5.22633 0
      vertex 31.3759 5.03263 1.2941
      vertex 31.3901 5.0349 1.18475
    endloop
  endfacet
  facet normal 0.158383 -0.987378 6.06055e-07
    outer loop
      vertex 32.5835 5.22633 0
      vertex 31.3901 5.0349 1.18475
      vertex 31.5439 5.05957 0
    endloop
  endfacet
  facet normal 0.158376 -0.987379 5.09728e-08
    outer loop
      vertex 31.3759 5.03263 1.2941
      vertex 32.5835 5.22633 0
      vertex 31.7898 5.09902 3
    endloop
  endfacet
  facet normal 0.0998294 0.986496 0.129846
    outer loop
      vertex 6.56943 32.1308 1.55291
      vertex 7.32747e-15 33 0
      vertex 7.28208e-15 32.7956 1.55291
    endloop
  endfacet
  facet normal 0.099807 0.986486 0.129936
    outer loop
      vertex 6.56943 32.1308 1.55291
      vertex 6.61038 32.3312 0
      vertex 7.32747e-15 33 0
    endloop
  endfacet
  facet normal 0.0930801 0.91987 0.38102
    outer loop
      vertex 6.44936 31.5436 3
      vertex 7.28208e-15 32.7956 1.55291
      vertex 7.14898e-15 32.1962 3
    endloop
  endfacet
  facet normal 0.0930882 0.91988 0.380993
    outer loop
      vertex 6.44936 31.5436 3
      vertex 6.56943 32.1308 1.55291
      vertex 7.28208e-15 32.7956 1.55291
    endloop
  endfacet
  facet normal 0.0800088 0.790783 0.606845
    outer loop
      vertex 6.25836 30.6094 4.24264
      vertex 7.14898e-15 32.1962 3
      vertex 6.93726e-15 31.2426 4.24264
    endloop
  endfacet
  facet normal 0.0800202 0.790804 0.606816
    outer loop
      vertex 6.25836 30.6094 4.24264
      vertex 6.44936 31.5436 3
      vertex 7.14898e-15 32.1962 3
    endloop
  endfacet
  facet normal 0.0614756 0.607622 0.791844
    outer loop
      vertex 6.00944 29.392 5.19615
      vertex 6.93726e-15 31.2426 4.24264
      vertex 6.66134e-15 30 5.19615
    endloop
  endfacet
  facet normal 0.0614776 0.607626 0.79184
    outer loop
      vertex 6.00944 29.392 5.19615
      vertex 6.25836 30.6094 4.24264
      vertex 6.93726e-15 31.2426 4.24264
    endloop
  endfacet
  facet normal 0.03869 0.382392 0.92319
    outer loop
      vertex 5.71957 27.9742 5.79555
      vertex 6.66134e-15 30 5.19615
      vertex 6.34002e-15 28.5529 5.79555
    endloop
  endfacet
  facet normal 0.0386876 0.382386 0.923192
    outer loop
      vertex 5.71957 27.9742 5.79555
      vertex 6.00944 29.392 5.19615
      vertex 6.66134e-15 30 5.19615
    endloop
  endfacet
  facet normal 0.0132051 0.130519 0.991358
    outer loop
      vertex 5.4085 26.4528 6
      vertex 6.34002e-15 28.5529 5.79555
      vertex 5.99521e-15 27 6
    endloop
  endfacet
  facet normal 0.013206 0.130521 0.991358
    outer loop
      vertex 5.4085 26.4528 6
      vertex 5.71957 27.9742 5.79555
      vertex 6.34002e-15 28.5529 5.79555
    endloop
  endfacet
  facet normal -0.013207 -0.130519 0.991358
    outer loop
      vertex 5.09742 24.9313 5.79555
      vertex 5.99521e-15 27 6
      vertex 5.65039e-15 25.4471 5.79555
    endloop
  endfacet
  facet normal -0.0132045 -0.130513 0.991359
    outer loop
      vertex 5.09742 24.9313 5.79555
      vertex 5.4085 26.4528 6
      vertex 5.99521e-15 27 6
    endloop
  endfacet
  facet normal -0.0386882 -0.382392 0.92319
    outer loop
      vertex 4.80755 23.5136 5.19615
      vertex 5.65039e-15 25.4471 5.79555
      vertex 5.32907e-15 24 5.19615
    endloop
  endfacet
  facet normal -0.0386952 -0.382408 0.923183
    outer loop
      vertex 4.80755 23.5136 5.19615
      vertex 5.09742 24.9313 5.79555
      vertex 5.65039e-15 25.4471 5.79555
    endloop
  endfacet
  facet normal -0.0614868 -0.607621 0.791843
    outer loop
      vertex 4.55863 22.2961 4.24264
      vertex 5.32907e-15 24 5.19615
      vertex 5.05315e-15 22.7574 4.24264
    endloop
  endfacet
  facet normal -0.061473 -0.607596 0.791864
    outer loop
      vertex 4.55863 22.2961 4.24264
      vertex 4.80755 23.5136 5.19615
      vertex 5.32907e-15 24 5.19615
    endloop
  endfacet
  facet normal -0.0800294 -0.790812 0.606804
    outer loop
      vertex 4.36763 21.3619 3
      vertex 5.05315e-15 22.7574 4.24264
      vertex 4.84143e-15 21.8039 3
    endloop
  endfacet
  facet normal -0.0800236 -0.790804 0.606816
    outer loop
      vertex 4.36763 21.3619 3
      vertex 4.55863 22.2961 4.24264
      vertex 5.05315e-15 22.7574 4.24264
    endloop
  endfacet
  facet normal -0.0930793 -0.91987 0.38102
    outer loop
      vertex 4.24756 20.7747 1.55291
      vertex 4.84143e-15 21.8039 3
      vertex 4.70833e-15 21.2045 1.55291
    endloop
  endfacet
  facet normal -0.0930909 -0.91988 0.380993
    outer loop
      vertex 4.24756 20.7747 1.55291
      vertex 4.36763 21.3619 3
      vertex 4.84143e-15 21.8039 3
    endloop
  endfacet
  facet normal -0.0998072 -0.98649 0.129909
    outer loop
      vertex 4.20661 20.5744 0
      vertex 4.70833e-15 21.2045 1.55291
      vertex 4.66294e-15 21 0
    endloop
  endfacet
  facet normal -0.0998208 -0.986493 0.129874
    outer loop
      vertex 4.20661 20.5744 0
      vertex 4.24756 20.7747 1.55291
      vertex 4.70833e-15 21.2045 1.55291
    endloop
  endfacet
  facet normal 0.295385 0.946501 0.129933
    outer loop
      vertex 12.8726 30.1637 1.55291
      vertex 6.61038 32.3312 0
      vertex 6.56943 32.1308 1.55291
    endloop
  endfacet
  facet normal 0.295409 0.946506 0.129843
    outer loop
      vertex 12.8726 30.1637 1.55291
      vertex 12.9528 30.3517 0
      vertex 6.61038 32.3312 0
    endloop
  endfacet
  facet normal 0.275449 0.882594 0.380994
    outer loop
      vertex 12.6373 29.6124 3
      vertex 6.56943 32.1308 1.55291
      vertex 6.44936 31.5436 3
    endloop
  endfacet
  facet normal 0.275438 0.882583 0.381026
    outer loop
      vertex 12.6373 29.6124 3
      vertex 12.8726 30.1637 1.55291
      vertex 6.56943 32.1308 1.55291
    endloop
  endfacet
  facet normal 0.2368 0.75875 0.606815
    outer loop
      vertex 12.263 28.7354 4.24264
      vertex 6.44936 31.5436 3
      vertex 6.25836 30.6094 4.24264
    endloop
  endfacet
  facet normal 0.236798 0.758748 0.606818
    outer loop
      vertex 12.263 28.7354 4.24264
      vertex 12.6373 29.6124 3
      vertex 6.44936 31.5436 3
    endloop
  endfacet
  facet normal 0.18195 0.582994 0.791841
    outer loop
      vertex 11.7753 27.5925 5.19615
      vertex 6.25836 30.6094 4.24264
      vertex 6.00944 29.392 5.19615
    endloop
  endfacet
  facet normal 0.181946 0.582989 0.791846
    outer loop
      vertex 11.7753 27.5925 5.19615
      vertex 12.263 28.7354 4.24264
      vertex 6.25836 30.6094 4.24264
    endloop
  endfacet
  facet normal 0.114504 0.366886 0.923192
    outer loop
      vertex 11.2073 26.2615 5.79555
      vertex 6.00944 29.392 5.19615
      vertex 5.71957 27.9742 5.79555
    endloop
  endfacet
  facet normal 0.114503 0.366885 0.923193
    outer loop
      vertex 11.2073 26.2615 5.79555
      vertex 11.7753 27.5925 5.19615
      vertex 6.00944 29.392 5.19615
    endloop
  endfacet
  facet normal 0.0390855 0.12523 0.991358
    outer loop
      vertex 10.5977 24.8332 6
      vertex 5.71957 27.9742 5.79555
      vertex 5.4085 26.4528 6
    endloop
  endfacet
  facet normal 0.0390822 0.125225 0.991358
    outer loop
      vertex 10.5977 24.8332 6
      vertex 11.2073 26.2615 5.79555
      vertex 5.71957 27.9742 5.79555
    endloop
  endfacet
  facet normal -0.0390814 -0.125222 0.991359
    outer loop
      vertex 9.98822 23.4049 5.79555
      vertex 5.4085 26.4528 6
      vertex 5.09742 24.9313 5.79555
    endloop
  endfacet
  facet normal -0.0390846 -0.125227 0.991358
    outer loop
      vertex 9.98822 23.4049 5.79555
      vertex 10.5977 24.8332 6
      vertex 5.4085 26.4528 6
    endloop
  endfacet
  facet normal -0.11451 -0.366906 0.923183
    outer loop
      vertex 9.42022 22.074 5.19615
      vertex 5.09742 24.9313 5.79555
      vertex 4.80755 23.5136 5.19615
    endloop
  endfacet
  facet normal -0.11451 -0.366906 0.923184
    outer loop
      vertex 9.42022 22.074 5.19615
      vertex 9.98822 23.4049 5.79555
      vertex 5.09742 24.9313 5.79555
    endloop
  endfacet
  facet normal -0.181947 -0.582965 0.791863
    outer loop
      vertex 8.93247 20.931 4.24264
      vertex 4.80755 23.5136 5.19615
      vertex 4.55863 22.2961 4.24264
    endloop
  endfacet
  facet normal -0.181938 -0.582955 0.791872
    outer loop
      vertex 8.93247 20.931 4.24264
      vertex 9.42022 22.074 5.19615
      vertex 4.80755 23.5136 5.19615
    endloop
  endfacet
  facet normal -0.236792 -0.758752 0.606816
    outer loop
      vertex 8.55821 20.0541 3
      vertex 4.55863 22.2961 4.24264
      vertex 4.36763 21.3619 3
    endloop
  endfacet
  facet normal -0.236818 -0.758776 0.606775
    outer loop
      vertex 8.55821 20.0541 3
      vertex 8.93247 20.931 4.24264
      vertex 4.55863 22.2961 4.24264
    endloop
  endfacet
  facet normal -0.275452 -0.882593 0.380994
    outer loop
      vertex 8.32294 19.5028 1.55291
      vertex 4.36763 21.3619 3
      vertex 4.24756 20.7747 1.55291
    endloop
  endfacet
  facet normal -0.275438 -0.882585 0.381021
    outer loop
      vertex 8.32294 19.5028 1.55291
      vertex 8.55821 20.0541 3
      vertex 4.36763 21.3619 3
    endloop
  endfacet
  facet normal -0.295412 -0.946501 0.129873
    outer loop
      vertex 8.24269 19.3147 0
      vertex 4.24756 20.7747 1.55291
      vertex 4.20661 20.5744 0
    endloop
  endfacet
  facet normal -0.295397 -0.946501 0.129912
    outer loop
      vertex 8.24269 19.3147 0
      vertex 8.32294 19.5028 1.55291
      vertex 4.24756 20.7747 1.55291
    endloop
  endfacet
  facet normal 0.479025 0.868146 0.12984
    outer loop
      vertex 18.6539 26.9737 1.55291
      vertex 12.9528 30.3517 0
      vertex 12.8726 30.1637 1.55291
    endloop
  endfacet
  facet normal 0.479007 0.868146 0.129905
    outer loop
      vertex 18.6539 26.9737 1.55291
      vertex 18.7702 27.1419 0
      vertex 12.9528 30.3517 0
    endloop
  endfacet
  facet normal 0.446672 0.809507 0.381029
    outer loop
      vertex 18.3129 26.4807 3
      vertex 12.8726 30.1637 1.55291
      vertex 12.6373 29.6124 3
    endloop
  endfacet
  facet normal 0.446667 0.809504 0.38104
    outer loop
      vertex 18.3129 26.4807 3
      vertex 18.6539 26.9737 1.55291
      vertex 12.8726 30.1637 1.55291
    endloop
  endfacet
  facet normal 0.38399 0.695931 0.60682
    outer loop
      vertex 17.7706 25.6965 4.24264
      vertex 12.6373 29.6124 3
      vertex 12.263 28.7354 4.24264
    endloop
  endfacet
  facet normal 0.384013 0.69595 0.606784
    outer loop
      vertex 17.7706 25.6965 4.24264
      vertex 18.3129 26.4807 3
      vertex 12.6373 29.6124 3
    endloop
  endfacet
  facet normal 0.295051 0.534723 0.791844
    outer loop
      vertex 17.0638 24.6744 5.19615
      vertex 12.263 28.7354 4.24264
      vertex 11.7753 27.5925 5.19615
    endloop
  endfacet
  facet normal 0.295031 0.534705 0.791863
    outer loop
      vertex 17.0638 24.6744 5.19615
      vertex 17.7706 25.6965 4.24264
      vertex 12.263 28.7354 4.24264
    endloop
  endfacet
  facet normal 0.185678 0.336511 0.923192
    outer loop
      vertex 16.2407 23.4842 5.79555
      vertex 11.7753 27.5925 5.19615
      vertex 11.2073 26.2615 5.79555
    endloop
  endfacet
  facet normal 0.185684 0.336517 0.923189
    outer loop
      vertex 16.2407 23.4842 5.79555
      vertex 17.0638 24.6744 5.19615
      vertex 11.7753 27.5925 5.19615
    endloop
  endfacet
  facet normal 0.0633734 0.114857 0.991358
    outer loop
      vertex 15.3574 22.207 6
      vertex 11.2073 26.2615 5.79555
      vertex 10.5977 24.8332 6
    endloop
  endfacet
  facet normal 0.0633778 0.114862 0.991358
    outer loop
      vertex 15.3574 22.207 6
      vertex 16.2407 23.4842 5.79555
      vertex 11.2073 26.2615 5.79555
    endloop
  endfacet
  facet normal -0.0633754 -0.114862 0.991358
    outer loop
      vertex 14.4741 20.9298 5.79555
      vertex 10.5977 24.8332 6
      vertex 9.98822 23.4049 5.79555
    endloop
  endfacet
  facet normal -0.0633764 -0.114863 0.991358
    outer loop
      vertex 14.4741 20.9298 5.79555
      vertex 15.3574 22.207 6
      vertex 10.5977 24.8332 6
    endloop
  endfacet
  facet normal -0.185692 -0.336527 0.923184
    outer loop
      vertex 13.651 19.7395 5.19615
      vertex 9.98822 23.4049 5.79555
      vertex 9.42022 22.074 5.19615
    endloop
  endfacet
  facet normal -0.185668 -0.336504 0.923197
    outer loop
      vertex 13.651 19.7395 5.19615
      vertex 14.4741 20.9298 5.79555
      vertex 9.98822 23.4049 5.79555
    endloop
  endfacet
  facet normal -0.295023 -0.534698 0.791871
    outer loop
      vertex 12.9442 18.7175 4.24264
      vertex 9.42022 22.074 5.19615
      vertex 8.93247 20.931 4.24264
    endloop
  endfacet
  facet normal -0.295054 -0.534722 0.791843
    outer loop
      vertex 12.9442 18.7175 4.24264
      vertex 13.651 19.7395 5.19615
      vertex 9.42022 22.074 5.19615
    endloop
  endfacet
  facet normal -0.384004 -0.695961 0.606777
    outer loop
      vertex 12.4019 17.9333 3
      vertex 8.93247 20.931 4.24264
      vertex 8.55821 20.0541 3
    endloop
  endfacet
  facet normal -0.384 -0.695958 0.606784
    outer loop
      vertex 12.4019 17.9333 3
      vertex 12.9442 18.7175 4.24264
      vertex 8.93247 20.931 4.24264
    endloop
  endfacet
  facet normal -0.446666 -0.809513 0.381021
    outer loop
      vertex 12.0609 17.4403 1.55291
      vertex 8.55821 20.0541 3
      vertex 8.32294 19.5028 1.55291
    endloop
  endfacet
  facet normal -0.446657 -0.80951 0.381039
    outer loop
      vertex 12.0609 17.4403 1.55291
      vertex 12.4019 17.9333 3
      vertex 8.55821 20.0541 3
    endloop
  endfacet
  facet normal -0.479014 -0.868141 0.12991
    outer loop
      vertex 11.9446 17.2721 0
      vertex 8.32294 19.5028 1.55291
      vertex 8.24269 19.3147 0
    endloop
  endfacet
  facet normal -0.479016 -0.868141 0.129905
    outer loop
      vertex 11.9446 17.2721 0
      vertex 12.0609 17.4403 1.55291
      vertex 8.32294 19.5028 1.55291
    endloop
  endfacet
  facet normal 0.643203 0.754596 0.129903
    outer loop
      vertex 23.679 22.6904 1.55291
      vertex 18.7702 27.1419 0
      vertex 18.6539 26.9737 1.55291
    endloop
  endfacet
  facet normal 0.643218 0.754593 0.129846
    outer loop
      vertex 23.679 22.6904 1.55291
      vertex 23.8266 22.8318 0
      vertex 18.7702 27.1419 0
    endloop
  endfacet
  facet normal 0.599755 0.703632 0.381045
    outer loop
      vertex 23.2462 22.2757 3
      vertex 18.6539 26.9737 1.55291
      vertex 18.3129 26.4807 3
    endloop
  endfacet
  facet normal 0.599765 0.703635 0.381024
    outer loop
      vertex 23.2462 22.2757 3
      vertex 23.679 22.6904 1.55291
      vertex 18.6539 26.9737 1.55291
    endloop
  endfacet
  facet normal 0.515637 0.604925 0.606782
    outer loop
      vertex 22.5578 21.6159 4.24264
      vertex 18.3129 26.4807 3
      vertex 17.7706 25.6965 4.24264
    endloop
  endfacet
  facet normal 0.515607 0.604909 0.606823
    outer loop
      vertex 22.5578 21.6159 4.24264
      vertex 23.2462 22.2757 3
      vertex 18.3129 26.4807 3
    endloop
  endfacet
  facet normal 0.39616 0.464771 0.791862
    outer loop
      vertex 21.6606 20.7562 5.19615
      vertex 17.7706 25.6965 4.24264
      vertex 17.0638 24.6744 5.19615
    endloop
  endfacet
  facet normal 0.396182 0.464785 0.791843
    outer loop
      vertex 21.6606 20.7562 5.19615
      vertex 22.5578 21.6159 4.24264
      vertex 17.7706 25.6965 4.24264
    endloop
  endfacet
  facet normal 0.249324 0.292507 0.923189
    outer loop
      vertex 20.6158 19.755 5.79555
      vertex 17.0638 24.6744 5.19615
      vertex 16.2407 23.4842 5.79555
    endloop
  endfacet
  facet normal 0.249328 0.292509 0.923187
    outer loop
      vertex 20.6158 19.755 5.79555
      vertex 21.6606 20.7562 5.19615
      vertex 17.0638 24.6744 5.19615
    endloop
  endfacet
  facet normal 0.0851007 0.0998384 0.991358
    outer loop
      vertex 19.4945 18.6806 6
      vertex 16.2407 23.4842 5.79555
      vertex 15.3574 22.207 6
    endloop
  endfacet
  facet normal 0.0850971 0.099836 0.991358
    outer loop
      vertex 19.4945 18.6806 6
      vertex 20.6158 19.755 5.79555
      vertex 16.2407 23.4842 5.79555
    endloop
  endfacet
  facet normal -0.0851004 -0.0998386 0.991358
    outer loop
      vertex 18.3733 17.6062 5.79555
      vertex 15.3574 22.207 6
      vertex 14.4741 20.9298 5.79555
    endloop
  endfacet
  facet normal -0.0851014 -0.0998393 0.991358
    outer loop
      vertex 18.3733 17.6062 5.79555
      vertex 19.4945 18.6806 6
      vertex 15.3574 22.207 6
    endloop
  endfacet
  facet normal -0.249308 -0.292496 0.923196
    outer loop
      vertex 17.3285 16.605 5.19615
      vertex 14.4741 20.9298 5.79555
      vertex 13.651 19.7395 5.19615
    endloop
  endfacet
  facet normal -0.249329 -0.292509 0.923187
    outer loop
      vertex 17.3285 16.605 5.19615
      vertex 18.3733 17.6062 5.79555
      vertex 14.4741 20.9298 5.79555
    endloop
  endfacet
  facet normal -0.396173 -0.46479 0.791844
    outer loop
      vertex 16.4313 15.7452 4.24264
      vertex 13.651 19.7395 5.19615
      vertex 12.9442 18.7175 4.24264
    endloop
  endfacet
  facet normal -0.396153 -0.46478 0.79186
    outer loop
      vertex 16.4313 15.7452 4.24264
      vertex 17.3285 16.605 5.19615
      vertex 13.651 19.7395 5.19615
    endloop
  endfacet
  facet normal -0.515639 -0.604923 0.606782
    outer loop
      vertex 15.7428 15.0855 3
      vertex 12.9442 18.7175 4.24264
      vertex 12.4019 17.9333 3
    endloop
  endfacet
  facet normal -0.515609 -0.604912 0.606819
    outer loop
      vertex 15.7428 15.0855 3
      vertex 16.4313 15.7452 4.24264
      vertex 12.9442 18.7175 4.24264
    endloop
  endfacet
  facet normal -0.599763 -0.703625 0.381045
    outer loop
      vertex 15.31 14.6708 1.55291
      vertex 12.4019 17.9333 3
      vertex 12.0609 17.4403 1.55291
    endloop
  endfacet
  facet normal -0.599775 -0.703627 0.381024
    outer loop
      vertex 15.31 14.6708 1.55291
      vertex 15.7428 15.0855 3
      vertex 12.4019 17.9333 3
    endloop
  endfacet
  facet normal -0.643204 -0.754595 0.129903
    outer loop
      vertex 15.1624 14.5293 0
      vertex 12.0609 17.4403 1.55291
      vertex 11.9446 17.2721 0
    endloop
  endfacet
  facet normal -0.643208 -0.754594 0.129893
    outer loop
      vertex 15.1624 14.5293 0
      vertex 15.31 14.6708 1.55291
      vertex 12.0609 17.4403 1.55291
    endloop
  endfacet
  facet normal 0.781331 0.61046 0.129849
    outer loop
      vertex 27.7443 17.4872 1.55291
      vertex 23.8266 22.8318 0
      vertex 23.679 22.6904 1.55291
    endloop
  endfacet
  facet normal 0.78132 0.610464 0.129891
    outer loop
      vertex 27.7443 17.4872 1.55291
      vertex 27.9173 17.5962 0
      vertex 23.8266 22.8318 0
    endloop
  endfacet
  facet normal 0.728559 0.569229 0.381026
    outer loop
      vertex 27.2372 17.1676 3
      vertex 23.679 22.6904 1.55291
      vertex 23.2462 22.2757 3
    endloop
  endfacet
  facet normal 0.728559 0.569229 0.381025
    outer loop
      vertex 27.2372 17.1676 3
      vertex 27.7443 17.4872 1.55291
      vertex 23.679 22.6904 1.55291
    endloop
  endfacet
  facet normal 0.626332 0.48937 0.606816
    outer loop
      vertex 26.4306 16.6592 4.24264
      vertex 23.2462 22.2757 3
      vertex 22.5578 21.6159 4.24264
    endloop
  endfacet
  facet normal 0.626355 0.489376 0.606786
    outer loop
      vertex 26.4306 16.6592 4.24264
      vertex 27.2372 17.1676 3
      vertex 23.2462 22.2757 3
    endloop
  endfacet
  facet normal 0.481252 0.376005 0.791844
    outer loop
      vertex 25.3793 15.9966 5.19615
      vertex 22.5578 21.6159 4.24264
      vertex 21.6606 20.7562 5.19615
    endloop
  endfacet
  facet normal 0.481228 0.375996 0.791863
    outer loop
      vertex 25.3793 15.9966 5.19615
      vertex 26.4306 16.6592 4.24264
      vertex 22.5578 21.6159 4.24264
    endloop
  endfacet
  facet normal 0.302871 0.236634 0.923186
    outer loop
      vertex 24.1551 15.225 5.79555
      vertex 21.6606 20.7562 5.19615
      vertex 20.6158 19.755 5.79555
    endloop
  endfacet
  facet normal 0.302869 0.236633 0.923187
    outer loop
      vertex 24.1551 15.225 5.79555
      vertex 25.3793 15.9966 5.19615
      vertex 21.6606 20.7562 5.19615
    endloop
  endfacet
  facet normal 0.103371 0.0807647 0.991358
    outer loop
      vertex 22.8414 14.3969 6
      vertex 20.6158 19.755 5.79555
      vertex 19.4945 18.6806 6
    endloop
  endfacet
  facet normal 0.103373 0.0807656 0.991358
    outer loop
      vertex 22.8414 14.3969 6
      vertex 24.1551 15.225 5.79555
      vertex 20.6158 19.755 5.79555
    endloop
  endfacet
  facet normal -0.103376 -0.0807689 0.991358
    outer loop
      vertex 21.5277 13.5689 5.79555
      vertex 19.4945 18.6806 6
      vertex 18.3733 17.6062 5.79555
    endloop
  endfacet
  facet normal -0.103377 -0.0807693 0.991357
    outer loop
      vertex 21.5277 13.5689 5.79555
      vertex 22.8414 14.3969 6
      vertex 19.4945 18.6806 6
    endloop
  endfacet
  facet normal -0.30287 -0.236636 0.923187
    outer loop
      vertex 20.3035 12.7973 5.19615
      vertex 18.3733 17.6062 5.79555
      vertex 17.3285 16.605 5.19615
    endloop
  endfacet
  facet normal -0.302868 -0.236635 0.923187
    outer loop
      vertex 20.3035 12.7973 5.19615
      vertex 21.5277 13.5689 5.79555
      vertex 18.3733 17.6062 5.79555
    endloop
  endfacet
  facet normal -0.481237 -0.375993 0.791858
    outer loop
      vertex 19.2522 12.1347 4.24264
      vertex 17.3285 16.605 5.19615
      vertex 16.4313 15.7452 4.24264
    endloop
  endfacet
  facet normal -0.481231 -0.375991 0.791863
    outer loop
      vertex 19.2522 12.1347 4.24264
      vertex 20.3035 12.7973 5.19615
      vertex 17.3285 16.605 5.19615
    endloop
  endfacet
  facet normal -0.626332 -0.489362 0.606822
    outer loop
      vertex 18.4456 11.6262 3
      vertex 16.4313 15.7452 4.24264
      vertex 15.7428 15.0855 3
    endloop
  endfacet
  facet normal -0.626341 -0.489363 0.606811
    outer loop
      vertex 18.4456 11.6262 3
      vertex 19.2522 12.1347 4.24264
      vertex 16.4313 15.7452 4.24264
    endloop
  endfacet
  facet normal -0.728556 -0.569232 0.381026
    outer loop
      vertex 17.9385 11.3066 1.55291
      vertex 15.7428 15.0855 3
      vertex 15.31 14.6708 1.55291
    endloop
  endfacet
  facet normal -0.728557 -0.569232 0.381025
    outer loop
      vertex 17.9385 11.3066 1.55291
      vertex 18.4456 11.6262 3
      vertex 15.7428 15.0855 3
    endloop
  endfacet
  facet normal -0.781325 -0.610459 0.129887
    outer loop
      vertex 17.7655 11.1976 0
      vertex 15.31 14.6708 1.55291
      vertex 15.1624 14.5293 0
    endloop
  endfacet
  facet normal -0.781324 -0.61046 0.129891
    outer loop
      vertex 17.7655 11.1976 0
      vertex 17.9385 11.3066 1.55291
      vertex 15.31 14.6708 1.55291
    endloop
  endfacet
  facet normal 0.887772 0.441574 0.129896
    outer loop
      vertex 30.6849 11.5752 1.55291
      vertex 27.9173 17.5962 0
      vertex 27.7443 17.4872 1.55291
    endloop
  endfacet
  facet normal 0.887773 0.441573 0.129893
    outer loop
      vertex 30.6849 11.5752 1.55291
      vertex 30.8762 11.6474 0
      vertex 27.9173 17.5962 0
    endloop
  endfacet
  facet normal 0.827815 0.411754 0.381028
    outer loop
      vertex 30.1241 11.3636 3
      vertex 27.7443 17.4872 1.55291
      vertex 27.2372 17.1676 3
    endloop
  endfacet
  facet normal 0.827819 0.411753 0.381018
    outer loop
      vertex 30.1241 11.3636 3
      vertex 30.6849 11.5752 1.55291
      vertex 27.7443 17.4872 1.55291
    endloop
  endfacet
  facet normal 0.711693 0.353983 0.606786
    outer loop
      vertex 29.2319 11.0271 4.24264
      vertex 27.2372 17.1676 3
      vertex 26.4306 16.6592 4.24264
    endloop
  endfacet
  facet normal 0.711664 0.35398 0.606822
    outer loop
      vertex 29.2319 11.0271 4.24264
      vertex 30.1241 11.3636 3
      vertex 27.2372 17.1676 3
    endloop
  endfacet
  facet normal 0.54679 0.271975 0.791865
    outer loop
      vertex 28.0693 10.5885 5.19615
      vertex 26.4306 16.6592 4.24264
      vertex 25.3793 15.9966 5.19615
    endloop
  endfacet
  facet normal 0.546824 0.27198 0.79184
    outer loop
      vertex 28.0693 10.5885 5.19615
      vertex 29.2319 11.0271 4.24264
      vertex 26.4306 16.6592 4.24264
    endloop
  endfacet
  facet normal 0.34413 0.171169 0.923188
    outer loop
      vertex 26.7153 10.0778 5.79555
      vertex 25.3793 15.9966 5.19615
      vertex 24.1551 15.225 5.79555
    endloop
  endfacet
  facet normal 0.344124 0.171168 0.92319
    outer loop
      vertex 26.7153 10.0778 5.79555
      vertex 28.0693 10.5885 5.19615
      vertex 25.3793 15.9966 5.19615
    endloop
  endfacet
  facet normal 0.117458 0.0584217 0.991358
    outer loop
      vertex 25.2623 9.52965 6
      vertex 24.1551 15.225 5.79555
      vertex 22.8414 14.3969 6
    endloop
  endfacet
  facet normal 0.117453 0.0584209 0.991359
    outer loop
      vertex 25.2623 9.52965 6
      vertex 26.7153 10.0778 5.79555
      vertex 24.1551 15.225 5.79555
    endloop
  endfacet
  facet normal -0.117461 -0.0584237 0.991357
    outer loop
      vertex 23.8094 8.98155 5.79555
      vertex 22.8414 14.3969 6
      vertex 21.5277 13.5689 5.79555
    endloop
  endfacet
  facet normal -0.117462 -0.058424 0.991357
    outer loop
      vertex 23.8094 8.98155 5.79555
      vertex 25.2623 9.52965 6
      vertex 22.8414 14.3969 6
    endloop
  endfacet
  facet normal -0.344134 -0.171164 0.923187
    outer loop
      vertex 22.4554 8.4708 5.19615
      vertex 21.5277 13.5689 5.79555
      vertex 20.3035 12.7973 5.19615
    endloop
  endfacet
  facet normal -0.344121 -0.171162 0.923192
    outer loop
      vertex 22.4554 8.4708 5.19615
      vertex 23.8094 8.98155 5.79555
      vertex 21.5277 13.5689 5.79555
    endloop
  endfacet
  facet normal -0.54679 -0.271976 0.791865
    outer loop
      vertex 21.2928 8.03221 4.24264
      vertex 20.3035 12.7973 5.19615
      vertex 19.2522 12.1347 4.24264
    endloop
  endfacet
  facet normal -0.546826 -0.271978 0.791839
    outer loop
      vertex 21.2928 8.03221 4.24264
      vertex 22.4554 8.4708 5.19615
      vertex 20.3035 12.7973 5.19615
    endloop
  endfacet
  facet normal -0.711679 -0.353981 0.606804
    outer loop
      vertex 20.4006 7.69567 3
      vertex 19.2522 12.1347 4.24264
      vertex 18.4456 11.6262 3
    endloop
  endfacet
  facet normal -0.711657 -0.353982 0.606829
    outer loop
      vertex 20.4006 7.69567 3
      vertex 21.2928 8.03221 4.24264
      vertex 19.2522 12.1347 4.24264
    endloop
  endfacet
  facet normal -0.827815 -0.411754 0.381028
    outer loop
      vertex 19.8398 7.48411 1.55291
      vertex 18.4456 11.6262 3
      vertex 17.9385 11.3066 1.55291
    endloop
  endfacet
  facet normal -0.827825 -0.41175 0.381009
    outer loop
      vertex 19.8398 7.48411 1.55291
      vertex 20.4006 7.69567 3
      vertex 18.4456 11.6262 3
    endloop
  endfacet
  facet normal -0.887769 -0.44158 0.129896
    outer loop
      vertex 19.6485 7.41195 0
      vertex 17.9385 11.3066 1.55291
      vertex 17.7655 11.1976 0
    endloop
  endfacet
  facet normal -0.887773 -0.441577 0.129882
    outer loop
      vertex 19.6485 7.41195 0
      vertex 19.8398 7.48411 1.55291
      vertex 17.9385 11.3066 1.55291
    endloop
  endfacet
  facet normal 0.958231 0.254798 0.129889
    outer loop
      vertex 32.3817 5.19395 1.55291
      vertex 30.8762 11.6474 0
      vertex 30.6849 11.5752 1.55291
    endloop
  endfacet
  facet normal 0.958241 0.254787 0.129836
    outer loop
      vertex 32.3817 5.19395 1.55291
      vertex 32.5835 5.22633 0
      vertex 30.8762 11.6474 0
    endloop
  endfacet
  facet normal 0.893524 0.237581 0.381013
    outer loop
      vertex 31.7898 5.09902 3
      vertex 30.6849 11.5752 1.55291
      vertex 30.1241 11.3636 3
    endloop
  endfacet
  facet normal 0.893505 0.237586 0.381054
    outer loop
      vertex 31.7898 5.09902 3
      vertex 32.3817 5.19395 1.55291
      vertex 30.6849 11.5752 1.55291
    endloop
  endfacet
  facet normal 0.768144 0.204246 0.606826
    outer loop
      vertex 30.8483 4.94801 4.24264
      vertex 30.1241 11.3636 3
      vertex 29.2319 11.0271 4.24264
    endloop
  endfacet
  facet normal 0.768151 0.204245 0.606818
    outer loop
      vertex 30.8483 4.94801 4.24264
      vertex 31.7898 5.09902 3
      vertex 30.1241 11.3636 3
    endloop
  endfacet
  facet normal 0.590223 0.156937 0.791838
    outer loop
      vertex 29.6214 4.75121 5.19615
      vertex 29.2319 11.0271 4.24264
      vertex 28.0693 10.5885 5.19615
    endloop
  endfacet
  facet normal 0.590221 0.156937 0.79184
    outer loop
      vertex 29.6214 4.75121 5.19615
      vertex 30.8483 4.94801 4.24264
      vertex 29.2319 11.0271 4.24264
    endloop
  endfacet
  facet normal 0.371434 0.0987656 0.923191
    outer loop
      vertex 28.1926 4.52203 5.79555
      vertex 28.0693 10.5885 5.19615
      vertex 26.7153 10.0778 5.79555
    endloop
  endfacet
  facet normal 0.371447 0.0987654 0.923186
    outer loop
      vertex 28.1926 4.52203 5.79555
      vertex 29.6214 4.75121 5.19615
      vertex 28.0693 10.5885 5.19615
    endloop
  endfacet
  facet normal 0.126776 0.0337092 0.991358
    outer loop
      vertex 26.6592 4.27608 6
      vertex 26.7153 10.0778 5.79555
      vertex 25.2623 9.52965 6
    endloop
  endfacet
  facet normal 0.126772 0.0337092 0.991359
    outer loop
      vertex 28.1926 4.52203 5.79555
      vertex 26.7153 10.0778 5.79555
      vertex 26.6592 4.27608 6
    endloop
  endfacet
  facet normal -0.126785 -0.0337102 0.991357
    outer loop
      vertex 25.1259 4.03014 5.79555
      vertex 25.2623 9.52965 6
      vertex 23.8094 8.98155 5.79555
    endloop
  endfacet
  facet normal -0.12678 -0.0337103 0.991358
    outer loop
      vertex 26.6592 4.27608 6
      vertex 25.2623 9.52965 6
      vertex 25.1259 4.03014 5.79555
    endloop
  endfacet
  facet normal -0.371432 -0.0987628 0.923193
    outer loop
      vertex 23.6971 3.80096 5.19615
      vertex 23.8094 8.98155 5.79555
      vertex 22.4554 8.4708 5.19615
    endloop
  endfacet
  facet normal -0.371447 -0.0987618 0.923186
    outer loop
      vertex 25.1259 4.03014 5.79555
      vertex 23.8094 8.98155 5.79555
      vertex 23.6971 3.80096 5.19615
    endloop
  endfacet
  facet normal -0.590223 -0.156938 0.791838
    outer loop
      vertex 22.4702 3.60416 4.24264
      vertex 22.4554 8.4708 5.19615
      vertex 21.2928 8.03221 4.24264
    endloop
  endfacet
  facet normal -0.590221 -0.156938 0.79184
    outer loop
      vertex 22.4702 3.60416 4.24264
      vertex 23.6971 3.80096 5.19615
      vertex 22.4554 8.4708 5.19615
    endloop
  endfacet
  facet normal -0.768139 -0.204251 0.606831
    outer loop
      vertex 21.5287 3.45315 3
      vertex 21.2928 8.03221 4.24264
      vertex 20.4006 7.69567 3
    endloop
  endfacet
  facet normal -0.76815 -0.204248 0.606818
    outer loop
      vertex 21.5287 3.45315 3
      vertex 22.4702 3.60416 4.24264
      vertex 21.2928 8.03221 4.24264
    endloop
  endfacet
  facet normal -0.893528 -0.237573 0.381007
    outer loop
      vertex 20.9368 3.35822 1.55291
      vertex 20.4006 7.69567 3
      vertex 19.8398 7.48411 1.55291
    endloop
  endfacet
  facet normal -0.893505 -0.237586 0.381054
    outer loop
      vertex 20.9368 3.35822 1.55291
      vertex 21.5287 3.45315 3
      vertex 20.4006 7.69567 3
    endloop
  endfacet
  facet normal -0.958233 -0.254795 0.129883
    outer loop
      vertex 20.735 3.32584 0
      vertex 19.8398 7.48411 1.55291
      vertex 19.6485 7.41195 0
    endloop
  endfacet
  facet normal -0.958243 -0.25478 0.129836
    outer loop
      vertex 20.735 3.32584 0
      vertex 20.9368 3.35822 1.55291
      vertex 19.8398 7.48411 1.55291
    endloop
  endfacet
  facet normal -0.0850483 -0.987889 -0.129779
    outer loop
      vertex 5.98669 31.2616 1.2941
      vertex 7.0559e-15 31.777 1.2941
      vertex 7.09045e-15 31.9325 0.110421
    endloop
  endfacet
  facet normal -0.0850458 -0.98778 -0.130605
    outer loop
      vertex 6.01873 31.4289 0
      vertex 7.09045e-15 31.9325 0.110421
      vertex 7.09367e-15 31.9471 0
    endloop
  endfacet
  facet normal -0.0850401 -0.987884 -0.129818
    outer loop
      vertex 7.09045e-15 31.9325 0.110421
      vertex 6.01873 31.4289 0
      vertex 5.98669 31.2616 1.2941
    endloop
  endfacet
  facet normal -0.079305 -0.921198 -0.380928
    outer loop
      vertex 5.89274 30.771 2.5
      vertex 6.94518e-15 31.2783 2.5
      vertex 7.04636e-15 31.734 1.39798
    endloop
  endfacet
  facet normal -0.0792949 -0.92106 -0.381263
    outer loop
      vertex 5.98669 31.2616 1.2941
      vertex 7.04636e-15 31.734 1.39798
      vertex 7.0559e-15 31.777 1.2941
    endloop
  endfacet
  facet normal -0.0792997 -0.921189 -0.380948
    outer loop
      vertex 7.04636e-15 31.734 1.39798
      vertex 5.98669 31.2616 1.2941
      vertex 5.89274 30.771 2.5
    endloop
  endfacet
  facet normal -0.0681777 -0.791999 -0.606704
    outer loop
      vertex 5.74329 29.9906 3.53553
      vertex 6.76903e-15 30.485 3.53553
      vertex 6.92986e-15 31.2093 2.59002
    endloop
  endfacet
  facet normal -0.0681675 -0.791825 -0.606931
    outer loop
      vertex 5.89274 30.771 2.5
      vertex 6.92986e-15 31.2093 2.59002
      vertex 6.94518e-15 31.2783 2.5
    endloop
  endfacet
  facet normal -0.0681768 -0.791997 -0.606707
    outer loop
      vertex 6.92986e-15 31.2093 2.59002
      vertex 5.89274 30.771 2.5
      vertex 5.74329 29.9906 3.53553
    endloop
  endfacet
  facet normal -0.0523951 -0.608573 -0.791766
    outer loop
      vertex 5.54852 28.9735 4.33013
      vertex 6.53948e-15 29.4512 4.33013
      vertex 6.74892e-15 30.3944 3.60516
    endloop
  endfacet
  facet normal -0.0523851 -0.608546 -0.791788
    outer loop
      vertex 6.74892e-15 30.3944 3.60516
      vertex 5.74329 29.9906 3.53553
      vertex 5.54852 28.9735 4.33013
    endloop
  endfacet
  facet normal -0.0523843 -0.608531 -0.791799
    outer loop
      vertex 5.74329 29.9906 3.53553
      vertex 6.74892e-15 30.3944 3.60516
      vertex 6.76903e-15 30.485 3.53553
    endloop
  endfacet
  facet normal -0.032978 -0.383019 -0.923152
    outer loop
      vertex 5.32171 27.7891 4.82963
      vertex 6.27216e-15 28.2473 4.82963
      vertex 6.5159e-15 29.345 4.37419
    endloop
  endfacet
  facet normal -0.032975 -0.38301 -0.923155
    outer loop
      vertex 6.5159e-15 29.345 4.37419
      vertex 5.54852 28.9735 4.33013
      vertex 5.32171 27.7891 4.82963
    endloop
  endfacet
  facet normal -0.0329743 -0.382998 -0.92316
    outer loop
      vertex 5.54852 28.9735 4.33013
      vertex 6.5159e-15 29.345 4.37419
      vertex 6.53948e-15 29.4512 4.33013
    endloop
  endfacet
  facet normal -0.0112543 -0.130724 -0.991355
    outer loop
      vertex 5.07831 26.5181 5
      vertex 5.98529e-15 26.9553 5
      vertex 6.24673e-15 28.1328 4.84473
    endloop
  endfacet
  facet normal -0.011256 -0.13073 -0.991354
    outer loop
      vertex 6.24673e-15 28.1328 4.84473
      vertex 5.32171 27.7891 4.82963
      vertex 5.07831 26.5181 5
    endloop
  endfacet
  facet normal -0.0112565 -0.130737 -0.991353
    outer loop
      vertex 5.32171 27.7891 4.82963
      vertex 6.24673e-15 28.1328 4.84473
      vertex 6.27216e-15 28.2473 4.82963
    endloop
  endfacet
  facet normal 0.0112564 0.130732 -0.991354
    outer loop
      vertex 4.83491 25.2471 4.82963
      vertex 5.69841e-15 25.6634 4.82963
      vertex 5.95981e-15 26.8406 4.98487
    endloop
  endfacet
  facet normal 0.0112556 0.13073 -0.991354
    outer loop
      vertex 5.95981e-15 26.8406 4.98487
      vertex 5.07831 26.5181 5
      vertex 4.83491 25.2471 4.82963
    endloop
  endfacet
  facet normal 0.011258 0.130768 -0.991349
    outer loop
      vertex 5.07831 26.5181 5
      vertex 5.95981e-15 26.8406 4.98487
      vertex 5.98529e-15 26.9553 5
    endloop
  endfacet
  facet normal 0.0329809 0.383011 -0.923155
    outer loop
      vertex 4.60809 24.0627 4.33013
      vertex 5.43109e-15 24.4595 4.33013
      vertex 5.6747e-15 25.5566 4.78531
    endloop
  endfacet
  facet normal 0.03298 0.383009 -0.923156
    outer loop
      vertex 5.6747e-15 25.5566 4.78531
      vertex 4.83491 25.2471 4.82963
      vertex 4.60809 24.0627 4.33013
    endloop
  endfacet
  facet normal 0.0329843 0.38308 -0.923126
    outer loop
      vertex 4.83491 25.2471 4.82963
      vertex 5.6747e-15 25.5566 4.78531
      vertex 5.69841e-15 25.6634 4.82963
    endloop
  endfacet
  facet normal 0.0523817 0.608522 -0.791806
    outer loop
      vertex 4.41332 23.0457 3.53553
      vertex 5.20154e-15 23.4256 3.53553
      vertex 5.41082e-15 24.3682 4.25994
    endloop
  endfacet
  facet normal 0.0524067 0.60858 -0.79176
    outer loop
      vertex 5.41082e-15 24.3682 4.25994
      vertex 4.60809 24.0627 4.33013
      vertex 4.41332 23.0457 3.53553
    endloop
  endfacet
  facet normal 0.0524106 0.608651 -0.791705
    outer loop
      vertex 4.60809 24.0627 4.33013
      vertex 5.41082e-15 24.3682 4.25994
      vertex 5.43109e-15 24.4595 4.33013
    endloop
  endfacet
  facet normal 0.0681892 0.792018 -0.606678
    outer loop
      vertex 4.26387 22.2653 2.5
      vertex 5.02539e-15 22.6324 2.5
      vertex 5.1861e-15 23.3561 3.44479
    endloop
  endfacet
  facet normal 0.0681794 0.792043 -0.606646
    outer loop
      vertex 4.41332 23.0457 3.53553
      vertex 5.1861e-15 23.3561 3.44479
      vertex 5.20154e-15 23.4256 3.53553
    endloop
  endfacet
  facet normal 0.0681773 0.791997 -0.606707
    outer loop
      vertex 5.1861e-15 23.3561 3.44479
      vertex 4.41332 23.0457 3.53553
      vertex 4.26387 22.2653 2.5
    endloop
  endfacet
  facet normal 0.079307 0.921181 -0.380968
    outer loop
      vertex 4.16992 21.7747 1.2941
      vertex 4.91467e-15 22.1337 1.2941
      vertex 5.0158e-15 22.5892 2.3955
    endloop
  endfacet
  facet normal 0.0793142 0.921235 -0.380836
    outer loop
      vertex 4.26387 22.2653 2.5
      vertex 5.0158e-15 22.5892 2.3955
      vertex 5.02539e-15 22.6324 2.5
    endloop
  endfacet
  facet normal 0.0793134 0.921188 -0.380949
    outer loop
      vertex 5.0158e-15 22.5892 2.3955
      vertex 4.26387 22.2653 2.5
      vertex 4.16992 21.7747 1.2941
    endloop
  endfacet
  facet normal 0.0850399 0.987886 -0.129806
    outer loop
      vertex 4.13788 21.6074 0
      vertex 4.8769e-15 21.9636 0
      vertex 4.91144e-15 22.1191 1.18343
    endloop
  endfacet
  facet normal 0.085044 0.987818 -0.130317
    outer loop
      vertex 4.16992 21.7747 1.2941
      vertex 4.91144e-15 22.1191 1.18343
      vertex 4.91467e-15 22.1337 1.2941
    endloop
  endfacet
  facet normal 0.0850363 0.987885 -0.129818
    outer loop
      vertex 4.91144e-15 22.1191 1.18343
      vertex 4.16992 21.7747 1.2941
      vertex 4.13788 21.6074 0
    endloop
  endfacet
  facet normal -0.285952 -0.94941 -0.129819
    outer loop
      vertex 12.2741 29.3679 1.2941
      vertex 5.98669 31.2616 1.2941
      vertex 6.01873 31.4289 0
    endloop
  endfacet
  facet normal -0.285946 -0.949408 -0.129846
    outer loop
      vertex 12.2741 29.3679 1.2941
      vertex 6.01873 31.4289 0
      vertex 12.3398 29.5251 0
    endloop
  endfacet
  facet normal -0.266648 -0.885312 -0.380948
    outer loop
      vertex 12.0815 28.907 2.5
      vertex 5.89274 30.771 2.5
      vertex 5.98669 31.2616 1.2941
    endloop
  endfacet
  facet normal -0.266646 -0.885309 -0.380956
    outer loop
      vertex 12.0815 28.907 2.5
      vertex 5.98669 31.2616 1.2941
      vertex 12.2741 29.3679 1.2941
    endloop
  endfacet
  facet normal -0.229249 -0.761151 -0.606707
    outer loop
      vertex 11.7751 28.1739 3.53553
      vertex 5.74329 29.9906 3.53553
      vertex 5.89274 30.771 2.5
    endloop
  endfacet
  facet normal -0.229255 -0.76116 -0.606694
    outer loop
      vertex 11.7751 28.1739 3.53553
      vertex 5.89274 30.771 2.5
      vertex 12.0815 28.907 2.5
    endloop
  endfacet
  facet normal -0.176151 -0.584845 -0.791788
    outer loop
      vertex 11.3757 27.2184 4.33013
      vertex 5.54852 28.9735 4.33013
      vertex 5.74329 29.9906 3.53553
    endloop
  endfacet
  facet normal -0.176144 -0.584835 -0.791796
    outer loop
      vertex 11.3757 27.2184 4.33013
      vertex 5.74329 29.9906 3.53553
      vertex 11.7751 28.1739 3.53553
    endloop
  endfacet
  facet normal -0.110863 -0.368095 -0.923155
    outer loop
      vertex 10.9107 26.1058 4.82963
      vertex 5.32171 27.7891 4.82963
      vertex 5.54852 28.9735 4.33013
    endloop
  endfacet
  facet normal -0.110871 -0.368109 -0.923149
    outer loop
      vertex 10.9107 26.1058 4.82963
      vertex 5.54852 28.9735 4.33013
      vertex 11.3757 27.2184 4.33013
    endloop
  endfacet
  facet normal -0.0378396 -0.125639 -0.991354
    outer loop
      vertex 10.4117 24.9118 5
      vertex 5.07831 26.5181 5
      vertex 5.32171 27.7891 4.82963
    endloop
  endfacet
  facet normal -0.0378405 -0.12564 -0.991354
    outer loop
      vertex 10.4117 24.9118 5
      vertex 5.32171 27.7891 4.82963
      vertex 10.9107 26.1058 4.82963
    endloop
  endfacet
  facet normal 0.0378394 0.125639 -0.991354
    outer loop
      vertex 9.91267 23.7178 4.82963
      vertex 4.83491 25.2471 4.82963
      vertex 5.07831 26.5181 5
    endloop
  endfacet
  facet normal 0.0378399 0.12564 -0.991354
    outer loop
      vertex 9.91267 23.7178 4.82963
      vertex 5.07831 26.5181 5
      vertex 10.4117 24.9118 5
    endloop
  endfacet
  facet normal 0.110864 0.368094 -0.923156
    outer loop
      vertex 9.44766 22.6051 4.33013
      vertex 4.60809 24.0627 4.33013
      vertex 4.83491 25.2471 4.82963
    endloop
  endfacet
  facet normal 0.110858 0.368085 -0.92316
    outer loop
      vertex 9.44766 22.6051 4.33013
      vertex 4.83491 25.2471 4.82963
      vertex 9.91267 23.7178 4.82963
    endloop
  endfacet
  facet normal 0.176157 0.58488 -0.79176
    outer loop
      vertex 9.04834 21.6497 3.53553
      vertex 4.41332 23.0457 3.53553
      vertex 4.60809 24.0627 4.33013
    endloop
  endfacet
  facet normal 0.176156 0.584877 -0.791762
    outer loop
      vertex 9.04834 21.6497 3.53553
      vertex 4.60809 24.0627 4.33013
      vertex 9.44766 22.6051 4.33013
    endloop
  endfacet
  facet normal 0.229244 0.761153 -0.606708
    outer loop
      vertex 8.74193 20.9166 2.5
      vertex 4.26387 22.2653 2.5
      vertex 4.41332 23.0457 3.53553
    endloop
  endfacet
  facet normal 0.22925 0.76116 -0.606695
    outer loop
      vertex 8.74193 20.9166 2.5
      vertex 4.41332 23.0457 3.53553
      vertex 9.04834 21.6497 3.53553
    endloop
  endfacet
  facet normal 0.266642 0.885314 -0.380949
    outer loop
      vertex 8.54931 20.4557 1.2941
      vertex 4.16992 21.7747 1.2941
      vertex 4.26387 22.2653 2.5
    endloop
  endfacet
  facet normal 0.266637 0.88531 -0.38096
    outer loop
      vertex 8.54931 20.4557 1.2941
      vertex 4.26387 22.2653 2.5
      vertex 8.74193 20.9166 2.5
    endloop
  endfacet
  facet normal 0.285955 0.949409 -0.129818
    outer loop
      vertex 8.48361 20.2985 0
      vertex 4.13788 21.6074 0
      vertex 4.16992 21.7747 1.2941
    endloop
  endfacet
  facet normal 0.285946 0.949408 -0.129846
    outer loop
      vertex 8.48361 20.2985 0
      vertex 4.16992 21.7747 1.2941
      vertex 8.54931 20.4557 1.2941
    endloop
  endfacet
  facet normal -0.474688 -0.870524 -0.129846
    outer loop
      vertex 18.0391 26.2243 1.2941
      vertex 12.2741 29.3679 1.2941
      vertex 12.3398 29.5251 0
    endloop
  endfacet
  facet normal -0.47468 -0.870523 -0.129878
    outer loop
      vertex 18.0391 26.2243 1.2941
      vertex 12.3398 29.5251 0
      vertex 18.1357 26.3647 0
    endloop
  endfacet
  facet normal -0.442636 -0.811757 -0.380952
    outer loop
      vertex 17.756 25.8128 2.5
      vertex 12.0815 28.907 2.5
      vertex 12.2741 29.3679 1.2941
    endloop
  endfacet
  facet normal -0.442647 -0.811764 -0.380923
    outer loop
      vertex 17.756 25.8128 2.5
      vertex 12.2741 29.3679 1.2941
      vertex 18.0391 26.2243 1.2941
    endloop
  endfacet
  facet normal -0.38057 -0.697918 -0.606694
    outer loop
      vertex 17.3057 25.1581 3.53553
      vertex 11.7751 28.1739 3.53553
      vertex 12.0815 28.907 2.5
    endloop
  endfacet
  facet normal -0.380553 -0.697902 -0.606723
    outer loop
      vertex 17.3057 25.1581 3.53553
      vertex 12.0815 28.907 2.5
      vertex 17.756 25.8128 2.5
    endloop
  endfacet
  facet normal -0.292395 -0.536245 -0.7918
    outer loop
      vertex 16.7188 24.305 4.33013
      vertex 11.3757 27.2184 4.33013
      vertex 11.7751 28.1739 3.53553
    endloop
  endfacet
  facet normal -0.292432 -0.536284 -0.79176
    outer loop
      vertex 16.7188 24.305 4.33013
      vertex 11.7751 28.1739 3.53553
      vertex 17.3057 25.1581 3.53553
    endloop
  endfacet
  facet normal -0.184046 -0.337526 -0.923149
    outer loop
      vertex 16.0354 23.3114 4.82963
      vertex 10.9107 26.1058 4.82963
      vertex 11.3757 27.2184 4.33013
    endloop
  endfacet
  facet normal -0.184032 -0.33751 -0.923157
    outer loop
      vertex 16.0354 23.3114 4.82963
      vertex 11.3757 27.2184 4.33013
      vertex 16.7188 24.305 4.33013
    endloop
  endfacet
  facet normal -0.0628176 -0.115202 -0.991354
    outer loop
      vertex 15.302 22.2452 5
      vertex 10.4117 24.9118 5
      vertex 10.9107 26.1058 4.82963
    endloop
  endfacet
  facet normal -0.0628168 -0.115201 -0.991354
    outer loop
      vertex 15.302 22.2452 5
      vertex 10.9107 26.1058 4.82963
      vertex 16.0354 23.3114 4.82963
    endloop
  endfacet
  facet normal 0.0628169 0.115201 -0.991354
    outer loop
      vertex 14.5686 21.179 4.82963
      vertex 9.91267 23.7178 4.82963
      vertex 10.4117 24.9118 5
    endloop
  endfacet
  facet normal 0.062817 0.115201 -0.991354
    outer loop
      vertex 14.5686 21.179 4.82963
      vertex 10.4117 24.9118 5
      vertex 15.302 22.2452 5
    endloop
  endfacet
  facet normal 0.184031 0.337505 -0.923159
    outer loop
      vertex 13.8851 20.1855 4.33013
      vertex 9.44766 22.6051 4.33013
      vertex 9.91267 23.7178 4.82963
    endloop
  endfacet
  facet normal 0.184042 0.337516 -0.923153
    outer loop
      vertex 13.8851 20.1855 4.33013
      vertex 9.91267 23.7178 4.82963
      vertex 14.5686 21.179 4.82963
    endloop
  endfacet
  facet normal 0.292422 0.536283 -0.791763
    outer loop
      vertex 13.2983 19.3323 3.53553
      vertex 9.04834 21.6497 3.53553
      vertex 9.44766 22.6051 4.33013
    endloop
  endfacet
  facet normal 0.292415 0.536277 -0.79177
    outer loop
      vertex 13.2983 19.3323 3.53553
      vertex 9.44766 22.6051 4.33013
      vertex 13.8851 20.1855 4.33013
    endloop
  endfacet
  facet normal 0.380575 0.697913 -0.606696
    outer loop
      vertex 12.8479 18.6776 2.5
      vertex 8.74193 20.9166 2.5
      vertex 9.04834 21.6497 3.53553
    endloop
  endfacet
  facet normal 0.380541 0.697888 -0.606746
    outer loop
      vertex 12.8479 18.6776 2.5
      vertex 9.04834 21.6497 3.53553
      vertex 13.2983 19.3323 3.53553
    endloop
  endfacet
  facet normal 0.442639 0.811752 -0.380958
    outer loop
      vertex 12.5648 18.2661 1.2941
      vertex 8.54931 20.4557 1.2941
      vertex 8.74193 20.9166 2.5
    endloop
  endfacet
  facet normal 0.442655 0.81176 -0.380923
    outer loop
      vertex 12.5648 18.2661 1.2941
      vertex 8.74193 20.9166 2.5
      vertex 12.8479 18.6776 2.5
    endloop
  endfacet
  facet normal 0.474686 0.870525 -0.129846
    outer loop
      vertex 12.4683 18.1257 0
      vertex 8.48361 20.2985 0
      vertex 8.54931 20.4557 1.2941
    endloop
  endfacet
  facet normal 0.474687 0.870525 -0.129842
    outer loop
      vertex 12.4683 18.1257 0
      vertex 8.54931 20.4557 1.2941
      vertex 12.5648 18.2661 1.2941
    endloop
  endfacet
  facet normal -0.643205 -0.754598 -0.129881
    outer loop
      vertex 23.0364 21.9647 1.2941
      vertex 18.0391 26.2243 1.2941
      vertex 18.1357 26.3647 0
    endloop
  endfacet
  facet normal -0.64321 -0.754598 -0.129857
    outer loop
      vertex 23.0364 21.9647 1.2941
      vertex 18.1357 26.3647 0
      vertex 23.1597 22.0823 0
    endloop
  endfacet
  facet normal -0.599793 -0.703664 -0.380926
    outer loop
      vertex 22.6749 21.62 2.5
      vertex 17.756 25.8128 2.5
      vertex 18.0391 26.2243 1.2941
    endloop
  endfacet
  facet normal -0.599787 -0.703662 -0.38094
    outer loop
      vertex 22.6749 21.62 2.5
      vertex 18.0391 26.2243 1.2941
      vertex 23.0364 21.9647 1.2941
    endloop
  endfacet
  facet normal -0.515663 -0.604967 -0.606718
    outer loop
      vertex 22.0998 21.0717 3.53553
      vertex 17.3057 25.1581 3.53553
      vertex 17.756 25.8128 2.5
    endloop
  endfacet
  facet normal -0.515668 -0.604971 -0.60671
    outer loop
      vertex 22.0998 21.0717 3.53553
      vertex 17.756 25.8128 2.5
      vertex 22.6749 21.62 2.5
    endloop
  endfacet
  facet normal -0.396245 -0.464867 -0.791763
    outer loop
      vertex 21.3504 20.3571 4.33013
      vertex 16.7188 24.305 4.33013
      vertex 17.3057 25.1581 3.53553
    endloop
  endfacet
  facet normal -0.396242 -0.464865 -0.791765
    outer loop
      vertex 21.3504 20.3571 4.33013
      vertex 17.3057 25.1581 3.53553
      vertex 22.0998 21.0717 3.53553
    endloop
  endfacet
  facet normal -0.249379 -0.292563 -0.923156
    outer loop
      vertex 20.4776 19.5249 4.82963
      vertex 16.0354 23.3114 4.82963
      vertex 16.7188 24.305 4.33013
    endloop
  endfacet
  facet normal -0.249372 -0.292558 -0.92316
    outer loop
      vertex 20.4776 19.5249 4.82963
      vertex 16.7188 24.305 4.33013
      vertex 21.3504 20.3571 4.33013
    endloop
  endfacet
  facet normal -0.0851197 -0.0998595 -0.991354
    outer loop
      vertex 19.541 18.6319 5
      vertex 15.302 22.2452 5
      vertex 16.0354 23.3114 4.82963
    endloop
  endfacet
  facet normal -0.0851193 -0.0998592 -0.991354
    outer loop
      vertex 19.541 18.6319 5
      vertex 16.0354 23.3114 4.82963
      vertex 20.4776 19.5249 4.82963
    endloop
  endfacet
  facet normal 0.0851198 0.0998594 -0.991354
    outer loop
      vertex 18.6044 17.7389 4.82963
      vertex 14.5686 21.179 4.82963
      vertex 15.302 22.2452 5
    endloop
  endfacet
  facet normal 0.0851194 0.0998591 -0.991354
    outer loop
      vertex 18.6044 17.7389 4.82963
      vertex 15.302 22.2452 5
      vertex 19.541 18.6319 5
    endloop
  endfacet
  facet normal 0.24938 0.292566 -0.923155
    outer loop
      vertex 17.7317 16.9067 4.33013
      vertex 13.8851 20.1855 4.33013
      vertex 14.5686 21.179 4.82963
    endloop
  endfacet
  facet normal 0.249385 0.292569 -0.923152
    outer loop
      vertex 17.7317 16.9067 4.33013
      vertex 14.5686 21.179 4.82963
      vertex 18.6044 17.7389 4.82963
    endloop
  endfacet
  facet normal 0.396251 0.464858 -0.791765
    outer loop
      vertex 16.9822 16.1921 3.53553
      vertex 13.2983 19.3323 3.53553
      vertex 13.8851 20.1855 4.33013
    endloop
  endfacet
  facet normal 0.396229 0.464845 -0.791784
    outer loop
      vertex 16.9822 16.1921 3.53553
      vertex 13.8851 20.1855 4.33013
      vertex 17.7317 16.9067 4.33013
    endloop
  endfacet
  facet normal 0.515648 0.604948 -0.60675
    outer loop
      vertex 16.4071 15.6438 2.5
      vertex 12.8479 18.6776 2.5
      vertex 13.2983 19.3323 3.53553
    endloop
  endfacet
  facet normal 0.515677 0.604962 -0.60671
    outer loop
      vertex 16.4071 15.6438 2.5
      vertex 13.2983 19.3323 3.53553
      vertex 16.9822 16.1921 3.53553
    endloop
  endfacet
  facet normal 0.599795 0.703663 -0.380926
    outer loop
      vertex 16.0456 15.2991 1.2941
      vertex 12.5648 18.2661 1.2941
      vertex 12.8479 18.6776 2.5
    endloop
  endfacet
  facet normal 0.599788 0.703661 -0.38094
    outer loop
      vertex 16.0456 15.2991 1.2941
      vertex 12.8479 18.6776 2.5
      vertex 16.4071 15.6438 2.5
    endloop
  endfacet
  facet normal 0.643206 0.754605 -0.129832
    outer loop
      vertex 15.9223 15.1816 0
      vertex 12.4683 18.1257 0
      vertex 12.5648 18.2661 1.2941
    endloop
  endfacet
  facet normal 0.643216 0.754603 -0.1298
    outer loop
      vertex 15.9223 15.1816 0
      vertex 12.5648 18.2661 1.2941
      vertex 16.0456 15.2991 1.2941
    endloop
  endfacet
  facet normal -0.784363 -0.606558 -0.129853
    outer loop
      vertex 27.0533 16.7703 1.2941
      vertex 23.0364 21.9647 1.2941
      vertex 23.1597 22.0823 0
    endloop
  endfacet
  facet normal -0.78436 -0.60656 -0.129868
    outer loop
      vertex 27.0533 16.7703 1.2941
      vertex 23.1597 22.0823 0
      vertex 27.1982 16.86 0
    endloop
  endfacet
  facet normal -0.731413 -0.565615 -0.380938
    outer loop
      vertex 26.6288 16.5071 2.5
      vertex 22.6749 21.62 2.5
      vertex 23.0364 21.9647 1.2941
    endloop
  endfacet
  facet normal -0.731419 -0.565616 -0.380925
    outer loop
      vertex 26.6288 16.5071 2.5
      vertex 23.0364 21.9647 1.2941
      vertex 27.0533 16.7703 1.2941
    endloop
  endfacet
  facet normal -0.628829 -0.486285 -0.606713
    outer loop
      vertex 25.9534 16.0885 3.53553
      vertex 22.0998 21.0717 3.53553
      vertex 22.6749 21.62 2.5
    endloop
  endfacet
  facet normal -0.628829 -0.486285 -0.606713
    outer loop
      vertex 25.9534 16.0885 3.53553
      vertex 22.6749 21.62 2.5
      vertex 26.6288 16.5071 2.5
    endloop
  endfacet
  facet normal -0.483202 -0.373668 -0.791763
    outer loop
      vertex 25.0733 15.5429 4.33013
      vertex 21.3504 20.3571 4.33013
      vertex 22.0998 21.0717 3.53553
    endloop
  endfacet
  facet normal -0.483199 -0.373667 -0.791765
    outer loop
      vertex 25.0733 15.5429 4.33013
      vertex 22.0998 21.0717 3.53553
      vertex 25.9534 16.0885 3.53553
    endloop
  endfacet
  facet normal -0.304097 -0.235163 -0.92316
    outer loop
      vertex 24.0483 14.9075 4.82963
      vertex 20.4776 19.5249 4.82963
      vertex 21.3504 20.3571 4.33013
    endloop
  endfacet
  facet normal -0.304095 -0.235161 -0.923161
    outer loop
      vertex 24.0483 14.9075 4.82963
      vertex 21.3504 20.3571 4.33013
      vertex 25.0733 15.5429 4.33013
    endloop
  endfacet
  facet normal -0.103798 -0.0802688 -0.991354
    outer loop
      vertex 22.9484 14.2257 5
      vertex 19.541 18.6319 5
      vertex 20.4776 19.5249 4.82963
    endloop
  endfacet
  facet normal -0.1038 -0.0802696 -0.991354
    outer loop
      vertex 22.9484 14.2257 5
      vertex 20.4776 19.5249 4.82963
      vertex 24.0483 14.9075 4.82963
    endloop
  endfacet
  facet normal 0.103798 0.0802681 -0.991354
    outer loop
      vertex 21.8485 13.5438 4.82963
      vertex 18.6044 17.7389 4.82963
      vertex 19.541 18.6319 5
    endloop
  endfacet
  facet normal 0.103794 0.0802663 -0.991355
    outer loop
      vertex 21.8485 13.5438 4.82963
      vertex 19.541 18.6319 5
      vertex 22.9484 14.2257 5
    endloop
  endfacet
  facet normal 0.304113 0.235177 -0.923151
    outer loop
      vertex 20.8236 12.9085 4.33013
      vertex 17.7317 16.9067 4.33013
      vertex 18.6044 17.7389 4.82963
    endloop
  endfacet
  facet normal 0.304126 0.235183 -0.923145
    outer loop
      vertex 20.8236 12.9085 4.33013
      vertex 18.6044 17.7389 4.82963
      vertex 21.8485 13.5438 4.82963
    endloop
  endfacet
  facet normal 0.483178 0.373651 -0.791785
    outer loop
      vertex 19.9434 12.3629 3.53553
      vertex 16.9822 16.1921 3.53553
      vertex 17.7317 16.9067 4.33013
    endloop
  endfacet
  facet normal 0.483175 0.37365 -0.791787
    outer loop
      vertex 19.9434 12.3629 3.53553
      vertex 17.7317 16.9067 4.33013
      vertex 20.8236 12.9085 4.33013
    endloop
  endfacet
  facet normal 0.628826 0.486288 -0.606713
    outer loop
      vertex 19.2681 11.9442 2.5
      vertex 16.4071 15.6438 2.5
      vertex 16.9822 16.1921 3.53553
    endloop
  endfacet
  facet normal 0.628833 0.48629 -0.606705
    outer loop
      vertex 19.2681 11.9442 2.5
      vertex 16.9822 16.1921 3.53553
      vertex 19.9434 12.3629 3.53553
    endloop
  endfacet
  facet normal 0.731418 0.56561 -0.380938
    outer loop
      vertex 18.8435 11.681 1.2941
      vertex 16.0456 15.2991 1.2941
      vertex 16.4071 15.6438 2.5
    endloop
  endfacet
  facet normal 0.731398 0.565609 -0.380977
    outer loop
      vertex 18.8435 11.681 1.2941
      vertex 16.4071 15.6438 2.5
      vertex 19.2681 11.9442 2.5
    endloop
  endfacet
  facet normal 0.784371 0.606558 -0.129807
    outer loop
      vertex 18.6987 11.5913 0
      vertex 15.9223 15.1816 0
      vertex 16.0456 15.2991 1.2941
    endloop
  endfacet
  facet normal 0.78437 0.606558 -0.129808
    outer loop
      vertex 18.6987 11.5913 0
      vertex 16.0456 15.2991 1.2941
      vertex 18.8435 11.681 1.2941
    endloop
  endfacet
  facet normal -0.892132 -0.432702 -0.129884
    outer loop
      vertex 29.9189 10.8621 1.2941
      vertex 27.0533 16.7703 1.2941
      vertex 27.1982 16.86 0
    endloop
  endfacet
  facet normal -0.892142 -0.432696 -0.129831
    outer loop
      vertex 29.9189 10.8621 1.2941
      vertex 27.1982 16.86 0
      vertex 30.079 10.9203 0
    endloop
  endfacet
  facet normal -0.831919 -0.403499 -0.380919
    outer loop
      vertex 29.4494 10.6917 2.5
      vertex 26.6288 16.5071 2.5
      vertex 27.0533 16.7703 1.2941
    endloop
  endfacet
  facet normal -0.831921 -0.403499 -0.380913
    outer loop
      vertex 29.4494 10.6917 2.5
      vertex 27.0533 16.7703 1.2941
      vertex 29.9189 10.8621 1.2941
    endloop
  endfacet
  facet normal -0.715228 -0.3469 -0.60672
    outer loop
      vertex 28.7025 10.4205 3.53553
      vertex 25.9534 16.0885 3.53553
      vertex 26.6288 16.5071 2.5
    endloop
  endfacet
  facet normal -0.715225 -0.3469 -0.606724
    outer loop
      vertex 28.7025 10.4205 3.53553
      vertex 26.6288 16.5071 2.5
      vertex 29.4494 10.6917 2.5
    endloop
  endfacet
  facet normal -0.549598 -0.266559 -0.791763
    outer loop
      vertex 27.7291 10.0671 4.33013
      vertex 25.0733 15.5429 4.33013
      vertex 25.9534 16.0885 3.53553
    endloop
  endfacet
  facet normal -0.54957 -0.266553 -0.791784
    outer loop
      vertex 27.7291 10.0671 4.33013
      vertex 25.9534 16.0885 3.53553
      vertex 28.7025 10.4205 3.53553
    endloop
  endfacet
  facet normal -0.345878 -0.167759 -0.923161
    outer loop
      vertex 26.5956 9.6556 4.82963
      vertex 24.0483 14.9075 4.82963
      vertex 25.0733 15.5429 4.33013
    endloop
  endfacet
  facet normal -0.345901 -0.167764 -0.923151
    outer loop
      vertex 26.5956 9.6556 4.82963
      vertex 25.0733 15.5429 4.33013
      vertex 27.7291 10.0671 4.33013
    endloop
  endfacet
  facet normal -0.118061 -0.0572624 -0.991354
    outer loop
      vertex 25.3792 9.21398 5
      vertex 22.9484 14.2257 5
      vertex 24.0483 14.9075 4.82963
    endloop
  endfacet
  facet normal -0.118061 -0.0572622 -0.991354
    outer loop
      vertex 25.3792 9.21398 5
      vertex 24.0483 14.9075 4.82963
      vertex 26.5956 9.6556 4.82963
    endloop
  endfacet
  facet normal 0.118057 0.0572613 -0.991355
    outer loop
      vertex 24.1628 8.77236 4.82963
      vertex 21.8485 13.5438 4.82963
      vertex 22.9484 14.2257 5
    endloop
  endfacet
  facet normal 0.118061 0.0572621 -0.991354
    outer loop
      vertex 24.1628 8.77236 4.82963
      vertex 22.9484 14.2257 5
      vertex 25.3792 9.21398 5
    endloop
  endfacet
  facet normal 0.345911 0.167773 -0.923145
    outer loop
      vertex 23.0293 8.36084 4.33013
      vertex 20.8236 12.9085 4.33013
      vertex 21.8485 13.5438 4.82963
    endloop
  endfacet
  facet normal 0.345896 0.167771 -0.923152
    outer loop
      vertex 23.0293 8.36084 4.33013
      vertex 21.8485 13.5438 4.82963
      vertex 24.1628 8.77236 4.82963
    endloop
  endfacet
  facet normal 0.549563 0.266552 -0.79179
    outer loop
      vertex 22.0559 8.00745 3.53553
      vertex 19.9434 12.3629 3.53553
      vertex 20.8236 12.9085 4.33013
    endloop
  endfacet
  facet normal 0.549572 0.266553 -0.791783
    outer loop
      vertex 22.0559 8.00745 3.53553
      vertex 20.8236 12.9085 4.33013
      vertex 23.0293 8.36084 4.33013
    endloop
  endfacet
  facet normal 0.715245 0.346905 -0.606698
    outer loop
      vertex 21.309 7.73629 2.5
      vertex 19.2681 11.9442 2.5
      vertex 19.9434 12.3629 3.53553
    endloop
  endfacet
  facet normal 0.71523 0.346904 -0.606715
    outer loop
      vertex 21.309 7.73629 2.5
      vertex 19.9434 12.3629 3.53553
      vertex 22.0559 8.00745 3.53553
    endloop
  endfacet
  facet normal 0.831893 0.403497 -0.380979
    outer loop
      vertex 20.8395 7.56583 1.2941
      vertex 18.8435 11.681 1.2941
      vertex 19.2681 11.9442 2.5
    endloop
  endfacet
  facet normal 0.831917 0.403492 -0.380931
    outer loop
      vertex 20.8395 7.56583 1.2941
      vertex 19.2681 11.9442 2.5
      vertex 21.309 7.73629 2.5
    endloop
  endfacet
  facet normal 0.892143 0.4327 -0.129816
    outer loop
      vertex 20.6793 7.50769 0
      vertex 18.6987 11.5913 0
      vertex 18.8435 11.681 1.2941
    endloop
  endfacet
  facet normal 0.892127 0.432713 -0.129879
    outer loop
      vertex 20.6793 7.50769 0
      vertex 18.8435 11.681 1.2941
      vertex 20.8395 7.56583 1.2941
    endloop
  endfacet
  facet normal -0.961947 -0.240428 -0.12982
    outer loop
      vertex 31.3901 5.0349 1.18475
      vertex 29.9189 10.8621 1.2941
      vertex 30.079 10.9203 0
    endloop
  endfacet
  facet normal -0.961936 -0.240423 -0.129906
    outer loop
      vertex 29.9189 10.8621 1.2941
      vertex 31.3901 5.0349 1.18475
      vertex 31.3759 5.03263 1.2941
    endloop
  endfacet
  facet normal -0.961936 -0.240438 -0.129882
    outer loop
      vertex 31.3901 5.0349 1.18475
      vertex 30.079 10.9203 0
      vertex 31.5439 5.05957 0
    endloop
  endfacet
  facet normal -0.897017 -0.224189 -0.38092
    outer loop
      vertex 30.9247 4.96026 2.39908
      vertex 29.4494 10.6917 2.5
      vertex 29.9189 10.8621 1.2941
    endloop
  endfacet
  facet normal -0.897171 -0.224236 -0.380529
    outer loop
      vertex 30.8934 4.95523 2.47584
      vertex 29.4494 10.6917 2.5
      vertex 30.9247 4.96026 2.39908
    endloop
  endfacet
  facet normal -0.896569 -0.224078 -0.382039
    outer loop
      vertex 29.4494 10.6917 2.5
      vertex 30.8934 4.95523 2.47584
      vertex 30.8835 4.95365 2.5
    endloop
  endfacet
  facet normal -0.897 -0.224193 -0.380958
    outer loop
      vertex 30.9247 4.96026 2.39908
      vertex 29.9189 10.8621 1.2941
      vertex 31.3759 5.03263 1.2941
    endloop
  endfacet
  facet normal -0.771193 -0.192746 -0.60672
    outer loop
      vertex 30.1652 4.83844 3.44965
      vertex 28.7025 10.4205 3.53553
      vertex 29.4494 10.6917 2.5
    endloop
  endfacet
  facet normal -0.771444 -0.192817 -0.606379
    outer loop
      vertex 28.7025 10.4205 3.53553
      vertex 30.1652 4.83844 3.44965
      vertex 30.1003 4.82802 3.53553
    endloop
  endfacet
  facet normal -0.771238 -0.192754 -0.606661
    outer loop
      vertex 30.3613 4.86988 3.19048
      vertex 29.4494 10.6917 2.5
      vertex 30.8835 4.95365 2.5
    endloop
  endfacet
  facet normal -0.771102 -0.192753 -0.606834
    outer loop
      vertex 29.4494 10.6917 2.5
      vertex 30.3613 4.86988 3.19048
      vertex 30.1652 4.83844 3.44965
    endloop
  endfacet
  facet normal -0.592485 -0.148088 -0.791853
    outer loop
      vertex 27.7291 10.0671 4.33013
      vertex 29.1635 4.67776 4.26476
      vertex 29.0795 4.66429 4.33013
    endloop
  endfacet
  facet normal -0.592571 -0.148112 -0.791784
    outer loop
      vertex 29.1635 4.67776 4.26476
      vertex 27.7291 10.0671 4.33013
      vertex 28.7025 10.4205 3.53553
    endloop
  endfacet
  facet normal -0.592575 -0.14811 -0.791782
    outer loop
      vertex 29.6176 4.75059 3.91127
      vertex 28.7025 10.4205 3.53553
      vertex 30.1003 4.82802 3.53553
    endloop
  endfacet
  facet normal -0.592591 -0.148112 -0.791769
    outer loop
      vertex 28.7025 10.4205 3.53553
      vertex 29.6176 4.75059 3.91127
      vertex 29.1635 4.67776 4.26476
    endloop
  endfacet
  facet normal -0.373098 -0.0932532 -0.923094
    outer loop
      vertex 26.5956 9.6556 4.82963
      vertex 27.9879 4.4892 4.78881
      vertex 27.8908 4.47362 4.82963
    endloop
  endfacet
  facet normal -0.372965 -0.0932168 -0.923151
    outer loop
      vertex 27.9879 4.4892 4.78881
      vertex 26.5956 9.6556 4.82963
      vertex 27.7291 10.0671 4.33013
    endloop
  endfacet
  facet normal -0.37295 -0.0932166 -0.923157
    outer loop
      vertex 27.9879 4.4892 4.78881
      vertex 27.7291 10.0671 4.33013
      vertex 29.0795 4.66429 4.33013
    endloop
  endfacet
  facet normal -0.127273 -0.0318094 -0.991358
    outer loop
      vertex 25.3792 9.21398 5
      vertex 26.7189 4.28565 4.98614
      vertex 26.6151 4.26901 5
    endloop
  endfacet
  facet normal -0.127299 -0.0318165 -0.991354
    outer loop
      vertex 26.7189 4.28565 4.98614
      vertex 25.3792 9.21398 5
      vertex 26.5956 9.6556 4.82963
    endloop
  endfacet
  facet normal -0.127291 -0.0318163 -0.991355
    outer loop
      vertex 26.5956 9.6556 4.82963
      vertex 27.2125 4.36483 4.92022
      vertex 26.7189 4.28565 4.98614
    endloop
  endfacet
  facet normal -0.127297 -0.031817 -0.991354
    outer loop
      vertex 27.2125 4.36483 4.92022
      vertex 26.5956 9.6556 4.82963
      vertex 27.8908 4.47362 4.82963
    endloop
  endfacet
  facet normal 0.127358 0.0318317 -0.991346
    outer loop
      vertex 24.1628 8.77236 4.82963
      vertex 25.443 4.08101 4.84346
      vertex 25.3395 4.0644 4.82963
    endloop
  endfacet
  facet normal 0.127299 0.0318155 -0.991354
    outer loop
      vertex 25.443 4.08101 4.84346
      vertex 24.1628 8.77236 4.82963
      vertex 25.3792 9.21398 5
    endloop
  endfacet
  facet normal 0.127297 0.0318155 -0.991354
    outer loop
      vertex 25.443 4.08101 4.84346
      vertex 25.3792 9.21398 5
      vertex 26.6151 4.26901 5
    endloop
  endfacet
  facet normal 0.372872 0.0931951 -0.923191
    outer loop
      vertex 23.0293 8.36084 4.33013
      vertex 24.2474 3.88922 4.37071
      vertex 24.1508 3.87373 4.33013
    endloop
  endfacet
  facet normal 0.372962 0.0932198 -0.923152
    outer loop
      vertex 24.2474 3.88922 4.37071
      vertex 23.0293 8.36084 4.33013
      vertex 24.1628 8.77236 4.82963
    endloop
  endfacet
  facet normal 0.37297 0.0932197 -0.923148
    outer loop
      vertex 24.2474 3.88922 4.37071
      vertex 24.1628 8.77236 4.82963
      vertex 25.3395 4.0644 4.82963
    endloop
  endfacet
  facet normal 0.592625 0.14812 -0.791743
    outer loop
      vertex 22.0559 8.00745 3.53553
      vertex 23.2133 3.72336 3.60038
      vertex 23.13 3.71 3.53553
    endloop
  endfacet
  facet normal 0.592574 0.148106 -0.791783
    outer loop
      vertex 23.2133 3.72336 3.60038
      vertex 22.0559 8.00745 3.53553
      vertex 23.0293 8.36084 4.33013
    endloop
  endfacet
  facet normal 0.592609 0.148103 -0.791758
    outer loop
      vertex 23.0293 8.36084 4.33013
      vertex 23.809 3.81892 4.06412
      vertex 23.2133 3.72336 3.60038
    endloop
  endfacet
  facet normal 0.592508 0.14809 -0.791835
    outer loop
      vertex 23.809 3.81892 4.06412
      vertex 23.0293 8.36084 4.33013
      vertex 24.1508 3.87373 4.33013
    endloop
  endfacet
  facet normal 0.771194 0.192758 -0.606716
    outer loop
      vertex 22.4112 3.5947 2.58519
      vertex 21.309 7.73629 2.5
      vertex 22.0559 8.00745 3.53553
    endloop
  endfacet
  facet normal 0.770938 0.192682 -0.607065
    outer loop
      vertex 21.309 7.73629 2.5
      vertex 22.4112 3.5947 2.58519
      vertex 22.3467 3.58437 2.5
    endloop
  endfacet
  facet normal 0.771209 0.192755 -0.606698
    outer loop
      vertex 22.4112 3.5947 2.58519
      vertex 22.0559 8.00745 3.53553
      vertex 23.13 3.71 3.53553
    endloop
  endfacet
  facet normal 0.897012 0.224193 -0.38093
    outer loop
      vertex 21.8953 3.51196 1.39442
      vertex 20.8395 7.56583 1.2941
      vertex 21.309 7.73629 2.5
    endloop
  endfacet
  facet normal 0.896892 0.224155 -0.381233
    outer loop
      vertex 20.8395 7.56583 1.2941
      vertex 21.8953 3.51196 1.39442
      vertex 21.8543 3.50539 1.2941
    endloop
  endfacet
  facet normal 0.897058 0.224204 -0.380815
    outer loop
      vertex 22.1955 3.5601 2.12954
      vertex 21.309 7.73629 2.5
      vertex 22.3467 3.58437 2.5
    endloop
  endfacet
  facet normal 0.896986 0.224204 -0.380983
    outer loop
      vertex 21.309 7.73629 2.5
      vertex 22.1955 3.5601 2.12954
      vertex 21.8953 3.51196 1.39442
    endloop
  endfacet
  facet normal 0.961935 0.240442 -0.129883
    outer loop
      vertex 21.7006 3.48072 0.109109
      vertex 20.6793 7.50769 0
      vertex 20.8395 7.56583 1.2941
    endloop
  endfacet
  facet normal 0.961898 0.240424 -0.130188
    outer loop
      vertex 20.6793 7.50769 0
      vertex 21.7006 3.48072 0.109109
      vertex 21.6864 3.47845 0
    endloop
  endfacet
  facet normal 0.961956 0.240415 -0.129776
    outer loop
      vertex 21.7006 3.48072 0.109109
      vertex 20.8395 7.56583 1.2941
      vertex 21.8543 3.50539 1.2941
    endloop
  endfacet
  facet normal 0 0 -1
    outer loop
      vertex 30.079 10.9203 0
      vertex 32.5835 5.22633 0
      vertex 31.5439 5.05957 0
    endloop
  endfacet
  facet normal 0 0 -1
    outer loop
      vertex 32.5835 5.22633 0
      vertex 30.079 10.9203 0
      vertex 30.8762 11.6474 0
    endloop
  endfacet
  facet normal 0 0 -1
    outer loop
      vertex 27.1982 16.86 0
      vertex 30.8762 11.6474 0
      vertex 30.079 10.9203 0
    endloop
  endfacet
  facet normal 0 0 -1
    outer loop
      vertex 30.8762 11.6474 0
      vertex 27.1982 16.86 0
      vertex 27.9173 17.5962 0
    endloop
  endfacet
  facet normal 0 0 -1
    outer loop
      vertex 23.1597 22.0823 0
      vertex 27.9173 17.5962 0
      vertex 27.1982 16.86 0
    endloop
  endfacet
  facet normal 0 0 -1
    outer loop
      vertex 27.9173 17.5962 0
      vertex 23.1597 22.0823 0
      vertex 23.8266 22.8318 0
    endloop
  endfacet
  facet normal 0 0 -1
    outer loop
      vertex 23.1597 22.0823 0
      vertex 18.7702 27.1419 0
      vertex 23.8266 22.8318 0
    endloop
  endfacet
  facet normal 0 0 -1
    outer loop
      vertex 18.1357 26.3647 0
      vertex 18.7702 27.1419 0
      vertex 23.1597 22.0823 0
    endloop
  endfacet
  facet normal 0 0 -1
    outer loop
      vertex 18.1357 26.3647 0
      vertex 12.9528 30.3517 0
      vertex 18.7702 27.1419 0
    endloop
  endfacet
  facet normal 0 0 -1
    outer loop
      vertex 12.3398 29.5251 0
      vertex 12.9528 30.3517 0
      vertex 18.1357 26.3647 0
    endloop
  endfacet
  facet normal 0 0 -1
    outer loop
      vertex 12.3398 29.5251 0
      vertex 6.61038 32.3312 0
      vertex 12.9528 30.3517 0
    endloop
  endfacet
  facet normal 0 0 -1
    outer loop
      vertex 6.01873 31.4289 0
      vertex 6.61038 32.3312 0
      vertex 12.3398 29.5251 0
    endloop
  endfacet
  facet normal 0 0 -1
    outer loop
      vertex 6.01873 31.4289 0
      vertex 7.32747e-15 33 0
      vertex 6.61038 32.3312 0
    endloop
  endfacet
  facet normal 0 -0 -1
    outer loop
      vertex 7.32747e-15 33 0
      vertex 6.01873 31.4289 0
      vertex 7.09367e-15 31.9471 0
    endloop
  endfacet
  facet normal 0 0 -1
    outer loop
      vertex 20.735 3.32584 0
      vertex 20.6793 7.50769 0
      vertex 21.6864 3.47845 0
    endloop
  endfacet
  facet normal 0 0 -1
    outer loop
      vertex 19.6485 7.41195 0
      vertex 20.6793 7.50769 0
      vertex 20.735 3.32584 0
    endloop
  endfacet
  facet normal 0 0 -1
    outer loop
      vertex 19.6485 7.41195 0
      vertex 18.6987 11.5913 0
      vertex 20.6793 7.50769 0
    endloop
  endfacet
  facet normal 0 0 -1
    outer loop
      vertex 17.7655 11.1976 0
      vertex 18.6987 11.5913 0
      vertex 19.6485 7.41195 0
    endloop
  endfacet
  facet normal 0 0 -1
    outer loop
      vertex 17.7655 11.1976 0
      vertex 15.9223 15.1816 0
      vertex 18.6987 11.5913 0
    endloop
  endfacet
  facet normal 0 0 -1
    outer loop
      vertex 15.1624 14.5293 0
      vertex 15.9223 15.1816 0
      vertex 17.7655 11.1976 0
    endloop
  endfacet
  facet normal 0 0 -1
    outer loop
      vertex 15.1624 14.5293 0
      vertex 12.4683 18.1257 0
      vertex 15.9223 15.1816 0
    endloop
  endfacet
  facet normal 0 0 -1
    outer loop
      vertex 11.9446 17.2721 0
      vertex 12.4683 18.1257 0
      vertex 15.1624 14.5293 0
    endloop
  endfacet
  facet normal 0 0 -1
    outer loop
      vertex 8.24269 19.3147 0
      vertex 12.4683 18.1257 0
      vertex 11.9446 17.2721 0
    endloop
  endfacet
  facet normal 0 0 -1
    outer loop
      vertex 12.4683 18.1257 0
      vertex 8.24269 19.3147 0
      vertex 8.48361 20.2985 0
    endloop
  endfacet
  facet normal 0 0 -1
    outer loop
      vertex 4.20661 20.5744 0
      vertex 8.48361 20.2985 0
      vertex 8.24269 19.3147 0
    endloop
  endfacet
  facet normal 0 0 -1
    outer loop
      vertex 4.20661 20.5744 0
      vertex 4.13788 21.6074 0
      vertex 8.48361 20.2985 0
    endloop
  endfacet
  facet normal 0 0 -1
    outer loop
      vertex 4.66294e-15 21 0
      vertex 4.13788 21.6074 0
      vertex 4.20661 20.5744 0
    endloop
  endfacet
  facet normal -0 0 -1
    outer loop
      vertex 4.13788 21.6074 0
      vertex 4.66294e-15 21 0
      vertex 4.8769e-15 21.9636 0
    endloop
  endfacet
endsolid OpenSCAD_Model
