solid OpenSCAD_Model
  facet normal 0.073493 0.130174 0.988764
    outer loop
      vertex 1 2.32937 8.619
      vertex 39.3615 0 6.07433
      vertex 39.3615 2.32937 5.76766
    endloop
  endfacet
  facet normal 0.073493 0.130174 0.988764
    outer loop
      vertex 39.3615 0 6.07433
      vertex 1 2.32937 8.619
      vertex 1 0 8.92567
    endloop
  endfacet
  facet normal 0.00970141 -0.991398 0.130521
    outer loop
      vertex 1 -9 -0.0743283
      vertex 39.3615 -8.69333 -0.596301
      vertex 1 -8.69333 2.25504
    endloop
  endfacet
  facet normal 0.00970141 -0.991398 0.130521
    outer loop
      vertex 39.3615 -8.69333 -0.596301
      vertex 1 -9 -0.0743283
      vertex 39.3615 -9 -2.92567
    endloop
  endfacet
  facet normal 0.0452019 0.792542 0.60814
    outer loop
      vertex 39.3615 6.36396 3.43829
      vertex 1 7.79423 4.42567
      vertex 1 6.36396 6.28963
    endloop
  endfacet
  facet normal 0.0452019 0.792542 0.60814
    outer loop
      vertex 1 7.79423 4.42567
      vertex 39.3615 6.36396 3.43829
      vertex 39.3615 7.79423 1.57433
    endloop
  endfacet
  facet normal 0.0588662 0.607707 0.791977
    outer loop
      vertex 1 6.36396 6.28963
      vertex 39.3615 4.5 4.86856
      vertex 39.3615 6.36396 3.43829
    endloop
  endfacet
  facet normal 0.0588662 0.607707 0.791977
    outer loop
      vertex 39.3615 4.5 4.86856
      vertex 1 6.36396 6.28963
      vertex 1 4.5 7.7199
    endloop
  endfacet
  facet normal 0.0284325 0.923507 0.382527
    outer loop
      vertex 39.3615 7.79423 1.57433
      vertex 1 8.69333 2.25504
      vertex 1 7.79423 4.42567
    endloop
  endfacet
  facet normal 0.0284325 0.923507 0.382527
    outer loop
      vertex 1 8.69333 2.25504
      vertex 39.3615 7.79423 1.57433
      vertex 39.3615 8.69333 -0.596301
    endloop
  endfacet
  facet normal 0.0452019 -0.792542 0.60814
    outer loop
      vertex 1 -7.79423 4.42567
      vertex 39.3615 -6.36396 3.43829
      vertex 1 -6.36396 6.28963
    endloop
  endfacet
  facet normal 0.0452019 -0.792542 0.60814
    outer loop
      vertex 39.3615 -6.36396 3.43829
      vertex 1 -7.79423 4.42567
      vertex 39.3615 -7.79423 1.57433
    endloop
  endfacet
  facet normal -1 1.22045e-22 -2.22045e-16
    outer loop
      vertex -4.59755e-16 7.72741 2.07055
      vertex -5.74694e-16 9.65926 2.58819
      vertex 0 10 0
    endloop
  endfacet
  facet normal -1 0 -2.22045e-16
    outer loop
      vertex -4.59755e-16 7.72741 2.07055
      vertex 0 10 0
      vertex 0 8 0
    endloop
  endfacet
  facet normal -1 -2.60983e-22 -2.22043e-16
    outer loop
      vertex -5.74694e-16 9.65926 2.58819
      vertex -4.59755e-16 7.72741 2.07055
      vertex -1.11022e-15 8.66025 5
    endloop
  endfacet
  facet normal -1 9.81161e-22 -2.22044e-16
    outer loop
      vertex -8.88178e-16 6.9282 4
      vertex -1.11022e-15 8.66025 5
      vertex -4.59755e-16 7.72741 2.07055
    endloop
  endfacet
  facet normal -1 1.0577e-21 -2.22044e-16
    outer loop
      vertex -1.11022e-15 8.66025 5
      vertex -8.88178e-16 6.9282 4
      vertex -1.57009e-15 7.07107 7.07107
    endloop
  endfacet
  facet normal -1 -9.20708e-22 -2.22044e-16
    outer loop
      vertex -1.25607e-15 5.65685 5.65685
      vertex -1.57009e-15 7.07107 7.07107
      vertex -8.88178e-16 6.9282 4
    endloop
  endfacet
  facet normal -1 2.91284e-22 -2.22045e-16
    outer loop
      vertex -1.25607e-15 5.65685 5.65685
      vertex -1.92296e-15 5 8.66025
      vertex -1.57009e-15 7.07107 7.07107
    endloop
  endfacet
  facet normal -1 2.2261e-21 -2.22045e-16
    outer loop
      vertex -1.53837e-15 4 6.9282
      vertex -1.92296e-15 5 8.66025
      vertex -1.25607e-15 5.65685 5.65685
    endloop
  endfacet
  facet normal -1 2.20146e-21 -2.22045e-16
    outer loop
      vertex -1.53837e-15 4 6.9282
      vertex -2.14479e-15 2.58819 9.65926
      vertex -1.92296e-15 5 8.66025
    endloop
  endfacet
  facet normal -1 -7.29418e-22 -2.22046e-16
    outer loop
      vertex -1.71583e-15 2.07055 7.72741
      vertex -2.14479e-15 2.58819 9.65926
      vertex -1.53837e-15 4 6.9282
    endloop
  endfacet
  facet normal -1 1.12871e-21 -2.22047e-16
    outer loop
      vertex -1.77636e-15 0 8
      vertex -2.14479e-15 2.58819 9.65926
      vertex -1.71583e-15 2.07055 7.72741
    endloop
  endfacet
  facet normal -1 1.49409e-22 -2.22045e-16
    outer loop
      vertex -1.77636e-15 0 8
      vertex -2.22045e-15 0 10
      vertex -2.14479e-15 2.58819 9.65926
    endloop
  endfacet
  facet normal -1 -1.32982e-21 -2.22045e-16
    outer loop
      vertex -1.71583e-15 -2.07055 7.72741
      vertex -2.22045e-15 0 10
      vertex -1.77636e-15 0 8
    endloop
  endfacet
  facet normal -1 1.14752e-23 -2.22046e-16
    outer loop
      vertex -1.71583e-15 -2.07055 7.72741
      vertex -2.14479e-15 -2.58819 9.65926
      vertex -2.22045e-15 0 10
    endloop
  endfacet
  facet normal -1 7.29418e-22 -2.22046e-16
    outer loop
      vertex -1.53837e-15 -4 6.9282
      vertex -2.14479e-15 -2.58819 9.65926
      vertex -1.71583e-15 -2.07055 7.72741
    endloop
  endfacet
  facet normal -1 -2.20146e-21 -2.22045e-16
    outer loop
      vertex -1.53837e-15 -4 6.9282
      vertex -1.92296e-15 -5 8.66025
      vertex -2.14479e-15 -2.58819 9.65926
    endloop
  endfacet
  facet normal -1 -2.2261e-21 -2.22045e-16
    outer loop
      vertex -1.25607e-15 -5.65685 5.65685
      vertex -1.92296e-15 -5 8.66025
      vertex -1.53837e-15 -4 6.9282
    endloop
  endfacet
  facet normal -1 9.20708e-22 -2.22044e-16
    outer loop
      vertex -1.57009e-15 -7.07107 7.07107
      vertex -1.25607e-15 -5.65685 5.65685
      vertex -8.88178e-16 -6.9282 4
    endloop
  endfacet
  facet normal -1 -2.91284e-22 -2.22045e-16
    outer loop
      vertex -1.25607e-15 -5.65685 5.65685
      vertex -1.57009e-15 -7.07107 7.07107
      vertex -1.92296e-15 -5 8.66025
    endloop
  endfacet
  facet normal -1 -9.81161e-22 -2.22044e-16
    outer loop
      vertex -1.11022e-15 -8.66025 5
      vertex -8.88178e-16 -6.9282 4
      vertex -4.59755e-16 -7.72741 2.07055
    endloop
  endfacet
  facet normal -1 -1.52556e-22 -2.22045e-16
    outer loop
      vertex -5.74694e-16 -9.65926 2.58819
      vertex -4.59755e-16 -7.72741 2.07055
      vertex 0 -8 0
    endloop
  endfacet
  facet normal -1 -1.0577e-21 -2.22044e-16
    outer loop
      vertex -8.88178e-16 -6.9282 4
      vertex -1.11022e-15 -8.66025 5
      vertex -1.57009e-15 -7.07107 7.07107
    endloop
  endfacet
  facet normal -1 2.60983e-22 -2.22043e-16
    outer loop
      vertex -4.59755e-16 -7.72741 2.07055
      vertex -5.74694e-16 -9.65926 2.58819
      vertex -1.11022e-15 -8.66025 5
    endloop
  endfacet
  facet normal -1 0 -2.22045e-16
    outer loop
      vertex -5.74694e-16 -9.65926 2.58819
      vertex 0 -8 0
      vertex 0 -10 0
    endloop
  endfacet
  facet normal 0.068509 0.381783 0.92171
    outer loop
      vertex 1 4.5 7.7199
      vertex 39.3615 2.32937 5.76766
      vertex 39.3615 4.5 4.86856
    endloop
  endfacet
  facet normal 0.068509 0.381783 0.92171
    outer loop
      vertex 39.3615 2.32937 5.76766
      vertex 1 4.5 7.7199
      vertex 1 2.32937 8.619
    endloop
  endfacet
  facet normal 0.00970141 0.991398 0.130521
    outer loop
      vertex 39.3615 8.69333 -0.596301
      vertex 1 9 -0.0743283
      vertex 1 8.69333 2.25504
    endloop
  endfacet
  facet normal 0.00970141 0.991398 0.130521
    outer loop
      vertex 1 9 -0.0743283
      vertex 39.3615 8.69333 -0.596301
      vertex 39.3615 9 -2.92567
    endloop
  endfacet
  facet normal 0.0284325 -0.923507 0.382527
    outer loop
      vertex 1 -8.69333 2.25504
      vertex 39.3615 -7.79423 1.57433
      vertex 1 -7.79423 4.42567
    endloop
  endfacet
  facet normal 0.0284325 -0.923507 0.382527
    outer loop
      vertex 39.3615 -7.79423 1.57433
      vertex 1 -8.69333 2.25504
      vertex 39.3615 -8.69333 -0.596301
    endloop
  endfacet
  facet normal 0.0588662 -0.607707 0.791977
    outer loop
      vertex 1 -4.5 7.7199
      vertex 39.3615 -6.36396 3.43829
      vertex 39.3615 -4.5 4.86856
    endloop
  endfacet
  facet normal 0.0588662 -0.607707 0.791977
    outer loop
      vertex 39.3615 -6.36396 3.43829
      vertex 1 -4.5 7.7199
      vertex 1 -6.36396 6.28963
    endloop
  endfacet
  facet normal 0.073493 -0.130174 0.988764
    outer loop
      vertex 1 0 8.92567
      vertex 39.3615 -2.32937 5.76766
      vertex 39.3615 0 6.07433
    endloop
  endfacet
  facet normal 0.073493 -0.130174 0.988764
    outer loop
      vertex 39.3615 -2.32937 5.76766
      vertex 1 0 8.92567
      vertex 1 -2.32937 8.619
    endloop
  endfacet
  facet normal 0.068509 -0.381783 0.92171
    outer loop
      vertex 1 -2.32937 8.619
      vertex 39.3615 -4.5 4.86856
      vertex 39.3615 -2.32937 5.76766
    endloop
  endfacet
  facet normal 0.068509 -0.381783 0.92171
    outer loop
      vertex 39.3615 -4.5 4.86856
      vertex 1 -2.32937 8.619
      vertex 1 -4.5 7.7199
    endloop
  endfacet
  facet normal -0.0734931 -0.130172 -0.988764
    outer loop
      vertex 40.3615 0 5
      vertex -1.71583e-15 2.07055 7.72741
      vertex 40.3615 2.07055 4.72741
    endloop
  endfacet
  facet normal -0.0734931 -0.130172 -0.988764
    outer loop
      vertex -1.71583e-15 2.07055 7.72741
      vertex 40.3615 0 5
      vertex -1.77636e-15 0 8
    endloop
  endfacet
  facet normal -0.0588662 0.607707 -0.791977
    outer loop
      vertex -1.25607e-15 -5.65685 5.65685
      vertex 40.3615 -4 3.9282
      vertex 40.3615 -5.65685 2.65685
    endloop
  endfacet
  facet normal -0.0588662 0.607707 -0.791977
    outer loop
      vertex 40.3615 -4 3.9282
      vertex -1.25607e-15 -5.65685 5.65685
      vertex -1.53837e-15 -4 6.9282
    endloop
  endfacet
  facet normal -0.045202 -0.792541 -0.60814
    outer loop
      vertex -8.88178e-16 6.9282 4
      vertex 40.3615 5.65685 2.65685
      vertex -1.25607e-15 5.65685 5.65685
    endloop
  endfacet
  facet normal -0.045202 -0.792542 -0.60814
    outer loop
      vertex 40.3615 5.65685 2.65685
      vertex -8.88178e-16 6.9282 4
      vertex 40.3615 6.9282 0.999999
    endloop
  endfacet
  facet normal -0.00970121 -0.991398 -0.130519
    outer loop
      vertex 0 8 0
      vertex 40.3615 7.72741 -0.929448
      vertex -4.59755e-16 7.72741 2.07055
    endloop
  endfacet
  facet normal -0.00970121 -0.991398 -0.130518
    outer loop
      vertex 40.3615 7.72741 -0.929448
      vertex 0 8 0
      vertex 40.3615 8 -3
    endloop
  endfacet
  facet normal -0.0734931 0.130172 -0.988764
    outer loop
      vertex -1.71583e-15 -2.07055 7.72741
      vertex 40.3615 0 5
      vertex 40.3615 -2.07055 4.72741
    endloop
  endfacet
  facet normal -0.0734931 0.130172 -0.988764
    outer loop
      vertex 40.3615 0 5
      vertex -1.71583e-15 -2.07055 7.72741
      vertex -1.77636e-15 0 8
    endloop
  endfacet
  facet normal -0.0588662 -0.607707 -0.791977
    outer loop
      vertex 40.3615 4 3.9282
      vertex -1.25607e-15 5.65685 5.65685
      vertex 40.3615 5.65685 2.65685
    endloop
  endfacet
  facet normal -0.0588662 -0.607707 -0.791977
    outer loop
      vertex -1.25607e-15 5.65685 5.65685
      vertex 40.3615 4 3.9282
      vertex -1.53837e-15 4 6.9282
    endloop
  endfacet
  facet normal -0.0685089 -0.381787 -0.921708
    outer loop
      vertex 40.3615 2.07055 4.72741
      vertex -1.53837e-15 4 6.9282
      vertex 40.3615 4 3.9282
    endloop
  endfacet
  facet normal -0.0685089 -0.381787 -0.921708
    outer loop
      vertex -1.53837e-15 4 6.9282
      vertex 40.3615 2.07055 4.72741
      vertex -1.71583e-15 2.07055 7.72741
    endloop
  endfacet
  facet normal -0.0284329 -0.923505 -0.382531
    outer loop
      vertex -4.59755e-16 7.72741 2.07055
      vertex 40.3615 6.9282 0.999999
      vertex -8.88178e-16 6.9282 4
    endloop
  endfacet
  facet normal -0.0284329 -0.923505 -0.382532
    outer loop
      vertex 40.3615 6.9282 0.999999
      vertex -4.59755e-16 7.72741 2.07055
      vertex 40.3615 7.72741 -0.929448
    endloop
  endfacet
  facet normal -0.045202 0.792541 -0.60814
    outer loop
      vertex 40.3615 -5.65685 2.65685
      vertex -8.88178e-16 -6.9282 4
      vertex -1.25607e-15 -5.65685 5.65685
    endloop
  endfacet
  facet normal -0.045202 0.792541 -0.60814
    outer loop
      vertex -8.88178e-16 -6.9282 4
      vertex 40.3615 -5.65685 2.65685
      vertex 40.3615 -6.9282 1
    endloop
  endfacet
  facet normal -0.00970121 0.991398 -0.130519
    outer loop
      vertex 40.3615 -7.72741 -0.929448
      vertex 0 -8 0
      vertex -4.59755e-16 -7.72741 2.07055
    endloop
  endfacet
  facet normal -0.00970121 0.991398 -0.130518
    outer loop
      vertex 0 -8 0
      vertex 40.3615 -7.72741 -0.929448
      vertex 40.3615 -8 -3
    endloop
  endfacet
  facet normal -0.0685089 0.381787 -0.921708
    outer loop
      vertex -1.53837e-15 -4 6.9282
      vertex 40.3615 -2.07055 4.72741
      vertex 40.3615 -4 3.9282
    endloop
  endfacet
  facet normal -0.0685089 0.381787 -0.921708
    outer loop
      vertex 40.3615 -2.07055 4.72741
      vertex -1.53837e-15 -4 6.9282
      vertex -1.71583e-15 -2.07055 7.72741
    endloop
  endfacet
  facet normal -0.0284329 0.923505 -0.382531
    outer loop
      vertex 40.3615 -6.9282 1
      vertex -4.59755e-16 -7.72741 2.07055
      vertex -8.88178e-16 -6.9282 4
    endloop
  endfacet
  facet normal -0.0284329 0.923505 -0.382531
    outer loop
      vertex -4.59755e-16 -7.72741 2.07055
      vertex 40.3615 -6.9282 1
      vertex 40.3615 -7.72741 -0.929448
    endloop
  endfacet
  facet normal 0.0734948 0.130173 0.988764
    outer loop
      vertex -2.14479e-15 2.58819 9.65926
      vertex 1 0 9.92567
      vertex 1 2.58819 9.58493
    endloop
  endfacet
  facet normal 0.0734948 0.130173 0.988764
    outer loop
      vertex 1 0 9.92567
      vertex -2.14479e-15 2.58819 9.65926
      vertex -2.22045e-15 0 10
    endloop
  endfacet
  facet normal 0.0284335 -0.923505 0.382531
    outer loop
      vertex -5.74694e-16 -9.65926 2.58819
      vertex 1 -8.66025 4.92567
      vertex -1.11022e-15 -8.66025 5
    endloop
  endfacet
  facet normal 0.0284335 -0.923505 0.382531
    outer loop
      vertex 1 -8.66025 4.92567
      vertex -5.74694e-16 -9.65926 2.58819
      vertex 1 -9.65926 2.51386
    endloop
  endfacet
  facet normal 0.00970151 0.991398 0.130519
    outer loop
      vertex 1 9.65926 2.51386
      vertex 0 10 0
      vertex -5.74694e-16 9.65926 2.58819
    endloop
  endfacet
  facet normal 0.00970129 0.991398 0.13052
    outer loop
      vertex 0 10 0
      vertex 1 9.65926 2.51386
      vertex 1 10 -0.0743283
    endloop
  endfacet
  facet normal 0.0685015 0.381783 0.92171
    outer loop
      vertex -1.92296e-15 5 8.66025
      vertex 1 2.58819 9.58493
      vertex 1 5 8.58593
    endloop
  endfacet
  facet normal 0.0685106 0.381786 0.921708
    outer loop
      vertex 1 2.58819 9.58493
      vertex -1.92296e-15 5 8.66025
      vertex -2.14479e-15 2.58819 9.65926
    endloop
  endfacet
  facet normal 0.0734948 -0.130173 0.988764
    outer loop
      vertex 1 0 9.92567
      vertex -2.14479e-15 -2.58819 9.65926
      vertex 1 -2.58819 9.58493
    endloop
  endfacet
  facet normal 0.0734948 -0.130173 0.988764
    outer loop
      vertex -2.14479e-15 -2.58819 9.65926
      vertex 1 0 9.92567
      vertex -2.22045e-15 0 10
    endloop
  endfacet
  facet normal 0.0452028 -0.792544 0.608137
    outer loop
      vertex -1.11022e-15 -8.66025 5
      vertex 1 -7.07107 6.99674
      vertex -1.57009e-15 -7.07107 7.07107
    endloop
  endfacet
  facet normal 0.0452028 -0.792544 0.608137
    outer loop
      vertex 1 -7.07107 6.99674
      vertex -1.11022e-15 -8.66025 5
      vertex 1 -8.66025 4.92567
    endloop
  endfacet
  facet normal 1 0 0
    outer loop
      vertex 1 9.65926 2.51386
      vertex 1 9 -0.0743283
      vertex 1 10 -0.0743283
    endloop
  endfacet
  facet normal 1 0 0
    outer loop
      vertex 1 9.65926 2.51386
      vertex 1 8.69333 2.25504
      vertex 1 9 -0.0743283
    endloop
  endfacet
  facet normal 1 0 0
    outer loop
      vertex 1 8.66025 4.92567
      vertex 1 8.69333 2.25504
      vertex 1 9.65926 2.51386
    endloop
  endfacet
  facet normal 1 0 0
    outer loop
      vertex 1 8.66025 4.92567
      vertex 1 7.79423 4.42567
      vertex 1 8.69333 2.25504
    endloop
  endfacet
  facet normal 1 0 0
    outer loop
      vertex 1 7.07107 6.99674
      vertex 1 7.79423 4.42567
      vertex 1 8.66025 4.92567
    endloop
  endfacet
  facet normal 1 0 0
    outer loop
      vertex 1 7.07107 6.99674
      vertex 1 6.36396 6.28963
      vertex 1 7.79423 4.42567
    endloop
  endfacet
  facet normal 1 0 0
    outer loop
      vertex 1 5 8.58593
      vertex 1 6.36396 6.28963
      vertex 1 7.07107 6.99674
    endloop
  endfacet
  facet normal 1 0 0
    outer loop
      vertex 1 5 8.58593
      vertex 1 4.5 7.7199
      vertex 1 6.36396 6.28963
    endloop
  endfacet
  facet normal 1 0 0
    outer loop
      vertex 1 2.58819 9.58493
      vertex 1 4.5 7.7199
      vertex 1 5 8.58593
    endloop
  endfacet
  facet normal 1 0 0
    outer loop
      vertex 1 2.58819 9.58493
      vertex 1 2.32937 8.619
      vertex 1 4.5 7.7199
    endloop
  endfacet
  facet normal 1 0 0
    outer loop
      vertex 1 0 9.92567
      vertex 1 2.32937 8.619
      vertex 1 2.58819 9.58493
    endloop
  endfacet
  facet normal 1 0 0
    outer loop
      vertex 1 0 9.92567
      vertex 1 0 8.92567
      vertex 1 2.32937 8.619
    endloop
  endfacet
  facet normal 1 0 0
    outer loop
      vertex 1 0 9.92567
      vertex 1 -2.32937 8.619
      vertex 1 0 8.92567
    endloop
  endfacet
  facet normal 1 -0 0
    outer loop
      vertex 1 -2.58819 9.58493
      vertex 1 -2.32937 8.619
      vertex 1 0 9.92567
    endloop
  endfacet
  facet normal 1 0 0
    outer loop
      vertex 1 -2.58819 9.58493
      vertex 1 -4.5 7.7199
      vertex 1 -2.32937 8.619
    endloop
  endfacet
  facet normal 1 -0 0
    outer loop
      vertex 1 -5 8.58593
      vertex 1 -4.5 7.7199
      vertex 1 -2.58819 9.58493
    endloop
  endfacet
  facet normal 1 0 0
    outer loop
      vertex 1 -5 8.58593
      vertex 1 -6.36396 6.28963
      vertex 1 -4.5 7.7199
    endloop
  endfacet
  facet normal 1 -0 0
    outer loop
      vertex 1 -7.07107 6.99674
      vertex 1 -6.36396 6.28963
      vertex 1 -5 8.58593
    endloop
  endfacet
  facet normal 1 0 0
    outer loop
      vertex 1 -7.07107 6.99674
      vertex 1 -7.79423 4.42567
      vertex 1 -6.36396 6.28963
    endloop
  endfacet
  facet normal 1 -0 0
    outer loop
      vertex 1 -8.66025 4.92567
      vertex 1 -7.79423 4.42567
      vertex 1 -7.07107 6.99674
    endloop
  endfacet
  facet normal 1 0 0
    outer loop
      vertex 1 -8.66025 4.92567
      vertex 1 -8.69333 2.25504
      vertex 1 -7.79423 4.42567
    endloop
  endfacet
  facet normal 1 -0 0
    outer loop
      vertex 1 -9.65926 2.51386
      vertex 1 -8.69333 2.25504
      vertex 1 -8.66025 4.92567
    endloop
  endfacet
  facet normal 1 0 0
    outer loop
      vertex 1 -8.69333 2.25504
      vertex 1 -9.65926 2.51386
      vertex 1 -9 -0.0743283
    endloop
  endfacet
  facet normal 1 0 0
    outer loop
      vertex 1 -9 -0.0743283
      vertex 1 -9.65926 2.51386
      vertex 1 -10 -0.0743283
    endloop
  endfacet
  facet normal 0.0588677 0.607706 0.791977
    outer loop
      vertex -1.57009e-15 7.07107 7.07107
      vertex 1 5 8.58593
      vertex 1 7.07107 6.99674
    endloop
  endfacet
  facet normal 0.0588599 0.607704 0.791979
    outer loop
      vertex 1 5 8.58593
      vertex -1.57009e-15 7.07107 7.07107
      vertex -1.92296e-15 5 8.66025
    endloop
  endfacet
  facet normal 0.0284335 0.923505 0.382531
    outer loop
      vertex 1 8.66025 4.92567
      vertex -5.74694e-16 9.65926 2.58819
      vertex -1.11022e-15 8.66025 5
    endloop
  endfacet
  facet normal 0.0284335 0.923505 0.382531
    outer loop
      vertex -5.74694e-16 9.65926 2.58819
      vertex 1 8.66025 4.92567
      vertex 1 9.65926 2.51386
    endloop
  endfacet
  facet normal 0.0452028 0.792544 0.608137
    outer loop
      vertex 1 7.07107 6.99674
      vertex -1.11022e-15 8.66025 5
      vertex -1.57009e-15 7.07107 7.07107
    endloop
  endfacet
  facet normal 0.0452028 0.792544 0.608137
    outer loop
      vertex -1.11022e-15 8.66025 5
      vertex 1 7.07107 6.99674
      vertex 1 8.66025 4.92567
    endloop
  endfacet
  facet normal 0.00970151 -0.991398 0.130519
    outer loop
      vertex 0 -10 0
      vertex 1 -9.65926 2.51386
      vertex -5.74694e-16 -9.65926 2.58819
    endloop
  endfacet
  facet normal 0.00970129 -0.991398 0.13052
    outer loop
      vertex 1 -9.65926 2.51386
      vertex 0 -10 0
      vertex 1 -10 -0.0743283
    endloop
  endfacet
  facet normal 0.0685015 -0.381783 0.92171
    outer loop
      vertex 1 -2.58819 9.58493
      vertex -1.92296e-15 -5 8.66025
      vertex 1 -5 8.58593
    endloop
  endfacet
  facet normal 0.0685106 -0.381786 0.921708
    outer loop
      vertex -1.92296e-15 -5 8.66025
      vertex 1 -2.58819 9.58493
      vertex -2.14479e-15 -2.58819 9.65926
    endloop
  endfacet
  facet normal 0.0588677 -0.607706 0.791977
    outer loop
      vertex 1 -5 8.58593
      vertex -1.57009e-15 -7.07107 7.07107
      vertex 1 -7.07107 6.99674
    endloop
  endfacet
  facet normal 0.0588599 -0.607704 0.791979
    outer loop
      vertex -1.57009e-15 -7.07107 7.07107
      vertex 1 -5 8.58593
      vertex -1.92296e-15 -5 8.66025
    endloop
  endfacet
  facet normal 0.0734948 0.130173 0.988764
    outer loop
      vertex 39.3615 2.58819 6.73359
      vertex 40.3615 0 7
      vertex 40.3615 2.58819 6.65926
    endloop
  endfacet
  facet normal 0.0734948 0.130173 0.988764
    outer loop
      vertex 40.3615 0 7
      vertex 39.3615 2.58819 6.73359
      vertex 39.3615 0 7.07433
    endloop
  endfacet
  facet normal 0.00970125 -0.991398 0.13052
    outer loop
      vertex 39.3615 -10 -2.92567
      vertex 40.3615 -9.65926 -0.41181
      vertex 39.3615 -9.65926 -0.337482
    endloop
  endfacet
  facet normal 0.00970151 -0.991398 0.130519
    outer loop
      vertex 40.3615 -9.65926 -0.41181
      vertex 39.3615 -10 -2.92567
      vertex 40.3615 -10 -3
    endloop
  endfacet
  facet normal -1 0 0
    outer loop
      vertex 39.3615 9 -2.92567
      vertex 39.3615 9.65926 -0.337482
      vertex 39.3615 10 -2.92567
    endloop
  endfacet
  facet normal -1 0 0
    outer loop
      vertex 39.3615 8.69333 -0.596301
      vertex 39.3615 9.65926 -0.337482
      vertex 39.3615 9 -2.92567
    endloop
  endfacet
  facet normal -1 0 0
    outer loop
      vertex 39.3615 8.69333 -0.596301
      vertex 39.3615 8.66025 2.07433
      vertex 39.3615 9.65926 -0.337482
    endloop
  endfacet
  facet normal -1 0 0
    outer loop
      vertex 39.3615 7.79423 1.57433
      vertex 39.3615 8.66025 2.07433
      vertex 39.3615 8.69333 -0.596301
    endloop
  endfacet
  facet normal -1 0 0
    outer loop
      vertex 39.3615 7.79423 1.57433
      vertex 39.3615 7.07107 4.1454
      vertex 39.3615 8.66025 2.07433
    endloop
  endfacet
  facet normal -1 0 0
    outer loop
      vertex 39.3615 6.36396 3.43829
      vertex 39.3615 7.07107 4.1454
      vertex 39.3615 7.79423 1.57433
    endloop
  endfacet
  facet normal -1 0 0
    outer loop
      vertex 39.3615 6.36396 3.43829
      vertex 39.3615 5 5.73458
      vertex 39.3615 7.07107 4.1454
    endloop
  endfacet
  facet normal -1 0 0
    outer loop
      vertex 39.3615 4.5 4.86856
      vertex 39.3615 5 5.73458
      vertex 39.3615 6.36396 3.43829
    endloop
  endfacet
  facet normal -1 0 0
    outer loop
      vertex 39.3615 4.5 4.86856
      vertex 39.3615 2.58819 6.73359
      vertex 39.3615 5 5.73458
    endloop
  endfacet
  facet normal -1 0 0
    outer loop
      vertex 39.3615 2.32937 5.76766
      vertex 39.3615 2.58819 6.73359
      vertex 39.3615 4.5 4.86856
    endloop
  endfacet
  facet normal -1 0 0
    outer loop
      vertex 39.3615 0 6.07433
      vertex 39.3615 2.58819 6.73359
      vertex 39.3615 2.32937 5.76766
    endloop
  endfacet
  facet normal -1 0 0
    outer loop
      vertex 39.3615 0 6.07433
      vertex 39.3615 0 7.07433
      vertex 39.3615 2.58819 6.73359
    endloop
  endfacet
  facet normal -1 0 0
    outer loop
      vertex 39.3615 -2.32937 5.76766
      vertex 39.3615 0 7.07433
      vertex 39.3615 0 6.07433
    endloop
  endfacet
  facet normal -1 0 0
    outer loop
      vertex 39.3615 -2.32937 5.76766
      vertex 39.3615 -2.58819 6.73359
      vertex 39.3615 0 7.07433
    endloop
  endfacet
  facet normal -1 0 0
    outer loop
      vertex 39.3615 -4.5 4.86856
      vertex 39.3615 -2.58819 6.73359
      vertex 39.3615 -2.32937 5.76766
    endloop
  endfacet
  facet normal -1 0 0
    outer loop
      vertex 39.3615 -4.5 4.86856
      vertex 39.3615 -5 5.73458
      vertex 39.3615 -2.58819 6.73359
    endloop
  endfacet
  facet normal -1 0 0
    outer loop
      vertex 39.3615 -6.36396 3.43829
      vertex 39.3615 -5 5.73458
      vertex 39.3615 -4.5 4.86856
    endloop
  endfacet
  facet normal -1 0 0
    outer loop
      vertex 39.3615 -6.36396 3.43829
      vertex 39.3615 -7.07107 4.1454
      vertex 39.3615 -5 5.73458
    endloop
  endfacet
  facet normal -1 0 0
    outer loop
      vertex 39.3615 -7.79423 1.57433
      vertex 39.3615 -7.07107 4.1454
      vertex 39.3615 -6.36396 3.43829
    endloop
  endfacet
  facet normal -1 0 0
    outer loop
      vertex 39.3615 -7.79423 1.57433
      vertex 39.3615 -8.66025 2.07433
      vertex 39.3615 -7.07107 4.1454
    endloop
  endfacet
  facet normal -1 0 0
    outer loop
      vertex 39.3615 -8.69333 -0.596301
      vertex 39.3615 -8.66025 2.07433
      vertex 39.3615 -7.79423 1.57433
    endloop
  endfacet
  facet normal -1 0 0
    outer loop
      vertex 39.3615 -9.65926 -0.337482
      vertex 39.3615 -8.69333 -0.596301
      vertex 39.3615 -9 -2.92567
    endloop
  endfacet
  facet normal -1 0 0
    outer loop
      vertex 39.3615 -8.69333 -0.596301
      vertex 39.3615 -9.65926 -0.337482
      vertex 39.3615 -8.66025 2.07433
    endloop
  endfacet
  facet normal -1 0 -0
    outer loop
      vertex 39.3615 -9.65926 -0.337482
      vertex 39.3615 -9 -2.92567
      vertex 39.3615 -10 -2.92567
    endloop
  endfacet
  facet normal 0.0452028 0.792544 0.608137
    outer loop
      vertex 40.3615 7.07107 4.07107
      vertex 39.3615 8.66025 2.07433
      vertex 39.3615 7.07107 4.1454
    endloop
  endfacet
  facet normal 0.0452028 0.792544 0.608137
    outer loop
      vertex 39.3615 8.66025 2.07433
      vertex 40.3615 7.07107 4.07107
      vertex 40.3615 8.66025 2
    endloop
  endfacet
  facet normal 1 0 0
    outer loop
      vertex 40.3615 7.72741 -0.929448
      vertex 40.3615 9.65926 -0.41181
      vertex 40.3615 8.66025 2
    endloop
  endfacet
  facet normal 1 0 0
    outer loop
      vertex 40.3615 9.65926 -0.41181
      vertex 40.3615 7.72741 -0.929448
      vertex 40.3615 10 -3
    endloop
  endfacet
  facet normal 1 0 0
    outer loop
      vertex 40.3615 10 -3
      vertex 40.3615 7.72741 -0.929448
      vertex 40.3615 8 -3
    endloop
  endfacet
  facet normal 1 0 0
    outer loop
      vertex 40.3615 6.9282 0.999999
      vertex 40.3615 8.66025 2
      vertex 40.3615 7.07107 4.07107
    endloop
  endfacet
  facet normal 1 0 0
    outer loop
      vertex 40.3615 8.66025 2
      vertex 40.3615 6.9282 0.999999
      vertex 40.3615 7.72741 -0.929448
    endloop
  endfacet
  facet normal 1 0 0
    outer loop
      vertex 40.3615 7.07107 4.07107
      vertex 40.3615 5.65685 2.65685
      vertex 40.3615 6.9282 0.999999
    endloop
  endfacet
  facet normal 1 0 0
    outer loop
      vertex 40.3615 5 5.66025
      vertex 40.3615 5.65685 2.65685
      vertex 40.3615 7.07107 4.07107
    endloop
  endfacet
  facet normal 1 0 0
    outer loop
      vertex 40.3615 5 5.66025
      vertex 40.3615 4 3.9282
      vertex 40.3615 5.65685 2.65685
    endloop
  endfacet
  facet normal 1 0 0
    outer loop
      vertex 40.3615 2.58819 6.65926
      vertex 40.3615 4 3.9282
      vertex 40.3615 5 5.66025
    endloop
  endfacet
  facet normal 1 0 0
    outer loop
      vertex 40.3615 2.58819 6.65926
      vertex 40.3615 2.07055 4.72741
      vertex 40.3615 4 3.9282
    endloop
  endfacet
  facet normal 1 0 0
    outer loop
      vertex 40.3615 0 7
      vertex 40.3615 2.07055 4.72741
      vertex 40.3615 2.58819 6.65926
    endloop
  endfacet
  facet normal 1 0 0
    outer loop
      vertex 40.3615 0 7
      vertex 40.3615 0 5
      vertex 40.3615 2.07055 4.72741
    endloop
  endfacet
  facet normal 1 0 0
    outer loop
      vertex 40.3615 0 7
      vertex 40.3615 -2.07055 4.72741
      vertex 40.3615 0 5
    endloop
  endfacet
  facet normal 1 -0 0
    outer loop
      vertex 40.3615 -2.58819 6.65926
      vertex 40.3615 -2.07055 4.72741
      vertex 40.3615 0 7
    endloop
  endfacet
  facet normal 1 0 0
    outer loop
      vertex 40.3615 -2.58819 6.65926
      vertex 40.3615 -4 3.9282
      vertex 40.3615 -2.07055 4.72741
    endloop
  endfacet
  facet normal 1 -0 0
    outer loop
      vertex 40.3615 -5 5.66025
      vertex 40.3615 -4 3.9282
      vertex 40.3615 -2.58819 6.65926
    endloop
  endfacet
  facet normal 1 0 0
    outer loop
      vertex 40.3615 -5 5.66025
      vertex 40.3615 -5.65685 2.65685
      vertex 40.3615 -4 3.9282
    endloop
  endfacet
  facet normal 1 -0 0
    outer loop
      vertex 40.3615 -7.07107 4.07107
      vertex 40.3615 -5.65685 2.65685
      vertex 40.3615 -5 5.66025
    endloop
  endfacet
  facet normal 1 0 0
    outer loop
      vertex 40.3615 -5.65685 2.65685
      vertex 40.3615 -7.07107 4.07107
      vertex 40.3615 -6.9282 1
    endloop
  endfacet
  facet normal 1 -0 0
    outer loop
      vertex 40.3615 -8.66025 2
      vertex 40.3615 -6.9282 1
      vertex 40.3615 -7.07107 4.07107
    endloop
  endfacet
  facet normal 1 0 0
    outer loop
      vertex 40.3615 -6.9282 1
      vertex 40.3615 -8.66025 2
      vertex 40.3615 -7.72741 -0.929448
    endloop
  endfacet
  facet normal 1 -0 0
    outer loop
      vertex 40.3615 -9.65926 -0.41181
      vertex 40.3615 -7.72741 -0.929448
      vertex 40.3615 -8.66025 2
    endloop
  endfacet
  facet normal 1 0 0
    outer loop
      vertex 40.3615 -7.72741 -0.929448
      vertex 40.3615 -9.65926 -0.41181
      vertex 40.3615 -8 -3
    endloop
  endfacet
  facet normal 1 0 0
    outer loop
      vertex 40.3615 -8 -3
      vertex 40.3615 -9.65926 -0.41181
      vertex 40.3615 -10 -3
    endloop
  endfacet
  facet normal 0.00970125 0.991398 0.13052
    outer loop
      vertex 40.3615 9.65926 -0.41181
      vertex 39.3615 10 -2.92567
      vertex 39.3615 9.65926 -0.337482
    endloop
  endfacet
  facet normal 0.00970151 0.991398 0.130519
    outer loop
      vertex 39.3615 10 -2.92567
      vertex 40.3615 9.65926 -0.41181
      vertex 40.3615 10 -3
    endloop
  endfacet
  facet normal 0.0452028 -0.792544 0.608137
    outer loop
      vertex 39.3615 -8.66025 2.07433
      vertex 40.3615 -7.07107 4.07107
      vertex 39.3615 -7.07107 4.1454
    endloop
  endfacet
  facet normal 0.0452028 -0.792544 0.608137
    outer loop
      vertex 40.3615 -7.07107 4.07107
      vertex 39.3615 -8.66025 2.07433
      vertex 40.3615 -8.66025 2
    endloop
  endfacet
  facet normal 0.0734948 -0.130173 0.988764
    outer loop
      vertex 39.3615 0 7.07433
      vertex 40.3615 -2.58819 6.65926
      vertex 40.3615 0 7
    endloop
  endfacet
  facet normal 0.0734948 -0.130173 0.988764
    outer loop
      vertex 40.3615 -2.58819 6.65926
      vertex 39.3615 0 7.07433
      vertex 39.3615 -2.58819 6.73359
    endloop
  endfacet
  facet normal 0.0588678 0.607704 0.791979
    outer loop
      vertex 39.3615 7.07107 4.1454
      vertex 40.3615 5 5.66025
      vertex 40.3615 7.07107 4.07107
    endloop
  endfacet
  facet normal 0.0588678 0.607704 0.791979
    outer loop
      vertex 40.3615 5 5.66025
      vertex 39.3615 7.07107 4.1454
      vertex 39.3615 5 5.73458
    endloop
  endfacet
  facet normal 0.0685106 0.381786 0.921708
    outer loop
      vertex 39.3615 5 5.73458
      vertex 40.3615 2.58819 6.65926
      vertex 40.3615 5 5.66025
    endloop
  endfacet
  facet normal 0.0685106 0.381786 0.921708
    outer loop
      vertex 40.3615 2.58819 6.65926
      vertex 39.3615 5 5.73458
      vertex 39.3615 2.58819 6.73359
    endloop
  endfacet
  facet normal 0.0284335 0.923505 0.38253
    outer loop
      vertex 40.3615 8.66025 2
      vertex 39.3615 9.65926 -0.337482
      vertex 39.3615 8.66025 2.07433
    endloop
  endfacet
  facet normal 0.0284327 0.923505 0.382531
    outer loop
      vertex 39.3615 9.65926 -0.337482
      vertex 40.3615 8.66025 2
      vertex 40.3615 9.65926 -0.41181
    endloop
  endfacet
  facet normal 0.0284335 -0.923505 0.38253
    outer loop
      vertex 39.3615 -9.65926 -0.337482
      vertex 40.3615 -8.66025 2
      vertex 39.3615 -8.66025 2.07433
    endloop
  endfacet
  facet normal 0.0284327 -0.923505 0.382531
    outer loop
      vertex 40.3615 -8.66025 2
      vertex 39.3615 -9.65926 -0.337482
      vertex 40.3615 -9.65926 -0.41181
    endloop
  endfacet
  facet normal 0.0685106 -0.381786 0.921708
    outer loop
      vertex 39.3615 -2.58819 6.73359
      vertex 40.3615 -5 5.66025
      vertex 40.3615 -2.58819 6.65926
    endloop
  endfacet
  facet normal 0.0685106 -0.381786 0.921708
    outer loop
      vertex 40.3615 -5 5.66025
      vertex 39.3615 -2.58819 6.73359
      vertex 39.3615 -5 5.73458
    endloop
  endfacet
  facet normal 0.0588678 -0.607704 0.791979
    outer loop
      vertex 39.3615 -5 5.73458
      vertex 40.3615 -7.07107 4.07107
      vertex 40.3615 -5 5.66025
    endloop
  endfacet
  facet normal 0.0588678 -0.607704 0.791979
    outer loop
      vertex 40.3615 -7.07107 4.07107
      vertex 39.3615 -5 5.73458
      vertex 39.3615 -7.07107 4.1454
    endloop
  endfacet
  facet normal -0.0741255 0 -0.997249
    outer loop
      vertex 40.3615 8 -3
      vertex 39.3615 9 -2.92567
      vertex 40.3615 10 -3
    endloop
  endfacet
  facet normal -0.0741237 1.7832e-06 -0.997249
    outer loop
      vertex 40.3615 8 -3
      vertex 1 9 -0.0743283
      vertex 39.3615 9 -2.92567
    endloop
  endfacet
  facet normal -0.0741238 -4.15204e-08 -0.997249
    outer loop
      vertex 0 8 0
      vertex 1 9 -0.0743283
      vertex 40.3615 8 -3
    endloop
  endfacet
  facet normal -0.0741238 -0 -0.997249
    outer loop
      vertex 0 10 0
      vertex 1 9 -0.0743283
      vertex 0 8 0
    endloop
  endfacet
  facet normal -0.0741238 0 -0.997249
    outer loop
      vertex 1 9 -0.0743283
      vertex 0 10 0
      vertex 1 10 -0.0743283
    endloop
  endfacet
  facet normal -0.0741255 0 -0.997249
    outer loop
      vertex 40.3615 10 -3
      vertex 39.3615 9 -2.92567
      vertex 39.3615 10 -2.92567
    endloop
  endfacet
  facet normal -0.0741238 0 -0.997249
    outer loop
      vertex 1 -10 -0.0743283
      vertex 0 -10 0
      vertex 1 -9 -0.0743283
    endloop
  endfacet
  facet normal -0.0741255 -0 -0.997249
    outer loop
      vertex 39.3615 -9 -2.92567
      vertex 40.3615 -10 -3
      vertex 39.3615 -10 -2.92567
    endloop
  endfacet
  facet normal -0.0741255 0 -0.997249
    outer loop
      vertex 40.3615 -10 -3
      vertex 39.3615 -9 -2.92567
      vertex 40.3615 -8 -3
    endloop
  endfacet
  facet normal -0.0741237 -1.7832e-06 -0.997249
    outer loop
      vertex 1 -9 -0.0743283
      vertex 40.3615 -8 -3
      vertex 39.3615 -9 -2.92567
    endloop
  endfacet
  facet normal -0.0741238 4.15204e-08 -0.997249
    outer loop
      vertex 1 -9 -0.0743283
      vertex 0 -8 0
      vertex 40.3615 -8 -3
    endloop
  endfacet
  facet normal -0.0741238 -0 -0.997249
    outer loop
      vertex 0 -8 0
      vertex 1 -9 -0.0743283
      vertex 0 -10 0
    endloop
  endfacet
endsolid OpenSCAD_Model
