solid OpenSCAD_Model
  facet normal -1 2.22048e-16 4.26999e-21
    outer loop
      vertex 4.21016e-15 18.9609 0.0414651
      vertex 4.4182e-15 19.8978 0.776457
      vertex 4.44089e-15 20 0
    endloop
  endfacet
  facet normal -1 2.22012e-16 1.12878e-19
    outer loop
      vertex 4.1927e-15 18.8822 0.556527
      vertex 4.4182e-15 19.8978 0.776457
      vertex 4.19627e-15 18.8983 0.517637
    endloop
  endfacet
  facet normal -1 2.22037e-16 -2.65244e-19
    outer loop
      vertex 4.21016e-15 18.9609 0.0414651
      vertex 4.44089e-15 20 0
      vertex 4.21137e-15 18.9663 0
    endloop
  endfacet
  facet normal -1 2.22036e-16 1.9838e-20
    outer loop
      vertex 4.4182e-15 19.8978 0.776457
      vertex 4.21016e-15 18.9609 0.0414651
      vertex 4.19627e-15 18.8983 0.517637
    endloop
  endfacet
  facet normal -1 2.22038e-16 -7.28074e-21
    outer loop
      vertex 4.4182e-15 19.8978 0.776457
      vertex 4.1927e-15 18.8822 0.556527
      vertex 4.35165e-15 19.5981 1.5
    endloop
  endfacet
  facet normal -1 2.22071e-16 -3.24477e-20
    outer loop
      vertex 4.15198e-15 18.6989 0.999999
      vertex 4.35165e-15 19.5981 1.5
      vertex 4.1927e-15 18.8822 0.556527
    endloop
  endfacet
  facet normal -1 2.21833e-16 3.95638e-19
    outer loop
      vertex 4.14627e-15 18.6731 1.03359
      vertex 4.35165e-15 19.5981 1.5
      vertex 4.15198e-15 18.6989 0.999999
    endloop
  endfacet
  facet normal -1 2.22029e-16 5.87626e-21
    outer loop
      vertex 4.35165e-15 19.5981 1.5
      vertex 4.14627e-15 18.6731 1.03359
      vertex 4.24579e-15 19.1213 2.12132
    endloop
  endfacet
  facet normal -1 2.22076e-16 -1.30991e-20
    outer loop
      vertex 4.08153e-15 18.3816 1.41421
      vertex 4.24579e-15 19.1213 2.12132
      vertex 4.14627e-15 18.6731 1.03359
    endloop
  endfacet
  facet normal -1 2.22005e-16 6.06009e-20
    outer loop
      vertex 4.07405e-15 18.3479 1.44013
      vertex 4.24579e-15 19.1213 2.12132
      vertex 4.08153e-15 18.3816 1.41421
    endloop
  endfacet
  facet normal -1 2.22054e-16 4.79576e-21
    outer loop
      vertex 4.24579e-15 19.1213 2.12132
      vertex 4.07405e-15 18.3479 1.44013
      vertex 4.10783e-15 18.5 2.59808
    endloop
  endfacet
  facet normal -1 2.22043e-16 6.30124e-21
    outer loop
      vertex 3.98972e-15 17.9681 1.73205
      vertex 4.10783e-15 18.5 2.59808
      vertex 4.07405e-15 18.3479 1.44013
    endloop
  endfacet
  facet normal -1 2.22075e-16 -1.38008e-20
    outer loop
      vertex 3.98097e-15 17.9287 1.74841
      vertex 4.10783e-15 18.5 2.59808
      vertex 3.98972e-15 17.9681 1.73205
    endloop
  endfacet
  facet normal -1 2.22058e-16 -2.35128e-21
    outer loop
      vertex 3.98097e-15 17.9287 1.74841
      vertex 3.94717e-15 17.7765 2.89778
      vertex 4.10783e-15 18.5 2.59808
    endloop
  endfacet
  facet normal -1 2.22029e-16 -6.30548e-21
    outer loop
      vertex 3.88281e-15 17.4866 1.93185
      vertex 3.94717e-15 17.7765 2.89778
      vertex 3.98097e-15 17.9287 1.74841
    endloop
  endfacet
  facet normal -1 2.22164e-16 -4.68339e-20
    outer loop
      vertex 3.87339e-15 17.4442 1.93744
      vertex 3.94717e-15 17.7765 2.89778
      vertex 3.88281e-15 17.4866 1.93185
    endloop
  endfacet
  facet normal -1 2.22034e-16 -2.14577e-21
    outer loop
      vertex 3.87339e-15 17.4442 1.93744
      vertex 3.77476e-15 17 3
      vertex 3.94717e-15 17.7765 2.89778
    endloop
  endfacet
  facet normal -1 2.22054e-16 6.1636e-21
    outer loop
      vertex 3.76807e-15 16.9699 2
      vertex 3.77476e-15 17 3
      vertex 3.87339e-15 17.4442 1.93744
    endloop
  endfacet
  facet normal -1 2.21645e-16 1.84969e-20
    outer loop
      vertex 3.75865e-15 16.9274 1.9944
      vertex 3.77476e-15 17 3
      vertex 3.76807e-15 16.9699 2
    endloop
  endfacet
  facet normal -1 2.22079e-16 -5.96945e-22
    outer loop
      vertex 3.60235e-15 16.2236 2.89778
      vertex 3.75865e-15 16.9274 1.9944
      vertex 3.65334e-15 16.4532 1.93185
    endloop
  endfacet
  facet normal -1 2.22261e-16 4.25361e-20
    outer loop
      vertex 3.60235e-15 16.2236 2.89778
      vertex 3.65334e-15 16.4532 1.93185
      vertex 3.64456e-15 16.4137 1.91546
    endloop
  endfacet
  facet normal -1 2.22065e-16 -1.18475e-20
    outer loop
      vertex 3.75865e-15 16.9274 1.9944
      vertex 3.60235e-15 16.2236 2.89778
      vertex 3.77476e-15 17 3
    endloop
  endfacet
  facet normal -1 2.22034e-16 4.21479e-21
    outer loop
      vertex 3.44169e-15 15.5 2.59808
      vertex 3.64456e-15 16.4137 1.91546
      vertex 3.54642e-15 15.9717 1.73205
    endloop
  endfacet
  facet normal -1 2.21679e-16 -1.8932e-19
    outer loop
      vertex 3.44169e-15 15.5 2.59808
      vertex 3.54642e-15 15.9717 1.73205
      vertex 3.53891e-15 15.9378 1.70605
    endloop
  endfacet
  facet normal -1 2.22063e-16 1.67165e-20
    outer loop
      vertex 3.30373e-15 14.8787 2.12132
      vertex 3.53891e-15 15.9378 1.70605
      vertex 3.45461e-15 15.5582 1.41421
    endloop
  endfacet
  facet normal -1 2.22067e-16 2.0198e-20
    outer loop
      vertex 3.30373e-15 14.8787 2.12132
      vertex 3.45461e-15 15.5582 1.41421
      vertex 3.44888e-15 15.5324 1.38051
    endloop
  endfacet
  facet normal -1 2.2203e-16 -2.20115e-21
    outer loop
      vertex 3.64456e-15 16.4137 1.91546
      vertex 3.44169e-15 15.5 2.59808
      vertex 3.60235e-15 16.2236 2.89778
    endloop
  endfacet
  facet normal -1 2.22034e-16 -7.43012e-21
    outer loop
      vertex 3.19787e-15 14.4019 1.5
      vertex 3.44888e-15 15.5324 1.38051
      vertex 3.38416e-15 15.2409 0.999999
    endloop
  endfacet
  facet normal -1 2.22102e-16 1.0676e-19
    outer loop
      vertex 3.19787e-15 14.4019 1.5
      vertex 3.38416e-15 15.2409 0.999999
      vertex 3.38058e-15 15.2248 0.961018
    endloop
  endfacet
  facet normal -1 2.22034e-16 2.51946e-20
    outer loop
      vertex 3.13132e-15 14.1022 0.776457
      vertex 3.38058e-15 15.2248 0.961018
      vertex 3.33987e-15 15.0415 0.517637
    endloop
  endfacet
  facet normal -1 2.22054e-16 -5.10916e-21
    outer loop
      vertex 3.53891e-15 15.9378 1.70605
      vertex 3.30373e-15 14.8787 2.12132
      vertex 3.44169e-15 15.5 2.59808
    endloop
  endfacet
  facet normal -1 2.21956e-16 -2.59173e-19
    outer loop
      vertex 3.13132e-15 14.1022 0.776457
      vertex 3.33987e-15 15.0415 0.517637
      vertex 3.33866e-15 15.036 0.476136
    endloop
  endfacet
  facet normal -1 2.22046e-16 -2.12268e-20
    outer loop
      vertex 3.10863e-15 14 0
      vertex 3.33866e-15 15.036 0.476136
      vertex 3.32477e-15 14.9734 0
    endloop
  endfacet
  facet normal -1 2.22034e-16 -9.00477e-21
    outer loop
      vertex 3.44888e-15 15.5324 1.38051
      vertex 3.19787e-15 14.4019 1.5
      vertex 3.30373e-15 14.8787 2.12132
    endloop
  endfacet
  facet normal -1 2.22037e-16 7.67304e-21
    outer loop
      vertex 3.38058e-15 15.2248 0.961018
      vertex 3.13132e-15 14.1022 0.776457
      vertex 3.19787e-15 14.4019 1.5
    endloop
  endfacet
  facet normal -1 2.22038e-16 -2.94542e-21
    outer loop
      vertex 3.33866e-15 15.036 0.476136
      vertex 3.10863e-15 14 0
      vertex 3.13132e-15 14.1022 0.776457
    endloop
  endfacet
  facet normal 0.282085 -0.95939 2.94965e-05
    outer loop
      vertex 19.1884 5.63963 0
      vertex 19.0903 5.61081 0.776457
      vertex 18.8028 5.5263 1.5
    endloop
  endfacet
  facet normal 0.281959 -0.959426 -3.31354e-05
    outer loop
      vertex 18.3454 5.39186 2.12132
      vertex 17.7493 5.21666 2.59808
      vertex 16.3101 4.79369 3
    endloop
  endfacet
  facet normal 0.282002 -0.959414 6.27836e-06
    outer loop
      vertex 19.1884 5.63963 0
      vertex 18.8028 5.5263 1.5
      vertex 18.3454 5.39186 2.12132
    endloop
  endfacet
  facet normal 0.281944 -0.959431 -8.9458e-05
    outer loop
      vertex 17.7493 5.21666 2.59808
      vertex 17.0551 5.01263 2.89778
      vertex 16.3101 4.79369 3
    endloop
  endfacet
  facet normal 0.282013 -0.959411 -8.2802e-05
    outer loop
      vertex 16.3101 4.79369 3
      vertex 15.5652 4.57474 2.89778
      vertex 14.871 4.37071 2.59808
    endloop
  endfacet
  facet normal 0.281996 -0.959416 -1.73138e-05
    outer loop
      vertex 16.3101 4.79369 3
      vertex 14.871 4.37071 2.59808
      vertex 14.2749 4.19551 2.12132
    endloop
  endfacet
  facet normal 0.281981 -0.95942 2.15051e-05
    outer loop
      vertex 18.3454 5.39186 2.12132
      vertex 16.3101 4.79369 3
      vertex 14.2749 4.19551 2.12132
    endloop
  endfacet
  facet normal 0.28196 -0.959426 1.18349e-05
    outer loop
      vertex 14.2749 4.19551 2.12132
      vertex 13.8175 4.06108 1.5
      vertex 13.4319 3.94774 0
    endloop
  endfacet
  facet normal 0.281971 -0.959423 6.816e-06
    outer loop
      vertex 14.007 4.11676 0
      vertex 14.2749 4.19551 2.12132
      vertex 13.4319 3.94774 0
    endloop
  endfacet
  facet normal 0.282043 -0.959402 -1.13804e-05
    outer loop
      vertex 13.8175 4.06108 1.5
      vertex 13.53 3.97657 0.776457
      vertex 13.4319 3.94774 0
    endloop
  endfacet
  facet normal 0.281981 -0.95942 -0.000107699
    outer loop
      vertex 14.2749 4.19551 2.12132
      vertex 16.2812 4.78519 2
      vertex 18.3454 5.39186 2.12132
    endloop
  endfacet
  facet normal 0.282 -0.959414 0.000237889
    outer loop
      vertex 14.2749 4.19551 2.12132
      vertex 15.824 4.65079 1.93714
      vertex 16.2812 4.78519 2
    endloop
  endfacet
  facet normal 0.281812 -0.959468 -0.00147194
    outer loop
      vertex 14.2749 4.19551 2.12132
      vertex 15.7855 4.63949 1.93185
      vertex 15.824 4.65079 1.93714
    endloop
  endfacet
  facet normal 0.28198 -0.95942 -1.98773e-05
    outer loop
      vertex 14.2749 4.19551 2.12132
      vertex 15.3594 4.51426 1.74757
      vertex 15.7855 4.63949 1.93185
    endloop
  endfacet
  facet normal 0.28197 -0.959423 -5.23338e-05
    outer loop
      vertex 14.2749 4.19551 2.12132
      vertex 15.3235 4.50371 1.73205
      vertex 15.3594 4.51426 1.74757
    endloop
  endfacet
  facet normal 0.281985 -0.959419 -9.75829e-06
    outer loop
      vertex 14.2749 4.19551 2.12132
      vertex 14.9577 4.3962 1.43898
      vertex 15.3235 4.50371 1.73205
    endloop
  endfacet
  facet normal 0.281959 -0.959426 -3.77991e-05
    outer loop
      vertex 14.2749 4.19551 2.12132
      vertex 14.9268 4.38712 1.41421
      vertex 14.9577 4.3962 1.43898
    endloop
  endfacet
  facet normal 0.282016 -0.95941 1.94558e-05
    outer loop
      vertex 14.2749 4.19551 2.12132
      vertex 14.6463 4.30466 1.03245
      vertex 14.9268 4.38712 1.41421
    endloop
  endfacet
  facet normal 0.281612 -0.959528 -0.000130311
    outer loop
      vertex 14.2749 4.19551 2.12132
      vertex 14.6224 4.29765 1
      vertex 14.6463 4.30466 1.03245
    endloop
  endfacet
  facet normal 0.282027 -0.959407 9.35485e-06
    outer loop
      vertex 14.2749 4.19551 2.12132
      vertex 14.4462 4.24585 0.555685
      vertex 14.6224 4.29765 1
    endloop
  endfacet
  facet normal 0.281987 -0.959418 4.64379e-06
    outer loop
      vertex 14.007 4.11676 0
      vertex 14.4462 4.24585 0.555685
      vertex 14.2749 4.19551 2.12132
    endloop
  endfacet
  facet normal 0.281886 -0.959448 9.09879e-05
    outer loop
      vertex 14.4462 4.24585 0.555685
      vertex 14.007 4.11676 0
      vertex 14.4311 4.24141 0.517637
    endloop
  endfacet
  facet normal 0.282 -0.959414 -1.04322e-05
    outer loop
      vertex 14.4311 4.24141 0.517637
      vertex 14.007 4.11676 0
      vertex 14.371 4.22375 0.0411562
    endloop
  endfacet
  facet normal 0.28202 -0.959408 -0.000199329
    outer loop
      vertex 14.371 4.22375 0.0411562
      vertex 14.007 4.11676 0
      vertex 14.3658 4.22223 0
    endloop
  endfacet
  facet normal 0.282008 -0.959412 -0.000612246
    outer loop
      vertex 16.3197 4.79651 1.99471
      vertex 18.3454 5.39186 2.12132
      vertex 16.2812 4.78519 2
    endloop
  endfacet
  facet normal 0.281967 -0.959424 0.000102202
    outer loop
      vertex 16.777 4.9309 1.93185
      vertex 18.3454 5.39186 2.12132
      vertex 16.3197 4.79651 1.99471
    endloop
  endfacet
  facet normal 0.281922 -0.959437 0.000509197
    outer loop
      vertex 16.813 4.94147 1.91629
      vertex 18.3454 5.39186 2.12132
      vertex 16.777 4.9309 1.93185
    endloop
  endfacet
  facet normal 0.281986 -0.959418 -1.46999e-05
    outer loop
      vertex 17.239 5.06668 1.73205
      vertex 18.3454 5.39186 2.12132
      vertex 16.813 4.94147 1.91629
    endloop
  endfacet
  facet normal 0.281971 -0.959423 3.09449e-05
    outer loop
      vertex 17.27 5.07579 1.7072
      vertex 18.3454 5.39186 2.12132
      vertex 17.239 5.06668 1.73205
    endloop
  endfacet
  facet normal 0.281999 -0.959415 -4.72579e-05
    outer loop
      vertex 18.3454 5.39186 2.12132
      vertex 17.27 5.07579 1.7072
      vertex 17.5485 5.15766 1.48402
    endloop
  endfacet
  facet normal 0.281878 -0.95945 0.000117606
    outer loop
      vertex 17.6357 5.18327 1.41421
      vertex 18.3454 5.39186 2.12132
      vertex 17.5485 5.15766 1.48402
    endloop
  endfacet
  facet normal 0.282071 -0.959393 -9.32995e-05
    outer loop
      vertex 17.6596 5.1903 1.38166
      vertex 18.3454 5.39186 2.12132
      vertex 17.6357 5.18327 1.41421
    endloop
  endfacet
  facet normal 0.281964 -0.959425 1.4489e-05
    outer loop
      vertex 17.9401 5.27273 1
      vertex 18.3454 5.39186 2.12132
      vertex 17.6596 5.1903 1.38166
    endloop
  endfacet
  facet normal 0.282357 -0.959309 -0.000139857
    outer loop
      vertex 17.9552 5.27718 0.961862
      vertex 18.3454 5.39186 2.12132
      vertex 17.9401 5.27273 1
    endloop
  endfacet
  facet normal 0.281983 -0.959419 -2.99534e-06
    outer loop
      vertex 18.3454 5.39186 2.12132
      vertex 17.9552 5.27718 0.961862
      vertex 18.0111 5.29361 0.82096
    endloop
  endfacet
  facet normal 0.28199 -0.959417 -5.10902e-06
    outer loop
      vertex 18.1314 5.32897 0.517637
      vertex 18.3454 5.39186 2.12132
      vertex 18.0111 5.29361 0.82096
    endloop
  endfacet
  facet normal 0.281818 -0.959468 -6.14222e-05
    outer loop
      vertex 18.3454 5.39186 0
      vertex 18.1314 5.32897 0.517637
      vertex 18.1366 5.3305 0.476445
    endloop
  endfacet
  facet normal 0.281957 -0.959427 4.44183e-06
    outer loop
      vertex 18.3454 5.39186 0
      vertex 18.1366 5.3305 0.476445
      vertex 18.1967 5.34816 0
    endloop
  endfacet
  facet normal 0.281955 -0.959428 0
    outer loop
      vertex 18.1314 5.32897 0.517637
      vertex 18.3454 5.39186 0
      vertex 18.3454 5.39186 2.12132
    endloop
  endfacet
  facet normal 0.281987 -0.959418 0
    outer loop
      vertex 19.1884 5.63963 0
      vertex 18.3454 5.39186 2.12132
      vertex 18.3454 5.39186 0
    endloop
  endfacet
  facet normal 0.105983 0.985865 0.129763
    outer loop
      vertex 4.22874 19.4432 0.776457
      vertex 4.44089e-15 20 0
      vertex 4.4182e-15 19.8978 0.776457
    endloop
  endfacet
  facet normal 0.105974 0.98586 0.129806
    outer loop
      vertex 4.22874 19.4432 0.776457
      vertex 4.25046 19.5431 0
      vertex 4.44089e-15 20 0
    endloop
  endfacet
  facet normal 0.0988217 0.919358 0.380809
    outer loop
      vertex 4.16504 19.1504 1.5
      vertex 4.4182e-15 19.8978 0.776457
      vertex 4.35165e-15 19.5981 1.5
    endloop
  endfacet
  facet normal 0.0988356 0.91938 0.380752
    outer loop
      vertex 4.16504 19.1504 1.5
      vertex 4.22874 19.4432 0.776457
      vertex 4.4182e-15 19.8978 0.776457
    endloop
  endfacet
  facet normal 0.0849645 0.790457 0.606596
    outer loop
      vertex 4.06372 18.6845 2.12132
      vertex 4.35165e-15 19.5981 1.5
      vertex 4.24579e-15 19.1213 2.12132
    endloop
  endfacet
  facet normal 0.0849668 0.790463 0.606588
    outer loop
      vertex 4.06372 18.6845 2.12132
      vertex 4.16504 19.1504 1.5
      vertex 4.35165e-15 19.5981 1.5
    endloop
  endfacet
  facet normal 0.0652953 0.607478 0.791648
    outer loop
      vertex 3.93168 18.0774 2.59808
      vertex 4.24579e-15 19.1213 2.12132
      vertex 4.10783e-15 18.5 2.59808
    endloop
  endfacet
  facet normal 0.0652969 0.607483 0.791645
    outer loop
      vertex 3.93168 18.0774 2.59808
      vertex 4.06372 18.6845 2.12132
      vertex 4.24579e-15 19.1213 2.12132
    endloop
  endfacet
  facet normal 0.0411031 0.382378 0.923091
    outer loop
      vertex 3.77791 17.3704 2.89778
      vertex 4.10783e-15 18.5 2.59808
      vertex 3.94717e-15 17.7765 2.89778
    endloop
  endfacet
  facet normal 0.0410989 0.382365 0.923097
    outer loop
      vertex 3.77791 17.3704 2.89778
      vertex 3.93168 18.0774 2.59808
      vertex 4.10783e-15 18.5 2.59808
    endloop
  endfacet
  facet normal 0.014026 0.130503 0.991349
    outer loop
      vertex 3.61289 16.6117 3
      vertex 3.94717e-15 17.7765 2.89778
      vertex 3.77476e-15 17 3
    endloop
  endfacet
  facet normal 0.0140293 0.130513 0.991347
    outer loop
      vertex 3.61289 16.6117 3
      vertex 3.77791 17.3704 2.89778
      vertex 3.94717e-15 17.7765 2.89778
    endloop
  endfacet
  facet normal -0.0140329 -0.13052 0.991346
    outer loop
      vertex 3.44788 15.8529 2.89778
      vertex 3.77476e-15 17 3
      vertex 3.60235e-15 16.2236 2.89778
    endloop
  endfacet
  facet normal -0.0140254 -0.130497 0.991349
    outer loop
      vertex 3.44788 15.8529 2.89778
      vertex 3.61289 16.6117 3
      vertex 3.77476e-15 17 3
    endloop
  endfacet
  facet normal -0.0410988 -0.382333 0.92311
    outer loop
      vertex 3.29411 15.1459 2.59808
      vertex 3.60235e-15 16.2236 2.89778
      vertex 3.44169e-15 15.5 2.59808
    endloop
  endfacet
  facet normal -0.0411099 -0.382363 0.923097
    outer loop
      vertex 3.29411 15.1459 2.59808
      vertex 3.44788 15.8529 2.89778
      vertex 3.60235e-15 16.2236 2.89778
    endloop
  endfacet
  facet normal -0.0652998 -0.607478 0.791648
    outer loop
      vertex 3.16206 14.5388 2.12132
      vertex 3.44169e-15 15.5 2.59808
      vertex 3.30373e-15 14.8787 2.12132
    endloop
  endfacet
  facet normal -0.0653011 -0.607481 0.791645
    outer loop
      vertex 3.16206 14.5388 2.12132
      vertex 3.29411 15.1459 2.59808
      vertex 3.44169e-15 15.5 2.59808
    endloop
  endfacet
  facet normal -0.0849665 -0.790457 0.606596
    outer loop
      vertex 3.06074 14.0729 1.5
      vertex 3.30373e-15 14.8787 2.12132
      vertex 3.19787e-15 14.4019 1.5
    endloop
  endfacet
  facet normal -0.0849693 -0.790462 0.606588
    outer loop
      vertex 3.06074 14.0729 1.5
      vertex 3.16206 14.5388 2.12132
      vertex 3.30373e-15 14.8787 2.12132
    endloop
  endfacet
  facet normal -0.0988057 -0.919359 0.380809
    outer loop
      vertex 2.99705 13.7801 0.776457
      vertex 3.19787e-15 14.4019 1.5
      vertex 3.13132e-15 14.1022 0.776457
    endloop
  endfacet
  facet normal -0.0988247 -0.919382 0.38075
    outer loop
      vertex 2.99705 13.7801 0.776457
      vertex 3.06074 14.0729 1.5
      vertex 3.19787e-15 14.4019 1.5
    endloop
  endfacet
  facet normal -0.105965 -0.985867 0.129763
    outer loop
      vertex 2.97532 13.6802 0
      vertex 3.13132e-15 14.1022 0.776457
      vertex 3.10863e-15 14 0
    endloop
  endfacet
  facet normal -0.105953 -0.985862 0.129808
    outer loop
      vertex 2.97532 13.6802 0
      vertex 2.99705 13.7801 0.776457
      vertex 3.13132e-15 14.1022 0.776457
    endloop
  endfacet
  facet normal 0.313054 0.940823 0.129805
    outer loop
      vertex 8.26427 18.1004 0.776457
      vertex 4.25046 19.5431 0
      vertex 4.22874 19.4432 0.776457
    endloop
  endfacet
  facet normal 0.313053 0.940823 0.129806
    outer loop
      vertex 8.26427 18.1004 0.776457
      vertex 8.30673 18.1934 0
      vertex 4.25046 19.5431 0
    endloop
  endfacet
  facet normal 0.291967 0.877372 0.380755
    outer loop
      vertex 8.1398 17.8277 1.5
      vertex 4.22874 19.4432 0.776457
      vertex 4.16504 19.1504 1.5
    endloop
  endfacet
  facet normal 0.291927 0.87733 0.380881
    outer loop
      vertex 8.1398 17.8277 1.5
      vertex 8.26427 18.1004 0.776457
      vertex 4.22874 19.4432 0.776457
    endloop
  endfacet
  facet normal 0.251006 0.754353 0.606587
    outer loop
      vertex 7.94178 17.3941 2.12132
      vertex 4.16504 19.1504 1.5
      vertex 4.06372 18.6845 2.12132
    endloop
  endfacet
  facet normal 0.25105 0.754413 0.606494
    outer loop
      vertex 7.94178 17.3941 2.12132
      vertex 8.1398 17.8277 1.5
      vertex 4.16504 19.1504 1.5
    endloop
  endfacet
  facet normal 0.192906 0.579729 0.791645
    outer loop
      vertex 7.68373 16.8289 2.59808
      vertex 4.06372 18.6845 2.12132
      vertex 3.93168 18.0774 2.59808
    endloop
  endfacet
  facet normal 0.192896 0.579714 0.791658
    outer loop
      vertex 7.68373 16.8289 2.59808
      vertex 7.94178 17.3941 2.12132
      vertex 4.06372 18.6845 2.12132
    endloop
  endfacet
  facet normal 0.121423 0.364895 0.923097
    outer loop
      vertex 7.38321 16.1707 2.89778
      vertex 3.93168 18.0774 2.59808
      vertex 3.77791 17.3704 2.89778
    endloop
  endfacet
  facet normal 0.121415 0.364883 0.923103
    outer loop
      vertex 7.38321 16.1707 2.89778
      vertex 7.68373 16.8289 2.59808
      vertex 3.93168 18.0774 2.59808
    endloop
  endfacet
  facet normal 0.0414453 0.12455 0.991347
    outer loop
      vertex 7.06072 15.4644 3
      vertex 3.77791 17.3704 2.89778
      vertex 3.61289 16.6117 3
    endloop
  endfacet
  facet normal 0.0414453 0.12455 0.991347
    outer loop
      vertex 7.06072 15.4644 3
      vertex 7.38321 16.1707 2.89778
      vertex 3.77791 17.3704 2.89778
    endloop
  endfacet
  facet normal -0.0414406 -0.124536 0.991349
    outer loop
      vertex 6.73823 14.758 2.89778
      vertex 3.61289 16.6117 3
      vertex 3.44788 15.8529 2.89778
    endloop
  endfacet
  facet normal -0.0414403 -0.124535 0.991349
    outer loop
      vertex 6.73823 14.758 2.89778
      vertex 7.06072 15.4644 3
      vertex 3.61289 16.6117 3
    endloop
  endfacet
  facet normal -0.121415 -0.364897 0.923097
    outer loop
      vertex 6.43772 14.0999 2.59808
      vertex 3.44788 15.8529 2.89778
      vertex 3.29411 15.1459 2.59808
    endloop
  endfacet
  facet normal -0.121433 -0.364924 0.923084
    outer loop
      vertex 6.43772 14.0999 2.59808
      vertex 6.73823 14.758 2.89778
      vertex 3.44788 15.8529 2.89778
    endloop
  endfacet
  facet normal -0.192903 -0.579728 0.791647
    outer loop
      vertex 6.17966 13.5347 2.12132
      vertex 3.29411 15.1459 2.59808
      vertex 3.16206 14.5388 2.12132
    endloop
  endfacet
  facet normal -0.192893 -0.579713 0.79166
    outer loop
      vertex 6.17966 13.5347 2.12132
      vertex 6.43772 14.0999 2.59808
      vertex 3.29411 15.1459 2.59808
    endloop
  endfacet
  facet normal -0.251003 -0.754354 0.606587
    outer loop
      vertex 5.98165 13.101 1.5
      vertex 3.16206 14.5388 2.12132
      vertex 3.06074 14.0729 1.5
    endloop
  endfacet
  facet normal -0.251014 -0.754367 0.606567
    outer loop
      vertex 5.98165 13.101 1.5
      vertex 6.17966 13.5347 2.12132
      vertex 3.16206 14.5388 2.12132
    endloop
  endfacet
  facet normal -0.291974 -0.877371 0.380751
    outer loop
      vertex 5.85717 12.8283 0.776457
      vertex 3.06074 14.0729 1.5
      vertex 2.99705 13.7801 0.776457
    endloop
  endfacet
  facet normal -0.291922 -0.87733 0.380885
    outer loop
      vertex 5.85717 12.8283 0.776457
      vertex 5.98165 13.101 1.5
      vertex 3.06074 14.0729 1.5
    endloop
  endfacet
  facet normal -0.313056 -0.940822 0.129809
    outer loop
      vertex 5.81471 12.7354 0
      vertex 2.99705 13.7801 0.776457
      vertex 2.97532 13.6802 0
    endloop
  endfacet
  facet normal -0.313091 -0.940827 0.129687
    outer loop
      vertex 5.81471 12.7354 0
      vertex 5.85717 12.8283 0.776457
      vertex 2.99705 13.7801 0.776457
    endloop
  endfacet
  facet normal 0.505875 0.852784 0.129805
    outer loop
      vertex 11.9222 15.9305 0.776457
      vertex 8.30673 18.1934 0
      vertex 8.26427 18.1004 0.776457
    endloop
  endfacet
  facet normal 0.505857 0.852783 0.129887
    outer loop
      vertex 11.9222 15.9305 0.776457
      vertex 11.9835 16.0124 0
      vertex 8.30673 18.1934 0
    endloop
  endfacet
  facet normal 0.471712 0.79525 0.380874
    outer loop
      vertex 11.7427 15.6906 1.5
      vertex 8.26427 18.1004 0.776457
      vertex 8.1398 17.8277 1.5
    endloop
  endfacet
  facet normal 0.471768 0.795288 0.380726
    outer loop
      vertex 11.7427 15.6906 1.5
      vertex 11.9222 15.9305 0.776457
      vertex 8.26427 18.1004 0.776457
    endloop
  endfacet
  facet normal 0.405639 0.683824 0.6065
    outer loop
      vertex 11.457 15.3089 2.12132
      vertex 8.1398 17.8277 1.5
      vertex 7.94178 17.3941 2.12132
    endloop
  endfacet
  facet normal 0.405593 0.683783 0.606576
    outer loop
      vertex 11.457 15.3089 2.12132
      vertex 11.7427 15.6906 1.5
      vertex 8.1398 17.8277 1.5
    endloop
  endfacet
  facet normal 0.311701 0.525471 0.791658
    outer loop
      vertex 11.0847 14.8115 2.59808
      vertex 7.94178 17.3941 2.12132
      vertex 7.68373 16.8289 2.59808
    endloop
  endfacet
  facet normal 0.311712 0.525482 0.791646
    outer loop
      vertex 11.0847 14.8115 2.59808
      vertex 11.457 15.3089 2.12132
      vertex 7.94178 17.3941 2.12132
    endloop
  endfacet
  facet normal 0.196189 0.330743 0.923103
    outer loop
      vertex 10.6512 14.2322 2.89778
      vertex 7.68373 16.8289 2.59808
      vertex 7.38321 16.1707 2.89778
    endloop
  endfacet
  facet normal 0.196195 0.330749 0.9231
    outer loop
      vertex 10.6512 14.2322 2.89778
      vertex 11.0847 14.8115 2.59808
      vertex 7.68373 16.8289 2.59808
    endloop
  endfacet
  facet normal 0.0669694 0.112896 0.991347
    outer loop
      vertex 10.186 13.6105 3
      vertex 7.38321 16.1707 2.89778
      vertex 7.06072 15.4644 3
    endloop
  endfacet
  facet normal 0.0669641 0.11289 0.991348
    outer loop
      vertex 10.186 13.6105 3
      vertex 10.6512 14.2322 2.89778
      vertex 7.38321 16.1707 2.89778
    endloop
  endfacet
  facet normal -0.066959 -0.112885 0.991349
    outer loop
      vertex 9.72073 12.9889 2.89778
      vertex 7.06072 15.4644 3
      vertex 6.73823 14.758 2.89778
    endloop
  endfacet
  facet normal -0.0669697 -0.112897 0.991347
    outer loop
      vertex 9.72073 12.9889 2.89778
      vertex 10.186 13.6105 3
      vertex 7.06072 15.4644 3
    endloop
  endfacet
  facet normal -0.196215 -0.330776 0.923085
    outer loop
      vertex 9.2872 12.4096 2.59808
      vertex 6.73823 14.758 2.89778
      vertex 6.43772 14.0999 2.59808
    endloop
  endfacet
  facet normal -0.196186 -0.330746 0.923102
    outer loop
      vertex 9.2872 12.4096 2.59808
      vertex 9.72073 12.9889 2.89778
      vertex 6.73823 14.758 2.89778
    endloop
  endfacet
  facet normal -0.311698 -0.525469 0.791661
    outer loop
      vertex 8.91492 11.9122 2.12132
      vertex 6.43772 14.0999 2.59808
      vertex 6.17966 13.5347 2.12132
    endloop
  endfacet
  facet normal -0.311717 -0.525487 0.791642
    outer loop
      vertex 8.91492 11.9122 2.12132
      vertex 9.2872 12.4096 2.59808
      vertex 6.43772 14.0999 2.59808
    endloop
  endfacet
  facet normal -0.405605 -0.683785 0.606566
    outer loop
      vertex 8.62926 11.5305 1.5
      vertex 6.17966 13.5347 2.12132
      vertex 5.98165 13.101 1.5
    endloop
  endfacet
  facet normal -0.405609 -0.683788 0.60656
    outer loop
      vertex 8.62926 11.5305 1.5
      vertex 8.91492 11.9122 2.12132
      vertex 6.17966 13.5347 2.12132
    endloop
  endfacet
  facet normal -0.471715 -0.795246 0.380879
    outer loop
      vertex 8.44969 11.2905 0.776457
      vertex 5.98165 13.101 1.5
      vertex 5.85717 12.8283 0.776457
    endloop
  endfacet
  facet normal -0.471724 -0.79525 0.380859
    outer loop
      vertex 8.44969 11.2905 0.776457
      vertex 8.62926 11.5305 1.5
      vertex 5.98165 13.101 1.5
    endloop
  endfacet
  facet normal -0.505871 -0.852803 0.129698
    outer loop
      vertex 8.38844 11.2087 0
      vertex 5.85717 12.8283 0.776457
      vertex 5.81471 12.7354 0
    endloop
  endfacet
  facet normal -0.505856 -0.852804 0.129747
    outer loop
      vertex 8.38844 11.2087 0
      vertex 8.44969 11.2905 0.776457
      vertex 5.85717 12.8283 0.776457
    endloop
  endfacet
  facet normal 0.675522 0.725809 0.129889
    outer loop
      vertex 15.0355 13.0329 0.776457
      vertex 11.9835 16.0124 0
      vertex 11.9222 15.9305 0.776457
    endloop
  endfacet
  facet normal 0.675564 0.725803 0.129704
    outer loop
      vertex 15.0355 13.0329 0.776457
      vertex 15.1127 13.0998 0
      vertex 11.9835 16.0124 0
    endloop
  endfacet
  facet normal 0.630003 0.676867 0.380718
    outer loop
      vertex 14.809 12.8366 1.5
      vertex 11.9222 15.9305 0.776457
      vertex 11.7427 15.6906 1.5
    endloop
  endfacet
  facet normal 0.629954 0.676848 0.380834
    outer loop
      vertex 14.809 12.8366 1.5
      vertex 15.0355 13.0329 0.776457
      vertex 11.9222 15.9305 0.776457
    endloop
  endfacet
  facet normal 0.541651 0.581955 0.606583
    outer loop
      vertex 14.4488 12.5243 2.12132
      vertex 11.7427 15.6906 1.5
      vertex 11.457 15.3089 2.12132
    endloop
  endfacet
  facet normal 0.541675 0.581969 0.606548
    outer loop
      vertex 14.4488 12.5243 2.12132
      vertex 14.809 12.8366 1.5
      vertex 11.7427 15.6906 1.5
    endloop
  endfacet
  facet normal 0.416266 0.447228 0.79165
    outer loop
      vertex 13.9793 12.1173 2.59808
      vertex 11.457 15.3089 2.12132
      vertex 11.0847 14.8115 2.59808
    endloop
  endfacet
  facet normal 0.416239 0.447211 0.791674
    outer loop
      vertex 13.9793 12.1173 2.59808
      vertex 14.4488 12.5243 2.12132
      vertex 11.457 15.3089 2.12132
    endloop
  endfacet
  facet normal 0.262012 0.281495 0.923098
    outer loop
      vertex 13.4325 11.6434 2.89778
      vertex 11.0847 14.8115 2.59808
      vertex 10.6512 14.2322 2.89778
    endloop
  endfacet
  facet normal 0.261996 0.281484 0.923106
    outer loop
      vertex 13.4325 11.6434 2.89778
      vertex 13.9793 12.1173 2.59808
      vertex 11.0847 14.8115 2.59808
    endloop
  endfacet
  facet normal 0.0894276 0.0960815 0.991348
    outer loop
      vertex 12.8458 11.1349 3
      vertex 10.6512 14.2322 2.89778
      vertex 10.186 13.6105 3
    endloop
  endfacet
  facet normal 0.089439 0.0960896 0.991346
    outer loop
      vertex 12.8458 11.1349 3
      vertex 13.4325 11.6434 2.89778
      vertex 10.6512 14.2322 2.89778
    endloop
  endfacet
  facet normal -0.0894309 -0.0960843 0.991348
    outer loop
      vertex 12.2591 10.6263 2.89778
      vertex 10.186 13.6105 3
      vertex 9.72073 12.9889 2.89778
    endloop
  endfacet
  facet normal -0.0894288 -0.0960828 0.991348
    outer loop
      vertex 12.2591 10.6263 2.89778
      vertex 12.8458 11.1349 3
      vertex 10.186 13.6105 3
    endloop
  endfacet
  facet normal -0.261996 -0.281496 0.923102
    outer loop
      vertex 11.7124 10.1524 2.59808
      vertex 9.72073 12.9889 2.89778
      vertex 9.2872 12.4096 2.59808
    endloop
  endfacet
  facet normal -0.262016 -0.281509 0.923093
    outer loop
      vertex 11.7124 10.1524 2.59808
      vertex 12.2591 10.6263 2.89778
      vertex 9.72073 12.9889 2.89778
    endloop
  endfacet
  facet normal -0.416269 -0.447236 0.791644
    outer loop
      vertex 11.2429 9.74541 2.12132
      vertex 9.2872 12.4096 2.59808
      vertex 8.91492 11.9122 2.12132
    endloop
  endfacet
  facet normal -0.416238 -0.447218 0.791671
    outer loop
      vertex 11.2429 9.74541 2.12132
      vertex 11.7124 10.1524 2.59808
      vertex 9.2872 12.4096 2.59808
    endloop
  endfacet
  facet normal -0.541674 -0.581958 0.60656
    outer loop
      vertex 10.8826 9.43314 1.5
      vertex 8.91492 11.9122 2.12132
      vertex 8.62926 11.5305 1.5
    endloop
  endfacet
  facet normal -0.541655 -0.581949 0.606585
    outer loop
      vertex 10.8826 9.43314 1.5
      vertex 11.2429 9.74541 2.12132
      vertex 8.91492 11.9122 2.12132
    endloop
  endfacet
  facet normal -0.629953 -0.676839 0.380851
    outer loop
      vertex 10.6562 9.23684 0.776457
      vertex 8.62926 11.5305 1.5
      vertex 8.44969 11.2905 0.776457
    endloop
  endfacet
  facet normal -0.629997 -0.676849 0.380761
    outer loop
      vertex 10.6562 9.23684 0.776457
      vertex 10.8826 9.43314 1.5
      vertex 8.62926 11.5305 1.5
    endloop
  endfacet
  facet normal -0.675556 -0.725802 0.129754
    outer loop
      vertex 10.5789 9.16988 0
      vertex 8.44969 11.2905 0.776457
      vertex 8.38844 11.2087 0
    endloop
  endfacet
  facet normal -0.675531 -0.725809 0.129845
    outer loop
      vertex 10.5789 9.16988 0
      vertex 10.6562 9.23684 0.776457
      vertex 8.44969 11.2905 0.776457
    endloop
  endfacet
  facet normal 0.814375 0.565658 0.129707
    outer loop
      vertex 17.4618 9.53977 0.776457
      vertex 15.1127 13.0998 0
      vertex 15.0355 13.0329 0.776457
    endloop
  endfacet
  facet normal 0.814359 0.565664 0.129783
    outer loop
      vertex 17.4618 9.53977 0.776457
      vertex 17.5515 9.58878 0
      vertex 15.1127 13.0998 0
    endloop
  endfacet
  facet normal 0.759415 0.527493 0.38084
    outer loop
      vertex 17.1988 9.39608 1.5
      vertex 15.0355 13.0329 0.776457
      vertex 14.809 12.8366 1.5
    endloop
  endfacet
  facet normal 0.759433 0.527496 0.380802
    outer loop
      vertex 17.1988 9.39608 1.5
      vertex 17.4618 9.53977 0.776457
      vertex 15.0355 13.0329 0.776457
    endloop
  endfacet
  facet normal 0.652989 0.453561 0.606537
    outer loop
      vertex 16.7804 9.16751 2.12132
      vertex 14.809 12.8366 1.5
      vertex 14.4488 12.5243 2.12132
    endloop
  endfacet
  facet normal 0.652968 0.453555 0.606565
    outer loop
      vertex 16.7804 9.16751 2.12132
      vertex 17.1988 9.39608 1.5
      vertex 14.809 12.8366 1.5
    endloop
  endfacet
  facet normal 0.501772 0.34854 0.791672
    outer loop
      vertex 16.2352 8.86962 2.59808
      vertex 14.4488 12.5243 2.12132
      vertex 13.9793 12.1173 2.59808
    endloop
  endfacet
  facet normal 0.501815 0.348557 0.791637
    outer loop
      vertex 16.2352 8.86962 2.59808
      vertex 16.7804 9.16751 2.12132
      vertex 14.4488 12.5243 2.12132
    endloop
  endfacet
  facet normal 0.315823 0.219379 0.923108
    outer loop
      vertex 15.6002 8.52273 2.89778
      vertex 13.9793 12.1173 2.59808
      vertex 13.4325 11.6434 2.89778
    endloop
  endfacet
  facet normal 0.315831 0.219382 0.923105
    outer loop
      vertex 15.6002 8.52273 2.89778
      vertex 16.2352 8.86962 2.59808
      vertex 13.9793 12.1173 2.59808
    endloop
  endfacet
  facet normal 0.107814 0.0748882 0.991346
    outer loop
      vertex 14.9188 8.15046 3
      vertex 13.4325 11.6434 2.89778
      vertex 12.8458 11.1349 3
    endloop
  endfacet
  facet normal 0.107805 0.0748843 0.991348
    outer loop
      vertex 14.9188 8.15046 3
      vertex 15.6002 8.52273 2.89778
      vertex 13.4325 11.6434 2.89778
    endloop
  endfacet
  facet normal -0.107807 -0.0748828 0.991348
    outer loop
      vertex 14.2374 7.7782 2.89778
      vertex 12.8458 11.1349 3
      vertex 12.2591 10.6263 2.89778
    endloop
  endfacet
  facet normal -0.107807 -0.074883 0.991348
    outer loop
      vertex 14.2374 7.7782 2.89778
      vertex 14.9188 8.15046 3
      vertex 12.8458 11.1349 3
    endloop
  endfacet
  facet normal -0.315863 -0.219389 0.923092
    outer loop
      vertex 13.6024 7.4313 2.59808
      vertex 12.2591 10.6263 2.89778
      vertex 11.7124 10.1524 2.59808
    endloop
  endfacet
  facet normal -0.315831 -0.219377 0.923106
    outer loop
      vertex 13.6024 7.4313 2.59808
      vertex 14.2374 7.7782 2.89778
      vertex 12.2591 10.6263 2.89778
    endloop
  endfacet
  facet normal -0.501778 -0.348537 0.791669
    outer loop
      vertex 13.0572 7.13342 2.12132
      vertex 11.7124 10.1524 2.59808
      vertex 11.2429 9.74541 2.12132
    endloop
  endfacet
  facet normal -0.501822 -0.348552 0.791635
    outer loop
      vertex 13.0572 7.13342 2.12132
      vertex 13.6024 7.4313 2.59808
      vertex 11.7124 10.1524 2.59808
    endloop
  endfacet
  facet normal -0.652948 -0.453549 0.606591
    outer loop
      vertex 12.6388 6.90484 1.5
      vertex 11.2429 9.74541 2.12132
      vertex 10.8826 9.43314 1.5
    endloop
  endfacet
  facet normal -0.652965 -0.453553 0.606569
    outer loop
      vertex 12.6388 6.90484 1.5
      vertex 13.0572 7.13342 2.12132
      vertex 11.2429 9.74541 2.12132
    endloop
  endfacet
  facet normal -0.759448 -0.527511 0.380751
    outer loop
      vertex 12.3758 6.76116 0.776457
      vertex 10.8826 9.43314 1.5
      vertex 10.6562 9.23684 0.776457
    endloop
  endfacet
  facet normal -0.759426 -0.52751 0.380795
    outer loop
      vertex 12.3758 6.76116 0.776457
      vertex 12.6388 6.90484 1.5
      vertex 10.8826 9.43314 1.5
    endloop
  endfacet
  facet normal -0.814347 -0.565665 0.129854
    outer loop
      vertex 12.2861 6.71215 0
      vertex 10.6562 9.23684 0.776457
      vertex 10.5789 9.16988 0
    endloop
  endfacet
  facet normal -0.814365 -0.565655 0.129783
    outer loop
      vertex 12.2861 6.71215 0
      vertex 12.3758 6.76116 0.776457
      vertex 10.6562 9.23684 0.776457
    endloop
  endfacet
  facet normal 0.915977 0.37966 0.129782
    outer loop
      vertex 19.0903 5.61081 0.776457
      vertex 17.5515 9.58878 0
      vertex 17.4618 9.53977 0.776457
    endloop
  endfacet
  facet normal 0.915971 0.379665 0.129819
    outer loop
      vertex 19.0903 5.61081 0.776457
      vertex 19.1884 5.63963 0
      vertex 17.5515 9.58878 0
    endloop
  endfacet
  facet normal 0.854187 0.354055 0.3808
    outer loop
      vertex 18.8028 5.5263 1.5
      vertex 17.4618 9.53977 0.776457
      vertex 17.1988 9.39608 1.5
    endloop
  endfacet
  facet normal 0.854201 0.354055 0.380771
    outer loop
      vertex 18.8028 5.5263 1.5
      vertex 19.0903 5.61081 0.776457
      vertex 17.4618 9.53977 0.776457
    endloop
  endfacet
  facet normal 0.73444 0.304424 0.606567
    outer loop
      vertex 18.3454 5.39186 2.12132
      vertex 17.1988 9.39608 1.5
      vertex 16.7804 9.16751 2.12132
    endloop
  endfacet
  facet normal 0.73445 0.304425 0.606554
    outer loop
      vertex 18.3454 5.39186 2.12132
      vertex 18.8028 5.5263 1.5
      vertex 17.1988 9.39608 1.5
    endloop
  endfacet
  facet normal 0.564432 0.233949 0.791634
    outer loop
      vertex 17.7493 5.21666 2.59808
      vertex 16.7804 9.16751 2.12132
      vertex 16.2352 8.86962 2.59808
    endloop
  endfacet
  facet normal 0.564405 0.233945 0.791654
    outer loop
      vertex 17.7493 5.21666 2.59808
      vertex 18.3454 5.39186 2.12132
      vertex 16.7804 9.16751 2.12132
    endloop
  endfacet
  facet normal 0.35524 0.147243 0.923106
    outer loop
      vertex 17.0551 5.01263 2.89778
      vertex 16.2352 8.86962 2.59808
      vertex 15.6002 8.52273 2.89778
    endloop
  endfacet
  facet normal 0.355246 0.147244 0.923103
    outer loop
      vertex 17.0551 5.01263 2.89778
      vertex 17.7493 5.21666 2.59808
      vertex 16.2352 8.86962 2.59808
    endloop
  endfacet
  facet normal 0.121259 0.0502588 0.991348
    outer loop
      vertex 16.3101 4.79369 3
      vertex 15.6002 8.52273 2.89778
      vertex 14.9188 8.15046 3
    endloop
  endfacet
  facet normal 0.121251 0.0502575 0.991349
    outer loop
      vertex 16.3101 4.79369 3
      vertex 17.0551 5.01263 2.89778
      vertex 15.6002 8.52273 2.89778
    endloop
  endfacet
  facet normal -0.121259 -0.0502604 0.991348
    outer loop
      vertex 15.5652 4.57474 2.89778
      vertex 14.9188 8.15046 3
      vertex 14.2374 7.7782 2.89778
    endloop
  endfacet
  facet normal -0.121266 -0.0502616 0.991347
    outer loop
      vertex 15.5652 4.57474 2.89778
      vertex 16.3101 4.79369 3
      vertex 14.9188 8.15046 3
    endloop
  endfacet
  facet normal -0.355238 -0.147244 0.923106
    outer loop
      vertex 14.871 4.37071 2.59808
      vertex 14.2374 7.7782 2.89778
      vertex 13.6024 7.4313 2.59808
    endloop
  endfacet
  facet normal -0.355246 -0.147246 0.923103
    outer loop
      vertex 14.871 4.37071 2.59808
      vertex 15.5652 4.57474 2.89778
      vertex 14.2374 7.7782 2.89778
    endloop
  endfacet
  facet normal -0.564436 -0.233946 0.791632
    outer loop
      vertex 14.2749 4.19551 2.12132
      vertex 13.6024 7.4313 2.59808
      vertex 13.0572 7.13342 2.12132
    endloop
  endfacet
  facet normal -0.564406 -0.233943 0.791654
    outer loop
      vertex 14.2749 4.19551 2.12132
      vertex 14.871 4.37071 2.59808
      vertex 13.6024 7.4313 2.59808
    endloop
  endfacet
  facet normal -0.734442 -0.304416 0.606569
    outer loop
      vertex 13.8175 4.06108 1.5
      vertex 13.0572 7.13342 2.12132
      vertex 12.6388 6.90484 1.5
    endloop
  endfacet
  facet normal -0.734456 -0.304416 0.606552
    outer loop
      vertex 13.8175 4.06108 1.5
      vertex 14.2749 4.19551 2.12132
      vertex 13.0572 7.13342 2.12132
    endloop
  endfacet
  facet normal -0.854188 -0.354057 0.380796
    outer loop
      vertex 13.53 3.97657 0.776457
      vertex 12.6388 6.90484 1.5
      vertex 12.3758 6.76116 0.776457
    endloop
  endfacet
  facet normal -0.854201 -0.354055 0.380771
    outer loop
      vertex 13.53 3.97657 0.776457
      vertex 13.8175 4.06108 1.5
      vertex 12.6388 6.90484 1.5
    endloop
  endfacet
  facet normal -0.915979 -0.379657 0.129782
    outer loop
      vertex 13.4319 3.94774 0
      vertex 12.3758 6.76116 0.776457
      vertex 12.2861 6.71215 0
    endloop
  endfacet
  facet normal -0.91597 -0.379665 0.129823
    outer loop
      vertex 13.4319 3.94774 0
      vertex 13.53 3.97657 0.776457
      vertex 12.3758 6.76116 0.776457
    endloop
  endfacet
  facet normal -0.0916273 -0.987298 -0.129795
    outer loop
      vertex 3.80794 18.5449 0.517637
      vertex 4.19627e-15 18.8983 0.517637
      vertex 4.21016e-15 18.9609 0.0414651
    endloop
  endfacet
  facet normal -0.0916232 -0.987455 -0.128596
    outer loop
      vertex 3.82165 18.6117 0
      vertex 4.21016e-15 18.9609 0.0414651
      vertex 4.21137e-15 18.9663 0
    endloop
  endfacet
  facet normal -0.0916218 -0.987293 -0.129835
    outer loop
      vertex 4.21016e-15 18.9609 0.0414651
      vertex 3.82165 18.6117 0
      vertex 3.80794 18.5449 0.517637
    endloop
  endfacet
  facet normal -0.0854619 -0.920787 -0.380588
    outer loop
      vertex 3.76775 18.3492 0.999999
      vertex 4.15198e-15 18.6989 0.999999
      vertex 4.1927e-15 18.8822 0.556527
    endloop
  endfacet
  facet normal -0.085435 -0.920575 -0.381107
    outer loop
      vertex 3.80794 18.5449 0.517637
      vertex 4.1927e-15 18.8822 0.556527
      vertex 4.19627e-15 18.8983 0.517637
    endloop
  endfacet
  facet normal -0.0854462 -0.920751 -0.380679
    outer loop
      vertex 4.1927e-15 18.8822 0.556527
      vertex 3.80794 18.5449 0.517637
      vertex 3.76775 18.3492 0.999999
    endloop
  endfacet
  facet normal -0.0734733 -0.791771 -0.606383
    outer loop
      vertex 3.70382 18.0379 1.41421
      vertex 4.08153e-15 18.3816 1.41421
      vertex 4.14627e-15 18.6731 1.03359
    endloop
  endfacet
  facet normal -0.073217 -0.790943 -0.607494
    outer loop
      vertex 4.15198e-15 18.6989 0.999999
      vertex 3.70382 18.0379 1.41421
      vertex 4.14627e-15 18.6731 1.03359
    endloop
  endfacet
  facet normal -0.0734867 -0.791763 -0.606391
    outer loop
      vertex 3.70382 18.0379 1.41421
      vertex 4.15198e-15 18.6989 0.999999
      vertex 3.76775 18.3492 0.999999
    endloop
  endfacet
  facet normal -0.0564653 -0.608432 -0.791595
    outer loop
      vertex 3.62051 17.6321 1.73205
      vertex 3.98972e-15 17.9681 1.73205
      vertex 4.07405e-15 18.3479 1.44013
    endloop
  endfacet
  facet normal -0.0564633 -0.608424 -0.791601
    outer loop
      vertex 4.07405e-15 18.3479 1.44013
      vertex 3.70382 18.0379 1.41421
      vertex 3.62051 17.6321 1.73205
    endloop
  endfacet
  facet normal -0.0564842 -0.608692 -0.791393
    outer loop
      vertex 3.70382 18.0379 1.41421
      vertex 4.07405e-15 18.3479 1.44013
      vertex 4.08153e-15 18.3816 1.41421
    endloop
  endfacet
  facet normal -0.0355452 -0.383005 -0.923062
    outer loop
      vertex 3.52348 17.1596 1.93185
      vertex 3.88281e-15 17.4866 1.93185
      vertex 3.98097e-15 17.9287 1.74841
    endloop
  endfacet
  facet normal -0.0355489 -0.383021 -0.923056
    outer loop
      vertex 3.98097e-15 17.9287 1.74841
      vertex 3.62051 17.6321 1.73205
      vertex 3.52348 17.1596 1.93185
    endloop
  endfacet
  facet normal -0.0355665 -0.383241 -0.922963
    outer loop
      vertex 3.62051 17.6321 1.73205
      vertex 3.98097e-15 17.9287 1.74841
      vertex 3.98972e-15 17.9681 1.73205
    endloop
  endfacet
  facet normal -0.0121336 -0.130757 -0.99134
    outer loop
      vertex 3.41937 16.6526 2
      vertex 3.76807e-15 16.9699 2
      vertex 3.87339e-15 17.4442 1.93744
    endloop
  endfacet
  facet normal -0.0121347 -0.130762 -0.991339
    outer loop
      vertex 3.87339e-15 17.4442 1.93744
      vertex 3.52348 17.1596 1.93185
      vertex 3.41937 16.6526 2
    endloop
  endfacet
  facet normal -0.0121296 -0.130699 -0.991348
    outer loop
      vertex 3.52348 17.1596 1.93185
      vertex 3.87339e-15 17.4442 1.93744
      vertex 3.88281e-15 17.4866 1.93185
    endloop
  endfacet
  facet normal 0.0121367 0.130764 -0.991339
    outer loop
      vertex 3.31525 16.1455 1.93185
      vertex 3.65334e-15 16.4532 1.93185
      vertex 3.75865e-15 16.9274 1.9944
    endloop
  endfacet
  facet normal 0.0121304 0.130738 -0.991343
    outer loop
      vertex 3.75865e-15 16.9274 1.9944
      vertex 3.41937 16.6526 2
      vertex 3.31525 16.1455 1.93185
    endloop
  endfacet
  facet normal 0.0121214 0.130626 -0.991358
    outer loop
      vertex 3.41937 16.6526 2
      vertex 3.75865e-15 16.9274 1.9944
      vertex 3.76807e-15 16.9699 2
    endloop
  endfacet
  facet normal 0.0355505 0.383025 -0.923053
    outer loop
      vertex 3.21823 15.673 1.73205
      vertex 3.54642e-15 15.9717 1.73205
      vertex 3.64456e-15 16.4137 1.91546
    endloop
  endfacet
  facet normal 0.0355494 0.383021 -0.923055
    outer loop
      vertex 3.64456e-15 16.4137 1.91546
      vertex 3.31525 16.1455 1.93185
      vertex 3.21823 15.673 1.73205
    endloop
  endfacet
  facet normal 0.0355486 0.383011 -0.923059
    outer loop
      vertex 3.31525 16.1455 1.93185
      vertex 3.64456e-15 16.4137 1.91546
      vertex 3.65334e-15 16.4532 1.93185
    endloop
  endfacet
  facet normal 0.0564676 0.608528 -0.791521
    outer loop
      vertex 3.13491 15.2673 1.41421
      vertex 3.45461e-15 15.5582 1.41421
      vertex 3.53891e-15 15.9378 1.70605
    endloop
  endfacet
  facet normal 0.0564643 0.608517 -0.79153
    outer loop
      vertex 3.53891e-15 15.9378 1.70605
      vertex 3.21823 15.673 1.73205
      vertex 3.13491 15.2673 1.41421
    endloop
  endfacet
  facet normal 0.0563954 0.60761 -0.79223
    outer loop
      vertex 3.21823 15.673 1.73205
      vertex 3.53891e-15 15.9378 1.70605
      vertex 3.54642e-15 15.9717 1.73205
    endloop
  endfacet
  facet normal 0.073472 0.791688 -0.606492
    outer loop
      vertex 3.07098 14.9559 0.999999
      vertex 3.38416e-15 15.2409 0.999999
      vertex 3.44888e-15 15.5324 1.38051
    endloop
  endfacet
  facet normal 0.0734624 0.791674 -0.606511
    outer loop
      vertex 3.07098 14.9559 0.999999
      vertex 3.45461e-15 15.5582 1.41421
      vertex 3.13491 15.2673 1.41421
    endloop
  endfacet
  facet normal 0.0735379 0.791873 -0.606241
    outer loop
      vertex 3.45461e-15 15.5582 1.41421
      vertex 3.07098 14.9559 0.999999
      vertex 3.44888e-15 15.5324 1.38051
    endloop
  endfacet
  facet normal 0.0854592 0.92076 -0.380655
    outer loop
      vertex 3.0308 14.7602 0.517637
      vertex 3.33987e-15 15.0415 0.517637
      vertex 3.38058e-15 15.2248 0.961018
    endloop
  endfacet
  facet normal 0.0854622 0.920887 -0.380346
    outer loop
      vertex 3.07098 14.9559 0.999999
      vertex 3.38058e-15 15.2248 0.961018
      vertex 3.38416e-15 15.2409 0.999999
    endloop
  endfacet
  facet normal 0.0854545 0.920751 -0.380678
    outer loop
      vertex 3.38058e-15 15.2248 0.961018
      vertex 3.07098 14.9559 0.999999
      vertex 3.0308 14.7602 0.517637
    endloop
  endfacet
  facet normal 0.0916258 0.987297 -0.129805
    outer loop
      vertex 3.01709 14.6934 0
      vertex 3.32477e-15 14.9734 0
      vertex 3.33866e-15 15.036 0.476136
    endloop
  endfacet
  facet normal 0.0916223 0.987163 -0.130826
    outer loop
      vertex 3.0308 14.7602 0.517637
      vertex 3.33866e-15 15.036 0.476136
      vertex 3.33987e-15 15.0415 0.517637
    endloop
  endfacet
  facet normal 0.0916206 0.987294 -0.129835
    outer loop
      vertex 3.33866e-15 15.036 0.476136
      vertex 3.0308 14.7602 0.517637
      vertex 3.01709 14.6934 0
    endloop
  endfacet
  facet normal -0.304826 -0.943517 -0.129833
    outer loop
      vertex 7.76276 17.2672 0.517637
      vertex 3.80794 18.5449 0.517637
      vertex 3.82165 18.6117 0
    endloop
  endfacet
  facet normal -0.304855 -0.943532 -0.129655
    outer loop
      vertex 7.76276 17.2672 0.517637
      vertex 3.82165 18.6117 0
      vertex 7.79071 17.3293 0
    endloop
  endfacet
  facet normal -0.284297 -0.879919 -0.380681
    outer loop
      vertex 7.68084 17.0849 0.999999
      vertex 3.76775 18.3492 0.999999
      vertex 3.80794 18.5449 0.517637
    endloop
  endfacet
  facet normal -0.284264 -0.879874 -0.380809
    outer loop
      vertex 7.68084 17.0849 0.999999
      vertex 3.80794 18.5449 0.517637
      vertex 7.76276 17.2672 0.517637
    endloop
  endfacet
  facet normal -0.24448 -0.756649 -0.606392
    outer loop
      vertex 7.55051 16.795 1.41421
      vertex 3.70382 18.0379 1.41421
      vertex 3.76775 18.3492 0.999999
    endloop
  endfacet
  facet normal -0.244456 -0.756607 -0.606455
    outer loop
      vertex 7.55051 16.795 1.41421
      vertex 3.76775 18.3492 0.999999
      vertex 7.68084 17.0849 0.999999
    endloop
  endfacet
  facet normal -0.187864 -0.581446 -0.791598
    outer loop
      vertex 7.38067 16.4172 1.73205
      vertex 3.62051 17.6321 1.73205
      vertex 3.70382 18.0379 1.41421
    endloop
  endfacet
  facet normal -0.187881 -0.581479 -0.79157
    outer loop
      vertex 7.38067 16.4172 1.73205
      vertex 3.70382 18.0379 1.41421
      vertex 7.55051 16.795 1.41421
    endloop
  endfacet
  facet normal -0.118261 -0.366036 -0.923056
    outer loop
      vertex 7.18289 15.9773 1.93185
      vertex 3.52348 17.1596 1.93185
      vertex 3.62051 17.6321 1.73205
    endloop
  endfacet
  facet normal -0.118275 -0.366064 -0.923043
    outer loop
      vertex 7.18289 15.9773 1.93185
      vertex 3.62051 17.6321 1.73205
      vertex 7.38067 16.4172 1.73205
    endloop
  endfacet
  facet normal -0.0403752 -0.124963 -0.99134
    outer loop
      vertex 6.97063 15.5052 2
      vertex 3.41937 16.6526 2
      vertex 3.52348 17.1596 1.93185
    endloop
  endfacet
  facet normal -0.0403707 -0.124954 -0.991341
    outer loop
      vertex 6.97063 15.5052 2
      vertex 3.52348 17.1596 1.93185
      vertex 7.18289 15.9773 1.93185
    endloop
  endfacet
  facet normal 0.0403654 0.12494 -0.991343
    outer loop
      vertex 6.75838 15.0331 1.93185
      vertex 3.31525 16.1455 1.93185
      vertex 3.41937 16.6526 2
    endloop
  endfacet
  facet normal 0.0403723 0.124954 -0.991341
    outer loop
      vertex 6.75838 15.0331 1.93185
      vertex 3.41937 16.6526 2
      vertex 6.97063 15.5052 2
    endloop
  endfacet
  facet normal 0.118264 0.366037 -0.923055
    outer loop
      vertex 6.5606 14.5931 1.73205
      vertex 3.21823 15.673 1.73205
      vertex 3.31525 16.1455 1.93185
    endloop
  endfacet
  facet normal 0.118248 0.366005 -0.92307
    outer loop
      vertex 6.5606 14.5931 1.73205
      vertex 3.31525 16.1455 1.93185
      vertex 6.75838 15.0331 1.93185
    endloop
  endfacet
  facet normal 0.187898 0.581525 -0.791532
    outer loop
      vertex 6.39075 14.2153 1.41421
      vertex 3.13491 15.2673 1.41421
      vertex 3.21823 15.673 1.73205
    endloop
  endfacet
  facet normal 0.187873 0.581479 -0.791572
    outer loop
      vertex 6.39075 14.2153 1.41421
      vertex 3.21823 15.673 1.73205
      vertex 6.5606 14.5931 1.73205
    endloop
  endfacet
  facet normal 0.244444 0.756568 -0.606508
    outer loop
      vertex 6.26043 13.9254 0.999999
      vertex 3.07098 14.9559 0.999999
      vertex 3.13491 15.2673 1.41421
    endloop
  endfacet
  facet normal 0.244468 0.756605 -0.606452
    outer loop
      vertex 6.26043 13.9254 0.999999
      vertex 3.13491 15.2673 1.41421
      vertex 6.39075 14.2153 1.41421
    endloop
  endfacet
  facet normal 0.284296 0.879921 -0.380676
    outer loop
      vertex 6.1785 13.7432 0.517637
      vertex 3.0308 14.7602 0.517637
      vertex 3.07098 14.9559 0.999999
    endloop
  endfacet
  facet normal 0.284301 0.879927 -0.380659
    outer loop
      vertex 6.1785 13.7432 0.517637
      vertex 3.07098 14.9559 0.999999
      vertex 6.26043 13.9254 0.999999
    endloop
  endfacet
  facet normal 0.304842 0.943512 -0.129832
    outer loop
      vertex 6.15056 13.681 0
      vertex 3.01709 14.6934 0
      vertex 3.0308 14.7602 0.517637
    endloop
  endfacet
  facet normal 0.304842 0.943513 -0.129828
    outer loop
      vertex 6.15056 13.681 0
      vertex 3.0308 14.7602 0.517637
      vertex 6.1785 13.7432 0.517637
    endloop
  endfacet
  facet normal -0.503392 -0.854273 -0.129667
    outer loop
      vertex 11.3435 15.1572 0.517637
      vertex 7.76276 17.2672 0.517637
      vertex 7.79071 17.3293 0
    endloop
  endfacet
  facet normal -0.503372 -0.854268 -0.129783
    outer loop
      vertex 11.3435 15.1572 0.517637
      vertex 7.79071 17.3293 0
      vertex 11.3843 15.2118 0
    endloop
  endfacet
  facet normal -0.469423 -0.79664 -0.380798
    outer loop
      vertex 11.2238 14.9972 0.999999
      vertex 7.68084 17.0849 0.999999
      vertex 7.76276 17.2672 0.517637
    endloop
  endfacet
  facet normal -0.46944 -0.796655 -0.380745
    outer loop
      vertex 11.2238 14.9972 0.999999
      vertex 7.76276 17.2672 0.517637
      vertex 11.3435 15.1572 0.517637
    endloop
  endfacet
  facet normal -0.403652 -0.685038 -0.606455
    outer loop
      vertex 11.0333 14.7428 1.41421
      vertex 7.55051 16.795 1.41421
      vertex 7.68084 17.0849 0.999999
    endloop
  endfacet
  facet normal -0.403677 -0.685065 -0.606408
    outer loop
      vertex 11.0333 14.7428 1.41421
      vertex 7.68084 17.0849 0.999999
      vertex 11.2238 14.9972 0.999999
    endloop
  endfacet
  facet normal -0.310232 -0.526475 -0.791568
    outer loop
      vertex 10.7851 14.4111 1.73205
      vertex 7.38067 16.4172 1.73205
      vertex 7.55051 16.795 1.41421
    endloop
  endfacet
  facet normal -0.310193 -0.526429 -0.791614
    outer loop
      vertex 10.7851 14.4111 1.73205
      vertex 7.55051 16.795 1.41421
      vertex 11.0333 14.7428 1.41421
    endloop
  endfacet
  facet normal -0.195297 -0.331435 -0.923044
    outer loop
      vertex 10.4961 14.025 1.93185
      vertex 7.18289 15.9773 1.93185
      vertex 7.38067 16.4172 1.73205
    endloop
  endfacet
  facet normal -0.195315 -0.331457 -0.923032
    outer loop
      vertex 10.4961 14.025 1.93185
      vertex 7.38067 16.4172 1.73205
      vertex 10.7851 14.4111 1.73205
    endloop
  endfacet
  facet normal -0.0666646 -0.113132 -0.991341
    outer loop
      vertex 10.186 13.6105 2
      vertex 6.97063 15.5052 2
      vertex 7.18289 15.9773 1.93185
    endloop
  endfacet
  facet normal -0.0666575 -0.113123 -0.991343
    outer loop
      vertex 10.186 13.6105 2
      vertex 7.18289 15.9773 1.93185
      vertex 10.4961 14.025 1.93185
    endloop
  endfacet
  facet normal 0.0666658 0.113133 -0.991341
    outer loop
      vertex 9.8758 13.1961 1.93185
      vertex 6.75838 15.0331 1.93185
      vertex 6.97063 15.5052 2
    endloop
  endfacet
  facet normal 0.0666632 0.11313 -0.991341
    outer loop
      vertex 9.8758 13.1961 1.93185
      vertex 6.97063 15.5052 2
      vertex 10.186 13.6105 2
    endloop
  endfacet
  facet normal 0.19527 0.331383 -0.923068
    outer loop
      vertex 9.58679 12.8099 1.73205
      vertex 6.5606 14.5931 1.73205
      vertex 6.75838 15.0331 1.93185
    endloop
  endfacet
  facet normal 0.195285 0.331402 -0.923058
    outer loop
      vertex 9.58679 12.8099 1.73205
      vertex 6.75838 15.0331 1.93185
      vertex 9.8758 13.1961 1.93185
    endloop
  endfacet
  facet normal 0.310222 0.526475 -0.791572
    outer loop
      vertex 9.3386 12.4783 1.41421
      vertex 6.39075 14.2153 1.41421
      vertex 6.5606 14.5931 1.73205
    endloop
  endfacet
  facet normal 0.310242 0.526498 -0.791549
    outer loop
      vertex 9.3386 12.4783 1.41421
      vertex 6.5606 14.5931 1.73205
      vertex 9.58679 12.8099 1.73205
    endloop
  endfacet
  facet normal 0.40366 0.685039 -0.606449
    outer loop
      vertex 9.14816 12.2238 0.999999
      vertex 6.26043 13.9254 0.999999
      vertex 6.39075 14.2153 1.41421
    endloop
  endfacet
  facet normal 0.403646 0.685024 -0.606476
    outer loop
      vertex 9.14816 12.2238 0.999999
      vertex 6.39075 14.2153 1.41421
      vertex 9.3386 12.4783 1.41421
    endloop
  endfacet
  facet normal 0.469443 0.796691 -0.380666
    outer loop
      vertex 9.02844 12.0639 0.517637
      vertex 6.1785 13.7432 0.517637
      vertex 6.26043 13.9254 0.999999
    endloop
  endfacet
  facet normal 0.469459 0.796704 -0.38062
    outer loop
      vertex 9.02844 12.0639 0.517637
      vertex 6.26043 13.9254 0.999999
      vertex 9.14816 12.2238 0.999999
    endloop
  endfacet
  facet normal 0.503366 0.854265 -0.129819
    outer loop
      vertex 8.98761 12.0093 0
      vertex 6.15056 13.681 0
      vertex 6.1785 13.7432 0.517637
    endloop
  endfacet
  facet normal 0.503368 0.854266 -0.129812
    outer loop
      vertex 8.98761 12.0093 0
      vertex 6.1785 13.7432 0.517637
      vertex 9.02844 12.0639 0.517637
    endloop
  endfacet
  facet normal -0.677654 -0.723842 -0.129763
    outer loop
      vertex 14.3775 12.3168 0.517637
      vertex 11.3435 15.1572 0.517637
      vertex 11.3843 15.2118 0
    endloop
  endfacet
  facet normal -0.677654 -0.723842 -0.12976
    outer loop
      vertex 14.3775 12.3168 0.517637
      vertex 11.3843 15.2118 0
      vertex 14.4293 12.3611 0
    endloop
  endfacet
  facet normal -0.631954 -0.675038 -0.380733
    outer loop
      vertex 14.2258 12.1868 0.999999
      vertex 11.2238 14.9972 0.999999
      vertex 11.3435 15.1572 0.517637
    endloop
  endfacet
  facet normal -0.631974 -0.675048 -0.380682
    outer loop
      vertex 14.2258 12.1868 0.999999
      vertex 11.3435 15.1572 0.517637
      vertex 14.3775 12.3168 0.517637
    endloop
  endfacet
  facet normal -0.543422 -0.580459 -0.606432
    outer loop
      vertex 13.9844 11.98 1.41421
      vertex 11.0333 14.7428 1.41421
      vertex 11.2238 14.9972 0.999999
    endloop
  endfacet
  facet normal -0.543393 -0.580439 -0.606478
    outer loop
      vertex 13.9844 11.98 1.41421
      vertex 11.2238 14.9972 0.999999
      vertex 14.2258 12.1868 0.999999
    endloop
  endfacet
  facet normal -0.417594 -0.446061 -0.791609
    outer loop
      vertex 13.6698 11.7105 1.73205
      vertex 10.7851 14.4111 1.73205
      vertex 11.0333 14.7428 1.41421
    endloop
  endfacet
  facet normal -0.417614 -0.446076 -0.79159
    outer loop
      vertex 13.6698 11.7105 1.73205
      vertex 11.0333 14.7428 1.41421
      vertex 13.9844 11.98 1.41421
    endloop
  endfacet
  facet normal -0.262931 -0.280848 -0.923034
    outer loop
      vertex 13.3035 11.3967 1.93185
      vertex 10.4961 14.025 1.93185
      vertex 10.7851 14.4111 1.73205
    endloop
  endfacet
  facet normal -0.262904 -0.280826 -0.923048
    outer loop
      vertex 13.3035 11.3967 1.93185
      vertex 10.7851 14.4111 1.73205
      vertex 13.6698 11.7105 1.73205
    endloop
  endfacet
  facet normal -0.0897396 -0.0958545 -0.991342
    outer loop
      vertex 12.9104 11.0599 2
      vertex 10.186 13.6105 2
      vertex 10.4961 14.025 1.93185
    endloop
  endfacet
  facet normal -0.0897389 -0.0958539 -0.991342
    outer loop
      vertex 12.9104 11.0599 2
      vertex 10.4961 14.025 1.93185
      vertex 13.3035 11.3967 1.93185
    endloop
  endfacet
  facet normal 0.0897385 0.0958568 -0.991342
    outer loop
      vertex 12.5173 10.7232 1.93185
      vertex 9.8758 13.1961 1.93185
      vertex 10.186 13.6105 2
    endloop
  endfacet
  facet normal 0.0897515 0.0958672 -0.99134
    outer loop
      vertex 12.5173 10.7232 1.93185
      vertex 10.186 13.6105 2
      vertex 12.9104 11.0599 2
    endloop
  endfacet
  facet normal 0.262886 0.280814 -0.923057
    outer loop
      vertex 12.151 10.4094 1.73205
      vertex 9.58679 12.8099 1.73205
      vertex 9.8758 13.1961 1.93185
    endloop
  endfacet
  facet normal 0.262903 0.280827 -0.923048
    outer loop
      vertex 12.151 10.4094 1.73205
      vertex 9.8758 13.1961 1.93185
      vertex 12.5173 10.7232 1.93185
    endloop
  endfacet
  facet normal 0.417645 0.446114 -0.791552
    outer loop
      vertex 11.8364 10.1399 1.41421
      vertex 9.3386 12.4783 1.41421
      vertex 9.58679 12.8099 1.73205
    endloop
  endfacet
  facet normal 0.417605 0.446085 -0.791589
    outer loop
      vertex 11.8364 10.1399 1.41421
      vertex 9.58679 12.8099 1.73205
      vertex 12.151 10.4094 1.73205
    endloop
  endfacet
  facet normal 0.543401 0.580438 -0.606471
    outer loop
      vertex 11.595 9.93309 0.999999
      vertex 9.14816 12.2238 0.999999
      vertex 9.3386 12.4783 1.41421
    endloop
  endfacet
  facet normal 0.54339 0.580431 -0.606487
    outer loop
      vertex 11.595 9.93309 0.999999
      vertex 9.3386 12.4783 1.41421
      vertex 11.8364 10.1399 1.41421
    endloop
  endfacet
  facet normal 0.63199 0.67506 -0.380635
    outer loop
      vertex 11.4433 9.80311 0.517637
      vertex 9.02844 12.0639 0.517637
      vertex 9.14816 12.2238 0.999999
    endloop
  endfacet
  facet normal 0.631981 0.675055 -0.380658
    outer loop
      vertex 11.4433 9.80311 0.517637
      vertex 9.14816 12.2238 0.999999
      vertex 11.595 9.93309 0.999999
    endloop
  endfacet
  facet normal 0.677655 0.723833 -0.129801
    outer loop
      vertex 11.3915 9.75877 0
      vertex 8.98761 12.0093 0
      vertex 9.02844 12.0639 0.517637
    endloop
  endfacet
  facet normal 0.677652 0.723834 -0.129815
    outer loop
      vertex 11.3915 9.75877 0
      vertex 9.02844 12.0639 0.517637
      vertex 11.4433 9.80311 0.517637
    endloop
  endfacet
  facet normal -0.819273 -0.558523 -0.129784
    outer loop
      vertex 16.7186 8.88274 0.517637
      vertex 14.3775 12.3168 0.517637
      vertex 14.4293 12.3611 0
    endloop
  endfacet
  facet normal -0.819273 -0.558523 -0.129786
    outer loop
      vertex 16.7186 8.88274 0.517637
      vertex 14.4293 12.3611 0
      vertex 16.7788 8.91472 0
    endloop
  endfacet
  facet normal -0.764051 -0.52088 -0.38067
    outer loop
      vertex 16.5422 8.789 0.999999
      vertex 14.2258 12.1868 0.999999
      vertex 14.3775 12.3168 0.517637
    endloop
  endfacet
  facet normal -0.764062 -0.520884 -0.380644
    outer loop
      vertex 16.5422 8.789 0.999999
      vertex 14.3775 12.3168 0.517637
      vertex 16.7186 8.88274 0.517637
    endloop
  endfacet
  facet normal -0.656957 -0.447874 -0.606478
    outer loop
      vertex 16.2615 8.63987 1.41421
      vertex 13.9844 11.98 1.41421
      vertex 14.2258 12.1868 0.999999
    endloop
  endfacet
  facet normal -0.656969 -0.447879 -0.606462
    outer loop
      vertex 16.2615 8.63987 1.41421
      vertex 14.2258 12.1868 0.999999
      vertex 16.5422 8.789 0.999999
    endloop
  endfacet
  facet normal -0.504883 -0.344204 -0.791591
    outer loop
      vertex 15.8957 8.44552 1.73205
      vertex 13.6698 11.7105 1.73205
      vertex 13.9844 11.98 1.41421
    endloop
  endfacet
  facet normal -0.504907 -0.344215 -0.791571
    outer loop
      vertex 15.8957 8.44552 1.73205
      vertex 13.9844 11.98 1.41421
      vertex 16.2615 8.63987 1.41421
    endloop
  endfacet
  facet normal -0.31785 -0.216688 -0.923048
    outer loop
      vertex 15.4697 8.2192 1.93185
      vertex 13.3035 11.3967 1.93185
      vertex 13.6698 11.7105 1.73205
    endloop
  endfacet
  facet normal -0.317818 -0.216673 -0.923063
    outer loop
      vertex 15.4697 8.2192 1.93185
      vertex 13.6698 11.7105 1.73205
      vertex 15.8957 8.44552 1.73205
    endloop
  endfacet
  facet normal -0.108493 -0.0739645 -0.991342
    outer loop
      vertex 15.0126 7.97633 2
      vertex 12.9104 11.0599 2
      vertex 13.3035 11.3967 1.93185
    endloop
  endfacet
  facet normal -0.1085 -0.0739678 -0.991341
    outer loop
      vertex 15.0126 7.97633 2
      vertex 13.3035 11.3967 1.93185
      vertex 15.4697 8.2192 1.93185
    endloop
  endfacet
  facet normal 0.108506 0.0739715 -0.99134
    outer loop
      vertex 14.5555 7.73345 1.93185
      vertex 12.5173 10.7232 1.93185
      vertex 12.9104 11.0599 2
    endloop
  endfacet
  facet normal 0.108498 0.0739679 -0.991341
    outer loop
      vertex 14.5555 7.73345 1.93185
      vertex 12.9104 11.0599 2
      vertex 15.0126 7.97633 2
    endloop
  endfacet
  facet normal 0.317854 0.216683 -0.923048
    outer loop
      vertex 14.1295 7.50713 1.73205
      vertex 12.151 10.4094 1.73205
      vertex 12.5173 10.7232 1.93185
    endloop
  endfacet
  facet normal 0.317821 0.216668 -0.923063
    outer loop
      vertex 14.1295 7.50713 1.73205
      vertex 12.5173 10.7232 1.93185
      vertex 14.5555 7.73345 1.93185
    endloop
  endfacet
  facet normal 0.504891 0.344194 -0.79159
    outer loop
      vertex 13.7637 7.31278 1.41421
      vertex 11.8364 10.1399 1.41421
      vertex 12.151 10.4094 1.73205
    endloop
  endfacet
  facet normal 0.504913 0.344203 -0.791572
    outer loop
      vertex 13.7637 7.31278 1.41421
      vertex 12.151 10.4094 1.73205
      vertex 14.1295 7.50713 1.73205
    endloop
  endfacet
  facet normal 0.656957 0.447866 -0.606485
    outer loop
      vertex 13.483 7.16366 0.999999
      vertex 11.595 9.93309 0.999999
      vertex 11.8364 10.1399 1.41421
    endloop
  endfacet
  facet normal 0.656978 0.447874 -0.606456
    outer loop
      vertex 13.483 7.16366 0.999999
      vertex 11.8364 10.1399 1.41421
      vertex 13.7637 7.31278 1.41421
    endloop
  endfacet
  facet normal 0.76406 0.520881 -0.380652
    outer loop
      vertex 13.3066 7.06991 0.517637
      vertex 11.4433 9.80311 0.517637
      vertex 11.595 9.93309 0.999999
    endloop
  endfacet
  facet normal 0.764059 0.520881 -0.380653
    outer loop
      vertex 13.3066 7.06991 0.517637
      vertex 11.595 9.93309 0.999999
      vertex 13.483 7.16366 0.999999
    endloop
  endfacet
  facet normal 0.819264 0.558526 -0.129826
    outer loop
      vertex 13.2464 7.03794 0
      vertex 11.3915 9.75877 0
      vertex 11.4433 9.80311 0.517637
    endloop
  endfacet
  facet normal 0.819275 0.558523 -0.129775
    outer loop
      vertex 13.2464 7.03794 0
      vertex 11.4433 9.80311 0.517637
      vertex 13.3066 7.06991 0.517637
    endloop
  endfacet
  facet normal -0.921399 -0.366304 -0.129787
    outer loop
      vertex 18.1366 5.3305 0.476445
      vertex 16.7186 8.88274 0.517637
      vertex 16.7788 8.91472 0
    endloop
  endfacet
  facet normal -0.921384 -0.366296 -0.129919
    outer loop
      vertex 16.7186 8.88274 0.517637
      vertex 18.1366 5.3305 0.476445
      vertex 18.1314 5.32897 0.517637
    endloop
  endfacet
  facet normal -0.921396 -0.366305 -0.129805
    outer loop
      vertex 18.1366 5.3305 0.476445
      vertex 16.7788 8.91472 0
      vertex 18.1967 5.34816 0
    endloop
  endfacet
  facet normal -0.85931 -0.341615 -0.380638
    outer loop
      vertex 17.9552 5.27718 0.961862
      vertex 16.5422 8.789 0.999999
      vertex 16.7186 8.88274 0.517637
    endloop
  endfacet
  facet normal -0.859488 -0.341691 -0.380167
    outer loop
      vertex 16.5422 8.789 0.999999
      vertex 17.9552 5.27718 0.961862
      vertex 17.9401 5.27273 1
    endloop
  endfacet
  facet normal -0.859311 -0.341619 -0.380633
    outer loop
      vertex 18.0111 5.29361 0.82096
      vertex 16.7186 8.88274 0.517637
      vertex 18.1314 5.32897 0.517637
    endloop
  endfacet
  facet normal -0.85927 -0.341612 -0.380732
    outer loop
      vertex 16.7186 8.88274 0.517637
      vertex 18.0111 5.29361 0.82096
      vertex 17.9552 5.27718 0.961862
    endloop
  endfacet
  facet normal -0.738864 -0.293737 -0.606464
    outer loop
      vertex 17.6596 5.1903 1.38166
      vertex 16.2615 8.63987 1.41421
      vertex 16.5422 8.789 0.999999
    endloop
  endfacet
  facet normal -0.739091 -0.293832 -0.606142
    outer loop
      vertex 16.2615 8.63987 1.41421
      vertex 17.6596 5.1903 1.38166
      vertex 17.6357 5.18327 1.41421
    endloop
  endfacet
  facet normal -0.738863 -0.293737 -0.606466
    outer loop
      vertex 17.6596 5.1903 1.38166
      vertex 16.5422 8.789 0.999999
      vertex 17.9401 5.27273 1
    endloop
  endfacet
  facet normal -0.56804 -0.225831 -0.791411
    outer loop
      vertex 15.8957 8.44552 1.73205
      vertex 17.27 5.07579 1.7072
      vertex 17.239 5.06668 1.73205
    endloop
  endfacet
  facet normal -0.567847 -0.225751 -0.791572
    outer loop
      vertex 17.27 5.07579 1.7072
      vertex 15.8957 8.44552 1.73205
      vertex 16.2615 8.63987 1.41421
    endloop
  endfacet
  facet normal -0.567601 -0.225655 -0.791776
    outer loop
      vertex 17.5485 5.15766 1.48402
      vertex 16.2615 8.63987 1.41421
      vertex 17.6357 5.18327 1.41421
    endloop
  endfacet
  facet normal -0.567922 -0.225768 -0.791513
    outer loop
      vertex 16.2615 8.63987 1.41421
      vertex 17.5485 5.15766 1.48402
      vertex 17.27 5.07579 1.7072
    endloop
  endfacet
  facet normal -0.357291 -0.142045 -0.923129
    outer loop
      vertex 15.4697 8.2192 1.93185
      vertex 16.813 4.94147 1.91629
      vertex 16.777 4.9309 1.93185
    endloop
  endfacet
  facet normal -0.357435 -0.142104 -0.923064
    outer loop
      vertex 16.813 4.94147 1.91629
      vertex 15.4697 8.2192 1.93185
      vertex 15.8957 8.44552 1.73205
    endloop
  endfacet
  facet normal -0.357445 -0.142107 -0.92306
    outer loop
      vertex 16.813 4.94147 1.91629
      vertex 15.8957 8.44552 1.73205
      vertex 17.239 5.06668 1.73205
    endloop
  endfacet
  facet normal -0.121959 -0.0484833 -0.99135
    outer loop
      vertex 15.0126 7.97633 2
      vertex 16.3197 4.79651 1.99471
      vertex 16.2812 4.78519 2
    endloop
  endfacet
  facet normal -0.122026 -0.0485109 -0.991341
    outer loop
      vertex 16.3197 4.79651 1.99471
      vertex 15.0126 7.97633 2
      vertex 15.4697 8.2192 1.93185
    endloop
  endfacet
  facet normal -0.122014 -0.0485078 -0.991342
    outer loop
      vertex 16.3197 4.79651 1.99471
      vertex 15.4697 8.2192 1.93185
      vertex 16.777 4.9309 1.93185
    endloop
  endfacet
  facet normal 0.121981 0.0484932 -0.991347
    outer loop
      vertex 14.5555 7.73345 1.93185
      vertex 15.824 4.65079 1.93714
      vertex 15.7855 4.63949 1.93185
    endloop
  endfacet
  facet normal 0.122025 0.0485114 -0.991341
    outer loop
      vertex 15.824 4.65079 1.93714
      vertex 14.5555 7.73345 1.93185
      vertex 15.0126 7.97633 2
    endloop
  endfacet
  facet normal 0.122037 0.0485143 -0.991339
    outer loop
      vertex 15.824 4.65079 1.93714
      vertex 15.0126 7.97633 2
      vertex 16.2812 4.78519 2
    endloop
  endfacet
  facet normal 0.357327 0.142054 -0.923113
    outer loop
      vertex 14.1295 7.50713 1.73205
      vertex 15.3594 4.51426 1.74757
      vertex 15.3235 4.50371 1.73205
    endloop
  endfacet
  facet normal 0.357437 0.1421 -0.923064
    outer loop
      vertex 15.3594 4.51426 1.74757
      vertex 14.1295 7.50713 1.73205
      vertex 14.5555 7.73345 1.93185
    endloop
  endfacet
  facet normal 0.357443 0.142101 -0.923061
    outer loop
      vertex 15.3594 4.51426 1.74757
      vertex 14.5555 7.73345 1.93185
      vertex 15.7855 4.63949 1.93185
    endloop
  endfacet
  facet normal 0.568046 0.225828 -0.791407
    outer loop
      vertex 13.7637 7.31278 1.41421
      vertex 14.9577 4.3962 1.43898
      vertex 14.9268 4.38712 1.41421
    endloop
  endfacet
  facet normal 0.56785 0.225746 -0.791572
    outer loop
      vertex 14.9577 4.3962 1.43898
      vertex 13.7637 7.31278 1.41421
      vertex 14.1295 7.50713 1.73205
    endloop
  endfacet
  facet normal 0.567844 0.225745 -0.791576
    outer loop
      vertex 14.9577 4.3962 1.43898
      vertex 14.1295 7.50713 1.73205
      vertex 15.3235 4.50371 1.73205
    endloop
  endfacet
  facet normal 0.738861 0.293752 -0.60646
    outer loop
      vertex 14.6463 4.30466 1.03245
      vertex 13.483 7.16366 0.999999
      vertex 13.7637 7.31278 1.41421
    endloop
  endfacet
  facet normal 0.738336 0.29353 -0.607207
    outer loop
      vertex 13.483 7.16366 0.999999
      vertex 14.6463 4.30466 1.03245
      vertex 14.6224 4.29765 1
    endloop
  endfacet
  facet normal 0.738924 0.29376 -0.60638
    outer loop
      vertex 14.6463 4.30466 1.03245
      vertex 13.7637 7.31278 1.41421
      vertex 14.9268 4.38712 1.41421
    endloop
  endfacet
  facet normal 0.859302 0.341628 -0.380645
    outer loop
      vertex 14.4462 4.24585 0.555685
      vertex 13.3066 7.06991 0.517637
      vertex 13.483 7.16366 0.999999
    endloop
  endfacet
  facet normal 0.859221 0.341592 -0.380859
    outer loop
      vertex 13.3066 7.06991 0.517637
      vertex 14.4462 4.24585 0.555685
      vertex 14.4311 4.24141 0.517637
    endloop
  endfacet
  facet normal 0.85932 0.341628 -0.380605
    outer loop
      vertex 14.4462 4.24585 0.555685
      vertex 13.483 7.16366 0.999999
      vertex 14.6224 4.29765 1
    endloop
  endfacet
  facet normal 0.921398 0.366309 -0.12978
    outer loop
      vertex 14.371 4.22375 0.0411562
      vertex 13.2464 7.03794 0
      vertex 13.3066 7.06991 0.517637
    endloop
  endfacet
  facet normal 0.921379 0.366299 -0.129943
    outer loop
      vertex 13.2464 7.03794 0
      vertex 14.371 4.22375 0.0411562
      vertex 14.3658 4.22223 0
    endloop
  endfacet
  facet normal 0.921396 0.366311 -0.129795
    outer loop
      vertex 14.371 4.22375 0.0411562
      vertex 13.3066 7.06991 0.517637
      vertex 14.4311 4.24141 0.517637
    endloop
  endfacet
  facet normal 0 0 -1
    outer loop
      vertex 16.7788 8.91472 0
      vertex 18.3454 5.39186 0
      vertex 18.1967 5.34816 0
    endloop
  endfacet
  facet normal 0 0 -1
    outer loop
      vertex 18.3454 5.39186 0
      vertex 16.7788 8.91472 0
      vertex 19.1884 5.63963 0
    endloop
  endfacet
  facet normal 0 0 -1
    outer loop
      vertex 19.1884 5.63963 0
      vertex 16.7788 8.91472 0
      vertex 17.5515 9.58878 0
    endloop
  endfacet
  facet normal 0 0 -1
    outer loop
      vertex 14.4293 12.3611 0
      vertex 17.5515 9.58878 0
      vertex 16.7788 8.91472 0
    endloop
  endfacet
  facet normal 0 0 -1
    outer loop
      vertex 17.5515 9.58878 0
      vertex 14.4293 12.3611 0
      vertex 15.1127 13.0998 0
    endloop
  endfacet
  facet normal 0 0 -1
    outer loop
      vertex 11.3843 15.2118 0
      vertex 15.1127 13.0998 0
      vertex 14.4293 12.3611 0
    endloop
  endfacet
  facet normal 0 0 -1
    outer loop
      vertex 15.1127 13.0998 0
      vertex 11.3843 15.2118 0
      vertex 11.9835 16.0124 0
    endloop
  endfacet
  facet normal 0 0 -1
    outer loop
      vertex 11.3843 15.2118 0
      vertex 8.30673 18.1934 0
      vertex 11.9835 16.0124 0
    endloop
  endfacet
  facet normal 0 0 -1
    outer loop
      vertex 7.79071 17.3293 0
      vertex 8.30673 18.1934 0
      vertex 11.3843 15.2118 0
    endloop
  endfacet
  facet normal 0 0 -1
    outer loop
      vertex 7.79071 17.3293 0
      vertex 4.25046 19.5431 0
      vertex 8.30673 18.1934 0
    endloop
  endfacet
  facet normal 0 0 -1
    outer loop
      vertex 3.82165 18.6117 0
      vertex 4.25046 19.5431 0
      vertex 7.79071 17.3293 0
    endloop
  endfacet
  facet normal 0 0 -1
    outer loop
      vertex 3.82165 18.6117 0
      vertex 4.44089e-15 20 0
      vertex 4.25046 19.5431 0
    endloop
  endfacet
  facet normal 0 -0 -1
    outer loop
      vertex 4.44089e-15 20 0
      vertex 3.82165 18.6117 0
      vertex 4.21137e-15 18.9663 0
    endloop
  endfacet
  facet normal 0 0 -1
    outer loop
      vertex 14.007 4.11676 0
      vertex 13.2464 7.03794 0
      vertex 14.3658 4.22223 0
    endloop
  endfacet
  facet normal 0 0 -1
    outer loop
      vertex 13.4319 3.94774 0
      vertex 13.2464 7.03794 0
      vertex 14.007 4.11676 0
    endloop
  endfacet
  facet normal 0 0 -1
    outer loop
      vertex 12.2861 6.71215 0
      vertex 13.2464 7.03794 0
      vertex 13.4319 3.94774 0
    endloop
  endfacet
  facet normal 0 0 -1
    outer loop
      vertex 12.2861 6.71215 0
      vertex 11.3915 9.75877 0
      vertex 13.2464 7.03794 0
    endloop
  endfacet
  facet normal 0 0 -1
    outer loop
      vertex 10.5789 9.16988 0
      vertex 11.3915 9.75877 0
      vertex 12.2861 6.71215 0
    endloop
  endfacet
  facet normal 0 0 -1
    outer loop
      vertex 10.5789 9.16988 0
      vertex 8.98761 12.0093 0
      vertex 11.3915 9.75877 0
    endloop
  endfacet
  facet normal 0 0 -1
    outer loop
      vertex 8.38844 11.2087 0
      vertex 8.98761 12.0093 0
      vertex 10.5789 9.16988 0
    endloop
  endfacet
  facet normal 0 0 -1
    outer loop
      vertex 5.81471 12.7354 0
      vertex 8.98761 12.0093 0
      vertex 8.38844 11.2087 0
    endloop
  endfacet
  facet normal 0 0 -1
    outer loop
      vertex 8.98761 12.0093 0
      vertex 5.81471 12.7354 0
      vertex 6.15056 13.681 0
    endloop
  endfacet
  facet normal 0 0 -1
    outer loop
      vertex 2.97532 13.6802 0
      vertex 6.15056 13.681 0
      vertex 5.81471 12.7354 0
    endloop
  endfacet
  facet normal -0 0 -1
    outer loop
      vertex 6.15056 13.681 0
      vertex 2.97532 13.6802 0
      vertex 3.01709 14.6934 0
    endloop
  endfacet
  facet normal 0 0 -1
    outer loop
      vertex 3.10863e-15 14 0
      vertex 3.01709 14.6934 0
      vertex 2.97532 13.6802 0
    endloop
  endfacet
  facet normal -0 0 -1
    outer loop
      vertex 3.01709 14.6934 0
      vertex 3.10863e-15 14 0
      vertex 3.32477e-15 14.9734 0
    endloop
  endfacet
endsolid OpenSCAD_Model
