solid OpenSCAD_Model
  facet normal -1 -2.22046e-16 1.29315e-21
    outer loop
      vertex 4.45293e-16 -2.00542 0.0652452
      vertex 2.52314e-16 -1.13632 1.03528
      vertex 2.2205e-16 -1.00003 0
    endloop
  endfacet
  facet normal -1 -2.22046e-16 -2.41385e-21
    outer loop
      vertex 4.45293e-16 -2.00542 0.0652452
      vertex 2.2205e-16 -1.00003 0
      vertex 4.43388e-16 -1.99684 0
    endloop
  endfacet
  facet normal -1 -2.22045e-16 3.27007e-22
    outer loop
      vertex 2.52314e-16 -1.13632 1.03528
      vertex 4.45293e-16 -2.00542 0.0652452
      vertex 4.6605e-16 -2.0989 0.776457
    endloop
  endfacet
  facet normal -1 -2.22043e-16 -6.81135e-21
    outer loop
      vertex 4.71221e-16 -2.12219 0.832768
      vertex 2.52314e-16 -1.13632 1.03528
      vertex 4.6605e-16 -2.0989 0.776457
    endloop
  endfacet
  facet normal -1 -2.22045e-16 9.76636e-22
    outer loop
      vertex 2.52314e-16 -1.13632 1.03528
      vertex 4.71221e-16 -2.12219 0.832768
      vertex 3.41044e-16 -1.53592 2
    endloop
  endfacet
  facet normal -1 -2.22042e-16 -3.9043e-22
    outer loop
      vertex 5.32491e-16 -2.39813 1.5
      vertex 3.41044e-16 -1.53592 2
      vertex 4.71221e-16 -2.12219 0.832768
    endloop
  endfacet
  facet normal -1 -2.22058e-16 2.73062e-20
    outer loop
      vertex 5.40362e-16 -2.43357 1.54627
      vertex 3.41044e-16 -1.53592 2
      vertex 5.32491e-16 -2.39813 1.5
    endloop
  endfacet
  facet normal -1 -2.22044e-16 -9.34086e-22
    outer loop
      vertex 3.41044e-16 -1.53592 2
      vertex 5.40362e-16 -2.43357 1.54627
      vertex 4.82192e-16 -2.1716 2.82843
    endloop
  endfacet
  facet normal -1 -2.22046e-16 -5.08958e-22
    outer loop
      vertex 6.38184e-16 -2.87412 2.12132
      vertex 4.82192e-16 -2.1716 2.82843
      vertex 5.40362e-16 -2.43357 1.54627
    endloop
  endfacet
  facet normal -1 -2.2202e-16 -2.58655e-20
    outer loop
      vertex 6.48305e-16 -2.91971 2.15635
      vertex 4.82192e-16 -2.1716 2.82843
      vertex 6.38184e-16 -2.87412 2.12132
    endloop
  endfacet
  facet normal -1 -2.22044e-16 3.34866e-22
    outer loop
      vertex 6.48305e-16 -2.91971 2.15635
      vertex 6.6614e-16 -3.00003 3.4641
      vertex 4.82192e-16 -2.1716 2.82843
    endloop
  endfacet
  facet normal -1 -2.22044e-16 3.1816e-22
    outer loop
      vertex 7.75925e-16 -3.49446 2.59808
      vertex 6.6614e-16 -3.00003 3.4641
      vertex 6.48305e-16 -2.91971 2.15635
    endloop
  endfacet
  facet normal -1 -2.22055e-16 6.66233e-21
    outer loop
      vertex 7.87794e-16 -3.54791 2.62025
      vertex 6.6614e-16 -3.00003 3.4641
      vertex 7.75925e-16 -3.49446 2.59808
    endloop
  endfacet
  facet normal -1 -2.22045e-16 -1.20231e-22
    outer loop
      vertex 7.87794e-16 -3.54791 2.62025
      vertex 8.80351e-16 -3.96475 3.8637
      vertex 6.6614e-16 -3.00003 3.4641
    endloop
  endfacet
  facet normal -1 -2.22044e-16 2.33233e-22
    outer loop
      vertex 9.36328e-16 -4.21685 2.89778
      vertex 8.80351e-16 -3.96475 3.8637
      vertex 7.87794e-16 -3.54791 2.62025
    endloop
  endfacet
  facet normal -1 -2.22041e-16 -3.51895e-22
    outer loop
      vertex 9.49293e-16 -4.27524 2.90548
      vertex 8.80351e-16 -3.96475 3.8637
      vertex 9.36328e-16 -4.21685 2.89778
    endloop
  endfacet
  facet normal -1 -2.22043e-16 2.54132e-21
    outer loop
      vertex 1.11023e-15 -5.00003 4
      vertex 9.49293e-16 -4.27524 2.90548
      vertex 1.10846e-15 -4.99207 3
    endloop
  endfacet
  facet normal -1 -2.22045e-16 8.28495e-22
    outer loop
      vertex 9.49293e-16 -4.27524 2.90548
      vertex 1.11023e-15 -5.00003 4
      vertex 8.80351e-16 -3.96475 3.8637
    endloop
  endfacet
  facet normal -1 -2.22037e-16 2.58938e-21
    outer loop
      vertex 1.12172e-15 -5.05179 2.99213
      vertex 1.11023e-15 -5.00003 4
      vertex 1.10846e-15 -4.99207 3
    endloop
  endfacet
  facet normal -1 -2.22054e-16 -2.82495e-21
    outer loop
      vertex 1.34011e-15 -6.0353 3.8637
      vertex 1.12172e-15 -5.05179 2.99213
      vertex 1.2806e-15 -5.76729 2.89778
    endloop
  endfacet
  facet normal -1 -2.22029e-16 4.12909e-21
    outer loop
      vertex 1.34011e-15 -6.0353 3.8637
      vertex 1.2806e-15 -5.76729 2.89778
      vertex 1.29326e-15 -5.82431 2.87412
    endloop
  endfacet
  facet normal -1 -2.22049e-16 3.21943e-21
    outer loop
      vertex 1.12172e-15 -5.05179 2.99213
      vertex 1.34011e-15 -6.0353 3.8637
      vertex 1.11023e-15 -5.00003 4
    endloop
  endfacet
  facet normal -1 -2.22042e-16 8.63756e-22
    outer loop
      vertex 1.55432e-15 -7.00003 3.4641
      vertex 1.29326e-15 -5.82431 2.87412
      vertex 1.441e-15 -6.48968 2.59808
    endloop
  endfacet
  facet normal -1 -2.22014e-16 1.73991e-20
    outer loop
      vertex 1.55432e-15 -7.00003 3.4641
      vertex 1.441e-15 -6.48968 2.59808
      vertex 1.45214e-15 -6.53986 2.55951
    endloop
  endfacet
  facet normal -1 -2.22042e-16 1.37884e-21
    outer loop
      vertex 1.29326e-15 -5.82431 2.87412
      vertex 1.55432e-15 -7.00003 3.4641
      vertex 1.34011e-15 -6.0353 3.8637
    endloop
  endfacet
  facet normal -1 -2.22048e-16 2.12473e-21
    outer loop
      vertex 1.73827e-15 -7.82845 2.82843
      vertex 1.45214e-15 -6.53986 2.55951
      vertex 1.57874e-15 -7.11001 2.12132
    endloop
  endfacet
  facet normal -1 -2.22028e-16 2.34106e-20
    outer loop
      vertex 1.73827e-15 -7.82845 2.82843
      vertex 1.57874e-15 -7.11001 2.12132
      vertex 1.5875e-15 -7.14947 2.06982
    endloop
  endfacet
  facet normal -1 -2.22042e-16 5.53267e-22
    outer loop
      vertex 1.87941e-15 -8.46413 2
      vertex 1.5875e-15 -7.14947 2.06982
      vertex 1.68443e-15 -7.58601 1.5
    endloop
  endfacet
  facet normal -1 -2.22043e-16 -1.57256e-21
    outer loop
      vertex 1.87941e-15 -8.46413 2
      vertex 1.68443e-15 -7.58601 1.5
      vertex 1.69007e-15 -7.61141 1.43857
    endloop
  endfacet
  facet normal -1 -2.22049e-16 -3.03197e-22
    outer loop
      vertex 1.45214e-15 -6.53986 2.55951
      vertex 1.73827e-15 -7.82845 2.82843
      vertex 1.55432e-15 -7.00003 3.4641
    endloop
  endfacet
  facet normal -1 -2.22045e-16 3.96817e-21
    outer loop
      vertex 1.96814e-15 -8.86373 1.03528
      vertex 1.69007e-15 -7.61141 1.43857
      vertex 1.75087e-15 -7.88524 0.776457
    endloop
  endfacet
  facet normal -1 -2.22048e-16 -6.44472e-21
    outer loop
      vertex 1.96814e-15 -8.86373 1.03528
      vertex 1.75087e-15 -7.88524 0.776457
      vertex 1.75284e-15 -7.89411 0.708966
    endloop
  endfacet
  facet normal -1 -2.22043e-16 -1.09691e-20
    outer loop
      vertex 1.99841e-15 -9.00003 0
      vertex 1.75284e-15 -7.89411 0.708966
      vertex 1.77354e-15 -7.9873 0
    endloop
  endfacet
  facet normal -1 -2.22043e-16 9.79822e-21
    outer loop
      vertex 1.5875e-15 -7.14947 2.06982
      vertex 1.87941e-15 -8.46413 2
      vertex 1.73827e-15 -7.82845 2.82843
    endloop
  endfacet
  facet normal -1 -2.22043e-16 -1.51063e-21
    outer loop
      vertex 1.69007e-15 -7.61141 1.43857
      vertex 1.96814e-15 -8.86373 1.03528
      vertex 1.87941e-15 -8.46413 2
    endloop
  endfacet
  facet normal -1 -2.22047e-16 -4.77666e-21
    outer loop
      vertex 1.75284e-15 -7.89411 0.708966
      vertex 1.99841e-15 -9.00003 0
      vertex 1.96814e-15 -8.86373 1.03528
    endloop
  endfacet
  facet normal 0.0101594 0.999948 0
    outer loop
      vertex 8.86327 -0.0900183 1.03528
      vertex 8.99956 -0.091403 0
      vertex 8.86327 -0.0900183 0
    endloop
  endfacet
  facet normal 0.0101544 0.999948 -1.85187e-06
    outer loop
      vertex 7.82805 -0.079504 2.82843
      vertex 8.46369 -0.0859604 2
      vertex 6.99967 -0.0710907 3.4641
    endloop
  endfacet
  facet normal 0.010155 0.999948 0
    outer loop
      vertex 8.72698 -0.0886342 0
      vertex 8.86327 -0.0900183 1.03528
      vertex 8.86327 -0.0900183 0
    endloop
  endfacet
  facet normal 0.0101549 0.999948 1.37329e-08
    outer loop
      vertex 8.86327 -0.0900183 1.03528
      vertex 8.72698 -0.0886342 0
      vertex 8.46369 -0.0859604 2
    endloop
  endfacet
  facet normal 0.0101546 0.999948 -1.63384e-06
    outer loop
      vertex 6.99967 -0.0710907 3.4641
      vertex 8.46369 -0.0859604 2
      vertex 6.03499 -0.0612936 3.8637
    endloop
  endfacet
  facet normal 0.0101561 0.999948 3.22646e-07
    outer loop
      vertex 6.03499 -0.0612936 3.8637
      vertex 8.46369 -0.0859604 2
      vertex 4.99977 -0.0507793 4
    endloop
  endfacet
  facet normal 0.0101558 0.999948 1.24246e-06
    outer loop
      vertex 3.96455 -0.0402651 3.8637
      vertex 4.99977 -0.0507793 4
      vertex 2.99987 -0.030467 3.4641
    endloop
  endfacet
  facet normal 0.0101568 0.999948 2.47414e-07
    outer loop
      vertex 4.91239 -0.0498915 2.98953
      vertex 4.99977 -0.0507793 4
      vertex 4.99181 -0.0506982 3
    endloop
  endfacet
  facet normal 0.0101561 0.999948 2.53474e-07
    outer loop
      vertex 4.99977 -0.0507793 4
      vertex 5.68929 -0.0577822 2.90802
      vertex 4.99181 -0.0506982 3
    endloop
  endfacet
  facet normal 0.0101566 0.999948 5.63747e-07
    outer loop
      vertex 4.99977 -0.0507793 4
      vertex 5.76699 -0.0585714 2.89778
      vertex 5.68929 -0.0577822 2.90802
    endloop
  endfacet
  facet normal 0.0101559 0.999948 9.17736e-08
    outer loop
      vertex 4.99977 -0.0507793 4
      vertex 6.41864 -0.0651898 2.62741
      vertex 5.76699 -0.0585714 2.89778
    endloop
  endfacet
  facet normal 0.0101569 0.999948 1.19003e-06
    outer loop
      vertex 4.99977 -0.0507793 4
      vertex 6.48935 -0.065908 2.59808
      vertex 6.41864 -0.0651898 2.62741
    endloop
  endfacet
  facet normal 0.0101561 0.999948 2.43162e-07
    outer loop
      vertex 8.46369 -0.0859604 2
      vertex 6.48935 -0.065908 2.59808
      vertex 4.99977 -0.0507793 4
    endloop
  endfacet
  facet normal 0.0101564 0.999948 1.23525e-06
    outer loop
      vertex 6.48935 -0.065908 2.59808
      vertex 8.46369 -0.0859604 2
      vertex 6.62723 -0.0673083 2.4921
    endloop
  endfacet
  facet normal 0.0101555 0.999948 3.60199e-07
    outer loop
      vertex 4.81758 -0.0489286 2.97702
      vertex 4.99977 -0.0507793 4
      vertex 4.91239 -0.0498915 2.98953
    endloop
  endfacet
  facet normal 0.0101561 0.999948 2.65353e-07
    outer loop
      vertex 4.99977 -0.0507793 4
      vertex 4.81758 -0.0489286 2.97702
      vertex 2.99987 -0.030467 3.4641
    endloop
  endfacet
  facet normal 0.0101561 0.999948 2.10695e-07
    outer loop
      vertex 8.46369 -0.0859604 2
      vertex 7.05038 -0.071606 2.16687
      vertex 6.62723 -0.0673083 2.4921
    endloop
  endfacet
  facet normal 0.010156 0.999948 -5.01609e-07
    outer loop
      vertex 8.46369 -0.0859604 2
      vertex 7.10965 -0.072208 2.12132
      vertex 7.05038 -0.071606 2.16687
    endloop
  endfacet
  facet normal 0.0101561 0.999948 1.33907e-07
    outer loop
      vertex 8.46369 -0.0859604 2
      vertex 7.54122 -0.0765912 1.55796
      vertex 7.10965 -0.072208 2.12132
    endloop
  endfacet
  facet normal 0.0101558 0.999948 6.94381e-07
    outer loop
      vertex 8.46369 -0.0859604 2
      vertex 7.58562 -0.0770421 1.5
      vertex 7.54122 -0.0765912 1.55796
    endloop
  endfacet
  facet normal 0.0101561 0.999948 1.4345e-07
    outer loop
      vertex 8.46369 -0.0859604 2
      vertex 7.85757 -0.0798041 0.842372
      vertex 7.58562 -0.0770421 1.5
    endloop
  endfacet
  facet normal 0.0101551 0.999948 6.53336e-07
    outer loop
      vertex 8.46369 -0.0859604 2
      vertex 7.88483 -0.0800809 0.776457
      vertex 7.85757 -0.0798041 0.842372
    endloop
  endfacet
  facet normal 0.0101561 0.999948 1.7412e-07
    outer loop
      vertex 8.72698 -0.0886342 0
      vertex 7.88483 -0.0800809 0.776457
      vertex 8.46369 -0.0859604 2
    endloop
  endfacet
  facet normal 0.0101561 0.999948 8.07397e-08
    outer loop
      vertex 7.88483 -0.0800809 0.776457
      vertex 8.72698 -0.0886342 0
      vertex 7.9778 -0.0810251 0.0690928
    endloop
  endfacet
  facet normal 0.0101561 0.999948 3.17414e-07
    outer loop
      vertex 7.9778 -0.0810251 0.0690928
      vertex 8.72698 -0.0886342 0
      vertex 7.98688 -0.0811173 0
    endloop
  endfacet
  facet normal 0.010156 0.999948 1.74546e-07
    outer loop
      vertex 4.21663 -0.042825 2.89778
      vertex 2.99987 -0.030467 3.4641
      vertex 4.81758 -0.0489286 2.97702
    endloop
  endfacet
  facet normal 0.0101561 0.999948 2.79614e-07
    outer loop
      vertex 4.14134 -0.0420603 2.86654
      vertex 2.99987 -0.030467 3.4641
      vertex 4.21663 -0.042825 2.89778
    endloop
  endfacet
  facet normal 0.0101558 0.999948 -1.79503e-07
    outer loop
      vertex 2.99987 -0.030467 3.4641
      vertex 4.14134 -0.0420603 2.86654
      vertex 3.90589 -0.039669 2.76885
    endloop
  endfacet
  facet normal 0.0101526 0.999948 1.8691e-06
    outer loop
      vertex 1.53584 -0.0155983 2
      vertex 2.17149 -0.0220537 2.82843
      vertex 1.13626 -0.0115395 1.03528
    endloop
  endfacet
  facet normal 0.0101558 0.999948 6.33766e-08
    outer loop
      vertex 2.17149 -0.0220537 2.82843
      vertex 2.99987 -0.030467 3.4641
      vertex 1.13626 -0.0115395 1.03528
    endloop
  endfacet
  facet normal 0.0101558 0.999948 2.00316e-07
    outer loop
      vertex 1.13626 -0.0115395 1.03528
      vertex 2.81254 -0.0285645 2.04113
      vertex 2.398 -0.0243542 1.5
    endloop
  endfacet
  facet normal 0.0101561 0.999948 -7.00956e-07
    outer loop
      vertex 1.13626 -0.0115395 1.03528
      vertex 2.398 -0.0243542 1.5
      vertex 2.36831 -0.0240527 1.4282
    endloop
  endfacet
  facet normal 0.0101559 0.999948 -7.76292e-08
    outer loop
      vertex 2.81254 -0.0285645 2.04113
      vertex 1.13626 -0.0115395 1.03528
      vertex 2.99987 -0.030467 3.4641
    endloop
  endfacet
  facet normal 0.0101559 0.999948 8.31033e-08
    outer loop
      vertex 2.0988 -0.0213154 0.776457
      vertex 1.13626 -0.0115395 1.03528
      vertex 2.36831 -0.0240527 1.4282
    endloop
  endfacet
  facet normal 0.0101556 0.999948 -9.42836e-07
    outer loop
      vertex 2.0894 -0.02122 0.705002
      vertex 1.13626 -0.0115395 1.03528
      vertex 2.0988 -0.0213154 0.776457
    endloop
  endfacet
  facet normal 0.0101561 0.999948 -1.22914e-08
    outer loop
      vertex 1.41365 -0.0143567 0
      vertex 2.0894 -0.02122 0.705002
      vertex 1.99674 -0.0202789 0
    endloop
  endfacet
  facet normal 0.0101559 0.999948 9.81761e-08
    outer loop
      vertex 2.0894 -0.02122 0.705002
      vertex 1.41365 -0.0143567 0
      vertex 1.13626 -0.0115395 1.03528
    endloop
  endfacet
  facet normal 0.0101548 0.999948 -2.16294e-07
    outer loop
      vertex 1.13626 -0.0115395 1.03528
      vertex 1.41365 -0.0143567 0
      vertex 0.999974 -0.0101557 0
    endloop
  endfacet
  facet normal 0.010156 0.999948 1.05714e-07
    outer loop
      vertex 3.49428 -0.0354884 2.59808
      vertex 2.99987 -0.030467 3.4641
      vertex 3.62329 -0.0367987 2.6516
    endloop
  endfacet
  facet normal 0.010155 0.999948 -4.76951e-07
    outer loop
      vertex 3.42918 -0.0348273 2.54805
      vertex 2.99987 -0.030467 3.4641
      vertex 3.49428 -0.0354884 2.59808
    endloop
  endfacet
  facet normal 0.010156 0.999948 -3.47053e-09
    outer loop
      vertex 2.87398 -0.0291884 2.12132
      vertex 2.99987 -0.030467 3.4641
      vertex 3.42918 -0.0348273 2.54805
    endloop
  endfacet
  facet normal 0.0101556 0.999948 3.53448e-08
    outer loop
      vertex 2.82467 -0.0286876 2.05696
      vertex 2.99987 -0.030467 3.4641
      vertex 2.87398 -0.0291884 2.12132
    endloop
  endfacet
  facet normal 0.0101463 0.999949 1.18929e-06
    outer loop
      vertex 2.99987 -0.030467 3.4641
      vertex 2.82467 -0.0286876 2.05696
      vertex 2.81254 -0.0285645 2.04113
    endloop
  endfacet
  facet normal 0.0101561 0.999948 2.11433e-07
    outer loop
      vertex 3.90589 -0.039669 2.76885
      vertex 3.62329 -0.0367987 2.6516
      vertex 2.99987 -0.030467 3.4641
    endloop
  endfacet
  facet normal -0.110287 0.985398 0.129723
    outer loop
      vertex 2.52314e-16 -1.13632 1.03528
      vertex 0.251247 -1.1082 1.03528
      vertex 2.2205e-16 -1.00003 0
    endloop
  endfacet
  facet normal -0.110322 0.985393 0.129731
    outer loop
      vertex 0.251247 -1.1082 1.03528
      vertex 0.221111 -0.975275 0
      vertex 2.2205e-16 -1.00003 0
    endloop
  endfacet
  facet normal -0.102857 0.918979 0.380654
    outer loop
      vertex 3.41044e-16 -1.53592 2
      vertex 0.339602 -1.49791 2
      vertex 2.52314e-16 -1.13632 1.03528
    endloop
  endfacet
  facet normal -0.102854 0.91898 0.380653
    outer loop
      vertex 0.339602 -1.49791 2
      vertex 0.251247 -1.1082 1.03528
      vertex 2.52314e-16 -1.13632 1.03528
    endloop
  endfacet
  facet normal -0.0884622 0.790242 0.606377
    outer loop
      vertex 4.82192e-16 -2.1716 2.82843
      vertex 0.480154 -2.11785 2.82843
      vertex 3.41044e-16 -1.53592 2
    endloop
  endfacet
  facet normal -0.0884484 0.790246 0.606372
    outer loop
      vertex 0.480154 -2.11785 2.82843
      vertex 0.339602 -1.49791 2
      vertex 3.41044e-16 -1.53592 2
    endloop
  endfacet
  facet normal -0.0679935 0.607349 0.79152
    outer loop
      vertex 6.6614e-16 -3.00003 3.4641
      vertex 0.663324 -2.92577 3.4641
      vertex 4.82192e-16 -2.1716 2.82843
    endloop
  endfacet
  facet normal -0.0679889 0.607351 0.791519
    outer loop
      vertex 0.663324 -2.92577 3.4641
      vertex 0.480154 -2.11785 2.82843
      vertex 4.82192e-16 -2.1716 2.82843
    endloop
  endfacet
  facet normal -0.0427983 0.382333 0.923033
    outer loop
      vertex 8.80351e-16 -3.96475 3.8637
      vertex 0.876631 -3.86662 3.8637
      vertex 6.6614e-16 -3.00003 3.4641
    endloop
  endfacet
  facet normal -0.0428023 0.382329 0.923034
    outer loop
      vertex 0.876631 -3.86662 3.8637
      vertex 0.663324 -2.92577 3.4641
      vertex 6.6614e-16 -3.00003 3.4641
    endloop
  endfacet
  facet normal -0.0146105 0.130515 0.991339
    outer loop
      vertex 1.11023e-15 -5.00003 4
      vertex 1.10554 -4.87627 4
      vertex 8.80351e-16 -3.96475 3.8637
    endloop
  endfacet
  facet normal -0.0146099 0.130516 0.991339
    outer loop
      vertex 1.10554 -4.87627 4
      vertex 0.876631 -3.86662 3.8637
      vertex 8.80351e-16 -3.96475 3.8637
    endloop
  endfacet
  facet normal 0.0146093 -0.130516 0.991339
    outer loop
      vertex 1.34011e-15 -6.0353 3.8637
      vertex 1.33444 -5.88593 3.8637
      vertex 1.11023e-15 -5.00003 4
    endloop
  endfacet
  facet normal 0.0146105 -0.130514 0.991339
    outer loop
      vertex 1.33444 -5.88593 3.8637
      vertex 1.10554 -4.87627 4
      vertex 1.11023e-15 -5.00003 4
    endloop
  endfacet
  facet normal 0.0427991 -0.382329 0.923034
    outer loop
      vertex 1.55432e-15 -7.00003 3.4641
      vertex 1.54775 -6.82677 3.4641
      vertex 1.34011e-15 -6.0353 3.8637
    endloop
  endfacet
  facet normal 0.0427964 -0.382334 0.923033
    outer loop
      vertex 1.54775 -6.82677 3.4641
      vertex 1.33444 -5.88593 3.8637
      vertex 1.34011e-15 -6.0353 3.8637
    endloop
  endfacet
  facet normal 0.0679839 -0.607354 0.791517
    outer loop
      vertex 1.73827e-15 -7.82845 2.82843
      vertex 1.73092 -7.6347 2.82843
      vertex 1.55432e-15 -7.00003 3.4641
    endloop
  endfacet
  facet normal 0.0679883 -0.607347 0.791522
    outer loop
      vertex 1.73092 -7.6347 2.82843
      vertex 1.54775 -6.82677 3.4641
      vertex 1.55432e-15 -7.00003 3.4641
    endloop
  endfacet
  facet normal 0.0884587 -0.790242 0.606377
    outer loop
      vertex 1.87941e-15 -8.46413 2
      vertex 1.87147 -8.25464 2
      vertex 1.73827e-15 -7.82845 2.82843
    endloop
  endfacet
  facet normal 0.0884559 -0.790245 0.606373
    outer loop
      vertex 1.87147 -8.25464 2
      vertex 1.73092 -7.6347 2.82843
      vertex 1.73827e-15 -7.82845 2.82843
    endloop
  endfacet
  facet normal 0.102869 -0.918978 0.380653
    outer loop
      vertex 1.96814e-15 -8.86373 1.03528
      vertex 1.95983 -8.64435 1.03528
      vertex 1.87941e-15 -8.46413 2
    endloop
  endfacet
  facet normal 0.102869 -0.918978 0.380654
    outer loop
      vertex 1.95983 -8.64435 1.03528
      vertex 1.87147 -8.25464 2
      vertex 1.87941e-15 -8.46413 2
    endloop
  endfacet
  facet normal 0.110307 -0.985394 0.129732
    outer loop
      vertex 1.99841e-15 -9.00003 0
      vertex 1.98996 -8.77727 0
      vertex 1.96814e-15 -8.86373 1.03528
    endloop
  endfacet
  facet normal 0.110303 -0.985396 0.129726
    outer loop
      vertex 1.98996 -8.77727 0
      vertex 1.95983 -8.64435 1.03528
      vertex 1.96814e-15 -8.86373 1.03528
    endloop
  endfacet
  facet normal -0.325447 0.936619 0.129731
    outer loop
      vertex 0.251247 -1.1082 1.03528
      vertex 0.490059 -1.02522 1.03528
      vertex 0.221111 -0.975275 0
    endloop
  endfacet
  facet normal -0.325452 0.936617 0.129732
    outer loop
      vertex 0.490059 -1.02522 1.03528
      vertex 0.431278 -0.902247 0
      vertex 0.221111 -0.975275 0
    endloop
  endfacet
  facet normal -0.303509 0.87349 0.380654
    outer loop
      vertex 0.339602 -1.49791 2
      vertex 0.662395 -1.38575 2
      vertex 0.251247 -1.1082 1.03528
    endloop
  endfacet
  facet normal -0.303511 0.873489 0.380654
    outer loop
      vertex 0.662395 -1.38575 2
      vertex 0.490059 -1.02522 1.03528
      vertex 0.251247 -1.1082 1.03528
    endloop
  endfacet
  facet normal -0.260994 0.751128 0.606373
    outer loop
      vertex 0.480154 -2.11785 2.82843
      vertex 0.93654 -1.95927 2.82843
      vertex 0.339602 -1.49791 2
    endloop
  endfacet
  facet normal -0.260993 0.751129 0.606373
    outer loop
      vertex 0.93654 -1.95927 2.82843
      vertex 0.662395 -1.38575 2
      vertex 0.339602 -1.49791 2
    endloop
  endfacet
  facet normal -0.200586 0.577289 0.791519
    outer loop
      vertex 0.663324 -2.92577 3.4641
      vertex 1.29381 -2.7067 3.4641
      vertex 0.480154 -2.11785 2.82843
    endloop
  endfacet
  facet normal -0.200589 0.577286 0.79152
    outer loop
      vertex 1.29381 -2.7067 3.4641
      vertex 0.93654 -1.95927 2.82843
      vertex 0.480154 -2.11785 2.82843
    endloop
  endfacet
  facet normal -0.126274 0.363405 0.923034
    outer loop
      vertex 0.876631 -3.86662 3.8637
      vertex 1.70987 -3.57709 3.8637
      vertex 0.663324 -2.92577 3.4641
    endloop
  endfacet
  facet normal -0.126271 0.363409 0.923033
    outer loop
      vertex 1.70987 -3.57709 3.8637
      vertex 1.29381 -2.7067 3.4641
      vertex 0.663324 -2.92577 3.4641
    endloop
  endfacet
  facet normal -0.043106 0.124055 0.991339
    outer loop
      vertex 1.10554 -4.87627 4
      vertex 2.15635 -4.51114 4
      vertex 0.876631 -3.86662 3.8637
    endloop
  endfacet
  facet normal -0.043106 0.124055 0.991339
    outer loop
      vertex 2.15635 -4.51114 4
      vertex 1.70987 -3.57709 3.8637
      vertex 0.876631 -3.86662 3.8637
    endloop
  endfacet
  facet normal 0.0431054 -0.124054 0.991339
    outer loop
      vertex 1.33444 -5.88593 3.8637
      vertex 2.60283 -5.4452 3.8637
      vertex 1.10554 -4.87627 4
    endloop
  endfacet
  facet normal 0.0431056 -0.124054 0.991339
    outer loop
      vertex 2.60283 -5.4452 3.8637
      vertex 2.15635 -4.51114 4
      vertex 1.10554 -4.87627 4
    endloop
  endfacet
  facet normal 0.126275 -0.363407 0.923033
    outer loop
      vertex 1.54775 -6.82677 3.4641
      vertex 3.01888 -6.31559 3.4641
      vertex 1.33444 -5.88593 3.8637
    endloop
  endfacet
  facet normal 0.126274 -0.363409 0.923032
    outer loop
      vertex 3.01888 -6.31559 3.4641
      vertex 2.60283 -5.4452 3.8637
      vertex 1.33444 -5.88593 3.8637
    endloop
  endfacet
  facet normal 0.200592 -0.577283 0.791522
    outer loop
      vertex 1.73092 -7.6347 2.82843
      vertex 3.37616 -7.06302 2.82843
      vertex 1.54775 -6.82677 3.4641
    endloop
  endfacet
  facet normal 0.200591 -0.577284 0.791522
    outer loop
      vertex 3.37616 -7.06302 2.82843
      vertex 3.01888 -6.31559 3.4641
      vertex 1.54775 -6.82677 3.4641
    endloop
  endfacet
  facet normal 0.260998 -0.751127 0.606373
    outer loop
      vertex 1.87147 -8.25464 2
      vertex 3.6503 -7.63654 2
      vertex 1.73092 -7.6347 2.82843
    endloop
  endfacet
  facet normal 0.260998 -0.751128 0.606372
    outer loop
      vertex 3.6503 -7.63654 2
      vertex 3.37616 -7.06302 2.82843
      vertex 1.73092 -7.6347 2.82843
    endloop
  endfacet
  facet normal 0.303515 -0.873487 0.380655
    outer loop
      vertex 1.95983 -8.64435 1.03528
      vertex 3.82264 -7.99707 1.03528
      vertex 1.87147 -8.25464 2
    endloop
  endfacet
  facet normal 0.303515 -0.873487 0.380656
    outer loop
      vertex 3.82264 -7.99707 1.03528
      vertex 3.6503 -7.63654 2
      vertex 1.87147 -8.25464 2
    endloop
  endfacet
  facet normal 0.325449 -0.936619 0.129724
    outer loop
      vertex 1.98996 -8.77727 0
      vertex 3.88142 -8.12004 0
      vertex 1.95983 -8.64435 1.03528
    endloop
  endfacet
  facet normal 0.325451 -0.936617 0.129729
    outer loop
      vertex 3.88142 -8.12004 0
      vertex 3.82264 -7.99707 1.03528
      vertex 1.95983 -8.64435 1.03528
    endloop
  endfacet
  facet normal -0.524494 0.841472 0.129732
    outer loop
      vertex 0.490059 -1.02522 1.03528
      vertex 0.704612 -0.891488 1.03528
      vertex 0.431278 -0.902247 0
    endloop
  endfacet
  facet normal -0.524485 0.841478 0.129729
    outer loop
      vertex 0.704612 -0.891488 1.03528
      vertex 0.620097 -0.784558 0
      vertex 0.431278 -0.902247 0
    endloop
  endfacet
  facet normal -0.489143 0.784756 0.380654
    outer loop
      vertex 0.662395 -1.38575 2
      vertex 0.952397 -1.20499 2
      vertex 0.490059 -1.02522 1.03528
    endloop
  endfacet
  facet normal -0.489142 0.784756 0.380654
    outer loop
      vertex 0.952397 -1.20499 2
      vertex 0.704612 -0.891488 1.03528
      vertex 0.490059 -1.02522 1.03528
    endloop
  endfacet
  facet normal -0.420617 0.674828 0.606373
    outer loop
      vertex 0.93654 -1.95927 2.82843
      vertex 1.34657 -1.7037 2.82843
      vertex 0.662395 -1.38575 2
    endloop
  endfacet
  facet normal -0.420622 0.674824 0.606375
    outer loop
      vertex 1.34657 -1.7037 2.82843
      vertex 0.952397 -1.20499 2
      vertex 0.662395 -1.38575 2
    endloop
  endfacet
  facet normal -0.323272 0.518644 0.79152
    outer loop
      vertex 1.29381 -2.7067 3.4641
      vertex 1.86026 -2.35363 3.4641
      vertex 0.93654 -1.95927 2.82843
    endloop
  endfacet
  facet normal -0.32327 0.518647 0.791519
    outer loop
      vertex 1.86026 -2.35363 3.4641
      vertex 1.34657 -1.7037 2.82843
      vertex 0.93654 -1.95927 2.82843
    endloop
  endfacet
  facet normal -0.203498 0.326494 0.923033
    outer loop
      vertex 1.70987 -3.57709 3.8637
      vertex 2.45847 -3.1105 3.8637
      vertex 1.29381 -2.7067 3.4641
    endloop
  endfacet
  facet normal -0.203501 0.326488 0.923035
    outer loop
      vertex 2.45847 -3.1105 3.8637
      vertex 1.86026 -2.35363 3.4641
      vertex 1.29381 -2.7067 3.4641
    endloop
  endfacet
  facet normal -0.0694681 0.111454 0.991339
    outer loop
      vertex 2.15635 -4.51114 4
      vertex 3.10042 -3.92271 4
      vertex 1.70987 -3.57709 3.8637
    endloop
  endfacet
  facet normal -0.0694678 0.111455 0.991339
    outer loop
      vertex 3.10042 -3.92271 4
      vertex 2.45847 -3.1105 3.8637
      vertex 1.70987 -3.57709 3.8637
    endloop
  endfacet
  facet normal 0.0694682 -0.111452 0.991339
    outer loop
      vertex 2.60283 -5.4452 3.8637
      vertex 3.74238 -4.73492 3.8637
      vertex 2.15635 -4.51114 4
    endloop
  endfacet
  facet normal 0.069468 -0.111454 0.991339
    outer loop
      vertex 3.74238 -4.73492 3.8637
      vertex 3.10042 -3.92271 4
      vertex 2.15635 -4.51114 4
    endloop
  endfacet
  facet normal 0.2035 -0.326495 0.923033
    outer loop
      vertex 3.01888 -6.31559 3.4641
      vertex 4.34058 -5.49179 3.4641
      vertex 2.60283 -5.4452 3.8637
    endloop
  endfacet
  facet normal 0.203501 -0.32649 0.923034
    outer loop
      vertex 4.34058 -5.49179 3.4641
      vertex 3.74238 -4.73492 3.8637
      vertex 2.60283 -5.4452 3.8637
    endloop
  endfacet
  facet normal 0.323268 -0.518643 0.791522
    outer loop
      vertex 3.37616 -7.06302 2.82843
      vertex 4.85427 -6.14172 2.82843
      vertex 3.01888 -6.31559 3.4641
    endloop
  endfacet
  facet normal 0.323268 -0.518649 0.791519
    outer loop
      vertex 4.85427 -6.14172 2.82843
      vertex 4.34058 -5.49179 3.4641
      vertex 3.01888 -6.31559 3.4641
    endloop
  endfacet
  facet normal 0.420617 -0.67483 0.606371
    outer loop
      vertex 3.6503 -7.63654 2
      vertex 5.24844 -6.64043 2
      vertex 3.37616 -7.06302 2.82843
    endloop
  endfacet
  facet normal 0.420617 -0.674828 0.606373
    outer loop
      vertex 5.24844 -6.64043 2
      vertex 4.85427 -6.14172 2.82843
      vertex 3.37616 -7.06302 2.82843
    endloop
  endfacet
  facet normal 0.489136 -0.784759 0.380656
    outer loop
      vertex 3.82264 -7.99707 1.03528
      vertex 5.49623 -6.95393 1.03528
      vertex 3.6503 -7.63654 2
    endloop
  endfacet
  facet normal 0.489136 -0.78476 0.380655
    outer loop
      vertex 5.49623 -6.95393 1.03528
      vertex 5.24844 -6.64043 2
      vertex 3.6503 -7.63654 2
    endloop
  endfacet
  facet normal 0.524489 -0.841476 0.129729
    outer loop
      vertex 3.88142 -8.12004 0
      vertex 5.58074 -7.06086 0
      vertex 3.82264 -7.99707 1.03528
    endloop
  endfacet
  facet normal 0.524488 -0.841477 0.129727
    outer loop
      vertex 5.58074 -7.06086 0
      vertex 5.49623 -6.95393 1.03528
      vertex 3.82264 -7.99707 1.03528
    endloop
  endfacet
  facet normal -0.697561 0.704683 0.129729
    outer loop
      vertex 0.704612 -0.891488 1.03528
      vertex 0.884286 -0.71363 1.03528
      vertex 0.620097 -0.784558 0
    endloop
  endfacet
  facet normal -0.697561 0.704683 0.129729
    outer loop
      vertex 0.884286 -0.71363 1.03528
      vertex 0.77822 -0.628033 0
      vertex 0.620097 -0.784558 0
    endloop
  endfacet
  facet normal -0.650538 0.657193 0.380654
    outer loop
      vertex 0.952397 -1.20499 2
      vertex 1.19526 -0.964586 2
      vertex 0.704612 -0.891488 1.03528
    endloop
  endfacet
  facet normal -0.650544 0.657186 0.380657
    outer loop
      vertex 1.19526 -0.964586 2
      vertex 0.884286 -0.71363 1.03528
      vertex 0.704612 -0.891488 1.03528
    endloop
  endfacet
  facet normal -0.559414 0.565125 0.606375
    outer loop
      vertex 1.34657 -1.7037 2.82843
      vertex 1.68994 -1.3638 2.82843
      vertex 0.952397 -1.20499 2
    endloop
  endfacet
  facet normal -0.559409 0.565131 0.606372
    outer loop
      vertex 1.68994 -1.3638 2.82843
      vertex 1.19526 -0.964586 2
      vertex 0.952397 -1.20499 2
    endloop
  endfacet
  facet normal -0.429941 0.434336 0.791519
    outer loop
      vertex 1.86026 -2.35363 3.4641
      vertex 2.33462 -1.88407 3.4641
      vertex 1.34657 -1.7037 2.82843
    endloop
  endfacet
  facet normal -0.429943 0.434332 0.79152
    outer loop
      vertex 2.33462 -1.88407 3.4641
      vertex 1.68994 -1.3638 2.82843
      vertex 1.34657 -1.7037 2.82843
    endloop
  endfacet
  facet normal -0.270652 0.273413 0.923035
    outer loop
      vertex 2.45847 -3.1105 3.8637
      vertex 3.08537 -2.48993 3.8637
      vertex 1.86026 -2.35363 3.4641
    endloop
  endfacet
  facet normal -0.270651 0.273418 0.923033
    outer loop
      vertex 3.08537 -2.48993 3.8637
      vertex 2.33462 -1.88407 3.4641
      vertex 1.86026 -2.35363 3.4641
    endloop
  endfacet
  facet normal -0.0923924 0.0933357 0.991339
    outer loop
      vertex 3.10042 -3.92271 4
      vertex 3.89102 -3.1401 4
      vertex 2.45847 -3.1105 3.8637
    endloop
  endfacet
  facet normal -0.0923924 0.0933348 0.991339
    outer loop
      vertex 3.89102 -3.1401 4
      vertex 3.08537 -2.48993 3.8637
      vertex 2.45847 -3.1105 3.8637
    endloop
  endfacet
  facet normal 0.092392 -0.0933348 0.991339
    outer loop
      vertex 3.74238 -4.73492 3.8637
      vertex 4.69667 -3.79027 3.8637
      vertex 3.10042 -3.92271 4
    endloop
  endfacet
  facet normal 0.092392 -0.0933353 0.991339
    outer loop
      vertex 4.69667 -3.79027 3.8637
      vertex 3.89102 -3.1401 4
      vertex 3.10042 -3.92271 4
    endloop
  endfacet
  facet normal 0.270653 -0.273415 0.923034
    outer loop
      vertex 4.34058 -5.49179 3.4641
      vertex 5.44742 -4.39613 3.4641
      vertex 3.74238 -4.73492 3.8637
    endloop
  endfacet
  facet normal 0.270653 -0.273415 0.923034
    outer loop
      vertex 5.44742 -4.39613 3.4641
      vertex 4.69667 -3.79027 3.8637
      vertex 3.74238 -4.73492 3.8637
    endloop
  endfacet
  facet normal 0.429944 -0.434334 0.791519
    outer loop
      vertex 4.85427 -6.14172 2.82843
      vertex 6.0921 -4.9164 2.82843
      vertex 4.34058 -5.49179 3.4641
    endloop
  endfacet
  facet normal 0.429944 -0.434331 0.79152
    outer loop
      vertex 6.0921 -4.9164 2.82843
      vertex 5.44742 -4.39613 3.4641
      vertex 4.34058 -5.49179 3.4641
    endloop
  endfacet
  facet normal 0.559415 -0.565124 0.606373
    outer loop
      vertex 5.24844 -6.64043 2
      vertex 6.58678 -5.31561 2
      vertex 4.85427 -6.14172 2.82843
    endloop
  endfacet
  facet normal 0.559416 -0.565127 0.606371
    outer loop
      vertex 6.58678 -5.31561 2
      vertex 6.0921 -4.9164 2.82843
      vertex 4.85427 -6.14172 2.82843
    endloop
  endfacet
  facet normal 0.650545 -0.657185 0.380656
    outer loop
      vertex 5.49623 -6.95393 1.03528
      vertex 6.89775 -5.56657 1.03528
      vertex 5.24844 -6.64043 2
    endloop
  endfacet
  facet normal 0.650545 -0.657184 0.380657
    outer loop
      vertex 6.89775 -5.56657 1.03528
      vertex 6.58678 -5.31561 2
      vertex 5.24844 -6.64043 2
    endloop
  endfacet
  facet normal 0.69756 -0.704685 0.129726
    outer loop
      vertex 5.58074 -7.06086 0
      vertex 7.00382 -5.65217 0
      vertex 5.49623 -6.95393 1.03528
    endloop
  endfacet
  facet normal 0.697562 -0.704682 0.129734
    outer loop
      vertex 7.00382 -5.65217 0
      vertex 6.89775 -5.56657 1.03528
      vertex 5.49623 -6.95393 1.03528
    endloop
  endfacet
  facet normal -0.836104 0.533011 0.129729
    outer loop
      vertex 0.884286 -0.71363 1.03528
      vertex 1.02019 -0.500445 1.03528
      vertex 0.77822 -0.628033 0
    endloop
  endfacet
  facet normal -0.836107 0.533005 0.129731
    outer loop
      vertex 1.02019 -0.500445 1.03528
      vertex 0.897821 -0.440419 0
      vertex 0.77822 -0.628033 0
    endloop
  endfacet
  facet normal -0.779754 0.497075 0.380657
    outer loop
      vertex 1.19526 -0.964586 2
      vertex 1.37895 -0.676434 2
      vertex 0.884286 -0.71363 1.03528
    endloop
  endfacet
  facet normal -0.779749 0.497085 0.380654
    outer loop
      vertex 1.37895 -0.676434 2
      vertex 1.02019 -0.500445 1.03528
      vertex 0.884286 -0.71363 1.03528
    endloop
  endfacet
  facet normal -0.670521 0.42745 0.606373
    outer loop
      vertex 1.68994 -1.3638 2.82843
      vertex 1.94966 -0.956389 2.82843
      vertex 1.19526 -0.964586 2
    endloop
  endfacet
  facet normal -0.670524 0.427443 0.606375
    outer loop
      vertex 1.94966 -0.956389 2.82843
      vertex 1.37895 -0.676434 2
      vertex 1.19526 -0.964586 2
    endloop
  endfacet
  facet normal -0.515334 0.328522 0.79152
    outer loop
      vertex 2.33462 -1.88407 3.4641
      vertex 2.69342 -1.32124 3.4641
      vertex 1.68994 -1.3638 2.82843
    endloop
  endfacet
  facet normal -0.515334 0.32852 0.791521
    outer loop
      vertex 2.69342 -1.32124 3.4641
      vertex 1.94966 -0.956389 2.82843
      vertex 1.68994 -1.3638 2.82843
    endloop
  endfacet
  facet normal -0.324409 0.206804 0.923034
    outer loop
      vertex 3.08537 -2.48993 3.8637
      vertex 3.55954 -1.74611 3.8637
      vertex 2.33462 -1.88407 3.4641
    endloop
  endfacet
  facet normal -0.324409 0.206808 0.923033
    outer loop
      vertex 3.55954 -1.74611 3.8637
      vertex 2.69342 -1.32124 3.4641
      vertex 2.33462 -1.88407 3.4641
    endloop
  endfacet
  facet normal -0.110743 0.0705964 0.991339
    outer loop
      vertex 3.89102 -3.1401 4
      vertex 4.48901 -2.20205 4
      vertex 3.08537 -2.48993 3.8637
    endloop
  endfacet
  facet normal -0.110743 0.0705961 0.991339
    outer loop
      vertex 4.48901 -2.20205 4
      vertex 3.55954 -1.74611 3.8637
      vertex 3.08537 -2.48993 3.8637
    endloop
  endfacet
  facet normal 0.110742 -0.070597 0.991339
    outer loop
      vertex 4.69667 -3.79027 3.8637
      vertex 5.41848 -2.658 3.8637
      vertex 3.89102 -3.1401 4
    endloop
  endfacet
  facet normal 0.110742 -0.0705959 0.991339
    outer loop
      vertex 5.41848 -2.658 3.8637
      vertex 4.48901 -2.20205 4
      vertex 3.89102 -3.1401 4
    endloop
  endfacet
  facet normal 0.324407 -0.206806 0.923034
    outer loop
      vertex 5.44742 -4.39613 3.4641
      vertex 6.28461 -3.08287 3.4641
      vertex 4.69667 -3.79027 3.8637
    endloop
  endfacet
  facet normal 0.324407 -0.206806 0.923034
    outer loop
      vertex 6.28461 -3.08287 3.4641
      vertex 5.41848 -2.658 3.8637
      vertex 4.69667 -3.79027 3.8637
    endloop
  endfacet
  facet normal 0.515336 -0.32852 0.79152
    outer loop
      vertex 6.0921 -4.9164 2.82843
      vertex 7.02837 -3.44771 2.82843
      vertex 5.44742 -4.39613 3.4641
    endloop
  endfacet
  facet normal 0.515337 -0.328522 0.791519
    outer loop
      vertex 7.02837 -3.44771 2.82843
      vertex 6.28461 -3.08287 3.4641
      vertex 5.44742 -4.39613 3.4641
    endloop
  endfacet
  facet normal 0.670523 -0.427449 0.606371
    outer loop
      vertex 6.58678 -5.31561 2
      vertex 7.59907 -3.72767 2
      vertex 6.0921 -4.9164 2.82843
    endloop
  endfacet
  facet normal 0.670523 -0.427449 0.606371
    outer loop
      vertex 7.59907 -3.72767 2
      vertex 7.02837 -3.44771 2.82843
      vertex 6.0921 -4.9164 2.82843
    endloop
  endfacet
  facet normal 0.779749 -0.497083 0.380656
    outer loop
      vertex 6.89775 -5.56657 1.03528
      vertex 7.95784 -3.90366 1.03528
      vertex 6.58678 -5.31561 2
    endloop
  endfacet
  facet normal 0.779749 -0.497079 0.380661
    outer loop
      vertex 7.95784 -3.90366 1.03528
      vertex 7.59907 -3.72767 2
      vertex 6.58678 -5.31561 2
    endloop
  endfacet
  facet normal 0.836107 -0.533005 0.129734
    outer loop
      vertex 7.00382 -5.65217 0
      vertex 8.0802 -3.96369 0
      vertex 6.89775 -5.56657 1.03528
    endloop
  endfacet
  facet normal 0.836105 -0.53301 0.129726
    outer loop
      vertex 8.0802 -3.96369 0
      vertex 7.95784 -3.90366 1.03528
      vertex 6.89775 -5.56657 1.03528
    endloop
  endfacet
  facet normal -0.933266 0.33494 0.129731
    outer loop
      vertex 1.02019 -0.500445 1.03528
      vertex 1.10559 -0.262489 1.03528
      vertex 0.897821 -0.440419 0
    endloop
  endfacet
  facet normal -0.933263 0.334949 0.129729
    outer loop
      vertex 1.10559 -0.262489 1.03528
      vertex 0.97298 -0.231005 0
      vertex 0.897821 -0.440419 0
    endloop
  endfacet
  facet normal -0.870365 0.312359 0.380653
    outer loop
      vertex 1.37895 -0.676434 2
      vertex 1.49438 -0.354797 2
      vertex 1.02019 -0.500445 1.03528
    endloop
  endfacet
  facet normal -0.870363 0.312365 0.380652
    outer loop
      vertex 1.49438 -0.354797 2
      vertex 1.10559 -0.262489 1.03528
      vertex 1.02019 -0.500445 1.03528
    endloop
  endfacet
  facet normal -0.748436 0.268613 0.606375
    outer loop
      vertex 1.94966 -0.956389 2.82843
      vertex 2.11287 -0.501637 2.82843
      vertex 1.37895 -0.676434 2
    endloop
  endfacet
  facet normal -0.748437 0.268601 0.606379
    outer loop
      vertex 2.11287 -0.501637 2.82843
      vertex 1.49438 -0.354797 2
      vertex 1.37895 -0.676434 2
    endloop
  endfacet
  facet normal -0.575219 0.206443 0.79152
    outer loop
      vertex 2.69342 -1.32124 3.4641
      vertex 2.91889 -0.693004 3.4641
      vertex 1.94966 -0.956389 2.82843
    endloop
  endfacet
  facet normal -0.575219 0.206446 0.791519
    outer loop
      vertex 2.91889 -0.693004 3.4641
      vertex 2.11287 -0.501637 2.82843
      vertex 1.94966 -0.956389 2.82843
    endloop
  endfacet
  facet normal -0.362106 0.12996 0.923033
    outer loop
      vertex 3.55954 -1.74611 3.8637
      vertex 3.85752 -0.915854 3.8637
      vertex 2.69342 -1.32124 3.4641
    endloop
  endfacet
  facet normal -0.362106 0.129957 0.923033
    outer loop
      vertex 3.85752 -0.915854 3.8637
      vertex 2.91889 -0.693004 3.4641
      vertex 2.69342 -1.32124 3.4641
    endloop
  endfacet
  facet normal -0.123611 0.0443632 0.991339
    outer loop
      vertex 4.48901 -2.20205 4
      vertex 4.86479 -1.155 4
      vertex 3.55954 -1.74611 3.8637
    endloop
  endfacet
  facet normal -0.123611 0.0443642 0.991339
    outer loop
      vertex 4.86479 -1.155 4
      vertex 3.85752 -0.915854 3.8637
      vertex 3.55954 -1.74611 3.8637
    endloop
  endfacet
  facet normal 0.12361 -0.0443632 0.991339
    outer loop
      vertex 5.41848 -2.658 3.8637
      vertex 5.87207 -1.39415 3.8637
      vertex 4.48901 -2.20205 4
    endloop
  endfacet
  facet normal 0.12361 -0.044363 0.991339
    outer loop
      vertex 5.87207 -1.39415 3.8637
      vertex 4.86479 -1.155 4
      vertex 4.48901 -2.20205 4
    endloop
  endfacet
  facet normal 0.362105 -0.129957 0.923034
    outer loop
      vertex 6.28461 -3.08287 3.4641
      vertex 6.8107 -1.617 3.4641
      vertex 5.41848 -2.658 3.8637
    endloop
  endfacet
  facet normal 0.362105 -0.129958 0.923033
    outer loop
      vertex 6.8107 -1.617 3.4641
      vertex 5.87207 -1.39415 3.8637
      vertex 5.41848 -2.658 3.8637
    endloop
  endfacet
  facet normal 0.575221 -0.206443 0.791519
    outer loop
      vertex 7.02837 -3.44771 2.82843
      vertex 7.61672 -1.80837 2.82843
      vertex 6.28461 -3.08287 3.4641
    endloop
  endfacet
  facet normal 0.57522 -0.206442 0.79152
    outer loop
      vertex 7.61672 -1.80837 2.82843
      vertex 6.8107 -1.617 3.4641
      vertex 6.28461 -3.08287 3.4641
    endloop
  endfacet
  facet normal 0.748438 -0.268616 0.606371
    outer loop
      vertex 7.59907 -3.72767 2
      vertex 8.23521 -1.95521 2
      vertex 7.02837 -3.44771 2.82843
    endloop
  endfacet
  facet normal 0.748435 -0.268609 0.606378
    outer loop
      vertex 8.23521 -1.95521 2
      vertex 7.61672 -1.80837 2.82843
      vertex 7.02837 -3.44771 2.82843
    endloop
  endfacet
  facet normal 0.870359 -0.312366 0.380662
    outer loop
      vertex 7.95784 -3.90366 1.03528
      vertex 8.624 -2.04751 1.03528
      vertex 7.59907 -3.72767 2
    endloop
  endfacet
  facet normal 0.870361 -0.312375 0.380649
    outer loop
      vertex 8.624 -2.04751 1.03528
      vertex 8.23521 -1.95521 2
      vertex 7.59907 -3.72767 2
    endloop
  endfacet
  facet normal 0.933265 -0.334946 0.129724
    outer loop
      vertex 8.0802 -3.96369 0
      vertex 8.75661 -2.079 0
      vertex 7.95784 -3.90366 1.03528
    endloop
  endfacet
  facet normal 0.933265 -0.334943 0.129731
    outer loop
      vertex 8.75661 -2.079 0
      vertex 8.624 -2.04751 1.03528
      vertex 7.95784 -3.90366 1.03528
    endloop
  endfacet
  facet normal -0.984226 0.120288 0.129729
    outer loop
      vertex 1.10559 -0.262489 1.03528
      vertex 1.13626 -0.0115395 1.03528
      vertex 0.97298 -0.231005 0
    endloop
  endfacet
  facet normal -0.984225 0.1203 0.129726
    outer loop
      vertex 1.13626 -0.0115395 1.03528
      vertex 0.999974 -0.0101557 0
      vertex 0.97298 -0.231005 0
    endloop
  endfacet
  facet normal -0.917888 0.112193 0.380651
    outer loop
      vertex 1.49438 -0.354797 2
      vertex 1.53584 -0.0155983 2
      vertex 1.10559 -0.262489 1.03528
    endloop
  endfacet
  facet normal -0.917888 0.11218 0.380654
    outer loop
      vertex 1.53584 -0.0155983 2
      vertex 1.13626 -0.0115395 1.03528
      vertex 1.10559 -0.262489 1.03528
    endloop
  endfacet
  facet normal -0.789302 0.0964772 0.606378
    outer loop
      vertex 2.11287 -0.501637 2.82843
      vertex 2.17149 -0.0220537 2.82843
      vertex 1.49438 -0.354797 2
    endloop
  endfacet
  facet normal -0.789302 0.0964757 0.606379
    outer loop
      vertex 2.17149 -0.0220537 2.82843
      vertex 1.53584 -0.0155983 2
      vertex 1.49438 -0.354797 2
    endloop
  endfacet
  facet normal -0.60663 0.0741466 0.791519
    outer loop
      vertex 2.91889 -0.693004 3.4641
      vertex 2.99987 -0.030467 3.4641
      vertex 2.11287 -0.501637 2.82843
    endloop
  endfacet
  facet normal -0.606631 0.0741491 0.791518
    outer loop
      vertex 2.99987 -0.030467 3.4641
      vertex 2.17149 -0.0220537 2.82843
      vertex 2.11287 -0.501637 2.82843
    endloop
  endfacet
  facet normal -0.381877 0.0466798 0.923033
    outer loop
      vertex 3.85752 -0.915854 3.8637
      vertex 3.96455 -0.0402651 3.8637
      vertex 2.91889 -0.693004 3.4641
    endloop
  endfacet
  facet normal -0.381875 0.0466755 0.923035
    outer loop
      vertex 3.96455 -0.0402651 3.8637
      vertex 2.99987 -0.030467 3.4641
      vertex 2.91889 -0.693004 3.4641
    endloop
  endfacet
  facet normal -0.130361 0.0159353 0.991339
    outer loop
      vertex 4.86479 -1.155 4
      vertex 4.99977 -0.0507793 4
      vertex 3.85752 -0.915854 3.8637
    endloop
  endfacet
  facet normal -0.130361 0.015935 0.991339
    outer loop
      vertex 4.99977 -0.0507793 4
      vertex 3.96455 -0.0402651 3.8637
      vertex 3.85752 -0.915854 3.8637
    endloop
  endfacet
  facet normal 0.13036 -0.0159344 0.991339
    outer loop
      vertex 5.87207 -1.39415 3.8637
      vertex 6.03499 -0.0612936 3.8637
      vertex 4.86479 -1.155 4
    endloop
  endfacet
  facet normal 0.130361 -0.0159353 0.991339
    outer loop
      vertex 6.03499 -0.0612936 3.8637
      vertex 4.99977 -0.0507793 4
      vertex 4.86479 -1.155 4
    endloop
  endfacet
  facet normal 0.381877 -0.0466802 0.923033
    outer loop
      vertex 6.8107 -1.617 3.4641
      vertex 6.99967 -0.0710907 3.4641
      vertex 5.87207 -1.39415 3.8637
    endloop
  endfacet
  facet normal 0.381875 -0.046678 0.923034
    outer loop
      vertex 6.99967 -0.0710907 3.4641
      vertex 6.03499 -0.0612936 3.8637
      vertex 5.87207 -1.39415 3.8637
    endloop
  endfacet
  facet normal 0.606629 -0.074152 0.79152
    outer loop
      vertex 7.61672 -1.80837 2.82843
      vertex 7.82805 -0.079504 2.82843
      vertex 6.8107 -1.617 3.4641
    endloop
  endfacet
  facet normal 0.60663 -0.0741537 0.791518
    outer loop
      vertex 7.82805 -0.079504 2.82843
      vertex 6.99967 -0.0710907 3.4641
      vertex 6.8107 -1.617 3.4641
    endloop
  endfacet
  facet normal 0.789302 -0.0964771 0.606378
    outer loop
      vertex 8.23521 -1.95521 2
      vertex 8.46369 -0.0859604 2
      vertex 7.61672 -1.80837 2.82843
    endloop
  endfacet
  facet normal 0.789306 -0.0964817 0.606373
    outer loop
      vertex 8.46369 -0.0859604 2
      vertex 7.82805 -0.079504 2.82843
      vertex 7.61672 -1.80837 2.82843
    endloop
  endfacet
  facet normal 0.917887 -0.112196 0.38065
    outer loop
      vertex 8.624 -2.04751 1.03528
      vertex 8.86327 -0.0900183 1.03528
      vertex 8.23521 -1.95521 2
    endloop
  endfacet
  facet normal 0.917886 -0.112194 0.380654
    outer loop
      vertex 8.86327 -0.0900183 1.03528
      vertex 8.46369 -0.0859604 2
      vertex 8.23521 -1.95521 2
    endloop
  endfacet
  facet normal 0.984224 -0.120305 0.129729
    outer loop
      vertex 8.75661 -2.079 0
      vertex 8.99956 -0.091403 0
      vertex 8.624 -2.04751 1.03528
    endloop
  endfacet
  facet normal 0.984224 -0.120305 0.12973
    outer loop
      vertex 8.99956 -0.091403 0
      vertex 8.86327 -0.0900183 1.03528
      vertex 8.624 -2.04751 1.03528
    endloop
  endfacet
  facet normal 0.0814736 -0.988176 -0.129884
    outer loop
      vertex 4.6605e-16 -2.0989 0.776457
      vertex 4.45293e-16 -2.00542 0.0652452
      vertex 0.38048 -2.06753 0.776457
    endloop
  endfacet
  facet normal 0.0814604 -0.988169 -0.129948
    outer loop
      vertex 0.361979 -1.967 0
      vertex 4.45293e-16 -2.00542 0.0652452
      vertex 4.43388e-16 -1.99684 0
    endloop
  endfacet
  facet normal 0.0814729 -0.988176 -0.129883
    outer loop
      vertex 4.45293e-16 -2.00542 0.0652452
      vertex 0.361979 -1.967 0
      vertex 0.38048 -2.06753 0.776457
    endloop
  endfacet
  facet normal 0.0759864 -0.921421 -0.381062
    outer loop
      vertex 5.32491e-16 -2.39813 1.5
      vertex 4.71221e-16 -2.12219 0.832768
      vertex 0.434722 -2.36228 1.5
    endloop
  endfacet
  facet normal 0.0759689 -0.921411 -0.381092
    outer loop
      vertex 0.38048 -2.06753 0.776457
      vertex 4.71221e-16 -2.12219 0.832768
      vertex 4.6605e-16 -2.0989 0.776457
    endloop
  endfacet
  facet normal 0.0759761 -0.921425 -0.381057
    outer loop
      vertex 4.71221e-16 -2.12219 0.832768
      vertex 0.38048 -2.06753 0.776457
      vertex 0.434722 -2.36228 1.5
    endloop
  endfacet
  facet normal 0.0653 -0.792126 -0.606854
    outer loop
      vertex 6.38184e-16 -2.87412 2.12132
      vertex 5.40362e-16 -2.43357 1.54627
      vertex 0.521008 -2.83117 2.12132
    endloop
  endfacet
  facet normal 0.0653291 -0.792189 -0.606769
    outer loop
      vertex 0.434722 -2.36228 1.5
      vertex 5.40362e-16 -2.43357 1.54627
      vertex 5.32491e-16 -2.39813 1.5
    endloop
  endfacet
  facet normal 0.0653085 -0.792122 -0.606859
    outer loop
      vertex 5.40362e-16 -2.43357 1.54627
      vertex 0.434722 -2.36228 1.5
      vertex 0.521008 -2.83117 2.12132
    endloop
  endfacet
  facet normal 0.0501906 -0.608609 -0.791882
    outer loop
      vertex 7.75925e-16 -3.49446 2.59808
      vertex 6.48305e-16 -2.91971 2.15635
      vertex 0.633459 -3.44222 2.59808
    endloop
  endfacet
  facet normal 0.0501855 -0.608613 -0.791879
    outer loop
      vertex 6.48305e-16 -2.91971 2.15635
      vertex 0.521008 -2.83117 2.12132
      vertex 0.633459 -3.44222 2.59808
    endloop
  endfacet
  facet normal 0.0501638 -0.608515 -0.791955
    outer loop
      vertex 0.521008 -2.83117 2.12132
      vertex 6.48305e-16 -2.91971 2.15635
      vertex 6.38184e-16 -2.87412 2.12132
    endloop
  endfacet
  facet normal 0.031582 -0.383018 -0.923201
    outer loop
      vertex 9.36328e-16 -4.21685 2.89778
      vertex 7.87794e-16 -3.54791 2.62025
      vertex 0.764411 -4.15382 2.89778
    endloop
  endfacet
  facet normal 0.0315924 -0.383007 -0.923205
    outer loop
      vertex 7.87794e-16 -3.54791 2.62025
      vertex 0.633459 -3.44222 2.59808
      vertex 0.764411 -4.15382 2.89778
    endloop
  endfacet
  facet normal 0.0315802 -0.382939 -0.923234
    outer loop
      vertex 0.633459 -3.44222 2.59808
      vertex 7.87794e-16 -3.54791 2.62025
      vertex 7.75925e-16 -3.49446 2.59808
    endloop
  endfacet
  facet normal 0.0107789 -0.130719 -0.991361
    outer loop
      vertex 1.10846e-15 -4.99207 3
      vertex 9.49293e-16 -4.27524 2.90548
      vertex 0.90494 -4.91745 3
    endloop
  endfacet
  facet normal 0.0107778 -0.130721 -0.991361
    outer loop
      vertex 9.49293e-16 -4.27524 2.90548
      vertex 0.764411 -4.15382 2.89778
      vertex 0.90494 -4.91745 3
    endloop
  endfacet
  facet normal 0.0107796 -0.130732 -0.991359
    outer loop
      vertex 0.764411 -4.15382 2.89778
      vertex 9.49293e-16 -4.27524 2.90548
      vertex 9.36328e-16 -4.21685 2.89778
    endloop
  endfacet
  facet normal -0.0107785 0.130726 -0.99136
    outer loop
      vertex 1.2806e-15 -5.76729 2.89778
      vertex 1.12172e-15 -5.05179 2.99213
      vertex 1.04547 -5.68109 2.89778
    endloop
  endfacet
  facet normal -0.0107837 0.130718 -0.991361
    outer loop
      vertex 1.12172e-15 -5.05179 2.99213
      vertex 0.90494 -4.91745 3
      vertex 1.04547 -5.68109 2.89778
    endloop
  endfacet
  facet normal -0.0107727 0.130644 -0.991371
    outer loop
      vertex 0.90494 -4.91745 3
      vertex 1.12172e-15 -5.05179 2.99213
      vertex 1.10846e-15 -4.99207 3
    endloop
  endfacet
  facet normal -0.0315803 0.383007 -0.923205
    outer loop
      vertex 1.441e-15 -6.48968 2.59808
      vertex 1.29326e-15 -5.82431 2.87412
      vertex 1.17642 -6.39268 2.59808
    endloop
  endfacet
  facet normal -0.0315765 0.383014 -0.923203
    outer loop
      vertex 1.29326e-15 -5.82431 2.87412
      vertex 1.04547 -5.68109 2.89778
      vertex 1.17642 -6.39268 2.59808
    endloop
  endfacet
  facet normal -0.0315842 0.383067 -0.923181
    outer loop
      vertex 1.04547 -5.68109 2.89778
      vertex 1.29326e-15 -5.82431 2.87412
      vertex 1.2806e-15 -5.76729 2.89778
    endloop
  endfacet
  facet normal -0.0501807 0.608605 -0.791885
    outer loop
      vertex 1.57874e-15 -7.11001 2.12132
      vertex 1.45214e-15 -6.53986 2.55951
      vertex 1.28887 -7.00374 2.12132
    endloop
  endfacet
  facet normal -0.0501793 0.608607 -0.791883
    outer loop
      vertex 1.45214e-15 -6.53986 2.55951
      vertex 1.17642 -6.39268 2.59808
      vertex 1.28887 -7.00374 2.12132
    endloop
  endfacet
  facet normal -0.0501849 0.608645 -0.791854
    outer loop
      vertex 1.17642 -6.39268 2.59808
      vertex 1.45214e-15 -6.53986 2.55951
      vertex 1.441e-15 -6.48968 2.59808
    endloop
  endfacet
  facet normal -0.0653156 0.792128 -0.60685
    outer loop
      vertex 1.68443e-15 -7.58601 1.5
      vertex 1.5875e-15 -7.14947 2.06982
      vertex 1.37516 -7.47262 1.5
    endloop
  endfacet
  facet normal -0.0653091 0.792085 -0.606907
    outer loop
      vertex 1.28887 -7.00374 2.12132
      vertex 1.5875e-15 -7.14947 2.06982
      vertex 1.57874e-15 -7.11001 2.12132
    endloop
  endfacet
  facet normal -0.065316 0.792127 -0.606851
    outer loop
      vertex 1.5875e-15 -7.14947 2.06982
      vertex 1.28887 -7.00374 2.12132
      vertex 1.37516 -7.47262 1.5
    endloop
  endfacet
  facet normal -0.0759812 0.921418 -0.381071
    outer loop
      vertex 1.75087e-15 -7.88524 0.776457
      vertex 1.69007e-15 -7.61141 1.43857
      vertex 1.4294 -7.76737 0.776457
    endloop
  endfacet
  facet normal -0.0759788 0.921448 -0.380999
    outer loop
      vertex 1.37516 -7.47262 1.5
      vertex 1.69007e-15 -7.61141 1.43857
      vertex 1.68443e-15 -7.58601 1.5
    endloop
  endfacet
  facet normal -0.0759739 0.921425 -0.381057
    outer loop
      vertex 1.69007e-15 -7.61141 1.43857
      vertex 1.37516 -7.47262 1.5
      vertex 1.4294 -7.76737 0.776457
    endloop
  endfacet
  facet normal -0.0814823 0.988175 -0.129891
    outer loop
      vertex 1.77354e-15 -7.9873 0
      vertex 1.75284e-15 -7.89411 0.708966
      vertex 1.4479 -7.86791 0
    endloop
  endfacet
  facet normal -0.0814862 0.988177 -0.129871
    outer loop
      vertex 1.4294 -7.76737 0.776457
      vertex 1.75284e-15 -7.89411 0.708966
      vertex 1.75087e-15 -7.88524 0.776457
    endloop
  endfacet
  facet normal -0.0814848 0.988174 -0.129896
    outer loop
      vertex 1.75284e-15 -7.89411 0.708966
      vertex 1.4294 -7.76737 0.776457
      vertex 1.4479 -7.86791 0
    endloop
  endfacet
  facet normal 0.275653 -0.952442 -0.129883
    outer loop
      vertex 0.38048 -2.06753 0.776457
      vertex 0.361979 -1.967 0
      vertex 0.782564 -1.95116 0.776457
    endloop
  endfacet
  facet normal 0.275649 -0.952443 -0.129881
    outer loop
      vertex 0.782564 -1.95116 0.776457
      vertex 0.361979 -1.967 0
      vertex 0.744512 -1.85629 0
    endloop
  endfacet
  facet normal 0.257014 -0.88811 -0.381057
    outer loop
      vertex 0.434722 -2.36228 1.5
      vertex 0.38048 -2.06753 0.776457
      vertex 0.894129 -2.22933 1.5
    endloop
  endfacet
  facet normal 0.257031 -0.8881 -0.381067
    outer loop
      vertex 0.894129 -2.22933 1.5
      vertex 0.38048 -2.06753 0.776457
      vertex 0.782564 -1.95116 0.776457
    endloop
  endfacet
  facet normal 0.220963 -0.763478 -0.606858
    outer loop
      vertex 0.521008 -2.83117 2.12132
      vertex 0.434722 -2.36228 1.5
      vertex 1.0716 -2.67182 2.12132
    endloop
  endfacet
  facet normal 0.22095 -0.763488 -0.60685
    outer loop
      vertex 1.0716 -2.67182 2.12132
      vertex 0.434722 -2.36228 1.5
      vertex 0.894129 -2.22933 1.5
    endloop
  endfacet
  facet normal 0.169761 -0.586608 -0.791879
    outer loop
      vertex 0.633459 -3.44222 2.59808
      vertex 0.521008 -2.83117 2.12132
      vertex 1.30289 -3.24849 2.59808
    endloop
  endfacet
  facet normal 0.16977 -0.586597 -0.791885
    outer loop
      vertex 1.30289 -3.24849 2.59808
      vertex 0.521008 -2.83117 2.12132
      vertex 1.0716 -2.67182 2.12132
    endloop
  endfacet
  facet normal 0.106838 -0.369159 -0.923205
    outer loop
      vertex 0.764411 -4.15382 2.89778
      vertex 0.633459 -3.44222 2.59808
      vertex 1.57223 -3.92003 2.89778
    endloop
  endfacet
  facet normal 0.106835 -0.369165 -0.923203
    outer loop
      vertex 1.57223 -3.92003 2.89778
      vertex 0.633459 -3.44222 2.59808
      vertex 1.30289 -3.24849 2.59808
    endloop
  endfacet
  facet normal 0.0364637 -0.125994 -0.991361
    outer loop
      vertex 0.90494 -4.91745 3
      vertex 0.764411 -4.15382 2.89778
      vertex 1.86127 -4.64068 3
    endloop
  endfacet
  facet normal 0.0364637 -0.125994 -0.991361
    outer loop
      vertex 1.86127 -4.64068 3
      vertex 0.764411 -4.15382 2.89778
      vertex 1.57223 -3.92003 2.89778
    endloop
  endfacet
  facet normal -0.0364635 0.125992 -0.991361
    outer loop
      vertex 1.04547 -5.68109 2.89778
      vertex 0.90494 -4.91745 3
      vertex 2.1503 -5.36134 2.89778
    endloop
  endfacet
  facet normal -0.0364634 0.125993 -0.991361
    outer loop
      vertex 2.1503 -5.36134 2.89778
      vertex 0.90494 -4.91745 3
      vertex 1.86127 -4.64068 3
    endloop
  endfacet
  facet normal -0.10684 0.369164 -0.923203
    outer loop
      vertex 1.17642 -6.39268 2.59808
      vertex 1.04547 -5.68109 2.89778
      vertex 2.41964 -6.03288 2.59808
    endloop
  endfacet
  facet normal -0.10684 0.369163 -0.923203
    outer loop
      vertex 2.41964 -6.03288 2.59808
      vertex 1.04547 -5.68109 2.89778
      vertex 2.1503 -5.36134 2.89778
    endloop
  endfacet
  facet normal -0.169766 0.5866 -0.791883
    outer loop
      vertex 1.28887 -7.00374 2.12132
      vertex 1.17642 -6.39268 2.59808
      vertex 2.65093 -6.60955 2.12132
    endloop
  endfacet
  facet normal -0.169767 0.586598 -0.791885
    outer loop
      vertex 2.65093 -6.60955 2.12132
      vertex 1.17642 -6.39268 2.59808
      vertex 2.41964 -6.03288 2.59808
    endloop
  endfacet
  facet normal -0.220959 0.763484 -0.606852
    outer loop
      vertex 1.37516 -7.47262 1.5
      vertex 1.28887 -7.00374 2.12132
      vertex 2.8284 -7.05204 1.5
    endloop
  endfacet
  facet normal -0.220958 0.763486 -0.60685
    outer loop
      vertex 2.8284 -7.05204 1.5
      vertex 1.28887 -7.00374 2.12132
      vertex 2.65093 -6.60955 2.12132
    endloop
  endfacet
  facet normal -0.257025 0.888107 -0.381056
    outer loop
      vertex 1.4294 -7.76737 0.776457
      vertex 1.37516 -7.47262 1.5
      vertex 2.93997 -7.3302 0.776457
    endloop
  endfacet
  facet normal -0.257025 0.888106 -0.381058
    outer loop
      vertex 2.93997 -7.3302 0.776457
      vertex 1.37516 -7.47262 1.5
      vertex 2.8284 -7.05204 1.5
    endloop
  endfacet
  facet normal -0.275645 0.952443 -0.129895
    outer loop
      vertex 1.4479 -7.86791 0
      vertex 1.4294 -7.76737 0.776457
      vertex 2.97802 -7.42508 0
    endloop
  endfacet
  facet normal -0.275644 0.952443 -0.129893
    outer loop
      vertex 2.97802 -7.42508 0
      vertex 1.4294 -7.76737 0.776457
      vertex 2.93997 -7.3302 0.776457
    endloop
  endfacet
  facet normal 0.458882 -0.878953 -0.129882
    outer loop
      vertex 0.782564 -1.95116 0.776457
      vertex 0.744512 -1.85629 0
      vertex 1.15362 -1.75744 0.776457
    endloop
  endfacet
  facet normal 0.458876 -0.878956 -0.129879
    outer loop
      vertex 1.15362 -1.75744 0.776457
      vertex 0.744512 -1.85629 0
      vertex 1.09753 -1.67199 0
    endloop
  endfacet
  facet normal 0.427881 -0.819576 -0.381067
    outer loop
      vertex 0.894129 -2.22933 1.5
      vertex 0.782564 -1.95116 0.776457
      vertex 1.31809 -2.00799 1.5
    endloop
  endfacet
  facet normal 0.427882 -0.819576 -0.381067
    outer loop
      vertex 1.31809 -2.00799 1.5
      vertex 0.782564 -1.95116 0.776457
      vertex 1.15362 -1.75744 0.776457
    endloop
  endfacet
  facet normal 0.367839 -0.704576 -0.606851
    outer loop
      vertex 1.0716 -2.67182 2.12132
      vertex 0.894129 -2.22933 1.5
      vertex 1.57971 -2.40655 2.12132
    endloop
  endfacet
  facet normal 0.367841 -0.704573 -0.606852
    outer loop
      vertex 1.57971 -2.40655 2.12132
      vertex 0.894129 -2.22933 1.5
      vertex 1.31809 -2.00799 1.5
    endloop
  endfacet
  facet normal 0.282624 -0.541334 -0.791885
    outer loop
      vertex 1.30289 -3.24849 2.59808
      vertex 1.0716 -2.67182 2.12132
      vertex 1.92066 -2.92596 2.59808
    endloop
  endfacet
  facet normal 0.282619 -0.541342 -0.791881
    outer loop
      vertex 1.92066 -2.92596 2.59808
      vertex 1.0716 -2.67182 2.12132
      vertex 1.57971 -2.40655 2.12132
    endloop
  endfacet
  facet normal 0.177861 -0.340678 -0.923203
    outer loop
      vertex 1.57223 -3.92003 2.89778
      vertex 1.30289 -3.24849 2.59808
      vertex 2.31771 -3.53083 2.89778
    endloop
  endfacet
  facet normal 0.177862 -0.340675 -0.923204
    outer loop
      vertex 2.31771 -3.53083 2.89778
      vertex 1.30289 -3.24849 2.59808
      vertex 1.92066 -2.92596 2.59808
    endloop
  endfacet
  facet normal 0.060703 -0.116272 -0.991361
    outer loop
      vertex 1.86127 -4.64068 3
      vertex 1.57223 -3.92003 2.89778
      vertex 2.7438 -4.17993 3
    endloop
  endfacet
  facet normal 0.0607031 -0.116272 -0.991361
    outer loop
      vertex 2.7438 -4.17993 3
      vertex 1.57223 -3.92003 2.89778
      vertex 2.31771 -3.53083 2.89778
    endloop
  endfacet
  facet normal -0.0607031 0.116271 -0.991361
    outer loop
      vertex 2.1503 -5.36134 2.89778
      vertex 1.86127 -4.64068 3
      vertex 3.16989 -4.82903 2.89778
    endloop
  endfacet
  facet normal -0.060703 0.116272 -0.991361
    outer loop
      vertex 3.16989 -4.82903 2.89778
      vertex 1.86127 -4.64068 3
      vertex 2.7438 -4.17993 3
    endloop
  endfacet
  facet normal -0.177861 0.340678 -0.923203
    outer loop
      vertex 2.41964 -6.03288 2.59808
      vertex 2.1503 -5.36134 2.89778
      vertex 3.56694 -5.4339 2.59808
    endloop
  endfacet
  facet normal -0.177861 0.340676 -0.923204
    outer loop
      vertex 3.56694 -5.4339 2.59808
      vertex 2.1503 -5.36134 2.89778
      vertex 3.16989 -4.82903 2.89778
    endloop
  endfacet
  facet normal -0.282619 0.541336 -0.791885
    outer loop
      vertex 2.65093 -6.60955 2.12132
      vertex 2.41964 -6.03288 2.59808
      vertex 3.90789 -5.95332 2.12132
    endloop
  endfacet
  facet normal -0.282619 0.541335 -0.791885
    outer loop
      vertex 3.90789 -5.95332 2.12132
      vertex 2.41964 -6.03288 2.59808
      vertex 3.56694 -5.4339 2.59808
    endloop
  endfacet
  facet normal -0.367841 0.704575 -0.60685
    outer loop
      vertex 2.8284 -7.05204 1.5
      vertex 2.65093 -6.60955 2.12132
      vertex 4.16951 -6.35188 1.5
    endloop
  endfacet
  facet normal -0.367841 0.704573 -0.606852
    outer loop
      vertex 4.16951 -6.35188 1.5
      vertex 2.65093 -6.60955 2.12132
      vertex 3.90789 -5.95332 2.12132
    endloop
  endfacet
  facet normal -0.427883 0.819579 -0.38106
    outer loop
      vertex 2.93997 -7.3302 0.776457
      vertex 2.8284 -7.05204 1.5
      vertex 4.33398 -6.60242 0.776457
    endloop
  endfacet
  facet normal -0.427882 0.81958 -0.381057
    outer loop
      vertex 4.33398 -6.60242 0.776457
      vertex 2.8284 -7.05204 1.5
      vertex 4.16951 -6.35188 1.5
    endloop
  endfacet
  facet normal -0.458881 0.878952 -0.129892
    outer loop
      vertex 2.97802 -7.42508 0
      vertex 2.93997 -7.3302 0.776457
      vertex 4.39007 -6.68788 0
    endloop
  endfacet
  facet normal -0.45888 0.878952 -0.12989
    outer loop
      vertex 4.39007 -6.68788 0
      vertex 2.93997 -7.3302 0.776457
      vertex 4.33398 -6.60242 0.776457
    endloop
  endfacet
  facet normal 0.623923 -0.770618 -0.129879
    outer loop
      vertex 1.15362 -1.75744 0.776457
      vertex 1.09753 -1.67199 0
      vertex 1.47895 -1.49404 0.776457
    endloop
  endfacet
  facet normal 0.623932 -0.770609 -0.129885
    outer loop
      vertex 1.47895 -1.49404 0.776457
      vertex 1.09753 -1.67199 0
      vertex 1.40703 -1.4214 0
    endloop
  endfacet
  facet normal 0.581782 -0.718552 -0.381068
    outer loop
      vertex 1.31809 -2.00799 1.5
      vertex 1.15362 -1.75744 0.776457
      vertex 1.68979 -1.70704 1.5
    endloop
  endfacet
  facet normal 0.581775 -0.718561 -0.381062
    outer loop
      vertex 1.68979 -1.70704 1.5
      vertex 1.15362 -1.75744 0.776457
      vertex 1.47895 -1.49404 0.776457
    endloop
  endfacet
  facet normal 0.500149 -0.617723 -0.606851
    outer loop
      vertex 1.57971 -2.40655 2.12132
      vertex 1.31809 -2.00799 1.5
      vertex 2.02519 -2.04586 2.12132
    endloop
  endfacet
  facet normal 0.500148 -0.617727 -0.606849
    outer loop
      vertex 2.02519 -2.04586 2.12132
      vertex 1.31809 -2.00799 1.5
      vertex 1.68979 -1.70704 1.5
    endloop
  endfacet
  facet normal 0.384272 -0.474615 -0.791881
    outer loop
      vertex 1.92066 -2.92596 2.59808
      vertex 1.57971 -2.40655 2.12132
      vertex 2.46229 -2.48743 2.59808
    endloop
  endfacet
  facet normal 0.384274 -0.474608 -0.791884
    outer loop
      vertex 2.46229 -2.48743 2.59808
      vertex 1.57971 -2.40655 2.12132
      vertex 2.02519 -2.04586 2.12132
    endloop
  endfacet
  facet normal 0.241831 -0.298684 -0.923204
    outer loop
      vertex 2.31771 -3.53083 2.89778
      vertex 1.92066 -2.92596 2.59808
      vertex 2.97131 -3.00164 2.89778
    endloop
  endfacet
  facet normal 0.241831 -0.298686 -0.923203
    outer loop
      vertex 2.97131 -3.00164 2.89778
      vertex 1.92066 -2.92596 2.59808
      vertex 2.46229 -2.48743 2.59808
    endloop
  endfacet
  facet normal 0.082536 -0.10194 -0.991361
    outer loop
      vertex 2.7438 -4.17993 3
      vertex 2.31771 -3.53083 2.89778
      vertex 3.51755 -3.55346 3
    endloop
  endfacet
  facet normal 0.082536 -0.10194 -0.991361
    outer loop
      vertex 3.51755 -3.55346 3
      vertex 2.31771 -3.53083 2.89778
      vertex 2.97131 -3.00164 2.89778
    endloop
  endfacet
  facet normal -0.0825354 0.10194 -0.991361
    outer loop
      vertex 3.16989 -4.82903 2.89778
      vertex 2.7438 -4.17993 3
      vertex 4.0638 -4.10528 2.89778
    endloop
  endfacet
  facet normal -0.0825353 0.101939 -0.991361
    outer loop
      vertex 4.0638 -4.10528 2.89778
      vertex 2.7438 -4.17993 3
      vertex 3.51755 -3.55346 3
    endloop
  endfacet
  facet normal -0.241832 0.298684 -0.923204
    outer loop
      vertex 3.56694 -5.4339 2.59808
      vertex 3.16989 -4.82903 2.89778
      vertex 4.57281 -4.61949 2.59808
    endloop
  endfacet
  facet normal -0.241832 0.298689 -0.923202
    outer loop
      vertex 4.57281 -4.61949 2.59808
      vertex 3.16989 -4.82903 2.89778
      vertex 4.0638 -4.10528 2.89778
    endloop
  endfacet
  facet normal -0.384269 0.474611 -0.791885
    outer loop
      vertex 3.90789 -5.95332 2.12132
      vertex 3.56694 -5.4339 2.59808
      vertex 5.00992 -5.06106 2.12132
    endloop
  endfacet
  facet normal -0.384269 0.474607 -0.791887
    outer loop
      vertex 5.00992 -5.06106 2.12132
      vertex 3.56694 -5.4339 2.59808
      vertex 4.57281 -4.61949 2.59808
    endloop
  endfacet
  facet normal -0.500145 0.617726 -0.606852
    outer loop
      vertex 4.16951 -6.35188 1.5
      vertex 3.90789 -5.95332 2.12132
      vertex 5.34532 -5.39988 1.5
    endloop
  endfacet
  facet normal -0.500145 0.617729 -0.606849
    outer loop
      vertex 5.34532 -5.39988 1.5
      vertex 3.90789 -5.95332 2.12132
      vertex 5.00992 -5.06106 2.12132
    endloop
  endfacet
  facet normal -0.581781 0.718557 -0.381059
    outer loop
      vertex 4.33398 -6.60242 0.776457
      vertex 4.16951 -6.35188 1.5
      vertex 5.55616 -5.61288 0.776457
    endloop
  endfacet
  facet normal -0.581782 0.718555 -0.381062
    outer loop
      vertex 5.55616 -5.61288 0.776457
      vertex 4.16951 -6.35188 1.5
      vertex 5.34532 -5.39988 1.5
    endloop
  endfacet
  facet normal -0.623932 0.770609 -0.129888
    outer loop
      vertex 4.39007 -6.68788 0
      vertex 4.33398 -6.60242 0.776457
      vertex 5.62807 -5.68552 0
    endloop
  endfacet
  facet normal -0.623928 0.770614 -0.129877
    outer loop
      vertex 5.62807 -5.68552 0
      vertex 4.33398 -6.60242 0.776457
      vertex 5.55616 -5.61288 0.776457
    endloop
  endfacet
  facet normal 0.764233 -0.631725 -0.129888
    outer loop
      vertex 1.47895 -1.49404 0.776457
      vertex 1.40703 -1.4214 0
      vertex 1.74564 -1.17141 0.776457
    endloop
  endfacet
  facet normal 0.764243 -0.631711 -0.129896
    outer loop
      vertex 1.74564 -1.17141 0.776457
      vertex 1.40703 -1.4214 0
      vertex 1.66075 -1.11445 0
    endloop
  endfacet
  facet normal 0.712613 -0.589046 -0.381061
    outer loop
      vertex 1.68979 -1.70704 1.5
      vertex 1.47895 -1.49404 0.776457
      vertex 1.9945 -1.33841 1.5
    endloop
  endfacet
  facet normal 0.71261 -0.589052 -0.381058
    outer loop
      vertex 1.9945 -1.33841 1.5
      vertex 1.47895 -1.49404 0.776457
      vertex 1.74564 -1.17141 0.776457
    endloop
  endfacet
  facet normal 0.612614 -0.506396 -0.60685
    outer loop
      vertex 2.02519 -2.04586 2.12132
      vertex 1.68979 -1.70704 1.5
      vertex 2.39038 -1.60407 2.12132
    endloop
  endfacet
  facet normal 0.612616 -0.506389 -0.606853
    outer loop
      vertex 2.39038 -1.60407 2.12132
      vertex 1.68979 -1.70704 1.5
      vertex 1.9945 -1.33841 1.5
    endloop
  endfacet
  facet normal 0.470686 -0.38907 -0.791884
    outer loop
      vertex 2.46229 -2.48743 2.59808
      vertex 2.02519 -2.04586 2.12132
      vertex 2.9063 -1.95028 2.59808
    endloop
  endfacet
  facet normal 0.470685 -0.389075 -0.791882
    outer loop
      vertex 2.9063 -1.95028 2.59808
      vertex 2.02519 -2.04586 2.12132
      vertex 2.39038 -1.60407 2.12132
    endloop
  endfacet
  facet normal 0.296213 -0.244853 -0.923204
    outer loop
      vertex 2.97131 -3.00164 2.89778
      vertex 2.46229 -2.48743 2.59808
      vertex 3.50711 -2.35345 2.89778
    endloop
  endfacet
  facet normal 0.296213 -0.244851 -0.923204
    outer loop
      vertex 3.50711 -2.35345 2.89778
      vertex 2.46229 -2.48743 2.59808
      vertex 2.9063 -1.95028 2.59808
    endloop
  endfacet
  facet normal 0.101096 -0.0835673 -0.991361
    outer loop
      vertex 3.51755 -3.55346 3
      vertex 2.97131 -3.00164 2.89778
      vertex 4.15185 -2.78611 3
    endloop
  endfacet
  facet normal 0.101096 -0.0835671 -0.991361
    outer loop
      vertex 4.15185 -2.78611 3
      vertex 2.97131 -3.00164 2.89778
      vertex 3.50711 -2.35345 2.89778
    endloop
  endfacet
  facet normal -0.101096 0.0835659 -0.991361
    outer loop
      vertex 4.0638 -4.10528 2.89778
      vertex 3.51755 -3.55346 3
      vertex 4.79659 -3.21877 2.89778
    endloop
  endfacet
  facet normal -0.101096 0.0835672 -0.991361
    outer loop
      vertex 4.79659 -3.21877 2.89778
      vertex 3.51755 -3.55346 3
      vertex 4.15185 -2.78611 3
    endloop
  endfacet
  facet normal -0.296215 0.244856 -0.923202
    outer loop
      vertex 4.57281 -4.61949 2.59808
      vertex 4.0638 -4.10528 2.89778
      vertex 5.3974 -3.62194 2.59808
    endloop
  endfacet
  facet normal -0.296213 0.24485 -0.923204
    outer loop
      vertex 5.3974 -3.62194 2.59808
      vertex 4.0638 -4.10528 2.89778
      vertex 4.79659 -3.21877 2.89778
    endloop
  endfacet
  facet normal -0.470683 0.389066 -0.791887
    outer loop
      vertex 5.00992 -5.06106 2.12132
      vertex 4.57281 -4.61949 2.59808
      vertex 5.91332 -3.96815 2.12132
    endloop
  endfacet
  facet normal -0.470685 0.389075 -0.791882
    outer loop
      vertex 5.91332 -3.96815 2.12132
      vertex 4.57281 -4.61949 2.59808
      vertex 5.3974 -3.62194 2.59808
    endloop
  endfacet
  facet normal -0.612617 0.506393 -0.60685
    outer loop
      vertex 5.34532 -5.39988 1.5
      vertex 5.00992 -5.06106 2.12132
      vertex 6.3092 -4.23381 1.5
    endloop
  endfacet
  facet normal -0.612617 0.506389 -0.606853
    outer loop
      vertex 6.3092 -4.23381 1.5
      vertex 5.00992 -5.06106 2.12132
      vertex 5.91332 -3.96815 2.12132
    endloop
  endfacet
  facet normal -0.712612 0.589047 -0.381061
    outer loop
      vertex 5.55616 -5.61288 0.776457
      vertex 5.34532 -5.39988 1.5
      vertex 6.55806 -4.40081 0.776457
    endloop
  endfacet
  facet normal -0.712612 0.589049 -0.381058
    outer loop
      vertex 6.55806 -4.40081 0.776457
      vertex 5.34532 -5.39988 1.5
      vertex 6.3092 -4.23381 1.5
    endloop
  endfacet
  facet normal -0.764232 0.631728 -0.129878
    outer loop
      vertex 5.62807 -5.68552 0
      vertex 5.55616 -5.61288 0.776457
      vertex 6.64295 -4.45777 0
    endloop
  endfacet
  facet normal -0.764236 0.63172 -0.129896
    outer loop
      vertex 6.64295 -4.45777 0
      vertex 5.55616 -5.61288 0.776457
      vertex 6.55806 -4.40081 0.776457
    endloop
  endfacet
  facet normal 0.874244 -0.467786 -0.129897
    outer loop
      vertex 1.74564 -1.17141 0.776457
      vertex 1.66075 -1.11445 0
      vertex 1.94312 -0.80234 0.776457
    endloop
  endfacet
  facet normal 0.874242 -0.467791 -0.129895
    outer loop
      vertex 1.94312 -0.80234 0.776457
      vertex 1.66075 -1.11445 0
      vertex 1.84863 -0.763326 0
    endloop
  endfacet
  facet normal 0.815194 -0.436182 -0.381057
    outer loop
      vertex 1.9945 -1.33841 1.5
      vertex 1.74564 -1.17141 0.776457
      vertex 2.22013 -0.916723 1.5
    endloop
  endfacet
  facet normal 0.815192 -0.436188 -0.381054
    outer loop
      vertex 2.22013 -0.916723 1.5
      vertex 1.74564 -1.17141 0.776457
      vertex 1.94312 -0.80234 0.776457
    endloop
  endfacet
  facet normal 0.7008 -0.374979 -0.606853
    outer loop
      vertex 2.39038 -1.60407 2.12132
      vertex 1.9945 -1.33841 1.5
      vertex 2.6608 -1.09868 2.12132
    endloop
  endfacet
  facet normal 0.700801 -0.374974 -0.606855
    outer loop
      vertex 2.6608 -1.09868 2.12132
      vertex 1.9945 -1.33841 1.5
      vertex 2.22013 -0.916723 1.5
    endloop
  endfacet
  facet normal 0.53844 -0.288108 -0.791882
    outer loop
      vertex 2.9063 -1.95028 2.59808
      vertex 2.39038 -1.60407 2.12132
      vertex 3.23509 -1.33581 2.59808
    endloop
  endfacet
  facet normal 0.538439 -0.288104 -0.791883
    outer loop
      vertex 3.23509 -1.33581 2.59808
      vertex 2.39038 -1.60407 2.12132
      vertex 2.6608 -1.09868 2.12132
    endloop
  endfacet
  facet normal 0.338852 -0.18131 -0.923204
    outer loop
      vertex 3.50711 -2.35345 2.89778
      vertex 2.9063 -1.95028 2.59808
      vertex 3.90386 -1.61196 2.89778
    endloop
  endfacet
  facet normal 0.338853 -0.181313 -0.923203
    outer loop
      vertex 3.90386 -1.61196 2.89778
      vertex 2.9063 -1.95028 2.59808
      vertex 3.23509 -1.33581 2.59808
    endloop
  endfacet
  facet normal 0.115649 -0.0618805 -0.991361
    outer loop
      vertex 4.15185 -2.78611 3
      vertex 3.50711 -2.35345 2.89778
      vertex 4.62154 -1.9083 3
    endloop
  endfacet
  facet normal 0.115649 -0.0618806 -0.991361
    outer loop
      vertex 4.62154 -1.9083 3
      vertex 3.50711 -2.35345 2.89778
      vertex 3.90386 -1.61196 2.89778
    endloop
  endfacet
  facet normal -0.115649 0.0618804 -0.991361
    outer loop
      vertex 4.79659 -3.21877 2.89778
      vertex 4.15185 -2.78611 3
      vertex 5.33922 -2.20464 2.89778
    endloop
  endfacet
  facet normal -0.115649 0.0618805 -0.991361
    outer loop
      vertex 5.33922 -2.20464 2.89778
      vertex 4.15185 -2.78611 3
      vertex 4.62154 -1.9083 3
    endloop
  endfacet
  facet normal -0.338851 0.181311 -0.923204
    outer loop
      vertex 5.3974 -3.62194 2.59808
      vertex 4.79659 -3.21877 2.89778
      vertex 6.008 -2.48079 2.59808
    endloop
  endfacet
  facet normal -0.33885 0.181308 -0.923205
    outer loop
      vertex 6.008 -2.48079 2.59808
      vertex 4.79659 -3.21877 2.89778
      vertex 5.33922 -2.20464 2.89778
    endloop
  endfacet
  facet normal -0.53844 0.288107 -0.791882
    outer loop
      vertex 5.91332 -3.96815 2.12132
      vertex 5.3974 -3.62194 2.59808
      vertex 6.58229 -2.71792 2.12132
    endloop
  endfacet
  facet normal -0.538439 0.288105 -0.791883
    outer loop
      vertex 6.58229 -2.71792 2.12132
      vertex 5.3974 -3.62194 2.59808
      vertex 6.008 -2.48079 2.59808
    endloop
  endfacet
  facet normal -0.7008 0.374979 -0.606853
    outer loop
      vertex 6.3092 -4.23381 1.5
      vertex 5.91332 -3.96815 2.12132
      vertex 7.02295 -2.89988 1.5
    endloop
  endfacet
  facet normal -0.700801 0.374983 -0.606848
    outer loop
      vertex 7.02295 -2.89988 1.5
      vertex 5.91332 -3.96815 2.12132
      vertex 6.58229 -2.71792 2.12132
    endloop
  endfacet
  facet normal -0.81519 0.436189 -0.381058
    outer loop
      vertex 6.55806 -4.40081 0.776457
      vertex 6.3092 -4.23381 1.5
      vertex 7.29997 -3.01426 0.776457
    endloop
  endfacet
  facet normal -0.815189 0.436186 -0.381062
    outer loop
      vertex 7.29997 -3.01426 0.776457
      vertex 6.3092 -4.23381 1.5
      vertex 7.02295 -2.89988 1.5
    endloop
  endfacet
  facet normal -0.874247 0.46778 -0.129897
    outer loop
      vertex 6.64295 -4.45777 0
      vertex 6.55806 -4.40081 0.776457
      vertex 7.39445 -3.05327 0
    endloop
  endfacet
  facet normal -0.874246 0.467788 -0.129881
    outer loop
      vertex 7.39445 -3.05327 0
      vertex 6.55806 -4.40081 0.776457
      vertex 7.29997 -3.01426 0.776457
    endloop
  endfacet
  facet normal 0.949597 -0.285295 -0.129895
    outer loop
      vertex 1.94312 -0.80234 0.776457
      vertex 1.84863 -0.763326 0
      vertex 2.06356 -0.401458 0.776457
    endloop
  endfacet
  facet normal 0.949594 -0.285309 -0.129887
    outer loop
      vertex 2.06356 -0.401458 0.776457
      vertex 1.84863 -0.763326 0
      vertex 1.96322 -0.381936 0
    endloop
  endfacet
  facet normal 0.885449 -0.266041 -0.381054
    outer loop
      vertex 2.22013 -0.916723 1.5
      vertex 1.94312 -0.80234 0.776457
      vertex 2.35775 -0.458691 1.5
    endloop
  endfacet
  facet normal 0.88545 -0.266023 -0.381064
    outer loop
      vertex 2.35775 -0.458691 1.5
      vertex 1.94312 -0.80234 0.776457
      vertex 2.06356 -0.401458 0.776457
    endloop
  endfacet
  facet normal 0.761198 -0.228701 -0.606855
    outer loop
      vertex 2.6608 -1.09868 2.12132
      vertex 2.22013 -0.916723 1.5
      vertex 2.82573 -0.549734 2.12132
    endloop
  endfacet
  facet normal 0.761199 -0.228709 -0.606851
    outer loop
      vertex 2.82573 -0.549734 2.12132
      vertex 2.22013 -0.916723 1.5
      vertex 2.35775 -0.458691 1.5
    endloop
  endfacet
  facet normal 0.584847 -0.175711 -0.791883
    outer loop
      vertex 3.23509 -1.33581 2.59808
      vertex 2.6608 -1.09868 2.12132
      vertex 3.43561 -0.668386 2.59808
    endloop
  endfacet
  facet normal 0.584849 -0.175717 -0.791881
    outer loop
      vertex 3.43561 -0.668386 2.59808
      vertex 2.6608 -1.09868 2.12132
      vertex 2.82573 -0.549734 2.12132
    endloop
  endfacet
  facet normal 0.368059 -0.110582 -0.923203
    outer loop
      vertex 3.90386 -1.61196 2.89778
      vertex 3.23509 -1.33581 2.59808
      vertex 4.14584 -0.806558 2.89778
    endloop
  endfacet
  facet normal 0.368057 -0.110579 -0.923204
    outer loop
      vertex 4.14584 -0.806558 2.89778
      vertex 3.23509 -1.33581 2.59808
      vertex 3.43561 -0.668386 2.59808
    endloop
  endfacet
  facet normal 0.125617 -0.0377417 -0.991361
    outer loop
      vertex 4.62154 -1.9083 3
      vertex 3.90386 -1.61196 2.89778
      vertex 4.90801 -0.954834 3
    endloop
  endfacet
  facet normal 0.125616 -0.0377409 -0.991361
    outer loop
      vertex 4.90801 -0.954834 3
      vertex 3.90386 -1.61196 2.89778
      vertex 4.14584 -0.806558 2.89778
    endloop
  endfacet
  facet normal -0.125616 0.0377421 -0.991361
    outer loop
      vertex 5.33922 -2.20464 2.89778
      vertex 4.62154 -1.9083 3
      vertex 5.67018 -1.10311 2.89778
    endloop
  endfacet
  facet normal -0.125616 0.0377415 -0.991361
    outer loop
      vertex 5.67018 -1.10311 2.89778
      vertex 4.62154 -1.9083 3
      vertex 4.90801 -0.954834 3
    endloop
  endfacet
  facet normal -0.368055 0.110579 -0.923205
    outer loop
      vertex 6.008 -2.48079 2.59808
      vertex 5.33922 -2.20464 2.89778
      vertex 6.3804 -1.24128 2.59808
    endloop
  endfacet
  facet normal -0.368061 0.110586 -0.923202
    outer loop
      vertex 6.3804 -1.24128 2.59808
      vertex 5.33922 -2.20464 2.89778
      vertex 5.67018 -1.10311 2.89778
    endloop
  endfacet
  facet normal -0.584846 0.175714 -0.791883
    outer loop
      vertex 6.58229 -2.71792 2.12132
      vertex 6.008 -2.48079 2.59808
      vertex 6.99029 -1.35993 2.12132
    endloop
  endfacet
  facet normal -0.584845 0.175712 -0.791885
    outer loop
      vertex 6.99029 -1.35993 2.12132
      vertex 6.008 -2.48079 2.59808
      vertex 6.3804 -1.24128 2.59808
    endloop
  endfacet
  facet normal -0.761204 0.228703 -0.606848
    outer loop
      vertex 7.02295 -2.89988 1.5
      vertex 6.58229 -2.71792 2.12132
      vertex 7.45827 -1.45098 1.5
    endloop
  endfacet
  facet normal -0.761201 0.228698 -0.606853
    outer loop
      vertex 7.45827 -1.45098 1.5
      vertex 6.58229 -2.71792 2.12132
      vertex 6.99029 -1.35993 2.12132
    endloop
  endfacet
  facet normal -0.885448 0.266031 -0.381063
    outer loop
      vertex 7.29997 -3.01426 0.776457
      vertex 7.02295 -2.89988 1.5
      vertex 7.75246 -1.50821 0.776457
    endloop
  endfacet
  facet normal -0.885448 0.266032 -0.381062
    outer loop
      vertex 7.75246 -1.50821 0.776457
      vertex 7.02295 -2.89988 1.5
      vertex 7.45827 -1.45098 1.5
    endloop
  endfacet
  facet normal -0.949595 0.285307 -0.129882
    outer loop
      vertex 7.39445 -3.05327 0
      vertex 7.29997 -3.01426 0.776457
      vertex 7.8528 -1.52773 0
    endloop
  endfacet
  facet normal -0.949595 0.285304 -0.129887
    outer loop
      vertex 7.8528 -1.52773 0
      vertex 7.29997 -3.01426 0.776457
      vertex 7.75246 -1.50821 0.776457
    endloop
  endfacet
  facet normal 0.987281 -0.091523 -0.13
    outer loop
      vertex 2.06356 -0.401458 0.776457
      vertex 2.0894 -0.02122 0.705002
      vertex 2.0988 -0.0213154 0.776457
    endloop
  endfacet
  facet normal 0.987298 -0.0915028 -0.129887
    outer loop
      vertex 2.0894 -0.02122 0.705002
      vertex 2.06356 -0.401458 0.776457
      vertex 1.96322 -0.381936 0
    endloop
  endfacet
  facet normal 0.987298 -0.0915072 -0.129885
    outer loop
      vertex 2.0894 -0.02122 0.705002
      vertex 1.96322 -0.381936 0
      vertex 1.99674 -0.0202789 0
    endloop
  endfacet
  facet normal 0.920614 -0.0853133 -0.381041
    outer loop
      vertex 2.35775 -0.458691 1.5
      vertex 2.36831 -0.0240527 1.4282
      vertex 2.398 -0.0243542 1.5
    endloop
  endfacet
  facet normal 0.920604 -0.0853167 -0.381063
    outer loop
      vertex 2.36831 -0.0240527 1.4282
      vertex 2.35775 -0.458691 1.5
      vertex 2.06356 -0.401458 0.776457
    endloop
  endfacet
  facet normal 0.920607 -0.0853422 -0.38105
    outer loop
      vertex 2.36831 -0.0240527 1.4282
      vertex 2.06356 -0.401458 0.776457
      vertex 2.0988 -0.0213154 0.776457
    endloop
  endfacet
  facet normal 0.791387 -0.0733546 -0.606899
    outer loop
      vertex 2.82573 -0.549734 2.12132
      vertex 2.82467 -0.0286876 2.05696
      vertex 2.87398 -0.0291884 2.12132
    endloop
  endfacet
  facet normal 0.791424 -0.0733486 -0.606851
    outer loop
      vertex 2.82467 -0.0286876 2.05696
      vertex 2.82573 -0.549734 2.12132
      vertex 2.35775 -0.458691 1.5
    endloop
  endfacet
  facet normal 0.791359 -0.0731355 -0.606961
    outer loop
      vertex 2.35775 -0.458691 1.5
      vertex 2.81254 -0.0285645 2.04113
      vertex 2.82467 -0.0286876 2.05696
    endloop
  endfacet
  facet normal 0.791424 -0.0733413 -0.606852
    outer loop
      vertex 2.81254 -0.0285645 2.04113
      vertex 2.35775 -0.458691 1.5
      vertex 2.398 -0.0243542 1.5
    endloop
  endfacet
  facet normal 0.608023 -0.0563641 -0.791916
    outer loop
      vertex 3.43561 -0.668386 2.59808
      vertex 3.42918 -0.0348273 2.54805
      vertex 3.49428 -0.0354884 2.59808
    endloop
  endfacet
  facet normal 0.60807 -0.0563608 -0.79188
    outer loop
      vertex 3.42918 -0.0348273 2.54805
      vertex 3.43561 -0.668386 2.59808
      vertex 2.82573 -0.549734 2.12132
    endloop
  endfacet
  facet normal 0.608071 -0.0563628 -0.791879
    outer loop
      vertex 3.42918 -0.0348273 2.54805
      vertex 2.82573 -0.549734 2.12132
      vertex 2.87398 -0.0291884 2.12132
    endloop
  endfacet
  facet normal 0.382699 -0.0354721 -0.923192
    outer loop
      vertex 4.14584 -0.806558 2.89778
      vertex 4.14134 -0.0420603 2.86654
      vertex 4.21663 -0.042825 2.89778
    endloop
  endfacet
  facet normal 0.382669 -0.0354728 -0.923204
    outer loop
      vertex 4.14134 -0.0420603 2.86654
      vertex 4.14584 -0.806558 2.89778
      vertex 3.43561 -0.668386 2.59808
    endloop
  endfacet
  facet normal 0.382682 -0.0354896 -0.923198
    outer loop
      vertex 3.43561 -0.668386 2.59808
      vertex 3.90589 -0.039669 2.76885
      vertex 4.14134 -0.0420603 2.86654
    endloop
  endfacet
  facet normal 0.382674 -0.0354827 -0.923202
    outer loop
      vertex 3.90589 -0.039669 2.76885
      vertex 3.43561 -0.668386 2.59808
      vertex 3.62329 -0.0367987 2.6516
    endloop
  endfacet
  facet normal 0.382638 -0.0354708 -0.923217
    outer loop
      vertex 3.62329 -0.0367987 2.6516
      vertex 3.43561 -0.668386 2.59808
      vertex 3.49428 -0.0354884 2.59808
    endloop
  endfacet
  facet normal 0.13057 -0.0121019 -0.991365
    outer loop
      vertex 4.90801 -0.954834 3
      vertex 4.91239 -0.0498915 2.98953
      vertex 4.99181 -0.0506982 3
    endloop
  endfacet
  facet normal 0.130604 -0.012102 -0.991361
    outer loop
      vertex 4.91239 -0.0498915 2.98953
      vertex 4.90801 -0.954834 3
      vertex 4.14584 -0.806558 2.89778
    endloop
  endfacet
  facet normal 0.130683 -0.0121833 -0.991349
    outer loop
      vertex 4.14584 -0.806558 2.89778
      vertex 4.81758 -0.0489286 2.97702
      vertex 4.91239 -0.0498915 2.98953
    endloop
  endfacet
  facet normal 0.130596 -0.0121049 -0.991362
    outer loop
      vertex 4.81758 -0.0489286 2.97702
      vertex 4.14584 -0.806558 2.89778
      vertex 4.21663 -0.042825 2.89778
    endloop
  endfacet
  facet normal -0.130529 0.0120977 -0.991371
    outer loop
      vertex 5.67018 -1.10311 2.89778
      vertex 5.68929 -0.0577822 2.90802
      vertex 5.76699 -0.0585714 2.89778
    endloop
  endfacet
  facet normal -0.130605 0.012099 -0.991361
    outer loop
      vertex 5.68929 -0.0577822 2.90802
      vertex 5.67018 -1.10311 2.89778
      vertex 4.90801 -0.954834 3
    endloop
  endfacet
  facet normal -0.130612 0.0121058 -0.99136
    outer loop
      vertex 5.68929 -0.0577822 2.90802
      vertex 4.90801 -0.954834 3
      vertex 4.99181 -0.0506982 3
    endloop
  endfacet
  facet normal -0.382592 0.035464 -0.923237
    outer loop
      vertex 6.3804 -1.24128 2.59808
      vertex 6.41864 -0.0651898 2.62741
      vertex 6.48935 -0.065908 2.59808
    endloop
  endfacet
  facet normal -0.382675 0.0354658 -0.923202
    outer loop
      vertex 6.41864 -0.0651898 2.62741
      vertex 6.3804 -1.24128 2.59808
      vertex 5.67018 -1.10311 2.89778
    endloop
  endfacet
  facet normal -0.382677 0.0354673 -0.923201
    outer loop
      vertex 6.41864 -0.0651898 2.62741
      vertex 5.67018 -1.10311 2.89778
      vertex 5.76699 -0.0585714 2.89778
    endloop
  endfacet
  facet normal -0.608027 0.0563585 -0.791914
    outer loop
      vertex 6.99029 -1.35993 2.12132
      vertex 7.05038 -0.071606 2.16687
      vertex 7.10965 -0.072208 2.12132
    endloop
  endfacet
  facet normal -0.608064 0.0563592 -0.791885
    outer loop
      vertex 7.05038 -0.071606 2.16687
      vertex 6.99029 -1.35993 2.12132
      vertex 6.3804 -1.24128 2.59808
    endloop
  endfacet
  facet normal -0.608064 0.0563596 -0.791885
    outer loop
      vertex 6.3804 -1.24128 2.59808
      vertex 6.62723 -0.0673083 2.4921
      vertex 7.05038 -0.071606 2.16687
    endloop
  endfacet
  facet normal -0.608087 0.0563661 -0.791867
    outer loop
      vertex 6.62723 -0.0673083 2.4921
      vertex 6.3804 -1.24128 2.59808
      vertex 6.48935 -0.065908 2.59808
    endloop
  endfacet
  facet normal -0.79143 0.0733575 -0.606842
    outer loop
      vertex 7.45827 -1.45098 1.5
      vertex 7.54122 -0.0765912 1.55796
      vertex 7.58562 -0.0770421 1.5
    endloop
  endfacet
  facet normal -0.791423 0.0733574 -0.606852
    outer loop
      vertex 7.54122 -0.0765912 1.55796
      vertex 7.45827 -1.45098 1.5
      vertex 6.99029 -1.35993 2.12132
    endloop
  endfacet
  facet normal -0.791423 0.0733576 -0.606851
    outer loop
      vertex 7.54122 -0.0765912 1.55796
      vertex 6.99029 -1.35993 2.12132
      vertex 7.10965 -0.072208 2.12132
    endloop
  endfacet
  facet normal -0.920595 0.0853278 -0.381082
    outer loop
      vertex 7.75246 -1.50821 0.776457
      vertex 7.85757 -0.0798041 0.842372
      vertex 7.88483 -0.0800809 0.776457
    endloop
  endfacet
  facet normal -0.920603 0.0853275 -0.381063
    outer loop
      vertex 7.85757 -0.0798041 0.842372
      vertex 7.75246 -1.50821 0.776457
      vertex 7.45827 -1.45098 1.5
    endloop
  endfacet
  facet normal -0.920605 0.0853307 -0.381058
    outer loop
      vertex 7.85757 -0.0798041 0.842372
      vertex 7.45827 -1.45098 1.5
      vertex 7.58562 -0.0770421 1.5
    endloop
  endfacet
  facet normal -0.987299 0.0915083 -0.12987
    outer loop
      vertex 7.8528 -1.52773 0
      vertex 7.9778 -0.0810251 0.0690928
      vertex 7.98688 -0.0811173 0
    endloop
  endfacet
  facet normal -0.987297 0.0915089 -0.129887
    outer loop
      vertex 7.9778 -0.0810251 0.0690928
      vertex 7.8528 -1.52773 0
      vertex 7.75246 -1.50821 0.776457
    endloop
  endfacet
  facet normal -0.987297 0.0915103 -0.129884
    outer loop
      vertex 7.9778 -0.0810251 0.0690928
      vertex 7.75246 -1.50821 0.776457
      vertex 7.88483 -0.0800809 0.776457
    endloop
  endfacet
  facet normal 0 0 -1
    outer loop
      vertex 8.75661 -2.079 0
      vertex 8.86327 -0.0900183 0
      vertex 8.99956 -0.091403 0
    endloop
  endfacet
  facet normal 0 0 -1
    outer loop
      vertex 8.75661 -2.079 0
      vertex 8.72698 -0.0886342 0
      vertex 8.86327 -0.0900183 0
    endloop
  endfacet
  facet normal 0 0 -1
    outer loop
      vertex 7.39445 -3.05327 0
      vertex 8.75661 -2.079 0
      vertex 8.0802 -3.96369 0
    endloop
  endfacet
  facet normal 0 0 -1
    outer loop
      vertex 8.75661 -2.079 0
      vertex 7.8528 -1.52773 0
      vertex 8.72698 -0.0886342 0
    endloop
  endfacet
  facet normal -0 0 -1
    outer loop
      vertex 8.72698 -0.0886342 0
      vertex 7.8528 -1.52773 0
      vertex 7.98688 -0.0811173 0
    endloop
  endfacet
  facet normal -0 0 -1
    outer loop
      vertex 8.75661 -2.079 0
      vertex 7.39445 -3.05327 0
      vertex 7.8528 -1.52773 0
    endloop
  endfacet
  facet normal 0 0 -1
    outer loop
      vertex 6.64295 -4.45777 0
      vertex 8.0802 -3.96369 0
      vertex 7.00382 -5.65217 0
    endloop
  endfacet
  facet normal -0 0 -1
    outer loop
      vertex 8.0802 -3.96369 0
      vertex 6.64295 -4.45777 0
      vertex 7.39445 -3.05327 0
    endloop
  endfacet
  facet normal -0 0 -1
    outer loop
      vertex 7.00382 -5.65217 0
      vertex 5.62807 -5.68552 0
      vertex 6.64295 -4.45777 0
    endloop
  endfacet
  facet normal 0 0 -1
    outer loop
      vertex 5.58074 -7.06086 0
      vertex 5.62807 -5.68552 0
      vertex 7.00382 -5.65217 0
    endloop
  endfacet
  facet normal 0 0 -1
    outer loop
      vertex 5.58074 -7.06086 0
      vertex 4.39007 -6.68788 0
      vertex 5.62807 -5.68552 0
    endloop
  endfacet
  facet normal 0 0 -1
    outer loop
      vertex 3.88142 -8.12004 0
      vertex 4.39007 -6.68788 0
      vertex 5.58074 -7.06086 0
    endloop
  endfacet
  facet normal 0 0 -1
    outer loop
      vertex 3.88142 -8.12004 0
      vertex 2.97802 -7.42508 0
      vertex 4.39007 -6.68788 0
    endloop
  endfacet
  facet normal 0 0 -1
    outer loop
      vertex 1.98996 -8.77727 0
      vertex 2.97802 -7.42508 0
      vertex 3.88142 -8.12004 0
    endloop
  endfacet
  facet normal 0 0 -1
    outer loop
      vertex 1.98996 -8.77727 0
      vertex 1.4479 -7.86791 0
      vertex 2.97802 -7.42508 0
    endloop
  endfacet
  facet normal 0 0 -1
    outer loop
      vertex 1.99841e-15 -9.00003 0
      vertex 1.4479 -7.86791 0
      vertex 1.98996 -8.77727 0
    endloop
  endfacet
  facet normal 0 0 -1
    outer loop
      vertex 1.4479 -7.86791 0
      vertex 1.99841e-15 -9.00003 0
      vertex 1.77354e-15 -7.9873 0
    endloop
  endfacet
  facet normal 0 0 -1
    outer loop
      vertex 1.41365 -0.0143567 0
      vertex 1.96322 -0.381936 0
      vertex 1.84863 -0.763326 0
    endloop
  endfacet
  facet normal 0 0 -1
    outer loop
      vertex 0.897821 -0.440419 0
      vertex 1.84863 -0.763326 0
      vertex 1.66075 -1.11445 0
    endloop
  endfacet
  facet normal 0 0 -1
    outer loop
      vertex 1.96322 -0.381936 0
      vertex 1.41365 -0.0143567 0
      vertex 1.99674 -0.0202789 0
    endloop
  endfacet
  facet normal 0 0 -1
    outer loop
      vertex 0.77822 -0.628033 0
      vertex 1.66075 -1.11445 0
      vertex 1.40703 -1.4214 0
    endloop
  endfacet
  facet normal 0 0 -1
    outer loop
      vertex 0.620097 -0.784558 0
      vertex 1.40703 -1.4214 0
      vertex 1.09753 -1.67199 0
    endloop
  endfacet
  facet normal 0 0 -1
    outer loop
      vertex 1.84863 -0.763326 0
      vertex 0.897821 -0.440419 0
      vertex 1.41365 -0.0143567 0
    endloop
  endfacet
  facet normal -0 0 -1
    outer loop
      vertex 1.41365 -0.0143567 0
      vertex 0.97298 -0.231005 0
      vertex 0.999974 -0.0101557 0
    endloop
  endfacet
  facet normal 0 0 -1
    outer loop
      vertex 1.41365 -0.0143567 0
      vertex 0.897821 -0.440419 0
      vertex 0.97298 -0.231005 0
    endloop
  endfacet
  facet normal 0 0 -1
    outer loop
      vertex 1.66075 -1.11445 0
      vertex 0.77822 -0.628033 0
      vertex 0.897821 -0.440419 0
    endloop
  endfacet
  facet normal 0 0 -1
    outer loop
      vertex 0.431278 -0.902247 0
      vertex 1.09753 -1.67199 0
      vertex 0.744512 -1.85629 0
    endloop
  endfacet
  facet normal 0 0 -1
    outer loop
      vertex 1.40703 -1.4214 0
      vertex 0.620097 -0.784558 0
      vertex 0.77822 -0.628033 0
    endloop
  endfacet
  facet normal 0 0 -1
    outer loop
      vertex 1.09753 -1.67199 0
      vertex 0.431278 -0.902247 0
      vertex 0.620097 -0.784558 0
    endloop
  endfacet
  facet normal 0 0 -1
    outer loop
      vertex 0.221111 -0.975275 0
      vertex 0.744512 -1.85629 0
      vertex 0.361979 -1.967 0
    endloop
  endfacet
  facet normal 0 0 -1
    outer loop
      vertex 0.744512 -1.85629 0
      vertex 0.221111 -0.975275 0
      vertex 0.431278 -0.902247 0
    endloop
  endfacet
  facet normal 0 0 -1
    outer loop
      vertex 2.2205e-16 -1.00003 0
      vertex 0.361979 -1.967 0
      vertex 4.43388e-16 -1.99684 0
    endloop
  endfacet
  facet normal 0 0 -1
    outer loop
      vertex 0.361979 -1.967 0
      vertex 2.2205e-16 -1.00003 0
      vertex 0.221111 -0.975275 0
    endloop
  endfacet
endsolid OpenSCAD_Model
