solid OpenSCAD_Model
  facet normal -1 2.22059e-16 -3.29271e-21
    outer loop
      vertex 3.9878e-15 17.9595 0.0614985
      vertex 4.18856e-15 18.8636 1.03528
      vertex 4.21883e-15 18.9999 0
    endloop
  endfacet
  facet normal -1 2.22046e-16 -2.21701e-19
    outer loop
      vertex 3.9878e-15 17.9595 0.0614985
      vertex 4.21883e-15 18.9999 0
      vertex 3.98959e-15 17.9675 0
    endloop
  endfacet
  facet normal -1 2.22038e-16 1.61452e-20
    outer loop
      vertex 4.18856e-15 18.8636 1.03528
      vertex 3.9878e-15 17.9595 0.0614985
      vertex 3.96694e-15 17.8655 0.776457
    endloop
  endfacet
  facet normal -1 2.22095e-16 -2.05918e-19
    outer loop
      vertex 3.96162e-15 17.8416 0.834358
      vertex 4.18856e-15 18.8636 1.03528
      vertex 3.96694e-15 17.8655 0.776457
    endloop
  endfacet
  facet normal -1 2.22054e-16 2.96746e-21
    outer loop
      vertex 4.18856e-15 18.8636 1.03528
      vertex 3.96162e-15 17.8416 0.834358
      vertex 4.09983e-15 18.464 2
    endloop
  endfacet
  facet normal -1 2.22023e-16 1.95172e-20
    outer loop
      vertex 3.90051e-15 17.5663 1.5
      vertex 4.09983e-15 18.464 2
      vertex 3.96162e-15 17.8416 0.834358
    endloop
  endfacet
  facet normal -1 2.22142e-16 -1.94015e-19
    outer loop
      vertex 3.89197e-15 17.5279 1.55021
      vertex 4.09983e-15 18.464 2
      vertex 3.90051e-15 17.5663 1.5
    endloop
  endfacet
  facet normal -1 2.22046e-16 5.73474e-21
    outer loop
      vertex 4.09983e-15 18.464 2
      vertex 3.89197e-15 17.5279 1.55021
      vertex 3.95868e-15 17.8283 2.82843
    endloop
  endfacet
  facet normal -1 2.22025e-16 1.06365e-20
    outer loop
      vertex 3.79484e-15 17.0904 2.12132
      vertex 3.95868e-15 17.8283 2.82843
      vertex 3.89197e-15 17.5279 1.55021
    endloop
  endfacet
  facet normal -1 2.22224e-16 -1.97208e-19
    outer loop
      vertex 3.78361e-15 17.0399 2.16018
      vertex 3.95868e-15 17.8283 2.82843
      vertex 3.79484e-15 17.0904 2.12132
    endloop
  endfacet
  facet normal -1 2.2205e-16 9.18899e-21
    outer loop
      vertex 3.78361e-15 17.0399 2.16018
      vertex 3.77474e-15 16.9999 3.4641
      vertex 3.95868e-15 17.8283 2.82843
    endloop
  endfacet
  facet normal -1 2.22018e-16 8.21836e-21
    outer loop
      vertex 3.65713e-15 16.4702 2.59808
      vertex 3.77474e-15 16.9999 3.4641
      vertex 3.78361e-15 17.0399 2.16018
    endloop
  endfacet
  facet normal -1 2.22079e-16 -2.91369e-20
    outer loop
      vertex 3.64396e-15 16.4109 2.62268
      vertex 3.77474e-15 16.9999 3.4641
      vertex 3.65713e-15 16.4702 2.59808
    endloop
  endfacet
  facet normal -1 2.22054e-16 -1.15693e-20
    outer loop
      vertex 3.64396e-15 16.4109 2.62268
      vertex 3.56052e-15 16.0352 3.8637
      vertex 3.77474e-15 16.9999 3.4641
    endloop
  endfacet
  facet normal -1 2.22049e-16 -1.2979e-20
    outer loop
      vertex 3.49676e-15 15.748 2.89778
      vertex 3.56052e-15 16.0352 3.8637
      vertex 3.64396e-15 16.4109 2.62268
    endloop
  endfacet
  facet normal -1 2.2203e-16 -7.34745e-21
    outer loop
      vertex 3.48255e-15 15.684 2.90621
      vertex 3.56052e-15 16.0352 3.8637
      vertex 3.49676e-15 15.748 2.89778
    endloop
  endfacet
  facet normal -1 2.22031e-16 -7.70143e-21
    outer loop
      vertex 3.48255e-15 15.684 2.90621
      vertex 3.33065e-15 14.9999 4
      vertex 3.56052e-15 16.0352 3.8637
    endloop
  endfacet
  facet normal -1 2.22036e-16 -4.96194e-21
    outer loop
      vertex 3.32466e-15 14.9729 3
      vertex 3.33065e-15 14.9999 4
      vertex 3.48255e-15 15.684 2.90621
    endloop
  endfacet
  facet normal -1 2.22154e-16 -8.15699e-21
    outer loop
      vertex 3.31042e-15 14.9088 2.99154
      vertex 3.33065e-15 14.9999 4
      vertex 3.32466e-15 14.9729 3
    endloop
  endfacet
  facet normal -1 2.22054e-16 1.58451e-20
    outer loop
      vertex 3.10077e-15 13.9646 3.8637
      vertex 3.31042e-15 14.9088 2.99154
      vertex 3.15256e-15 14.1979 2.89778
    endloop
  endfacet
  facet normal -1 2.22099e-16 2.67154e-20
    outer loop
      vertex 3.10077e-15 13.9646 3.8637
      vertex 3.15256e-15 14.1979 2.89778
      vertex 3.1393e-15 14.1382 2.873
    endloop
  endfacet
  facet normal -1 2.22042e-16 1.98809e-21
    outer loop
      vertex 3.31042e-15 14.9088 2.99154
      vertex 3.10077e-15 13.9646 3.8637
      vertex 3.33065e-15 14.9999 4
    endloop
  endfacet
  facet normal -1 2.22025e-16 -1.44918e-20
    outer loop
      vertex 2.88656e-15 12.9999 3.4641
      vertex 3.1393e-15 14.1382 2.873
      vertex 2.99219e-15 13.4756 2.59808
    endloop
  endfacet
  facet normal -1 2.22126e-16 4.06024e-20
    outer loop
      vertex 2.88656e-15 12.9999 3.4641
      vertex 2.99219e-15 13.4756 2.59808
      vertex 2.98086e-15 13.4246 2.55885
    endloop
  endfacet
  facet normal -1 2.22041e-16 1.65496e-20
    outer loop
      vertex 3.1393e-15 14.1382 2.873
      vertex 2.88656e-15 12.9999 3.4641
      vertex 3.10077e-15 13.9646 3.8637
    endloop
  endfacet
  facet normal -1 2.22045e-16 -1.86999e-20
    outer loop
      vertex 2.70261e-15 12.1715 2.82843
      vertex 2.98086e-15 13.4246 2.55885
      vertex 2.85448e-15 12.8554 2.12132
    endloop
  endfacet
  facet normal -1 2.22109e-16 4.28692e-20
    outer loop
      vertex 2.70261e-15 12.1715 2.82843
      vertex 2.85448e-15 12.8554 2.12132
      vertex 2.84586e-15 12.8166 2.07064
    endloop
  endfacet
  facet normal -1 2.22049e-16 -1.37143e-20
    outer loop
      vertex 2.56146e-15 11.5358 2
      vertex 2.84586e-15 12.8166 2.07064
      vertex 2.74881e-15 12.3795 1.5
    endloop
  endfacet
  facet normal -1 2.22126e-16 1.15877e-19
    outer loop
      vertex 2.56146e-15 11.5358 2
      vertex 2.74881e-15 12.3795 1.5
      vertex 2.74345e-15 12.3554 1.44169
    endloop
  endfacet
  facet normal -1 2.2205e-16 5.33887e-21
    outer loop
      vertex 2.98086e-15 13.4246 2.55885
      vertex 2.70261e-15 12.1715 2.82843
      vertex 2.88656e-15 12.9999 3.4641
    endloop
  endfacet
  facet normal -1 2.22043e-16 1.22181e-20
    outer loop
      vertex 2.47273e-15 11.1362 1.03528
      vertex 2.74345e-15 12.3554 1.44169
      vertex 2.68238e-15 12.0804 0.776457
    endloop
  endfacet
  facet normal -1 2.22046e-16 2.31297e-20
    outer loop
      vertex 2.47273e-15 11.1362 1.03528
      vertex 2.68238e-15 12.0804 0.776457
      vertex 2.68058e-15 12.0723 0.714801
    endloop
  endfacet
  facet normal -1 2.22046e-16 -1.72672e-20
    outer loop
      vertex 2.44247e-15 10.9999 0
      vertex 2.68058e-15 12.0723 0.714801
      vertex 2.65972e-15 11.9783 0
    endloop
  endfacet
  facet normal -1 2.22049e-16 -8.03033e-21
    outer loop
      vertex 2.84586e-15 12.8166 2.07064
      vertex 2.56146e-15 11.5358 2
      vertex 2.70261e-15 12.1715 2.82843
    endloop
  endfacet
  facet normal -1 2.22047e-16 -9.46946e-23
    outer loop
      vertex 2.74345e-15 12.3554 1.44169
      vertex 2.47273e-15 11.1362 1.03528
      vertex 2.56146e-15 11.5358 2
    endloop
  endfacet
  facet normal -1 2.22037e-16 -3.52387e-21
    outer loop
      vertex 2.68058e-15 12.0723 0.714801
      vertex 2.44247e-15 10.9999 0
      vertex 2.47273e-15 11.1362 1.03528
    endloop
  endfacet
  facet normal 0.0450607 -0.998984 0
    outer loop
      vertex 18.9806 0.855664 0
      vertex 18.8445 0.849525 1.03528
      vertex 18.8445 0.849525 0
    endloop
  endfacet
  facet normal 0.0450355 -0.998985 -1.9069e-06
    outer loop
      vertex 12.9867 0.585453 3.4641
      vertex 14.2415 0.642022 2.90545
      vertex 14.9577 0.674309 3
    endloop
  endfacet
  facet normal 0.0450793 -0.998983 9.66132e-05
    outer loop
      vertex 12.9867 0.585453 3.4641
      vertex 14.1835 0.639404 2.89778
      vertex 14.2415 0.642022 2.90545
    endloop
  endfacet
  facet normal 0.045032 -0.998986 -3.53614e-06
    outer loop
      vertex 14.1835 0.639404 2.89778
      vertex 12.9867 0.585453 3.4641
      vertex 13.7375 0.6193 2.71254
    endloop
  endfacet
  facet normal 0.0450354 -0.998985 -2.40737e-06
    outer loop
      vertex 14.9577 0.674309 3
      vertex 16.0189 0.722147 3.8637
      vertex 12.9867 0.585453 3.4641
    endloop
  endfacet
  facet normal 0.0449876 -0.998988 5.64315e-05
    outer loop
      vertex 15.016 0.676934 2.99231
      vertex 16.0189 0.722147 3.8637
      vertex 14.9577 0.674309 3
    endloop
  endfacet
  facet normal 0.0450378 -0.998985 -1.53451e-06
    outer loop
      vertex 15.732 0.709214 2.89778
      vertex 16.0189 0.722147 3.8637
      vertex 15.016 0.676934 2.99231
    endloop
  endfacet
  facet normal 0.0449793 -0.998988 1.58785e-05
    outer loop
      vertex 15.7866 0.711672 2.87512
      vertex 16.0189 0.722147 3.8637
      vertex 15.732 0.709214 2.89778
    endloop
  endfacet
  facet normal 0.045041 -0.998985 1.35441e-06
    outer loop
      vertex 16.4535 0.74174 2.59808
      vertex 16.0189 0.722147 3.8637
      vertex 15.7866 0.711672 2.87512
    endloop
  endfacet
  facet normal 0.045011 -0.998986 -8.98605e-06
    outer loop
      vertex 16.5007 0.743867 2.56177
      vertex 16.0189 0.722147 3.8637
      vertex 16.4535 0.74174 2.59808
    endloop
  endfacet
  facet normal 0.0450643 -0.998984 1.07787e-05
    outer loop
      vertex 16.0189 0.722147 3.8637
      vertex 16.5007 0.743867 2.56177
      vertex 16.5842 0.747633 2.49749
    endloop
  endfacet
  facet normal 0.0450291 -0.998986 -1.15811e-06
    outer loop
      vertex 18.8445 0.849525 1.03528
      vertex 18.4453 0.83153 2
      vertex 17.8102 0.802902 2.82843
    endloop
  endfacet
  facet normal 0.0450257 -0.998986 -1.79183e-05
    outer loop
      vertex 17.8102 0.802902 2.82843
      vertex 16.9827 0.765594 3.4641
      vertex 16.0189 0.722147 3.8637
    endloop
  endfacet
  facet normal 0.0450358 -0.998985 -5.26714e-06
    outer loop
      vertex 16.0189 0.722147 3.8637
      vertex 14.9847 0.675523 4
      vertex 12.9867 0.585453 3.4641
    endloop
  endfacet
  facet normal 0.0450366 -0.998985 -8.36326e-06
    outer loop
      vertex 14.9847 0.675523 4
      vertex 13.9505 0.6289 3.8637
      vertex 12.9867 0.585453 3.4641
    endloop
  endfacet
  facet normal 0.0450353 -0.998985 -1.21801e-06
    outer loop
      vertex 16.5842 0.747633 2.49749
      vertex 17.8102 0.802902 2.82843
      vertex 16.0189 0.722147 3.8637
    endloop
  endfacet
  facet normal 0.045034 -0.998985 3.89039e-06
    outer loop
      vertex 17.0731 0.769671 2.12132
      vertex 17.8102 0.802902 2.82843
      vertex 16.5842 0.747633 2.49749
    endloop
  endfacet
  facet normal 0.0450429 -0.998985 -5.48865e-06
    outer loop
      vertex 17.1096 0.771317 2.07359
      vertex 17.8102 0.802902 2.82843
      vertex 17.0731 0.769671 2.12132
    endloop
  endfacet
  facet normal 0.0450362 -0.998985 7.96974e-07
    outer loop
      vertex 17.5485 0.791103 1.5
      vertex 17.8102 0.802902 2.82843
      vertex 17.1096 0.771317 2.07359
    endloop
  endfacet
  facet normal 0.0450113 -0.998986 5.71398e-06
    outer loop
      vertex 17.5717 0.792148 1.44387
      vertex 17.8102 0.802902 2.82843
      vertex 17.5485 0.791103 1.5
    endloop
  endfacet
  facet normal 0.0450358 -0.998985 1.47714e-06
    outer loop
      vertex 17.8474 0.804576 0.776457
      vertex 17.8102 0.802902 2.82843
      vertex 17.5717 0.792148 1.44387
    endloop
  endfacet
  facet normal 0.045083 -0.998983 1.6928e-05
    outer loop
      vertex 18.1822 0.819672 0
      vertex 17.8474 0.804576 0.776457
      vertex 17.8554 0.804936 0.7156
    endloop
  endfacet
  facet normal 0.0450423 -0.998985 -1.72388e-06
    outer loop
      vertex 18.1822 0.819672 0
      vertex 17.8554 0.804936 0.7156
      vertex 17.9493 0.809171 0
    endloop
  endfacet
  facet normal 0.0450478 -0.998985 1.69403e-06
    outer loop
      vertex 17.8474 0.804576 0.776457
      vertex 18.1822 0.819672 0
      vertex 17.8102 0.802902 2.82843
    endloop
  endfacet
  facet normal 0.0450204 -0.998986 0
    outer loop
      vertex 11.1249 0.50152 0
      vertex 11.1249 0.50152 1.03528
      vertex 10.9887 0.495382 0
    endloop
  endfacet
  facet normal 0.0450352 -0.998985 6.96733e-07
    outer loop
      vertex 12.1591 0.548144 2.82843
      vertex 11.5241 0.519517 2
      vertex 11.1249 0.50152 1.03528
    endloop
  endfacet
  facet normal 0.0450342 -0.998985 1.27453e-06
    outer loop
      vertex 12.9867 0.585453 3.4641
      vertex 12.1591 0.548144 2.82843
      vertex 11.1249 0.50152 1.03528
    endloop
  endfacet
  facet normal 0.045036 -0.998985 0
    outer loop
      vertex 11.5533 0.520833 0
      vertex 11.1249 0.50152 1.03528
      vertex 11.1249 0.50152 0
    endloop
  endfacet
  facet normal 0.0450359 -0.998985 -1.55503e-08
    outer loop
      vertex 11.1249 0.50152 1.03528
      vertex 11.5533 0.520833 0
      vertex 12.9867 0.585453 3.4641
    endloop
  endfacet
  facet normal 0.0450324 -0.998986 -3.14751e-06
    outer loop
      vertex 12.9867 0.585453 3.4641
      vertex 13.5161 0.60932 2.62058
      vertex 13.7375 0.6193 2.71254
    endloop
  endfacet
  facet normal 0.0450959 -0.998983 3.6794e-05
    outer loop
      vertex 12.9867 0.585453 3.4641
      vertex 13.462 0.606877 2.59808
      vertex 13.5161 0.60932 2.62058
    endloop
  endfacet
  facet normal 0.0450298 -0.998986 4.77935e-07
    outer loop
      vertex 12.9867 0.585453 3.4641
      vertex 12.8891 0.581053 2.15728
      vertex 13.462 0.606877 2.59808
    endloop
  endfacet
  facet normal 0.0450741 -0.998984 -2.83445e-06
    outer loop
      vertex 12.9867 0.585453 3.4641
      vertex 12.8424 0.578946 2.12132
      vertex 12.8891 0.581053 2.15728
    endloop
  endfacet
  facet normal 0.0450251 -0.998986 2.44462e-06
    outer loop
      vertex 12.9867 0.585453 3.4641
      vertex 12.4031 0.559145 1.54728
      vertex 12.8424 0.578946 2.12132
    endloop
  endfacet
  facet normal 0.0452009 -0.998978 -5.12112e-05
    outer loop
      vertex 12.9867 0.585453 3.4641
      vertex 12.367 0.557514 1.5
      vertex 12.4031 0.559145 1.54728
    endloop
  endfacet
  facet normal 0.045026 -0.998986 4.10657e-06
    outer loop
      vertex 11.5533 0.520833 0
      vertex 12.367 0.557514 1.5
      vertex 12.9867 0.585453 3.4641
    endloop
  endfacet
  facet normal 0.0450609 -0.998984 -1.48709e-05
    outer loop
      vertex 12.367 0.557514 1.5
      vertex 11.5533 0.520833 0
      vertex 12.0911 0.545079 0.832193
    endloop
  endfacet
  facet normal 0.0449556 -0.998989 5.33316e-05
    outer loop
      vertex 12.0911 0.545079 0.832193
      vertex 11.5533 0.520833 0
      vertex 12.0681 0.544041 0.776457
    endloop
  endfacet
  facet normal 0.0450402 -0.998985 -2.90482e-06
    outer loop
      vertex 11.5533 0.520833 0
      vertex 11.9741 0.539805 0.0607004
      vertex 12.0681 0.544041 0.776457
    endloop
  endfacet
  facet normal 0.045033 -0.998985 4.7368e-05
    outer loop
      vertex 11.9741 0.539805 0.0607004
      vertex 11.5533 0.520833 0
      vertex 11.9662 0.539446 0
    endloop
  endfacet
  facet normal 0.04503 -0.998986 -6.4361e-07
    outer loop
      vertex 18.1822 0.819672 0
      vertex 18.8445 0.849525 1.03528
      vertex 17.8102 0.802902 2.82843
    endloop
  endfacet
  facet normal 0.0450313 -0.998986 -1.43283e-06
    outer loop
      vertex 18.8445 0.849525 1.03528
      vertex 18.1822 0.819672 0
      vertex 18.7083 0.843387 0
    endloop
  endfacet
  facet normal 0.0450204 -0.998986 0
    outer loop
      vertex 18.8445 0.849525 0
      vertex 18.8445 0.849525 1.03528
      vertex 18.7083 0.843387 0
    endloop
  endfacet
  facet normal 0.107843 0.985662 0.129768
    outer loop
      vertex 4.0791 18.4173 1.03528
      vertex 4.21883e-15 18.9999 0
      vertex 4.18856e-15 18.8636 1.03528
    endloop
  endfacet
  facet normal 0.107837 0.98566 0.12979
    outer loop
      vertex 4.0791 18.4173 1.03528
      vertex 4.10857 18.5504 0
      vertex 4.21883e-15 18.9999 0
    endloop
  endfacet
  facet normal 0.100583 0.919194 0.380743
    outer loop
      vertex 3.99269 18.0271 2
      vertex 4.18856e-15 18.8636 1.03528
      vertex 4.09983e-15 18.464 2
    endloop
  endfacet
  facet normal 0.100568 0.919177 0.380787
    outer loop
      vertex 3.99269 18.0271 2
      vertex 4.0791 18.4173 1.03528
      vertex 4.18856e-15 18.8636 1.03528
    endloop
  endfacet
  facet normal 0.0864743 0.790371 0.606495
    outer loop
      vertex 3.85523 17.4065 2.82843
      vertex 4.09983e-15 18.464 2
      vertex 3.95868e-15 17.8283 2.82843
    endloop
  endfacet
  facet normal 0.0864891 0.790397 0.606459
    outer loop
      vertex 3.85523 17.4065 2.82843
      vertex 3.99269 18.0271 2
      vertex 4.09983e-15 18.464 2
    endloop
  endfacet
  facet normal 0.0664582 0.607425 0.791592
    outer loop
      vertex 3.67609 16.5977 3.4641
      vertex 3.95868e-15 17.8283 2.82843
      vertex 3.77474e-15 16.9999 3.4641
    endloop
  endfacet
  facet normal 0.0664583 0.607426 0.791592
    outer loop
      vertex 3.67609 16.5977 3.4641
      vertex 3.85523 17.4065 2.82843
      vertex 3.95868e-15 17.8283 2.82843
    endloop
  endfacet
  facet normal 0.041836 0.382355 0.923068
    outer loop
      vertex 3.46748 15.6558 3.8637
      vertex 3.77474e-15 16.9999 3.4641
      vertex 3.56052e-15 16.0352 3.8637
    endloop
  endfacet
  facet normal 0.0418325 0.382347 0.923071
    outer loop
      vertex 3.46748 15.6558 3.8637
      vertex 3.67609 16.5977 3.4641
      vertex 3.77474e-15 16.9999 3.4641
    endloop
  endfacet
  facet normal 0.0142801 0.130513 0.991344
    outer loop
      vertex 3.24361 14.645 4
      vertex 3.56052e-15 16.0352 3.8637
      vertex 3.33065e-15 14.9999 4
    endloop
  endfacet
  facet normal 0.0142804 0.130514 0.991344
    outer loop
      vertex 3.24361 14.645 4
      vertex 3.46748 15.6558 3.8637
      vertex 3.56052e-15 16.0352 3.8637
    endloop
  endfacet
  facet normal -0.0142799 -0.130513 0.991344
    outer loop
      vertex 3.01974 13.6342 3.8637
      vertex 3.33065e-15 14.9999 4
      vertex 3.10077e-15 13.9646 3.8637
    endloop
  endfacet
  facet normal -0.0142802 -0.130514 0.991344
    outer loop
      vertex 3.01974 13.6342 3.8637
      vertex 3.24361 14.645 4
      vertex 3.33065e-15 14.9999 4
    endloop
  endfacet
  facet normal -0.0418383 -0.382355 0.923068
    outer loop
      vertex 2.81112 12.6923 3.4641
      vertex 3.10077e-15 13.9646 3.8637
      vertex 2.88656e-15 12.9999 3.4641
    endloop
  endfacet
  facet normal -0.0418338 -0.382346 0.923072
    outer loop
      vertex 2.81112 12.6923 3.4641
      vertex 3.01974 13.6342 3.8637
      vertex 3.10077e-15 13.9646 3.8637
    endloop
  endfacet
  facet normal -0.0664665 -0.607425 0.791591
    outer loop
      vertex 2.63198 11.8835 2.82843
      vertex 2.88656e-15 12.9999 3.4641
      vertex 2.70261e-15 12.1715 2.82843
    endloop
  endfacet
  facet normal -0.0664659 -0.607424 0.791592
    outer loop
      vertex 2.63198 11.8835 2.82843
      vertex 2.81112 12.6923 3.4641
      vertex 2.88656e-15 12.9999 3.4641
    endloop
  endfacet
  facet normal -0.0864665 -0.790371 0.606495
    outer loop
      vertex 2.49452 11.2629 2
      vertex 2.70261e-15 12.1715 2.82843
      vertex 2.56146e-15 11.5358 2
    endloop
  endfacet
  facet normal -0.0864879 -0.790397 0.606459
    outer loop
      vertex 2.49452 11.2629 2
      vertex 2.63198 11.8835 2.82843
      vertex 2.70261e-15 12.1715 2.82843
    endloop
  endfacet
  facet normal -0.10058 -0.919195 0.380743
    outer loop
      vertex 2.40811 10.8727 1.03528
      vertex 2.56146e-15 11.5358 2
      vertex 2.47273e-15 11.1362 1.03528
    endloop
  endfacet
  facet normal -0.100558 -0.919179 0.380787
    outer loop
      vertex 2.40811 10.8727 1.03528
      vertex 2.49452 11.2629 2
      vertex 2.56146e-15 11.5358 2
    endloop
  endfacet
  facet normal -0.107863 -0.98566 0.129767
    outer loop
      vertex 2.37864 10.7396 0
      vertex 2.47273e-15 11.1362 1.03528
      vertex 2.44247e-15 10.9999 0
    endloop
  endfacet
  facet normal -0.107853 -0.985658 0.129791
    outer loop
      vertex 2.37864 10.7396 0
      vertex 2.40811 10.8727 1.03528
      vertex 2.47273e-15 11.1362 1.03528
    endloop
  endfacet
  facet normal 0.318429 0.93902 0.129789
    outer loop
      vertex 7.96518 17.0995 1.03528
      vertex 4.10857 18.5504 0
      vertex 4.0791 18.4173 1.03528
    endloop
  endfacet
  facet normal 0.318449 0.939023 0.129719
    outer loop
      vertex 7.96518 17.0995 1.03528
      vertex 8.02273 17.223 0
      vertex 4.10857 18.5504 0
    endloop
  endfacet
  facet normal 0.296954 0.875683 0.380785
    outer loop
      vertex 7.79645 16.7372 2
      vertex 4.0791 18.4173 1.03528
      vertex 3.99269 18.0271 2
    endloop
  endfacet
  facet normal 0.29695 0.875679 0.380797
    outer loop
      vertex 7.79645 16.7372 2
      vertex 7.96518 17.0995 1.03528
      vertex 4.0791 18.4173 1.03528
    endloop
  endfacet
  facet normal 0.255352 0.752995 0.60646
    outer loop
      vertex 7.52803 16.161 2.82843
      vertex 3.99269 18.0271 2
      vertex 3.85523 17.4065 2.82843
    endloop
  endfacet
  facet normal 0.255348 0.752992 0.606466
    outer loop
      vertex 7.52803 16.161 2.82843
      vertex 7.79645 16.7372 2
      vertex 3.99269 18.0271 2
    endloop
  endfacet
  facet normal 0.196235 0.578682 0.791593
    outer loop
      vertex 7.17823 15.4101 3.4641
      vertex 3.85523 17.4065 2.82843
      vertex 3.67609 16.5977 3.4641
    endloop
  endfacet
  facet normal 0.196243 0.578692 0.791583
    outer loop
      vertex 7.17823 15.4101 3.4641
      vertex 7.52803 16.161 2.82843
      vertex 3.85523 17.4065 2.82843
    endloop
  endfacet
  facet normal 0.123531 0.364252 0.923071
    outer loop
      vertex 6.77087 14.5355 3.8637
      vertex 3.67609 16.5977 3.4641
      vertex 3.46748 15.6558 3.8637
    endloop
  endfacet
  facet normal 0.123511 0.364225 0.923085
    outer loop
      vertex 6.77087 14.5355 3.8637
      vertex 7.17823 15.4101 3.4641
      vertex 3.67609 16.5977 3.4641
    endloop
  endfacet
  facet normal 0.0421646 0.124338 0.991344
    outer loop
      vertex 6.33373 13.5971 4
      vertex 3.46748 15.6558 3.8637
      vertex 3.24361 14.645 4
    endloop
  endfacet
  facet normal 0.0421701 0.124345 0.991342
    outer loop
      vertex 6.33373 13.5971 4
      vertex 6.77087 14.5355 3.8637
      vertex 3.46748 15.6558 3.8637
    endloop
  endfacet
  facet normal -0.0421656 -0.124338 0.991344
    outer loop
      vertex 5.89658 12.6586 3.8637
      vertex 3.24361 14.645 4
      vertex 3.01974 13.6342 3.8637
    endloop
  endfacet
  facet normal -0.0421636 -0.124335 0.991344
    outer loop
      vertex 5.89658 12.6586 3.8637
      vertex 6.33373 13.5971 4
      vertex 3.24361 14.645 4
    endloop
  endfacet
  facet normal -0.123526 -0.364253 0.923072
    outer loop
      vertex 5.48922 11.7841 3.4641
      vertex 3.01974 13.6342 3.8637
      vertex 2.81112 12.6923 3.4641
    endloop
  endfacet
  facet normal -0.123526 -0.364253 0.923071
    outer loop
      vertex 5.48922 11.7841 3.4641
      vertex 5.89658 12.6586 3.8637
      vertex 3.01974 13.6342 3.8637
    endloop
  endfacet
  facet normal -0.196237 -0.578682 0.791592
    outer loop
      vertex 5.13942 11.0332 2.82843
      vertex 2.81112 12.6923 3.4641
      vertex 2.63198 11.8835 2.82843
    endloop
  endfacet
  facet normal -0.196246 -0.578691 0.791583
    outer loop
      vertex 5.13942 11.0332 2.82843
      vertex 5.48922 11.7841 3.4641
      vertex 2.81112 12.6923 3.4641
    endloop
  endfacet
  facet normal -0.255351 -0.752996 0.60646
    outer loop
      vertex 4.87101 10.457 2
      vertex 2.63198 11.8835 2.82843
      vertex 2.49452 11.2629 2
    endloop
  endfacet
  facet normal -0.255348 -0.752993 0.606464
    outer loop
      vertex 4.87101 10.457 2
      vertex 5.13942 11.0332 2.82843
      vertex 2.63198 11.8835 2.82843
    endloop
  endfacet
  facet normal -0.296962 -0.87568 0.380785
    outer loop
      vertex 4.70227 10.0947 1.03528
      vertex 2.49452 11.2629 2
      vertex 2.40811 10.8727 1.03528
    endloop
  endfacet
  facet normal -0.296954 -0.875677 0.3808
    outer loop
      vertex 4.70227 10.0947 1.03528
      vertex 4.87101 10.457 2
      vertex 2.49452 11.2629 2
    endloop
  endfacet
  facet normal -0.318419 -0.939023 0.129789
    outer loop
      vertex 4.64472 9.97118 0
      vertex 2.40811 10.8727 1.03528
      vertex 2.37864 10.7396 0
    endloop
  endfacet
  facet normal -0.318443 -0.939022 0.129737
    outer loop
      vertex 4.64472 9.97118 0
      vertex 4.70227 10.0947 1.03528
      vertex 2.40811 10.8727 1.03528
    endloop
  endfacet
  facet normal 0.513968 0.847944 0.129723
    outer loop
      vertex 11.4743 14.9725 1.03528
      vertex 8.02273 17.223 0
      vertex 7.96518 17.0995 1.03528
    endloop
  endfacet
  facet normal 0.513953 0.847945 0.129776
    outer loop
      vertex 11.4743 14.9725 1.03528
      vertex 11.5572 15.0807 0
      vertex 8.02273 17.223 0
    endloop
  endfacet
  facet normal 0.479282 0.79075 0.380792
    outer loop
      vertex 11.2313 14.6553 2
      vertex 7.96518 17.0995 1.03528
      vertex 7.79645 16.7372 2
    endloop
  endfacet
  facet normal 0.479309 0.790762 0.380734
    outer loop
      vertex 11.2313 14.6553 2
      vertex 11.4743 14.9725 1.03528
      vertex 7.96518 17.0995 1.03528
    endloop
  endfacet
  facet normal 0.412129 0.67996 0.606468
    outer loop
      vertex 10.8446 14.1508 2.82843
      vertex 7.79645 16.7372 2
      vertex 7.52803 16.161 2.82843
    endloop
  endfacet
  facet normal 0.412133 0.679962 0.606464
    outer loop
      vertex 10.8446 14.1508 2.82843
      vertex 11.2313 14.6553 2
      vertex 7.79645 16.7372 2
    endloop
  endfacet
  facet normal 0.316744 0.522559 0.791584
    outer loop
      vertex 10.3407 13.4932 3.4641
      vertex 7.52803 16.161 2.82843
      vertex 7.17823 15.4101 3.4641
    endloop
  endfacet
  facet normal 0.31671 0.522531 0.791616
    outer loop
      vertex 10.3407 13.4932 3.4641
      vertex 10.8446 14.1508 2.82843
      vertex 7.52803 16.161 2.82843
    endloop
  endfacet
  facet normal 0.199348 0.328902 0.923084
    outer loop
      vertex 9.75387 12.7275 3.8637
      vertex 7.17823 15.4101 3.4641
      vertex 6.77087 14.5355 3.8637
    endloop
  endfacet
  facet normal 0.199375 0.328926 0.923069
    outer loop
      vertex 9.75387 12.7275 3.8637
      vertex 10.3407 13.4932 3.4641
      vertex 7.17823 15.4101 3.4641
    endloop
  endfacet
  facet normal 0.068058 0.112286 0.991343
    outer loop
      vertex 9.12413 11.9058 4
      vertex 6.77087 14.5355 3.8637
      vertex 6.33373 13.5971 4
    endloop
  endfacet
  facet normal 0.068055 0.112283 0.991343
    outer loop
      vertex 9.12413 11.9058 4
      vertex 9.75387 12.7275 3.8637
      vertex 6.77087 14.5355 3.8637
    endloop
  endfacet
  facet normal -0.0680532 -0.112276 0.991344
    outer loop
      vertex 8.49439 11.084 3.8637
      vertex 6.33373 13.5971 4
      vertex 5.89658 12.6586 3.8637
    endloop
  endfacet
  facet normal -0.0680504 -0.112273 0.991344
    outer loop
      vertex 8.49439 11.084 3.8637
      vertex 9.12413 11.9058 4
      vertex 6.33373 13.5971 4
    endloop
  endfacet
  facet normal -0.199367 -0.328925 0.923071
    outer loop
      vertex 7.90757 10.3183 3.4641
      vertex 5.89658 12.6586 3.8637
      vertex 5.48922 11.7841 3.4641
    endloop
  endfacet
  facet normal -0.199373 -0.32893 0.923068
    outer loop
      vertex 7.90757 10.3183 3.4641
      vertex 8.49439 11.084 3.8637
      vertex 5.89658 12.6586 3.8637
    endloop
  endfacet
  facet normal -0.316739 -0.522561 0.791585
    outer loop
      vertex 7.40366 9.66078 2.82843
      vertex 5.48922 11.7841 3.4641
      vertex 5.13942 11.0332 2.82843
    endloop
  endfacet
  facet normal -0.316728 -0.522554 0.791594
    outer loop
      vertex 7.40366 9.66078 2.82843
      vertex 7.90757 10.3183 3.4641
      vertex 5.48922 11.7841 3.4641
    endloop
  endfacet
  facet normal -0.412148 -0.679952 0.606464
    outer loop
      vertex 7.01699 9.15623 2
      vertex 5.13942 11.0332 2.82843
      vertex 4.87101 10.457 2
    endloop
  endfacet
  facet normal -0.412134 -0.679946 0.606481
    outer loop
      vertex 7.01699 9.15623 2
      vertex 7.40366 9.66078 2.82843
      vertex 5.13942 11.0332 2.82843
    endloop
  endfacet
  facet normal -0.479279 -0.79075 0.380797
    outer loop
      vertex 6.77392 8.83906 1.03528
      vertex 4.87101 10.457 2
      vertex 4.70227 10.0947 1.03528
    endloop
  endfacet
  facet normal -0.479311 -0.790756 0.380743
    outer loop
      vertex 6.77392 8.83906 1.03528
      vertex 7.01699 9.15623 2
      vertex 4.87101 10.457 2
    endloop
  endfacet
  facet normal -0.513962 -0.847945 0.129739
    outer loop
      vertex 6.69101 8.73087 0
      vertex 4.70227 10.0947 1.03528
      vertex 4.64472 9.97118 0
    endloop
  endfacet
  facet normal -0.513947 -0.847949 0.129773
    outer loop
      vertex 6.69101 8.73087 0
      vertex 6.77392 8.83906 1.03528
      vertex 4.70227 10.0947 1.03528
    endloop
  endfacet
  facet normal 0.685159 0.71674 0.129773
    outer loop
      vertex 14.4405 12.137 1.03528
      vertex 11.5572 15.0807 0
      vertex 11.4743 14.9725 1.03528
    endloop
  endfacet
  facet normal 0.685149 0.716743 0.129808
    outer loop
      vertex 14.4405 12.137 1.03528
      vertex 14.5449 12.2247 0
      vertex 11.5572 15.0807 0
    endloop
  endfacet
  facet normal 0.638966 0.668412 0.380721
    outer loop
      vertex 14.1346 11.8799 2
      vertex 11.4743 14.9725 1.03528
      vertex 11.2313 14.6553 2
    endloop
  endfacet
  facet normal 0.638958 0.66841 0.380738
    outer loop
      vertex 14.1346 11.8799 2
      vertex 14.4405 12.137 1.03528
      vertex 11.4743 14.9725 1.03528
    endloop
  endfacet
  facet normal 0.549422 0.574742 0.606471
    outer loop
      vertex 13.648 11.4709 2.82843
      vertex 11.2313 14.6553 2
      vertex 10.8446 14.1508 2.82843
    endloop
  endfacet
  facet normal 0.549423 0.574742 0.606471
    outer loop
      vertex 13.648 11.4709 2.82843
      vertex 14.1346 11.8799 2
      vertex 11.2313 14.6553 2
    endloop
  endfacet
  facet normal 0.422217 0.441681 0.791613
    outer loop
      vertex 13.0138 10.9379 3.4641
      vertex 10.8446 14.1508 2.82843
      vertex 10.3407 13.4932 3.4641
    endloop
  endfacet
  facet normal 0.42223 0.441688 0.791602
    outer loop
      vertex 13.0138 10.9379 3.4641
      vertex 13.648 11.4709 2.82843
      vertex 10.8446 14.1508 2.82843
    endloop
  endfacet
  facet normal 0.26578 0.278034 0.92307
    outer loop
      vertex 12.2753 10.3172 3.8637
      vertex 10.3407 13.4932 3.4641
      vertex 9.75387 12.7275 3.8637
    endloop
  endfacet
  facet normal 0.265783 0.278036 0.923068
    outer loop
      vertex 12.2753 10.3172 3.8637
      vertex 13.0138 10.9379 3.4641
      vertex 10.3407 13.4932 3.4641
    endloop
  endfacet
  facet normal 0.0907265 0.0949081 0.991343
    outer loop
      vertex 11.4828 9.65105 4
      vertex 9.75387 12.7275 3.8637
      vertex 9.12413 11.9058 4
    endloop
  endfacet
  facet normal 0.0907234 0.0949063 0.991344
    outer loop
      vertex 11.4828 9.65105 4
      vertex 12.2753 10.3172 3.8637
      vertex 9.75387 12.7275 3.8637
    endloop
  endfacet
  facet normal -0.0907175 -0.0949036 0.991344
    outer loop
      vertex 10.6903 8.98495 3.8637
      vertex 9.12413 11.9058 4
      vertex 8.49439 11.084 3.8637
    endloop
  endfacet
  facet normal -0.0907272 -0.0949088 0.991343
    outer loop
      vertex 10.6903 8.98495 3.8637
      vertex 11.4828 9.65105 4
      vertex 9.12413 11.9058 4
    endloop
  endfacet
  facet normal -0.265781 -0.278036 0.923069
    outer loop
      vertex 9.95173 8.36424 3.4641
      vertex 8.49439 11.084 3.8637
      vertex 7.90757 10.3183 3.4641
    endloop
  endfacet
  facet normal -0.265765 -0.278029 0.923076
    outer loop
      vertex 9.95173 8.36424 3.4641
      vertex 10.6903 8.98495 3.8637
      vertex 8.49439 11.084 3.8637
    endloop
  endfacet
  facet normal -0.422235 -0.441697 0.791594
    outer loop
      vertex 9.31755 7.83122 2.82843
      vertex 7.90757 10.3183 3.4641
      vertex 7.40366 9.66078 2.82843
    endloop
  endfacet
  facet normal -0.422225 -0.441693 0.791602
    outer loop
      vertex 9.31755 7.83122 2.82843
      vertex 9.95173 8.36424 3.4641
      vertex 7.90757 10.3183 3.4641
    endloop
  endfacet
  facet normal -0.549414 -0.57474 0.606481
    outer loop
      vertex 8.83093 7.42222 2
      vertex 7.40366 9.66078 2.82843
      vertex 7.01699 9.15623 2
    endloop
  endfacet
  facet normal -0.549416 -0.57474 0.606479
    outer loop
      vertex 8.83093 7.42222 2
      vertex 9.31755 7.83122 2.82843
      vertex 7.40366 9.66078 2.82843
    endloop
  endfacet
  facet normal -0.638956 -0.668409 0.380743
    outer loop
      vertex 8.52502 7.16512 1.03528
      vertex 7.01699 9.15623 2
      vertex 6.77392 8.83906 1.03528
    endloop
  endfacet
  facet normal -0.638956 -0.668409 0.380743
    outer loop
      vertex 8.52502 7.16512 1.03528
      vertex 8.83093 7.42222 2
      vertex 7.01699 9.15623 2
    endloop
  endfacet
  facet normal -0.685157 -0.716742 0.129772
    outer loop
      vertex 8.42068 7.07742 0
      vertex 6.77392 8.83906 1.03528
      vertex 6.69101 8.73087 0
    endloop
  endfacet
  facet normal -0.685159 -0.716741 0.129769
    outer loop
      vertex 8.42068 7.07742 0
      vertex 8.52502 7.16512 1.03528
      vertex 6.77392 8.83906 1.03528
    endloop
  endfacet
  facet normal 0.823928 0.551626 0.129816
    outer loop
      vertex 16.7234 8.72718 1.03528
      vertex 14.5449 12.2247 0
      vertex 14.4405 12.137 1.03528
    endloop
  endfacet
  facet normal 0.823948 0.551615 0.129735
    outer loop
      vertex 16.7234 8.72718 1.03528
      vertex 16.8442 8.79023 0
      vertex 14.5449 12.2247 0
    endloop
  endfacet
  facet normal 0.768379 0.514424 0.380738
    outer loop
      vertex 16.3691 8.5423 2
      vertex 14.4405 12.137 1.03528
      vertex 14.1346 11.8799 2
    endloop
  endfacet
  facet normal 0.768362 0.514424 0.380771
    outer loop
      vertex 16.3691 8.5423 2
      vertex 16.7234 8.72718 1.03528
      vertex 14.4405 12.137 1.03528
    endloop
  endfacet
  facet normal 0.660703 0.442343 0.606468
    outer loop
      vertex 15.8056 8.24821 2.82843
      vertex 14.1346 11.8799 2
      vertex 13.648 11.4709 2.82843
    endloop
  endfacet
  facet normal 0.660717 0.442345 0.606452
    outer loop
      vertex 15.8056 8.24821 2.82843
      vertex 16.3691 8.5423 2
      vertex 14.1346 11.8799 2
    endloop
  endfacet
  facet normal 0.50775 0.339931 0.791604
    outer loop
      vertex 15.0711 7.86494 3.4641
      vertex 13.648 11.4709 2.82843
      vertex 13.0138 10.9379 3.4641
    endloop
  endfacet
  facet normal 0.507728 0.339925 0.791621
    outer loop
      vertex 15.0711 7.86494 3.4641
      vertex 15.8056 8.24821 2.82843
      vertex 13.648 11.4709 2.82843
    endloop
  endfacet
  facet normal 0.319618 0.213984 0.923068
    outer loop
      vertex 14.2159 7.41862 3.8637
      vertex 13.0138 10.9379 3.4641
      vertex 12.2753 10.3172 3.8637
    endloop
  endfacet
  facet normal 0.319631 0.213988 0.923063
    outer loop
      vertex 14.2159 7.41862 3.8637
      vertex 15.0711 7.86494 3.4641
      vertex 13.0138 10.9379 3.4641
    endloop
  endfacet
  facet normal 0.109101 0.0730435 0.991343
    outer loop
      vertex 13.2981 6.93965 4
      vertex 12.2753 10.3172 3.8637
      vertex 11.4828 9.65105 4
    endloop
  endfacet
  facet normal 0.109102 0.0730441 0.991343
    outer loop
      vertex 13.2981 6.93965 4
      vertex 14.2159 7.41862 3.8637
      vertex 12.2753 10.3172 3.8637
    endloop
  endfacet
  facet normal -0.109106 -0.0730423 0.991343
    outer loop
      vertex 12.3802 6.46068 3.8637
      vertex 11.4828 9.65105 4
      vertex 10.6903 8.98495 3.8637
    endloop
  endfacet
  facet normal -0.109093 -0.0730388 0.991345
    outer loop
      vertex 12.3802 6.46068 3.8637
      vertex 13.2981 6.93965 4
      vertex 11.4828 9.65105 4
    endloop
  endfacet
  facet normal -0.319598 -0.213974 0.923077
    outer loop
      vertex 11.525 6.01436 3.4641
      vertex 10.6903 8.98495 3.8637
      vertex 9.95173 8.36424 3.4641
    endloop
  endfacet
  facet normal -0.319634 -0.213983 0.923063
    outer loop
      vertex 11.525 6.01436 3.4641
      vertex 12.3802 6.46068 3.8637
      vertex 10.6903 8.98495 3.8637
    endloop
  endfacet
  facet normal -0.507753 -0.339932 0.791602
    outer loop
      vertex 10.7905 5.63109 2.82843
      vertex 9.95173 8.36424 3.4641
      vertex 9.31755 7.83122 2.82843
    endloop
  endfacet
  facet normal -0.507726 -0.339928 0.79162
    outer loop
      vertex 10.7905 5.63109 2.82843
      vertex 11.525 6.01436 3.4641
      vertex 9.95173 8.36424 3.4641
    endloop
  endfacet
  facet normal -0.660697 -0.442339 0.606478
    outer loop
      vertex 10.227 5.33699 2
      vertex 9.31755 7.83122 2.82843
      vertex 8.83093 7.42222 2
    endloop
  endfacet
  facet normal -0.660717 -0.442339 0.606456
    outer loop
      vertex 10.227 5.33699 2
      vertex 10.7905 5.63109 2.82843
      vertex 9.31755 7.83122 2.82843
    endloop
  endfacet
  facet normal -0.768375 -0.514426 0.380745
    outer loop
      vertex 9.87272 5.15212 1.03528
      vertex 8.83093 7.42222 2
      vertex 8.52502 7.16512 1.03528
    endloop
  endfacet
  facet normal -0.76837 -0.514427 0.380753
    outer loop
      vertex 9.87272 5.15212 1.03528
      vertex 10.227 5.33699 2
      vertex 8.83093 7.42222 2
    endloop
  endfacet
  facet normal -0.823937 -0.551623 0.129769
    outer loop
      vertex 9.75188 5.08906 0
      vertex 8.52502 7.16512 1.03528
      vertex 8.42068 7.07742 0
    endloop
  endfacet
  facet normal -0.823936 -0.551624 0.129771
    outer loop
      vertex 9.75188 5.08906 0
      vertex 9.87272 5.15212 1.03528
      vertex 8.52502 7.16512 1.03528
    endloop
  endfacet
  facet normal 0.923731 0.360403 0.129733
    outer loop
      vertex 18.2149 4.90439 1.03528
      vertex 16.8442 8.79023 0
      vertex 16.7234 8.72718 1.03528
    endloop
  endfacet
  facet normal 0.923726 0.360408 0.129757
    outer loop
      vertex 18.2149 4.90439 1.03528
      vertex 18.3465 4.93983 0
      vertex 16.8442 8.79023 0
    endloop
  endfacet
  facet normal 0.861425 0.336093 0.380773
    outer loop
      vertex 17.829 4.8005 2
      vertex 16.7234 8.72718 1.03528
      vertex 16.3691 8.5423 2
    endloop
  endfacet
  facet normal 0.861425 0.336093 0.380774
    outer loop
      vertex 17.829 4.8005 2
      vertex 18.2149 4.90439 1.03528
      vertex 16.7234 8.72718 1.03528
    endloop
  endfacet
  facet normal 0.740742 0.289 0.606449
    outer loop
      vertex 17.2152 4.63523 2.82843
      vertex 16.3691 8.5423 2
      vertex 15.8056 8.24821 2.82843
    endloop
  endfacet
  facet normal 0.740723 0.289 0.606471
    outer loop
      vertex 17.2152 4.63523 2.82843
      vertex 17.829 4.8005 2
      vertex 16.3691 8.5423 2
    endloop
  endfacet
  facet normal 0.569216 0.222095 0.791623
    outer loop
      vertex 16.4153 4.41984 3.4641
      vertex 15.8056 8.24821 2.82843
      vertex 15.0711 7.86494 3.4641
    endloop
  endfacet
  facet normal 0.569262 0.222097 0.79159
    outer loop
      vertex 16.4153 4.41984 3.4641
      vertex 17.2152 4.63523 2.82843
      vertex 15.8056 8.24821 2.82843
    endloop
  endfacet
  facet normal 0.358346 0.139805 0.923062
    outer loop
      vertex 15.4837 4.16902 3.8637
      vertex 15.0711 7.86494 3.4641
      vertex 14.2159 7.41862 3.8637
    endloop
  endfacet
  facet normal 0.358305 0.139802 0.923078
    outer loop
      vertex 15.4837 4.16902 3.8637
      vertex 16.4153 4.41984 3.4641
      vertex 15.0711 7.86494 3.4641
    endloop
  endfacet
  facet normal 0.122317 0.0477229 0.991343
    outer loop
      vertex 14.4841 3.89986 4
      vertex 14.2159 7.41862 3.8637
      vertex 13.2981 6.93965 4
    endloop
  endfacet
  facet normal 0.122324 0.0477234 0.991342
    outer loop
      vertex 14.4841 3.89986 4
      vertex 15.4837 4.16902 3.8637
      vertex 14.2159 7.41862 3.8637
    endloop
  endfacet
  facet normal -0.122305 -0.0477206 0.991345
    outer loop
      vertex 13.4844 3.63069 3.8637
      vertex 13.2981 6.93965 4
      vertex 12.3802 6.46068 3.8637
    endloop
  endfacet
  facet normal -0.122312 -0.047721 0.991344
    outer loop
      vertex 13.4844 3.63069 3.8637
      vertex 14.4841 3.89986 4
      vertex 13.2981 6.93965 4
    endloop
  endfacet
  facet normal -0.358347 -0.139803 0.923061
    outer loop
      vertex 12.5528 3.37987 3.4641
      vertex 12.3802 6.46068 3.8637
      vertex 11.525 6.01436 3.4641
    endloop
  endfacet
  facet normal -0.358305 -0.139803 0.923078
    outer loop
      vertex 12.5528 3.37987 3.4641
      vertex 13.4844 3.63069 3.8637
      vertex 12.3802 6.46068 3.8637
    endloop
  endfacet
  facet normal -0.569217 -0.222093 0.791623
    outer loop
      vertex 11.7529 3.16449 2.82843
      vertex 11.525 6.01436 3.4641
      vertex 10.7905 5.63109 2.82843
    endloop
  endfacet
  facet normal -0.569266 -0.222089 0.791589
    outer loop
      vertex 11.7529 3.16449 2.82843
      vertex 12.5528 3.37987 3.4641
      vertex 11.525 6.01436 3.4641
    endloop
  endfacet
  facet normal -0.740738 -0.289005 0.606451
    outer loop
      vertex 11.1391 2.99922 2
      vertex 10.7905 5.63109 2.82843
      vertex 10.227 5.33699 2
    endloop
  endfacet
  facet normal -0.74072 -0.289009 0.606471
    outer loop
      vertex 11.1391 2.99922 2
      vertex 11.7529 3.16449 2.82843
      vertex 10.7905 5.63109 2.82843
    endloop
  endfacet
  facet normal -0.861436 -0.336085 0.380755
    outer loop
      vertex 10.7532 2.89532 1.03528
      vertex 10.227 5.33699 2
      vertex 9.87272 5.15212 1.03528
    endloop
  endfacet
  facet normal -0.861424 -0.336092 0.380777
    outer loop
      vertex 10.7532 2.89532 1.03528
      vertex 11.1391 2.99922 2
      vertex 10.227 5.33699 2
    endloop
  endfacet
  facet normal -0.923728 -0.360396 0.129772
    outer loop
      vertex 10.6216 2.85989 0
      vertex 9.87272 5.15212 1.03528
      vertex 9.75188 5.08906 0
    endloop
  endfacet
  facet normal -0.923733 -0.36039 0.129754
    outer loop
      vertex 10.6216 2.85989 0
      vertex 10.7532 2.89532 1.03528
      vertex 9.87272 5.15212 1.03528
    endloop
  endfacet
  facet normal 0.979805 0.152135 0.129756
    outer loop
      vertex 18.8445 0.849525 1.03528
      vertex 18.3465 4.93983 0
      vertex 18.2149 4.90439 1.03528
    endloop
  endfacet
  facet normal 0.979813 0.152124 0.12971
    outer loop
      vertex 18.8445 0.849525 1.03528
      vertex 18.9806 0.855664 0
      vertex 18.3465 4.93983 0
    endloop
  endfacet
  facet normal 0.913717 0.141882 0.380777
    outer loop
      vertex 18.4453 0.83153 2
      vertex 18.2149 4.90439 1.03528
      vertex 17.829 4.8005 2
    endloop
  endfacet
  facet normal 0.91373 0.141875 0.380747
    outer loop
      vertex 18.4453 0.83153 2
      vertex 18.8445 0.849525 1.03528
      vertex 18.2149 4.90439 1.03528
    endloop
  endfacet
  facet normal 0.785693 0.121985 0.606471
    outer loop
      vertex 17.8102 0.802902 2.82843
      vertex 17.829 4.8005 2
      vertex 17.2152 4.63523 2.82843
    endloop
  endfacet
  facet normal 0.785652 0.121996 0.606521
    outer loop
      vertex 18.4453 0.83153 2
      vertex 17.829 4.8005 2
      vertex 17.8102 0.802902 2.82843
    endloop
  endfacet
  facet normal 0.603819 0.0937559 0.791588
    outer loop
      vertex 16.9827 0.765594 3.4641
      vertex 17.2152 4.63523 2.82843
      vertex 16.4153 4.41984 3.4641
    endloop
  endfacet
  facet normal 0.603843 0.0937515 0.791571
    outer loop
      vertex 17.8102 0.802902 2.82843
      vertex 17.2152 4.63523 2.82843
      vertex 16.9827 0.765594 3.4641
    endloop
  endfacet
  facet normal 0.380057 0.0590119 0.923079
    outer loop
      vertex 16.0189 0.722147 3.8637
      vertex 16.4153 4.41984 3.4641
      vertex 15.4837 4.16902 3.8637
    endloop
  endfacet
  facet normal 0.380056 0.0590119 0.923079
    outer loop
      vertex 16.9827 0.765594 3.4641
      vertex 16.4153 4.41984 3.4641
      vertex 16.0189 0.722147 3.8637
    endloop
  endfacet
  facet normal 0.12975 0.0201445 0.991342
    outer loop
      vertex 14.9847 0.675523 4
      vertex 15.4837 4.16902 3.8637
      vertex 14.4841 3.89986 4
    endloop
  endfacet
  facet normal 0.129744 0.0201454 0.991343
    outer loop
      vertex 16.0189 0.722147 3.8637
      vertex 15.4837 4.16902 3.8637
      vertex 14.9847 0.675523 4
    endloop
  endfacet
  facet normal -0.129737 -0.0201447 0.991344
    outer loop
      vertex 13.9505 0.6289 3.8637
      vertex 14.4841 3.89986 4
      vertex 13.4844 3.63069 3.8637
    endloop
  endfacet
  facet normal -0.129744 -0.0201436 0.991343
    outer loop
      vertex 14.9847 0.675523 4
      vertex 14.4841 3.89986 4
      vertex 13.9505 0.6289 3.8637
    endloop
  endfacet
  facet normal -0.380057 -0.0590129 0.923079
    outer loop
      vertex 12.9867 0.585453 3.4641
      vertex 13.4844 3.63069 3.8637
      vertex 12.5528 3.37987 3.4641
    endloop
  endfacet
  facet normal -0.380056 -0.0590129 0.923079
    outer loop
      vertex 13.9505 0.6289 3.8637
      vertex 13.4844 3.63069 3.8637
      vertex 12.9867 0.585453 3.4641
    endloop
  endfacet
  facet normal -0.603822 -0.0937462 0.791587
    outer loop
      vertex 12.1591 0.548144 2.82843
      vertex 12.5528 3.37987 3.4641
      vertex 11.7529 3.16449 2.82843
    endloop
  endfacet
  facet normal -0.603797 -0.0937539 0.791606
    outer loop
      vertex 12.9867 0.585453 3.4641
      vertex 12.5528 3.37987 3.4641
      vertex 12.1591 0.548144 2.82843
    endloop
  endfacet
  facet normal -0.785692 -0.121987 0.606471
    outer loop
      vertex 11.5241 0.519517 2
      vertex 11.7529 3.16449 2.82843
      vertex 11.1391 2.99922 2
    endloop
  endfacet
  facet normal -0.7857 -0.121984 0.606462
    outer loop
      vertex 12.1591 0.548144 2.82843
      vertex 11.7529 3.16449 2.82843
      vertex 11.5241 0.519517 2
    endloop
  endfacet
  facet normal -0.913717 -0.141878 0.380778
    outer loop
      vertex 11.1249 0.50152 1.03528
      vertex 11.1391 2.99922 2
      vertex 10.7532 2.89532 1.03528
    endloop
  endfacet
  facet normal -0.913731 -0.141866 0.380748
    outer loop
      vertex 11.5241 0.519517 2
      vertex 11.1391 2.99922 2
      vertex 11.1249 0.50152 1.03528
    endloop
  endfacet
  facet normal -0.979808 -0.152119 0.129755
    outer loop
      vertex 10.9887 0.495382 0
      vertex 10.7532 2.89532 1.03528
      vertex 10.6216 2.85989 0
    endloop
  endfacet
  facet normal -0.979798 -0.152139 0.129803
    outer loop
      vertex 10.9887 0.495382 0
      vertex 11.1249 0.50152 1.03528
      vertex 10.7532 2.89532 1.03528
    endloop
  endfacet
  facet normal -0.0930915 -0.987162 -0.129788
    outer loop
      vertex 3.65209 17.5211 0.776457
      vertex 3.96694e-15 17.8655 0.776457
      vertex 3.9878e-15 17.9595 0.0614985
    endloop
  endfacet
  facet normal -0.0930901 -0.987339 -0.128437
    outer loop
      vertex 3.67295 17.6212 0
      vertex 3.9878e-15 17.9595 0.0614985
      vertex 3.98959e-15 17.9675 0
    endloop
  endfacet
  facet normal -0.0930963 -0.987165 -0.129765
    outer loop
      vertex 3.9878e-15 17.9595 0.0614985
      vertex 3.67295 17.6212 0
      vertex 3.65209 17.5211 0.776457
    endloop
  endfacet
  facet normal -0.0868059 -0.920596 -0.380745
    outer loop
      vertex 3.59093 17.2277 1.5
      vertex 3.90051e-15 17.5663 1.5
      vertex 3.96162e-15 17.8416 0.834358
    endloop
  endfacet
  facet normal -0.0868389 -0.920858 -0.380106
    outer loop
      vertex 3.65209 17.5211 0.776457
      vertex 3.96162e-15 17.8416 0.834358
      vertex 3.96694e-15 17.8655 0.776457
    endloop
  endfacet
  facet normal -0.0868277 -0.92063 -0.380659
    outer loop
      vertex 3.96162e-15 17.8416 0.834358
      vertex 3.65209 17.5211 0.776457
      vertex 3.59093 17.2277 1.5
    endloop
  endfacet
  facet normal -0.0746389 -0.791628 -0.606428
    outer loop
      vertex 3.49365 16.761 2.12132
      vertex 3.79484e-15 17.0904 2.12132
      vertex 3.89197e-15 17.5279 1.55021
    endloop
  endfacet
  facet normal -0.074847 -0.792098 -0.605787
    outer loop
      vertex 3.90051e-15 17.5663 1.5
      vertex 3.49365 16.761 2.12132
      vertex 3.89197e-15 17.5279 1.55021
    endloop
  endfacet
  facet normal -0.0746502 -0.791683 -0.606355
    outer loop
      vertex 3.49365 16.761 2.12132
      vertex 3.90051e-15 17.5663 1.5
      vertex 3.59093 17.2277 1.5
    endloop
  endfacet
  facet normal -0.0573745 -0.608418 -0.79154
    outer loop
      vertex 3.36687 16.1527 2.59808
      vertex 3.65713e-15 16.4702 2.59808
      vertex 3.78361e-15 17.0399 2.16018
    endloop
  endfacet
  facet normal -0.0573747 -0.608418 -0.79154
    outer loop
      vertex 3.78361e-15 17.0399 2.16018
      vertex 3.49365 16.761 2.12132
      vertex 3.36687 16.1527 2.59808
    endloop
  endfacet
  facet normal -0.0574048 -0.608842 -0.791212
    outer loop
      vertex 3.49365 16.761 2.12132
      vertex 3.78361e-15 17.0399 2.16018
      vertex 3.79484e-15 17.0904 2.12132
    endloop
  endfacet
  facet normal -0.0361248 -0.383049 -0.923021
    outer loop
      vertex 3.21922 15.4444 2.89778
      vertex 3.49676e-15 15.748 2.89778
      vertex 3.64396e-15 16.4109 2.62268
    endloop
  endfacet
  facet normal -0.036118 -0.383029 -0.92303
    outer loop
      vertex 3.64396e-15 16.4109 2.62268
      vertex 3.36687 16.1527 2.59808
      vertex 3.21922 15.4444 2.89778
    endloop
  endfacet
  facet normal -0.0361105 -0.382927 -0.923072
    outer loop
      vertex 3.36687 16.1527 2.59808
      vertex 3.64396e-15 16.4109 2.62268
      vertex 3.65713e-15 16.4702 2.59808
    endloop
  endfacet
  facet normal -0.0123285 -0.130752 -0.991338
    outer loop
      vertex 3.06079 14.6843 3
      vertex 3.32466e-15 14.9729 3
      vertex 3.48255e-15 15.684 2.90621
    endloop
  endfacet
  facet normal -0.0123273 -0.130748 -0.991339
    outer loop
      vertex 3.48255e-15 15.684 2.90621
      vertex 3.21922 15.4444 2.89778
      vertex 3.06079 14.6843 3
    endloop
  endfacet
  facet normal -0.0123149 -0.130581 -0.991361
    outer loop
      vertex 3.21922 15.4444 2.89778
      vertex 3.48255e-15 15.684 2.90621
      vertex 3.49676e-15 15.748 2.89778
    endloop
  endfacet
  facet normal 0.0123298 0.130747 -0.991339
    outer loop
      vertex 2.90235 13.9242 2.89778
      vertex 3.15256e-15 14.1979 2.89778
      vertex 3.31042e-15 14.9088 2.99154
    endloop
  endfacet
  facet normal 0.01233 0.130747 -0.991339
    outer loop
      vertex 3.31042e-15 14.9088 2.99154
      vertex 3.06079 14.6843 3
      vertex 2.90235 13.9242 2.89778
    endloop
  endfacet
  facet normal 0.0123365 0.130837 -0.991327
    outer loop
      vertex 3.06079 14.6843 3
      vertex 3.31042e-15 14.9088 2.99154
      vertex 3.32466e-15 14.9729 3
    endloop
  endfacet
  facet normal 0.0361057 0.382983 -0.923049
    outer loop
      vertex 2.75471 13.2159 2.59808
      vertex 2.99219e-15 13.4756 2.59808
      vertex 3.1393e-15 14.1382 2.873
    endloop
  endfacet
  facet normal 0.0361227 0.383028 -0.92303
    outer loop
      vertex 3.1393e-15 14.1382 2.873
      vertex 2.90235 13.9242 2.89778
      vertex 2.75471 13.2159 2.59808
    endloop
  endfacet
  facet normal 0.0361286 0.383112 -0.922995
    outer loop
      vertex 2.90235 13.9242 2.89778
      vertex 3.1393e-15 14.1382 2.873
      vertex 3.15256e-15 14.1979 2.89778
    endloop
  endfacet
  facet normal 0.057372 0.60843 -0.791531
    outer loop
      vertex 2.62792 12.6076 2.12132
      vertex 2.85448e-15 12.8554 2.12132
      vertex 2.98086e-15 13.4246 2.55885
    endloop
  endfacet
  facet normal 0.0573669 0.608419 -0.79154
    outer loop
      vertex 2.98086e-15 13.4246 2.55885
      vertex 2.75471 13.2159 2.59808
      vertex 2.62792 12.6076 2.12132
    endloop
  endfacet
  facet normal 0.057385 0.608699 -0.791324
    outer loop
      vertex 2.75471 13.2159 2.59808
      vertex 2.98086e-15 13.4246 2.55885
      vertex 2.99219e-15 13.4756 2.59808
    endloop
  endfacet
  facet normal 0.0746407 0.791654 -0.606393
    outer loop
      vertex 2.53064 12.1409 1.5
      vertex 2.74881e-15 12.3795 1.5
      vertex 2.84586e-15 12.8166 2.07064
    endloop
  endfacet
  facet normal 0.0746632 0.791803 -0.606195
    outer loop
      vertex 2.62792 12.6076 2.12132
      vertex 2.84586e-15 12.8166 2.07064
      vertex 2.85448e-15 12.8554 2.12132
    endloop
  endfacet
  facet normal 0.0746566 0.791682 -0.606355
    outer loop
      vertex 2.84586e-15 12.8166 2.07064
      vertex 2.62792 12.6076 2.12132
      vertex 2.53064 12.1409 1.5
    endloop
  endfacet
  facet normal 0.0868285 0.920658 -0.38059
    outer loop
      vertex 2.46948 11.8475 0.776457
      vertex 2.68238e-15 12.0804 0.776457
      vertex 2.74345e-15 12.3554 1.44169
    endloop
  endfacet
  facet normal 0.0868064 0.920687 -0.380527
    outer loop
      vertex 2.53064 12.1409 1.5
      vertex 2.74345e-15 12.3554 1.44169
      vertex 2.74881e-15 12.3795 1.5
    endloop
  endfacet
  facet normal 0.0868049 0.920633 -0.380658
    outer loop
      vertex 2.74345e-15 12.3554 1.44169
      vertex 2.53064 12.1409 1.5
      vertex 2.46948 11.8475 0.776457
    endloop
  endfacet
  facet normal 0.0930871 0.987159 -0.129816
    outer loop
      vertex 2.44862 11.7474 0
      vertex 2.65972e-15 11.9783 0
      vertex 2.68058e-15 12.0723 0.714801
    endloop
  endfacet
  facet normal 0.0931017 0.987174 -0.129689
    outer loop
      vertex 2.46948 11.8475 0.776457
      vertex 2.68058e-15 12.0723 0.714801
      vertex 2.68238e-15 12.0804 0.776457
    endloop
  endfacet
  facet normal 0.0931027 0.987164 -0.129765
    outer loop
      vertex 2.68058e-15 12.0723 0.714801
      vertex 2.46948 11.8475 0.776457
      vertex 2.44862 11.7474 0
    endloop
  endfacet
  facet normal -0.309064 -0.942147 -0.129764
    outer loop
      vertex 7.43575 16.2799 0.776457
      vertex 3.65209 17.5211 0.776457
      vertex 3.67295 17.6212 0
    endloop
  endfacet
  facet normal -0.309067 -0.942148 -0.129751
    outer loop
      vertex 7.43575 16.2799 0.776457
      vertex 3.67295 17.6212 0
      vertex 7.47822 16.3729 0
    endloop
  endfacet
  facet normal -0.288229 -0.878648 -0.380659
    outer loop
      vertex 7.31124 16.0073 1.5
      vertex 3.59093 17.2277 1.5
      vertex 3.65209 17.5211 0.776457
    endloop
  endfacet
  facet normal -0.288236 -0.878654 -0.38064
    outer loop
      vertex 7.31124 16.0073 1.5
      vertex 3.65209 17.5211 0.776457
      vertex 7.43575 16.2799 0.776457
    endloop
  endfacet
  facet normal -0.247851 -0.755581 -0.606355
    outer loop
      vertex 7.11317 15.5737 2.12132
      vertex 3.49365 16.761 2.12132
      vertex 3.59093 17.2277 1.5
    endloop
  endfacet
  facet normal -0.247865 -0.7556 -0.606326
    outer loop
      vertex 7.11317 15.5737 2.12132
      vertex 3.59093 17.2277 1.5
      vertex 7.31124 16.0073 1.5
    endloop
  endfacet
  facet normal -0.190476 -0.580677 -0.791539
    outer loop
      vertex 6.85503 15.0085 2.59808
      vertex 3.36687 16.1527 2.59808
      vertex 3.49365 16.761 2.12132
    endloop
  endfacet
  facet normal -0.190479 -0.580682 -0.791534
    outer loop
      vertex 6.85503 15.0085 2.59808
      vertex 3.49365 16.761 2.12132
      vertex 7.11317 15.5737 2.12132
    endloop
  endfacet
  facet normal -0.11991 -0.365562 -0.923031
    outer loop
      vertex 6.55443 14.3504 2.89778
      vertex 3.21922 15.4444 2.89778
      vertex 3.36687 16.1527 2.59808
    endloop
  endfacet
  facet normal -0.119917 -0.365573 -0.923026
    outer loop
      vertex 6.55443 14.3504 2.89778
      vertex 3.36687 16.1527 2.59808
      vertex 6.85503 15.0085 2.59808
    endloop
  endfacet
  facet normal -0.0409335 -0.124786 -0.991339
    outer loop
      vertex 6.23184 13.6441 3
      vertex 3.06079 14.6843 3
      vertex 3.21922 15.4444 2.89778
    endloop
  endfacet
  facet normal -0.0409294 -0.124779 -0.99134
    outer loop
      vertex 6.23184 13.6441 3
      vertex 3.21922 15.4444 2.89778
      vertex 6.55443 14.3504 2.89778
    endloop
  endfacet
  facet normal 0.040935 0.124785 -0.991339
    outer loop
      vertex 5.90926 12.9378 2.89778
      vertex 2.90235 13.9242 2.89778
      vertex 3.06079 14.6843 3
    endloop
  endfacet
  facet normal 0.0409312 0.124779 -0.99134
    outer loop
      vertex 5.90926 12.9378 2.89778
      vertex 3.06079 14.6843 3
      vertex 6.23184 13.6441 3
    endloop
  endfacet
  facet normal 0.119918 0.365562 -0.92303
    outer loop
      vertex 5.60866 12.2797 2.59808
      vertex 2.75471 13.2159 2.59808
      vertex 2.90235 13.9242 2.89778
    endloop
  endfacet
  facet normal 0.119923 0.36557 -0.923026
    outer loop
      vertex 5.60866 12.2797 2.59808
      vertex 2.90235 13.9242 2.89778
      vertex 5.90926 12.9378 2.89778
    endloop
  endfacet
  facet normal 0.19048 0.580674 -0.79154
    outer loop
      vertex 5.35052 11.7145 2.12132
      vertex 2.62792 12.6076 2.12132
      vertex 2.75471 13.2159 2.59808
    endloop
  endfacet
  facet normal 0.190484 0.58068 -0.791534
    outer loop
      vertex 5.35052 11.7145 2.12132
      vertex 2.75471 13.2159 2.59808
      vertex 5.60866 12.2797 2.59808
    endloop
  endfacet
  facet normal 0.247871 0.755576 -0.606354
    outer loop
      vertex 5.15245 11.2808 1.5
      vertex 2.53064 12.1409 1.5
      vertex 2.62792 12.6076 2.12132
    endloop
  endfacet
  facet normal 0.247843 0.755546 -0.606403
    outer loop
      vertex 5.15245 11.2808 1.5
      vertex 2.62792 12.6076 2.12132
      vertex 5.35052 11.7145 2.12132
    endloop
  endfacet
  facet normal 0.288239 0.878645 -0.380659
    outer loop
      vertex 5.02794 11.0082 0.776457
      vertex 2.46948 11.8475 0.776457
      vertex 2.53064 12.1409 1.5
    endloop
  endfacet
  facet normal 0.288246 0.878651 -0.38064
    outer loop
      vertex 5.02794 11.0082 0.776457
      vertex 2.53064 12.1409 1.5
      vertex 5.15245 11.2808 1.5
    endloop
  endfacet
  facet normal 0.309032 0.942157 -0.129764
    outer loop
      vertex 4.98547 10.9153 0
      vertex 2.44862 11.7474 0
      vertex 2.46948 11.8475 0.776457
    endloop
  endfacet
  facet normal 0.309075 0.942162 -0.129631
    outer loop
      vertex 4.98547 10.9153 0
      vertex 2.46948 11.8475 0.776457
      vertex 5.02794 11.0082 0.776457
    endloop
  endfacet
  facet normal -0.50972 -0.8505 -0.129749
    outer loop
      vertex 10.8513 14.2329 0.776457
      vertex 7.43575 16.2799 0.776457
      vertex 7.47822 16.3729 0
    endloop
  endfacet
  facet normal -0.509719 -0.8505 -0.129754
    outer loop
      vertex 10.8513 14.2329 0.776457
      vertex 7.47822 16.3729 0
      vertex 10.9133 14.3142 0
    endloop
  endfacet
  facet normal -0.475364 -0.793185 -0.38064
    outer loop
      vertex 10.6696 13.9946 1.5
      vertex 7.31124 16.0073 1.5
      vertex 7.43575 16.2799 0.776457
    endloop
  endfacet
  facet normal -0.475373 -0.793191 -0.380617
    outer loop
      vertex 10.6696 13.9946 1.5
      vertex 7.43575 16.2799 0.776457
      vertex 10.8513 14.2329 0.776457
    endloop
  endfacet
  facet normal -0.408802 -0.682088 -0.60633
    outer loop
      vertex 10.3806 13.6154 2.12132
      vertex 7.11317 15.5737 2.12132
      vertex 7.31124 16.0073 1.5
    endloop
  endfacet
  facet normal -0.408762 -0.682053 -0.606397
    outer loop
      vertex 10.3806 13.6154 2.12132
      vertex 7.31124 16.0073 1.5
      vertex 10.6696 13.9946 1.5
    endloop
  endfacet
  facet normal -0.314162 -0.524192 -0.791533
    outer loop
      vertex 10.0039 13.1213 2.59808
      vertex 6.85503 15.0085 2.59808
      vertex 7.11317 15.5737 2.12132
    endloop
  endfacet
  facet normal -0.314179 -0.524209 -0.791515
    outer loop
      vertex 10.0039 13.1213 2.59808
      vertex 7.11317 15.5737 2.12132
      vertex 10.3806 13.6154 2.12132
    endloop
  endfacet
  facet normal -0.197789 -0.330004 -0.923026
    outer loop
      vertex 9.56518 12.5459 2.89778
      vertex 6.55443 14.3504 2.89778
      vertex 6.85503 15.0085 2.59808
    endloop
  endfacet
  facet normal -0.197766 -0.329981 -0.923039
    outer loop
      vertex 9.56518 12.5459 2.89778
      vertex 6.85503 15.0085 2.59808
      vertex 10.0039 13.1213 2.59808
    endloop
  endfacet
  facet normal -0.0675073 -0.11264 -0.99134
    outer loop
      vertex 9.09442 11.9285 3
      vertex 6.23184 13.6441 3
      vertex 6.55443 14.3504 2.89778
    endloop
  endfacet
  facet normal -0.0675171 -0.11265 -0.991338
    outer loop
      vertex 9.09442 11.9285 3
      vertex 6.55443 14.3504 2.89778
      vertex 9.56518 12.5459 2.89778
    endloop
  endfacet
  facet normal 0.0675082 0.11264 -0.99134
    outer loop
      vertex 8.62365 11.311 2.89778
      vertex 5.90926 12.9378 2.89778
      vertex 6.23184 13.6441 3
    endloop
  endfacet
  facet normal 0.0675068 0.112639 -0.99134
    outer loop
      vertex 8.62365 11.311 2.89778
      vertex 6.23184 13.6441 3
      vertex 9.09442 11.9285 3
    endloop
  endfacet
  facet normal 0.197787 0.330005 -0.923026
    outer loop
      vertex 8.18497 10.7356 2.59808
      vertex 5.60866 12.2797 2.59808
      vertex 5.90926 12.9378 2.89778
    endloop
  endfacet
  facet normal 0.19777 0.329989 -0.923035
    outer loop
      vertex 8.18497 10.7356 2.59808
      vertex 5.90926 12.9378 2.89778
      vertex 8.62365 11.311 2.89778
    endloop
  endfacet
  facet normal 0.314164 0.524191 -0.791533
    outer loop
      vertex 7.80826 10.2415 2.12132
      vertex 5.35052 11.7145 2.12132
      vertex 5.60866 12.2797 2.59808
    endloop
  endfacet
  facet normal 0.31418 0.524205 -0.791518
    outer loop
      vertex 7.80826 10.2415 2.12132
      vertex 5.60866 12.2797 2.59808
      vertex 8.18497 10.7356 2.59808
    endloop
  endfacet
  facet normal 0.408757 0.682053 -0.606401
    outer loop
      vertex 7.51921 9.86239 1.5
      vertex 5.15245 11.2808 1.5
      vertex 5.35052 11.7145 2.12132
    endloop
  endfacet
  facet normal 0.408788 0.682074 -0.606356
    outer loop
      vertex 7.51921 9.86239 1.5
      vertex 5.35052 11.7145 2.12132
      vertex 7.80826 10.2415 2.12132
    endloop
  endfacet
  facet normal 0.475363 0.793185 -0.38064
    outer loop
      vertex 7.3375 9.62406 0.776457
      vertex 5.02794 11.0082 0.776457
      vertex 5.15245 11.2808 1.5
    endloop
  endfacet
  facet normal 0.475358 0.793183 -0.38065
    outer loop
      vertex 7.3375 9.62406 0.776457
      vertex 5.15245 11.2808 1.5
      vertex 7.51921 9.86239 1.5
    endloop
  endfacet
  facet normal 0.509744 0.850502 -0.129641
    outer loop
      vertex 7.27552 9.54277 0
      vertex 4.98547 10.9153 0
      vertex 5.02794 11.0082 0.776457
    endloop
  endfacet
  facet normal 0.509716 0.850506 -0.12973
    outer loop
      vertex 7.27552 9.54277 0
      vertex 5.02794 11.0082 0.776457
      vertex 7.3375 9.62406 0.776457
    endloop
  endfacet
  facet normal -0.685152 -0.71675 -0.129758
    outer loop
      vertex 13.7298 11.4813 0.776457
      vertex 10.8513 14.2329 0.776457
      vertex 10.9133 14.3142 0
    endloop
  endfacet
  facet normal -0.685156 -0.716749 -0.129737
    outer loop
      vertex 13.7298 11.4813 0.776457
      vertex 10.9133 14.3142 0
      vertex 13.8082 11.5469 0
    endloop
  endfacet
  facet normal -0.63898 -0.668455 -0.380621
    outer loop
      vertex 13.4999 11.2891 1.5
      vertex 10.6696 13.9946 1.5
      vertex 10.8513 14.2329 0.776457
    endloop
  endfacet
  facet normal -0.638989 -0.668458 -0.380601
    outer loop
      vertex 13.4999 11.2891 1.5
      vertex 10.8513 14.2329 0.776457
      vertex 13.7298 11.4813 0.776457
    endloop
  endfacet
  facet normal -0.549469 -0.574791 -0.606382
    outer loop
      vertex 13.1341 10.9832 2.12132
      vertex 10.3806 13.6154 2.12132
      vertex 10.6696 13.9946 1.5
    endloop
  endfacet
  facet normal -0.549421 -0.574765 -0.606449
    outer loop
      vertex 13.1341 10.9832 2.12132
      vertex 10.6696 13.9946 1.5
      vertex 13.4999 11.2891 1.5
    endloop
  endfacet
  facet normal -0.422309 -0.44177 -0.791514
    outer loop
      vertex 12.6575 10.5846 2.59808
      vertex 10.0039 13.1213 2.59808
      vertex 10.3806 13.6154 2.12132
    endloop
  endfacet
  facet normal -0.422309 -0.44177 -0.791514
    outer loop
      vertex 12.6575 10.5846 2.59808
      vertex 10.3806 13.6154 2.12132
      vertex 13.1341 10.9832 2.12132
    endloop
  endfacet
  facet normal -0.26583 -0.278085 -0.92304
    outer loop
      vertex 12.1024 10.1205 2.89778
      vertex 9.56518 12.5459 2.89778
      vertex 10.0039 13.1213 2.59808
    endloop
  endfacet
  facet normal -0.265843 -0.278094 -0.923034
    outer loop
      vertex 12.1024 10.1205 2.89778
      vertex 10.0039 13.1213 2.59808
      vertex 12.6575 10.5846 2.59808
    endloop
  endfacet
  facet normal -0.0907519 -0.094934 -0.991338
    outer loop
      vertex 11.5068 9.62239 3
      vertex 9.09442 11.9285 3
      vertex 9.56518 12.5459 2.89778
    endloop
  endfacet
  facet normal -0.0907468 -0.0949306 -0.991339
    outer loop
      vertex 11.5068 9.62239 3
      vertex 9.56518 12.5459 2.89778
      vertex 12.1024 10.1205 2.89778
    endloop
  endfacet
  facet normal 0.0907409 0.0949258 -0.99134
    outer loop
      vertex 10.9112 9.1243 2.89778
      vertex 8.62365 11.311 2.89778
      vertex 9.09442 11.9285 3
    endloop
  endfacet
  facet normal 0.0907494 0.0949313 -0.991339
    outer loop
      vertex 10.9112 9.1243 2.89778
      vertex 9.09442 11.9285 3
      vertex 11.5068 9.62239 3
    endloop
  endfacet
  facet normal 0.265839 0.278094 -0.923035
    outer loop
      vertex 10.3561 8.66015 2.59808
      vertex 8.18497 10.7356 2.59808
      vertex 8.62365 11.311 2.89778
    endloop
  endfacet
  facet normal 0.265828 0.278087 -0.92304
    outer loop
      vertex 10.3561 8.66015 2.59808
      vertex 8.62365 11.311 2.89778
      vertex 10.9112 9.1243 2.89778
    endloop
  endfacet
  facet normal 0.422299 0.441772 -0.791518
    outer loop
      vertex 9.87949 8.26157 2.12132
      vertex 7.80826 10.2415 2.12132
      vertex 8.18497 10.7356 2.59808
    endloop
  endfacet
  facet normal 0.422309 0.441778 -0.79151
    outer loop
      vertex 9.87949 8.26157 2.12132
      vertex 8.18497 10.7356 2.59808
      vertex 10.3561 8.66015 2.59808
    endloop
  endfacet
  facet normal 0.549479 0.574808 -0.606358
    outer loop
      vertex 9.51376 7.95573 1.5
      vertex 7.51921 9.86239 1.5
      vertex 7.80826 10.2415 2.12132
    endloop
  endfacet
  facet normal 0.549465 0.574802 -0.606375
    outer loop
      vertex 9.51376 7.95573 1.5
      vertex 7.80826 10.2415 2.12132
      vertex 9.87949 8.26157 2.12132
    endloop
  endfacet
  facet normal 0.638981 0.668437 -0.380652
    outer loop
      vertex 9.28385 7.76348 0.776457
      vertex 7.3375 9.62406 0.776457
      vertex 7.51921 9.86239 1.5
    endloop
  endfacet
  facet normal 0.638982 0.668437 -0.380648
    outer loop
      vertex 9.28385 7.76348 0.776457
      vertex 7.51921 9.86239 1.5
      vertex 9.51376 7.95573 1.5
    endloop
  endfacet
  facet normal 0.685162 0.716745 -0.129731
    outer loop
      vertex 9.20543 7.6979 0
      vertex 7.27552 9.54277 0
      vertex 7.3375 9.62406 0.776457
    endloop
  endfacet
  facet normal 0.68516 0.716745 -0.129736
    outer loop
      vertex 9.20543 7.6979 0
      vertex 7.3375 9.62406 0.776457
      vertex 9.28385 7.76348 0.776457
    endloop
  endfacet
  facet normal -0.826679 -0.547514 -0.129728
    outer loop
      vertex 15.9286 8.16138 0.776457
      vertex 13.7298 11.4813 0.776457
      vertex 13.8082 11.5469 0
    endloop
  endfacet
  facet normal -0.826697 -0.547507 -0.129648
    outer loop
      vertex 15.9286 8.16138 0.776457
      vertex 13.8082 11.5469 0
      vertex 16.0195 8.20799 0
    endloop
  endfacet
  facet normal -0.770988 -0.510601 -0.38061
    outer loop
      vertex 15.6618 8.02471 1.5
      vertex 13.4999 11.2891 1.5
      vertex 13.7298 11.4813 0.776457
    endloop
  endfacet
  facet normal -0.770937 -0.510595 -0.380722
    outer loop
      vertex 15.6618 8.02471 1.5
      vertex 13.7298 11.4813 0.776457
      vertex 15.9286 8.16138 0.776457
    endloop
  endfacet
  facet normal -0.662914 -0.439049 -0.606449
    outer loop
      vertex 15.2375 7.80731 2.12132
      vertex 13.1341 10.9832 2.12132
      vertex 13.4999 11.2891 1.5
    endloop
  endfacet
  facet normal -0.662973 -0.439065 -0.606374
    outer loop
      vertex 15.2375 7.80731 2.12132
      vertex 13.4999 11.2891 1.5
      vertex 15.6618 8.02471 1.5
    endloop
  endfacet
  facet normal -0.509533 -0.337473 -0.79151
    outer loop
      vertex 14.6846 7.52399 2.59808
      vertex 12.6575 10.5846 2.59808
      vertex 13.1341 10.9832 2.12132
    endloop
  endfacet
  facet normal -0.509559 -0.337482 -0.791489
    outer loop
      vertex 14.6846 7.52399 2.59808
      vertex 13.1341 10.9832 2.12132
      vertex 15.2375 7.80731 2.12132
    endloop
  endfacet
  facet normal -0.320744 -0.21243 -0.923037
    outer loop
      vertex 14.0406 7.19405 2.89778
      vertex 12.1024 10.1205 2.89778
      vertex 12.6575 10.5846 2.59808
    endloop
  endfacet
  facet normal -0.320728 -0.212424 -0.923044
    outer loop
      vertex 14.0406 7.19405 2.89778
      vertex 12.6575 10.5846 2.59808
      vertex 14.6846 7.52399 2.59808
    endloop
  endfacet
  facet normal -0.109492 -0.072517 -0.991339
    outer loop
      vertex 13.3496 6.83999 3
      vertex 11.5068 9.62239 3
      vertex 12.1024 10.1205 2.89778
    endloop
  endfacet
  facet normal -0.109492 -0.0725172 -0.991339
    outer loop
      vertex 13.3496 6.83999 3
      vertex 12.1024 10.1205 2.89778
      vertex 14.0406 7.19405 2.89778
    endloop
  endfacet
  facet normal 0.109494 0.0725176 -0.991339
    outer loop
      vertex 12.6586 6.48592 2.89778
      vertex 10.9112 9.1243 2.89778
      vertex 11.5068 9.62239 3
    endloop
  endfacet
  facet normal 0.109491 0.0725169 -0.991339
    outer loop
      vertex 12.6586 6.48592 2.89778
      vertex 11.5068 9.62239 3
      vertex 13.3496 6.83999 3
    endloop
  endfacet
  facet normal 0.320735 0.212421 -0.923042
    outer loop
      vertex 12.0146 6.15598 2.59808
      vertex 10.3561 8.66015 2.59808
      vertex 10.9112 9.1243 2.89778
    endloop
  endfacet
  facet normal 0.32073 0.21242 -0.923044
    outer loop
      vertex 12.0146 6.15598 2.59808
      vertex 10.9112 9.1243 2.89778
      vertex 12.6586 6.48592 2.89778
    endloop
  endfacet
  facet normal 0.509535 0.337473 -0.791509
    outer loop
      vertex 11.4617 5.87266 2.12132
      vertex 9.87949 8.26157 2.12132
      vertex 10.3561 8.66015 2.59808
    endloop
  endfacet
  facet normal 0.50956 0.337479 -0.79149
    outer loop
      vertex 11.4617 5.87266 2.12132
      vertex 10.3561 8.66015 2.59808
      vertex 12.0146 6.15598 2.59808
    endloop
  endfacet
  facet normal 0.662956 0.439087 -0.606376
    outer loop
      vertex 11.0374 5.65526 1.5
      vertex 9.51376 7.95573 1.5
      vertex 9.87949 8.26157 2.12132
    endloop
  endfacet
  facet normal 0.662959 0.439088 -0.606372
    outer loop
      vertex 11.0374 5.65526 1.5
      vertex 9.87949 8.26157 2.12132
      vertex 11.4617 5.87266 2.12132
    endloop
  endfacet
  facet normal 0.77097 0.510599 -0.38065
    outer loop
      vertex 10.7706 5.51859 0.776457
      vertex 9.28385 7.76348 0.776457
      vertex 9.51376 7.95573 1.5
    endloop
  endfacet
  facet normal 0.770932 0.510602 -0.380722
    outer loop
      vertex 10.7706 5.51859 0.776457
      vertex 9.51376 7.95573 1.5
      vertex 11.0374 5.65526 1.5
    endloop
  endfacet
  facet normal 0.826673 0.547522 -0.129736
    outer loop
      vertex 10.6797 5.47198 0
      vertex 9.20543 7.6979 0
      vertex 9.28385 7.76348 0.776457
    endloop
  endfacet
  facet normal 0.826697 0.547507 -0.129648
    outer loop
      vertex 10.6797 5.47198 0
      vertex 9.28385 7.76348 0.776457
      vertex 10.7706 5.51859 0.776457
    endloop
  endfacet
  facet normal -0.927291 -0.351177 -0.129639
    outer loop
      vertex 17.3389 4.43745 0.776457
      vertex 15.9286 8.16138 0.776457
      vertex 16.0195 8.20799 0
    endloop
  endfacet
  facet normal -0.927281 -0.351184 -0.129691
    outer loop
      vertex 17.3389 4.43745 0.776457
      vertex 16.0195 8.20799 0
      vertex 17.4379 4.46279 0
    endloop
  endfacet
  facet normal -0.86475 -0.327496 -0.380729
    outer loop
      vertex 17.0485 4.36314 1.5
      vertex 15.6618 8.02471 1.5
      vertex 15.9286 8.16138 0.776457
    endloop
  endfacet
  facet normal -0.864757 -0.327495 -0.380712
    outer loop
      vertex 17.0485 4.36314 1.5
      vertex 15.9286 8.16138 0.776457
      vertex 17.3389 4.43745 0.776457
    endloop
  endfacet
  facet normal -0.74364 -0.281623 -0.606373
    outer loop
      vertex 16.5866 4.24494 2.12132
      vertex 15.2375 7.80731 2.12132
      vertex 15.6618 8.02471 1.5
    endloop
  endfacet
  facet normal -0.743621 -0.281622 -0.606397
    outer loop
      vertex 16.5866 4.24494 2.12132
      vertex 15.6618 8.02471 1.5
      vertex 17.0485 4.36314 1.5
    endloop
  endfacet
  facet normal -0.571575 -0.216453 -0.791486
    outer loop
      vertex 15.9847 4.09089 2.59808
      vertex 14.6846 7.52399 2.59808
      vertex 15.2375 7.80731 2.12132
    endloop
  endfacet
  facet normal -0.571548 -0.21645 -0.791507
    outer loop
      vertex 15.9847 4.09089 2.59808
      vertex 15.2375 7.80731 2.12132
      vertex 16.5866 4.24494 2.12132
    endloop
  endfacet
  facet normal -0.359755 -0.13625 -0.923045
    outer loop
      vertex 15.2838 3.9115 2.89778
      vertex 14.0406 7.19405 2.89778
      vertex 14.6846 7.52399 2.59808
    endloop
  endfacet
  facet normal -0.359805 -0.136257 -0.923025
    outer loop
      vertex 15.2838 3.9115 2.89778
      vertex 14.6846 7.52399 2.59808
      vertex 15.9847 4.09089 2.59808
    endloop
  endfacet
  facet normal -0.122816 -0.0465136 -0.991339
    outer loop
      vertex 14.5316 3.71899 3
      vertex 13.3496 6.83999 3
      vertex 14.0406 7.19405 2.89778
    endloop
  endfacet
  facet normal -0.122814 -0.0465132 -0.991339
    outer loop
      vertex 14.5316 3.71899 3
      vertex 14.0406 7.19405 2.89778
      vertex 15.2838 3.9115 2.89778
    endloop
  endfacet
  facet normal 0.122818 0.0465094 -0.991339
    outer loop
      vertex 13.7793 3.52648 2.89778
      vertex 12.6586 6.48592 2.89778
      vertex 13.3496 6.83999 3
    endloop
  endfacet
  facet normal 0.122799 0.0465071 -0.991341
    outer loop
      vertex 13.7793 3.52648 2.89778
      vertex 13.3496 6.83999 3
      vertex 14.5316 3.71899 3
    endloop
  endfacet
  facet normal 0.359756 0.136249 -0.923045
    outer loop
      vertex 13.0784 3.34709 2.59808
      vertex 12.0146 6.15598 2.59808
      vertex 12.6586 6.48592 2.89778
    endloop
  endfacet
  facet normal 0.359806 0.136254 -0.923025
    outer loop
      vertex 13.0784 3.34709 2.59808
      vertex 12.6586 6.48592 2.89778
      vertex 13.7793 3.52648 2.89778
    endloop
  endfacet
  facet normal 0.571571 0.21646 -0.791487
    outer loop
      vertex 12.4765 3.19304 2.12132
      vertex 11.4617 5.87266 2.12132
      vertex 12.0146 6.15598 2.59808
    endloop
  endfacet
  facet normal 0.571545 0.216459 -0.791506
    outer loop
      vertex 12.4765 3.19304 2.12132
      vertex 12.0146 6.15598 2.59808
      vertex 13.0784 3.34709 2.59808
    endloop
  endfacet
  facet normal 0.743643 0.281616 -0.606372
    outer loop
      vertex 12.0146 3.07484 1.5
      vertex 11.0374 5.65526 1.5
      vertex 11.4617 5.87266 2.12132
    endloop
  endfacet
  facet normal 0.743623 0.281618 -0.606397
    outer loop
      vertex 12.0146 3.07484 1.5
      vertex 11.4617 5.87266 2.12132
      vertex 12.4765 3.19304 2.12132
    endloop
  endfacet
  facet normal 0.864742 0.327516 -0.38073
    outer loop
      vertex 11.7243 3.00053 0.776457
      vertex 10.7706 5.51859 0.776457
      vertex 11.0374 5.65526 1.5
    endloop
  endfacet
  facet normal 0.864801 0.327498 -0.380611
    outer loop
      vertex 11.7243 3.00053 0.776457
      vertex 11.0374 5.65526 1.5
      vertex 12.0146 3.07484 1.5
    endloop
  endfacet
  facet normal 0.927299 0.351155 -0.129639
    outer loop
      vertex 11.6252 2.97519 0
      vertex 10.6797 5.47198 0
      vertex 10.7706 5.51859 0.776457
    endloop
  endfacet
  facet normal 0.927261 0.351194 -0.129809
    outer loop
      vertex 11.6252 2.97519 0
      vertex 10.7706 5.51859 0.776457
      vertex 11.7243 3.00053 0.776457
    endloop
  endfacet
  facet normal -0.981981 -0.137453 -0.129691
    outer loop
      vertex 17.8554 0.804936 0.7156
      vertex 17.3389 4.43745 0.776457
      vertex 17.4379 4.46279 0
    endloop
  endfacet
  facet normal -0.981955 -0.137446 -0.129897
    outer loop
      vertex 17.3389 4.43745 0.776457
      vertex 17.8554 0.804936 0.7156
      vertex 17.8474 0.804576 0.776457
    endloop
  endfacet
  facet normal -0.981985 -0.137449 -0.129668
    outer loop
      vertex 17.8554 0.804936 0.7156
      vertex 17.4379 4.46279 0
      vertex 17.9493 0.809171 0
    endloop
  endfacet
  facet normal -0.915764 -0.128188 -0.380715
    outer loop
      vertex 17.5717 0.792148 1.44387
      vertex 17.0485 4.36314 1.5
      vertex 17.3389 4.43745 0.776457
    endloop
  endfacet
  facet normal -0.915701 -0.128176 -0.38087
    outer loop
      vertex 17.0485 4.36314 1.5
      vertex 17.5717 0.792148 1.44387
      vertex 17.5485 0.791103 1.5
    endloop
  endfacet
  facet normal -0.915778 -0.128183 -0.380683
    outer loop
      vertex 17.5717 0.792148 1.44387
      vertex 17.3389 4.43745 0.776457
      vertex 17.8474 0.804576 0.776457
    endloop
  endfacet
  facet normal -0.787483 -0.110234 -0.606399
    outer loop
      vertex 17.1096 0.771317 2.07359
      vertex 16.5866 4.24494 2.12132
      vertex 17.0485 4.36314 1.5
    endloop
  endfacet
  facet normal -0.787671 -0.110265 -0.606149
    outer loop
      vertex 16.5866 4.24494 2.12132
      vertex 17.1096 0.771317 2.07359
      vertex 17.0731 0.769671 2.12132
    endloop
  endfacet
  facet normal -0.787497 -0.110231 -0.60638
    outer loop
      vertex 17.1096 0.771317 2.07359
      vertex 17.0485 4.36314 1.5
      vertex 17.5485 0.791103 1.5
    endloop
  endfacet
  facet normal -0.605143 -0.0847054 -0.791598
    outer loop
      vertex 15.9847 4.09089 2.59808
      vertex 16.5007 0.743867 2.56177
      vertex 16.4535 0.74174 2.59808
    endloop
  endfacet
  facet normal -0.605261 -0.0847245 -0.791506
    outer loop
      vertex 16.5007 0.743867 2.56177
      vertex 15.9847 4.09089 2.59808
      vertex 16.5866 4.24494 2.12132
    endloop
  endfacet
  facet normal -0.605211 -0.084723 -0.791544
    outer loop
      vertex 16.5842 0.747633 2.49749
      vertex 16.5866 4.24494 2.12132
      vertex 17.0731 0.769671 2.12132
    endloop
  endfacet
  facet normal -0.60541 -0.0847067 -0.791393
    outer loop
      vertex 16.5866 4.24494 2.12132
      vertex 16.5842 0.747633 2.49749
      vertex 16.5007 0.743867 2.56177
    endloop
  endfacet
  facet normal -0.380726 -0.0532873 -0.923151
    outer loop
      vertex 15.2838 3.9115 2.89778
      vertex 15.7866 0.711672 2.87512
      vertex 15.732 0.709214 2.89778
    endloop
  endfacet
  facet normal -0.381028 -0.0533357 -0.923024
    outer loop
      vertex 15.7866 0.711672 2.87512
      vertex 15.2838 3.9115 2.89778
      vertex 15.9847 4.09089 2.59808
    endloop
  endfacet
  facet normal -0.381032 -0.0533353 -0.923022
    outer loop
      vertex 16.4535 0.74174 2.59808
      vertex 15.7866 0.711672 2.87512
      vertex 15.9847 4.09089 2.59808
    endloop
  endfacet
  facet normal -0.129945 -0.0181856 -0.991354
    outer loop
      vertex 14.5316 3.71899 3
      vertex 15.016 0.676934 2.99231
      vertex 14.9577 0.674309 3
    endloop
  endfacet
  facet normal -0.130059 -0.0182038 -0.991339
    outer loop
      vertex 15.016 0.676934 2.99231
      vertex 14.5316 3.71899 3
      vertex 15.2838 3.9115 2.89778
    endloop
  endfacet
  facet normal -0.130061 -0.0182037 -0.991339
    outer loop
      vertex 15.732 0.709214 2.89778
      vertex 15.016 0.676934 2.99231
      vertex 15.2838 3.9115 2.89778
    endloop
  endfacet
  facet normal 0.130269 0.0182381 -0.991311
    outer loop
      vertex 13.7793 3.52648 2.89778
      vertex 14.2415 0.642022 2.90545
      vertex 14.1835 0.639404 2.89778
    endloop
  endfacet
  facet normal 0.130042 0.0182017 -0.991341
    outer loop
      vertex 14.2415 0.642022 2.90545
      vertex 13.7793 3.52648 2.89778
      vertex 14.5316 3.71899 3
    endloop
  endfacet
  facet normal 0.130052 0.0182007 -0.99134
    outer loop
      vertex 14.9577 0.674309 3
      vertex 14.2415 0.642022 2.90545
      vertex 14.5316 3.71899 3
    endloop
  endfacet
  facet normal 0.381405 0.0533926 -0.922865
    outer loop
      vertex 13.0784 3.34709 2.59808
      vertex 13.5161 0.60932 2.62058
      vertex 13.462 0.606877 2.59808
    endloop
  endfacet
  facet normal 0.381029 0.0533311 -0.923024
    outer loop
      vertex 13.5161 0.60932 2.62058
      vertex 13.0784 3.34709 2.59808
      vertex 13.7793 3.52648 2.89778
    endloop
  endfacet
  facet normal 0.380971 0.0533372 -0.923047
    outer loop
      vertex 13.7375 0.6193 2.71254
      vertex 13.7793 3.52648 2.89778
      vertex 14.1835 0.639404 2.89778
    endloop
  endfacet
  facet normal 0.380987 0.0533365 -0.923041
    outer loop
      vertex 13.7793 3.52648 2.89778
      vertex 13.7375 0.6193 2.71254
      vertex 13.5161 0.60932 2.62058
    endloop
  endfacet
  facet normal 0.605506 0.0847539 -0.791315
    outer loop
      vertex 12.4765 3.19304 2.12132
      vertex 12.8891 0.581053 2.15728
      vertex 12.8424 0.578946 2.12132
    endloop
  endfacet
  facet normal 0.605263 0.0847129 -0.791505
    outer loop
      vertex 12.8891 0.581053 2.15728
      vertex 12.4765 3.19304 2.12132
      vertex 13.0784 3.34709 2.59808
    endloop
  endfacet
  facet normal 0.60521 0.0847228 -0.791544
    outer loop
      vertex 13.462 0.606877 2.59808
      vertex 12.8891 0.581053 2.15728
      vertex 13.0784 3.34709 2.59808
    endloop
  endfacet
  facet normal 0.787486 0.110215 -0.606398
    outer loop
      vertex 12.4031 0.559145 1.54728
      vertex 12.0146 3.07484 1.5
      vertex 12.4765 3.19304 2.12132
    endloop
  endfacet
  facet normal 0.788115 0.110328 -0.60556
    outer loop
      vertex 12.0146 3.07484 1.5
      vertex 12.4031 0.559145 1.54728
      vertex 12.367 0.557514 1.5
    endloop
  endfacet
  facet normal 0.787461 0.110223 -0.606429
    outer loop
      vertex 12.8424 0.578946 2.12132
      vertex 12.4031 0.559145 1.54728
      vertex 12.4765 3.19304 2.12132
    endloop
  endfacet
  facet normal 0.915813 0.128167 -0.380606
    outer loop
      vertex 12.0911 0.545079 0.832193
      vertex 11.7243 3.00053 0.776457
      vertex 12.0146 3.07484 1.5
    endloop
  endfacet
  facet normal 0.915916 0.128188 -0.380349
    outer loop
      vertex 11.7243 3.00053 0.776457
      vertex 12.0911 0.545079 0.832193
      vertex 12.0681 0.544041 0.776457
    endloop
  endfacet
  facet normal 0.915758 0.128197 -0.380726
    outer loop
      vertex 12.0911 0.545079 0.832193
      vertex 12.0146 3.07484 1.5
      vertex 12.367 0.557514 1.5
    endloop
  endfacet
  facet normal 0.981966 0.137444 -0.129815
    outer loop
      vertex 11.9741 0.539805 0.0607004
      vertex 11.6252 2.97519 0
      vertex 11.7243 3.00053 0.776457
    endloop
  endfacet
  facet normal 0.982115 0.137494 -0.128633
    outer loop
      vertex 11.6252 2.97519 0
      vertex 11.9741 0.539805 0.0607004
      vertex 11.9662 0.539446 0
    endloop
  endfacet
  facet normal 0.981973 0.137433 -0.129775
    outer loop
      vertex 11.9741 0.539805 0.0607004
      vertex 11.7243 3.00053 0.776457
      vertex 12.0681 0.544041 0.776457
    endloop
  endfacet
  facet normal 0 0 -1
    outer loop
      vertex 17.4379 4.46279 0
      vertex 18.8445 0.849525 0
      vertex 18.7083 0.843387 0
    endloop
  endfacet
  facet normal 0 0 -1
    outer loop
      vertex 18.8445 0.849525 0
      vertex 17.4379 4.46279 0
      vertex 18.9806 0.855664 0
    endloop
  endfacet
  facet normal 0 0 -1
    outer loop
      vertex 17.4379 4.46279 0
      vertex 18.7083 0.843387 0
      vertex 18.1822 0.819672 0
    endloop
  endfacet
  facet normal 0 0 -1
    outer loop
      vertex 17.4379 4.46279 0
      vertex 18.1822 0.819672 0
      vertex 17.9493 0.809171 0
    endloop
  endfacet
  facet normal 0 0 -1
    outer loop
      vertex 18.9806 0.855664 0
      vertex 17.4379 4.46279 0
      vertex 18.3465 4.93983 0
    endloop
  endfacet
  facet normal 0 0 -1
    outer loop
      vertex 16.0195 8.20799 0
      vertex 18.3465 4.93983 0
      vertex 17.4379 4.46279 0
    endloop
  endfacet
  facet normal 0 0 -1
    outer loop
      vertex 18.3465 4.93983 0
      vertex 16.0195 8.20799 0
      vertex 16.8442 8.79023 0
    endloop
  endfacet
  facet normal 0 0 -1
    outer loop
      vertex 13.8082 11.5469 0
      vertex 16.8442 8.79023 0
      vertex 16.0195 8.20799 0
    endloop
  endfacet
  facet normal 0 0 -1
    outer loop
      vertex 16.8442 8.79023 0
      vertex 13.8082 11.5469 0
      vertex 14.5449 12.2247 0
    endloop
  endfacet
  facet normal 0 0 -1
    outer loop
      vertex 13.8082 11.5469 0
      vertex 11.5572 15.0807 0
      vertex 14.5449 12.2247 0
    endloop
  endfacet
  facet normal 0 0 -1
    outer loop
      vertex 10.9133 14.3142 0
      vertex 11.5572 15.0807 0
      vertex 13.8082 11.5469 0
    endloop
  endfacet
  facet normal 0 0 -1
    outer loop
      vertex 10.9133 14.3142 0
      vertex 8.02273 17.223 0
      vertex 11.5572 15.0807 0
    endloop
  endfacet
  facet normal 0 0 -1
    outer loop
      vertex 7.47822 16.3729 0
      vertex 8.02273 17.223 0
      vertex 10.9133 14.3142 0
    endloop
  endfacet
  facet normal 0 0 -1
    outer loop
      vertex 7.47822 16.3729 0
      vertex 4.10857 18.5504 0
      vertex 8.02273 17.223 0
    endloop
  endfacet
  facet normal 0 0 -1
    outer loop
      vertex 3.67295 17.6212 0
      vertex 4.10857 18.5504 0
      vertex 7.47822 16.3729 0
    endloop
  endfacet
  facet normal 0 0 -1
    outer loop
      vertex 3.67295 17.6212 0
      vertex 4.21883e-15 18.9999 0
      vertex 4.10857 18.5504 0
    endloop
  endfacet
  facet normal 0 -0 -1
    outer loop
      vertex 4.21883e-15 18.9999 0
      vertex 3.67295 17.6212 0
      vertex 3.98959e-15 17.9675 0
    endloop
  endfacet
  facet normal 0 0 -1
    outer loop
      vertex 11.5533 0.520833 0
      vertex 11.6252 2.97519 0
      vertex 11.9662 0.539446 0
    endloop
  endfacet
  facet normal 0 0 -1
    outer loop
      vertex 11.1249 0.50152 0
      vertex 11.6252 2.97519 0
      vertex 11.5533 0.520833 0
    endloop
  endfacet
  facet normal 0 0 -1
    outer loop
      vertex 10.6216 2.85989 0
      vertex 11.1249 0.50152 0
      vertex 10.9887 0.495382 0
    endloop
  endfacet
  facet normal 0 0 -1
    outer loop
      vertex 11.1249 0.50152 0
      vertex 10.6216 2.85989 0
      vertex 11.6252 2.97519 0
    endloop
  endfacet
  facet normal -0 0 -1
    outer loop
      vertex 11.6252 2.97519 0
      vertex 10.6216 2.85989 0
      vertex 10.6797 5.47198 0
    endloop
  endfacet
  facet normal 0 0 -1
    outer loop
      vertex 9.75188 5.08906 0
      vertex 10.6797 5.47198 0
      vertex 10.6216 2.85989 0
    endloop
  endfacet
  facet normal 0 0 -1
    outer loop
      vertex 9.75188 5.08906 0
      vertex 9.20543 7.6979 0
      vertex 10.6797 5.47198 0
    endloop
  endfacet
  facet normal 0 0 -1
    outer loop
      vertex 8.42068 7.07742 0
      vertex 9.20543 7.6979 0
      vertex 9.75188 5.08906 0
    endloop
  endfacet
  facet normal 0 0 -1
    outer loop
      vertex 8.42068 7.07742 0
      vertex 7.27552 9.54277 0
      vertex 9.20543 7.6979 0
    endloop
  endfacet
  facet normal 0 0 -1
    outer loop
      vertex 6.69101 8.73087 0
      vertex 7.27552 9.54277 0
      vertex 8.42068 7.07742 0
    endloop
  endfacet
  facet normal 0 0 -1
    outer loop
      vertex 4.64472 9.97118 0
      vertex 7.27552 9.54277 0
      vertex 6.69101 8.73087 0
    endloop
  endfacet
  facet normal 0 0 -1
    outer loop
      vertex 7.27552 9.54277 0
      vertex 4.64472 9.97118 0
      vertex 4.98547 10.9153 0
    endloop
  endfacet
  facet normal 0 0 -1
    outer loop
      vertex 2.37864 10.7396 0
      vertex 4.98547 10.9153 0
      vertex 4.64472 9.97118 0
    endloop
  endfacet
  facet normal -0 0 -1
    outer loop
      vertex 4.98547 10.9153 0
      vertex 2.37864 10.7396 0
      vertex 2.44862 11.7474 0
    endloop
  endfacet
  facet normal 0 0 -1
    outer loop
      vertex 2.44247e-15 10.9999 0
      vertex 2.44862 11.7474 0
      vertex 2.37864 10.7396 0
    endloop
  endfacet
  facet normal -0 0 -1
    outer loop
      vertex 2.44862 11.7474 0
      vertex 2.44247e-15 10.9999 0
      vertex 2.65972e-15 11.9783 0
    endloop
  endfacet
endsolid OpenSCAD_Model
