solid OpenSCAD_Model
  facet normal -1 2.22057e-16 -7.42027e-21
    outer loop
      vertex 8.86364e-15 39.9183 0.108418
      vertex 9.05844e-15 40.7956 1.55291
      vertex 9.10384e-15 41 0
    endloop
  endfacet
  facet normal -1 2.22063e-16 5.07322e-20
    outer loop
      vertex 8.86364e-15 39.9183 0.108418
      vertex 9.10384e-15 41 0
      vertex 8.86681e-15 39.9326 0
    endloop
  endfacet
  facet normal -1 2.22051e-16 -3.74629e-21
    outer loop
      vertex 9.05844e-15 40.7956 1.55291
      vertex 8.86364e-15 39.9183 0.108418
      vertex 8.82904e-15 39.7625 1.2941
    endloop
  endfacet
  facet normal -1 2.22054e-16 -1.50346e-20
    outer loop
      vertex 8.81969e-15 39.7204 1.3959
      vertex 9.05844e-15 40.7956 1.55291
      vertex 8.82904e-15 39.7625 1.2941
    endloop
  endfacet
  facet normal -1 2.22051e-16 5.07993e-21
    outer loop
      vertex 9.05844e-15 40.7956 1.55291
      vertex 8.81969e-15 39.7204 1.3959
      vertex 8.92535e-15 40.1962 3
    endloop
  endfacet
  facet normal -1 2.22035e-16 9.94623e-21
    outer loop
      vertex 8.71832e-15 39.2638 2.5
      vertex 8.92535e-15 40.1962 3
      vertex 8.81969e-15 39.7204 1.3959
    endloop
  endfacet
  facet normal -1 2.22103e-16 -1.16842e-19
    outer loop
      vertex 8.70334e-15 39.1964 2.58805
      vertex 8.92535e-15 40.1962 3
      vertex 8.71832e-15 39.2638 2.5
    endloop
  endfacet
  facet normal -1 2.22055e-16 -6.84326e-22
    outer loop
      vertex 8.92535e-15 40.1962 3
      vertex 8.70334e-15 39.1964 2.58805
      vertex 8.71362e-15 39.2427 4.24264
    endloop
  endfacet
  facet normal -1 2.22044e-16 -3.88827e-22
    outer loop
      vertex 8.54218e-15 38.4706 3.53553
      vertex 8.71362e-15 39.2427 4.24264
      vertex 8.70334e-15 39.1964 2.58805
    endloop
  endfacet
  facet normal -1 2.21977e-16 7.29615e-20
    outer loop
      vertex 8.52254e-15 38.3821 3.60352
      vertex 8.71362e-15 39.2427 4.24264
      vertex 8.54218e-15 38.4706 3.53553
    endloop
  endfacet
  facet normal -1 2.22032e-16 -1.01311e-21
    outer loop
      vertex 8.52254e-15 38.3821 3.60352
      vertex 8.4377e-15 38 5.19615
      vertex 8.71362e-15 39.2427 4.24264
    endloop
  endfacet
  facet normal -1 2.22061e-16 5.99328e-21
    outer loop
      vertex 8.31263e-15 37.4368 4.33013
      vertex 8.4377e-15 38 5.19615
      vertex 8.52254e-15 38.3821 3.60352
    endloop
  endfacet
  facet normal -1 2.22038e-16 2.11645e-20
    outer loop
      vertex 8.28965e-15 37.3333 4.37308
      vertex 8.4377e-15 38 5.19615
      vertex 8.31263e-15 37.4368 4.33013
    endloop
  endfacet
  facet normal -1 2.22049e-16 1.20143e-20
    outer loop
      vertex 8.28965e-15 37.3333 4.37308
      vertex 8.11638e-15 36.5529 5.79555
      vertex 8.4377e-15 38 5.19615
    endloop
  endfacet
  facet normal -1 2.2204e-16 7.29863e-21
    outer loop
      vertex 8.04532e-15 36.2329 4.82963
      vertex 8.11638e-15 36.5529 5.79555
      vertex 8.28965e-15 37.3333 4.37308
    endloop
  endfacet
  facet normal -1 2.21977e-16 2.83798e-20
    outer loop
      vertex 8.02057e-15 36.1214 4.84433
      vertex 8.11638e-15 36.5529 5.79555
      vertex 8.04532e-15 36.2329 4.82963
    endloop
  endfacet
  facet normal -1 2.22042e-16 -1.3837e-21
    outer loop
      vertex 8.02057e-15 36.1214 4.84433
      vertex 7.77157e-15 35 6
      vertex 8.11638e-15 36.5529 5.79555
    endloop
  endfacet
  facet normal -1 2.22053e-16 8.87201e-21
    outer loop
      vertex 7.75846e-15 34.941 5
      vertex 7.77157e-15 35 6
      vertex 8.02057e-15 36.1214 4.84433
    endloop
  endfacet
  facet normal -1 2.22042e-16 9.53658e-21
    outer loop
      vertex 7.73368e-15 34.8294 4.98528
      vertex 7.77157e-15 35 6
      vertex 7.75846e-15 34.941 5
    endloop
  endfacet
  facet normal -1 2.22045e-16 3.16257e-21
    outer loop
      vertex 7.42675e-15 33.4471 5.79555
      vertex 7.73368e-15 34.8294 4.98528
      vertex 7.4716e-15 33.6491 4.82963
    endloop
  endfacet
  facet normal -1 2.2204e-16 2.06298e-21
    outer loop
      vertex 7.42675e-15 33.4471 5.79555
      vertex 7.4716e-15 33.6491 4.82963
      vertex 7.44853e-15 33.5452 4.78653
    endloop
  endfacet
  facet normal -1 2.22048e-16 8.4945e-21
    outer loop
      vertex 7.73368e-15 34.8294 4.98528
      vertex 7.42675e-15 33.4471 5.79555
      vertex 7.77157e-15 35 6
    endloop
  endfacet
  facet normal -1 2.22044e-16 4.41249e-21
    outer loop
      vertex 7.10543e-15 32 5.19615
      vertex 7.44853e-15 33.5452 4.78653
      vertex 7.20428e-15 32.4452 4.33013
    endloop
  endfacet
  facet normal -1 2.21963e-16 -3.6955e-20
    outer loop
      vertex 7.10543e-15 32 5.19615
      vertex 7.20428e-15 32.4452 4.33013
      vertex 7.18455e-15 32.3563 4.26182
    endloop
  endfacet
  facet normal -1 2.22043e-16 2.4056e-21
    outer loop
      vertex 7.44853e-15 33.5452 4.78653
      vertex 7.10543e-15 32 5.19615
      vertex 7.42675e-15 33.4471 5.79555
    endloop
  endfacet
  facet normal -1 2.22053e-16 -1.05735e-20
    outer loop
      vertex 6.82951e-15 30.7574 4.24264
      vertex 7.18455e-15 32.3563 4.26182
      vertex 6.97474e-15 31.4114 3.53553
    endloop
  endfacet
  facet normal -1 2.22173e-16 1.00535e-19
    outer loop
      vertex 6.82951e-15 30.7574 4.24264
      vertex 6.97474e-15 31.4114 3.53553
      vertex 6.95969e-15 31.3437 3.44707
    endloop
  endfacet
  facet normal -1 2.22053e-16 -2.80929e-21
    outer loop
      vertex 7.18455e-15 32.3563 4.26182
      vertex 6.82951e-15 30.7574 4.24264
      vertex 7.10543e-15 32 5.19615
    endloop
  endfacet
  facet normal -1 2.22042e-16 -1.82372e-21
    outer loop
      vertex 6.61779e-15 29.8039 3
      vertex 6.95969e-15 31.3437 3.44707
      vertex 6.7986e-15 30.6182 2.5
    endloop
  endfacet
  facet normal -1 2.21984e-16 -9.70779e-20
    outer loop
      vertex 6.61779e-15 29.8039 3
      vertex 6.7986e-15 30.6182 2.5
      vertex 6.78922e-15 30.5759 2.39784
    endloop
  endfacet
  facet normal -1 2.22046e-16 7.50149e-21
    outer loop
      vertex 6.4847e-15 29.2045 1.55291
      vertex 6.78922e-15 30.5759 2.39784
      vertex 6.68787e-15 30.1195 1.2941
    endloop
  endfacet
  facet normal -1 2.22046e-16 4.47958e-21
    outer loop
      vertex 6.4393e-15 29 0
      vertex 6.68471e-15 30.1052 1.18554
      vertex 6.65011e-15 29.9494 0
    endloop
  endfacet
  facet normal -1 2.22041e-16 3.23172e-21
    outer loop
      vertex 6.95969e-15 31.3437 3.44707
      vertex 6.61779e-15 29.8039 3
      vertex 6.82951e-15 30.7574 4.24264
    endloop
  endfacet
  facet normal -1 2.22058e-16 -6.96483e-21
    outer loop
      vertex 6.4847e-15 29.2045 1.55291
      vertex 6.68471e-15 30.1052 1.18554
      vertex 6.4393e-15 29 0
    endloop
  endfacet
  facet normal -1 2.22054e-16 -6.53682e-21
    outer loop
      vertex 6.78922e-15 30.5759 2.39784
      vertex 6.4847e-15 29.2045 1.55291
      vertex 6.61779e-15 29.8039 3
    endloop
  endfacet
  facet normal -1 2.22005e-16 -1.35209e-19
    outer loop
      vertex 6.68471e-15 30.1052 1.18554
      vertex 6.4847e-15 29.2045 1.55291
      vertex 6.68787e-15 30.1195 1.2941
    endloop
  endfacet
  facet normal -0.0768354 -0.997044 -2.0462e-06
    outer loop
      vertex 40.8789 -3.14991 0
      vertex 40.675 -3.1342 1.55291
      vertex 40.0774 -3.08815 3
    endloop
  endfacet
  facet normal -0.0768375 -0.997044 -2.50884e-05
    outer loop
      vertex 39.1267 -3.01489 4.24264
      vertex 37.8877 -2.91943 5.19615
      vertex 34.8966 -2.68894 6
    endloop
  endfacet
  facet normal -0.0768331 -0.997044 -1.42778e-06
    outer loop
      vertex 40.8789 -3.14991 0
      vertex 40.0774 -3.08815 3
      vertex 39.1267 -3.01489 4.24264
    endloop
  endfacet
  facet normal -0.076831 -0.997044 -7.46519e-07
    outer loop
      vertex 37.8877 -2.91943 5.19615
      vertex 36.4449 -2.80825 5.79555
      vertex 34.8966 -2.68894 6
    endloop
  endfacet
  facet normal -0.0768216 -0.997045 -2.19766e-05
    outer loop
      vertex 34.8966 -2.68894 6
      vertex 33.3483 -2.56964 5.79555
      vertex 31.9055 -2.45846 5.19615
    endloop
  endfacet
  facet normal -0.0768324 -0.997044 1.84328e-05
    outer loop
      vertex 34.8966 -2.68894 6
      vertex 31.9055 -2.45846 5.19615
      vertex 30.6665 -2.363 4.24264
    endloop
  endfacet
  facet normal -0.0768296 -0.997044 8.65454e-06
    outer loop
      vertex 34.8966 -2.68894 6
      vertex 33.6535 -2.59316 4.84336
      vertex 34.8377 -2.68441 5
    endloop
  endfacet
  facet normal -0.0768725 -0.997041 5.50124e-05
    outer loop
      vertex 34.8966 -2.68894 6
      vertex 33.5496 -2.58515 4.82963
      vertex 33.6535 -2.59316 4.84336
    endloop
  endfacet
  facet normal -0.0768251 -0.997045 8.00176e-08
    outer loop
      vertex 34.8966 -2.68894 6
      vertex 32.4462 -2.50013 4.37044
      vertex 33.5496 -2.58515 4.82963
    endloop
  endfacet
  facet normal -0.0768245 -0.997045 -6.95666e-07
    outer loop
      vertex 30.6665 -2.363 4.24264
      vertex 32.4462 -2.50013 4.37044
      vertex 34.8966 -2.68894 6
    endloop
  endfacet
  facet normal -0.0768168 -0.997045 -0.000108547
    outer loop
      vertex 32.4462 -2.50013 4.37044
      vertex 30.6665 -2.363 4.24264
      vertex 32.3493 -2.49266 4.33013
    endloop
  endfacet
  facet normal -0.0768257 -0.997045 6.34545e-05
    outer loop
      vertex 32.3493 -2.49266 4.33013
      vertex 30.6665 -2.363 4.24264
      vertex 32.2358 -2.48392 4.24264
    endloop
  endfacet
  facet normal -0.076791 -0.997047 6.36414e-06
    outer loop
      vertex 34.9417 -2.69242 4.98625
      vertex 34.8966 -2.68894 6
      vertex 34.8377 -2.68441 5
    endloop
  endfacet
  facet normal -0.0768259 -0.997045 4.79924e-06
    outer loop
      vertex 36.1258 -2.78366 4.82963
      vertex 34.8966 -2.68894 6
      vertex 34.9417 -2.69242 4.98625
    endloop
  endfacet
  facet normal -0.0768294 -0.997044 1.18327e-06
    outer loop
      vertex 36.223 -2.79115 4.78918
      vertex 34.8966 -2.68894 6
      vertex 36.1258 -2.78366 4.82963
    endloop
  endfacet
  facet normal -0.0768256 -0.997045 5.28312e-06
    outer loop
      vertex 37.3261 -2.87615 4.33013
      vertex 34.8966 -2.68894 6
      vertex 36.223 -2.79115 4.78918
    endloop
  endfacet
  facet normal -0.0768217 -0.997045 -2.89143e-05
    outer loop
      vertex 39.1267 -3.01489 4.24264
      vertex 37.41 -2.88262 4.26545
      vertex 37.4396 -2.8849 4.24264
    endloop
  endfacet
  facet normal -0.076824 -0.997045 7.67031e-06
    outer loop
      vertex 37.3261 -2.87615 4.33013
      vertex 39.1267 -3.01489 4.24264
      vertex 34.8966 -2.68894 6
    endloop
  endfacet
  facet normal -0.0768201 -0.997045 8.76781e-05
    outer loop
      vertex 37.41 -2.88262 4.26545
      vertex 39.1267 -3.01489 4.24264
      vertex 37.3261 -2.87615 4.33013
    endloop
  endfacet
  facet normal -0.0768331 -0.997044 1.42778e-06
    outer loop
      vertex 30.6665 -2.363 4.24264
      vertex 29.7158 -2.28974 3
      vertex 28.9143 -2.22798 0
    endloop
  endfacet
  facet normal -0.0768248 -0.997045 -2.02137e-06
    outer loop
      vertex 28.9143 -2.22798 0
      vertex 30.3957 -2.34213 2.17999
      vertex 30.6665 -2.363 4.24264
    endloop
  endfacet
  facet normal -0.0768235 -0.997045 -2.91589e-06
    outer loop
      vertex 30.3957 -2.34213 2.17999
      vertex 28.9143 -2.22798 0
      vertex 30.0714 -2.31714 1.39323
    endloop
  endfacet
  facet normal -0.0768637 -0.997042 3.07299e-05
    outer loop
      vertex 30.0714 -2.31714 1.39323
      vertex 28.9143 -2.22798 0
      vertex 30.0305 -2.31399 1.2941
    endloop
  endfacet
  facet normal -0.0768309 -0.997044 2.20032e-06
    outer loop
      vertex 28.9143 -2.22798 0
      vertex 29.875 -2.30201 0.107436
      vertex 30.0305 -2.31399 1.2941
    endloop
  endfacet
  facet normal -0.076827 -0.997044 -3.2745e-05
    outer loop
      vertex 29.875 -2.30201 0.107436
      vertex 28.9143 -2.22798 0
      vertex 29.8609 -2.30092 0
    endloop
  endfacet
  facet normal -0.0768354 -0.997044 2.0462e-06
    outer loop
      vertex 29.7158 -2.28974 3
      vertex 29.1182 -2.24369 1.55291
      vertex 28.9143 -2.22798 0
    endloop
  endfacet
  facet normal -0.0768208 -0.997045 1.44575e-06
    outer loop
      vertex 30.6665 -2.363 4.24264
      vertex 30.5921 -2.35727 2.58441
      vertex 30.8413 -2.37647 2.91067
    endloop
  endfacet
  facet normal -0.0769549 -0.997035 7.49934e-06
    outer loop
      vertex 30.6665 -2.363 4.24264
      vertex 30.5277 -2.3523 2.5
      vertex 30.5921 -2.35727 2.58441
    endloop
  endfacet
  facet normal -0.0768074 -0.997046 -4.31884e-06
    outer loop
      vertex 30.5277 -2.3523 2.5
      vertex 30.6665 -2.363 4.24264
      vertex 30.3957 -2.34213 2.17999
    endloop
  endfacet
  facet normal -0.0768217 -0.997045 -1.04221e-05
    outer loop
      vertex 38.3569 -2.95557 3.53553
      vertex 39.1267 -3.01489 4.24264
      vertex 37.4396 -2.8849 4.24264
    endloop
  endfacet
  facet normal -0.0769214 -0.997037 9.87369e-05
    outer loop
      vertex 38.4216 -2.96057 3.45072
      vertex 39.1267 -3.01489 4.24264
      vertex 38.3569 -2.95557 3.53553
    endloop
  endfacet
  facet normal -0.0767085 -0.997054 -9.1947e-05
    outer loop
      vertex 39.1267 -3.01489 4.24264
      vertex 38.4216 -2.96057 3.45072
      vertex 38.4712 -2.96438 3.38584
    endloop
  endfacet
  facet normal -0.0768257 -0.997045 -8.18472e-07
    outer loop
      vertex 30.6665 -2.363 4.24264
      vertex 31.4021 -2.41968 3.5999
      vertex 32.2358 -2.48392 4.24264
    endloop
  endfacet
  facet normal -0.0768635 -0.997042 -4.42562e-05
    outer loop
      vertex 30.6665 -2.363 4.24264
      vertex 31.3186 -2.41324 3.53553
      vertex 31.4021 -2.41968 3.5999
    endloop
  endfacet
  facet normal -0.0768131 -0.997046 2.45589e-06
    outer loop
      vertex 31.3186 -2.41324 3.53553
      vertex 30.6665 -2.363 4.24264
      vertex 30.8413 -2.37647 2.91067
    endloop
  endfacet
  facet normal -0.0768442 -0.997043 1.25458e-05
    outer loop
      vertex 38.7872 -2.98874 2.97203
      vertex 39.1267 -3.01489 4.24264
      vertex 38.4712 -2.96438 3.38584
    endloop
  endfacet
  facet normal -0.0767976 -0.997047 0
    outer loop
      vertex 39.1267 -3.01489 2.52759
      vertex 39.1267 -3.01489 4.24264
      vertex 38.7872 -2.98874 2.97203
    endloop
  endfacet
  facet normal -0.0770217 -0.997029 0
    outer loop
      vertex 39.1478 -3.01652 2.5
      vertex 39.1267 -3.01489 4.24264
      vertex 39.1267 -3.01489 2.52759
    endloop
  endfacet
  facet normal -0.0768399 -0.997043 2.21408e-06
    outer loop
      vertex 39.1888 -3.01968 2.40052
      vertex 39.1267 -3.01489 4.24264
      vertex 39.1478 -3.01652 2.5
    endloop
  endfacet
  facet normal -0.076834 -0.997044 -5.03255e-06
    outer loop
      vertex 40.8789 -3.14991 0
      vertex 39.1888 -3.01968 2.40052
      vertex 39.645 -3.05483 1.2941
    endloop
  endfacet
  facet normal -0.0768229 -0.997045 2.79037e-06
    outer loop
      vertex 39.1888 -3.01968 2.40052
      vertex 40.8789 -3.14991 0
      vertex 39.1267 -3.01489 4.24264
    endloop
  endfacet
  facet normal -0.0768152 -0.997045 1.29778e-05
    outer loop
      vertex 39.659 -3.05591 1.18652
      vertex 40.8789 -3.14991 0
      vertex 39.645 -3.05483 1.2941
    endloop
  endfacet
  facet normal -0.0768297 -0.997044 -2.05104e-06
    outer loop
      vertex 40.8789 -3.14991 0
      vertex 39.659 -3.05591 1.18652
      vertex 39.8145 -3.06789 0
    endloop
  endfacet
  facet normal 0.101926 0.986285 0.129819
    outer loop
      vertex 8.34308 39.9334 1.55291
      vertex 9.10384e-15 41 0
      vertex 9.05844e-15 40.7956 1.55291
    endloop
  endfacet
  facet normal 0.101923 0.986284 0.129832
    outer loop
      vertex 8.34308 39.9334 1.55291
      vertex 8.38489 40.1335 0
      vertex 9.10384e-15 41 0
    endloop
  endfacet
  facet normal 0.0950521 0.919697 0.380948
    outer loop
      vertex 8.22049 39.3466 3
      vertex 9.05844e-15 40.7956 1.55291
      vertex 8.92535e-15 40.1962 3
    endloop
  endfacet
  facet normal 0.0950429 0.919683 0.380986
    outer loop
      vertex 8.22049 39.3466 3
      vertex 8.34308 39.9334 1.55291
      vertex 9.05844e-15 40.7956 1.55291
    endloop
  endfacet
  facet normal 0.0817158 0.790704 0.606721
    outer loop
      vertex 8.02549 38.4133 4.24264
      vertex 8.92535e-15 40.1962 3
      vertex 8.71362e-15 39.2427 4.24264
    endloop
  endfacet
  facet normal 0.0817218 0.790717 0.606702
    outer loop
      vertex 8.02549 38.4133 4.24264
      vertex 8.22049 39.3466 3
      vertex 8.92535e-15 40.1962 3
    endloop
  endfacet
  facet normal 0.0627839 0.607541 0.791803
    outer loop
      vertex 7.77136 37.1969 5.19615
      vertex 8.71362e-15 39.2427 4.24264
      vertex 8.4377e-15 38 5.19615
    endloop
  endfacet
  facet normal 0.062788 0.607553 0.791794
    outer loop
      vertex 7.77136 37.1969 5.19615
      vertex 8.02549 38.4133 4.24264
      vertex 8.71362e-15 39.2427 4.24264
    endloop
  endfacet
  facet normal 0.0395146 0.38238 0.92316
    outer loop
      vertex 7.47542 35.7804 5.79555
      vertex 8.4377e-15 38 5.19615
      vertex 8.11638e-15 36.5529 5.79555
    endloop
  endfacet
  facet normal 0.0395159 0.382384 0.923158
    outer loop
      vertex 7.47542 35.7804 5.79555
      vertex 7.77136 37.1969 5.19615
      vertex 8.4377e-15 38 5.19615
    endloop
  endfacet
  facet normal 0.013488 0.130519 0.991354
    outer loop
      vertex 7.15783 34.2603 6
      vertex 8.11638e-15 36.5529 5.79555
      vertex 7.77157e-15 35 6
    endloop
  endfacet
  facet normal 0.0134875 0.130517 0.991354
    outer loop
      vertex 7.15783 34.2603 6
      vertex 7.47542 35.7804 5.79555
      vertex 8.11638e-15 36.5529 5.79555
    endloop
  endfacet
  facet normal -0.0134883 -0.130519 0.991354
    outer loop
      vertex 6.84025 32.7402 5.79555
      vertex 7.77157e-15 35 6
      vertex 7.42675e-15 33.4471 5.79555
    endloop
  endfacet
  facet normal -0.0134878 -0.130517 0.991354
    outer loop
      vertex 6.84025 32.7402 5.79555
      vertex 7.15783 34.2603 6
      vertex 7.77157e-15 35 6
    endloop
  endfacet
  facet normal -0.0395158 -0.38238 0.92316
    outer loop
      vertex 6.5443 31.3237 5.19615
      vertex 7.42675e-15 33.4471 5.79555
      vertex 7.10543e-15 32 5.19615
    endloop
  endfacet
  facet normal -0.0395171 -0.382383 0.923158
    outer loop
      vertex 6.5443 31.3237 5.19615
      vertex 6.84025 32.7402 5.79555
      vertex 7.42675e-15 33.4471 5.79555
    endloop
  endfacet
  facet normal -0.0627936 -0.607572 0.791779
    outer loop
      vertex 6.29017 30.1073 4.24264
      vertex 7.10543e-15 32 5.19615
      vertex 6.82951e-15 30.7574 4.24264
    endloop
  endfacet
  facet normal -0.0627856 -0.607553 0.791794
    outer loop
      vertex 6.29017 30.1073 4.24264
      vertex 6.5443 31.3237 5.19615
      vertex 7.10543e-15 32 5.19615
    endloop
  endfacet
  facet normal -0.0817146 -0.790704 0.606721
    outer loop
      vertex 6.09517 29.174 3
      vertex 6.82951e-15 30.7574 4.24264
      vertex 6.61779e-15 29.8039 3
    endloop
  endfacet
  facet normal -0.081722 -0.790717 0.606702
    outer loop
      vertex 6.09517 29.174 3
      vertex 6.29017 30.1073 4.24264
      vertex 6.82951e-15 30.7574 4.24264
    endloop
  endfacet
  facet normal -0.0950558 -0.919697 0.380948
    outer loop
      vertex 5.97259 28.5872 1.55291
      vertex 6.61779e-15 29.8039 3
      vertex 6.4847e-15 29.2045 1.55291
    endloop
  endfacet
  facet normal -0.0950438 -0.919683 0.380986
    outer loop
      vertex 5.97259 28.5872 1.55291
      vertex 6.09517 29.174 3
      vertex 6.61779e-15 29.8039 3
    endloop
  endfacet
  facet normal -0.101924 -0.986277 0.129881
    outer loop
      vertex 5.93078 28.3871 0
      vertex 6.4847e-15 29.2045 1.55291
      vertex 6.4393e-15 29 0
    endloop
  endfacet
  facet normal -0.101938 -0.986282 0.129832
    outer loop
      vertex 5.93078 28.3871 0
      vertex 5.97259 28.5872 1.55291
      vertex 6.4847e-15 29.2045 1.55291
    endloop
  endfacet
  facet normal 0.301485 0.94459 0.129832
    outer loop
      vertex 16.3335 37.3831 1.55291
      vertex 8.38489 40.1335 0
      vertex 8.34308 39.9334 1.55291
    endloop
  endfacet
  facet normal 0.301476 0.944588 0.12987
    outer loop
      vertex 16.3335 37.3831 1.55291
      vertex 16.4153 37.5705 0
      vertex 8.38489 40.1335 0
    endloop
  endfacet
  facet normal 0.281114 0.880809 0.380986
    outer loop
      vertex 16.0935 36.8339 3
      vertex 8.34308 39.9334 1.55291
      vertex 8.22049 39.3466 3
    endloop
  endfacet
  facet normal 0.281135 0.880831 0.38092
    outer loop
      vertex 16.0935 36.8339 3
      vertex 16.3335 37.3831 1.55291
      vertex 8.34308 39.9334 1.55291
    endloop
  endfacet
  facet normal 0.241704 0.757292 0.606703
    outer loop
      vertex 15.7117 35.9601 4.24264
      vertex 8.22049 39.3466 3
      vertex 8.02549 38.4133 4.24264
    endloop
  endfacet
  facet normal 0.241683 0.757262 0.606749
    outer loop
      vertex 15.7117 35.9601 4.24264
      vertex 16.0935 36.8339 3
      vertex 8.22049 39.3466 3
    endloop
  endfacet
  facet normal 0.185713 0.581871 0.791793
    outer loop
      vertex 15.2142 34.8214 5.19615
      vertex 8.02549 38.4133 4.24264
      vertex 7.77136 37.1969 5.19615
    endloop
  endfacet
  facet normal 0.185717 0.581877 0.791788
    outer loop
      vertex 15.2142 34.8214 5.19615
      vertex 15.7117 35.9601 4.24264
      vertex 8.02549 38.4133 4.24264
    endloop
  endfacet
  facet normal 0.116883 0.36622 0.923158
    outer loop
      vertex 14.6348 33.4954 5.79555
      vertex 7.77136 37.1969 5.19615
      vertex 7.47542 35.7804 5.79555
    endloop
  endfacet
  facet normal 0.116887 0.366226 0.923156
    outer loop
      vertex 14.6348 33.4954 5.79555
      vertex 15.2142 34.8214 5.19615
      vertex 7.77136 37.1969 5.19615
    endloop
  endfacet
  facet normal 0.0398962 0.125 0.991354
    outer loop
      vertex 14.0131 32.0723 6
      vertex 7.47542 35.7804 5.79555
      vertex 7.15783 34.2603 6
    endloop
  endfacet
  facet normal 0.0398937 0.124995 0.991355
    outer loop
      vertex 14.0131 32.0723 6
      vertex 14.6348 33.4954 5.79555
      vertex 7.47542 35.7804 5.79555
    endloop
  endfacet
  facet normal -0.0398956 -0.125 0.991354
    outer loop
      vertex 13.3914 30.6493 5.79555
      vertex 7.15783 34.2603 6
      vertex 6.84025 32.7402 5.79555
    endloop
  endfacet
  facet normal -0.0398971 -0.125002 0.991354
    outer loop
      vertex 13.3914 30.6493 5.79555
      vertex 14.0131 32.0723 6
      vertex 7.15783 34.2603 6
    endloop
  endfacet
  facet normal -0.116883 -0.366219 0.923159
    outer loop
      vertex 12.812 29.3233 5.19615
      vertex 6.84025 32.7402 5.79555
      vertex 6.5443 31.3237 5.19615
    endloop
  endfacet
  facet normal -0.116887 -0.366226 0.923156
    outer loop
      vertex 12.812 29.3233 5.19615
      vertex 13.3914 30.6493 5.79555
      vertex 6.84025 32.7402 5.79555
    endloop
  endfacet
  facet normal -0.185708 -0.581872 0.791794
    outer loop
      vertex 12.3145 28.1846 4.24264
      vertex 6.5443 31.3237 5.19615
      vertex 6.29017 30.1073 4.24264
    endloop
  endfacet
  facet normal -0.185713 -0.581879 0.791788
    outer loop
      vertex 12.3145 28.1846 4.24264
      vertex 12.812 29.3233 5.19615
      vertex 6.5443 31.3237 5.19615
    endloop
  endfacet
  facet normal -0.241709 -0.757291 0.606702
    outer loop
      vertex 11.9327 27.3108 3
      vertex 6.29017 30.1073 4.24264
      vertex 6.09517 29.174 3
    endloop
  endfacet
  facet normal -0.241684 -0.757261 0.606749
    outer loop
      vertex 11.9327 27.3108 3
      vertex 12.3145 28.1846 4.24264
      vertex 6.29017 30.1073 4.24264
    endloop
  endfacet
  facet normal -0.281115 -0.88081 0.380984
    outer loop
      vertex 11.6927 26.7616 1.55291
      vertex 6.09517 29.174 3
      vertex 5.97259 28.5872 1.55291
    endloop
  endfacet
  facet normal -0.28114 -0.88083 0.38092
    outer loop
      vertex 11.6927 26.7616 1.55291
      vertex 11.9327 27.3108 3
      vertex 6.09517 29.174 3
    endloop
  endfacet
  facet normal -0.301481 -0.944591 0.129832
    outer loop
      vertex 11.6109 26.5742 0
      vertex 5.97259 28.5872 1.55291
      vertex 5.93078 28.3871 0
    endloop
  endfacet
  facet normal -0.30147 -0.94459 0.12987
    outer loop
      vertex 11.6109 26.5742 0
      vertex 11.6927 26.7616 1.55291
      vertex 5.97259 28.5872 1.55291
    endloop
  endfacet
  facet normal 0.488277 0.862973 0.129861
    outer loop
      vertex 23.6335 33.2527 1.55291
      vertex 16.4153 37.5705 0
      vertex 16.3335 37.3831 1.55291
    endloop
  endfacet
  facet normal 0.488288 0.862974 0.129811
    outer loop
      vertex 23.6335 33.2527 1.55291
      vertex 23.7519 33.4193 0
      vertex 16.4153 37.5705 0
    endloop
  endfacet
  facet normal 0.455329 0.804719 0.380924
    outer loop
      vertex 23.2862 32.7641 3
      vertex 16.3335 37.3831 1.55291
      vertex 16.0935 36.8339 3
    endloop
  endfacet
  facet normal 0.455309 0.804705 0.380977
    outer loop
      vertex 23.2862 32.7641 3
      vertex 23.6335 33.2527 1.55291
      vertex 16.3335 37.3831 1.55291
    endloop
  endfacet
  facet normal 0.391445 0.691827 0.60675
    outer loop
      vertex 22.7338 31.9869 4.24264
      vertex 16.0935 36.8339 3
      vertex 15.7117 35.9601 4.24264
    endloop
  endfacet
  facet normal 0.39146 0.691841 0.606725
    outer loop
      vertex 22.7338 31.9869 4.24264
      vertex 23.2862 32.7641 3
      vertex 16.0935 36.8339 3
    endloop
  endfacet
  facet normal 0.300786 0.531602 0.791787
    outer loop
      vertex 22.014 30.974 5.19615
      vertex 15.7117 35.9601 4.24264
      vertex 15.2142 34.8214 5.19615
    endloop
  endfacet
  facet normal 0.30079 0.531606 0.791783
    outer loop
      vertex 22.014 30.974 5.19615
      vertex 22.7338 31.9869 4.24264
      vertex 15.7117 35.9601 4.24264
    endloop
  endfacet
  facet normal 0.189311 0.33458 0.923156
    outer loop
      vertex 21.1756 29.7945 5.79555
      vertex 15.2142 34.8214 5.19615
      vertex 14.6348 33.4954 5.79555
    endloop
  endfacet
  facet normal 0.189305 0.334573 0.92316
    outer loop
      vertex 21.1756 29.7945 5.79555
      vertex 22.014 30.974 5.19615
      vertex 15.2142 34.8214 5.19615
    endloop
  endfacet
  facet normal 0.0646131 0.114196 0.991355
    outer loop
      vertex 20.276 28.5287 6
      vertex 14.6348 33.4954 5.79555
      vertex 14.0131 32.0723 6
    endloop
  endfacet
  facet normal 0.0646161 0.1142 0.991354
    outer loop
      vertex 20.276 28.5287 6
      vertex 21.1756 29.7945 5.79555
      vertex 14.6348 33.4954 5.79555
    endloop
  endfacet
  facet normal -0.0646173 -0.114202 0.991354
    outer loop
      vertex 19.3764 27.2629 5.79555
      vertex 14.0131 32.0723 6
      vertex 13.3914 30.6493 5.79555
    endloop
  endfacet
  facet normal -0.0646153 -0.1142 0.991354
    outer loop
      vertex 19.3764 27.2629 5.79555
      vertex 20.276 28.5287 6
      vertex 14.0131 32.0723 6
    endloop
  endfacet
  facet normal -0.18931 -0.334581 0.923156
    outer loop
      vertex 18.5381 26.0834 5.19615
      vertex 13.3914 30.6493 5.79555
      vertex 12.812 29.3233 5.19615
    endloop
  endfacet
  facet normal -0.189311 -0.334582 0.923155
    outer loop
      vertex 18.5381 26.0834 5.19615
      vertex 19.3764 27.2629 5.79555
      vertex 13.3914 30.6493 5.79555
    endloop
  endfacet
  facet normal -0.30079 -0.531601 0.791787
    outer loop
      vertex 17.8182 25.0705 4.24264
      vertex 12.812 29.3233 5.19615
      vertex 12.3145 28.1846 4.24264
    endloop
  endfacet
  facet normal -0.300782 -0.531593 0.791795
    outer loop
      vertex 17.8182 25.0705 4.24264
      vertex 18.5381 26.0834 5.19615
      vertex 12.812 29.3233 5.19615
    endloop
  endfacet
  facet normal -0.391441 -0.691829 0.606751
    outer loop
      vertex 17.2658 24.2933 3
      vertex 12.3145 28.1846 4.24264
      vertex 11.9327 27.3108 3
    endloop
  endfacet
  facet normal -0.391458 -0.691842 0.606725
    outer loop
      vertex 17.2658 24.2933 3
      vertex 17.8182 25.0705 4.24264
      vertex 12.3145 28.1846 4.24264
    endloop
  endfacet
  facet normal -0.455325 -0.804721 0.380924
    outer loop
      vertex 16.9186 23.8047 1.55291
      vertex 11.9327 27.3108 3
      vertex 11.6927 26.7616 1.55291
    endloop
  endfacet
  facet normal -0.455313 -0.804716 0.38095
    outer loop
      vertex 16.9186 23.8047 1.55291
      vertex 17.2658 24.2933 3
      vertex 11.9327 27.3108 3
    endloop
  endfacet
  facet normal -0.488278 -0.862972 0.129861
    outer loop
      vertex 16.8001 23.6381 0
      vertex 11.6927 26.7616 1.55291
      vertex 11.6109 26.5742 0
    endloop
  endfacet
  facet normal -0.488284 -0.862972 0.129842
    outer loop
      vertex 16.8001 23.6381 0
      vertex 16.9186 23.8047 1.55291
      vertex 11.6927 26.7616 1.55291
    endloop
  endfacet
  facet normal 0.654459 0.744871 0.12981
    outer loop
      vertex 29.9344 27.7166 1.55291
      vertex 23.7519 33.4193 0
      vertex 23.6335 33.2527 1.55291
    endloop
  endfacet
  facet normal 0.654443 0.744873 0.129882
    outer loop
      vertex 29.9344 27.7166 1.55291
      vertex 30.0845 27.8555 0
      vertex 23.7519 33.4193 0
    endloop
  endfacet
  facet normal 0.610257 0.694579 0.380981
    outer loop
      vertex 29.4946 27.3094 3
      vertex 23.6335 33.2527 1.55291
      vertex 23.2862 32.7641 3
    endloop
  endfacet
  facet normal 0.610279 0.694588 0.380928
    outer loop
      vertex 29.4946 27.3094 3
      vertex 29.9344 27.7166 1.55291
      vertex 23.6335 33.2527 1.55291
    endloop
  endfacet
  facet normal 0.52467 0.597163 0.606727
    outer loop
      vertex 28.795 26.6615 4.24264
      vertex 23.2862 32.7641 3
      vertex 22.7338 31.9869 4.24264
    endloop
  endfacet
  facet normal 0.524664 0.597159 0.606736
    outer loop
      vertex 28.795 26.6615 4.24264
      vertex 29.4946 27.3094 3
      vertex 23.2862 32.7641 3
    endloop
  endfacet
  facet normal 0.403155 0.458859 0.791779
    outer loop
      vertex 27.8832 25.8173 5.19615
      vertex 22.7338 31.9869 4.24264
      vertex 22.014 30.974 5.19615
    endloop
  endfacet
  facet normal 0.403157 0.45886 0.791778
    outer loop
      vertex 27.8832 25.8173 5.19615
      vertex 28.795 26.6615 4.24264
      vertex 22.7338 31.9869 4.24264
    endloop
  endfacet
  facet normal 0.253728 0.288781 0.923162
    outer loop
      vertex 26.8213 24.8341 5.79555
      vertex 22.014 30.974 5.19615
      vertex 21.1756 29.7945 5.79555
    endloop
  endfacet
  facet normal 0.253718 0.288774 0.923167
    outer loop
      vertex 26.8213 24.8341 5.79555
      vertex 27.8832 25.8173 5.19615
      vertex 22.014 30.974 5.19615
    endloop
  endfacet
  facet normal 0.086605 0.0985721 0.991354
    outer loop
      vertex 25.6819 23.7791 6
      vertex 21.1756 29.7945 5.79555
      vertex 20.276 28.5287 6
    endloop
  endfacet
  facet normal 0.0866107 0.0985763 0.991353
    outer loop
      vertex 25.6819 23.7791 6
      vertex 26.8213 24.8341 5.79555
      vertex 21.1756 29.7945 5.79555
    endloop
  endfacet
  facet normal -0.0866059 -0.0985714 0.991354
    outer loop
      vertex 24.5424 22.724 5.79555
      vertex 20.276 28.5287 6
      vertex 19.3764 27.2629 5.79555
    endloop
  endfacet
  facet normal -0.0866019 -0.0985685 0.991355
    outer loop
      vertex 24.5424 22.724 5.79555
      vertex 25.6819 23.7791 6
      vertex 20.276 28.5287 6
    endloop
  endfacet
  facet normal -0.253736 -0.288794 0.923156
    outer loop
      vertex 23.4806 21.7409 5.19615
      vertex 19.3764 27.2629 5.79555
      vertex 18.5381 26.0834 5.19615
    endloop
  endfacet
  facet normal -0.25374 -0.288797 0.923153
    outer loop
      vertex 23.4806 21.7409 5.19615
      vertex 24.5424 22.724 5.79555
      vertex 19.3764 27.2629 5.79555
    endloop
  endfacet
  facet normal -0.403142 -0.458843 0.791795
    outer loop
      vertex 22.5688 20.8966 4.24264
      vertex 18.5381 26.0834 5.19615
      vertex 17.8182 25.0705 4.24264
    endloop
  endfacet
  facet normal -0.403141 -0.458843 0.791796
    outer loop
      vertex 22.5688 20.8966 4.24264
      vertex 23.4806 21.7409 5.19615
      vertex 18.5381 26.0834 5.19615
    endloop
  endfacet
  facet normal -0.524672 -0.597162 0.606727
    outer loop
      vertex 21.8691 20.2488 3
      vertex 17.8182 25.0705 4.24264
      vertex 17.2658 24.2933 3
    endloop
  endfacet
  facet normal -0.524667 -0.59716 0.606732
    outer loop
      vertex 21.8691 20.2488 3
      vertex 22.5688 20.8966 4.24264
      vertex 17.8182 25.0705 4.24264
    endloop
  endfacet
  facet normal -0.610267 -0.69459 0.380945
    outer loop
      vertex 21.4293 19.8416 1.55291
      vertex 17.2658 24.2933 3
      vertex 16.9186 23.8047 1.55291
    endloop
  endfacet
  facet normal -0.610275 -0.694592 0.380928
    outer loop
      vertex 21.4293 19.8416 1.55291
      vertex 21.8691 20.2488 3
      vertex 17.2658 24.2933 3
    endloop
  endfacet
  facet normal -0.654444 -0.744877 0.129852
    outer loop
      vertex 21.2793 19.7027 0
      vertex 16.9186 23.8047 1.55291
      vertex 16.8001 23.6381 0
    endloop
  endfacet
  facet normal -0.654448 -0.744876 0.12984
    outer loop
      vertex 21.2793 19.7027 0
      vertex 21.4293 19.8416 1.55291
      vertex 16.9186 23.8047 1.55291
    endloop
  endfacet
  facet normal 0.792943 0.59529 0.129889
    outer loop
      vertex 34.9701 21.0089 1.55291
      vertex 30.0845 27.8555 0
      vertex 29.9344 27.7166 1.55291
    endloop
  endfacet
  facet normal 0.792957 0.595285 0.129827
    outer loop
      vertex 34.9701 21.0089 1.55291
      vertex 35.1453 21.1142 0
      vertex 30.0845 27.8555 0
    endloop
  endfacet
  facet normal 0.739426 0.555106 0.380929
    outer loop
      vertex 34.4563 20.7002 3
      vertex 29.9344 27.7166 1.55291
      vertex 29.4946 27.3094 3
    endloop
  endfacet
  facet normal 0.739415 0.555104 0.380952
    outer loop
      vertex 34.4563 20.7002 3
      vertex 34.9701 21.0089 1.55291
      vertex 29.9344 27.7166 1.55291
    endloop
  endfacet
  facet normal 0.635707 0.47724 0.606728
    outer loop
      vertex 33.6389 20.2092 4.24264
      vertex 29.4946 27.3094 3
      vertex 28.795 26.6615 4.24264
    endloop
  endfacet
  facet normal 0.635704 0.47724 0.606732
    outer loop
      vertex 33.6389 20.2092 4.24264
      vertex 34.4563 20.7002 3
      vertex 29.4946 27.3094 3
    endloop
  endfacet
  facet normal 0.488477 0.36671 0.791779
    outer loop
      vertex 32.5737 19.5693 5.19615
      vertex 28.795 26.6615 4.24264
      vertex 27.8832 25.8173 5.19615
    endloop
  endfacet
  facet normal 0.48847 0.366707 0.791785
    outer loop
      vertex 32.5737 19.5693 5.19615
      vertex 33.6389 20.2092 4.24264
      vertex 28.795 26.6615 4.24264
    endloop
  endfacet
  facet normal 0.307411 0.230784 0.923167
    outer loop
      vertex 31.3333 18.824 5.79555
      vertex 27.8832 25.8173 5.19615
      vertex 26.8213 24.8341 5.79555
    endloop
  endfacet
  facet normal 0.307427 0.230792 0.92316
    outer loop
      vertex 31.3333 18.824 5.79555
      vertex 32.5737 19.5693 5.19615
      vertex 27.8832 25.8173 5.19615
    endloop
  endfacet
  facet normal 0.10494 0.0787801 0.991353
    outer loop
      vertex 30.0021 18.0243 6
      vertex 26.8213 24.8341 5.79555
      vertex 25.6819 23.7791 6
    endloop
  endfacet
  facet normal 0.104932 0.0787761 0.991354
    outer loop
      vertex 30.0021 18.0243 6
      vertex 31.3333 18.824 5.79555
      vertex 26.8213 24.8341 5.79555
    endloop
  endfacet
  facet normal -0.104931 -0.0787734 0.991355
    outer loop
      vertex 28.6709 17.2246 5.79555
      vertex 25.6819 23.7791 6
      vertex 24.5424 22.724 5.79555
    endloop
  endfacet
  facet normal -0.104933 -0.0787744 0.991354
    outer loop
      vertex 28.6709 17.2246 5.79555
      vertex 30.0021 18.0243 6
      vertex 25.6819 23.7791 6
    endloop
  endfacet
  facet normal -0.307439 -0.2308 0.923154
    outer loop
      vertex 27.4305 16.4794 5.19615
      vertex 24.5424 22.724 5.79555
      vertex 23.4806 21.7409 5.19615
    endloop
  endfacet
  facet normal -0.307438 -0.2308 0.923154
    outer loop
      vertex 27.4305 16.4794 5.19615
      vertex 28.6709 17.2246 5.79555
      vertex 24.5424 22.724 5.79555
    endloop
  endfacet
  facet normal -0.488464 -0.366696 0.791793
    outer loop
      vertex 26.3653 15.8394 4.24264
      vertex 23.4806 21.7409 5.19615
      vertex 22.5688 20.8966 4.24264
    endloop
  endfacet
  facet normal -0.488457 -0.366693 0.791799
    outer loop
      vertex 26.3653 15.8394 4.24264
      vertex 27.4305 16.4794 5.19615
      vertex 23.4806 21.7409 5.19615
    endloop
  endfacet
  facet normal -0.635698 -0.477241 0.606736
    outer loop
      vertex 25.548 15.3484 3
      vertex 22.5688 20.8966 4.24264
      vertex 21.8691 20.2488 3
    endloop
  endfacet
  facet normal -0.635728 -0.477248 0.6067
    outer loop
      vertex 25.548 15.3484 3
      vertex 26.3653 15.8394 4.24264
      vertex 22.5688 20.8966 4.24264
    endloop
  endfacet
  facet normal -0.739434 -0.555095 0.380929
    outer loop
      vertex 25.0341 15.0397 1.55291
      vertex 21.8691 20.2488 3
      vertex 21.4293 19.8416 1.55291
    endloop
  endfacet
  facet normal -0.739401 -0.555094 0.380996
    outer loop
      vertex 25.0341 15.0397 1.55291
      vertex 25.548 15.3484 3
      vertex 21.8691 20.2488 3
    endloop
  endfacet
  facet normal -0.792959 -0.59528 0.129839
    outer loop
      vertex 24.8589 14.9344 0
      vertex 21.4293 19.8416 1.55291
      vertex 21.2793 19.7027 0
    endloop
  endfacet
  facet normal -0.792962 -0.595279 0.129827
    outer loop
      vertex 24.8589 14.9344 0
      vertex 25.0341 15.0397 1.55291
      vertex 21.4293 19.8416 1.55291
    endloop
  endfacet
  facet normal 0.897936 0.420543 0.129822
    outer loop
      vertex 38.5275 13.4132 1.55291
      vertex 35.1453 21.1142 0
      vertex 34.9701 21.0089 1.55291
    endloop
  endfacet
  facet normal 0.89793 0.420547 0.129854
    outer loop
      vertex 38.5275 13.4132 1.55291
      vertex 38.7206 13.4804 0
      vertex 35.1453 21.1142 0
    endloop
  endfacet
  facet normal 0.837315 0.392148 0.38095
    outer loop
      vertex 37.9614 13.2161 3
      vertex 34.9701 21.0089 1.55291
      vertex 34.4563 20.7002 3
    endloop
  endfacet
  facet normal 0.837308 0.392148 0.380966
    outer loop
      vertex 37.9614 13.2161 3
      vertex 38.5275 13.4132 1.55291
      vertex 34.9701 21.0089 1.55291
    endloop
  endfacet
  facet normal 0.719864 0.337144 0.606736
    outer loop
      vertex 37.0609 12.9026 4.24264
      vertex 34.4563 20.7002 3
      vertex 33.6389 20.2092 4.24264
    endloop
  endfacet
  facet normal 0.719873 0.337145 0.606725
    outer loop
      vertex 37.0609 12.9026 4.24264
      vertex 37.9614 13.2161 3
      vertex 34.4563 20.7002 3
    endloop
  endfacet
  facet normal 0.553142 0.259055 0.791786
    outer loop
      vertex 35.8873 12.494 5.19615
      vertex 33.6389 20.2092 4.24264
      vertex 32.5737 19.5693 5.19615
    endloop
  endfacet
  facet normal 0.553121 0.259051 0.791802
    outer loop
      vertex 35.8873 12.494 5.19615
      vertex 37.0609 12.9026 4.24264
      vertex 33.6389 20.2092 4.24264
    endloop
  endfacet
  facet normal 0.348133 0.163043 0.923158
    outer loop
      vertex 34.5207 12.0182 5.79555
      vertex 32.5737 19.5693 5.19615
      vertex 31.3333 18.824 5.79555
    endloop
  endfacet
  facet normal 0.348137 0.163044 0.923156
    outer loop
      vertex 34.5207 12.0182 5.79555
      vertex 35.8873 12.494 5.19615
      vertex 32.5737 19.5693 5.19615
    endloop
  endfacet
  facet normal 0.118824 0.0556504 0.991355
    outer loop
      vertex 33.0541 11.5077 6
      vertex 31.3333 18.824 5.79555
      vertex 30.0021 18.0243 6
    endloop
  endfacet
  facet normal 0.118828 0.0556512 0.991354
    outer loop
      vertex 33.0541 11.5077 6
      vertex 34.5207 12.0182 5.79555
      vertex 31.3333 18.824 5.79555
    endloop
  endfacet
  facet normal -0.118823 -0.0556519 0.991355
    outer loop
      vertex 31.5876 10.9971 5.79555
      vertex 30.0021 18.0243 6
      vertex 28.6709 17.2246 5.79555
    endloop
  endfacet
  facet normal -0.118831 -0.0556536 0.991354
    outer loop
      vertex 31.5876 10.9971 5.79555
      vertex 33.0541 11.5077 6
      vertex 30.0021 18.0243 6
    endloop
  endfacet
  facet normal -0.348142 -0.163048 0.923154
    outer loop
      vertex 30.2209 10.5213 5.19615
      vertex 28.6709 17.2246 5.79555
      vertex 27.4305 16.4794 5.19615
    endloop
  endfacet
  facet normal -0.348115 -0.163043 0.923165
    outer loop
      vertex 30.2209 10.5213 5.19615
      vertex 31.5876 10.9971 5.79555
      vertex 28.6709 17.2246 5.79555
    endloop
  endfacet
  facet normal -0.553126 -0.259056 0.791796
    outer loop
      vertex 29.0474 10.1127 4.24264
      vertex 27.4305 16.4794 5.19615
      vertex 26.3653 15.8394 4.24264
    endloop
  endfacet
  facet normal -0.553148 -0.25906 0.79178
    outer loop
      vertex 29.0474 10.1127 4.24264
      vertex 30.2209 10.5213 5.19615
      vertex 27.4305 16.4794 5.19615
    endloop
  endfacet
  facet normal -0.719891 -0.337153 0.6067
    outer loop
      vertex 28.1469 9.79922 3
      vertex 26.3653 15.8394 4.24264
      vertex 25.548 15.3484 3
    endloop
  endfacet
  facet normal -0.719873 -0.337153 0.606721
    outer loop
      vertex 28.1469 9.79922 3
      vertex 29.0474 10.1127 4.24264
      vertex 26.3653 15.8394 4.24264
    endloop
  endfacet
  facet normal -0.837292 -0.392149 0.381
    outer loop
      vertex 27.5808 9.60214 1.55291
      vertex 25.548 15.3484 3
      vertex 25.0341 15.0397 1.55291
    endloop
  endfacet
  facet normal -0.837311 -0.392146 0.380962
    outer loop
      vertex 27.5808 9.60214 1.55291
      vertex 28.1469 9.79922 3
      vertex 25.548 15.3484 3
    endloop
  endfacet
  facet normal -0.897937 -0.420541 0.129822
    outer loop
      vertex 27.3877 9.53492 0
      vertex 25.0341 15.0397 1.55291
      vertex 24.8589 14.9344 0
    endloop
  endfacet
  facet normal -0.897929 -0.420548 0.129859
    outer loop
      vertex 27.3877 9.53492 0
      vertex 27.5808 9.60214 1.55291
      vertex 25.0341 15.0397 1.55291
    endloop
  endfacet
  facet normal 0.96496 0.228013 0.129857
    outer loop
      vertex 40.4563 5.25046 1.55291
      vertex 38.7206 13.4804 0
      vertex 38.5275 13.4132 1.55291
    endloop
  endfacet
  facet normal 0.964966 0.228008 0.129819
    outer loop
      vertex 40.4563 5.25046 1.55291
      vertex 40.659 5.27677 0
      vertex 38.7206 13.4804 0
    endloop
  endfacet
  facet normal 0.899809 0.212624 0.380965
    outer loop
      vertex 39.8619 5.17332 3
      vertex 38.5275 13.4132 1.55291
      vertex 37.9614 13.2161 3
    endloop
  endfacet
  facet normal 0.89982 0.212621 0.38094
    outer loop
      vertex 39.8619 5.17332 3
      vertex 40.4563 5.25046 1.55291
      vertex 38.5275 13.4132 1.55291
    endloop
  endfacet
  facet normal 0.773607 0.182801 0.606725
    outer loop
      vertex 38.9163 5.0506 4.24264
      vertex 37.9614 13.2161 3
      vertex 37.0609 12.9026 4.24264
    endloop
  endfacet
  facet normal 0.773601 0.182801 0.606733
    outer loop
      vertex 38.9163 5.0506 4.24264
      vertex 39.8619 5.17332 3
      vertex 37.9614 13.2161 3
    endloop
  endfacet
  facet normal 0.594409 0.140461 0.791801
    outer loop
      vertex 37.684 4.89067 5.19615
      vertex 37.0609 12.9026 4.24264
      vertex 35.8873 12.494 5.19615
    endloop
  endfacet
  facet normal 0.594427 0.140461 0.791787
    outer loop
      vertex 37.684 4.89067 5.19615
      vertex 38.9163 5.0506 4.24264
      vertex 37.0609 12.9026 4.24264
    endloop
  endfacet
  facet normal 0.374122 0.0884079 0.923156
    outer loop
      vertex 36.249 4.70443 5.79555
      vertex 35.8873 12.494 5.19615
      vertex 34.5207 12.0182 5.79555
    endloop
  endfacet
  facet normal 0.374128 0.088408 0.923154
    outer loop
      vertex 36.249 4.70443 5.79555
      vertex 37.684 4.89067 5.19615
      vertex 35.8873 12.494 5.19615
    endloop
  endfacet
  facet normal 0.127695 0.0301754 0.991354
    outer loop
      vertex 34.709 4.50456 6
      vertex 34.5207 12.0182 5.79555
      vertex 33.0541 11.5077 6
    endloop
  endfacet
  facet normal 0.127696 0.0301754 0.991354
    outer loop
      vertex 34.709 4.50456 6
      vertex 36.249 4.70443 5.79555
      vertex 34.5207 12.0182 5.79555
    endloop
  endfacet
  facet normal -0.127702 -0.0301756 0.991353
    outer loop
      vertex 33.169 4.3047 5.79555
      vertex 33.0541 11.5077 6
      vertex 31.5876 10.9971 5.79555
    endloop
  endfacet
  facet normal -0.127696 -0.0301756 0.991354
    outer loop
      vertex 33.169 4.3047 5.79555
      vertex 34.709 4.50456 6
      vertex 33.0541 11.5077 6
    endloop
  endfacet
  facet normal -0.374101 -0.0884006 0.923165
    outer loop
      vertex 31.7339 4.11846 5.19615
      vertex 31.5876 10.9971 5.79555
      vertex 30.2209 10.5213 5.19615
    endloop
  endfacet
  facet normal -0.374106 -0.0884006 0.923163
    outer loop
      vertex 31.7339 4.11846 5.19615
      vertex 33.169 4.3047 5.79555
      vertex 31.5876 10.9971 5.79555
    endloop
  endfacet
  facet normal -0.594439 -0.140463 0.791778
    outer loop
      vertex 30.5016 3.95853 4.24264
      vertex 30.2209 10.5213 5.19615
      vertex 29.0474 10.1127 4.24264
    endloop
  endfacet
  facet normal -0.594427 -0.140464 0.791787
    outer loop
      vertex 30.5016 3.95853 4.24264
      vertex 31.7339 4.11846 5.19615
      vertex 30.2209 10.5213 5.19615
    endloop
  endfacet
  facet normal -0.77361 -0.182797 0.606723
    outer loop
      vertex 29.556 3.83581 3
      vertex 29.0474 10.1127 4.24264
      vertex 28.1469 9.79922 3
    endloop
  endfacet
  facet normal -0.773602 -0.182798 0.606733
    outer loop
      vertex 29.556 3.83581 3
      vertex 30.5016 3.95853 4.24264
      vertex 29.0474 10.1127 4.24264
    endloop
  endfacet
  facet normal -0.899811 -0.212623 0.380962
    outer loop
      vertex 28.9616 3.75867 1.55291
      vertex 28.1469 9.79922 3
      vertex 27.5808 9.60214 1.55291
    endloop
  endfacet
  facet normal -0.899821 -0.21262 0.38094
    outer loop
      vertex 28.9616 3.75867 1.55291
      vertex 29.556 3.83581 3
      vertex 28.1469 9.79922 3
    endloop
  endfacet
  facet normal -0.964956 -0.228028 0.12986
    outer loop
      vertex 28.7589 3.73235 0
      vertex 27.5808 9.60214 1.55291
      vertex 27.3877 9.53492 0
    endloop
  endfacet
  facet normal -0.964963 -0.228019 0.12982
    outer loop
      vertex 28.7589 3.73235 0
      vertex 28.9616 3.75867 1.55291
      vertex 27.5808 9.60214 1.55291
    endloop
  endfacet
  facet normal 0.991201 0.0258538 0.129819
    outer loop
      vertex 40.675 -3.1342 1.55291
      vertex 40.659 5.27677 0
      vertex 40.4563 5.25046 1.55291
    endloop
  endfacet
  facet normal 0.991192 0.0258658 0.129884
    outer loop
      vertex 40.675 -3.1342 1.55291
      vertex 40.8789 -3.14991 0
      vertex 40.659 5.27677 0
    endloop
  endfacet
  facet normal 0.924285 0.0241099 0.38094
    outer loop
      vertex 40.0774 -3.08815 3
      vertex 40.4563 5.25046 1.55291
      vertex 39.8619 5.17332 3
    endloop
  endfacet
  facet normal 0.924288 0.0241085 0.380933
    outer loop
      vertex 40.675 -3.1342 1.55291
      vertex 40.4563 5.25046 1.55291
      vertex 40.0774 -3.08815 3
    endloop
  endfacet
  facet normal 0.794635 0.0207292 0.606733
    outer loop
      vertex 39.1267 -3.01489 4.24264
      vertex 39.8619 5.17332 3
      vertex 38.9163 5.0506 4.24264
    endloop
  endfacet
  facet normal 0.794639 0.0207281 0.606728
    outer loop
      vertex 40.0774 -3.08815 3
      vertex 39.8619 5.17332 3
      vertex 39.1267 -3.01489 4.24264
    endloop
  endfacet
  facet normal 0.61059 0.0159252 0.791787
    outer loop
      vertex 37.8877 -2.91943 5.19615
      vertex 38.9163 5.0506 4.24264
      vertex 37.684 4.89067 5.19615
    endloop
  endfacet
  facet normal 0.610578 0.0159278 0.791796
    outer loop
      vertex 39.1267 -3.01489 4.24264
      vertex 38.9163 5.0506 4.24264
      vertex 37.8877 -2.91943 5.19615
    endloop
  endfacet
  facet normal 0.384301 0.010021 0.923153
    outer loop
      vertex 36.4449 -2.80825 5.79555
      vertex 37.684 4.89067 5.19615
      vertex 36.249 4.70443 5.79555
    endloop
  endfacet
  facet normal 0.384291 0.0100229 0.923158
    outer loop
      vertex 37.8877 -2.91943 5.19615
      vertex 37.684 4.89067 5.19615
      vertex 36.4449 -2.80825 5.79555
    endloop
  endfacet
  facet normal 0.131168 0.00342074 0.991354
    outer loop
      vertex 34.8966 -2.68894 6
      vertex 36.249 4.70443 5.79555
      vertex 34.709 4.50456 6
    endloop
  endfacet
  facet normal 0.13117 0.00342038 0.991354
    outer loop
      vertex 36.4449 -2.80825 5.79555
      vertex 36.249 4.70443 5.79555
      vertex 34.8966 -2.68894 6
    endloop
  endfacet
  facet normal -0.131168 -0.00342119 0.991354
    outer loop
      vertex 33.3483 -2.56964 5.79555
      vertex 34.709 4.50456 6
      vertex 33.169 4.3047 5.79555
    endloop
  endfacet
  facet normal -0.13117 -0.00342079 0.991354
    outer loop
      vertex 34.8966 -2.68894 6
      vertex 34.709 4.50456 6
      vertex 33.3483 -2.56964 5.79555
    endloop
  endfacet
  facet normal -0.384278 -0.0100263 0.923163
    outer loop
      vertex 31.9055 -2.45846 5.19615
      vertex 33.169 4.3047 5.79555
      vertex 31.7339 4.11846 5.19615
    endloop
  endfacet
  facet normal -0.384291 -0.0100233 0.923158
    outer loop
      vertex 33.3483 -2.56964 5.79555
      vertex 33.169 4.3047 5.79555
      vertex 31.9055 -2.45846 5.19615
    endloop
  endfacet
  facet normal -0.61059 -0.0159275 0.791787
    outer loop
      vertex 30.6665 -2.363 4.24264
      vertex 31.7339 4.11846 5.19615
      vertex 30.5016 3.95853 4.24264
    endloop
  endfacet
  facet normal -0.610578 -0.0159307 0.791796
    outer loop
      vertex 31.9055 -2.45846 5.19615
      vertex 31.7339 4.11846 5.19615
      vertex 30.6665 -2.363 4.24264
    endloop
  endfacet
  facet normal -0.794635 -0.02073 0.606733
    outer loop
      vertex 29.7158 -2.28974 3
      vertex 30.5016 3.95853 4.24264
      vertex 29.556 3.83581 3
    endloop
  endfacet
  facet normal -0.794639 -0.0207285 0.606728
    outer loop
      vertex 30.6665 -2.363 4.24264
      vertex 30.5016 3.95853 4.24264
      vertex 29.7158 -2.28974 3
    endloop
  endfacet
  facet normal -0.924285 -0.0241144 0.380941
    outer loop
      vertex 29.1182 -2.24369 1.55291
      vertex 29.556 3.83581 3
      vertex 28.9616 3.75867 1.55291
    endloop
  endfacet
  facet normal -0.924288 -0.0241123 0.380933
    outer loop
      vertex 29.7158 -2.28974 3
      vertex 29.556 3.83581 3
      vertex 29.1182 -2.24369 1.55291
    endloop
  endfacet
  facet normal -0.991201 -0.025843 0.129819
    outer loop
      vertex 28.9143 -2.22798 0
      vertex 28.9616 3.75867 1.55291
      vertex 28.7589 3.73235 0
    endloop
  endfacet
  facet normal -0.991192 -0.0258599 0.129884
    outer loop
      vertex 29.1182 -2.24369 1.55291
      vertex 28.9616 3.75867 1.55291
      vertex 28.9143 -2.22798 0
    endloop
  endfacet
  facet normal -0.0868638 -0.987729 -0.129789
    outer loop
      vertex 7.6345 39.0911 1.2941
      vertex 8.82904e-15 39.7625 1.2941
      vertex 8.86364e-15 39.9183 0.108418
    endloop
  endfacet
  facet normal -0.0868618 -0.987666 -0.13027
    outer loop
      vertex 7.66716 39.2583 0
      vertex 8.86364e-15 39.9183 0.108418
      vertex 8.86681e-15 39.9326 0
    endloop
  endfacet
  facet normal -0.0868605 -0.987727 -0.129808
    outer loop
      vertex 8.86364e-15 39.9183 0.108418
      vertex 7.66716 39.2583 0
      vertex 7.6345 39.0911 1.2941
    endloop
  endfacet
  facet normal -0.0809909 -0.921061 -0.380904
    outer loop
      vertex 7.53876 38.6009 2.5
      vertex 8.71832e-15 39.2638 2.5
      vertex 8.81969e-15 39.7204 1.3959
    endloop
  endfacet
  facet normal -0.0810005 -0.921058 -0.380909
    outer loop
      vertex 7.6345 39.0911 1.2941
      vertex 8.81969e-15 39.7204 1.3959
      vertex 8.82904e-15 39.7625 1.2941
    endloop
  endfacet
  facet normal -0.0810017 -0.921081 -0.380852
    outer loop
      vertex 8.81969e-15 39.7204 1.3959
      vertex 7.6345 39.0911 1.2941
      vertex 7.53876 38.6009 2.5
    endloop
  endfacet
  facet normal -0.0696454 -0.791922 -0.606638
    outer loop
      vertex 7.38645 37.821 3.53553
      vertex 8.54218e-15 38.4706 3.53553
      vertex 8.70334e-15 39.1964 2.58805
    endloop
  endfacet
  facet normal -0.0697205 -0.792131 -0.606356
    outer loop
      vertex 8.71832e-15 39.2638 2.5
      vertex 7.38645 37.821 3.53553
      vertex 8.70334e-15 39.1964 2.58805
    endloop
  endfacet
  facet normal -0.0696341 -0.791906 -0.606659
    outer loop
      vertex 7.38645 37.821 3.53553
      vertex 8.71832e-15 39.2638 2.5
      vertex 7.53876 38.6009 2.5
    endloop
  endfacet
  facet normal -0.0535152 -0.608551 -0.791708
    outer loop
      vertex 7.18796 36.8047 4.33013
      vertex 8.31263e-15 37.4368 4.33013
      vertex 8.52254e-15 38.3821 3.60352
    endloop
  endfacet
  facet normal -0.053515 -0.60855 -0.791709
    outer loop
      vertex 8.52254e-15 38.3821 3.60352
      vertex 7.38645 37.821 3.53553
      vertex 7.18796 36.8047 4.33013
    endloop
  endfacet
  facet normal -0.0535011 -0.608349 -0.791865
    outer loop
      vertex 7.38645 37.821 3.53553
      vertex 8.52254e-15 38.3821 3.60352
      vertex 8.54218e-15 38.4706 3.53553
    endloop
  endfacet
  facet normal -0.0336767 -0.383003 -0.923133
    outer loop
      vertex 6.95682 35.6212 4.82963
      vertex 8.04532e-15 36.2329 4.82963
      vertex 8.28965e-15 37.3333 4.37308
    endloop
  endfacet
  facet normal -0.0336837 -0.383028 -0.923122
    outer loop
      vertex 8.28965e-15 37.3333 4.37308
      vertex 7.18796 36.8047 4.33013
      vertex 6.95682 35.6212 4.82963
    endloop
  endfacet
  facet normal -0.0336864 -0.383067 -0.923106
    outer loop
      vertex 7.18796 36.8047 4.33013
      vertex 8.28965e-15 37.3333 4.37308
      vertex 8.31263e-15 37.4368 4.33013
    endloop
  endfacet
  facet normal -0.0114958 -0.130738 -0.99135
    outer loop
      vertex 6.70877 34.3511 5
      vertex 7.75846e-15 34.941 5
      vertex 8.02057e-15 36.1214 4.84433
    endloop
  endfacet
  facet normal -0.0114946 -0.130734 -0.991351
    outer loop
      vertex 8.02057e-15 36.1214 4.84433
      vertex 6.95682 35.6212 4.82963
      vertex 6.70877 34.3511 5
    endloop
  endfacet
  facet normal -0.0114921 -0.130699 -0.991356
    outer loop
      vertex 6.95682 35.6212 4.82963
      vertex 8.02057e-15 36.1214 4.84433
      vertex 8.04532e-15 36.2329 4.82963
    endloop
  endfacet
  facet normal 0.0114955 0.130733 -0.991351
    outer loop
      vertex 6.46071 33.081 4.82963
      vertex 7.4716e-15 33.6491 4.82963
      vertex 7.73368e-15 34.8294 4.98528
    endloop
  endfacet
  facet normal 0.0114958 0.130734 -0.991351
    outer loop
      vertex 7.73368e-15 34.8294 4.98528
      vertex 6.70877 34.3511 5
      vertex 6.46071 33.081 4.82963
    endloop
  endfacet
  facet normal 0.0114975 0.130758 -0.991348
    outer loop
      vertex 6.70877 34.3511 5
      vertex 7.73368e-15 34.8294 4.98528
      vertex 7.75846e-15 34.941 5
    endloop
  endfacet
  facet normal 0.0336805 0.383014 -0.923128
    outer loop
      vertex 6.22957 31.8974 4.33013
      vertex 7.20428e-15 32.4452 4.33013
      vertex 7.44853e-15 33.5452 4.78653
    endloop
  endfacet
  facet normal 0.0336769 0.383002 -0.923133
    outer loop
      vertex 7.44853e-15 33.5452 4.78653
      vertex 6.46071 33.081 4.82963
      vertex 6.22957 31.8974 4.33013
    endloop
  endfacet
  facet normal 0.033673 0.382946 -0.923157
    outer loop
      vertex 6.46071 33.081 4.82963
      vertex 7.44853e-15 33.5452 4.78653
      vertex 7.4716e-15 33.6491 4.82963
    endloop
  endfacet
  facet normal 0.053508 0.608544 -0.791714
    outer loop
      vertex 6.03108 30.8811 3.53553
      vertex 6.97474e-15 31.4114 3.53553
      vertex 7.18455e-15 32.3563 4.26182
    endloop
  endfacet
  facet normal 0.0535102 0.608551 -0.791709
    outer loop
      vertex 7.18455e-15 32.3563 4.26182
      vertex 6.22957 31.8974 4.33013
      vertex 6.03108 30.8811 3.53553
    endloop
  endfacet
  facet normal 0.0535017 0.60842 -0.79181
    outer loop
      vertex 6.22957 31.8974 4.33013
      vertex 7.18455e-15 32.3563 4.26182
      vertex 7.20428e-15 32.4452 4.33013
    endloop
  endfacet
  facet normal 0.0696439 0.791916 -0.606645
    outer loop
      vertex 5.87877 30.1012 2.5
      vertex 6.7986e-15 30.6182 2.5
      vertex 6.95969e-15 31.3437 3.44707
    endloop
  endfacet
  facet normal 0.069656 0.792194 -0.60628
    outer loop
      vertex 6.03108 30.8811 3.53553
      vertex 6.95969e-15 31.3437 3.44707
      vertex 6.97474e-15 31.4114 3.53553
    endloop
  endfacet
  facet normal 0.0696394 0.791906 -0.606659
    outer loop
      vertex 6.95969e-15 31.3437 3.44707
      vertex 6.03108 30.8811 3.53553
      vertex 5.87877 30.1012 2.5
    endloop
  endfacet
  facet normal 0.0809899 0.921076 -0.380868
    outer loop
      vertex 5.78303 29.611 1.2941
      vertex 6.68787e-15 30.1195 1.2941
      vertex 6.78922e-15 30.5759 2.39784
    endloop
  endfacet
  facet normal 0.0809869 0.920896 -0.381303
    outer loop
      vertex 5.87877 30.1012 2.5
      vertex 6.78922e-15 30.5759 2.39784
      vertex 6.7986e-15 30.6182 2.5
    endloop
  endfacet
  facet normal 0.0809941 0.921082 -0.380851
    outer loop
      vertex 6.78922e-15 30.5759 2.39784
      vertex 5.87877 30.1012 2.5
      vertex 5.78303 29.611 1.2941
    endloop
  endfacet
  facet normal 0.0868459 0.987729 -0.129804
    outer loop
      vertex 5.75037 29.4438 0
      vertex 6.65011e-15 29.9494 0
      vertex 6.68471e-15 30.1052 1.18554
    endloop
  endfacet
  facet normal 0.0868472 0.98769 -0.130103
    outer loop
      vertex 5.78303 29.611 1.2941
      vertex 6.68471e-15 30.1052 1.18554
      vertex 6.68787e-15 30.1195 1.2941
    endloop
  endfacet
  facet normal 0.086845 0.987729 -0.129808
    outer loop
      vertex 6.68471e-15 30.1052 1.18554
      vertex 5.78303 29.611 1.2941
      vertex 5.75037 29.4438 0
    endloop
  endfacet
  facet normal -0.291152 -0.947829 -0.129809
    outer loop
      vertex 15.6276 36.6358 1.2941
      vertex 7.6345 39.0911 1.2941
      vertex 7.66716 39.2583 0
    endloop
  endfacet
  facet normal -0.291149 -0.947828 -0.129822
    outer loop
      vertex 15.6276 36.6358 1.2941
      vertex 7.66716 39.2583 0
      vertex 15.6945 36.7925 0
    endloop
  endfacet
  facet normal -0.271513 -0.883873 -0.380852
    outer loop
      vertex 15.4317 36.1763 2.5
      vertex 7.53876 38.6009 2.5
      vertex 7.6345 39.0911 1.2941
    endloop
  endfacet
  facet normal -0.271502 -0.883859 -0.380894
    outer loop
      vertex 15.4317 36.1763 2.5
      vertex 7.6345 39.0911 1.2941
      vertex 15.6276 36.6358 1.2941
    endloop
  endfacet
  facet normal -0.233435 -0.759917 -0.606659
    outer loop
      vertex 15.1199 35.4454 3.53553
      vertex 7.38645 37.821 3.53553
      vertex 7.53876 38.6009 2.5
    endloop
  endfacet
  facet normal -0.233436 -0.759919 -0.606656
    outer loop
      vertex 15.1199 35.4454 3.53553
      vertex 7.53876 38.6009 2.5
      vertex 15.4317 36.1763 2.5
    endloop
  endfacet
  facet normal -0.179389 -0.583966 -0.791709
    outer loop
      vertex 14.7136 34.4929 4.33013
      vertex 7.18796 36.8047 4.33013
      vertex 7.38645 37.821 3.53553
    endloop
  endfacet
  facet normal -0.179382 -0.583955 -0.791719
    outer loop
      vertex 14.7136 34.4929 4.33013
      vertex 7.38645 37.821 3.53553
      vertex 15.1199 35.4454 3.53553
    endloop
  endfacet
  facet normal -0.112912 -0.367555 -0.923122
    outer loop
      vertex 14.2404 33.3837 4.82963
      vertex 6.95682 35.6212 4.82963
      vertex 7.18796 36.8047 4.33013
    endloop
  endfacet
  facet normal -0.112905 -0.367541 -0.923129
    outer loop
      vertex 14.2404 33.3837 4.82963
      vertex 7.18796 36.8047 4.33013
      vertex 14.7136 34.4929 4.33013
    endloop
  endfacet
  facet normal -0.0385381 -0.125452 -0.991351
    outer loop
      vertex 13.7327 32.1934 5
      vertex 6.70877 34.3511 5
      vertex 6.95682 35.6212 4.82963
    endloop
  endfacet
  facet normal -0.0385397 -0.125456 -0.99135
    outer loop
      vertex 13.7327 32.1934 5
      vertex 6.95682 35.6212 4.82963
      vertex 14.2404 33.3837 4.82963
    endloop
  endfacet
  facet normal 0.0385378 0.125452 -0.991351
    outer loop
      vertex 13.2249 31.0031 4.82963
      vertex 6.46071 33.081 4.82963
      vertex 6.70877 34.3511 5
    endloop
  endfacet
  facet normal 0.0385382 0.125453 -0.991351
    outer loop
      vertex 13.2249 31.0031 4.82963
      vertex 6.70877 34.3511 5
      vertex 13.7327 32.1934 5
    endloop
  endfacet
  facet normal 0.112898 0.367531 -0.923133
    outer loop
      vertex 12.7518 29.8939 4.33013
      vertex 6.22957 31.8974 4.33013
      vertex 6.46071 33.081 4.82963
    endloop
  endfacet
  facet normal 0.112908 0.367548 -0.923125
    outer loop
      vertex 12.7518 29.8939 4.33013
      vertex 6.46071 33.081 4.82963
      vertex 13.2249 31.0031 4.82963
    endloop
  endfacet
  facet normal 0.179386 0.583967 -0.791709
    outer loop
      vertex 12.3455 28.9414 3.53553
      vertex 6.03108 30.8811 3.53553
      vertex 6.22957 31.8974 4.33013
    endloop
  endfacet
  facet normal 0.17938 0.583956 -0.791719
    outer loop
      vertex 12.3455 28.9414 3.53553
      vertex 6.22957 31.8974 4.33013
      vertex 12.7518 29.8939 4.33013
    endloop
  endfacet
  facet normal 0.233435 0.759917 -0.606659
    outer loop
      vertex 12.0337 28.2105 2.5
      vertex 5.87877 30.1012 2.5
      vertex 6.03108 30.8811 3.53553
    endloop
  endfacet
  facet normal 0.233436 0.759919 -0.606656
    outer loop
      vertex 12.0337 28.2105 2.5
      vertex 6.03108 30.8811 3.53553
      vertex 12.3455 28.9414 3.53553
    endloop
  endfacet
  facet normal 0.271512 0.883874 -0.380852
    outer loop
      vertex 11.8377 27.7511 1.2941
      vertex 5.78303 29.611 1.2941
      vertex 5.87877 30.1012 2.5
    endloop
  endfacet
  facet normal 0.271513 0.883874 -0.380851
    outer loop
      vertex 11.8377 27.7511 1.2941
      vertex 5.87877 30.1012 2.5
      vertex 12.0337 28.2105 2.5
    endloop
  endfacet
  facet normal 0.291156 0.947828 -0.129809
    outer loop
      vertex 11.7709 27.5944 0
      vertex 5.75037 29.4438 0
      vertex 5.78303 29.611 1.2941
    endloop
  endfacet
  facet normal 0.291158 0.947829 -0.1298
    outer loop
      vertex 11.7709 27.5944 0
      vertex 5.78303 29.611 1.2941
      vertex 11.8377 27.7511 1.2941
    endloop
  endfacet
  facet normal -0.482629 -0.866149 -0.12983
    outer loop
      vertex 22.932 32.5657 1.2941
      vertex 15.6276 36.6358 1.2941
      vertex 15.6945 36.7925 0
    endloop
  endfacet
  facet normal -0.482631 -0.866149 -0.12982
    outer loop
      vertex 22.932 32.5657 1.2941
      vertex 15.6945 36.7925 0
      vertex 23.0301 32.705 0
    endloop
  endfacet
  facet normal -0.450059 -0.807698 -0.380881
    outer loop
      vertex 22.6444 32.1573 2.5
      vertex 15.4317 36.1763 2.5
      vertex 15.6276 36.6358 1.2941
    endloop
  endfacet
  facet normal -0.45006 -0.807699 -0.380879
    outer loop
      vertex 22.6444 32.1573 2.5
      vertex 15.6276 36.6358 1.2941
      vertex 22.932 32.5657 1.2941
    endloop
  endfacet
  facet normal -0.386946 -0.694435 -0.606658
    outer loop
      vertex 22.1869 31.5076 3.53553
      vertex 15.1199 35.4454 3.53553
      vertex 15.4317 36.1763 2.5
    endloop
  endfacet
  facet normal -0.386949 -0.694438 -0.606651
    outer loop
      vertex 22.1869 31.5076 3.53553
      vertex 15.4317 36.1763 2.5
      vertex 22.6444 32.1573 2.5
    endloop
  endfacet
  facet normal -0.297348 -0.533635 -0.791719
    outer loop
      vertex 21.5907 30.6609 4.33013
      vertex 14.7136 34.4929 4.33013
      vertex 15.1199 35.4454 3.53553
    endloop
  endfacet
  facet normal -0.297344 -0.533631 -0.791722
    outer loop
      vertex 21.5907 30.6609 4.33013
      vertex 15.1199 35.4454 3.53553
      vertex 22.1869 31.5076 3.53553
    endloop
  endfacet
  facet normal -0.187145 -0.335869 -0.92313
    outer loop
      vertex 20.8964 29.675 4.82963
      vertex 14.2404 33.3837 4.82963
      vertex 14.7136 34.4929 4.33013
    endloop
  endfacet
  facet normal -0.187161 -0.335888 -0.92312
    outer loop
      vertex 20.8964 29.675 4.82963
      vertex 14.7136 34.4929 4.33013
      vertex 21.5907 30.6609 4.33013
    endloop
  endfacet
  facet normal -0.0638819 -0.114646 -0.99135
    outer loop
      vertex 20.1513 28.6169 5
      vertex 13.7327 32.1934 5
      vertex 14.2404 33.3837 4.82963
    endloop
  endfacet
  facet normal -0.0638774 -0.114641 -0.991351
    outer loop
      vertex 20.1513 28.6169 5
      vertex 14.2404 33.3837 4.82963
      vertex 20.8964 29.675 4.82963
    endloop
  endfacet
  facet normal 0.0638791 0.114642 -0.991351
    outer loop
      vertex 19.4063 27.5588 4.82963
      vertex 13.2249 31.0031 4.82963
      vertex 13.7327 32.1934 5
    endloop
  endfacet
  facet normal 0.0638808 0.114644 -0.991351
    outer loop
      vertex 19.4063 27.5588 4.82963
      vertex 13.7327 32.1934 5
      vertex 20.1513 28.6169 5
    endloop
  endfacet
  facet normal 0.187156 0.335879 -0.923124
    outer loop
      vertex 18.712 26.5728 4.33013
      vertex 12.7518 29.8939 4.33013
      vertex 13.2249 31.0031 4.82963
    endloop
  endfacet
  facet normal 0.187147 0.335869 -0.923129
    outer loop
      vertex 18.712 26.5728 4.33013
      vertex 13.2249 31.0031 4.82963
      vertex 19.4063 27.5588 4.82963
    endloop
  endfacet
  facet normal 0.297349 0.533634 -0.791718
    outer loop
      vertex 18.1158 25.7261 3.53553
      vertex 12.3455 28.9414 3.53553
      vertex 12.7518 29.8939 4.33013
    endloop
  endfacet
  facet normal 0.297346 0.53363 -0.791722
    outer loop
      vertex 18.1158 25.7261 3.53553
      vertex 12.7518 29.8939 4.33013
      vertex 18.712 26.5728 4.33013
    endloop
  endfacet
  facet normal 0.386938 0.694439 -0.606658
    outer loop
      vertex 17.6583 25.0765 2.5
      vertex 12.0337 28.2105 2.5
      vertex 12.3455 28.9414 3.53553
    endloop
  endfacet
  facet normal 0.386967 0.694465 -0.606609
    outer loop
      vertex 17.6583 25.0765 2.5
      vertex 12.3455 28.9414 3.53553
      vertex 18.1158 25.7261 3.53553
    endloop
  endfacet
  facet normal 0.450058 0.807711 -0.380856
    outer loop
      vertex 17.3707 24.6681 1.2941
      vertex 11.8377 27.7511 1.2941
      vertex 12.0337 28.2105 2.5
    endloop
  endfacet
  facet normal 0.450049 0.807705 -0.380878
    outer loop
      vertex 17.3707 24.6681 1.2941
      vertex 12.0337 28.2105 2.5
      vertex 17.6583 25.0765 2.5
    endloop
  endfacet
  facet normal 0.482629 0.866154 -0.129794
    outer loop
      vertex 17.2726 24.5288 0
      vertex 11.7709 27.5944 0
      vertex 11.8377 27.7511 1.2941
    endloop
  endfacet
  facet normal 0.482623 0.866154 -0.12982
    outer loop
      vertex 17.2726 24.5288 0
      vertex 11.8377 27.7511 1.2941
      vertex 17.3707 24.6681 1.2941
    endloop
  endfacet
  facet normal -0.652825 -0.746301 -0.129821
    outer loop
      vertex 29.2257 27.0603 1.2941
      vertex 22.932 32.5657 1.2941
      vertex 23.0301 32.705 0
    endloop
  endfacet
  facet normal -0.652822 -0.746301 -0.129839
    outer loop
      vertex 29.2257 27.0603 1.2941
      vertex 23.0301 32.705 0
      vertex 29.3507 27.1761 0
    endloop
  endfacet
  facet normal -0.608765 -0.695942 -0.38088
    outer loop
      vertex 28.8592 26.721 2.5
      vertex 22.6444 32.1573 2.5
      vertex 22.932 32.5657 1.2941
    endloop
  endfacet
  facet normal -0.608781 -0.69595 -0.380839
    outer loop
      vertex 28.8592 26.721 2.5
      vertex 22.932 32.5657 1.2941
      vertex 29.2257 27.0603 1.2941
    endloop
  endfacet
  facet normal -0.523404 -0.59835 -0.606651
    outer loop
      vertex 28.2761 26.1811 3.53553
      vertex 22.1869 31.5076 3.53553
      vertex 22.6444 32.1573 2.5
    endloop
  endfacet
  facet normal -0.523388 -0.598339 -0.606676
    outer loop
      vertex 28.2761 26.1811 3.53553
      vertex 22.6444 32.1573 2.5
      vertex 28.8592 26.721 2.5
    endloop
  endfacet
  facet normal -0.402199 -0.459798 -0.791721
    outer loop
      vertex 27.5163 25.4776 4.33013
      vertex 21.5907 30.6609 4.33013
      vertex 22.1869 31.5076 3.53553
    endloop
  endfacet
  facet normal -0.40222 -0.459814 -0.791701
    outer loop
      vertex 27.5163 25.4776 4.33013
      vertex 22.1869 31.5076 3.53553
      vertex 28.2761 26.1811 3.53553
    endloop
  endfacet
  facet normal -0.253161 -0.289409 -0.923121
    outer loop
      vertex 26.6314 24.6583 4.82963
      vertex 20.8964 29.675 4.82963
      vertex 21.5907 30.6609 4.33013
    endloop
  endfacet
  facet normal -0.253141 -0.289393 -0.923131
    outer loop
      vertex 26.6314 24.6583 4.82963
      vertex 21.5907 30.6609 4.33013
      vertex 27.5163 25.4776 4.33013
    endloop
  endfacet
  facet normal -0.0864042 -0.0987778 -0.991351
    outer loop
      vertex 25.6819 23.7791 5
      vertex 20.1513 28.6169 5
      vertex 20.8964 29.675 4.82963
    endloop
  endfacet
  facet normal -0.0864103 -0.0987827 -0.99135
    outer loop
      vertex 25.6819 23.7791 5
      vertex 20.8964 29.675 4.82963
      vertex 26.6314 24.6583 4.82963
    endloop
  endfacet
  facet normal 0.0864093 0.0987822 -0.99135
    outer loop
      vertex 24.7323 22.8999 4.82963
      vertex 19.4063 27.5588 4.82963
      vertex 20.1513 28.6169 5
    endloop
  endfacet
  facet normal 0.086405 0.0987787 -0.991351
    outer loop
      vertex 24.7323 22.8999 4.82963
      vertex 20.1513 28.6169 5
      vertex 25.6819 23.7791 5
    endloop
  endfacet
  facet normal 0.253148 0.289394 -0.923129
    outer loop
      vertex 23.8474 22.0806 4.33013
      vertex 18.712 26.5728 4.33013
      vertex 19.4063 27.5588 4.82963
    endloop
  endfacet
  facet normal 0.253143 0.28939 -0.923131
    outer loop
      vertex 23.8474 22.0806 4.33013
      vertex 19.4063 27.5588 4.82963
      vertex 24.7323 22.8999 4.82963
    endloop
  endfacet
  facet normal 0.402205 0.459793 -0.791721
    outer loop
      vertex 23.0876 21.377 3.53553
      vertex 18.1158 25.7261 3.53553
      vertex 18.712 26.5728 4.33013
    endloop
  endfacet
  facet normal 0.402203 0.459791 -0.791723
    outer loop
      vertex 23.0876 21.377 3.53553
      vertex 18.712 26.5728 4.33013
      vertex 23.8474 22.0806 4.33013
    endloop
  endfacet
  facet normal 0.523424 0.59837 -0.606614
    outer loop
      vertex 22.5046 20.8372 2.5
      vertex 17.6583 25.0765 2.5
      vertex 18.1158 25.7261 3.53553
    endloop
  endfacet
  facet normal 0.523429 0.598373 -0.606608
    outer loop
      vertex 22.5046 20.8372 2.5
      vertex 18.1158 25.7261 3.53553
      vertex 23.0876 21.377 3.53553
    endloop
  endfacet
  facet normal 0.60878 0.69593 -0.38088
    outer loop
      vertex 22.138 20.4978 1.2941
      vertex 17.3707 24.6681 1.2941
      vertex 17.6583 25.0765 2.5
    endloop
  endfacet
  facet normal 0.608757 0.695921 -0.380932
    outer loop
      vertex 22.138 20.4978 1.2941
      vertex 17.6583 25.0765 2.5
      vertex 22.5046 20.8372 2.5
    endloop
  endfacet
  facet normal 0.652829 0.746298 -0.129821
    outer loop
      vertex 22.013 20.3821 0
      vertex 17.2726 24.5288 0
      vertex 17.3707 24.6681 1.2941
    endloop
  endfacet
  facet normal 0.652839 0.746296 -0.129782
    outer loop
      vertex 22.013 20.3821 0
      vertex 17.3707 24.6681 1.2941
      vertex 22.138 20.4978 1.2941
    endloop
  endfacet
  facet normal -0.794252 -0.593555 -0.129832
    outer loop
      vertex 34.2312 20.3623 1.2941
      vertex 29.2257 27.0603 1.2941
      vertex 29.3507 27.1761 0
    endloop
  endfacet
  facet normal -0.794246 -0.593556 -0.129863
    outer loop
      vertex 34.2312 20.3623 1.2941
      vertex 29.3507 27.1761 0
      vertex 34.3777 20.4494 0
    endloop
  endfacet
  facet normal -0.740662 -0.553514 -0.380844
    outer loop
      vertex 33.802 20.107 2.5
      vertex 28.8592 26.721 2.5
      vertex 29.2257 27.0603 1.2941
    endloop
  endfacet
  facet normal -0.740679 -0.553519 -0.380805
    outer loop
      vertex 33.802 20.107 2.5
      vertex 29.2257 27.0603 1.2941
      vertex 34.2312 20.3623 1.2941
    endloop
  endfacet
  facet normal -0.636779 -0.475875 -0.606676
    outer loop
      vertex 33.119 19.7007 3.53553
      vertex 28.2761 26.1811 3.53553
      vertex 28.8592 26.721 2.5
    endloop
  endfacet
  facet normal -0.636763 -0.475868 -0.606698
    outer loop
      vertex 33.119 19.7007 3.53553
      vertex 28.8592 26.721 2.5
      vertex 33.802 20.107 2.5
    endloop
  endfacet
  facet normal -0.489356 -0.365704 -0.791701
    outer loop
      vertex 32.2291 19.1713 4.33013
      vertex 27.5163 25.4776 4.33013
      vertex 28.2761 26.1811 3.53553
    endloop
  endfacet
  facet normal -0.489359 -0.365705 -0.791699
    outer loop
      vertex 32.2291 19.1713 4.33013
      vertex 28.2761 26.1811 3.53553
      vertex 33.119 19.7007 3.53553
    endloop
  endfacet
  facet normal -0.307981 -0.230162 -0.923132
    outer loop
      vertex 31.1927 18.5548 4.82963
      vertex 26.6314 24.6583 4.82963
      vertex 27.5163 25.4776 4.33013
    endloop
  endfacet
  facet normal -0.307993 -0.230168 -0.923127
    outer loop
      vertex 31.1927 18.5548 4.82963
      vertex 27.5163 25.4776 4.33013
      vertex 32.2291 19.1713 4.33013
    endloop
  endfacet
  facet normal -0.105131 -0.0785654 -0.99135
    outer loop
      vertex 30.0805 17.8932 5
      vertex 25.6819 23.7791 5
      vertex 26.6314 24.6583 4.82963
    endloop
  endfacet
  facet normal -0.105125 -0.0785623 -0.991351
    outer loop
      vertex 30.0805 17.8932 5
      vertex 26.6314 24.6583 4.82963
      vertex 31.1927 18.5548 4.82963
    endloop
  endfacet
  facet normal 0.105123 0.0785616 -0.991351
    outer loop
      vertex 28.9683 17.2317 4.82963
      vertex 24.7323 22.8999 4.82963
      vertex 25.6819 23.7791 5
    endloop
  endfacet
  facet normal 0.10513 0.0785649 -0.99135
    outer loop
      vertex 28.9683 17.2317 4.82963
      vertex 25.6819 23.7791 5
      vertex 30.0805 17.8932 5
    endloop
  endfacet
  facet normal 0.307979 0.230164 -0.923132
    outer loop
      vertex 27.9319 16.6152 4.33013
      vertex 23.8474 22.0806 4.33013
      vertex 24.7323 22.8999 4.82963
    endloop
  endfacet
  facet normal 0.307991 0.23017 -0.923127
    outer loop
      vertex 27.9319 16.6152 4.33013
      vertex 24.7323 22.8999 4.82963
      vertex 28.9683 17.2317 4.82963
    endloop
  endfacet
  facet normal 0.489334 0.365696 -0.791719
    outer loop
      vertex 27.0419 16.0858 3.53553
      vertex 23.0876 21.377 3.53553
      vertex 23.8474 22.0806 4.33013
    endloop
  endfacet
  facet normal 0.48933 0.365695 -0.791722
    outer loop
      vertex 27.0419 16.0858 3.53553
      vertex 23.8474 22.0806 4.33013
      vertex 27.9319 16.6152 4.33013
    endloop
  endfacet
  facet normal 0.636822 0.475904 -0.606608
    outer loop
      vertex 26.359 15.6795 2.5
      vertex 22.5046 20.8372 2.5
      vertex 23.0876 21.377 3.53553
    endloop
  endfacet
  facet normal 0.636783 0.475891 -0.606659
    outer loop
      vertex 26.359 15.6795 2.5
      vertex 23.0876 21.377 3.53553
      vertex 27.0419 16.0858 3.53553
    endloop
  endfacet
  facet normal 0.740626 0.553499 -0.380936
    outer loop
      vertex 25.9297 15.4242 1.2941
      vertex 22.138 20.4978 1.2941
      vertex 22.5046 20.8372 2.5
    endloop
  endfacet
  facet normal 0.740662 0.553504 -0.380857
    outer loop
      vertex 25.9297 15.4242 1.2941
      vertex 22.5046 20.8372 2.5
      vertex 26.359 15.6795 2.5
    endloop
  endfacet
  facet normal 0.794249 0.593569 -0.129787
    outer loop
      vertex 25.7833 15.3371 0
      vertex 22.013 20.3821 0
      vertex 22.138 20.4978 1.2941
    endloop
  endfacet
  facet normal 0.794245 0.593571 -0.129803
    outer loop
      vertex 25.7833 15.3371 0
      vertex 22.138 20.4978 1.2941
      vertex 25.9297 15.4242 1.2941
    endloop
  endfacet
  facet normal -0.900663 -0.414657 -0.129869
    outer loop
      vertex 37.7281 12.7668 1.2941
      vertex 34.2312 20.3623 1.2941
      vertex 34.3777 20.4494 0
    endloop
  endfacet
  facet normal -0.900665 -0.414656 -0.129858
    outer loop
      vertex 37.7281 12.7668 1.2941
      vertex 34.3777 20.4494 0
      vertex 37.8895 12.8215 0
    endloop
  endfacet
  facet normal -0.839919 -0.386683 -0.380805
    outer loop
      vertex 37.255 12.6067 2.5
      vertex 33.802 20.107 2.5
      vertex 34.2312 20.3623 1.2941
    endloop
  endfacet
  facet normal -0.8399 -0.386682 -0.380848
    outer loop
      vertex 37.255 12.6067 2.5
      vertex 34.2312 20.3623 1.2941
      vertex 37.7281 12.7668 1.2941
    endloop
  endfacet
  facet normal -0.722081 -0.332442 -0.606697
    outer loop
      vertex 36.5023 12.352 3.53553
      vertex 33.119 19.7007 3.53553
      vertex 33.802 20.107 2.5
    endloop
  endfacet
  facet normal -0.722114 -0.332448 -0.606655
    outer loop
      vertex 36.5023 12.352 3.53553
      vertex 33.802 20.107 2.5
      vertex 37.255 12.6067 2.5
    endloop
  endfacet
  facet normal -0.554929 -0.25548 -0.791697
    outer loop
      vertex 35.5214 12.0201 4.33013
      vertex 32.2291 19.1713 4.33013
      vertex 33.119 19.7007 3.53553
    endloop
  endfacet
  facet normal -0.554904 -0.255475 -0.791716
    outer loop
      vertex 35.5214 12.0201 4.33013
      vertex 33.119 19.7007 3.53553
      vertex 36.5023 12.352 3.53553
    endloop
  endfacet
  facet normal -0.34926 -0.160793 -0.923127
    outer loop
      vertex 34.3791 11.6336 4.82963
      vertex 31.1927 18.5548 4.82963
      vertex 32.2291 19.1713 4.33013
    endloop
  endfacet
  facet normal -0.349257 -0.160792 -0.923128
    outer loop
      vertex 34.3791 11.6336 4.82963
      vertex 32.2291 19.1713 4.33013
      vertex 35.5214 12.0201 4.33013
    endloop
  endfacet
  facet normal -0.119211 -0.0548829 -0.991351
    outer loop
      vertex 33.1533 11.2188 5
      vertex 30.0805 17.8932 5
      vertex 31.1927 18.5548 4.82963
    endloop
  endfacet
  facet normal -0.119213 -0.0548834 -0.991351
    outer loop
      vertex 33.1533 11.2188 5
      vertex 31.1927 18.5548 4.82963
      vertex 34.3791 11.6336 4.82963
    endloop
  endfacet
  facet normal 0.119215 0.0548843 -0.99135
    outer loop
      vertex 31.9275 10.804 4.82963
      vertex 28.9683 17.2317 4.82963
      vertex 30.0805 17.8932 5
    endloop
  endfacet
  facet normal 0.119212 0.0548837 -0.991351
    outer loop
      vertex 31.9275 10.804 4.82963
      vertex 30.0805 17.8932 5
      vertex 33.1533 11.2188 5
    endloop
  endfacet
  facet normal 0.349261 0.160791 -0.923127
    outer loop
      vertex 30.7852 10.4174 4.33013
      vertex 27.9319 16.6152 4.33013
      vertex 28.9683 17.2317 4.82963
    endloop
  endfacet
  facet normal 0.349247 0.160787 -0.923133
    outer loop
      vertex 30.7852 10.4174 4.33013
      vertex 28.9683 17.2317 4.82963
      vertex 31.9275 10.804 4.82963
    endloop
  endfacet
  facet normal 0.5549 0.255463 -0.791723
    outer loop
      vertex 29.8043 10.0855 3.53553
      vertex 27.0419 16.0858 3.53553
      vertex 27.9319 16.6152 4.33013
    endloop
  endfacet
  facet normal 0.554908 0.255465 -0.791716
    outer loop
      vertex 29.8043 10.0855 3.53553
      vertex 27.9319 16.6152 4.33013
      vertex 30.7852 10.4174 4.33013
    endloop
  endfacet
  facet normal 0.722112 0.332456 -0.606653
    outer loop
      vertex 29.0517 9.83081 2.5
      vertex 26.359 15.6795 2.5
      vertex 27.0419 16.0858 3.53553
    endloop
  endfacet
  facet normal 0.722147 0.33246 -0.606609
    outer loop
      vertex 29.0517 9.83081 2.5
      vertex 27.0419 16.0858 3.53553
      vertex 29.8043 10.0855 3.53553
    endloop
  endfacet
  facet normal 0.839897 0.386672 -0.380865
    outer loop
      vertex 28.5785 9.6707 1.2941
      vertex 25.9297 15.4242 1.2941
      vertex 26.359 15.6795 2.5
    endloop
  endfacet
  facet normal 0.839876 0.386673 -0.38091
    outer loop
      vertex 28.5785 9.6707 1.2941
      vertex 26.359 15.6795 2.5
      vertex 29.0517 9.83081 2.5
    endloop
  endfacet
  facet normal 0.900677 0.414648 -0.129801
    outer loop
      vertex 28.4171 9.61609 0
      vertex 25.7833 15.3371 0
      vertex 25.9297 15.4242 1.2941
    endloop
  endfacet
  facet normal 0.900671 0.414652 -0.12983
    outer loop
      vertex 28.4171 9.61609 0
      vertex 25.9297 15.4242 1.2941
      vertex 28.5785 9.6707 1.2941
    endloop
  endfacet
  facet normal -0.96739 -0.217476 -0.129845
    outer loop
      vertex 39.5621 4.60869 1.2941
      vertex 37.7281 12.7668 1.2941
      vertex 37.8895 12.8215 0
    endloop
  endfacet
  facet normal -0.967386 -0.217479 -0.12987
    outer loop
      vertex 39.5621 4.60869 1.2941
      vertex 37.8895 12.8215 0
      vertex 39.7314 4.6284 0
    endloop
  endfacet
  facet normal -0.902123 -0.202803 -0.380847
    outer loop
      vertex 39.066 4.55089 2.5
      vertex 37.255 12.6067 2.5
      vertex 37.7281 12.7668 1.2941
    endloop
  endfacet
  facet normal -0.902123 -0.202803 -0.380848
    outer loop
      vertex 39.066 4.55089 2.5
      vertex 37.7281 12.7668 1.2941
      vertex 39.5621 4.60869 1.2941
    endloop
  endfacet
  facet normal -0.775608 -0.174361 -0.606655
    outer loop
      vertex 38.2767 4.45895 3.53553
      vertex 36.5023 12.352 3.53553
      vertex 37.255 12.6067 2.5
    endloop
  endfacet
  facet normal -0.775604 -0.174361 -0.60666
    outer loop
      vertex 38.2767 4.45895 3.53553
      vertex 37.255 12.6067 2.5
      vertex 39.066 4.55089 2.5
    endloop
  endfacet
  facet normal -0.596013 -0.133985 -0.791717
    outer loop
      vertex 37.2481 4.33913 4.33013
      vertex 35.5214 12.0201 4.33013
      vertex 36.5023 12.352 3.53553
    endloop
  endfacet
  facet normal -0.596004 -0.133985 -0.791724
    outer loop
      vertex 37.2481 4.33913 4.33013
      vertex 36.5023 12.352 3.53553
      vertex 38.2767 4.45895 3.53553
    endloop
  endfacet
  facet normal -0.375128 -0.0843306 -0.923129
    outer loop
      vertex 36.0503 4.19959 4.82963
      vertex 34.3791 11.6336 4.82963
      vertex 35.5214 12.0201 4.33013
    endloop
  endfacet
  facet normal -0.375133 -0.0843308 -0.923127
    outer loop
      vertex 36.0503 4.19959 4.82963
      vertex 35.5214 12.0201 4.33013
      vertex 37.2481 4.33913 4.33013
    endloop
  endfacet
  facet normal -0.128044 -0.0287847 -0.991351
    outer loop
      vertex 34.7649 4.04985 5
      vertex 33.1533 11.2188 5
      vertex 34.3791 11.6336 4.82963
    endloop
  endfacet
  facet normal -0.128043 -0.0287846 -0.991351
    outer loop
      vertex 34.7649 4.04985 5
      vertex 34.3791 11.6336 4.82963
      vertex 36.0503 4.19959 4.82963
    endloop
  endfacet
  facet normal 0.128044 0.0287844 -0.991351
    outer loop
      vertex 33.4795 3.90011 4.82963
      vertex 31.9275 10.804 4.82963
      vertex 33.1533 11.2188 5
    endloop
  endfacet
  facet normal 0.128043 0.0287844 -0.991351
    outer loop
      vertex 33.4795 3.90011 4.82963
      vertex 33.1533 11.2188 5
      vertex 34.7649 4.04985 5
    endloop
  endfacet
  facet normal 0.375122 0.0843301 -0.923131
    outer loop
      vertex 32.2817 3.76058 4.33013
      vertex 30.7852 10.4174 4.33013
      vertex 31.9275 10.804 4.82963
    endloop
  endfacet
  facet normal 0.375134 0.0843304 -0.923127
    outer loop
      vertex 32.2817 3.76058 4.33013
      vertex 31.9275 10.804 4.82963
      vertex 33.4795 3.90011 4.82963
    endloop
  endfacet
  facet normal 0.59601 0.133994 -0.791718
    outer loop
      vertex 31.2532 3.64075 3.53553
      vertex 29.8043 10.0855 3.53553
      vertex 30.7852 10.4174 4.33013
    endloop
  endfacet
  facet normal 0.596039 0.133994 -0.791697
    outer loop
      vertex 31.2532 3.64075 3.53553
      vertex 30.7852 10.4174 4.33013
      vertex 32.2817 3.76058 4.33013
    endloop
  endfacet
  facet normal 0.775645 0.174366 -0.606607
    outer loop
      vertex 30.4639 3.54881 2.5
      vertex 29.0517 9.83081 2.5
      vertex 29.8043 10.0855 3.53553
    endloop
  endfacet
  facet normal 0.775602 0.17437 -0.60666
    outer loop
      vertex 30.4639 3.54881 2.5
      vertex 29.8043 10.0855 3.53553
      vertex 31.2532 3.64075 3.53553
    endloop
  endfacet
  facet normal 0.902095 0.202807 -0.380913
    outer loop
      vertex 29.9678 3.49102 1.2941
      vertex 28.5785 9.6707 1.2941
      vertex 29.0517 9.83081 2.5
    endloop
  endfacet
  facet normal 0.902124 0.202798 -0.380847
    outer loop
      vertex 29.9678 3.49102 1.2941
      vertex 29.0517 9.83081 2.5
      vertex 30.4639 3.54881 2.5
    endloop
  endfacet
  facet normal 0.967392 0.217478 -0.12983
    outer loop
      vertex 29.7985 3.4713 0
      vertex 28.4171 9.61609 0
      vertex 28.5785 9.6707 1.2941
    endloop
  endfacet
  facet normal 0.967385 0.217485 -0.129872
    outer loop
      vertex 29.7985 3.4713 0
      vertex 28.5785 9.6707 1.2941
      vertex 29.9678 3.49102 1.2941
    endloop
  endfacet
  facet normal -0.991473 -0.0107119 -0.129872
    outer loop
      vertex 39.659 -3.05591 1.18652
      vertex 39.5621 4.60869 1.2941
      vertex 39.7314 4.6284 0
    endloop
  endfacet
  facet normal -0.991595 -0.0107266 -0.128934
    outer loop
      vertex 39.5621 4.60869 1.2941
      vertex 39.659 -3.05591 1.18652
      vertex 39.645 -3.05483 1.2941
    endloop
  endfacet
  facet normal -0.991478 -0.0107054 -0.129831
    outer loop
      vertex 39.8145 -3.06789 0
      vertex 39.659 -3.05591 1.18652
      vertex 39.7314 4.6284 0
    endloop
  endfacet
  facet normal -0.924584 -0.00999294 -0.380847
    outer loop
      vertex 39.1888 -3.01968 2.40052
      vertex 39.066 4.55089 2.5
      vertex 39.5621 4.60869 1.2941
    endloop
  endfacet
  facet normal -0.92462 -0.0099947 -0.380759
    outer loop
      vertex 39.066 4.55089 2.5
      vertex 39.1888 -3.01968 2.40052
      vertex 39.1478 -3.01652 2.5
    endloop
  endfacet
  facet normal -0.924563 -0.0100014 -0.380899
    outer loop
      vertex 39.645 -3.05483 1.2941
      vertex 39.1888 -3.01968 2.40052
      vertex 39.5621 4.60869 1.2941
    endloop
  endfacet
  facet normal -0.794914 -0.0085898 -0.606661
    outer loop
      vertex 38.4216 -2.96057 3.45072
      vertex 38.2767 4.45895 3.53553
      vertex 39.066 4.55089 2.5
    endloop
  endfacet
  facet normal -0.795272 -0.00860215 -0.606191
    outer loop
      vertex 38.2767 4.45895 3.53553
      vertex 38.4216 -2.96057 3.45072
      vertex 38.3569 -2.95557 3.53553
    endloop
  endfacet
  facet normal -0.794657 -0.0086545 -0.606997
    outer loop
      vertex 39.066 4.55089 2.5
      vertex 38.4712 -2.96438 3.38584
      vertex 38.4216 -2.96057 3.45072
    endloop
  endfacet
  facet normal -0.794982 -0.00857854 -0.606572
    outer loop
      vertex 39.066 4.55089 2.5
      vertex 38.7872 -2.98874 2.97203
      vertex 38.4712 -2.96438 3.38584
    endloop
  endfacet
  facet normal -0.794888 -0.00858978 -0.606696
    outer loop
      vertex 39.066 4.55089 2.5
      vertex 39.1267 -3.01489 2.52759
      vertex 38.7872 -2.98874 2.97203
    endloop
  endfacet
  facet normal -0.794549 -0.00858868 -0.60714
    outer loop
      vertex 39.1267 -3.01489 2.52759
      vertex 39.066 4.55089 2.5
      vertex 39.1478 -3.01652 2.5
    endloop
  endfacet
  facet normal -0.610856 -0.00660359 -0.791714
    outer loop
      vertex 37.2481 4.33913 4.33013
      vertex 37.41 -2.88262 4.26545
      vertex 37.3261 -2.87615 4.33013
    endloop
  endfacet
  facet normal -0.610843 -0.00660321 -0.791724
    outer loop
      vertex 37.41 -2.88262 4.26545
      vertex 37.2481 4.33913 4.33013
      vertex 38.2767 4.45895 3.53553
    endloop
  endfacet
  facet normal -0.610827 -0.00660708 -0.791736
    outer loop
      vertex 37.4396 -2.8849 4.24264
      vertex 38.2767 4.45895 3.53553
      vertex 38.3569 -2.95557 3.53553
    endloop
  endfacet
  facet normal -0.610703 -0.00663044 -0.791832
    outer loop
      vertex 38.2767 4.45895 3.53553
      vertex 37.4396 -2.8849 4.24264
      vertex 37.41 -2.88262 4.26545
    endloop
  endfacet
  facet normal -0.38448 -0.00415684 -0.923124
    outer loop
      vertex 36.0503 4.19959 4.82963
      vertex 36.223 -2.79115 4.78918
      vertex 36.1258 -2.78366 4.82963
    endloop
  endfacet
  facet normal -0.384473 -0.00415664 -0.923127
    outer loop
      vertex 36.223 -2.79115 4.78918
      vertex 36.0503 4.19959 4.82963
      vertex 37.2481 4.33913 4.33013
    endloop
  endfacet
  facet normal -0.384475 -0.00415632 -0.923126
    outer loop
      vertex 37.3261 -2.87615 4.33013
      vertex 36.223 -2.79115 4.78918
      vertex 37.2481 4.33913 4.33013
    endloop
  endfacet
  facet normal -0.131178 -0.00141809 -0.991358
    outer loop
      vertex 34.7649 4.04985 5
      vertex 34.9417 -2.69242 4.98625
      vertex 34.8377 -2.68441 5
    endloop
  endfacet
  facet normal -0.131231 -0.00141948 -0.991351
    outer loop
      vertex 34.9417 -2.69242 4.98625
      vertex 34.7649 4.04985 5
      vertex 36.0503 4.19959 4.82963
    endloop
  endfacet
  facet normal -0.131234 -0.00141885 -0.99135
    outer loop
      vertex 36.1258 -2.78366 4.82963
      vertex 34.9417 -2.69242 4.98625
      vertex 36.0503 4.19959 4.82963
    endloop
  endfacet
  facet normal 0.131115 0.00141723 -0.991366
    outer loop
      vertex 33.4795 3.90011 4.82963
      vertex 33.6535 -2.59316 4.84336
      vertex 33.5496 -2.58515 4.82963
    endloop
  endfacet
  facet normal 0.131231 0.00142037 -0.991351
    outer loop
      vertex 33.6535 -2.59316 4.84336
      vertex 33.4795 3.90011 4.82963
      vertex 34.7649 4.04985 5
    endloop
  endfacet
  facet normal 0.13124 0.00141876 -0.99135
    outer loop
      vertex 34.8377 -2.68441 5
      vertex 33.6535 -2.59316 4.84336
      vertex 34.7649 4.04985 5
    endloop
  endfacet
  facet normal 0.384357 0.00415505 -0.923175
    outer loop
      vertex 32.2817 3.76058 4.33013
      vertex 32.4462 -2.50013 4.37044
      vertex 32.3493 -2.49266 4.33013
    endloop
  endfacet
  facet normal 0.384473 0.0041584 -0.923127
    outer loop
      vertex 32.4462 -2.50013 4.37044
      vertex 32.2817 3.76058 4.33013
      vertex 33.4795 3.90011 4.82963
    endloop
  endfacet
  facet normal 0.384486 0.00415596 -0.923122
    outer loop
      vertex 33.5496 -2.58515 4.82963
      vertex 32.4462 -2.50013 4.37044
      vertex 33.4795 3.90011 4.82963
    endloop
  endfacet
  facet normal 0.610846 0.00659884 -0.791722
    outer loop
      vertex 31.2532 3.64075 3.53553
      vertex 31.4021 -2.41968 3.5999
      vertex 31.3186 -2.41324 3.53553
    endloop
  endfacet
  facet normal 0.61088 0.00659997 -0.791695
    outer loop
      vertex 31.4021 -2.41968 3.5999
      vertex 31.2532 3.64075 3.53553
      vertex 32.2817 3.76058 4.33013
    endloop
  endfacet
  facet normal 0.610815 0.00660315 -0.791746
    outer loop
      vertex 32.2358 -2.48392 4.24264
      vertex 32.2817 3.76058 4.33013
      vertex 32.3493 -2.49266 4.33013
    endloop
  endfacet
  facet normal 0.610871 0.00660214 -0.791703
    outer loop
      vertex 32.2817 3.76058 4.33013
      vertex 32.2358 -2.48392 4.24264
      vertex 31.4021 -2.41968 3.5999
    endloop
  endfacet
  facet normal 0.794915 0.00858434 -0.606661
    outer loop
      vertex 30.5921 -2.35727 2.58441
      vertex 30.4639 3.54881 2.5
      vertex 31.2532 3.64075 3.53553
    endloop
  endfacet
  facet normal 0.795248 0.00859785 -0.606223
    outer loop
      vertex 30.4639 3.54881 2.5
      vertex 30.5921 -2.35727 2.58441
      vertex 30.5277 -2.3523 2.5
    endloop
  endfacet
  facet normal 0.794916 0.00858378 -0.606658
    outer loop
      vertex 31.2532 3.64075 3.53553
      vertex 30.8413 -2.37647 2.91067
      vertex 30.5921 -2.35727 2.58441
    endloop
  endfacet
  facet normal 0.7949 0.00858714 -0.60668
    outer loop
      vertex 30.8413 -2.37647 2.91067
      vertex 31.2532 3.64075 3.53553
      vertex 31.3186 -2.41324 3.53553
    endloop
  endfacet
  facet normal 0.924584 0.00999172 -0.380847
    outer loop
      vertex 30.0714 -2.31714 1.39323
      vertex 29.9678 3.49102 1.2941
      vertex 30.4639 3.54881 2.5
    endloop
  endfacet
  facet normal 0.924475 0.00998527 -0.381111
    outer loop
      vertex 29.9678 3.49102 1.2941
      vertex 30.0714 -2.31714 1.39323
      vertex 30.0305 -2.31399 1.2941
    endloop
  endfacet
  facet normal 0.924603 0.00998182 -0.380801
    outer loop
      vertex 30.4639 3.54881 2.5
      vertex 30.3957 -2.34213 2.17999
      vertex 30.0714 -2.31714 1.39323
    endloop
  endfacet
  facet normal 0.924509 0.00999535 -0.38103
    outer loop
      vertex 30.3957 -2.34213 2.17999
      vertex 30.4639 3.54881 2.5
      vertex 30.5277 -2.3523 2.5
    endloop
  endfacet
  facet normal 0.991473 0.0107208 -0.129872
    outer loop
      vertex 29.875 -2.30201 0.107436
      vertex 29.7985 3.4713 0
      vertex 29.9678 3.49102 1.2941
    endloop
  endfacet
  facet normal 0.991455 0.010718 -0.130011
    outer loop
      vertex 29.7985 3.4713 0
      vertex 29.875 -2.30201 0.107436
      vertex 29.8609 -2.30092 0
    endloop
  endfacet
  facet normal 0.99148 0.010709 -0.129815
    outer loop
      vertex 30.0305 -2.31399 1.2941
      vertex 29.875 -2.30201 0.107436
      vertex 29.9678 3.49102 1.2941
    endloop
  endfacet
  facet normal 0 0 -1
    outer loop
      vertex 39.7314 4.6284 0
      vertex 40.8789 -3.14991 0
      vertex 39.8145 -3.06789 0
    endloop
  endfacet
  facet normal 0 0 -1
    outer loop
      vertex 40.8789 -3.14991 0
      vertex 39.7314 4.6284 0
      vertex 40.659 5.27677 0
    endloop
  endfacet
  facet normal 0 0 -1
    outer loop
      vertex 37.8895 12.8215 0
      vertex 40.659 5.27677 0
      vertex 39.7314 4.6284 0
    endloop
  endfacet
  facet normal 0 0 -1
    outer loop
      vertex 40.659 5.27677 0
      vertex 37.8895 12.8215 0
      vertex 38.7206 13.4804 0
    endloop
  endfacet
  facet normal 0 0 -1
    outer loop
      vertex 34.3777 20.4494 0
      vertex 38.7206 13.4804 0
      vertex 37.8895 12.8215 0
    endloop
  endfacet
  facet normal 0 0 -1
    outer loop
      vertex 38.7206 13.4804 0
      vertex 34.3777 20.4494 0
      vertex 35.1453 21.1142 0
    endloop
  endfacet
  facet normal 0 0 -1
    outer loop
      vertex 29.3507 27.1761 0
      vertex 35.1453 21.1142 0
      vertex 34.3777 20.4494 0
    endloop
  endfacet
  facet normal 0 0 -1
    outer loop
      vertex 35.1453 21.1142 0
      vertex 29.3507 27.1761 0
      vertex 30.0845 27.8555 0
    endloop
  endfacet
  facet normal 0 0 -1
    outer loop
      vertex 29.3507 27.1761 0
      vertex 23.7519 33.4193 0
      vertex 30.0845 27.8555 0
    endloop
  endfacet
  facet normal 0 0 -1
    outer loop
      vertex 23.0301 32.705 0
      vertex 23.7519 33.4193 0
      vertex 29.3507 27.1761 0
    endloop
  endfacet
  facet normal 0 0 -1
    outer loop
      vertex 23.0301 32.705 0
      vertex 16.4153 37.5705 0
      vertex 23.7519 33.4193 0
    endloop
  endfacet
  facet normal 0 0 -1
    outer loop
      vertex 15.6945 36.7925 0
      vertex 16.4153 37.5705 0
      vertex 23.0301 32.705 0
    endloop
  endfacet
  facet normal 0 0 -1
    outer loop
      vertex 15.6945 36.7925 0
      vertex 8.38489 40.1335 0
      vertex 16.4153 37.5705 0
    endloop
  endfacet
  facet normal 0 0 -1
    outer loop
      vertex 7.66716 39.2583 0
      vertex 8.38489 40.1335 0
      vertex 15.6945 36.7925 0
    endloop
  endfacet
  facet normal 0 0 -1
    outer loop
      vertex 7.66716 39.2583 0
      vertex 9.10384e-15 41 0
      vertex 8.38489 40.1335 0
    endloop
  endfacet
  facet normal 0 -0 -1
    outer loop
      vertex 9.10384e-15 41 0
      vertex 7.66716 39.2583 0
      vertex 8.86681e-15 39.9326 0
    endloop
  endfacet
  facet normal 0 0 -1
    outer loop
      vertex 28.9143 -2.22798 0
      vertex 29.7985 3.4713 0
      vertex 29.8609 -2.30092 0
    endloop
  endfacet
  facet normal 0 0 -1
    outer loop
      vertex 28.7589 3.73235 0
      vertex 29.7985 3.4713 0
      vertex 28.9143 -2.22798 0
    endloop
  endfacet
  facet normal 0 0 -1
    outer loop
      vertex 28.7589 3.73235 0
      vertex 28.4171 9.61609 0
      vertex 29.7985 3.4713 0
    endloop
  endfacet
  facet normal 0 0 -1
    outer loop
      vertex 27.3877 9.53492 0
      vertex 28.4171 9.61609 0
      vertex 28.7589 3.73235 0
    endloop
  endfacet
  facet normal 0 0 -1
    outer loop
      vertex 27.3877 9.53492 0
      vertex 25.7833 15.3371 0
      vertex 28.4171 9.61609 0
    endloop
  endfacet
  facet normal 0 0 -1
    outer loop
      vertex 24.8589 14.9344 0
      vertex 25.7833 15.3371 0
      vertex 27.3877 9.53492 0
    endloop
  endfacet
  facet normal 0 0 -1
    outer loop
      vertex 24.8589 14.9344 0
      vertex 22.013 20.3821 0
      vertex 25.7833 15.3371 0
    endloop
  endfacet
  facet normal 0 0 -1
    outer loop
      vertex 21.2793 19.7027 0
      vertex 22.013 20.3821 0
      vertex 24.8589 14.9344 0
    endloop
  endfacet
  facet normal 0 0 -1
    outer loop
      vertex 16.8001 23.6381 0
      vertex 22.013 20.3821 0
      vertex 21.2793 19.7027 0
    endloop
  endfacet
  facet normal 0 0 -1
    outer loop
      vertex 22.013 20.3821 0
      vertex 16.8001 23.6381 0
      vertex 17.2726 24.5288 0
    endloop
  endfacet
  facet normal 0 0 -1
    outer loop
      vertex 11.6109 26.5742 0
      vertex 17.2726 24.5288 0
      vertex 16.8001 23.6381 0
    endloop
  endfacet
  facet normal 0 0 -1
    outer loop
      vertex 17.2726 24.5288 0
      vertex 11.6109 26.5742 0
      vertex 11.7709 27.5944 0
    endloop
  endfacet
  facet normal 0 0 -1
    outer loop
      vertex 5.93078 28.3871 0
      vertex 11.7709 27.5944 0
      vertex 11.6109 26.5742 0
    endloop
  endfacet
  facet normal 0 0 -1
    outer loop
      vertex 5.93078 28.3871 0
      vertex 5.75037 29.4438 0
      vertex 11.7709 27.5944 0
    endloop
  endfacet
  facet normal 0 0 -1
    outer loop
      vertex 6.4393e-15 29 0
      vertex 5.75037 29.4438 0
      vertex 5.93078 28.3871 0
    endloop
  endfacet
  facet normal -0 0 -1
    outer loop
      vertex 5.75037 29.4438 0
      vertex 6.4393e-15 29 0
      vertex 6.65011e-15 29.9494 0
    endloop
  endfacet
endsolid OpenSCAD_Model
