solid OpenSCAD_Model
  facet normal -0 0.130529 0.991445
    outer loop
      vertex 15.6969 1.03528 3.8637
      vertex 17 0 4
      vertex 17 1.03528 3.8637
    endloop
  endfacet
  facet normal 0 0.130529 0.991445
    outer loop
      vertex 17 0 4
      vertex 15.6969 1.03528 3.8637
      vertex 15.6969 0 4
    endloop
  endfacet
  facet normal 0 1 -0
    outer loop
      vertex 17 4 0
      vertex 15.6969 4 2.22045e-16
      vertex 17 4 5.11391e-16
    endloop
  endfacet
  facet normal 0 1 0
    outer loop
      vertex 15.6969 4 2.22045e-16
      vertex 17 4 0
      vertex 15.6969 4 0
    endloop
  endfacet
  facet normal 0 -0.991445 0.130529
    outer loop
      vertex 15.6969 -3.8637 1.03528
      vertex 17 -4 5.11391e-16
      vertex 17 -3.8637 1.03528
    endloop
  endfacet
  facet normal -2.89832e-17 -0.991445 0.130529
    outer loop
      vertex 17 -4 5.11391e-16
      vertex 15.6969 -3.8637 1.03528
      vertex 15.6969 -4 2.22045e-16
    endloop
  endfacet
  facet normal 0 0.793356 0.608757
    outer loop
      vertex 17 3.4641 2
      vertex 15.6969 2.82843 2.82843
      vertex 17 2.82843 2.82843
    endloop
  endfacet
  facet normal 0 0.793356 0.608757
    outer loop
      vertex 15.6969 2.82843 2.82843
      vertex 17 3.4641 2
      vertex 15.6969 3.4641 2
    endloop
  endfacet
  facet normal -0 0.608757 0.793356
    outer loop
      vertex 15.6969 2.82843 2.82843
      vertex 17 2 3.4641
      vertex 17 2.82843 2.82843
    endloop
  endfacet
  facet normal 0 0.608757 0.793356
    outer loop
      vertex 17 2 3.4641
      vertex 15.6969 2.82843 2.82843
      vertex 15.6969 2 3.4641
    endloop
  endfacet
  facet normal 0 0.92388 0.382683
    outer loop
      vertex 17 3.8637 1.03528
      vertex 15.6969 3.4641 2
      vertex 17 3.4641 2
    endloop
  endfacet
  facet normal 0 0.92388 0.382683
    outer loop
      vertex 15.6969 3.4641 2
      vertex 17 3.8637 1.03528
      vertex 15.6969 3.8637 1.03528
    endloop
  endfacet
  facet normal 0 -0.793356 0.608757
    outer loop
      vertex 15.6969 -3.4641 2
      vertex 17 -2.82843 2.82843
      vertex 15.6969 -2.82843 2.82843
    endloop
  endfacet
  facet normal 0 -0.793356 0.608757
    outer loop
      vertex 17 -2.82843 2.82843
      vertex 15.6969 -3.4641 2
      vertex 17 -3.4641 2
    endloop
  endfacet
  facet normal -1 0 0
    outer loop
      vertex 14.6969 2.89778 0.776457
      vertex 14.6969 4.82963 1.2941
      vertex 14.6969 5 0
    endloop
  endfacet
  facet normal -1 -0 0
    outer loop
      vertex 14.6969 4.82963 1.2941
      vertex 14.6969 2.89778 0.776457
      vertex 14.6969 4.33013 2.5
    endloop
  endfacet
  facet normal -1 0 0
    outer loop
      vertex 14.6969 2.89778 0.776457
      vertex 14.6969 5 0
      vertex 14.6969 3 0
    endloop
  endfacet
  facet normal -1 0 0
    outer loop
      vertex 14.6969 2.59808 1.5
      vertex 14.6969 4.33013 2.5
      vertex 14.6969 2.89778 0.776457
    endloop
  endfacet
  facet normal -1 -0 0
    outer loop
      vertex 14.6969 4.33013 2.5
      vertex 14.6969 2.59808 1.5
      vertex 14.6969 3.53553 3.53553
    endloop
  endfacet
  facet normal -1 0 0
    outer loop
      vertex 14.6969 2.12132 2.12132
      vertex 14.6969 3.53553 3.53553
      vertex 14.6969 2.59808 1.5
    endloop
  endfacet
  facet normal -1 -0 0
    outer loop
      vertex 14.6969 3.53553 3.53553
      vertex 14.6969 2.12132 2.12132
      vertex 14.6969 2.5 4.33013
    endloop
  endfacet
  facet normal -1 0 0
    outer loop
      vertex 14.6969 1.5 2.59808
      vertex 14.6969 2.5 4.33013
      vertex 14.6969 2.12132 2.12132
    endloop
  endfacet
  facet normal -1 0 0
    outer loop
      vertex 14.6969 1.5 2.59808
      vertex 14.6969 1.2941 4.82963
      vertex 14.6969 2.5 4.33013
    endloop
  endfacet
  facet normal -1 0 0
    outer loop
      vertex 14.6969 0.776457 2.89778
      vertex 14.6969 1.2941 4.82963
      vertex 14.6969 1.5 2.59808
    endloop
  endfacet
  facet normal -1 0 0
    outer loop
      vertex 14.6969 0 3
      vertex 14.6969 1.2941 4.82963
      vertex 14.6969 0.776457 2.89778
    endloop
  endfacet
  facet normal -1 0 0
    outer loop
      vertex 14.6969 0 3
      vertex 14.6969 0 5
      vertex 14.6969 1.2941 4.82963
    endloop
  endfacet
  facet normal -1 0 0
    outer loop
      vertex 14.6969 -0.776457 2.89778
      vertex 14.6969 0 5
      vertex 14.6969 0 3
    endloop
  endfacet
  facet normal -1 0 0
    outer loop
      vertex 14.6969 -0.776457 2.89778
      vertex 14.6969 -1.2941 4.82963
      vertex 14.6969 0 5
    endloop
  endfacet
  facet normal -1 0 0
    outer loop
      vertex 14.6969 -1.5 2.59808
      vertex 14.6969 -1.2941 4.82963
      vertex 14.6969 -0.776457 2.89778
    endloop
  endfacet
  facet normal -1 0 0
    outer loop
      vertex 14.6969 -2.5 4.33013
      vertex 14.6969 -1.5 2.59808
      vertex 14.6969 -2.12132 2.12132
    endloop
  endfacet
  facet normal -1 0 0
    outer loop
      vertex 14.6969 -1.5 2.59808
      vertex 14.6969 -2.5 4.33013
      vertex 14.6969 -1.2941 4.82963
    endloop
  endfacet
  facet normal -1 0 0
    outer loop
      vertex 14.6969 -3.53553 3.53553
      vertex 14.6969 -2.12132 2.12132
      vertex 14.6969 -2.59808 1.5
    endloop
  endfacet
  facet normal -1 0 0
    outer loop
      vertex 14.6969 -4.33013 2.5
      vertex 14.6969 -2.59808 1.5
      vertex 14.6969 -2.89778 0.776457
    endloop
  endfacet
  facet normal -1 0 0
    outer loop
      vertex 14.6969 -4.82963 1.2941
      vertex 14.6969 -2.89778 0.776457
      vertex 14.6969 -3 0
    endloop
  endfacet
  facet normal -1 0 0
    outer loop
      vertex 14.6969 -2.12132 2.12132
      vertex 14.6969 -3.53553 3.53553
      vertex 14.6969 -2.5 4.33013
    endloop
  endfacet
  facet normal -1 0 0
    outer loop
      vertex 14.6969 -2.59808 1.5
      vertex 14.6969 -4.33013 2.5
      vertex 14.6969 -3.53553 3.53553
    endloop
  endfacet
  facet normal -1 0 0
    outer loop
      vertex 14.6969 -2.89778 0.776457
      vertex 14.6969 -4.82963 1.2941
      vertex 14.6969 -4.33013 2.5
    endloop
  endfacet
  facet normal -1 0 -0
    outer loop
      vertex 14.6969 -4.82963 1.2941
      vertex 14.6969 -3 0
      vertex 14.6969 -5 0
    endloop
  endfacet
  facet normal -0 0.382683 0.92388
    outer loop
      vertex 15.6969 2 3.4641
      vertex 17 1.03528 3.8637
      vertex 17 2 3.4641
    endloop
  endfacet
  facet normal 0 0.382683 0.92388
    outer loop
      vertex 17 1.03528 3.8637
      vertex 15.6969 2 3.4641
      vertex 15.6969 1.03528 3.8637
    endloop
  endfacet
  facet normal 0 0.991445 0.130529
    outer loop
      vertex 17 4 5.11391e-16
      vertex 15.6969 3.8637 1.03528
      vertex 17 3.8637 1.03528
    endloop
  endfacet
  facet normal -2.03978e-17 0.991445 0.130529
    outer loop
      vertex 15.6969 3.8637 1.03528
      vertex 17 4 5.11391e-16
      vertex 15.6969 4 2.22045e-16
    endloop
  endfacet
  facet normal 0 -1 0
    outer loop
      vertex 15.6969 -4 0
      vertex 17 -4 5.11391e-16
      vertex 15.6969 -4 2.22045e-16
    endloop
  endfacet
  facet normal 0 -1 -0
    outer loop
      vertex 17 -4 5.11391e-16
      vertex 15.6969 -4 0
      vertex 17 -4 0
    endloop
  endfacet
  facet normal 0 -0.92388 0.382683
    outer loop
      vertex 15.6969 -3.8637 1.03528
      vertex 17 -3.4641 2
      vertex 15.6969 -3.4641 2
    endloop
  endfacet
  facet normal 0 -0.92388 0.382683
    outer loop
      vertex 17 -3.4641 2
      vertex 15.6969 -3.8637 1.03528
      vertex 17 -3.8637 1.03528
    endloop
  endfacet
  facet normal 0 -0.608757 0.793356
    outer loop
      vertex 15.6969 -2 3.4641
      vertex 17 -2.82843 2.82843
      vertex 17 -2 3.4641
    endloop
  endfacet
  facet normal 0 -0.608757 0.793356
    outer loop
      vertex 17 -2.82843 2.82843
      vertex 15.6969 -2 3.4641
      vertex 15.6969 -2.82843 2.82843
    endloop
  endfacet
  facet normal 0 -0.130529 0.991445
    outer loop
      vertex 15.6969 0 4
      vertex 17 -1.03528 3.8637
      vertex 17 0 4
    endloop
  endfacet
  facet normal 0 -0.130529 0.991445
    outer loop
      vertex 17 -1.03528 3.8637
      vertex 15.6969 0 4
      vertex 15.6969 -1.03528 3.8637
    endloop
  endfacet
  facet normal 0 -0.382683 0.92388
    outer loop
      vertex 15.6969 -1.03528 3.8637
      vertex 17 -2 3.4641
      vertex 17 -1.03528 3.8637
    endloop
  endfacet
  facet normal 0 -0.382683 0.92388
    outer loop
      vertex 17 -2 3.4641
      vertex 15.6969 -1.03528 3.8637
      vertex 15.6969 -2 3.4641
    endloop
  endfacet
  facet normal 0 -0.382682 -0.92388
    outer loop
      vertex 14.6969 0.776457 2.89778
      vertex 18 1.5 2.59808
      vertex 18 0.776457 2.89778
    endloop
  endfacet
  facet normal -0 -0.382682 -0.92388
    outer loop
      vertex 18 1.5 2.59808
      vertex 14.6969 0.776457 2.89778
      vertex 14.6969 1.5 2.59808
    endloop
  endfacet
  facet normal 0 0.92388 -0.382682
    outer loop
      vertex 18 -2.89778 0.776457
      vertex 14.6969 -2.59808 1.5
      vertex 18 -2.59808 1.5
    endloop
  endfacet
  facet normal 0 0.92388 -0.382682
    outer loop
      vertex 14.6969 -2.59808 1.5
      vertex 18 -2.89778 0.776457
      vertex 14.6969 -2.89778 0.776457
    endloop
  endfacet
  facet normal 0 -1 0
    outer loop
      vertex 18 3 0
      vertex 18 3 7.33436e-16
      vertex 14.6969 3 0
    endloop
  endfacet
  facet normal 0 -0.92388 -0.382682
    outer loop
      vertex 14.6969 2.89778 0.776457
      vertex 18 2.59808 1.5
      vertex 14.6969 2.59808 1.5
    endloop
  endfacet
  facet normal 0 -0.92388 -0.382682
    outer loop
      vertex 18 2.59808 1.5
      vertex 14.6969 2.89778 0.776457
      vertex 18 2.89778 0.776457
    endloop
  endfacet
  facet normal 0 -0.793351 -0.608765
    outer loop
      vertex 14.6969 2.59808 1.5
      vertex 18 2.12132 2.12132
      vertex 14.6969 2.12132 2.12132
    endloop
  endfacet
  facet normal 0 -0.793351 -0.608765
    outer loop
      vertex 18 2.12132 2.12132
      vertex 14.6969 2.59808 1.5
      vertex 18 2.59808 1.5
    endloop
  endfacet
  facet normal 0 0.793351 -0.608765
    outer loop
      vertex 18 -2.59808 1.5
      vertex 14.6969 -2.12132 2.12132
      vertex 18 -2.12132 2.12132
    endloop
  endfacet
  facet normal 0 0.793351 -0.608765
    outer loop
      vertex 14.6969 -2.12132 2.12132
      vertex 18 -2.59808 1.5
      vertex 14.6969 -2.59808 1.5
    endloop
  endfacet
  facet normal 0 -0.130523 -0.991445
    outer loop
      vertex 14.6969 0 3
      vertex 18 0.776457 2.89778
      vertex 18 0 3
    endloop
  endfacet
  facet normal -0 -0.130523 -0.991445
    outer loop
      vertex 18 0.776457 2.89778
      vertex 14.6969 0 3
      vertex 14.6969 0.776457 2.89778
    endloop
  endfacet
  facet normal 0 -0.608765 -0.793351
    outer loop
      vertex 14.6969 1.5 2.59808
      vertex 18 2.12132 2.12132
      vertex 18 1.5 2.59808
    endloop
  endfacet
  facet normal -0 -0.608765 -0.793351
    outer loop
      vertex 18 2.12132 2.12132
      vertex 14.6969 1.5 2.59808
      vertex 14.6969 2.12132 2.12132
    endloop
  endfacet
  facet normal 0 -0.991445 -0.130523
    outer loop
      vertex 14.6969 2.89778 0.776457
      vertex 18 3 7.33436e-16
      vertex 18 2.89778 0.776457
    endloop
  endfacet
  facet normal 2.8982e-17 -0.991445 -0.130523
    outer loop
      vertex 18 3 7.33436e-16
      vertex 14.6969 2.89778 0.776457
      vertex 14.6969 3 0
    endloop
  endfacet
  facet normal 0 1 0
    outer loop
      vertex 18 -3 7.33436e-16
      vertex 18 -3 0
      vertex 14.6969 -3 0
    endloop
  endfacet
  facet normal 0 0.991445 -0.130523
    outer loop
      vertex 18 -3 7.33436e-16
      vertex 14.6969 -2.89778 0.776457
      vertex 18 -2.89778 0.776457
    endloop
  endfacet
  facet normal 3.21885e-17 0.991445 -0.130523
    outer loop
      vertex 14.6969 -2.89778 0.776457
      vertex 18 -3 7.33436e-16
      vertex 14.6969 -3 0
    endloop
  endfacet
  facet normal 0 0.608765 -0.793351
    outer loop
      vertex 14.6969 -2.12132 2.12132
      vertex 18 -1.5 2.59808
      vertex 18 -2.12132 2.12132
    endloop
  endfacet
  facet normal 0 0.608765 -0.793351
    outer loop
      vertex 18 -1.5 2.59808
      vertex 14.6969 -2.12132 2.12132
      vertex 14.6969 -1.5 2.59808
    endloop
  endfacet
  facet normal 0 0.130523 -0.991445
    outer loop
      vertex 14.6969 -0.776457 2.89778
      vertex 18 0 3
      vertex 18 -0.776457 2.89778
    endloop
  endfacet
  facet normal 0 0.130523 -0.991445
    outer loop
      vertex 18 0 3
      vertex 14.6969 -0.776457 2.89778
      vertex 14.6969 0 3
    endloop
  endfacet
  facet normal 0 0.382682 -0.92388
    outer loop
      vertex 14.6969 -1.5 2.59808
      vertex 18 -0.776457 2.89778
      vertex 18 -1.5 2.59808
    endloop
  endfacet
  facet normal 0 0.382682 -0.92388
    outer loop
      vertex 18 -0.776457 2.89778
      vertex 14.6969 -1.5 2.59808
      vertex 14.6969 -0.776457 2.89778
    endloop
  endfacet
  facet normal -0 0.130525 0.991445
    outer loop
      vertex 14.6969 1.2941 4.82963
      vertex 15.6969 0 5
      vertex 15.6969 1.2941 4.82963
    endloop
  endfacet
  facet normal 0 0.130525 0.991445
    outer loop
      vertex 15.6969 0 5
      vertex 14.6969 1.2941 4.82963
      vertex 14.6969 0 5
    endloop
  endfacet
  facet normal 0 -0.92388 0.382683
    outer loop
      vertex 14.6969 -4.82963 1.2941
      vertex 15.6969 -4.33013 2.5
      vertex 14.6969 -4.33013 2.5
    endloop
  endfacet
  facet normal 0 -0.92388 0.382683
    outer loop
      vertex 15.6969 -4.33013 2.5
      vertex 14.6969 -4.82963 1.2941
      vertex 15.6969 -4.82963 1.2941
    endloop
  endfacet
  facet normal 0 0.991445 0.130525
    outer loop
      vertex 15.6969 5 2.22045e-16
      vertex 14.6969 4.82963 1.2941
      vertex 15.6969 4.82963 1.2941
    endloop
  endfacet
  facet normal -4.25286e-17 0.991445 0.130525
    outer loop
      vertex 14.6969 4.82963 1.2941
      vertex 15.6969 5 2.22045e-16
      vertex 14.6969 5 0
    endloop
  endfacet
  facet normal -0 0.382683 0.92388
    outer loop
      vertex 14.6969 2.5 4.33013
      vertex 15.6969 1.2941 4.82963
      vertex 15.6969 2.5 4.33013
    endloop
  endfacet
  facet normal 0 0.382683 0.92388
    outer loop
      vertex 15.6969 1.2941 4.82963
      vertex 14.6969 2.5 4.33013
      vertex 14.6969 1.2941 4.82963
    endloop
  endfacet
  facet normal 0 -0.130525 0.991445
    outer loop
      vertex 14.6969 0 5
      vertex 15.6969 -1.2941 4.82963
      vertex 15.6969 0 5
    endloop
  endfacet
  facet normal 0 -0.130525 0.991445
    outer loop
      vertex 15.6969 -1.2941 4.82963
      vertex 14.6969 0 5
      vertex 14.6969 -1.2941 4.82963
    endloop
  endfacet
  facet normal 0 -0.79335 0.608766
    outer loop
      vertex 14.6969 -4.33013 2.5
      vertex 15.6969 -3.53553 3.53553
      vertex 14.6969 -3.53553 3.53553
    endloop
  endfacet
  facet normal 0 -0.79335 0.608766
    outer loop
      vertex 15.6969 -3.53553 3.53553
      vertex 14.6969 -4.33013 2.5
      vertex 15.6969 -4.33013 2.5
    endloop
  endfacet
  facet normal 0 1 -0
    outer loop
      vertex 15.6969 5 0
      vertex 14.6969 5 0
      vertex 15.6969 5 2.22045e-16
    endloop
  endfacet
  facet normal 1 0 0
    outer loop
      vertex 15.6969 4.82963 1.2941
      vertex 15.6969 3.8637 1.03528
      vertex 15.6969 4 2.22045e-16
    endloop
  endfacet
  facet normal 1 0 0
    outer loop
      vertex 15.6969 3.4641 2
      vertex 15.6969 4.33013 2.5
      vertex 15.6969 3.53553 3.53553
    endloop
  endfacet
  facet normal 1 0 0
    outer loop
      vertex 15.6969 4.33013 2.5
      vertex 15.6969 3.4641 2
      vertex 15.6969 3.8637 1.03528
    endloop
  endfacet
  facet normal 1 0 0
    outer loop
      vertex 15.6969 3.53553 3.53553
      vertex 15.6969 2.82843 2.82843
      vertex 15.6969 3.4641 2
    endloop
  endfacet
  facet normal 1 0 0
    outer loop
      vertex 15.6969 2.5 4.33013
      vertex 15.6969 2.82843 2.82843
      vertex 15.6969 3.53553 3.53553
    endloop
  endfacet
  facet normal 1 0 0
    outer loop
      vertex 15.6969 2.5 4.33013
      vertex 15.6969 2 3.4641
      vertex 15.6969 2.82843 2.82843
    endloop
  endfacet
  facet normal 1 0 0
    outer loop
      vertex 15.6969 1.2941 4.82963
      vertex 15.6969 2 3.4641
      vertex 15.6969 2.5 4.33013
    endloop
  endfacet
  facet normal 1 0 0
    outer loop
      vertex 15.6969 1.2941 4.82963
      vertex 15.6969 1.03528 3.8637
      vertex 15.6969 2 3.4641
    endloop
  endfacet
  facet normal 1 0 0
    outer loop
      vertex 15.6969 0 5
      vertex 15.6969 1.03528 3.8637
      vertex 15.6969 1.2941 4.82963
    endloop
  endfacet
  facet normal 1 0 0
    outer loop
      vertex 15.6969 0 5
      vertex 15.6969 0 4
      vertex 15.6969 1.03528 3.8637
    endloop
  endfacet
  facet normal 1 0 0
    outer loop
      vertex 15.6969 0 5
      vertex 15.6969 -1.03528 3.8637
      vertex 15.6969 0 4
    endloop
  endfacet
  facet normal 1 -0 0
    outer loop
      vertex 15.6969 -1.2941 4.82963
      vertex 15.6969 -1.03528 3.8637
      vertex 15.6969 0 5
    endloop
  endfacet
  facet normal 1 0 0
    outer loop
      vertex 15.6969 -1.2941 4.82963
      vertex 15.6969 -2 3.4641
      vertex 15.6969 -1.03528 3.8637
    endloop
  endfacet
  facet normal 1 -0 0
    outer loop
      vertex 15.6969 -2.5 4.33013
      vertex 15.6969 -2 3.4641
      vertex 15.6969 -1.2941 4.82963
    endloop
  endfacet
  facet normal 1 0 0
    outer loop
      vertex 15.6969 -2.5 4.33013
      vertex 15.6969 -2.82843 2.82843
      vertex 15.6969 -2 3.4641
    endloop
  endfacet
  facet normal 1 -0 0
    outer loop
      vertex 15.6969 -3.53553 3.53553
      vertex 15.6969 -2.82843 2.82843
      vertex 15.6969 -2.5 4.33013
    endloop
  endfacet
  facet normal 1 0 0
    outer loop
      vertex 15.6969 -2.82843 2.82843
      vertex 15.6969 -3.53553 3.53553
      vertex 15.6969 -3.4641 2
    endloop
  endfacet
  facet normal 1 -0 0
    outer loop
      vertex 15.6969 -4.33013 2.5
      vertex 15.6969 -3.4641 2
      vertex 15.6969 -3.53553 3.53553
    endloop
  endfacet
  facet normal 1 0 0
    outer loop
      vertex 15.6969 -3.4641 2
      vertex 15.6969 -4.33013 2.5
      vertex 15.6969 -3.8637 1.03528
    endloop
  endfacet
  facet normal 1 -0 0
    outer loop
      vertex 15.6969 -4.82963 1.2941
      vertex 15.6969 -3.8637 1.03528
      vertex 15.6969 -4.33013 2.5
    endloop
  endfacet
  facet normal 1 0 0
    outer loop
      vertex 15.6969 -3.8637 1.03528
      vertex 15.6969 -4.82963 1.2941
      vertex 15.6969 -4 2.22045e-16
    endloop
  endfacet
  facet normal 1 0 0
    outer loop
      vertex 15.6969 -5 2.22045e-16
      vertex 15.6969 -4 2.22045e-16
      vertex 15.6969 -4.82963 1.2941
    endloop
  endfacet
  facet normal 1 0 0
    outer loop
      vertex 15.6969 -4 2.22045e-16
      vertex 15.6969 -5 2.22045e-16
      vertex 15.6969 -4 0
    endloop
  endfacet
  facet normal 1 0 0
    outer loop
      vertex 15.6969 -4 0
      vertex 15.6969 -5 2.22045e-16
      vertex 15.6969 -5 0
    endloop
  endfacet
  facet normal 1 0 0
    outer loop
      vertex 15.6969 4 2.22045e-16
      vertex 15.6969 5 2.22045e-16
      vertex 15.6969 4.82963 1.2941
    endloop
  endfacet
  facet normal 1 0 0
    outer loop
      vertex 15.6969 3.8637 1.03528
      vertex 15.6969 4.82963 1.2941
      vertex 15.6969 4.33013 2.5
    endloop
  endfacet
  facet normal 1 0 0
    outer loop
      vertex 15.6969 5 2.22045e-16
      vertex 15.6969 4 2.22045e-16
      vertex 15.6969 5 0
    endloop
  endfacet
  facet normal 1 0 0
    outer loop
      vertex 15.6969 5 0
      vertex 15.6969 4 2.22045e-16
      vertex 15.6969 4 0
    endloop
  endfacet
  facet normal -0 0.608766 0.79335
    outer loop
      vertex 14.6969 3.53553 3.53553
      vertex 15.6969 2.5 4.33013
      vertex 15.6969 3.53553 3.53553
    endloop
  endfacet
  facet normal 0 0.608766 0.79335
    outer loop
      vertex 15.6969 2.5 4.33013
      vertex 14.6969 3.53553 3.53553
      vertex 14.6969 2.5 4.33013
    endloop
  endfacet
  facet normal 0 0.92388 0.382683
    outer loop
      vertex 15.6969 4.82963 1.2941
      vertex 14.6969 4.33013 2.5
      vertex 15.6969 4.33013 2.5
    endloop
  endfacet
  facet normal 0 0.92388 0.382683
    outer loop
      vertex 14.6969 4.33013 2.5
      vertex 15.6969 4.82963 1.2941
      vertex 14.6969 4.82963 1.2941
    endloop
  endfacet
  facet normal 0 0.79335 0.608766
    outer loop
      vertex 15.6969 4.33013 2.5
      vertex 14.6969 3.53553 3.53553
      vertex 15.6969 3.53553 3.53553
    endloop
  endfacet
  facet normal 0 0.79335 0.608766
    outer loop
      vertex 14.6969 3.53553 3.53553
      vertex 15.6969 4.33013 2.5
      vertex 14.6969 4.33013 2.5
    endloop
  endfacet
  facet normal 0 -1 -0
    outer loop
      vertex 15.6969 -5 2.22045e-16
      vertex 14.6969 -5 0
      vertex 15.6969 -5 0
    endloop
  endfacet
  facet normal 0 -0.991445 0.130525
    outer loop
      vertex 14.6969 -4.82963 1.2941
      vertex 15.6969 -5 2.22045e-16
      vertex 15.6969 -4.82963 1.2941
    endloop
  endfacet
  facet normal -2.89824e-17 -0.991445 0.130525
    outer loop
      vertex 15.6969 -5 2.22045e-16
      vertex 14.6969 -4.82963 1.2941
      vertex 14.6969 -5 0
    endloop
  endfacet
  facet normal 0 -0.382683 0.92388
    outer loop
      vertex 14.6969 -1.2941 4.82963
      vertex 15.6969 -2.5 4.33013
      vertex 15.6969 -1.2941 4.82963
    endloop
  endfacet
  facet normal 0 -0.382683 0.92388
    outer loop
      vertex 15.6969 -2.5 4.33013
      vertex 14.6969 -1.2941 4.82963
      vertex 14.6969 -2.5 4.33013
    endloop
  endfacet
  facet normal 0 -0.608766 0.79335
    outer loop
      vertex 14.6969 -2.5 4.33013
      vertex 15.6969 -3.53553 3.53553
      vertex 15.6969 -2.5 4.33013
    endloop
  endfacet
  facet normal 0 -0.608766 0.79335
    outer loop
      vertex 15.6969 -3.53553 3.53553
      vertex 14.6969 -2.5 4.33013
      vertex 14.6969 -3.53553 3.53553
    endloop
  endfacet
  facet normal -0 0.130525 0.991445
    outer loop
      vertex 17 1.2941 4.82963
      vertex 18 0 5
      vertex 18 1.2941 4.82963
    endloop
  endfacet
  facet normal 0 0.130525 0.991445
    outer loop
      vertex 18 0 5
      vertex 17 1.2941 4.82963
      vertex 17 0 5
    endloop
  endfacet
  facet normal 0 1 -0
    outer loop
      vertex 18 5 0
      vertex 17 5 5.11391e-16
      vertex 18 5 7.33436e-16
    endloop
  endfacet
  facet normal 0 1 0
    outer loop
      vertex 17 5 5.11391e-16
      vertex 18 5 0
      vertex 17 5 0
    endloop
  endfacet
  facet normal 0 -0.608766 0.79335
    outer loop
      vertex 17 -2.5 4.33013
      vertex 18 -3.53553 3.53553
      vertex 18 -2.5 4.33013
    endloop
  endfacet
  facet normal 0 -0.608766 0.79335
    outer loop
      vertex 18 -3.53553 3.53553
      vertex 17 -2.5 4.33013
      vertex 17 -3.53553 3.53553
    endloop
  endfacet
  facet normal -1 0 0
    outer loop
      vertex 17 -5 5.11391e-16
      vertex 17 -4 5.11391e-16
      vertex 17 -4 0
    endloop
  endfacet
  facet normal -1 0 0
    outer loop
      vertex 17 -4 5.11391e-16
      vertex 17 -4.82963 1.2941
      vertex 17 -4.33013 2.5
    endloop
  endfacet
  facet normal -1 0 0
    outer loop
      vertex 17 -5 5.11391e-16
      vertex 17 -4 0
      vertex 17 -5 0
    endloop
  endfacet
  facet normal -1 0 0
    outer loop
      vertex 17 -4 5.11391e-16
      vertex 17 -5 5.11391e-16
      vertex 17 -4.82963 1.2941
    endloop
  endfacet
  facet normal -1 0 0
    outer loop
      vertex 17 4 5.11391e-16
      vertex 17 5 5.11391e-16
      vertex 17 5 0
    endloop
  endfacet
  facet normal -1 0 0
    outer loop
      vertex 17 5 5.11391e-16
      vertex 17 3.8637 1.03528
      vertex 17 4.82963 1.2941
    endloop
  endfacet
  facet normal -1 0 0
    outer loop
      vertex 17 4 5.11391e-16
      vertex 17 5 0
      vertex 17 4 0
    endloop
  endfacet
  facet normal -1 0 0
    outer loop
      vertex 17 5 5.11391e-16
      vertex 17 4 5.11391e-16
      vertex 17 3.8637 1.03528
    endloop
  endfacet
  facet normal -1 -0 0
    outer loop
      vertex 17 4.82963 1.2941
      vertex 17 3.8637 1.03528
      vertex 17 4.33013 2.5
    endloop
  endfacet
  facet normal -1 0 0
    outer loop
      vertex 17 3.4641 2
      vertex 17 4.33013 2.5
      vertex 17 3.8637 1.03528
    endloop
  endfacet
  facet normal -1 -0 0
    outer loop
      vertex 17 4.33013 2.5
      vertex 17 3.4641 2
      vertex 17 3.53553 3.53553
    endloop
  endfacet
  facet normal -1 0 0
    outer loop
      vertex 17 2.82843 2.82843
      vertex 17 3.53553 3.53553
      vertex 17 3.4641 2
    endloop
  endfacet
  facet normal -1 0 0
    outer loop
      vertex 17 2.82843 2.82843
      vertex 17 2.5 4.33013
      vertex 17 3.53553 3.53553
    endloop
  endfacet
  facet normal -1 0 0
    outer loop
      vertex 17 2 3.4641
      vertex 17 2.5 4.33013
      vertex 17 2.82843 2.82843
    endloop
  endfacet
  facet normal -1 0 0
    outer loop
      vertex 17 2 3.4641
      vertex 17 1.2941 4.82963
      vertex 17 2.5 4.33013
    endloop
  endfacet
  facet normal -1 0 0
    outer loop
      vertex 17 1.03528 3.8637
      vertex 17 1.2941 4.82963
      vertex 17 2 3.4641
    endloop
  endfacet
  facet normal -1 0 0
    outer loop
      vertex 17 0 4
      vertex 17 1.2941 4.82963
      vertex 17 1.03528 3.8637
    endloop
  endfacet
  facet normal -1 0 0
    outer loop
      vertex 17 0 4
      vertex 17 0 5
      vertex 17 1.2941 4.82963
    endloop
  endfacet
  facet normal -1 0 0
    outer loop
      vertex 17 -1.03528 3.8637
      vertex 17 0 5
      vertex 17 0 4
    endloop
  endfacet
  facet normal -1 0 0
    outer loop
      vertex 17 -1.03528 3.8637
      vertex 17 -1.2941 4.82963
      vertex 17 0 5
    endloop
  endfacet
  facet normal -1 0 0
    outer loop
      vertex 17 -2 3.4641
      vertex 17 -1.2941 4.82963
      vertex 17 -1.03528 3.8637
    endloop
  endfacet
  facet normal -1 0 0
    outer loop
      vertex 17 -2 3.4641
      vertex 17 -2.5 4.33013
      vertex 17 -1.2941 4.82963
    endloop
  endfacet
  facet normal -1 0 0
    outer loop
      vertex 17 -2.82843 2.82843
      vertex 17 -2.5 4.33013
      vertex 17 -2 3.4641
    endloop
  endfacet
  facet normal -1 0 0
    outer loop
      vertex 17 -3.53553 3.53553
      vertex 17 -2.82843 2.82843
      vertex 17 -3.4641 2
    endloop
  endfacet
  facet normal -1 0 0
    outer loop
      vertex 17 -2.82843 2.82843
      vertex 17 -3.53553 3.53553
      vertex 17 -2.5 4.33013
    endloop
  endfacet
  facet normal -1 0 0
    outer loop
      vertex 17 -4.33013 2.5
      vertex 17 -3.4641 2
      vertex 17 -3.8637 1.03528
    endloop
  endfacet
  facet normal -1 0 0
    outer loop
      vertex 17 -4.33013 2.5
      vertex 17 -3.8637 1.03528
      vertex 17 -4 5.11391e-16
    endloop
  endfacet
  facet normal -1 0 0
    outer loop
      vertex 17 -3.4641 2
      vertex 17 -4.33013 2.5
      vertex 17 -3.53553 3.53553
    endloop
  endfacet
  facet normal 0 0.79335 0.608766
    outer loop
      vertex 18 4.33013 2.5
      vertex 17 3.53553 3.53553
      vertex 18 3.53553 3.53553
    endloop
  endfacet
  facet normal 0 0.79335 0.608766
    outer loop
      vertex 17 3.53553 3.53553
      vertex 18 4.33013 2.5
      vertex 17 4.33013 2.5
    endloop
  endfacet
  facet normal 1 0 0
    outer loop
      vertex 18 4.82963 1.2941
      vertex 18 2.89778 0.776457
      vertex 18 3 7.33436e-16
    endloop
  endfacet
  facet normal 1 0 0
    outer loop
      vertex 18 4.33013 2.5
      vertex 18 2.59808 1.5
      vertex 18 2.89778 0.776457
    endloop
  endfacet
  facet normal 1 0 0
    outer loop
      vertex 18 2.12132 2.12132
      vertex 18 3.53553 3.53553
      vertex 18 2.5 4.33013
    endloop
  endfacet
  facet normal 1 0 0
    outer loop
      vertex 18 3.53553 3.53553
      vertex 18 2.12132 2.12132
      vertex 18 2.59808 1.5
    endloop
  endfacet
  facet normal 1 0 0
    outer loop
      vertex 18 2.5 4.33013
      vertex 18 1.5 2.59808
      vertex 18 2.12132 2.12132
    endloop
  endfacet
  facet normal 1 0 0
    outer loop
      vertex 18 1.2941 4.82963
      vertex 18 1.5 2.59808
      vertex 18 2.5 4.33013
    endloop
  endfacet
  facet normal 1 0 0
    outer loop
      vertex 18 1.2941 4.82963
      vertex 18 0.776457 2.89778
      vertex 18 1.5 2.59808
    endloop
  endfacet
  facet normal 1 0 0
    outer loop
      vertex 18 0 5
      vertex 18 0.776457 2.89778
      vertex 18 1.2941 4.82963
    endloop
  endfacet
  facet normal 1 0 0
    outer loop
      vertex 18 0 5
      vertex 18 0 3
      vertex 18 0.776457 2.89778
    endloop
  endfacet
  facet normal 1 0 0
    outer loop
      vertex 18 0 5
      vertex 18 -0.776457 2.89778
      vertex 18 0 3
    endloop
  endfacet
  facet normal 1 -0 0
    outer loop
      vertex 18 -1.2941 4.82963
      vertex 18 -0.776457 2.89778
      vertex 18 0 5
    endloop
  endfacet
  facet normal 1 0 0
    outer loop
      vertex 18 -1.2941 4.82963
      vertex 18 -1.5 2.59808
      vertex 18 -0.776457 2.89778
    endloop
  endfacet
  facet normal 1 -0 0
    outer loop
      vertex 18 -2.5 4.33013
      vertex 18 -1.5 2.59808
      vertex 18 -1.2941 4.82963
    endloop
  endfacet
  facet normal 1 0 0
    outer loop
      vertex 18 -1.5 2.59808
      vertex 18 -2.5 4.33013
      vertex 18 -2.12132 2.12132
    endloop
  endfacet
  facet normal 1 -0 0
    outer loop
      vertex 18 -3.53553 3.53553
      vertex 18 -2.12132 2.12132
      vertex 18 -2.5 4.33013
    endloop
  endfacet
  facet normal 1 0 0
    outer loop
      vertex 18 -2.12132 2.12132
      vertex 18 -3.53553 3.53553
      vertex 18 -2.59808 1.5
    endloop
  endfacet
  facet normal 1 -0 0
    outer loop
      vertex 18 -4.33013 2.5
      vertex 18 -2.59808 1.5
      vertex 18 -3.53553 3.53553
    endloop
  endfacet
  facet normal 1 0 0
    outer loop
      vertex 18 -2.59808 1.5
      vertex 18 -4.33013 2.5
      vertex 18 -2.89778 0.776457
    endloop
  endfacet
  facet normal 1 -0 0
    outer loop
      vertex 18 -4.82963 1.2941
      vertex 18 -2.89778 0.776457
      vertex 18 -4.33013 2.5
    endloop
  endfacet
  facet normal 1 0 0
    outer loop
      vertex 18 -2.89778 0.776457
      vertex 18 -4.82963 1.2941
      vertex 18 -3 7.33436e-16
    endloop
  endfacet
  facet normal 1 0 0
    outer loop
      vertex 18 -5 7.33436e-16
      vertex 18 -3 7.33436e-16
      vertex 18 -4.82963 1.2941
    endloop
  endfacet
  facet normal 1 0 0
    outer loop
      vertex 18 -3 7.33436e-16
      vertex 18 -5 7.33436e-16
      vertex 18 -3 0
    endloop
  endfacet
  facet normal 1 0 0
    outer loop
      vertex 18 -3 0
      vertex 18 -5 7.33436e-16
      vertex 18 -5 0
    endloop
  endfacet
  facet normal 1 0 0
    outer loop
      vertex 18 3 7.33436e-16
      vertex 18 5 7.33436e-16
      vertex 18 4.82963 1.2941
    endloop
  endfacet
  facet normal 1 0 0
    outer loop
      vertex 18 2.89778 0.776457
      vertex 18 4.82963 1.2941
      vertex 18 4.33013 2.5
    endloop
  endfacet
  facet normal 1 0 0
    outer loop
      vertex 18 2.59808 1.5
      vertex 18 4.33013 2.5
      vertex 18 3.53553 3.53553
    endloop
  endfacet
  facet normal 1 0 0
    outer loop
      vertex 18 5 7.33436e-16
      vertex 18 3 7.33436e-16
      vertex 18 5 0
    endloop
  endfacet
  facet normal 1 0 0
    outer loop
      vertex 18 5 0
      vertex 18 3 7.33436e-16
      vertex 18 3 0
    endloop
  endfacet
  facet normal 0 0.991445 0.130525
    outer loop
      vertex 18 5 7.33436e-16
      vertex 17 4.82963 1.2941
      vertex 18 4.82963 1.2941
    endloop
  endfacet
  facet normal -2.12643e-17 0.991445 0.130525
    outer loop
      vertex 17 4.82963 1.2941
      vertex 18 5 7.33436e-16
      vertex 17 5 5.11391e-16
    endloop
  endfacet
  facet normal 0 -0.79335 0.608766
    outer loop
      vertex 17 -4.33013 2.5
      vertex 18 -3.53553 3.53553
      vertex 17 -3.53553 3.53553
    endloop
  endfacet
  facet normal 0 -0.79335 0.608766
    outer loop
      vertex 18 -3.53553 3.53553
      vertex 17 -4.33013 2.5
      vertex 18 -4.33013 2.5
    endloop
  endfacet
  facet normal 0 -0.130525 0.991445
    outer loop
      vertex 17 0 5
      vertex 18 -1.2941 4.82963
      vertex 18 0 5
    endloop
  endfacet
  facet normal 0 -0.130525 0.991445
    outer loop
      vertex 18 -1.2941 4.82963
      vertex 17 0 5
      vertex 17 -1.2941 4.82963
    endloop
  endfacet
  facet normal -0 0.608766 0.79335
    outer loop
      vertex 17 3.53553 3.53553
      vertex 18 2.5 4.33013
      vertex 18 3.53553 3.53553
    endloop
  endfacet
  facet normal 0 0.608766 0.79335
    outer loop
      vertex 18 2.5 4.33013
      vertex 17 3.53553 3.53553
      vertex 17 2.5 4.33013
    endloop
  endfacet
  facet normal -0 0.382683 0.92388
    outer loop
      vertex 17 2.5 4.33013
      vertex 18 1.2941 4.82963
      vertex 18 2.5 4.33013
    endloop
  endfacet
  facet normal 0 0.382683 0.92388
    outer loop
      vertex 18 1.2941 4.82963
      vertex 17 2.5 4.33013
      vertex 17 1.2941 4.82963
    endloop
  endfacet
  facet normal 0 0.92388 0.382683
    outer loop
      vertex 18 4.82963 1.2941
      vertex 17 4.33013 2.5
      vertex 18 4.33013 2.5
    endloop
  endfacet
  facet normal 0 0.92388 0.382683
    outer loop
      vertex 17 4.33013 2.5
      vertex 18 4.82963 1.2941
      vertex 17 4.82963 1.2941
    endloop
  endfacet
  facet normal 0 -1 0
    outer loop
      vertex 17 -5 0
      vertex 18 -5 7.33436e-16
      vertex 17 -5 5.11391e-16
    endloop
  endfacet
  facet normal 0 -1 -0
    outer loop
      vertex 18 -5 7.33436e-16
      vertex 17 -5 0
      vertex 18 -5 0
    endloop
  endfacet
  facet normal 0 -0.92388 0.382683
    outer loop
      vertex 17 -4.82963 1.2941
      vertex 18 -4.33013 2.5
      vertex 17 -4.33013 2.5
    endloop
  endfacet
  facet normal 0 -0.92388 0.382683
    outer loop
      vertex 18 -4.33013 2.5
      vertex 17 -4.82963 1.2941
      vertex 18 -4.82963 1.2941
    endloop
  endfacet
  facet normal 0 -0.382683 0.92388
    outer loop
      vertex 17 -1.2941 4.82963
      vertex 18 -2.5 4.33013
      vertex 18 -1.2941 4.82963
    endloop
  endfacet
  facet normal 0 -0.382683 0.92388
    outer loop
      vertex 18 -2.5 4.33013
      vertex 17 -1.2941 4.82963
      vertex 17 -2.5 4.33013
    endloop
  endfacet
  facet normal 0 -0.991445 0.130525
    outer loop
      vertex 17 -4.82963 1.2941
      vertex 18 -5 7.33436e-16
      vertex 18 -4.82963 1.2941
    endloop
  endfacet
  facet normal -2.89824e-17 -0.991445 0.130525
    outer loop
      vertex 18 -5 7.33436e-16
      vertex 17 -4.82963 1.2941
      vertex 17 -5 5.11391e-16
    endloop
  endfacet
  facet normal 0 0 -1
    outer loop
      vertex 18 3 0
      vertex 17 4 0
      vertex 18 5 0
    endloop
  endfacet
  facet normal 0 0 -1
    outer loop
      vertex 18 3 0
      vertex 15.6969 4 0
      vertex 17 4 0
    endloop
  endfacet
  facet normal 0 0 -1
    outer loop
      vertex 14.6969 3 0
      vertex 15.6969 4 0
      vertex 18 3 0
    endloop
  endfacet
  facet normal 0 0 -1
    outer loop
      vertex 14.6969 5 0
      vertex 15.6969 4 0
      vertex 14.6969 3 0
    endloop
  endfacet
  facet normal 0 0 -1
    outer loop
      vertex 15.6969 4 0
      vertex 14.6969 5 0
      vertex 15.6969 5 0
    endloop
  endfacet
  facet normal -0 0 -1
    outer loop
      vertex 18 5 0
      vertex 17 4 0
      vertex 17 5 0
    endloop
  endfacet
  facet normal 0 0 -1
    outer loop
      vertex 15.6969 -5 0
      vertex 14.6969 -5 0
      vertex 15.6969 -4 0
    endloop
  endfacet
  facet normal 0 0 -1
    outer loop
      vertex 17 -4 0
      vertex 18 -5 0
      vertex 17 -5 0
    endloop
  endfacet
  facet normal 0 0 -1
    outer loop
      vertex 18 -5 0
      vertex 17 -4 0
      vertex 18 -3 0
    endloop
  endfacet
  facet normal 0 0 -1
    outer loop
      vertex 15.6969 -4 0
      vertex 18 -3 0
      vertex 17 -4 0
    endloop
  endfacet
  facet normal 0 0 -1
    outer loop
      vertex 15.6969 -4 0
      vertex 14.6969 -3 0
      vertex 18 -3 0
    endloop
  endfacet
  facet normal 0 0 -1
    outer loop
      vertex 14.6969 -3 0
      vertex 15.6969 -4 0
      vertex 14.6969 -5 0
    endloop
  endfacet
endsolid OpenSCAD_Model
