solid OpenSCAD_Model
  facet normal -0 0.130529 0.991445
    outer loop
      vertex 10.5394 1.03528 3.8637
      vertex 11.5898 0 4
      vertex 11.5898 1.03528 3.8637
    endloop
  endfacet
  facet normal 0 0.130529 0.991445
    outer loop
      vertex 11.5898 0 4
      vertex 10.5394 1.03528 3.8637
      vertex 10.5394 0 4
    endloop
  endfacet
  facet normal 0 1 -0
    outer loop
      vertex 11.5898 4 0
      vertex 10.5394 4 2.22045e-16
      vertex 11.5898 4 4.5528e-16
    endloop
  endfacet
  facet normal 0 1 0
    outer loop
      vertex 10.5394 4 2.22045e-16
      vertex 11.5898 4 0
      vertex 10.5394 4 0
    endloop
  endfacet
  facet normal 0 -0.991445 0.130529
    outer loop
      vertex 10.5394 -3.8637 1.03528
      vertex 11.5898 -4 4.5528e-16
      vertex 11.5898 -3.8637 1.03528
    endloop
  endfacet
  facet normal -2.89831e-17 -0.991445 0.130529
    outer loop
      vertex 11.5898 -4 4.5528e-16
      vertex 10.5394 -3.8637 1.03528
      vertex 10.5394 -4 2.22045e-16
    endloop
  endfacet
  facet normal 0 0.793356 0.608757
    outer loop
      vertex 11.5898 3.4641 2
      vertex 10.5394 2.82843 2.82843
      vertex 11.5898 2.82843 2.82843
    endloop
  endfacet
  facet normal 0 0.793356 0.608757
    outer loop
      vertex 10.5394 2.82843 2.82843
      vertex 11.5898 3.4641 2
      vertex 10.5394 3.4641 2
    endloop
  endfacet
  facet normal -0 0.608757 0.793356
    outer loop
      vertex 10.5394 2.82843 2.82843
      vertex 11.5898 2 3.4641
      vertex 11.5898 2.82843 2.82843
    endloop
  endfacet
  facet normal 0 0.608757 0.793356
    outer loop
      vertex 11.5898 2 3.4641
      vertex 10.5394 2.82843 2.82843
      vertex 10.5394 2 3.4641
    endloop
  endfacet
  facet normal 0 0.92388 0.382683
    outer loop
      vertex 11.5898 3.8637 1.03528
      vertex 10.5394 3.4641 2
      vertex 11.5898 3.4641 2
    endloop
  endfacet
  facet normal 0 0.92388 0.382683
    outer loop
      vertex 10.5394 3.4641 2
      vertex 11.5898 3.8637 1.03528
      vertex 10.5394 3.8637 1.03528
    endloop
  endfacet
  facet normal 0 -0.793356 0.608757
    outer loop
      vertex 10.5394 -3.4641 2
      vertex 11.5898 -2.82843 2.82843
      vertex 10.5394 -2.82843 2.82843
    endloop
  endfacet
  facet normal 0 -0.793356 0.608757
    outer loop
      vertex 11.5898 -2.82843 2.82843
      vertex 10.5394 -3.4641 2
      vertex 11.5898 -3.4641 2
    endloop
  endfacet
  facet normal -1 0 0
    outer loop
      vertex 9.5394 2.89778 0.776457
      vertex 9.5394 4.82963 1.2941
      vertex 9.5394 5 0
    endloop
  endfacet
  facet normal -1 -0 0
    outer loop
      vertex 9.5394 4.82963 1.2941
      vertex 9.5394 2.89778 0.776457
      vertex 9.5394 4.33013 2.5
    endloop
  endfacet
  facet normal -1 0 0
    outer loop
      vertex 9.5394 2.89778 0.776457
      vertex 9.5394 5 0
      vertex 9.5394 3 0
    endloop
  endfacet
  facet normal -1 0 0
    outer loop
      vertex 9.5394 2.59808 1.5
      vertex 9.5394 4.33013 2.5
      vertex 9.5394 2.89778 0.776457
    endloop
  endfacet
  facet normal -1 -0 0
    outer loop
      vertex 9.5394 4.33013 2.5
      vertex 9.5394 2.59808 1.5
      vertex 9.5394 3.53553 3.53553
    endloop
  endfacet
  facet normal -1 0 0
    outer loop
      vertex 9.5394 2.12132 2.12132
      vertex 9.5394 3.53553 3.53553
      vertex 9.5394 2.59808 1.5
    endloop
  endfacet
  facet normal -1 -0 0
    outer loop
      vertex 9.5394 3.53553 3.53553
      vertex 9.5394 2.12132 2.12132
      vertex 9.5394 2.5 4.33013
    endloop
  endfacet
  facet normal -1 0 0
    outer loop
      vertex 9.5394 1.5 2.59808
      vertex 9.5394 2.5 4.33013
      vertex 9.5394 2.12132 2.12132
    endloop
  endfacet
  facet normal -1 0 0
    outer loop
      vertex 9.5394 1.5 2.59808
      vertex 9.5394 1.2941 4.82963
      vertex 9.5394 2.5 4.33013
    endloop
  endfacet
  facet normal -1 0 0
    outer loop
      vertex 9.5394 0.776457 2.89778
      vertex 9.5394 1.2941 4.82963
      vertex 9.5394 1.5 2.59808
    endloop
  endfacet
  facet normal -1 0 0
    outer loop
      vertex 9.5394 0 3
      vertex 9.5394 1.2941 4.82963
      vertex 9.5394 0.776457 2.89778
    endloop
  endfacet
  facet normal -1 0 0
    outer loop
      vertex 9.5394 0 3
      vertex 9.5394 0 5
      vertex 9.5394 1.2941 4.82963
    endloop
  endfacet
  facet normal -1 0 0
    outer loop
      vertex 9.5394 -0.776457 2.89778
      vertex 9.5394 0 5
      vertex 9.5394 0 3
    endloop
  endfacet
  facet normal -1 0 0
    outer loop
      vertex 9.5394 -0.776457 2.89778
      vertex 9.5394 -1.2941 4.82963
      vertex 9.5394 0 5
    endloop
  endfacet
  facet normal -1 0 0
    outer loop
      vertex 9.5394 -1.5 2.59808
      vertex 9.5394 -1.2941 4.82963
      vertex 9.5394 -0.776457 2.89778
    endloop
  endfacet
  facet normal -1 0 0
    outer loop
      vertex 9.5394 -2.5 4.33013
      vertex 9.5394 -1.5 2.59808
      vertex 9.5394 -2.12132 2.12132
    endloop
  endfacet
  facet normal -1 0 0
    outer loop
      vertex 9.5394 -1.5 2.59808
      vertex 9.5394 -2.5 4.33013
      vertex 9.5394 -1.2941 4.82963
    endloop
  endfacet
  facet normal -1 0 0
    outer loop
      vertex 9.5394 -3.53553 3.53553
      vertex 9.5394 -2.12132 2.12132
      vertex 9.5394 -2.59808 1.5
    endloop
  endfacet
  facet normal -1 0 0
    outer loop
      vertex 9.5394 -4.33013 2.5
      vertex 9.5394 -2.59808 1.5
      vertex 9.5394 -2.89778 0.776457
    endloop
  endfacet
  facet normal -1 0 0
    outer loop
      vertex 9.5394 -4.82963 1.2941
      vertex 9.5394 -2.89778 0.776457
      vertex 9.5394 -3 0
    endloop
  endfacet
  facet normal -1 0 0
    outer loop
      vertex 9.5394 -2.12132 2.12132
      vertex 9.5394 -3.53553 3.53553
      vertex 9.5394 -2.5 4.33013
    endloop
  endfacet
  facet normal -1 0 0
    outer loop
      vertex 9.5394 -2.59808 1.5
      vertex 9.5394 -4.33013 2.5
      vertex 9.5394 -3.53553 3.53553
    endloop
  endfacet
  facet normal -1 0 0
    outer loop
      vertex 9.5394 -2.89778 0.776457
      vertex 9.5394 -4.82963 1.2941
      vertex 9.5394 -4.33013 2.5
    endloop
  endfacet
  facet normal -1 0 -0
    outer loop
      vertex 9.5394 -4.82963 1.2941
      vertex 9.5394 -3 0
      vertex 9.5394 -5 0
    endloop
  endfacet
  facet normal -0 0.382683 0.92388
    outer loop
      vertex 10.5394 2 3.4641
      vertex 11.5898 1.03528 3.8637
      vertex 11.5898 2 3.4641
    endloop
  endfacet
  facet normal 0 0.382683 0.92388
    outer loop
      vertex 11.5898 1.03528 3.8637
      vertex 10.5394 2 3.4641
      vertex 10.5394 1.03528 3.8637
    endloop
  endfacet
  facet normal 0 0.991445 0.130529
    outer loop
      vertex 11.5898 4 4.5528e-16
      vertex 10.5394 3.8637 1.03528
      vertex 11.5898 3.8637 1.03528
    endloop
  endfacet
  facet normal -2.5305e-17 0.991445 0.130529
    outer loop
      vertex 10.5394 3.8637 1.03528
      vertex 11.5898 4 4.5528e-16
      vertex 10.5394 4 2.22045e-16
    endloop
  endfacet
  facet normal 0 -1 0
    outer loop
      vertex 10.5394 -4 0
      vertex 11.5898 -4 4.5528e-16
      vertex 10.5394 -4 2.22045e-16
    endloop
  endfacet
  facet normal 0 -1 -0
    outer loop
      vertex 11.5898 -4 4.5528e-16
      vertex 10.5394 -4 0
      vertex 11.5898 -4 0
    endloop
  endfacet
  facet normal 0 -0.92388 0.382683
    outer loop
      vertex 10.5394 -3.8637 1.03528
      vertex 11.5898 -3.4641 2
      vertex 10.5394 -3.4641 2
    endloop
  endfacet
  facet normal 0 -0.92388 0.382683
    outer loop
      vertex 11.5898 -3.4641 2
      vertex 10.5394 -3.8637 1.03528
      vertex 11.5898 -3.8637 1.03528
    endloop
  endfacet
  facet normal 0 -0.608757 0.793356
    outer loop
      vertex 10.5394 -2 3.4641
      vertex 11.5898 -2.82843 2.82843
      vertex 11.5898 -2 3.4641
    endloop
  endfacet
  facet normal 0 -0.608757 0.793356
    outer loop
      vertex 11.5898 -2.82843 2.82843
      vertex 10.5394 -2 3.4641
      vertex 10.5394 -2.82843 2.82843
    endloop
  endfacet
  facet normal 0 -0.130529 0.991445
    outer loop
      vertex 10.5394 0 4
      vertex 11.5898 -1.03528 3.8637
      vertex 11.5898 0 4
    endloop
  endfacet
  facet normal 0 -0.130529 0.991445
    outer loop
      vertex 11.5898 -1.03528 3.8637
      vertex 10.5394 0 4
      vertex 10.5394 -1.03528 3.8637
    endloop
  endfacet
  facet normal 0 -0.382683 0.92388
    outer loop
      vertex 10.5394 -1.03528 3.8637
      vertex 11.5898 -2 3.4641
      vertex 11.5898 -1.03528 3.8637
    endloop
  endfacet
  facet normal 0 -0.382683 0.92388
    outer loop
      vertex 11.5898 -2 3.4641
      vertex 10.5394 -1.03528 3.8637
      vertex 10.5394 -2 3.4641
    endloop
  endfacet
  facet normal 0 -0.130523 -0.991445
    outer loop
      vertex 9.5394 0 3
      vertex 12.5898 0.776457 2.89778
      vertex 12.5898 0 3
    endloop
  endfacet
  facet normal -0 -0.130523 -0.991445
    outer loop
      vertex 12.5898 0.776457 2.89778
      vertex 9.5394 0 3
      vertex 9.5394 0.776457 2.89778
    endloop
  endfacet
  facet normal 0 -1 0
    outer loop
      vertex 12.5898 3 0
      vertex 12.5898 3 6.77325e-16
      vertex 9.5394 3 0
    endloop
  endfacet
  facet normal 0 -0.793351 -0.608765
    outer loop
      vertex 9.5394 2.59808 1.5
      vertex 12.5898 2.12132 2.12132
      vertex 9.5394 2.12132 2.12132
    endloop
  endfacet
  facet normal 0 -0.793351 -0.608765
    outer loop
      vertex 12.5898 2.12132 2.12132
      vertex 9.5394 2.59808 1.5
      vertex 12.5898 2.59808 1.5
    endloop
  endfacet
  facet normal 0 -0.608765 -0.793351
    outer loop
      vertex 9.5394 1.5 2.59808
      vertex 12.5898 2.12132 2.12132
      vertex 12.5898 1.5 2.59808
    endloop
  endfacet
  facet normal -0 -0.608765 -0.793351
    outer loop
      vertex 12.5898 2.12132 2.12132
      vertex 9.5394 1.5 2.59808
      vertex 9.5394 2.12132 2.12132
    endloop
  endfacet
  facet normal 0 -0.92388 -0.382682
    outer loop
      vertex 9.5394 2.89778 0.776457
      vertex 12.5898 2.59808 1.5
      vertex 9.5394 2.59808 1.5
    endloop
  endfacet
  facet normal 0 -0.92388 -0.382682
    outer loop
      vertex 12.5898 2.59808 1.5
      vertex 9.5394 2.89778 0.776457
      vertex 12.5898 2.89778 0.776457
    endloop
  endfacet
  facet normal 0 0.793351 -0.608765
    outer loop
      vertex 12.5898 -2.59808 1.5
      vertex 9.5394 -2.12132 2.12132
      vertex 12.5898 -2.12132 2.12132
    endloop
  endfacet
  facet normal 0 0.793351 -0.608765
    outer loop
      vertex 9.5394 -2.12132 2.12132
      vertex 12.5898 -2.59808 1.5
      vertex 9.5394 -2.59808 1.5
    endloop
  endfacet
  facet normal 0 -0.382682 -0.92388
    outer loop
      vertex 9.5394 0.776457 2.89778
      vertex 12.5898 1.5 2.59808
      vertex 12.5898 0.776457 2.89778
    endloop
  endfacet
  facet normal -0 -0.382682 -0.92388
    outer loop
      vertex 12.5898 1.5 2.59808
      vertex 9.5394 0.776457 2.89778
      vertex 9.5394 1.5 2.59808
    endloop
  endfacet
  facet normal 0 -0.991445 -0.130523
    outer loop
      vertex 9.5394 2.89778 0.776457
      vertex 12.5898 3 6.77325e-16
      vertex 12.5898 2.89778 0.776457
    endloop
  endfacet
  facet normal 2.89819e-17 -0.991445 -0.130523
    outer loop
      vertex 12.5898 3 6.77325e-16
      vertex 9.5394 2.89778 0.776457
      vertex 9.5394 3 0
    endloop
  endfacet
  facet normal 0 1 0
    outer loop
      vertex 12.5898 -3 6.77325e-16
      vertex 12.5898 -3 0
      vertex 9.5394 -3 0
    endloop
  endfacet
  facet normal 0 0.92388 -0.382682
    outer loop
      vertex 12.5898 -2.89778 0.776457
      vertex 9.5394 -2.59808 1.5
      vertex 12.5898 -2.59808 1.5
    endloop
  endfacet
  facet normal 0 0.92388 -0.382682
    outer loop
      vertex 9.5394 -2.59808 1.5
      vertex 12.5898 -2.89778 0.776457
      vertex 9.5394 -2.89778 0.776457
    endloop
  endfacet
  facet normal 0 0.608765 -0.793351
    outer loop
      vertex 9.5394 -2.12132 2.12132
      vertex 12.5898 -1.5 2.59808
      vertex 12.5898 -2.12132 2.12132
    endloop
  endfacet
  facet normal 0 0.608765 -0.793351
    outer loop
      vertex 12.5898 -1.5 2.59808
      vertex 9.5394 -2.12132 2.12132
      vertex 9.5394 -1.5 2.59808
    endloop
  endfacet
  facet normal 0 0.130523 -0.991445
    outer loop
      vertex 9.5394 -0.776457 2.89778
      vertex 12.5898 0 3
      vertex 12.5898 -0.776457 2.89778
    endloop
  endfacet
  facet normal 0 0.130523 -0.991445
    outer loop
      vertex 12.5898 0 3
      vertex 9.5394 -0.776457 2.89778
      vertex 9.5394 0 3
    endloop
  endfacet
  facet normal 0 0.991445 -0.130523
    outer loop
      vertex 12.5898 -3 6.77325e-16
      vertex 9.5394 -2.89778 0.776457
      vertex 12.5898 -2.89778 0.776457
    endloop
  endfacet
  facet normal 2.90459e-17 0.991445 -0.130523
    outer loop
      vertex 9.5394 -2.89778 0.776457
      vertex 12.5898 -3 6.77325e-16
      vertex 9.5394 -3 0
    endloop
  endfacet
  facet normal 0 0.382682 -0.92388
    outer loop
      vertex 9.5394 -1.5 2.59808
      vertex 12.5898 -0.776457 2.89778
      vertex 12.5898 -1.5 2.59808
    endloop
  endfacet
  facet normal 0 0.382682 -0.92388
    outer loop
      vertex 12.5898 -0.776457 2.89778
      vertex 9.5394 -1.5 2.59808
      vertex 9.5394 -0.776457 2.89778
    endloop
  endfacet
  facet normal -0 0.130525 0.991445
    outer loop
      vertex 9.5394 1.2941 4.82963
      vertex 10.5394 0 5
      vertex 10.5394 1.2941 4.82963
    endloop
  endfacet
  facet normal 0 0.130525 0.991445
    outer loop
      vertex 10.5394 0 5
      vertex 9.5394 1.2941 4.82963
      vertex 9.5394 0 5
    endloop
  endfacet
  facet normal 0 -0.92388 0.382683
    outer loop
      vertex 9.5394 -4.82963 1.2941
      vertex 10.5394 -4.33013 2.5
      vertex 9.5394 -4.33013 2.5
    endloop
  endfacet
  facet normal 0 -0.92388 0.382683
    outer loop
      vertex 10.5394 -4.33013 2.5
      vertex 9.5394 -4.82963 1.2941
      vertex 10.5394 -4.82963 1.2941
    endloop
  endfacet
  facet normal 0 0.991445 0.130525
    outer loop
      vertex 10.5394 5 2.22045e-16
      vertex 9.5394 4.82963 1.2941
      vertex 10.5394 4.82963 1.2941
    endloop
  endfacet
  facet normal -4.25286e-17 0.991445 0.130525
    outer loop
      vertex 9.5394 4.82963 1.2941
      vertex 10.5394 5 2.22045e-16
      vertex 9.5394 5 0
    endloop
  endfacet
  facet normal -0 0.382683 0.92388
    outer loop
      vertex 9.5394 2.5 4.33013
      vertex 10.5394 1.2941 4.82963
      vertex 10.5394 2.5 4.33013
    endloop
  endfacet
  facet normal 0 0.382683 0.92388
    outer loop
      vertex 10.5394 1.2941 4.82963
      vertex 9.5394 2.5 4.33013
      vertex 9.5394 1.2941 4.82963
    endloop
  endfacet
  facet normal 0 -0.130525 0.991445
    outer loop
      vertex 9.5394 0 5
      vertex 10.5394 -1.2941 4.82963
      vertex 10.5394 0 5
    endloop
  endfacet
  facet normal 0 -0.130525 0.991445
    outer loop
      vertex 10.5394 -1.2941 4.82963
      vertex 9.5394 0 5
      vertex 9.5394 -1.2941 4.82963
    endloop
  endfacet
  facet normal 0 -0.79335 0.608766
    outer loop
      vertex 9.5394 -4.33013 2.5
      vertex 10.5394 -3.53553 3.53553
      vertex 9.5394 -3.53553 3.53553
    endloop
  endfacet
  facet normal 0 -0.79335 0.608766
    outer loop
      vertex 10.5394 -3.53553 3.53553
      vertex 9.5394 -4.33013 2.5
      vertex 10.5394 -4.33013 2.5
    endloop
  endfacet
  facet normal 0 1 -0
    outer loop
      vertex 10.5394 5 0
      vertex 9.5394 5 0
      vertex 10.5394 5 2.22045e-16
    endloop
  endfacet
  facet normal 1 0 0
    outer loop
      vertex 10.5394 4.82963 1.2941
      vertex 10.5394 3.8637 1.03528
      vertex 10.5394 4 2.22045e-16
    endloop
  endfacet
  facet normal 1 0 0
    outer loop
      vertex 10.5394 3.4641 2
      vertex 10.5394 4.33013 2.5
      vertex 10.5394 3.53553 3.53553
    endloop
  endfacet
  facet normal 1 0 0
    outer loop
      vertex 10.5394 4.33013 2.5
      vertex 10.5394 3.4641 2
      vertex 10.5394 3.8637 1.03528
    endloop
  endfacet
  facet normal 1 0 0
    outer loop
      vertex 10.5394 3.53553 3.53553
      vertex 10.5394 2.82843 2.82843
      vertex 10.5394 3.4641 2
    endloop
  endfacet
  facet normal 1 0 0
    outer loop
      vertex 10.5394 2.5 4.33013
      vertex 10.5394 2.82843 2.82843
      vertex 10.5394 3.53553 3.53553
    endloop
  endfacet
  facet normal 1 0 0
    outer loop
      vertex 10.5394 2.5 4.33013
      vertex 10.5394 2 3.4641
      vertex 10.5394 2.82843 2.82843
    endloop
  endfacet
  facet normal 1 0 0
    outer loop
      vertex 10.5394 1.2941 4.82963
      vertex 10.5394 2 3.4641
      vertex 10.5394 2.5 4.33013
    endloop
  endfacet
  facet normal 1 0 0
    outer loop
      vertex 10.5394 1.2941 4.82963
      vertex 10.5394 1.03528 3.8637
      vertex 10.5394 2 3.4641
    endloop
  endfacet
  facet normal 1 0 0
    outer loop
      vertex 10.5394 0 5
      vertex 10.5394 1.03528 3.8637
      vertex 10.5394 1.2941 4.82963
    endloop
  endfacet
  facet normal 1 0 0
    outer loop
      vertex 10.5394 0 5
      vertex 10.5394 0 4
      vertex 10.5394 1.03528 3.8637
    endloop
  endfacet
  facet normal 1 0 0
    outer loop
      vertex 10.5394 0 5
      vertex 10.5394 -1.03528 3.8637
      vertex 10.5394 0 4
    endloop
  endfacet
  facet normal 1 -0 0
    outer loop
      vertex 10.5394 -1.2941 4.82963
      vertex 10.5394 -1.03528 3.8637
      vertex 10.5394 0 5
    endloop
  endfacet
  facet normal 1 0 0
    outer loop
      vertex 10.5394 -1.2941 4.82963
      vertex 10.5394 -2 3.4641
      vertex 10.5394 -1.03528 3.8637
    endloop
  endfacet
  facet normal 1 -0 0
    outer loop
      vertex 10.5394 -2.5 4.33013
      vertex 10.5394 -2 3.4641
      vertex 10.5394 -1.2941 4.82963
    endloop
  endfacet
  facet normal 1 0 0
    outer loop
      vertex 10.5394 -2.5 4.33013
      vertex 10.5394 -2.82843 2.82843
      vertex 10.5394 -2 3.4641
    endloop
  endfacet
  facet normal 1 -0 0
    outer loop
      vertex 10.5394 -3.53553 3.53553
      vertex 10.5394 -2.82843 2.82843
      vertex 10.5394 -2.5 4.33013
    endloop
  endfacet
  facet normal 1 0 0
    outer loop
      vertex 10.5394 -2.82843 2.82843
      vertex 10.5394 -3.53553 3.53553
      vertex 10.5394 -3.4641 2
    endloop
  endfacet
  facet normal 1 -0 0
    outer loop
      vertex 10.5394 -4.33013 2.5
      vertex 10.5394 -3.4641 2
      vertex 10.5394 -3.53553 3.53553
    endloop
  endfacet
  facet normal 1 0 0
    outer loop
      vertex 10.5394 -3.4641 2
      vertex 10.5394 -4.33013 2.5
      vertex 10.5394 -3.8637 1.03528
    endloop
  endfacet
  facet normal 1 -0 0
    outer loop
      vertex 10.5394 -4.82963 1.2941
      vertex 10.5394 -3.8637 1.03528
      vertex 10.5394 -4.33013 2.5
    endloop
  endfacet
  facet normal 1 0 0
    outer loop
      vertex 10.5394 -3.8637 1.03528
      vertex 10.5394 -4.82963 1.2941
      vertex 10.5394 -4 2.22045e-16
    endloop
  endfacet
  facet normal 1 0 0
    outer loop
      vertex 10.5394 -5 2.22045e-16
      vertex 10.5394 -4 2.22045e-16
      vertex 10.5394 -4.82963 1.2941
    endloop
  endfacet
  facet normal 1 0 0
    outer loop
      vertex 10.5394 -4 2.22045e-16
      vertex 10.5394 -5 2.22045e-16
      vertex 10.5394 -4 0
    endloop
  endfacet
  facet normal 1 0 0
    outer loop
      vertex 10.5394 -4 0
      vertex 10.5394 -5 2.22045e-16
      vertex 10.5394 -5 0
    endloop
  endfacet
  facet normal 1 0 0
    outer loop
      vertex 10.5394 4 2.22045e-16
      vertex 10.5394 5 2.22045e-16
      vertex 10.5394 4.82963 1.2941
    endloop
  endfacet
  facet normal 1 0 0
    outer loop
      vertex 10.5394 3.8637 1.03528
      vertex 10.5394 4.82963 1.2941
      vertex 10.5394 4.33013 2.5
    endloop
  endfacet
  facet normal 1 0 0
    outer loop
      vertex 10.5394 5 2.22045e-16
      vertex 10.5394 4 2.22045e-16
      vertex 10.5394 5 0
    endloop
  endfacet
  facet normal 1 0 0
    outer loop
      vertex 10.5394 5 0
      vertex 10.5394 4 2.22045e-16
      vertex 10.5394 4 0
    endloop
  endfacet
  facet normal -0 0.608766 0.79335
    outer loop
      vertex 9.5394 3.53553 3.53553
      vertex 10.5394 2.5 4.33013
      vertex 10.5394 3.53553 3.53553
    endloop
  endfacet
  facet normal 0 0.608766 0.79335
    outer loop
      vertex 10.5394 2.5 4.33013
      vertex 9.5394 3.53553 3.53553
      vertex 9.5394 2.5 4.33013
    endloop
  endfacet
  facet normal 0 0.92388 0.382683
    outer loop
      vertex 10.5394 4.82963 1.2941
      vertex 9.5394 4.33013 2.5
      vertex 10.5394 4.33013 2.5
    endloop
  endfacet
  facet normal 0 0.92388 0.382683
    outer loop
      vertex 9.5394 4.33013 2.5
      vertex 10.5394 4.82963 1.2941
      vertex 9.5394 4.82963 1.2941
    endloop
  endfacet
  facet normal 0 0.79335 0.608766
    outer loop
      vertex 10.5394 4.33013 2.5
      vertex 9.5394 3.53553 3.53553
      vertex 10.5394 3.53553 3.53553
    endloop
  endfacet
  facet normal 0 0.79335 0.608766
    outer loop
      vertex 9.5394 3.53553 3.53553
      vertex 10.5394 4.33013 2.5
      vertex 9.5394 4.33013 2.5
    endloop
  endfacet
  facet normal 0 -1 -0
    outer loop
      vertex 10.5394 -5 2.22045e-16
      vertex 9.5394 -5 0
      vertex 10.5394 -5 0
    endloop
  endfacet
  facet normal 0 -0.991445 0.130525
    outer loop
      vertex 9.5394 -4.82963 1.2941
      vertex 10.5394 -5 2.22045e-16
      vertex 10.5394 -4.82963 1.2941
    endloop
  endfacet
  facet normal -2.89824e-17 -0.991445 0.130525
    outer loop
      vertex 10.5394 -5 2.22045e-16
      vertex 9.5394 -4.82963 1.2941
      vertex 9.5394 -5 0
    endloop
  endfacet
  facet normal 0 -0.382683 0.92388
    outer loop
      vertex 9.5394 -1.2941 4.82963
      vertex 10.5394 -2.5 4.33013
      vertex 10.5394 -1.2941 4.82963
    endloop
  endfacet
  facet normal 0 -0.382683 0.92388
    outer loop
      vertex 10.5394 -2.5 4.33013
      vertex 9.5394 -1.2941 4.82963
      vertex 9.5394 -2.5 4.33013
    endloop
  endfacet
  facet normal 0 -0.608766 0.79335
    outer loop
      vertex 9.5394 -2.5 4.33013
      vertex 10.5394 -3.53553 3.53553
      vertex 10.5394 -2.5 4.33013
    endloop
  endfacet
  facet normal 0 -0.608766 0.79335
    outer loop
      vertex 10.5394 -3.53553 3.53553
      vertex 9.5394 -2.5 4.33013
      vertex 9.5394 -3.53553 3.53553
    endloop
  endfacet
  facet normal -0 0.130525 0.991445
    outer loop
      vertex 11.5898 1.2941 4.82963
      vertex 12.5898 0 5
      vertex 12.5898 1.2941 4.82963
    endloop
  endfacet
  facet normal 0 0.130525 0.991445
    outer loop
      vertex 12.5898 0 5
      vertex 11.5898 1.2941 4.82963
      vertex 11.5898 0 5
    endloop
  endfacet
  facet normal 0 1 -0
    outer loop
      vertex 12.5898 5 0
      vertex 11.5898 5 4.5528e-16
      vertex 12.5898 5 6.77325e-16
    endloop
  endfacet
  facet normal 0 1 0
    outer loop
      vertex 11.5898 5 4.5528e-16
      vertex 12.5898 5 0
      vertex 11.5898 5 0
    endloop
  endfacet
  facet normal 0 -0.608766 0.79335
    outer loop
      vertex 11.5898 -2.5 4.33013
      vertex 12.5898 -3.53553 3.53553
      vertex 12.5898 -2.5 4.33013
    endloop
  endfacet
  facet normal 0 -0.608766 0.79335
    outer loop
      vertex 12.5898 -3.53553 3.53553
      vertex 11.5898 -2.5 4.33013
      vertex 11.5898 -3.53553 3.53553
    endloop
  endfacet
  facet normal -1 0 0
    outer loop
      vertex 11.5898 -5 4.5528e-16
      vertex 11.5898 -4 4.5528e-16
      vertex 11.5898 -4 0
    endloop
  endfacet
  facet normal -1 0 0
    outer loop
      vertex 11.5898 -4 4.5528e-16
      vertex 11.5898 -4.82963 1.2941
      vertex 11.5898 -4.33013 2.5
    endloop
  endfacet
  facet normal -1 0 0
    outer loop
      vertex 11.5898 -5 4.5528e-16
      vertex 11.5898 -4 0
      vertex 11.5898 -5 0
    endloop
  endfacet
  facet normal -1 0 0
    outer loop
      vertex 11.5898 -4 4.5528e-16
      vertex 11.5898 -5 4.5528e-16
      vertex 11.5898 -4.82963 1.2941
    endloop
  endfacet
  facet normal -1 0 0
    outer loop
      vertex 11.5898 4 4.5528e-16
      vertex 11.5898 5 4.5528e-16
      vertex 11.5898 5 0
    endloop
  endfacet
  facet normal -1 0 0
    outer loop
      vertex 11.5898 5 4.5528e-16
      vertex 11.5898 3.8637 1.03528
      vertex 11.5898 4.82963 1.2941
    endloop
  endfacet
  facet normal -1 0 0
    outer loop
      vertex 11.5898 4 4.5528e-16
      vertex 11.5898 5 0
      vertex 11.5898 4 0
    endloop
  endfacet
  facet normal -1 0 0
    outer loop
      vertex 11.5898 5 4.5528e-16
      vertex 11.5898 4 4.5528e-16
      vertex 11.5898 3.8637 1.03528
    endloop
  endfacet
  facet normal -1 -0 0
    outer loop
      vertex 11.5898 4.82963 1.2941
      vertex 11.5898 3.8637 1.03528
      vertex 11.5898 4.33013 2.5
    endloop
  endfacet
  facet normal -1 0 0
    outer loop
      vertex 11.5898 3.4641 2
      vertex 11.5898 4.33013 2.5
      vertex 11.5898 3.8637 1.03528
    endloop
  endfacet
  facet normal -1 -0 0
    outer loop
      vertex 11.5898 4.33013 2.5
      vertex 11.5898 3.4641 2
      vertex 11.5898 3.53553 3.53553
    endloop
  endfacet
  facet normal -1 0 0
    outer loop
      vertex 11.5898 2.82843 2.82843
      vertex 11.5898 3.53553 3.53553
      vertex 11.5898 3.4641 2
    endloop
  endfacet
  facet normal -1 0 0
    outer loop
      vertex 11.5898 2.82843 2.82843
      vertex 11.5898 2.5 4.33013
      vertex 11.5898 3.53553 3.53553
    endloop
  endfacet
  facet normal -1 0 0
    outer loop
      vertex 11.5898 2 3.4641
      vertex 11.5898 2.5 4.33013
      vertex 11.5898 2.82843 2.82843
    endloop
  endfacet
  facet normal -1 0 0
    outer loop
      vertex 11.5898 2 3.4641
      vertex 11.5898 1.2941 4.82963
      vertex 11.5898 2.5 4.33013
    endloop
  endfacet
  facet normal -1 0 0
    outer loop
      vertex 11.5898 1.03528 3.8637
      vertex 11.5898 1.2941 4.82963
      vertex 11.5898 2 3.4641
    endloop
  endfacet
  facet normal -1 0 0
    outer loop
      vertex 11.5898 0 4
      vertex 11.5898 1.2941 4.82963
      vertex 11.5898 1.03528 3.8637
    endloop
  endfacet
  facet normal -1 0 0
    outer loop
      vertex 11.5898 0 4
      vertex 11.5898 0 5
      vertex 11.5898 1.2941 4.82963
    endloop
  endfacet
  facet normal -1 0 0
    outer loop
      vertex 11.5898 -1.03528 3.8637
      vertex 11.5898 0 5
      vertex 11.5898 0 4
    endloop
  endfacet
  facet normal -1 0 0
    outer loop
      vertex 11.5898 -1.03528 3.8637
      vertex 11.5898 -1.2941 4.82963
      vertex 11.5898 0 5
    endloop
  endfacet
  facet normal -1 0 0
    outer loop
      vertex 11.5898 -2 3.4641
      vertex 11.5898 -1.2941 4.82963
      vertex 11.5898 -1.03528 3.8637
    endloop
  endfacet
  facet normal -1 0 0
    outer loop
      vertex 11.5898 -2 3.4641
      vertex 11.5898 -2.5 4.33013
      vertex 11.5898 -1.2941 4.82963
    endloop
  endfacet
  facet normal -1 0 0
    outer loop
      vertex 11.5898 -2.82843 2.82843
      vertex 11.5898 -2.5 4.33013
      vertex 11.5898 -2 3.4641
    endloop
  endfacet
  facet normal -1 0 0
    outer loop
      vertex 11.5898 -3.53553 3.53553
      vertex 11.5898 -2.82843 2.82843
      vertex 11.5898 -3.4641 2
    endloop
  endfacet
  facet normal -1 0 0
    outer loop
      vertex 11.5898 -2.82843 2.82843
      vertex 11.5898 -3.53553 3.53553
      vertex 11.5898 -2.5 4.33013
    endloop
  endfacet
  facet normal -1 0 0
    outer loop
      vertex 11.5898 -4.33013 2.5
      vertex 11.5898 -3.4641 2
      vertex 11.5898 -3.8637 1.03528
    endloop
  endfacet
  facet normal -1 0 0
    outer loop
      vertex 11.5898 -4.33013 2.5
      vertex 11.5898 -3.8637 1.03528
      vertex 11.5898 -4 4.5528e-16
    endloop
  endfacet
  facet normal -1 0 0
    outer loop
      vertex 11.5898 -3.4641 2
      vertex 11.5898 -4.33013 2.5
      vertex 11.5898 -3.53553 3.53553
    endloop
  endfacet
  facet normal 0 0.79335 0.608766
    outer loop
      vertex 12.5898 4.33013 2.5
      vertex 11.5898 3.53553 3.53553
      vertex 12.5898 3.53553 3.53553
    endloop
  endfacet
  facet normal 0 0.79335 0.608766
    outer loop
      vertex 11.5898 3.53553 3.53553
      vertex 12.5898 4.33013 2.5
      vertex 11.5898 4.33013 2.5
    endloop
  endfacet
  facet normal 1 0 0
    outer loop
      vertex 12.5898 4.82963 1.2941
      vertex 12.5898 2.89778 0.776457
      vertex 12.5898 3 6.77325e-16
    endloop
  endfacet
  facet normal 1 0 0
    outer loop
      vertex 12.5898 4.33013 2.5
      vertex 12.5898 2.59808 1.5
      vertex 12.5898 2.89778 0.776457
    endloop
  endfacet
  facet normal 1 0 0
    outer loop
      vertex 12.5898 2.12132 2.12132
      vertex 12.5898 3.53553 3.53553
      vertex 12.5898 2.5 4.33013
    endloop
  endfacet
  facet normal 1 0 0
    outer loop
      vertex 12.5898 3.53553 3.53553
      vertex 12.5898 2.12132 2.12132
      vertex 12.5898 2.59808 1.5
    endloop
  endfacet
  facet normal 1 0 0
    outer loop
      vertex 12.5898 2.5 4.33013
      vertex 12.5898 1.5 2.59808
      vertex 12.5898 2.12132 2.12132
    endloop
  endfacet
  facet normal 1 0 0
    outer loop
      vertex 12.5898 1.2941 4.82963
      vertex 12.5898 1.5 2.59808
      vertex 12.5898 2.5 4.33013
    endloop
  endfacet
  facet normal 1 0 0
    outer loop
      vertex 12.5898 1.2941 4.82963
      vertex 12.5898 0.776457 2.89778
      vertex 12.5898 1.5 2.59808
    endloop
  endfacet
  facet normal 1 0 0
    outer loop
      vertex 12.5898 0 5
      vertex 12.5898 0.776457 2.89778
      vertex 12.5898 1.2941 4.82963
    endloop
  endfacet
  facet normal 1 0 0
    outer loop
      vertex 12.5898 0 5
      vertex 12.5898 0 3
      vertex 12.5898 0.776457 2.89778
    endloop
  endfacet
  facet normal 1 0 0
    outer loop
      vertex 12.5898 0 5
      vertex 12.5898 -0.776457 2.89778
      vertex 12.5898 0 3
    endloop
  endfacet
  facet normal 1 -0 0
    outer loop
      vertex 12.5898 -1.2941 4.82963
      vertex 12.5898 -0.776457 2.89778
      vertex 12.5898 0 5
    endloop
  endfacet
  facet normal 1 0 0
    outer loop
      vertex 12.5898 -1.2941 4.82963
      vertex 12.5898 -1.5 2.59808
      vertex 12.5898 -0.776457 2.89778
    endloop
  endfacet
  facet normal 1 -0 0
    outer loop
      vertex 12.5898 -2.5 4.33013
      vertex 12.5898 -1.5 2.59808
      vertex 12.5898 -1.2941 4.82963
    endloop
  endfacet
  facet normal 1 0 0
    outer loop
      vertex 12.5898 -1.5 2.59808
      vertex 12.5898 -2.5 4.33013
      vertex 12.5898 -2.12132 2.12132
    endloop
  endfacet
  facet normal 1 -0 0
    outer loop
      vertex 12.5898 -3.53553 3.53553
      vertex 12.5898 -2.12132 2.12132
      vertex 12.5898 -2.5 4.33013
    endloop
  endfacet
  facet normal 1 0 0
    outer loop
      vertex 12.5898 -2.12132 2.12132
      vertex 12.5898 -3.53553 3.53553
      vertex 12.5898 -2.59808 1.5
    endloop
  endfacet
  facet normal 1 -0 0
    outer loop
      vertex 12.5898 -4.33013 2.5
      vertex 12.5898 -2.59808 1.5
      vertex 12.5898 -3.53553 3.53553
    endloop
  endfacet
  facet normal 1 0 0
    outer loop
      vertex 12.5898 -2.59808 1.5
      vertex 12.5898 -4.33013 2.5
      vertex 12.5898 -2.89778 0.776457
    endloop
  endfacet
  facet normal 1 -0 0
    outer loop
      vertex 12.5898 -4.82963 1.2941
      vertex 12.5898 -2.89778 0.776457
      vertex 12.5898 -4.33013 2.5
    endloop
  endfacet
  facet normal 1 0 0
    outer loop
      vertex 12.5898 -2.89778 0.776457
      vertex 12.5898 -4.82963 1.2941
      vertex 12.5898 -3 6.77325e-16
    endloop
  endfacet
  facet normal 1 0 0
    outer loop
      vertex 12.5898 -5 6.77325e-16
      vertex 12.5898 -3 6.77325e-16
      vertex 12.5898 -4.82963 1.2941
    endloop
  endfacet
  facet normal 1 0 0
    outer loop
      vertex 12.5898 -3 6.77325e-16
      vertex 12.5898 -5 6.77325e-16
      vertex 12.5898 -3 0
    endloop
  endfacet
  facet normal 1 0 0
    outer loop
      vertex 12.5898 -3 0
      vertex 12.5898 -5 6.77325e-16
      vertex 12.5898 -5 0
    endloop
  endfacet
  facet normal 1 0 0
    outer loop
      vertex 12.5898 3 6.77325e-16
      vertex 12.5898 5 6.77325e-16
      vertex 12.5898 4.82963 1.2941
    endloop
  endfacet
  facet normal 1 0 0
    outer loop
      vertex 12.5898 2.89778 0.776457
      vertex 12.5898 4.82963 1.2941
      vertex 12.5898 4.33013 2.5
    endloop
  endfacet
  facet normal 1 0 0
    outer loop
      vertex 12.5898 2.59808 1.5
      vertex 12.5898 4.33013 2.5
      vertex 12.5898 3.53553 3.53553
    endloop
  endfacet
  facet normal 1 0 0
    outer loop
      vertex 12.5898 5 6.77325e-16
      vertex 12.5898 3 6.77325e-16
      vertex 12.5898 5 0
    endloop
  endfacet
  facet normal 1 0 0
    outer loop
      vertex 12.5898 5 0
      vertex 12.5898 3 6.77325e-16
      vertex 12.5898 3 0
    endloop
  endfacet
  facet normal 0 0.991445 0.130525
    outer loop
      vertex 12.5898 5 6.77325e-16
      vertex 11.5898 4.82963 1.2941
      vertex 12.5898 4.82963 1.2941
    endloop
  endfacet
  facet normal -2.12643e-17 0.991445 0.130525
    outer loop
      vertex 11.5898 4.82963 1.2941
      vertex 12.5898 5 6.77325e-16
      vertex 11.5898 5 4.5528e-16
    endloop
  endfacet
  facet normal 0 -0.79335 0.608766
    outer loop
      vertex 11.5898 -4.33013 2.5
      vertex 12.5898 -3.53553 3.53553
      vertex 11.5898 -3.53553 3.53553
    endloop
  endfacet
  facet normal 0 -0.79335 0.608766
    outer loop
      vertex 12.5898 -3.53553 3.53553
      vertex 11.5898 -4.33013 2.5
      vertex 12.5898 -4.33013 2.5
    endloop
  endfacet
  facet normal 0 -0.130525 0.991445
    outer loop
      vertex 11.5898 0 5
      vertex 12.5898 -1.2941 4.82963
      vertex 12.5898 0 5
    endloop
  endfacet
  facet normal 0 -0.130525 0.991445
    outer loop
      vertex 12.5898 -1.2941 4.82963
      vertex 11.5898 0 5
      vertex 11.5898 -1.2941 4.82963
    endloop
  endfacet
  facet normal -0 0.608766 0.79335
    outer loop
      vertex 11.5898 3.53553 3.53553
      vertex 12.5898 2.5 4.33013
      vertex 12.5898 3.53553 3.53553
    endloop
  endfacet
  facet normal 0 0.608766 0.79335
    outer loop
      vertex 12.5898 2.5 4.33013
      vertex 11.5898 3.53553 3.53553
      vertex 11.5898 2.5 4.33013
    endloop
  endfacet
  facet normal -0 0.382683 0.92388
    outer loop
      vertex 11.5898 2.5 4.33013
      vertex 12.5898 1.2941 4.82963
      vertex 12.5898 2.5 4.33013
    endloop
  endfacet
  facet normal 0 0.382683 0.92388
    outer loop
      vertex 12.5898 1.2941 4.82963
      vertex 11.5898 2.5 4.33013
      vertex 11.5898 1.2941 4.82963
    endloop
  endfacet
  facet normal 0 0.92388 0.382683
    outer loop
      vertex 12.5898 4.82963 1.2941
      vertex 11.5898 4.33013 2.5
      vertex 12.5898 4.33013 2.5
    endloop
  endfacet
  facet normal 0 0.92388 0.382683
    outer loop
      vertex 11.5898 4.33013 2.5
      vertex 12.5898 4.82963 1.2941
      vertex 11.5898 4.82963 1.2941
    endloop
  endfacet
  facet normal 0 -1 0
    outer loop
      vertex 11.5898 -5 0
      vertex 12.5898 -5 6.77325e-16
      vertex 11.5898 -5 4.5528e-16
    endloop
  endfacet
  facet normal 0 -1 -0
    outer loop
      vertex 12.5898 -5 6.77325e-16
      vertex 11.5898 -5 0
      vertex 12.5898 -5 0
    endloop
  endfacet
  facet normal 0 -0.92388 0.382683
    outer loop
      vertex 11.5898 -4.82963 1.2941
      vertex 12.5898 -4.33013 2.5
      vertex 11.5898 -4.33013 2.5
    endloop
  endfacet
  facet normal 0 -0.92388 0.382683
    outer loop
      vertex 12.5898 -4.33013 2.5
      vertex 11.5898 -4.82963 1.2941
      vertex 12.5898 -4.82963 1.2941
    endloop
  endfacet
  facet normal 0 -0.382683 0.92388
    outer loop
      vertex 11.5898 -1.2941 4.82963
      vertex 12.5898 -2.5 4.33013
      vertex 12.5898 -1.2941 4.82963
    endloop
  endfacet
  facet normal 0 -0.382683 0.92388
    outer loop
      vertex 12.5898 -2.5 4.33013
      vertex 11.5898 -1.2941 4.82963
      vertex 11.5898 -2.5 4.33013
    endloop
  endfacet
  facet normal 0 -0.991445 0.130525
    outer loop
      vertex 11.5898 -4.82963 1.2941
      vertex 12.5898 -5 6.77325e-16
      vertex 12.5898 -4.82963 1.2941
    endloop
  endfacet
  facet normal -2.89824e-17 -0.991445 0.130525
    outer loop
      vertex 12.5898 -5 6.77325e-16
      vertex 11.5898 -4.82963 1.2941
      vertex 11.5898 -5 4.5528e-16
    endloop
  endfacet
  facet normal 0 0 -1
    outer loop
      vertex 12.5898 3 0
      vertex 11.5898 4 0
      vertex 12.5898 5 0
    endloop
  endfacet
  facet normal 0 0 -1
    outer loop
      vertex 12.5898 3 0
      vertex 10.5394 4 0
      vertex 11.5898 4 0
    endloop
  endfacet
  facet normal 0 0 -1
    outer loop
      vertex 9.5394 3 0
      vertex 10.5394 4 0
      vertex 12.5898 3 0
    endloop
  endfacet
  facet normal 0 0 -1
    outer loop
      vertex 9.5394 5 0
      vertex 10.5394 4 0
      vertex 9.5394 3 0
    endloop
  endfacet
  facet normal 0 0 -1
    outer loop
      vertex 10.5394 4 0
      vertex 9.5394 5 0
      vertex 10.5394 5 0
    endloop
  endfacet
  facet normal -0 0 -1
    outer loop
      vertex 12.5898 5 0
      vertex 11.5898 4 0
      vertex 11.5898 5 0
    endloop
  endfacet
  facet normal 0 0 -1
    outer loop
      vertex 10.5394 -5 0
      vertex 9.5394 -5 0
      vertex 10.5394 -4 0
    endloop
  endfacet
  facet normal 0 0 -1
    outer loop
      vertex 11.5898 -4 0
      vertex 12.5898 -5 0
      vertex 11.5898 -5 0
    endloop
  endfacet
  facet normal 0 0 -1
    outer loop
      vertex 12.5898 -5 0
      vertex 11.5898 -4 0
      vertex 12.5898 -3 0
    endloop
  endfacet
  facet normal 0 0 -1
    outer loop
      vertex 10.5394 -4 0
      vertex 12.5898 -3 0
      vertex 11.5898 -4 0
    endloop
  endfacet
  facet normal 0 0 -1
    outer loop
      vertex 10.5394 -4 0
      vertex 9.5394 -3 0
      vertex 12.5898 -3 0
    endloop
  endfacet
  facet normal 0 0 -1
    outer loop
      vertex 9.5394 -3 0
      vertex 10.5394 -4 0
      vertex 9.5394 -5 0
    endloop
  endfacet
endsolid OpenSCAD_Model
