solid OpenSCAD_Model
  facet normal 0.247636 0.126434 0.960568
    outer loop
      vertex 1 1.55291 5.53775
      vertex 72.7 0 -12.7422
      vertex 72.7 1.55291 -12.9466
    endloop
  endfacet
  facet normal 0.247635 0.126464 0.960564
    outer loop
      vertex 72.7 0 -12.7422
      vertex 1 1.55291 5.53775
      vertex 1 0 5.7422
    endloop
  endfacet
  facet normal 0.0336317 -0.990884 0.130456
    outer loop
      vertex 1 -6 -0.257802
      vertex 72.7 -5.79555 -17.1893
      vertex 1 -5.79555 1.29511
    endloop
  endfacet
  facet normal 0.033632 -0.990883 0.130457
    outer loop
      vertex 72.7 -5.79555 -17.1893
      vertex 1 -6 -0.257802
      vertex 72.7 -6 -18.7422
    endloop
  endfacet
  facet normal 0.155042 0.78376 0.6014
    outer loop
      vertex 72.7 4.24264 -14.4996
      vertex 1 5.19615 2.7422
      vertex 1 4.24264 3.98484
    endloop
  endfacet
  facet normal 0.155045 0.783751 0.601412
    outer loop
      vertex 1 5.19615 2.7422
      vertex 72.7 4.24264 -14.4996
      vertex 72.7 5.19615 -15.7422
    endloop
  endfacet
  facet normal 0.200374 0.59645 0.777237
    outer loop
      vertex 1 4.24264 3.98484
      vertex 72.7 3 -13.546
      vertex 72.7 4.24264 -14.4996
    endloop
  endfacet
  facet normal 0.200379 0.596414 0.777263
    outer loop
      vertex 72.7 3 -13.546
      vertex 1 4.24264 3.98484
      vertex 1 3 4.93835
    endloop
  endfacet
  facet normal 0.0981793 0.919417 0.380832
    outer loop
      vertex 72.7 5.19615 -15.7422
      vertex 1 5.79555 1.29511
      vertex 1 5.19615 2.7422
    endloop
  endfacet
  facet normal 0.0981788 0.919418 0.38083
    outer loop
      vertex 1 5.79555 1.29511
      vertex 72.7 5.19615 -15.7422
      vertex 72.7 5.79555 -17.1893
    endloop
  endfacet
  facet normal 0.155042 -0.78376 0.6014
    outer loop
      vertex 1 -5.19615 2.7422
      vertex 72.7 -4.24264 -14.4996
      vertex 1 -4.24264 3.98484
    endloop
  endfacet
  facet normal 0.155045 -0.783751 0.601412
    outer loop
      vertex 72.7 -4.24264 -14.4996
      vertex 1 -5.19615 2.7422
      vertex 72.7 -5.19615 -15.7422
    endloop
  endfacet
  facet normal -1 -8.64448e-22 -2.22045e-16
    outer loop
      vertex -2.87347e-16 4.82963 1.2941
      vertex -4.02286e-16 6.76148 1.81173
      vertex 0 7 0
    endloop
  endfacet
  facet normal -1 0 -2.22044e-16
    outer loop
      vertex -2.87347e-16 4.82963 1.2941
      vertex 0 7 0
      vertex 0 5 0
    endloop
  endfacet
  facet normal -1 -1.13356e-21 -2.22044e-16
    outer loop
      vertex -4.02286e-16 6.76148 1.81173
      vertex -2.87347e-16 4.82963 1.2941
      vertex -7.77156e-16 6.06218 3.5
    endloop
  endfacet
  facet normal -1 -2.53074e-23 -2.22045e-16
    outer loop
      vertex -5.55111e-16 4.33013 2.5
      vertex -7.77156e-16 6.06218 3.5
      vertex -2.87347e-16 4.82963 1.2941
    endloop
  endfacet
  facet normal -1 -1.58377e-21 -2.22042e-16
    outer loop
      vertex -7.77156e-16 6.06218 3.5
      vertex -5.55111e-16 4.33013 2.5
      vertex -1.09906e-15 4.94975 4.94975
    endloop
  endfacet
  facet normal -1 2.99755e-21 -2.22043e-16
    outer loop
      vertex -7.85046e-16 3.53553 3.53553
      vertex -1.09906e-15 4.94975 4.94975
      vertex -5.55111e-16 4.33013 2.5
    endloop
  endfacet
  facet normal -1 2.17696e-21 -2.22043e-16
    outer loop
      vertex -7.85046e-16 3.53553 3.53553
      vertex -1.34607e-15 3.5 6.06218
      vertex -1.09906e-15 4.94975 4.94975
    endloop
  endfacet
  facet normal -1 -6.86387e-23 -2.22043e-16
    outer loop
      vertex -9.61481e-16 2.5 4.33013
      vertex -1.34607e-15 3.5 6.06218
      vertex -7.85046e-16 3.53553 3.53553
    endloop
  endfacet
  facet normal -1 2.65941e-21 -2.22044e-16
    outer loop
      vertex -9.61481e-16 2.5 4.33013
      vertex -1.50135e-15 1.81173 6.76148
      vertex -1.34607e-15 3.5 6.06218
    endloop
  endfacet
  facet normal -1 -2.30601e-21 -2.22046e-16
    outer loop
      vertex -1.07239e-15 1.2941 4.82963
      vertex -1.50135e-15 1.81173 6.76148
      vertex -9.61481e-16 2.5 4.33013
    endloop
  endfacet
  facet normal -1 -1.14752e-23 -2.22046e-16
    outer loop
      vertex -1.11022e-15 0 5
      vertex -1.50135e-15 1.81173 6.76148
      vertex -1.07239e-15 1.2941 4.82963
    endloop
  endfacet
  facet normal -1 -1.19963e-21 -2.22045e-16
    outer loop
      vertex -1.11022e-15 0 5
      vertex -1.55431e-15 0 7
      vertex -1.50135e-15 1.81173 6.76148
    endloop
  endfacet
  facet normal -1 -1.49409e-22 -2.22045e-16
    outer loop
      vertex -1.07239e-15 -1.2941 4.82963
      vertex -1.55431e-15 0 7
      vertex -1.11022e-15 0 5
    endloop
  endfacet
  facet normal -1 1.31455e-21 -2.22046e-16
    outer loop
      vertex -1.07239e-15 -1.2941 4.82963
      vertex -1.50135e-15 -1.81173 6.76148
      vertex -1.55431e-15 0 7
    endloop
  endfacet
  facet normal -1 2.30601e-21 -2.22046e-16
    outer loop
      vertex -9.61481e-16 -2.5 4.33013
      vertex -1.50135e-15 -1.81173 6.76148
      vertex -1.07239e-15 -1.2941 4.82963
    endloop
  endfacet
  facet normal -1 -2.65941e-21 -2.22044e-16
    outer loop
      vertex -9.61481e-16 -2.5 4.33013
      vertex -1.34607e-15 -3.5 6.06218
      vertex -1.50135e-15 -1.81173 6.76148
    endloop
  endfacet
  facet normal -1 6.86387e-23 -2.22043e-16
    outer loop
      vertex -7.85046e-16 -3.53553 3.53553
      vertex -1.34607e-15 -3.5 6.06218
      vertex -9.61481e-16 -2.5 4.33013
    endloop
  endfacet
  facet normal -1 -2.45114e-21 -2.22043e-16
    outer loop
      vertex -1.09906e-15 -4.94975 4.94975
      vertex -7.85046e-16 -3.53553 3.53553
      vertex -5.55112e-16 -4.33013 2.5
    endloop
  endfacet
  facet normal -1 -8.26991e-22 -2.22045e-16
    outer loop
      vertex -7.77156e-16 -6.06218 3.5
      vertex -5.55112e-16 -4.33013 2.5
      vertex -2.87347e-16 -4.82963 1.2941
    endloop
  endfacet
  facet normal -1 -2.17696e-21 -2.22043e-16
    outer loop
      vertex -7.85046e-16 -3.53553 3.53553
      vertex -1.09906e-15 -4.94975 4.94975
      vertex -1.34607e-15 -3.5 6.06218
    endloop
  endfacet
  facet normal -1 1.21022e-21 -2.22044e-16
    outer loop
      vertex -4.02286e-16 -6.76148 1.81173
      vertex -2.87347e-16 -4.82963 1.2941
      vertex 0 -5 0
    endloop
  endfacet
  facet normal -1 1.18367e-21 -2.22042e-16
    outer loop
      vertex -5.55112e-16 -4.33013 2.5
      vertex -7.77156e-16 -6.06218 3.5
      vertex -1.09906e-15 -4.94975 4.94975
    endloop
  endfacet
  facet normal -1 1.13356e-21 -2.22044e-16
    outer loop
      vertex -2.87347e-16 -4.82963 1.2941
      vertex -4.02286e-16 -6.76148 1.81173
      vertex -7.77156e-16 -6.06218 3.5
    endloop
  endfacet
  facet normal -1 0 -2.22045e-16
    outer loop
      vertex -4.02286e-16 -6.76148 1.81173
      vertex 0 -5 0
      vertex 0 -7 0
    endloop
  endfacet
  facet normal 0.231696 0.372268 0.89874
    outer loop
      vertex 1 3 4.93835
      vertex 72.7 1.55291 -12.9466
      vertex 72.7 3 -13.546
    endloop
  endfacet
  facet normal 0.231696 0.372268 0.89874
    outer loop
      vertex 72.7 1.55291 -12.9466
      vertex 1 3 4.93835
      vertex 1 1.55291 5.53775
    endloop
  endfacet
  facet normal 0.0336317 0.990884 0.130456
    outer loop
      vertex 72.7 5.79555 -17.1893
      vertex 1 6 -0.257802
      vertex 1 5.79555 1.29511
    endloop
  endfacet
  facet normal 0.033632 0.990883 0.130457
    outer loop
      vertex 1 6 -0.257802
      vertex 72.7 5.79555 -17.1893
      vertex 72.7 6 -18.7422
    endloop
  endfacet
  facet normal 0.0981793 -0.919417 0.380832
    outer loop
      vertex 1 -5.79555 1.29511
      vertex 72.7 -5.19615 -15.7422
      vertex 1 -5.19615 2.7422
    endloop
  endfacet
  facet normal 0.0981788 -0.919418 0.38083
    outer loop
      vertex 72.7 -5.19615 -15.7422
      vertex 1 -5.79555 1.29511
      vertex 72.7 -5.79555 -17.1893
    endloop
  endfacet
  facet normal 0.200373 -0.596451 0.777237
    outer loop
      vertex 1 -3 4.93835
      vertex 72.7 -4.24264 -14.4996
      vertex 72.7 -3 -13.546
    endloop
  endfacet
  facet normal 0.20038 -0.596414 0.777263
    outer loop
      vertex 72.7 -4.24264 -14.4996
      vertex 1 -3 4.93835
      vertex 1 -4.24264 3.98484
    endloop
  endfacet
  facet normal 0.247636 -0.126434 0.960568
    outer loop
      vertex 1 0 5.7422
      vertex 72.7 -1.55291 -12.9466
      vertex 72.7 0 -12.7422
    endloop
  endfacet
  facet normal 0.247635 -0.126464 0.960564
    outer loop
      vertex 72.7 -1.55291 -12.9466
      vertex 1 0 5.7422
      vertex 1 -1.55291 5.53775
    endloop
  endfacet
  facet normal 0.231696 -0.372268 0.89874
    outer loop
      vertex 1 -1.55291 5.53775
      vertex 72.7 -3 -13.546
      vertex 72.7 -1.55291 -12.9466
    endloop
  endfacet
  facet normal 0.231696 -0.372268 0.89874
    outer loop
      vertex 72.7 -3 -13.546
      vertex 1 -1.55291 5.53775
      vertex 1 -3 4.93835
    endloop
  endfacet
  facet normal -0.247635 -0.126482 -0.960562
    outer loop
      vertex 73.7 0 -14
      vertex -1.07239e-15 1.2941 4.82963
      vertex 73.7 1.2941 -14.1704
    endloop
  endfacet
  facet normal -0.247635 -0.12646 -0.960565
    outer loop
      vertex -1.07239e-15 1.2941 4.82963
      vertex 73.7 0 -14
      vertex -1.11022e-15 0 5
    endloop
  endfacet
  facet normal -0.0981799 0.919416 -0.380834
    outer loop
      vertex 73.7 -4.33013 -16.5
      vertex -2.87347e-16 -4.82963 1.2941
      vertex -5.55112e-16 -4.33013 2.5
    endloop
  endfacet
  facet normal -0.0981799 0.919416 -0.380834
    outer loop
      vertex -2.87347e-16 -4.82963 1.2941
      vertex 73.7 -4.33013 -16.5
      vertex 73.7 -4.82963 -17.7059
    endloop
  endfacet
  facet normal -0.0336306 -0.990884 -0.130451
    outer loop
      vertex 0 5 0
      vertex 73.7 4.82963 -17.7059
      vertex -2.87347e-16 4.82963 1.2941
    endloop
  endfacet
  facet normal -0.0336306 -0.990884 -0.130451
    outer loop
      vertex 73.7 4.82963 -17.7059
      vertex 0 5 0
      vertex 73.7 5 -19
    endloop
  endfacet
  facet normal -0.231697 -0.37227 -0.898739
    outer loop
      vertex 73.7 1.2941 -14.1704
      vertex -9.61481e-16 2.5 4.33013
      vertex 73.7 2.5 -14.6699
    endloop
  endfacet
  facet normal -0.231697 -0.37227 -0.898739
    outer loop
      vertex -9.61481e-16 2.5 4.33013
      vertex 73.7 1.2941 -14.1704
      vertex -1.07239e-15 1.2941 4.82963
    endloop
  endfacet
  facet normal -0.247635 0.126482 -0.960562
    outer loop
      vertex -1.07239e-15 -1.2941 4.82963
      vertex 73.7 0 -14
      vertex 73.7 -1.2941 -14.1704
    endloop
  endfacet
  facet normal -0.247635 0.12646 -0.960565
    outer loop
      vertex 73.7 0 -14
      vertex -1.07239e-15 -1.2941 4.82963
      vertex -1.11022e-15 0 5
    endloop
  endfacet
  facet normal -0.155044 0.783756 -0.601405
    outer loop
      vertex 73.7 -3.53553 -15.4645
      vertex -5.55112e-16 -4.33013 2.5
      vertex -7.85046e-16 -3.53553 3.53553
    endloop
  endfacet
  facet normal -0.155046 0.783747 -0.601415
    outer loop
      vertex -5.55112e-16 -4.33013 2.5
      vertex 73.7 -3.53553 -15.4645
      vertex 73.7 -4.33013 -16.5
    endloop
  endfacet
  facet normal -0.200379 -0.596419 -0.777259
    outer loop
      vertex 73.7 2.5 -14.6699
      vertex -7.85046e-16 3.53553 3.53553
      vertex 73.7 3.53553 -15.4645
    endloop
  endfacet
  facet normal -0.200379 -0.596419 -0.777259
    outer loop
      vertex -7.85046e-16 3.53553 3.53553
      vertex 73.7 2.5 -14.6699
      vertex -9.61481e-16 2.5 4.33013
    endloop
  endfacet
  facet normal -0.0981799 -0.919416 -0.380834
    outer loop
      vertex -2.87347e-16 4.82963 1.2941
      vertex 73.7 4.33013 -16.5
      vertex -5.55111e-16 4.33013 2.5
    endloop
  endfacet
  facet normal -0.0981799 -0.919416 -0.380834
    outer loop
      vertex 73.7 4.33013 -16.5
      vertex -2.87347e-16 4.82963 1.2941
      vertex 73.7 4.82963 -17.7059
    endloop
  endfacet
  facet normal -0.155044 -0.783756 -0.601405
    outer loop
      vertex -5.55111e-16 4.33013 2.5
      vertex 73.7 3.53553 -15.4645
      vertex -7.85046e-16 3.53553 3.53553
    endloop
  endfacet
  facet normal -0.155046 -0.783747 -0.601415
    outer loop
      vertex 73.7 3.53553 -15.4645
      vertex -5.55111e-16 4.33013 2.5
      vertex 73.7 4.33013 -16.5
    endloop
  endfacet
  facet normal -0.0336306 0.990884 -0.130451
    outer loop
      vertex 73.7 -4.82963 -17.7059
      vertex 0 -5 0
      vertex -2.87347e-16 -4.82963 1.2941
    endloop
  endfacet
  facet normal -0.0336306 0.990884 -0.130451
    outer loop
      vertex 0 -5 0
      vertex 73.7 -4.82963 -17.7059
      vertex 73.7 -5 -19
    endloop
  endfacet
  facet normal -0.231697 0.37227 -0.898739
    outer loop
      vertex -9.61481e-16 -2.5 4.33013
      vertex 73.7 -1.2941 -14.1704
      vertex 73.7 -2.5 -14.6699
    endloop
  endfacet
  facet normal -0.231697 0.37227 -0.898739
    outer loop
      vertex 73.7 -1.2941 -14.1704
      vertex -9.61481e-16 -2.5 4.33013
      vertex -1.07239e-15 -1.2941 4.82963
    endloop
  endfacet
  facet normal -0.200379 0.596419 -0.777259
    outer loop
      vertex -7.85046e-16 -3.53553 3.53553
      vertex 73.7 -2.5 -14.6699
      vertex 73.7 -3.53553 -15.4645
    endloop
  endfacet
  facet normal -0.200379 0.596419 -0.777259
    outer loop
      vertex 73.7 -2.5 -14.6699
      vertex -7.85046e-16 -3.53553 3.53553
      vertex -9.61481e-16 -2.5 4.33013
    endloop
  endfacet
  facet normal 0.231695 0.372268 0.89874
    outer loop
      vertex -1.34607e-15 3.5 6.06218
      vertex 1 1.81173 6.50368
      vertex 1 3.5 5.80438
    endloop
  endfacet
  facet normal 0.231695 0.372268 0.89874
    outer loop
      vertex 1 1.81173 6.50368
      vertex -1.34607e-15 3.5 6.06218
      vertex -1.50135e-15 1.81173 6.76148
    endloop
  endfacet
  facet normal 0.0981786 -0.919417 0.380833
    outer loop
      vertex -4.02286e-16 -6.76148 1.81173
      vertex 1 -6.06218 3.2422
      vertex -7.77156e-16 -6.06218 3.5
    endloop
  endfacet
  facet normal 0.0981786 -0.919417 0.380833
    outer loop
      vertex 1 -6.06218 3.2422
      vertex -4.02286e-16 -6.76148 1.81173
      vertex 1 -6.76148 1.55393
    endloop
  endfacet
  facet normal 0.0981786 0.919417 0.380833
    outer loop
      vertex 1 6.06218 3.2422
      vertex -4.02286e-16 6.76148 1.81173
      vertex -7.77156e-16 6.06218 3.5
    endloop
  endfacet
  facet normal 0.0981786 0.919417 0.380833
    outer loop
      vertex -4.02286e-16 6.76148 1.81173
      vertex 1 6.06218 3.2422
      vertex 1 6.76148 1.55393
    endloop
  endfacet
  facet normal 0.200379 0.596414 0.777264
    outer loop
      vertex -1.09906e-15 4.94975 4.94975
      vertex 1 3.5 5.80438
      vertex 1 4.94975 4.69195
    endloop
  endfacet
  facet normal 0.200379 0.596414 0.777264
    outer loop
      vertex 1 3.5 5.80438
      vertex -1.09906e-15 4.94975 4.94975
      vertex -1.34607e-15 3.5 6.06218
    endloop
  endfacet
  facet normal 0.155041 0.783761 0.6014
    outer loop
      vertex 1 4.94975 4.69195
      vertex -7.77156e-16 6.06218 3.5
      vertex -1.09906e-15 4.94975 4.94975
    endloop
  endfacet
  facet normal 0.155041 0.783761 0.6014
    outer loop
      vertex -7.77156e-16 6.06218 3.5
      vertex 1 4.94975 4.69195
      vertex 1 6.06218 3.2422
    endloop
  endfacet
  facet normal 0.231695 -0.372268 0.89874
    outer loop
      vertex 1 -1.81173 6.50368
      vertex -1.34607e-15 -3.5 6.06218
      vertex 1 -3.5 5.80438
    endloop
  endfacet
  facet normal 0.231695 -0.372268 0.89874
    outer loop
      vertex -1.34607e-15 -3.5 6.06218
      vertex 1 -1.81173 6.50368
      vertex -1.50135e-15 -1.81173 6.76148
    endloop
  endfacet
  facet normal 0.155041 -0.783761 0.6014
    outer loop
      vertex -7.77156e-16 -6.06218 3.5
      vertex 1 -4.94975 4.69195
      vertex -1.09906e-15 -4.94975 4.94975
    endloop
  endfacet
  facet normal 0.155041 -0.783761 0.6014
    outer loop
      vertex 1 -4.94975 4.69195
      vertex -7.77156e-16 -6.06218 3.5
      vertex 1 -6.06218 3.2422
    endloop
  endfacet
  facet normal 0.247634 0.126461 0.960565
    outer loop
      vertex -1.50135e-15 1.81173 6.76148
      vertex 1 0 6.7422
      vertex 1 1.81173 6.50368
    endloop
  endfacet
  facet normal 0.247634 0.126461 0.960565
    outer loop
      vertex 1 0 6.7422
      vertex -1.50135e-15 1.81173 6.76148
      vertex -1.55431e-15 0 7
    endloop
  endfacet
  facet normal 0.0336308 0.990884 0.130453
    outer loop
      vertex 1 6.76148 1.55393
      vertex 0 7 0
      vertex -4.02286e-16 6.76148 1.81173
    endloop
  endfacet
  facet normal 0.033631 0.990884 0.130453
    outer loop
      vertex 0 7 0
      vertex 1 6.76148 1.55393
      vertex 1 7 -0.257802
    endloop
  endfacet
  facet normal 0.0336308 -0.990884 0.130453
    outer loop
      vertex 0 -7 0
      vertex 1 -6.76148 1.55393
      vertex -4.02286e-16 -6.76148 1.81173
    endloop
  endfacet
  facet normal 0.033631 -0.990884 0.130453
    outer loop
      vertex 1 -6.76148 1.55393
      vertex 0 -7 0
      vertex 1 -7 -0.257802
    endloop
  endfacet
  facet normal 0.200379 -0.596414 0.777264
    outer loop
      vertex 1 -3.5 5.80438
      vertex -1.09906e-15 -4.94975 4.94975
      vertex 1 -4.94975 4.69195
    endloop
  endfacet
  facet normal 0.200379 -0.596414 0.777264
    outer loop
      vertex -1.09906e-15 -4.94975 4.94975
      vertex 1 -3.5 5.80438
      vertex -1.34607e-15 -3.5 6.06218
    endloop
  endfacet
  facet normal 0.247634 -0.126461 0.960565
    outer loop
      vertex 1 0 6.7422
      vertex -1.50135e-15 -1.81173 6.76148
      vertex 1 -1.81173 6.50368
    endloop
  endfacet
  facet normal 0.247634 -0.126461 0.960565
    outer loop
      vertex -1.50135e-15 -1.81173 6.76148
      vertex 1 0 6.7422
      vertex -1.55431e-15 0 7
    endloop
  endfacet
  facet normal 1 0 0
    outer loop
      vertex 1 5.79555 1.29511
      vertex 1 6.76148 1.55393
      vertex 1 6.06218 3.2422
    endloop
  endfacet
  facet normal 1 0 0
    outer loop
      vertex 1 6.76148 1.55393
      vertex 1 5.79555 1.29511
      vertex 1 7 -0.257802
    endloop
  endfacet
  facet normal 1 0 0
    outer loop
      vertex 1 7 -0.257802
      vertex 1 5.79555 1.29511
      vertex 1 6 -0.257802
    endloop
  endfacet
  facet normal 1 0 0
    outer loop
      vertex 1 6.06218 3.2422
      vertex 1 5.19615 2.7422
      vertex 1 5.79555 1.29511
    endloop
  endfacet
  facet normal 1 0 0
    outer loop
      vertex 1 4.94975 4.69195
      vertex 1 5.19615 2.7422
      vertex 1 6.06218 3.2422
    endloop
  endfacet
  facet normal 1 0 0
    outer loop
      vertex 1 4.94975 4.69195
      vertex 1 4.24264 3.98484
      vertex 1 5.19615 2.7422
    endloop
  endfacet
  facet normal 1 0 0
    outer loop
      vertex 1 3.5 5.80438
      vertex 1 4.24264 3.98484
      vertex 1 4.94975 4.69195
    endloop
  endfacet
  facet normal 1 0 0
    outer loop
      vertex 1 3.5 5.80438
      vertex 1 3 4.93835
      vertex 1 4.24264 3.98484
    endloop
  endfacet
  facet normal 1 0 0
    outer loop
      vertex 1 1.81173 6.50368
      vertex 1 3 4.93835
      vertex 1 3.5 5.80438
    endloop
  endfacet
  facet normal 1 0 0
    outer loop
      vertex 1 1.81173 6.50368
      vertex 1 1.55291 5.53775
      vertex 1 3 4.93835
    endloop
  endfacet
  facet normal 1 0 0
    outer loop
      vertex 1 0 6.7422
      vertex 1 1.55291 5.53775
      vertex 1 1.81173 6.50368
    endloop
  endfacet
  facet normal 1 0 0
    outer loop
      vertex 1 0 6.7422
      vertex 1 0 5.7422
      vertex 1 1.55291 5.53775
    endloop
  endfacet
  facet normal 1 0 0
    outer loop
      vertex 1 0 6.7422
      vertex 1 -1.55291 5.53775
      vertex 1 0 5.7422
    endloop
  endfacet
  facet normal 1 -0 0
    outer loop
      vertex 1 -1.81173 6.50368
      vertex 1 -1.55291 5.53775
      vertex 1 0 6.7422
    endloop
  endfacet
  facet normal 1 0 0
    outer loop
      vertex 1 -1.81173 6.50368
      vertex 1 -3 4.93835
      vertex 1 -1.55291 5.53775
    endloop
  endfacet
  facet normal 1 -0 0
    outer loop
      vertex 1 -3.5 5.80438
      vertex 1 -3 4.93835
      vertex 1 -1.81173 6.50368
    endloop
  endfacet
  facet normal 1 0 0
    outer loop
      vertex 1 -3.5 5.80438
      vertex 1 -4.24264 3.98484
      vertex 1 -3 4.93835
    endloop
  endfacet
  facet normal 1 -0 0
    outer loop
      vertex 1 -4.94975 4.69195
      vertex 1 -4.24264 3.98484
      vertex 1 -3.5 5.80438
    endloop
  endfacet
  facet normal 1 0 0
    outer loop
      vertex 1 -4.94975 4.69195
      vertex 1 -5.19615 2.7422
      vertex 1 -4.24264 3.98484
    endloop
  endfacet
  facet normal 1 -0 0
    outer loop
      vertex 1 -6.06218 3.2422
      vertex 1 -5.19615 2.7422
      vertex 1 -4.94975 4.69195
    endloop
  endfacet
  facet normal 1 0 0
    outer loop
      vertex 1 -5.19615 2.7422
      vertex 1 -6.06218 3.2422
      vertex 1 -5.79555 1.29511
    endloop
  endfacet
  facet normal 1 -0 0
    outer loop
      vertex 1 -6.76148 1.55393
      vertex 1 -5.79555 1.29511
      vertex 1 -6.06218 3.2422
    endloop
  endfacet
  facet normal 1 0 0
    outer loop
      vertex 1 -5.79555 1.29511
      vertex 1 -6.76148 1.55393
      vertex 1 -6 -0.257802
    endloop
  endfacet
  facet normal 1 0 0
    outer loop
      vertex 1 -6 -0.257802
      vertex 1 -6.76148 1.55393
      vertex 1 -7 -0.257802
    endloop
  endfacet
  facet normal 0.247634 0.126451 0.960566
    outer loop
      vertex 72.7 1.81173 -11.9807
      vertex 73.7 0 -12
      vertex 73.7 1.81173 -12.2385
    endloop
  endfacet
  facet normal 0.247634 0.126451 0.960566
    outer loop
      vertex 73.7 0 -12
      vertex 72.7 1.81173 -11.9807
      vertex 72.7 0 -11.7422
    endloop
  endfacet
  facet normal 0.0336313 -0.990884 0.130455
    outer loop
      vertex 72.7 -7 -18.7422
      vertex 73.7 -6.76148 -17.1883
      vertex 72.7 -6.76148 -16.9305
    endloop
  endfacet
  facet normal 0.0336313 -0.990884 0.130455
    outer loop
      vertex 73.7 -6.76148 -17.1883
      vertex 72.7 -7 -18.7422
      vertex 73.7 -7 -19
    endloop
  endfacet
  facet normal 0.155044 0.78375 0.601412
    outer loop
      vertex 73.7 4.94975 -14.0503
      vertex 72.7 6.06218 -15.2422
      vertex 72.7 4.94975 -13.7925
    endloop
  endfacet
  facet normal 0.155044 0.78375 0.601412
    outer loop
      vertex 72.7 6.06218 -15.2422
      vertex 73.7 4.94975 -14.0503
      vertex 73.7 6.06218 -15.5
    endloop
  endfacet
  facet normal 0.200374 0.596438 0.777246
    outer loop
      vertex 72.7 4.94975 -13.7925
      vertex 73.7 3.5 -12.9378
      vertex 73.7 4.94975 -14.0503
    endloop
  endfacet
  facet normal 0.200374 0.596438 0.777246
    outer loop
      vertex 73.7 3.5 -12.9378
      vertex 72.7 4.94975 -13.7925
      vertex 72.7 3.5 -12.68
    endloop
  endfacet
  facet normal 0.0981772 0.919419 0.380827
    outer loop
      vertex 73.7 6.06218 -15.5
      vertex 72.7 6.76148 -16.9305
      vertex 72.7 6.06218 -15.2422
    endloop
  endfacet
  facet normal 0.0981772 0.919419 0.380827
    outer loop
      vertex 72.7 6.76148 -16.9305
      vertex 73.7 6.06218 -15.5
      vertex 73.7 6.76148 -17.1883
    endloop
  endfacet
  facet normal 0.155044 -0.78375 0.601412
    outer loop
      vertex 72.7 -6.06218 -15.2422
      vertex 73.7 -4.94975 -14.0503
      vertex 72.7 -4.94975 -13.7925
    endloop
  endfacet
  facet normal 0.155044 -0.78375 0.601412
    outer loop
      vertex 73.7 -4.94975 -14.0503
      vertex 72.7 -6.06218 -15.2422
      vertex 73.7 -6.06218 -15.5
    endloop
  endfacet
  facet normal -1 0 0
    outer loop
      vertex 72.7 5.79555 -17.1893
      vertex 72.7 6.76148 -16.9305
      vertex 72.7 7 -18.7422
    endloop
  endfacet
  facet normal -1 0 0
    outer loop
      vertex 72.7 5.79555 -17.1893
      vertex 72.7 7 -18.7422
      vertex 72.7 6 -18.7422
    endloop
  endfacet
  facet normal -1 -0 0
    outer loop
      vertex 72.7 6.76148 -16.9305
      vertex 72.7 5.79555 -17.1893
      vertex 72.7 6.06218 -15.2422
    endloop
  endfacet
  facet normal -1 0 0
    outer loop
      vertex 72.7 5.19615 -15.7422
      vertex 72.7 6.06218 -15.2422
      vertex 72.7 5.79555 -17.1893
    endloop
  endfacet
  facet normal -1 0 0
    outer loop
      vertex 72.7 5.19615 -15.7422
      vertex 72.7 4.94975 -13.7925
      vertex 72.7 6.06218 -15.2422
    endloop
  endfacet
  facet normal -1 0 0
    outer loop
      vertex 72.7 4.24264 -14.4996
      vertex 72.7 4.94975 -13.7925
      vertex 72.7 5.19615 -15.7422
    endloop
  endfacet
  facet normal -1 0 0
    outer loop
      vertex 72.7 4.24264 -14.4996
      vertex 72.7 3.5 -12.68
      vertex 72.7 4.94975 -13.7925
    endloop
  endfacet
  facet normal -1 0 0
    outer loop
      vertex 72.7 3 -13.546
      vertex 72.7 3.5 -12.68
      vertex 72.7 4.24264 -14.4996
    endloop
  endfacet
  facet normal -1 0 0
    outer loop
      vertex 72.7 3 -13.546
      vertex 72.7 1.81173 -11.9807
      vertex 72.7 3.5 -12.68
    endloop
  endfacet
  facet normal -1 0 0
    outer loop
      vertex 72.7 1.55291 -12.9466
      vertex 72.7 1.81173 -11.9807
      vertex 72.7 3 -13.546
    endloop
  endfacet
  facet normal -1 0 0
    outer loop
      vertex 72.7 0 -12.7422
      vertex 72.7 1.81173 -11.9807
      vertex 72.7 1.55291 -12.9466
    endloop
  endfacet
  facet normal -1 0 0
    outer loop
      vertex 72.7 0 -12.7422
      vertex 72.7 0 -11.7422
      vertex 72.7 1.81173 -11.9807
    endloop
  endfacet
  facet normal -1 0 0
    outer loop
      vertex 72.7 -1.55291 -12.9466
      vertex 72.7 0 -11.7422
      vertex 72.7 0 -12.7422
    endloop
  endfacet
  facet normal -1 0 0
    outer loop
      vertex 72.7 -1.55291 -12.9466
      vertex 72.7 -1.81173 -11.9807
      vertex 72.7 0 -11.7422
    endloop
  endfacet
  facet normal -1 0 0
    outer loop
      vertex 72.7 -3 -13.546
      vertex 72.7 -1.81173 -11.9807
      vertex 72.7 -1.55291 -12.9466
    endloop
  endfacet
  facet normal -1 0 0
    outer loop
      vertex 72.7 -3 -13.546
      vertex 72.7 -3.5 -12.68
      vertex 72.7 -1.81173 -11.9807
    endloop
  endfacet
  facet normal -1 0 0
    outer loop
      vertex 72.7 -4.24264 -14.4996
      vertex 72.7 -3.5 -12.68
      vertex 72.7 -3 -13.546
    endloop
  endfacet
  facet normal -1 0 0
    outer loop
      vertex 72.7 -4.24264 -14.4996
      vertex 72.7 -4.94975 -13.7925
      vertex 72.7 -3.5 -12.68
    endloop
  endfacet
  facet normal -1 0 0
    outer loop
      vertex 72.7 -5.19615 -15.7422
      vertex 72.7 -4.94975 -13.7925
      vertex 72.7 -4.24264 -14.4996
    endloop
  endfacet
  facet normal -1 0 0
    outer loop
      vertex 72.7 -6.06218 -15.2422
      vertex 72.7 -5.19615 -15.7422
      vertex 72.7 -5.79555 -17.1893
    endloop
  endfacet
  facet normal -1 0 0
    outer loop
      vertex 72.7 -5.19615 -15.7422
      vertex 72.7 -6.06218 -15.2422
      vertex 72.7 -4.94975 -13.7925
    endloop
  endfacet
  facet normal -1 0 0
    outer loop
      vertex 72.7 -6.76148 -16.9305
      vertex 72.7 -5.79555 -17.1893
      vertex 72.7 -6 -18.7422
    endloop
  endfacet
  facet normal -1 0 0
    outer loop
      vertex 72.7 -5.79555 -17.1893
      vertex 72.7 -6.76148 -16.9305
      vertex 72.7 -6.06218 -15.2422
    endloop
  endfacet
  facet normal -1 0 -0
    outer loop
      vertex 72.7 -6.76148 -16.9305
      vertex 72.7 -6 -18.7422
      vertex 72.7 -7 -18.7422
    endloop
  endfacet
  facet normal 0.231695 0.372268 0.89874
    outer loop
      vertex 72.7 3.5 -12.68
      vertex 73.7 1.81173 -12.2385
      vertex 73.7 3.5 -12.9378
    endloop
  endfacet
  facet normal 0.231695 0.372268 0.89874
    outer loop
      vertex 73.7 1.81173 -12.2385
      vertex 72.7 3.5 -12.68
      vertex 72.7 1.81173 -11.9807
    endloop
  endfacet
  facet normal 1 0 0
    outer loop
      vertex 73.7 4.82963 -17.7059
      vertex 73.7 6.76148 -17.1883
      vertex 73.7 6.06218 -15.5
    endloop
  endfacet
  facet normal 1 0 0
    outer loop
      vertex 73.7 6.76148 -17.1883
      vertex 73.7 4.82963 -17.7059
      vertex 73.7 7 -19
    endloop
  endfacet
  facet normal 1 0 0
    outer loop
      vertex 73.7 4.33013 -16.5
      vertex 73.7 6.06218 -15.5
      vertex 73.7 4.94975 -14.0503
    endloop
  endfacet
  facet normal 1 0 0
    outer loop
      vertex 73.7 7 -19
      vertex 73.7 4.82963 -17.7059
      vertex 73.7 5 -19
    endloop
  endfacet
  facet normal 1 0 0
    outer loop
      vertex 73.7 6.06218 -15.5
      vertex 73.7 4.33013 -16.5
      vertex 73.7 4.82963 -17.7059
    endloop
  endfacet
  facet normal 1 0 0
    outer loop
      vertex 73.7 4.94975 -14.0503
      vertex 73.7 3.53553 -15.4645
      vertex 73.7 4.33013 -16.5
    endloop
  endfacet
  facet normal 1 0 0
    outer loop
      vertex 73.7 3.5 -12.9378
      vertex 73.7 3.53553 -15.4645
      vertex 73.7 4.94975 -14.0503
    endloop
  endfacet
  facet normal 1 0 0
    outer loop
      vertex 73.7 3.5 -12.9378
      vertex 73.7 2.5 -14.6699
      vertex 73.7 3.53553 -15.4645
    endloop
  endfacet
  facet normal 1 0 0
    outer loop
      vertex 73.7 1.81173 -12.2385
      vertex 73.7 2.5 -14.6699
      vertex 73.7 3.5 -12.9378
    endloop
  endfacet
  facet normal 1 0 0
    outer loop
      vertex 73.7 1.81173 -12.2385
      vertex 73.7 1.2941 -14.1704
      vertex 73.7 2.5 -14.6699
    endloop
  endfacet
  facet normal 1 0 0
    outer loop
      vertex 73.7 0 -12
      vertex 73.7 1.2941 -14.1704
      vertex 73.7 1.81173 -12.2385
    endloop
  endfacet
  facet normal 1 0 0
    outer loop
      vertex 73.7 0 -12
      vertex 73.7 0 -14
      vertex 73.7 1.2941 -14.1704
    endloop
  endfacet
  facet normal 1 0 0
    outer loop
      vertex 73.7 0 -12
      vertex 73.7 -1.2941 -14.1704
      vertex 73.7 0 -14
    endloop
  endfacet
  facet normal 1 -0 0
    outer loop
      vertex 73.7 -1.81173 -12.2385
      vertex 73.7 -1.2941 -14.1704
      vertex 73.7 0 -12
    endloop
  endfacet
  facet normal 1 0 0
    outer loop
      vertex 73.7 -1.81173 -12.2385
      vertex 73.7 -2.5 -14.6699
      vertex 73.7 -1.2941 -14.1704
    endloop
  endfacet
  facet normal 1 -0 0
    outer loop
      vertex 73.7 -3.5 -12.9378
      vertex 73.7 -2.5 -14.6699
      vertex 73.7 -1.81173 -12.2385
    endloop
  endfacet
  facet normal 1 0 0
    outer loop
      vertex 73.7 -3.5 -12.9378
      vertex 73.7 -3.53553 -15.4645
      vertex 73.7 -2.5 -14.6699
    endloop
  endfacet
  facet normal 1 -0 0
    outer loop
      vertex 73.7 -4.94975 -14.0503
      vertex 73.7 -3.53553 -15.4645
      vertex 73.7 -3.5 -12.9378
    endloop
  endfacet
  facet normal 1 0 0
    outer loop
      vertex 73.7 -3.53553 -15.4645
      vertex 73.7 -4.94975 -14.0503
      vertex 73.7 -4.33013 -16.5
    endloop
  endfacet
  facet normal 1 -0 0
    outer loop
      vertex 73.7 -6.06218 -15.5
      vertex 73.7 -4.33013 -16.5
      vertex 73.7 -4.94975 -14.0503
    endloop
  endfacet
  facet normal 1 0 0
    outer loop
      vertex 73.7 -4.33013 -16.5
      vertex 73.7 -6.06218 -15.5
      vertex 73.7 -4.82963 -17.7059
    endloop
  endfacet
  facet normal 1 -0 0
    outer loop
      vertex 73.7 -6.76148 -17.1883
      vertex 73.7 -4.82963 -17.7059
      vertex 73.7 -6.06218 -15.5
    endloop
  endfacet
  facet normal 1 0 0
    outer loop
      vertex 73.7 -4.82963 -17.7059
      vertex 73.7 -6.76148 -17.1883
      vertex 73.7 -5 -19
    endloop
  endfacet
  facet normal 1 0 0
    outer loop
      vertex 73.7 -5 -19
      vertex 73.7 -6.76148 -17.1883
      vertex 73.7 -7 -19
    endloop
  endfacet
  facet normal 0.0336313 0.990884 0.130455
    outer loop
      vertex 73.7 6.76148 -17.1883
      vertex 72.7 7 -18.7422
      vertex 72.7 6.76148 -16.9305
    endloop
  endfacet
  facet normal 0.0336313 0.990884 0.130455
    outer loop
      vertex 72.7 7 -18.7422
      vertex 73.7 6.76148 -17.1883
      vertex 73.7 7 -19
    endloop
  endfacet
  facet normal 0.0981772 -0.919419 0.380827
    outer loop
      vertex 72.7 -6.76148 -16.9305
      vertex 73.7 -6.06218 -15.5
      vertex 72.7 -6.06218 -15.2422
    endloop
  endfacet
  facet normal 0.0981772 -0.919419 0.380827
    outer loop
      vertex 73.7 -6.06218 -15.5
      vertex 72.7 -6.76148 -16.9305
      vertex 73.7 -6.76148 -17.1883
    endloop
  endfacet
  facet normal 0.200374 -0.596438 0.777246
    outer loop
      vertex 72.7 -3.5 -12.68
      vertex 73.7 -4.94975 -14.0503
      vertex 73.7 -3.5 -12.9378
    endloop
  endfacet
  facet normal 0.200374 -0.596438 0.777246
    outer loop
      vertex 73.7 -4.94975 -14.0503
      vertex 72.7 -3.5 -12.68
      vertex 72.7 -4.94975 -13.7925
    endloop
  endfacet
  facet normal 0.247634 -0.126451 0.960566
    outer loop
      vertex 72.7 0 -11.7422
      vertex 73.7 -1.81173 -12.2385
      vertex 73.7 0 -12
    endloop
  endfacet
  facet normal 0.247634 -0.126451 0.960566
    outer loop
      vertex 73.7 -1.81173 -12.2385
      vertex 72.7 0 -11.7422
      vertex 72.7 -1.81173 -11.9807
    endloop
  endfacet
  facet normal 0.231695 -0.372268 0.89874
    outer loop
      vertex 72.7 -1.81173 -11.9807
      vertex 73.7 -3.5 -12.9378
      vertex 73.7 -1.81173 -12.2385
    endloop
  endfacet
  facet normal 0.231695 -0.372268 0.89874
    outer loop
      vertex 73.7 -3.5 -12.9378
      vertex 72.7 -1.81173 -11.9807
      vertex 72.7 -3.5 -12.68
    endloop
  endfacet
  facet normal -0.249638 0 -0.968339
    outer loop
      vertex 73.7 5 -19
      vertex 72.7 6 -18.7422
      vertex 73.7 7 -19
    endloop
  endfacet
  facet normal -0.24964 -1.86375e-06 -0.968339
    outer loop
      vertex 73.7 5 -19
      vertex 1 6 -0.257802
      vertex 72.7 6 -18.7422
    endloop
  endfacet
  facet normal -0.24964 -9.72281e-08 -0.968339
    outer loop
      vertex 0 5 0
      vertex 1 6 -0.257802
      vertex 73.7 5 -19
    endloop
  endfacet
  facet normal -0.24964 -0 -0.968339
    outer loop
      vertex 0 7 0
      vertex 1 6 -0.257802
      vertex 0 5 0
    endloop
  endfacet
  facet normal -0.24964 0 -0.968339
    outer loop
      vertex 1 6 -0.257802
      vertex 0 7 0
      vertex 1 7 -0.257802
    endloop
  endfacet
  facet normal -0.249638 0 -0.968339
    outer loop
      vertex 73.7 7 -19
      vertex 72.7 6 -18.7422
      vertex 72.7 7 -18.7422
    endloop
  endfacet
  facet normal -0.24964 0 -0.968339
    outer loop
      vertex 1 -7 -0.257802
      vertex 0 -7 0
      vertex 1 -6 -0.257802
    endloop
  endfacet
  facet normal -0.249638 -0 -0.968339
    outer loop
      vertex 72.7 -6 -18.7422
      vertex 73.7 -7 -19
      vertex 72.7 -7 -18.7422
    endloop
  endfacet
  facet normal -0.249638 0 -0.968339
    outer loop
      vertex 73.7 -7 -19
      vertex 72.7 -6 -18.7422
      vertex 73.7 -5 -19
    endloop
  endfacet
  facet normal -0.24964 1.86375e-06 -0.968339
    outer loop
      vertex 1 -6 -0.257802
      vertex 73.7 -5 -19
      vertex 72.7 -6 -18.7422
    endloop
  endfacet
  facet normal -0.24964 9.72281e-08 -0.968339
    outer loop
      vertex 1 -6 -0.257802
      vertex 0 -5 0
      vertex 73.7 -5 -19
    endloop
  endfacet
  facet normal -0.24964 -0 -0.968339
    outer loop
      vertex 0 -5 0
      vertex 1 -6 -0.257802
      vertex 0 -7 0
    endloop
  endfacet
endsolid OpenSCAD_Model
