solid OpenSCAD_Model
  facet normal -1 2.22018e-16 1.70895e-21
    outer loop
      vertex 1.66221e-14 74.8591 0.108096
      vertex 1.683e-14 75.7955 1.55291
      vertex 1.68754e-14 76 0
    endloop
  endfacet
  facet normal -1 2.22064e-16 4.93219e-19
    outer loop
      vertex 1.66221e-14 74.8591 0.108096
      vertex 1.68754e-14 76 0
      vertex 1.66252e-14 74.8733 0
    endloop
  endfacet
  facet normal -1 2.22115e-16 -6.09887e-20
    outer loop
      vertex 1.683e-14 75.7955 1.55291
      vertex 1.66221e-14 74.8591 0.108096
      vertex 1.65874e-14 74.7032 1.2941
    endloop
  endfacet
  facet normal -1 2.21921e-16 7.54602e-19
    outer loop
      vertex 1.65782e-14 74.6614 1.39523
      vertex 1.683e-14 75.7955 1.55291
      vertex 1.65874e-14 74.7032 1.2941
    endloop
  endfacet
  facet normal -1 2.22028e-16 -1.1402e-20
    outer loop
      vertex 1.683e-14 75.7955 1.55291
      vertex 1.65782e-14 74.6614 1.39523
      vertex 1.66969e-14 75.1961 3
    endloop
  endfacet
  facet normal -1 2.22107e-16 -3.76875e-20
    outer loop
      vertex 1.64767e-14 74.2046 2.5
      vertex 1.66969e-14 75.1961 3
      vertex 1.65782e-14 74.6614 1.39523
    endloop
  endfacet
  facet normal -1 2.2194e-16 2.93418e-19
    outer loop
      vertex 1.64619e-14 74.1378 2.58717
      vertex 1.66969e-14 75.1961 3
      vertex 1.64767e-14 74.2046 2.5
    endloop
  endfacet
  facet normal -1 2.22047e-16 1.77852e-20
    outer loop
      vertex 1.66969e-14 75.1961 3
      vertex 1.64619e-14 74.1378 2.58717
      vertex 1.64852e-14 74.2426 4.24264
    endloop
  endfacet
  facet normal -1 2.22047e-16 1.78252e-20
    outer loop
      vertex 1.63006e-14 73.4113 3.53553
      vertex 1.64852e-14 74.2426 4.24264
      vertex 1.64619e-14 74.1378 2.58717
    endloop
  endfacet
  facet normal -1 2.22146e-16 -9.90546e-20
    outer loop
      vertex 1.62812e-14 73.324 3.60263
      vertex 1.64852e-14 74.2426 4.24264
      vertex 1.63006e-14 73.4113 3.53553
    endloop
  endfacet
  facet normal -1 2.22057e-16 2.91173e-20
    outer loop
      vertex 1.62812e-14 73.324 3.60263
      vertex 1.62093e-14 73 5.19615
      vertex 1.64852e-14 74.2426 4.24264
    endloop
  endfacet
  facet normal -1 2.22112e-16 4.04304e-20
    outer loop
      vertex 1.6071e-14 72.3775 4.33013
      vertex 1.62093e-14 73 5.19615
      vertex 1.62812e-14 73.324 3.60263
    endloop
  endfacet
  facet normal -1 2.21874e-16 2.11842e-19
    outer loop
      vertex 1.60484e-14 72.2756 4.37241
      vertex 1.62093e-14 73 5.19615
      vertex 1.6071e-14 72.3775 4.33013
    endloop
  endfacet
  facet normal -1 2.22104e-16 9.98008e-21
    outer loop
      vertex 1.60484e-14 72.2756 4.37241
      vertex 1.58879e-14 71.5529 5.79555
      vertex 1.62093e-14 73 5.19615
    endloop
  endfacet
  facet normal -1 2.22068e-16 -8.2894e-21
    outer loop
      vertex 1.58037e-14 71.1737 4.82963
      vertex 1.58879e-14 71.5529 5.79555
      vertex 1.60484e-14 72.2756 4.37241
    endloop
  endfacet
  facet normal -1 2.21732e-16 1.23585e-19
    outer loop
      vertex 1.57794e-14 71.0641 4.84407
      vertex 1.58879e-14 71.5529 5.79555
      vertex 1.58037e-14 71.1737 4.82963
    endloop
  endfacet
  facet normal -1 2.22032e-16 -3.08021e-20
    outer loop
      vertex 1.57794e-14 71.0641 4.84407
      vertex 1.55431e-14 70 6
      vertex 1.58879e-14 71.5529 5.79555
    endloop
  endfacet
  facet normal -1 2.22019e-16 -4.2674e-20
    outer loop
      vertex 1.55169e-14 69.8818 5
      vertex 1.55431e-14 70 6
      vertex 1.57794e-14 71.0641 4.84407
    endloop
  endfacet
  facet normal -1 2.22643e-16 -1.16413e-19
    outer loop
      vertex 1.54925e-14 69.7722 4.98555
      vertex 1.55431e-14 70 6
      vertex 1.55169e-14 69.8818 5
    endloop
  endfacet
  facet normal -1 2.22009e-16 -2.00369e-20
    outer loop
      vertex 1.51983e-14 68.4471 5.79555
      vertex 1.54925e-14 69.7722 4.98555
      vertex 1.523e-14 68.5898 4.82963
    endloop
  endfacet
  facet normal -1 2.21807e-16 -4.98725e-20
    outer loop
      vertex 1.51983e-14 68.4471 5.79555
      vertex 1.523e-14 68.5898 4.82963
      vertex 1.52074e-14 68.4879 4.78731
    endloop
  endfacet
  facet normal -1 2.22033e-16 2.0474e-20
    outer loop
      vertex 1.54925e-14 69.7722 4.98555
      vertex 1.51983e-14 68.4471 5.79555
      vertex 1.55431e-14 70 6
    endloop
  endfacet
  facet normal -1 2.22063e-16 1.88991e-20
    outer loop
      vertex 1.4877e-14 67 5.19615
      vertex 1.52074e-14 68.4879 4.78731
      vertex 1.49627e-14 67.386 4.33013
    endloop
  endfacet
  facet normal -1 2.21981e-16 -1.7516e-20
    outer loop
      vertex 1.4877e-14 67 5.19615
      vertex 1.49627e-14 67.386 4.33013
      vertex 1.49433e-14 67.2986 4.26295
    endloop
  endfacet
  facet normal -1 2.22047e-16 -4.01556e-20
    outer loop
      vertex 1.52074e-14 68.4879 4.78731
      vertex 1.4877e-14 67 5.19615
      vertex 1.51983e-14 68.4471 5.79555
    endloop
  endfacet
  facet normal -1 2.22019e-16 1.11784e-19
    outer loop
      vertex 1.46011e-14 65.7573 4.24264
      vertex 1.49433e-14 67.2986 4.26295
      vertex 1.47331e-14 66.3522 3.53553
    endloop
  endfacet
  facet normal -1 2.21571e-16 -2.64859e-19
    outer loop
      vertex 1.46011e-14 65.7573 4.24264
      vertex 1.47331e-14 66.3522 3.53553
      vertex 1.47183e-14 66.2853 3.44826
    endloop
  endfacet
  facet normal -1 2.2202e-16 -5.03321e-21
    outer loop
      vertex 1.49433e-14 67.2986 4.26295
      vertex 1.46011e-14 65.7573 4.24264
      vertex 1.4877e-14 67 5.19615
    endloop
  endfacet
  facet normal -1 2.22078e-16 -1.82074e-20
    outer loop
      vertex 1.43893e-14 64.8038 3
      vertex 1.47183e-14 66.2853 3.44826
      vertex 1.4557e-14 65.5589 2.5
    endloop
  endfacet
  facet normal -1 2.22175e-16 1.29137e-19
    outer loop
      vertex 1.43893e-14 64.8038 3
      vertex 1.4557e-14 65.5589 2.5
      vertex 1.45477e-14 65.5171 2.39877
    endloop
  endfacet
  facet normal -1 2.22091e-16 -4.646e-20
    outer loop
      vertex 1.42562e-14 64.2044 1.55291
      vertex 1.45477e-14 65.5171 2.39877
      vertex 1.44463e-14 65.0603 1.2941
    endloop
  endfacet
  facet normal -1 2.22055e-16 5.67364e-20
    outer loop
      vertex 1.47183e-14 66.2853 3.44826
      vertex 1.43893e-14 64.8038 3
      vertex 1.46011e-14 65.7573 4.24264
    endloop
  endfacet
  facet normal -1 2.22229e-16 4.10087e-19
    outer loop
      vertex 1.42562e-14 64.2044 1.55291
      vertex 1.44463e-14 65.0603 1.2941
      vertex 1.44431e-14 65.0461 1.18597
    endloop
  endfacet
  facet normal -1 2.21973e-16 -4.66019e-21
    outer loop
      vertex 1.42109e-14 64 0
      vertex 1.44431e-14 65.0461 1.18597
      vertex 1.44085e-14 64.8902 0
    endloop
  endfacet
  facet normal -1 2.22064e-16 -3.39656e-21
    outer loop
      vertex 1.45477e-14 65.5171 2.39877
      vertex 1.42562e-14 64.2044 1.55291
      vertex 1.43893e-14 64.8038 3
    endloop
  endfacet
  facet normal -1 2.22027e-16 -5.30719e-20
    outer loop
      vertex 1.44431e-14 65.0461 1.18597
      vertex 1.42109e-14 64 0
      vertex 1.42562e-14 64.2044 1.55291
    endloop
  endfacet
  facet normal 0.131329 -0.991339 -1.82516e-06
    outer loop
      vertex 74.1891 9.82831 0.274136
      vertex 75.1391 9.95416 1.55291
      vertex 74.5449 9.87544 3
    endloop
  endfacet
  facet normal 0.131316 -0.991341 -3.85549e-06
    outer loop
      vertex 74.7266 9.89951 0
      vertex 74.1891 9.82831 0.274136
      vertex 74.2248 9.83304 0
    endloop
  endfacet
  facet normal 0.13132 -0.99134 4.57612e-06
    outer loop
      vertex 74.1891 9.82831 0.274136
      vertex 74.7266 9.89951 0
      vertex 75.1391 9.95416 1.55291
    endloop
  endfacet
  facet normal 0.131314 -0.991341 -1.15442e-05
    outer loop
      vertex 74.5449 9.87544 3
      vertex 73.5996 9.75021 4.24264
      vertex 72.3677 9.58702 5.19615
    endloop
  endfacet
  facet normal 0.131346 -0.991337 2.06125e-05
    outer loop
      vertex 74.5449 9.87544 3
      vertex 72.3677 9.58702 5.19615
      vertex 70.9332 9.39697 5.79555
    endloop
  endfacet
  facet normal 0.13131 -0.991341 -1.11554e-05
    outer loop
      vertex 71.7507 9.50527 4.33013
      vertex 70.9332 9.39697 5.79555
      vertex 71.2689 9.44145 4.53177
    endloop
  endfacet
  facet normal 0.131374 -0.991333 2.52477e-05
    outer loop
      vertex 71.835 9.51644 4.26475
      vertex 70.9332 9.39697 5.79555
      vertex 71.7507 9.50527 4.33013
    endloop
  endfacet
  facet normal 0.131338 -0.991338 3.47935e-06
    outer loop
      vertex 72.7755 9.64104 3.53553
      vertex 70.9332 9.39697 5.79555
      vertex 71.835 9.51644 4.26475
    endloop
  endfacet
  facet normal 0.131325 -0.991339 -7.35144e-06
    outer loop
      vertex 72.7755 9.64104 3.53553
      vertex 74.5449 9.87544 3
      vertex 70.9332 9.39697 5.79555
    endloop
  endfacet
  facet normal 0.131316 -0.991341 -3.6428e-05
    outer loop
      vertex 72.8404 9.64964 3.45006
      vertex 74.5449 9.87544 3
      vertex 72.7755 9.64104 3.53553
    endloop
  endfacet
  facet normal 0.131329 -0.991339 1.19719e-05
    outer loop
      vertex 73.5619 9.74521 2.5
      vertex 74.5449 9.87544 3
      vertex 72.8404 9.64964 3.45006
    endloop
  endfacet
  facet normal 0.131382 -0.991332 -9.42614e-05
    outer loop
      vertex 73.6028 9.75064 2.40009
      vertex 74.5449 9.87544 3
      vertex 73.5619 9.74521 2.5
    endloop
  endfacet
  facet normal 0.131322 -0.99134 1.35352e-06
    outer loop
      vertex 74.0562 9.8107 1.2941
      vertex 74.5449 9.87544 3
      vertex 73.6028 9.75064 2.40009
    endloop
  endfacet
  facet normal 0.131443 -0.991324 -3.39811e-05
    outer loop
      vertex 74.0702 9.81256 1.18645
      vertex 74.5449 9.87544 3
      vertex 74.0562 9.8107 1.2941
    endloop
  endfacet
  facet normal 0.131316 -0.991341 -1.42121e-07
    outer loop
      vertex 74.5449 9.87544 3
      vertex 74.0702 9.81256 1.18645
      vertex 74.1891 9.82831 0.274136
    endloop
  endfacet
  facet normal 0.131324 -0.991339 8.91674e-15
    outer loop
      vertex 70.9332 9.39697 5.79555
      vertex 69.3937 9.19303 6
      vertex 67.8542 8.98909 5.79555
    endloop
  endfacet
  facet normal 0.131345 -0.991337 -1.81086e-05
    outer loop
      vertex 67.8542 8.98909 5.79555
      vertex 66.4197 8.79904 5.19615
      vertex 64.2426 8.51063 3
    endloop
  endfacet
  facet normal 0.131328 -0.991339 0
    outer loop
      vertex 64.2426 8.51063 0
      vertex 64.2426 8.51063 3
      vertex 63.4457 8.40506 0
    endloop
  endfacet
  facet normal 0.131309 -0.991341 1.78411e-05
    outer loop
      vertex 66.4197 8.79904 5.19615
      vertex 65.1878 8.63585 4.24264
      vertex 64.2426 8.51063 3
    endloop
  endfacet
  facet normal 0.13128 -0.991345 1.30398e-05
    outer loop
      vertex 64.2426 8.51063 3
      vertex 63.6483 8.43191 1.55291
      vertex 63.4457 8.40506 0
    endloop
  endfacet
  facet normal 0.131337 -0.991338 3.77487e-06
    outer loop
      vertex 64.2426 8.51063 3
      vertex 64.5377 8.54972 1.39391
      vertex 64.9664 8.60652 2.43972
    endloop
  endfacet
  facet normal 0.131353 -0.991336 6.88724e-06
    outer loop
      vertex 64.2426 8.51063 3
      vertex 64.4968 8.5443 1.2941
      vertex 64.5377 8.54972 1.39391
    endloop
  endfacet
  facet normal 0.131308 -0.991342 0
    outer loop
      vertex 64.2426 8.51063 0
      vertex 64.4968 8.5443 1.2941
      vertex 64.2426 8.51063 3
    endloop
  endfacet
  facet normal 0.131277 -0.991346 6.18997e-06
    outer loop
      vertex 64.4968 8.5443 1.2941
      vertex 64.2426 8.51063 0
      vertex 64.3422 8.52382 0.107612
    endloop
  endfacet
  facet normal 0.131329 -0.991339 -4.30475e-05
    outer loop
      vertex 64.3422 8.52382 0.107612
      vertex 64.2426 8.51063 0
      vertex 64.3282 8.52197 0
    endloop
  endfacet
  facet normal 0.131309 -0.991342 3.63036e-07
    outer loop
      vertex 67.8542 8.98909 5.79555
      vertex 68.1007 9.02174 4.84359
      vertex 68.378 9.05847 4.88047
    endloop
  endfacet
  facet normal 0.131357 -0.991335 1.30992e-05
    outer loop
      vertex 67.8542 8.98909 5.79555
      vertex 67.9958 9.00784 4.82963
      vertex 68.1007 9.02174 4.84359
    endloop
  endfacet
  facet normal 0.131325 -0.991339 8.22945e-06
    outer loop
      vertex 67.8542 8.98909 5.79555
      vertex 66.9002 8.8627 4.37109
      vertex 67.9958 9.00784 4.82963
    endloop
  endfacet
  facet normal 0.131196 -0.991357 9.62036e-05
    outer loop
      vertex 67.8542 8.98909 5.79555
      vertex 66.8023 8.84974 4.33013
      vertex 66.9002 8.8627 4.37109
    endloop
  endfacet
  facet normal 0.131336 -0.991338 -6.58146e-06
    outer loop
      vertex 64.2426 8.51063 3
      vertex 66.8023 8.84974 4.33013
      vertex 67.8542 8.98909 5.79555
    endloop
  endfacet
  facet normal 0.131335 -0.991338 -4.26555e-06
    outer loop
      vertex 66.8023 8.84974 4.33013
      vertex 64.2426 8.51063 3
      vertex 65.8617 8.72513 3.60084
    endloop
  endfacet
  facet normal 0.131279 -0.991345 0.000148398
    outer loop
      vertex 65.8617 8.72513 3.60084
      vertex 64.2426 8.51063 3
      vertex 65.7775 8.71397 3.53553
    endloop
  endfacet
  facet normal 0.131327 -0.991339 1.0432e-05
    outer loop
      vertex 64.2426 8.51063 3
      vertex 65.056 8.61838 2.58537
      vertex 65.7775 8.71397 3.53553
    endloop
  endfacet
  facet normal 0.131291 -0.991344 -6.03864e-05
    outer loop
      vertex 64.2426 8.51063 3
      vertex 64.9911 8.60979 2.5
      vertex 65.056 8.61838 2.58537
    endloop
  endfacet
  facet normal 0.131312 -0.991341 -2.8583e-05
    outer loop
      vertex 64.9911 8.60979 2.5
      vertex 64.2426 8.51063 3
      vertex 64.9664 8.60652 2.43972
    endloop
  endfacet
  facet normal 0.131324 -0.991339 5.39642e-06
    outer loop
      vertex 67.8542 8.98909 5.79555
      vertex 69.2765 9.1775 5
      vertex 70.9332 9.39697 5.79555
    endloop
  endfacet
  facet normal 0.131327 -0.991339 1.11861e-05
    outer loop
      vertex 69.2765 9.1775 5
      vertex 67.8542 8.98909 5.79555
      vertex 68.378 9.05847 4.88047
    endloop
  endfacet
  facet normal 0.131328 -0.991339 -3.22464e-06
    outer loop
      vertex 69.3815 9.19141 4.98603
      vertex 70.9332 9.39697 5.79555
      vertex 69.2765 9.1775 5
    endloop
  endfacet
  facet normal 0.131333 -0.991338 -1.31964e-05
    outer loop
      vertex 70.5572 9.34717 4.82963
      vertex 70.9332 9.39697 5.79555
      vertex 69.3815 9.19141 4.98603
    endloop
  endfacet
  facet normal 0.131302 -0.991342 -7.20477e-07
    outer loop
      vertex 70.6552 9.36015 4.78863
      vertex 70.9332 9.39697 5.79555
      vertex 70.5572 9.34717 4.82963
    endloop
  endfacet
  facet normal 0.131325 -0.991339 -7.14146e-06
    outer loop
      vertex 70.9332 9.39697 5.79555
      vertex 70.6552 9.36015 4.78863
      vertex 71.2689 9.44145 4.53177
    endloop
  endfacet
  facet normal 0.131351 -0.991336 -3.66875e-06
    outer loop
      vertex 75.3417 9.98101 0
      vertex 75.1391 9.95416 1.55291
      vertex 74.7266 9.89951 0
    endloop
  endfacet
  facet normal 0.101742 0.986296 0.129884
    outer loop
      vertex 15.4728 74.1994 1.55291
      vertex 1.68754e-14 76 0
      vertex 1.683e-14 75.7955 1.55291
    endloop
  endfacet
  facet normal 0.101741 0.986295 0.129885
    outer loop
      vertex 15.4728 74.1994 1.55291
      vertex 15.5145 74.3996 0
      vertex 1.68754e-14 76 0
    endloop
  endfacet
  facet normal 0.0948688 0.919714 0.380955
    outer loop
      vertex 15.3504 73.6127 3
      vertex 1.683e-14 75.7955 1.55291
      vertex 1.66969e-14 75.1961 3
    endloop
  endfacet
  facet normal 0.0948749 0.91973 0.380915
    outer loop
      vertex 15.3504 73.6127 3
      vertex 15.4728 74.1994 1.55291
      vertex 1.683e-14 75.7955 1.55291
    endloop
  endfacet
  facet normal 0.0815662 0.790713 0.606729
    outer loop
      vertex 15.1558 72.6792 4.24264
      vertex 1.66969e-14 75.1961 3
      vertex 1.64852e-14 74.2426 4.24264
    endloop
  endfacet
  facet normal 0.0815601 0.790691 0.606758
    outer loop
      vertex 15.1558 72.6792 4.24264
      vertex 15.3504 73.6127 3
      vertex 1.66969e-14 75.1961 3
    endloop
  endfacet
  facet normal 0.0626735 0.607576 0.791785
    outer loop
      vertex 14.9021 71.4628 5.19615
      vertex 1.64852e-14 74.2426 4.24264
      vertex 1.62093e-14 73 5.19615
    endloop
  endfacet
  facet normal 0.0626756 0.607585 0.791778
    outer loop
      vertex 14.9021 71.4628 5.19615
      vertex 15.1558 72.6792 4.24264
      vertex 1.64852e-14 74.2426 4.24264
    endloop
  endfacet
  facet normal 0.0394457 0.382381 0.923162
    outer loop
      vertex 14.6067 70.0461 5.79555
      vertex 1.62093e-14 73 5.19615
      vertex 1.58879e-14 71.5529 5.79555
    endloop
  endfacet
  facet normal 0.0394422 0.382365 0.923169
    outer loop
      vertex 14.6067 70.0461 5.79555
      vertex 14.9021 71.4628 5.19615
      vertex 1.62093e-14 73 5.19615
    endloop
  endfacet
  facet normal 0.0134641 0.130519 0.991354
    outer loop
      vertex 14.2897 68.5259 6
      vertex 1.58879e-14 71.5529 5.79555
      vertex 1.55431e-14 70 6
    endloop
  endfacet
  facet normal 0.0134641 0.130519 0.991354
    outer loop
      vertex 14.2897 68.5259 6
      vertex 14.6067 70.0461 5.79555
      vertex 1.58879e-14 71.5529 5.79555
    endloop
  endfacet
  facet normal -0.0134641 -0.130519 0.991354
    outer loop
      vertex 13.9727 67.0057 5.79555
      vertex 1.55431e-14 70 6
      vertex 1.51983e-14 68.4471 5.79555
    endloop
  endfacet
  facet normal -0.0134641 -0.130519 0.991354
    outer loop
      vertex 13.9727 67.0057 5.79555
      vertex 14.2897 68.5259 6
      vertex 1.55431e-14 70 6
    endloop
  endfacet
  facet normal -0.039445 -0.382381 0.923162
    outer loop
      vertex 13.6773 65.5891 5.19615
      vertex 1.51983e-14 68.4471 5.79555
      vertex 1.4877e-14 67 5.19615
    endloop
  endfacet
  facet normal -0.0394464 -0.382387 0.92316
    outer loop
      vertex 13.6773 65.5891 5.19615
      vertex 13.9727 67.0057 5.79555
      vertex 1.51983e-14 68.4471 5.79555
    endloop
  endfacet
  facet normal -0.0626709 -0.607546 0.791808
    outer loop
      vertex 13.4236 64.3726 4.24264
      vertex 1.4877e-14 67 5.19615
      vertex 1.46011e-14 65.7573 4.24264
    endloop
  endfacet
  facet normal -0.0626731 -0.607555 0.791801
    outer loop
      vertex 13.4236 64.3726 4.24264
      vertex 13.6773 65.5891 5.19615
      vertex 1.4877e-14 67 5.19615
    endloop
  endfacet
  facet normal -0.0815638 -0.790713 0.606729
    outer loop
      vertex 13.229 63.4392 3
      vertex 1.46011e-14 65.7573 4.24264
      vertex 1.43893e-14 64.8038 3
    endloop
  endfacet
  facet normal -0.0815662 -0.790721 0.606718
    outer loop
      vertex 13.229 63.4392 3
      vertex 13.4236 64.3726 4.24264
      vertex 1.46011e-14 65.7573 4.24264
    endloop
  endfacet
  facet normal -0.0948722 -0.919713 0.380955
    outer loop
      vertex 13.1066 62.8524 1.55291
      vertex 1.43893e-14 64.8038 3
      vertex 1.42562e-14 64.2044 1.55291
    endloop
  endfacet
  facet normal -0.0948698 -0.919708 0.380969
    outer loop
      vertex 13.1066 62.8524 1.55291
      vertex 13.229 63.4392 3
      vertex 1.43893e-14 64.8038 3
    endloop
  endfacet
  facet normal -0.101741 -0.986304 0.129821
    outer loop
      vertex 13.0649 62.6523 0
      vertex 1.42562e-14 64.2044 1.55291
      vertex 1.42109e-14 64 0
    endloop
  endfacet
  facet normal -0.101741 -0.986304 0.129822
    outer loop
      vertex 13.0649 62.6523 0
      vertex 13.1066 62.8524 1.55291
      vertex 1.42562e-14 64.2044 1.55291
    endloop
  endfacet
  facet normal 0.30094 0.944757 0.129879
    outer loop
      vertex 30.294 69.4783 1.55291
      vertex 15.5145 74.3996 0
      vertex 15.4728 74.1994 1.55291
    endloop
  endfacet
  facet normal 0.300945 0.944761 0.129844
    outer loop
      vertex 30.294 69.4783 1.55291
      vertex 30.3757 69.6657 0
      vertex 15.5145 74.3996 0
    endloop
  endfacet
  facet normal 0.28063 0.880991 0.380921
    outer loop
      vertex 30.0544 68.9289 3
      vertex 15.4728 74.1994 1.55291
      vertex 15.3504 73.6127 3
    endloop
  endfacet
  facet normal 0.280626 0.880985 0.380938
    outer loop
      vertex 30.0544 68.9289 3
      vertex 30.294 69.4783 1.55291
      vertex 15.4728 74.1994 1.55291
    endloop
  endfacet
  facet normal 0.241255 0.757394 0.606753
    outer loop
      vertex 29.6733 68.0549 4.24264
      vertex 15.3504 73.6127 3
      vertex 15.1558 72.6792 4.24264
    endloop
  endfacet
  facet normal 0.241268 0.757419 0.606718
    outer loop
      vertex 29.6733 68.0549 4.24264
      vertex 30.0544 68.9289 3
      vertex 15.3504 73.6127 3
    endloop
  endfacet
  facet normal 0.185388 0.581993 0.79178
    outer loop
      vertex 29.1766 66.9158 5.19615
      vertex 15.1558 72.6792 4.24264
      vertex 14.9021 71.4628 5.19615
    endloop
  endfacet
  facet normal 0.185375 0.581965 0.791803
    outer loop
      vertex 29.1766 66.9158 5.19615
      vertex 29.6733 68.0549 4.24264
      vertex 15.1558 72.6792 4.24264
    endloop
  endfacet
  facet normal 0.116667 0.366262 0.923169
    outer loop
      vertex 28.5983 65.5893 5.79555
      vertex 14.9021 71.4628 5.19615
      vertex 14.6067 70.0461 5.79555
    endloop
  endfacet
  facet normal 0.116675 0.36628 0.923161
    outer loop
      vertex 28.5983 65.5893 5.79555
      vertex 29.1766 66.9158 5.19615
      vertex 14.9021 71.4628 5.19615
    endloop
  endfacet
  facet normal 0.0398241 0.125022 0.991354
    outer loop
      vertex 27.9776 64.1658 6
      vertex 14.6067 70.0461 5.79555
      vertex 14.2897 68.5259 6
    endloop
  endfacet
  facet normal 0.0398228 0.125019 0.991355
    outer loop
      vertex 27.9776 64.1658 6
      vertex 28.5983 65.5893 5.79555
      vertex 14.6067 70.0461 5.79555
    endloop
  endfacet
  facet normal -0.0398244 -0.125022 0.991354
    outer loop
      vertex 27.3569 62.7423 5.79555
      vertex 14.2897 68.5259 6
      vertex 13.9727 67.0057 5.79555
    endloop
  endfacet
  facet normal -0.0398231 -0.125019 0.991355
    outer loop
      vertex 27.3569 62.7423 5.79555
      vertex 27.9776 64.1658 6
      vertex 14.2897 68.5259 6
    endloop
  endfacet
  facet normal -0.116673 -0.366283 0.92316
    outer loop
      vertex 26.7786 61.4159 5.19615
      vertex 13.9727 67.0057 5.79555
      vertex 13.6773 65.5891 5.19615
    endloop
  endfacet
  facet normal -0.116681 -0.3663 0.923152
    outer loop
      vertex 26.7786 61.4159 5.19615
      vertex 27.3569 62.7423 5.79555
      vertex 13.9727 67.0057 5.79555
    endloop
  endfacet
  facet normal -0.185376 -0.581966 0.791803
    outer loop
      vertex 26.2819 60.2768 4.24264
      vertex 13.6773 65.5891 5.19615
      vertex 13.4236 64.3726 4.24264
    endloop
  endfacet
  facet normal -0.185375 -0.581965 0.791803
    outer loop
      vertex 26.2819 60.2768 4.24264
      vertex 26.7786 61.4159 5.19615
      vertex 13.6773 65.5891 5.19615
    endloop
  endfacet
  facet normal -0.24127 -0.757421 0.606715
    outer loop
      vertex 25.9008 59.4027 3
      vertex 13.4236 64.3726 4.24264
      vertex 13.229 63.4392 3
    endloop
  endfacet
  facet normal -0.241255 -0.757393 0.606756
    outer loop
      vertex 25.9008 59.4027 3
      vertex 26.2819 60.2768 4.24264
      vertex 13.4236 64.3726 4.24264
    endloop
  endfacet
  facet normal -0.280622 -0.880972 0.380973
    outer loop
      vertex 25.6612 58.8533 1.55291
      vertex 13.229 63.4392 3
      vertex 13.1066 62.8524 1.55291
    endloop
  endfacet
  facet normal -0.28063 -0.880984 0.380938
    outer loop
      vertex 25.6612 58.8533 1.55291
      vertex 25.9008 59.4027 3
      vertex 13.229 63.4392 3
    endloop
  endfacet
  facet normal -0.300945 -0.944764 0.129819
    outer loop
      vertex 25.5795 58.6659 0
      vertex 13.1066 62.8524 1.55291
      vertex 13.0649 62.6523 0
    endloop
  endfacet
  facet normal -0.300941 -0.944762 0.129844
    outer loop
      vertex 25.5795 58.6659 0
      vertex 25.6612 58.8533 1.55291
      vertex 13.1066 62.8524 1.55291
    endloop
  endfacet
  facet normal 0.487467 0.863433 0.129842
    outer loop
      vertex 43.8392 61.8311 1.55291
      vertex 30.3757 69.6657 0
      vertex 30.294 69.4783 1.55291
    endloop
  endfacet
  facet normal 0.487462 0.863431 0.129877
    outer loop
      vertex 43.8392 61.8311 1.55291
      vertex 43.9575 61.9979 0
      vertex 30.3757 69.6657 0
    endloop
  endfacet
  facet normal 0.45456 0.805144 0.380943
    outer loop
      vertex 43.4926 61.3421 3
      vertex 30.294 69.4783 1.55291
      vertex 30.0544 68.9289 3
    endloop
  endfacet
  facet normal 0.454559 0.805143 0.380947
    outer loop
      vertex 43.4926 61.3421 3
      vertex 43.8392 61.8311 1.55291
      vertex 30.294 69.4783 1.55291
    endloop
  endfacet
  facet normal 0.390805 0.692217 0.606719
    outer loop
      vertex 42.9411 60.5643 4.24264
      vertex 30.0544 68.9289 3
      vertex 29.6733 68.0549 4.24264
    endloop
  endfacet
  facet normal 0.390804 0.692216 0.60672
    outer loop
      vertex 42.9411 60.5643 4.24264
      vertex 43.4926 61.3421 3
      vertex 30.0544 68.9289 3
    endloop
  endfacet
  facet normal 0.300275 0.531865 0.791805
    outer loop
      vertex 42.2223 59.5506 5.19615
      vertex 29.6733 68.0549 4.24264
      vertex 29.1766 66.9158 5.19615
    endloop
  endfacet
  facet normal 0.300276 0.531867 0.791803
    outer loop
      vertex 42.2223 59.5506 5.19615
      vertex 42.9411 60.5643 4.24264
      vertex 29.6733 68.0549 4.24264
    endloop
  endfacet
  facet normal 0.188991 0.334752 0.92316
    outer loop
      vertex 41.3854 58.3701 5.79555
      vertex 29.1766 66.9158 5.19615
      vertex 28.5983 65.5893 5.79555
    endloop
  endfacet
  facet normal 0.188991 0.334752 0.923159
    outer loop
      vertex 41.3854 58.3701 5.79555
      vertex 42.2223 59.5506 5.19615
      vertex 29.1766 66.9158 5.19615
    endloop
  endfacet
  facet normal 0.0645053 0.114256 0.991355
    outer loop
      vertex 40.4872 57.1033 6
      vertex 28.5983 65.5893 5.79555
      vertex 27.9776 64.1658 6
    endloop
  endfacet
  facet normal 0.0645067 0.114258 0.991355
    outer loop
      vertex 40.4872 57.1033 6
      vertex 41.3854 58.3701 5.79555
      vertex 28.5983 65.5893 5.79555
    endloop
  endfacet
  facet normal -0.0645051 -0.114257 0.991355
    outer loop
      vertex 39.589 55.8365 5.79555
      vertex 27.9776 64.1658 6
      vertex 27.3569 62.7423 5.79555
    endloop
  endfacet
  facet normal -0.0645065 -0.114259 0.991355
    outer loop
      vertex 39.589 55.8365 5.79555
      vertex 40.4872 57.1033 6
      vertex 27.9776 64.1658 6
    endloop
  endfacet
  facet normal -0.189002 -0.334768 0.923151
    outer loop
      vertex 38.752 54.656 5.19615
      vertex 27.3569 62.7423 5.79555
      vertex 26.7786 61.4159 5.19615
    endloop
  endfacet
  facet normal -0.188984 -0.334744 0.923164
    outer loop
      vertex 38.752 54.656 5.19615
      vertex 39.589 55.8365 5.79555
      vertex 27.3569 62.7423 5.79555
    endloop
  endfacet
  facet normal -0.300275 -0.531865 0.791805
    outer loop
      vertex 38.0333 53.6423 4.24264
      vertex 26.7786 61.4159 5.19615
      vertex 26.2819 60.2768 4.24264
    endloop
  endfacet
  facet normal -0.300286 -0.531879 0.791791
    outer loop
      vertex 38.0333 53.6423 4.24264
      vertex 38.752 54.656 5.19615
      vertex 26.7786 61.4159 5.19615
    endloop
  endfacet
  facet normal -0.390788 -0.692195 0.606754
    outer loop
      vertex 37.4818 52.8645 3
      vertex 26.2819 60.2768 4.24264
      vertex 25.9008 59.4027 3
    endloop
  endfacet
  facet normal -0.390805 -0.692216 0.60672
    outer loop
      vertex 37.4818 52.8645 3
      vertex 38.0333 53.6423 4.24264
      vertex 26.2819 60.2768 4.24264
    endloop
  endfacet
  facet normal -0.454559 -0.805145 0.380943
    outer loop
      vertex 37.1351 52.3755 1.55291
      vertex 25.9008 59.4027 3
      vertex 25.6612 58.8533 1.55291
    endloop
  endfacet
  facet normal -0.45455 -0.805136 0.380974
    outer loop
      vertex 37.1351 52.3755 1.55291
      vertex 37.4818 52.8645 3
      vertex 25.9008 59.4027 3
    endloop
  endfacet
  facet normal -0.487471 -0.863431 0.129842
    outer loop
      vertex 37.0168 52.2087 0
      vertex 25.6612 58.8533 1.55291
      vertex 25.5795 58.6659 0
    endloop
  endfacet
  facet normal -0.487465 -0.863429 0.129877
    outer loop
      vertex 37.0168 52.2087 0
      vertex 37.1351 52.3755 1.55291
      vertex 25.6612 58.8533 1.55291
    endloop
  endfacet
  facet normal 0.653456 0.745738 0.129881
    outer loop
      vertex 55.5382 51.5798 1.55291
      vertex 43.9575 61.9979 0
      vertex 43.8392 61.8311 1.55291
    endloop
  endfacet
  facet normal 0.653464 0.74574 0.129835
    outer loop
      vertex 55.5382 51.5798 1.55291
      vertex 55.688 51.7189 0
      vertex 43.9575 61.9979 0
    endloop
  endfacet
  facet normal 0.609349 0.695399 0.380937
    outer loop
      vertex 55.099 51.1719 3
      vertex 43.8392 61.8311 1.55291
      vertex 43.4926 61.3421 3
    endloop
  endfacet
  facet normal 0.609343 0.695395 0.380954
    outer loop
      vertex 55.099 51.1719 3
      vertex 55.5382 51.5798 1.55291
      vertex 43.8392 61.8311 1.55291
    endloop
  endfacet
  facet normal 0.523883 0.597859 0.606721
    outer loop
      vertex 54.4003 50.523 4.24264
      vertex 43.4926 61.3421 3
      vertex 42.9411 60.5643 4.24264
    endloop
  endfacet
  facet normal 0.523868 0.597846 0.606748
    outer loop
      vertex 54.4003 50.523 4.24264
      vertex 55.099 51.1719 3
      vertex 43.4926 61.3421 3
    endloop
  endfacet
  facet normal 0.402523 0.459368 0.791806
    outer loop
      vertex 53.4898 49.6774 5.19615
      vertex 42.9411 60.5643 4.24264
      vertex 42.2223 59.5506 5.19615
    endloop
  endfacet
  facet normal 0.402544 0.459387 0.791784
    outer loop
      vertex 53.4898 49.6774 5.19615
      vertex 54.4003 50.523 4.24264
      vertex 42.9411 60.5643 4.24264
    endloop
  endfacet
  facet normal 0.253349 0.289126 0.923158
    outer loop
      vertex 52.4295 48.6926 5.79555
      vertex 42.2223 59.5506 5.19615
      vertex 41.3854 58.3701 5.79555
    endloop
  endfacet
  facet normal 0.253342 0.289119 0.923162
    outer loop
      vertex 52.4295 48.6926 5.79555
      vertex 53.4898 49.6774 5.19615
      vertex 42.2223 59.5506 5.19615
    endloop
  endfacet
  facet normal 0.0864729 0.0986837 0.991355
    outer loop
      vertex 51.2916 47.6358 6
      vertex 41.3854 58.3701 5.79555
      vertex 40.4872 57.1033 6
    endloop
  endfacet
  facet normal 0.086471 0.098682 0.991355
    outer loop
      vertex 51.2916 47.6358 6
      vertex 52.4295 48.6926 5.79555
      vertex 41.3854 58.3701 5.79555
    endloop
  endfacet
  facet normal -0.0864731 -0.0986835 0.991355
    outer loop
      vertex 50.1537 46.579 5.79555
      vertex 40.4872 57.1033 6
      vertex 39.589 55.8365 5.79555
    endloop
  endfacet
  facet normal -0.0864712 -0.0986818 0.991355
    outer loop
      vertex 50.1537 46.579 5.79555
      vertex 51.2916 47.6358 6
      vertex 40.4872 57.1033 6
    endloop
  endfacet
  facet normal -0.253338 -0.289115 0.923164
    outer loop
      vertex 49.0934 45.5943 5.19615
      vertex 39.589 55.8365 5.79555
      vertex 38.752 54.656 5.19615
    endloop
  endfacet
  facet normal -0.253355 -0.28913 0.923155
    outer loop
      vertex 49.0934 45.5943 5.19615
      vertex 50.1537 46.579 5.79555
      vertex 39.589 55.8365 5.79555
    endloop
  endfacet
  facet normal -0.402538 -0.459382 0.79179
    outer loop
      vertex 48.1828 44.7487 4.24264
      vertex 38.752 54.656 5.19615
      vertex 38.0333 53.6423 4.24264
    endloop
  endfacet
  facet normal -0.402528 -0.459374 0.7918
    outer loop
      vertex 48.1828 44.7487 4.24264
      vertex 49.0934 45.5943 5.19615
      vertex 38.752 54.656 5.19615
    endloop
  endfacet
  facet normal -0.523881 -0.597861 0.606722
    outer loop
      vertex 47.4842 44.0998 3
      vertex 38.0333 53.6423 4.24264
      vertex 37.4818 52.8645 3
    endloop
  endfacet
  facet normal -0.523882 -0.597861 0.606721
    outer loop
      vertex 47.4842 44.0998 3
      vertex 48.1828 44.7487 4.24264
      vertex 38.0333 53.6423 4.24264
    endloop
  endfacet
  facet normal -0.609338 -0.695389 0.380973
    outer loop
      vertex 47.045 43.6919 1.55291
      vertex 37.4818 52.8645 3
      vertex 37.1351 52.3755 1.55291
    endloop
  endfacet
  facet normal -0.609345 -0.695393 0.380954
    outer loop
      vertex 47.045 43.6919 1.55291
      vertex 47.4842 44.0998 3
      vertex 37.4818 52.8645 3
    endloop
  endfacet
  facet normal -0.653453 -0.745742 0.129881
    outer loop
      vertex 46.8952 43.5528 0
      vertex 37.1351 52.3755 1.55291
      vertex 37.0168 52.2087 0
    endloop
  endfacet
  facet normal -0.653461 -0.745743 0.129834
    outer loop
      vertex 46.8952 43.5528 0
      vertex 47.045 43.6919 1.55291
      vertex 37.1351 52.3755 1.55291
    endloop
  endfacet
  facet normal 0.791938 0.596638 0.129837
    outer loop
      vertex 64.8981 39.1561 1.55291
      vertex 55.688 51.7189 0
      vertex 55.5382 51.5798 1.55291
    endloop
  endfacet
  facet normal 0.791932 0.596638 0.129867
    outer loop
      vertex 64.8981 39.1561 1.55291
      vertex 65.0732 39.2617 0
      vertex 55.688 51.7189 0
    endloop
  endfacet
  facet normal 0.73847 0.55636 0.380954
    outer loop
      vertex 64.3849 38.8465 3
      vertex 55.5382 51.5798 1.55291
      vertex 55.099 51.1719 3
    endloop
  endfacet
  facet normal 0.73848 0.556364 0.380929
    outer loop
      vertex 64.3849 38.8465 3
      vertex 64.8981 39.1561 1.55291
      vertex 55.5382 51.5798 1.55291
    endloop
  endfacet
  facet normal 0.634878 0.478317 0.606748
    outer loop
      vertex 63.5685 38.3539 4.24264
      vertex 55.099 51.1719 3
      vertex 54.4003 50.523 4.24264
    endloop
  endfacet
  facet normal 0.63489 0.478323 0.60673
    outer loop
      vertex 63.5685 38.3539 4.24264
      vertex 64.3849 38.8465 3
      vertex 55.099 51.1719 3
    endloop
  endfacet
  facet normal 0.487846 0.367539 0.791784
    outer loop
      vertex 62.5045 37.7119 5.19615
      vertex 54.4003 50.523 4.24264
      vertex 53.4898 49.6774 5.19615
    endloop
  endfacet
  facet normal 0.487822 0.367525 0.791805
    outer loop
      vertex 62.5045 37.7119 5.19615
      vertex 63.5685 38.3539 4.24264
      vertex 54.4003 50.523 4.24264
    endloop
  endfacet
  facet normal 0.307032 0.231313 0.923161
    outer loop
      vertex 61.2654 36.9643 5.79555
      vertex 53.4898 49.6774 5.19615
      vertex 52.4295 48.6926 5.79555
    endloop
  endfacet
  facet normal 0.307017 0.231304 0.923168
    outer loop
      vertex 61.2654 36.9643 5.79555
      vertex 62.5045 37.7119 5.19615
      vertex 53.4898 49.6774 5.19615
    endloop
  endfacet
  facet normal 0.104795 0.0789518 0.991355
    outer loop
      vertex 59.9358 36.1621 6
      vertex 52.4295 48.6926 5.79555
      vertex 51.2916 47.6358 6
    endloop
  endfacet
  facet normal 0.104802 0.0789557 0.991354
    outer loop
      vertex 59.9358 36.1621 6
      vertex 61.2654 36.9643 5.79555
      vertex 52.4295 48.6926 5.79555
    endloop
  endfacet
  facet normal -0.104794 -0.0789524 0.991355
    outer loop
      vertex 58.6062 35.3599 5.79555
      vertex 51.2916 47.6358 6
      vertex 50.1537 46.579 5.79555
    endloop
  endfacet
  facet normal -0.104801 -0.0789564 0.991354
    outer loop
      vertex 58.6062 35.3599 5.79555
      vertex 59.9358 36.1621 6
      vertex 51.2916 47.6358 6
    endloop
  endfacet
  facet normal -0.307042 -0.231322 0.923155
    outer loop
      vertex 57.3671 34.6123 5.19615
      vertex 50.1537 46.579 5.79555
      vertex 49.0934 45.5943 5.19615
    endloop
  endfacet
  facet normal -0.307015 -0.231306 0.923168
    outer loop
      vertex 57.3671 34.6123 5.19615
      vertex 58.6062 35.3599 5.79555
      vertex 50.1537 46.579 5.79555
    endloop
  endfacet
  facet normal -0.487825 -0.367524 0.791803
    outer loop
      vertex 56.3031 33.9704 4.24264
      vertex 49.0934 45.5943 5.19615
      vertex 48.1828 44.7487 4.24264
    endloop
  endfacet
  facet normal -0.48784 -0.367532 0.791791
    outer loop
      vertex 56.3031 33.9704 4.24264
      vertex 57.3671 34.6123 5.19615
      vertex 49.0934 45.5943 5.19615
    endloop
  endfacet
  facet normal -0.634901 -0.478328 0.606715
    outer loop
      vertex 55.4867 33.4778 3
      vertex 48.1828 44.7487 4.24264
      vertex 47.4842 44.0998 3
    endloop
  endfacet
  facet normal -0.634891 -0.478323 0.60673
    outer loop
      vertex 55.4867 33.4778 3
      vertex 56.3031 33.9704 4.24264
      vertex 48.1828 44.7487 4.24264
    endloop
  endfacet
  facet normal -0.738473 -0.556356 0.380954
    outer loop
      vertex 54.9735 33.1681 1.55291
      vertex 47.4842 44.0998 3
      vertex 47.045 43.6919 1.55291
    endloop
  endfacet
  facet normal -0.73847 -0.556355 0.380962
    outer loop
      vertex 54.9735 33.1681 1.55291
      vertex 55.4867 33.4778 3
      vertex 47.4842 44.0998 3
    endloop
  endfacet
  facet normal -0.791941 -0.596634 0.129837
    outer loop
      vertex 54.7984 33.0625 0
      vertex 47.045 43.6919 1.55291
      vertex 46.8952 43.5528 0
    endloop
  endfacet
  facet normal -0.791936 -0.596634 0.129867
    outer loop
      vertex 54.7984 33.0625 0
      vertex 54.9735 33.1681 1.55291
      vertex 47.045 43.6919 1.55291
    endloop
  endfacet
  facet normal 0.897052 0.42241 0.129873
    outer loop
      vertex 71.5248 25.0833 1.55291
      vertex 65.0732 39.2617 0
      vertex 64.8981 39.1561 1.55291
    endloop
  endfacet
  facet normal 0.897056 0.422409 0.129846
    outer loop
      vertex 71.5248 25.0833 1.55291
      vertex 71.7177 25.151 0
      vertex 65.0732 39.2617 0
    endloop
  endfacet
  facet normal 0.836504 0.393893 0.380932
    outer loop
      vertex 70.9591 24.885 3
      vertex 64.8981 39.1561 1.55291
      vertex 64.3849 38.8465 3
    endloop
  endfacet
  facet normal 0.836485 0.39389 0.380977
    outer loop
      vertex 70.9591 24.885 3
      vertex 71.5248 25.0833 1.55291
      vertex 64.8981 39.1561 1.55291
    endloop
  endfacet
  facet normal 0.719169 0.33864 0.606728
    outer loop
      vertex 70.0593 24.5694 4.24264
      vertex 64.3849 38.8465 3
      vertex 63.5685 38.3539 4.24264
    endloop
  endfacet
  facet normal 0.719154 0.338636 0.606747
    outer loop
      vertex 70.0593 24.5694 4.24264
      vertex 70.9591 24.885 3
      vertex 64.3849 38.8465 3
    endloop
  endfacet
  facet normal 0.552579 0.2602 0.791803
    outer loop
      vertex 68.8867 24.1582 5.19615
      vertex 63.5685 38.3539 4.24264
      vertex 62.5045 37.7119 5.19615
    endloop
  endfacet
  facet normal 0.5526 0.260207 0.791786
    outer loop
      vertex 68.8867 24.1582 5.19615
      vertex 70.0593 24.5694 4.24264
      vertex 63.5685 38.3539 4.24264
    endloop
  endfacet
  facet normal 0.347768 0.163761 0.923168
    outer loop
      vertex 67.5212 23.6793 5.79555
      vertex 62.5045 37.7119 5.19615
      vertex 61.2654 36.9643 5.79555
    endloop
  endfacet
  facet normal 0.347793 0.16377 0.923157
    outer loop
      vertex 67.5212 23.6793 5.79555
      vertex 68.8867 24.1582 5.19615
      vertex 62.5045 37.7119 5.19615
    endloop
  endfacet
  facet normal 0.118712 0.0559001 0.991354
    outer loop
      vertex 66.0558 23.1654 6
      vertex 61.2654 36.9643 5.79555
      vertex 59.9358 36.1621 6
    endloop
  endfacet
  facet normal 0.118709 0.055899 0.991354
    outer loop
      vertex 66.0558 23.1654 6
      vertex 67.5212 23.6793 5.79555
      vertex 61.2654 36.9643 5.79555
    endloop
  endfacet
  facet normal -0.118712 -0.055899 0.991354
    outer loop
      vertex 64.5903 22.6515 5.79555
      vertex 59.9358 36.1621 6
      vertex 58.6062 35.3599 5.79555
    endloop
  endfacet
  facet normal -0.118702 -0.0558955 0.991355
    outer loop
      vertex 64.5903 22.6515 5.79555
      vertex 66.0558 23.1654 6
      vertex 59.9358 36.1621 6
    endloop
  endfacet
  facet normal -0.347769 -0.16376 0.923168
    outer loop
      vertex 63.2248 22.1726 5.19615
      vertex 58.6062 35.3599 5.79555
      vertex 57.3671 34.6123 5.19615
    endloop
  endfacet
  facet normal -0.347793 -0.163768 0.923157
    outer loop
      vertex 63.2248 22.1726 5.19615
      vertex 64.5903 22.6515 5.79555
      vertex 58.6062 35.3599 5.79555
    endloop
  endfacet
  facet normal -0.552589 -0.260209 0.791793
    outer loop
      vertex 62.0522 21.7614 4.24264
      vertex 57.3671 34.6123 5.19615
      vertex 56.3031 33.9704 4.24264
    endloop
  endfacet
  facet normal -0.552598 -0.260212 0.791786
    outer loop
      vertex 62.0522 21.7614 4.24264
      vertex 63.2248 22.1726 5.19615
      vertex 57.3671 34.6123 5.19615
    endloop
  endfacet
  facet normal -0.719167 -0.338645 0.606728
    outer loop
      vertex 61.1524 21.4458 3
      vertex 56.3031 33.9704 4.24264
      vertex 55.4867 33.4778 3
    endloop
  endfacet
  facet normal -0.719152 -0.338642 0.606747
    outer loop
      vertex 61.1524 21.4458 3
      vertex 62.0522 21.7614 4.24264
      vertex 56.3031 33.9704 4.24264
    endloop
  endfacet
  facet normal -0.836493 -0.393894 0.380956
    outer loop
      vertex 60.5868 21.2474 1.55291
      vertex 55.4867 33.4778 3
      vertex 54.9735 33.1681 1.55291
    endloop
  endfacet
  facet normal -0.836495 -0.393894 0.380951
    outer loop
      vertex 60.5868 21.2474 1.55291
      vertex 61.1524 21.4458 3
      vertex 55.4867 33.4778 3
    endloop
  endfacet
  facet normal -0.897052 -0.42241 0.129873
    outer loop
      vertex 60.3938 21.1798 0
      vertex 54.9735 33.1681 1.55291
      vertex 54.7984 33.0625 0
    endloop
  endfacet
  facet normal -0.897052 -0.42241 0.129876
    outer loop
      vertex 60.3938 21.1798 0
      vertex 60.5868 21.2474 1.55291
      vertex 54.9735 33.1681 1.55291
    endloop
  endfacet
  facet normal 0.964397 0.230391 0.12984
    outer loop
      vertex 75.1391 9.95416 1.55291
      vertex 71.7177 25.151 0
      vertex 71.5248 25.0833 1.55291
    endloop
  endfacet
  facet normal 0.964402 0.230389 0.129804
    outer loop
      vertex 75.1391 9.95416 1.55291
      vertex 75.3417 9.98101 0
      vertex 71.7177 25.151 0
    endloop
  endfacet
  facet normal 0.899274 0.214838 0.380986
    outer loop
      vertex 74.5449 9.87544 3
      vertex 71.5248 25.0833 1.55291
      vertex 70.9591 24.885 3
    endloop
  endfacet
  facet normal 0.89929 0.214837 0.380951
    outer loop
      vertex 74.5449 9.87544 3
      vertex 75.1391 9.95416 1.55291
      vertex 71.5248 25.0833 1.55291
    endloop
  endfacet
  facet normal 0.773141 0.184703 0.606744
    outer loop
      vertex 73.5996 9.75021 4.24264
      vertex 70.9591 24.885 3
      vertex 70.0593 24.5694 4.24264
    endloop
  endfacet
  facet normal 0.773134 0.184703 0.606752
    outer loop
      vertex 73.5996 9.75021 4.24264
      vertex 74.5449 9.87544 3
      vertex 70.9591 24.885 3
    endloop
  endfacet
  facet normal 0.59408 0.141923 0.791787
    outer loop
      vertex 72.3677 9.58702 5.19615
      vertex 70.0593 24.5694 4.24264
      vertex 68.8867 24.1582 5.19615
    endloop
  endfacet
  facet normal 0.594064 0.141922 0.791799
    outer loop
      vertex 72.3677 9.58702 5.19615
      vertex 73.5996 9.75021 4.24264
      vertex 70.0593 24.5694 4.24264
    endloop
  endfacet
  facet normal 0.373902 0.0893239 0.923157
    outer loop
      vertex 70.9332 9.39697 5.79555
      vertex 68.8867 24.1582 5.19615
      vertex 67.5212 23.6793 5.79555
    endloop
  endfacet
  facet normal 0.373903 0.089324 0.923156
    outer loop
      vertex 70.9332 9.39697 5.79555
      vertex 72.3677 9.58702 5.19615
      vertex 68.8867 24.1582 5.19615
    endloop
  endfacet
  facet normal 0.12762 0.0304876 0.991354
    outer loop
      vertex 69.3937 9.19303 6
      vertex 67.5212 23.6793 5.79555
      vertex 66.0558 23.1654 6
    endloop
  endfacet
  facet normal 0.127616 0.0304871 0.991355
    outer loop
      vertex 69.3937 9.19303 6
      vertex 70.9332 9.39697 5.79555
      vertex 67.5212 23.6793 5.79555
    endloop
  endfacet
  facet normal -0.127612 -0.0304861 0.991355
    outer loop
      vertex 67.8542 8.98909 5.79555
      vertex 66.0558 23.1654 6
      vertex 64.5903 22.6515 5.79555
    endloop
  endfacet
  facet normal -0.127616 -0.0304866 0.991355
    outer loop
      vertex 67.8542 8.98909 5.79555
      vertex 69.3937 9.19303 6
      vertex 66.0558 23.1654 6
    endloop
  endfacet
  facet normal -0.373902 -0.0893239 0.923157
    outer loop
      vertex 66.4197 8.79904 5.19615
      vertex 64.5903 22.6515 5.79555
      vertex 63.2248 22.1726 5.19615
    endloop
  endfacet
  facet normal -0.373903 -0.0893241 0.923156
    outer loop
      vertex 66.4197 8.79904 5.19615
      vertex 67.8542 8.98909 5.79555
      vertex 64.5903 22.6515 5.79555
    endloop
  endfacet
  facet normal -0.59408 -0.141922 0.791787
    outer loop
      vertex 65.1878 8.63585 4.24264
      vertex 63.2248 22.1726 5.19615
      vertex 62.0522 21.7614 4.24264
    endloop
  endfacet
  facet normal -0.594065 -0.14192 0.791799
    outer loop
      vertex 65.1878 8.63585 4.24264
      vertex 66.4197 8.79904 5.19615
      vertex 63.2248 22.1726 5.19615
    endloop
  endfacet
  facet normal -0.773141 -0.184703 0.606744
    outer loop
      vertex 64.2426 8.51063 3
      vertex 62.0522 21.7614 4.24264
      vertex 61.1524 21.4458 3
    endloop
  endfacet
  facet normal -0.773166 -0.184704 0.606712
    outer loop
      vertex 64.2426 8.51063 3
      vertex 65.1878 8.63585 4.24264
      vertex 62.0522 21.7614 4.24264
    endloop
  endfacet
  facet normal -0.899293 -0.214833 0.380946
    outer loop
      vertex 63.6483 8.43191 1.55291
      vertex 61.1524 21.4458 3
      vertex 60.5868 21.2474 1.55291
    endloop
  endfacet
  facet normal -0.899268 -0.214834 0.381004
    outer loop
      vertex 63.6483 8.43191 1.55291
      vertex 64.2426 8.51063 3
      vertex 61.1524 21.4458 3
    endloop
  endfacet
  facet normal -0.96439 -0.230394 0.129886
    outer loop
      vertex 63.4457 8.40506 0
      vertex 60.5868 21.2474 1.55291
      vertex 60.3938 21.1798 0
    endloop
  endfacet
  facet normal -0.964403 -0.230387 0.129804
    outer loop
      vertex 63.4457 8.40506 0
      vertex 63.6483 8.43191 1.55291
      vertex 60.5868 21.2474 1.55291
    endloop
  endfacet
  facet normal -0.0869748 -0.987714 -0.129835
    outer loop
      vertex 14.3612 73.4386 1.2941
      vertex 1.65874e-14 74.7032 1.2941
      vertex 1.66221e-14 74.8591 0.108096
    endloop
  endfacet
  facet normal -0.0869772 -0.987724 -0.129752
    outer loop
      vertex 14.3939 73.6058 0
      vertex 1.66221e-14 74.8591 0.108096
      vertex 1.66252e-14 74.8733 0
    endloop
  endfacet
  facet normal -0.0869769 -0.987716 -0.129812
    outer loop
      vertex 1.66221e-14 74.8591 0.108096
      vertex 14.3939 73.6058 0
      vertex 14.3612 73.4386 1.2941
    endloop
  endfacet
  facet normal -0.0811091 -0.921074 -0.380846
    outer loop
      vertex 14.2654 72.9484 2.5
      vertex 1.64767e-14 74.2046 2.5
      vertex 1.65782e-14 74.6614 1.39523
    endloop
  endfacet
  facet normal -0.081124 -0.921122 -0.380727
    outer loop
      vertex 1.65874e-14 74.7032 1.2941
      vertex 14.2654 72.9484 2.5
      vertex 1.65782e-14 74.6614 1.39523
    endloop
  endfacet
  facet normal -0.0811063 -0.921069 -0.380859
    outer loop
      vertex 14.2654 72.9484 2.5
      vertex 1.65874e-14 74.7032 1.2941
      vertex 14.3612 73.4386 1.2941
    endloop
  endfacet
  facet normal -0.0697307 -0.791907 -0.606648
    outer loop
      vertex 14.1129 72.1686 3.53553
      vertex 1.63006e-14 73.4113 3.53553
      vertex 1.64619e-14 74.1378 2.58717
    endloop
  endfacet
  facet normal -0.0697083 -0.791809 -0.606778
    outer loop
      vertex 1.64767e-14 74.2046 2.5
      vertex 14.1129 72.1686 3.53553
      vertex 1.64619e-14 74.1378 2.58717
    endloop
  endfacet
  facet normal -0.0697362 -0.791924 -0.606624
    outer loop
      vertex 14.1129 72.1686 3.53553
      vertex 1.64767e-14 74.2046 2.5
      vertex 14.2654 72.9484 2.5
    endloop
  endfacet
  facet normal -0.053584 -0.608532 -0.791718
    outer loop
      vertex 13.9141 71.1523 4.33013
      vertex 1.6071e-14 72.3775 4.33013
      vertex 1.62812e-14 73.324 3.60263
    endloop
  endfacet
  facet normal -0.0535835 -0.608529 -0.79172
    outer loop
      vertex 1.62812e-14 73.324 3.60263
      vertex 14.1129 72.1686 3.53553
      vertex 13.9141 71.1523 4.33013
    endloop
  endfacet
  facet normal -0.0535834 -0.608528 -0.791721
    outer loop
      vertex 14.1129 72.1686 3.53553
      vertex 1.62812e-14 73.324 3.60263
      vertex 1.63006e-14 73.4113 3.53553
    endloop
  endfacet
  facet normal -0.0337302 -0.383036 -0.923117
    outer loop
      vertex 13.6827 69.9688 4.82963
      vertex 1.58037e-14 71.1737 4.82963
      vertex 1.60484e-14 72.2756 4.37241
    endloop
  endfacet
  facet normal -0.0337262 -0.383014 -0.923127
    outer loop
      vertex 1.60484e-14 72.2756 4.37241
      vertex 13.9141 71.1523 4.33013
      vertex 13.6827 69.9688 4.82963
    endloop
  endfacet
  facet normal -0.0337266 -0.38302 -0.923124
    outer loop
      vertex 13.9141 71.1523 4.33013
      vertex 1.60484e-14 72.2756 4.37241
      vertex 1.6071e-14 72.3775 4.33013
    endloop
  endfacet
  facet normal -0.0115142 -0.130746 -0.991349
    outer loop
      vertex 13.4343 68.6987 5
      vertex 1.55169e-14 69.8818 5
      vertex 1.57794e-14 71.0641 4.84407
    endloop
  endfacet
  facet normal -0.011511 -0.130728 -0.991351
    outer loop
      vertex 1.57794e-14 71.0641 4.84407
      vertex 13.6827 69.9688 4.82963
      vertex 13.4343 68.6987 5
    endloop
  endfacet
  facet normal -0.0115019 -0.130614 -0.991367
    outer loop
      vertex 13.6827 69.9688 4.82963
      vertex 1.57794e-14 71.0641 4.84407
      vertex 1.58037e-14 71.1737 4.82963
    endloop
  endfacet
  facet normal 0.0115112 0.130727 -0.991352
    outer loop
      vertex 13.186 67.4287 4.82963
      vertex 1.523e-14 68.5898 4.82963
      vertex 1.54925e-14 69.7722 4.98555
    endloop
  endfacet
  facet normal 0.0115133 0.130738 -0.99135
    outer loop
      vertex 1.54925e-14 69.7722 4.98555
      vertex 13.4343 68.6987 5
      vertex 13.186 67.4287 4.82963
    endloop
  endfacet
  facet normal 0.0115105 0.130703 -0.991355
    outer loop
      vertex 13.4343 68.6987 5
      vertex 1.54925e-14 69.7722 4.98555
      vertex 1.55169e-14 69.8818 5
    endloop
  endfacet
  facet normal 0.0337284 0.383008 -0.923129
    outer loop
      vertex 12.9545 66.2452 4.33013
      vertex 1.49627e-14 67.386 4.33013
      vertex 1.52074e-14 68.4879 4.78731
    endloop
  endfacet
  facet normal 0.0337291 0.383011 -0.923128
    outer loop
      vertex 1.52074e-14 68.4879 4.78731
      vertex 13.186 67.4287 4.82963
      vertex 12.9545 66.2452 4.33013
    endloop
  endfacet
  facet normal 0.0337542 0.383328 -0.922995
    outer loop
      vertex 13.186 67.4287 4.82963
      vertex 1.52074e-14 68.4879 4.78731
      vertex 1.523e-14 68.5898 4.82963
    endloop
  endfacet
  facet normal 0.0535883 0.60853 -0.79172
    outer loop
      vertex 12.7558 65.2289 3.53553
      vertex 1.47331e-14 66.3522 3.53553
      vertex 1.49433e-14 67.2986 4.26295
    endloop
  endfacet
  facet normal 0.0535887 0.608532 -0.791718
    outer loop
      vertex 1.49433e-14 67.2986 4.26295
      vertex 12.9545 66.2452 4.33013
      vertex 12.7558 65.2289 3.53553
    endloop
  endfacet
  facet normal 0.0535898 0.608546 -0.791707
    outer loop
      vertex 12.9545 66.2452 4.33013
      vertex 1.49433e-14 67.2986 4.26295
      vertex 1.49627e-14 67.386 4.33013
    endloop
  endfacet
  facet normal 0.0697332 0.791916 -0.606635
    outer loop
      vertex 12.6033 64.4491 2.5
      vertex 1.4557e-14 65.5589 2.5
      vertex 1.47183e-14 66.2853 3.44826
    endloop
  endfacet
  facet normal 0.0697383 0.791924 -0.606624
    outer loop
      vertex 12.6033 64.4491 2.5
      vertex 1.47331e-14 66.3522 3.53553
      vertex 12.7558 65.2289 3.53553
    endloop
  endfacet
  facet normal 0.069682 0.791708 -0.606913
    outer loop
      vertex 1.47331e-14 66.3522 3.53553
      vertex 12.6033 64.4491 2.5
      vertex 1.47183e-14 66.2853 3.44826
    endloop
  endfacet
  facet normal 0.0811086 0.921062 -0.380875
    outer loop
      vertex 12.5074 63.9589 1.2941
      vertex 1.44463e-14 65.0603 1.2941
      vertex 1.45477e-14 65.5171 2.39877
    endloop
  endfacet
  facet normal 0.0811223 0.921255 -0.380406
    outer loop
      vertex 12.6033 64.4491 2.5
      vertex 1.45477e-14 65.5171 2.39877
      vertex 1.4557e-14 65.5589 2.5
    endloop
  endfacet
  facet normal 0.08111 0.921066 -0.380865
    outer loop
      vertex 1.45477e-14 65.5171 2.39877
      vertex 12.6033 64.4491 2.5
      vertex 12.5074 63.9589 1.2941
    endloop
  endfacet
  facet normal 0.0869763 0.987713 -0.129838
    outer loop
      vertex 12.4747 63.7917 0
      vertex 1.44085e-14 64.8902 0
      vertex 1.44431e-14 65.0461 1.18597
    endloop
  endfacet
  facet normal 0.0869793 0.987729 -0.129712
    outer loop
      vertex 12.5074 63.9589 1.2941
      vertex 1.44431e-14 65.0461 1.18597
      vertex 1.44463e-14 65.0603 1.2941
    endloop
  endfacet
  facet normal 0.086979 0.987716 -0.129813
    outer loop
      vertex 1.44431e-14 65.0461 1.18597
      vertex 12.5074 63.9589 1.2941
      vertex 12.4747 63.7917 0
    endloop
  endfacet
  facet normal -0.291507 -0.94772 -0.129813
    outer loop
      vertex 29.394 68.8147 1.2941
      vertex 14.3612 73.4386 1.2941
      vertex 14.3939 73.6058 0
    endloop
  endfacet
  facet normal -0.291505 -0.947718 -0.129827
    outer loop
      vertex 29.394 68.8147 1.2941
      vertex 14.3939 73.6058 0
      vertex 29.4609 68.9714 0
    endloop
  endfacet
  facet normal -0.271837 -0.883774 -0.380851
    outer loop
      vertex 29.1978 68.3554 2.5
      vertex 14.2654 72.9484 2.5
      vertex 14.3612 73.4386 1.2941
    endloop
  endfacet
  facet normal -0.271839 -0.883779 -0.38084
    outer loop
      vertex 29.1978 68.3554 2.5
      vertex 14.3612 73.4386 1.2941
      vertex 29.394 68.8147 1.2941
    endloop
  endfacet
  facet normal -0.233725 -0.759855 -0.606624
    outer loop
      vertex 28.8857 67.6246 3.53553
      vertex 14.1129 72.1686 3.53553
      vertex 14.2654 72.9484 2.5
    endloop
  endfacet
  facet normal -0.233712 -0.759825 -0.606667
    outer loop
      vertex 28.8857 67.6246 3.53553
      vertex 14.2654 72.9484 2.5
      vertex 29.1978 68.3554 2.5
    endloop
  endfacet
  facet normal -0.179597 -0.583882 -0.791724
    outer loop
      vertex 28.4789 66.6723 4.33013
      vertex 13.9141 71.1523 4.33013
      vertex 14.1129 72.1686 3.53553
    endloop
  endfacet
  facet normal -0.1796 -0.583889 -0.791718
    outer loop
      vertex 28.4789 66.6723 4.33013
      vertex 14.1129 72.1686 3.53553
      vertex 28.8857 67.6246 3.53553
    endloop
  endfacet
  facet normal -0.11304 -0.367506 -0.923126
    outer loop
      vertex 28.0052 65.5634 4.82963
      vertex 13.6827 69.9688 4.82963
      vertex 13.9141 71.1523 4.33013
    endloop
  endfacet
  facet normal -0.113047 -0.367524 -0.923118
    outer loop
      vertex 28.0052 65.5634 4.82963
      vertex 13.9141 71.1523 4.33013
      vertex 28.4789 66.6723 4.33013
    endloop
  endfacet
  facet normal -0.0385811 -0.125433 -0.991352
    outer loop
      vertex 27.4969 64.3733 5
      vertex 13.4343 68.6987 5
      vertex 13.6827 69.9688 4.82963
    endloop
  endfacet
  facet normal -0.0385832 -0.125439 -0.991351
    outer loop
      vertex 27.4969 64.3733 5
      vertex 13.6827 69.9688 4.82963
      vertex 28.0052 65.5634 4.82963
    endloop
  endfacet
  facet normal 0.0385856 0.125445 -0.99135
    outer loop
      vertex 26.9885 63.1832 4.82963
      vertex 13.186 67.4287 4.82963
      vertex 13.4343 68.6987 5
    endloop
  endfacet
  facet normal 0.0385819 0.125436 -0.991351
    outer loop
      vertex 26.9885 63.1832 4.82963
      vertex 13.4343 68.6987 5
      vertex 27.4969 64.3733 5
    endloop
  endfacet
  facet normal 0.113036 0.367499 -0.923129
    outer loop
      vertex 26.5148 62.0743 4.33013
      vertex 12.9545 66.2452 4.33013
      vertex 13.186 67.4287 4.82963
    endloop
  endfacet
  facet normal 0.113046 0.367524 -0.923118
    outer loop
      vertex 26.5148 62.0743 4.33013
      vertex 13.186 67.4287 4.82963
      vertex 26.9885 63.1832 4.82963
    endloop
  endfacet
  facet normal 0.179594 0.583894 -0.791715
    outer loop
      vertex 26.1081 61.122 3.53553
      vertex 12.7558 65.2289 3.53553
      vertex 12.9545 66.2452 4.33013
    endloop
  endfacet
  facet normal 0.179598 0.583902 -0.791709
    outer loop
      vertex 26.1081 61.122 3.53553
      vertex 12.9545 66.2452 4.33013
      vertex 26.5148 62.0743 4.33013
    endloop
  endfacet
  facet normal 0.233723 0.759855 -0.606625
    outer loop
      vertex 25.7959 60.3912 2.5
      vertex 12.6033 64.4491 2.5
      vertex 12.7558 65.2289 3.53553
    endloop
  endfacet
  facet normal 0.233704 0.759816 -0.606681
    outer loop
      vertex 25.7959 60.3912 2.5
      vertex 12.7558 65.2289 3.53553
      vertex 26.1081 61.122 3.53553
    endloop
  endfacet
  facet normal 0.271834 0.883767 -0.38087
    outer loop
      vertex 25.5997 59.9319 1.2941
      vertex 12.5074 63.9589 1.2941
      vertex 12.6033 64.4491 2.5
    endloop
  endfacet
  facet normal 0.271841 0.883778 -0.38084
    outer loop
      vertex 25.5997 59.9319 1.2941
      vertex 12.6033 64.4491 2.5
      vertex 25.7959 60.3912 2.5
    endloop
  endfacet
  facet normal 0.291506 0.94772 -0.129813
    outer loop
      vertex 25.5328 59.7752 0
      vertex 12.4747 63.7917 0
      vertex 12.5074 63.9589 1.2941
    endloop
  endfacet
  facet normal 0.291504 0.947718 -0.129827
    outer loop
      vertex 25.5328 59.7752 0
      vertex 12.5074 63.9589 1.2941
      vertex 25.5997 59.9319 1.2941
    endloop
  endfacet
  facet normal -0.483155 -0.865856 -0.129822
    outer loop
      vertex 43.1282 61.1509 1.2941
      vertex 29.394 68.8147 1.2941
      vertex 29.4609 68.9714 0
    endloop
  endfacet
  facet normal -0.483158 -0.865858 -0.1298
    outer loop
      vertex 43.1282 61.1509 1.2941
      vertex 29.4609 68.9714 0
      vertex 43.2264 61.2901 0
    endloop
  endfacet
  facet normal -0.450561 -0.807437 -0.380841
    outer loop
      vertex 42.8403 60.7427 2.5
      vertex 29.1978 68.3554 2.5
      vertex 29.394 68.8147 1.2941
    endloop
  endfacet
  facet normal -0.45055 -0.807425 -0.380881
    outer loop
      vertex 42.8403 60.7427 2.5
      vertex 29.394 68.8147 1.2941
      vertex 43.1282 61.1509 1.2941
    endloop
  endfacet
  facet normal -0.387368 -0.694196 -0.606661
    outer loop
      vertex 42.3824 60.0933 3.53553
      vertex 28.8857 67.6246 3.53553
      vertex 29.1978 68.3554 2.5
    endloop
  endfacet
  facet normal -0.387377 -0.694207 -0.606644
    outer loop
      vertex 42.3824 60.0933 3.53553
      vertex 29.1978 68.3554 2.5
      vertex 42.8403 60.7427 2.5
    endloop
  endfacet
  facet normal -0.297672 -0.533453 -0.791719
    outer loop
      vertex 41.7855 59.2471 4.33013
      vertex 28.4789 66.6723 4.33013
      vertex 28.8857 67.6246 3.53553
    endloop
  endfacet
  facet normal -0.297676 -0.533459 -0.791714
    outer loop
      vertex 41.7855 59.2471 4.33013
      vertex 28.8857 67.6246 3.53553
      vertex 42.3824 60.0933 3.53553
    endloop
  endfacet
  facet normal -0.187368 -0.335776 -0.923119
    outer loop
      vertex 41.0905 58.2616 4.82963
      vertex 28.0052 65.5634 4.82963
      vertex 28.4789 66.6723 4.33013
    endloop
  endfacet
  facet normal -0.187356 -0.335758 -0.923127
    outer loop
      vertex 41.0905 58.2616 4.82963
      vertex 28.4789 66.6723 4.33013
      vertex 41.7855 59.2471 4.33013
    endloop
  endfacet
  facet normal -0.0639503 -0.114604 -0.991351
    outer loop
      vertex 40.3447 57.2041 5
      vertex 27.4969 64.3733 5
      vertex 28.0052 65.5634 4.82963
    endloop
  endfacet
  facet normal -0.0639538 -0.114609 -0.99135
    outer loop
      vertex 40.3447 57.2041 5
      vertex 28.0052 65.5634 4.82963
      vertex 41.0905 58.2616 4.82963
    endloop
  endfacet
  facet normal 0.0639481 0.1146 -0.991351
    outer loop
      vertex 39.5988 56.1465 4.82963
      vertex 26.9885 63.1832 4.82963
      vertex 27.4969 64.3733 5
    endloop
  endfacet
  facet normal 0.0639467 0.114598 -0.991352
    outer loop
      vertex 39.5988 56.1465 4.82963
      vertex 27.4969 64.3733 5
      vertex 40.3447 57.2041 5
    endloop
  endfacet
  facet normal 0.187367 0.335776 -0.923119
    outer loop
      vertex 38.9038 55.1611 4.33013
      vertex 26.5148 62.0743 4.33013
      vertex 26.9885 63.1832 4.82963
    endloop
  endfacet
  facet normal 0.187368 0.335778 -0.923117
    outer loop
      vertex 38.9038 55.1611 4.33013
      vertex 26.9885 63.1832 4.82963
      vertex 39.5988 56.1465 4.82963
    endloop
  endfacet
  facet normal 0.297684 0.533467 -0.791705
    outer loop
      vertex 38.307 54.3148 3.53553
      vertex 26.1081 61.122 3.53553
      vertex 26.5148 62.0743 4.33013
    endloop
  endfacet
  facet normal 0.297669 0.533446 -0.791725
    outer loop
      vertex 38.307 54.3148 3.53553
      vertex 26.5148 62.0743 4.33013
      vertex 38.9038 55.1611 4.33013
    endloop
  endfacet
  facet normal 0.387357 0.694181 -0.606685
    outer loop
      vertex 37.849 53.6655 2.5
      vertex 25.7959 60.3912 2.5
      vertex 26.1081 61.122 3.53553
    endloop
  endfacet
  facet normal 0.387386 0.694218 -0.606625
    outer loop
      vertex 37.849 53.6655 2.5
      vertex 26.1081 61.122 3.53553
      vertex 38.307 54.3148 3.53553
    endloop
  endfacet
  facet normal 0.45056 0.807438 -0.380841
    outer loop
      vertex 37.5611 53.2573 1.2941
      vertex 25.5997 59.9319 1.2941
      vertex 25.7959 60.3912 2.5
    endloop
  endfacet
  facet normal 0.450548 0.807426 -0.380881
    outer loop
      vertex 37.5611 53.2573 1.2941
      vertex 25.7959 60.3912 2.5
      vertex 37.849 53.6655 2.5
    endloop
  endfacet
  facet normal 0.483155 0.865856 -0.129822
    outer loop
      vertex 37.4629 53.1181 0
      vertex 25.5328 59.7752 0
      vertex 25.5997 59.9319 1.2941
    endloop
  endfacet
  facet normal 0.483159 0.865858 -0.1298
    outer loop
      vertex 37.4629 53.1181 0
      vertex 25.5997 59.9319 1.2941
      vertex 37.5611 53.2573 1.2941
    endloop
  endfacet
  facet normal -0.653466 -0.745743 -0.129803
    outer loop
      vertex 54.9572 50.7856 1.2941
      vertex 43.1282 61.1509 1.2941
      vertex 43.2264 61.2901 0
    endloop
  endfacet
  facet normal -0.653461 -0.745742 -0.129836
    outer loop
      vertex 54.9572 50.7856 1.2941
      vertex 43.2264 61.2901 0
      vertex 55.0824 50.9012 0
    endloop
  endfacet
  facet normal -0.609364 -0.695417 -0.380882
    outer loop
      vertex 54.5904 50.4466 2.5
      vertex 42.8403 60.7427 2.5
      vertex 43.1282 61.1509 1.2941
    endloop
  endfacet
  facet normal -0.609374 -0.695425 -0.38085
    outer loop
      vertex 54.5904 50.4466 2.5
      vertex 43.1282 61.1509 1.2941
      vertex 54.9572 50.7856 1.2941
    endloop
  endfacet
  facet normal -0.523925 -0.59791 -0.606635
    outer loop
      vertex 54.0068 49.9073 3.53553
      vertex 42.3824 60.0933 3.53553
      vertex 42.8403 60.7427 2.5
    endloop
  endfacet
  facet normal -0.523915 -0.597902 -0.606651
    outer loop
      vertex 54.0068 49.9073 3.53553
      vertex 42.8403 60.7427 2.5
      vertex 54.5904 50.4466 2.5
    endloop
  endfacet
  facet normal -0.402598 -0.459452 -0.791718
    outer loop
      vertex 53.2463 49.2045 4.33013
      vertex 41.7855 59.2471 4.33013
      vertex 42.3824 60.0933 3.53553
    endloop
  endfacet
  facet normal -0.402607 -0.459461 -0.791709
    outer loop
      vertex 53.2463 49.2045 4.33013
      vertex 42.3824 60.0933 3.53553
      vertex 54.0068 49.9073 3.53553
    endloop
  endfacet
  facet normal -0.253398 -0.289183 -0.923126
    outer loop
      vertex 52.3606 48.3861 4.82963
      vertex 41.0905 58.2616 4.82963
      vertex 41.7855 59.2471 4.33013
    endloop
  endfacet
  facet normal -0.253398 -0.289183 -0.923127
    outer loop
      vertex 52.3606 48.3861 4.82963
      vertex 41.7855 59.2471 4.33013
      vertex 53.2463 49.2045 4.33013
    endloop
  endfacet
  facet normal -0.0864969 -0.098711 -0.99135
    outer loop
      vertex 51.4102 47.5078 5
      vertex 40.3447 57.2041 5
      vertex 41.0905 58.2616 4.82963
    endloop
  endfacet
  facet normal -0.0864924 -0.0987067 -0.991351
    outer loop
      vertex 51.4102 47.5078 5
      vertex 41.0905 58.2616 4.82963
      vertex 52.3606 48.3861 4.82963
    endloop
  endfacet
  facet normal 0.086487 0.0987008 -0.991352
    outer loop
      vertex 50.4598 46.6295 4.82963
      vertex 39.5988 56.1465 4.82963
      vertex 40.3447 57.2041 5
    endloop
  endfacet
  facet normal 0.0864927 0.0987063 -0.991351
    outer loop
      vertex 50.4598 46.6295 4.82963
      vertex 40.3447 57.2041 5
      vertex 51.4102 47.5078 5
    endloop
  endfacet
  facet normal 0.253413 0.289197 -0.923118
    outer loop
      vertex 49.5741 45.8111 4.33013
      vertex 38.9038 55.1611 4.33013
      vertex 39.5988 56.1465 4.82963
    endloop
  endfacet
  facet normal 0.253398 0.289183 -0.923127
    outer loop
      vertex 49.5741 45.8111 4.33013
      vertex 39.5988 56.1465 4.82963
      vertex 50.4598 46.6295 4.82963
    endloop
  endfacet
  facet normal 0.402597 0.459449 -0.791721
    outer loop
      vertex 48.8136 45.1083 3.53553
      vertex 38.307 54.3148 3.53553
      vertex 38.9038 55.1611 4.33013
    endloop
  endfacet
  facet normal 0.402608 0.45946 -0.791709
    outer loop
      vertex 48.8136 45.1083 3.53553
      vertex 38.9038 55.1611 4.33013
      vertex 49.5741 45.8111 4.33013
    endloop
  endfacet
  facet normal 0.523929 0.597912 -0.60663
    outer loop
      vertex 48.23 44.569 2.5
      vertex 37.849 53.6655 2.5
      vertex 38.307 54.3148 3.53553
    endloop
  endfacet
  facet normal 0.523916 0.597901 -0.606651
    outer loop
      vertex 48.23 44.569 2.5
      vertex 38.307 54.3148 3.53553
      vertex 48.8136 45.1083 3.53553
    endloop
  endfacet
  facet normal 0.609364 0.695417 -0.380882
    outer loop
      vertex 47.8632 44.23 1.2941
      vertex 37.5611 53.2573 1.2941
      vertex 37.849 53.6655 2.5
    endloop
  endfacet
  facet normal 0.609375 0.695424 -0.380851
    outer loop
      vertex 47.8632 44.23 1.2941
      vertex 37.849 53.6655 2.5
      vertex 48.23 44.569 2.5
    endloop
  endfacet
  facet normal 0.653467 0.745742 -0.129803
    outer loop
      vertex 47.738 44.1144 0
      vertex 37.4629 53.1181 0
      vertex 37.5611 53.2573 1.2941
    endloop
  endfacet
  facet normal 0.653462 0.745741 -0.129836
    outer loop
      vertex 47.738 44.1144 0
      vertex 37.5611 53.2573 1.2941
      vertex 47.8632 44.23 1.2941
    endloop
  endfacet
  facet normal -0.7949 -0.592683 -0.129848
    outer loop
      vertex 64.3584 38.1768 1.2941
      vertex 54.9572 50.7856 1.2941
      vertex 55.0824 50.9012 0
    endloop
  endfacet
  facet normal -0.79491 -0.592683 -0.129788
    outer loop
      vertex 64.3584 38.1768 1.2941
      vertex 55.0824 50.9012 0
      vertex 64.5049 38.2637 0
    endloop
  endfacet
  facet normal -0.741274 -0.552693 -0.380846
    outer loop
      vertex 63.9288 37.9219 2.5
      vertex 54.5904 50.4466 2.5
      vertex 54.9572 50.7856 1.2941
    endloop
  endfacet
  facet normal -0.741255 -0.552684 -0.380896
    outer loop
      vertex 63.9288 37.9219 2.5
      vertex 54.9572 50.7856 1.2941
      vertex 64.3584 38.1768 1.2941
    endloop
  endfacet
  facet normal -0.637315 -0.475187 -0.606651
    outer loop
      vertex 63.2454 37.5166 3.53553
      vertex 54.0068 49.9073 3.53553
      vertex 54.5904 50.4466 2.5
    endloop
  endfacet
  facet normal -0.637345 -0.475203 -0.606608
    outer loop
      vertex 63.2454 37.5166 3.53553
      vertex 54.5904 50.4466 2.5
      vertex 63.9288 37.9219 2.5
    endloop
  endfacet
  facet normal -0.489752 -0.36516 -0.791708
    outer loop
      vertex 62.3548 36.9882 4.33013
      vertex 53.2463 49.2045 4.33013
      vertex 54.0068 49.9073 3.53553
    endloop
  endfacet
  facet normal -0.489735 -0.36515 -0.791723
    outer loop
      vertex 62.3548 36.9882 4.33013
      vertex 54.0068 49.9073 3.53553
      vertex 63.2454 37.5166 3.53553
    endloop
  endfacet
  facet normal -0.308244 -0.229827 -0.923128
    outer loop
      vertex 61.3176 36.373 4.82963
      vertex 52.3606 48.3861 4.82963
      vertex 53.2463 49.2045 4.33013
    endloop
  endfacet
  facet normal -0.308245 -0.229828 -0.923127
    outer loop
      vertex 61.3176 36.373 4.82963
      vertex 53.2463 49.2045 4.33013
      vertex 62.3548 36.9882 4.33013
    endloop
  endfacet
  facet normal -0.105214 -0.0784481 -0.991351
    outer loop
      vertex 60.2046 35.7128 5
      vertex 51.4102 47.5078 5
      vertex 52.3606 48.3861 4.82963
    endloop
  endfacet
  facet normal -0.105215 -0.0784487 -0.99135
    outer loop
      vertex 60.2046 35.7128 5
      vertex 52.3606 48.3861 4.82963
      vertex 61.3176 36.373 4.82963
    endloop
  endfacet
  facet normal 0.105214 0.0784481 -0.991351
    outer loop
      vertex 59.0916 35.0526 4.82963
      vertex 50.4598 46.6295 4.82963
      vertex 51.4102 47.5078 5
    endloop
  endfacet
  facet normal 0.105215 0.0784488 -0.99135
    outer loop
      vertex 59.0916 35.0526 4.82963
      vertex 51.4102 47.5078 5
      vertex 60.2046 35.7128 5
    endloop
  endfacet
  facet normal 0.308243 0.229828 -0.923128
    outer loop
      vertex 58.0545 34.4373 4.33013
      vertex 49.5741 45.8111 4.33013
      vertex 50.4598 46.6295 4.82963
    endloop
  endfacet
  facet normal 0.308249 0.229832 -0.923125
    outer loop
      vertex 58.0545 34.4373 4.33013
      vertex 50.4598 46.6295 4.82963
      vertex 59.0916 35.0526 4.82963
    endloop
  endfacet
  facet normal 0.489752 0.36516 -0.791708
    outer loop
      vertex 57.1638 33.909 3.53553
      vertex 48.8136 45.1083 3.53553
      vertex 49.5741 45.8111 4.33013
    endloop
  endfacet
  facet normal 0.489729 0.365146 -0.791729
    outer loop
      vertex 57.1638 33.909 3.53553
      vertex 49.5741 45.8111 4.33013
      vertex 58.0545 34.4373 4.33013
    endloop
  endfacet
  facet normal 0.637317 0.475186 -0.606651
    outer loop
      vertex 56.4804 33.5036 2.5
      vertex 48.23 44.569 2.5
      vertex 48.8136 45.1083 3.53553
    endloop
  endfacet
  facet normal 0.637326 0.475191 -0.606637
    outer loop
      vertex 56.4804 33.5036 2.5
      vertex 48.8136 45.1083 3.53553
      vertex 57.1638 33.909 3.53553
    endloop
  endfacet
  facet normal 0.741273 0.552694 -0.380846
    outer loop
      vertex 56.0508 33.2488 1.2941
      vertex 47.8632 44.23 1.2941
      vertex 48.23 44.569 2.5
    endloop
  endfacet
  facet normal 0.741269 0.552692 -0.380857
    outer loop
      vertex 56.0508 33.2488 1.2941
      vertex 48.23 44.569 2.5
      vertex 56.4804 33.5036 2.5
    endloop
  endfacet
  facet normal 0.794899 0.592685 -0.129848
    outer loop
      vertex 55.9043 33.1619 0
      vertex 47.738 44.1144 0
      vertex 47.8632 44.23 1.2941
    endloop
  endfacet
  facet normal 0.794909 0.592685 -0.129788
    outer loop
      vertex 55.9043 33.1619 0
      vertex 47.8632 44.23 1.2941
      vertex 56.0508 33.2488 1.2941
    endloop
  endfacet
  facet normal -0.90123 -0.413448 -0.129788
    outer loop
      vertex 70.9165 23.8815 1.2941
      vertex 64.3584 38.1768 1.2941
      vertex 64.5049 38.2637 0
    endloop
  endfacet
  facet normal -0.901236 -0.413447 -0.12975
    outer loop
      vertex 70.9165 23.8815 1.2941
      vertex 64.5049 38.2637 0
      vertex 71.0779 23.9358 0
    endloop
  endfacet
  facet normal -0.840405 -0.385544 -0.380888
    outer loop
      vertex 70.4431 23.7221 2.5
      vertex 63.9288 37.9219 2.5
      vertex 64.3584 38.1768 1.2941
    endloop
  endfacet
  facet normal -0.840408 -0.385545 -0.380881
    outer loop
      vertex 70.4431 23.7221 2.5
      vertex 64.3584 38.1768 1.2941
      vertex 70.9165 23.8815 1.2941
    endloop
  endfacet
  facet normal -0.722585 -0.331493 -0.606616
    outer loop
      vertex 69.6901 23.4685 3.53553
      vertex 63.2454 37.5166 3.53553
      vertex 63.9288 37.9219 2.5
    endloop
  endfacet
  facet normal -0.722583 -0.331492 -0.606619
    outer loop
      vertex 69.6901 23.4685 3.53553
      vertex 63.9288 37.9219 2.5
      vertex 70.4431 23.7221 2.5
    endloop
  endfacet
  facet normal -0.555247 -0.254724 -0.791718
    outer loop
      vertex 68.7087 23.138 4.33013
      vertex 62.3548 36.9882 4.33013
      vertex 63.2454 37.5166 3.53553
    endloop
  endfacet
  facet normal -0.555243 -0.254723 -0.791721
    outer loop
      vertex 68.7087 23.138 4.33013
      vertex 63.2454 37.5166 3.53553
      vertex 69.6901 23.4685 3.53553
    endloop
  endfacet
  facet normal -0.349472 -0.160322 -0.923128
    outer loop
      vertex 67.5658 22.7531 4.82963
      vertex 61.3176 36.373 4.82963
      vertex 62.3548 36.9882 4.33013
    endloop
  endfacet
  facet normal -0.349461 -0.160318 -0.923133
    outer loop
      vertex 67.5658 22.7531 4.82963
      vertex 62.3548 36.9882 4.33013
      vertex 68.7087 23.138 4.33013
    endloop
  endfacet
  facet normal -0.119288 -0.054724 -0.99135
    outer loop
      vertex 66.3394 22.3401 5
      vertex 60.2046 35.7128 5
      vertex 61.3176 36.373 4.82963
    endloop
  endfacet
  facet normal -0.119288 -0.0547242 -0.99135
    outer loop
      vertex 66.3394 22.3401 5
      vertex 61.3176 36.373 4.82963
      vertex 67.5658 22.7531 4.82963
    endloop
  endfacet
  facet normal 0.119288 0.0547241 -0.99135
    outer loop
      vertex 65.113 21.9271 4.82963
      vertex 59.0916 35.0526 4.82963
      vertex 60.2046 35.7128 5
    endloop
  endfacet
  facet normal 0.119288 0.0547242 -0.99135
    outer loop
      vertex 65.113 21.9271 4.82963
      vertex 60.2046 35.7128 5
      vertex 66.3394 22.3401 5
    endloop
  endfacet
  facet normal 0.349485 0.160327 -0.923123
    outer loop
      vertex 63.9701 21.5423 4.33013
      vertex 58.0545 34.4373 4.33013
      vertex 59.0916 35.0526 4.82963
    endloop
  endfacet
  facet normal 0.349471 0.160322 -0.923129
    outer loop
      vertex 63.9701 21.5423 4.33013
      vertex 59.0916 35.0526 4.82963
      vertex 65.113 21.9271 4.82963
    endloop
  endfacet
  facet normal 0.555229 0.254718 -0.791732
    outer loop
      vertex 62.9888 21.2118 3.53553
      vertex 57.1638 33.909 3.53553
      vertex 58.0545 34.4373 4.33013
    endloop
  endfacet
  facet normal 0.555275 0.254733 -0.791695
    outer loop
      vertex 62.9888 21.2118 3.53553
      vertex 58.0545 34.4373 4.33013
      vertex 63.9701 21.5423 4.33013
    endloop
  endfacet
  facet normal 0.722572 0.331485 -0.606636
    outer loop
      vertex 62.2357 20.9582 2.5
      vertex 56.4804 33.5036 2.5
      vertex 57.1638 33.909 3.53553
    endloop
  endfacet
  facet normal 0.722552 0.33148 -0.606663
    outer loop
      vertex 62.2357 20.9582 2.5
      vertex 57.1638 33.909 3.53553
      vertex 62.9888 21.2118 3.53553
    endloop
  endfacet
  facet normal 0.840417 0.385545 -0.380861
    outer loop
      vertex 61.7623 20.7988 1.2941
      vertex 56.0508 33.2488 1.2941
      vertex 56.4804 33.5036 2.5
    endloop
  endfacet
  facet normal 0.840408 0.385544 -0.380881
    outer loop
      vertex 61.7623 20.7988 1.2941
      vertex 56.4804 33.5036 2.5
      vertex 62.2357 20.9582 2.5
    endloop
  endfacet
  facet normal 0.901231 0.413445 -0.129788
    outer loop
      vertex 61.6009 20.7444 0
      vertex 55.9043 33.1619 0
      vertex 56.0508 33.2488 1.2941
    endloop
  endfacet
  facet normal 0.901233 0.413445 -0.129782
    outer loop
      vertex 61.6009 20.7444 0
      vertex 56.0508 33.2488 1.2941
      vertex 61.7623 20.7988 1.2941
    endloop
  endfacet
  facet normal -0.967747 -0.215938 -0.129758
    outer loop
      vertex 74.0702 9.81256 1.18645
      vertex 70.9165 23.8815 1.2941
      vertex 71.0779 23.9358 0
    endloop
  endfacet
  facet normal -0.967768 -0.215944 -0.12959
    outer loop
      vertex 70.9165 23.8815 1.2941
      vertex 74.0702 9.81256 1.18645
      vertex 74.0562 9.8107 1.2941
    endloop
  endfacet
  facet normal -0.967746 -0.215944 -0.129753
    outer loop
      vertex 74.1891 9.82831 0.274136
      vertex 71.0779 23.9358 0
      vertex 74.2248 9.83304 0
    endloop
  endfacet
  facet normal -0.967733 -0.215943 -0.129851
    outer loop
      vertex 71.0779 23.9358 0
      vertex 74.1891 9.82831 0.274136
      vertex 74.0702 9.81256 1.18645
    endloop
  endfacet
  facet normal -0.90243 -0.201364 -0.380884
    outer loop
      vertex 73.6028 9.75064 2.40009
      vertex 70.4431 23.7221 2.5
      vertex 70.9165 23.8815 1.2941
    endloop
  endfacet
  facet normal -0.902606 -0.201407 -0.380445
    outer loop
      vertex 70.4431 23.7221 2.5
      vertex 73.6028 9.75064 2.40009
      vertex 73.5619 9.74521 2.5
    endloop
  endfacet
  facet normal -0.902429 -0.201364 -0.380885
    outer loop
      vertex 73.6028 9.75064 2.40009
      vertex 70.9165 23.8815 1.2941
      vertex 74.0562 9.8107 1.2941
    endloop
  endfacet
  facet normal -0.775913 -0.173134 -0.606616
    outer loop
      vertex 72.8404 9.64964 3.45006
      vertex 69.6901 23.4685 3.53553
      vertex 70.4431 23.7221 2.5
    endloop
  endfacet
  facet normal -0.775923 -0.173136 -0.606603
    outer loop
      vertex 69.6901 23.4685 3.53553
      vertex 72.8404 9.64964 3.45006
      vertex 72.7755 9.64104 3.53553
    endloop
  endfacet
  facet normal -0.77589 -0.173132 -0.606647
    outer loop
      vertex 72.8404 9.64964 3.45006
      vertex 70.4431 23.7221 2.5
      vertex 73.5619 9.74521 2.5
    endloop
  endfacet
  facet normal -0.596331 -0.133065 -0.791634
    outer loop
      vertex 68.7087 23.138 4.33013
      vertex 71.835 9.51644 4.26475
      vertex 71.7507 9.50527 4.33013
    endloop
  endfacet
  facet normal -0.596221 -0.133039 -0.79172
    outer loop
      vertex 71.835 9.51644 4.26475
      vertex 68.7087 23.138 4.33013
      vertex 69.6901 23.4685 3.53553
    endloop
  endfacet
  facet normal -0.596231 -0.133041 -0.791712
    outer loop
      vertex 71.835 9.51644 4.26475
      vertex 69.6901 23.4685 3.53553
      vertex 72.7755 9.64104 3.53553
    endloop
  endfacet
  facet normal -0.375141 -0.0837091 -0.92318
    outer loop
      vertex 67.5658 22.7531 4.82963
      vertex 70.6552 9.36015 4.78863
      vertex 70.5572 9.34717 4.82963
    endloop
  endfacet
  facet normal -0.375252 -0.0837347 -0.923133
    outer loop
      vertex 70.6552 9.36015 4.78863
      vertex 67.5658 22.7531 4.82963
      vertex 68.7087 23.138 4.33013
    endloop
  endfacet
  facet normal -0.375274 -0.0837375 -0.923124
    outer loop
      vertex 68.7087 23.138 4.33013
      vertex 71.2689 9.44145 4.53177
      vertex 70.6552 9.36015 4.78863
    endloop
  endfacet
  facet normal -0.375252 -0.0837336 -0.923133
    outer loop
      vertex 71.2689 9.44145 4.53177
      vertex 68.7087 23.138 4.33013
      vertex 71.7507 9.50527 4.33013
    endloop
  endfacet
  facet normal -0.128109 -0.0285863 -0.991348
    outer loop
      vertex 66.3394 22.3401 5
      vertex 69.3815 9.19141 4.98603
      vertex 69.2765 9.1775 5
    endloop
  endfacet
  facet normal -0.128092 -0.0285823 -0.99135
    outer loop
      vertex 69.3815 9.19141 4.98603
      vertex 66.3394 22.3401 5
      vertex 67.5658 22.7531 4.82963
    endloop
  endfacet
  facet normal -0.12809 -0.028582 -0.991351
    outer loop
      vertex 69.3815 9.19141 4.98603
      vertex 67.5658 22.7531 4.82963
      vertex 70.5572 9.34717 4.82963
    endloop
  endfacet
  facet normal 0.128138 0.0285928 -0.991344
    outer loop
      vertex 65.113 21.9271 4.82963
      vertex 68.1007 9.02174 4.84359
      vertex 67.9958 9.00784 4.82963
    endloop
  endfacet
  facet normal 0.128092 0.028582 -0.99135
    outer loop
      vertex 68.1007 9.02174 4.84359
      vertex 65.113 21.9271 4.82963
      vertex 66.3394 22.3401 5
    endloop
  endfacet
  facet normal 0.128062 0.028578 -0.991354
    outer loop
      vertex 66.3394 22.3401 5
      vertex 68.378 9.05847 4.88047
      vertex 68.1007 9.02174 4.84359
    endloop
  endfacet
  facet normal 0.128095 0.0285832 -0.99135
    outer loop
      vertex 68.378 9.05847 4.88047
      vertex 66.3394 22.3401 5
      vertex 69.2765 9.1775 5
    endloop
  endfacet
  facet normal 0.37516 0.0837128 -0.923172
    outer loop
      vertex 63.9701 21.5423 4.33013
      vertex 66.9002 8.8627 4.37109
      vertex 66.8023 8.84974 4.33013
    endloop
  endfacet
  facet normal 0.375258 0.0837354 -0.92313
    outer loop
      vertex 66.9002 8.8627 4.37109
      vertex 63.9701 21.5423 4.33013
      vertex 65.113 21.9271 4.82963
    endloop
  endfacet
  facet normal 0.375263 0.083736 -0.923128
    outer loop
      vertex 66.9002 8.8627 4.37109
      vertex 65.113 21.9271 4.82963
      vertex 67.9958 9.00784 4.82963
    endloop
  endfacet
  facet normal 0.596371 0.133071 -0.791602
    outer loop
      vertex 62.9888 21.2118 3.53553
      vertex 65.8617 8.72513 3.60084
      vertex 65.7775 8.71397 3.53553
    endloop
  endfacet
  facet normal 0.596257 0.133044 -0.791692
    outer loop
      vertex 65.8617 8.72513 3.60084
      vertex 62.9888 21.2118 3.53553
      vertex 63.9701 21.5423 4.33013
    endloop
  endfacet
  facet normal 0.596228 0.133041 -0.791715
    outer loop
      vertex 65.8617 8.72513 3.60084
      vertex 63.9701 21.5423 4.33013
      vertex 66.8023 8.84974 4.33013
    endloop
  endfacet
  facet normal 0.775876 0.173132 -0.606664
    outer loop
      vertex 65.056 8.61838 2.58537
      vertex 62.2357 20.9582 2.5
      vertex 62.9888 21.2118 3.53553
    endloop
  endfacet
  facet normal 0.775598 0.173065 -0.607039
    outer loop
      vertex 62.2357 20.9582 2.5
      vertex 65.056 8.61838 2.58537
      vertex 64.9911 8.60979 2.5
    endloop
  endfacet
  facet normal 0.775919 0.173134 -0.606609
    outer loop
      vertex 65.056 8.61838 2.58537
      vertex 62.9888 21.2118 3.53553
      vertex 65.7775 8.71397 3.53553
    endloop
  endfacet
  facet normal 0.902429 0.201369 -0.380884
    outer loop
      vertex 64.5377 8.54972 1.39391
      vertex 61.7623 20.7988 1.2941
      vertex 62.2357 20.9582 2.5
    endloop
  endfacet
  facet normal 0.902481 0.201382 -0.380753
    outer loop
      vertex 61.7623 20.7988 1.2941
      vertex 64.5377 8.54972 1.39391
      vertex 64.4968 8.5443 1.2941
    endloop
  endfacet
  facet normal 0.902493 0.201381 -0.380725
    outer loop
      vertex 64.9664 8.60652 2.43972
      vertex 62.2357 20.9582 2.5
      vertex 64.9911 8.60979 2.5
    endloop
  endfacet
  facet normal 0.902437 0.201369 -0.380865
    outer loop
      vertex 62.2357 20.9582 2.5
      vertex 64.9664 8.60652 2.43972
      vertex 64.5377 8.54972 1.39391
    endloop
  endfacet
  facet normal 0.967744 0.21594 -0.129774
    outer loop
      vertex 64.3422 8.52382 0.107612
      vertex 61.6009 20.7444 0
      vertex 61.7623 20.7988 1.2941
    endloop
  endfacet
  facet normal 0.967764 0.215946 -0.129616
    outer loop
      vertex 61.6009 20.7444 0
      vertex 64.3422 8.52382 0.107612
      vertex 64.3282 8.52197 0
    endloop
  endfacet
  facet normal 0.967737 0.215943 -0.129824
    outer loop
      vertex 64.3422 8.52382 0.107612
      vertex 61.7623 20.7988 1.2941
      vertex 64.4968 8.5443 1.2941
    endloop
  endfacet
  facet normal 0 0 -1
    outer loop
      vertex 64.2426 8.51063 0
      vertex 61.6009 20.7444 0
      vertex 64.3282 8.52197 0
    endloop
  endfacet
  facet normal 0 0 -1
    outer loop
      vertex 63.4457 8.40506 0
      vertex 61.6009 20.7444 0
      vertex 64.2426 8.51063 0
    endloop
  endfacet
  facet normal 0 0 -1
    outer loop
      vertex 60.3938 21.1798 0
      vertex 61.6009 20.7444 0
      vertex 63.4457 8.40506 0
    endloop
  endfacet
  facet normal 0 0 -1
    outer loop
      vertex 60.3938 21.1798 0
      vertex 55.9043 33.1619 0
      vertex 61.6009 20.7444 0
    endloop
  endfacet
  facet normal 0 0 -1
    outer loop
      vertex 54.7984 33.0625 0
      vertex 55.9043 33.1619 0
      vertex 60.3938 21.1798 0
    endloop
  endfacet
  facet normal 0 0 -1
    outer loop
      vertex 54.7984 33.0625 0
      vertex 47.738 44.1144 0
      vertex 55.9043 33.1619 0
    endloop
  endfacet
  facet normal 0 0 -1
    outer loop
      vertex 46.8952 43.5528 0
      vertex 47.738 44.1144 0
      vertex 54.7984 33.0625 0
    endloop
  endfacet
  facet normal 0 0 -1
    outer loop
      vertex 46.8952 43.5528 0
      vertex 37.4629 53.1181 0
      vertex 47.738 44.1144 0
    endloop
  endfacet
  facet normal 0 0 -1
    outer loop
      vertex 37.0168 52.2087 0
      vertex 37.4629 53.1181 0
      vertex 46.8952 43.5528 0
    endloop
  endfacet
  facet normal 0 0 -1
    outer loop
      vertex 25.5795 58.6659 0
      vertex 37.4629 53.1181 0
      vertex 37.0168 52.2087 0
    endloop
  endfacet
  facet normal 0 0 -1
    outer loop
      vertex 25.5795 58.6659 0
      vertex 25.5328 59.7752 0
      vertex 37.4629 53.1181 0
    endloop
  endfacet
  facet normal 0 0 -1
    outer loop
      vertex 13.0649 62.6523 0
      vertex 25.5328 59.7752 0
      vertex 25.5795 58.6659 0
    endloop
  endfacet
  facet normal 0 0 -1
    outer loop
      vertex 13.0649 62.6523 0
      vertex 12.4747 63.7917 0
      vertex 25.5328 59.7752 0
    endloop
  endfacet
  facet normal 0 0 -1
    outer loop
      vertex 1.42109e-14 64 0
      vertex 12.4747 63.7917 0
      vertex 13.0649 62.6523 0
    endloop
  endfacet
  facet normal 0 0 -1
    outer loop
      vertex 12.4747 63.7917 0
      vertex 1.42109e-14 64 0
      vertex 1.44085e-14 64.8902 0
    endloop
  endfacet
  facet normal 0 0 -1
    outer loop
      vertex 71.0779 23.9358 0
      vertex 75.3417 9.98101 0
      vertex 74.7266 9.89951 0
    endloop
  endfacet
  facet normal 0 0 -1
    outer loop
      vertex 71.0779 23.9358 0
      vertex 74.7266 9.89951 0
      vertex 74.2248 9.83304 0
    endloop
  endfacet
  facet normal 0 0 -1
    outer loop
      vertex 75.3417 9.98101 0
      vertex 71.0779 23.9358 0
      vertex 71.7177 25.151 0
    endloop
  endfacet
  facet normal 0 0 -1
    outer loop
      vertex 64.5049 38.2637 0
      vertex 71.7177 25.151 0
      vertex 71.0779 23.9358 0
    endloop
  endfacet
  facet normal 0 0 -1
    outer loop
      vertex 71.7177 25.151 0
      vertex 64.5049 38.2637 0
      vertex 65.0732 39.2617 0
    endloop
  endfacet
  facet normal 0 0 -1
    outer loop
      vertex 55.0824 50.9012 0
      vertex 65.0732 39.2617 0
      vertex 64.5049 38.2637 0
    endloop
  endfacet
  facet normal 0 0 -1
    outer loop
      vertex 65.0732 39.2617 0
      vertex 55.0824 50.9012 0
      vertex 55.688 51.7189 0
    endloop
  endfacet
  facet normal 0 0 -1
    outer loop
      vertex 55.0824 50.9012 0
      vertex 43.9575 61.9979 0
      vertex 55.688 51.7189 0
    endloop
  endfacet
  facet normal 0 0 -1
    outer loop
      vertex 43.2264 61.2901 0
      vertex 43.9575 61.9979 0
      vertex 55.0824 50.9012 0
    endloop
  endfacet
  facet normal 0 0 -1
    outer loop
      vertex 43.2264 61.2901 0
      vertex 30.3757 69.6657 0
      vertex 43.9575 61.9979 0
    endloop
  endfacet
  facet normal 0 0 -1
    outer loop
      vertex 29.4609 68.9714 0
      vertex 30.3757 69.6657 0
      vertex 43.2264 61.2901 0
    endloop
  endfacet
  facet normal 0 0 -1
    outer loop
      vertex 29.4609 68.9714 0
      vertex 15.5145 74.3996 0
      vertex 30.3757 69.6657 0
    endloop
  endfacet
  facet normal 0 0 -1
    outer loop
      vertex 14.3939 73.6058 0
      vertex 15.5145 74.3996 0
      vertex 29.4609 68.9714 0
    endloop
  endfacet
  facet normal 0 0 -1
    outer loop
      vertex 14.3939 73.6058 0
      vertex 1.68754e-14 76 0
      vertex 15.5145 74.3996 0
    endloop
  endfacet
  facet normal 0 -0 -1
    outer loop
      vertex 1.68754e-14 76 0
      vertex 14.3939 73.6058 0
      vertex 1.66252e-14 74.8733 0
    endloop
  endfacet
endsolid OpenSCAD_Model
