solid OpenSCAD_Model
  facet normal -1 2.22053e-16 -6.12356e-21
    outer loop
      vertex 1.77136e-15 7.97752 0.0619986
      vertex 1.96814e-15 8.86373 1.03528
      vertex 1.99841e-15 9.00002 0
    endloop
  endfacet
  facet normal -1 2.22051e-16 -4.03569e-20
    outer loop
      vertex 1.77136e-15 7.97752 0.0619986
      vertex 1.99841e-15 9.00002 0
      vertex 1.77317e-15 7.98566 0
    endloop
  endfacet
  facet normal -1 2.22033e-16 1.24568e-20
    outer loop
      vertex 1.96814e-15 8.86373 1.03528
      vertex 1.77136e-15 7.97752 0.0619986
      vertex 1.75052e-15 7.88362 0.776457
    endloop
  endfacet
  facet normal -1 2.22072e-16 -1.37032e-19
    outer loop
      vertex 1.74508e-15 7.85916 0.835618
      vertex 1.96814e-15 8.86373 1.03528
      vertex 1.75052e-15 7.88362 0.776457
    endloop
  endfacet
  facet normal -1 2.22045e-16 -6.8652e-22
    outer loop
      vertex 1.96814e-15 8.86373 1.03528
      vertex 1.74508e-15 7.85916 0.835618
      vertex 1.87941e-15 8.46413 2
    endloop
  endfacet
  facet normal -1 2.22035e-16 4.61452e-21
    outer loop
      vertex 1.68409e-15 7.58446 1.5
      vertex 1.87941e-15 8.46413 2
      vertex 1.74508e-15 7.85916 0.835618
    endloop
  endfacet
  facet normal -1 2.22051e-16 -2.40128e-20
    outer loop
      vertex 1.67524e-15 7.54461 1.55203
      vertex 1.87941e-15 8.46413 2
      vertex 1.68409e-15 7.58446 1.5
    endloop
  endfacet
  facet normal -1 2.22037e-16 5.47795e-21
    outer loop
      vertex 1.87941e-15 8.46413 2
      vertex 1.67524e-15 7.54461 1.55203
      vertex 1.73827e-15 7.82845 2.82843
    endloop
  endfacet
  facet normal -1 2.22044e-16 3.9583e-21
    outer loop
      vertex 1.57842e-15 7.10856 2.12132
      vertex 1.73827e-15 7.82845 2.82843
      vertex 1.67524e-15 7.54461 1.55203
    endloop
  endfacet
  facet normal -1 2.22075e-16 -2.80667e-20
    outer loop
      vertex 1.5666e-15 7.05534 2.16223
      vertex 1.73827e-15 7.82845 2.82843
      vertex 1.57842e-15 7.10856 2.12132
    endloop
  endfacet
  facet normal -1 2.22049e-16 2.86924e-21
    outer loop
      vertex 1.5666e-15 7.05534 2.16223
      vertex 1.55432e-15 7.00002 3.4641
      vertex 1.73827e-15 7.82845 2.82843
    endloop
  endfacet
  facet normal -1 2.22056e-16 3.18421e-21
    outer loop
      vertex 1.4407e-15 6.48836 2.59808
      vertex 1.55432e-15 7.00002 3.4641
      vertex 1.5666e-15 7.05534 2.16223
    endloop
  endfacet
  facet normal -1 2.22022e-16 2.33663e-20
    outer loop
      vertex 1.4266e-15 6.42485 2.62443
      vertex 1.55432e-15 7.00002 3.4641
      vertex 1.4407e-15 6.48836 2.59808
    endloop
  endfacet
  facet normal -1 2.22046e-16 6.6091e-21
    outer loop
      vertex 1.4266e-15 6.42485 2.62443
      vertex 1.34011e-15 6.0353 3.8637
      vertex 1.55432e-15 7.00002 3.4641
    endloop
  endfacet
  facet normal -1 2.22048e-16 7.12226e-21
    outer loop
      vertex 1.28033e-15 5.76611 2.89778
      vertex 1.34011e-15 6.0353 3.8637
      vertex 1.4266e-15 6.42485 2.62443
    endloop
  endfacet
  facet normal -1 2.21925e-16 4.1359e-20
    outer loop
      vertex 1.26484e-15 5.69631 2.90698
      vertex 1.34011e-15 6.0353 3.8637
      vertex 1.28033e-15 5.76611 2.89778
    endloop
  endfacet
  facet normal -1 2.22046e-16 -1.44269e-21
    outer loop
      vertex 1.26484e-15 5.69631 2.90698
      vertex 1.11023e-15 5.00002 4
      vertex 1.34011e-15 6.0353 3.8637
    endloop
  endfacet
  facet normal -1 2.22046e-16 -1.74849e-21
    outer loop
      vertex 1.10824e-15 4.99105 3
      vertex 1.11023e-15 5.00002 4
      vertex 1.26484e-15 5.69631 2.90698
    endloop
  endfacet
  facet normal -1 2.22082e-16 -2.07896e-21
    outer loop
      vertex 1.09239e-15 4.91968 2.99059
      vertex 1.11023e-15 5.00002 4
      vertex 1.10824e-15 4.99105 3
    endloop
  endfacet
  facet normal -1 2.22045e-16 -1.65996e-21
    outer loop
      vertex 8.80351e-16 3.96475 3.8637
      vertex 1.09239e-15 4.91968 2.99059
      vertex 9.36137e-16 4.21598 2.89778
    endloop
  endfacet
  facet normal -1 2.22078e-16 6.9221e-21
    outer loop
      vertex 8.80351e-16 3.96475 3.8637
      vertex 9.36137e-16 4.21598 2.89778
      vertex 9.21111e-16 4.14832 2.8697
    endloop
  endfacet
  facet normal -1 2.22047e-16 7.13633e-22
    outer loop
      vertex 1.09239e-15 4.91968 2.99059
      vertex 8.80351e-16 3.96475 3.8637
      vertex 1.11023e-15 5.00002 4
    endloop
  endfacet
  facet normal -1 2.22043e-16 1.30873e-22
    outer loop
      vertex 6.66139e-16 3.00002 3.4641
      vertex 9.21111e-16 4.14832 2.8697
      vertex 7.75766e-16 3.49374 2.59808
    endloop
  endfacet
  facet normal -1 2.22061e-16 1.01142e-20
    outer loop
      vertex 6.66139e-16 3.00002 3.4641
      vertex 7.75766e-16 3.49374 2.59808
      vertex 7.62775e-16 3.43524 2.5531
    endloop
  endfacet
  facet normal -1 2.22043e-16 4.86333e-22
    outer loop
      vertex 9.21111e-16 4.14832 2.8697
      vertex 6.66139e-16 3.00002 3.4641
      vertex 8.80351e-16 3.96475 3.8637
    endloop
  endfacet
  facet normal -1 2.22044e-16 -4.63709e-22
    outer loop
      vertex 4.82191e-16 2.1716 2.82843
      vertex 7.62775e-16 3.43524 2.5531
      vertex 6.38053e-16 2.87354 2.12132
    endloop
  endfacet
  facet normal -1 2.22025e-16 -1.96838e-20
    outer loop
      vertex 4.82191e-16 2.1716 2.82843
      vertex 6.38053e-16 2.87354 2.12132
      vertex 6.28214e-16 2.82922 2.06347
    endloop
  endfacet
  facet normal -1 2.22045e-16 3.23012e-21
    outer loop
      vertex 3.41043e-16 1.53592 2
      vertex 6.28214e-16 2.82922 2.06347
      vertex 5.32382e-16 2.39764 1.5
    endloop
  endfacet
  facet normal -1 2.22028e-16 -2.63846e-20
    outer loop
      vertex 3.41043e-16 1.53592 2
      vertex 5.32382e-16 2.39764 1.5
      vertex 5.2646e-16 2.37096 1.43549
    endloop
  endfacet
  facet normal -1 2.22045e-16 2.57279e-21
    outer loop
      vertex 7.62775e-16 3.43524 2.5531
      vertex 4.82191e-16 2.1716 2.82843
      vertex 6.66139e-16 3.00002 3.4641
    endloop
  endfacet
  facet normal -1 2.22045e-16 1.53885e-21
    outer loop
      vertex 2.52314e-16 1.13632 1.03528
      vertex 5.2646e-16 2.37096 1.43549
      vertex 4.65954e-16 2.09847 0.776457
    endloop
  endfacet
  facet normal -1 2.22041e-16 -1.25602e-20
    outer loop
      vertex 2.52314e-16 1.13632 1.03528
      vertex 4.65954e-16 2.09847 0.776457
      vertex 4.64083e-16 2.09004 0.712315
    endloop
  endfacet
  facet normal -1 2.22044e-16 6.29215e-22
    outer loop
      vertex 2.2205e-16 1.00002 0
      vertex 4.64083e-16 2.09004 0.712315
      vertex 4.43297e-16 1.99643 0
    endloop
  endfacet
  facet normal -1 2.22045e-16 -2.08802e-21
    outer loop
      vertex 6.28214e-16 2.82922 2.06347
      vertex 3.41043e-16 1.53592 2
      vertex 4.82191e-16 2.1716 2.82843
    endloop
  endfacet
  facet normal -1 2.22045e-16 -3.57889e-22
    outer loop
      vertex 5.2646e-16 2.37096 1.43549
      vertex 2.52314e-16 1.13632 1.03528
      vertex 3.41043e-16 1.53592 2
    endloop
  endfacet
  facet normal -1 2.22045e-16 -7.10325e-22
    outer loop
      vertex 4.64083e-16 2.09004 0.712315
      vertex 2.2205e-16 1.00002 0
      vertex 2.52314e-16 1.13632 1.03528
    endloop
  endfacet
  facet normal 0.0474222 -0.998875 -5.75137e-07
    outer loop
      vertex 7.81964 0.371241 2.82843
      vertex 6.99215 0.331955 3.4641
      vertex 2.99665 0.142266 3.4641
    endloop
  endfacet
  facet normal 0.0474205 -0.998875 -5.63543e-06
    outer loop
      vertex 6.99215 0.331955 3.4641
      vertex 6.02851 0.286205 3.8637
      vertex 4.9944 0.237111 4
    endloop
  endfacet
  facet normal 0.0474181 -0.998875 -1.82277e-06
    outer loop
      vertex 8.85375 0.420335 1.03528
      vertex 8.4546 0.401385 2
      vertex 7.81964 0.371241 2.82843
    endloop
  endfacet
  facet normal 0.0474219 -0.998875 2.22074e-06
    outer loop
      vertex 4.9944 0.237111 4
      vertex 3.96029 0.188016 3.8637
      vertex 2.99665 0.142266 3.4641
    endloop
  endfacet
  facet normal 0.0474222 -0.998875 9.3196e-07
    outer loop
      vertex 6.99215 0.331955 3.4641
      vertex 4.9944 0.237111 4
      vertex 2.99665 0.142266 3.4641
    endloop
  endfacet
  facet normal 0.0474223 -0.998875 -4.73269e-07
    outer loop
      vertex 2.99665 0.142266 3.4641
      vertex 4.32585 0.205371 2.91291
      vertex 4.98543 0.236685 3
    endloop
  endfacet
  facet normal 0.0473973 -0.998876 -0.000107696
    outer loop
      vertex 5.03888 0.239222 2.99294
      vertex 2.99665 0.142266 3.4641
      vertex 4.98543 0.236685 3
    endloop
  endfacet
  facet normal 0.0474237 -0.998875 6.59313e-06
    outer loop
      vertex 5.75962 0.27344 2.89778
      vertex 2.99665 0.142266 3.4641
      vertex 5.03888 0.239222 2.99294
    endloop
  endfacet
  facet normal 0.0474223 -0.998875 1.69539e-07
    outer loop
      vertex 5.75962 0.27344 2.89778
      vertex 7.81964 0.371241 2.82843
      vertex 2.99665 0.142266 3.4641
    endloop
  endfacet
  facet normal 0.0474226 -0.998875 8.32317e-06
    outer loop
      vertex 5.81066 0.275863 2.87657
      vertex 7.81964 0.371241 2.82843
      vertex 5.75962 0.27344 2.89778
    endloop
  endfacet
  facet normal 0.0474225 -0.998875 3.04042e-06
    outer loop
      vertex 6.48106 0.30769 2.59808
      vertex 7.81964 0.371241 2.82843
      vertex 5.81066 0.275863 2.87657
    endloop
  endfacet
  facet normal 0.0474245 -0.998875 -8.46961e-06
    outer loop
      vertex 6.52598 0.309823 2.5635
      vertex 7.81964 0.371241 2.82843
      vertex 6.48106 0.30769 2.59808
    endloop
  endfacet
  facet normal 0.0474224 -0.998875 1.5129e-06
    outer loop
      vertex 7.10056 0.337101 2.12132
      vertex 7.81964 0.371241 2.82843
      vertex 6.52598 0.309823 2.5635
    endloop
  endfacet
  facet normal 0.0474315 -0.998874 -7.72536e-06
    outer loop
      vertex 7.13589 0.338779 2.07514
      vertex 7.81964 0.371241 2.82843
      vertex 7.10056 0.337101 2.12132
    endloop
  endfacet
  facet normal 0.0474214 -0.998875 1.49119e-06
    outer loop
      vertex 7.5029 0.356202 1.59545
      vertex 7.81964 0.371241 2.82843
      vertex 7.13589 0.338779 2.07514
    endloop
  endfacet
  facet normal 0.0474231 -0.998875 1.0551e-06
    outer loop
      vertex 7.81964 0.371241 2.82843
      vertex 7.5029 0.356202 1.59545
      vertex 8.85375 0.420335 1.03528
    endloop
  endfacet
  facet normal 0.0474233 -0.998875 -8.58036e-07
    outer loop
      vertex 2.16915 0.102981 2.82843
      vertex 1.53419 0.0728359 2
      vertex 1.13504 0.0538864 1.03528
    endloop
  endfacet
  facet normal 0.0474202 -0.998875 9.30796e-07
    outer loop
      vertex 2.99665 0.142266 3.4641
      vertex 2.16915 0.102981 2.82843
      vertex 1.13504 0.0538864 1.03528
    endloop
  endfacet
  facet normal 0.0474217 -0.998875 -2.25641e-07
    outer loop
      vertex 1.13504 0.0538864 1.03528
      vertex 2.80964 0.133388 2.04203
      vertex 2.99665 0.142266 3.4641
    endloop
  endfacet
  facet normal 0.0474225 -0.998875 -1.6341e-06
    outer loop
      vertex 2.80964 0.133388 2.04203
      vertex 1.13504 0.0538864 1.03528
      vertex 2.42665 0.115206 1.54145
    endloop
  endfacet
  facet normal 0.0474144 -0.998875 1.91891e-05
    outer loop
      vertex 2.42665 0.115206 1.54145
      vertex 1.13504 0.0538864 1.03528
      vertex 2.39494 0.1137 1.5
    endloop
  endfacet
  facet normal 0.0474218 -0.998875 -9.48213e-07
    outer loop
      vertex 1.13504 0.0538864 1.03528
      vertex 2.11695 0.100503 0.826923
      vertex 2.39494 0.1137 1.5
    endloop
  endfacet
  facet normal 0.0474236 -0.998875 7.49823e-06
    outer loop
      vertex 1.13504 0.0538864 1.03528
      vertex 2.09611 0.0995132 0.776457
      vertex 2.11695 0.100503 0.826923
    endloop
  endfacet
  facet normal 0.0474216 -0.998875 5.01742e-08
    outer loop
      vertex 1.41213 0.0670412 0
      vertex 2.09611 0.0995132 0.776457
      vertex 1.13504 0.0538864 1.03528
    endloop
  endfacet
  facet normal 0.0474212 -0.998875 4.0739e-07
    outer loop
      vertex 2.09611 0.0995132 0.776457
      vertex 1.41213 0.0670412 0
      vertex 2.00187 0.0950389 0.0585144
    endloop
  endfacet
  facet normal 0.0474212 -0.998875 -9.18549e-08
    outer loop
      vertex 2.00187 0.0950389 0.0585144
      vertex 1.41213 0.0670412 0
      vertex 1.99419 0.0946743 0
    endloop
  endfacet
  facet normal 0.0474232 -0.998875 4.71952e-07
    outer loop
      vertex 1.41213 0.0670412 0
      vertex 1.13504 0.0538864 1.03528
      vertex 0.998899 0.0474224 0
    endloop
  endfacet
  facet normal 0.0474165 -0.998875 0
    outer loop
      vertex 2.99665 0.142266 3.4641
      vertex 2.91108 0.138204 2.1527
      vertex 2.99665 0.142266 2.21855
    endloop
  endfacet
  facet normal 0.0474211 -0.998875 -2.98126e-07
    outer loop
      vertex 2.99665 0.142266 3.4641
      vertex 2.8703 0.136268 2.12132
      vertex 2.91108 0.138204 2.1527
    endloop
  endfacet
  facet normal 0.0474252 -0.998875 -6.89643e-07
    outer loop
      vertex 2.8703 0.136268 2.12132
      vertex 2.99665 0.142266 3.4641
      vertex 2.80964 0.133388 2.04203
    endloop
  endfacet
  facet normal 0.0474274 -0.998875 1.17551e-05
    outer loop
      vertex 2.99665 0.142266 3.4641
      vertex 4.26349 0.20241 2.90467
      vertex 4.32585 0.205371 2.91291
    endloop
  endfacet
  facet normal 0.0474134 -0.998875 -2.00203e-05
    outer loop
      vertex 2.99665 0.142266 3.4641
      vertex 4.21124 0.19993 2.89778
      vertex 4.26349 0.20241 2.90467
    endloop
  endfacet
  facet normal 0.0474224 -0.998875 -6.35352e-07
    outer loop
      vertex 2.99665 0.142266 3.4641
      vertex 3.53763 0.16795 2.61794
      vertex 4.21124 0.19993 2.89778
    endloop
  endfacet
  facet normal 0.0474342 -0.998874 6.95797e-06
    outer loop
      vertex 2.99665 0.142266 3.4641
      vertex 3.48981 0.165679 2.59808
      vertex 3.53763 0.16795 2.61794
    endloop
  endfacet
  facet normal 0.0474221 -0.998875 0
    outer loop
      vertex 3.48981 0.165679 2.59808
      vertex 2.99665 0.142266 3.4641
      vertex 2.99665 0.142266 2.21855
    endloop
  endfacet
  facet normal 0.0474237 -0.998875 2.67836e-06
    outer loop
      vertex 7.57593 0.359669 1.5
      vertex 8.85375 0.420335 1.03528
      vertex 7.5029 0.356202 1.59545
    endloop
  endfacet
  facet normal 0.0474157 -0.998875 -1.95678e-05
    outer loop
      vertex 7.59868 0.36075 1.44491
      vertex 8.85375 0.420335 1.03528
      vertex 7.57593 0.359669 1.5
    endloop
  endfacet
  facet normal 0.0474223 -0.998875 9.40612e-07
    outer loop
      vertex 7.87475 0.373856 0.776457
      vertex 8.85375 0.420335 1.03528
      vertex 7.59868 0.36075 1.44491
    endloop
  endfacet
  facet normal 0.047425 -0.998875 -9.02166e-06
    outer loop
      vertex 7.8827 0.374234 0.71591
      vertex 8.85375 0.420335 1.03528
      vertex 7.87475 0.373856 0.776457
    endloop
  endfacet
  facet normal 0.0474219 -0.998875 1.8352e-07
    outer loop
      vertex 8.85375 0.420335 1.03528
      vertex 7.8827 0.374234 0.71591
      vertex 7.93357 0.376649 0.328398
    endloop
  endfacet
  facet normal 0.0474228 -0.998875 2.12746e-06
    outer loop
      vertex 8.42541 0.399999 0
      vertex 7.93357 0.376649 0.328398
      vertex 7.97668 0.378695 0
    endloop
  endfacet
  facet normal 0.0474217 -0.998875 4.90693e-07
    outer loop
      vertex 7.93357 0.376649 0.328398
      vertex 8.42541 0.399999 0
      vertex 8.85375 0.420335 1.03528
    endloop
  endfacet
  facet normal 0.0474209 -0.998875 8.14662e-07
    outer loop
      vertex 8.71761 0.413871 0
      vertex 8.85375 0.420335 1.03528
      vertex 8.42541 0.399999 0
    endloop
  endfacet
  facet normal 0.0474254 -0.998875 2.29046e-07
    outer loop
      vertex 8.9899 0.426799 0
      vertex 8.85375 0.420335 1.03528
      vertex 8.71761 0.413871 0
    endloop
  endfacet
  facet normal 0.107681 0.985681 0.129761
    outer loop
      vertex 1.91376 8.65466 1.03528
      vertex 1.99841e-15 9.00002 0
      vertex 1.96814e-15 8.86373 1.03528
    endloop
  endfacet
  facet normal 0.107674 0.98568 0.129774
    outer loop
      vertex 1.91376 8.65466 1.03528
      vertex 1.94318 8.78775 0
      vertex 1.99841e-15 9.00002 0
    endloop
  endfacet
  facet normal 0.100418 0.91921 0.380749
    outer loop
      vertex 1.82748 8.26449 2
      vertex 1.96814e-15 8.86373 1.03528
      vertex 1.87941e-15 8.46413 2
    endloop
  endfacet
  facet normal 0.10042 0.919211 0.380745
    outer loop
      vertex 1.82748 8.26449 2
      vertex 1.91376 8.65466 1.03528
      vertex 1.96814e-15 8.86373 1.03528
    endloop
  endfacet
  facet normal 0.0863418 0.790389 0.60649
    outer loop
      vertex 1.69023 7.64381 2.82843
      vertex 1.87941e-15 8.46413 2
      vertex 1.73827e-15 7.82845 2.82843
    endloop
  endfacet
  facet normal 0.086345 0.790392 0.606486
    outer loop
      vertex 1.69023 7.64381 2.82843
      vertex 1.82748 8.26449 2
      vertex 1.87941e-15 8.46413 2
    endloop
  endfacet
  facet normal 0.0663533 0.607416 0.791608
    outer loop
      vertex 1.51137 6.83492 3.4641
      vertex 1.73827e-15 7.82845 2.82843
      vertex 1.55432e-15 7.00002 3.4641
    endloop
  endfacet
  facet normal 0.0663539 0.607416 0.791608
    outer loop
      vertex 1.51137 6.83492 3.4641
      vertex 1.69023 7.64381 2.82843
      vertex 1.73827e-15 7.82845 2.82843
    endloop
  endfacet
  facet normal 0.0417686 0.382349 0.923073
    outer loop
      vertex 1.30307 5.89295 3.8637
      vertex 1.55432e-15 7.00002 3.4641
      vertex 1.34011e-15 6.0353 3.8637
    endloop
  endfacet
  facet normal 0.0417672 0.382348 0.923074
    outer loop
      vertex 1.30307 5.89295 3.8637
      vertex 1.51137 6.83492 3.4641
      vertex 1.55432e-15 7.00002 3.4641
    endloop
  endfacet
  facet normal 0.0142575 0.130516 0.991344
    outer loop
      vertex 1.07955 4.88209 4
      vertex 1.34011e-15 6.0353 3.8637
      vertex 1.11023e-15 5.00002 4
    endloop
  endfacet
  facet normal 0.0142578 0.130516 0.991344
    outer loop
      vertex 1.07955 4.88209 4
      vertex 1.30307 5.89295 3.8637
      vertex 1.34011e-15 6.0353 3.8637
    endloop
  endfacet
  facet normal -0.0142589 -0.130517 0.991344
    outer loop
      vertex 0.856023 3.87123 3.8637
      vertex 1.11023e-15 5.00002 4
      vertex 8.80351e-16 3.96475 3.8637
    endloop
  endfacet
  facet normal -0.0142575 -0.130516 0.991344
    outer loop
      vertex 0.856023 3.87123 3.8637
      vertex 1.07955 4.88209 4
      vertex 1.11023e-15 5.00002 4
    endloop
  endfacet
  facet normal -0.0417686 -0.382346 0.923075
    outer loop
      vertex 0.647731 2.92926 3.4641
      vertex 8.80351e-16 3.96475 3.8637
      vertex 6.66139e-16 3.00002 3.4641
    endloop
  endfacet
  facet normal -0.0417712 -0.382347 0.923074
    outer loop
      vertex 0.647731 2.92926 3.4641
      vertex 0.856023 3.87123 3.8637
      vertex 8.80351e-16 3.96475 3.8637
    endloop
  endfacet
  facet normal -0.066356 -0.60742 0.791604
    outer loop
      vertex 0.468866 2.12038 2.82843
      vertex 6.66139e-16 3.00002 3.4641
      vertex 4.82191e-16 2.1716 2.82843
    endloop
  endfacet
  facet normal -0.0663564 -0.60742 0.791604
    outer loop
      vertex 0.468866 2.12038 2.82843
      vertex 0.647731 2.92926 3.4641
      vertex 6.66139e-16 3.00002 3.4641
    endloop
  endfacet
  facet normal -0.0863517 -0.790388 0.60649
    outer loop
      vertex 0.331618 1.49969 2
      vertex 4.82191e-16 2.1716 2.82843
      vertex 3.41043e-16 1.53592 2
    endloop
  endfacet
  facet normal -0.0863437 -0.790387 0.606492
    outer loop
      vertex 0.331618 1.49969 2
      vertex 0.468866 2.12038 2.82843
      vertex 4.82191e-16 2.1716 2.82843
    endloop
  endfacet
  facet normal -0.100411 -0.91921 0.380749
    outer loop
      vertex 0.245341 1.10952 1.03528
      vertex 3.41043e-16 1.53592 2
      vertex 2.52314e-16 1.13632 1.03528
    endloop
  endfacet
  facet normal -0.100426 -0.91921 0.380745
    outer loop
      vertex 0.245341 1.10952 1.03528
      vertex 0.331618 1.49969 2
      vertex 3.41043e-16 1.53592 2
    endloop
  endfacet
  facet normal -0.10766 -0.985682 0.12977
    outer loop
      vertex 0.215914 0.976437 0
      vertex 2.52314e-16 1.13632 1.03528
      vertex 2.2205e-16 1.00002 0
    endloop
  endfacet
  facet normal -0.107672 -0.985681 0.129768
    outer loop
      vertex 0.215914 0.976437 0
      vertex 0.245341 1.10952 1.03528
      vertex 2.52314e-16 1.13632 1.03528
    endloop
  endfacet
  facet normal 0.317957 0.939182 0.129772
    outer loop
      vertex 3.73723 8.03733 1.03528
      vertex 1.94318 8.78775 0
      vertex 1.91376 8.65466 1.03528
    endloop
  endfacet
  facet normal 0.317959 0.939182 0.129768
    outer loop
      vertex 3.73723 8.03733 1.03528
      vertex 3.7947 8.16092 0
      vertex 1.94318 8.78775 0
    endloop
  endfacet
  facet normal 0.296515 0.875849 0.380746
    outer loop
      vertex 3.56875 7.67499 2
      vertex 1.91376 8.65466 1.03528
      vertex 1.82748 8.26449 2
    endloop
  endfacet
  facet normal 0.296516 0.875849 0.380745
    outer loop
      vertex 3.56875 7.67499 2
      vertex 3.73723 8.03733 1.03528
      vertex 1.91376 8.65466 1.03528
    endloop
  endfacet
  facet normal 0.254962 0.753106 0.606486
    outer loop
      vertex 3.30073 7.09858 2.82843
      vertex 1.82748 8.26449 2
      vertex 1.69023 7.64381 2.82843
    endloop
  endfacet
  facet normal 0.254961 0.753106 0.606487
    outer loop
      vertex 3.30073 7.09858 2.82843
      vertex 3.56875 7.67499 2
      vertex 1.82748 8.26449 2
    endloop
  endfacet
  facet normal 0.195938 0.578763 0.791607
    outer loop
      vertex 2.95144 6.34739 3.4641
      vertex 1.69023 7.64381 2.82843
      vertex 1.51137 6.83492 3.4641
    endloop
  endfacet
  facet normal 0.195939 0.578763 0.791607
    outer loop
      vertex 2.95144 6.34739 3.4641
      vertex 3.30073 7.09858 2.82843
      vertex 1.69023 7.64381 2.82843
    endloop
  endfacet
  facet normal 0.123335 0.364311 0.923074
    outer loop
      vertex 2.54468 5.47261 3.8637
      vertex 1.51137 6.83492 3.4641
      vertex 1.30307 5.89295 3.8637
    endloop
  endfacet
  facet normal 0.123336 0.364311 0.923074
    outer loop
      vertex 2.54468 5.47261 3.8637
      vertex 2.95144 6.34739 3.4641
      vertex 1.51137 6.83492 3.4641
    endloop
  endfacet
  facet normal 0.0421007 0.124359 0.991344
    outer loop
      vertex 2.10817 4.53386 4
      vertex 1.30307 5.89295 3.8637
      vertex 1.07955 4.88209 4
    endloop
  endfacet
  facet normal 0.0421012 0.12436 0.991344
    outer loop
      vertex 2.10817 4.53386 4
      vertex 2.54468 5.47261 3.8637
      vertex 1.30307 5.89295 3.8637
    endloop
  endfacet
  facet normal -0.0421006 -0.124359 0.991344
    outer loop
      vertex 1.67167 3.5951 3.8637
      vertex 1.07955 4.88209 4
      vertex 0.856023 3.87123 3.8637
    endloop
  endfacet
  facet normal -0.0421006 -0.124359 0.991344
    outer loop
      vertex 1.67167 3.5951 3.8637
      vertex 2.10817 4.53386 4
      vertex 1.07955 4.88209 4
    endloop
  endfacet
  facet normal -0.123334 -0.364312 0.923074
    outer loop
      vertex 1.26491 2.72032 3.4641
      vertex 0.856023 3.87123 3.8637
      vertex 0.647731 2.92926 3.4641
    endloop
  endfacet
  facet normal -0.123335 -0.364312 0.923074
    outer loop
      vertex 1.26491 2.72032 3.4641
      vertex 1.67167 3.5951 3.8637
      vertex 0.856023 3.87123 3.8637
    endloop
  endfacet
  facet normal -0.195945 -0.578765 0.791604
    outer loop
      vertex 0.915615 1.96913 2.82843
      vertex 0.647731 2.92926 3.4641
      vertex 0.468866 2.12038 2.82843
    endloop
  endfacet
  facet normal -0.195935 -0.578764 0.791607
    outer loop
      vertex 0.915615 1.96913 2.82843
      vertex 1.26491 2.72032 3.4641
      vertex 0.647731 2.92926 3.4641
    endloop
  endfacet
  facet normal -0.254955 -0.753104 0.606492
    outer loop
      vertex 0.647594 1.39272 2
      vertex 0.468866 2.12038 2.82843
      vertex 0.331618 1.49969 2
    endloop
  endfacet
  facet normal -0.254968 -0.753103 0.606488
    outer loop
      vertex 0.647594 1.39272 2
      vertex 0.915615 1.96913 2.82843
      vertex 0.468866 2.12038 2.82843
    endloop
  endfacet
  facet normal -0.296511 -0.875851 0.380745
    outer loop
      vertex 0.479109 1.03038 1.03528
      vertex 0.331618 1.49969 2
      vertex 0.245341 1.10952 1.03528
    endloop
  endfacet
  facet normal -0.296509 -0.875851 0.380746
    outer loop
      vertex 0.479109 1.03038 1.03528
      vertex 0.647594 1.39272 2
      vertex 0.331618 1.49969 2
    endloop
  endfacet
  facet normal -0.317959 -0.939182 0.129768
    outer loop
      vertex 0.421642 0.906788 0
      vertex 0.245341 1.10952 1.03528
      vertex 0.215914 0.976437 0
    endloop
  endfacet
  facet normal -0.317952 -0.939184 0.129769
    outer loop
      vertex 0.421642 0.906788 0
      vertex 0.479109 1.03038 1.03528
      vertex 0.245341 1.10952 1.03528
    endloop
  endfacet
  facet normal 0.513231 0.848383 0.129769
    outer loop
      vertex 5.38442 7.04086 1.03528
      vertex 3.7947 8.16092 0
      vertex 3.73723 8.03733 1.03528
    endloop
  endfacet
  facet normal 0.513232 0.848383 0.129767
    outer loop
      vertex 5.38442 7.04086 1.03528
      vertex 5.46721 7.14913 0
      vertex 3.7947 8.16092 0
    endloop
  endfacet
  facet normal 0.478625 0.791171 0.380744
    outer loop
      vertex 5.14167 6.72344 2
      vertex 3.73723 8.03733 1.03528
      vertex 3.56875 7.67499 2
    endloop
  endfacet
  facet normal 0.47862 0.791171 0.380751
    outer loop
      vertex 5.14167 6.72344 2
      vertex 5.38442 7.04086 1.03528
      vertex 3.73723 8.03733 1.03528
    endloop
  endfacet
  facet normal 0.411551 0.680294 0.606487
    outer loop
      vertex 4.75552 6.21849 2.82843
      vertex 3.56875 7.67499 2
      vertex 3.30073 7.09858 2.82843
    endloop
  endfacet
  facet normal 0.411549 0.680293 0.606489
    outer loop
      vertex 4.75552 6.21849 2.82843
      vertex 5.14167 6.72344 2
      vertex 3.56875 7.67499 2
    endloop
  endfacet
  facet normal 0.316276 0.522809 0.791607
    outer loop
      vertex 4.25228 5.56044 3.4641
      vertex 3.30073 7.09858 2.82843
      vertex 2.95144 6.34739 3.4641
    endloop
  endfacet
  facet normal 0.316279 0.52281 0.791604
    outer loop
      vertex 4.25228 5.56044 3.4641
      vertex 4.75552 6.21849 2.82843
      vertex 3.30073 7.09858 2.82843
    endloop
  endfacet
  facet normal 0.199086 0.329089 0.923074
    outer loop
      vertex 3.66624 4.79411 3.8637
      vertex 2.95144 6.34739 3.4641
      vertex 2.54468 5.47261 3.8637
    endloop
  endfacet
  facet normal 0.199083 0.329088 0.923075
    outer loop
      vertex 3.66624 4.79411 3.8637
      vertex 4.25228 5.56044 3.4641
      vertex 2.95144 6.34739 3.4641
    endloop
  endfacet
  facet normal 0.0679582 0.112336 0.991344
    outer loop
      vertex 3.03735 3.97175 4
      vertex 2.54468 5.47261 3.8637
      vertex 2.10817 4.53386 4
    endloop
  endfacet
  facet normal 0.0679593 0.112337 0.991344
    outer loop
      vertex 3.03735 3.97175 4
      vertex 3.66624 4.79411 3.8637
      vertex 2.54468 5.47261 3.8637
    endloop
  endfacet
  facet normal -0.0679583 -0.112336 0.991344
    outer loop
      vertex 2.40845 3.14938 3.8637
      vertex 2.10817 4.53386 4
      vertex 1.67167 3.5951 3.8637
    endloop
  endfacet
  facet normal -0.0679578 -0.112336 0.991344
    outer loop
      vertex 2.40845 3.14938 3.8637
      vertex 3.03735 3.97175 4
      vertex 2.10817 4.53386 4
    endloop
  endfacet
  facet normal -0.199088 -0.329088 0.923074
    outer loop
      vertex 1.82241 2.38305 3.4641
      vertex 1.67167 3.5951 3.8637
      vertex 1.26491 2.72032 3.4641
    endloop
  endfacet
  facet normal -0.199084 -0.329088 0.923075
    outer loop
      vertex 1.82241 2.38305 3.4641
      vertex 2.40845 3.14938 3.8637
      vertex 1.67167 3.5951 3.8637
    endloop
  endfacet
  facet normal -0.316272 -0.522809 0.791608
    outer loop
      vertex 1.31917 1.725 2.82843
      vertex 1.26491 2.72032 3.4641
      vertex 0.915615 1.96913 2.82843
    endloop
  endfacet
  facet normal -0.316282 -0.522808 0.791605
    outer loop
      vertex 1.31917 1.725 2.82843
      vertex 1.82241 2.38305 3.4641
      vertex 1.26491 2.72032 3.4641
    endloop
  endfacet
  facet normal -0.411547 -0.680296 0.606487
    outer loop
      vertex 0.933021 1.22005 2
      vertex 0.915615 1.96913 2.82843
      vertex 0.647594 1.39272 2
    endloop
  endfacet
  facet normal -0.411544 -0.680296 0.606488
    outer loop
      vertex 0.933021 1.22005 2
      vertex 1.31917 1.725 2.82843
      vertex 0.915615 1.96913 2.82843
    endloop
  endfacet
  facet normal -0.47863 -0.791167 0.380746
    outer loop
      vertex 0.690276 0.902631 1.03528
      vertex 0.647594 1.39272 2
      vertex 0.479109 1.03038 1.03528
    endloop
  endfacet
  facet normal -0.478622 -0.791171 0.380749
    outer loop
      vertex 0.690276 0.902631 1.03528
      vertex 0.933021 1.22005 2
      vertex 0.647594 1.39272 2
    endloop
  endfacet
  facet normal -0.513232 -0.848382 0.129769
    outer loop
      vertex 0.607481 0.794364 0
      vertex 0.479109 1.03038 1.03528
      vertex 0.421642 0.906788 0
    endloop
  endfacet
  facet normal -0.51324 -0.848378 0.129767
    outer loop
      vertex 0.607481 0.794364 0
      vertex 0.690276 0.902631 1.03528
      vertex 0.479109 1.03038 1.03528
    endloop
  endfacet
  facet normal 0.684302 0.717559 0.129765
    outer loop
      vertex 6.7776 5.71225 1.03528
      vertex 5.46721 7.14913 0
      vertex 5.38442 7.04086 1.03528
    endloop
  endfacet
  facet normal 0.6843 0.717561 0.12977
    outer loop
      vertex 6.7776 5.71225 1.03528
      vertex 6.88182 5.80009 0
      vertex 5.46721 7.14913 0
    endloop
  endfacet
  facet normal 0.638152 0.669171 0.380753
    outer loop
      vertex 6.47205 5.45473 2
      vertex 5.38442 7.04086 1.03528
      vertex 5.14167 6.72344 2
    endloop
  endfacet
  facet normal 0.638156 0.66917 0.380746
    outer loop
      vertex 6.47205 5.45473 2
      vertex 6.7776 5.71225 1.03528
      vertex 5.38442 7.04086 1.03528
    endloop
  endfacet
  facet normal 0.548723 0.575391 0.606488
    outer loop
      vertex 5.98598 5.04506 2.82843
      vertex 5.14167 6.72344 2
      vertex 4.75552 6.21849 2.82843
    endloop
  endfacet
  facet normal 0.548719 0.575391 0.606492
    outer loop
      vertex 5.98598 5.04506 2.82843
      vertex 6.47205 5.45473 2
      vertex 5.14167 6.72344 2
    endloop
  endfacet
  facet normal 0.421698 0.442191 0.791605
    outer loop
      vertex 5.35253 4.51118 3.4641
      vertex 4.75552 6.21849 2.82843
      vertex 4.25228 5.56044 3.4641
    endloop
  endfacet
  facet normal 0.421696 0.442191 0.791606
    outer loop
      vertex 5.35253 4.51118 3.4641
      vertex 5.98598 5.04506 2.82843
      vertex 4.75552 6.21849 2.82843
    endloop
  endfacet
  facet normal 0.265441 0.278342 0.923075
    outer loop
      vertex 4.61486 3.88946 3.8637
      vertex 4.25228 5.56044 3.4641
      vertex 3.66624 4.79411 3.8637
    endloop
  endfacet
  facet normal 0.265443 0.278342 0.923074
    outer loop
      vertex 4.61486 3.88946 3.8637
      vertex 5.35253 4.51118 3.4641
      vertex 4.25228 5.56044 3.4641
    endloop
  endfacet
  facet normal 0.0906109 0.0950141 0.991344
    outer loop
      vertex 3.82324 3.22228 4
      vertex 3.66624 4.79411 3.8637
      vertex 3.03735 3.97175 4
    endloop
  endfacet
  facet normal 0.09061 0.095014 0.991344
    outer loop
      vertex 3.82324 3.22228 4
      vertex 4.61486 3.88946 3.8637
      vertex 3.66624 4.79411 3.8637
    endloop
  endfacet
  facet normal -0.0906096 -0.0950129 0.991344
    outer loop
      vertex 3.03162 2.55509 3.8637
      vertex 3.03735 3.97175 4
      vertex 2.40845 3.14938 3.8637
    endloop
  endfacet
  facet normal -0.0906098 -0.0950129 0.991344
    outer loop
      vertex 3.82324 3.22228 4
      vertex 3.03735 3.97175 4
      vertex 3.03162 2.55509 3.8637
    endloop
  endfacet
  facet normal -0.265439 -0.278343 0.923075
    outer loop
      vertex 2.29395 1.93337 3.4641
      vertex 2.40845 3.14938 3.8637
      vertex 1.82241 2.38305 3.4641
    endloop
  endfacet
  facet normal -0.265443 -0.278342 0.923074
    outer loop
      vertex 3.03162 2.55509 3.8637
      vertex 2.40845 3.14938 3.8637
      vertex 2.29395 1.93337 3.4641
    endloop
  endfacet
  facet normal -0.421697 -0.442192 0.791605
    outer loop
      vertex 1.6605 1.39949 2.82843
      vertex 1.82241 2.38305 3.4641
      vertex 1.31917 1.725 2.82843
    endloop
  endfacet
  facet normal -0.421694 -0.442193 0.791606
    outer loop
      vertex 2.29395 1.93337 3.4641
      vertex 1.82241 2.38305 3.4641
      vertex 1.6605 1.39949 2.82843
    endloop
  endfacet
  facet normal -0.548726 -0.575389 0.606488
    outer loop
      vertex 1.17443 0.989828 2
      vertex 1.31917 1.725 2.82843
      vertex 0.933021 1.22005 2
    endloop
  endfacet
  facet normal -0.548723 -0.575391 0.606489
    outer loop
      vertex 1.6605 1.39949 2.82843
      vertex 1.31917 1.725 2.82843
      vertex 1.17443 0.989828 2
    endloop
  endfacet
  facet normal -0.638153 -0.669172 0.380749
    outer loop
      vertex 0.868881 0.732305 1.03528
      vertex 0.933021 1.22005 2
      vertex 0.690276 0.902631 1.03528
    endloop
  endfacet
  facet normal -0.638158 -0.669168 0.380747
    outer loop
      vertex 1.17443 0.989828 2
      vertex 0.933021 1.22005 2
      vertex 0.868881 0.732305 1.03528
    endloop
  endfacet
  facet normal -0.684302 -0.717559 0.129767
    outer loop
      vertex 0.764663 0.644467 0
      vertex 0.690276 0.902631 1.03528
      vertex 0.607481 0.794364 0
    endloop
  endfacet
  facet normal -0.6843 -0.717561 0.129767
    outer loop
      vertex 0.764663 0.644467 0
      vertex 0.868881 0.732305 1.03528
      vertex 0.690276 0.902631 1.03528
    endloop
  endfacet
  facet normal 0.823089 0.552888 0.12977
    outer loop
      vertex 7.85106 4.11418 1.03528
      vertex 6.88182 5.80009 0
      vertex 6.7776 5.71225 1.03528
    endloop
  endfacet
  facet normal 0.823089 0.552887 0.129769
    outer loop
      vertex 7.85106 4.11418 1.03528
      vertex 7.97179 4.17744 0
      vertex 6.88182 5.80009 0
    endloop
  endfacet
  facet normal 0.767584 0.515604 0.380746
    outer loop
      vertex 7.49712 3.9287 2
      vertex 6.7776 5.71225 1.03528
      vertex 6.47205 5.45473 2
    endloop
  endfacet
  facet normal 0.767584 0.515604 0.380746
    outer loop
      vertex 7.49712 3.9287 2
      vertex 7.85106 4.11418 1.03528
      vertex 6.7776 5.71225 1.03528
    endloop
  endfacet
  facet normal 0.660009 0.443346 0.606492
    outer loop
      vertex 6.93407 3.63364 2.82843
      vertex 6.47205 5.45473 2
      vertex 5.98598 5.04506 2.82843
    endloop
  endfacet
  facet normal 0.660012 0.443346 0.606489
    outer loop
      vertex 6.93407 3.63364 2.82843
      vertex 7.49712 3.9287 2
      vertex 6.47205 5.45473 2
    endloop
  endfacet
  facet normal 0.507222 0.340714 0.791606
    outer loop
      vertex 6.20029 3.24912 3.4641
      vertex 5.98598 5.04506 2.82843
      vertex 5.35253 4.51118 3.4641
    endloop
  endfacet
  facet normal 0.507221 0.340715 0.791606
    outer loop
      vertex 6.20029 3.24912 3.4641
      vertex 6.93407 3.63364 2.82843
      vertex 5.98598 5.04506 2.82843
    endloop
  endfacet
  facet normal 0.319278 0.214468 0.923074
    outer loop
      vertex 5.34578 2.80134 3.8637
      vertex 5.35253 4.51118 3.4641
      vertex 4.61486 3.88946 3.8637
    endloop
  endfacet
  facet normal 0.319278 0.214468 0.923074
    outer loop
      vertex 6.20029 3.24912 3.4641
      vertex 5.35253 4.51118 3.4641
      vertex 5.34578 2.80134 3.8637
    endloop
  endfacet
  facet normal 0.108987 0.0732088 0.991344
    outer loop
      vertex 4.42878 2.3208 4
      vertex 4.61486 3.88946 3.8637
      vertex 3.82324 3.22228 4
    endloop
  endfacet
  facet normal 0.108986 0.073209 0.991344
    outer loop
      vertex 5.34578 2.80134 3.8637
      vertex 4.61486 3.88946 3.8637
      vertex 4.42878 2.3208 4
    endloop
  endfacet
  facet normal -0.108987 -0.0732087 0.991344
    outer loop
      vertex 3.51178 1.84027 3.8637
      vertex 3.82324 3.22228 4
      vertex 3.03162 2.55509 3.8637
    endloop
  endfacet
  facet normal -0.108987 -0.0732086 0.991344
    outer loop
      vertex 4.42878 2.3208 4
      vertex 3.82324 3.22228 4
      vertex 3.51178 1.84027 3.8637
    endloop
  endfacet
  facet normal -0.319276 -0.21447 0.923074
    outer loop
      vertex 2.65728 1.39249 3.4641
      vertex 3.03162 2.55509 3.8637
      vertex 2.29395 1.93337 3.4641
    endloop
  endfacet
  facet normal -0.319281 -0.214468 0.923073
    outer loop
      vertex 3.51178 1.84027 3.8637
      vertex 3.03162 2.55509 3.8637
      vertex 2.65728 1.39249 3.4641
    endloop
  endfacet
  facet normal -0.507218 -0.340719 0.791606
    outer loop
      vertex 1.9235 1.00797 2.82843
      vertex 2.29395 1.93337 3.4641
      vertex 1.6605 1.39949 2.82843
    endloop
  endfacet
  facet normal -0.507219 -0.340719 0.791606
    outer loop
      vertex 2.65728 1.39249 3.4641
      vertex 2.29395 1.93337 3.4641
      vertex 1.9235 1.00797 2.82843
    endloop
  endfacet
  facet normal -0.660001 -0.44336 0.60649
    outer loop
      vertex 1.36045 0.712912 2
      vertex 1.6605 1.39949 2.82843
      vertex 1.17443 0.989828 2
    endloop
  endfacet
  facet normal -0.660008 -0.443354 0.606488
    outer loop
      vertex 1.9235 1.00797 2.82843
      vertex 1.6605 1.39949 2.82843
      vertex 1.36045 0.712912 2
    endloop
  endfacet
  facet normal -0.767582 -0.515606 0.380747
    outer loop
      vertex 1.0065 0.527432 1.03528
      vertex 1.17443 0.989828 2
      vertex 0.868881 0.732305 1.03528
    endloop
  endfacet
  facet normal -0.76757 -0.51562 0.380752
    outer loop
      vertex 1.36045 0.712912 2
      vertex 1.17443 0.989828 2
      vertex 1.0065 0.527432 1.03528
    endloop
  endfacet
  facet normal -0.823088 -0.552889 0.129767
    outer loop
      vertex 0.885773 0.46417 0
      vertex 0.868881 0.732305 1.03528
      vertex 0.764663 0.644467 0
    endloop
  endfacet
  facet normal -0.823087 -0.552891 0.129768
    outer loop
      vertex 0.885773 0.46417 0
      vertex 1.0065 0.527432 1.03528
      vertex 0.868881 0.732305 1.03528
    endloop
  endfacet
  facet normal 0.923048 0.362135 0.12977
    outer loop
      vertex 8.55417 2.32202 1.03528
      vertex 7.97179 4.17744 0
      vertex 7.85106 4.11418 1.03528
    endloop
  endfacet
  facet normal 0.923048 0.362136 0.129771
    outer loop
      vertex 8.55417 2.32202 1.03528
      vertex 8.68571 2.35773 0
      vertex 7.97179 4.17744 0
    endloop
  endfacet
  facet normal 0.860803 0.337715 0.380745
    outer loop
      vertex 8.16853 2.21734 2
      vertex 7.85106 4.11418 1.03528
      vertex 7.49712 3.9287 2
    endloop
  endfacet
  facet normal 0.860803 0.337715 0.380745
    outer loop
      vertex 8.16853 2.21734 2
      vertex 8.55417 2.32202 1.03528
      vertex 7.85106 4.11418 1.03528
    endloop
  endfacet
  facet normal 0.740168 0.290385 0.606488
    outer loop
      vertex 7.55505 2.05081 2.82843
      vertex 7.49712 3.9287 2
      vertex 6.93407 3.63364 2.82843
    endloop
  endfacet
  facet normal 0.740166 0.290386 0.60649
    outer loop
      vertex 7.55505 2.05081 2.82843
      vertex 8.16853 2.21734 2
      vertex 7.49712 3.9287 2
    endloop
  endfacet
  facet normal 0.568821 0.223163 0.791606
    outer loop
      vertex 6.75556 1.83379 3.4641
      vertex 6.93407 3.63364 2.82843
      vertex 6.20029 3.24912 3.4641
    endloop
  endfacet
  facet normal 0.568824 0.223162 0.791605
    outer loop
      vertex 7.55505 2.05081 2.82843
      vertex 6.93407 3.63364 2.82843
      vertex 6.75556 1.83379 3.4641
    endloop
  endfacet
  facet normal 0.358053 0.140471 0.923074
    outer loop
      vertex 5.82452 1.58106 3.8637
      vertex 6.20029 3.24912 3.4641
      vertex 5.34578 2.80134 3.8637
    endloop
  endfacet
  facet normal 0.35805 0.140472 0.923075
    outer loop
      vertex 6.75556 1.83379 3.4641
      vertex 6.20029 3.24912 3.4641
      vertex 5.82452 1.58106 3.8637
    endloop
  endfacet
  facet normal 0.122222 0.0479508 0.991344
    outer loop
      vertex 4.8254 1.30985 4
      vertex 5.34578 2.80134 3.8637
      vertex 4.42878 2.3208 4
    endloop
  endfacet
  facet normal 0.122223 0.0479505 0.991344
    outer loop
      vertex 5.82452 1.58106 3.8637
      vertex 5.34578 2.80134 3.8637
      vertex 4.8254 1.30985 4
    endloop
  endfacet
  facet normal -0.122223 -0.0479511 0.991344
    outer loop
      vertex 3.82628 1.03864 3.8637
      vertex 4.42878 2.3208 4
      vertex 3.51178 1.84027 3.8637
    endloop
  endfacet
  facet normal -0.122223 -0.047951 0.991344
    outer loop
      vertex 4.8254 1.30985 4
      vertex 4.42878 2.3208 4
      vertex 3.82628 1.03864 3.8637
    endloop
  endfacet
  facet normal -0.358057 -0.140471 0.923073
    outer loop
      vertex 2.89525 0.785913 3.4641
      vertex 3.51178 1.84027 3.8637
      vertex 2.65728 1.39249 3.4641
    endloop
  endfacet
  facet normal -0.358054 -0.140474 0.923074
    outer loop
      vertex 3.82628 1.03864 3.8637
      vertex 3.51178 1.84027 3.8637
      vertex 2.89525 0.785913 3.4641
    endloop
  endfacet
  facet normal -0.568822 -0.223161 0.791606
    outer loop
      vertex 2.09576 0.568892 2.82843
      vertex 2.65728 1.39249 3.4641
      vertex 1.9235 1.00797 2.82843
    endloop
  endfacet
  facet normal -0.568824 -0.223159 0.791605
    outer loop
      vertex 2.89525 0.785913 3.4641
      vertex 2.65728 1.39249 3.4641
      vertex 2.09576 0.568892 2.82843
    endloop
  endfacet
  facet normal -0.740173 -0.290375 0.606487
    outer loop
      vertex 1.48228 0.402364 2
      vertex 1.9235 1.00797 2.82843
      vertex 1.36045 0.712912 2
    endloop
  endfacet
  facet normal -0.740167 -0.290384 0.60649
    outer loop
      vertex 2.09576 0.568892 2.82843
      vertex 1.9235 1.00797 2.82843
      vertex 1.48228 0.402364 2
    endloop
  endfacet
  facet normal -0.860796 -0.337723 0.380753
    outer loop
      vertex 1.09664 0.297681 1.03528
      vertex 1.36045 0.712912 2
      vertex 1.0065 0.527432 1.03528
    endloop
  endfacet
  facet normal -0.860808 -0.337701 0.380746
    outer loop
      vertex 1.48228 0.402364 2
      vertex 1.36045 0.712912 2
      vertex 1.09664 0.297681 1.03528
    endloop
  endfacet
  facet normal -0.923049 -0.362134 0.129768
    outer loop
      vertex 0.965099 0.261975 0
      vertex 1.0065 0.527432 1.03528
      vertex 0.885773 0.46417 0
    endloop
  endfacet
  facet normal -0.923044 -0.362145 0.129771
    outer loop
      vertex 1.09664 0.297681 1.03528
      vertex 1.0065 0.527432 1.03528
      vertex 0.965099 0.261975 0
    endloop
  endfacet
  facet normal 0.979465 0.154299 0.129771
    outer loop
      vertex 8.85375 0.420335 1.03528
      vertex 8.68571 2.35773 0
      vertex 8.55417 2.32202 1.03528
    endloop
  endfacet
  facet normal 0.979464 0.1543 0.129773
    outer loop
      vertex 8.85375 0.420335 1.03528
      vertex 8.9899 0.426799 0
      vertex 8.68571 2.35773 0
    endloop
  endfacet
  facet normal 0.913416 0.143892 0.380745
    outer loop
      vertex 8.4546 0.401385 2
      vertex 8.55417 2.32202 1.03528
      vertex 8.16853 2.21734 2
    endloop
  endfacet
  facet normal 0.913414 0.143894 0.380749
    outer loop
      vertex 8.85375 0.420335 1.03528
      vertex 8.55417 2.32202 1.03528
      vertex 8.4546 0.401385 2
    endloop
  endfacet
  facet normal 0.785405 0.123728 0.60649
    outer loop
      vertex 7.81964 0.371241 2.82843
      vertex 8.16853 2.21734 2
      vertex 7.55505 2.05081 2.82843
    endloop
  endfacet
  facet normal 0.785408 0.123726 0.606487
    outer loop
      vertex 8.4546 0.401385 2
      vertex 8.16853 2.21734 2
      vertex 7.81964 0.371241 2.82843
    endloop
  endfacet
  facet normal 0.60359 0.0950859 0.791605
    outer loop
      vertex 6.99215 0.331955 3.4641
      vertex 7.55505 2.05081 2.82843
      vertex 6.75556 1.83379 3.4641
    endloop
  endfacet
  facet normal 0.603589 0.0950861 0.791605
    outer loop
      vertex 7.81964 0.371241 2.82843
      vertex 7.55505 2.05081 2.82843
      vertex 6.99215 0.331955 3.4641
    endloop
  endfacet
  facet normal 0.379934 0.0598544 0.923075
    outer loop
      vertex 6.02851 0.286205 3.8637
      vertex 6.75556 1.83379 3.4641
      vertex 5.82452 1.58106 3.8637
    endloop
  endfacet
  facet normal 0.379937 0.0598529 0.923074
    outer loop
      vertex 6.99215 0.331955 3.4641
      vertex 6.75556 1.83379 3.4641
      vertex 6.02851 0.286205 3.8637
    endloop
  endfacet
  facet normal 0.129693 0.0204319 0.991344
    outer loop
      vertex 4.9944 0.237111 4
      vertex 5.82452 1.58106 3.8637
      vertex 4.8254 1.30985 4
    endloop
  endfacet
  facet normal 0.129693 0.0204317 0.991344
    outer loop
      vertex 6.02851 0.286205 3.8637
      vertex 5.82452 1.58106 3.8637
      vertex 4.9944 0.237111 4
    endloop
  endfacet
  facet normal -0.129693 -0.0204322 0.991344
    outer loop
      vertex 3.96029 0.188016 3.8637
      vertex 4.8254 1.30985 4
      vertex 3.82628 1.03864 3.8637
    endloop
  endfacet
  facet normal -0.129693 -0.020432 0.991344
    outer loop
      vertex 4.9944 0.237111 4
      vertex 4.8254 1.30985 4
      vertex 3.96029 0.188016 3.8637
    endloop
  endfacet
  facet normal -0.379937 -0.0598553 0.923074
    outer loop
      vertex 2.99665 0.142266 3.4641
      vertex 3.82628 1.03864 3.8637
      vertex 2.89525 0.785913 3.4641
    endloop
  endfacet
  facet normal -0.379936 -0.0598564 0.923074
    outer loop
      vertex 3.96029 0.188016 3.8637
      vertex 3.82628 1.03864 3.8637
      vertex 2.99665 0.142266 3.4641
    endloop
  endfacet
  facet normal -0.603592 -0.0950773 0.791604
    outer loop
      vertex 2.16915 0.102981 2.82843
      vertex 2.89525 0.785913 3.4641
      vertex 2.09576 0.568892 2.82843
    endloop
  endfacet
  facet normal -0.603585 -0.0950886 0.791608
    outer loop
      vertex 2.99665 0.142266 3.4641
      vertex 2.89525 0.785913 3.4641
      vertex 2.16915 0.102981 2.82843
    endloop
  endfacet
  facet normal -0.785406 -0.123724 0.60649
    outer loop
      vertex 1.53419 0.0728359 2
      vertex 2.09576 0.568892 2.82843
      vertex 1.48228 0.402364 2
    endloop
  endfacet
  facet normal -0.785409 -0.123717 0.606488
    outer loop
      vertex 2.16915 0.102981 2.82843
      vertex 2.09576 0.568892 2.82843
      vertex 1.53419 0.0728359 2
    endloop
  endfacet
  facet normal -0.913419 -0.143872 0.380745
    outer loop
      vertex 1.13504 0.0538864 1.03528
      vertex 1.48228 0.402364 2
      vertex 1.09664 0.297681 1.03528
    endloop
  endfacet
  facet normal -0.913415 -0.143889 0.380749
    outer loop
      vertex 1.53419 0.0728359 2
      vertex 1.48228 0.402364 2
      vertex 1.13504 0.0538864 1.03528
    endloop
  endfacet
  facet normal -0.979464 -0.154302 0.129771
    outer loop
      vertex 0.998899 0.0474224 0
      vertex 1.09664 0.297681 1.03528
      vertex 0.965099 0.261975 0
    endloop
  endfacet
  facet normal -0.979469 -0.154276 0.129765
    outer loop
      vertex 1.13504 0.0538864 1.03528
      vertex 1.09664 0.297681 1.03528
      vertex 0.998899 0.0474224 0
    endloop
  endfacet
  facet normal -0.0929178 -0.987184 -0.129744
    outer loop
      vertex 1.60894 7.73218 0.776457
      vertex 1.75052e-15 7.88362 0.776457
      vertex 1.77136e-15 7.97752 0.0619986
    endloop
  endfacet
  facet normal -0.0929196 -0.987201 -0.129613
    outer loop
      vertex 1.62976 7.83226 0
      vertex 1.77136e-15 7.97752 0.0619986
      vertex 1.77317e-15 7.98566 0
    endloop
  endfacet
  facet normal -0.0929228 -0.987185 -0.129733
    outer loop
      vertex 1.77136e-15 7.97752 0.0619986
      vertex 1.62976 7.83226 0
      vertex 1.60894 7.73218 0.776457
    endloop
  endfacet
  facet normal -0.0866593 -0.920647 -0.380657
    outer loop
      vertex 1.54788 7.43876 1.5
      vertex 1.68409e-15 7.58446 1.5
      vertex 1.74508e-15 7.85916 0.835618
    endloop
  endfacet
  facet normal -0.0866556 -0.920653 -0.380642
    outer loop
      vertex 1.60894 7.73218 0.776457
      vertex 1.74508e-15 7.85916 0.835618
      vertex 1.75052e-15 7.88362 0.776457
    endloop
  endfacet
  facet normal -0.0866557 -0.920644 -0.380664
    outer loop
      vertex 1.74508e-15 7.85916 0.835618
      vertex 1.60894 7.73218 0.776457
      vertex 1.54788 7.43876 1.5
    endloop
  endfacet
  facet normal -0.0745201 -0.791672 -0.606384
    outer loop
      vertex 1.45076 6.972 2.12132
      vertex 1.57842e-15 7.10856 2.12132
      vertex 1.67524e-15 7.54461 1.55203
    endloop
  endfacet
  facet normal -0.0745209 -0.791691 -0.60636
    outer loop
      vertex 1.54788 7.43876 1.5
      vertex 1.67524e-15 7.54461 1.55203
      vertex 1.68409e-15 7.58446 1.5
    endloop
  endfacet
  facet normal -0.0745204 -0.791672 -0.606384
    outer loop
      vertex 1.67524e-15 7.54461 1.55203
      vertex 1.54788 7.43876 1.5
      vertex 1.45076 6.972 2.12132
    endloop
  endfacet
  facet normal -0.0572763 -0.608457 -0.791517
    outer loop
      vertex 1.32418 6.36371 2.59808
      vertex 1.4407e-15 6.48836 2.59808
      vertex 1.5666e-15 7.05534 2.16223
    endloop
  endfacet
  facet normal -0.0572731 -0.608453 -0.791521
    outer loop
      vertex 1.5666e-15 7.05534 2.16223
      vertex 1.45076 6.972 2.12132
      vertex 1.32418 6.36371 2.59808
    endloop
  endfacet
  facet normal -0.0572728 -0.608444 -0.791527
    outer loop
      vertex 1.45076 6.972 2.12132
      vertex 1.5666e-15 7.05534 2.16223
      vertex 1.57842e-15 7.10856 2.12132
    endloop
  endfacet
  facet normal -0.0360537 -0.383022 -0.923035
    outer loop
      vertex 1.17678 5.65534 2.89778
      vertex 1.28033e-15 5.76611 2.89778
      vertex 1.4266e-15 6.42485 2.62443
    endloop
  endfacet
  facet normal -0.0360524 -0.38302 -0.923036
    outer loop
      vertex 1.4266e-15 6.42485 2.62443
      vertex 1.32418 6.36371 2.59808
      vertex 1.17678 5.65534 2.89778
    endloop
  endfacet
  facet normal -0.0360506 -0.382972 -0.923056
    outer loop
      vertex 1.32418 6.36371 2.59808
      vertex 1.4266e-15 6.42485 2.62443
      vertex 1.4407e-15 6.48836 2.59808
    endloop
  endfacet
  facet normal -0.0123076 -0.130752 -0.991339
    outer loop
      vertex 1.0186 4.89517 3
      vertex 1.10824e-15 4.99105 3
      vertex 1.26484e-15 5.69631 2.90698
    endloop
  endfacet
  facet normal -0.0123022 -0.130745 -0.99134
    outer loop
      vertex 1.26484e-15 5.69631 2.90698
      vertex 1.17678 5.65534 2.89778
      vertex 1.0186 4.89517 3
    endloop
  endfacet
  facet normal -0.0122995 -0.130665 -0.99135
    outer loop
      vertex 1.17678 5.65534 2.89778
      vertex 1.26484e-15 5.69631 2.90698
      vertex 1.28033e-15 5.76611 2.89778
    endloop
  endfacet
  facet normal 0.0123054 0.130746 -0.991339
    outer loop
      vertex 0.860423 4.135 2.89778
      vertex 9.36137e-16 4.21598 2.89778
      vertex 1.09239e-15 4.91968 2.99059
    endloop
  endfacet
  facet normal 0.0123042 0.130745 -0.99134
    outer loop
      vertex 1.09239e-15 4.91968 2.99059
      vertex 1.0186 4.89517 3
      vertex 0.860423 4.135 2.89778
    endloop
  endfacet
  facet normal 0.0123033 0.130707 -0.991345
    outer loop
      vertex 1.0186 4.89517 3
      vertex 1.09239e-15 4.91968 2.99059
      vertex 1.10824e-15 4.99105 3
    endloop
  endfacet
  facet normal 0.0360497 0.383017 -0.923037
    outer loop
      vertex 0.713023 3.42663 2.59808
      vertex 7.75766e-16 3.49374 2.59808
      vertex 9.21111e-16 4.14832 2.8697
    endloop
  endfacet
  facet normal 0.0360528 0.38302 -0.923036
    outer loop
      vertex 9.21111e-16 4.14832 2.8697
      vertex 0.860423 4.135 2.89778
      vertex 0.713023 3.42663 2.59808
    endloop
  endfacet
  facet normal 0.0360529 0.383067 -0.923017
    outer loop
      vertex 0.860423 4.135 2.89778
      vertex 9.21111e-16 4.14832 2.8697
      vertex 9.36137e-16 4.21598 2.89778
    endloop
  endfacet
  facet normal 0.057281 0.608447 -0.791525
    outer loop
      vertex 0.586448 2.81833 2.12132
      vertex 6.38053e-16 2.87354 2.12132
      vertex 7.62775e-16 3.43524 2.5531
    endloop
  endfacet
  facet normal 0.0572794 0.608446 -0.791526
    outer loop
      vertex 7.62775e-16 3.43524 2.5531
      vertex 0.713023 3.42663 2.59808
      vertex 0.586448 2.81833 2.12132
    endloop
  endfacet
  facet normal 0.057276 0.60854 -0.791454
    outer loop
      vertex 0.713023 3.42663 2.59808
      vertex 7.62775e-16 3.43524 2.5531
      vertex 7.75766e-16 3.49374 2.59808
    endloop
  endfacet
  facet normal 0.0745208 0.79168 -0.606374
    outer loop
      vertex 0.489324 2.35158 1.5
      vertex 5.32382e-16 2.39764 1.5
      vertex 6.28214e-16 2.82922 2.06347
    endloop
  endfacet
  facet normal 0.0745245 0.791609 -0.606467
    outer loop
      vertex 0.586448 2.81833 2.12132
      vertex 6.28214e-16 2.82922 2.06347
      vertex 6.38053e-16 2.87354 2.12132
    endloop
  endfacet
  facet normal 0.0745168 0.791679 -0.606376
    outer loop
      vertex 6.28214e-16 2.82922 2.06347
      vertex 0.586448 2.81833 2.12132
      vertex 0.489324 2.35158 1.5
    endloop
  endfacet
  facet normal 0.0866543 0.920646 -0.380659
    outer loop
      vertex 0.428268 2.05816 0.776457
      vertex 4.65954e-16 2.09847 0.776457
      vertex 5.2646e-16 2.37096 1.43549
    endloop
  endfacet
  facet normal 0.0866569 0.92061 -0.380745
    outer loop
      vertex 0.489324 2.35158 1.5
      vertex 5.2646e-16 2.37096 1.43549
      vertex 5.32382e-16 2.39764 1.5
    endloop
  endfacet
  facet normal 0.0866475 0.920645 -0.380663
    outer loop
      vertex 5.2646e-16 2.37096 1.43549
      vertex 0.489324 2.35158 1.5
      vertex 0.428268 2.05816 0.776457
    endloop
  endfacet
  facet normal 0.0929173 0.987186 -0.129733
    outer loop
      vertex 0.407444 1.95808 0
      vertex 4.43297e-16 1.99643 0
      vertex 4.64083e-16 2.09004 0.712315
    endloop
  endfacet
  facet normal 0.0929171 0.987184 -0.129743
    outer loop
      vertex 0.428268 2.05816 0.776457
      vertex 4.64083e-16 2.09004 0.712315
      vertex 4.65954e-16 2.09847 0.776457
    endloop
  endfacet
  facet normal 0.0929158 0.987186 -0.129733
    outer loop
      vertex 4.64083e-16 2.09004 0.712315
      vertex 0.428268 2.05816 0.776457
      vertex 0.407444 1.95808 0
    endloop
  endfacet
  facet normal -0.308577 -0.942311 -0.129732
    outer loop
      vertex 3.27631 7.18617 0.776457
      vertex 1.60894 7.73218 0.776457
      vertex 1.62976 7.83226 0
    endloop
  endfacet
  facet normal -0.308578 -0.942311 -0.129728
    outer loop
      vertex 3.27631 7.18617 0.776457
      vertex 1.62976 7.83226 0
      vertex 3.31871 7.27918 0
    endloop
  endfacet
  facet normal -0.287771 -0.878796 -0.380665
    outer loop
      vertex 3.15198 6.91348 1.5
      vertex 1.54788 7.43876 1.5
      vertex 1.60894 7.73218 0.776457
    endloop
  endfacet
  facet normal -0.287778 -0.878798 -0.380653
    outer loop
      vertex 3.15198 6.91348 1.5
      vertex 1.60894 7.73218 0.776457
      vertex 3.27631 7.18617 0.776457
    endloop
  endfacet
  facet normal -0.247459 -0.755687 -0.606383
    outer loop
      vertex 2.9542 6.47968 2.12132
      vertex 1.45076 6.972 2.12132
      vertex 1.54788 7.43876 1.5
    endloop
  endfacet
  facet normal -0.247458 -0.755687 -0.606385
    outer loop
      vertex 2.9542 6.47968 2.12132
      vertex 1.54788 7.43876 1.5
      vertex 3.15198 6.91348 1.5
    endloop
  endfacet
  facet normal -0.190188 -0.580795 -0.791521
    outer loop
      vertex 2.69646 5.91434 2.59808
      vertex 1.32418 6.36371 2.59808
      vertex 1.45076 6.972 2.12132
    endloop
  endfacet
  facet normal -0.190188 -0.580795 -0.791521
    outer loop
      vertex 2.69646 5.91434 2.59808
      vertex 1.45076 6.972 2.12132
      vertex 2.9542 6.47968 2.12132
    endloop
  endfacet
  facet normal -0.119724 -0.365609 -0.923036
    outer loop
      vertex 2.3963 5.25599 2.89778
      vertex 1.17678 5.65534 2.89778
      vertex 1.32418 6.36371 2.59808
    endloop
  endfacet
  facet normal -0.119723 -0.365608 -0.923037
    outer loop
      vertex 2.3963 5.25599 2.89778
      vertex 1.32418 6.36371 2.59808
      vertex 2.69646 5.91434 2.59808
    endloop
  endfacet
  facet normal -0.0408678 -0.124801 -0.99134
    outer loop
      vertex 2.0742 4.5495 3
      vertex 1.0186 4.89517 3
      vertex 1.17678 5.65534 2.89778
    endloop
  endfacet
  facet normal -0.0408682 -0.124802 -0.99134
    outer loop
      vertex 2.0742 4.5495 3
      vertex 1.17678 5.65534 2.89778
      vertex 2.3963 5.25599 2.89778
    endloop
  endfacet
  facet normal 0.040869 0.124801 -0.99134
    outer loop
      vertex 1.7521 3.843 2.89778
      vertex 0.860423 4.135 2.89778
      vertex 1.0186 4.89517 3
    endloop
  endfacet
  facet normal 0.0408675 0.1248 -0.99134
    outer loop
      vertex 1.7521 3.843 2.89778
      vertex 1.0186 4.89517 3
      vertex 2.0742 4.5495 3
    endloop
  endfacet
  facet normal 0.119724 0.365609 -0.923036
    outer loop
      vertex 1.45194 3.18466 2.59808
      vertex 0.713023 3.42663 2.59808
      vertex 0.860423 4.135 2.89778
    endloop
  endfacet
  facet normal 0.119728 0.365611 -0.923035
    outer loop
      vertex 1.45194 3.18466 2.59808
      vertex 0.860423 4.135 2.89778
      vertex 1.7521 3.843 2.89778
    endloop
  endfacet
  facet normal 0.190185 0.580791 -0.791525
    outer loop
      vertex 1.19419 2.61932 2.12132
      vertex 0.586448 2.81833 2.12132
      vertex 0.713023 3.42663 2.59808
    endloop
  endfacet
  facet normal 0.19019 0.580792 -0.791523
    outer loop
      vertex 1.19419 2.61932 2.12132
      vertex 0.713023 3.42663 2.59808
      vertex 1.45194 3.18466 2.59808
    endloop
  endfacet
  facet normal 0.247468 0.75569 -0.606376
    outer loop
      vertex 0.996419 2.18552 1.5
      vertex 0.489324 2.35158 1.5
      vertex 0.586448 2.81833 2.12132
    endloop
  endfacet
  facet normal 0.247456 0.755689 -0.606382
    outer loop
      vertex 0.996419 2.18552 1.5
      vertex 0.586448 2.81833 2.12132
      vertex 1.19419 2.61932 2.12132
    endloop
  endfacet
  facet normal 0.287781 0.878793 -0.380663
    outer loop
      vertex 0.872091 1.91282 0.776457
      vertex 0.428268 2.05816 0.776457
      vertex 0.489324 2.35158 1.5
    endloop
  endfacet
  facet normal 0.287781 0.878793 -0.380663
    outer loop
      vertex 0.872091 1.91282 0.776457
      vertex 0.489324 2.35158 1.5
      vertex 0.996419 2.18552 1.5
    endloop
  endfacet
  facet normal 0.308576 0.942311 -0.129733
    outer loop
      vertex 0.829685 1.81981 0
      vertex 0.407444 1.95808 0
      vertex 0.428268 2.05816 0.776457
    endloop
  endfacet
  facet normal 0.308581 0.94231 -0.12973
    outer loop
      vertex 0.829685 1.81981 0
      vertex 0.428268 2.05816 0.776457
      vertex 0.872091 1.91282 0.776457
    endloop
  endfacet
  facet normal -0.509002 -0.850934 -0.129726
    outer loop
      vertex 4.78199 6.28552 0.776457
      vertex 3.27631 7.18617 0.776457
      vertex 3.31871 7.27918 0
    endloop
  endfacet
  facet normal -0.508995 -0.850936 -0.129742
    outer loop
      vertex 4.78199 6.28552 0.776457
      vertex 3.31871 7.27918 0
      vertex 4.84389 6.36688 0
    endloop
  endfacet
  facet normal -0.474695 -0.793578 -0.380654
    outer loop
      vertex 4.60053 6.047 1.5
      vertex 3.15198 6.91348 1.5
      vertex 3.27631 7.18617 0.776457
    endloop
  endfacet
  facet normal -0.474693 -0.793578 -0.380658
    outer loop
      vertex 4.60053 6.047 1.5
      vertex 3.27631 7.18617 0.776457
      vertex 4.78199 6.28552 0.776457
    endloop
  endfacet
  facet normal -0.408193 -0.682404 -0.606385
    outer loop
      vertex 4.31186 5.66757 2.12132
      vertex 2.9542 6.47968 2.12132
      vertex 3.15198 6.91348 1.5
    endloop
  endfacet
  facet normal -0.408194 -0.682405 -0.606384
    outer loop
      vertex 4.31186 5.66757 2.12132
      vertex 3.15198 6.91348 1.5
      vertex 4.60053 6.047 1.5
    endloop
  endfacet
  facet normal -0.313724 -0.524474 -0.79152
    outer loop
      vertex 3.93566 5.17309 2.59808
      vertex 2.69646 5.91434 2.59808
      vertex 2.9542 6.47968 2.12132
    endloop
  endfacet
  facet normal -0.313724 -0.524474 -0.79152
    outer loop
      vertex 3.93566 5.17309 2.59808
      vertex 2.9542 6.47968 2.12132
      vertex 4.31186 5.66757 2.12132
    endloop
  endfacet
  facet normal -0.197484 -0.330155 -0.923037
    outer loop
      vertex 3.49757 4.59726 2.89778
      vertex 2.3963 5.25599 2.89778
      vertex 2.69646 5.91434 2.59808
    endloop
  endfacet
  facet normal -0.19749 -0.330158 -0.923035
    outer loop
      vertex 3.49757 4.59726 2.89778
      vertex 2.69646 5.91434 2.59808
      vertex 3.93566 5.17309 2.59808
    endloop
  endfacet
  facet normal -0.067413 -0.112699 -0.99134
    outer loop
      vertex 3.02743 3.97931 3
      vertex 2.0742 4.5495 3
      vertex 2.3963 5.25599 2.89778
    endloop
  endfacet
  facet normal -0.0674112 -0.112699 -0.99134
    outer loop
      vertex 3.02743 3.97931 3
      vertex 2.3963 5.25599 2.89778
      vertex 3.49757 4.59726 2.89778
    endloop
  endfacet
  facet normal 0.0674119 0.112698 -0.99134
    outer loop
      vertex 2.5573 3.36136 2.89778
      vertex 1.7521 3.843 2.89778
      vertex 2.0742 4.5495 3
    endloop
  endfacet
  facet normal 0.0674125 0.112699 -0.99134
    outer loop
      vertex 2.5573 3.36136 2.89778
      vertex 2.0742 4.5495 3
      vertex 3.02743 3.97931 3
    endloop
  endfacet
  facet normal 0.197489 0.330157 -0.923036
    outer loop
      vertex 2.11921 2.78552 2.59808
      vertex 1.45194 3.18466 2.59808
      vertex 1.7521 3.843 2.89778
    endloop
  endfacet
  facet normal 0.197487 0.330156 -0.923036
    outer loop
      vertex 2.11921 2.78552 2.59808
      vertex 1.7521 3.843 2.89778
      vertex 2.5573 3.36136 2.89778
    endloop
  endfacet
  facet normal 0.313717 0.524474 -0.791523
    outer loop
      vertex 1.74301 2.29104 2.12132
      vertex 1.19419 2.61932 2.12132
      vertex 1.45194 3.18466 2.59808
    endloop
  endfacet
  facet normal 0.313724 0.524474 -0.79152
    outer loop
      vertex 1.74301 2.29104 2.12132
      vertex 1.45194 3.18466 2.59808
      vertex 2.11921 2.78552 2.59808
    endloop
  endfacet
  facet normal 0.40819 0.682409 -0.606382
    outer loop
      vertex 1.45434 1.91161 1.5
      vertex 0.996419 2.18552 1.5
      vertex 1.19419 2.61932 2.12132
    endloop
  endfacet
  facet normal 0.408187 0.682409 -0.606383
    outer loop
      vertex 1.45434 1.91161 1.5
      vertex 1.19419 2.61932 2.12132
      vertex 1.74301 2.29104 2.12132
    endloop
  endfacet
  facet normal 0.474679 0.793584 -0.380663
    outer loop
      vertex 1.27288 1.67309 0.776457
      vertex 0.872091 1.91282 0.776457
      vertex 0.996419 2.18552 1.5
    endloop
  endfacet
  facet normal 0.474688 0.793581 -0.380657
    outer loop
      vertex 1.27288 1.67309 0.776457
      vertex 0.996419 2.18552 1.5
      vertex 1.45434 1.91161 1.5
    endloop
  endfacet
  facet normal 0.509004 0.850932 -0.12973
    outer loop
      vertex 1.21098 1.59173 0
      vertex 0.829685 1.81981 0
      vertex 0.872091 1.91282 0.776457
    endloop
  endfacet
  facet normal 0.508986 0.850941 -0.129742
    outer loop
      vertex 1.21098 1.59173 0
      vertex 0.872091 1.91282 0.776457
      vertex 1.27288 1.67309 0.776457
    endloop
  endfacet
  facet normal -0.684303 -0.717562 -0.129742
    outer loop
      vertex 6.05168 5.07468 0.776457
      vertex 4.78199 6.28552 0.776457
      vertex 4.84389 6.36688 0
    endloop
  endfacet
  facet normal -0.684304 -0.717562 -0.129741
    outer loop
      vertex 6.05168 5.07468 0.776457
      vertex 4.84389 6.36688 0
      vertex 6.13001 5.14037 0
    endloop
  endfacet
  facet normal -0.63818 -0.669199 -0.380657
    outer loop
      vertex 5.82204 4.88211 1.5
      vertex 4.60053 6.047 1.5
      vertex 4.78199 6.28552 0.776457
    endloop
  endfacet
  facet normal -0.638181 -0.669199 -0.380654
    outer loop
      vertex 5.82204 4.88211 1.5
      vertex 4.78199 6.28552 0.776457
      vertex 6.05168 5.07468 0.776457
    endloop
  endfacet
  facet normal -0.548776 -0.575451 -0.606384
    outer loop
      vertex 5.45672 4.57578 2.12132
      vertex 4.31186 5.66757 2.12132
      vertex 4.60053 6.047 1.5
    endloop
  endfacet
  facet normal -0.548778 -0.575451 -0.606382
    outer loop
      vertex 5.45672 4.57578 2.12132
      vertex 4.60053 6.047 1.5
      vertex 5.82204 4.88211 1.5
    endloop
  endfacet
  facet normal -0.421771 -0.442273 -0.79152
    outer loop
      vertex 4.98064 4.17655 2.59808
      vertex 3.93566 5.17309 2.59808
      vertex 4.31186 5.66757 2.12132
    endloop
  endfacet
  facet normal -0.421771 -0.442273 -0.79152
    outer loop
      vertex 4.98064 4.17655 2.59808
      vertex 4.31186 5.66757 2.12132
      vertex 5.45672 4.57578 2.12132
    endloop
  endfacet
  facet normal -0.265509 -0.27841 -0.923035
    outer loop
      vertex 4.42622 3.71164 2.89778
      vertex 3.49757 4.59726 2.89778
      vertex 3.93566 5.17309 2.59808
    endloop
  endfacet
  facet normal -0.265502 -0.278408 -0.923037
    outer loop
      vertex 4.42622 3.71164 2.89778
      vertex 3.93566 5.17309 2.59808
      vertex 4.98064 4.17655 2.59808
    endloop
  endfacet
  facet normal -0.0906298 -0.0950337 -0.99134
    outer loop
      vertex 3.83126 3.21273 3
      vertex 3.02743 3.97931 3
      vertex 3.49757 4.59726 2.89778
    endloop
  endfacet
  facet normal -0.0906303 -0.0950338 -0.99134
    outer loop
      vertex 3.83126 3.21273 3
      vertex 3.49757 4.59726 2.89778
      vertex 4.42622 3.71164 2.89778
    endloop
  endfacet
  facet normal 0.0906302 0.0950348 -0.99134
    outer loop
      vertex 3.2363 2.71383 2.89778
      vertex 2.5573 3.36136 2.89778
      vertex 3.02743 3.97931 3
    endloop
  endfacet
  facet normal 0.090631 0.095035 -0.99134
    outer loop
      vertex 3.2363 2.71383 2.89778
      vertex 3.02743 3.97931 3
      vertex 3.83126 3.21273 3
    endloop
  endfacet
  facet normal 0.265505 0.278409 -0.923036
    outer loop
      vertex 2.68189 2.24892 2.59808
      vertex 2.11921 2.78552 2.59808
      vertex 2.5573 3.36136 2.89778
    endloop
  endfacet
  facet normal 0.265505 0.278409 -0.923036
    outer loop
      vertex 2.68189 2.24892 2.59808
      vertex 2.5573 3.36136 2.89778
      vertex 3.2363 2.71383 2.89778
    endloop
  endfacet
  facet normal 0.421778 0.442267 -0.79152
    outer loop
      vertex 2.2058 1.84969 2.12132
      vertex 1.74301 2.29104 2.12132
      vertex 2.11921 2.78552 2.59808
    endloop
  endfacet
  facet normal 0.421769 0.442268 -0.791524
    outer loop
      vertex 2.2058 1.84969 2.12132
      vertex 2.11921 2.78552 2.59808
      vertex 2.68189 2.24892 2.59808
    endloop
  endfacet
  facet normal 0.548776 0.575451 -0.606384
    outer loop
      vertex 1.84049 1.54336 1.5
      vertex 1.45434 1.91161 1.5
      vertex 1.74301 2.29104 2.12132
    endloop
  endfacet
  facet normal 0.548788 0.575447 -0.606377
    outer loop
      vertex 1.84049 1.54336 1.5
      vertex 1.74301 2.29104 2.12132
      vertex 2.2058 1.84969 2.12132
    endloop
  endfacet
  facet normal 0.638185 0.669194 -0.380656
    outer loop
      vertex 1.61084 1.35079 0.776457
      vertex 1.27288 1.67309 0.776457
      vertex 1.45434 1.91161 1.5
    endloop
  endfacet
  facet normal 0.638178 0.669198 -0.380662
    outer loop
      vertex 1.61084 1.35079 0.776457
      vertex 1.45434 1.91161 1.5
      vertex 1.84049 1.54336 1.5
    endloop
  endfacet
  facet normal 0.684296 0.71757 -0.129742
    outer loop
      vertex 1.53252 1.2851 0
      vertex 1.21098 1.59173 0
      vertex 1.27288 1.67309 0.776457
    endloop
  endfacet
  facet normal 0.684309 0.717559 -0.129732
    outer loop
      vertex 1.53252 1.2851 0
      vertex 1.27288 1.67309 0.776457
      vertex 1.61084 1.35079 0.776457
    endloop
  endfacet
  facet normal -0.825838 -0.54878 -0.12974
    outer loop
      vertex 7.02272 3.6134 0.776457
      vertex 6.05168 5.07468 0.776457
      vertex 6.13001 5.14037 0
    endloop
  endfacet
  facet normal -0.825842 -0.548776 -0.129727
    outer loop
      vertex 7.02272 3.6134 0.776457
      vertex 6.13001 5.14037 0
      vertex 7.11361 3.66017 0
    endloop
  endfacet
  facet normal -0.77018 -0.511788 -0.380653
    outer loop
      vertex 6.75622 3.47628 1.5
      vertex 5.82204 4.88211 1.5
      vertex 6.05168 5.07468 0.776457
    endloop
  endfacet
  facet normal -0.770172 -0.51179 -0.380665
    outer loop
      vertex 6.75622 3.47628 1.5
      vertex 6.05168 5.07468 0.776457
      vertex 7.02272 3.6134 0.776457
    endloop
  endfacet
  facet normal -0.662282 -0.440092 -0.606384
    outer loop
      vertex 6.33229 3.25816 2.12132
      vertex 5.45672 4.57578 2.12132
      vertex 5.82204 4.88211 1.5
    endloop
  endfacet
  facet normal -0.662286 -0.440092 -0.60638
    outer loop
      vertex 6.33229 3.25816 2.12132
      vertex 5.82204 4.88211 1.5
      vertex 6.75622 3.47628 1.5
    endloop
  endfacet
  facet normal -0.509008 -0.338241 -0.79152
    outer loop
      vertex 5.77982 2.97389 2.59808
      vertex 4.98064 4.17655 2.59808
      vertex 5.45672 4.57578 2.12132
    endloop
  endfacet
  facet normal -0.50901 -0.338241 -0.791519
    outer loop
      vertex 5.77982 2.97389 2.59808
      vertex 5.45672 4.57578 2.12132
      vertex 6.33229 3.25816 2.12132
    endloop
  endfacet
  facet normal -0.320416 -0.212921 -0.923037
    outer loop
      vertex 5.13644 2.64286 2.89778
      vertex 4.42622 3.71164 2.89778
      vertex 4.98064 4.17655 2.59808
    endloop
  endfacet
  facet normal -0.320418 -0.212921 -0.923037
    outer loop
      vertex 5.13644 2.64286 2.89778
      vertex 4.98064 4.17655 2.59808
      vertex 5.77982 2.97389 2.59808
    endloop
  endfacet
  facet normal -0.109374 -0.0726813 -0.99134
    outer loop
      vertex 4.44602 2.28761 3
      vertex 3.83126 3.21273 3
      vertex 4.42622 3.71164 2.89778
    endloop
  endfacet
  facet normal -0.109375 -0.0726813 -0.99134
    outer loop
      vertex 4.44602 2.28761 3
      vertex 4.42622 3.71164 2.89778
      vertex 5.13644 2.64286 2.89778
    endloop
  endfacet
  facet normal 0.109375 0.0726814 -0.99134
    outer loop
      vertex 3.75559 1.93237 2.89778
      vertex 3.2363 2.71383 2.89778
      vertex 3.83126 3.21273 3
    endloop
  endfacet
  facet normal 0.109374 0.0726814 -0.99134
    outer loop
      vertex 4.44602 2.28761 3
      vertex 3.75559 1.93237 2.89778
      vertex 3.83126 3.21273 3
    endloop
  endfacet
  facet normal 0.32042 0.212922 -0.923036
    outer loop
      vertex 3.11222 1.60133 2.59808
      vertex 2.68189 2.24892 2.59808
      vertex 3.2363 2.71383 2.89778
    endloop
  endfacet
  facet normal 0.320419 0.212923 -0.923036
    outer loop
      vertex 3.75559 1.93237 2.89778
      vertex 3.11222 1.60133 2.59808
      vertex 3.2363 2.71383 2.89778
    endloop
  endfacet
  facet normal 0.509 0.338244 -0.791524
    outer loop
      vertex 2.55974 1.31707 2.12132
      vertex 2.2058 1.84969 2.12132
      vertex 2.68189 2.24892 2.59808
    endloop
  endfacet
  facet normal 0.509008 0.338241 -0.79152
    outer loop
      vertex 3.11222 1.60133 2.59808
      vertex 2.55974 1.31707 2.12132
      vertex 2.68189 2.24892 2.59808
    endloop
  endfacet
  facet normal 0.662287 0.440094 -0.606377
    outer loop
      vertex 2.13581 1.09894 1.5
      vertex 1.84049 1.54336 1.5
      vertex 2.2058 1.84969 2.12132
    endloop
  endfacet
  facet normal 0.662277 0.4401 -0.606383
    outer loop
      vertex 2.55974 1.31707 2.12132
      vertex 2.13581 1.09894 1.5
      vertex 2.2058 1.84969 2.12132
    endloop
  endfacet
  facet normal 0.770169 0.511796 -0.380663
    outer loop
      vertex 1.86932 0.96182 0.776457
      vertex 1.61084 1.35079 0.776457
      vertex 1.84049 1.54336 1.5
    endloop
  endfacet
  facet normal 0.770178 0.511788 -0.380656
    outer loop
      vertex 1.86932 0.96182 0.776457
      vertex 1.84049 1.54336 1.5
      vertex 2.13581 1.09894 1.5
    endloop
  endfacet
  facet normal 0.825841 0.548777 -0.129729
    outer loop
      vertex 1.77842 0.915051 0
      vertex 1.53252 1.2851 0
      vertex 1.61084 1.35079 0.776457
    endloop
  endfacet
  facet normal 0.825834 0.548787 -0.129736
    outer loop
      vertex 1.77842 0.915051 0
      vertex 1.61084 1.35079 0.776457
      vertex 1.86932 0.96182 0.776457
    endloop
  endfacet
  facet normal -0.926619 -0.352913 -0.129725
    outer loop
      vertex 7.64718 1.9738 0.776457
      vertex 7.02272 3.6134 0.776457
      vertex 7.11361 3.66017 0
    endloop
  endfacet
  facet normal -0.926617 -0.352917 -0.129735
    outer loop
      vertex 7.64718 1.9738 0.776457
      vertex 7.11361 3.66017 0
      vertex 7.74616 1.99935 0
    endloop
  endfacet
  facet normal -0.864158 -0.329128 -0.380666
    outer loop
      vertex 7.35699 1.8989 1.5
      vertex 6.75622 3.47628 1.5
      vertex 7.02272 3.6134 0.776457
    endloop
  endfacet
  facet normal -0.864162 -0.329126 -0.380658
    outer loop
      vertex 7.35699 1.8989 1.5
      vertex 7.02272 3.6134 0.776457
      vertex 7.64718 1.9738 0.776457
    endloop
  endfacet
  facet normal -0.743104 -0.28302 -0.60638
    outer loop
      vertex 6.89536 1.77975 2.12132
      vertex 6.33229 3.25816 2.12132
      vertex 6.75622 3.47628 1.5
    endloop
  endfacet
  facet normal -0.743099 -0.283021 -0.606385
    outer loop
      vertex 6.89536 1.77975 2.12132
      vertex 6.75622 3.47628 1.5
      vertex 7.35699 1.8989 1.5
    endloop
  endfacet
  facet normal -0.571126 -0.217519 -0.791518
    outer loop
      vertex 6.29376 1.62447 2.59808
      vertex 5.77982 2.97389 2.59808
      vertex 6.33229 3.25816 2.12132
    endloop
  endfacet
  facet normal -0.571124 -0.217519 -0.791519
    outer loop
      vertex 6.89536 1.77975 2.12132
      vertex 6.29376 1.62447 2.59808
      vertex 6.33229 3.25816 2.12132
    endloop
  endfacet
  facet normal -0.359518 -0.136929 -0.923037
    outer loop
      vertex 5.59318 1.44365 2.89778
      vertex 5.13644 2.64286 2.89778
      vertex 5.77982 2.97389 2.59808
    endloop
  endfacet
  facet normal -0.359523 -0.136928 -0.923035
    outer loop
      vertex 6.29376 1.62447 2.59808
      vertex 5.59318 1.44365 2.89778
      vertex 5.77982 2.97389 2.59808
    endloop
  endfacet
  facet normal -0.122723 -0.0467406 -0.99134
    outer loop
      vertex 4.84136 1.2496 3
      vertex 4.44602 2.28761 3
      vertex 5.13644 2.64286 2.89778
    endloop
  endfacet
  facet normal -0.122722 -0.0467407 -0.99134
    outer loop
      vertex 5.59318 1.44365 2.89778
      vertex 4.84136 1.2496 3
      vertex 5.13644 2.64286 2.89778
    endloop
  endfacet
  facet normal 0.122722 0.0467399 -0.99134
    outer loop
      vertex 4.08954 1.05554 2.89778
      vertex 3.75559 1.93237 2.89778
      vertex 4.44602 2.28761 3
    endloop
  endfacet
  facet normal 0.122721 0.0467401 -0.99134
    outer loop
      vertex 4.84136 1.2496 3
      vertex 4.08954 1.05554 2.89778
      vertex 4.44602 2.28761 3
    endloop
  endfacet
  facet normal 0.359521 0.136929 -0.923036
    outer loop
      vertex 3.38896 0.874719 2.59808
      vertex 3.11222 1.60133 2.59808
      vertex 3.75559 1.93237 2.89778
    endloop
  endfacet
  facet normal 0.359522 0.136928 -0.923035
    outer loop
      vertex 4.08954 1.05554 2.89778
      vertex 3.38896 0.874719 2.59808
      vertex 3.75559 1.93237 2.89778
    endloop
  endfacet
  facet normal 0.571124 0.217515 -0.791521
    outer loop
      vertex 2.78735 0.71944 2.12132
      vertex 2.55974 1.31707 2.12132
      vertex 3.11222 1.60133 2.59808
    endloop
  endfacet
  facet normal 0.571119 0.217519 -0.791523
    outer loop
      vertex 3.38896 0.874719 2.59808
      vertex 2.78735 0.71944 2.12132
      vertex 3.11222 1.60133 2.59808
    endloop
  endfacet
  facet normal 0.7431 0.283023 -0.606383
    outer loop
      vertex 2.32573 0.600289 1.5
      vertex 2.13581 1.09894 1.5
      vertex 2.55974 1.31707 2.12132
    endloop
  endfacet
  facet normal 0.743107 0.283016 -0.606378
    outer loop
      vertex 2.78735 0.71944 2.12132
      vertex 2.32573 0.600289 1.5
      vertex 2.55974 1.31707 2.12132
    endloop
  endfacet
  facet normal 0.864163 0.329127 -0.380655
    outer loop
      vertex 2.03554 0.525389 0.776457
      vertex 1.86932 0.96182 0.776457
      vertex 2.13581 1.09894 1.5
    endloop
  endfacet
  facet normal 0.86416 0.329131 -0.380658
    outer loop
      vertex 2.32573 0.600289 1.5
      vertex 2.03554 0.525389 0.776457
      vertex 2.13581 1.09894 1.5
    endloop
  endfacet
  facet normal 0.926616 0.352919 -0.129737
    outer loop
      vertex 1.93656 0.499842 0
      vertex 1.77842 0.915051 0
      vertex 1.86932 0.96182 0.776457
    endloop
  endfacet
  facet normal 0.926618 0.352914 -0.129734
    outer loop
      vertex 1.93656 0.499842 0
      vertex 1.86932 0.96182 0.776457
      vertex 2.03554 0.525389 0.776457
    endloop
  endfacet
  facet normal -0.981668 -0.13963 -0.129734
    outer loop
      vertex 7.8827 0.374234 0.71591
      vertex 7.64718 1.9738 0.776457
      vertex 7.74616 1.99935 0
    endloop
  endfacet
  facet normal -0.981664 -0.139628 -0.129767
    outer loop
      vertex 7.64718 1.9738 0.776457
      vertex 7.8827 0.374234 0.71591
      vertex 7.87475 0.373856 0.776457
    endloop
  endfacet
  facet normal -0.981668 -0.139631 -0.129737
    outer loop
      vertex 7.93357 0.376649 0.328398
      vertex 7.74616 1.99935 0
      vertex 7.97668 0.378695 0
    endloop
  endfacet
  facet normal -0.981668 -0.139631 -0.129737
    outer loop
      vertex 7.74616 1.99935 0
      vertex 7.93357 0.376649 0.328398
      vertex 7.8827 0.374234 0.71591
    endloop
  endfacet
  facet normal -0.915501 -0.130219 -0.380658
    outer loop
      vertex 7.59868 0.36075 1.44491
      vertex 7.35699 1.8989 1.5
      vertex 7.64718 1.9738 0.776457
    endloop
  endfacet
  facet normal -0.915514 -0.130223 -0.380626
    outer loop
      vertex 7.35699 1.8989 1.5
      vertex 7.59868 0.36075 1.44491
      vertex 7.57593 0.359669 1.5
    endloop
  endfacet
  facet normal -0.915503 -0.130218 -0.380654
    outer loop
      vertex 7.87475 0.373856 0.776457
      vertex 7.59868 0.36075 1.44491
      vertex 7.64718 1.9738 0.776457
    endloop
  endfacet
  facet normal -0.787248 -0.111976 -0.606385
    outer loop
      vertex 7.13589 0.338779 2.07514
      vertex 6.89536 1.77975 2.12132
      vertex 7.35699 1.8989 1.5
    endloop
  endfacet
  facet normal -0.787263 -0.111979 -0.606364
    outer loop
      vertex 6.89536 1.77975 2.12132
      vertex 7.13589 0.338779 2.07514
      vertex 7.10056 0.337101 2.12132
    endloop
  endfacet
  facet normal -0.78724 -0.111977 -0.606395
    outer loop
      vertex 7.5029 0.356202 1.59545
      vertex 7.35699 1.8989 1.5
      vertex 7.57593 0.359669 1.5
    endloop
  endfacet
  facet normal -0.787246 -0.111977 -0.606387
    outer loop
      vertex 7.35699 1.8989 1.5
      vertex 7.5029 0.356202 1.59545
      vertex 7.13589 0.338779 2.07514
    endloop
  endfacet
  facet normal -0.605167 -0.0860795 -0.791431
    outer loop
      vertex 6.29376 1.62447 2.59808
      vertex 6.52598 0.309823 2.5635
      vertex 6.48106 0.30769 2.59808
    endloop
  endfacet
  facet normal -0.605056 -0.0860575 -0.791519
    outer loop
      vertex 6.52598 0.309823 2.5635
      vertex 6.29376 1.62447 2.59808
      vertex 6.89536 1.77975 2.12132
    endloop
  endfacet
  facet normal -0.605048 -0.086061 -0.791524
    outer loop
      vertex 7.10056 0.337101 2.12132
      vertex 6.52598 0.309823 2.5635
      vertex 6.89536 1.77975 2.12132
    endloop
  endfacet
  facet normal -0.380983 -0.0541876 -0.922993
    outer loop
      vertex 5.59318 1.44365 2.89778
      vertex 5.81066 0.275863 2.87657
      vertex 5.75962 0.27344 2.89778
    endloop
  endfacet
  facet normal -0.380883 -0.0541681 -0.923035
    outer loop
      vertex 5.81066 0.275863 2.87657
      vertex 5.59318 1.44365 2.89778
      vertex 6.29376 1.62447 2.59808
    endloop
  endfacet
  facet normal -0.380867 -0.0541749 -0.923041
    outer loop
      vertex 6.48106 0.30769 2.59808
      vertex 5.81066 0.275863 2.87657
      vertex 6.29376 1.62447 2.59808
    endloop
  endfacet
  facet normal -0.130063 -0.0184993 -0.991333
    outer loop
      vertex 4.84136 1.2496 3
      vertex 5.03888 0.239222 2.99294
      vertex 4.98543 0.236685 3
    endloop
  endfacet
  facet normal -0.130014 -0.0184896 -0.99134
    outer loop
      vertex 5.03888 0.239222 2.99294
      vertex 4.84136 1.2496 3
      vertex 5.59318 1.44365 2.89778
    endloop
  endfacet
  facet normal -0.13001 -0.0184914 -0.99134
    outer loop
      vertex 5.75962 0.27344 2.89778
      vertex 5.03888 0.239222 2.99294
      vertex 5.59318 1.44365 2.89778
    endloop
  endfacet
  facet normal 0.12985 0.0184696 -0.991362
    outer loop
      vertex 4.08954 1.05554 2.89778
      vertex 4.26349 0.20241 2.90467
      vertex 4.21124 0.19993 2.89778
    endloop
  endfacet
  facet normal 0.13001 0.0185024 -0.99134
    outer loop
      vertex 4.26349 0.20241 2.90467
      vertex 4.08954 1.05554 2.89778
      vertex 4.84136 1.2496 3
    endloop
  endfacet
  facet normal 0.130017 0.0184927 -0.991339
    outer loop
      vertex 4.32585 0.205371 2.91291
      vertex 4.84136 1.2496 3
      vertex 4.98543 0.236685 3
    endloop
  endfacet
  facet normal 0.130114 0.0184437 -0.991327
    outer loop
      vertex 4.84136 1.2496 3
      vertex 4.32585 0.205371 2.91291
      vertex 4.26349 0.20241 2.90467
    endloop
  endfacet
  facet normal 0.380788 0.0541612 -0.923075
    outer loop
      vertex 3.38896 0.874719 2.59808
      vertex 3.53763 0.16795 2.61794
      vertex 3.48981 0.165679 2.59808
    endloop
  endfacet
  facet normal 0.38088 0.0541816 -0.923036
    outer loop
      vertex 3.53763 0.16795 2.61794
      vertex 3.38896 0.874719 2.59808
      vertex 4.08954 1.05554 2.89778
    endloop
  endfacet
  facet normal 0.380887 0.0541764 -0.923033
    outer loop
      vertex 4.21124 0.19993 2.89778
      vertex 3.53763 0.16795 2.61794
      vertex 4.08954 1.05554 2.89778
    endloop
  endfacet
  facet normal 0.605011 0.0860563 -0.791553
    outer loop
      vertex 2.78735 0.71944 2.12132
      vertex 2.91108 0.138204 2.1527
      vertex 2.8703 0.136268 2.12132
    endloop
  endfacet
  facet normal 0.605048 0.0860658 -0.791524
    outer loop
      vertex 2.91108 0.138204 2.1527
      vertex 2.78735 0.71944 2.12132
      vertex 3.38896 0.874719 2.59808
    endloop
  endfacet
  facet normal 0.605057 0.08606 -0.791518
    outer loop
      vertex 2.99665 0.142266 2.21855
      vertex 3.38896 0.874719 2.59808
      vertex 3.48981 0.165679 2.59808
    endloop
  endfacet
  facet normal 0.605034 0.0860799 -0.791533
    outer loop
      vertex 3.38896 0.874719 2.59808
      vertex 2.99665 0.142266 2.21855
      vertex 2.91108 0.138204 2.1527
    endloop
  endfacet
  facet normal 0.787255 0.111971 -0.606377
    outer loop
      vertex 2.42665 0.115206 1.54145
      vertex 2.32573 0.600289 1.5
      vertex 2.78735 0.71944 2.12132
    endloop
  endfacet
  facet normal 0.787275 0.111978 -0.606348
    outer loop
      vertex 2.32573 0.600289 1.5
      vertex 2.42665 0.115206 1.54145
      vertex 2.39494 0.1137 1.5
    endloop
  endfacet
  facet normal 0.787267 0.11198 -0.606358
    outer loop
      vertex 2.80964 0.133388 2.04203
      vertex 2.78735 0.71944 2.12132
      vertex 2.8703 0.136268 2.12132
    endloop
  endfacet
  facet normal 0.787247 0.111983 -0.606384
    outer loop
      vertex 2.78735 0.71944 2.12132
      vertex 2.80964 0.133388 2.04203
      vertex 2.42665 0.115206 1.54145
    endloop
  endfacet
  facet normal 0.915504 0.130202 -0.380658
    outer loop
      vertex 2.11695 0.100503 0.826923
      vertex 2.03554 0.525389 0.776457
      vertex 2.32573 0.600289 1.5
    endloop
  endfacet
  facet normal 0.915519 0.130209 -0.380619
    outer loop
      vertex 2.03554 0.525389 0.776457
      vertex 2.11695 0.100503 0.826923
      vertex 2.09611 0.0995132 0.776457
    endloop
  endfacet
  facet normal 0.915498 0.130216 -0.380666
    outer loop
      vertex 2.39494 0.1137 1.5
      vertex 2.11695 0.100503 0.826923
      vertex 2.32573 0.600289 1.5
    endloop
  endfacet
  facet normal 0.981669 0.139627 -0.129734
    outer loop
      vertex 2.00187 0.0950389 0.0585144
      vertex 1.93656 0.499842 0
      vertex 2.03554 0.525389 0.776457
    endloop
  endfacet
  facet normal 0.981671 0.13963 -0.129714
    outer loop
      vertex 1.93656 0.499842 0
      vertex 2.00187 0.0950389 0.0585144
      vertex 1.99419 0.0946743 0
    endloop
  endfacet
  facet normal 0.981671 0.139618 -0.129728
    outer loop
      vertex 2.09611 0.0995132 0.776457
      vertex 2.00187 0.0950389 0.0585144
      vertex 2.03554 0.525389 0.776457
    endloop
  endfacet
  facet normal 0 0 -1
    outer loop
      vertex 1.41213 0.0670412 0
      vertex 1.93656 0.499842 0
      vertex 1.99419 0.0946743 0
    endloop
  endfacet
  facet normal -0 0 -1
    outer loop
      vertex 1.93656 0.499842 0
      vertex 1.41213 0.0670412 0
      vertex 1.77842 0.915051 0
    endloop
  endfacet
  facet normal 0 0 -1
    outer loop
      vertex 0.885773 0.46417 0
      vertex 1.77842 0.915051 0
      vertex 1.41213 0.0670412 0
    endloop
  endfacet
  facet normal -0 0 -1
    outer loop
      vertex 1.77842 0.915051 0
      vertex 0.885773 0.46417 0
      vertex 1.53252 1.2851 0
    endloop
  endfacet
  facet normal 0 0 -1
    outer loop
      vertex 0.965099 0.261975 0
      vertex 1.41213 0.0670412 0
      vertex 0.998899 0.0474224 0
    endloop
  endfacet
  facet normal 0 0 -1
    outer loop
      vertex 0.885773 0.46417 0
      vertex 1.41213 0.0670412 0
      vertex 0.965099 0.261975 0
    endloop
  endfacet
  facet normal 0 0 -1
    outer loop
      vertex 0.764663 0.644467 0
      vertex 1.53252 1.2851 0
      vertex 0.885773 0.46417 0
    endloop
  endfacet
  facet normal -0 0 -1
    outer loop
      vertex 1.53252 1.2851 0
      vertex 0.764663 0.644467 0
      vertex 1.21098 1.59173 0
    endloop
  endfacet
  facet normal 0 0 -1
    outer loop
      vertex 0.607481 0.794364 0
      vertex 1.21098 1.59173 0
      vertex 0.764663 0.644467 0
    endloop
  endfacet
  facet normal 0 0 -1
    outer loop
      vertex 0.421642 0.906788 0
      vertex 1.21098 1.59173 0
      vertex 0.607481 0.794364 0
    endloop
  endfacet
  facet normal -0 0 -1
    outer loop
      vertex 1.21098 1.59173 0
      vertex 0.421642 0.906788 0
      vertex 0.829685 1.81981 0
    endloop
  endfacet
  facet normal 0 0 -1
    outer loop
      vertex 0.215914 0.976437 0
      vertex 0.829685 1.81981 0
      vertex 0.421642 0.906788 0
    endloop
  endfacet
  facet normal -0 0 -1
    outer loop
      vertex 0.829685 1.81981 0
      vertex 0.215914 0.976437 0
      vertex 0.407444 1.95808 0
    endloop
  endfacet
  facet normal 0 0 -1
    outer loop
      vertex 0.215914 0.976437 0
      vertex 4.43297e-16 1.99643 0
      vertex 0.407444 1.95808 0
    endloop
  endfacet
  facet normal 0 -0 -1
    outer loop
      vertex 4.43297e-16 1.99643 0
      vertex 0.215914 0.976437 0
      vertex 2.2205e-16 1.00002 0
    endloop
  endfacet
  facet normal 0 0 -1
    outer loop
      vertex 8.71761 0.413871 0
      vertex 8.68571 2.35773 0
      vertex 8.9899 0.426799 0
    endloop
  endfacet
  facet normal 0 0 -1
    outer loop
      vertex 8.42541 0.399999 0
      vertex 8.68571 2.35773 0
      vertex 8.71761 0.413871 0
    endloop
  endfacet
  facet normal 0 0 -1
    outer loop
      vertex 7.74616 1.99935 0
      vertex 8.42541 0.399999 0
      vertex 7.97668 0.378695 0
    endloop
  endfacet
  facet normal 0 0 -1
    outer loop
      vertex 8.42541 0.399999 0
      vertex 7.74616 1.99935 0
      vertex 8.68571 2.35773 0
    endloop
  endfacet
  facet normal 0 0 -1
    outer loop
      vertex 7.11361 3.66017 0
      vertex 8.68571 2.35773 0
      vertex 7.74616 1.99935 0
    endloop
  endfacet
  facet normal 0 0 -1
    outer loop
      vertex 8.68571 2.35773 0
      vertex 7.11361 3.66017 0
      vertex 7.97179 4.17744 0
    endloop
  endfacet
  facet normal 0 0 -1
    outer loop
      vertex 6.13001 5.14037 0
      vertex 7.97179 4.17744 0
      vertex 7.11361 3.66017 0
    endloop
  endfacet
  facet normal 0 0 -1
    outer loop
      vertex 7.97179 4.17744 0
      vertex 6.13001 5.14037 0
      vertex 6.88182 5.80009 0
    endloop
  endfacet
  facet normal 0 0 -1
    outer loop
      vertex 6.13001 5.14037 0
      vertex 5.46721 7.14913 0
      vertex 6.88182 5.80009 0
    endloop
  endfacet
  facet normal 0 0 -1
    outer loop
      vertex 4.84389 6.36688 0
      vertex 5.46721 7.14913 0
      vertex 6.13001 5.14037 0
    endloop
  endfacet
  facet normal 0 0 -1
    outer loop
      vertex 4.84389 6.36688 0
      vertex 3.7947 8.16092 0
      vertex 5.46721 7.14913 0
    endloop
  endfacet
  facet normal 0 0 -1
    outer loop
      vertex 3.31871 7.27918 0
      vertex 3.7947 8.16092 0
      vertex 4.84389 6.36688 0
    endloop
  endfacet
  facet normal 0 0 -1
    outer loop
      vertex 3.31871 7.27918 0
      vertex 1.94318 8.78775 0
      vertex 3.7947 8.16092 0
    endloop
  endfacet
  facet normal 0 0 -1
    outer loop
      vertex 1.62976 7.83226 0
      vertex 1.94318 8.78775 0
      vertex 3.31871 7.27918 0
    endloop
  endfacet
  facet normal 0 0 -1
    outer loop
      vertex 1.62976 7.83226 0
      vertex 1.99841e-15 9.00002 0
      vertex 1.94318 8.78775 0
    endloop
  endfacet
  facet normal 0 -0 -1
    outer loop
      vertex 1.99841e-15 9.00002 0
      vertex 1.62976 7.83226 0
      vertex 1.77317e-15 7.98566 0
    endloop
  endfacet
endsolid OpenSCAD_Model
