solid OpenSCAD_Model
  facet normal -1 -2.22044e-16 -4.53229e-21
    outer loop
      vertex 9.31333e-15 -41.9435 0.158778
      vertex 9.10381e-15 -40.9999 0
      vertex 9.30869e-15 -41.9226 0
    endloop
  endfacet
  facet normal -1 -2.22043e-16 -2.90328e-22
    outer loop
      vertex 9.10381e-15 -40.9999 0
      vertex 9.31333e-15 -41.9435 0.158778
      vertex 9.17191e-15 -41.3066 2.32937
    endloop
  endfacet
  facet normal -1 -2.22047e-16 8.95136e-22
    outer loop
      vertex 9.36911e-15 -42.1947 2.07055
      vertex 9.17191e-15 -41.3066 2.32937
      vertex 9.31333e-15 -41.9435 0.158778
    endloop
  endfacet
  facet normal -1 -2.2204e-16 -2.34718e-20
    outer loop
      vertex 9.38254e-15 -42.2552 2.21684
      vertex 9.17191e-15 -41.3066 2.32937
      vertex 9.36911e-15 -42.1947 2.07055
    endloop
  endfacet
  facet normal -1 -2.22043e-16 4.95779e-22
    outer loop
      vertex 9.17191e-15 -41.3066 2.32937
      vertex 9.38254e-15 -42.2552 2.21684
      vertex 9.37155e-15 -42.2057 4.5
    endloop
  endfacet
  facet normal -1 -2.22026e-16 1.25872e-22
    outer loop
      vertex 9.54624e-15 -42.9925 4
      vertex 9.37155e-15 -42.2057 4.5
      vertex 9.38254e-15 -42.2552 2.21684
    endloop
  endfacet
  facet normal -1 -2.22105e-16 1.25091e-19
    outer loop
      vertex 9.5674e-15 -43.0877 4.12442
      vertex 9.37155e-15 -42.2057 4.5
      vertex 9.54624e-15 -42.9925 4
    endloop
  endfacet
  facet normal -1 -2.22049e-16 -8.57095e-21
    outer loop
      vertex 9.5674e-15 -43.0877 4.12442
      vertex 9.68913e-15 -43.636 6.36396
      vertex 9.37155e-15 -42.2057 4.5
    endloop
  endfacet
  facet normal -1 -2.22039e-16 -6.30234e-21
    outer loop
      vertex 9.82802e-15 -44.2615 5.65685
      vertex 9.68913e-15 -43.636 6.36396
      vertex 9.5674e-15 -43.0877 4.12442
    endloop
  endfacet
  facet normal -1 -2.22054e-16 7.18819e-21
    outer loop
      vertex 9.8554e-15 -44.3848 5.75166
      vertex 9.68913e-15 -43.636 6.36396
      vertex 9.82802e-15 -44.2615 5.65685
    endloop
  endfacet
  facet normal -1 -2.22047e-16 -2.16838e-21
    outer loop
      vertex 9.8554e-15 -44.3848 5.75166
      vertex 1.0103e-14 -45.4999 7.79423
      vertex 9.68913e-15 -43.636 6.36396
    endloop
  endfacet
  facet normal -1 -2.22002e-16 2.25004e-20
    outer loop
      vertex 1.01952e-14 -45.9153 6.9282
      vertex 1.0103e-14 -45.4999 7.79423
      vertex 9.8554e-15 -44.3848 5.75166
    endloop
  endfacet
  facet normal -1 -2.22307e-16 1.69158e-19
    outer loop
      vertex 1.0227e-14 -46.0583 6.98756
      vertex 1.0103e-14 -45.4999 7.79423
      vertex 1.01952e-14 -45.9153 6.9282
    endloop
  endfacet
  facet normal -1 -2.22051e-16 -7.98901e-21
    outer loop
      vertex 1.0227e-14 -46.0583 6.98756
      vertex 1.0585e-14 -47.6706 8.69333
      vertex 1.0103e-14 -45.4999 7.79423
    endloop
  endfacet
  facet normal -1 -2.22061e-16 -1.69718e-20
    outer loop
      vertex 1.06229e-14 -47.8412 7.72741
      vertex 1.0585e-14 -47.6706 8.69333
      vertex 1.0227e-14 -46.0583 6.98756
    endloop
  endfacet
  facet normal -1 -2.21796e-16 -6.38178e-20
    outer loop
      vertex 1.06569e-14 -47.9945 7.74763
      vertex 1.0585e-14 -47.6706 8.69333
      vertex 1.06229e-14 -47.8412 7.72741
    endloop
  endfacet
  facet normal -1 -2.22062e-16 2.73101e-20
    outer loop
      vertex 1.10818e-14 -49.9079 8
      vertex 1.0585e-14 -47.6706 8.69333
      vertex 1.06569e-14 -47.9945 7.74763
    endloop
  endfacet
  facet normal -1 -2.22045e-16 -2.81085e-20
    outer loop
      vertex 1.10818e-14 -49.9079 8
      vertex 1.11022e-14 -49.9999 9
      vertex 1.0585e-14 -47.6706 8.69333
    endloop
  endfacet
  facet normal -1 -2.22002e-16 -2.41858e-20
    outer loop
      vertex 1.11159e-14 -50.0615 7.97975
      vertex 1.11022e-14 -49.9999 9
      vertex 1.10818e-14 -49.9079 8
    endloop
  endfacet
  facet normal -1 -2.22045e-16 -2.15824e-20
    outer loop
      vertex 1.15407e-14 -51.9746 7.72741
      vertex 1.11022e-14 -49.9999 9
      vertex 1.11159e-14 -50.0615 7.97975
    endloop
  endfacet
  facet normal -1 -2.21975e-16 -3.58862e-20
    outer loop
      vertex 1.16194e-14 -52.3293 8.69333
      vertex 1.15407e-14 -51.9746 7.72741
      vertex 1.15726e-14 -52.1183 7.66779
    endloop
  endfacet
  facet normal -1 -2.22024e-16 -5.38666e-20
    outer loop
      vertex 1.15407e-14 -51.9746 7.72741
      vertex 1.16194e-14 -52.3293 8.69333
      vertex 1.11022e-14 -49.9999 9
    endloop
  endfacet
  facet normal -1 -2.22011e-16 -4.32207e-20
    outer loop
      vertex 1.19683e-14 -53.9005 6.9282
      vertex 1.16194e-14 -52.3293 8.69333
      vertex 1.15726e-14 -52.1183 7.66779
    endloop
  endfacet
  facet normal -1 -2.22281e-16 -1.56281e-19
    outer loop
      vertex 1.21014e-14 -54.4999 7.79423
      vertex 1.19683e-14 -53.9005 6.9282
      vertex 1.19959e-14 -54.0246 6.83283
    endloop
  endfacet
  facet normal -1 -2.22058e-16 -1.62896e-21
    outer loop
      vertex 1.19683e-14 -53.9005 6.9282
      vertex 1.21014e-14 -54.4999 7.79423
      vertex 1.16194e-14 -52.3293 8.69333
    endloop
  endfacet
  facet normal -1 -2.21994e-16 -1.4057e-20
    outer loop
      vertex 1.23355e-14 -55.5543 5.65685
      vertex 1.21014e-14 -54.4999 7.79423
      vertex 1.19959e-14 -54.0246 6.83283
    endloop
  endfacet
  facet normal -1 -2.22094e-16 -9.8138e-21
    outer loop
      vertex 1.25153e-14 -56.3639 6.36396
      vertex 1.23355e-14 -55.5543 5.65685
      vertex 1.23568e-14 -55.6502 5.53168
    endloop
  endfacet
  facet normal -1 -2.22066e-16 2.17124e-20
    outer loop
      vertex 1.23355e-14 -55.5543 5.65685
      vertex 1.25153e-14 -56.3639 6.36396
      vertex 1.21014e-14 -54.4999 7.79423
    endloop
  endfacet
  facet normal -1 -2.22073e-16 2.33994e-20
    outer loop
      vertex 1.28329e-14 -57.7942 4.5
      vertex 1.23568e-14 -55.6502 5.53168
      vertex 1.26173e-14 -56.8234 4
    endloop
  endfacet
  facet normal -1 -2.22141e-16 -1.09133e-19
    outer loop
      vertex 1.28329e-14 -57.7942 4.5
      vertex 1.26173e-14 -56.8234 4
      vertex 1.26308e-14 -56.8841 3.85306
    endloop
  endfacet
  facet normal -1 -2.21987e-16 -5.3826e-20
    outer loop
      vertex 1.30325e-14 -58.6933 2.32937
      vertex 1.26308e-14 -56.8841 3.85306
      vertex 1.27945e-14 -57.6211 2.07055
    endloop
  endfacet
  facet normal -1 -2.22068e-16 1.24687e-20
    outer loop
      vertex 1.23568e-14 -55.6502 5.53168
      vertex 1.28329e-14 -57.7942 4.5
      vertex 1.25153e-14 -56.3639 6.36396
    endloop
  endfacet
  facet normal -1 -2.21916e-16 2.39198e-19
    outer loop
      vertex 1.30325e-14 -58.6933 2.32937
      vertex 1.27945e-14 -57.6211 2.07055
      vertex 1.27991e-14 -57.642 1.91152
    endloop
  endfacet
  facet normal -1 -2.22011e-16 -1.60815e-20
    outer loop
      vertex 1.31006e-14 -58.9999 0
      vertex 1.27991e-14 -57.642 1.91152
      vertex 1.28549e-14 -57.8932 0
    endloop
  endfacet
  facet normal -1 -2.22049e-16 2.03938e-20
    outer loop
      vertex 1.26308e-14 -56.8841 3.85306
      vertex 1.30325e-14 -58.6933 2.32937
      vertex 1.28329e-14 -57.7942 4.5
    endloop
  endfacet
  facet normal -1 -2.22016e-16 -1.28406e-20
    outer loop
      vertex 1.27991e-14 -57.642 1.91152
      vertex 1.31006e-14 -58.9999 0
      vertex 1.30325e-14 -58.6933 2.32937
    endloop
  endfacet
  facet normal 0.639958 0.76841 -2.786e-05
    outer loop
      vertex 45.0956 -37.5671 2.32937
      vertex 45.3312 -37.7634 0
      vertex 44.4048 -36.9917 4.5
    endloop
  endfacet
  facet normal 0.640091 0.768299 -4.59923e-05
    outer loop
      vertex 41.8737 -34.8832 7.79423
      vertex 41.2951 -34.4012 6.99196
      vertex 40.6196 -33.8384 7.35685
    endloop
  endfacet
  facet normal 0.639944 0.768422 0.000134077
    outer loop
      vertex 41.2951 -34.4012 6.99196
      vertex 41.8737 -34.8832 7.79423
      vertex 41.3752 -34.4679 6.9487
    endloop
  endfacet
  facet normal 0.640057 0.768327 -3.04737e-05
    outer loop
      vertex 33.0322 -27.5177 4
      vertex 32.4277 -27.0141 4.5
      vertex 33.5585 -27.9561 4.89435
    endloop
  endfacet
  facet normal 0.640128 0.768268 0.000114912
    outer loop
      vertex 32.9841 -27.4776 3.84856
      vertex 32.4277 -27.0141 4.5
      vertex 33.0322 -27.5177 4
    endloop
  endfacet
  facet normal 0.640052 0.768331 5.46637e-06
    outer loop
      vertex 32.4277 -27.0141 4.5
      vertex 32.9841 -27.4776 3.84856
      vertex 32.6121 -27.1677 2.67746
    endloop
  endfacet
  facet normal 0.64006 0.768325 1.36162e-05
    outer loop
      vertex 43.3058 -36.0762 6.36396
      vertex 44.4048 -36.9917 4.5
      vertex 41.8737 -34.8832 7.79423
    endloop
  endfacet
  facet normal 0.640006 0.76837 -0.000261908
    outer loop
      vertex 40.206 -33.4938 8.69333
      vertex 41.8737 -34.8832 7.79423
      vertex 38.4162 -32.0029 9
    endloop
  endfacet
  facet normal 0.640037 0.768344 0.000164667
    outer loop
      vertex 36.6265 -30.512 8.69333
      vertex 38.4162 -32.0029 9
      vertex 34.9588 -29.1226 7.79423
    endloop
  endfacet
  facet normal 0.640079 0.768309 -3.90241e-05
    outer loop
      vertex 36.6335 -30.5178 7.66038
      vertex 34.9588 -29.1226 7.79423
      vertex 38.4162 -32.0029 9
    endloop
  endfacet
  facet normal 0.640078 0.76831 -5.15307e-05
    outer loop
      vertex 35.2779 -29.3885 6.9282
      vertex 34.9588 -29.1226 7.79423
      vertex 36.6335 -30.5178 7.66038
    endloop
  endfacet
  facet normal 0.640178 0.768227 1.08023e-05
    outer loop
      vertex 35.1765 -29.304 6.82675
      vertex 34.9588 -29.1226 7.79423
      vertex 35.2779 -29.3885 6.9282
    endloop
  endfacet
  facet normal 0.640066 0.76832 -3.18079e-05
    outer loop
      vertex 34.1278 -28.4304 5.7775
      vertex 34.9588 -29.1226 7.79423
      vertex 35.1765 -29.304 6.82675
    endloop
  endfacet
  facet normal 0.640084 0.768305 -4.41695e-05
    outer loop
      vertex 34.9588 -29.1226 7.79423
      vertex 34.1278 -28.4304 5.7775
      vertex 32.4277 -27.0141 4.5
    endloop
  endfacet
  facet normal 0.640081 0.768307 0.000103102
    outer loop
      vertex 39.9335 -33.2668 7.72741
      vertex 38.4162 -32.0029 9
      vertex 41.8737 -34.8832 7.79423
    endloop
  endfacet
  facet normal 0.64005 0.768333 3.26866e-06
    outer loop
      vertex 38.4162 -32.0029 9
      vertex 39.8063 -33.1609 7.74924
      vertex 38.3455 -31.944 8
    endloop
  endfacet
  facet normal 0.639776 0.768562 -0.000513426
    outer loop
      vertex 38.4162 -32.0029 9
      vertex 39.9335 -33.2668 7.72741
      vertex 39.8063 -33.1609 7.74924
    endloop
  endfacet
  facet normal 0.640083 0.768306 -6.30874e-06
    outer loop
      vertex 39.9335 -33.2668 7.72741
      vertex 41.8737 -34.8832 7.79423
      vertex 40.6196 -33.8384 7.35685
    endloop
  endfacet
  facet normal 0.640246 0.76817 -2.0158e-05
    outer loop
      vertex 38.2182 -31.8379 7.97814
      vertex 38.4162 -32.0029 9
      vertex 38.3455 -31.944 8
    endloop
  endfacet
  facet normal 0.640035 0.768346 4.92037e-05
    outer loop
      vertex 36.7576 -30.6212 7.72741
      vertex 38.4162 -32.0029 9
      vertex 38.2182 -31.8379 7.97814
    endloop
  endfacet
  facet normal 0.641132 0.767427 -0.0023793
    outer loop
      vertex 36.6391 -30.5224 7.66337
      vertex 38.4162 -32.0029 9
      vertex 36.7576 -30.6212 7.72741
    endloop
  endfacet
  facet normal 0.620739 0.782898 0.0418704
    outer loop
      vertex 38.4162 -32.0029 9
      vertex 36.6391 -30.5224 7.66337
      vertex 36.6335 -30.5178 7.66038
    endloop
  endfacet
  facet normal 0.640042 0.76834 4.00917e-05
    outer loop
      vertex 32.4277 -27.0141 4.5
      vertex 33.93 -28.2656 5.52556
      vertex 33.5585 -27.9561 4.89435
    endloop
  endfacet
  facet normal 0.639702 0.768623 0.000817095
    outer loop
      vertex 34.0072 -28.3299 5.65685
      vertex 32.4277 -27.0141 4.5
      vertex 34.1278 -28.4304 5.7775
    endloop
  endfacet
  facet normal 0.640106 0.768287 -0.000116547
    outer loop
      vertex 33.93 -28.2656 5.52556
      vertex 32.4277 -27.0141 4.5
      vertex 34.0072 -28.3299 5.65685
    endloop
  endfacet
  facet normal 0.639947 0.768419 0.000133968
    outer loop
      vertex 33.5266 -27.9296 6.36396
      vertex 34.9588 -29.1226 7.79423
      vertex 32.4277 -27.0141 4.5
    endloop
  endfacet
  facet normal 0.640184 0.768221 0
    outer loop
      vertex 32.4193 -27.0071 2.07055
      vertex 32.4277 -27.0141 4.5
      vertex 32.4277 -27.0141 2.09712
    endloop
  endfacet
  facet normal 0.639993 0.768381 3.27684e-05
    outer loop
      vertex 31.5013 -26.2424 0
      vertex 32.4193 -27.0071 2.07055
      vertex 32.4031 -26.9936 1.90987
    endloop
  endfacet
  facet normal 0.640024 0.768355 7.25277e-06
    outer loop
      vertex 31.5013 -26.2424 0
      vertex 32.4031 -26.9936 1.90987
      vertex 32.2102 -26.8329 0
    endloop
  endfacet
  facet normal 0.640035 0.768346 8.74997e-07
    outer loop
      vertex 32.4193 -27.0071 2.07055
      vertex 31.5013 -26.2424 0
      vertex 32.4277 -27.0141 4.5
    endloop
  endfacet
  facet normal 0.639958 0.76841 2.786e-05
    outer loop
      vertex 31.7369 -26.4387 2.32937
      vertex 32.4277 -27.0141 4.5
      vertex 31.5013 -26.2424 0
    endloop
  endfacet
  facet normal 0.64002 0.768358 0
    outer loop
      vertex 32.4277 -27.0141 4.5
      vertex 32.6121 -27.1677 2.67746
      vertex 32.4277 -27.0141 2.09712
    endloop
  endfacet
  facet normal 0.639555 0.768745 0.000522791
    outer loop
      vertex 41.8737 -34.8832 7.79423
      vertex 41.4132 -34.4995 6.9282
      vertex 41.3752 -34.4679 6.9487
    endloop
  endfacet
  facet normal 0.640135 0.768262 0
    outer loop
      vertex 41.4132 -34.4995 6.9282
      vertex 41.8737 -34.8832 7.79423
      vertex 41.8737 -34.8832 6.46742
    endloop
  endfacet
  facet normal 0.640014 0.768363 0
    outer loop
      vertex 41.8737 -34.8832 7.79423
      vertex 42.5831 -35.4741 5.7577
      vertex 41.8737 -34.8832 6.46742
    endloop
  endfacet
  facet normal 0.64016 0.768241 8.64688e-05
    outer loop
      vertex 41.8737 -34.8832 7.79423
      vertex 42.6838 -35.558 5.65685
      vertex 42.5831 -35.4741 5.7577
    endloop
  endfacet
  facet normal 0.640074 0.768314 3.07099e-05
    outer loop
      vertex 44.4048 -36.9917 4.5
      vertex 42.6838 -35.558 5.65685
      vertex 41.8737 -34.8832 7.79423
    endloop
  endfacet
  facet normal 0.640075 0.768313 3.31057e-05
    outer loop
      vertex 44.4048 -36.9917 4.5
      vertex 43.5821 -36.3063 4.1305
      vertex 42.6838 -35.558 5.65685
    endloop
  endfacet
  facet normal 0.640104 0.768288 -7.96928e-05
    outer loop
      vertex 44.4048 -36.9917 4.5
      vertex 43.6589 -36.3703 4
      vertex 43.5821 -36.3063 4.1305
    endloop
  endfacet
  facet normal 0.640076 0.768312 -6.47234e-06
    outer loop
      vertex 43.6589 -36.3703 4
      vertex 44.4048 -36.9917 4.5
      vertex 44.049 -36.6953 2.77189
    endloop
  endfacet
  facet normal 0.640056 0.768329 4.62719e-07
    outer loop
      vertex 44.4048 -36.9917 4.5
      vertex 44.2239 -36.841 2.22132
      vertex 44.049 -36.6953 2.77189
    endloop
  endfacet
  facet normal 0.640033 0.768347 3.4919e-06
    outer loop
      vertex 44.4048 -36.9917 4.5
      vertex 44.2718 -36.8809 2.07055
      vertex 44.2239 -36.841 2.22132
    endloop
  endfacet
  facet normal 0.640045 0.768338 2.43245e-06
    outer loop
      vertex 45.3312 -37.7634 0
      vertex 44.2718 -36.8809 2.07055
      vertex 44.4048 -36.9917 4.5
    endloop
  endfacet
  facet normal 0.640045 0.768337 3.00829e-06
    outer loop
      vertex 44.2718 -36.8809 2.07055
      vertex 45.3312 -37.7634 0
      vertex 44.4646 -37.0415 0.160425
    endloop
  endfacet
  facet normal 0.640042 0.76834 -2.433e-05
    outer loop
      vertex 44.4646 -37.0415 0.160425
      vertex 45.3312 -37.7634 0
      vertex 44.4808 -37.055 0
    endloop
  endfacet
  facet normal -0.108385 0.985602 0.129771
    outer loop
      vertex 9.17191e-15 -41.3066 2.32937
      vertex 8.97624 -40.3195 2.32937
      vertex 9.10381e-15 -40.9999 0
    endloop
  endfacet
  facet normal -0.108377 0.985607 0.129741
    outer loop
      vertex 8.97624 -40.3195 2.32937
      vertex 8.9096 -40.0202 0
      vertex 9.10381e-15 -40.9999 0
    endloop
  endfacet
  facet normal -0.101078 0.919149 0.380722
    outer loop
      vertex 9.37155e-15 -42.2057 4.5
      vertex 9.17162 -41.1971 4.5
      vertex 9.17191e-15 -41.3066 2.32937
    endloop
  endfacet
  facet normal -0.101077 0.919151 0.380717
    outer loop
      vertex 9.17162 -41.1971 4.5
      vertex 8.97624 -40.3195 2.32937
      vertex 9.17191e-15 -41.3066 2.32937
    endloop
  endfacet
  facet normal -0.0869156 0.790344 0.606467
    outer loop
      vertex 9.68913e-15 -43.636 6.36396
      vertex 9.48243 -42.5932 6.36396
      vertex 9.37155e-15 -42.2057 4.5
    endloop
  endfacet
  facet normal -0.0869144 0.790348 0.606461
    outer loop
      vertex 9.48243 -42.5932 6.36396
      vertex 9.17162 -41.1971 4.5
      vertex 9.37155e-15 -42.2057 4.5
    endloop
  endfacet
  facet normal -0.0667958 0.607415 0.791571
    outer loop
      vertex 1.0103e-14 -45.4999 7.79423
      vertex 9.88749 -44.4126 7.79423
      vertex 9.68913e-15 -43.636 6.36396
    endloop
  endfacet
  facet normal -0.0667975 0.607406 0.791578
    outer loop
      vertex 9.88749 -44.4126 7.79423
      vertex 9.48243 -42.5932 6.36396
      vertex 9.68913e-15 -43.636 6.36396
    endloop
  endfacet
  facet normal -0.0420451 0.382333 0.923068
    outer loop
      vertex 1.0585e-14 -47.6706 8.69333
      vertex 10.3592 -46.5314 8.69333
      vertex 1.0103e-14 -45.4999 7.79423
    endloop
  endfacet
  facet normal -0.0420445 0.382337 0.923066
    outer loop
      vertex 10.3592 -46.5314 8.69333
      vertex 9.88749 -44.4126 7.79423
      vertex 1.0103e-14 -45.4999 7.79423
    endloop
  endfacet
  facet normal -0.0143522 0.130518 0.991342
    outer loop
      vertex 1.11022e-14 -49.9999 9
      vertex 10.8654 -48.8051 9
      vertex 1.0585e-14 -47.6706 8.69333
    endloop
  endfacet
  facet normal -0.0143526 0.130514 0.991343
    outer loop
      vertex 10.8654 -48.8051 9
      vertex 10.3592 -46.5314 8.69333
      vertex 1.0585e-14 -47.6706 8.69333
    endloop
  endfacet
  facet normal 0.014352 -0.130512 0.991343
    outer loop
      vertex 1.16194e-14 -52.3293 8.69333
      vertex 11.3716 -51.0788 8.69333
      vertex 1.11022e-14 -49.9999 9
    endloop
  endfacet
  facet normal 0.0143518 -0.130514 0.991343
    outer loop
      vertex 11.3716 -51.0788 8.69333
      vertex 10.8654 -48.8051 9
      vertex 1.11022e-14 -49.9999 9
    endloop
  endfacet
  facet normal 0.0420433 -0.382348 0.923061
    outer loop
      vertex 1.21014e-14 -54.4999 7.79423
      vertex 11.8433 -53.1976 7.79423
      vertex 1.16194e-14 -52.3293 8.69333
    endloop
  endfacet
  facet normal 0.0420445 -0.382337 0.923066
    outer loop
      vertex 11.8433 -53.1976 7.79423
      vertex 11.3716 -51.0788 8.69333
      vertex 1.16194e-14 -52.3293 8.69333
    endloop
  endfacet
  facet normal 0.0667929 -0.607395 0.791587
    outer loop
      vertex 1.25153e-14 -56.3639 6.36396
      vertex 12.2483 -55.017 6.36396
      vertex 1.21014e-14 -54.4999 7.79423
    endloop
  endfacet
  facet normal 0.0667912 -0.607408 0.791577
    outer loop
      vertex 12.2483 -55.017 6.36396
      vertex 11.8433 -53.1976 7.79423
      vertex 1.21014e-14 -54.4999 7.79423
    endloop
  endfacet
  facet normal 0.0869127 -0.790344 0.606467
    outer loop
      vertex 1.28329e-14 -57.7942 4.5
      vertex 12.5591 -56.4131 4.5
      vertex 1.25153e-14 -56.3639 6.36396
    endloop
  endfacet
  facet normal 0.0869118 -0.790349 0.606461
    outer loop
      vertex 12.5591 -56.4131 4.5
      vertex 12.2483 -55.017 6.36396
      vertex 1.25153e-14 -56.3639 6.36396
    endloop
  endfacet
  facet normal 0.101078 -0.919149 0.380722
    outer loop
      vertex 1.30325e-14 -58.6933 2.32937
      vertex 12.7545 -57.2907 2.32937
      vertex 1.28329e-14 -57.7942 4.5
    endloop
  endfacet
  facet normal 0.101077 -0.91915 0.380718
    outer loop
      vertex 12.7545 -57.2907 2.32937
      vertex 12.5591 -56.4131 4.5
      vertex 1.28329e-14 -57.7942 4.5
    endloop
  endfacet
  facet normal 0.108385 -0.985608 0.129729
    outer loop
      vertex 1.31006e-14 -58.9999 0
      vertex 12.8211 -57.59 0
      vertex 1.30325e-14 -58.6933 2.32937
    endloop
  endfacet
  facet normal 0.108386 -0.985607 0.129739
    outer loop
      vertex 12.8211 -57.59 0
      vertex 12.7545 -57.2907 2.32937
      vertex 1.30325e-14 -58.6933 2.32937
    endloop
  endfacet
  facet normal -0.319972 0.938501 0.129742
    outer loop
      vertex 8.97624 -40.3195 2.32937
      vertex 17.5235 -37.4054 2.32937
      vertex 8.9096 -40.0202 0
    endloop
  endfacet
  facet normal -0.319975 0.938498 0.129756
    outer loop
      vertex 17.5235 -37.4054 2.32937
      vertex 17.3934 -37.1277 0
      vertex 8.9096 -40.0202 0
    endloop
  endfacet
  facet normal -0.298396 0.875222 0.380717
    outer loop
      vertex 9.17162 -41.1971 4.5
      vertex 17.9049 -38.2196 4.5
      vertex 8.97624 -40.3195 2.32937
    endloop
  endfacet
  facet normal -0.298397 0.875219 0.380724
    outer loop
      vertex 17.9049 -38.2196 4.5
      vertex 17.5235 -37.4054 2.32937
      vertex 8.97624 -40.3195 2.32937
    endloop
  endfacet
  facet normal -0.25658 0.752576 0.606461
    outer loop
      vertex 9.48243 -42.5932 6.36396
      vertex 18.5117 -39.5148 6.36396
      vertex 9.17162 -41.1971 4.5
    endloop
  endfacet
  facet normal -0.25658 0.752574 0.606465
    outer loop
      vertex 18.5117 -39.5148 6.36396
      vertex 17.9049 -38.2196 4.5
      vertex 9.17162 -41.1971 4.5
    endloop
  endfacet
  facet normal -0.19719 0.578376 0.791579
    outer loop
      vertex 9.88749 -44.4126 7.79423
      vertex 19.3024 -41.2027 7.79423
      vertex 9.48243 -42.5932 6.36396
    endloop
  endfacet
  facet normal -0.197191 0.57838 0.791576
    outer loop
      vertex 19.3024 -41.2027 7.79423
      vertex 18.5117 -39.5148 6.36396
      vertex 9.48243 -42.5932 6.36396
    endloop
  endfacet
  facet normal -0.124125 0.364063 0.923066
    outer loop
      vertex 10.3592 -46.5314 8.69333
      vertex 20.2233 -43.1683 8.69333
      vertex 9.88749 -44.4126 7.79423
    endloop
  endfacet
  facet normal -0.124126 0.364071 0.923063
    outer loop
      vertex 20.2233 -43.1683 8.69333
      vertex 19.3024 -41.2027 7.79423
      vertex 9.88749 -44.4126 7.79423
    endloop
  endfacet
  facet normal -0.0423711 0.124276 0.991343
    outer loop
      vertex 10.8654 -48.8051 9
      vertex 21.2114 -45.2777 9
      vertex 10.3592 -46.5314 8.69333
    endloop
  endfacet
  facet normal -0.0423711 0.124276 0.991343
    outer loop
      vertex 21.2114 -45.2777 9
      vertex 20.2233 -43.1683 8.69333
      vertex 10.3592 -46.5314 8.69333
    endloop
  endfacet
  facet normal 0.0423718 -0.124276 0.991343
    outer loop
      vertex 11.3716 -51.0788 8.69333
      vertex 22.1996 -47.387 8.69333
      vertex 10.8654 -48.8051 9
    endloop
  endfacet
  facet normal 0.0423723 -0.124279 0.991342
    outer loop
      vertex 22.1996 -47.387 8.69333
      vertex 21.2114 -45.2777 9
      vertex 10.8654 -48.8051 9
    endloop
  endfacet
  facet normal 0.124126 -0.364064 0.923066
    outer loop
      vertex 11.8433 -53.1976 7.79423
      vertex 23.1205 -49.3527 7.79423
      vertex 11.3716 -51.0788 8.69333
    endloop
  endfacet
  facet normal 0.124125 -0.364056 0.923069
    outer loop
      vertex 23.1205 -49.3527 7.79423
      vertex 22.1996 -47.387 8.69333
      vertex 11.3716 -51.0788 8.69333
    endloop
  endfacet
  facet normal 0.197195 -0.578379 0.791576
    outer loop
      vertex 12.2483 -55.017 6.36396
      vertex 23.9112 -51.0406 6.36396
      vertex 11.8433 -53.1976 7.79423
    endloop
  endfacet
  facet normal 0.197195 -0.578379 0.791576
    outer loop
      vertex 23.9112 -51.0406 6.36396
      vertex 23.1205 -49.3527 7.79423
      vertex 11.8433 -53.1976 7.79423
    endloop
  endfacet
  facet normal 0.256585 -0.752576 0.60646
    outer loop
      vertex 12.5591 -56.4131 4.5
      vertex 24.518 -52.3358 4.5
      vertex 12.2483 -55.017 6.36396
    endloop
  endfacet
  facet normal 0.256585 -0.752572 0.606465
    outer loop
      vertex 24.518 -52.3358 4.5
      vertex 23.9112 -51.0406 6.36396
      vertex 12.2483 -55.017 6.36396
    endloop
  endfacet
  facet normal 0.298399 -0.87522 0.380719
    outer loop
      vertex 12.7545 -57.2907 2.32937
      vertex 24.8994 -53.15 2.32937
      vertex 12.5591 -56.4131 4.5
    endloop
  endfacet
  facet normal 0.298399 -0.875218 0.380725
    outer loop
      vertex 24.8994 -53.15 2.32937
      vertex 24.518 -52.3358 4.5
      vertex 12.5591 -56.4131 4.5
    endloop
  endfacet
  facet normal 0.319971 -0.938503 0.129736
    outer loop
      vertex 12.8211 -57.59 0
      vertex 25.0295 -53.4277 0
      vertex 12.7545 -57.2907 2.32937
    endloop
  endfacet
  facet normal 0.319973 -0.938499 0.129756
    outer loop
      vertex 25.0295 -53.4277 0
      vertex 24.8994 -53.15 2.32937
      vertex 12.7545 -57.2907 2.32937
    endloop
  endfacet
  facet normal -0.516275 0.846536 0.129756
    outer loop
      vertex 17.5235 -37.4054 2.32937
      vertex 25.2332 -32.7035 2.32937
      vertex 17.3934 -37.1277 0
    endloop
  endfacet
  facet normal -0.516274 0.846537 0.129751
    outer loop
      vertex 25.2332 -32.7035 2.32937
      vertex 25.0459 -32.4607 0
      vertex 17.3934 -37.1277 0
    endloop
  endfacet
  facet normal -0.481462 0.789459 0.380722
    outer loop
      vertex 17.9049 -38.2196 4.5
      vertex 25.7824 -33.4154 4.5
      vertex 17.5235 -37.4054 2.32937
    endloop
  endfacet
  facet normal -0.481462 0.789453 0.380733
    outer loop
      vertex 25.7824 -33.4154 4.5
      vertex 25.2332 -32.7035 2.32937
      vertex 17.5235 -37.4054 2.32937
    endloop
  endfacet
  facet normal -0.413991 0.67883 0.606467
    outer loop
      vertex 18.5117 -39.5148 6.36396
      vertex 26.6562 -34.5478 6.36396
      vertex 17.9049 -38.2196 4.5
    endloop
  endfacet
  facet normal -0.41399 0.678824 0.606474
    outer loop
      vertex 26.6562 -34.5478 6.36396
      vertex 25.7824 -33.4154 4.5
      vertex 17.9049 -38.2196 4.5
    endloop
  endfacet
  facet normal -0.31817 0.521707 0.791575
    outer loop
      vertex 19.3024 -41.2027 7.79423
      vertex 27.7948 -36.0235 7.79423
      vertex 18.5117 -39.5148 6.36396
    endloop
  endfacet
  facet normal -0.318171 0.521712 0.791571
    outer loop
      vertex 27.7948 -36.0235 7.79423
      vertex 26.6562 -34.5478 6.36396
      vertex 18.5117 -39.5148 6.36396
    endloop
  endfacet
  facet normal -0.200277 0.328394 0.923064
    outer loop
      vertex 20.2233 -43.1683 8.69333
      vertex 29.1208 -37.742 8.69333
      vertex 19.3024 -41.2027 7.79423
    endloop
  endfacet
  facet normal -0.200279 0.3284 0.923061
    outer loop
      vertex 29.1208 -37.742 8.69333
      vertex 27.7948 -36.0235 7.79423
      vertex 19.3024 -41.2027 7.79423
    endloop
  endfacet
  facet normal -0.0683652 0.1121 0.991342
    outer loop
      vertex 21.2114 -45.2777 9
      vertex 30.5437 -39.5863 9
      vertex 20.2233 -43.1683 8.69333
    endloop
  endfacet
  facet normal -0.0683641 0.112097 0.991343
    outer loop
      vertex 30.5437 -39.5863 9
      vertex 29.1208 -37.742 8.69333
      vertex 20.2233 -43.1683 8.69333
    endloop
  endfacet
  facet normal 0.0683656 -0.112102 0.991342
    outer loop
      vertex 22.1996 -47.387 8.69333
      vertex 31.9667 -41.4305 8.69333
      vertex 21.2114 -45.2777 9
    endloop
  endfacet
  facet normal 0.0683645 -0.112099 0.991343
    outer loop
      vertex 31.9667 -41.4305 8.69333
      vertex 30.5437 -39.5863 9
      vertex 21.2114 -45.2777 9
    endloop
  endfacet
  facet normal 0.20027 -0.328383 0.923069
    outer loop
      vertex 23.1205 -49.3527 7.79423
      vertex 33.2927 -43.149 7.79423
      vertex 22.1996 -47.387 8.69333
    endloop
  endfacet
  facet normal 0.200277 -0.328401 0.923061
    outer loop
      vertex 33.2927 -43.149 7.79423
      vertex 31.9667 -41.4305 8.69333
      vertex 22.1996 -47.387 8.69333
    endloop
  endfacet
  facet normal 0.318169 -0.521707 0.791575
    outer loop
      vertex 23.9112 -51.0406 6.36396
      vertex 34.4313 -44.6248 6.36396
      vertex 23.1205 -49.3527 7.79423
    endloop
  endfacet
  facet normal 0.318165 -0.521695 0.791584
    outer loop
      vertex 34.4313 -44.6248 6.36396
      vertex 33.2927 -43.149 7.79423
      vertex 23.1205 -49.3527 7.79423
    endloop
  endfacet
  facet normal 0.413993 -0.678828 0.606467
    outer loop
      vertex 24.518 -52.3358 4.5
      vertex 35.305 -45.7572 4.5
      vertex 23.9112 -51.0406 6.36396
    endloop
  endfacet
  facet normal 0.413994 -0.678833 0.60646
    outer loop
      vertex 35.305 -45.7572 4.5
      vertex 34.4313 -44.6248 6.36396
      vertex 23.9112 -51.0406 6.36396
    endloop
  endfacet
  facet normal 0.481462 -0.789458 0.380722
    outer loop
      vertex 24.8994 -53.15 2.32937
      vertex 35.8543 -46.469 2.32937
      vertex 24.518 -52.3358 4.5
    endloop
  endfacet
  facet normal 0.481462 -0.789459 0.380721
    outer loop
      vertex 35.8543 -46.469 2.32937
      vertex 35.305 -45.7572 4.5
      vertex 24.518 -52.3358 4.5
    endloop
  endfacet
  facet normal 0.516274 -0.846537 0.129756
    outer loop
      vertex 25.0295 -53.4277 0
      vertex 36.0416 -46.7118 0
      vertex 24.8994 -53.15 2.32937
    endloop
  endfacet
  facet normal 0.516273 -0.846538 0.129751
    outer loop
      vertex 36.0416 -46.7118 0
      vertex 35.8543 -46.469 2.32937
      vertex 24.8994 -53.15 2.32937
    endloop
  endfacet
  facet normal -0.687891 0.714123 0.129748
    outer loop
      vertex 25.2332 -32.7035 2.32937
      vertex 31.7369 -26.4387 2.32937
      vertex 25.0459 -32.4607 0
    endloop
  endfacet
  facet normal -0.687892 0.714121 0.129756
    outer loop
      vertex 31.7369 -26.4387 2.32937
      vertex 31.5013 -26.2424 0
      vertex 25.0459 -32.4607 0
    endloop
  endfacet
  facet normal -0.641512 0.665965 0.380728
    outer loop
      vertex 25.7824 -33.4154 4.5
      vertex 32.4277 -27.0141 4.5
      vertex 25.2332 -32.7035 2.32937
    endloop
  endfacet
  facet normal -0.641514 0.665978 0.380701
    outer loop
      vertex 32.4277 -27.0141 4.5
      vertex 31.7369 -26.4387 2.32937
      vertex 25.2332 -32.7035 2.32937
    endloop
  endfacet
  facet normal -0.551613 0.572633 0.606477
    outer loop
      vertex 26.6562 -34.5478 6.36396
      vertex 33.5266 -27.9296 6.36396
      vertex 25.7824 -33.4154 4.5
    endloop
  endfacet
  facet normal -0.551617 0.572643 0.606465
    outer loop
      vertex 33.5266 -27.9296 6.36396
      vertex 32.4277 -27.0141 4.5
      vertex 25.7824 -33.4154 4.5
    endloop
  endfacet
  facet normal -0.42394 0.440103 0.79157
    outer loop
      vertex 27.7948 -36.0235 7.79423
      vertex 34.9588 -29.1226 7.79423
      vertex 26.6562 -34.5478 6.36396
    endloop
  endfacet
  facet normal -0.423932 0.440087 0.791584
    outer loop
      vertex 34.9588 -29.1226 7.79423
      vertex 33.5266 -27.9296 6.36396
      vertex 26.6562 -34.5478 6.36396
    endloop
  endfacet
  facet normal -0.266854 0.27703 0.923062
    outer loop
      vertex 29.1208 -37.742 8.69333
      vertex 36.6265 -30.512 8.69333
      vertex 27.7948 -36.0235 7.79423
    endloop
  endfacet
  facet normal -0.266851 0.277025 0.923064
    outer loop
      vertex 36.6265 -30.512 8.69333
      vertex 34.9588 -29.1226 7.79423
      vertex 27.7948 -36.0235 7.79423
    endloop
  endfacet
  facet normal -0.0910904 0.094563 0.991343
    outer loop
      vertex 30.5437 -39.5863 9
      vertex 38.4162 -32.0029 9
      vertex 29.1208 -37.742 8.69333
    endloop
  endfacet
  facet normal -0.0910919 0.0945655 0.991342
    outer loop
      vertex 38.4162 -32.0029 9
      vertex 36.6265 -30.512 8.69333
      vertex 29.1208 -37.742 8.69333
    endloop
  endfacet
  facet normal 0.0910903 -0.0945633 0.991343
    outer loop
      vertex 31.9667 -41.4305 8.69333
      vertex 40.206 -33.4938 8.69333
      vertex 30.5437 -39.5863 9
    endloop
  endfacet
  facet normal 0.0910897 -0.0945622 0.991343
    outer loop
      vertex 40.206 -33.4938 8.69333
      vertex 38.4162 -32.0029 9
      vertex 30.5437 -39.5863 9
    endloop
  endfacet
  facet normal 0.266854 -0.27703 0.923062
    outer loop
      vertex 33.2927 -43.149 7.79423
      vertex 41.8737 -34.8832 7.79423
      vertex 31.9667 -41.4305 8.69333
    endloop
  endfacet
  facet normal 0.266851 -0.277025 0.923064
    outer loop
      vertex 41.8737 -34.8832 7.79423
      vertex 40.206 -33.4938 8.69333
      vertex 31.9667 -41.4305 8.69333
    endloop
  endfacet
  facet normal 0.423931 -0.440092 0.791582
    outer loop
      vertex 34.4313 -44.6248 6.36396
      vertex 43.3058 -36.0762 6.36396
      vertex 33.2927 -43.149 7.79423
    endloop
  endfacet
  facet normal 0.423937 -0.440103 0.791573
    outer loop
      vertex 43.3058 -36.0762 6.36396
      vertex 41.8737 -34.8832 7.79423
      vertex 33.2927 -43.149 7.79423
    endloop
  endfacet
  facet normal 0.551614 -0.572651 0.606459
    outer loop
      vertex 35.305 -45.7572 4.5
      vertex 44.4048 -36.9917 4.5
      vertex 34.4313 -44.6248 6.36396
    endloop
  endfacet
  facet normal 0.551605 -0.572634 0.606483
    outer loop
      vertex 44.4048 -36.9917 4.5
      vertex 43.3058 -36.0762 6.36396
      vertex 34.4313 -44.6248 6.36396
    endloop
  endfacet
  facet normal 0.641509 -0.665968 0.380727
    outer loop
      vertex 35.8543 -46.469 2.32937
      vertex 45.0956 -37.5671 2.32937
      vertex 35.305 -45.7572 4.5
    endloop
  endfacet
  facet normal 0.641513 -0.665979 0.380701
    outer loop
      vertex 45.0956 -37.5671 2.32937
      vertex 44.4048 -36.9917 4.5
      vertex 35.305 -45.7572 4.5
    endloop
  endfacet
  facet normal 0.687892 -0.714122 0.129748
    outer loop
      vertex 36.0416 -46.7118 0
      vertex 45.3312 -37.7634 0
      vertex 35.8543 -46.469 2.32937
    endloop
  endfacet
  facet normal 0.687893 -0.71412 0.129756
    outer loop
      vertex 45.3312 -37.7634 0
      vertex 45.0956 -37.5671 2.32937
      vertex 35.8543 -46.469 2.32937
    endloop
  endfacet
  facet normal 0.0954774 -0.986948 -0.129681
    outer loop
      vertex 9.36911e-15 -42.1947 2.07055
      vertex 9.31333e-15 -41.9435 0.158778
      vertex 8.82572 -41.3409 2.07055
    endloop
  endfacet
  facet normal 0.095464 -0.98692 -0.129909
    outer loop
      vertex 8.76881 -41.0744 0
      vertex 9.31333e-15 -41.9435 0.158778
      vertex 9.30869e-15 -41.9226 0
    endloop
  endfacet
  facet normal 0.0954718 -0.986952 -0.129654
    outer loop
      vertex 9.31333e-15 -41.9435 0.158778
      vertex 8.76881 -41.0744 0
      vertex 8.82572 -41.3409 2.07055
    endloop
  endfacet
  facet normal 0.08905 -0.920448 -0.380586
    outer loop
      vertex 9.54624e-15 -42.9925 4
      vertex 9.38254e-15 -42.2552 2.21684
      vertex 8.99258 -42.1225 4
    endloop
  endfacet
  facet normal 0.0890416 -0.920422 -0.380652
    outer loop
      vertex 8.82572 -41.3409 2.07055
      vertex 9.38254e-15 -42.2552 2.21684
      vertex 9.36911e-15 -42.1947 2.07055
    endloop
  endfacet
  facet normal 0.0890465 -0.920456 -0.380568
    outer loop
      vertex 9.38254e-15 -42.2552 2.21684
      vertex 8.82572 -41.3409 2.07055
      vertex 8.99258 -42.1225 4
    endloop
  endfacet
  facet normal 0.076572 -0.791541 -0.606299
    outer loop
      vertex 9.82802e-15 -44.2615 5.65685
      vertex 9.5674e-15 -43.0877 4.12442
      vertex 9.25801 -43.3659 5.65685
    endloop
  endfacet
  facet normal 0.076609 -0.791854 -0.605887
    outer loop
      vertex 8.99258 -42.1225 4
      vertex 9.5674e-15 -43.0877 4.12442
      vertex 9.54624e-15 -42.9925 4
    endloop
  endfacet
  facet normal 0.0765706 -0.791547 -0.606292
    outer loop
      vertex 9.5674e-15 -43.0877 4.12442
      vertex 8.99258 -42.1225 4
      vertex 9.25801 -43.3659 5.65685
    endloop
  endfacet
  facet normal 0.058858 -0.608404 -0.791442
    outer loop
      vertex 1.01952e-14 -45.9153 6.9282
      vertex 9.8554e-15 -44.3848 5.75166
      vertex 9.60393 -44.9862 6.9282
    endloop
  endfacet
  facet normal 0.0588555 -0.608421 -0.791429
    outer loop
      vertex 9.8554e-15 -44.3848 5.75166
      vertex 9.25801 -43.3659 5.65685
      vertex 9.60393 -44.9862 6.9282
    endloop
  endfacet
  facet normal 0.0588657 -0.608508 -0.791362
    outer loop
      vertex 9.25801 -43.3659 5.65685
      vertex 9.8554e-15 -44.3848 5.75166
      vertex 9.82802e-15 -44.2615 5.65685
    endloop
  endfacet
  facet normal 0.0370546 -0.383016 -0.922998
    outer loop
      vertex 1.06229e-14 -47.8412 7.72741
      vertex 1.0227e-14 -46.0583 6.98756
      vertex 10.0068 -46.8731 7.72741
    endloop
  endfacet
  facet normal 0.0370532 -0.383029 -0.922993
    outer loop
      vertex 1.0227e-14 -46.0583 6.98756
      vertex 9.60393 -44.9862 6.9282
      vertex 10.0068 -46.8731 7.72741
    endloop
  endfacet
  facet normal 0.0370639 -0.383123 -0.922954
    outer loop
      vertex 9.60393 -44.9862 6.9282
      vertex 1.0227e-14 -46.0583 6.98756
      vertex 1.01952e-14 -45.9153 6.9282
    endloop
  endfacet
  facet normal 0.0126493 -0.130753 -0.991334
    outer loop
      vertex 1.10818e-14 -49.9079 8
      vertex 1.06569e-14 -47.9945 7.74763
      vertex 10.4391 -48.898 8
    endloop
  endfacet
  facet normal 0.0126494 -0.130752 -0.991334
    outer loop
      vertex 1.06569e-14 -47.9945 7.74763
      vertex 10.0068 -46.8731 7.72741
      vertex 10.4391 -48.898 8
    endloop
  endfacet
  facet normal 0.0126498 -0.130755 -0.991334
    outer loop
      vertex 10.0068 -46.8731 7.72741
      vertex 1.06569e-14 -47.9945 7.74763
      vertex 1.06229e-14 -47.8412 7.72741
    endloop
  endfacet
  facet normal -0.0126485 0.130758 -0.991334
    outer loop
      vertex 1.15407e-14 -51.9746 7.72741
      vertex 1.11159e-14 -50.0615 7.97975
      vertex 10.8713 -50.923 7.72741
    endloop
  endfacet
  facet normal -0.0126494 0.130746 -0.991335
    outer loop
      vertex 1.11159e-14 -50.0615 7.97975
      vertex 10.4391 -48.898 8
      vertex 10.8713 -50.923 7.72741
    endloop
  endfacet
  facet normal -0.0126437 0.130695 -0.991342
    outer loop
      vertex 10.4391 -48.898 8
      vertex 1.11159e-14 -50.0615 7.97975
      vertex 1.10818e-14 -49.9079 8
    endloop
  endfacet
  facet normal -0.0370521 0.38303 -0.922993
    outer loop
      vertex 1.19683e-14 -53.9005 6.9282
      vertex 1.15726e-14 -52.1183 7.66779
      vertex 11.2742 -52.8099 6.9282
    endloop
  endfacet
  facet normal -0.0370522 0.383029 -0.922993
    outer loop
      vertex 1.15726e-14 -52.1183 7.66779
      vertex 10.8713 -50.923 7.72741
      vertex 11.2742 -52.8099 6.9282
    endloop
  endfacet
  facet normal -0.0370439 0.382955 -0.923024
    outer loop
      vertex 10.8713 -50.923 7.72741
      vertex 1.15726e-14 -52.1183 7.66779
      vertex 1.15407e-14 -51.9746 7.72741
    endloop
  endfacet
  facet normal -0.0588573 0.608422 -0.791428
    outer loop
      vertex 1.23355e-14 -55.5543 5.65685
      vertex 1.19959e-14 -54.0246 6.83283
      vertex 11.6201 -54.4302 5.65685
    endloop
  endfacet
  facet normal -0.0588574 0.608421 -0.791429
    outer loop
      vertex 1.19959e-14 -54.0246 6.83283
      vertex 11.2742 -52.8099 6.9282
      vertex 11.6201 -54.4302 5.65685
    endloop
  endfacet
  facet normal -0.0588422 0.608287 -0.791533
    outer loop
      vertex 11.2742 -52.8099 6.9282
      vertex 1.19959e-14 -54.0246 6.83283
      vertex 1.19683e-14 -53.9005 6.9282
    endloop
  endfacet
  facet normal -0.0765741 0.791548 -0.606291
    outer loop
      vertex 1.26173e-14 -56.8234 4
      vertex 1.23568e-14 -55.6502 5.53168
      vertex 11.8855 -55.6736 4
    endloop
  endfacet
  facet normal -0.076565 0.791471 -0.606392
    outer loop
      vertex 11.6201 -54.4302 5.65685
      vertex 1.23568e-14 -55.6502 5.53168
      vertex 1.23355e-14 -55.5543 5.65685
    endloop
  endfacet
  facet normal -0.0765741 0.791548 -0.606291
    outer loop
      vertex 1.23568e-14 -55.6502 5.53168
      vertex 11.6201 -54.4302 5.65685
      vertex 11.8855 -55.6736 4
    endloop
  endfacet
  facet normal -0.089041 0.920454 -0.380573
    outer loop
      vertex 1.27945e-14 -57.6211 2.07055
      vertex 1.26308e-14 -56.8841 3.85306
      vertex 12.0524 -56.4552 2.07055
    endloop
  endfacet
  facet normal -0.0890559 0.920573 -0.380283
    outer loop
      vertex 11.8855 -55.6736 4
      vertex 1.26308e-14 -56.8841 3.85306
      vertex 1.26173e-14 -56.8234 4
    endloop
  endfacet
  facet normal -0.0890405 0.920456 -0.380569
    outer loop
      vertex 1.26308e-14 -56.8841 3.85306
      vertex 11.8855 -55.6736 4
      vertex 12.0524 -56.4552 2.07055
    endloop
  endfacet
  facet normal -0.0954809 0.986946 -0.129698
    outer loop
      vertex 1.28549e-14 -57.8932 0
      vertex 1.27991e-14 -57.642 1.91152
      vertex 12.1093 -56.7217 0
    endloop
  endfacet
  facet normal -0.0954731 0.986945 -0.129706
    outer loop
      vertex 12.0524 -56.4552 2.07055
      vertex 1.27991e-14 -57.642 1.91152
      vertex 1.27945e-14 -57.6211 2.07055
    endloop
  endfacet
  facet normal -0.0954744 0.986952 -0.129654
    outer loop
      vertex 1.27991e-14 -57.642 1.91152
      vertex 12.0524 -56.4552 2.07055
      vertex 12.1093 -56.7217 0
    endloop
  endfacet
  facet normal 0.315874 -0.9399 -0.129656
    outer loop
      vertex 8.82572 -41.3409 2.07055
      vertex 8.76881 -41.0744 0
      vertex 17.9333 -38.2801 2.07055
    endloop
  endfacet
  facet normal 0.315886 -0.939887 -0.129727
    outer loop
      vertex 17.9333 -38.2801 2.07055
      vertex 8.76881 -41.0744 0
      vertex 17.8176 -38.0332 0
    endloop
  endfacet
  facet normal 0.294596 -0.876574 -0.380568
    outer loop
      vertex 8.99258 -42.1225 4
      vertex 8.82572 -41.3409 2.07055
      vertex 18.2723 -39.0038 4
    endloop
  endfacet
  facet normal 0.294595 -0.876582 -0.380549
    outer loop
      vertex 18.2723 -39.0038 4
      vertex 8.82572 -41.3409 2.07055
      vertex 17.9333 -38.2801 2.07055
    endloop
  endfacet
  facet normal 0.253343 -0.75381 -0.60629
    outer loop
      vertex 9.25801 -43.3659 5.65685
      vertex 8.99258 -42.1225 4
      vertex 18.8116 -40.1551 5.65685
    endloop
  endfacet
  facet normal 0.253343 -0.753823 -0.606274
    outer loop
      vertex 18.8116 -40.1551 5.65685
      vertex 8.99258 -42.1225 4
      vertex 18.2723 -39.0038 4
    endloop
  endfacet
  facet normal 0.194727 -0.579414 -0.79143
    outer loop
      vertex 9.60393 -44.9862 6.9282
      vertex 9.25801 -43.3659 5.65685
      vertex 19.5145 -41.6555 6.9282
    endloop
  endfacet
  facet normal 0.194726 -0.579397 -0.791442
    outer loop
      vertex 19.5145 -41.6555 6.9282
      vertex 9.25801 -43.3659 5.65685
      vertex 18.8116 -40.1551 5.65685
    endloop
  endfacet
  facet normal 0.122589 -0.364767 -0.922994
    outer loop
      vertex 10.0068 -46.8731 7.72741
      vertex 9.60393 -44.9862 6.9282
      vertex 20.3331 -43.4027 7.72741
    endloop
  endfacet
  facet normal 0.122588 -0.364764 -0.922995
    outer loop
      vertex 20.3331 -43.4027 7.72741
      vertex 9.60393 -44.9862 6.9282
      vertex 19.5145 -41.6555 6.9282
    endloop
  endfacet
  facet normal 0.0418475 -0.124518 -0.991334
    outer loop
      vertex 10.4391 -48.898 8
      vertex 10.0068 -46.8731 7.72741
      vertex 21.2114 -45.2777 8
    endloop
  endfacet
  facet normal 0.0418476 -0.124519 -0.991334
    outer loop
      vertex 21.2114 -45.2777 8
      vertex 10.0068 -46.8731 7.72741
      vertex 20.3331 -43.4027 7.72741
    endloop
  endfacet
  facet normal -0.0418467 0.124514 -0.991335
    outer loop
      vertex 10.8713 -50.923 7.72741
      vertex 10.4391 -48.898 8
      vertex 22.0898 -47.1527 7.72741
    endloop
  endfacet
  facet normal -0.0418471 0.124517 -0.991335
    outer loop
      vertex 22.0898 -47.1527 7.72741
      vertex 10.4391 -48.898 8
      vertex 21.2114 -45.2777 8
    endloop
  endfacet
  facet normal -0.12259 0.364765 -0.922994
    outer loop
      vertex 11.2742 -52.8099 6.9282
      vertex 10.8713 -50.923 7.72741
      vertex 22.9084 -48.8999 6.9282
    endloop
  endfacet
  facet normal -0.122589 0.364764 -0.922995
    outer loop
      vertex 22.9084 -48.8999 6.9282
      vertex 10.8713 -50.923 7.72741
      vertex 22.0898 -47.1527 7.72741
    endloop
  endfacet
  facet normal -0.194727 0.579415 -0.791429
    outer loop
      vertex 11.6201 -54.4302 5.65685
      vertex 11.2742 -52.8099 6.9282
      vertex 23.6112 -50.4003 5.65685
    endloop
  endfacet
  facet normal -0.194725 0.579405 -0.791436
    outer loop
      vertex 23.6112 -50.4003 5.65685
      vertex 11.2742 -52.8099 6.9282
      vertex 22.9084 -48.8999 6.9282
    endloop
  endfacet
  facet normal -0.253344 0.753812 -0.606287
    outer loop
      vertex 11.8855 -55.6736 4
      vertex 11.6201 -54.4302 5.65685
      vertex 24.1506 -51.5515 4
    endloop
  endfacet
  facet normal -0.253346 0.753838 -0.606254
    outer loop
      vertex 24.1506 -51.5515 4
      vertex 11.6201 -54.4302 5.65685
      vertex 23.6112 -50.4003 5.65685
    endloop
  endfacet
  facet normal -0.294598 0.876571 -0.380573
    outer loop
      vertex 12.0524 -56.4552 2.07055
      vertex 11.8855 -55.6736 4
      vertex 24.4896 -52.2753 2.07055
    endloop
  endfacet
  facet normal -0.294599 0.876564 -0.380588
    outer loop
      vertex 24.4896 -52.2753 2.07055
      vertex 11.8855 -55.6736 4
      vertex 24.1506 -51.5515 4
    endloop
  endfacet
  facet normal -0.315877 0.9399 -0.129655
    outer loop
      vertex 12.1093 -56.7217 0
      vertex 12.0524 -56.4552 2.07055
      vertex 24.6053 -52.5221 0
    endloop
  endfacet
  facet normal -0.31588 0.939895 -0.129682
    outer loop
      vertex 24.6053 -52.5221 0
      vertex 12.0524 -56.4552 2.07055
      vertex 24.4896 -52.2753 2.07055
    endloop
  endfacet
  facet normal 0.519963 -0.84428 -0.12973
    outer loop
      vertex 17.9333 -38.2801 2.07055
      vertex 17.8176 -38.0332 0
      vertex 26.1143 -33.2417 2.07055
    endloop
  endfacet
  facet normal 0.519961 -0.844284 -0.129712
    outer loop
      vertex 26.1143 -33.2417 2.07055
      vertex 17.8176 -38.0332 0
      vertex 25.9459 -33.0273 0
    endloop
  endfacet
  facet normal 0.484938 -0.787413 -0.380546
    outer loop
      vertex 18.2723 -39.0038 4
      vertex 17.9333 -38.2801 2.07055
      vertex 26.6081 -33.8701 4
    endloop
  endfacet
  facet normal 0.484938 -0.787408 -0.380559
    outer loop
      vertex 26.6081 -33.8701 4
      vertex 17.9333 -38.2801 2.07055
      vertex 26.1143 -33.2417 2.07055
    endloop
  endfacet
  facet normal 0.417027 -0.677144 -0.60627
    outer loop
      vertex 18.8116 -40.1551 5.65685
      vertex 18.2723 -39.0038 4
      vertex 27.3934 -34.8699 5.65685
    endloop
  endfacet
  facet normal 0.417027 -0.677144 -0.606271
    outer loop
      vertex 27.3934 -34.8699 5.65685
      vertex 18.2723 -39.0038 4
      vertex 26.6081 -33.8701 4
    endloop
  endfacet
  facet normal 0.320531 -0.52046 -0.791442
    outer loop
      vertex 19.5145 -41.6555 6.9282
      vertex 18.8116 -40.1551 5.65685
      vertex 28.417 -36.1728 6.9282
    endloop
  endfacet
  facet normal 0.320531 -0.520459 -0.791443
    outer loop
      vertex 28.417 -36.1728 6.9282
      vertex 18.8116 -40.1551 5.65685
      vertex 27.3934 -34.8699 5.65685
    endloop
  endfacet
  facet normal 0.201794 -0.327655 -0.922996
    outer loop
      vertex 20.3331 -43.4027 7.72741
      vertex 19.5145 -41.6555 6.9282
      vertex 29.6089 -37.69 7.72741
    endloop
  endfacet
  facet normal 0.201798 -0.327669 -0.92299
    outer loop
      vertex 29.6089 -37.69 7.72741
      vertex 19.5145 -41.6555 6.9282
      vertex 28.417 -36.1728 6.9282
    endloop
  endfacet
  facet normal 0.0688867 -0.111853 -0.991334
    outer loop
      vertex 21.2114 -45.2777 8
      vertex 20.3331 -43.4027 7.72741
      vertex 30.888 -39.3182 8
    endloop
  endfacet
  facet normal 0.0688859 -0.111851 -0.991334
    outer loop
      vertex 30.888 -39.3182 8
      vertex 20.3331 -43.4027 7.72741
      vertex 29.6089 -37.69 7.72741
    endloop
  endfacet
  facet normal -0.0688851 0.11185 -0.991335
    outer loop
      vertex 22.0898 -47.1527 7.72741
      vertex 21.2114 -45.2777 8
      vertex 32.1671 -40.9464 7.72741
    endloop
  endfacet
  facet normal -0.0688856 0.111851 -0.991334
    outer loop
      vertex 32.1671 -40.9464 7.72741
      vertex 21.2114 -45.2777 8
      vertex 30.888 -39.3182 8
    endloop
  endfacet
  facet normal -0.201791 0.327656 -0.922996
    outer loop
      vertex 22.9084 -48.8999 6.9282
      vertex 22.0898 -47.1527 7.72741
      vertex 33.3591 -42.4637 6.9282
    endloop
  endfacet
  facet normal -0.201788 0.327647 -0.923
    outer loop
      vertex 33.3591 -42.4637 6.9282
      vertex 22.0898 -47.1527 7.72741
      vertex 32.1671 -40.9464 7.72741
    endloop
  endfacet
  facet normal -0.320538 0.52047 -0.791433
    outer loop
      vertex 23.6112 -50.4003 5.65685
      vertex 22.9084 -48.8999 6.9282
      vertex 34.3826 -43.7666 5.65685
    endloop
  endfacet
  facet normal -0.320538 0.520469 -0.791434
    outer loop
      vertex 34.3826 -43.7666 5.65685
      vertex 22.9084 -48.8999 6.9282
      vertex 33.3591 -42.4637 6.9282
    endloop
  endfacet
  facet normal -0.417031 0.677151 -0.60626
    outer loop
      vertex 24.1506 -51.5515 4
      vertex 23.6112 -50.4003 5.65685
      vertex 35.168 -44.7663 4
    endloop
  endfacet
  facet normal -0.417031 0.67715 -0.606261
    outer loop
      vertex 35.168 -44.7663 4
      vertex 23.6112 -50.4003 5.65685
      vertex 34.3826 -43.7666 5.65685
    endloop
  endfacet
  facet normal -0.484932 0.7874 -0.380581
    outer loop
      vertex 24.4896 -52.2753 2.07055
      vertex 24.1506 -51.5515 4
      vertex 35.6617 -45.3948 2.07055
    endloop
  endfacet
  facet normal -0.484932 0.787404 -0.380572
    outer loop
      vertex 35.6617 -45.3948 2.07055
      vertex 24.1506 -51.5515 4
      vertex 35.168 -44.7663 4
    endloop
  endfacet
  facet normal -0.519967 0.844283 -0.12969
    outer loop
      vertex 24.6053 -52.5221 0
      vertex 24.4896 -52.2753 2.07055
      vertex 35.8301 -45.6091 0
    endloop
  endfacet
  facet normal -0.519966 0.844287 -0.129672
    outer loop
      vertex 35.8301 -45.6091 0
      vertex 24.4896 -52.2753 2.07055
      vertex 35.6617 -45.3948 2.07055
    endloop
  endfacet
  facet normal 0.697202 -0.705075 -0.129532
    outer loop
      vertex 26.1143 -33.2417 2.07055
      vertex 32.4031 -26.9936 1.90987
      vertex 32.4193 -27.0071 2.07055
    endloop
  endfacet
  facet normal 0.697184 -0.705061 -0.12971
    outer loop
      vertex 32.4031 -26.9936 1.90987
      vertex 26.1143 -33.2417 2.07055
      vertex 25.9459 -33.0273 0
    endloop
  endfacet
  facet normal 0.697186 -0.705053 -0.129741
    outer loop
      vertex 32.4031 -26.9936 1.90987
      vertex 25.9459 -33.0273 0
      vertex 32.2102 -26.8329 0
    endloop
  endfacet
  facet normal 0.650202 -0.657541 -0.380627
    outer loop
      vertex 26.6081 -33.8701 4
      vertex 32.9841 -27.4776 3.84856
      vertex 33.0322 -27.5177 4
    endloop
  endfacet
  facet normal 0.65022 -0.657557 -0.380568
    outer loop
      vertex 32.9841 -27.4776 3.84856
      vertex 26.6081 -33.8701 4
      vertex 26.1143 -33.2417 2.07055
    endloop
  endfacet
  facet normal 0.650222 -0.657566 -0.38055
    outer loop
      vertex 26.1143 -33.2417 2.07055
      vertex 32.6121 -27.1677 2.67746
      vertex 32.9841 -27.4776 3.84856
    endloop
  endfacet
  facet normal 0.650203 -0.657538 -0.380631
    outer loop
      vertex 26.1143 -33.2417 2.07055
      vertex 32.4277 -27.0141 2.09712
      vertex 32.6121 -27.1677 2.67746
    endloop
  endfacet
  facet normal 0.650654 -0.658001 -0.379056
    outer loop
      vertex 32.4277 -27.0141 2.09712
      vertex 26.1143 -33.2417 2.07055
      vertex 32.4193 -27.0071 2.07055
    endloop
  endfacet
  facet normal 0.559347 -0.565659 -0.605937
    outer loop
      vertex 27.3934 -34.8699 5.65685
      vertex 33.93 -28.2656 5.52556
      vertex 34.0072 -28.3299 5.65685
    endloop
  endfacet
  facet normal 0.559167 -0.565487 -0.606264
    outer loop
      vertex 33.93 -28.2656 5.52556
      vertex 27.3934 -34.8699 5.65685
      vertex 26.6081 -33.8701 4
    endloop
  endfacet
  facet normal 0.559143 -0.565436 -0.606334
    outer loop
      vertex 26.6081 -33.8701 4
      vertex 33.5585 -27.9561 4.89435
      vertex 33.93 -28.2656 5.52556
    endloop
  endfacet
  facet normal 0.559176 -0.565488 -0.606255
    outer loop
      vertex 33.5585 -27.9561 4.89435
      vertex 26.6081 -33.8701 4
      vertex 33.0322 -27.5177 4
    endloop
  endfacet
  facet normal 0.429733 -0.434585 -0.791496
    outer loop
      vertex 28.417 -36.1728 6.9282
      vertex 35.1765 -29.304 6.82675
      vertex 35.2779 -29.3885 6.9282
    endloop
  endfacet
  facet normal 0.42978 -0.434631 -0.791445
    outer loop
      vertex 35.1765 -29.304 6.82675
      vertex 28.417 -36.1728 6.9282
      vertex 27.3934 -34.8699 5.65685
    endloop
  endfacet
  facet normal 0.429785 -0.434639 -0.791438
    outer loop
      vertex 27.3934 -34.8699 5.65685
      vertex 34.1278 -28.4304 5.7775
      vertex 35.1765 -29.304 6.82675
    endloop
  endfacet
  facet normal 0.429713 -0.434562 -0.791519
    outer loop
      vertex 34.1278 -28.4304 5.7775
      vertex 27.3934 -34.8699 5.65685
      vertex 34.0072 -28.3299 5.65685
    endloop
  endfacet
  facet normal 0.270615 -0.273674 -0.922968
    outer loop
      vertex 29.6089 -37.69 7.72741
      vertex 36.6391 -30.5224 7.66337
      vertex 36.7576 -30.6212 7.72741
    endloop
  endfacet
  facet normal 0.270577 -0.273637 -0.92299
    outer loop
      vertex 36.6391 -30.5224 7.66337
      vertex 29.6089 -37.69 7.72741
      vertex 28.417 -36.1728 6.9282
    endloop
  endfacet
  facet normal 0.269628 -0.272164 -0.923703
    outer loop
      vertex 28.417 -36.1728 6.9282
      vertex 36.6335 -30.5178 7.66038
      vertex 36.6391 -30.5224 7.66337
    endloop
  endfacet
  facet normal 0.270573 -0.273628 -0.922994
    outer loop
      vertex 36.6335 -30.5178 7.66038
      vertex 28.417 -36.1728 6.9282
      vertex 35.2779 -29.3885 6.9282
    endloop
  endfacet
  facet normal 0.0923729 -0.0934163 -0.991333
    outer loop
      vertex 30.888 -39.3182 8
      vertex 38.2182 -31.8379 7.97814
      vertex 38.3455 -31.944 8
    endloop
  endfacet
  facet normal 0.0923636 -0.0934072 -0.991334
    outer loop
      vertex 38.2182 -31.8379 7.97814
      vertex 30.888 -39.3182 8
      vertex 29.6089 -37.69 7.72741
    endloop
  endfacet
  facet normal 0.0923643 -0.0934083 -0.991334
    outer loop
      vertex 38.2182 -31.8379 7.97814
      vertex 29.6089 -37.69 7.72741
      vertex 36.7576 -30.6212 7.72741
    endloop
  endfacet
  facet normal -0.0923649 0.0934089 -0.991334
    outer loop
      vertex 32.1671 -40.9464 7.72741
      vertex 39.8063 -33.1609 7.74924
      vertex 39.9335 -33.2668 7.72741
    endloop
  endfacet
  facet normal -0.0923634 0.0934074 -0.991334
    outer loop
      vertex 39.8063 -33.1609 7.74924
      vertex 32.1671 -40.9464 7.72741
      vertex 30.888 -39.3182 8
    endloop
  endfacet
  facet normal -0.0923619 0.0934052 -0.991335
    outer loop
      vertex 39.8063 -33.1609 7.74924
      vertex 30.888 -39.3182 8
      vertex 38.3455 -31.944 8
    endloop
  endfacet
  facet normal -0.270488 0.273541 -0.923045
    outer loop
      vertex 33.3591 -42.4637 6.9282
      vertex 41.3752 -34.4679 6.9487
      vertex 41.4132 -34.4995 6.9282
    endloop
  endfacet
  facet normal -0.270602 0.273655 -0.922978
    outer loop
      vertex 41.3752 -34.4679 6.9487
      vertex 33.3591 -42.4637 6.9282
      vertex 41.2951 -34.4012 6.99196
    endloop
  endfacet
  facet normal -0.270563 0.273617 -0.923
    outer loop
      vertex 41.2951 -34.4012 6.99196
      vertex 33.3591 -42.4637 6.9282
      vertex 32.1671 -40.9464 7.72741
    endloop
  endfacet
  facet normal -0.270557 0.273615 -0.923002
    outer loop
      vertex 40.6196 -33.8384 7.35685
      vertex 32.1671 -40.9464 7.72741
      vertex 39.9335 -33.2668 7.72741
    endloop
  endfacet
  facet normal -0.270584 0.273648 -0.922985
    outer loop
      vertex 32.1671 -40.9464 7.72741
      vertex 40.6196 -33.8384 7.35685
      vertex 41.2951 -34.4012 6.99196
    endloop
  endfacet
  facet normal -0.430027 0.434878 -0.791175
    outer loop
      vertex 34.3826 -43.7666 5.65685
      vertex 42.5831 -35.4741 5.7577
      vertex 42.6838 -35.558 5.65685
    endloop
  endfacet
  facet normal -0.429788 0.434645 -0.791433
    outer loop
      vertex 42.5831 -35.4741 5.7577
      vertex 34.3826 -43.7666 5.65685
      vertex 33.3591 -42.4637 6.9282
    endloop
  endfacet
  facet normal -0.429778 0.434628 -0.791448
    outer loop
      vertex 33.3591 -42.4637 6.9282
      vertex 41.8737 -34.8832 6.46742
      vertex 42.5831 -35.4741 5.7577
    endloop
  endfacet
  facet normal -0.42978 0.434631 -0.791445
    outer loop
      vertex 41.8737 -34.8832 6.46742
      vertex 33.3591 -42.4637 6.9282
      vertex 41.4132 -34.4995 6.9282
    endloop
  endfacet
  facet normal -0.559121 0.565441 -0.60635
    outer loop
      vertex 35.168 -44.7663 4
      vertex 43.5821 -36.3063 4.1305
      vertex 43.6589 -36.3703 4
    endloop
  endfacet
  facet normal -0.559168 0.565487 -0.606264
    outer loop
      vertex 43.5821 -36.3063 4.1305
      vertex 35.168 -44.7663 4
      vertex 34.3826 -43.7666 5.65685
    endloop
  endfacet
  facet normal -0.559155 0.565462 -0.606299
    outer loop
      vertex 43.5821 -36.3063 4.1305
      vertex 34.3826 -43.7666 5.65685
      vertex 42.6838 -35.558 5.65685
    endloop
  endfacet
  facet normal -0.650209 0.657556 -0.38059
    outer loop
      vertex 35.6617 -45.3948 2.07055
      vertex 44.2239 -36.841 2.22132
      vertex 44.2718 -36.8809 2.07055
    endloop
  endfacet
  facet normal -0.650215 0.657562 -0.380569
    outer loop
      vertex 44.2239 -36.841 2.22132
      vertex 35.6617 -45.3948 2.07055
      vertex 35.168 -44.7663 4
    endloop
  endfacet
  facet normal -0.650219 0.657568 -0.380552
    outer loop
      vertex 44.049 -36.6953 2.77189
      vertex 35.168 -44.7663 4
      vertex 43.6589 -36.3703 4
    endloop
  endfacet
  facet normal -0.650215 0.657562 -0.380568
    outer loop
      vertex 35.168 -44.7663 4
      vertex 44.049 -36.6953 2.77189
      vertex 44.2239 -36.841 2.22132
    endloop
  endfacet
  facet normal -0.697183 0.705056 -0.129734
    outer loop
      vertex 35.8301 -45.6091 0
      vertex 44.4646 -37.0415 0.160425
      vertex 44.4808 -37.055 0
    endloop
  endfacet
  facet normal -0.697189 0.705061 -0.129676
    outer loop
      vertex 44.4646 -37.0415 0.160425
      vertex 35.8301 -45.6091 0
      vertex 35.6617 -45.3948 2.07055
    endloop
  endfacet
  facet normal -0.697189 0.705066 -0.129652
    outer loop
      vertex 44.4646 -37.0415 0.160425
      vertex 35.6617 -45.3948 2.07055
      vertex 44.2718 -36.8809 2.07055
    endloop
  endfacet
  facet normal 0 0 -1
    outer loop
      vertex 35.8301 -45.6091 0
      vertex 45.3312 -37.7634 0
      vertex 36.0416 -46.7118 0
    endloop
  endfacet
  facet normal -0 0 -1
    outer loop
      vertex 45.3312 -37.7634 0
      vertex 35.8301 -45.6091 0
      vertex 44.4808 -37.055 0
    endloop
  endfacet
  facet normal 0 0 -1
    outer loop
      vertex 24.6053 -52.5221 0
      vertex 36.0416 -46.7118 0
      vertex 25.0295 -53.4277 0
    endloop
  endfacet
  facet normal -0 0 -1
    outer loop
      vertex 36.0416 -46.7118 0
      vertex 24.6053 -52.5221 0
      vertex 35.8301 -45.6091 0
    endloop
  endfacet
  facet normal 0 0 -1
    outer loop
      vertex 12.8211 -57.59 0
      vertex 24.6053 -52.5221 0
      vertex 25.0295 -53.4277 0
    endloop
  endfacet
  facet normal 0 0 -1
    outer loop
      vertex 12.8211 -57.59 0
      vertex 12.1093 -56.7217 0
      vertex 24.6053 -52.5221 0
    endloop
  endfacet
  facet normal 0 0 -1
    outer loop
      vertex 1.31006e-14 -58.9999 0
      vertex 12.1093 -56.7217 0
      vertex 12.8211 -57.59 0
    endloop
  endfacet
  facet normal 0 0 -1
    outer loop
      vertex 12.1093 -56.7217 0
      vertex 1.31006e-14 -58.9999 0
      vertex 1.28549e-14 -57.8932 0
    endloop
  endfacet
  facet normal 0 0 -1
    outer loop
      vertex 25.9459 -33.0273 0
      vertex 31.5013 -26.2424 0
      vertex 32.2102 -26.8329 0
    endloop
  endfacet
  facet normal 0 0 -1
    outer loop
      vertex 25.9459 -33.0273 0
      vertex 25.0459 -32.4607 0
      vertex 31.5013 -26.2424 0
    endloop
  endfacet
  facet normal 0 0 -1
    outer loop
      vertex 17.8176 -38.0332 0
      vertex 25.0459 -32.4607 0
      vertex 25.9459 -33.0273 0
    endloop
  endfacet
  facet normal 0 0 -1
    outer loop
      vertex 17.8176 -38.0332 0
      vertex 17.3934 -37.1277 0
      vertex 25.0459 -32.4607 0
    endloop
  endfacet
  facet normal -0 0 -1
    outer loop
      vertex 17.8176 -38.0332 0
      vertex 8.9096 -40.0202 0
      vertex 17.3934 -37.1277 0
    endloop
  endfacet
  facet normal 0 0 -1
    outer loop
      vertex 8.76881 -41.0744 0
      vertex 8.9096 -40.0202 0
      vertex 17.8176 -38.0332 0
    endloop
  endfacet
  facet normal 0 0 -1
    outer loop
      vertex 9.10381e-15 -40.9999 0
      vertex 8.76881 -41.0744 0
      vertex 9.30869e-15 -41.9226 0
    endloop
  endfacet
  facet normal 0 0 -1
    outer loop
      vertex 8.76881 -41.0744 0
      vertex 9.10381e-15 -40.9999 0
      vertex 8.9096 -40.0202 0
    endloop
  endfacet
endsolid OpenSCAD_Model
