####
#
# OBJ File Generated by Meshlab
#
####
# Object arrow_down.obj
#
# Vertices: 72
# Faces: 24
#
####
mtllib arrows.mtl
o unnamed_object1
vn 1.000000 0.000000 0.000000
v 0.000000 -0.400000 0.000000
vn 1.000000 0.000000 0.000000
v 0.000000 0.400000 -0.000000
vn 1.000000 0.000000 0.000000
v 0.000000 0.400000 0.799999
vn 1.000000 0.000000 0.000000
v 0.000000 -0.400000 0.000000
vn 1.000000 0.000000 0.000000
v 0.000000 0.400000 0.799999
vn 1.000000 0.000000 0.000000
v 0.000000 -0.400000 0.799999
vn 1.000000 0.000000 0.000000
v 0.000000 0.400000 -0.000000
vn 1.000000 0.000000 0.000000
v 0.000000 -0.400000 0.000000
vn 1.000000 0.000000 0.000000
v 0.000000 -0.000000 -0.799988
vn 1.000000 0.000000 0.000000
v 0.000000 -0.000000 -0.799988
vn 1.000000 0.000000 0.000000
v 0.000000 -0.400000 0.000000
vn 1.000000 0.000000 0.000000
v 0.000000 -0.799988 0.000000
vn 1.000000 0.000000 0.000000
v 0.000000 0.799988 -0.000000
vn 1.000000 0.000000 0.000000
v 0.000000 0.400000 -0.000000
vn 1.000000 0.000000 0.000000
v 0.000000 -0.000000 -0.799988
vn 0.000000 0.000000 1.000000
v -0.250000 0.799988 -0.000000
vn 0.000000 0.000000 1.000000
v 0.000000 0.400000 -0.000000
vn 0.000000 0.000000 1.000000
v 0.000000 0.799988 -0.000000
vn 0.000000 0.000000 1.000000
v 0.000000 0.400000 -0.000000
vn 0.000000 0.000000 1.000000
v -0.250000 0.799988 -0.000000
vn 0.000000 0.000000 1.000000
v -0.250000 0.400000 -0.000000
vn 0.000000 0.000000 1.000000
v -0.250000 -0.400000 0.000000
vn 0.000000 0.000000 1.000000
v 0.000000 -0.799988 0.000000
vn 0.000000 0.000000 1.000000
v 0.000000 -0.400000 0.000000
vn 0.000000 0.000000 1.000000
v 0.000000 -0.799988 0.000000
vn 0.000000 0.000000 1.000000
v -0.250000 -0.400000 0.000000
vn 0.000000 0.000000 1.000000
v -0.250000 -0.799988 0.000000
vn 0.000000 -0.707107 -0.707107
v -0.249999 -0.000000 -0.799988
vn 0.000000 -0.707107 -0.707107
v 0.000000 -0.799988 0.000000
vn 0.000000 -0.707107 -0.707107
v -0.250000 -0.799988 0.000000
vn 0.000000 -0.707107 -0.707107
v 0.000000 -0.799988 0.000000
vn 0.000000 -0.707107 -0.707107
v -0.249999 -0.000000 -0.799988
vn 0.000000 -0.707107 -0.707107
v 0.000000 -0.000000 -0.799988
vn -1.000000 0.000000 -0.000001
v -0.249999 -0.000000 -0.799988
vn -1.000000 0.000000 -0.000001
v -0.250000 0.400000 -0.000000
vn -1.000000 0.000000 -0.000001
v -0.250000 0.799988 -0.000000
vn -1.000000 0.000000 -0.000001
v -0.249999 -0.000000 -0.799988
vn -1.000000 0.000000 -0.000001
v -0.250000 -0.400000 0.000000
vn -1.000000 0.000000 -0.000001
v -0.250000 0.400000 -0.000000
vn -1.000000 -0.000000 -0.000001
v -0.250000 -0.400000 0.000000
vn -1.000000 -0.000000 -0.000001
v -0.249999 -0.000000 -0.799988
vn -1.000000 -0.000000 -0.000001
v -0.250000 -0.799988 0.000000
vn 0.000000 0.707107 -0.707107
v 0.000000 -0.000000 -0.799988
vn 0.000000 0.707107 -0.707107
v -0.250000 0.799988 -0.000000
vn 0.000000 0.707107 -0.707107
v 0.000000 0.799988 -0.000000
vn 0.000000 0.707107 -0.707107
v -0.250000 0.799988 -0.000000
vn 0.000000 0.707107 -0.707107
v 0.000000 -0.000000 -0.799988
vn 0.000000 0.707107 -0.707107
v -0.249999 -0.000000 -0.799988
vn -1.000000 0.000000 0.000000
v -0.250000 -0.400000 0.000000
vn -1.000000 0.000000 0.000000
v -0.250000 0.400000 0.799999
vn -1.000000 0.000000 0.000000
v -0.250000 0.400000 -0.000000
vn -1.000000 0.000000 0.000000
v -0.250000 0.400000 0.799999
vn -1.000000 0.000000 0.000000
v -0.250000 -0.400000 0.000000
vn -1.000000 0.000000 0.000000
v -0.250000 -0.400000 0.799999
vn 0.000000 -1.000000 0.000000
v -0.250000 -0.400000 0.000000
vn 0.000000 -1.000000 0.000000
v 0.000000 -0.400000 0.799999
vn 0.000000 -1.000000 0.000000
v -0.250000 -0.400000 0.799999
vn 0.000000 -1.000000 0.000000
v 0.000000 -0.400000 0.799999
vn 0.000000 -1.000000 0.000000
v -0.250000 -0.400000 0.000000
vn 0.000000 -1.000000 0.000000
v 0.000000 -0.400000 0.000000
vn 0.000000 0.000000 1.000000
v -0.250000 0.400000 0.799999
vn 0.000000 0.000000 1.000000
v 0.000000 -0.400000 0.799999
vn 0.000000 0.000000 1.000000
v 0.000000 0.400000 0.799999
vn 0.000000 0.000000 1.000000
v 0.000000 -0.400000 0.799999
vn 0.000000 0.000000 1.000000
v -0.250000 0.400000 0.799999
vn 0.000000 0.000000 1.000000
v -0.250000 -0.400000 0.799999
vn 0.000000 1.000000 0.000000
v 0.000000 0.400000 -0.000000
vn 0.000000 1.000000 0.000000
v -0.250000 0.400000 0.799999
vn 0.000000 1.000000 0.000000
v 0.000000 0.400000 0.799999
vn 0.000000 1.000000 0.000000
v -0.250000 0.400000 0.799999
vn 0.000000 1.000000 0.000000
v 0.000000 0.400000 -0.000000
vn 0.000000 1.000000 0.000000
v -0.250000 0.400000 -0.000000
# 72 vertices, 0 vertices normals
g unnamed_object1_default
usemtl yellow
s 1
f 1//1 2//2 3//3
f 4//4 5//5 6//6
f 7//7 8//8 9//9
f 10//10 11//11 12//12
f 13//13 14//14 15//15
f 16//16 17//17 18//18
f 19//19 20//20 21//21
f 22//22 23//23 24//24
f 25//25 26//26 27//27
f 28//28 29//29 30//30
f 31//31 32//32 33//33
f 34//34 35//35 36//36
f 37//37 38//38 39//39
f 40//40 41//41 42//42
f 43//43 44//44 45//45
f 46//46 47//47 48//48
f 49//49 50//50 51//51
f 52//52 53//53 54//54
f 55//55 56//56 57//57
f 58//58 59//59 60//60
f 61//61 62//62 63//63
f 64//64 65//65 66//66
f 67//67 68//68 69//69
f 70//70 71//71 72//72
# 24 faces, 0 coords texture

# End of File
