<?xml version="1.0" encoding="UTF-8" standalone="no"?>
<!-- Created with Inkscape (http://www.inkscape.org/) -->

<svg
   width="210mm"
   height="297mm"
   viewBox="0 0 744.09448819 1052.3622047"
   id="svg4902"
   version="1.1"
   inkscape:version="1.1 (ce6663b3b7, 2021-05-25)"
   sodipodi:docname="snek.svg"
   inkscape:export-filename="/home/christopher/pyjam/pyweek32/img/head-bottom.png"
   inkscape:export-xdpi="111.33"
   inkscape:export-ydpi="111.33"
   xmlns:inkscape="http://www.inkscape.org/namespaces/inkscape"
   xmlns:sodipodi="http://sodipodi.sourceforge.net/DTD/sodipodi-0.dtd"
   xmlns:xlink="http://www.w3.org/1999/xlink"
   xmlns="http://www.w3.org/2000/svg"
   xmlns:svg="http://www.w3.org/2000/svg"
   xmlns:rdf="http://www.w3.org/1999/02/22-rdf-syntax-ns#"
   xmlns:cc="http://creativecommons.org/ns#"
   xmlns:dc="http://purl.org/dc/elements/1.1/">
  <defs
     id="defs4904">
    <linearGradient
       inkscape:collect="always"
       id="stomach">
      <stop
         style="stop-color:#dfc842;stop-opacity:1"
         offset="0"
         id="stop19136" />
      <stop
         style="stop-color:#a79036;stop-opacity:1"
         offset="1"
         id="stop19138" />
    </linearGradient>
    <linearGradient
       inkscape:collect="always"
       id="fin">
      <stop
         style="stop-color:#8b528d;stop-opacity:1"
         offset="0"
         id="stop17118" />
      <stop
         style="stop-color:#db88db;stop-opacity:1"
         offset="1"
         id="stop17120" />
    </linearGradient>
    <linearGradient
       inkscape:collect="always"
       id="scale-7">
      <stop
         style="stop-color:#074259;stop-opacity:1"
         offset="0"
         id="stop13572" />
      <stop
         style="stop-color:#3692c6;stop-opacity:1"
         offset="1"
         id="stop13574" />
    </linearGradient>
    <linearGradient
       inkscape:collect="always"
       id="horn">
      <stop
         style="stop-color:#5f366b;stop-opacity:1"
         offset="0"
         id="stop4113" />
      <stop
         style="stop-color:#fbbae8;stop-opacity:1"
         offset="1"
         id="stop4115" />
    </linearGradient>
    <linearGradient
       inkscape:collect="always"
       id="bottomjaw">
      <stop
         style="stop-color:#1688a3;stop-opacity:1"
         offset="0"
         id="stop4403" />
      <stop
         style="stop-color:#80d7ff;stop-opacity:1"
         offset="1"
         id="stop4405" />
    </linearGradient>
    <linearGradient
       inkscape:collect="always"
       id="topjaw-2">
      <stop
         style="stop-color:#2f94b6;stop-opacity:1"
         offset="0"
         id="stop4338" />
      <stop
         style="stop-color:#006888;stop-opacity:1"
         offset="1"
         id="stop4340" />
    </linearGradient>
    <radialGradient
       inkscape:collect="always"
       xlink:href="#topjaw-2"
       id="radialGradient4344"
       cx="136.46265"
       cy="228.69466"
       fx="136.46265"
       fy="228.69466"
       r="95.665353"
       gradientTransform="matrix(1.2193142,-0.58070217,0.42541457,0.89325315,-71.38937,46.047483)"
       gradientUnits="userSpaceOnUse" />
    <radialGradient
       inkscape:collect="always"
       xlink:href="#bottomjaw"
       id="radialGradient4409"
       cx="135.77502"
       cy="204.44113"
       fx="135.77502"
       fy="204.44113"
       r="66.724927"
       gradientTransform="matrix(1.5014865,-0.32028701,0.08059968,0.37784654,-30.136614,144.43088)"
       gradientUnits="userSpaceOnUse" />
    <linearGradient
       inkscape:collect="always"
       xlink:href="#horn"
       id="linearGradient5065"
       x1="83.498596"
       y1="73.71524"
       x2="89.178368"
       y2="57.6875"
       gradientUnits="userSpaceOnUse"
       gradientTransform="translate(52.5,-9.375)" />
    <linearGradient
       inkscape:collect="always"
       xlink:href="#horn"
       id="linearGradient8307"
       x1="187.52026"
       y1="89.667679"
       x2="206.3535"
       y2="45.23547"
       gradientUnits="userSpaceOnUse"
       gradientTransform="translate(52.5,-9.375)" />
    <linearGradient
       inkscape:collect="always"
       xlink:href="#horn"
       id="linearGradient3762"
       gradientUnits="userSpaceOnUse"
       gradientTransform="rotate(1.1466567,841.5174,3612.4875)"
       x1="83.498596"
       y1="73.71524"
       x2="89.178368"
       y2="57.6875" />
    <linearGradient
       inkscape:collect="always"
       xlink:href="#horn"
       id="linearGradient3807"
       gradientUnits="userSpaceOnUse"
       gradientTransform="translate(120.0663,18.679997)"
       x1="190.41043"
       y1="99.976837"
       x2="203.54146"
       y2="62.621037" />
    <radialGradient
       inkscape:collect="always"
       xlink:href="#scale-7"
       id="radialGradient13527"
       cx="575.25873"
       cy="153.12282"
       fx="575.25873"
       fy="153.12282"
       r="33.164837"
       gradientTransform="matrix(-0.78800892,-0.00438433,0.00196181,-0.35260265,1015.284,209.94909)"
       gradientUnits="userSpaceOnUse" />
    <radialGradient
       inkscape:collect="always"
       xlink:href="#scale-7"
       id="radialGradient13527-9"
       cx="575.25873"
       cy="153.12282"
       fx="575.25873"
       fy="153.12282"
       r="33.164837"
       gradientTransform="matrix(-1.8080132,-0.01005944,0.00450119,-0.80901399,1409.8948,620.91595)"
       gradientUnits="userSpaceOnUse" />
    <radialGradient
       inkscape:collect="always"
       xlink:href="#scale-7"
       id="radialGradient13527-0"
       cx="575.25873"
       cy="153.12282"
       fx="575.25873"
       fy="153.12282"
       r="33.164837"
       gradientTransform="matrix(-0.78800892,-0.00330213,0.00196181,-0.26556794,1015.6178,218.53848)"
       gradientUnits="userSpaceOnUse" />
    <radialGradient
       inkscape:collect="always"
       xlink:href="#scale-7"
       id="radialGradient13527-0-0"
       cx="575.25873"
       cy="153.12282"
       fx="575.25873"
       fy="153.12282"
       r="33.164837"
       gradientTransform="matrix(-0.78800892,-0.00330213,0.00196181,-0.26556794,1014.9501,173.55819)"
       gradientUnits="userSpaceOnUse" />
    <radialGradient
       inkscape:collect="always"
       xlink:href="#scale-7"
       id="radialGradient13527-1"
       cx="575.25873"
       cy="153.12282"
       fx="575.25873"
       fy="153.12282"
       r="33.164837"
       gradientTransform="matrix(-0.78800892,-0.0039979,0.00196181,-0.32152457,997.19019,193.09015)"
       gradientUnits="userSpaceOnUse" />
    <radialGradient
       inkscape:collect="always"
       xlink:href="#scale-7"
       id="radialGradient13527-1-2"
       cx="575.25873"
       cy="153.12282"
       fx="575.25873"
       fy="153.12282"
       r="33.164837"
       gradientTransform="matrix(-0.78800892,-0.0039979,0.00196181,-0.32152457,997.52409,216.48542)"
       gradientUnits="userSpaceOnUse" />
    <radialGradient
       inkscape:collect="always"
       xlink:href="#scale-7"
       id="radialGradient13527-1-7"
       cx="575.25873"
       cy="153.12282"
       fx="575.25873"
       fy="153.12282"
       r="33.164837"
       gradientTransform="matrix(-0.78800892,-0.0039979,0.00196181,-0.32152457,1032.6827,193.09015)"
       gradientUnits="userSpaceOnUse" />
    <radialGradient
       inkscape:collect="always"
       xlink:href="#scale-7"
       id="radialGradient13527-1-2-2"
       cx="575.25873"
       cy="153.12282"
       fx="575.25873"
       fy="153.12282"
       r="33.164837"
       gradientTransform="matrix(-0.78800892,-0.0039979,0.00196181,-0.32152457,1033.0166,216.48542)"
       gradientUnits="userSpaceOnUse" />
    <radialGradient
       inkscape:collect="always"
       xlink:href="#scale-7"
       id="radialGradient13527-2-7"
       cx="575.25873"
       cy="153.12282"
       fx="575.25873"
       fy="153.12282"
       r="33.164837"
       gradientTransform="matrix(-0.78800892,-0.00438433,0.00196181,-0.35260265,994.14496,209.94909)"
       gradientUnits="userSpaceOnUse" />
    <radialGradient
       inkscape:collect="always"
       xlink:href="#scale-7"
       id="radialGradient13527-0-8-8"
       cx="575.25873"
       cy="153.12282"
       fx="575.25873"
       fy="153.12282"
       r="33.164837"
       gradientTransform="matrix(-0.78800892,-0.00330213,0.00196181,-0.26556794,994.47881,218.53848)"
       gradientUnits="userSpaceOnUse" />
    <radialGradient
       inkscape:collect="always"
       xlink:href="#scale-7"
       id="radialGradient13527-0-0-9-4"
       cx="575.25873"
       cy="153.12282"
       fx="575.25873"
       fy="153.12282"
       r="33.164837"
       gradientTransform="matrix(-0.78800892,-0.00330213,0.00196181,-0.26556794,993.81106,173.55819)"
       gradientUnits="userSpaceOnUse" />
    <radialGradient
       inkscape:collect="always"
       xlink:href="#scale-7"
       id="radialGradient13527-1-7-0"
       cx="575.25873"
       cy="153.12282"
       fx="575.25873"
       fy="153.12282"
       r="33.164837"
       gradientTransform="matrix(-0.78800892,-0.0039979,0.00196181,-0.32152457,1016.1284,193.09015)"
       gradientUnits="userSpaceOnUse" />
    <radialGradient
       inkscape:collect="always"
       xlink:href="#scale-7"
       id="radialGradient13527-1-2-2-2"
       cx="575.25873"
       cy="153.12282"
       fx="575.25873"
       fy="153.12282"
       r="33.164837"
       gradientTransform="matrix(-0.78800892,-0.0039979,0.00196181,-0.32152457,1016.4623,216.48542)"
       gradientUnits="userSpaceOnUse" />
    <radialGradient
       inkscape:collect="always"
       xlink:href="#scale-7"
       id="radialGradient13527-2-0"
       cx="575.25873"
       cy="153.12282"
       fx="575.25873"
       fy="153.12282"
       r="33.164837"
       gradientTransform="matrix(-0.78800892,-0.00438433,0.00196181,-0.35260265,1034.2222,209.94909)"
       gradientUnits="userSpaceOnUse" />
    <radialGradient
       inkscape:collect="always"
       xlink:href="#scale-7"
       id="radialGradient13527-0-8-6"
       cx="575.25873"
       cy="153.12282"
       fx="575.25873"
       fy="153.12282"
       r="33.164837"
       gradientTransform="matrix(-0.78800892,-0.00330213,0.00196181,-0.26556794,1034.5561,218.53848)"
       gradientUnits="userSpaceOnUse" />
    <radialGradient
       inkscape:collect="always"
       xlink:href="#scale-7"
       id="radialGradient13527-0-0-9-1"
       cx="575.25873"
       cy="153.12282"
       fx="575.25873"
       fy="153.12282"
       r="33.164837"
       gradientTransform="matrix(-0.78800892,-0.00330213,0.00196181,-0.26556794,1033.8883,173.55819)"
       gradientUnits="userSpaceOnUse" />
    <radialGradient
       inkscape:collect="always"
       xlink:href="#scale-7"
       id="radialGradient13527-1-9"
       cx="575.25873"
       cy="153.12282"
       fx="575.25873"
       fy="153.12282"
       r="33.164837"
       gradientTransform="matrix(-1.8080132,-0.00917281,0.00450119,-0.73770824,1567.7591,567.87308)"
       gradientUnits="userSpaceOnUse" />
    <radialGradient
       inkscape:collect="always"
       xlink:href="#scale-7"
       id="radialGradient13527-1-2-4"
       cx="575.25873"
       cy="153.12282"
       fx="575.25873"
       fy="153.12282"
       r="33.164837"
       gradientTransform="matrix(-1.8080132,-0.00917281,0.00450119,-0.73770824,1568.5252,621.55135)"
       gradientUnits="userSpaceOnUse" />
    <radialGradient
       inkscape:collect="always"
       xlink:href="#scale-7"
       id="radialGradient13527-5"
       cx="575.25873"
       cy="153.12282"
       fx="575.25873"
       fy="153.12282"
       r="33.164837"
       gradientTransform="matrix(-1.8080132,-0.01005944,0.00450119,-0.80901399,1609.2736,606.55435)"
       gradientUnits="userSpaceOnUse" />
    <radialGradient
       inkscape:collect="always"
       xlink:href="#scale-7"
       id="radialGradient13527-0-2"
       cx="575.25873"
       cy="153.12282"
       fx="575.25873"
       fy="153.12282"
       r="33.164837"
       gradientTransform="matrix(-1.8080132,-0.00757642,0.00450119,-0.60932095,1610.0396,626.26191)"
       gradientUnits="userSpaceOnUse" />
    <radialGradient
       inkscape:collect="always"
       xlink:href="#scale-7"
       id="radialGradient13527-0-0-5"
       cx="575.25873"
       cy="153.12282"
       fx="575.25873"
       fy="153.12282"
       r="33.164837"
       gradientTransform="matrix(-1.8080132,-0.00757642,0.00450119,-0.60932095,1608.5075,523.05882)"
       gradientUnits="userSpaceOnUse" />
    <radialGradient
       inkscape:collect="always"
       xlink:href="#scale-7"
       id="radialGradient13527-1-7-4"
       cx="575.25873"
       cy="153.12282"
       fx="575.25873"
       fy="153.12282"
       r="33.164837"
       gradientTransform="matrix(-1.8080132,-0.00917281,0.00450119,-0.73770824,1649.1934,567.87308)"
       gradientUnits="userSpaceOnUse" />
    <radialGradient
       inkscape:collect="always"
       xlink:href="#scale-7"
       id="radialGradient13527-1-2-2-7"
       cx="575.25873"
       cy="153.12282"
       fx="575.25873"
       fy="153.12282"
       r="33.164837"
       gradientTransform="matrix(-1.8080132,-0.00917281,0.00450119,-0.73770824,1649.9595,621.55135)"
       gradientUnits="userSpaceOnUse" />
    <radialGradient
       inkscape:collect="always"
       xlink:href="#scale-7"
       id="radialGradient13527-2-7-4"
       cx="575.25873"
       cy="153.12282"
       fx="575.25873"
       fy="153.12282"
       r="33.164837"
       gradientTransform="matrix(-1.8080132,-0.01005944,0.00450119,-0.80901399,1560.7721,606.55435)"
       gradientUnits="userSpaceOnUse" />
    <radialGradient
       inkscape:collect="always"
       xlink:href="#scale-7"
       id="radialGradient13527-0-8-8-4"
       cx="575.25873"
       cy="153.12282"
       fx="575.25873"
       fy="153.12282"
       r="33.164837"
       gradientTransform="matrix(-1.8080132,-0.00757642,0.00450119,-0.60932095,1561.5381,626.26191)"
       gradientUnits="userSpaceOnUse" />
    <radialGradient
       inkscape:collect="always"
       xlink:href="#scale-7"
       id="radialGradient13527-0-0-9-4-3"
       cx="575.25873"
       cy="153.12282"
       fx="575.25873"
       fy="153.12282"
       r="33.164837"
       gradientTransform="matrix(-1.8080132,-0.00757642,0.00450119,-0.60932095,1560.006,523.05882)"
       gradientUnits="userSpaceOnUse" />
    <radialGradient
       inkscape:collect="always"
       xlink:href="#scale-7"
       id="radialGradient13527-1-7-0-0"
       cx="575.25873"
       cy="153.12282"
       fx="575.25873"
       fy="153.12282"
       r="33.164837"
       gradientTransform="matrix(-1.8080132,-0.00917281,0.00450119,-0.73770824,1611.2111,567.87308)"
       gradientUnits="userSpaceOnUse" />
    <radialGradient
       inkscape:collect="always"
       xlink:href="#scale-7"
       id="radialGradient13527-1-2-2-2-7"
       cx="575.25873"
       cy="153.12282"
       fx="575.25873"
       fy="153.12282"
       r="33.164837"
       gradientTransform="matrix(-1.8080132,-0.00917281,0.00450119,-0.73770824,1611.9772,621.55135)"
       gradientUnits="userSpaceOnUse" />
    <radialGradient
       inkscape:collect="always"
       xlink:href="#scale-7"
       id="radialGradient13527-2-0-8"
       cx="575.25873"
       cy="153.12282"
       fx="575.25873"
       fy="153.12282"
       r="33.164837"
       gradientTransform="matrix(-1.8080132,-0.01005944,0.00450119,-0.80901399,1652.7256,606.55435)"
       gradientUnits="userSpaceOnUse" />
    <radialGradient
       inkscape:collect="always"
       xlink:href="#scale-7"
       id="radialGradient13527-0-8-6-6"
       cx="575.25873"
       cy="153.12282"
       fx="575.25873"
       fy="153.12282"
       r="33.164837"
       gradientTransform="matrix(-1.8080132,-0.00757642,0.00450119,-0.60932095,1653.4916,626.26191)"
       gradientUnits="userSpaceOnUse" />
    <radialGradient
       inkscape:collect="always"
       xlink:href="#scale-7"
       id="radialGradient13527-0-0-9-1-8"
       cx="575.25873"
       cy="153.12282"
       fx="575.25873"
       fy="153.12282"
       r="33.164837"
       gradientTransform="matrix(-1.8080132,-0.00757642,0.00450119,-0.60932095,1651.9595,523.05882)"
       gradientUnits="userSpaceOnUse" />
    <radialGradient
       inkscape:collect="always"
       xlink:href="#fin"
       id="radialGradient13527-0-0-9-1-9"
       cx="574.55377"
       cy="166.89745"
       fx="574.55377"
       fy="166.89745"
       r="33.164837"
       gradientTransform="matrix(-1.0055281,-1.5908928,0.49341487,-0.30946567,1046.3325,1090.2838)"
       gradientUnits="userSpaceOnUse" />
    <radialGradient
       inkscape:collect="always"
       xlink:href="#stomach"
       id="radialGradient19142"
       cx="524.31329"
       cy="210.70285"
       fx="524.31329"
       fy="210.70285"
       r="8.7642614"
       gradientTransform="matrix(0.00432818,1.8018544,-1.578443,0.00379154,736.79643,-546.37388)"
       gradientUnits="userSpaceOnUse" />
    <radialGradient
       inkscape:collect="always"
       xlink:href="#stomach"
       id="radialGradient19142-1"
       cx="524.31329"
       cy="210.70285"
       fx="524.31329"
       fy="210.70285"
       r="8.7642612"
       gradientTransform="matrix(0.01166719,2.1151871,-1.5784144,0.0119981,848.00406,-930.73599)"
       gradientUnits="userSpaceOnUse" />
    <radialGradient
       inkscape:collect="always"
       xlink:href="#stomach"
       id="radialGradient19142-1-2"
       cx="524.31329"
       cy="210.70285"
       fx="524.31329"
       fy="210.70285"
       r="8.7642612"
       gradientTransform="matrix(0.00432818,2.1152253,-1.578443,0.00445095,896.36757,-928.87852)"
       gradientUnits="userSpaceOnUse" />
    <radialGradient
       inkscape:collect="always"
       xlink:href="#stomach"
       id="radialGradient19142-1-0"
       cx="524.31329"
       cy="210.70285"
       fx="524.31329"
       fy="210.70285"
       r="8.7642612"
       gradientTransform="matrix(0.00432818,2.1152253,-1.578443,0.00445095,882.79055,-924.57847)"
       gradientUnits="userSpaceOnUse" />
    <radialGradient
       inkscape:collect="always"
       xlink:href="#stomach"
       id="radialGradient19142-1-9"
       cx="524.31329"
       cy="210.70285"
       fx="524.31329"
       fy="210.70285"
       r="8.7642612"
       gradientTransform="matrix(0.00432818,2.1152253,-1.578443,0.00445095,865.46353,-924.6806)"
       gradientUnits="userSpaceOnUse" />
  </defs>
  <sodipodi:namedview
     id="base"
     pagecolor="#ffffff"
     bordercolor="#666666"
     borderopacity="1.0"
     inkscape:pageopacity="0.0"
     inkscape:pageshadow="2"
     inkscape:zoom="2.8"
     inkscape:cx="498.21428"
     inkscape:cy="178.57143"
     inkscape:document-units="px"
     inkscape:current-layer="layer1"
     showgrid="false"
     inkscape:window-width="1848"
     inkscape:window-height="1016"
     inkscape:window-x="72"
     inkscape:window-y="27"
     inkscape:window-maximized="1"
     showguides="true"
     inkscape:guide-bbox="true"
     inkscape:pagecheckerboard="0">
    <sodipodi:guide
       position="170.93675,884.02978"
       orientation="1,0"
       id="guide380" />
    <sodipodi:guide
       position="101.56768,899.18207"
       orientation="0,-1"
       id="guide382" />
    <sodipodi:guide
       position="549.77677,876.24616"
       orientation="1,0"
       id="guide12970" />
  </sodipodi:namedview>
  <metadata
     id="metadata4907">
    <rdf:RDF>
      <cc:Work
         rdf:about="">
        <dc:format>image/svg+xml</dc:format>
        <dc:type
           rdf:resource="http://purl.org/dc/dcmitype/StillImage" />
        <dc:title />
      </cc:Work>
    </rdf:RDF>
  </metadata>
  <g
     inkscape:label="Layer 1"
     inkscape:groupmode="layer"
     id="layer1">
    <ellipse
       style="fill:#ffff00;fill-opacity:0.140666;stroke-width:7.92526"
       id="path1982"
       cx="175.70401"
       cy="157.94978"
       inkscape:export-filename="/home/christopher/pyjam/pyweek32/img/head-top.png"
       inkscape:export-xdpi="111.33"
       inkscape:export-ydpi="111.33"
       rx="167.9521"
       ry="168.03673" />
    <ellipse
       style="fill:#000000;fill-opacity:0.117378;stroke-width:7.89777"
       id="path224"
       cx="170.93675"
       cy="153.18013"
       rx="127.66383"
       ry="127.66366" />
    <path
       style="fill:url(#radialGradient4409);fill-opacity:1;stroke:none;stroke-width:0.9375px;stroke-linecap:butt;stroke-linejoin:miter;stroke-opacity:1"
       d="m 206.25787,151.31464 c 15.81043,-4.51393 58.03691,12.22261 87.91111,9.74362 -11.99447,12.16295 -71.60977,12.66616 -86.42691,21.57399 -14.83838,7.88387 -37.71398,6.82069 -45.50581,-3.25794 -9.79609,-15.01604 30.53603,-24.80228 44.02161,-28.05967 z"
       id="path1722"
       sodipodi:nodetypes="ccccc" />
    <path
       style="fill:url(#linearGradient3762);fill-opacity:1;stroke:none;stroke-width:0.9375px;stroke-linecap:butt;stroke-linejoin:miter;stroke-opacity:1"
       d="m 210.96715,85.171834 c -6.15401,7.037357 -17.0555,12.367358 -28.11351,13.099937 -7.23241,-15.72032 -9.77258,-31.113436 -25.44761,-38.097297 -17.99256,-8.539 -38.43082,-3.597643 -56.99256,-27.815282 35.17063,14.571948 54.33161,6.003144 78.00606,17.15131 22.31056,10.981379 28.13704,19.420997 32.54762,35.661332 z"
       id="path909-7"
       sodipodi:nodetypes="cccccc" />
    <path
       style="fill:#ffffee;fill-opacity:1;stroke:none;stroke-width:0.9375px;stroke-linecap:butt;stroke-linejoin:miter;stroke-opacity:1"
       d="m 273.7357,158.96605 c 4.56968,0.30189 16.99217,0.1359 16.99217,0.1359 -1.55131,11.71653 -23.51809,30.76306 -34.34695,38.58307 7.93155,-11.77935 15.61697,-29.03871 17.35478,-38.71897 z"
       id="path7358"
       sodipodi:nodetypes="cccc" />
    <path
       style="fill:url(#radialGradient4344);fill-opacity:1;stroke:none;stroke-width:0.9375px;stroke-linecap:butt;stroke-linejoin:miter;stroke-opacity:1"
       d="m 149.75966,137.52441 c -0.18699,-19.18851 30.00072,-75.459321 63.83684,-50.782679 30.70634,3.560855 28.14738,21.122489 57.33976,32.521529 20.27636,6.48457 47.72052,5.38342 70.15145,4.75424 -13.15498,20.3272 -30.41642,30.06695 -46.88745,38.80232 -48.57741,0.37758 -66.82235,-17.96534 -94.12919,-7.61959 0,0 0.43537,27.27067 -26.05654,26.35776 -21.32697,-0.047 -24.36174,-25.53481 -24.25487,-44.03358 z"
       id="path531"
       sodipodi:nodetypes="cccccccc" />
    <path
       style="fill:url(#linearGradient8307);fill-opacity:1;stroke:none;stroke-width:0.9375px;stroke-linecap:butt;stroke-linejoin:miter;stroke-opacity:1"
       d="M 239.10029,102.6266 C 241.67671,67.148402 262.39177,63.384873 255.19392,52.643857 242.58005,40.303744 224.81163,36.077876 200.28291,37.552556 225.75054,22.106689 288.78563,42.701323 276.25556,67.568913 264.37428,88.32696 263.37565,89.30884 265.17037,119.0828 257.8419,115.72354 247.02092,109.58294 239.10029,102.6266 Z"
       id="path3052"
       sodipodi:nodetypes="cccccc" />
    <path
       style="fill:url(#linearGradient5065);fill-opacity:1;stroke:none;stroke-width:0.9375px;stroke-linecap:butt;stroke-linejoin:miter;stroke-opacity:1"
       d="m 193.0062,89.121501 c -6.01195,7.159109 -16.8046,12.706199 -27.84573,13.659919 -7.54555,-15.572441 -10.39326,-30.911643 -26.20491,-37.580427 -18.15983,-8.17723 -38.49512,-2.82786 -57.537769,-26.669199 35.455189,13.865214 54.440859,4.91468 78.333659,15.586849 22.52585,10.53271 28.52005,18.854045 33.25475,35.002858 z"
       id="path909"
       sodipodi:nodetypes="cccccc" />
    <path
       style="fill:url(#linearGradient3807);fill-opacity:1;stroke:none;stroke-width:0.9375px;stroke-linecap:butt;stroke-linejoin:miter;stroke-opacity:1"
       d="m 310.71371,125.6626 c 2.57642,-35.478204 25.1815,-21.51347 18.38891,-32.515246 -6.38058,-6.725381 -26.22987,1.398228 -41.0713,-16.312207 28.81501,11.783218 50.95128,3.141357 49.00632,18.613325 -2.63178,14.614738 -17.9667,0.721631 -16.17198,30.495588 -3.01937,0.97204 -7.06272,0.6099 -10.15195,-0.28146 z"
       id="path3052-5"
       sodipodi:nodetypes="cccccc" />
    <path
       style="fill:#2b3695;stroke:#000000;stroke-width:0.9375px;stroke-linecap:butt;stroke-linejoin:miter;stroke-opacity:1;fill-opacity:1"
       d="m 202.05633,94.211427 c 23.30867,5.673466 36.89531,14.573613 47.09721,26.064103 -8.83457,2.21767 -22.75999,5.75954 -28.7859,3.58593 -16.68754,-6.05517 -19.25376,-15.06242 -18.31131,-29.650033 z"
       id="path4720"
       sodipodi:nodetypes="cccc" />
    <ellipse
       style="fill:#312a2a;fill-opacity:1;stroke:#000000;stroke-width:1.45219;stroke-miterlimit:4;stroke-dasharray:none;stroke-opacity:1"
       id="path9403"
       transform="rotate(-115.70804)"
       ry="3.6245537"
       rx="2.148582"
       cy="211.06891"
       cx="-244.56834" />
    <path
       style="fill:url(#radialGradient13527-1);fill-opacity:1;stroke:none;stroke-width:0.39018px;stroke-linecap:butt;stroke-linejoin:miter;stroke-opacity:1"
       d="m 542.98993,130.04019 c 3.55578,7.30281 2.71587,16.66281 0.33387,23.39527 -7.54155,-0.66287 -21.77161,-2.25975 -26.84554,-11.87789 5.48088,-9.2172 20.5603,-11.57497 26.51167,-11.51738 z"
       id="path13005-9"
       sodipodi:nodetypes="cccc" />
    <path
       style="fill:url(#radialGradient13527-1-2);fill-opacity:1;stroke:none;stroke-width:0.39018px;stroke-linecap:butt;stroke-linejoin:miter;stroke-opacity:1"
       d="m 543.3238,153.43546 c 3.55578,7.30281 2.71588,16.66281 0.33387,23.39527 -7.54155,-0.66287 -21.77161,-2.25975 -26.84554,-11.87789 5.48088,-9.2172 20.5603,-11.57497 26.51167,-11.51738 z"
       id="path13005-9-3"
       sodipodi:nodetypes="cccc" />
    <path
       style="fill:url(#radialGradient13527);fill-opacity:1;stroke:none;stroke-width:0.408602px;stroke-linecap:butt;stroke-linejoin:miter;stroke-opacity:1"
       d="m 561.08371,140.80482 c 3.55578,8.00869 2.71587,18.27342 0.33387,25.65662 -7.54155,-0.72694 -21.77161,-2.47818 -26.84554,-13.02598 5.48088,-10.10813 20.5603,-12.6938 26.51167,-12.63064 z"
       id="path13005"
       sodipodi:nodetypes="cccc" />
    <path
       style="fill:url(#radialGradient19142-1);fill-opacity:1;stroke:none;stroke-width:1.01576px;stroke-linecap:butt;stroke-linejoin:miter;stroke-opacity:1"
       d="m 518.81871,195.68829 c 6.90417,2.61464 12.9966,2.17612 17.52841,-0.0756 l -0.18513,-17.51279 c -4.73456,-1.85997 -9.88844,-2.41905 -17.32724,-0.0192 z"
       id="path18488-7"
       sodipodi:nodetypes="ccccc" />
    <path
       style="fill:url(#radialGradient19142-1-2);fill-opacity:1;stroke:none;stroke-width:1.01576px;stroke-linecap:butt;stroke-linejoin:miter;stroke-opacity:1"
       d="m 563.27665,195.96244 c 6.89504,2.64763 12.98895,2.23825 17.52853,0.008 l -0.12437,-17.51352 c -4.72806,-1.8826 -9.87995,-2.46632 -17.32702,-0.10213 z"
       id="path18488-7-1"
       sodipodi:nodetypes="ccccc" />
    <path
       style="fill:url(#radialGradient19142-1-0);fill-opacity:1;stroke:none;stroke-width:1.01576px;stroke-linecap:butt;stroke-linejoin:miter;stroke-opacity:1"
       d="m 549.69963,200.2625 c 6.89504,2.64762 12.98895,2.23824 17.52853,0.008 l -0.12437,-17.51352 c -4.72806,-1.88259 -9.87995,-2.46631 -17.32702,-0.10213 z"
       id="path18488-7-5"
       sodipodi:nodetypes="ccccc" />
    <path
       style="fill:url(#radialGradient19142-1-9);fill-opacity:1;stroke:none;stroke-width:1.01576px;stroke-linecap:butt;stroke-linejoin:miter;stroke-opacity:1"
       d="m 532.37261,200.16037 c 6.89504,2.64762 12.98895,2.23824 17.52853,0.008 l -0.12437,-17.51352 c -4.72806,-1.8826 -9.87995,-2.46631 -17.32702,-0.10213 z"
       id="path18488-7-0"
       sodipodi:nodetypes="ccccc" />
    <path
       style="fill:url(#radialGradient13527-0);fill-opacity:1;stroke:none;stroke-width:0.354606px;stroke-linecap:butt;stroke-linejoin:miter;stroke-opacity:1"
       d="m 561.41758,166.46144 c 3.55578,6.03186 2.71588,13.7629 0.33388,19.32367 -7.54156,-0.54751 -21.77162,-1.86648 -26.84555,-9.81071 5.48088,-7.61309 20.56031,-9.56053 26.51167,-9.51296 z"
       id="path13005-6"
       sodipodi:nodetypes="cccc" />
    <path
       style="fill:url(#radialGradient13527-0-0-9-1-9);fill-opacity:1;stroke:none;stroke-width:0.777685px;stroke-linecap:butt;stroke-linejoin:miter;stroke-opacity:1"
       d="m 579.68806,121.48115 c -12.0081,9.57121 -45.53338,8.89491 -58.33929,5.42753 2.92349,-19.23642 4.59904,-29.695968 -13.08829,-59.287599 28.08241,-0.04141 69.70586,40.921789 71.42758,53.860069 z"
       id="path13005-6-6-9-6-48"
       sodipodi:nodetypes="cccc" />
    <path
       style="fill:url(#radialGradient13527-0-0);fill-opacity:1;stroke:none;stroke-width:0.354606px;stroke-linecap:butt;stroke-linejoin:miter;stroke-opacity:1"
       d="m 560.74984,121.48115 c 3.55577,6.03186 2.71587,13.7629 0.33387,19.32367 -7.54156,-0.54751 -21.77162,-1.86648 -26.84554,-9.81071 5.48088,-7.61309 20.5603,-9.56052 26.51167,-9.51296 z"
       id="path13005-6-6"
       sodipodi:nodetypes="cccc" />
    <path
       style="fill:url(#radialGradient13527-1-7);fill-opacity:1;stroke:none;stroke-width:0.39018px;stroke-linecap:butt;stroke-linejoin:miter;stroke-opacity:1"
       d="m 578.48246,130.04019 c 3.55578,7.30281 2.71587,16.66281 0.33387,23.39527 -7.54155,-0.66287 -21.77162,-2.25975 -26.84554,-11.87789 5.48088,-9.2172 20.5603,-11.57497 26.51167,-11.51738 z"
       id="path13005-9-7"
       sodipodi:nodetypes="cccc" />
    <path
       style="fill:url(#radialGradient13527-1-2-2);fill-opacity:1;stroke:none;stroke-width:0.39018px;stroke-linecap:butt;stroke-linejoin:miter;stroke-opacity:1"
       d="m 578.81633,153.43546 c 3.55578,7.30281 2.71588,16.66281 0.33387,23.39527 -7.54155,-0.66287 -21.77161,-2.25975 -26.84554,-11.87789 5.48088,-9.2172 20.5603,-11.57497 26.51167,-11.51738 z"
       id="path13005-9-3-3"
       sodipodi:nodetypes="cccc" />
    <path
       style="fill:url(#radialGradient13527-2-7);fill-opacity:1;stroke:none;stroke-width:0.408602px;stroke-linecap:butt;stroke-linejoin:miter;stroke-opacity:1"
       d="m 539.94475,140.80482 c 3.55577,8.00869 2.71587,18.27342 0.33387,25.65662 -7.54156,-0.72694 -21.77162,-2.47818 -26.84554,-13.02598 5.48088,-10.10813 20.5603,-12.6938 26.51167,-12.63064 z"
       id="path13005-61-3"
       sodipodi:nodetypes="cccc" />
    <path
       style="fill:url(#radialGradient13527-0-8-8);fill-opacity:1;stroke:none;stroke-width:0.354606px;stroke-linecap:butt;stroke-linejoin:miter;stroke-opacity:1"
       d="m 540.27862,166.46144 c 3.55578,6.03186 2.71587,13.7629 0.33387,19.32367 -7.54156,-0.54751 -21.77162,-1.86648 -26.84554,-9.81071 5.48088,-7.61309 20.5603,-9.56053 26.51167,-9.51296 z"
       id="path13005-6-2-6"
       sodipodi:nodetypes="cccc" />
    <path
       style="fill:url(#radialGradient13527-0-0-9-4);fill-opacity:1;stroke:none;stroke-width:0.354606px;stroke-linecap:butt;stroke-linejoin:miter;stroke-opacity:1"
       d="m 539.61087,121.48115 c 3.55578,6.03186 2.71588,13.7629 0.33388,19.32367 -7.54156,-0.54751 -21.77162,-1.86648 -26.84555,-9.81071 5.48088,-7.61309 20.56031,-9.56053 26.51167,-9.51296 z"
       id="path13005-6-6-9-1"
       sodipodi:nodetypes="cccc" />
    <path
       style="fill:url(#radialGradient13527-9);fill-opacity:1;stroke:none;stroke-width:0.9375px;stroke-linecap:butt;stroke-linejoin:miter;stroke-opacity:1"
       d="m 367.77457,462.27085 c 8.1584,18.37519 6.23132,41.92666 0.76604,58.86673 -17.3034,-1.66789 -49.95295,-5.68594 -61.5946,-29.8869 12.57537,-23.19216 47.1737,-29.12473 60.82856,-28.97983 z"
       id="path13005-7"
       sodipodi:nodetypes="cccc" />
    <path
       style="fill:url(#radialGradient13527-1-7-0);fill-opacity:1;stroke:none;stroke-width:0.39018px;stroke-linecap:butt;stroke-linejoin:miter;stroke-opacity:1"
       d="m 561.92815,130.04019 c 3.55577,7.30281 2.71587,16.66281 0.33387,23.39527 -7.54156,-0.66287 -21.77162,-2.25975 -26.84554,-11.87789 5.48088,-9.2172 20.5603,-11.57497 26.51167,-11.51738 z"
       id="path13005-9-7-55"
       sodipodi:nodetypes="cccc" />
    <path
       style="fill:url(#radialGradient13527-1-2-2-2);fill-opacity:1;stroke:none;stroke-width:0.39018px;stroke-linecap:butt;stroke-linejoin:miter;stroke-opacity:1"
       d="m 562.26202,153.43546 c 3.55578,7.30281 2.71587,16.66281 0.33387,23.39527 -7.54155,-0.66287 -21.77161,-2.25975 -26.84554,-11.87789 5.48088,-9.2172 20.5603,-11.57497 26.51167,-11.51738 z"
       id="path13005-9-3-3-4"
       sodipodi:nodetypes="cccc" />
    <path
       style="fill:url(#radialGradient13527-2-0);fill-opacity:1;stroke:none;stroke-width:0.408602px;stroke-linecap:butt;stroke-linejoin:miter;stroke-opacity:1"
       d="m 580.02193,140.80482 c 3.55578,8.00869 2.71587,18.27342 0.33387,25.65662 -7.54156,-0.72694 -21.77162,-2.47818 -26.84554,-13.02598 5.48088,-10.10813 20.5603,-12.6938 26.51167,-12.63064 z"
       id="path13005-61-7"
       sodipodi:nodetypes="cccc" />
    <path
       style="fill:url(#radialGradient13527-0-8-6);fill-opacity:1;stroke:none;stroke-width:0.354606px;stroke-linecap:butt;stroke-linejoin:miter;stroke-opacity:1"
       d="m 580.3558,166.46144 c 3.55578,6.03186 2.71587,13.7629 0.33387,19.32367 -7.54155,-0.54751 -21.77161,-1.86648 -26.84554,-9.81071 5.48088,-7.61309 20.5603,-9.56053 26.51167,-9.51296 z"
       id="path13005-6-2-65"
       sodipodi:nodetypes="cccc" />
    <path
       style="fill:url(#radialGradient13527-0-0-9-1);fill-opacity:1;stroke:none;stroke-width:0.354606px;stroke-linecap:butt;stroke-linejoin:miter;stroke-opacity:1"
       d="m 579.68806,121.48115 c 3.55577,6.03186 2.71587,13.7629 0.33387,19.32367 -7.54156,-0.54751 -21.77162,-1.86648 -26.84554,-9.81071 5.48088,-7.61309 20.5603,-9.56053 26.51167,-9.51296 z"
       id="path13005-6-6-9-6"
       sodipodi:nodetypes="cccc" />
    <path
       style="fill:url(#radialGradient13527-1-9);fill-opacity:1;stroke:none;stroke-width:0.895232px;stroke-linecap:butt;stroke-linejoin:miter;stroke-opacity:1"
       d="m 525.63885,423.21081 c 8.1584,16.75562 6.23132,38.23128 0.76604,53.67827 -17.3034,-1.52088 -49.95295,-5.18479 -61.5946,-27.2527 12.57537,-21.14802 47.1737,-26.5577 60.82856,-26.42557 z"
       id="path13005-9-8"
       sodipodi:nodetypes="cccc" />
    <path
       style="fill:url(#radialGradient13527-1-2-4);fill-opacity:1;stroke:none;stroke-width:0.895232px;stroke-linecap:butt;stroke-linejoin:miter;stroke-opacity:1"
       d="m 526.40489,476.88908 c 8.1584,16.75562 6.23132,38.23128 0.76604,53.67827 -17.3034,-1.52088 -49.95295,-5.18479 -61.5946,-27.2527 12.57537,-21.14802 47.1737,-26.5577 60.82856,-26.42557 z"
       id="path13005-9-3-4"
       sodipodi:nodetypes="cccc" />
    <path
       style="fill:url(#radialGradient13527-5);fill-opacity:1;stroke:none;stroke-width:0.9375px;stroke-linecap:butt;stroke-linejoin:miter;stroke-opacity:1"
       d="m 567.15335,447.90925 c 8.1584,18.37519 6.23132,41.92666 0.76604,58.86673 -17.3034,-1.66789 -49.95295,-5.68594 -61.5946,-29.8869 12.57537,-23.19216 47.1737,-29.12473 60.82856,-28.97983 z"
       id="path13005-3"
       sodipodi:nodetypes="cccc" />
    <path
       style="fill:url(#radialGradient13527-0-2);fill-opacity:1;stroke:none;stroke-width:0.81361px;stroke-linecap:butt;stroke-linejoin:miter;stroke-opacity:1"
       d="m 567.91939,506.77598 c 8.1584,13.83955 6.23132,31.57769 0.76604,44.33636 -17.3034,-1.2562 -49.95295,-4.28245 -61.5946,-22.50976 12.57537,-17.46753 47.1737,-21.93573 60.82856,-21.8266 z"
       id="path13005-6-1"
       sodipodi:nodetypes="cccc" />
    <path
       style="fill:url(#radialGradient13527-0-0-5);fill-opacity:1;stroke:none;stroke-width:0.81361px;stroke-linecap:butt;stroke-linejoin:miter;stroke-opacity:1"
       d="m 566.38731,403.57289 c 8.1584,13.83955 6.23132,31.57769 0.76604,44.33636 -17.3034,-1.2562 -49.95295,-4.28245 -61.5946,-22.50976 12.57537,-17.46753 47.1737,-21.93573 60.82856,-21.8266 z"
       id="path13005-6-6-4"
       sodipodi:nodetypes="cccc" />
    <path
       style="fill:url(#radialGradient13527-1-7-4);fill-opacity:1;stroke:none;stroke-width:0.895232px;stroke-linecap:butt;stroke-linejoin:miter;stroke-opacity:1"
       d="m 607.07316,423.21081 c 8.1584,16.75562 6.23132,38.23128 0.76604,53.67827 -17.3034,-1.52088 -49.95295,-5.18479 -61.5946,-27.2527 12.57537,-21.14802 47.1737,-26.5577 60.82856,-26.42557 z"
       id="path13005-9-7-9"
       sodipodi:nodetypes="cccc" />
    <path
       style="fill:url(#radialGradient13527-1-2-2-7);fill-opacity:1;stroke:none;stroke-width:0.895232px;stroke-linecap:butt;stroke-linejoin:miter;stroke-opacity:1"
       d="m 607.8392,476.88908 c 8.1584,16.75562 6.23132,38.23128 0.76604,53.67827 -17.3034,-1.52088 -49.95295,-5.18479 -61.5946,-27.2527 12.57537,-21.14802 47.1737,-26.5577 60.82856,-26.42557 z"
       id="path13005-9-3-3-2"
       sodipodi:nodetypes="cccc" />
    <path
       style="fill:url(#radialGradient13527-2-7-4);fill-opacity:1;stroke:none;stroke-width:0.9375px;stroke-linecap:butt;stroke-linejoin:miter;stroke-opacity:1"
       d="m 518.65196,447.90925 c 8.1584,18.37519 6.23132,41.92666 0.76604,58.86673 -17.3034,-1.66789 -49.95295,-5.68594 -61.5946,-29.8869 12.57537,-23.19216 47.1737,-29.12473 60.82856,-28.97983 z"
       id="path13005-61-3-0"
       sodipodi:nodetypes="cccc" />
    <path
       style="fill:url(#radialGradient13527-0-8-8-4);fill-opacity:1;stroke:none;stroke-width:0.81361px;stroke-linecap:butt;stroke-linejoin:miter;stroke-opacity:1"
       d="m 519.418,506.77598 c 8.1584,13.83955 6.23132,31.57769 0.76604,44.33636 -17.3034,-1.2562 -49.95295,-4.28245 -61.5946,-22.50976 12.57537,-17.46753 47.1737,-21.93573 60.82856,-21.8266 z"
       id="path13005-6-2-6-6"
       sodipodi:nodetypes="cccc" />
    <path
       style="fill:url(#radialGradient13527-0-0-9-4-3);fill-opacity:1;stroke:none;stroke-width:0.81361px;stroke-linecap:butt;stroke-linejoin:miter;stroke-opacity:1"
       d="m 517.88592,403.57289 c 8.1584,13.83955 6.23132,31.57769 0.76604,44.33636 -17.3034,-1.2562 -49.95295,-4.28245 -61.5946,-22.50976 12.57537,-17.46753 47.1737,-21.93573 60.82856,-21.8266 z"
       id="path13005-6-6-9-1-8"
       sodipodi:nodetypes="cccc" />
    <path
       style="fill:url(#radialGradient13527-1-7-0-0);fill-opacity:1;stroke:none;stroke-width:0.895232px;stroke-linecap:butt;stroke-linejoin:miter;stroke-opacity:1"
       d="m 569.09083,423.21081 c 8.1584,16.75562 6.23132,38.23128 0.76604,53.67827 -17.3034,-1.52088 -49.95295,-5.18479 -61.5946,-27.2527 12.57537,-21.14802 47.1737,-26.5577 60.82856,-26.42557 z"
       id="path13005-9-7-55-9"
       sodipodi:nodetypes="cccc" />
    <path
       style="fill:url(#radialGradient13527-1-2-2-2-7);fill-opacity:1;stroke:none;stroke-width:0.895232px;stroke-linecap:butt;stroke-linejoin:miter;stroke-opacity:1"
       d="m 569.85687,476.88908 c 8.1584,16.75562 6.23132,38.23128 0.76604,53.67827 -17.3034,-1.52088 -49.95295,-5.18479 -61.5946,-27.2527 12.57537,-21.14802 47.1737,-26.5577 60.82856,-26.42557 z"
       id="path13005-9-3-3-4-2"
       sodipodi:nodetypes="cccc" />
    <path
       style="fill:url(#radialGradient13527-2-0-8);fill-opacity:1;stroke:none;stroke-width:0.9375px;stroke-linecap:butt;stroke-linejoin:miter;stroke-opacity:1"
       d="m 610.60533,447.90925 c 8.1584,18.37519 6.23132,41.92666 0.76604,58.86673 -17.3034,-1.66789 -49.95295,-5.68594 -61.5946,-29.8869 12.57537,-23.19216 47.1737,-29.12473 60.82856,-28.97983 z"
       id="path13005-61-7-6"
       sodipodi:nodetypes="cccc" />
    <path
       style="fill:url(#radialGradient13527-0-8-6-6);fill-opacity:1;stroke:none;stroke-width:0.81361px;stroke-linecap:butt;stroke-linejoin:miter;stroke-opacity:1"
       d="m 611.37137,506.77598 c 8.1584,13.83955 6.23132,31.57769 0.76604,44.33636 -17.3034,-1.2562 -49.95295,-4.28245 -61.5946,-22.50976 12.57537,-17.46753 47.1737,-21.93573 60.82856,-21.8266 z"
       id="path13005-6-2-65-6"
       sodipodi:nodetypes="cccc" />
    <path
       style="fill:url(#radialGradient13527-0-0-9-1-8);fill-opacity:1;stroke:none;stroke-width:0.81361px;stroke-linecap:butt;stroke-linejoin:miter;stroke-opacity:1"
       d="m 609.83929,403.57289 c 8.1584,13.83955 6.23132,31.57769 0.76604,44.33636 -17.3034,-1.2562 -49.95295,-4.28245 -61.5946,-22.50976 12.57537,-17.46753 47.1737,-21.93573 60.82856,-21.8266 z"
       id="path13005-6-6-9-6-4"
       sodipodi:nodetypes="cccc" />
    <path
       style="fill:url(#radialGradient19142);fill-opacity:1;stroke:none;stroke-width:0.9375px;stroke-linecap:butt;stroke-linejoin:miter;stroke-opacity:1"
       d="m 403.70551,411.82173 c 6.89504,2.25538 12.98895,1.90665 17.52853,0.007 l -0.12437,-14.91889 c -4.72806,-1.60369 -9.87995,-2.10093 -17.32702,-0.087 z"
       id="path18488"
       sodipodi:nodetypes="ccccc" />
    <path
       style="fill:#21c842;fill-opacity:0.20770763;stroke:none;stroke-width:1.549;stroke-miterlimit:4;stroke-dasharray:none;stroke-opacity:1"
       id="path19719"
       sodipodi:type="arc"
       sodipodi:cx="549.77679"
       sodipodi:cy="153.18013"
       sodipodi:rx="86.711029"
       sodipodi:ry="86.711029"
       sodipodi:start="0"
       sodipodi:end="6.2682627"
       sodipodi:open="true"
       sodipodi:arc-type="arc"
       d="m 636.48782,153.18013 a 86.711029,86.711029 0 0 1 -86.38754,86.71043 86.711029,86.711029 0 0 1 -87.0321,-86.06346 86.711029,86.711029 0 0 1 85.73817,-87.352568 86.711029,86.711029 0 0 1 87.67182,85.411698" />
  </g>
</svg>
